<?xml version="1.0" standalone="no"?>
<!DOCTYPE svg PUBLIC "-//W3C//DTD SVG 1.1//EN" "http://www.w3.org/Graphics/SVG/1.1/DTD/svg11.dtd" >
<svg xmlns="http://www.w3.org/2000/svg" xmlns:xlink="http://www.w3.org/1999/xlink" version="1.1">
<metadata></metadata>
<defs>
<font id="augustmedium" horiz-adv-x="1062" >
<font-face units-per-em="2048" ascent="1393" descent="-655" />
<missing-glyph horiz-adv-x="608" />
<glyph unicode="&#xfb01;" horiz-adv-x="985" d="M31 784v185q0 6 6 6h117q6 0 6 6v156q0 149 70 223t196 74q93 0 156 -39q4 -2 8 -2h241q7 0 7 -7v-235q0 -6 -7 -6h-233q-6 0 -6 6v25q0 32 -30 49.5t-62 17.5q-97 0 -97 -106v-156q0 -6 7 -6h421q7 0 7 -6v-963q0 -6 -7 -6h-233q-6 0 -6 6v766q0 6 -6 6h-176q-7 0 -7 -6 v-766q0 -6 -6 -6h-231q-6 0 -6 6v766q0 6 -6 6h-117q-6 0 -6 6z" />
<glyph unicode="&#xfb02;" horiz-adv-x="976" d="M31 784v185q0 6 6 6h117q6 0 6 6v156q0 149 70 223t196 74q93 0 156 -39q4 -2 8 -2h241q7 0 7 -7v-1380q0 -6 -7 -6h-233q-6 0 -6 6v766q0 6 -6 6h-176q-7 0 -7 -6v-766q0 -6 -6 -6h-231q-6 0 -6 6v766q0 6 -6 6h-117q-6 0 -6 6zM403 981q0 -6 7 -6h176q6 0 6 6v195 q0 32 -30 49.5t-62 17.5q-97 0 -97 -106v-156z" />
<glyph horiz-adv-x="0" />
<glyph horiz-adv-x="682" />
<glyph unicode=" "  horiz-adv-x="608" />
<glyph unicode="&#x09;" horiz-adv-x="608" />
<glyph unicode="&#xa0;" horiz-adv-x="608" />
<glyph unicode="!" horiz-adv-x="446" d="M102 6v217q0 6 7 6h229q6 0 6 -6v-217q0 -6 -6 -6h-229q-7 0 -7 6zM102 1386q0 7 7 7h229q6 0 6 -7l-2 -286q-1 -118 -16 -420.5t-15 -323.5q0 -4 -1.5 -6t-3.5 -2h-1h-162q-6 0 -6 8q0 19 -14.5 311t-16.5 433z" />
<glyph unicode="&#x22;" horiz-adv-x="823" d="M113 1227v157q0 9 8 9h215q8 0 8 -9v-157l-41 -430q0 -4 -4 -4h-141q-4 0 -4 4zM479 1227v157q0 9 8 9h215q9 0 9 -9v-157l-41 -430q0 -4 -4 -4h-142q-4 0 -4 4z" />
<glyph unicode="#" horiz-adv-x="1261" d="M63 424l7 182q0 8 8 8h241q9 0 9 9l10 141q0 8 -8 8h-240q-8 0 -8 8l6 183q0 8 8 8h246q8 0 8 8l29 405q0 9 8 9h186q9 0 9 -9l-29 -405q0 -8 8 -8h146q8 0 8 8l28 405q0 9 9 9h186q8 0 8 -9l-26 -405q0 -8 8 -8h252q8 0 8 -8l-6 -183q0 -8 -8 -8h-261q-8 0 -8 -8 l-10 -141q0 -9 8 -9h258q8 0 8 -8l-6 -182q0 -8 -8 -8h-264q-8 0 -8 -8l-29 -400q0 -8 -8 -8h-189q-8 0 -8 8l29 400q0 8 -8 8h-146q-8 0 -8 -8l-27 -400q0 -8 -8 -8h-186q-8 0 -8 8l26 400q0 8 -8 8h-233q-9 0 -9 8zM528 623q0 -9 9 -9h147q8 0 8 9l10 141q0 8 -8 8h-147 q-8 0 -8 -8z" />
<glyph unicode="$" horiz-adv-x="1234" d="M86 434q0 6 4 8h236q7 0 10 -8q42 -256 313 -256q126 0 184 57t58 152q0 79 -46 133.5t-167 83.5q-28 6 -117.5 23.5t-148.5 31.5q-155 37 -232.5 135t-77.5 232q0 155 102 253.5t269 129.5q4 0 4 4v135q0 5 6 8h234q8 0 8 -8v-135q0 -6 6 -6q82 -12 145 -42t102 -67.5 t66.5 -89t40.5 -98t21 -104.5q0 -9 -4 -9h-232q-3 0 -6 9q-9 48 -25 82.5t-45 64.5t-76.5 45.5t-113.5 15.5q-113 0 -178.5 -43t-65.5 -127q0 -20 2 -35.5t11 -36t25 -36.5t46 -32t72 -27q51 -14 155.5 -36.5t114.5 -25.5q189 -47 275 -149t86 -275q0 -99 -47.5 -186.5 t-143 -149t-221.5 -73.5q-8 0 -8 -9l-2 -168q0 -8 -8 -8h-234q-6 3 -6 8v181q0 6 -8 6q-171 31 -272.5 153t-110.5 289z" />
<glyph unicode="%" horiz-adv-x="1490" d="M82 1106q0 128 94.5 228t226.5 100q129 0 225.5 -98t96.5 -230q0 -127 -95.5 -226.5t-226.5 -99.5q-128 0 -224.5 98t-96.5 228zM184 6q171 249 480.5 720.5t418.5 659.5q5 7 9 7h213q4 0 4 -7q-81 -127 -424.5 -649t-470.5 -731q-3 -6 -8 -6h-218q-10 0 -4 6zM274 1106 q0 -63 36.5 -100t92.5 -37q53 0 91 38t38 99q0 60 -36 99.5t-93 39.5q-55 0 -92 -39t-37 -100zM766 285q0 128 94.5 227.5t226.5 99.5q129 0 225.5 -97.5t96.5 -229.5q0 -127 -95.5 -226.5t-226.5 -99.5q-128 0 -224.5 98t-96.5 228zM958 285q0 -63 36.5 -100.5t92.5 -37.5 q53 0 91.5 38.5t38.5 99.5q0 60 -36.5 99.5t-93.5 39.5q-55 0 -92 -39t-37 -100z" />
<glyph unicode="&#x26;" horiz-adv-x="1273" d="M78 358q0 74 20.5 134.5t62.5 108t80 78.5t99 71q3 3 0 6q-14 18 -54 66t-55.5 69.5t-39 59.5t-32.5 72t-9 71q0 106 57 185t144.5 117t189.5 38q71 0 139.5 -22.5t125.5 -64t91.5 -107.5t34.5 -146q0 -44 -12.5 -82t-30 -68t-58.5 -69.5t-75.5 -68t-102.5 -81.5 q-4 -4 0 -8l240 -299q4 -8 8 0q4 7 10.5 28t12.5 60t6 78v41l4 6h196q9 0 9 -8v-27q0 -204 -92 -360q-3 -4 0 -7l180 -221q2 -2 1 -5t-5 -3h-252q-4 0 -8 4l-58 72q-2 2 -4 0q-51 -54 -140 -85.5t-190 -31.5q-226 0 -359.5 109t-133.5 290zM319 360q0 -85 62.5 -144.5 t189.5 -59.5q61 0 115 20.5t88 54.5q4 5 0 9l-280 358q-4 4 -9 0q-58 -41 -90 -70.5t-54 -72.5t-22 -95zM391 1094q0 -21 5 -40.5t10 -33t20.5 -36.5t23 -33t33 -41t35.5 -44q2 -2 4 0q96 72 132 120t36 108q0 66 -39.5 104.5t-109.5 38.5q-67 0 -108.5 -39t-41.5 -104z" />
<glyph unicode="'" horiz-adv-x="436" d="M113 1227v157q0 9 8 9h215q8 0 8 -9v-157l-41 -430q0 -4 -4 -4h-141q-4 0 -4 4z" />
<glyph unicode="(" horiz-adv-x="714" d="M88 571q0 140 34 272t82 225t111 176t110 128.5t91 77.5q8 6 16 6h154q4 0 5 -3t-1 -5q-41 -43 -71.5 -79t-77.5 -99t-81 -132t-66.5 -155.5t-50 -193t-17.5 -222.5q0 -131 27 -254.5t64 -210.5t92 -172.5t93.5 -131.5t87.5 -97q3 -3 1 -5.5t-5 -2.5h-154q-8 0 -16 6 q-43 32 -91 78.5t-110.5 129.5t-111 176t-82 223t-33.5 265z" />
<glyph unicode=")" horiz-adv-x="714" d="M23 -304.5q-1 2.5 2 5.5q49 51 87.5 97t93.5 131.5t92 172.5t64 210.5t27 254.5q0 116 -17.5 222.5t-50 193t-66.5 155.5t-81 132t-77.5 99t-71.5 79q-3 4 -1 6t5 2h153q9 0 17 -6q44 -32 91 -77.5t110 -128.5t111 -176t82 -225t34 -272q0 -135 -33.5 -265t-82 -223 t-111 -176t-110.5 -129.5t-91 -78.5q-8 -6 -17 -6h-153q-5 0 -6 2.5z" />
<glyph unicode="*" horiz-adv-x="946" d="M59 1022l56 174q0 2 2.5 3.5t5.5 0.5l258 -92q6 -3 6 4l-8 274q0 7 8 7h180q8 0 8 -7l-8 -274q0 -7 6 -4l254 92q10 5 13 -4l55 -174q2 -5 -4 -8l-260 -78q-5 0 -2 -6l166 -215q4 -7 -2 -13l-146 -106q-7 -3 -10 2l-156 225q-4 8 -8 0l-154 -225q-6 -6 -12 0l-145 107 q-6 4 0 10l168 217q2 4 -2 4l-265 78q-6 3 -4 8z" />
<glyph unicode="+" horiz-adv-x="1118" d="M61 598v201q0 8 9 8h374q7 0 7 6v363q0 8 8 8h203q8 0 8 -8v-363q0 -3 1.5 -4.5t2.5 -1.5h2h373q8 0 8 -8v-201q0 -8 -8 -8h-373q-6 0 -6 -6v-367q0 -8 -8 -8h-203q-8 0 -8 8v367q-1 6 -7 6h-374q-9 0 -9 8z" />
<glyph unicode="," horiz-adv-x="468" d="M82 8v260q0 6 1.5 7t6.5 1h279q8 0 8 -8v-336q0 -71 -12 -121t-42.5 -90.5t-87 -61t-141.5 -21.5q-8 0 -8 6v123q0 8 8 8q68 0 99.5 25.5t31.5 95.5v100q0 4 -6 4h-129q-5 0 -6.5 1t-1.5 7z" />
<glyph unicode="-" horiz-adv-x="978" d="M174 389v201q0 8 8 8h615q8 0 8 -8v-201q0 -8 -8 -8h-615q-8 0 -8 8z" />
<glyph unicode="." horiz-adv-x="468" d="M86 8v260q0 6 1.5 7t6.5 1h279q8 0 8 -8v-260q0 -8 -8 -8h-279q-5 0 -6.5 1t-1.5 7z" />
<glyph unicode="/" horiz-adv-x="798" d="M-8 6l600 1380q2 7 8 7h203q7 0 4 -7l-602 -1380q-3 -6 -8 -6h-201z" />
<glyph unicode="0" horiz-adv-x="1255" d="M100 530v353q0 118 31.5 216t94 174t165.5 118.5t238 42.5q257 0 391.5 -148.5t134.5 -402.5v-353q0 -266 -133 -418.5t-393 -152.5q-268 0 -398.5 148.5t-130.5 422.5zM354 567q0 -218 64.5 -314.5t210.5 -96.5t209 96t63 315v279q0 76 -7 132.5t-25 107.5t-48 82.5 t-78 50t-114 18.5q-65 0 -113.5 -18.5t-79 -50.5t-49 -82t-26 -107.5t-7.5 -132.5v-279z" />
<glyph unicode="1" horiz-adv-x="714" d="M125 1049v165q0 8 8 13l408 207q3 2 6.5 -0.5t3.5 -8.5v-1417q0 -8 -8 -8h-232q-8 0 -8 8v1114q0 7 -6 4l-164 -82q-8 -4 -8 5z" />
<glyph unicode="2" horiz-adv-x="1116" d="M109 8v164q0 51 6.5 95t21 80.5t31.5 67t42.5 57t49.5 47.5t58 43t62 38.5t67 38.5q36 20 55 31q93 53 142 86t88.5 75t53 86.5t13.5 108.5q0 104 -53 157.5t-173 53.5q-105 0 -162 -63t-57 -187v-41q0 -8 -8 -8h-227q-8 0 -8 8v72q0 83 29.5 157.5t84.5 132.5t142.5 92 t195.5 34q234 0 353.5 -106.5t119.5 -299.5q0 -109 -39.5 -194t-119 -157.5t-218.5 -156.5q-41 -25 -97.5 -56.5t-81.5 -46t-57 -37.5t-44.5 -42.5t-21.5 -48t-9 -66.5v-18q0 -8 8 -8l674 8q8 0 8 -8v-189q0 -8 -8 -8h-913q-8 0 -8 8z" />
<glyph unicode="3" horiz-adv-x="1169" d="M84 391v53q0 9 8 9h227q9 0 9 -9v-18q0 -124 61.5 -197t185.5 -73q125 0 187.5 66.5t62.5 187.5q0 133 -77.5 190t-229.5 57h-90q-8 0 -8 9v159q0 9 8 9h88q258 0 258 215q0 85 -52.5 136.5t-146.5 51.5q-106 0 -152 -49.5t-46 -130.5v-21q0 -8 -8 -8h-228q-8 0 -8 8v37 q0 162 123 261.5t313 99.5q207 0 330 -97.5t123 -273.5q0 -122 -60 -197.5t-157 -109.5q-4 -2 0 -4q268 -67 268 -346q0 -90 -32.5 -170t-94 -142t-158 -98.5t-215.5 -36.5q-225 0 -357 122t-132 310z" />
<glyph unicode="4" horiz-adv-x="1142" d="M68 309v201q0 7 6 16l540 860q5 7 11 7h278q8 0 8 -9v-868q0 -8 9 -8h165q9 0 9 -8v-191q0 -8 -9 -8h-165q-9 0 -9 -8v-285q0 -8 -8 -8h-217q-8 0 -8 8v285q0 8 -8 8h-594q-8 0 -8 8zM289 516q-8 -8 4 -8h377q8 0 8 8v610q0 10 -8 2z" />
<glyph unicode="5" horiz-adv-x="1177" d="M119 377q0 8 8 8h223q8 0 8 -8q13 -103 71 -162t161 -59q262 0 262 309q0 285 -279 285q-136 0 -260 -127q-9 -9 -16 -7l-125 35q-8 3 -8 8l84 725q0 9 8 9h715q8 0 8 -9v-190q0 -8 -8 -8l-514 10q-8 0 -8 -8l-37 -311q0 -9 6 -3q38 32 99 56t134 24q202 0 318 -122 t116 -367q0 -223 -130.5 -364.5t-364.5 -141.5q-220 0 -339.5 113t-131.5 305z" />
<glyph unicode="6" horiz-adv-x="1183" d="M119 610q0 183 28 325.5t76.5 235t118 153t147 85.5t168.5 25q73 0 140.5 -21t127 -62t102 -110t58.5 -158q0 -8 -6 -8h-190q-9 0 -10 6q-47 164 -222 164q-140 0 -221.5 -114.5t-93.5 -339.5q0 -8 6 0q44 71 120 114t177 43q102 0 187 -29.5t149.5 -87t100.5 -150.5 t36 -212q0 -225 -140.5 -367.5t-359.5 -142.5q-234 0 -366.5 163.5t-132.5 487.5zM354 457q0 -139 81.5 -220t185.5 -81q117 0 188.5 80.5t71.5 232.5q0 134 -69 205t-187 71q-130 0 -200.5 -75t-70.5 -213z" />
<glyph unicode="7" horiz-adv-x="915" d="M23 1200v184q0 3 1.5 5t3.5 3l1 1h862q8 0 8 -9v-178q0 -8 -4 -12q-43 -43 -65.5 -66.5t-60.5 -65.5t-59 -72t-52 -76.5t-48.5 -88.5t-40 -98.5t-34.5 -116.5t-24 -132t-17 -155.5t-5 -177.5v-137q0 -8 -8 -8h-223q-8 0 -8 6v70q0 75 3 140t12.5 149.5t26 160t46 164 t69 168.5t98 166t130.5 164q8 8 -2 8l-604 -4q-6 0 -6 8z" />
<glyph unicode="8" horiz-adv-x="1210" d="M96 414q0 77 26.5 142t68 106.5t84.5 67t85 36.5q2 0 2 2t-2 2q-210 71 -210 281q0 94 37 169t100 120.5t143 69.5t170 24q123 0 226 -43.5t168 -132t65 -207.5q0 -63 -19.5 -113t-54 -82t-68 -51.5t-75.5 -34.5q-12 0 0 -4q44 -13 86.5 -38t86.5 -66t71.5 -106 t27.5 -142q0 -212 -141.5 -333.5t-362.5 -121.5q-245 0 -379.5 117t-134.5 338zM328 408q0 -110 76.5 -181t205.5 -71q126 0 196.5 69.5t70.5 182.5q0 116 -69 186t-198 70q-128 0 -205 -71t-77 -185zM375 1053q0 -101 66 -161.5t169 -60.5q101 0 162.5 60t61.5 162 q0 79 -59 131.5t-171 52.5q-103 0 -166 -54t-63 -130z" />
<glyph unicode="9" horiz-adv-x="1132" d="M66 885v104q0 92 35 173.5t97.5 141.5t153 95t195.5 35q231 0 360 -131.5t129 -380.5v-172q0 -219 -33.5 -373t-100.5 -245t-159.5 -132t-220.5 -41q-85 0 -155.5 21.5t-117.5 56.5t-80.5 82t-50 95.5t-20.5 100.5q0 9 4 9h201q4 0 6 -1l3 -1.5t2 -3.5l1 -3 q16 -76 64.5 -117.5t144.5 -41.5q303 0 303 458q0 3 -2.5 3t-3.5 -3q-37 -64 -108.5 -110.5t-186.5 -46.5q-113 0 -203 37t-145 99t-83.5 136.5t-28.5 155.5zM295 913q0 -119 73 -188.5t197 -69.5q63 0 113 24.5t79.5 65.5t44.5 90t15 101v39q0 262 -252 262 q-124 0 -197 -69t-73 -203v-52z" />
<glyph unicode=":" horiz-adv-x="573" d="M139 8v260q0 6 1.5 7t6.5 1h279q8 0 8 -8v-260q0 -8 -8 -8h-279q-5 0 -6.5 1t-1.5 7zM139 707v260q0 6 1.5 7t6.5 1h279q8 0 8 -8v-260q0 -9 -8 -9h-279q-8 0 -8 9z" />
<glyph unicode=";" horiz-adv-x="573" d="M139 8v260q0 6 1.5 7t6.5 1h279q8 0 8 -8v-336q0 -71 -12 -121t-42 -90.5t-86.5 -61t-141.5 -21.5q-9 0 -9 6v123q0 8 9 8q68 0 99.5 25.5t31.5 95.5v100q0 4 -7 4h-129q-5 0 -6.5 1t-1.5 7zM139 709v260q0 6 8 6h279q8 0 8 -6v-260q0 -9 -8 -9h-279q-8 0 -8 9z" />
<glyph unicode="&#x3c;" horiz-adv-x="1087" d="M98 625v155q0 5 6 8l908 426q8 3 8 -6v-202q0 -6 -6 -9l-658 -288q-3 -1 -3 -5t3 -6l658 -290q6 -3 6 -9v-202q0 -11 -8 -7l-908 426q-6 3 -6 9z" />
<glyph unicode="=" horiz-adv-x="1220" d="M113 1001q0 9 8 9h977q8 0 8 -9l2 -200q0 -8 -8 -8h-977q-8 0 -8 8zM115 383v201q0 8 8 8h977q8 0 8 -8v-201q0 -8 -8 -8h-977q-8 0 -8 8z" />
<glyph unicode="&#x3e;" horiz-adv-x="1087" d="M68 197v202q0 6 6 9l657 290q3 2 3 6t-3 5l-657 288q-6 3 -6 9v202q0 9 8 6l907 -426q6 -3 6 -8v-155q0 -6 -6 -9l-907 -426q-8 -4 -8 7z" />
<glyph unicode="?" horiz-adv-x="1122" d="M109 981q0 67 11 127t42 121.5t80.5 105t131.5 71.5t189 28q114 0 202.5 -33t138.5 -87t75 -115.5t25 -127.5q0 -88 -26 -156t-67.5 -115t-117.5 -110q-14 -12 -40.5 -33t-34.5 -28t-25.5 -22.5t-22 -20.5t-14.5 -17.5t-12 -19.5t-7 -19.5t-6 -24.5t-2 -28l-8 -115 q0 -6 -7 -6h-186q-6 0 -6 6q-10 120 -10 132q0 56 8 93t31.5 70.5t52.5 59t86 67.5q100 74 133 126t33 143q0 83 -53.5 128.5t-155.5 45.5q-105 0 -150 -60.5t-45 -185.5q0 -6 -6 -6h-231q-6 0 -6 6zM403 6v217q0 6 7 6h229q6 0 6 -6v-217q0 -6 -6 -6h-229q-7 0 -7 6z" />
<glyph unicode="@" horiz-adv-x="1691" d="M113 479q0 161 58 300.5t157 236.5t235 152t289 55q168 0 307 -57.5t229 -154.5t139.5 -224.5t49.5 -268.5q0 -113 -35 -214t-106 -167.5t-162 -66.5q-49 0 -88 15.5t-62 40.5t-36 47.5t-19 45.5q0 8 -4 0q-104 -158 -324 -158q-115 0 -192.5 75t-77.5 173q0 113 79 181 t191 79l285 29q6 0 6 8v33q0 73 -51 112.5t-119 39.5q-65 0 -105.5 -43.5t-47.5 -96.5q0 -8 -9 -8h-184q-10 0 -10 8q25 124 119 206.5t235 82.5q95 0 167 -29.5t113 -81.5t61 -114.5t20 -136.5v-285q0 -37 18.5 -54.5t46.5 -17.5q20 0 40 12.5t40.5 41t33.5 87t13 138.5 q0 161 -71.5 293.5t-201.5 210t-292 77.5q-246 0 -413 -171t-167 -431q0 -267 160 -428.5t424 -161.5q204 0 344 105q7 4 12 -4l62 -94q2 -1 1.5 -5.5t-3.5 -7.5q-167 -135 -412 -135q-339 0 -541 201t-202 530zM674 328q0 -48 30 -78.5t91 -30.5q102 0 167.5 58.5 t65.5 138.5v33q0 2 -4 2q-207 -20 -248 -27q-42 -7 -72 -30t-30 -66z" />
<glyph unicode="A" horiz-adv-x="1320" d="M4 1l2 5l496 1380q4 7 8 7h303q5 0 8 -7l496 -1380q0 -6 -4 -6h-250q-6 0 -8 6l-119 350q-3 6 -8 6h-533q-5 0 -8 -6l-117 -350q-2 -6 -8 -6h-252q-6 0 -6 1zM465 575q-3 -6 2 -6h389q5 0 2 6l-194 594q0 1 -2.5 1t-2.5 -1z" />
<glyph unicode="B" horiz-adv-x="1314" d="M139 6v1380q0 7 6 7h545q220 0 352 -93t132 -272q0 -96 -62.5 -170t-148.5 -102q-10 -5 0 -8q260 -75 260 -328q0 -114 -42 -197t-118.5 -131t-172.5 -70t-214 -22h-531q-6 0 -6 6zM393 203q0 -6 6 -6h303q136 0 200.5 59.5t64.5 161.5q0 41 -16 80t-48 73t-89.5 55 t-133.5 21h-281q-6 0 -6 -6v-438zM393 842q0 -6 6 -6h312q106 0 157.5 52t51.5 134q0 81 -56.5 127.5t-152.5 46.5h-312q-6 0 -6 -6v-348z" />
<glyph unicode="C" horiz-adv-x="1388" d="M113 584v241q0 134 48.5 248.5t132 193t196 123t239.5 44.5q259 0 414 -145.5t155 -373.5q0 -6 -1.5 -7t-6.5 -1h-243q-9 0 -9 8q0 137 -86.5 229.5t-222.5 92.5q-149 0 -254.5 -120.5t-105.5 -323.5v-177q0 -202 97 -331t263 -129q70 0 126 19.5t90.5 51.5t57.5 75 t32 87t9 92q0 8 9 8h241q9 0 9 -8q0 -79 -17 -150t-58.5 -140.5t-105 -119.5t-164.5 -81t-229 -31q-280 0 -448 167.5t-168 457.5z" />
<glyph unicode="D" horiz-adv-x="1357" d="M139 8v1376q0 9 8 9h408q120 0 223.5 -22t192 -70.5t151 -120.5t98 -177.5t35.5 -236.5v-156q0 -124 -37 -226t-102 -172.5t-154 -118.5t-191 -70.5t-216 -22.5h-408q-8 0 -8 8zM393 205q0 -8 8 -8h183q197 0 307 114t110 330v117q0 203 -113 320.5t-310 117.5h-177 q-8 0 -8 -8v-983z" />
<glyph unicode="E" horiz-adv-x="1171" d="M139 8v1376q0 9 8 9h916q8 0 8 -9v-180q0 -8 -8 -8h-662q-8 0 -8 -8v-352q0 -9 8 -9h596q9 0 9 -8v-182q0 -8 -9 -8h-596q-8 0 -8 -8v-416q0 -8 8 -8h674q8 0 8 -9v-180q0 -8 -8 -8h-928q-8 0 -8 8z" />
<glyph unicode="F" horiz-adv-x="1136" d="M139 8v1376q0 9 8 9h916q8 0 8 -9v-180q0 -8 -8 -8h-662q-8 0 -8 -8v-354q0 -9 8 -9h596q9 0 9 -8v-178q0 -8 -9 -8h-596q-8 0 -8 -8v-615q0 -8 -8 -8h-238q-8 0 -8 8z" />
<glyph unicode="G" horiz-adv-x="1431" d="M113 606v221q0 271 167.5 439t456.5 168q151 0 277 -58.5t204 -172.5t78 -263q0 -6 -6 -6h-227q-6 0 -6 8q0 123 -85 209t-233 86q-178 0 -277.5 -115t-99.5 -336v-139q0 -224 100.5 -357.5t280.5 -133.5q171 0 255.5 81t84.5 230v53q0 8 -8 8h-297q-8 0 -8 9v178 q0 8 8 8h531q8 0 8 -8v-148q0 -287 -150.5 -447.5t-423.5 -160.5q-288 0 -459 177t-171 470z" />
<glyph unicode="H" horiz-adv-x="1413" d="M139 8v1376q0 9 8 9h238q8 0 8 -9v-555q0 -8 8 -8h611q8 0 8 8v555q0 9 8 9h238q8 0 8 -9v-1376q0 -8 -8 -8h-238q-8 0 -8 8v608q0 9 -8 9h-611q-8 0 -8 -9v-608q0 -8 -8 -8h-238q-8 0 -8 8z" />
<glyph unicode="I" horiz-adv-x="542" d="M143 8v1376q0 9 9 9h239q8 0 8 -9v-1376q0 -8 -8 -8h-239q-9 0 -9 8z" />
<glyph unicode="J" horiz-adv-x="1015" d="M20 430q0 8 7 8h237q6 0 6 -8q0 -264 185 -264q83 0 128.5 70t45.5 202v946q0 9 8 9h237q9 0 9 -9v-899q0 -271 -113.5 -398.5t-314.5 -127.5q-217 0 -326 128.5t-109 342.5z" />
<glyph unicode="K" horiz-adv-x="1323" d="M139 8v1376q0 9 8 9h238q8 0 8 -9v-643q0 -10 8 -2l533 647q5 7 12 7h287q4 0 5.5 -3t-1.5 -6l-489 -561q-4 -4 0 -8l520 -807q5 -8 -4 -8h-277q-8 0 -12 6l-389 627q-2 2 -4 0l-185 -211q-4 -4 -4 -12v-402q0 -8 -8 -8h-238q-8 0 -8 8z" />
<glyph unicode="L" horiz-adv-x="1042" d="M139 8v1376q0 9 8 9h238q8 0 8 -9v-1179q0 -8 8 -8h623q8 0 8 -9v-180q0 -8 -8 -8h-877q-8 0 -8 8z" />
<glyph unicode="M" horiz-adv-x="1630" d="M139 8v1376q0 9 8 9h332q10 0 13 -11l319 -921q4 -8 8 0l324 921q3 11 12 11h328q8 0 8 -9v-1376q0 -8 -8 -8h-238q-8 0 -8 8v373q0 250 3.5 422.5t7.5 220.5l3 47q-1 4 -4 0l-373 -1065q-2 -6 -8 -6h-102q-6 0 -8 6l-373 1065q0 3 -2 3t-2 -3q14 -126 14 -690v-373 q0 -8 -8 -8h-238q-8 0 -8 8z" />
<glyph unicode="N" horiz-adv-x="1337" d="M139 8v1376q0 9 8 9h240q6 0 12 -9l545 -964q4 -8 4 0q-4 59 -4 196v768q0 9 8 9h238q8 0 8 -9v-1376q0 -8 -8 -8h-242q-7 0 -12 8l-543 965h-4q4 -68 4 -189v-776q0 -8 -8 -8h-238q-8 0 -8 8z" />
<glyph unicode="O" horiz-adv-x="1466" d="M102 578v241q0 278 170 446.5t459 168.5q176 0 319.5 -74.5t228.5 -216t85 -324.5v-241q0 -129 -47 -243t-129 -197t-200 -131t-255 -48q-292 0 -461.5 170.5t-169.5 448.5zM360 594q0 -195 106.5 -311.5t266.5 -116.5q166 0 272.5 112.5t106.5 315.5v203 q0 108 -31 192.5t-85 135t-121 76.5t-144 26q-160 0 -265.5 -109.5t-105.5 -320.5v-203z" />
<glyph unicode="P" horiz-adv-x="1255" d="M139 8v1376q0 9 8 9h512q118 0 214.5 -27t170 -81.5t114 -143t40.5 -205.5q0 -216 -152 -335.5t-405 -119.5h-240q-8 0 -8 -8v-465q0 -8 -8 -8h-238q-8 0 -8 8zM393 686q0 -8 8 -8h269q132 0 206 66t74 192q0 260 -280 260h-269q-8 0 -8 -8v-502z" />
<glyph unicode="Q" horiz-adv-x="1445" d="M102 578v241q0 278 170 446.5t459 168.5q176 0 319.5 -74.5t228.5 -216t85 -324.5v-241q0 -246 -129 -388q-4 -4 0 -8l184 -211q3 -3 1.5 -7.5t-7.5 -4.5h-242q-10 0 -16 6l-72 84q-4 4 -8 0q-152 -90 -342 -90q-292 0 -461.5 170.5t-169.5 448.5zM360 594 q0 -195 106.5 -311.5t266.5 -116.5q133 0 199 49q4 4 0 8l-219 252q-2 1 -1 4.5t5 3.5h246q8 0 16 -8l84 -96q5 -5 8 0q41 61 41 215v203q0 108 -31 192.5t-85 135t-121 76.5t-144 26q-160 0 -265.5 -109.5t-105.5 -320.5v-203z" />
<glyph unicode="R" horiz-adv-x="1304" d="M139 8v1376q0 9 8 9h510q252 0 398.5 -112.5t146.5 -301.5q0 -122 -82.5 -214.5t-212.5 -123.5q-3 -1 -3 -3.5t3 -2.5q153 -17 225 -95.5t72 -228.5v-102q0 -117 37 -203q0 -6 -6 -6h-248q-4 0 -10 6q-27 34 -27 117v151q0 79 -22.5 131t-69 79t-103.5 37.5t-141 10.5 h-213q-8 0 -8 -8v-516q0 -8 -8 -8h-238q-8 0 -8 8zM393 733q0 -8 8 -8h252q142 0 218.5 65t76.5 189q0 98 -81.5 157.5t-211.5 59.5h-254q-8 0 -8 -8v-455z" />
<glyph unicode="S" horiz-adv-x="1273" d="M86 455q0 4 8 8h248q8 0 8 -8q0 -127 87.5 -213t244.5 -86q117 0 183.5 66t66.5 159q0 31 -3.5 54t-17 44.5t-26.5 36t-45.5 31t-59.5 27.5t-83 28t-102 29t-130 33q-173 44 -254.5 141.5t-81.5 234.5q0 180 137.5 287t358.5 107q115 0 207.5 -29.5t150 -76t96 -107.5 t54 -120t16.5 -118q0 -8 -6 -8h-234q-10 0 -10 8q0 117 -68 185.5t-217 68.5q-95 0 -161 -51t-66 -129q0 -63 39.5 -105t142.5 -71l242 -70q197 -56 287 -152.5t90 -261.5q0 -93 -34 -172t-99.5 -138.5t-168.5 -93.5t-233 -34q-114 0 -209.5 27.5t-160.5 74.5t-110 110.5 t-66 135t-21 148.5z" />
<glyph unicode="T" horiz-adv-x="974" d="M-16 1202v182q0 9 8 9h991q8 0 8 -9v-182q0 -8 -8 -8l-365 2q-8 0 -8 -8v-1180q0 -8 -8 -8h-237q-9 0 -9 8v1180q0 8 -8 8l-356 -2q-8 0 -8 8z" />
<glyph unicode="U" horiz-adv-x="1392" d="M139 537v847q0 9 8 9h238q8 0 8 -9v-880q0 -77 19 -138.5t49.5 -100t71.5 -64t81 -35.5t82 -10t82 10t81 35.5t71.5 64t49.5 100t19 138.5v880q0 9 9 9h237q8 0 8 -9v-847q0 -187 -73.5 -319.5t-197.5 -195.5t-286 -63q-248 0 -401 149t-156 429z" />
<glyph unicode="V" horiz-adv-x="1271" d="M12 1384q-3 9 8 9h263q7 0 10 -9l344 -1087q1 -3 2.5 -4t3 0t2.5 4l334 1087q3 9 10 9h258q4 0 7 -3t1 -6l-501 -1376q0 -8 -9 -8h-223q-7 0 -10 8z" />
<glyph unicode="W" horiz-adv-x="1783" d="M12 1384v2q0 7 8 7h259q7 0 10 -9l225 -1077q1 -3 2.5 -4t3 0t2.5 4l254 1077q3 9 10 9h211q8 0 11 -9l254 -1077q1 -3 2.5 -4t3 0t2.5 4l225 1077q3 9 10 9h258q9 0 9 -7v-2l-367 -1376q-3 -8 -10 -8h-267q-7 0 -10 8l-221 948q-1 3 -2.5 4t-3 0t-2.5 -4l-221 -948 q-3 -8 -11 -8h-266q-7 0 -10 8z" />
<glyph unicode="X" horiz-adv-x="1245" d="M25 8l446 694q1 2 1 5t-1 4l-428 673q-6 9 4 9h266q7 0 13 -9l292 -479q2 -3 5 -3t4 3l297 479q6 9 12 9h266q10 0 4 -9l-432 -673q-4 -5 0 -9l447 -694q1 -1 1.5 -3t-0.5 -3.5t-5 -1.5h-279q-7 0 -12 8l-299 500q-1 3 -4 3t-5 -3l-299 -500q-5 -8 -12 -8h-278q-8 0 -4 8 z" />
<glyph unicode="Y" horiz-adv-x="1259" d="M8.5 1390q1.5 3 5.5 3h277q6 0 12 -9l324 -612q4 -8 8 0l323 612q6 9 13 9h276q3 0 5 -3t-1 -6l-489 -829q-4 -8 -4 -14v-533q0 -8 -8 -8h-238q-8 0 -8 8v533q0 6 -4 14l-490 829q-3 3 -1.5 6z" />
<glyph unicode="Z" horiz-adv-x="1112" d="M53 8v213q0 12 8 23l715 946q6 6 -2 6h-690q-8 0 -8 8v180q0 9 8 9h960q9 0 9 -9v-208q0 -9 -9 -21l-731 -952q-6 -6 0 -6h750q8 0 8 -9v-180q0 -8 -8 -8h-1002q-8 0 -8 8z" />
<glyph unicode="[" horiz-adv-x="589" d="M139 -301v1751q0 6 6 6h373q6 0 6 -6v-88q0 -6 -6 -6l-160 4q-6 0 -6 -6v-1559q0 -6 6 -6l160 4q6 0 6 -6v-88q0 -6 -6 -6h-373q-6 0 -6 6z" />
<glyph unicode="\" horiz-adv-x="798" d="M-8 1386q-1 3 0.5 5t3.5 2h203q6 0 8 -7l600 -1380q2 -6 -4 -6h-201q-5 0 -8 6z" />
<glyph unicode="]" horiz-adv-x="589" d="M66 -213q0 6 6 6l159 -4q7 0 7 6v1559q0 6 -7 6l-159 -4q-6 0 -6 6v88q0 6 6 6h372q7 0 7 -6v-1751q0 -6 -7 -6h-372q-6 0 -6 6v88z" />
<glyph unicode="^" horiz-adv-x="1296" d="M156 639.5q-1 0.5 0 4.5v3l391 737q6 9 12 9h195q6 0 12 -9l375 -737q4 -8 -6 -8h-236q-7 0 -12 10l-230 479q-1 4 -5 4t-5 -4l-235 -479q-5 -10 -13 -10h-237q-5 0 -6 0.5z" />
<glyph unicode="_" horiz-adv-x="1079" d="M-8 -135h1095v-205h-1095v205z" />
<glyph unicode="`" horiz-adv-x="1024" d="M290 1431q1 3 5 3h248q6 0 8 -7l133 -290q4 -7 -4 -7h-168q-3 0 -10 7l-211 290q-2 1 -1 4z" />
<glyph unicode="a" d="M61 260q0 130 79 205t212 100q62 12 195.5 31.5t150.5 24.5q4 2 4 6v28q0 168 -178 168q-88 0 -139 -41.5t-57 -113.5q0 -4 -4 -4h-224q-4 0 -4 4q9 65 37.5 124t78.5 111t131 82.5t183 30.5q207 0 316.5 -111.5t109.5 -304.5v-307q0 -88 9.5 -170.5t19.5 -116.5 q0 -6 -4 -6h-238q-6 0 -8 4q-9 19 -19 64.5t-10 87.5q0 2 -2 3.5t-4 -1.5q-122 -199 -336 -199q-125 0 -212 84t-87 217zM303 268q0 -54 33 -86t100 -32q114 0 191.5 72t77.5 186v36q0 7 -7 7q-12 -2 -46 -8t-90.5 -16.5t-131.5 -25.5q-127 -24 -127 -133z" />
<glyph unicode="b" horiz-adv-x="1157" d="M133 6v1380q0 7 6 7h238q6 0 6 -7v-544q0 -6 4 -2q38 70 112 123t169 53q184 0 293.5 -116.5t109.5 -344.5v-170q0 -196 -104 -311t-262 -115q-116 0 -198 50.5t-122 129.5q-2 4 -4 0l-68 -133q-2 -6 -6 -6h-168q-6 0 -6 6zM383 434q0 -116 81.5 -197t170.5 -81 q80 0 133 67t53 191v121q0 144 -47.5 214t-148.5 70q-90 0 -166 -85.5t-76 -211.5v-88z" />
<glyph unicode="c" d="M86 412v149q0 89 28 168.5t82 144.5t145.5 103.5t207.5 38.5q217 0 328.5 -99.5t111.5 -277.5q0 -8 -6 -8h-219q-8 0 -8 8q-12 180 -207 180q-97 0 -155 -73.5t-58 -198.5v-113q0 -139 61 -208.5t152 -69.5q190 0 201 182q0 8 8 8h221q8 0 8 -8q-11 -169 -128 -274 t-322 -105q-146 0 -249.5 60.5t-152.5 161t-49 231.5z" />
<glyph unicode="d" horiz-adv-x="1157" d="M86 385v170q0 228 109.5 344.5t293.5 116.5q98 0 173 -50.5t108 -119.5q0 -3 2 -3t2 3v540q0 7 6 7h238q6 0 6 -7v-1380q0 -6 -6 -6h-166q-8 0 -10 6l-68 133q-2 4 -4 0q-39 -77 -120.5 -128.5t-182.5 -51.5q-166 0 -273.5 115t-107.5 311zM336 414q0 -126 54.5 -192 t141.5 -66q38 0 79.5 20.5t78 56t60.5 91t24 118.5v80q0 128 -73 212.5t-169 84.5q-101 0 -148.5 -70t-47.5 -214v-121z" />
<glyph unicode="e" horiz-adv-x="1120" d="M86 444v82q0 227 126.5 358.5t346.5 131.5q225 0 350 -130t125 -354v-108q0 -6 -6 -6h-688q-6 0 -6 -6v-4q0 -128 72 -191t186 -63q81 0 134 39t67 102q2 6 8 6h227q4 0 4 -4v-4q-102 -334 -450 -334q-228 0 -362 136.5t-134 348.5zM334 598q0 -6 6 -6h438q6 0 6 6v23 q0 86 -65.5 145t-159.5 59q-95 0 -160 -59t-65 -145v-23z" />
<glyph unicode="f" horiz-adv-x="610" d="M31 784v185q0 6 6 6h117q6 0 6 6v156q0 149 70 223t196 74q42 0 86 -14t72 -36q4 -4 4 -10v-164q0 -6 -4 -6l-6 4q-5 4 -14.5 10t-20.5 11.5t-25.5 9.5t-28.5 4q-86 0 -86 -106v-156q0 -6 7 -6h174q6 0 6 -6v-185q0 -6 -6 -6h-174q-7 0 -7 -6v-766q0 -6 -6 -6h-231 q-6 0 -6 6v766q0 6 -6 6h-117q-6 0 -6 6z" />
<glyph unicode="g" d="M47 -129q0 55 42.5 116.5t119.5 78.5q3 1 3.5 4t-1.5 4q-72 58 -72 140v11q2 37 28 79.5t66 60.5q-131 78 -131 243v84q0 148 118.5 236t301.5 88q84 0 162.5 -26t130.5 -72q2 -2 6 0q71 57 166 57h45q8 0 8 -8l-2 -168q0 -8 -8 -8q-20 2 -53.5 -1.5t-50.5 -9.5 q-7 -2 -4 -8q16 -36 16 -100v-60q0 -144 -108.5 -228.5t-307.5 -84.5h-78q-30 0 -47.5 -18.5t-17.5 -44.5q0 -60 70 -60h249q51 0 95 -7t86.5 -24.5t72.5 -45t48 -71t18 -100.5q0 -64 -33 -128.5t-94.5 -119.5t-164.5 -89.5t-230 -34.5q-217 0 -333 76.5t-116 209.5v29z M281 -102v-19q0 -60 53 -104.5t160 -44.5q123 0 202.5 45t79.5 123q0 45 -29 66t-60 24q-23 2 -71 2h-35h-38h-127q-46 0 -74 14q-61 -31 -61 -106zM338 625q0 -70 48 -108t136 -38q92 0 137.5 38.5t45.5 109.5v41q0 74 -46.5 115.5t-134.5 41.5q-93 0 -139.5 -41 t-46.5 -118v-41z" />
<glyph unicode="h" horiz-adv-x="1148" d="M133 6v1380q0 7 6 7h236q6 0 6 -7v-538q0 -8 4 0q39 77 115.5 122.5t163.5 45.5q177 0 267.5 -110t90.5 -296v-604q0 -6 -6 -6h-236q-6 0 -6 6v569q0 244 -162 244q-82 0 -156.5 -84t-74.5 -176v-553q0 -6 -6 -6h-236q-6 0 -6 6z" />
<glyph unicode="i" horiz-adv-x="526" d="M139 6v963q0 6 6 6h234q6 0 6 -6v-963q0 -6 -6 -6h-234q-6 0 -6 6zM139 1151v235q0 7 6 7h234q6 0 6 -7v-235q0 -6 -6 -6h-234q-6 0 -6 6z" />
<glyph unicode="j" horiz-adv-x="573" d="M8 -172q1 4 6 2q13 -13 37 -26t47 -13q48 0 70 27.5t22 91.5v1059q0 6 7 6h231q6 0 6 -6v-994q0 -381 -266 -381q-48 0 -92 19.5t-64 44.5q-4 4 -4 10v160zM188 1151v235q0 7 7 7h233q6 0 6 -7v-235q0 -6 -6 -6h-233q-7 0 -7 6z" />
<glyph unicode="k" horiz-adv-x="1105" d="M139 6v1380q0 7 6 7h234q6 0 6 -7v-808q0 -6 6 0l391 391q6 6 13 6h282q2 0 4 -1.5t0 -4.5l-364 -359q-5 -5 -2 -12l370 -592q3 -6 -4 -6h-276q-5 0 -8 6l-254 434q-4 4 -8 0l-148 -133l-2 -6v-295q0 -6 -6 -6h-234q-6 0 -6 6z" />
<glyph unicode="l" horiz-adv-x="518" d="M139 6v1380q0 7 6 7h228q6 0 6 -7v-1380q0 -6 -6 -6h-228q-6 0 -6 6z" />
<glyph unicode="m" horiz-adv-x="1642" d="M139 6v963q0 6 6 6h172q4 0 7 -6l65 -150q0 -8 4 0q32 75 107 136t168 61q57 0 103.5 -20t74 -51t43.5 -63.5t20 -62.5q0 -3 4 -2l2 2q20 35 46 66.5t62.5 62.5t86 49.5t104.5 18.5q141 0 218 -94.5t77 -268.5v-647q0 -6 -6 -6h-237q-6 0 -6 6v641q0 76 -29 124t-90 48 q-82 0 -132.5 -57t-50.5 -148v-608q0 -6 -6 -6h-237q-6 0 -6 6v647q0 72 -31.5 119t-95.5 47q-70 0 -131.5 -65.5t-61.5 -139.5v-608q0 -6 -6 -6h-238q-6 0 -6 6z" />
<glyph unicode="n" horiz-adv-x="1196" d="M139 6v963q0 6 6 6h172q4 0 7 -6l65 -150q0 -8 4 0q31 72 116 134.5t179 62.5q179 0 277 -106.5t98 -305.5v-598q0 -6 -6 -6h-238q-6 0 -6 6v610q0 203 -172 203q-90 0 -171 -90.5t-81 -210.5v-512q0 -6 -6 -6h-238q-6 0 -6 6z" />
<glyph unicode="o" horiz-adv-x="1187" d="M92 440v111q0 142 70.5 249.5t183.5 161.5t248 54q132 0 245 -54t185 -162.5t72 -250.5v-111q0 -106 -42.5 -197.5t-112.5 -152.5t-160.5 -95t-186.5 -34q-135 0 -249 59t-183.5 170.5t-69.5 251.5zM340 457q0 -138 73.5 -219.5t180.5 -81.5q105 0 178.5 82t73.5 219v71 q0 136 -73.5 214.5t-178.5 78.5q-110 0 -182 -75.5t-72 -215.5v-73z" />
<glyph unicode="p" horiz-adv-x="1161" d="M133 -383v1352q0 6 6 6h172q3 0 6 -6l66 -150q0 -8 4 0q107 197 305 197q174 0 278.5 -127t104.5 -346v-117q0 -212 -108.5 -339.5t-292.5 -127.5q-102 0 -179.5 55.5t-107.5 124.5q-4 4 -4 0v-522q0 -6 -6 -6h-238q-6 0 -6 6zM383 453q0 -135 73 -216t177 -81 q93 0 142.5 73.5t49.5 202.5v98q0 130 -53 209.5t-154 79.5q-93 0 -164 -91t-71 -191v-84z" />
<glyph unicode="q" horiz-adv-x="1161" d="M86 426v117q0 219 104.5 346t278.5 127q215 0 305 -197q4 -8 4 0l66 150q3 6 6 6h172q6 0 6 -6v-1352q0 -6 -6 -6h-238q-6 0 -6 6v537q0 8 -4 0q-94 -195 -305 -195q-171 0 -277 128.5t-106 338.5zM336 432q0 -129 49.5 -202.5t142.5 -73.5q109 0 179.5 92t70.5 219v70 q0 100 -71 191t-164 91q-101 0 -154 -79.5t-53 -209.5v-98z" />
<glyph unicode="r" horiz-adv-x="706" d="M119 6v963q0 6 6 6h162q6 0 6 -6l74 -146q0 -3 2 -4q2 2 2 4q23 87 81.5 140t145.5 53q56 0 94 -17q4 -1 4 -6v-243q0 -4 -2.5 -5t-5.5 3q-8 6 -21.5 15t-52 24.5t-73.5 15.5q-85 0 -129.5 -87t-44.5 -227v-483q0 -6 -7 -6h-235q-6 0 -6 6z" />
<glyph unicode="s" horiz-adv-x="966" d="M51 313q0 7 4 9h226q6 0 6 -5q0 -63 54 -112t167 -49q85 0 123.5 27t38.5 71q0 38 -31 64.5t-107 52.5l-233 80q-229 78 -229 274q0 125 105 208t302 83t305.5 -96t108.5 -240q0 -6 -6 -6h-213q-6 0 -6 6q0 62 -46.5 100.5t-134.5 38.5q-86 0 -122.5 -24t-36.5 -70 q0 -32 22.5 -53t67.5 -37l209 -78q83 -31 132 -55.5t87 -58.5t53.5 -77t15.5 -104q0 -129 -114 -216t-291 -87q-118 0 -209.5 33t-143.5 86.5t-78 113.5t-26 121z" />
<glyph unicode="t" horiz-adv-x="595" d="M20 786v183q0 6 7 6h112q6 0 6 2v264q0 7 7 14l227 138q3 1 4.5 -1t1.5 -6l-2 -405q0 -6 6 -6h184q7 -3 7 -8v-183q0 -6 -7 -6h-186q-2 0 -2 -4v-543q0 -44 21.5 -60.5t62.5 -16.5q64 0 115 51q6 6 6 -2v-164q0 -6 -6 -12q-30 -28 -79 -48t-99 -20q-263 0 -263 291v526 q0 4 -4 4h-112q-7 0 -7 6z" />
<glyph unicode="u" horiz-adv-x="1148" d="M113 342v627q0 6 6 6h237q6 0 6 -6v-590q0 -100 41 -161.5t132 -61.5q120 0 186.5 94.5t66.5 238.5v480q0 6 7 6h229q6 0 6 -6v-963q0 -6 -6 -6h-166q-3 0 -6 6l-66 150q0 8 -4 0q-43 -79 -131.5 -138t-208.5 -59q-64 0 -121 23t-104.5 67.5t-75.5 120t-28 172.5z" />
<glyph unicode="v" horiz-adv-x="1044" d="M10 971q0 4 6 4h248q6 0 8 -6l246 -738q3 -5 8 0l246 738q2 6 8 6h248q4 0 4 -4v-2l-368 -963q-2 -6 -9 -6h-266q-6 0 -8 6l-369 963z" />
<glyph unicode="w" horiz-adv-x="1435" d="M12 969q-3 6 4 6h230q6 0 8 -6l170 -693q1 -3 2.5 -4t3 0t2.5 4l186 693q2 6 9 6h182q6 0 8 -6l187 -690q1 -3 2.5 -4t3 0t2.5 4l170 690q2 6 8 6h229q7 0 4 -6l-278 -965q0 -4 -4 -4h-260q-4 0 -4 4l-154 582q-1 3 -2.5 4t-3 0t-2.5 -4l-154 -582q0 -4 -4 -4h-260 q-4 0 -4 4z" />
<glyph unicode="x" horiz-adv-x="1044" d="M11 2q-1 2 1 4l363 500q4 4 0 8l-332 455q-2 1 -1 3.5t5 2.5h264q9 0 13 -6l194 -293q4 -8 8 0l195 293q4 6 12 6h264q7 0 4 -6l-329 -455q-4 -4 0 -8l360 -500q3 -6 -4 -6h-278q-9 0 -13 6l-211 330q-4 8 -8 0l-211 -330q-4 -6 -12 -6h-279q-4 0 -5 2z" />
<glyph unicode="y" horiz-adv-x="966" d="M-4 967q-1 3 1 5.5t5 2.5h268q8 0 11 -8l211 -590q3 -9 6 0l200 590q3 8 11 8h239q9 0 6 -8l-471 -1194q-70 -179 -239 -179q-44 0 -85.5 18t-62.5 44q-4 4 -4 10v172q0 3 2.5 4t5.5 -2q44 -61 105 -61q36 0 59 15t37 54l74 211q0 1 1.5 7t-1.5 8z" />
<glyph unicode="z" horiz-adv-x="870" d="M41 6v178q0 9 6 15l473 571q8 8 0 8h-450q-7 0 -7 6v185q0 6 7 6h716q7 0 7 -6v-187q0 -7 -7 -14l-458 -565v-6h495q6 0 6 -7v-184q0 -6 -6 -6h-776q-6 0 -6 6z" />
<glyph unicode="{" horiz-adv-x="620" d="M61 561v29q0 5 9 8q82 28 110.5 54.5t28.5 86.5v467q0 116 56.5 183t178.5 67h91q8 0 8 -8v-70q0 -8 -8 -8h-37q-38 0 -54 -17.5t-16 -58.5v-561q0 -43 -24.5 -87.5t-77.5 -65.5q-11 -5 0 -9q53 -20 77.5 -64.5t24.5 -88.5v-563q0 -41 16 -58.5t54 -17.5h37q8 0 8 -8v-70 q0 -8 -8 -8h-91q-122 0 -178.5 67t-56.5 183v469q0 60 -28.5 86.5t-110.5 54.5q-9 3 -9 8z" />
<glyph unicode="|" horiz-adv-x="538" d="M174 -319v1705q0 7 6 7h178q7 0 7 -7v-1705q0 -7 -7 -7h-178q-6 0 -6 7z" />
<glyph unicode="}" horiz-adv-x="620" d="M76 -229q0 8 8 8h37q38 0 53.5 17.5t15.5 58.5v563q0 43 25 88t78 65q11 5 0 9q-53 21 -78 65.5t-25 87.5v561q0 41 -15.5 58.5t-53.5 17.5h-37q-8 0 -8 8v70q0 8 8 8h90q122 0 179 -67t57 -183v-467q0 -60 28.5 -86.5t110.5 -54.5q8 -3 8 -8v-29q0 -5 -8 -8 q-82 -28 -110.5 -54.5t-28.5 -86.5v-469q0 -116 -57 -183t-179 -67h-90q-8 0 -8 8v70z" />
<glyph unicode="~" horiz-adv-x="1583" d="M258 613q0 3 2 5q40 64 121.5 118.5t187.5 54.5q61 0 121.5 -23t101.5 -50t94 -50t101 -23q64 0 111.5 28.5t87.5 90.5q4 8 8 0l100 -168q3 -5 -2 -10q-130 -162 -305 -162q-58 0 -120 22t-105.5 48.5t-97.5 48.5t-99 22q-112 0 -196 -127q-5 -5 -9 0l-100 170q-2 2 -2 5 z" />
<glyph horiz-adv-x="0" />
<glyph unicode="&#xa1;" horiz-adv-x="446" d="M102 6l4 287q2 141 16.5 432.5t14.5 310.5q0 4 1.5 6t3.5 2h1h162q6 0 6 -8q0 -21 15 -323t16 -420l2 -287q0 -6 -6 -6h-229q-7 0 -7 6zM102 1169v217q0 7 7 7h229q6 0 6 -7v-217q0 -6 -6 -6h-229q-7 0 -7 6z" />
<glyph unicode="&#xa2;" horiz-adv-x="1112" d="M86 418v149q0 169 107.5 290.5t293.5 148.5q5 0 5 4v170q0 8 8 8h164q8 0 8 -8v-172q0 -4 4 -4q167 -26 259.5 -130.5t102.5 -234.5q0 -8 -6 -8h-219q-8 0 -8 8q0 65 -33 112t-96 64q-4 0 -4 -4v-639q0 -4 4 -4q56 11 87 58.5t36 111.5q0 8 8 8h221q8 0 8 -8 q-22 -137 -114 -240t-246 -129q-4 0 -4 -4v-188q0 -8 -8 -8h-164q-8 0 -8 8v186q0 4 -5 4q-177 30 -289 160t-112 291zM336 434q0 -109 45.5 -185.5t107.5 -76.5q3 0 3 2v635q0 4 -5 4q-69 -16 -110 -82t-41 -184v-113z" />
<glyph unicode="&#xa3;" horiz-adv-x="1103" d="M92 8v180q0 9 8 9h25q94 0 122.5 65t28.5 254v88q0 4 -4 4h-139q-8 0 -8 8v181q0 8 8 8h139q4 0 4 4v240q0 183 108.5 284t299.5 101q170 0 273.5 -91.5t103.5 -261.5v-80q0 -8 -8 -8h-222q-8 0 -8 8v64q0 83 -37.5 127.5t-109.5 44.5q-162 0 -162 -209v-219q0 -4 4 -4 h311q9 0 9 -8v-181q0 -8 -9 -8h-311q-4 0 -4 -6v-127q0 -66 -2.5 -101.5t-18.5 -86.5t-49 -86q-4 -4 2 -4h629q8 0 8 -9v-180q0 -8 -8 -8h-975q-8 0 -8 8z" />
<glyph unicode="&#xa5;" horiz-adv-x="1310" d="M12.5 1390q1.5 3 5.5 3h277q6 0 12 -9l344 -602q3 -7 8 0l345 602q6 9 12 9h276q3 0 5 -3t-1 -6l-378 -606q-3 -6 2 -6h145q8 0 8 -8v-201q0 -8 -8 -8h-279q-4 0 -4 -6v-137q0 -6 4 -6h279q8 0 8 -9v-200q0 -9 -8 -9h-279q-4 0 -4 -6v-174q0 -8 -8 -8h-237q-9 0 -9 8v174 q0 6 -4 6h-276q-8 0 -8 9v200q0 9 8 9h276q4 0 4 6v137q0 6 -4 6h-276q-8 0 -8 8v201q0 8 8 8h143q6 0 2 6l-379 606q-3 3 -1.5 6z" />
<glyph unicode="&#xa6;" horiz-adv-x="509" d="M139 -317v645q0 6 1.5 7t6.5 1h215q9 0 9 -8v-645q0 -9 -9 -9h-215q-8 0 -8 9zM139 739v645q0 9 8 9h215q9 0 9 -9v-645q0 -8 -9 -8h-215q-5 0 -6.5 1t-1.5 7z" />
<glyph unicode="&#xa7;" horiz-adv-x="1069" d="M98 655q0 87 50.5 151t123.5 87q4 0 0 4q-24 19 -37 32t-34 40.5t-31 63.5t-10 81q0 76 36.5 139t94.5 101.5t126.5 59t137.5 20.5q164 0 277 -83.5t131 -226.5q0 -8 -7 -8h-215q-12 0 -14 8q-9 52 -57 85.5t-117 33.5q-64 0 -110 -32t-46 -76q0 -46 35 -72.5t127 -67.5 l141 -61q49 -21 82.5 -38.5t72 -45t62 -56t39 -69t15.5 -88.5q0 -51 -14.5 -94t-42 -74.5t-49.5 -50t-54 -39.5q-2 -2 0 -4q46 -23 86.5 -83t40.5 -138q0 -160 -124 -253.5t-306 -93.5q-158 0 -269.5 84t-129.5 226q0 8 6 8h223q12 0 14 -8q9 -53 54.5 -85t121.5 -32 q80 0 129.5 37.5t49.5 97.5q0 47 -43 80.5t-121 63.5l-156 59q-141 53 -215 125t-74 192zM328 680q0 -51 36.5 -81t116.5 -62l168 -66q39 19 62.5 51.5t23.5 67.5q0 74 -131 129q-35 15 -79 32.5t-69.5 27.5t-27.5 12q-45 -12 -72.5 -43t-27.5 -68z" />
<glyph unicode="&#xa8;" horiz-adv-x="1024" d="M193 1137v249q0 7 6 7h227q6 0 6 -7v-249q0 -7 -6 -7h-227q-6 0 -6 7zM594 1137v249q0 7 6 7h227q7 0 7 -7v-249q0 -7 -7 -7h-227q-6 0 -6 7z" />
<glyph unicode="&#xa9;" horiz-adv-x="1622" d="M92 696q0 151 55 284.5t150 229.5t229 151.5t285 55.5t285 -55.5t229 -151.5t150 -229.5t55 -284.5t-55 -284.5t-150 -229.5t-229 -151.5t-285 -55.5t-285 55.5t-229 151.5t-150 229.5t-55 284.5zM250 696q0 -155 73.5 -285.5t203 -207t284.5 -76.5t284 76.5t203 207.5 t74 285t-74 285t-203 208t-284 77t-284.5 -77t-203 -207.5t-73.5 -285.5zM442 692q0 -180 108.5 -293.5t276.5 -113.5q63 0 120.5 20.5t97.5 52.5t67.5 64t42.5 63q3 6 -2 9l-127 63q-4 2 -6 -2q-65 -121 -193 -121q-99 0 -158 70.5t-59 187.5t59.5 189.5t157.5 72.5 q61 0 112 -33.5t83 -97.5q3 -5 6 -2l123 86q4 4 0 8q-39 75 -123 130t-201 55q-162 0 -273.5 -114.5t-111.5 -293.5z" />
<glyph unicode="&#xaa;" horiz-adv-x="706" d="M43 940q0 93 57.5 138t173.5 67l142 26q37 6 37 33v8q0 80 -113 80q-65 0 -95 -25t-30 -81q0 -8 -8 -8h-137q-9 0 -9 8q0 117 79.5 174t207.5 57q258 0 258 -196v-320q0 -30 7.5 -40.5t31.5 -10.5h8q6 0 6 -6v-96q0 -6 -8 -9q-30 -6 -69 -6q-92 0 -117 64q0 8 -4 0 q-16 -27 -62 -46.5t-125 -19.5q-97 0 -164 53.5t-67 155.5zM205 944q0 -42 28.5 -63t79.5 -21q64 0 102 32t38 93v68q0 7 -7 4q-30 -10 -106 -25q-71 -14 -103 -31.5t-32 -56.5z" />
<glyph unicode="&#xab;" horiz-adv-x="905" d="M51 487v213q0 7 6 13l369 315h2q6 0 6 -4v-254q0 -6 -6 -12l-192 -152q-3 -3 -3 -4q1 -2 3 -2l190 -166q8 -8 8 -14v-254q0 -6 -4 -6q-2 0 -4 2l-369 315q-6 3 -6 10zM471 487v213q0 7 6 13l369 315h2q6 0 6 -4v-254q0 -6 -6 -12l-193 -152q-2 -2 -2 -4t2 -2l191 -166 q8 -8 8 -14v-254q0 -6 -4 -6q-2 0 -4 2l-369 315q-6 3 -6 10z" />
<glyph unicode="&#xac;" horiz-adv-x="1097" d="M51 741v181q0 8 8 8h918q8 0 8 -8v-545q0 -12 -12 -12h-209q-12 0 -12 12v348q0 8 -9 8h-684q-8 0 -8 8z" />
<glyph unicode="&#xad;" horiz-adv-x="978" d="M174 389v201q0 8 8 8h615q8 0 8 -8v-201q0 -8 -8 -8h-615q-8 0 -8 8z" />
<glyph unicode="&#xae;" horiz-adv-x="1622" d="M92 696q0 151 55 284.5t150 229.5t229 151.5t285 55.5t285 -55.5t229 -151.5t150 -229.5t55 -284.5t-55 -284.5t-150 -229.5t-229 -151.5t-285 -55.5t-285 55.5t-229 151.5t-150 229.5t-55 284.5zM250 696q0 -155 73.5 -285.5t203 -207t284.5 -76.5t284 76.5t203 207.5 t74 285t-74 285t-203 208t-284 77t-284.5 -77t-203 -207.5t-73.5 -285.5zM539 322q0 -7 2 -7h143q4 0 4 7v307q0 4 6 4h131q90 0 128 -35.5t38 -114.5v-90q0 -48 13 -74q2 -4 6 -4h147q7 0 4 7q-16 32 -16 77v127q0 142 -146 174v5q61 17 100.5 66t39.5 110q0 112 -70 162.5 t-231 50.5h-297q-2 0 -2 -4v-768zM688 772v182q0 7 6 7h156q60 0 96.5 -25.5t36.5 -69.5q0 -48 -39 -73t-102 -25h-148q-6 0 -6 4z" />
<glyph unicode="&#xaf;" horiz-adv-x="1024" d="M213 1210v174q0 9 8 9h582q8 0 8 -9v-174q0 -8 -8 -8h-582q-8 0 -8 8z" />
<glyph unicode="&#xb0;" horiz-adv-x="827" d="M61 1081q0 146 103.5 249.5t249.5 103.5t249 -103.5t103 -249.5t-103 -249t-249 -103t-249.5 103t-103.5 249zM258 1081q0 -63 46.5 -109t109.5 -46t109 46t46 109t-46 109.5t-109 46.5t-109.5 -46.5t-46.5 -109.5z" />
<glyph unicode="&#xb1;" horiz-adv-x="1312" d="M154 8v193q0 8 8 8h989q8 0 8 -8v-193q0 -8 -8 -8h-989q-8 0 -8 8zM154 602v201q0 8 8 8h375q8 0 8 8v279q0 8 8 8h203q8 0 8 -8v-279q0 -8 8 -8h379q8 0 8 -8v-201q0 -8 -8 -8h-379q-8 0 -8 -8v-279q0 -8 -8 -8h-203q-8 0 -8 8v279q0 8 -8 8h-375q-8 0 -8 8z" />
<glyph unicode="&#xb2;" horiz-adv-x="882" d="M113 535v108q0 39 7.5 73t18 59.5t32 51.5t38 42.5t49 39.5t51.5 35t58 35q113 67 145.5 102.5t32.5 89.5q0 55 -33.5 84t-85.5 29q-54 0 -85.5 -37t-31.5 -94v-27q0 -6 -6 -6h-176q-6 0 -6 6v45q0 105 84.5 184t232.5 79q132 0 213.5 -70.5t81.5 -192.5 q0 -97 -55 -160.5t-209 -164.5q-106 -70 -134 -95t-28 -53v-10q0 -6 6 -6h398q6 0 6 -6v-141q0 -5 -6 -5h-592q-6 0 -6 5z" />
<glyph unicode="&#xb3;" horiz-adv-x="860" d="M113 780v35q0 4 6 4h174q6 0 6 -4v-12q0 -59 32.5 -98t86.5 -39q64 0 99.5 35t35.5 100q0 127 -162 127h-57q-6 0 -6 4v135q0 4 6 4h55q68 0 101.5 29t33.5 78q0 48 -27 74t-73 26q-44 0 -71 -25.5t-27 -66.5v-15q0 -4 -7 -4h-174q-6 0 -6 4v25q0 105 83 171.5t216 66.5 q120 0 196.5 -61.5t76.5 -164.5q0 -80 -32 -123.5t-104 -76.5v-4q70 -12 118 -66.5t48 -151.5q0 -110 -84 -190t-233 -80q-144 0 -227.5 72.5t-83.5 191.5z" />
<glyph unicode="&#xb4;" horiz-adv-x="1024" d="M330 1137l133 290q2 7 8 7h248q4 0 5 -3t-1 -4l-211 -290q-7 -7 -10 -7h-168q-8 0 -4 7z" />
<glyph unicode="&#xb5;" horiz-adv-x="1148" d="M113 -383v1352q0 6 6 6h233q6 0 6 -6v-633q0 -78 46 -129t131 -51q72 0 132 47t90.5 110.5t30.5 122.5v533q0 6 7 6h229q6 0 6 -6v-963q0 -6 -6 -6h-166q-3 0 -6 6l-66 150q0 8 -4 0q-44 -80 -117 -138.5t-165 -58.5q-97 0 -135 51q-7 7 -7 0v-393q0 -6 -6 -6h-233 q-6 0 -6 6z" />
<glyph unicode="&#xb6;" horiz-adv-x="1267" d="M92 899q0 159 112 272t271 113h684q6 0 6 -8v-191q0 -8 -8 -8h-131q-6 0 -6 -8v-1061q0 -8 -8 -8h-158q-8 0 -8 8v1061q0 8 -6 8h-178q-7 0 -7 -8v-1061q0 -8 -8 -8h-164q-8 0 -8 8v504q0 4 -4 4q-158 1 -268.5 113t-110.5 270z" />
<glyph unicode="&#xb7;" horiz-adv-x="509" d="M123 526v258q0 7 6 7h252q6 0 6 -7v-258q0 -6 -6 -6h-252q-6 0 -6 6z" />
<glyph unicode="&#xb8;" horiz-adv-x="1024" d="M381 -322q0 9 6 9h107q2 0 6.5 -10.5t11 -22.5t28.5 -22.5t56 -10.5q51 0 71.5 23.5t20.5 76.5q0 49 -22 66.5t-78 17.5q-26 0 -50 -3t-36 -5.5t-37 -9t-33 -8.5q-1 0 -2 -1t-2 -1q-2 0 -2 6l29 151v7q0 14 -15 18l21 2l16 80h121l-18 -86l18 -4h-6q-11 0 -14 -8l-11 -56 v-4q0 -4 4 -4q13 0 37 4t35 4q172 0 172 -166q0 -86 -58 -139t-155 -53t-156 38.5t-65 110.5z" />
<glyph unicode="&#xb9;" horiz-adv-x="731" d="M184 1186v106q0 4 4 6l291 134q6 3 6 -5v-882q0 -4 -4 -4h-180q-4 0 -4 4v680q0 4 -4 2l-105 -45z" />
<glyph unicode="&#xba;" horiz-adv-x="772" d="M61 1075q0 153 93 247.5t233 94.5t232 -94.5t92 -247.5q0 -157 -91 -250.5t-233 -93.5t-234 93.5t-92 250.5zM219 1075q0 -92 50.5 -146.5t117.5 -54.5q66 0 116 55t50 146q0 90 -49 144.5t-117 54.5t-118 -55t-50 -144z" />
<glyph unicode="&#xbb;" horiz-adv-x="905" d="M51 166v254q0 6 8 14l191 166l2 2q0 1 -1 2t-1 2l-193 152q-6 6 -6 12v254q0 4 4 4h4l369 -315q6 -6 6 -13v-213q0 -7 -6 -10l-369 -315l-4 -2q-4 0 -4 6zM471 166v254q0 6 8 14l191 166l2 2q0 1 -1 2t-1 2l-193 152q-6 6 -6 12v254q0 4 4 4h4l369 -315q6 -6 6 -13v-213 q0 -7 -6 -10l-369 -315l-4 -2q-4 0 -4 6z" />
<glyph unicode="&#xbc;" horiz-adv-x="1763" d="M184 1186v106q0 4 4 6l291 134q6 3 6 -5v-882q0 -4 -4 -4h-180q-4 0 -4 4v680q0 4 -4 2l-105 -45zM399 6q261 521 682 1380q2 7 9 7h186q6 0 4 -7q-312 -607 -684 -1380q-3 -6 -8 -6h-185q-7 0 -4 6zM944 170v149q0 9 4 13l352 553q2 2 7 2h235q4 0 4 -4v-557q0 -7 6 -7 h107q4 0 4 -4v-145q0 -4 -4 -4h-107q-6 0 -6 -6v-156q0 -4 -4 -4h-164q-4 0 -4 4v156q0 6 -4 6h-420q-6 0 -6 4zM1133 326q-7 -7 2 -7h235q4 0 4 7v125q0 82 1.5 144t3 92.5t1.5 35.5q-1 4 -4 0z" />
<glyph unicode="&#xbd;" horiz-adv-x="1867" d="M184 1186v106q0 4 4 6l291 134q6 3 6 -5v-882q0 -4 -4 -4h-180q-4 0 -4 4v680q0 4 -4 2l-105 -45zM399 6q261 521 682 1380q2 7 9 7h186q6 0 4 -7q-312 -607 -684 -1380q-3 -6 -8 -6h-185q-7 0 -4 6zM1098 6v107q0 39 7.5 73t18 59.5t32 51.5t38 42.5t49 39.5t51.5 35 t58 35q113 67 145.5 102.5t32.5 89.5q0 55 -33.5 84t-85.5 29q-54 0 -85.5 -37t-31.5 -94v-27q0 -6 -6 -6h-176q-6 0 -6 6v45q0 105 84.5 183.5t232.5 78.5q132 0 213.5 -70t81.5 -192q0 -51 -13.5 -90t-48.5 -78t-79 -72.5t-123 -85.5q-107 -70 -134.5 -94.5t-27.5 -52.5 v-10q0 -6 6 -6h398q6 0 6 -7v-139q0 -6 -6 -6h-592q-6 0 -6 6z" />
<glyph unicode="&#xbe;" horiz-adv-x="1916" d="M113 780v35q0 4 6 4h174q6 0 6 -4v-12q0 -59 32.5 -98t86.5 -39q64 0 99.5 35t35.5 100q0 127 -162 127h-57q-6 0 -6 4v135q0 4 6 4h55q68 0 101.5 29t33.5 78q0 48 -27 74t-73 26q-44 0 -71 -25.5t-27 -66.5v-15q0 -4 -7 -4h-174q-6 0 -6 4v25q0 105 83 171.5t216 66.5 q120 0 196.5 -61.5t76.5 -164.5q0 -80 -32 -123.5t-104 -76.5v-4q70 -12 118 -66.5t48 -151.5q0 -110 -84 -190t-233 -80q-144 0 -227.5 72.5t-83.5 191.5zM553 6q261 521 682 1380q2 7 8 7h187q6 0 4 -7q-312 -607 -684 -1380q-3 -6 -9 -6h-184q-7 0 -4 6zM1098 170 q0 -4 6 -4h420q4 0 4 -6v-156q0 -4 4 -4h164q4 0 4 4v156q0 6 6 6h106q5 0 5 4v145q0 4 -5 4h-106q-6 0 -6 7v557q0 4 -4 4h-236q-4 0 -6 -2l-352 -553q-4 -4 -4 -13v-149zM1286 326l244 397q0 2 2 2l2 -2q0 -5 -1.5 -35.5t-3 -92.5t-1.5 -144v-125q0 -7 -4 -7h-236 q-9 0 -2 7z" />
<glyph unicode="&#xbf;" horiz-adv-x="1122" d="M109 322q0 67 12.5 119.5t42 97.5t64 80.5t91.5 82.5q14 12 40.5 33t34.5 28t25.5 22.5t22 20.5t14.5 17.5t12 19.5t7 19.5t6 24.5t2 28l9 115q0 6 6 6h186q6 0 6 -6q10 -120 10 -131q0 -73 -18 -120.5t-51.5 -81.5t-108.5 -89q-100 -74 -133 -125.5t-33 -142.5 q0 -83 53.5 -128.5t155.5 -45.5q105 0 150 60.5t45 185.5q0 6 6 6h231q7 0 7 -6q0 -67 -11.5 -127t-42.5 -121.5t-80 -105t-131.5 -71.5t-189.5 -28q-114 0 -202.5 33t-138 87t-74.5 115.5t-25 127.5zM467 1169v217q0 7 6 7h229q7 0 7 -7v-217q0 -6 -7 -6h-229q-6 0 -6 6z " />
<glyph unicode="&#xc0;" horiz-adv-x="1259" d="M-37 1l2 5l496 1380q3 7 8 7h303q4 0 8 -7l496 -1380q0 -6 -4 -6h-250q-6 0 -8 6l-119 350q-3 6 -8 6h-533q-5 0 -8 -6l-117 -350q-2 -6 -8 -6h-252q-5 0 -6 1zM333 1838.5q1 2.5 5 2.5h248q6 0 8 -6l133 -291q3 -6 -4 -6h-168q-4 0 -10 6l-211 291q-2 1 -1 3.5zM424 575 q-3 -6 2 -6h389q5 0 2 6l-194 594q0 1 -2.5 1t-2.5 -1z" />
<glyph unicode="&#xc1;" horiz-adv-x="1359" d="M14 1l2 5l496 1380q4 7 8 7h303q5 0 8 -7l496 -1380q0 -6 -4 -6h-250q-6 0 -8 6l-119 350q-3 6 -8 6h-532q-6 0 -9 -6l-116 -350q-2 -6 -9 -6h-252q-6 0 -6 1zM475 575q-3 -6 2 -6h389q5 0 2 6l-194 594q0 1 -2 1t-2 -1zM590 1544l133 291q2 6 8 6h248q4 0 5 -2.5 t-1 -3.5l-211 -291q-6 -6 -10 -6h-168q-7 0 -4 6z" />
<glyph unicode="&#xc2;" horiz-adv-x="1359" d="M14 1l2 5l496 1380q4 7 8 7h303q5 0 8 -7l496 -1380q0 -6 -4 -6h-250q-6 0 -8 6l-119 350q-3 6 -8 6h-532q-6 0 -9 -6l-116 -350q-2 -6 -9 -6h-252q-6 0 -6 1zM375 1565l213 252q4 4 8 4h156q4 0 8 -4l213 -252q6 -6 -2 -6h-201q-7 0 -10 6l-82 116q-4 4 -8 0l-82 -116 q-3 -6 -10 -6h-201q-8 0 -2 6zM475 575q-3 -6 2 -6h389q5 0 2 6l-194 594q0 1 -2 1t-2 -1z" />
<glyph unicode="&#xc3;" horiz-adv-x="1359" d="M14 1l2 5l496 1380q4 7 8 7h303q5 0 8 -7l496 -1380q0 -6 -4 -6h-250q-6 0 -8 6l-119 350q-3 6 -8 6h-532q-6 0 -9 -6l-116 -350q-2 -6 -9 -6h-252q-6 0 -6 1zM334 1589q0 101 50.5 164.5t141.5 63.5q43 0 73 -8t79 -35q2 -1 21 -11.5t25 -13.5t20.5 -9.5t25 -8.5 t21.5 -2q25 0 35 14.5t10 46.5q0 8 8 8h162q8 0 8 -8q0 -100 -50.5 -163.5t-140.5 -63.5q-50 0 -81.5 8t-75.5 33q-8 4 -26.5 15t-28.5 16.5t-25.5 10.5t-28.5 5q-21 0 -31.5 -17.5t-13.5 -35t-8 -17.5h-162q-8 0 -8 8zM475 575q-3 -6 2 -6h389q5 0 2 6l-194 594q0 1 -2 1 t-2 -1z" />
<glyph unicode="&#xc4;" horiz-adv-x="1339" d="M4 1l2 5l496 1380q4 7 8 7h303q5 0 8 -7l496 -1380q0 -6 -4 -6h-250q-6 0 -8 6l-119 350q-3 6 -8 6h-533q-5 0 -8 -6l-117 -350q-2 -6 -8 -6h-252q-6 0 -6 1zM344 1565v250q0 6 6 6h228q6 0 6 -6v-250q0 -6 -6 -6h-228q-6 0 -6 6zM465 575q-3 -6 2 -6h389q5 0 2 6 l-194 594q0 1 -2.5 1t-2.5 -1zM745 1565v250q0 6 7 6h227q6 0 6 -6v-250q0 -6 -6 -6h-227q-7 0 -7 6z" />
<glyph unicode="&#xc5;" horiz-adv-x="1339" d="M4 1l2 5l496 1380q4 7 8 7h303q5 0 8 -7l496 -1380q0 -6 -4 -6h-250q-6 0 -8 6l-119 350q-3 6 -8 6h-533q-5 0 -8 -6l-117 -350q-2 -6 -8 -6h-252q-6 0 -6 1zM463 1688q0 86 60 145t147 59t147 -59t60 -145t-60.5 -145.5t-146.5 -59.5t-146.5 59.5t-60.5 145.5zM465 575 q-3 -6 2 -6h389q5 0 2 6l-194 594q0 1 -2.5 1t-2.5 -1zM590 1688q0 -33 22.5 -55.5t55.5 -22.5q32 0 54.5 22t22.5 56q0 33 -22 55t-55 22t-55.5 -22t-22.5 -55z" />
<glyph unicode="&#xc6;" horiz-adv-x="1875" d="M10 2q0 1 1 2t1 2l705 1380q3 7 8 7h1053q8 0 8 -9v-190q0 -8 -8 -8h-641q-9 0 -9 -8v-338q0 -9 9 -9h553q8 0 8 -8v-190q0 -8 -8 -8h-553q-9 0 -9 -9v-401q0 -8 9 -8h653q8 0 8 -8v-191q0 -8 -8 -8h-907q-9 0 -9 8v332q0 8 -8 8h-401q-5 0 -8 -6l-176 -336q-2 -6 -9 -6 h-256q-6 0 -6 2zM539 553q-3 -6 2 -6h325q8 0 8 8v645q0 8 -4 0z" />
<glyph unicode="&#xc7;" horiz-adv-x="1388" d="M113 584v241q0 271 166 440t423 169q261 0 428.5 -147t167.5 -372q0 -6 -1.5 -7t-6.5 -1h-252q-8 0 -8 8q0 134 -94.5 222t-233.5 88q-150 0 -241.5 -115t-91.5 -317v-177q0 -197 101 -321.5t271 -124.5q96 0 165 44.5t99.5 110.5t30.5 144q0 8 8 8h250q9 0 9 -8 q-4 -95 -40.5 -183t-100.5 -159.5t-161 -116.5t-213 -51q-4 0 -4 -4l-12 -80q-2 -3 2 -2h2q25 10 60 10q85 0 137.5 -48t52.5 -144q0 -84 -66.5 -134.5t-168.5 -50.5q-96 0 -151.5 38.5t-61.5 111.5q0 8 8 8h123q6 0 6 -6q1 -7 4.5 -15.5t12 -19t26 -17.5t41.5 -7 q37 0 61.5 25.5t24.5 66.5q0 47 -30 71.5t-85 24.5q-21 0 -44.5 -3t-35.5 -5.5t-36 -8t-27 -6.5q-6 -3 -6 3l36 192q0 6 -4 6q-170 11 -293.5 95.5t-185 219t-61.5 304.5z" />
<glyph unicode="&#xc8;" horiz-adv-x="1171" d="M139 8v1376q0 9 8 9h916q8 0 8 -9v-180q0 -8 -8 -8h-662q-8 0 -8 -8v-352q0 -9 8 -9h596q9 0 9 -8v-182q0 -8 -9 -8h-596q-8 0 -8 -8v-416q0 -8 8 -8h674q8 0 8 -9v-180q0 -8 -8 -8h-928q-8 0 -8 8zM314 1838.5q1 2.5 5 2.5h248q6 0 8 -6l134 -291q3 -6 -4 -6h-168 q-5 0 -11 6l-211 291q-2 1 -1 3.5z" />
<glyph unicode="&#xc9;" horiz-adv-x="1171" d="M139 8v1376q0 9 8 9h916q8 0 8 -9v-180q0 -8 -8 -8h-662q-8 0 -8 -8v-352q0 -9 8 -9h596q9 0 9 -8v-182q0 -8 -9 -8h-596q-8 0 -8 -8v-416q0 -8 8 -8h674q8 0 8 -9v-180q0 -8 -8 -8h-928q-8 0 -8 8zM508 1542l133 291q2 6 8 6h248q4 0 5 -2.5t-1 -3.5l-211 -291 q-6 -6 -10 -6h-168q-7 0 -4 6z" />
<glyph unicode="&#xca;" horiz-adv-x="1171" d="M139 8v1376q0 9 8 9h916q8 0 8 -9v-180q0 -8 -8 -8h-662q-8 0 -8 -8v-352q0 -9 8 -9h596q9 0 9 -8v-182q0 -8 -9 -8h-596q-8 0 -8 -8v-416q0 -8 8 -8h674q8 0 8 -9v-180q0 -8 -8 -8h-928q-8 0 -8 8zM311 1565l213 252q4 4 8 4h156q4 0 8 -4l213 -252q6 -6 -2 -6h-200 q-8 0 -11 6l-82 116q-4 4 -8 0l-82 -116q-3 -6 -10 -6h-201q-8 0 -2 6z" />
<glyph unicode="&#xcb;" horiz-adv-x="1171" d="M139 8v1376q0 9 8 9h916q8 0 8 -9v-180q0 -8 -8 -8h-662q-8 0 -8 -8v-352q0 -9 8 -9h596q9 0 9 -8v-182q0 -8 -9 -8h-596q-8 0 -8 -8v-416q0 -8 8 -8h674q8 0 8 -9v-180q0 -8 -8 -8h-928q-8 0 -8 8zM289 1563v249q0 7 6 7h227q6 0 6 -7v-249q0 -7 -6 -7h-227q-6 0 -6 7z M690 1563v249q0 7 6 7h228q6 0 6 -7v-249q0 -7 -6 -7h-228q-6 0 -6 7z" />
<glyph unicode="&#xcc;" horiz-adv-x="657" d="M24 1838.5q1 2.5 5 2.5h247q7 0 9 -6l133 -291q3 -6 -4 -6h-168q-4 0 -10 6l-211 291q-2 1 -1 3.5zM201 8q0 -8 8 -8h240q8 0 8 8v1376q0 9 -8 9h-240q-8 0 -8 -9v-1376z" />
<glyph unicode="&#xcd;" horiz-adv-x="657" d="M201 8q0 -8 8 -8h240q8 0 8 8v1376q0 9 -8 9h-240q-8 0 -8 -9v-1376zM244 1544l133 291q2 6 8 6h248q4 0 5 -2.5t-1 -3.5l-211 -291q-6 -6 -10 -6h-168q-7 0 -4 6z" />
<glyph unicode="&#xce;" horiz-adv-x="657" d="M27 1565l213 252q4 4 8 4h155q5 0 9 -4l213 -252q6 -6 -2 -6h-201q-7 0 -10 6l-82 116q-4 4 -8 0l-82 -116q-3 -6 -11 -6h-200q-8 0 -2 6zM201 8v1376q0 9 8 9h240q8 0 8 -9v-1376q0 -8 -8 -8h-240q-8 0 -8 8z" />
<glyph unicode="&#xcf;" horiz-adv-x="657" d="M8 1563v249q0 7 6 7h228q6 0 6 -7v-249q0 -7 -6 -7h-228q-6 0 -6 7zM201 8q0 -8 8 -8h240q8 0 8 8v1376q0 9 -8 9h-240q-8 0 -8 -9v-1376zM410 1563v249q0 7 6 7h227q6 0 6 -7v-249q0 -7 -6 -7h-227q-6 0 -6 7z" />
<glyph unicode="&#xd0;" horiz-adv-x="1351" d="M35 584v188q0 6 6 6h102q7 0 7 6v600q0 9 8 9h407q111 0 208 -19t185 -63t150 -110.5t98.5 -168t36.5 -229.5v-228q0 -122 -36.5 -220t-99 -163.5t-149.5 -109t-184.5 -63t-208.5 -19.5h-407q-8 0 -8 8v563q0 7 -7 7h-102q-6 0 -6 6zM403 217q0 -8 9 -8h209 q81 0 145.5 21.5t115.5 67.5t79 125.5t28 188.5v162q0 207 -103 309.5t-272 102.5h-202q-9 0 -9 -8v-394q0 -6 7 -6h202q6 0 6 -6v-188q0 -6 -6 -6h-202q-7 0 -7 -7v-354z" />
<glyph unicode="&#xd1;" horiz-adv-x="1337" d="M139 8v1376q0 9 8 9h240q6 0 12 -9l545 -964q4 -8 4 0q-4 59 -4 196v768q0 9 8 9h238q8 0 8 -9v-1376q0 -8 -8 -8h-242q-7 0 -12 8l-543 965h-4q4 -68 4 -189v-776q0 -8 -8 -8h-238q-8 0 -8 8zM332 1589q0 101 50.5 164.5t141.5 63.5q43 0 73 -8t79 -35q4 -2 21.5 -11.5 t24.5 -13t20.5 -9.5t24 -8.5t21.5 -2.5q25 0 35.5 14.5t10.5 46.5q0 8 8 8h162q8 0 8 -8q0 -100 -50.5 -163.5t-140.5 -63.5q-50 0 -81.5 8t-75.5 33q-8 4 -26.5 15t-28.5 16.5t-25.5 10.5t-28.5 5q-21 0 -31.5 -17.5t-13.5 -35t-8 -17.5h-162q-8 0 -8 8z" />
<glyph unicode="&#xd2;" horiz-adv-x="1466" d="M102 578v241q0 278 170 446.5t459 168.5q176 0 319.5 -74.5t228.5 -216t85 -324.5v-241q0 -129 -47 -243t-129 -197t-200 -131t-255 -48q-292 0 -461.5 170.5t-169.5 448.5zM360 594q0 -195 106.5 -311.5t266.5 -116.5q166 0 272.5 112.5t106.5 315.5v203 q0 108 -31 192.5t-85 135t-121 76.5t-144 26q-160 0 -265.5 -109.5t-105.5 -320.5v-203zM433 1838.5q1 2.5 5 2.5h248q6 0 8 -6l133 -291q3 -6 -4 -6h-168q-4 0 -10 6l-211 291q-2 1 -1 3.5z" />
<glyph unicode="&#xd3;" horiz-adv-x="1466" d="M102 578v241q0 278 170 446.5t459 168.5q176 0 319.5 -74.5t228.5 -216t85 -324.5v-241q0 -129 -47 -243t-129 -197t-200 -131t-255 -48q-292 0 -461.5 170.5t-169.5 448.5zM360 594q0 -195 106.5 -311.5t266.5 -116.5q166 0 272.5 112.5t106.5 315.5v203 q0 108 -31 192.5t-85 135t-121 76.5t-144 26q-160 0 -265.5 -109.5t-105.5 -320.5v-203zM643 1544l133 291q2 6 8 6h248q4 0 5 -2.5t-1 -3.5l-211 -291q-6 -6 -10 -6h-168q-7 0 -4 6z" />
<glyph unicode="&#xd4;" horiz-adv-x="1466" d="M102 578v241q0 278 170 446.5t459 168.5q176 0 319.5 -74.5t228.5 -216t85 -324.5v-241q0 -129 -47 -243t-129 -197t-200 -131t-255 -48q-292 0 -461.5 170.5t-169.5 448.5zM360 594q0 -195 106.5 -311.5t266.5 -116.5q166 0 272.5 112.5t106.5 315.5v203 q0 108 -31 192.5t-85 135t-121 76.5t-144 26q-160 0 -265.5 -109.5t-105.5 -320.5v-203zM430 1563l213 252q4 4 8 4h156q4 0 8 -4l213 -252q7 -7 -2 -7h-201q-7 0 -10 7l-82 116q-4 4 -8 0l-82 -116q-3 -7 -10 -7h-201q-9 0 -2 7z" />
<glyph unicode="&#xd5;" horiz-adv-x="1294" d="M16 578v241q0 278 170 446.5t459 168.5q176 0 319.5 -74.5t228.5 -216t85 -324.5v-241q0 -129 -47 -243t-129 -197t-200 -131t-255 -48q-292 0 -461.5 170.5t-169.5 448.5zM274 594q0 -195 106.5 -311.5t266.5 -116.5q166 0 272.5 112.5t106.5 315.5v203q0 108 -31 192.5 t-85 135t-121 76.5t-144 26q-160 0 -265.5 -109.5t-105.5 -320.5v-203zM307 1589q0 101 51 164.5t142 63.5q43 0 72.5 -8t78.5 -35q2 -1 21 -11.5t25 -13.5t20.5 -9.5t25 -8.5t21.5 -2q25 0 35 14.5t10 46.5q0 8 8 8h162q8 0 8 -8q0 -100 -50 -163.5t-140 -63.5q-50 0 -82 8 t-76 33q-8 4 -26.5 15t-28.5 16.5t-25.5 10.5t-28.5 5q-21 0 -31.5 -17.5t-13.5 -35t-8 -17.5h-162q-8 0 -8 8z" />
<glyph unicode="&#xd6;" horiz-adv-x="1466" d="M102 578v241q0 278 170 446.5t459 168.5q176 0 319.5 -74.5t228.5 -216t85 -324.5v-241q0 -129 -47 -243t-129 -197t-200 -131t-255 -48q-292 0 -461.5 170.5t-169.5 448.5zM360 594q0 -195 106.5 -311.5t266.5 -116.5q166 0 272.5 112.5t106.5 315.5v203 q0 108 -31 192.5t-85 135t-121 76.5t-144 26q-160 0 -265.5 -109.5t-105.5 -320.5v-203zM412 1565v250q0 6 6 6h227q6 0 6 -6v-250q0 -6 -6 -6h-227q-6 0 -6 6zM813 1565v250q0 6 6 6h228q6 0 6 -6v-250q0 -6 -6 -6h-228q-6 0 -6 6z" />
<glyph unicode="&#xd7;" horiz-adv-x="1093" d="M96 383q-6 6 0 12l291 289q5 5 0 10l-289 285q-6 6 0 12l144 144q6 6 12 0l287 -285q6 -6 12 0l287 285q6 6 12 0l143 -144q6 -6 0 -12l-286 -283q-7 -7 0 -14l288 -287q6 -6 0 -12l-143 -143q-6 -6 -12 0l-291 290q-4 4 -8 0l-291 -290q-6 -6 -12 0z" />
<glyph unicode="&#xd8;" horiz-adv-x="1355" d="M47 590v229q0 278 170 446.5t459 168.5q140 0 274 -56l99 187q3 6 8 6h139q6 0 4 -6l-133 -254q113 -82 177.5 -209t64.5 -283v-229q0 -123 -47 -237.5t-128.5 -201.5t-201 -139.5t-254.5 -52.5q-162 0 -293 61l-86 -163q-3 -7 -8 -7h-137q-8 0 -4 7l122 233 q-108 88 -166.5 217.5t-58.5 282.5zM305 621q0 -184 88 -302l451 859q-80 41 -168 41q-76 0 -142 -27t-118 -79t-81.5 -136.5t-29.5 -192.5v-163zM494 225q82 -49 184 -49q72 0 139 29.5t121 83.5t86.5 140.5t32.5 191.5v163q0 190 -105 310z" />
<glyph unicode="&#xd9;" horiz-adv-x="1339" d="M113 537v847q0 9 8 9h237q9 0 9 -9v-880q0 -77 19 -138.5t49.5 -100t71.5 -64t81 -35.5t82 -10t82 10t81 35.5t71.5 64t49.5 100t19 138.5v880q0 9 8 9h238q8 0 8 -9v-847q0 -187 -73.5 -319.5t-197.5 -195.5t-286 -63q-248 0 -401 149t-156 429zM372 1838.5q1 2.5 5 2.5 h248q6 0 8 -6l133 -291q3 -6 -4 -6h-168q-4 0 -10 6l-211 291q-2 1 -1 3.5z" />
<glyph unicode="&#xda;" horiz-adv-x="1339" d="M113 537v847q0 9 8 9h237q9 0 9 -9v-880q0 -77 19 -138.5t49.5 -100t71.5 -64t81 -35.5t82 -10t82 10t81 35.5t71.5 64t49.5 100t19 138.5v880q0 9 8 9h238q8 0 8 -9v-847q0 -187 -73.5 -319.5t-197.5 -195.5t-286 -63q-248 0 -401 149t-156 429zM571 1544l134 291 q2 6 8 6h248q4 0 5 -2.5t-1 -3.5l-211 -291q-6 -6 -11 -6h-168q-7 0 -4 6z" />
<glyph unicode="&#xdb;" horiz-adv-x="1339" d="M113 537v847q0 9 8 9h237q9 0 9 -9v-880q0 -77 19 -138.5t49.5 -100t71.5 -64t81 -35.5t82 -10t82 10t81 35.5t71.5 64t49.5 100t19 138.5v880q0 9 8 9h238q8 0 8 -9v-847q0 -187 -73.5 -319.5t-197.5 -195.5t-286 -63q-248 0 -401 149t-156 429zM371 1565l213 252 q4 4 8 4h156q4 0 8 -4l213 -252q6 -6 -2 -6h-201q-7 0 -10 6l-82 116q-4 4 -8 0l-82 -116q-3 -6 -11 -6h-200q-8 0 -2 6z" />
<glyph unicode="&#xdc;" horiz-adv-x="1339" d="M113 537v847q0 9 8 9h237q9 0 9 -9v-880q0 -77 19 -138.5t49.5 -100t71.5 -64t81 -35.5t82 -10t82 10t81 35.5t71.5 64t49.5 100t19 138.5v880q0 9 8 9h238q8 0 8 -9v-847q0 -187 -73.5 -319.5t-197.5 -195.5t-286 -63q-248 0 -401 149t-156 429zM354 1565v250q0 6 6 6 h228q6 0 6 -6v-250q0 -6 -6 -6h-228q-6 0 -6 6zM756 1565v250q0 6 6 6h227q6 0 6 -6v-250q0 -6 -6 -6h-227q-6 0 -6 6z" />
<glyph unicode="&#xdd;" horiz-adv-x="1310" d="M33.5 1390q1.5 3 5.5 3h276q7 0 13 -9l323 -612q4 -8 8 0l324 612q6 9 12 9h277q3 0 5 -3t-1 -6l-490 -829q-4 -8 -4 -14v-533q0 -8 -8 -8h-237q-9 0 -9 8v533q0 6 -4 14l-489 829q-3 3 -1.5 6zM557 1544l133 291q2 6 8 6h248q4 0 5 -2.5t-1 -3.5l-211 -291q-6 -6 -10 -6 h-168q-7 0 -4 6z" />
<glyph unicode="&#xde;" horiz-adv-x="1128" d="M133 6v1380q0 7 6 7h232q6 0 6 -7v-305q0 -6 4 -2q86 127 256 127q196 0 299.5 -115.5t103.5 -316.5v-190q0 -175 -101 -287.5t-286 -112.5q-189 0 -274 133q-4 4 -4 -2v-309q0 -6 -6 -6h-230q-6 0 -6 6zM375 594q0 -96 71.5 -154.5t153.5 -58.5q80 0 135.5 59t55.5 172 v142q0 250 -191 250q-37 0 -74.5 -12t-72 -37t-56.5 -71t-22 -106v-184z" />
<glyph unicode="&#xdf;" horiz-adv-x="1292" d="M139 8v944q0 103 25.5 181.5t82 138t153.5 90.5t233 31q96 0 178 -21.5t145.5 -64t99.5 -112t36 -159.5q0 -100 -53 -175t-126 -93q-3 -2 -3 -4t3 -2q42 -6 86.5 -27.5t86.5 -60.5t69 -103.5t27 -144.5q0 -91 -26 -164.5t-69 -121.5t-101.5 -80t-121.5 -46t-131 -14h-209 q-8 0 -8 8v180q0 9 8 9h150q138 0 195 59.5t57 181.5q0 23 -1 38.5t-7 39.5t-17 40.5t-33 35.5t-52 30.5t-77 19t-106 7.5h-109q-8 0 -8 8v179q0 8 8 8h103q117 0 164 50t47 140q0 26 -11 52.5t-34.5 52t-69 41.5t-105.5 16q-125 0 -175 -67.5t-50 -192.5v-928q0 -8 -8 -8 h-238q-8 0 -8 8z" />
<glyph unicode="&#xe0;" d="M61 260q0 130 79 205t212 100q62 12 195.5 31.5t150.5 24.5q4 2 4 6v28q0 168 -178 168q-88 0 -139 -41.5t-57 -113.5q0 -4 -4 -4h-224q-4 0 -4 4q9 65 37.5 124t78.5 111t131 82.5t183 30.5q207 0 316.5 -111.5t109.5 -304.5v-307q0 -88 9.5 -170.5t19.5 -116.5 q0 -6 -4 -6h-238q-6 0 -8 4q-9 19 -19 64.5t-10 87.5q0 2 -2 3.5t-4 -1.5q-122 -199 -336 -199q-125 0 -212 84t-87 217zM218 1431q1 3 5 3h248q6 0 8 -7l133 -290q4 -7 -4 -7h-168q-3 0 -10 7l-211 290q-2 1 -1 4zM303 268q0 -54 33 -86t100 -32q114 0 191.5 72t77.5 186 v36q0 7 -7 7q-12 -2 -46 -8t-90.5 -16.5t-131.5 -25.5q-127 -24 -127 -133z" />
<glyph unicode="&#xe1;" d="M61 260q0 130 79 205t212 100q62 12 195.5 31.5t150.5 24.5q4 2 4 6v28q0 168 -178 168q-88 0 -139 -41.5t-57 -113.5q0 -4 -4 -4h-224q-4 0 -4 4q9 65 37.5 124t78.5 111t131 82.5t183 30.5q207 0 316.5 -111.5t109.5 -304.5v-307q0 -88 9.5 -170.5t19.5 -116.5 q0 -6 -4 -6h-238q-6 0 -8 4q-9 19 -19 64.5t-10 87.5q0 2 -2 3.5t-4 -1.5q-122 -199 -336 -199q-125 0 -212 84t-87 217zM303 268q0 -54 33 -86t100 -32q114 0 191.5 72t77.5 186v36q0 7 -7 7q-12 -2 -46 -8t-90.5 -16.5t-131.5 -25.5q-127 -24 -127 -133zM422 1137l133 290 q2 7 8 7h248q4 0 5 -3t-1 -4l-211 -290q-7 -7 -10 -7h-168q-8 0 -4 7z" />
<glyph unicode="&#xe2;" d="M61 260q0 130 79 205t212 100q62 12 195.5 31.5t150.5 24.5q4 2 4 6v28q0 168 -178 168q-88 0 -139 -41.5t-57 -113.5q0 -4 -4 -4h-224q-4 0 -4 4q9 65 37.5 124t78.5 111t131 82.5t183 30.5q207 0 316.5 -111.5t109.5 -304.5v-307q0 -88 9.5 -170.5t19.5 -116.5 q0 -6 -4 -6h-238q-6 0 -8 4q-9 19 -19 64.5t-10 87.5q0 2 -2 3.5t-4 -1.5q-122 -199 -336 -199q-125 0 -212 84t-87 217zM217 1157l213 252q4 4 8 4h156q4 0 8 -4l213 -252q6 -6 -2 -6h-201q-7 0 -10 6l-82 117q-4 4 -8 0l-82 -117q-3 -6 -10 -6h-201q-8 0 -2 6zM303 268 q0 -54 33 -86t100 -32q114 0 191.5 72t77.5 186v36q0 7 -7 7q-12 -2 -46 -8t-90.5 -16.5t-131.5 -25.5q-127 -24 -127 -133z" />
<glyph unicode="&#xe3;" d="M61 260q0 130 79 205t212 100q62 12 195.5 31.5t150.5 24.5q4 2 4 6v28q0 168 -178 168q-88 0 -139 -41.5t-57 -113.5q0 -4 -4 -4h-224q-4 0 -4 4q9 65 37.5 124t78.5 111t131 82.5t183 30.5q207 0 316.5 -111.5t109.5 -304.5v-307q0 -88 9.5 -170.5t19.5 -116.5 q0 -6 -4 -6h-238q-6 0 -8 4q-9 19 -19 64.5t-10 87.5q0 2 -2 3.5t-4 -1.5q-122 -199 -336 -199q-125 0 -212 84t-87 217zM176 1180q0 101 51 164t142 63q43 0 72.5 -8t78.5 -35q2 -1 21 -11.5t25 -13.5t20.5 -9.5t25 -8.5t21.5 -2q25 0 35 14.5t10 46.5q0 9 8 9h162 q8 0 8 -9q0 -100 -50 -163.5t-140 -63.5q-50 0 -82 8t-76 33q-8 4 -26.5 15t-28.5 16.5t-25.5 10.5t-28.5 5q-21 0 -31.5 -17.5t-13.5 -35t-8 -17.5h-162q-8 0 -8 9zM303 268q0 -54 33 -86t100 -32q114 0 191.5 72t77.5 186v36q0 7 -7 7q-12 -2 -46 -8t-90.5 -16.5 t-131.5 -25.5q-127 -24 -127 -133z" />
<glyph unicode="&#xe4;" d="M61 260q0 130 79 205t212 100q62 12 195.5 31.5t150.5 24.5q4 2 4 6v28q0 168 -178 168q-88 0 -139 -41.5t-57 -113.5q0 -4 -4 -4h-224q-4 0 -4 4q9 65 37.5 124t78.5 111t131 82.5t183 30.5q207 0 316.5 -111.5t109.5 -304.5v-307q0 -88 9.5 -170.5t19.5 -116.5 q0 -6 -4 -6h-238q-6 0 -8 4q-9 19 -19 64.5t-10 87.5q0 2 -2 3.5t-4 -1.5q-122 -199 -336 -199q-125 0 -212 84t-87 217zM197 1155v250q0 6 6 6h227q6 0 6 -6v-250q0 -6 -6 -6h-227q-6 0 -6 6zM303 268q0 -54 33 -86t100 -32q114 0 191.5 72t77.5 186v36q0 7 -7 7 q-12 -2 -46 -8t-90.5 -16.5t-131.5 -25.5q-127 -24 -127 -133zM598 1155v250q0 6 6 6h227q7 0 7 -6v-250q0 -6 -7 -6h-227q-6 0 -6 6z" />
<glyph unicode="&#xe5;" d="M61 260q0 130 79 205t212 100q62 12 195.5 31.5t150.5 24.5q4 2 4 6v28q0 168 -178 168q-88 0 -139 -41.5t-57 -113.5q0 -4 -4 -4h-224q-4 0 -4 4q9 65 37.5 124t78.5 111t131 82.5t183 30.5q207 0 316.5 -111.5t109.5 -304.5v-307q0 -88 9.5 -170.5t19.5 -116.5 q0 -6 -4 -6h-238q-6 0 -8 4q-9 19 -19 64.5t-10 87.5q0 2 -2 3.5t-4 -1.5q-122 -199 -336 -199q-125 0 -212 84t-87 217zM303 268q0 -54 33 -86t100 -32q114 0 191.5 72t77.5 186v36q0 7 -7 7q-12 -2 -46 -8t-90.5 -16.5t-131.5 -25.5q-127 -24 -127 -133zM324 1278 q0 86 60 145.5t146 59.5t146.5 -59.5t60.5 -145.5t-60.5 -145.5t-146.5 -59.5t-146 59.5t-60 145.5zM451 1278q0 -34 22.5 -56t54.5 -22q33 0 55.5 22.5t22.5 55.5t-22.5 55.5t-55.5 22.5q-32 0 -54.5 -22t-22.5 -56z" />
<glyph unicode="&#xe6;" horiz-adv-x="1738" d="M61 260q0 255 295 311q65 12 196 24.5t144 14.5q6 0 6 6v29q0 84 -43 131t-135 47q-88 0 -139 -41.5t-57 -113.5q0 -4 -4 -4h-224q-4 0 -4 4q9 65 37.5 124t78.5 111t131 82.5t183 30.5q114 0 191 -30t135 -97q3 -3 6 0q69 69 145 98t175 29q225 0 350 -130t125 -354 v-108q0 -6 -6 -6h-689q-6 0 -6 -4v-21q4 -121 75 -180t183 -59q81 0 134 39t67 102q2 6 8 6h228q4 0 4 -4v-4q-102 -334 -451 -334q-289 0 -393 207q-3 6 -6 0q-40 -66 -92 -110t-112 -63.5t-109.5 -26.5t-110.5 -7q-131 0 -223.5 84t-92.5 217zM303 268q0 -54 33 -86 t100 -32q106 0 187.5 66t81.5 159v55q0 6 -7 6q-18 -2 -49 -6t-92.5 -12.5t-126.5 -16.5q-61 -7 -94 -43t-33 -90zM952 596q0 -4 6 -4h439q6 0 6 6v23q0 86 -65.5 145t-159.5 59q-95 0 -160.5 -59t-65.5 -145v-25z" />
<glyph unicode="&#xe7;" d="M86 418v149q0 94 29.5 175t85.5 142.5t145.5 96.5t202.5 35q111 0 197.5 -31.5t138 -85t78 -119.5t26.5 -141q0 -8 -6 -8h-219q-8 0 -8 8q0 79 -50.5 129.5t-156.5 50.5q-101 0 -157 -67t-56 -205v-113q0 -138 60.5 -203t152.5 -65q103 0 149.5 45t51.5 127q0 8 8 8h221 q8 0 8 -8q-11 -161 -108.5 -262.5t-276.5 -114.5q-6 0 -6 -6l-12 -78q0 -3 0.5 -3.5t2.5 -0.5h1q25 10 59 10q85 0 138 -48t53 -144q0 -84 -67 -134.5t-169 -50.5q-96 0 -151.5 38.5t-61.5 111.5q0 8 8 8h123q6 0 6 -6q1 -7 4.5 -15.5t12 -19t26 -17.5t41.5 -7 q37 0 61.5 25.5t24.5 66.5q0 47 -29.5 71.5t-84.5 24.5q-21 0 -44.5 -3t-35.5 -5t-37 -8.5t-27 -6.5q-6 -3 -6 3l37 190q3 8 -4 8q-174 27 -276.5 156t-102.5 297z" />
<glyph unicode="&#xe8;" horiz-adv-x="1120" d="M86 444q0 -212 134 -348.5t362 -136.5q348 0 450 334v4q0 4 -4 4h-227q-6 0 -8 -6q-14 -63 -67 -102t-134 -39q-114 0 -186 63t-72 191v4q0 6 6 6h688q6 0 6 6v108q0 224 -125 354t-350 130q-220 0 -346.5 -131.5t-126.5 -358.5v-82zM259 1431q1 3 5 3h248q6 0 8 -7 l133 -290q3 -7 -4 -7h-168q-3 0 -10 7l-211 290q-2 1 -1 4zM334 598v23q0 86 65 145t160 59q94 0 159.5 -59t65.5 -145v-23q0 -6 -6 -6h-438q-6 0 -6 6z" />
<glyph unicode="&#xe9;" horiz-adv-x="1120" d="M86 444q0 -212 134 -348.5t362 -136.5q348 0 450 334v4q0 4 -4 4h-227q-6 0 -8 -6q-14 -63 -67 -102t-134 -39q-114 0 -186 63t-72 191v4q0 6 6 6h688q6 0 6 6v108q0 224 -125 354t-350 130q-220 0 -346.5 -131.5t-126.5 -358.5v-82zM334 598v23q0 86 65 145t160 59 q94 0 159.5 -59t65.5 -145v-23q0 -6 -6 -6h-438q-6 0 -6 6zM459 1137l133 290q2 7 8 7h248q4 0 5 -3t-1 -4l-211 -290q-7 -7 -10 -7h-168q-7 0 -4 7z" />
<glyph unicode="&#xea;" horiz-adv-x="1120" d="M86 444v82q0 227 126.5 358.5t346.5 131.5q225 0 350 -130t125 -354v-108q0 -6 -6 -6h-688q-6 0 -6 -6v-4q0 -128 72 -191t186 -63q81 0 134 39t67 102q2 6 8 6h227q4 0 4 -4v-4q-102 -334 -450 -334q-228 0 -362 136.5t-134 348.5zM260 1157l213 252q4 4 8 4h156 q4 0 8 -4l213 -252q6 -6 -2 -6h-201q-7 0 -10 6l-82 117q-4 4 -8 0l-82 -117q-3 -6 -10 -6h-201q-8 0 -2 6zM334 598q0 -6 6 -6h438q6 0 6 6v23q0 86 -65.5 145t-159.5 59q-95 0 -160 -59t-65 -145v-23z" />
<glyph unicode="&#xeb;" horiz-adv-x="1120" d="M86 444q0 -212 134 -348.5t362 -136.5q348 0 450 334v4q0 4 -4 4h-227q-6 0 -8 -6q-14 -63 -67 -102t-134 -39q-114 0 -186 63t-72 191v4q0 6 6 6h688q6 0 6 6v108q0 224 -125 354t-350 130q-220 0 -346.5 -131.5t-126.5 -358.5v-82zM242 1157v250q0 6 6 6h227q6 0 6 -6 v-250q0 -6 -6 -6h-227q-6 0 -6 6zM334 598v23q0 86 65 145t160 59q94 0 159.5 -59t65.5 -145v-23q0 -6 -6 -6h-438q-6 0 -6 6zM643 1157v250q0 6 6 6h228q6 0 6 -6v-250q0 -6 -6 -6h-228q-6 0 -6 6z" />
<glyph unicode="&#xec;" horiz-adv-x="528" d="M-34 1429q1 3 5 3h248q6 0 8 -7l133 -290q4 -7 -4 -7h-168q-3 0 -10 7l-211 290q-2 1 -1 4zM141 6v963q0 6 6 6h234q6 0 6 -6v-963q0 -6 -6 -6h-234q-6 0 -6 6z" />
<glyph unicode="&#xed;" horiz-adv-x="528" d="M141 6v963q0 6 6 6h234q6 0 6 -6v-963q0 -6 -6 -6h-234q-6 0 -6 6zM178 1135l133 290q2 7 8 7h248q4 0 5 -3t-1 -4l-211 -290q-7 -7 -10 -7h-168q-8 0 -4 7z" />
<glyph unicode="&#xee;" horiz-adv-x="524" d="M-37 1157l213 252q4 4 8 4h156q4 0 8 -4l213 -252q6 -6 -2 -6h-201q-7 0 -10 6l-82 117q-4 4 -8 0l-82 -117q-3 -6 -10 -6h-201q-8 0 -2 6zM137 6v963q0 6 6 6h234q6 0 6 -6v-963q0 -6 -6 -6h-234q-6 0 -6 6z" />
<glyph unicode="&#xef;" horiz-adv-x="528" d="M-55 1157v250q0 6 6 6h227q6 0 6 -6v-250q0 -6 -6 -6h-227q-6 0 -6 6zM141 6v963q0 6 6 6h234q6 0 6 -6v-963q0 -6 -6 -6h-234q-6 0 -6 6zM346 1157v250q0 6 6 6h228q6 0 6 -6v-250q0 -6 -6 -6h-228q-6 0 -6 6z" />
<glyph unicode="&#xf0;" horiz-adv-x="1099" d="M66 385q0 82 26 157.5t75.5 136.5t129.5 97.5t180 36.5q170 0 273 -90q4 -4 4 2q-48 206 -193 332q-4 4 -8 2l-322 -203q-10 -5 -10 6v182q0 5 4 9l185 116q4 4 -2 7q-75 45 -181 67q-6 2 -6 6v178q0 7 6 7q86 -11 185 -48.5t182 -93.5q3 -2 5 -2t3 1v1l254 160q8 5 8 -2 v-186q0 -9 -4 -11l-119 -75q-3 -4 0 -7q53 -57 92 -115.5t74.5 -139t54.5 -186t19 -230.5q0 -154 -51.5 -274.5t-159.5 -193.5t-258 -73q-199 0 -322.5 113.5t-123.5 312.5zM285 385q0 -106 63 -170.5t166 -64.5q48 0 88.5 15.5t67 40t45.5 56.5t27 63.5t8 61.5 q0 103 -71 165t-167 62t-161.5 -64t-65.5 -165z" />
<glyph unicode="&#xf1;" horiz-adv-x="1155" d="M119 6v963q0 6 6 6h172q3 0 6 -6l66 -150q0 -8 4 0q31 72 116 134.5t179 62.5q179 0 276.5 -106.5t97.5 -305.5v-598q0 -6 -6 -6h-237q-6 0 -6 6v610q0 203 -172 203q-90 0 -171 -90.5t-81 -210.5v-512q0 -6 -7 -6h-237q-6 0 -6 6zM242 1182q0 101 50.5 164t141.5 63 q43 0 73 -8t79 -35q4 -2 21.5 -11.5t24.5 -13t20.5 -9.5t24 -8.5t21.5 -2.5q25 0 35 14.5t10 46.5q0 9 9 9h161q9 0 9 -9q0 -100 -50.5 -163.5t-140.5 -63.5q-50 0 -82 8t-76 33q-9 5 -27 15.5t-28 16t-25 10.5t-28 5q-21 0 -31.5 -17.5t-13.5 -34.5t-8 -17h-162q-8 0 -8 8z " />
<glyph unicode="&#xf2;" horiz-adv-x="1187" d="M92 440v111q0 142 70.5 249.5t183.5 161.5t248 54q132 0 245 -54t185 -162.5t72 -250.5v-111q0 -106 -42.5 -197.5t-112.5 -152.5t-160.5 -95t-186.5 -34q-135 0 -249 59t-183.5 170.5t-69.5 251.5zM298 1431q1 3 5 3h248q6 0 8 -7l133 -290q4 -7 -4 -7h-168q-3 0 -10 7 l-211 290q-2 1 -1 4zM340 457q0 -138 73.5 -219.5t180.5 -81.5q105 0 178.5 82t73.5 219v71q0 136 -73.5 214.5t-178.5 78.5q-110 0 -182 -75.5t-72 -215.5v-73z" />
<glyph unicode="&#xf3;" horiz-adv-x="1187" d="M92 440v111q0 142 70.5 249.5t183.5 161.5t248 54q132 0 245 -54t185 -162.5t72 -250.5v-111q0 -106 -42.5 -197.5t-112.5 -152.5t-160.5 -95t-186.5 -34q-135 0 -249 59t-183.5 170.5t-69.5 251.5zM340 457q0 -138 73.5 -219.5t180.5 -81.5q105 0 178.5 82t73.5 219v71 q0 136 -73.5 214.5t-178.5 78.5q-110 0 -182 -75.5t-72 -215.5v-73zM498 1137l133 290q2 7 8 7h248q4 0 5 -3t-1 -4l-211 -290q-7 -7 -10 -7h-168q-8 0 -4 7z" />
<glyph unicode="&#xf4;" horiz-adv-x="1187" d="M92 440v111q0 142 70.5 249.5t183.5 161.5t248 54q132 0 245 -54t185 -162.5t72 -250.5v-111q0 -106 -42.5 -197.5t-112.5 -152.5t-160.5 -95t-186.5 -34q-135 0 -249 59t-183.5 170.5t-69.5 251.5zM295 1159l213 252q4 4 8 4h156q4 0 8 -4l213 -252q6 -6 -2 -6h-201 q-7 0 -10 6l-82 117q-4 4 -8 0l-82 -117q-3 -6 -10 -6h-201q-8 0 -2 6zM340 457q0 -138 73.5 -219.5t180.5 -81.5q105 0 178.5 82t73.5 219v71q0 136 -73.5 214.5t-178.5 78.5q-110 0 -182 -75.5t-72 -215.5v-73z" />
<glyph unicode="&#xf5;" horiz-adv-x="1187" d="M92 440v111q0 142 70.5 249.5t183.5 161.5t248 54q132 0 245 -54t185 -162.5t72 -250.5v-111q0 -106 -42.5 -197.5t-112.5 -152.5t-160.5 -95t-186.5 -34q-135 0 -249 59t-183.5 170.5t-69.5 251.5zM254 1184q0 101 50.5 164t141.5 63q43 0 73 -8t79 -35q2 -1 21 -11.5 t25 -13.5t20.5 -9.5t25 -8.5t21.5 -2q25 0 35 14.5t10 46.5q0 9 8 9h162q8 0 8 -9q0 -100 -50.5 -163.5t-140.5 -63.5q-50 0 -81.5 8t-75.5 33q-8 4 -26.5 15t-28.5 16.5t-25.5 10.5t-28.5 5q-21 0 -31.5 -17.5t-13.5 -34.5t-8 -17h-162q-8 0 -8 8zM340 457 q0 -138 73.5 -219.5t180.5 -81.5q105 0 178.5 82t73.5 219v71q0 136 -73.5 214.5t-178.5 78.5q-110 0 -182 -75.5t-72 -215.5v-73z" />
<glyph unicode="&#xf6;" horiz-adv-x="1187" d="M92 440v111q0 142 70.5 249.5t183.5 161.5t248 54q132 0 245 -54t185 -162.5t72 -250.5v-111q0 -106 -42.5 -197.5t-112.5 -152.5t-160.5 -95t-186.5 -34q-135 0 -249 59t-183.5 170.5t-69.5 251.5zM272 1157v250q0 6 7 6h227q6 0 6 -6v-250q0 -6 -6 -6h-227q-7 0 -7 6z M340 457q0 -138 73.5 -219.5t180.5 -81.5q105 0 178.5 82t73.5 219v71q0 136 -73.5 214.5t-178.5 78.5q-110 0 -182 -75.5t-72 -215.5v-73zM674 1157v250q0 6 6 6h227q6 0 6 -6v-250q0 -6 -6 -6h-227q-6 0 -6 6z" />
<glyph unicode="&#xf7;" horiz-adv-x="1120" d="M143 596v201q0 8 9 8h817q8 0 8 -8v-201q0 -8 -8 -8h-817q-9 0 -9 8zM410 1036q0 62 43 105t106 43q61 0 104.5 -43t43.5 -105q0 -63 -43 -106t-105 -43q-63 0 -106 43t-43 106zM416 358q0 62 43 105t106 43q61 0 104.5 -43t43.5 -105q0 -63 -43 -106t-105 -43 q-63 0 -106 43t-43 106z" />
<glyph unicode="&#xf8;" horiz-adv-x="1187" d="M92 440v111q0 142 70.5 249.5t183.5 161.5t248 54q86 0 184 -31q6 0 10 4l80 154q3 6 9 6h139q7 0 4 -6l-113 -215q-2 -6 2 -10q87 -61 137 -155.5t50 -213.5v-111q0 -106 -42.5 -197.5t-112.5 -152.5t-160.5 -95t-186.5 -34q-91 0 -176 31q-5 0 -6 -2l-70 -131 q-4 -7 -8 -7h-139q-9 0 -5 7l101 188q2 4 -2 8q-92 65 -144.5 164.5t-52.5 222.5zM340 457q0 -120 55 -197q5 -5 8 0l281 537q4 8 -2 8q-43 16 -88 16q-110 0 -182 -75.5t-72 -215.5v-73zM510 176q-1 -3 2 -6q32 -14 82 -14q105 0 178.5 82t73.5 219v71q0 112 -47 183 q-4 4 -6 0z" />
<glyph unicode="&#xf9;" horiz-adv-x="1148" d="M113 342q0 -97 28 -172.5t75.5 -120t104.5 -67.5t121 -23q120 0 208.5 59t131.5 138q4 8 4 0l66 -150q3 -6 6 -6h166q6 0 6 6v963q0 6 -6 6h-229q-7 0 -7 -6v-480q0 -144 -66.5 -238.5t-186.5 -94.5q-91 0 -132 61.5t-41 161.5v590q0 6 -6 6h-237q-6 0 -6 -6v-627z M273.5 1431q1.5 3 5.5 3h247q7 0 9 -7l133 -290q4 -7 -4 -7h-168q-4 0 -11 7l-211 290q-2 1 -0.5 4z" />
<glyph unicode="&#xfa;" horiz-adv-x="1148" d="M113 342q0 -97 28 -172.5t75.5 -120t104.5 -67.5t121 -23q120 0 208.5 59t131.5 138q4 8 4 0l66 -150q3 -6 6 -6h166q6 0 6 6v963q0 6 -6 6h-229q-7 0 -7 -6v-480q0 -144 -66.5 -238.5t-186.5 -94.5q-91 0 -132 61.5t-41 161.5v590q0 6 -6 6h-237q-6 0 -6 -6v-627z M473 1137l133 290q2 7 8 7h248q4 0 5 -3t-1 -4l-211 -290q-7 -7 -10 -7h-168q-7 0 -4 7z" />
<glyph unicode="&#xfb;" horiz-adv-x="1148" d="M113 342v627q0 6 6 6h237q6 0 6 -6v-590q0 -100 41 -161.5t132 -61.5q120 0 186.5 94.5t66.5 238.5v480q0 6 7 6h229q6 0 6 -6v-963q0 -6 -6 -6h-166q-3 0 -6 6l-66 150q0 8 -4 0q-43 -79 -131.5 -138t-208.5 -59q-64 0 -121 23t-104.5 67.5t-75.5 120t-28 172.5z M276 1161l213 252q4 4 9 4h155q5 0 9 -4l212 -252q6 -6 -2 -6h-200q-7 0 -10 6l-82 117q-4 4 -9 0l-82 -117q-3 -6 -10 -6h-200q-9 0 -3 6z" />
<glyph unicode="&#xfc;" horiz-adv-x="1148" d="M113 342q0 -97 28 -172.5t75.5 -120t104.5 -67.5t121 -23q120 0 208.5 59t131.5 138q4 8 4 0l66 -150q3 -6 6 -6h166q6 0 6 6v963q0 6 -6 6h-229q-7 0 -7 -6v-480q0 -144 -66.5 -238.5t-186.5 -94.5q-91 0 -132 61.5t-41 161.5v590q0 6 -6 6h-237q-6 0 -6 -6v-627z M266 1157v250q0 6 6 6h228q6 0 6 -6v-250q0 -6 -6 -6h-228q-6 0 -6 6zM668 1157v250q0 6 6 6h227q6 0 6 -6v-250q0 -6 -6 -6h-227q-6 0 -6 6z" />
<glyph unicode="&#xfd;" horiz-adv-x="960" d="M-10 967q-1 3 1 5.5t5 2.5h268q7 0 10 -8l211 -590q3 -11 7 0l200 590q3 8 10 8h240q9 0 6 -8l-471 -1194q-70 -179 -239 -179q-44 0 -85.5 18t-62.5 44q-4 4 -4 10v172q0 3 2.5 4t5.5 -2q44 -61 105 -61q36 0 59 15t37 54l74 211q0 1 1.5 7t-1.5 8zM381 1139l133 291 q2 6 8 6h248q4 0 5 -2t-1 -4l-211 -291q-6 -6 -10 -6h-168q-7 0 -4 6z" />
<glyph unicode="&#xfe;" horiz-adv-x="1128" d="M133 -391v1777q0 7 6 7h232q6 0 6 -7v-512q0 -8 6 -2q85 125 248 125q196 0 303.5 -116t107.5 -316v-190q0 -174 -104.5 -287t-290.5 -113q-180 0 -266 134q-4 4 -4 -3v-497h-244zM377 385q0 -96 71.5 -154.5t153.5 -58.5q80 0 135.5 59t55.5 172v142q0 250 -191 250 q-37 0 -74.5 -12t-72 -37t-56.5 -71t-22 -106v-184z" />
<glyph unicode="&#xff;" horiz-adv-x="960" d="M-10 967q-1 3 1 5.5t5 2.5h268q7 0 10 -8l211 -590q3 -11 7 0l200 590q3 8 10 8h240q9 0 6 -8l-471 -1194q-70 -179 -239 -179q-44 0 -85.5 18t-62.5 44q-4 4 -4 10v172q0 3 2.5 4t5.5 -2q44 -61 105 -61q36 0 59 15t37 54l74 211q0 1 1.5 7t-1.5 8zM162 1153v250 q0 6 6 6h227q6 0 6 -6v-250q0 -6 -6 -6h-227q-6 0 -6 6zM563 1153v250q0 6 6 6h228q6 0 6 -6v-250q0 -6 -6 -6h-228q-6 0 -6 6z" />
<glyph unicode="&#x152;" horiz-adv-x="1961" d="M82 569v250q0 615 491 615q130 0 227.5 -56.5t155.5 -148.5q5 -5 5 0v155q0 9 8 9h895q8 0 8 -9v-180q0 -8 -8 -8h-641q-9 0 -9 -8v-354q0 -9 9 -9h553q8 0 8 -8v-180q0 -8 -8 -8h-553q-9 0 -9 -8v-416q0 -8 9 -8h653q8 0 8 -9v-180q0 -8 -8 -8h-907q-8 0 -8 8v178 q0 2 -2 2l-3 -2q-17 -39 -46 -76t-73.5 -72.5t-109.5 -57t-141 -21.5q-116 0 -204 29.5t-144.5 81.5t-91.5 130t-49.5 167.5t-14.5 201.5zM340 594q0 -213 75 -325.5t228 -112.5q158 0 238 123.5t80 404.5v57q0 263 -72 379.5t-248 116.5q-159 0 -230 -111t-71 -335v-197z " />
<glyph unicode="&#x153;" horiz-adv-x="1880" d="M92 440v111q0 142 70.5 249.5t183.5 161.5t248 54q120 0 219.5 -48.5t144.5 -140.5q2 -5 7 0q111 189 354 189q225 0 350 -130t125 -354v-108q0 -6 -6 -6h-688q-6 0 -6 -23q3 -111 78 -176t180 -65q80 0 131 39t69 102q2 6 9 6h227q7 0 4 -8q-111 -334 -451 -334 q-136 0 -237.5 53t-149.5 158q-3 7 -8 0q-64 -110 -148.5 -160.5t-203.5 -50.5q-135 0 -249 59t-183.5 170.5t-69.5 251.5zM340 457q0 -138 73.5 -219.5t180.5 -81.5q105 0 178.5 82t73.5 219v86q-4 130 -77 204t-175 74q-110 0 -182 -75.5t-72 -215.5v-73zM1094 598 q0 -6 6 -6h438q6 0 6 6v23q0 86 -65.5 145t-159.5 59q-95 0 -160 -59t-65 -145v-23z" />
<glyph unicode="&#x178;" horiz-adv-x="1310" d="M33.5 1390q1.5 3 5.5 3h276q7 0 13 -9l323 -612q4 -8 8 0l324 612q6 9 12 9h277q3 0 5 -3t-1 -6l-490 -829q-4 -8 -4 -14v-533q0 -8 -8 -8h-237q-9 0 -9 8v533q0 6 -4 14l-489 829q-3 3 -1.5 6zM336 1565v250q0 6 6 6h227q6 0 6 -6v-250q0 -6 -6 -6h-227q-6 0 -6 6z M737 1565v250q0 6 6 6h228q6 0 6 -6v-250q0 -6 -6 -6h-228q-6 0 -6 6z" />
<glyph unicode="&#x2c6;" horiz-adv-x="1032" d="M217 1137l213 252q4 4 8 4h156q4 0 8 -4l213 -252q7 -7 -2 -7h-201q-6 0 -10 7l-82 116q-4 4 -8 0l-82 -116q-4 -7 -10 -7h-201q-9 0 -2 7z" />
<glyph unicode="&#x2dc;" horiz-adv-x="1024" d="M176 1147q0 101 51 164t142 63q43 0 72.5 -8t78.5 -35q2 -1 21 -11.5t25 -13.5t20.5 -9.5t25 -8.5t21.5 -2q25 0 35 15t10 47q0 8 8 8h162q8 0 8 -8q0 -100 -50 -164t-140 -64q-50 0 -82 8t-76 33q-8 4 -26.5 15t-28.5 16.5t-25.5 10.5t-28.5 5q-21 0 -31.5 -17 t-13.5 -34.5t-8 -17.5h-162q-8 0 -8 8z" />
<glyph unicode="&#x2000;" horiz-adv-x="946" />
<glyph unicode="&#x2001;" horiz-adv-x="1892" />
<glyph unicode="&#x2002;" horiz-adv-x="946" />
<glyph unicode="&#x2003;" horiz-adv-x="1892" />
<glyph unicode="&#x2004;" horiz-adv-x="630" />
<glyph unicode="&#x2005;" horiz-adv-x="473" />
<glyph unicode="&#x2006;" horiz-adv-x="315" />
<glyph unicode="&#x2007;" horiz-adv-x="315" />
<glyph unicode="&#x2008;" horiz-adv-x="236" />
<glyph unicode="&#x2009;" horiz-adv-x="378" />
<glyph unicode="&#x200a;" horiz-adv-x="105" />
<glyph unicode="&#x2010;" horiz-adv-x="978" d="M174 389v201q0 8 8 8h615q8 0 8 -8v-201q0 -8 -8 -8h-615q-8 0 -8 8z" />
<glyph unicode="&#x2011;" horiz-adv-x="978" d="M174 389v201q0 8 8 8h615q8 0 8 -8v-201q0 -8 -8 -8h-615q-8 0 -8 8z" />
<glyph unicode="&#x2012;" horiz-adv-x="978" d="M174 389v201q0 8 8 8h615q8 0 8 -8v-201q0 -8 -8 -8h-615q-8 0 -8 8z" />
<glyph unicode="&#x2013;" horiz-adv-x="1392" d="M174 598v199q0 8 8 8h1028q9 0 9 -8v-199q0 -8 -9 -8h-1028q-8 0 -8 8z" />
<glyph unicode="&#x2014;" horiz-adv-x="1796" d="M174 596v201q0 8 8 8h1432q8 0 8 -8v-201q0 -8 -8 -8h-1432q-8 0 -8 8z" />
<glyph unicode="&#x2018;" horiz-adv-x="428" d="M86 803v336q0 71 12 121.5t42.5 90.5t87 61t141.5 22q8 0 8 -7v-122q0 -9 -8 -9q-68 0 -99.5 -25t-31.5 -95v-101q0 -4 6 -4h129q5 0 6.5 -1t1.5 -7v-260q0 -6 -1.5 -7t-6.5 -1h-279q-8 0 -8 8z" />
<glyph unicode="&#x2019;" horiz-adv-x="421" d="M86 1124v260q0 9 8 9h279q8 0 8 -9v-335q0 -71 -12 -121.5t-42.5 -90.5t-87 -61t-141.5 -22q-8 0 -8 6v123q0 8 8 8q68 0 99.5 25.5t31.5 95.5v100q0 4 -6 4h-129q-5 0 -6.5 1t-1.5 7z" />
<glyph unicode="&#x201a;" horiz-adv-x="854" d="M86 8v260q0 6 1.5 7t6.5 1h279q8 0 8 -8v-336q0 -71 -12 -121t-42.5 -90.5t-87 -61t-141.5 -21.5q-8 0 -8 6v123q0 8 8 8q68 0 99.5 25.5t31.5 95.5v100q0 4 -6 4h-129q-5 0 -6.5 1t-1.5 7zM467 8v260q0 6 1.5 7t6.5 1h279q8 0 8 -8v-336q0 -71 -12 -121t-42.5 -90.5 t-87 -61t-141.5 -21.5q-8 0 -8 6v123q0 8 8 8q68 0 99.5 25.5t31.5 95.5v100q0 4 -6 4h-129q-5 0 -6.5 1t-1.5 7z" />
<glyph unicode="&#x201c;" horiz-adv-x="765" d="M49 803v336q0 71 12 121.5t42.5 90.5t87 61t141.5 22q8 0 8 -7v-122q0 -9 -8 -9q-68 0 -99.5 -25t-31.5 -95v-101q0 -4 6 -4h129q5 0 6.5 -1t1.5 -7v-260q0 -6 -1.5 -7t-6.5 -1h-279q-8 0 -8 8zM432 803v336q0 71 12 121.5t42.5 90.5t87 61t141.5 22q8 0 8 -7v-122 q0 -9 -8 -9q-68 0 -99.5 -25t-31.5 -95v-101q0 -4 6 -4h129q5 0 6.5 -1t1.5 -7v-260q0 -6 -1.5 -7t-6.5 -1h-279q-8 0 -8 8z" />
<glyph unicode="&#x201d;" horiz-adv-x="796" d="M57 1124v260q0 9 9 9h278q8 0 8 -9v-335q0 -57 -7 -99t-26 -80t-50 -62t-81 -38.5t-118 -15.5q-9 0 -9 6v123q0 8 9 8q68 0 99.5 25.5t31.5 95.5v100q0 4 -6 4h-129q-9 0 -9 8zM440 1124v260q0 9 9 9h278q8 0 8 -9v-335q0 -57 -7 -99t-26 -80t-50 -62t-81 -38.5 t-118 -15.5q-9 0 -9 6v123q0 8 9 8q68 0 99.5 25.5t31.5 95.5v100q0 4 -6 4h-129q-9 0 -9 8z" />
<glyph unicode="&#x201e;" horiz-adv-x="473" d="M86 8v260q0 6 1.5 7t6.5 1h279q8 0 8 -8v-336q0 -71 -12 -121t-42.5 -90.5t-87 -61t-141.5 -21.5q-8 0 -8 6v123q0 8 8 8q68 0 99.5 25.5t31.5 95.5v100q0 4 -6 4h-129q-5 0 -6.5 1t-1.5 7z" />
<glyph unicode="&#x2022;" horiz-adv-x="675" d="M92 682q0 103 72.5 175.5t173.5 72.5q103 0 174.5 -72.5t71.5 -175.5q0 -102 -72 -174t-174 -72q-101 0 -173.5 72.5t-72.5 173.5z" />
<glyph unicode="&#x2026;" horiz-adv-x="1708" d="M139 8v260q0 6 1.5 7t6.5 1h279q8 0 8 -8v-260q0 -8 -8 -8h-279q-5 0 -6.5 1t-1.5 7zM707 8v260q0 6 1.5 7t6.5 1h278q8 0 8 -8v-260q0 -8 -8 -8h-278q-5 0 -6.5 1t-1.5 7zM1274 8v260q0 6 1.5 7t6.5 1h279q8 0 8 -8v-260q0 -8 -8 -8h-279q-5 0 -6.5 1t-1.5 7z" />
<glyph unicode="&#x202f;" horiz-adv-x="378" />
<glyph unicode="&#x2039;" horiz-adv-x="485" d="M51 487v213q0 7 6 13l369 315h2q6 0 6 -4v-254q0 -6 -6 -12l-192 -152q-2 -2 -2 -4t2 -2l190 -166q8 -8 8 -14v-254q0 -6 -4 -6q-2 0 -4 2l-369 315q-6 3 -6 10z" />
<glyph unicode="&#x203a;" horiz-adv-x="485" d="M51 166v254q0 6 8 14l191 166q3 3 0 6l-193 152q-6 6 -6 12v254q0 4 4 4h4l369 -315q6 -6 6 -13v-213q0 -7 -6 -10l-369 -315l-4 -2q-4 0 -4 6z" />
<glyph unicode="&#x205f;" horiz-adv-x="473" />
<glyph unicode="&#x20ac;" horiz-adv-x="1464" d="M35 440v176q0 9 8 9h107v125h-107q-8 0 -8 8v176q0 8 8 8h113q27 230 174.5 361t402.5 131q263 0 423.5 -144.5t160.5 -382.5q0 -6 -1.5 -7t-6.5 -1h-246q-8 0 -8 8q0 154 -82 239t-240 85q-276 0 -319 -289h284q9 0 9 -8v-176q0 -8 -9 -8h-292v-125h292q9 0 9 -9v-176 q0 -8 -9 -8h-272q36 -125 125.5 -195.5t222.5 -70.5q63 0 113.5 18.5t82.5 47.5t53 68.5t29.5 79t8.5 81.5q0 8 8 8h244q8 0 8 -8q0 -92 -33.5 -179t-98.5 -160.5t-174 -118t-247 -44.5q-258 0 -413 126.5t-193 346.5h-119q-8 0 -8 8z" />
<glyph unicode="&#x2122;" horiz-adv-x="1599" d="M12 1243v143q0 7 6 7h875q8 0 10 -7l189 -444h4l172 444q2 7 10 7h203q6 0 6 -7v-747q0 -6 -6 -6h-162q-6 0 -6 6q0 184 1.5 304t3.5 147l1 28h-4l-209 -481q-2 -4 -6 -4h-19q-4 0 -6 4l-219 481h-4q4 -85 4 -479q0 -6 -6 -6h-162q-6 0 -6 6v592q0 6 -6 6h-234 q-6 0 -6 -6v-592q0 -6 -6 -6h-162q-6 0 -6 6v592q0 6 -6 6h-238q-6 0 -6 6z" />
<glyph unicode="&#x25fc;" horiz-adv-x="972" d="M0 0v973h973v-973h-973z" />
</font>
</defs>
</svg>
