<?xml version="1.0" standalone="no"?>
<!DOCTYPE svg PUBLIC "-//W3C//DTD SVG 1.1//EN" "http://www.w3.org/Graphics/SVG/1.1/DTD/svg11.dtd" >
<svg xmlns="http://www.w3.org/2000/svg" xmlns:xlink="http://www.w3.org/1999/xlink" version="1.1">
<metadata></metadata>
<defs>
<font id="augustbold" horiz-adv-x="1112" >
<font-face units-per-em="2048" ascent="1536" descent="-512" />
<missing-glyph horiz-adv-x="512" />
<glyph unicode="&#xfb01;" d="M0 764v203q0 8 8 8h172q6 0 6 6v123q0 170 79.5 256t221.5 86q25 0 48.5 -3t43.5 -9t33 -10.5t29.5 -11.5t20.5 -9q27 -10 40 -10h289q8 0 8 -9v-272q0 -8 -8 -8h-295q-8 0 -8 8v21q0 41 -32 68.5t-68 27.5q-43 0 -69.5 -32t-26.5 -87v-129q0 -6 6 -6h493q8 0 8 -8v-959 q0 -8 -8 -8h-295q-8 0 -8 8v748h-190q-6 0 -6 -6v-742q0 -8 -9 -8h-288q-9 0 -9 8v742q0 6 -6 6h-172q-8 0 -8 8z" />
<glyph unicode="&#xfb02;" horiz-adv-x="1114" d="M0 764v203q0 8 8 8h172q6 0 6 6v123q0 170 79.5 256t221.5 86q25 0 48.5 -3t43.5 -9t33 -10.5t29.5 -11.5t20.5 -9q27 -10 40 -10h289q8 0 8 -9v-1376q0 -8 -8 -8h-295q-8 0 -8 8v742q0 6 -6 6h-184q-6 0 -6 -6v-742q0 -8 -9 -8h-288q-9 0 -9 8v742q0 6 -6 6h-172 q-8 0 -8 8zM492 981q0 -6 6 -6h184q6 0 6 6v152q0 41 -32 68.5t-68 27.5q-43 0 -69.5 -32t-26.5 -87v-129z" />
<glyph horiz-adv-x="0" />
<glyph horiz-adv-x="682" />
<glyph unicode=" "  horiz-adv-x="512" />
<glyph unicode="&#x09;" horiz-adv-x="512" />
<glyph unicode="&#xa0;" horiz-adv-x="512" />
<glyph unicode="!" horiz-adv-x="573" d="M123 1384q0 9 8 9h311q9 0 9 -9q0 -210 -20.5 -576t-20.5 -415q0 -8 -9 -8h-229q-4 0 -16 177.5t-22.5 423.5t-10.5 398zM129 8v266q0 9 8 9h291q8 0 8 -9v-266q0 -8 -8 -8h-291q-5 0 -6.5 1t-1.5 7z" />
<glyph unicode="&#x22;" horiz-adv-x="894" d="M90 1196v188q0 9 8 9h287q8 0 8 -9v-188l-59 -440q0 -8 -8 -8h-174q-9 0 -9 8zM502 1196v188q0 9 8 9h287q8 0 8 -9v-188l-60 -440q0 -8 -8 -8h-174q-5 0 -6.5 1t-1.5 7z" />
<glyph unicode="#" horiz-adv-x="1345" d="M72 428l8 193q0 8 8 8h242q8 0 8 8l8 131q0 8 -8 8h-240q-8 0 -8 8l6 193q0 8 8 8h246q8 0 8 8l29 391q0 9 8 9h226q8 0 8 -9l-29 -391q0 -8 8 -8h146q8 0 8 8l29 391q0 9 8 9h225q8 0 8 -9l-26 -391q0 -8 8 -8h252q8 0 8 -8l-6 -193q0 -8 -8 -8h-261q-8 0 -8 -8l-8 -131 q0 -8 8 -8h258q8 0 8 -8l-8 -193q0 -8 -8 -8h-264q-8 0 -8 -8l-29 -404q0 -8 -8 -8h-227q-9 0 -9 8l29 404q0 8 -8 8h-146q-8 0 -8 -8l-26 -404q0 -8 -9 -8h-225q-8 0 -8 8l27 404q0 8 -9 8h-233q-8 0 -8 8zM578 637q0 -8 8 -8h147q8 0 8 8l9 131q0 8 -9 8h-147q-8 0 -8 -8z " />
<glyph unicode="$" horiz-adv-x="1232" d="M49 438q0 6 4 8h295q10 0 10 -8q0 -119 68.5 -183.5t198.5 -64.5q110 0 169.5 53.5t59.5 143.5q0 67 -51.5 110.5t-157.5 77.5l-237 76q-166 53 -248 155.5t-82 229.5q0 169 103.5 273t281.5 123q10 0 10 14v151q0 9 8 9h277q8 0 8 -9v-151v-6.5t1 -4t1.5 -2t2.5 -1 t3 -0.5q100 -26 170 -72t107 -107.5t53 -126.5t16 -143q0 -8 -6 -8h-287q-10 0 -10 8q0 108 -54.5 166.5t-166.5 58.5q-99 0 -149 -46t-50 -97q0 -111 135 -156l220 -73q228 -76 321.5 -175t93.5 -274q0 -101 -45.5 -191t-136.5 -152.5t-211 -74.5q-8 0 -8 -10v-160 q0 -8 -8 -8h-277q-8 0 -8 8v162q0 12 -8 12q-129 8 -225.5 76t-143.5 169.5t-47 219.5z" />
<glyph unicode="%" horiz-adv-x="1521" d="M66 1108q0 154 93 246t232 92q140 0 234 -91.5t94 -246.5q0 -154 -94 -245t-234 -91q-139 0 -232 91t-93 245zM129 2q0 1 1 2t1 2q567 751 1006 1380q3 7 8 7h239l5 -2v-5q-377 -490 -1008 -1380q-3 -6 -8 -6h-238q-6 0 -6 2zM272 1108q0 -67 33 -106t86 -39t87 39.5 t34 105.5q0 68 -33.5 107.5t-87.5 39.5q-53 0 -86 -39.5t-33 -107.5zM803 309q0 154 93 246t232 92q140 0 234 -91.5t94 -246.5q0 -154 -94 -245t-234 -91q-139 0 -232 91t-93 245zM1010 309q0 -67 32.5 -106t85.5 -39t87 39.5t34 105.5q0 68 -34 108t-87 40t-85.5 -40 t-32.5 -108z" />
<glyph unicode="&#x26;" horiz-adv-x="1347" d="M72 373q0 130 75 228t234 173q6 2 0 8q-3 4 -24 27.5t-30 34.5t-29.5 36.5t-31 41.5t-26 42t-23.5 46.5t-14 45t-6 46.5q0 153 112.5 248.5t286.5 95.5q200 0 314 -90.5t114 -243.5q0 -65 -16.5 -117t-54.5 -98t-82.5 -83.5t-116.5 -86.5q-3 -1 -3.5 -4t1.5 -4l198 -246 q1 -2 4 -1.5t4 3.5q13 26 24 86.5t11 89.5q0 8 8 8h236q8 0 8 -8q-9 -113 -41.5 -217.5t-75.5 -171.5q-2 -2 -2 -5t2 -5l201 -244l2 -4q0 -4 -6 -4h-305q-6 0 -14 8l-62 76q-4 4 -8 0q-57 -52 -150 -87.5t-206 -35.5q-236 0 -372 115t-136 297zM365 375q0 -81 62 -134 t169 -53q112 0 201 68q4 4 2 8l-264 328q-6 6 -11 4q-76 -32 -117.5 -91t-41.5 -130zM481 1098q0 -10 3 -21t6 -20.5t11.5 -22.5t14 -22t18.5 -25t20 -24.5t23.5 -28.5t24.5 -29q6 -6 10 -2q123 79 123 211q0 115 -139 115q-46 0 -80.5 -37t-34.5 -94z" />
<glyph unicode="'" horiz-adv-x="485" d="M90 1196v188q0 9 8 9h289q8 0 8 -9v-188l-57 -440q0 -8 -8 -8h-174q-9 0 -9 8z" />
<glyph unicode="(" horiz-adv-x="741" d="M106 571q0 140 33 271.5t80.5 225t109.5 176.5t109 128.5t90 77.5q8 6 17 6h180q4 0 5 -3t-1 -5q-47 -50 -85 -96t-90 -130t-86.5 -172t-59.5 -214.5t-25 -264.5q0 -507 346 -870q3 -3 1 -5.5t-5 -2.5h-180q-9 0 -17 6q-42 31 -90 78t-109.5 130t-109 176t-80.5 222.5 t-33 265.5z" />
<glyph unicode=")" horiz-adv-x="741" d="M10.5 -304.5q-1.5 2.5 1.5 5.5q346 363 346 870q0 138 -25 264.5t-59.5 214.5t-86.5 172t-90 130t-85 96q-3 4 -1 6t5 2h181q8 0 16 -6q43 -32 90 -77.5t109 -128.5t109.5 -176.5t80.5 -225t33 -271.5q0 -136 -33 -265.5t-80.5 -222.5t-109 -176t-109.5 -130t-90 -78 q-8 -6 -16 -6h-181q-4 0 -5.5 2.5z" />
<glyph unicode="*" horiz-adv-x="980" d="M68 1014l63 194q5 5 10 4l240 -88q6 -3 6 4l-8 256q0 9 8 9h205q8 0 8 -9l-8 -256q0 -7 6 -4l246 90q8 0 8 -8l63 -194q0 -9 -4 -11l-247 -73q-5 0 -2 -6l155 -201q3 -7 -2 -12l-166 -121q-3 -3 -6.5 -2t-3.5 4l-145 211q-2 3 -5 3t-4 -3l-143 -211q-5 -7 -12 0l-166 121 q-6 4 0 10l158 203q3 6 -3 6l-247 71q-7 2 -4 13z" />
<glyph unicode="+" horiz-adv-x="1132" d="M102 596v215q0 8 9 8h331q9 0 9 8v355q0 8 8 8h215q8 0 8 -8v-355q0 -8 8 -8h332q8 0 8 -8v-215q0 -8 -8 -8h-332q-8 0 -8 -8v-357q0 -8 -8 -8h-215q-8 0 -8 8v357q0 8 -9 8h-331q-9 0 -9 8z" />
<glyph unicode="," horiz-adv-x="559" d="M113 -285q0 9 8 9q84 0 124 62t40 206q0 8 -9 8h-147q-5 0 -6.5 1t-1.5 7v348q0 9 8 9h309q8 0 8 -9v-209q0 -84 -4 -146.5t-15.5 -129t-34 -112t-57.5 -83.5t-89 -56.5t-125 -18.5q-5 0 -6.5 1t-1.5 7v106z" />
<glyph unicode="-" horiz-adv-x="806" d="M113 381v215q0 8 8 8h565q8 0 8 -8v-215q0 -8 -8 -8h-565q-8 0 -8 8z" />
<glyph unicode="." horiz-adv-x="550" d="M113 8v348q0 9 8 9h309q8 0 8 -9v-348q0 -8 -8 -8h-309q-5 0 -6.5 1t-1.5 7z" />
<glyph unicode="/" horiz-adv-x="880" d="M16 6l596 1380q4 7 9 7h239q4 0 4 -7l-598 -1380q-3 -6 -8 -6h-238q-7 0 -4 6z" />
<glyph unicode="0" horiz-adv-x="1425" d="M106 557v305q0 182 80 316t216.5 201t310.5 67q168 0 304 -67t219 -201.5t83 -315.5v-305q0 -280 -166 -438t-442 -158q-175 0 -311 69t-215 205.5t-79 321.5zM416 596q0 -189 79 -294t218 -105q141 0 220 104.5t79 294.5v217q0 217 -77.5 307t-221.5 90 q-146 0 -221.5 -90.5t-75.5 -306.5v-217z" />
<glyph unicode="1" horiz-adv-x="794" d="M133 1028v180q0 9 6 13l471 223q11 6 11 -4v-1432q0 -8 -9 -8h-290q-9 0 -9 8v1088q0 7 -6 4l-164 -76q-10 -5 -10 4z" />
<glyph unicode="2" horiz-adv-x="1208" d="M119 948v39q0 86 29.5 165.5t87.5 146.5t155.5 107t222.5 40q251 0 378.5 -118t127.5 -312q0 -169 -97.5 -283.5t-350.5 -240.5l-89 -44.5t-61.5 -34t-46 -31.5t-25 -29t-16 -35t-2.5 -42v-43q0 -8 8 -8l658 8q8 0 8 -8v-217q0 -8 -8 -8h-967q-8 0 -8 8v223 q0 85 13 140.5t53 107.5t107.5 95.5t182.5 97.5q80 38 135 67.5t93 58.5t59 51t32 51.5t14 53.5t3 64q0 94 -46.5 146.5t-143.5 52.5q-95 0 -146 -60.5t-51 -177.5v-31q0 -8 -8 -8h-293q-8 0 -8 8z" />
<glyph unicode="3" horiz-adv-x="1286" d="M94 403v64q0 8 8 8h289q8 0 8 -8v-29q0 -62 24.5 -116.5t80.5 -93t135 -38.5q113 0 172 60t59 160q0 114 -83.5 173.5t-229.5 59.5h-59q-9 0 -9 8v176q0 9 9 9h71q260 0 260 198q0 90 -51.5 136.5t-150.5 46.5q-106 0 -155.5 -58.5t-49.5 -150.5v-25q0 -8 -8 -8h-289 q-8 0 -8 8v35q0 183 141.5 305.5t368.5 122.5q234 0 373 -102.5t139 -272.5q0 -249 -258 -319q-1 0 -1 -2t1 -2q60 -11 110.5 -33.5t94.5 -61.5t69 -102t25 -145q0 -89 -33.5 -168t-98.5 -141.5t-171 -99t-240 -36.5q-130 0 -234.5 34.5t-171 95t-102 140.5t-35.5 172z" />
<glyph unicode="4" horiz-adv-x="1284" d="M51 324v192q0 8 4 16l582 854q3 7 10 7h377q8 0 8 -9v-831q0 -8 8 -8h177q8 0 8 -8v-213q0 -9 -8 -9h-177q-8 0 -8 -8v-299q0 -8 -8 -8h-285q-8 0 -8 8v299q0 8 -8 8h-664q-8 0 -8 9zM340 548q0 -3 4 -3h379q8 0 8 8v264q0 207 6 336q-1 4 -4 0l-391 -600q-2 -2 -2 -5z " />
<glyph unicode="5" horiz-adv-x="1253" d="M119 401q0 11 6 11h270q11 0 11 -6q0 -85 54.5 -150.5t151.5 -65.5q112 0 171 73.5t59 211.5q0 140 -66.5 210.5t-163.5 70.5q-59 0 -117.5 -31.5t-84.5 -81.5q-3 -6 -11 -6h-233q-8 0 -8 8l80 739q0 9 8 9h815q8 0 8 -9v-219q0 -8 -8 -8h-574q-8 0 -8 -8l-30 -262v-2 q77 100 235 100q224 0 345.5 -136t121.5 -374q0 -120 -40.5 -218t-111.5 -162.5t-168 -99t-210 -34.5q-220 0 -350 114t-152 326z" />
<glyph unicode="6" horiz-adv-x="1288" d="M119 662q0 170 28 304t77.5 223t120 147.5t151 84t176.5 25.5q114 0 207.5 -33t151.5 -86.5t89 -119.5t31 -136q0 -8 -8 -8h-256q-8 0 -8 8q-8 57 -62.5 101.5t-140.5 44.5q-260 0 -260 -404q0 -8 6 -2q48 59 125 98t168 39q102 0 190 -29.5t156 -87.5t106.5 -152 t38.5 -214q0 -105 -38.5 -197.5t-106.5 -160t-168 -107t-217 -39.5q-100 0 -183 23t-153.5 75.5t-118.5 132.5t-75 199t-27 271zM430 457q0 -118 71.5 -192.5t174.5 -74.5q107 0 166 73t59 192q0 264 -225 264q-101 0 -173.5 -71.5t-72.5 -190.5z" />
<glyph unicode="7" horiz-adv-x="1046" d="M31 1163v221q0 9 8 9h975q8 0 8 -9v-176q0 -6 -6 -12q-173 -201 -264 -376.5t-125.5 -359.5t-34.5 -452q0 -8 -8 -8h-293q-8 0 -8 8q2 335 95 612.5t296 538.5q2 4 -2 4l-633 -8q-8 0 -8 8z" />
<glyph unicode="8" horiz-adv-x="1339" d="M102 412q0 143 79 231t198 115q2 2 0 4q-108 36 -166.5 112t-58.5 175q0 178 147 287.5t369 109.5t369 -109.5t147 -287.5q0 -98 -58 -172.5t-167 -114.5q-3 -3 0 -4q119 -27 197.5 -115t78.5 -231q0 -62 -19.5 -123.5t-63.5 -121t-108 -105t-161 -73.5t-215 -28 t-215.5 28t-161.5 73.5t-108 105t-63.5 121t-19.5 123.5zM412 412q0 -93 75 -157.5t183 -64.5t183 64.5t75 157.5q0 100 -72.5 163.5t-185.5 63.5t-185.5 -63.5t-72.5 -163.5zM463 1049q0 -80 59 -134.5t148 -54.5t148 54.5t59 134.5q0 70 -59 119t-148 49t-148 -49 t-59 -119z" />
<glyph unicode="9" horiz-adv-x="1294" d="M82 944q0 232 150.5 367t392.5 135q157 0 266 -48.5t170.5 -144t88 -219t26.5 -291.5q0 -177 -23.5 -310t-67.5 -222.5t-112.5 -145.5t-152 -80t-191.5 -24q-114 0 -208 33t-155 89t-97.5 123.5t-47.5 143.5q0 8 8 8h272q9 0 9 -8q9 -67 59.5 -113.5t159.5 -46.5 q142 0 203 83t61 280v35q0 8 -6 0q-94 -129 -297 -129q-226 0 -367 130t-141 355zM383 944q0 -110 66.5 -183t173.5 -73q111 0 176 75t65 187q0 136 -65 201.5t-176 65.5q-109 0 -174.5 -68t-65.5 -205z" />
<glyph unicode=":" horiz-adv-x="550" d="M113 8v348q0 9 8 9h309q8 0 8 -9v-348q0 -8 -8 -8h-309q-5 0 -6.5 1t-1.5 7zM113 618v349q0 6 1.5 7t6.5 1h309q8 0 8 -8v-349q0 -8 -8 -8h-309q-5 0 -6.5 1t-1.5 7z" />
<glyph unicode=";" horiz-adv-x="561" d="M113 -285q0 9 8 9q84 0 124 62t40 206q0 8 -9 8h-147q-5 0 -6.5 1t-1.5 7v348q0 9 8 9h309q8 0 8 -9v-209q0 -84 -4 -146.5t-15.5 -129t-34 -112t-57.5 -83.5t-89 -56.5t-125 -18.5q-5 0 -6.5 1t-1.5 7v106zM123 618v349q0 6 1.5 7t6.5 1h309q9 0 9 -8v-349q0 -8 -9 -8 h-309q-5 0 -6.5 1t-1.5 7z" />
<glyph unicode="&#x3c;" horiz-adv-x="1165" d="M92 606v193q0 9 8 12l992 401q8 3 8 -6v-258q0 -7 -8 -10l-633 -229q-6 -3 -5.5 -7t5.5 -6l633 -229q8 -3 8 -10v-258q0 -9 -8 -6l-992 401q-8 3 -8 12z" />
<glyph unicode="=" horiz-adv-x="1058" d="M113 377v215q0 8 8 8h817q8 0 8 -8v-215q0 -8 -8 -8h-817q-8 0 -8 8zM113 795v215q0 8 8 8h817q8 0 8 -8v-215q0 -9 -8 -9h-817q-8 0 -8 9z" />
<glyph unicode="&#x3e;" horiz-adv-x="1165" d="M66 199v258q0 7 8 10l633 227q5 2 5.5 8t-5.5 9l-633 227q-8 3 -8 10v258q0 6 8 6l991 -401q8 -3 8 -12v-193q0 -9 -8 -12l-991 -401q-8 0 -8 6z" />
<glyph unicode="?" horiz-adv-x="993" d="M31 952v78q0 81 28 154t82.5 132t145 93.5t205.5 34.5q201 0 332.5 -106.5t131.5 -278.5q0 -227 -208 -375q-22 -16 -54 -36.5t-45.5 -30.5t-31.5 -26t-25 -30t-12 -36.5t-5 -51.5v-63q0 -11 -10 -11h-278q-11 0 -11 11v65q0 63 9 103.5t36.5 76.5t60.5 62t99 69 q104 68 135 121.5t31 147.5q0 69 -39 113t-119 44q-79 0 -123 -49t-44 -145v-66q0 -10 -11 -10h-270q-10 0 -10 10zM274 8v266q0 9 9 9h290q9 0 9 -9v-266q0 -8 -9 -8h-290q-9 0 -9 8z" />
<glyph unicode="@" horiz-adv-x="1685" d="M113 485q0 161 58 300.5t157 236.5t235 152t289 55q134 0 250 -36t202.5 -101t148 -152.5t93 -193.5t31.5 -222q0 -113 -38 -213.5t-111 -165.5t-164 -65q-81 0 -128.5 38t-62.5 87q-2 4 -5 3.5t-5 -3.5q-49 -63 -131.5 -103.5t-190.5 -40.5q-129 0 -210.5 77.5 t-81.5 176.5q0 117 80.5 184.5t197.5 75.5l266 21q11 0 11 8v39q0 57 -38.5 93t-99.5 36q-52 0 -86 -33.5t-49 -83.5q-2 -6 -8 -6h-234q-10 0 -10 8q25 124 123 206.5t252 82.5q96 0 171 -31.5t120 -85.5t68.5 -121.5t23.5 -144.5v-274q0 -14 10 -24.5t21 -10.5 q43 0 72.5 74.5t29.5 187.5q0 229 -142.5 376.5t-379.5 147.5q-235 0 -386 -154.5t-151 -400.5q0 -247 153 -400t398 -153q92 0 160 21.5t154 73.5q7 7 12 -2l92 -134q6 -6 -2 -12q-192 -135 -412 -135q-168 0 -309 54.5t-238.5 152t-151.5 235t-54 299.5zM702 336 q0 -42 25.5 -66t77.5 -24q82 0 140.5 49t58.5 121v26q0 7 -7 7q-119 -9 -200 -23q-39 -7 -67 -29.5t-28 -60.5z" />
<glyph unicode="A" horiz-adv-x="1398" d="M6 6l496 1380q4 7 8 7h371q5 0 8 -7l506 -1380q0 -6 -4 -6h-306q-6 0 -8 6l-119 328q-3 6 -8 6h-514q-5 0 -8 -6l-113 -328q-2 -6 -8 -6h-297q-7 0 -4 6zM508 575q-3 -6 4 -6h369q7 0 4 6l-187 588q0 1 -2 1t-2 -1z" />
<glyph unicode="B" horiz-adv-x="1368" d="M154 6v1380q0 7 6 7h573q237 0 371.5 -94.5t134.5 -274.5q0 -110 -66.5 -181.5t-158.5 -94.5q-3 -1 -3.5 -3t0.5 -4t3 -2q121 -28 198.5 -106t77.5 -213q0 -92 -28.5 -164t-78 -119.5t-120 -78.5t-150.5 -44.5t-174 -13.5h-579q-6 0 -6 6zM463 236q0 -7 6 -7h283 q103 0 163 46.5t60 142.5t-61 145t-162 49h-283q-6 0 -6 -6v-370zM463 848q0 -6 6 -6h248q95 0 152 40t57 128q0 153 -197 153h-260q-6 0 -6 -6v-309z" />
<glyph unicode="C" horiz-adv-x="1476" d="M113 625v168q0 296 170 474.5t475 178.5q152 0 269.5 -41.5t190.5 -116t113 -170t47 -209.5q0 -8 -6 -8h-307q-8 0 -8 6q0 150 -80.5 230t-216.5 80q-170 0 -253 -104.5t-83 -348.5v-123q0 -214 82 -331t254 -117q143 0 220 71.5t77 214.5q0 6 10 6h305q4 0 4 -8 q-4 -78 -26.5 -149.5t-70.5 -139t-117 -117.5t-174 -80t-234 -30q-163 0 -287 49t-200.5 139t-115 209.5t-38.5 266.5z" />
<glyph unicode="D" horiz-adv-x="1441" d="M154 8v1376q0 9 8 9h452q164 0 292 -32.5t224.5 -100.5t147.5 -181t51 -266v-248q0 -150 -51 -260.5t-146.5 -176.5t-223.5 -97t-292 -31h-454q-8 0 -8 8zM463 238q0 -9 8 -9h156q58 0 100.5 3.5t86 14t73.5 29t57 48.5t43.5 72.5t25.5 101.5t9 135v139 q0 113 -25.5 189.5t-78.5 120.5t-124 62.5t-173 18.5h-150q-8 0 -8 -8v-917z" />
<glyph unicode="E" horiz-adv-x="1249" d="M154 8v1376q0 9 8 9h1003q9 0 9 -9v-215q0 -8 -9 -8h-694q-8 0 -8 -8v-307q0 -8 8 -8h625q8 0 8 -9v-206q0 -9 -8 -9h-625q-8 0 -8 -8v-366q0 -9 8 -9h707q8 0 8 -8v-215q0 -8 -8 -8h-1016q-8 0 -8 8z" />
<glyph unicode="F" horiz-adv-x="1193" d="M154 8v1376q0 9 8 9h975q8 0 8 -9v-213q0 -8 -8 -8h-666q-8 0 -8 -8v-313q0 -8 8 -8h569q9 0 9 -9v-204q0 -9 -9 -9h-569q-8 0 -8 -8v-596q0 -8 -8 -8h-293q-8 0 -8 8z" />
<glyph unicode="G" horiz-adv-x="1486" d="M113 618v220q0 138 51 253.5t139 192.5t206 119.5t251 42.5q255 0 418 -132t184 -329q0 -10 -6 -10h-299q-8 0 -8 6q0 99 -80 167.5t-209 68.5q-156 0 -247 -104.5t-91 -307.5v-146q0 -208 94.5 -338.5t253.5 -130.5q154 0 231.5 69t77.5 216v55q0 9 -8 9h-319q-9 0 -9 8 v205q0 8 9 8h622q8 0 8 -8v-183q0 -299 -166 -453.5t-446 -154.5q-141 0 -260 42.5t-208 123t-139 206.5t-50 285z" />
<glyph unicode="H" horiz-adv-x="1449" d="M147 8v1376q0 9 9 9h293q8 0 8 -9v-542q0 -8 8 -8h518q8 0 8 8v542q0 9 8 9h295q9 0 9 -9v-1376q0 -8 -9 -8h-295q-8 0 -8 8v588q0 8 -8 8h-518q-8 0 -8 -8v-588q0 -8 -8 -8h-293q-9 0 -9 8z" />
<glyph unicode="I" horiz-adv-x="606" d="M147 8v1376q0 9 9 9h295q8 0 8 -9v-1376q0 -8 -8 -8h-295q-9 0 -9 8z" />
<glyph unicode="J" horiz-adv-x="1089" d="M27 455q0 8 6 8h297q6 0 6 -8q0 -254 156 -254q64 0 104.5 41.5t40.5 136.5v1005q0 9 8 9h293q8 0 8 -9v-931q0 -250 -126 -371t-345 -121q-99 0 -177 27.5t-128 74t-83 111t-46.5 134t-13.5 147.5z" />
<glyph unicode="K" horiz-adv-x="1351" d="M147 8v1376q0 9 9 9h293q8 0 8 -9v-608q0 -5 4 -3.5t4 3.5l520 610q5 7 12 7h346q5 0 6.5 -3t-1.5 -6l-510 -565q-7 -7 0 -14l473 -797q4 -8 -4 -8h-324q-8 0 -12 6l-330 596q-3 3 -6 0l-174 -201q-4 -4 -4 -12v-381q0 -8 -8 -8h-293q-9 0 -9 8z" />
<glyph unicode="L" horiz-adv-x="1126" d="M147 8v1376q0 9 9 9h293q8 0 8 -9v-1146q0 -9 8 -9h643q8 0 8 -8v-213q0 -8 -8 -8h-952q-9 0 -9 8z" />
<glyph unicode="M" horiz-adv-x="1777" d="M147 8v1376q0 9 9 9h391q10 0 12 -9l326 -905q3 -5 8 0l326 905q2 9 12 9h391q8 0 8 -9v-1376q0 -8 -8 -8h-293q-8 0 -8 8v221q0 235 13.5 443.5t26.5 299.5l13 91q0 3 -2 3t-2 -3l-385 -1055q-3 -8 -8 -8h-176q-5 0 -8 8l-385 1055q0 3 -2.5 3t-2.5 -3q6 -34 15 -99.5 t24 -282.5t15 -452v-221q0 -8 -8 -8h-293q-9 0 -9 8z" />
<glyph unicode="N" horiz-adv-x="1480" d="M147 8v1376q0 9 9 9h305q6 0 12 -9l590 -948q4 -7 5 -3q0 1 -1 3q-7 22 -15.5 58t-18 111.5t-9.5 154.5v624q0 9 8 9h293q8 0 8 -9v-1376q0 -8 -8 -8h-301q-7 0 -12 8l-594 1010q-4 7 -4 3q-1 -1 0 -3q7 -22 15.5 -58t18 -111.5t9.5 -154.5v-688q0 -6 -6 -6h-295 q-9 0 -9 8z" />
<glyph unicode="O" horiz-adv-x="1554" d="M106 602v215q0 192 87.5 336t239 218.5t345.5 74.5q140 0 261.5 -41.5t212.5 -119t143.5 -198t52.5 -270.5v-217q0 -189 -87.5 -335.5t-239.5 -225t-343 -78.5q-196 0 -348.5 78.5t-238 224.5t-85.5 338zM436 641q0 -204 91.5 -327.5t250.5 -123.5q153 0 246.5 123.5 t93.5 329.5v129q0 210 -95 327.5t-245 117.5q-163 0 -252.5 -115.5t-89.5 -331.5v-129z" />
<glyph unicode="P" horiz-adv-x="1325" d="M147 8v1376q0 9 9 9h563q549 0 549 -453q0 -222 -139.5 -341.5t-426.5 -119.5h-235q-8 0 -8 -8v-463q0 -8 -8 -8h-295q-9 0 -9 8zM459 717q0 -8 8 -8h240q62 0 104 9.5t76.5 33.5t51.5 70.5t17 117.5q0 67 -17 112t-51.5 69t-77 33t-103.5 9h-240q-8 0 -8 -8v-438z" />
<glyph unicode="Q" horiz-adv-x="1558" d="M111 602v215q0 192 87 336t238.5 218.5t345.5 74.5q132 0 253 -44t214 -123.5t148 -200t55 -263.5v-215q0 -246 -160 -424q-6 -6 0 -12l174 -191q2 -2 2.5 -5t-0.5 -5t-4 -2h-276q-11 0 -19 8l-57 66q-5 5 -10 2q-152 -76 -320 -76q-196 0 -348.5 78.5t-237.5 224.5 t-85 338zM440 641q0 -204 91.5 -329.5t250.5 -125.5q77 0 140 35q3 1 3.5 4t-1.5 4l-275 287q-3 3 -1.5 6.5t5.5 3.5h287q10 0 14 -4l117 -125q4 -4 8 0q43 79 43 246v129q0 210 -95 327.5t-245 117.5q-163 0 -252.5 -115.5t-89.5 -331.5v-129z" />
<glyph unicode="R" horiz-adv-x="1359" d="M147 8v1376q0 9 9 9h508q585 0 585 -394q0 -73 -25.5 -131t-70.5 -96t-98 -62.5t-117 -37.5q-6 0 -6 -4t6 -4q136 0 225.5 -84t89.5 -224v-163q0 -129 70 -185q3 -2 2 -5t-4 -3h-336q-4 0 -6 4q-1 1 -5.5 9.5t-7 14t-7 18t-7 24.5t-4.5 31t-2 40v144q0 129 -70 196.5 t-200 67.5h-207q-8 0 -8 -8v-533q0 -8 -8 -8h-297q-9 0 -9 8zM461 786q0 -8 8 -8h215q123 0 185.5 54.5t62.5 154.5q0 83 -65.5 129.5t-170.5 46.5h-227q-8 0 -8 -8v-369z" />
<glyph unicode="S" horiz-adv-x="1251" d="M57 467q0 6 4 8h316q10 0 10 -8q0 -108 73.5 -190t196.5 -82q103 0 161.5 47.5t58.5 132.5q0 66 -49 111t-152 87q-34 14 -75 28t-97 32.5t-84 28.5q-330 114 -330 382q0 179 145 290.5t381 111.5q117 0 210 -26.5t153.5 -70.5t100.5 -105t56.5 -125.5t16.5 -135.5 q0 -8 -6 -8h-297q-10 0 -10 8q0 103 -58.5 167t-171.5 64q-88 0 -144 -43.5t-56 -111.5q0 -106 151 -160l262 -92q208 -72 287.5 -162.5t79.5 -255.5q0 -181 -155.5 -304.5t-387.5 -123.5q-128 0 -235 32.5t-186.5 94.5t-124 159t-44.5 220z" />
<glyph unicode="T" horiz-adv-x="1153" d="M10 1171v213q0 9 8 9h1117q8 0 8 -9v-213q0 -8 -8 -8l-396 2q-8 0 -8 -8v-1149q0 -8 -8 -8h-293q-8 0 -8 8v1149q0 8 -8 8l-396 -2q-8 0 -8 8z" />
<glyph unicode="U" horiz-adv-x="1478" d="M143 561v823q0 9 9 9h292q9 0 9 -9v-854q0 -97 21.5 -165.5t62 -105.5t89 -53t111.5 -16q64 0 113.5 16t90 53t62 105.5t21.5 165.5v854q0 9 8 9h295q8 0 8 -9v-823q0 -312 -150 -456t-450 -144q-304 0 -448 142.5t-144 457.5z" />
<glyph unicode="V" horiz-adv-x="1380" d="M2 1384q-3 9 8 9h324q7 0 10 -9l340 -1065q2 -6 4 -6t4 6l342 1065q3 9 10 9h326q11 0 8 -9l-520 -1372q-4 -12 -14 -12h-312q-10 0 -14 12z" />
<glyph unicode="W" horiz-adv-x="1884" d="M6 1384q-3 9 8 9h310q7 0 10 -9l229 -1036q1 -3 2.5 -4.5t3 -0.5t2.5 5l242 1036q3 9 10 9h240q7 0 10 -9l244 -1036q1 -3 2.5 -4.5t3 -0.5t2.5 5l227 1036q3 9 11 9h307q11 0 8 -9l-379 -1376q-3 -8 -10 -8h-315q-8 0 -11 8l-215 879q-1 3 -2.5 4.5t-3 0.5t-2.5 -5 l-213 -879q-3 -8 -10 -8h-316q-7 0 -10 8z" />
<glyph unicode="X" horiz-adv-x="1386" d="M4 8l504 715q3 3 0 10l-461 651q-3 3 -1.5 6t5.5 3h344q7 0 13 -9l282 -419q4 -8 8 0l281 419q6 9 12 9h342q3 0 5 -3t-1 -6l-458 -653q-3 -7 0 -10l503 -713q1 -1 1.5 -3t-0.5 -3.5t-5 -1.5h-350q-7 0 -12 8l-318 475q-4 4 -8 0l-321 -475q-5 -8 -13 -8h-348q-9 0 -4 8z " />
<glyph unicode="Y" horiz-adv-x="1335" d="M2 1384q-4 9 4 9h326q6 0 12 -9l320 -573q3 -7 8 0l321 573q6 9 13 9h323q3 0 4.5 -3t-0.5 -6l-506 -815q-4 -8 -4 -12v-549q0 -8 -8 -8h-295q-8 0 -8 8v551q0 2 -4 10z" />
<glyph unicode="Z" horiz-adv-x="1163" d="M47 8v211q0 13 4 17l713 921q6 6 -2 6h-680q-8 0 -8 8v213q0 9 8 9h1005q9 0 9 -9v-243q0 -9 -9 -21l-694 -884q-7 -7 2 -7h723q8 0 8 -8v-213q0 -8 -8 -8h-1063q-8 0 -8 8z" />
<glyph unicode="[" horiz-adv-x="587" d="M102 -297v1745q0 8 9 8h417q9 0 9 -8v-107q0 -10 -9 -10l-166 4q-8 0 -8 -8v-1505q0 -8 8 -8l166 4q9 0 9 -8v-107q0 -10 -9 -10h-417q-9 0 -9 10z" />
<glyph unicode="\" horiz-adv-x="921" d="M-29.5 1390.5q1.5 2.5 4.5 2.5h240q5 0 8 -7l727 -1378q2 -2 1 -5t-5 -3h-237q-6 0 -9 6l-729 1380q-2 2 -0.5 4.5z" />
<glyph unicode="]" horiz-adv-x="587" d="M51 -190q0 8 8 8l166 -4q8 0 8 8v1505q0 8 -8 8l-166 -4q-8 0 -8 10v107q0 8 8 8h418q8 0 8 -8v-1745q0 -10 -8 -10h-418q-8 0 -8 10v107z" />
<glyph unicode="^" horiz-adv-x="1294" d="M156 647l391 737q6 9 12 9h195q6 0 12 -9l375 -737q3 -8 -6 -8h-279q-7 0 -10 8l-191 404q-1 3 -2.5 4t-3 0t-2.5 -4l-196 -404q-3 -8 -11 -8h-278q-10 0 -6 8z" />
<glyph unicode="_" horiz-adv-x="1060" d="M-8 -119q0 8 8 8h1061q8 0 8 -8v-215q0 -8 -8 -8h-1061q-8 0 -8 8v215z" />
<glyph unicode="`" horiz-adv-x="1024" d="M289 1382q-5 11 4 11h282q9 0 13 -11l82 -301q2 -10 -6 -10h-172q-10 0 -15 8z" />
<glyph unicode="a" horiz-adv-x="1095" d="M61 264q0 257 359 322q57 10 117.5 17.5t108 12t52.5 5.5q7 0 7 10v33q0 141 -156 141q-76 0 -114.5 -36.5t-47.5 -92.5q0 -8 -8 -8h-270q-9 0 -9 4v4q63 342 453 342q241 0 348 -101.5t107 -302.5v-329q0 -39 1 -71.5t4.5 -59t5.5 -42t8.5 -35.5t7.5 -25t9.5 -24 t8.5 -20q3 -8 -6 -8h-263q-10 0 -14 4q-33 38 -59 111q-2 4 -4.5 3.5t-4.5 -3.5q-54 -83 -128 -118.5t-181 -35.5q-152 0 -242 84t-90 219zM348 276q0 -47 31.5 -73.5t93.5 -26.5q101 0 166.5 66t65.5 166v30q0 4 -7 4q-101 -8 -227 -36q-123 -28 -123 -130z" />
<glyph unicode="b" horiz-adv-x="1179" d="M109 8v1376q0 9 8 9h289q8 0 8 -9v-522q0 -4 1.5 -5t3.5 0.5t3 4.5q24 60 99 108t171 48q100 0 180.5 -37t131 -99.5t77.5 -143.5t27 -171v-168q0 -192 -103.5 -315t-279.5 -123q-108 0 -189 55t-116 113q-4 8 -8 0l-60 -121q-4 -8 -10 -8h-225q-8 0 -8 8zM414 487 q0 -141 59 -221t154 -80q172 0 172 203v170q0 217 -191 217q-93 0 -143.5 -73t-50.5 -175v-41z" />
<glyph unicode="c" horiz-adv-x="1122" d="M72 420v135q0 221 137 342t364 121q233 0 362.5 -106.5t129.5 -286.5q0 -11 -8 -11h-279q-8 0 -8 9q0 87 -46.5 128.5t-145.5 41.5q-94 0 -145.5 -56t-51.5 -198v-101q0 -128 54 -193t143 -65q85 0 137.5 41.5t52.5 132.5q0 11 8 11h279q8 0 8 -11q0 -183 -132.5 -288 t-357.5 -105q-137 0 -249.5 53.5t-182 159.5t-69.5 246z" />
<glyph unicode="d" horiz-adv-x="1179" d="M72 399v168q0 90 27.5 171t79 143.5t132.5 99.5t181 37q94 0 164.5 -46t103.5 -110q2 -3 4 -3t2 3v522q0 9 8 9h289q8 0 8 -9v-1376q0 -8 -8 -8h-227q-7 0 -11 8l-59 123q-4 8 -8 0q-14 -24 -39.5 -50.5t-63 -54.5t-91 -46.5t-111.5 -18.5q-174 0 -277.5 123.5 t-103.5 314.5zM381 401q0 -104 44.5 -159.5t129.5 -55.5q100 0 155.5 71.5t55.5 191.5v88q0 100 -54 168.5t-153 68.5q-87 0 -132.5 -59t-45.5 -158v-156z" />
<glyph unicode="e" horiz-adv-x="1163" d="M72 459v67q0 228 136.5 360t379.5 132q256 0 383 -141.5t127 -393.5q0 -55 -8 -67q-3 -6 -7 -6h-704q-6 0 -6 -7q0 -100 60 -157.5t181 -57.5q83 0 129 32t62 79q2 6 10 6h258q8 0 6 -6q-50 -159 -163.5 -248.5t-315.5 -89.5q-246 0 -387 129.5t-141 368.5zM373 612 q0 -6 6 -6h409q7 0 7 6q-6 185 -207 185q-104 0 -159.5 -48.5t-55.5 -136.5z" />
<glyph unicode="f" horiz-adv-x="704" d="M0 764v203q0 8 8 8h172q6 0 6 6v123q0 170 79.5 255t221.5 85q76 0 134 -22.5t79 -43.5q5 -5 5 -10v-207q0 -2 -3 -3.5t-6 1.5q-70 70 -139 70q-65 0 -65 -101v-147q0 -6 6 -6h198q9 0 9 -8v-203q0 -8 -9 -8h-198q-6 0 -6 -6v-742q0 -8 -9 -8h-288q-9 0 -9 8v742 q0 6 -6 6h-172q-8 0 -8 8z" />
<glyph unicode="g" horiz-adv-x="1079" d="M43 -236q0 80 42 147.5t126 102.5q7 4 2 9q-63 60 -63 137q0 44 25 86.5t71 72.5q4 0 2 5q0 1 -2 2q-71 44 -111.5 114t-40.5 154v88q0 148 117.5 242t316.5 94q153 0 269 -53q3 -3 8 0q100 53 205 53h47q8 0 8 -8v-181q0 -8 -8 -8h-33q-17 0 -44.5 -4t-35.5 -10 q-4 -4 0 -8q13 -19 23 -52t10 -65v-88q0 -100 -63 -178.5t-162.5 -119t-214.5 -40.5h-58q-29 0 -47 -15.5t-18 -45.5q0 -19 15.5 -35.5t49.5 -16.5h236q92 0 167 -30.5t123 -97t48 -160.5q0 -70 -32.5 -138.5t-95.5 -127.5t-170 -95.5t-241 -36.5q-222 0 -346.5 86 t-124.5 221zM324 -182q0 -59 51.5 -101.5t148.5 -42.5q123 0 187.5 47t64.5 113q0 49 -29.5 70.5t-91.5 21.5h-188q-38 0 -80 11q-34 -13 -48.5 -49.5t-14.5 -69.5zM375 614q0 -64 46.5 -106.5t115.5 -42.5q71 0 116 42t45 107v48q0 66 -44 104.5t-117 38.5 q-71 0 -116.5 -38.5t-45.5 -104.5v-48z" />
<glyph unicode="h" horiz-adv-x="1173" d="M109 8v1376q0 9 8 9h291q8 0 8 -9v-303q0 -221 -10 -284q-2 -5 1 -6t5 4q30 89 118 156t199 67q181 0 261.5 -101.5t80.5 -308.5v-600q0 -8 -8 -8h-291q-8 0 -8 8v592q0 95 -36 134.5t-120 39.5q-88 0 -140 -69t-52 -173v-524q0 -8 -8 -8h-291q-8 0 -8 8z" />
<glyph unicode="i" horiz-adv-x="536" d="M113 8v959q0 8 8 8h295q8 0 8 -8v-959q0 -8 -8 -8h-295q-8 0 -8 8zM113 1112v272q0 9 8 9h295q8 0 8 -9v-272q0 -8 -8 -8h-295q-8 0 -8 8z" />
<glyph unicode="j" horiz-adv-x="577" d="M-37 -250q0 12 12 6q46 -32 99 -32q80 0 80 98v1145q0 8 8 8h295q8 0 8 -8v-1153q0 -147 -84.5 -230.5t-224.5 -83.5q-71 0 -119 18.5t-70 37.5l-4 10v184zM154 1112v272q0 9 8 9h295q8 0 8 -9v-272q0 -8 -8 -8h-295q-8 0 -8 8z" />
<glyph unicode="k" horiz-adv-x="1124" d="M109 8v1376q0 9 8 9h289q8 0 8 -9v-782q0 -10 8 -2l315 367q8 8 15 8h346q3 0 5 -1.5t-1 -6.5l-344 -344q-6 -7 -2 -11l356 -602v-9q-2 -1 -6 -1h-326q-5 0 -10 8l-223 406q-3 5 -8 0l-121 -129q-4 -4 -4 -9v-268q0 -8 -8 -8h-291q-6 0 -6 8z" />
<glyph unicode="l" horiz-adv-x="526" d="M109 8v1376q0 9 8 9h293q8 0 8 -9v-1376q0 -8 -8 -8h-293q-8 0 -8 8z" />
<glyph unicode="m" horiz-adv-x="1658" d="M106 8v959q0 8 9 8h221q9 0 12 -8l60 -144q2 -3 3 -4t2 0t3 4q42 83 111.5 139t160.5 56q53 0 97 -19t71.5 -50t44.5 -64t25 -68q2 -7 5 -2l1 2q112 201 307 201q164 0 240.5 -89.5t76.5 -266.5v-654q0 -8 -8 -8h-295q-8 0 -8 8v635q0 69 -34.5 103t-88.5 34 q-77 0 -115 -58t-38 -122v-592q0 -8 -8 -8h-259q-8 0 -8 8v635q0 137 -119 137q-66 0 -111.5 -55t-45.5 -123v-594q0 -8 -8 -8h-295q-9 0 -9 8z" />
<glyph unicode="n" horiz-adv-x="1165" d="M106 8v959q0 8 9 8h221q9 0 12 -8l60 -144q3 -8 8 0q50 79 134.5 137t190.5 58q160 0 241 -105t81 -268v-637q0 -8 -8 -8h-293q-8 0 -8 8l2 619q0 67 -40.5 105t-111.5 38q-79 0 -133.5 -59t-54.5 -131v-572q0 -8 -8 -8h-293q-9 0 -9 8z" />
<glyph unicode="o" horiz-adv-x="1196" d="M72 403v164q0 194 143.5 322.5t382.5 128.5q233 0 379.5 -130.5t146.5 -320.5v-164q0 -85 -37 -164.5t-103 -141.5t-166.5 -99t-219.5 -37t-220 37t-167 98.5t-102.5 141t-36.5 165.5zM369 438q0 -119 60.5 -185.5t168.5 -66.5q111 0 169 66.5t58 185.5v94q0 124 -60 189 t-167 65q-109 0 -169 -65t-60 -189v-94z" />
<glyph unicode="p" horiz-adv-x="1177" d="M104 -403v1372q0 6 7 6h217q9 0 12 -8l59 -144q3 -9 9 0q45 83 122.5 139t167.5 56q88 0 160.5 -25.5t129 -78t87.5 -141t31 -206.5v-149q0 -117 -28 -207t-76.5 -143.5t-109 -80t-130.5 -26.5q-69 0 -129 16.5t-103 44.5t-71.5 56.5t-50.5 60.5q-3 5 -5.5 5t-1.5 -7 q11 -87 11 -284v-256q0 -7 -6 -7h-295q-7 0 -7 7zM412 444q0 -113 58 -183.5t151 -70.5q92 0 136 49.5t44 172.5v151q0 223 -189 223q-89 0 -144.5 -70.5t-55.5 -191.5v-80z" />
<glyph unicode="q" horiz-adv-x="1177" d="M72 395v180q0 214 106.5 328.5t276.5 114.5q95 0 177 -56.5t126 -138.5q5 -8 8 0l59 144q3 8 13 8h229q6 0 6 -6v-1372q0 -7 -6 -7h-295q-6 0 -6 7v256q0 205 10 284q1 7 -1 7t-5 -5q-22 -32 -50.5 -60.5t-71.5 -56.5t-103 -44.5t-129 -16.5q-156 0 -250 107.5t-94 326.5 zM379 395q0 -112 43.5 -158.5t134.5 -46.5q76 0 142.5 61.5t66.5 166.5v114q0 117 -60 185.5t-149 68.5q-88 0 -133 -46.5t-45 -164.5v-180z" />
<glyph unicode="r" horiz-adv-x="776" d="M106 8v959q0 8 9 8h196q10 0 13 -6l92 -191q3 -9 6 0q38 103 98 171.5t144 68.5q32 0 55.5 -8t30 -13.5t18.5 -17.5q4 -4 4 -8v-309q0 -15 -8 -7q-70 66 -139 66q-209 0 -209 -344v-369q0 -8 -8 -8h-293q-9 0 -9 8z" />
<glyph unicode="s" horiz-adv-x="1024" d="M43 319q0 9 8 9h299q8 0 8 -9q7 -141 179 -141q70 0 109.5 25.5t39.5 72.5q0 65 -102 91q-195 49 -262 74q-195 74 -235 201q-11 36 -11 77q0 132 113 215.5t323 83.5q202 0 319 -87t117 -239q0 -8 -8 -8h-266q-8 0 -8 8q0 55 -40 84t-114 29q-133 0 -133 -82 q0 -60 88 -84q258 -70 320 -93q117 -44 155 -107q33 -53 33 -150q0 -147 -125 -237.5t-320 -90.5q-211 0 -349 101.5t-138 256.5z" />
<glyph unicode="t" horiz-adv-x="720" d="M10 764v203q0 8 8 8h146q6 0 6 6v262q0 8 8 12l277 136q12 3 12 -7v-403q0 -6 6 -6h217q8 0 8 -8v-203q0 -8 -8 -8h-217q-6 0 -6 -6v-469q0 -43 20 -68t58 -25q77 0 129 56q4 4 7 2t3 -6v-189q0 -8 -6 -14q-106 -76 -227 -76q-138 0 -209.5 81.5t-71.5 227.5v480 q0 6 -6 6h-146q-8 0 -8 8z" />
<glyph unicode="u" horiz-adv-x="1159" d="M102 328v639q0 8 9 8h292q9 0 9 -8v-631q0 -143 127 -143q57 0 103 38.5t69.5 95t23.5 115.5v525q0 8 8 8h295q9 0 9 -8v-959q0 -8 -9 -8h-227q-6 0 -10 8l-60 123q-4 8 -8 0q-20 -33 -58 -69t-108 -68.5t-145 -32.5q-66 0 -119.5 17t-100.5 56t-73.5 114t-26.5 180z" />
<glyph unicode="v" horiz-adv-x="1062" d="M2 967v3q-1 4 0 4.5t6 0.5h307q5 0 7 -4l206 -688q2 -6 6 -6t5 6l204 688l5 4h309q6 0 6 -8l-365 -959q-3 -8 -10 -8h-313q-7 0 -10 8z" />
<glyph unicode="w" horiz-adv-x="1550" d="M8 969q-3 6 4 6h305q7 0 9 -6l133 -647q0 -3 1.5 -4t3.5 0t3 4l180 647q2 6 8 6h242q6 0 8 -6l191 -645q0 -3 2 -4t4 0t2 4l121 645q2 6 8 6h305q7 0 4 -6l-295 -965q0 -4 -4 -4h-297q-4 0 -4 4l-168 606q0 3 -2 4t-4 0t-2 -4l-154 -606q0 -4 -4 -4h-301q-4 0 -4 4z" />
<glyph unicode="x" horiz-adv-x="1101" d="M3.5 2q-2.5 2 0.5 6l371 492q4 4 0 8l-330 459q-3 3 -1 5.5t7 2.5h324q12 0 18 -10l156 -250q4 -8 8 0l154 250q5 10 18 10h326q8 0 4 -8l-328 -461q-4 -4 0 -8l369 -490v-4q1 -3 0 -3.5t-6 -0.5h-334q-10 0 -15 8l-188 285q-4 8 -8 0l-191 -285q-5 -8 -14 -8h-334 q-4 0 -6.5 2z" />
<glyph unicode="y" horiz-adv-x="1032" d="M2 967q-3 8 6 8h307q14 0 17 -8l190 -596q2 -7 6 0l195 596q3 8 16 8h297q6 0 6 -8q-104 -264 -272.5 -669t-204.5 -495q-37 -94 -77 -155.5t-84 -93.5t-86.5 -44t-98.5 -12q-51 0 -94.5 15t-58.5 34q-9 13 -9 19v215q0 4 4.5 5t6.5 -1q45 -57 118 -57q24 0 39.5 4t37 25 t36.5 61l74 198v11z" />
<glyph unicode="z" horiz-adv-x="915" d="M51 4v229q0 5 4 9l443 497q3 6 -2 6h-435q-8 0 -8 9v213q0 8 8 8h785q4 0 4 -4v-219q0 -5 -4 -9l-463 -507q-7 -7 2 -7h498q8 0 8 -8v-213q0 -8 -8 -8h-828q-4 0 -4 4z" />
<glyph unicode="{" horiz-adv-x="587" d="M10 559v29q0 5 8 8q82 28 111 54.5t29 86.5v469q0 110 77 180t203 70h90q9 0 9 -8v-70q0 -8 -9 -8h-36q-38 0 -54 -17.5t-16 -58.5v-563q0 -108 -113 -153q-11 -5 0 -9q113 -42 113 -153v-561q0 -41 16 -58.5t54 -17.5h36q9 0 9 -8v-70q0 -8 -9 -8h-90q-126 0 -203 70 t-77 180v467q0 60 -29 86.5t-111 54.5q-8 3 -8 8z" />
<glyph unicode="|" horiz-adv-x="532" d="M143 -315v1699q0 9 9 9h229q8 0 8 -9v-1699q0 -9 -8 -9h-229q-9 0 -9 9z" />
<glyph unicode="}" horiz-adv-x="587" d="M51 -229q0 8 8 8h37q38 0 54 17.5t16 58.5v561q0 111 113 153q11 5 0 9q-113 45 -113 153v563q0 41 -16 58.5t-54 17.5h-37q-8 0 -8 8v70q0 8 8 8h91q126 0 203 -70t77 -180v-469q0 -60 28.5 -86.5t110.5 -54.5q9 -3 9 -8v-29q0 -5 -9 -8q-82 -28 -110.5 -54.5 t-28.5 -86.5v-467q0 -110 -77 -180t-203 -70h-91q-8 0 -8 8v70z" />
<glyph unicode="~" horiz-adv-x="1583" d="M203 612q-7 10 4 21q35 38 62 62t70 52.5t96 43t116 14.5q65 0 122.5 -18.5t100.5 -45.5t84.5 -54t91.5 -45.5t105 -18.5q40 0 76 18t59 40t67 69q5 6 13 -2l121 -158q6 -10 -5 -21q-33 -33 -47 -46t-46 -41.5t-55 -41.5t-57 -29.5t-70 -23t-77 -6.5q-56 0 -108.5 18.5 t-94.5 45l-84 53t-95.5 45t-110.5 18.5q-58 0 -103.5 -26t-101.5 -82q-5 -5 -12 2z" />
<glyph unicode="&#xa1;" horiz-adv-x="573" d="M123 -410q0 152 10.5 398t22.5 424t16 178h229q9 0 9 -8q0 -49 20.5 -415.5t20.5 -576.5q0 -8 -9 -8h-311q-8 0 -8 8zM129 700v267q0 6 1.5 7t6.5 1h291q8 0 8 -8v-267q0 -8 -8 -8h-291q-5 0 -6.5 1t-1.5 7z" />
<glyph unicode="&#xa2;" d="M72 410v145q0 187 99.5 303.5t272.5 147.5q5 0 5 4v168q0 8 8 8h229q8 0 8 -8v-166q0 -4 4 -4q178 -28 267.5 -130t89.5 -255q0 -11 -8 -11h-289q-8 0 -8 9q0 74 -43.5 122t-133.5 48q-93 0 -142.5 -56.5t-49.5 -199.5v-111q0 -124 51.5 -184t140.5 -60q98 0 138.5 43 t40.5 131v2q0 9 8 9h284q9 0 9 -11q0 -139 -91.5 -245.5t-259.5 -137.5q-8 0 -8 -8v-186q0 -8 -8 -8h-229q-8 0 -8 8v186q0 6 -7 6q-168 30 -269 139.5t-101 301.5z" />
<glyph unicode="&#xa3;" horiz-adv-x="1124" d="M92 8v211q0 10 8 10h33q43 0 73 41.5t43 105t13 142.5v66q0 10 -10 10h-131q-8 0 -8 8v215q0 8 8 8h133q8 0 8 11v217q0 186 116.5 289.5t301.5 103.5q101 0 178 -23.5t121.5 -60t72 -88.5t37 -101t9.5 -106v-82q0 -10 -11 -10h-245q-8 0 -8 10v72q0 74 -28 117t-106 43 q-135 0 -135 -189v-194q0 -9 6 -9h326q8 0 8 -8v-215q0 -8 -8 -8h-324q-8 0 -8 -10v-135q0 -153 -67 -209q-4 -3 -4.5 -5.5t1 -4t3.5 -1.5h598q8 0 8 -8v-213q0 -8 -8 -8h-996q-8 0 -8 8z" />
<glyph unicode="&#xa5;" horiz-adv-x="1337" d="M2.5 1390q1.5 3 5.5 3h326q6 0 12 -9l320 -544q3 -7 8 0l321 544q6 9 13 9h323q3 0 5 -3t-1 -6l-444 -673q-4 -6 2 -6h170q8 0 8 -9v-188q0 -8 -8 -8h-236q-8 0 -8 -8v-86q0 -9 8 -9h236q8 0 8 -8v-188q0 -8 -8 -8h-236q-8 0 -8 -9v-176q0 -8 -8 -8h-283q-8 0 -8 8v176 q0 9 -8 9h-240q-8 0 -8 8v188q0 8 8 8h240q8 0 8 9v86q0 8 -8 8h-240q-8 0 -8 8v188q0 9 8 9h172q6 0 2 6l-442 673q-3 3 -1.5 6z" />
<glyph unicode="&#xa6;" horiz-adv-x="532" d="M143 -315v643q0 8 9 8h229q8 0 8 -8v-643q0 -9 -8 -9h-229q-9 0 -9 9zM143 741v643q0 9 9 9h229q8 0 8 -9v-643q0 -8 -8 -8h-229q-9 0 -9 8z" />
<glyph unicode="&#xa7;" horiz-adv-x="1091" d="M92 219q0 10 10 10h242q8 0 8 -10q18 -67 73 -108t144 -41q70 0 111 28t41 62q0 15 -7.5 27.5t-25 24t-30 18t-39 17.5t-35.5 15l-119 51q-47 20 -72 31.5t-68 34t-67.5 40.5t-55.5 47t-47.5 59t-28 70t-11.5 85q0 85 45 146.5t104 91.5q4 0 3 4l-3 2q-44 22 -77 72.5 t-33 136.5q0 79 37.5 141.5t99 98.5t134 54.5t150.5 18.5q189 0 304.5 -89.5t115.5 -230.5q0 -10 -10 -10h-242q-8 0 -8 10q0 38 -32.5 63t-67.5 33.5t-64 8.5q-56 0 -95.5 -21.5t-39.5 -56.5q0 -34 31.5 -54.5t140.5 -66.5l121 -51q262 -111 262 -315q0 -62 -22.5 -113.5 t-46.5 -77t-62 -57.5q-3 -3 0 -6q60 -32 99.5 -89.5t39.5 -142.5q0 -98 -64 -175.5t-162.5 -117t-209.5 -39.5q-118 0 -224 43t-176.5 129.5t-70.5 198.5zM397 702q0 -46 34 -73.5t110 -59.5l106 -45q30 0 49 37t19 70q0 45 -37.5 77.5t-116.5 65.5l-86 35 q-32 -13 -55 -42.5t-23 -64.5z" />
<glyph unicode="&#xa8;" horiz-adv-x="1024" d="M166 1137v249q0 7 6 7h248q6 0 6 -7v-249q0 -7 -6 -7h-248q-6 0 -6 7zM600 1137v249q0 7 6 7h248q6 0 6 -7v-249q0 -7 -6 -7h-248q-6 0 -6 7z" />
<glyph unicode="&#xa9;" horiz-adv-x="1679" d="M96 702q0 151 59 288t159 236t237.5 157.5t288.5 58.5t288.5 -58.5t237 -157.5t158.5 -236t59 -288q0 -161 -58.5 -300t-159 -234.5t-236.5 -150t-289 -54.5q-202 0 -373 98.5t-271 268.5t-100 372zM287 702q0 -157 74 -287.5t201 -205t278 -74.5q154 0 279 66.5 t200.5 197t75.5 303.5q0 117 -44 222.5t-118.5 181t-177 120t-215.5 44.5q-151 0 -278.5 -75.5t-201 -206t-73.5 -286.5zM457 698q0 -187 112.5 -305.5t286.5 -118.5q66 0 123 21t97 56.5t66 67.5t46 68q3 6 0 9l-141 69q-3 2 -7 -2q-30 -53 -80 -82.5t-104 -29.5 q-97 0 -155 67.5t-58 179.5q0 113 59 183.5t154 70.5q55 0 109 -32.5t84 -88.5q3 -3 6 -2l135 91q3 3 0 8q-50 83 -133 138.5t-201 55.5q-168 0 -283.5 -119.5t-115.5 -304.5z" />
<glyph unicode="&#xaa;" horiz-adv-x="727" d="M47 952q0 44 13.5 78t34 56t55 39.5t66.5 27.5t79 21l121 26q37 6 37 33v8q0 38 -24.5 54t-74.5 16q-100 0 -100 -97q0 -8 -8 -8h-172q-8 0 -8 8q0 59 25 105t67 73t93 40.5t107 13.5q43 0 81.5 -6.5t76 -22.5t65 -40.5t44 -63.5t16.5 -88v-264q0 -52 21 -52h8q6 0 6 -6 v-106q0 -9 -4 -11q-20 -10 -49 -10q-43 0 -75.5 24t-45.5 56q-2 4 -6 0q-71 -96 -205 -96q-101 0 -172.5 50t-71.5 142zM244 965q0 -66 90 -66q54 0 86.5 33t32.5 92v47q0 7 -7 4l-86 -24q-65 -19 -90.5 -36t-25.5 -50z" />
<glyph unicode="&#xab;" horiz-adv-x="968" d="M72 424v272q0 7 4 11l368 309q7 7 7 -2v-326q0 -6 -5 -8l-159 -119q-2 -2 0 -4l159 -117q5 -2 5 -8v-328q-2 -5 -7 0l-368 310q-4 4 -4 10zM528 424v272q0 7 4 11l369 309q6 6 6 -2v-326q0 -6 -4 -8l-160 -119q-2 -2 0 -4l160 -117q4 -2 4 -8v-328q-2 -4 -6 0l-369 310 q-4 4 -4 10z" />
<glyph unicode="&#xac;" horiz-adv-x="1228" d="M51 702v220q0 8 8 8h1049q8 0 8 -8v-619q0 -12 -12 -12h-230q-12 0 -12 12v383q0 8 -8 8h-795q-8 0 -8 8z" />
<glyph unicode="&#xad;" horiz-adv-x="806" d="M113 381v215q0 8 8 8h565q8 0 8 -8v-215q0 -8 -8 -8h-565q-8 0 -8 8z" />
<glyph unicode="&#xae;" horiz-adv-x="1679" d="M96 705q0 202 100 372t271 268.5t373 98.5q151 0 288.5 -58.5t237 -157t158.5 -235.5t59 -288q0 -161 -58.5 -300t-159 -235t-237 -150.5t-288.5 -54.5q-151 0 -288.5 58.5t-237.5 157.5t-159 236t-59 288zM287 705q0 -157 74 -287.5t201 -205.5t278 -75q114 0 215 39 t176 110.5t118.5 180t43.5 238.5q0 117 -44 222t-118 180.5t-176 120t-215 44.5t-215.5 -44.5t-176.5 -120t-117.5 -180.5t-43.5 -222zM535 324q0 -7 2 -7h174q4 0 4 7v315q0 4 6 4h139q85 0 113 -35t28 -119v-90q0 -45 13 -77q5 -5 6 -5h180q6 0 2 7q-14 23 -14 82v126 q0 140 -158 175q-2 0 -2 2t2 2q63 18 107.5 69.5t44.5 116.5q0 113 -75 164t-241 51h-327q-4 0 -4 -4v-784zM715 782v187q0 6 6 6h158q118 0 118 -94q0 -45 -29 -74t-91 -29h-156q-6 0 -6 4z" />
<glyph unicode="&#xaf;" horiz-adv-x="1024" d="M221 1169v215q0 9 8 9h566q8 0 8 -9v-215q0 -8 -8 -8h-566q-8 0 -8 8z" />
<glyph unicode="&#xb0;" horiz-adv-x="942" d="M74 1020q0 166 115.5 281.5t281.5 115.5t281.5 -115.5t115.5 -281.5t-115.5 -281.5t-281.5 -115.5t-281.5 115.5t-115.5 281.5zM315 1020q0 -63 46.5 -109.5t109.5 -46.5t109.5 46.5t46.5 109.5t-46.5 109.5t-109.5 46.5t-109.5 -46.5t-46.5 -109.5z" />
<glyph unicode="&#xb1;" horiz-adv-x="1132" d="M102 8v199q0 8 9 8h911q8 0 8 -8v-199q0 -8 -8 -8h-911q-9 0 -9 8zM102 596v215q0 8 9 8h331q9 0 9 8v263q0 8 8 8h215q8 0 8 -8v-263q0 -8 8 -8h332q8 0 8 -8v-215q0 -8 -8 -8h-332q-8 0 -8 -8v-263q0 -8 -8 -8h-215q-8 0 -8 8v263q0 8 -9 8h-331q-9 0 -9 8z" />
<glyph unicode="&#xb2;" horiz-adv-x="829" d="M82 1135v24q0 122 92.5 206.5t249.5 84.5q159 0 247.5 -74.5t88.5 -197.5q0 -113 -79.5 -194.5t-229.5 -160.5q-17 -9 -40.5 -20.5t-33.5 -17t-23 -14t-18 -16t-8.5 -19t-3.5 -27.5v-7q0 -6 4 -6h424q6 0 6 -6v-155q0 -5 -6 -5h-652q-6 0 -6 5l-2 143q-1 46 11.5 84 t34 65t53.5 51.5t66 43.5t75 41l24 12l16 8q95 49 120 73q40 40 40 115q0 49 -26.5 81t-79.5 32q-57 0 -87 -33t-30 -96v-20q0 -7 -6 -7h-215q-6 0 -6 7z" />
<glyph unicode="&#xb3;" horiz-adv-x="856" d="M57 774v39q0 6 4 6h220q6 0 6 -6v-16q0 -63 37.5 -101.5t105.5 -38.5q60 0 95.5 35.5t35.5 93.5q0 32 -10.5 55t-26 35t-42 19t-49 8.5t-56.5 1.5h-39q-4 0 -4 6v156q0 6 4 6h45q149 0 149 117q0 88 -112 88q-49 0 -77 -27.5t-28 -62.5v-14q0 -5 -4 -5h-211q-4 0 -4 5v38 q0 108 99 171t231 63q143 0 239.5 -62.5t96.5 -164.5q0 -90 -42.5 -142.5t-109.5 -68.5q-2 0 -2 -2l2 -2q81 -16 131 -68t50 -141q0 -53 -21.5 -104.5t-63.5 -97t-114 -73.5t-164 -28q-168 0 -269.5 81t-101.5 201z" />
<glyph unicode="&#xb4;" horiz-adv-x="1024" d="M289 1081l82 301q4 11 12 11h283q4 0 5 -4t-1 -7l-189 -303q-5 -8 -14 -8h-172q-9 0 -6 10z" />
<glyph unicode="&#xb5;" horiz-adv-x="1161" d="M104 -360v1327q0 8 9 8h293q8 0 8 -8v-639q0 -66 25 -102t91 -36q86 0 146.5 73.5t60.5 164.5v539q0 8 8 8h295q9 0 9 -8v-959q0 -8 -9 -8h-229q-6 0 -10 8l-60 123q-4 8 -8 0q-47 -80 -104.5 -125t-139.5 -45q-33 0 -69 12q-6 2 -6 -4v-329q0 -9 -8 -9h-293q-9 0 -9 9z " />
<glyph unicode="&#xb6;" horiz-adv-x="1396" d="M70 967q0 203 105 314.5t312 111.5h881q8 0 8 -9v-221q0 -8 -8 -8h-82q-6 0 -6 -8v-1548q0 -9 -8 -9h-277q-6 0 -6 9v1548q0 8 -6 8h-197q-6 0 -6 -8v-1548q0 -9 -6 -9h-274q-8 0 -8 9v933q0 9 -7 9h-24q-188 0 -289.5 113.5t-101.5 312.5z" />
<glyph unicode="&#xb7;" horiz-adv-x="550" d="M113 416v348q0 6 1.5 7t6.5 1h309q8 0 8 -8v-348q0 -8 -8 -8h-309q-5 0 -6.5 1t-1.5 7z" />
<glyph unicode="&#xb8;" horiz-adv-x="1024" d="M397 -338q0 8 6 8h132q3 0 6.5 -8.5t9 -19t24 -19t46.5 -8.5q39 0 61.5 25t22.5 63q0 44 -26 67t-89 23q-61 0 -148 -26q-3 -2 -5 -0.5t-1 6.5l37 180q3 14 -6 14h162q-5 0 -8 -8l-13 -65q-2 -5 0 -7.5t6 -1.5q27 6 64 6q80 0 129 -49t49 -135q0 -81 -65.5 -141 t-163.5 -60q-97 0 -160.5 42t-69.5 114z" />
<glyph unicode="&#xb9;" horiz-adv-x="780" d="M154 1182v114q0 7 4 9l329 141q7 0 7 -2v-914q0 -4 -7 -4h-217q-4 0 -4 4v693q0 5 -6 2l-100 -47q-6 0 -6 4z" />
<glyph unicode="&#xba;" horiz-adv-x="788" d="M61 1100q0 158 92.5 252t241.5 94t240.5 -94t91.5 -252q0 -160 -91.5 -253t-240.5 -93q-150 0 -242 93.5t-92 252.5zM233 1100q0 -89 46.5 -142t115.5 -53q68 0 113 52.5t45 142.5t-45 142t-113 52q-69 0 -115.5 -54t-46.5 -140z" />
<glyph unicode="&#xbb;" horiz-adv-x="968" d="M61 104v328q0 6 5 8l159 117q2 2 0 4l-159 119q-5 2 -5 8v326q0 2 2 3t5 -1l368 -309q4 -4 4 -11v-272q0 -6 -4 -10l-368 -310q-5 -5 -7 0zM518 104v328q0 6 4 8l160 117q2 2 0 4l-160 119q-4 2 -4 8v326q0 8 6 2l369 -309q4 -4 4 -11v-272q0 -6 -4 -10l-369 -310 q-4 -4 -6 0z" />
<glyph unicode="&#xbc;" horiz-adv-x="1748" d="M154 1182v114q0 7 4 9l329 141q7 0 7 -2v-914q0 -4 -7 -4h-217q-4 0 -4 4v693q0 5 -6 2l-100 -47q-6 0 -6 4zM301 2q0 1 1 2t1 2l807 1380q4 7 8 7h219q7 0 4 -7l-809 -1380q-3 -6 -8 -6h-217q-6 0 -6 2zM944 188v142q0 6 4 14l334 547l6 4h303q4 0 4 -6v-533q0 -6 7 -6 h92q4 0 4 -4v-158q0 -6 -4 -6h-92q-7 0 -7 -4v-172q0 -6 -4 -6h-211q-4 0 -4 6v172q0 4 -6 4h-422q-4 0 -4 6zM1170 352q1 -2 4 -2h196q6 0 6 6v338q0 2 -2 2t-2 -2l-201 -338q-2 -2 -1 -4z" />
<glyph unicode="&#xbd;" horiz-adv-x="1853" d="M154 1182v114q0 7 4 9l329 141q7 0 7 -2v-914q0 -4 -7 -4h-217q-4 0 -4 4v693q0 5 -6 2l-100 -47q-6 0 -6 4zM301 2q0 1 1 2t1 2l807 1380q4 7 8 7h219q7 0 4 -7l-809 -1380q-3 -6 -8 -6h-217q-6 0 -6 2zM1075 604v25q0 122 92.5 206.5t249.5 84.5q159 0 247.5 -75 t88.5 -198q0 -59 -22.5 -110.5t-68 -94.5t-96 -77t-122.5 -72q-17 -9 -41 -21t-33.5 -17t-23 -14t-18 -16.5t-8 -19t-3.5 -27.5v-6q0 -6 4 -6h424q6 0 6 -6v-156q0 -4 -6 -4h-651q-7 0 -7 4l-2 143q-1 46 13 84.5t32 63.5t55.5 52.5t63.5 42.5t76 41l9 4.5t7.5 4t8.5 4.5 t13 7q97 49 123 74q40 40 40 116q0 49 -27 81t-80 32q-116 0 -116 -129v-21q0 -6 -7 -6h-215q-6 0 -6 6z" />
<glyph unicode="&#xbe;" horiz-adv-x="1949" d="M57 774v39q0 6 4 6h220q6 0 6 -6v-16q0 -63 37.5 -101.5t105.5 -38.5q60 0 95.5 35.5t35.5 93.5q0 32 -10.5 55t-26 35t-42 19t-49 8.5t-56.5 1.5h-39q-4 0 -4 6v156q0 6 4 6h45q149 0 149 117q0 88 -112 88q-49 0 -77 -27.5t-28 -62.5v-14q0 -5 -4 -5h-211q-4 0 -4 5v38 q0 108 99 171t231 63q143 0 239.5 -62.5t96.5 -164.5q0 -90 -42.5 -142.5t-109.5 -68.5q-2 0 -2 -2l2 -2q81 -16 131 -68t50 -141q0 -53 -21.5 -104.5t-63.5 -97t-114 -73.5t-164 -28q-168 0 -269.5 81t-101.5 201zM502 2q0 1 1 2t1 2l807 1380q3 7 8 7h219q8 0 4 -7 l-809 -1380q-3 -6 -8 -6h-217q-6 0 -6 2zM1145 188v142q0 6 4 14l334 547l6 4h303q4 0 4 -6v-533q0 -6 6 -6h92q4 0 4 -4v-158q0 -6 -4 -6h-92q-6 0 -6 -4v-172q0 -6 -4 -6h-211q-4 0 -4 6v172q0 4 -6 4h-422q-4 0 -4 6zM1372 356q-2 -4 2 -6h197q6 0 6 6v338q0 2 -2 2 t-2 -2z" />
<glyph unicode="&#xbf;" horiz-adv-x="1038" d="M127 -84q0 -172 132 -278.5t333 -106.5q115 0 205.5 34.5t145 93.5t82.5 132t28 154v78q0 10 -11 10h-270q-10 0 -10 -10v-66q0 -96 -44.5 -145.5t-123.5 -49.5q-80 0 -119 44.5t-39 113.5q0 94 31 147t135 121q66 43 99 69t60.5 62t36.5 77t9 104v65q0 10 -10 10h-279 q-10 0 -10 -10v-63q0 -30 -5 -52t-12 -36t-24.5 -30.5t-31 -25.5t-45.5 -30t-54 -37q-209 -149 -209 -375zM502 700v267q0 8 8 8h291q5 0 6.5 -1t1.5 -7v-267q0 -6 -1.5 -7t-6.5 -1h-291q-8 0 -8 8z" />
<glyph unicode="&#xc0;" horiz-adv-x="1390" d="M2 6l496 1380q4 7 8 7h371q5 0 8 -7l506 -1380q0 -6 -5 -6h-305q-6 0 -8 6l-119 328q-3 6 -8 6h-514q-5 0 -8 -6l-113 -328q-2 -6 -8 -6h-297q-7 0 -4 6zM412 1866q-5 10 4 10h282q10 0 13 -10l82 -301q3 -11 -7 -11h-172q-8 0 -14 9zM504 575q-3 -6 4 -6h369q7 0 4 6 l-187 588q0 1 -2 1t-2 -1z" />
<glyph unicode="&#xc1;" horiz-adv-x="1390" d="M2 6l496 1380q4 7 8 7h371q5 0 8 -7l506 -1380q0 -6 -5 -6h-305q-6 0 -8 6l-119 328q-3 6 -8 6h-514q-5 0 -8 -6l-113 -328q-2 -6 -8 -6h-297q-7 0 -4 6zM504 575q-3 -6 4 -6h369q7 0 4 6l-187 588q0 1 -2 1t-2 -1zM608 1565l82 301q3 10 12 10h283q9 0 4 -10l-188 -303 q-6 -9 -15 -9h-172q-9 0 -6 11z" />
<glyph unicode="&#xc2;" horiz-adv-x="1390" d="M2 6l496 1380q4 7 8 7h371q5 0 8 -7l506 -1380q0 -6 -5 -6h-305q-6 0 -8 6l-119 328q-3 6 -8 6h-514q-5 0 -8 -6l-113 -328q-2 -6 -8 -6h-297q-7 0 -4 6zM358 1553q-1 3 2 6l226 309q4 4 8 4h201q4 0 8 -4l225 -309q3 -3 2 -6t-4 -3h-223q-8 0 -12 6l-93 166q-4 8 -8 0 l-92 -166q-4 -6 -12 -6h-224q-3 0 -4 3zM504 575q-3 -6 4 -6h369q7 0 4 6l-187 588q0 1 -2 1t-2 -1z" />
<glyph unicode="&#xc3;" horiz-adv-x="1390" d="M2 6l496 1380q4 7 8 7h371q5 0 8 -7l506 -1380q0 -6 -5 -6h-305q-6 0 -8 6l-119 328q-3 6 -8 6h-514q-5 0 -8 -6l-113 -328q-2 -6 -8 -6h-297q-7 0 -4 6zM315 1581q0 65 27 127.5t81.5 107t123.5 44.5q15 0 31.5 -3t28.5 -6t31 -10.5t28 -11.5t30.5 -14t28.5 -13 q6 -3 17 -8q23 -11 35 -16t31 -11t29 -3t21.5 11t16 27.5t4.5 48.5q0 7 8 7h178q8 0 8 -9q0 -112 -59.5 -194t-155.5 -82q-52 0 -166 43q-10 4 -32.5 13.5t-36.5 14.5t-34 11t-33 4t-25.5 -8.5t-18.5 -24t-6 -45.5q0 -8 -6 -8h-176q-9 0 -9 8zM504 575q-3 -6 4 -6h369 q7 0 4 6l-187 588q0 1 -2 1t-2 -1z" />
<glyph unicode="&#xc4;" horiz-adv-x="1390" d="M2 6l496 1380q4 7 8 7h371q5 0 8 -7l506 -1380q0 -6 -5 -6h-305q-6 0 -8 6l-119 328q-3 6 -8 6h-514q-5 0 -8 -6l-113 -328q-2 -6 -8 -6h-297q-7 0 -4 6zM344 1583v250q0 6 6 6h248q6 0 6 -6v-250q0 -6 -6 -6h-248q-6 0 -6 6zM504 575q-3 -6 4 -6h369q7 0 4 6l-187 588 q0 1 -2 1t-2 -1zM778 1583v250q0 6 6 6h248q6 0 6 -6v-250q0 -6 -6 -6h-248q-6 0 -6 6z" />
<glyph unicode="&#xc5;" horiz-adv-x="1390" d="M2 6l496 1380q4 7 8 7h371q5 0 8 -7l506 -1380q0 -6 -5 -6h-305q-6 0 -8 6l-119 328q-3 6 -8 6h-514q-5 0 -8 -6l-113 -328q-2 -6 -8 -6h-297q-7 0 -4 6zM487 1716q0 88 60.5 147.5t148.5 59.5t148.5 -59.5t60.5 -147.5t-60.5 -148.5t-148.5 -60.5t-148.5 60.5 t-60.5 148.5zM504 575q-3 -6 4 -6h369q7 0 4 6l-187 588q0 1 -2 1t-2 -1zM625 1716q0 -30 19.5 -49.5t49.5 -19.5t50 19.5t20 49.5t-20 50t-50 20t-49.5 -20t-19.5 -50z" />
<glyph unicode="&#xc6;" horiz-adv-x="2062" d="M-4 6l813 1380q7 7 10 7h1166q8 0 8 -9v-215q0 -8 -8 -8h-695q-8 0 -8 -8v-307q0 -8 8 -8h625q8 0 8 -9v-206q0 -9 -8 -9h-625q-8 0 -8 -8v-366q0 -9 8 -9h707q8 0 8 -8v-215q0 -8 -8 -8h-1016q-8 0 -8 8v326q0 6 -6 6h-453q-4 0 -10 -6l-195 -328q-3 -6 -12 -6h-297 q-8 0 -4 6zM645 575q-6 -6 2 -6h320q6 0 6 6v588q0 4 -2.5 4.5t-3.5 -2.5z" />
<glyph unicode="&#xc7;" horiz-adv-x="1454" d="M106 625v168q0 297 167.5 475t471.5 178q291 0 454 -149.5t163 -393.5q0 -8 -6 -8h-301q-8 0 -8 6q0 141 -79 228.5t-210 87.5q-168 0 -255 -109.5t-87 -353.5v-103q0 -215 85 -336.5t257 -121.5q137 0 213 81t76 205q0 6 10 6h301q4 -2 4 -8q-12 -150 -89.5 -268 t-192.5 -180.5t-244 -63.5q-8 0 -11 -8l-10 -66q-3 -8 4 -8q34 6 66 6q80 0 129 -49t49 -135q0 -81 -65.5 -141t-163.5 -60q-97 0 -160.5 42t-69.5 114q0 8 6 8h131q3 0 6.5 -8.5t9 -19t24 -19t46.5 -8.5q39 0 61.5 25t22.5 63q0 44 -25.5 67t-88.5 23q-57 0 -148 -27 q-3 -1 -4.5 1.5t-1.5 5.5l37 180q3 14 -8 14q-147 17 -257 72.5t-177 143t-99.5 198.5t-32.5 246z" />
<glyph unicode="&#xc8;" horiz-adv-x="1236" d="M147 8v1376q0 9 9 9h1003q8 0 8 -9v-215q0 -8 -8 -8h-694q-8 0 -8 -8v-307q0 -8 8 -8h625q8 0 8 -9v-206q0 -9 -8 -9h-625q-8 0 -8 -8v-366q0 -9 8 -9h706q9 0 9 -8v-215q0 -8 -9 -8h-1015q-9 0 -9 8zM381 1866q-5 10 4 10h283q9 0 12 -10l82 -301q3 -11 -6 -11h-172 q-9 0 -15 9z" />
<glyph unicode="&#xc9;" horiz-adv-x="1236" d="M147 8v1376q0 9 9 9h1003q8 0 8 -9v-215q0 -8 -8 -8h-694q-8 0 -8 -8v-307q0 -8 8 -8h625q8 0 8 -9v-206q0 -9 -8 -9h-625q-8 0 -8 -8v-366q0 -9 8 -9h706q9 0 9 -8v-215q0 -8 -9 -8h-1015q-9 0 -9 8zM557 1567l82 301q3 10 12 10h283q9 0 4 -10l-188 -303q-6 -9 -15 -9 h-172q-9 0 -6 11z" />
<glyph unicode="&#xca;" horiz-adv-x="1236" d="M147 8v1376q0 9 9 9h1003q8 0 8 -9v-215q0 -8 -8 -8h-694q-8 0 -8 -8v-307q0 -8 8 -8h625q8 0 8 -9v-206q0 -9 -8 -9h-625q-8 0 -8 -8v-366q0 -9 8 -9h706q9 0 9 -8v-215q0 -8 -9 -8h-1015q-9 0 -9 8zM328 1555q-1 3 2 6l225 309q4 4 8 4h201q4 0 8 -4l225 -309 q3 -3 2 -6t-4 -3h-223q-7 0 -12 7l-92 165q-2 3 -5 3t-4 -3l-92 -165q-5 -7 -12 -7h-223q-3 0 -4 3z" />
<glyph unicode="&#xcb;" horiz-adv-x="1236" d="M147 8v1376q0 9 9 9h1003q8 0 8 -9v-215q0 -8 -8 -8h-694q-8 0 -8 -8v-307q0 -8 8 -8h625q8 0 8 -9v-206q0 -9 -8 -9h-625q-8 0 -8 -8v-366q0 -9 8 -9h706q9 0 9 -8v-215q0 -8 -9 -8h-1015q-9 0 -9 8zM315 1585v250q0 6 7 6h247q6 0 6 -6v-250q0 -6 -6 -6h-247q-7 0 -7 6 zM750 1585v250q0 6 6 6h248q6 0 6 -6v-250q0 -6 -6 -6h-248q-6 0 -6 6z" />
<glyph unicode="&#xcc;" horiz-adv-x="606" d="M10 1866q-5 10 4 10h283q9 0 12 -10l82 -301q3 -11 -6 -11h-172q-8 0 -14 9zM147 8q0 -8 9 -8h295q8 0 8 8v1376q0 9 -8 9h-295q-9 0 -9 -9v-1376z" />
<glyph unicode="&#xcd;" horiz-adv-x="606" d="M147 8q0 -8 9 -8h295q8 0 8 8v1376q0 9 -8 9h-295q-9 0 -9 -9v-1376zM207 1563l82 301q3 10 12 10h283q9 0 4 -10l-189 -303q-6 -9 -14 -9h-172q-9 0 -6 11z" />
<glyph unicode="&#xce;" horiz-adv-x="606" d="M-33 1555q-1 3 2 6l226 309q4 4 8 4h200q5 0 9 -4l225 -309q3 -3 2 -6t-4 -3h-223q-8 0 -13 7l-92 165q-4 8 -8 0l-92 -165q-5 -7 -12 -7h-224q-3 0 -4 3zM147 8v1376q0 9 9 9h295q8 0 8 -9v-1376q0 -8 -8 -8h-295q-9 0 -9 8z" />
<glyph unicode="&#xcf;" horiz-adv-x="606" d="M-45 1583v250q0 6 6 6h248q6 0 6 -6v-250q0 -6 -6 -6h-248q-6 0 -6 6zM147 8q0 -8 9 -8h295q8 0 8 8v1376q0 9 -8 9h-295q-9 0 -9 -9v-1376zM389 1583v250q0 6 6 6h248q6 0 6 -6v-250q0 -6 -6 -6h-248q-6 0 -6 6z" />
<glyph unicode="&#xd0;" horiz-adv-x="1472" d="M31 580v213q0 8 8 8h160q8 0 8 8v575q0 9 8 9h416q128 0 236 -19.5t201.5 -64t158.5 -112t102 -169t37 -229.5v-219q0 -128 -37.5 -228.5t-101 -166t-154.5 -108t-192 -60t-219 -17.5h-447q-8 0 -8 8v555q0 8 -8 8h-160q-8 0 -8 9zM516 238q0 -9 8 -9h162q191 0 281 85.5 t90 301.5v154q0 393 -377 393h-156q-8 0 -8 -8v-346q0 -8 8 -8h183q8 0 8 -8v-213q0 -9 -8 -9h-183q-8 0 -8 -8v-325z" />
<glyph unicode="&#xd1;" horiz-adv-x="1454" d="M147 8v1376q0 9 9 9h305q6 0 12 -9l590 -948q4 -7 5 -3q0 1 -1 3q-7 22 -15.5 58t-18 111.5t-9.5 154.5v624q0 9 8 9h293q8 0 8 -9v-1376q0 -8 -8 -8h-301q-7 0 -12 8l-594 1010q-4 7 -4 3q-1 -1 0 -3q7 -22 15.5 -58t18 -111.5t9.5 -154.5v-688q0 -6 -6 -6h-295 q-9 0 -9 8zM360 1579q0 65 27 127.5t81.5 107t123.5 44.5q15 0 31.5 -3t28.5 -6t31 -10.5t28 -11.5t30.5 -14t28.5 -13q6 -3 17 -8q23 -11 35 -16t31 -11t29 -3t21.5 11t16 27.5t4.5 48.5q0 6 8 6h178q8 0 8 -8q0 -112 -59.5 -194t-155.5 -82q-52 0 -166 43 q-10 4 -32.5 13.5t-36.5 14.5t-34 11t-33 4t-25.5 -8.5t-18.5 -24t-6 -45.5q0 -8 -6 -8h-176q-9 0 -9 8z" />
<glyph unicode="&#xd2;" horiz-adv-x="1554" d="M106 602v215q0 192 87.5 336t239 218.5t345.5 74.5q140 0 261.5 -41.5t212.5 -119t143.5 -198t52.5 -270.5v-217q0 -189 -87.5 -335.5t-239.5 -225t-343 -78.5q-196 0 -348.5 78.5t-238 224.5t-85.5 338zM436 641q0 -204 91.5 -327.5t250.5 -123.5q153 0 246.5 123.5 t93.5 329.5v129q0 210 -95 327.5t-245 117.5q-163 0 -252.5 -115.5t-89.5 -331.5v-129zM498 1864q-5 10 4 10h282q10 0 13 -10l82 -301q3 -11 -7 -11h-172q-8 0 -14 9z" />
<glyph unicode="&#xd3;" horiz-adv-x="1554" d="M106 602v215q0 192 87.5 336t239 218.5t345.5 74.5q140 0 261.5 -41.5t212.5 -119t143.5 -198t52.5 -270.5v-217q0 -189 -87.5 -335.5t-239.5 -225t-343 -78.5q-196 0 -348.5 78.5t-238 224.5t-85.5 338zM436 641q0 -204 91.5 -327.5t250.5 -123.5q153 0 246.5 123.5 t93.5 329.5v129q0 210 -95 327.5t-245 117.5q-163 0 -252.5 -115.5t-89.5 -331.5v-129zM678 1565l82 301q3 10 12 10h283q9 0 4 -10l-189 -303q-6 -9 -14 -9h-172q-9 0 -6 11z" />
<glyph unicode="&#xd4;" horiz-adv-x="1554" d="M106 602v215q0 192 87.5 336t239 218.5t345.5 74.5q140 0 261.5 -41.5t212.5 -119t143.5 -198t52.5 -270.5v-217q0 -189 -87.5 -335.5t-239.5 -225t-343 -78.5q-196 0 -348.5 78.5t-238 224.5t-85.5 338zM436 641q0 -204 91.5 -327.5t250.5 -123.5q153 0 246.5 123.5 t93.5 329.5v129q0 210 -95 327.5t-245 117.5q-163 0 -252.5 -115.5t-89.5 -331.5v-129zM440 1555q-1 3 2 6l226 309q4 4 8 4h201q4 0 8 -4l225 -309q3 -3 2 -6t-4 -3h-223q-8 0 -13 7l-92 165q-4 8 -8 0l-92 -165q-5 -7 -12 -7h-224q-3 0 -4 3z" />
<glyph unicode="&#xd5;" horiz-adv-x="1554" d="M106 602v215q0 192 87.5 336t239 218.5t345.5 74.5q140 0 261.5 -41.5t212.5 -119t143.5 -198t52.5 -270.5v-217q0 -189 -87.5 -335.5t-239.5 -225t-343 -78.5q-196 0 -348.5 78.5t-238 224.5t-85.5 338zM397 1581q0 65 27 127.5t81.5 107t123.5 44.5q15 0 31.5 -3 t28.5 -6t31 -10.5t28 -11.5t30.5 -14t28.5 -13q6 -3 17 -8q23 -11 35 -16t31 -11t29 -3t21.5 11t16 27.5t4.5 48.5q0 7 8 7h178q8 0 8 -9q0 -112 -59.5 -194t-155.5 -82q-52 0 -166 43q-10 4 -32.5 13.5t-36.5 14.5t-34 11t-33 4t-25.5 -8.5t-18.5 -24t-6 -45.5q0 -8 -6 -8 h-176q-9 0 -9 8zM436 641q0 -204 91.5 -327.5t250.5 -123.5q153 0 246.5 123.5t93.5 329.5v129q0 210 -95 327.5t-245 117.5q-163 0 -252.5 -115.5t-89.5 -331.5v-129z" />
<glyph unicode="&#xd6;" horiz-adv-x="1554" d="M106 602v215q0 192 87.5 336t239 218.5t345.5 74.5q140 0 261.5 -41.5t212.5 -119t143.5 -198t52.5 -270.5v-217q0 -189 -87.5 -335.5t-239.5 -225t-343 -78.5q-196 0 -348.5 78.5t-238 224.5t-85.5 338zM428 1583v250q0 6 6 6h248q6 0 6 -6v-250q0 -6 -6 -6h-248 q-6 0 -6 6zM436 641q0 -204 91.5 -327.5t250.5 -123.5q153 0 246.5 123.5t93.5 329.5v129q0 210 -95 327.5t-245 117.5q-163 0 -252.5 -115.5t-89.5 -331.5v-129zM862 1583v250q0 6 6 6h248q6 0 6 -6v-250q0 -6 -6 -6h-248q-6 0 -6 6z" />
<glyph unicode="&#xd7;" horiz-adv-x="1042" d="M66 999q-6 5 0 11l151 151q6 6 12 0l287 -287q5 -5 10 0l287 287q6 6 12 0l152 -151q5 -6 0 -11l-285 -290q-6 -5 0 -11l275 -274q1 -2 1 -5t-1 -5l-152 -152q-4 -8 -12 0l-277 275q-5 5 -10 0l-276 -275q-9 -9 -13 0l-151 152q-2 2 -2 5t2 5l276 276q4 4 -2 11z" />
<glyph unicode="&#xd8;" horiz-adv-x="1527" d="M106 580v239q0 290 181.5 458.5t476.5 168.5q129 0 264 -55q3 -1 6 2l90 172q3 6 9 6h159q7 0 4 -6l-122 -234q-3 -3 2 -6q143 -97 194 -214t51 -294v-239q0 -183 -87 -324.5t-236 -217t-334 -75.5q-160 0 -283 49q-4 0 -6 -4l-80 -149q-3 -7 -8 -7h-158q-7 0 -4 7 l113 213q2 4 -2 8q-230 163 -230 502zM434 618q0 -100 7.5 -161.5t35.5 -108.5q5 -5 6 -2l432 823q3 3 -2 7q-59 49 -149 49q-161 0 -245.5 -117t-84.5 -336v-154zM596 236q-2 -5 2 -9q48 -45 166 -45q155 0 242.5 112.5t87.5 326.5v153q0 116 -12 182t-44 111q-4 4 -4 0z " />
<glyph unicode="&#xd9;" horiz-adv-x="1478" d="M143 561v823q0 9 9 9h292q9 0 9 -9v-854q0 -97 21.5 -165.5t62 -105.5t89 -53t111.5 -16q64 0 113.5 16t90 53t62 105.5t21.5 165.5v854q0 9 8 9h295q8 0 8 -9v-823q0 -312 -150 -456t-450 -144q-304 0 -448 142.5t-144 457.5zM455 1866q-5 10 4 10h282q10 0 13 -10 l82 -301q3 -11 -7 -11h-172q-8 0 -14 9z" />
<glyph unicode="&#xda;" horiz-adv-x="1478" d="M143 561v823q0 9 9 9h292q9 0 9 -9v-854q0 -97 21.5 -165.5t62 -105.5t89 -53t111.5 -16q64 0 113.5 16t90 53t62 105.5t21.5 165.5v854q0 9 8 9h295q8 0 8 -9v-823q0 -312 -150 -456t-450 -144q-304 0 -448 142.5t-144 457.5zM641 1565l82 301q3 10 12 10h283q9 0 4 -10 l-188 -303q-6 -9 -15 -9h-172q-9 0 -6 11z" />
<glyph unicode="&#xdb;" horiz-adv-x="1478" d="M143 561v823q0 9 9 9h292q9 0 9 -9v-854q0 -97 21.5 -165.5t62 -105.5t89 -53t111.5 -16q64 0 113.5 16t90 53t62 105.5t21.5 165.5v854q0 9 8 9h295q8 0 8 -9v-823q0 -312 -150 -456t-450 -144q-304 0 -448 142.5t-144 457.5zM404 1555q-1 3 2 6l225 309q4 4 8 4h201 q4 0 8 -4l225 -309q3 -3 2 -6t-4 -3h-223q-7 0 -12 7l-93 165q-4 8 -8 0l-92 -165q-5 -7 -12 -7h-223q-3 0 -4 3z" />
<glyph unicode="&#xdc;" horiz-adv-x="1478" d="M143 561v823q0 9 9 9h292q9 0 9 -9v-854q0 -97 21.5 -165.5t62 -105.5t89 -53t111.5 -16q64 0 113.5 16t90 53t62 105.5t21.5 165.5v854q0 9 8 9h295q8 0 8 -9v-823q0 -312 -150 -456t-450 -144q-304 0 -448 142.5t-144 457.5zM391 1585v250q0 6 6 6h248q6 0 6 -6v-250 q0 -6 -6 -6h-248q-6 0 -6 6zM825 1585v250q0 6 6 6h248q6 0 6 -6v-250q0 -6 -6 -6h-248q-6 0 -6 6z" />
<glyph unicode="&#xdd;" horiz-adv-x="1335" d="M2 1384q-4 9 4 9h326q6 0 12 -9l320 -573q3 -7 8 0l321 573q6 9 13 9h323q3 0 4.5 -3t-0.5 -6l-506 -815q-4 -8 -4 -12v-549q0 -8 -8 -8h-295q-8 0 -8 8v551q0 2 -4 10zM569 1565l82 301q3 10 13 10h282q9 0 4 -10l-188 -303q-6 -9 -14 -9h-173q-9 0 -6 11z" />
<glyph unicode="&#xde;" horiz-adv-x="1173" d="M102 8v1376q0 9 9 9h292q9 0 9 -9v-303q2 0 2 2q39 76 108.5 118t159.5 42q100 0 181 -36.5t132.5 -98.5t79 -142.5t27.5 -170.5v-168q0 -193 -111.5 -316t-308.5 -123q-102 0 -173 49.5t-93 102.5q-2 2 -4 2v-334q0 -8 -9 -8h-292q-9 0 -9 8zM412 698q0 -130 58 -207 t151 -77q172 0 172 202v179q0 98 -47 152t-144 54q-93 0 -141.5 -68t-48.5 -169v-66z" />
<glyph unicode="&#xdf;" horiz-adv-x="1366" d="M145 8v967q0 222 150 346.5t395 124.5q129 0 237 -40t176 -121t68 -189q0 -58 -17.5 -107t-46.5 -81.5t-57.5 -53.5t-60.5 -35q-3 -1 -3.5 -3t0.5 -3.5t3 -1.5q61 -11 113 -38t96.5 -71t70 -113.5t25.5 -156.5q0 -128 -70.5 -227.5t-191.5 -152t-272 -52.5h-123 q-8 0 -8 8v219q0 9 8 9h104q121 0 182.5 57t61.5 166q0 100 -61.5 156.5t-182.5 56.5h-104q-8 0 -8 8v205q0 8 8 8h78q86 0 131 45.5t45 122.5q0 75 -57 118.5t-162 43.5q-95 0 -156 -61.5t-61 -162.5v-991q0 -8 -9 -8h-292q-9 0 -9 8z" />
<glyph unicode="&#xe0;" d="M61 264q0 257 359 322q57 10 117.5 17.5t108 12t52.5 5.5q7 0 7 10v33q0 141 -156 141q-76 0 -114.5 -36.5t-47.5 -92.5q0 -8 -8 -8h-270q-9 0 -9 4v4q63 342 453 342q241 0 348 -101.5t107 -302.5v-329q0 -39 1 -71.5t4.5 -59t5.5 -42t8.5 -35.5t7.5 -25t9.5 -24 t8.5 -20q3 -8 -6 -8h-263q-10 0 -14 4q-33 38 -59 111q-2 4 -4.5 3.5t-4.5 -3.5q-54 -83 -128 -118.5t-181 -35.5q-152 0 -242 84t-90 219zM289 1442q-5 10 4 10h282q10 0 13 -10l82 -301q3 -11 -6 -11h-172q-9 0 -15 9zM348 276q0 -47 31.5 -73.5t93.5 -26.5 q101 0 166.5 66t65.5 166v30q0 4 -7 4q-101 -8 -227 -36q-123 -28 -123 -130z" />
<glyph unicode="&#xe1;" d="M61 264q0 257 359 322q57 10 117.5 17.5t108 12t52.5 5.5q7 0 7 10v33q0 141 -156 141q-76 0 -114.5 -36.5t-47.5 -92.5q0 -8 -8 -8h-270q-9 0 -9 4v4q63 342 453 342q241 0 348 -101.5t107 -302.5v-329q0 -39 1 -71.5t4.5 -59t5.5 -42t8.5 -35.5t7.5 -25t9.5 -24 t8.5 -20q3 -8 -6 -8h-263q-10 0 -14 4q-33 38 -59 111q-2 4 -4.5 3.5t-4.5 -3.5q-54 -83 -128 -118.5t-181 -35.5q-152 0 -242 84t-90 219zM348 276q0 -47 31.5 -73.5t93.5 -26.5q101 0 166.5 66t65.5 166v30q0 4 -7 4q-101 -8 -227 -36q-123 -28 -123 -130zM463 1141 l82 301q3 10 12 10h283q9 0 4 -10l-189 -303q-6 -9 -14 -9h-172q-9 0 -6 11z" />
<glyph unicode="&#xe2;" d="M61 264q0 257 359 322q57 10 117.5 17.5t108 12t52.5 5.5q7 0 7 10v33q0 141 -156 141q-76 0 -114.5 -36.5t-47.5 -92.5q0 -8 -8 -8h-270q-9 0 -9 4v4q63 342 453 342q241 0 348 -101.5t107 -302.5v-329q0 -39 1 -71.5t4.5 -59t5.5 -42t8.5 -35.5t7.5 -25t9.5 -24 t8.5 -20q3 -8 -6 -8h-263q-10 0 -14 4q-33 38 -59 111q-2 4 -4.5 3.5t-4.5 -3.5q-54 -83 -128 -118.5t-181 -35.5q-152 0 -242 84t-90 219zM229 1133q-1 3 2 6l226 309q4 4 8 4h201q4 0 8 -4l225 -309q3 -3 2 -6t-4 -3h-223q-7 0 -12 7l-93 166q-4 8 -8 0l-92 -166 q-5 -7 -12 -7h-224q-3 0 -4 3zM348 276q0 -47 31.5 -73.5t93.5 -26.5q101 0 166.5 66t65.5 166v30q0 4 -7 4q-101 -8 -227 -36q-123 -28 -123 -130z" />
<glyph unicode="&#xe3;" d="M61 264q0 257 359 322q57 10 117.5 17.5t108 12t52.5 5.5q7 0 7 10v33q0 141 -156 141q-76 0 -114.5 -36.5t-47.5 -92.5q0 -8 -8 -8h-270q-9 0 -9 4v4q63 342 453 342q241 0 348 -101.5t107 -302.5v-329q0 -39 1 -71.5t4.5 -59t5.5 -42t8.5 -35.5t7.5 -25t9.5 -24 t8.5 -20q3 -8 -6 -8h-263q-10 0 -14 4q-33 38 -59 111q-2 4 -4.5 3.5t-4.5 -3.5q-54 -83 -128 -118.5t-181 -35.5q-152 0 -242 84t-90 219zM186 1157q0 65 27 127.5t81.5 107t123.5 44.5q15 0 31.5 -3t28.5 -6t31 -10.5t28 -11.5t30.5 -14t28.5 -13q6 -3 17 -8 q23 -11 35 -16t31 -11t29 -3t21.5 11t16 27.5t4.5 48.5q0 7 8 7h178q8 0 8 -9q0 -112 -59.5 -194t-155.5 -82q-52 0 -166 43q-10 4 -32.5 13.5t-36.5 14.5t-34 11t-33 4t-25.5 -8.5t-18.5 -24t-6 -45.5q0 -8 -6 -8h-176q-9 0 -9 8zM348 276q0 -47 31.5 -73.5t93.5 -26.5 q101 0 166.5 66t65.5 166v30q0 4 -7 4q-101 -8 -227 -36q-123 -28 -123 -130z" />
<glyph unicode="&#xe4;" d="M61 264q0 257 359 322q57 10 117.5 17.5t108 12t52.5 5.5q7 0 7 10v33q0 141 -156 141q-76 0 -114.5 -36.5t-47.5 -92.5q0 -8 -8 -8h-270q-9 0 -9 4v4q63 342 453 342q241 0 348 -101.5t107 -302.5v-329q0 -39 1 -71.5t4.5 -59t5.5 -42t8.5 -35.5t7.5 -25t9.5 -24 t8.5 -20q3 -8 -6 -8h-263q-10 0 -14 4q-33 38 -59 111q-2 4 -4.5 3.5t-4.5 -3.5q-54 -83 -128 -118.5t-181 -35.5q-152 0 -242 84t-90 219zM217 1161v250q0 6 6 6h248q6 0 6 -6v-250q0 -6 -6 -6h-248q-6 0 -6 6zM348 276q0 -47 31.5 -73.5t93.5 -26.5q101 0 166.5 66 t65.5 166v30q0 4 -7 4q-101 -8 -227 -36q-123 -28 -123 -130zM651 1161v250q0 6 6 6h248q6 0 6 -6v-250q0 -6 -6 -6h-248q-6 0 -6 6z" />
<glyph unicode="&#xe5;" d="M61 264q0 257 359 322q57 10 117.5 17.5t108 12t52.5 5.5q7 0 7 10v33q0 141 -156 141q-76 0 -114.5 -36.5t-47.5 -92.5q0 -8 -8 -8h-270q-9 0 -9 4v4q63 342 453 342q241 0 348 -101.5t107 -302.5v-329q0 -39 1 -71.5t4.5 -59t5.5 -42t8.5 -35.5t7.5 -25t9.5 -24 t8.5 -20q3 -8 -6 -8h-263q-10 0 -14 4q-33 38 -59 111q-2 4 -4.5 3.5t-4.5 -3.5q-54 -83 -128 -118.5t-181 -35.5q-152 0 -242 84t-90 219zM348 276q0 -47 31.5 -73.5t93.5 -26.5q101 0 166.5 66t65.5 166v30q0 4 -7 4q-101 -8 -227 -36q-123 -28 -123 -130zM356 1292 q0 88 60.5 147.5t148.5 59.5t148.5 -59.5t60.5 -147.5t-60.5 -148.5t-148.5 -60.5t-148.5 60.5t-60.5 148.5zM494 1292q0 -30 19.5 -49.5t49.5 -19.5t50 19.5t20 49.5t-20 50t-50 20q-29 0 -49 -20t-20 -50z" />
<glyph unicode="&#xe6;" horiz-adv-x="1769" d="M49 274q0 49 9.5 89t23.5 70t41 53.5t51.5 39.5t67 28t75 19t88 12.5t93 8t103 7t106.5 7.5q10 0 10 10v35q0 77 -42.5 111.5t-125.5 34.5q-138 0 -170 -117q-3 -8 -8 -8h-279q-8 0 -8 4v4q27 148 151 241t316 93q101 0 173 -20.5t109.5 -52.5t59.5 -79q46 64 134 108 t192 44q241 0 370 -141t129 -392q0 -73 -8 -73h-682q-6 0 -6 -7q0 -103 52 -159t171 -56q86 0 129.5 30t61.5 91q2 6 7 6h1.5h1.5h258q4 -2 4 -6v-6q-21 -74 -57 -133.5t-92 -107.5t-139.5 -74.5t-188.5 -26.5q-124 0 -235 64.5t-144 150.5q-40 -94 -151.5 -154.5 t-286.5 -60.5q-174 0 -269.5 83t-95.5 230zM334 285q0 -53 33.5 -79t107.5 -26q105 0 173.5 61.5t68.5 155.5v33q0 4 -6 4q-25 -3 -113 -10.5t-139 -13.5q-70 -7 -97.5 -35t-27.5 -90zM1022 606q0 -6 6 -6h379q6 0 6 6v6q-6 181 -194 181q-95 0 -146 -49.5t-51 -137.5z" />
<glyph unicode="&#xe7;" horiz-adv-x="1122" d="M72 420v135q0 220 139 341.5t367 121.5q238 0 362.5 -108t124.5 -287q0 -11 -8 -11h-279q-8 0 -8 9q0 85 -50 128.5t-142 43.5q-94 0 -145.5 -56t-51.5 -198v-101q0 -128 54 -193t143 -65q85 0 137.5 42t52.5 134q0 9 8 9h279q8 0 8 -11q0 -174 -116.5 -280t-317.5 -113 q-8 0 -11 -8l-10 -59q-3 -9 4 -9q34 6 66 6q80 0 129 -49t49 -135q0 -81 -65.5 -141t-163.5 -60q-97 0 -160.5 42t-69.5 114q0 8 6 8h132q3 0 6.5 -8.5t9 -19t24 -19t46.5 -8.5q39 0 61.5 25t22.5 63q0 44 -26 67t-89 23q-61 0 -148 -26q-3 -1 -4.5 1t-1.5 5l37 180 q3 14 -8 14q-175 29 -284 148.5t-109 304.5z" />
<glyph unicode="&#xe8;" horiz-adv-x="1165" d="M82 459q0 -239 141 -368.5t387 -129.5q105 0 187 25t138.5 72t93.5 106t61 135q1 4 -1 5t-6 1h-258q-8 0 -10 -6q-38 -111 -190 -111q-121 0 -181.5 57.5t-60.5 157.5q0 7 6 7h705q3 0 6 6q8 12 8 67q0 252 -127 393.5t-383 141.5q-243 0 -379.5 -132t-136.5 -360v-67z M315 1442q-5 10 4 10h283q9 0 12 -10l82 -301q3 -11 -6 -11h-172q-8 0 -14 9zM383 612q0 88 55.5 136.5t159.5 48.5q201 0 207 -185q0 -6 -6 -6h-410q-6 0 -6 6z" />
<glyph unicode="&#xe9;" horiz-adv-x="1165" d="M82 459q0 -239 141 -368.5t387 -129.5q105 0 187 25t138.5 72t93.5 106t61 135q1 4 -1 5t-6 1h-258q-8 0 -10 -6q-38 -111 -190 -111q-121 0 -181.5 57.5t-60.5 157.5q0 7 6 7h705q3 0 6 6q8 12 8 67q0 252 -127 393.5t-383 141.5q-243 0 -379.5 -132t-136.5 -360v-67z M383 612q0 88 55.5 136.5t159.5 48.5q201 0 207 -185q0 -6 -6 -6h-410q-6 0 -6 6zM498 1141l82 301q3 10 12 10h282q10 0 5 -10l-189 -303q-6 -9 -14 -9h-172q-9 0 -6 11z" />
<glyph unicode="&#xea;" horiz-adv-x="1165" d="M82 459v67q0 228 136.5 360t379.5 132q256 0 383 -141.5t127 -393.5q0 -55 -8 -67q-3 -6 -6 -6h-705q-6 0 -6 -7q0 -100 60.5 -157.5t181.5 -57.5q152 0 190 111q2 6 10 6h258q8 0 7 -4v-2q-24 -76 -61 -135t-93.5 -106t-138.5 -72t-187 -25q-246 0 -387 129.5 t-141 368.5zM258 1133q-1 3 2 6l225 309q4 4 9 4h200q4 0 8 -4l226 -309q3 -3 2 -6t-4 -3h-224q-7 0 -12 7l-92 166q-4 8 -8 0l-92 -166q-5 -7 -13 -7h-223q-3 0 -4 3zM383 612q0 -6 6 -6h410q6 0 6 6q-6 185 -207 185q-104 0 -159.5 -48.5t-55.5 -136.5z" />
<glyph unicode="&#xeb;" horiz-adv-x="1165" d="M82 459q0 -239 141 -368.5t387 -129.5q105 0 187 25t138.5 72t93.5 106t61 135q1 4 -1 5t-6 1h-258q-8 0 -10 -6q-38 -111 -190 -111q-121 0 -181.5 57.5t-60.5 157.5q0 7 6 7h705q3 0 6 6q8 12 8 67q0 252 -127 393.5t-383 141.5q-243 0 -379.5 -132t-136.5 -360v-67z M246 1161v250q0 6 6 6h248q6 0 6 -6v-250q0 -6 -6 -6h-248q-6 0 -6 6zM383 612q0 88 55.5 136.5t159.5 48.5q201 0 207 -185q0 -6 -6 -6h-410q-6 0 -6 6zM680 1161v250q0 6 6 6h248q6 0 6 -6v-250q0 -6 -6 -6h-248q-6 0 -6 6z" />
<glyph unicode="&#xec;" horiz-adv-x="536" d="M-18 1442q-5 10 4 10h282q10 0 13 -10l81 -301q3 -11 -6 -11h-172q-8 0 -14 9zM113 8q0 -8 8 -8h295q8 0 8 8v959q0 8 -8 8h-295q-8 0 -8 -8v-959z" />
<glyph unicode="&#xed;" horiz-adv-x="536" d="M113 8q0 -8 8 -8h295q8 0 8 8v959q0 8 -8 8h-295q-8 0 -8 -8v-959zM170 1141l82 301q3 10 12 10h283q9 0 4 -10l-189 -303q-6 -9 -14 -9h-172q-9 0 -6 11z" />
<glyph unicode="&#xee;" horiz-adv-x="536" d="M-67.5 1133q-1.5 3 1.5 6l226 309q4 4 8 4h201q4 0 8 -4l225 -309q3 -3 2 -6t-4 -3h-223q-7 0 -12 7l-93 166q-4 8 -8 0l-92 -166q-5 -7 -12 -7h-223q-3 0 -4.5 3zM113 8v959q0 8 8 8h295q8 0 8 -8v-959q0 -8 -8 -8h-295q-8 0 -8 8z" />
<glyph unicode="&#xef;" horiz-adv-x="536" d="M-80 1159v250q0 6 6 6h248q6 0 6 -6v-250q0 -6 -6 -6h-248q-6 0 -6 6zM113 8q0 -8 8 -8h295q8 0 8 8v959q0 8 -8 8h-295q-8 0 -8 -8v-959zM354 1159v250q0 6 6 6h248q6 0 6 -6v-250q0 -6 -6 -6h-248q-6 0 -6 6z" />
<glyph unicode="&#xf0;" horiz-adv-x="1118" d="M53 385q0 87 29 165.5t82 139.5t135 97t182 36q74 0 146 -22t102 -49q6 -6 6 4q-21 82 -72.5 170.5t-113.5 142.5q-1 1 -5 1t-5 -1l-318 -201q-6 -2 -6 4v193q0 4 4 8l160 101q4 4 0 6q-25 13 -73 29.5t-85 23.5q-6 0 -6 6v203q0 4 8 4q86 -7 193 -43.5t184 -83.5 q5 -3 8 0l260 164q6 3 6 -4v-191q0 -6 -6 -12l-120 -76q-3 -3 0 -6q60 -71 101.5 -134t77.5 -147.5t54 -189.5t18 -234q0 -102 -32.5 -196.5t-92.5 -169.5t-153 -119.5t-205 -44.5q-95 0 -178 26.5t-147 77.5t-101 134t-37 188zM307 385q0 -95 61.5 -148t147.5 -53 q90 0 147.5 63.5t57.5 141.5q0 32 -11.5 64.5t-35 62.5t-65.5 49t-97 19q-84 0 -144.5 -51.5t-60.5 -147.5z" />
<glyph unicode="&#xf1;" horiz-adv-x="1173" d="M109 8v959q0 8 8 8h221q9 0 12 -8l60 -144q3 -8 8 0q50 79 134.5 137t190.5 58q160 0 241 -105t81 -268v-637q0 -8 -8 -8h-293q-8 0 -8 8l2 619q0 67 -40.5 105t-111.5 38q-79 0 -133.5 -59t-54.5 -131v-572q0 -8 -8 -8h-293q-8 0 -8 8zM207 1155q0 65 26.5 127.5t81 107 t123.5 44.5q15 0 31.5 -3t28.5 -6t31 -10.5t28 -11.5t30.5 -14t28.5 -13q6 -3 17 -8q23 -11 35 -16t31 -11t29 -3t21.5 11t16 27.5t4.5 48.5q0 7 8 7h178q9 0 9 -9q0 -112 -59.5 -194t-155.5 -82q-52 0 -166 43q-10 4 -32.5 13.5t-36.5 14.5t-34.5 11t-33 4t-25.5 -8.5 t-19 -24t-6 -45.5q0 -8 -6 -8h-176q-8 0 -8 8z" />
<glyph unicode="&#xf2;" horiz-adv-x="1196" d="M72 403v164q0 194 143.5 322.5t382.5 128.5q233 0 379.5 -130.5t146.5 -320.5v-164q0 -85 -37 -164.5t-103 -141.5t-166.5 -99t-219.5 -37t-220 37t-167 98.5t-102.5 141t-36.5 165.5zM315 1442q-5 10 4 10h283q9 0 12 -10l82 -301q3 -11 -6 -11h-172q-8 0 -14 9z M369 438q0 -119 60.5 -185.5t168.5 -66.5q111 0 169 66.5t58 185.5v94q0 124 -60 189t-167 65q-109 0 -169 -65t-60 -189v-94z" />
<glyph unicode="&#xf3;" horiz-adv-x="1196" d="M72 403v164q0 194 143.5 322.5t382.5 128.5q233 0 379.5 -130.5t146.5 -320.5v-164q0 -85 -37 -164.5t-103 -141.5t-166.5 -99t-219.5 -37t-220 37t-167 98.5t-102.5 141t-36.5 165.5zM369 438q0 -119 60.5 -185.5t168.5 -66.5q111 0 169 66.5t58 185.5v94q0 124 -60 189 t-167 65q-109 0 -169 -65t-60 -189v-94zM494 1141l81 301q3 10 13 10h282q9 0 4 -10l-188 -303q-6 -9 -14 -9h-172q-9 0 -6 11z" />
<glyph unicode="&#xf4;" horiz-adv-x="1196" d="M72 403v164q0 194 143.5 322.5t382.5 128.5q233 0 379.5 -130.5t146.5 -320.5v-164q0 -85 -37 -164.5t-103 -141.5t-166.5 -99t-219.5 -37t-220 37t-167 98.5t-102.5 141t-36.5 165.5zM262 1133q-1 3 2 6l225 309q4 4 9 4h200q5 0 9 -4l225 -309q3 -3 2 -6t-4 -3h-223 q-8 0 -13 7l-92 166q-4 8 -8 0l-92 -166q-5 -7 -13 -7h-223q-3 0 -4 3zM369 438q0 -119 60.5 -185.5t168.5 -66.5q111 0 169 66.5t58 185.5v94q0 124 -60 189t-167 65q-109 0 -169 -65t-60 -189v-94z" />
<glyph unicode="&#xf5;" horiz-adv-x="1196" d="M72 403v164q0 194 143.5 322.5t382.5 128.5q233 0 379.5 -130.5t146.5 -320.5v-164q0 -85 -37 -164.5t-103 -141.5t-166.5 -99t-219.5 -37t-220 37t-167 98.5t-102.5 141t-36.5 165.5zM219 1157q0 65 27 127.5t81.5 107t123.5 44.5q15 0 31.5 -3t28.5 -6t31 -10.5 t28 -11.5t30.5 -14t28.5 -13q6 -3 17 -8l30 -13.5t27 -10.5t26 -6t21 3.5t17.5 13.5t10 27.5t4.5 42.5q0 7 9 7h178q8 0 8 -9q0 -112 -59.5 -194t-155.5 -82q-52 0 -166 43q-10 4 -32.5 13.5t-36.5 14.5t-34 11t-33 4t-25.5 -8.5t-18.5 -24t-6 -45.5q0 -8 -7 -8h-176 q-8 0 -8 8zM369 438q0 -119 60.5 -185.5t168.5 -66.5q111 0 169 66.5t58 185.5v94q0 124 -60 189t-167 65q-109 0 -169 -65t-60 -189v-94z" />
<glyph unicode="&#xf6;" horiz-adv-x="1196" d="M72 403v164q0 194 143.5 322.5t382.5 128.5q233 0 379.5 -130.5t146.5 -320.5v-164q0 -85 -37 -164.5t-103 -141.5t-166.5 -99t-219.5 -37t-220 37t-167 98.5t-102.5 141t-36.5 165.5zM250 1161v250q0 6 6 6h248q6 0 6 -6v-250q0 -6 -6 -6h-248q-6 0 -6 6zM369 438 q0 -119 60.5 -185.5t168.5 -66.5q111 0 169 66.5t58 185.5v94q0 124 -60 189t-167 65q-109 0 -169 -65t-60 -189v-94zM684 1161v250q0 6 6 6h248q6 0 6 -6v-250q0 -6 -6 -6h-248q-6 0 -6 6z" />
<glyph unicode="&#xf7;" horiz-adv-x="1181" d="M113 592v215q0 8 8 8h940q8 0 8 -8v-215q0 -8 -8 -8h-940q-8 0 -8 8zM432 373q0 65 46 110t112 45q64 0 109.5 -45t45.5 -110q0 -66 -45 -112t-110 -46q-66 0 -112 46t-46 112zM432 1034q0 65 46 110.5t112 45.5q64 0 109.5 -45.5t45.5 -110.5q0 -66 -45 -111.5 t-110 -45.5q-66 0 -112 45.5t-46 111.5z" />
<glyph unicode="&#xf8;" horiz-adv-x="1134" d="M55 399v179q0 192 141 315t371 123q97 0 189 -29l82 156q3 6 8 6h139l4 -2v-4l-112 -211q96 -59 149 -151.5t53 -202.5v-177q0 -195 -141 -317.5t-371 -122.5q-94 0 -190 27l-68 -131q-3 -7 -8 -7h-137q-6 0 -6 3q0 1 1 2t1 2l96 182q-96 57 -148.5 150.5t-52.5 209.5z M354 418q0 -79 29 -135l260 493q-38 10 -76 10q-98 0 -155.5 -60.5t-57.5 -182.5v-125zM489 197q42 -11 78 -11q101 0 156 57.5t55 172.5v127q0 89 -30 145z" />
<glyph unicode="&#xf9;" horiz-adv-x="1159" d="M102 328v639q0 8 9 8h292q9 0 9 -8v-631q0 -143 127 -143q57 0 103 38.5t69.5 95t23.5 115.5v525q0 8 8 8h295q9 0 9 -8v-959q0 -8 -9 -8h-227q-6 0 -10 8l-60 123q-4 8 -8 0q-20 -33 -58 -69t-108 -68.5t-145 -32.5q-66 0 -119.5 17t-100.5 56t-73.5 114t-26.5 180z M289 1442q-5 10 4 10h282q10 0 13 -10l82 -301q3 -11 -6 -11h-172q-9 0 -15 9z" />
<glyph unicode="&#xfa;" horiz-adv-x="1159" d="M102 328v639q0 8 9 8h292q9 0 9 -8v-631q0 -143 127 -143q57 0 103 38.5t69.5 95t23.5 115.5v525q0 8 8 8h295q9 0 9 -8v-959q0 -8 -9 -8h-227q-6 0 -10 8l-60 123q-4 8 -8 0q-20 -33 -58 -69t-108 -68.5t-145 -32.5q-66 0 -119.5 17t-100.5 56t-73.5 114t-26.5 180z M471 1141l82 301q3 10 12 10h283q9 0 4 -10l-188 -303q-6 -9 -15 -9h-172q-9 0 -6 11z" />
<glyph unicode="&#xfb;" horiz-adv-x="1159" d="M102 328v639q0 8 9 8h292q9 0 9 -8v-631q0 -143 127 -143q57 0 103 38.5t69.5 95t23.5 115.5v525q0 8 8 8h295q9 0 9 -8v-959q0 -8 -9 -8h-227q-6 0 -10 8l-60 123q-4 8 -8 0q-20 -33 -58 -69t-108 -68.5t-145 -32.5q-66 0 -119.5 17t-100.5 56t-73.5 114t-26.5 180z M238 1133q-1 3 2 6l225 309q4 4 8 4h201q4 0 8 -4l225 -309q3 -3 2 -6t-4 -3h-223q-7 0 -12 7l-92 166q-2 3 -5 3t-4 -3l-92 -166q-5 -7 -12 -7h-223q-3 0 -4 3z" />
<glyph unicode="&#xfc;" horiz-adv-x="1159" d="M102 328v639q0 8 9 8h292q9 0 9 -8v-631q0 -143 127 -143q57 0 103 38.5t69.5 95t23.5 115.5v525q0 8 8 8h295q9 0 9 -8v-959q0 -8 -9 -8h-227q-6 0 -10 8l-60 123q-4 8 -8 0q-20 -33 -58 -69t-108 -68.5t-145 -32.5q-66 0 -119.5 17t-100.5 56t-73.5 114t-26.5 180z M225 1159v250q0 6 6 6h248q6 0 6 -6v-250q0 -6 -6 -6h-248q-6 0 -6 6zM659 1159v250q0 6 7 6h247q7 0 7 -6v-250q0 -6 -7 -6h-247q-7 0 -7 6z" />
<glyph unicode="&#xfd;" horiz-adv-x="1032" d="M2 967l371 -940v-11l-74 -198q-15 -40 -36.5 -61t-37 -25t-39.5 -4q-73 0 -118 57q-2 2 -6.5 1t-4.5 -5v-215q0 -6 9 -19q15 -19 58.5 -34t94.5 -15q56 0 98.5 12t86.5 44t84 93.5t77 155.5q36 90 204.5 495t272.5 669q0 8 -6 8h-297q-13 0 -16 -8l-195 -596q-4 -7 -6 0 l-190 596q-3 8 -17 8h-307q-9 0 -6 -8zM426 1141l82 301q3 10 12 10h283q9 0 4 -10l-189 -303q-6 -9 -14 -9h-172q-9 0 -6 11z" />
<glyph unicode="&#xfe;" horiz-adv-x="1173" d="M102 -514v1898q0 9 9 9h292q9 0 9 -9v-530q0 -9 6 0q42 75 110 119.5t156 44.5q100 0 180.5 -37t131.5 -99.5t78.5 -143.5t27.5 -171v-168q0 -193 -111.5 -315.5t-308.5 -122.5q-103 0 -175 50.5t-89 103.5q-2 7 -5 5q-1 -1 -1 -5v-629q0 -8 -9 -8h-292q-9 0 -9 8z M412 471q0 -131 58 -208t151 -77q172 0 172 203v178q0 99 -47 153t-144 54q-93 0 -141.5 -68t-48.5 -169v-66z" />
<glyph unicode="&#xff;" horiz-adv-x="1032" d="M2 967l371 -940v-11l-74 -198q-15 -40 -36.5 -61t-37 -25t-39.5 -4q-73 0 -118 57q-2 2 -6.5 1t-4.5 -5v-215q0 -6 9 -19q15 -19 58.5 -34t94.5 -15q56 0 98.5 12t86.5 44t84 93.5t77 155.5q36 90 204.5 495t272.5 669q0 8 -6 8h-297q-13 0 -16 -8l-195 -596q-4 -7 -6 0 l-190 596q-3 8 -17 8h-307q-9 0 -6 -8zM172 1165v250q0 6 6 6h248q6 0 6 -6v-250q0 -6 -6 -6h-248q-6 0 -6 6zM606 1165v250q0 6 6 6h248q6 0 6 -6v-250q0 -6 -6 -6h-248q-6 0 -6 6z" />
<glyph unicode="&#x152;" horiz-adv-x="2174" d="M106 582v237q0 297 142.5 462t408.5 165q144 0 256.5 -59t165.5 -162q6 -12 6 0v159q0 9 9 9h1003q8 0 8 -9v-215q0 -8 -8 -8h-694q-8 0 -8 -8v-307q0 -8 8 -8h625q8 0 8 -9v-206q0 -9 -8 -9h-625q-8 0 -8 -8v-366q0 -9 8 -9h706q9 0 9 -8v-215q0 -8 -9 -8h-1015 q-9 0 -9 8v187q0 8 -4 0q-62 -109 -170.5 -171.5t-253.5 -62.5q-157 0 -264.5 38.5t-170.5 119.5t-89.5 192.5t-26.5 270.5zM434 621q0 -96 18 -174t55.5 -138t100 -93.5t146.5 -33.5q90 0 154 33.5t102 99t55.5 153.5t17.5 206v125q0 120 -36.5 215t-112.5 153t-180 58 q-320 0 -320 -453v-151z" />
<glyph unicode="&#x153;" horiz-adv-x="1824" d="M72 391v191q0 193 135 314.5t364 121.5q108 0 205 -49t144 -121q5 -7 8 0q43 72 140.5 121t199.5 49q241 0 370 -142t129 -393q0 -49 -4 -69q0 -4 -4 -4h-682q-6 0 -6 -4v-23q0 -195 223 -195q86 0 128.5 30t62.5 91q2 6 10 6h258q6 0 4 -6q-107 -348 -477 -348 q-117 0 -212 45.5t-140 126.5q-3 7 -8 0q-114 -172 -349 -172q-231 0 -365 117.5t-134 312.5zM379 410q0 -111 43.5 -165.5t148.5 -54.5q191 0 191 220v143q0 120 -47 177.5t-144 57.5q-106 0 -149 -56.5t-43 -178.5v-143zM1071 606q0 -6 6 -6h379q6 0 6 6q-6 189 -194 189 q-94 0 -145.5 -50t-51.5 -139z" />
<glyph unicode="&#x178;" horiz-adv-x="1335" d="M2 1384q-4 9 4 9h326q6 0 12 -9l320 -573q3 -7 8 0l321 573q6 9 13 9h323q3 0 4.5 -3t-0.5 -6l-506 -815q-4 -8 -4 -12v-549q0 -8 -8 -8h-295q-8 0 -8 8v551q0 2 -4 10zM319 1585v250q0 6 7 6h247q7 0 7 -6v-250q0 -6 -7 -6h-247q-7 0 -7 6zM754 1585v250q0 6 6 6h248 q6 0 6 -6v-250q0 -6 -6 -6h-248q-6 0 -6 6z" />
<glyph unicode="&#x2c6;" horiz-adv-x="1019" d="M178 1073.5q-1 2.5 2 5.5l226 310q4 4 8 4h200q5 0 9 -4l225 -310q3 -3 2 -5.5t-4 -2.5h-223q-9 0 -13 6l-92 166q-4 8 -8 0l-92 -166q-4 -6 -12 -6h-224q-3 0 -4 2.5z" />
<glyph unicode="&#x2dc;" horiz-adv-x="1024" d="M125 1167q0 65 26.5 127.5t81 107t123.5 44.5q13 0 26 -1.5t27.5 -5.5t24 -6.5t27 -10t23.5 -10t26.5 -12t24.5 -11.5q6 -3 17 -8l30 -13.5t27 -10.5t26 -6t21 3.5t17.5 13.5t10 27.5t4.5 42.5q0 6 8 6h178q9 0 9 -8q0 -112 -59.5 -194.5t-155.5 -82.5q-52 0 -166 43 q-10 4 -32.5 13.5t-36.5 14.5t-34.5 11t-33 4t-25.5 -8.5t-19 -24t-6 -45.5q0 -8 -6 -8h-176q-8 0 -8 8z" />
<glyph unicode="&#x2000;" horiz-adv-x="961" />
<glyph unicode="&#x2001;" horiz-adv-x="1923" />
<glyph unicode="&#x2002;" horiz-adv-x="961" />
<glyph unicode="&#x2003;" horiz-adv-x="1923" />
<glyph unicode="&#x2004;" horiz-adv-x="641" />
<glyph unicode="&#x2005;" horiz-adv-x="480" />
<glyph unicode="&#x2006;" horiz-adv-x="320" />
<glyph unicode="&#x2007;" horiz-adv-x="320" />
<glyph unicode="&#x2008;" horiz-adv-x="240" />
<glyph unicode="&#x2009;" horiz-adv-x="384" />
<glyph unicode="&#x200a;" horiz-adv-x="106" />
<glyph unicode="&#x2010;" horiz-adv-x="806" d="M113 381v215q0 8 8 8h565q8 0 8 -8v-215q0 -8 -8 -8h-565q-8 0 -8 8z" />
<glyph unicode="&#x2011;" horiz-adv-x="806" d="M113 381v215q0 8 8 8h565q8 0 8 -8v-215q0 -8 -8 -8h-565q-8 0 -8 8z" />
<glyph unicode="&#x2012;" horiz-adv-x="806" d="M113 381v215q0 8 8 8h565q8 0 8 -8v-215q0 -8 -8 -8h-565q-8 0 -8 8z" />
<glyph unicode="&#x2013;" horiz-adv-x="1284" d="M113 494v215q0 8 8 8h1042q8 0 8 -8v-215q0 -9 -8 -9h-1042q-8 0 -8 9z" />
<glyph unicode="&#x2014;" horiz-adv-x="1656" d="M113 494v215q0 8 8 8h1415q8 0 8 -8v-215q0 -9 -8 -9h-1415q-8 0 -8 9z" />
<glyph unicode="&#x2018;" horiz-adv-x="538" d="M113 662v208q0 84 4 146.5t15.5 129t34 112.5t57.5 84t89 56.5t125 18.5q5 0 6.5 -1t1.5 -7v-106q0 -9 -8 -9q-84 0 -124 -62t-40 -206q0 -8 9 -8h147q5 0 6.5 -1t1.5 -7v-348q0 -9 -8 -9h-309q-8 0 -8 9z" />
<glyph unicode="&#x2019;" horiz-adv-x="538" d="M92 637v106q0 9 8 9q84 0 124 62t40 206q0 8 -8 8h-147q-9 0 -9 8v348q0 9 9 9h309q8 0 8 -9v-208q0 -102 -6 -174.5t-25.5 -147.5t-54 -121t-95 -75t-145.5 -29q-5 0 -6.5 1t-1.5 7z" />
<glyph unicode="&#x201a;" horiz-adv-x="579" d="M113 -285q0 9 8 9q84 0 124 62t40 206q0 8 -9 8h-147q-5 0 -6.5 1t-1.5 7v348q0 9 8 9h309q8 0 8 -9v-209q0 -84 -4 -146.5t-15.5 -129t-34 -112t-57.5 -83.5t-89 -56.5t-125 -18.5q-5 0 -6.5 1t-1.5 7v106z" />
<glyph unicode="&#x201c;" horiz-adv-x="987" d="M113 662v208q0 84 4 146.5t15.5 129t34 112.5t57.5 84t89 56.5t125 18.5q5 0 6.5 -1t1.5 -7v-106q0 -9 -8 -9q-84 0 -124 -62t-40 -206q0 -8 9 -8h147q5 0 6.5 -1t1.5 -7v-348q0 -9 -8 -9h-309q-8 0 -8 9zM561 662v208q0 102 6 174.5t25.5 147.5t54 121t95 75t145.5 29 q5 0 6.5 -1t1.5 -7v-106q0 -9 -8 -9q-84 0 -124 -62t-40 -206q0 -8 8 -8h148q5 0 6.5 -1t1.5 -7v-348q0 -9 -8 -9h-310q-8 0 -8 9z" />
<glyph unicode="&#x201d;" horiz-adv-x="987" d="M92 637v106q0 9 8 9q84 0 124 62t40 206q0 8 -8 8h-147q-9 0 -9 8v348q0 9 9 9h309q8 0 8 -9v-208q0 -102 -6 -174.5t-25.5 -147.5t-54 -121t-95 -75t-145.5 -29q-5 0 -6.5 1t-1.5 7zM541 637v106q0 9 8 9q84 0 124 62t40 206q0 8 -8 8h-148q-5 0 -6.5 1t-1.5 7v348 q0 9 8 9h309q8 0 8 -9v-208q0 -84 -4 -146.5t-15.5 -129t-34 -112.5t-57.5 -84t-89 -56.5t-125 -18.5q-5 0 -6.5 1t-1.5 7z" />
<glyph unicode="&#x201e;" horiz-adv-x="1028" d="M113 -285q0 9 8 9q84 0 124 62t40 206q0 8 -9 8h-147q-5 0 -6.5 1t-1.5 7v348q0 9 8 9h309q8 0 8 -9v-209q0 -84 -4 -146.5t-15.5 -129t-34 -112t-57.5 -83.5t-89 -56.5t-125 -18.5q-5 0 -6.5 1t-1.5 7v106zM561 -285q0 9 8 9q84 0 124 62t40 206q0 8 -8 8h-147 q-9 0 -9 8v348q0 9 9 9h309q8 0 8 -9v-209q0 -71 -2.5 -126t-11 -114.5t-23 -102.5t-39 -83t-58.5 -65t-82.5 -40t-109.5 -15q-5 0 -6.5 1t-1.5 7v106z" />
<glyph unicode="&#x2022;" horiz-adv-x="823" d="M113 686q0 123 88 211t211 88t211 -88t88 -211t-88 -211t-211 -88t-211 88t-88 211z" />
<glyph unicode="&#x2026;" horiz-adv-x="1990" d="M133 8v348q0 9 8 9h310q8 0 8 -9v-348q0 -8 -8 -8h-310q-5 0 -6.5 1t-1.5 7zM846 8v348q0 9 8 9h309q8 0 8 -9v-348q0 -8 -8 -8h-309q-5 0 -6.5 1t-1.5 7zM1532 8v348q0 9 8 9h309q9 0 9 -9v-348q0 -8 -9 -8h-309q-5 0 -6.5 1t-1.5 7z" />
<glyph unicode="&#x202f;" horiz-adv-x="384" />
<glyph unicode="&#x2039;" horiz-adv-x="512" d="M72 424v272q0 7 4 11l368 309q7 7 7 -2v-326q0 -6 -5 -8l-159 -119q-2 -2 0 -4l159 -117q5 -2 5 -8v-328q-2 -5 -7 0l-368 310q-4 4 -4 10z" />
<glyph unicode="&#x203a;" horiz-adv-x="512" d="M61 104v328q0 6 5 8l159 117q2 2 0 4l-159 119q-5 2 -5 8v326q0 2 2 3t5 -1l368 -309q4 -4 4 -11v-272q0 -6 -4 -10l-368 -310q-5 -5 -7 0z" />
<glyph unicode="&#x205f;" horiz-adv-x="480" />
<glyph unicode="&#x20ac;" horiz-adv-x="1478" d="M2 451v188q0 8 8 8h123q8 0 8 8v86q0 9 -8 9h-123q-8 0 -8 8v188q0 8 8 8h140q8 0 8 9q40 211 203 343t417 132q291 0 449.5 -145.5t158.5 -389.5q0 -8 -6 -8h-301q-8 0 -8 6q0 141 -74.5 224t-205.5 83t-210 -56t-110 -189q0 -9 8 -9h297q8 0 8 -8v-188q0 -8 -8 -8h-317 q-8 0 -8 -9v-86q0 -8 8 -8h317q8 0 8 -8v-188q0 -9 -8 -9h-291q-8 0 -8 -8q70 -241 316 -241q141 0 209.5 79t68.5 207q0 6 6 6h303q6 0 6 -6q0 -102 -34.5 -192t-104 -164.5t-188 -118t-273.5 -43.5q-264 0 -420 126.5t-202 346.5q0 8 -8 8h-146q-8 0 -8 9z" />
<glyph unicode="&#x2122;" horiz-adv-x="1789" d="M25 1227v159q0 7 6 7h1022q7 0 10 -9l170 -454q3 -6 6 0l170 454q3 9 10 9h271q8 0 8 -9v-745q0 -6 -6 -6h-219q-7 0 -7 6v215q0 150 9 264q0 4 -3.5 3t-3.5 -3l-184 -479q-3 -6 -6 -6h-84q-3 0 -6 6l-184 479q-2 3 -4.5 3t-2.5 -3q9 -88 9 -264v-215q0 -6 -7 -6h-219 q-6 0 -6 6v575q0 7 -6 7h-248q-6 0 -6 -7v-575q0 -6 -6 -6h-219q-6 0 -6 6v575q0 7 -7 7h-245q-6 0 -6 6z" />
<glyph unicode="&#x25fc;" horiz-adv-x="972" d="M0 0v973h973v-973h-973z" />
</font>
</defs>
</svg>
