<?xml  version="1.0" encoding="UTF-8"?>
<!DOCTYPE svg PUBLIC "-//W3C//DTD SVG 1.0//EN" "http://www.w3.org/TR/2001/REC-SVG-20010904/DTD/svg10.dtd" >
<svg xmlns="http://www.w3.org/2000/svg" >
<metadata>
<version>1.0</version>
<id><![CDATA[Co Headline W23 Arabic Bold]]></id>
<vendor>Monotype Imaging Inc.</vendor>
<credits>
<name>Fonts.com WebFonts</name>
<URL>http://webfonts.fonts.com</URL>
<role>Home of the Web fonts</role>
</credits>
<license>
<URL>http://webfonts.fonts.com/Legal</URL>
</license>
<copyright><![CDATA[Copyright 2011 Dalton Maag Ltd. Modification of this file requires prior written permission from Dalton Maag Ltd.]]></copyright>
<trademark><![CDATA[Co, Dalton Maag and DaMa are registered trademarks of Dalton Maag Ltd.]]></trademark>
<licensee>
<name></name>
</licensee>
</metadata>
<defs >
<font horiz-adv-x="645" id="05e393a0-71df-4e02-b8ba-6f68f2b23b92">
<font-face font-family="" panose-1="2 11 8 3 6 2 2 2 2 4" ascent="1310" descent="-431" units-per-em="1000" alphabetic="0">
</font-face>
<missing-glyph horiz-adv-x="500" d="M50 0V750H450V0H50ZM400 50V700H100V50H400Z"  />

<glyph unicode="&#xA;" horiz-adv-x="0" />
<glyph unicode="&#xD;" horiz-adv-x="0" />
<glyph unicode=" " horiz-adv-x="246" />
<glyph unicode="!" horiz-adv-x="278" d="M58 615Q58 654 81 670T142 686Q169 686 191 680T219 671V245H58V615ZM43 76Q43 95 50 111T71 140T102 160T139 168Q158 168 175 161T206 141T227 112T235 76Q235 57 228 40T207 11T176 -9T139 -17Q119 -17 102 -10T72 10T51 40T43 76Z"  />
<glyph unicode="&quot;" horiz-adv-x="573" d="M85 668Q85 706 107 721T167 737Q193 737 214 731T242 723V422H85V668ZM331 668Q331 706 353 721T413 737Q439 737 460 731T488 723V422H331V668Z"  />
<glyph unicode="#" horiz-adv-x="755" d="M116 0L140 145H109Q69 145 52 161T35 210Q35 233 42 253T53 278H163L187 421H156Q116 421 99 437T82 485Q82 509 89 528T100 554H210L225 643Q231 677 253 690T307 704Q330 704 348 699T371 691L347 554H478L493 643Q498 677 520 690T574 704Q598 704 615 699T638 691L614 554H646Q686 554 703 538T720 489Q720 466 713 446T702 421H592L567 278H599Q639 278 656 262T673 214Q673 190 666 171T655 145H546L521 0H383L408 145H278L254 0H116ZM300 278H431L455 421H324L300 278Z"  />
<glyph unicode="$" horiz-adv-x="655" d="M92 201Q97 197 113 189T154 171T211 153T281 141V271L256 276Q218 283 180 296T112 331T63 389T44 476Q44 518 58 555T102 622T176 669T281 692V758Q281 778 292 787T324 796Q339 796 350 793T365 788V691Q437 685 477 670T530 647Q546 637 561 620T576 580Q576 563 571 548T557 521T539 499T523 485Q507 502 466 521T365 549V411L391 406Q444 395 484 380T552 342T593 286T607 207Q607 113 544 59T365 -5V-108H281V-5Q228 -2 183 9T105 33T51 57T26 73L92 201ZM281 550Q255 547 241 540T218 524T208 505T206 486Q206 477 208 469T218 454T240 441T281 428V550ZM365 141Q389 144 404 149T427 162T437 179T440 199Q440 221 424 234T365 256V141Z"  />
<glyph unicode="%" horiz-adv-x="1030" d="M25 537Q25 579 41 615T85 679T152 721T234 737Q278 737 316 722T383 679T428 616T444 537Q444 495 428 459T384 396T317 354T234 338Q190 338 152 353T86 396T41 459T25 537ZM234 462Q265 462 286 483T307 537Q307 569 286 591T234 613Q203 613 182 591T161 537Q161 505 182 484T234 462ZM586 182Q586 224 602 260T646 324T713 366T795 382Q839 382 877 367T944 324T989 261T1005 182Q1005 140 989 104T945 41T878 -1T795 -17Q751 -17 713 -2T647 41T602 104T586 182ZM795 107Q826 107 847 128T868 182Q868 214 847 236T795 258Q764 258 743 236T722 182Q722 150 743 129T795 107ZM629 686Q641 707 657 722T708 737Q725 737 739 733T765 724T783 714T792 708L381 0H231L629 686Z"  />
<glyph unicode="&amp;" horiz-adv-x="723" d="M467 277H313Q265 277 243 255T221 202Q221 187 226 174T247 149T290 132T360 125Q408 125 432 127T467 131V277ZM617 423Q662 423 680 406T698 353Q698 327 691 306T679 277H629V1Q597 -5 535 -11T369 -17Q209 -17 132 38T55 193Q55 250 85 289T161 350Q121 372 95 410T69 502Q69 550 88 587T140 651T221 690T326 704Q399 704 437 694T494 674Q539 651 539 611Q539 596 534 583T522 560T507 542T493 531Q487 536 473 542T439 555T395 565T346 569Q313 569 292 563T257 547T238 522T232 492Q232 462 256 443T343 423H617Z"  />
<glyph unicode="&apos;" horiz-adv-x="337" d="M90 668Q90 706 112 721T172 737Q198 737 219 731T247 723V422H90V668Z"  />
<glyph unicode="(" horiz-adv-x="353" d="M338 -132Q265 -120 210 -85T119 7T64 138T45 303Q45 393 63 467T118 598T210 689T338 737V585Q307 573 283 552T241 497T215 415T206 303Q206 238 215 191T241 109T282 54T338 20V-132Z"  />
<glyph unicode=")" horiz-adv-x="353" d="M15 20Q46 32 70 53T112 109T138 190T147 303Q147 367 138 415T112 496T71 551T15 585V737Q88 725 143 690T234 598T289 468T308 303Q308 213 290 139T234 8T143 -84T15 -132V20Z"  />
<glyph unicode="*" horiz-adv-x="553" d="M66 329L169 456L30 497Q30 499 30 503T29 514Q29 526 31 542T39 575Q47 594 60 606T96 619Q115 619 138 609L214 575L205 673V680Q205 711 227 724T281 737Q305 737 325 731T350 723L340 575L416 609Q439 619 458 619Q481 619 494 607T515 575Q521 559 523 543T525 514Q525 508 525 504T524 497L385 456L488 329L372 249L277 389L182 249L66 329Z"  />
<glyph unicode="+" horiz-adv-x="630" d="M236 264H123Q84 264 68 285T52 344Q52 371 58 391T67 417H236V534Q236 573 258 589T319 605Q346 605 367 599T394 590V417H507Q546 417 562 396T578 337Q578 310 572 290T563 264H394V81H236V264Z"  />
<glyph unicode="&#x2c;" horiz-adv-x="337" d="M86 107Q96 140 113 158T166 176Q184 176 200 171T228 160T248 146T260 134L129 -168L18 -126L86 107Z"  />
<glyph unicode="-" horiz-adv-x="337" d="M242 348Q278 348 292 327T307 270Q307 245 301 225T293 199H95Q59 199 45 220T30 277Q30 302 36 322T44 348H242Z"  />
<glyph unicode="." horiz-adv-x="337" d="M169 -17Q149 -17 132 -10T102 11T81 42T73 80Q73 99 80 116T101 147T132 168T169 176Q188 176 205 169T236 148T257 117T265 80Q265 60 258 43T237 12T206 -9T169 -17Z"  />
<glyph unicode="/" horiz-adv-x="368" d="M208 674Q217 704 232 720T281 737Q298 737 313 733T339 722T357 709T368 698L153 0H0L208 674Z"  />
<glyph unicode="0" horiz-adv-x="672" d="M336 -17Q265 -17 211 8T119 79T62 192T43 343Q43 427 62 493T118 607T210 679T336 704Q406 704 461 679T553 607T609 494T629 343Q629 259 610 193T553 80T461 8T336 -17ZM336 136Q395 136 428 186T461 343Q461 449 428 500T336 551Q276 551 243 500T210 343Q210 237 243 187T336 136Z"  />
<glyph unicode="1" horiz-adv-x="478" d="M216 491L95 397Q87 401 76 408T53 427T33 453T25 484Q25 520 44 540T98 587L157 631Q176 645 192 655T224 672T256 682T293 686Q308 686 323 684T349 678T368 671T378 667V0H216V491Z"  />
<glyph unicode="2" horiz-adv-x="564" d="M13 137Q20 141 47 159T109 201T178 251T234 296Q267 325 287 347T320 390T336 428T341 466Q341 504 313 531T228 559Q199 559 177 551T138 531T112 504T95 476Q86 479 73 486T47 505T25 530T15 564Q15 582 21 597T35 624Q40 631 54 644T93 671T156 694T247 704Q311 704 360 687T442 640T493 570T511 484Q511 419 487 371T435 291Q419 272 397 251T352 210T310 175T281 152H516V0H13V137Z"  />
<glyph unicode="3" horiz-adv-x="594" d="M81 180Q89 174 105 165T143 148T194 135T257 129Q319 129 345 151T371 204Q371 238 345 257T259 276H190Q186 283 178 305T170 353Q170 389 190 406T256 424H266Q320 424 341 443T362 491Q362 504 357 517T339 540T307 557T256 563Q222 563 197 554T154 533T126 507T113 484Q96 487 81 495T55 515T37 541T30 572Q30 588 35 603T55 635Q62 643 77 654T118 677T180 696T267 704Q333 704 382 688T463 646T512 584T528 509Q528 453 499 414T431 354Q488 331 513 289T539 196Q539 148 520 109T467 42T384 -1T277 -17Q218 -17 172 -8T92 14T37 38T8 57L81 180Z"  />
<glyph unicode="4" horiz-adv-x="634" d="M359 283V516Q333 500 308 478T263 430Q229 388 214 357T198 309Q198 292 211 288T245 283H359ZM359 133H208Q171 133 139 140T84 162T47 201T33 261Q33 294 42 327T66 391T100 452T142 507Q171 543 205 575T275 632T348 671T423 686Q471 686 492 678T519 666V283H528Q573 283 592 265T611 211Q611 185 603 163T591 133H519V0H359V133Z"  />
<glyph unicode="5" horiz-adv-x="575" d="M73 168Q79 164 95 158T133 145T182 133T239 128Q277 128 302 135T341 154T362 181T368 214Q368 230 363 246T341 274T296 295T218 303Q198 303 175 301T128 296T86 288T55 280L65 591Q67 639 90 662T164 686H422Q467 686 486 668T505 614Q505 588 497 566T485 536H212L209 436Q220 438 239 439T287 440Q356 440 403 422T479 374T521 303T534 220Q534 167 516 124T463 49T377 1T262 -17Q202 -17 157 -9T80 11T31 31T11 44L73 168Z"  />
<glyph unicode="6" horiz-adv-x="620" d="M271 659Q287 680 308 692T360 704Q382 704 400 699T432 686T454 673T465 663L324 470Q329 471 336 471T349 472Q407 472 451 454T525 404T570 332T585 244Q585 186 565 138T508 56T421 2T310 -17Q250 -17 200 1T115 53T59 134T39 237Q39 273 48 307T72 373T108 437T153 501L271 659ZM195 241Q195 191 226 160T309 128Q362 128 392 159T423 241Q423 291 392 323T309 356Q258 356 227 324T195 241Z"  />
<glyph unicode="7" horiz-adv-x="560" d="M109 0Q113 11 128 46T166 130T213 237T263 350T307 453T340 530H100Q54 530 35 549T15 606Q15 633 23 655T36 686H436Q479 686 502 663T525 594Q525 579 520 560T507 521Q499 498 483 459T445 371T400 269T354 165T312 71T279 0H109Z"  />
<glyph unicode="8" horiz-adv-x="680" d="M156 349Q112 376 91 415T69 497Q69 545 88 583T143 648T229 689T340 704Q401 704 451 690T536 649T591 584T611 497Q611 455 590 416T524 349Q575 322 600 281T625 193Q625 145 605 106T548 40T458 -2T340 -17Q275 -17 222 -3T132 39T75 106T55 193Q55 239 79 280T156 349ZM231 492Q231 460 256 438T340 415Q399 415 424 437T449 492Q449 508 443 522T424 546T391 563T340 570Q310 570 290 564T256 547T237 522T231 492ZM219 203Q219 168 248 146T340 123Q403 123 432 145T461 203Q461 237 432 259T340 282Q277 282 248 260T219 203Z"  />
<glyph unicode="9" horiz-adv-x="620" d="M294 218Q289 217 282 217T269 216Q211 216 167 234T93 284T48 356T33 444Q33 502 53 550T110 632T197 686T308 705Q368 705 418 687T503 635T559 554T579 451Q579 415 570 381T546 315T510 251T465 187L321 -8H128L294 218ZM309 332Q360 332 391 364T423 447Q423 497 392 528T309 560Q256 560 226 529T195 447Q195 397 226 365T309 332Z"  />
<glyph unicode=":" horiz-adv-x="337" d="M169 317Q149 317 132 324T102 345T81 376T73 414Q73 433 80 450T101 481T132 502T169 510Q188 510 205 503T236 482T257 451T265 414Q265 394 258 377T237 346T206 325T169 317ZM169 -17Q149 -17 132 -10T102 11T81 42T73 80Q73 99 80 116T101 147T132 168T169 176Q188 176 205 169T236 148T257 117T265 80Q265 60 258 43T237 12T206 -9T169 -17Z"  />
<glyph unicode=";" horiz-adv-x="337" d="M86 107Q96 140 113 158T166 176Q184 176 200 171T228 160T248 146T260 134L129 -168L18 -126L86 107ZM169 317Q149 317 132 324T102 345T81 376T73 414Q73 433 80 450T101 481T132 502T169 510Q188 510 205 503T236 482T257 451T265 414Q265 394 258 377T237 346T206 325T169 317Z"  />
<glyph unicode="&lt;" horiz-adv-x="630" d="M561 605V439L283 343L561 247V81L127 255Q95 268 82 292T69 343Q69 371 79 390T103 421L561 605Z"  />
<glyph unicode="=" horiz-adv-x="630" d="M507 544Q546 544 562 523T578 464Q578 437 572 417T563 391H123Q84 391 68 412T52 471Q52 498 58 518T67 544H507ZM507 295Q546 295 562 274T578 215Q578 188 572 168T563 142H123Q84 142 68 163T52 222Q52 249 58 269T67 295H507Z"  />
<glyph unicode="&gt;" horiz-adv-x="630" d="M69 247L347 343L69 439V605L503 431Q535 418 548 394T561 343Q561 315 551 296T527 265L69 81V247Z"  />
<glyph unicode="?" horiz-adv-x="542" d="M157 243Q157 293 176 324T237 379Q280 403 308 427T337 490Q337 519 314 542T236 566Q183 566 149 544T98 492Q66 499 44 523T21 577Q21 594 26 609T46 641Q53 649 68 660T107 680T167 697T251 704Q315 704 362 688T441 645T487 581T502 504Q502 464 493 434T468 381T433 340T395 310Q361 287 339 270T317 220H157V243ZM141 76Q141 95 148 111T169 140T200 160T237 168Q256 168 273 161T304 141T325 112T333 76Q333 57 326 40T305 11T274 -9T237 -17Q217 -17 200 -10T170 10T149 40T141 76Z"  />
<glyph unicode="@" horiz-adv-x="988" d="M756 -160Q750 -163 733 -170T686 -183T611 -195T506 -201Q403 -201 318 -168T171 -74T75 68T40 249Q40 348 74 431T168 575T312 670T494 704Q592 704 675 671T819 577T914 433T948 249Q948 173 933 119T900 22Q886 20 854 18T777 14T677 11T561 9Q503 9 452 13T364 34T305 82T283 166Q283 241 334 278T494 316Q513 316 529 315T557 313Q557 326 554 338T540 359T511 373T462 379Q409 379 383 368T350 352Q348 353 343 358T331 372T321 391T316 415Q316 457 354 475T475 494Q522 494 562 485T633 454T680 397T697 309V118L790 122Q793 132 799 168T805 249Q805 321 782 379T718 480T620 545T494 568Q425 568 368 545T270 479T206 378T183 249Q183 179 206 121T273 21T380 -44T523 -67Q560 -67 591 -64T645 -55T683 -45T703 -37L756 -160ZM558 218Q554 219 540 221T507 223Q478 223 461 219T435 208T424 191T421 169Q421 157 424 147T436 130T461 118T505 114Q522 114 538 115T558 117V218Z"  />
<glyph unicode="A" horiz-adv-x="769" d="M5 0Q26 56 56 130T120 288T192 459T266 627Q285 670 312 687T385 704Q402 704 418 700T448 691T469 680T479 674Q494 649 518 595T572 474T632 332T689 192T736 74T764 0H580Q569 29 556 64T524 148H233Q217 106 205 71T178 0H5ZM467 299Q457 326 444 359T419 424T397 482T380 522Q374 508 364 483T342 426T317 361T293 299H467Z"  />
<glyph unicode="B" horiz-adv-x="684" d="M70 597Q70 619 76 635T91 661T113 677T139 685Q149 687 162 689T196 692T246 695T318 696Q411 696 471 681T567 640T617 577T632 499Q632 468 625 444T606 402T580 370T552 349Q568 343 586 331T619 301T644 256T654 194Q654 148 640 111T589 46T487 5T321 -10Q271 -10 227 -9T149 -6T94 -2T70 0V597ZM378 417Q403 417 419 422T446 437T460 458T464 482Q464 495 460 508T442 531T404 547T340 553Q299 553 269 551T233 547V417H378ZM233 140Q238 139 266 137T352 134Q391 134 416 139T456 153T477 175T483 205Q483 218 479 230T465 251T437 266T391 272H233V140Z"  />
<glyph unicode="C" horiz-adv-x="671" d="M660 51Q649 43 629 32T577 9T504 -10T409 -18Q334 -18 267 4T150 72T70 184T40 340Q40 427 68 494T146 608T262 679T406 704Q447 704 480 699T538 686T582 669T611 653Q634 636 644 618T654 579Q654 560 647 543T629 513T608 490T590 476Q580 486 565 499T527 524T477 543T413 551Q369 551 333 537T271 495T230 428T215 340Q215 290 231 252T275 189T341 150T425 137Q481 137 521 151T583 180L658 51H660Z"  />
<glyph unicode="D" horiz-adv-x="751" d="M237 148Q243 147 263 146T313 144Q363 144 404 155T474 191T520 254T536 344Q536 388 523 425T484 489T417 531T321 546Q282 546 261 545T237 542V148ZM70 597Q70 619 76 635T91 661T113 677T139 685Q158 689 194 692T302 696Q395 696 470 673T599 605T682 495T711 344Q711 260 684 195T604 84T471 14T286 -10Q173 -10 124 -6T70 0V597Z"  />
<glyph unicode="E" horiz-adv-x="641" d="M70 591Q70 686 169 686H511Q557 686 576 667T596 610Q596 583 588 561T575 530H237V423H498Q544 423 563 404T583 347Q583 320 575 298T562 267H237V156H591V0H70V591Z"  />
<glyph unicode="F" horiz-adv-x="593" d="M70 591Q70 686 169 686H488Q534 686 553 667T573 610Q573 583 565 561T552 530H237V414H462Q508 414 527 395T547 338Q547 311 539 289T526 258H237V0H70V591Z"  />
<glyph unicode="G" horiz-adv-x="720" d="M501 252H440Q394 252 375 270T355 326Q355 353 363 374T376 404H566Q665 404 665 309V0Q660 -1 641 -4T591 -10T524 -15T445 -18Q355 -18 281 4T153 72T70 184T40 342Q40 426 68 493T148 607T269 679T421 704Q463 704 495 699T552 687T594 672T622 656Q664 630 664 589Q664 570 657 554T639 525T618 503T600 488Q590 498 575 509T538 531T488 547T424 553Q375 553 336 538T270 496T229 429T214 342Q214 235 274 185T440 135Q458 135 477 136T501 138V252Z"  />
<glyph unicode="H" horiz-adv-x="740" d="M70 0V612Q70 653 94 669T157 686Q186 686 208 679T237 670V435H503V612Q503 653 527 669T590 686Q619 686 641 679T670 670V0H503V277H237V0H70Z"  />
<glyph unicode="I" horiz-adv-x="307" d="M70 0V612Q70 653 94 669T157 686Q186 686 208 679T237 670V0H70Z"  />
<glyph unicode="J" horiz-adv-x="599" d="M123 212Q127 206 136 193T162 166T202 142T258 131Q314 131 341 158T369 249V612Q369 653 393 669T456 686Q485 686 507 679T536 670V239Q536 182 520 135T471 53T388 1T269 -18Q206 -18 159 -1T80 39T30 83T8 113L123 212Z"  />
<glyph unicode="K" horiz-adv-x="700" d="M70 0V612Q70 653 94 669T157 686Q186 686 208 679T237 670V415Q260 441 288 471T346 533T403 592T454 641Q472 657 496 671T556 686Q579 686 598 681T630 668T653 652T666 639Q661 634 643 616T601 573T547 519T490 461T439 407T401 366Q443 321 481 278T554 190T624 99T695 0H490Q464 35 432 75T367 156T299 234T237 299V0H70Z"  />
<glyph unicode="L" horiz-adv-x="559" d="M70 0V612Q70 653 94 669T157 686Q186 686 208 679T237 670V156H554V0H70Z"  />
<glyph unicode="M" horiz-adv-x="904" d="M99 600Q100 625 108 642T130 668T161 682T197 686Q236 686 263 675T299 656Q335 582 374 499T455 337Q491 409 525 479T589 612Q608 655 635 670T698 686Q736 686 764 676T801 659L839 0H671L648 410Q630 373 611 334T575 257T542 185T514 123H390Q379 150 363 186T328 261T291 338T256 409L234 0H65L99 600Z"  />
<glyph unicode="N" horiz-adv-x="739" d="M70 599Q70 625 78 642T99 668T128 682T162 686Q197 686 218 677T245 662Q250 657 267 633T309 574T362 497T418 414T468 339T504 283V612Q504 653 528 669T591 686Q620 686 642 679T669 670V0H512Q503 15 484 45T440 113T387 194T331 280T278 359T235 422V0H70V599Z"  />
<glyph unicode="O" horiz-adv-x="822" d="M40 343Q40 419 68 485T147 599T265 676T411 704Q489 704 557 676T675 600T753 485T782 343Q782 267 754 201T675 87T557 10T411 -18Q333 -18 265 10T147 86T69 201T40 343ZM411 138Q454 138 490 153T552 197T592 262T607 343Q607 387 593 424T552 489T490 532T411 548Q368 548 332 533T270 490T230 425T215 343Q215 299 229 262T270 197T332 154T411 138Z"  />
<glyph unicode="P" horiz-adv-x="668" d="M233 364Q240 363 257 361T315 358Q361 358 389 366T434 389T455 420T461 455Q461 471 457 488T437 519T394 543T317 553Q282 553 260 552T233 549V364ZM70 597Q70 619 76 635T91 661T113 677T139 685Q149 687 162 689T196 692T246 695T318 696Q408 696 468 676T564 622T616 545T632 455Q632 402 615 358T562 283T470 234T335 216Q317 216 300 217T269 219T246 221T233 223V0H70V597Z"  />
<glyph unicode="Q" horiz-adv-x="822" d="M549 10Q522 -2 485 -8T411 -15Q333 -15 265 12T147 88T69 201T40 343Q40 419 68 485T147 599T265 676T411 704Q489 704 557 676T675 600T753 485T782 343Q782 268 754 203T677 93L764 -14L640 -109L549 10ZM426 167Q412 185 400 204T387 240Q387 264 399 279T428 304T466 316T501 320L575 222Q588 240 597 272T607 343Q607 387 593 424T552 489T490 532T411 548Q368 548 332 533T270 490T230 425T215 343Q215 299 229 262T270 196T332 152T411 136Q419 136 430 136T449 138L426 167Z"  />
<glyph unicode="R" horiz-adv-x="690" d="M70 597Q70 619 76 635T91 661T113 677T139 685Q149 687 162 689T196 692T246 695T318 696Q408 696 468 677T564 624T616 549T632 460Q632 399 607 351T525 271Q540 247 558 215T595 148T634 74T670 0H479Q474 11 461 41T430 107T394 177T362 230Q348 228 334 228T303 228Q297 228 287 228T265 229T245 230T233 232V0H70V597ZM233 374Q236 374 241 373T257 371T282 370T321 369Q364 369 391 376T434 396T455 425T461 459Q461 475 456 491T436 522T391 545T314 554Q279 554 259 553T233 550V374Z"  />
<glyph unicode="S" horiz-adv-x="682" d="M99 196Q105 191 126 181T179 160T253 141T344 132Q384 132 408 137T445 152T462 172T466 196Q466 220 447 235T374 260L272 278Q232 285 192 298T121 334T69 393T49 482Q49 528 66 568T118 639T206 686T332 704Q384 704 423 699T490 685T535 669T561 656Q578 646 593 629T609 587Q609 570 603 555T589 526T570 504T553 489Q543 499 523 511T475 534T411 551T334 558Q295 558 272 552T238 536T223 514T219 492Q219 483 221 475T233 460T260 446T308 433L414 412Q470 401 512 385T584 344T627 286T642 205Q642 100 564 41T342 -18Q277 -18 223 -7T127 18T61 46T30 64L99 196Z"  />
<glyph unicode="T" horiz-adv-x="667" d="M250 530H90Q44 530 25 549T5 606Q5 633 13 655T26 686H577Q623 686 642 667T662 610Q662 583 654 561T641 530H417V0H250V530Z"  />
<glyph unicode="U" horiz-adv-x="760" d="M63 612Q63 653 87 669T150 686Q179 686 201 679T230 670V321Q230 276 237 242T262 184T308 148T380 136Q423 136 451 148T497 183T522 241T530 321V612Q530 653 554 669T617 686Q646 686 668 679T697 670V304Q697 152 615 67T380 -18Q227 -18 145 67T63 304V612Z"  />
<glyph unicode="V" horiz-adv-x="722" d="M265 0Q241 47 217 99T169 204T124 304T85 391T57 459T41 497Q30 524 18 555T5 617Q5 686 87 686Q119 686 140 679T167 668Q184 619 208 556T258 428T309 300T354 192Q388 273 431 382T519 611Q533 649 554 667T620 686Q640 686 657 681T687 670T707 658T717 651Q711 636 695 595T655 497T603 373T545 239T488 109T438 0H265Z"  />
<glyph unicode="W" horiz-adv-x="1010" d="M213 0Q199 32 183 75T149 165T114 261T82 351T56 427T38 480Q25 521 15 552T5 614Q5 648 25 667T86 686Q118 686 139 679T166 668Q176 627 193 568T229 446T268 321T303 216Q317 264 331 317T359 424T385 526T408 614Q416 646 435 666T499 686Q528 686 552 677T582 665Q590 629 603 572T633 451T664 325T693 217Q709 265 725 318T757 424T785 524T807 607Q818 650 839 668T906 686Q925 686 942 682T973 673T994 662T1005 656Q966 514 907 346T776 0H598Q589 22 576 64T549 158T521 264T496 363Q484 318 470 264T440 159T412 65T390 0H213Z"  />
<glyph unicode="X" horiz-adv-x="751" d="M10 0Q19 12 44 44T104 122T181 222T266 332Q237 367 210 399T159 459T119 506T93 536Q73 559 63 578T52 616Q52 649 74 667T133 686Q159 686 175 681T200 670Q207 661 223 641T261 594T310 532T367 460Q390 491 410 518T447 568T475 605T490 625Q504 643 515 654T538 673T563 683T595 686Q615 686 632 681T664 668T687 653T701 641Q693 631 670 603T615 534T545 444T466 342Q512 285 557 230T639 128T704 48T741 0H538Q529 10 512 32T473 82T423 145T366 215Q338 179 313 146T266 84T228 33T203 0H10Z"  />
<glyph unicode="Y" horiz-adv-x="691" d="M252 253Q229 281 203 314T153 378T109 437T75 482Q65 496 53 513T30 548T12 585T5 618Q5 653 27 669T82 686Q110 686 129 680T154 670Q169 647 193 611T243 537T295 462T338 402Q356 426 375 454T414 512T452 571T487 625Q493 634 501 645T522 665T552 680T592 686Q610 686 626 682T654 671T675 659T686 650Q678 633 661 605T621 541T570 465T516 387T464 314T419 253V0H252V253Z"  />
<glyph unicode="Z" horiz-adv-x="644" d="M10 143Q62 192 120 248T232 358T330 457T398 530H113Q67 530 48 549T28 606Q28 633 36 655T49 686H524Q571 686 597 665T624 602Q624 564 602 532T548 465Q494 405 420 327T249 156H620V0H10V143Z"  />
<glyph unicode="[" horiz-adv-x="352" d="M70 641Q70 736 169 736H331Q334 730 340 707T346 660Q346 625 331 605T281 584H223V25H337V-127H70V641Z"  />
<glyph unicode="\" horiz-adv-x="368" d="M215 0L0 698Q3 702 10 709T29 722T55 732T87 737Q120 737 135 721T160 674L368 0H215Z"  />
<glyph unicode="]" horiz-adv-x="352" d="M15 -127V25H129V584H71Q36 584 21 604T6 660Q6 684 12 707T21 736H183Q282 736 282 641V-127H15Z"  />
<glyph unicode="^" horiz-adv-x="522" d="M168 616Q189 657 209 672T260 687Q290 687 307 677T333 658L502 331H346L259 506L171 331H20L168 616Z"  />
<glyph unicode="_" horiz-adv-x="500" d="M0 -70H500V-129H0V-70Z"  />
<glyph unicode="`" horiz-adv-x="500" d="M122 660Q122 663 125 675T137 701T159 726T195 737Q212 737 228 729T262 709L377 636L333 570L122 660Z"  />
<glyph unicode="a" horiz-adv-x="582" d="M527 3Q521 1 500 -1T448 -7T376 -12T290 -14Q214 -14 164 -1T84 36T42 89T30 154Q30 246 89 285T276 325Q308 325 329 324T365 321Q365 356 337 376T242 396Q211 396 188 393T148 384T121 374T107 366Q105 368 99 374T87 389T76 411T71 437Q71 524 249 524Q307 524 358 514T446 478T505 410T527 305V3ZM366 212Q357 214 340 215T287 217Q257 217 238 212T209 199T194 179T190 156Q190 147 193 137T206 119T236 106T289 100Q315 100 337 101T366 105V212Z"  />
<glyph unicode="b" horiz-adv-x="632" d="M43 666Q43 705 66 721T127 737Q154 737 175 731T203 722V469Q221 487 257 505T350 524Q401 524 446 505T524 450T577 366T597 255Q597 195 576 145T518 60T431 6T321 -14Q249 -14 190 12T93 88Q69 120 56 167T43 278V666ZM317 134Q367 134 399 167T432 254Q432 308 400 342T317 377Q292 377 271 368T235 342T211 303T202 254Q202 198 234 166T317 134Z"  />
<glyph unicode="c" horiz-adv-x="518" d="M516 44Q505 37 487 27T444 8T385 -7T312 -14Q258 -14 208 3T119 53T58 137T35 255Q35 319 57 369T118 454T208 506T318 524Q371 524 417 511T487 474Q498 463 504 451T511 421Q511 404 505 390T490 365T472 346T455 333Q437 351 405 366T329 382Q303 382 280 374T239 350T211 310T200 255Q200 222 210 199T238 160T280 138T331 131Q354 131 373 135T408 146T433 157T446 166L516 44Z"  />
<glyph unicode="d" horiz-adv-x="632" d="M589 278Q589 214 576 167T539 88Q501 38 442 12T311 -14Q252 -14 202 5T114 60T56 145T35 255Q35 316 54 365T107 450T186 504T282 524Q338 524 374 506T429 469V666Q429 705 452 721T513 737Q540 737 561 731T589 722V278ZM315 134Q365 134 397 166T430 254Q430 280 422 302T398 341T361 367T315 377Q265 377 233 343T200 254Q200 200 232 167T315 134Z"  />
<glyph unicode="e" horiz-adv-x="561" d="M206 188Q208 176 216 165T240 143T280 127T338 121Q364 121 387 125T427 135T455 145T468 152L524 40Q516 35 498 26T451 8T386 -7T303 -14Q247 -14 198 4T113 56T55 141T34 255Q34 315 55 365T113 450T200 504T308 524Q362 524 405 510T477 470T522 413T538 347Q538 310 525 281T479 231T388 199T241 188H206ZM198 292Q265 292 302 297T357 310T379 328T383 348Q383 369 364 384T307 400Q280 400 260 391T227 366T206 332T198 292Z"  />
<glyph unicode="f" horiz-adv-x="425" d="M60 526Q60 581 75 621T119 686T186 724T274 737Q316 737 347 731T402 710Q414 703 425 690T436 654Q436 631 423 612T393 584Q381 595 356 603T303 612Q265 612 243 592T221 532V510H332Q377 510 396 492T415 438Q415 412 407 390T395 360H221V0H60V526Z"  />
<glyph unicode="g" horiz-adv-x="632" d="M123 -50Q126 -52 139 -57T172 -67T220 -77T280 -82Q312 -82 339 -75T386 -52T417 -10T428 54V65Q423 60 412 51T382 33T338 17T282 10Q228 10 183 26T104 75T53 153T35 259Q35 318 56 366T114 450T202 504T316 524Q385 524 443 498T540 422Q564 390 576 347T589 238V89Q589 11 567 -45T506 -138T414 -192T297 -210Q253 -210 216 -205T151 -192T104 -177T79 -165L123 -50ZM200 259Q200 202 232 174T314 146Q363 146 395 177T428 259Q428 310 396 342T314 375Q289 375 268 366T232 341T209 304T200 259Z"  />
<glyph unicode="h" horiz-adv-x="617" d="M55 666Q55 705 78 721T139 737Q166 737 187 731T215 722V480Q234 497 267 511T352 525Q397 525 435 513T501 474T546 407T562 311V0H401V278Q401 329 379 352T311 375Q266 375 241 348T216 264V0H55V666Z"  />
<glyph unicode="i" horiz-adv-x="281" d="M60 439Q60 478 83 494T144 510Q171 510 193 504T221 495V0H60V439ZM51 647Q51 685 76 711T140 737Q178 737 204 711T230 647Q230 609 204 584T140 558Q102 558 77 583T51 647Z"  />
<glyph unicode="j" horiz-adv-x="281" d="M-89 -60Q-76 -67 -55 -72T-13 -77Q16 -77 38 -62T60 -5V439Q60 478 83 494T144 510Q171 510 193 504T221 495V8Q221 -55 204 -97T158 -164T92 -199T13 -210Q-10 -210 -33 -207T-75 -198T-109 -187T-129 -179L-89 -60ZM51 647Q51 685 76 711T140 737Q178 737 204 711T230 647Q230 609 204 584T140 558Q102 558 77 583T51 647Z"  />
<glyph unicode="k" horiz-adv-x="601" d="M55 666Q55 705 78 721T139 737Q166 737 188 731T216 722V340Q234 355 254 371T294 404T331 435T360 460Q375 473 386 482T410 498T437 507T471 510Q491 510 508 504T538 490T560 472T573 455Q554 435 526 410T467 361T408 314T361 276Q423 220 486 148T601 0H402Q382 27 358 55T309 109T260 158T216 202V0H55V666Z"  />
<glyph unicode="l" horiz-adv-x="281" d="M60 666Q60 705 83 721T144 737Q171 737 193 731T221 722V0H60V666Z"  />
<glyph unicode="m" horiz-adv-x="929" d="M55 327Q55 376 72 412T120 474T192 511T283 524Q343 524 390 504T466 448Q495 484 541 504T647 524Q695 524 736 512T808 474T856 413T874 327V0H713V281Q713 332 692 354T633 376Q594 376 570 350T545 267V0H384V267Q384 324 360 350T297 376Q259 376 238 354T216 281V0H55V327Z"  />
<glyph unicode="n" horiz-adv-x="604" d="M40 309Q40 361 60 401T115 469T196 510T295 524Q347 524 393 510T474 469T529 402T549 309V0H388V272Q388 325 364 350T295 376Q201 376 201 272V0H40V309Z"  />
<glyph unicode="o" horiz-adv-x="634" d="M35 255Q35 313 57 362T117 447T207 503T317 524Q375 524 426 504T516 447T577 362T599 255Q599 197 577 148T517 63T427 7T317 -14Q258 -14 207 6T118 63T57 148T35 255ZM317 130Q342 130 363 139T401 165T425 205T434 255Q434 282 426 305T401 344T364 370T317 380Q291 380 270 371T233 345T209 305T200 255Q200 228 208 205T233 166T270 140T317 130Z"  />
<glyph unicode="p" horiz-adv-x="632" d="M43 -200V232Q43 296 56 343T93 422Q131 472 190 498T321 524Q380 524 430 505T518 450T576 365T597 255Q597 194 578 145T525 61T446 7T350 -12Q294 -12 258 5T203 41V-200H43ZM317 133Q367 133 399 167T432 256Q432 310 400 343T317 376Q267 376 235 344T202 256Q202 230 210 208T234 169T271 143T317 133Z"  />
<glyph unicode="q" horiz-adv-x="632" d="M429 41Q411 23 375 6T282 -12Q231 -12 186 7T108 61T55 145T35 255Q35 315 56 365T114 450T201 504T311 524Q383 524 442 498T539 422Q563 390 576 343T589 232V-200H429V41ZM315 133Q340 133 361 142T397 168T421 207T430 256Q430 312 398 344T315 376Q265 376 233 343T200 256Q200 202 232 168T315 133Z"  />
<glyph unicode="r" horiz-adv-x="438" d="M55 320Q55 369 71 407T117 471T187 510T277 524Q337 524 370 511T419 483Q428 473 433 462T438 436Q438 421 434 408T423 385T410 368T401 358Q384 366 360 373T307 380Q269 380 243 358T216 285V0H55V320Z"  />
<glyph unicode="s" horiz-adv-x="564" d="M82 156Q90 150 108 142T152 126T210 113T279 107Q320 107 341 114T362 141Q362 161 345 168T290 181L238 187Q199 192 163 201T100 229T56 277T40 350Q40 387 53 418T96 473T170 510T277 524Q340 524 385 516T464 491Q483 481 494 467T506 431Q506 415 500 403T485 381T469 367T459 361Q456 364 443 372T407 387T353 401T281 407Q236 407 219 397T201 369Q201 352 217 345T265 333L356 320Q390 315 421 306T477 278T516 232T531 164Q531 80 467 33T290 -14Q231 -14 186 -6T107 12T54 34T25 52L82 156Z"  />
<glyph unicode="t" horiz-adv-x="444" d="M55 589Q55 628 78 644T139 660Q166 660 188 654T216 645V510H331Q376 510 395 492T414 438Q414 412 406 390T394 360H216V203Q216 180 223 167T240 145T264 135T292 132Q320 132 343 140T376 155L439 45Q430 37 413 27T372 8T318 -7T255 -14Q161 -14 108 35T55 168V589Z"  />
<glyph unicode="u" horiz-adv-x="620" d="M216 238Q216 134 310 134Q404 134 404 238V439Q404 478 427 494T488 510Q515 510 537 504T565 495V208Q565 152 546 111T492 42T411 0T310 -14Q256 -14 209 0T128 41T75 110T55 208V439Q55 478 78 494T139 510Q166 510 188 504T216 495V238Z"  />
<glyph unicode="v" horiz-adv-x="590" d="M211 0Q180 55 151 113T97 221T57 307T37 353Q29 373 20 398T10 443Q10 471 30 490T90 510Q122 510 142 504T165 495Q182 446 201 396T237 304T269 229T289 183Q295 196 308 227T336 297T367 374T394 440Q400 455 407 468T425 490T451 505T488 510Q508 510 524 506T552 497T571 488T580 482Q576 464 561 428T526 344T481 246T434 146T391 60T360 0H211Z"  />
<glyph unicode="w" horiz-adv-x="837" d="M173 0Q148 55 125 112T82 217T50 302T32 350Q27 364 19 388T10 440Q10 468 29 489T89 510Q121 510 139 504T163 495Q176 450 188 406T213 321T235 248T252 194Q258 212 268 246T288 319T309 391T324 444Q333 474 349 492T409 510Q435 510 457 503T484 492Q497 447 509 403T533 319T553 248T569 194Q575 212 583 237T600 292T618 355T637 421Q650 467 671 488T736 510Q756 510 772 506T800 497T818 488T827 482Q820 453 800 395T754 268T698 127T643 0H489Q483 16 473 50T452 123T429 202T408 269Q399 241 388 201T365 122T343 49T328 0H173Z"  />
<glyph unicode="x" horiz-adv-x="638" d="M10 0Q16 7 34 29T80 84T139 156T206 237Q156 291 125 324T80 374Q66 391 56 408T45 449Q45 473 64 491T127 510Q153 510 175 503T202 494Q204 491 216 476T246 440T281 397T314 358Q326 374 340 392T368 427T392 456T406 472Q423 492 443 501T490 510Q511 510 529 505T561 493T585 478T598 465Q588 453 569 431T526 380T474 317T416 248L628 0H425Q420 6 409 18T383 48T350 87T311 132Q274 87 246 52T204 0H10Z"  />
<glyph unicode="y" horiz-adv-x="620" d="M114 -55Q118 -57 131 -61T165 -70T210 -78T263 -82Q340 -82 374 -49T408 60Q389 37 350 24T272 10Q226 10 187 21T118 57T72 117T55 204V439Q55 478 78 494T139 510Q166 510 188 504T216 495V237Q216 189 238 168T309 147Q354 147 379 173T404 253V439Q404 478 427 494T488 510Q515 510 537 504T565 495V71Q565 -5 545 -58T488 -145T400 -194T286 -210Q242 -210 205 -205T140 -194T95 -181T75 -173L114 -55Z"  />
<glyph unicode="z" horiz-adv-x="549" d="M19 125Q49 151 90 187T172 259T244 323T289 363H102Q57 363 38 379T19 432Q19 458 27 480T39 510H435Q470 510 492 491T515 433Q515 408 505 388T469 345Q463 339 446 324T407 288T358 244T308 199T264 161T234 136H517V0H19V125Z"  />
<glyph unicode="{" horiz-adv-x="383" d="M273 -127Q197 -127 154 -85T110 37V146Q110 189 92 207T41 226H15V383H41Q73 383 91 401T110 463V572Q110 651 153 693T273 736H358Q361 730 367 707T373 660Q373 625 359 605T311 584Q282 584 275 571T268 540V437Q268 378 250 348T208 304Q220 298 230 288T249 261T263 224T268 172V69Q268 60 269 52T274 38T288 29T313 25H362V-127H273Z"  />
<glyph unicode="|" horiz-adv-x="284" d="M70 674Q70 709 90 723T146 737Q171 737 190 732T214 724V-132H70V674Z"  />
<glyph unicode="}" horiz-adv-x="383" d="M21 25H70Q86 25 95 28T108 38T114 52T115 69V172Q115 202 120 223T133 261T152 287T175 304Q152 317 134 347T115 437V540Q115 557 108 570T72 584Q39 584 25 604T10 660Q10 684 16 707T25 736H110Q186 736 229 694T273 572V463Q273 420 291 402T342 383H368V226H342Q310 226 292 208T273 146V37Q273 -42 230 -84T110 -127H21V25Z"  />
<glyph unicode="~" horiz-adv-x="630" d="M41 245Q41 288 49 323T77 384T127 424T202 438Q240 438 278 427T351 405Q381 396 395 393T424 389Q441 389 451 399T463 440H588Q588 397 580 362T552 301T502 261T427 247Q389 247 351 258T278 280Q248 289 234 292T205 296Q188 296 178 286T166 245H41Z"  />
<glyph unicode="&#xA0;" horiz-adv-x="246" />
<glyph unicode="&#xA1;" horiz-adv-x="278" d="M59 434H220V64Q220 25 197 9T136 -7Q109 -7 87 -1T59 8V434ZM43 603Q43 622 50 639T71 668T102 688T139 696Q158 696 175 689T206 669T227 639T235 603Q235 584 228 568T207 539T176 519T139 511Q119 511 102 518T72 538T51 567T43 603Z"  />
<glyph unicode="&#xA2;" horiz-adv-x="547" d="M284 76Q236 82 193 101T117 154T65 234T46 343Q46 401 64 447T115 527T190 582T284 609V692Q284 712 295 721T327 730Q342 730 353 727T368 722V610Q410 605 444 593T498 562Q509 551 515 539T522 509Q522 492 516 478T501 453T483 434T466 421Q451 436 426 449T368 468V220Q404 225 427 237T457 254L527 132Q509 120 470 102T368 76V-36H284V76ZM284 459Q252 446 232 417T211 343Q211 296 231 268T284 228V459Z"  />
<glyph unicode="&#xA3;" horiz-adv-x="612" d="M85 445Q85 571 158 637T359 704Q425 704 474 688T549 650Q561 639 568 626T576 595Q576 577 569 562T552 535T530 515T510 501Q490 520 454 537T366 554Q302 554 274 523T245 442V429H426Q471 429 490 411T509 356Q509 330 501 307T489 277H245V152H576V0H85V445Z"  />
<glyph unicode="&#xA4;" horiz-adv-x="650" d="M144 66L48 162L114 228Q100 254 92 282T84 343Q84 375 92 403T114 458L48 524L144 620L212 553Q238 566 266 573T325 580Q355 580 383 573T438 552L506 620L602 524L536 458Q550 432 558 404T566 343Q566 312 558 283T536 228L602 162L506 66L439 134Q413 121 385 114T325 106Q294 106 266 113T212 134L144 66ZM325 224Q349 224 370 233T407 259T432 296T441 343Q441 368 432 389T407 427T370 452T325 462Q301 462 280 453T243 427T218 390T209 343Q209 318 218 297T242 259T279 234T325 224Z"  />
<glyph unicode="&#xA5;" horiz-adv-x="677" d="M245 158H88Q62 158 51 171T40 207Q40 224 44 236T50 253H245Q231 270 217 289T188 329H88Q62 329 51 342T40 378Q40 395 44 407T50 424H123L83 482Q51 529 35 557T18 615Q18 652 41 669T96 686Q124 686 141 681T165 673Q178 652 198 619T241 547T287 470T331 400Q348 427 365 457T399 517T431 574T460 625Q466 634 474 645T495 665T525 680T565 686Q583 686 599 682T627 671T648 659T659 650Q652 635 639 611T607 556T567 492T524 424H572Q599 424 609 411T620 375Q620 358 616 346T610 329H465L412 253H572Q599 253 609 240T620 204Q620 187 616 175T610 158H412V0H245V158Z"  />
<glyph unicode="&#xA6;" horiz-adv-x="284" d="M70 157H214V-132H70V157ZM70 674Q70 709 90 723T146 737Q171 737 190 732T214 724V446H70V674Z"  />
<glyph unicode="&#xA7;" horiz-adv-x="646" d="M103 -16Q106 -18 123 -26T170 -43T238 -59T324 -66Q371 -66 402 -52T433 -6Q433 17 414 33T345 58L251 71Q205 78 168 92T103 129T62 182T47 249Q47 299 70 334T130 391Q109 402 94 419T68 457T52 498T47 538Q47 575 60 610T105 674T187 719T314 737Q384 737 436 728T520 701Q541 690 553 674T566 635Q566 617 559 603T543 579T526 564T515 558Q511 562 496 570T456 586T398 600T325 606Q272 606 245 589T218 542Q218 520 235 506T294 486L411 469Q464 461 500 446T560 409T593 360T603 301Q603 265 591 239T564 194T535 165T515 153Q531 143 547 131T575 100T595 59T603 3Q603 -41 587 -78T536 -142T450 -184T327 -200Q262 -200 210 -191T122 -171T65 -151T43 -140L103 -16ZM210 274Q210 261 215 247T236 222T280 203T355 195Q390 195 415 213T440 268Q440 281 435 295T413 320T369 339T295 347Q260 347 235 329T210 274Z"  />
<glyph unicode="&#xA8;" horiz-adv-x="500" d="M70 642Q70 655 76 668T92 691T116 707T145 713Q175 713 196 691T218 642Q218 614 197 592T145 570Q130 570 117 576T93 592T76 615T70 642ZM283 642Q283 669 304 691T357 713Q388 713 409 691T430 642Q430 614 409 592T357 570Q326 570 305 592T283 642Z"  />
<glyph unicode="&#xA9;" horiz-adv-x="816" d="M40 343Q40 419 69 486T148 603T265 682T408 711Q484 711 551 682T668 603T747 486T776 343Q776 267 747 200T668 83T551 4T408 -25Q332 -25 265 4T148 83T69 200T40 343ZM408 70Q463 70 511 91T595 149T651 236T672 343Q672 400 652 450T595 536T511 594T408 616Q353 616 305 595T221 537T165 450T144 343Q144 286 164 236T221 150T305 92T408 70ZM570 186Q564 181 552 174T521 160T479 148T425 143Q382 143 344 155T278 192T232 254T215 342Q215 391 231 428T276 491T343 530T425 543Q463 543 497 533T548 506Q556 499 560 491T565 468Q565 444 551 427T525 404Q512 416 488 428T433 440Q390 440 364 415T338 341Q338 295 365 271T438 246Q466 246 486 254T521 272L570 186Z"  />
<glyph unicode="&#xAA;" horiz-adv-x="432" d="M389 319Q376 317 357 315T314 310T266 307T216 305Q153 305 114 316T52 347T22 389T14 436Q14 465 24 488T57 526T116 550T206 559Q221 559 238 558T270 556Q270 585 248 597T188 609Q165 609 146 606T114 598T93 589T84 584Q83 585 78 590T68 602T59 619T54 636Q54 652 61 662T80 680Q91 688 117 696T189 704Q283 704 336 665T389 541V319ZM270 475Q265 476 249 477T210 478Q172 478 154 470T135 437Q135 416 153 407T221 397Q242 397 252 398T270 401V475Z"  />
<glyph unicode="&#xAB;" horiz-adv-x="643" d="M230 19L58 194Q47 206 39 222T30 257Q30 275 38 291T58 319L230 495L321 411L191 257L321 103L230 19ZM522 19L350 194Q339 206 331 222T322 257Q322 275 330 291T350 319L522 495L613 411L483 257L613 103L522 19Z"  />
<glyph unicode="&#xAC;" horiz-adv-x="630" d="M507 508Q546 508 562 487T578 428V178H420V355H123Q84 355 68 376T52 435Q52 462 58 482T67 508H507Z"  />
<glyph unicode="&#xAD;" horiz-adv-x="337" d="M242 348Q278 348 292 327T307 270Q307 245 301 225T293 199H95Q59 199 45 220T30 277Q30 302 36 322T44 348H242Z"  />
<glyph unicode="&#xAE;" horiz-adv-x="816" d="M246 484Q246 510 260 521T294 536Q304 538 324 540T382 542Q435 542 470 532T526 503T556 462T565 413Q565 381 553 356T509 314Q526 287 545 244T579 162H457Q455 168 450 183T437 218T421 256T407 286Q403 285 396 285T382 285Q377 285 366 285T351 286V162H246V484ZM351 371Q353 371 360 371T390 370Q430 370 442 382T455 412Q455 419 453 427T443 443T422 454T386 459Q369 459 361 459T351 458V371ZM40 343Q40 419 69 486T148 603T265 682T408 711Q484 711 551 682T668 603T747 486T776 343Q776 267 747 200T668 83T551 4T408 -25Q332 -25 265 4T148 83T69 200T40 343ZM408 70Q463 70 511 91T595 149T651 236T672 343Q672 400 652 450T595 536T511 594T408 616Q353 616 305 595T221 537T165 450T144 343Q144 286 164 236T221 150T305 92T408 70Z"  />
<glyph unicode="&#xAF;" horiz-adv-x="500" d="M375 692Q402 692 412 679T423 643Q423 626 419 614T413 597H127Q101 597 90 610T79 646Q79 663 83 675T89 692H375Z"  />
<glyph unicode="&#xB0;" horiz-adv-x="402" d="M18 557Q18 595 32 628T71 685T129 723T201 737Q239 737 272 723T330 685T369 628T384 557Q384 519 370 487T331 430T273 392T201 378Q163 378 130 392T72 430T33 486T18 557ZM201 483Q233 483 254 505T276 557Q276 589 255 611T201 633Q171 633 149 611T127 557Q127 527 149 505T201 483Z"  />
<glyph unicode="&#xB1;" horiz-adv-x="630" d="M236 153V274H123Q84 274 68 295T52 354Q52 381 58 401T67 427H236V534Q236 573 258 589T319 605Q346 605 367 599T394 590V427H507Q546 427 562 406T578 347Q578 320 572 300T563 274H394V153H507Q546 153 562 132T578 73Q578 46 572 26T563 0H123Q84 0 68 21T52 80Q52 107 58 127T67 153H236Z"  />
<glyph unicode="&#xB2;" horiz-adv-x="497" d="M48 387Q52 389 70 400T113 426T164 458T210 490Q233 507 253 530T273 576Q273 595 261 608T218 622Q199 622 182 614T153 596T132 575T122 560Q117 561 105 564T81 576T60 596T51 629Q51 651 65 671T104 705T159 728T226 737Q277 737 314 726T375 693T412 644T424 583Q424 547 406 518T363 467T313 429T274 406H427V287H48V387Z"  />
<glyph unicode="&#xB3;" horiz-adv-x="497" d="M71 421Q73 420 84 415T115 404T161 394T217 389Q252 389 267 398T282 424Q282 437 270 448T217 460H170Q168 461 159 473T149 511Q149 535 162 546T209 557H216Q251 557 263 566T276 592Q276 604 264 615T211 627Q185 627 166 621T134 608T113 594T104 585Q98 586 89 590T70 602T53 619T46 644Q46 658 51 670T66 691Q71 697 82 704T113 719T160 732T226 737Q281 737 319 725T382 694T416 652T427 608Q427 574 410 550T360 512Q434 484 434 410Q434 383 422 359T385 316T323 287T236 276Q191 276 155 282T92 295T50 308T31 317L71 421Z"  />
<glyph unicode="&#xB4;" horiz-adv-x="500" d="M123 636L238 709Q255 720 271 728T305 737Q327 737 341 726T363 701T374 675T378 660L167 570L123 636Z"  />
<glyph unicode="&#xB5;" horiz-adv-x="620" d="M55 -200V439Q55 478 78 494T139 510Q166 510 188 504T216 495V224Q216 194 226 174T254 142T296 125T348 120Q367 120 382 121T404 125V439Q404 478 427 494T488 510Q515 510 537 504T565 495V0Q554 -2 507 -8T384 -14Q342 -14 312 -9T261 5T230 20T215 33V-200H55Z"  />
<glyph unicode="&#xB6;" horiz-adv-x="618" d="M245 -200V217Q145 227 91 289T36 455Q36 501 51 544T100 621T190 675T326 696Q390 696 424 693T479 685Q492 683 504 678T526 662T542 635T548 597V-200H441V587Q432 588 419 588T392 589T367 590T352 590V-200H245Z"  />
<glyph unicode="&#xB7;" horiz-adv-x="337" d="M169 246Q149 246 132 253T102 274T81 305T73 343Q73 362 80 379T101 410T132 431T169 439Q188 439 205 432T236 411T257 380T265 343Q265 323 258 306T237 275T206 254T169 246Z"  />
<glyph unicode="&#xB8;" horiz-adv-x="500" d="M145 -114Q147 -116 156 -119T178 -126T207 -132T236 -135Q257 -135 265 -130T274 -112Q274 -98 255 -91T215 -84L232 -25Q258 -25 285 -29T334 -44T370 -71T384 -113Q384 -158 348 -184T248 -211Q191 -211 158 -200T116 -182L145 -114Z"  />
<glyph unicode="&#xB9;" horiz-adv-x="497" d="M197 574L127 528Q124 529 114 533T93 546T72 567T63 597Q63 617 74 632T111 664L177 706Q203 722 220 729T263 737Q291 737 311 728T340 713V287H197V574Z"  />
<glyph unicode="&#xBA;" horiz-adv-x="465" d="M23 504Q23 546 39 582T83 646T150 688T232 704Q276 704 314 689T381 646T426 583T442 504Q442 462 426 426T382 363T315 321T232 305Q188 305 150 320T84 363T39 426T23 504ZM232 420Q267 420 288 444T310 504Q310 539 289 564T232 589Q197 589 176 564T155 504Q155 469 176 445T232 420Z"  />
<glyph unicode="&#xBB;" horiz-adv-x="643" d="M452 257L322 411L413 495L585 319Q596 307 604 291T613 257Q613 239 605 223T585 194L413 19L322 103L452 257ZM160 257L30 411L121 495L293 319Q304 307 312 291T321 257Q321 239 313 223T293 194L121 19L30 103L160 257Z"  />
<glyph unicode="&#xBC;" horiz-adv-x="1020" d="M161 574L91 528Q88 529 78 533T57 546T36 567T27 597Q27 617 38 632T75 664L141 706Q167 722 184 729T227 737Q255 737 275 728T304 713V287H161V574ZM596 686Q608 707 624 722T675 737Q692 737 706 733T732 724T750 714T759 708L348 0H198L596 686ZM782 82H649Q600 82 574 99T547 162Q547 203 570 245T624 323Q646 348 673 371T728 413T785 441T837 452Q867 452 886 447T915 437V185H924Q950 185 960 171T970 141Q970 123 966 108T957 82H915V2H782V82ZM782 187V315Q763 304 744 288T715 259Q701 242 694 228T686 202Q686 193 691 190T707 187H782Z"  />
<glyph unicode="&#xBD;" horiz-adv-x="1058" d="M161 574L91 528Q88 529 78 533T57 546T36 567T27 597Q27 617 38 632T75 664L141 706Q167 722 184 729T227 737Q255 737 275 728T304 713V287H161V574ZM597 686Q609 707 625 722T676 737Q693 737 707 733T733 724T751 714T760 708L349 0H199L597 686ZM619 102Q623 104 641 115T684 141T735 173T781 205Q804 222 824 245T844 291Q844 310 832 323T789 337Q770 337 753 329T724 311T703 290T693 275Q688 276 676 279T652 291T631 311T622 344Q622 366 636 386T675 420T730 443T797 452Q848 452 885 441T946 408T983 359T995 298Q995 262 977 233T934 182T884 144T845 121H998V2H619V102Z"  />
<glyph unicode="&#xBE;" horiz-adv-x="1100" d="M67 421Q69 420 80 415T111 404T157 394T213 389Q248 389 263 398T278 424Q278 437 266 448T213 460H166Q164 461 155 473T145 511Q145 535 158 546T205 557H212Q247 557 259 566T272 592Q272 604 260 615T207 627Q181 627 162 621T130 608T109 594T100 585Q94 586 85 590T66 602T49 619T42 644Q42 658 47 670T62 691Q67 697 78 704T109 719T156 732T222 737Q277 737 315 725T378 694T412 652T423 608Q423 574 406 550T356 512Q430 484 430 410Q430 383 418 359T381 316T319 287T232 276Q187 276 151 282T88 295T46 308T27 317L67 421ZM674 686Q686 707 702 722T753 737Q770 737 784 733T810 724T828 714T837 708L426 0H276L674 686ZM862 82H729Q680 82 654 99T627 162Q627 203 650 245T704 323Q726 348 753 371T808 413T865 441T917 452Q947 452 966 447T995 437V185H1004Q1030 185 1040 171T1050 141Q1050 123 1046 108T1037 82H995V2H862V82ZM862 187V315Q843 304 824 288T795 259Q781 242 774 228T766 202Q766 193 771 190T787 187H862Z"  />
<glyph unicode="&#xBF;" horiz-adv-x="542" d="M385 459V436Q385 386 366 355T305 300Q262 276 234 252T205 189Q205 160 228 137T306 113Q359 113 393 135T444 187Q475 179 498 155T521 102Q521 85 516 70T496 38Q488 30 474 19T435 -2T375 -18T291 -25Q226 -25 179 -9T101 34T55 98T40 175Q40 215 49 245T74 298T109 339T147 369Q181 392 203 409T225 459H385ZM209 603Q209 622 216 639T237 668T268 688T305 696Q324 696 341 689T372 669T393 639T401 603Q401 584 394 568T373 539T342 519T305 511Q285 511 268 518T238 538T217 567T209 603Z"  />
<glyph unicode="&#xC0;" horiz-adv-x="769" d="M5 0Q26 56 56 130T120 288T192 459T266 627Q285 670 312 687T385 704Q402 704 418 700T448 691T469 680T479 674Q494 649 518 595T572 474T632 332T689 192T736 74T764 0H580Q569 29 556 64T524 148H233Q217 106 205 71T178 0H5ZM467 299Q457 326 444 359T419 424T397 482T380 522Q374 508 364 483T342 426T317 361T293 299H467ZM230 828Q230 831 233 844T244 873T268 900T309 912Q327 912 345 905T383 888L518 820L483 747L230 828Z"  />
<glyph unicode="&#xC1;" horiz-adv-x="769" d="M5 0Q26 56 56 130T120 288T192 459T266 627Q285 670 312 687T385 704Q402 704 418 700T448 691T469 680T479 674Q494 649 518 595T572 474T632 332T689 192T736 74T764 0H580Q569 29 556 64T524 148H233Q217 106 205 71T178 0H5ZM467 299Q457 326 444 359T419 424T397 482T380 522Q374 508 364 483T342 426T317 361T293 299H467ZM279 820L414 888Q433 898 451 905T488 912Q513 912 528 900T552 873T564 845T567 828L313 747L279 820Z"  />
<glyph unicode="&#xC2;" horiz-adv-x="769" d="M5 0Q26 56 56 130T120 288T192 459T266 627Q285 670 312 687T385 704Q402 704 418 700T448 691T469 680T479 674Q494 649 518 595T572 474T632 332T689 192T736 74T764 0H580Q569 29 556 64T524 148H233Q217 106 205 71T178 0H5ZM467 299Q457 326 444 359T419 424T397 482T380 522Q374 508 364 483T342 426T317 361T293 299H467ZM228 745L188 808L297 876Q316 887 338 899T384 912Q408 912 431 900T471 876L580 808L540 745L384 807L228 745Z"  />
<glyph unicode="&#xC3;" horiz-adv-x="769" d="M5 0Q26 56 56 130T120 288T192 459T266 627Q285 670 312 687T385 704Q402 704 418 700T448 691T469 680T479 674Q494 649 518 595T572 474T632 332T689 192T736 74T764 0H580Q569 29 556 64T524 148H233Q217 106 205 71T178 0H5ZM467 299Q457 326 444 359T419 424T397 482T380 522Q374 508 364 483T342 426T317 361T293 299H467ZM192 769Q196 790 205 810T228 847T263 872T311 882Q335 882 353 878T385 870L410 862Q421 859 428 858T446 856Q458 856 467 863T481 890L570 872Q565 851 557 831T534 794T499 769T451 759Q430 759 413 763T375 773L351 780Q343 782 334 784T316 786Q305 786 296 778T282 750L192 769Z"  />
<glyph unicode="&#xC4;" horiz-adv-x="769" d="M5 0Q26 56 56 130T120 288T192 459T266 627Q285 670 312 687T385 704Q402 704 418 700T448 691T469 680T479 674Q494 649 518 595T572 474T632 332T689 192T736 74T764 0H580Q569 29 556 64T524 148H233Q217 106 205 71T178 0H5ZM467 299Q457 326 444 359T419 424T397 482T380 522Q374 508 364 483T342 426T317 361T293 299H467ZM425 829Q425 857 446 879T500 902Q532 902 553 880T575 829Q575 801 554 779T500 756Q468 756 447 778T425 829ZM193 829Q193 843 199 856T215 879T240 896T269 902Q300 902 322 880T344 829Q344 801 322 779T269 756Q254 756 240 762T216 778T199 802T193 829Z"  />
<glyph unicode="&#xC5;" horiz-adv-x="769" d="M5 0Q26 56 56 130T120 288T192 459T266 627Q282 666 308 684Q291 699 281 720T270 767Q270 790 279 810T304 846T341 871T386 880Q410 880 430 871T466 847T491 811T500 767Q500 743 490 722T463 685Q479 673 493 649Q504 629 526 580T575 465T633 328T689 190T736 73T764 0H580Q569 29 556 64T524 148H233Q217 106 205 71T178 0H5ZM467 299Q457 326 444 359T419 424T397 482T380 522Q374 508 364 483T342 426T317 361T293 299H467ZM386 721Q406 721 417 733T429 767Q429 787 418 800T386 813Q365 813 354 800T342 767Q342 746 353 734T386 721Z"  />
<glyph unicode="&#xC6;" horiz-adv-x="1087" d="M5 0Q32 50 70 117T153 262T247 425T348 594Q366 623 382 641T416 669T452 682T493 686H957Q1003 686 1022 667T1042 610Q1042 583 1034 561T1021 530H703V423H944Q990 423 1009 404T1029 347Q1029 320 1021 298T1008 267H703V156H1037V0H536V166H279Q247 109 223 64T187 0H5ZM536 317V527H482L364 317H536Z"  />
<glyph unicode="&#xC7;" horiz-adv-x="671" d="M660 51Q649 43 629 32T577 9T504 -10T409 -18Q334 -18 267 4T150 72T70 184T40 340Q40 427 68 494T146 608T262 679T406 704Q447 704 480 699T538 686T582 669T611 653Q634 636 644 618T654 579Q654 560 647 543T629 513T608 490T590 476Q580 486 565 499T527 524T477 543T413 551Q369 551 333 537T271 495T230 428T215 340Q215 290 231 252T275 189T341 150T425 137Q481 137 521 151T583 180L658 51H660ZM247 -131Q249 -133 258 -136T280 -143T309 -149T338 -152Q359 -152 367 -147T376 -129Q376 -115 357 -108T317 -101L334 -42Q360 -42 387 -46T436 -61T472 -88T486 -130Q486 -175 450 -201T350 -228Q293 -228 260 -217T218 -199L247 -131Z"  />
<glyph unicode="&#xC8;" horiz-adv-x="641" d="M70 591Q70 686 169 686H511Q557 686 576 667T596 610Q596 583 588 561T575 530H237V423H498Q544 423 563 404T583 347Q583 320 575 298T562 267H237V156H591V0H70V591ZM176 828Q176 831 179 844T190 873T214 900T255 912Q273 912 291 905T329 888L464 820L429 747L176 828Z"  />
<glyph unicode="&#xC9;" horiz-adv-x="641" d="M70 591Q70 686 169 686H511Q557 686 576 667T596 610Q596 583 588 561T575 530H237V423H498Q544 423 563 404T583 347Q583 320 575 298T562 267H237V156H591V0H70V591ZM208 820L343 888Q362 898 380 905T417 912Q442 912 457 900T481 873T493 845T496 828L242 747L208 820Z"  />
<glyph unicode="&#xCA;" horiz-adv-x="641" d="M70 591Q70 686 169 686H511Q557 686 576 667T596 610Q596 583 588 561T575 530H237V423H498Q544 423 563 404T583 347Q583 320 575 298T562 267H237V156H591V0H70V591ZM184 745L144 808L253 876Q272 887 294 899T340 912Q364 912 387 900T427 876L536 808L496 745L340 807L184 745Z"  />
<glyph unicode="&#xCB;" horiz-adv-x="641" d="M70 591Q70 686 169 686H511Q557 686 576 667T596 610Q596 583 588 561T575 530H237V423H498Q544 423 563 404T583 347Q583 320 575 298T562 267H237V156H591V0H70V591ZM361 829Q361 857 382 879T436 902Q468 902 489 880T511 829Q511 801 490 779T436 756Q404 756 383 778T361 829ZM129 829Q129 843 135 856T151 879T176 896T205 902Q236 902 258 880T280 829Q280 801 258 779T205 756Q190 756 176 762T152 778T135 802T129 829Z"  />
<glyph unicode="&#xCC;" horiz-adv-x="307" d="M70 0V612Q70 653 94 669T157 686Q186 686 208 679T237 670V0H70ZM20 828Q20 831 23 844T34 873T58 900T99 912Q117 912 135 905T173 888L308 820L273 747L20 828Z"  />
<glyph unicode="&#xCD;" horiz-adv-x="307" d="M70 0V612Q70 653 94 669T157 686Q186 686 208 679T237 670V0H70ZM12 820L147 888Q166 898 184 905T221 912Q246 912 261 900T285 873T297 845T300 828L46 747L12 820Z"  />
<glyph unicode="&#xCE;" horiz-adv-x="307" d="M70 0V612Q70 653 94 669T157 686Q186 686 208 679T237 670V0H70ZM0 745L-40 808L69 876Q88 887 110 899T156 912Q180 912 203 900T243 876L352 808L312 745L156 807L0 745Z"  />
<glyph unicode="&#xCF;" horiz-adv-x="307" d="M70 0V612Q70 653 94 669T157 686Q186 686 208 679T237 670V0H70ZM197 829Q197 857 218 879T272 902Q304 902 325 880T347 829Q347 801 326 779T272 756Q240 756 219 778T197 829ZM-35 829Q-35 843 -29 856T-13 879T12 896T41 902Q72 902 94 880T116 829Q116 801 94 779T41 756Q26 756 12 762T-12 778T-29 802T-35 829Z"  />
<glyph unicode="&#xD0;" horiz-adv-x="779" d="M98 288H73Q40 288 26 305T12 355Q12 375 17 390T26 411H98V597Q98 619 104 635T119 661T141 677T167 685Q186 689 222 692T330 696Q423 696 498 673T627 605T710 495T739 344Q739 260 712 195T632 84T499 14T314 -10Q201 -10 152 -6T98 0V288ZM265 148Q271 147 291 146T341 144Q391 144 432 155T502 191T548 254T564 344Q564 388 551 425T512 489T445 531T349 546Q310 546 289 545T265 542V411H383Q417 411 430 394T444 347Q444 325 439 310T430 288H265V148Z"  />
<glyph unicode="&#xD1;" horiz-adv-x="739" d="M70 599Q70 625 78 642T99 668T128 682T162 686Q197 686 218 677T245 662Q250 657 267 633T309 574T362 497T418 414T468 339T504 283V612Q504 653 528 669T591 686Q620 686 642 679T669 670V0H512Q503 15 484 45T440 113T387 194T331 280T278 359T235 422V0H70V599ZM186 764Q191 786 200 806T225 843T261 870T312 880Q338 880 357 876T390 868Q405 863 422 859T453 854Q465 854 474 861T488 888L584 870Q579 848 570 827T546 790T510 764T458 754Q443 754 428 756T398 763T372 770T354 775Q346 777 336 779T318 781Q307 781 298 773T284 745L186 764Z"  />
<glyph unicode="&#xD2;" horiz-adv-x="822" d="M40 343Q40 419 68 485T147 599T265 676T411 704Q489 704 557 676T675 600T753 485T782 343Q782 267 754 201T675 87T557 10T411 -18Q333 -18 265 10T147 86T69 201T40 343ZM411 138Q454 138 490 153T552 197T592 262T607 343Q607 387 593 424T552 489T490 532T411 548Q368 548 332 533T270 490T230 425T215 343Q215 299 229 262T270 197T332 154T411 138ZM267 828Q267 831 270 844T281 873T305 900T346 912Q364 912 382 905T420 888L555 820L520 747L267 828Z"  />
<glyph unicode="&#xD3;" horiz-adv-x="822" d="M40 343Q40 419 68 485T147 599T265 676T411 704Q489 704 557 676T675 600T753 485T782 343Q782 267 754 201T675 87T557 10T411 -18Q333 -18 265 10T147 86T69 201T40 343ZM411 138Q454 138 490 153T552 197T592 262T607 343Q607 387 593 424T552 489T490 532T411 548Q368 548 332 533T270 490T230 425T215 343Q215 299 229 262T270 197T332 154T411 138ZM276 820L411 888Q430 898 448 905T485 912Q510 912 525 900T549 873T561 845T564 828L310 747L276 820Z"  />
<glyph unicode="&#xD4;" horiz-adv-x="822" d="M40 343Q40 419 68 485T147 599T265 676T411 704Q489 704 557 676T675 600T753 485T782 343Q782 267 754 201T675 87T557 10T411 -18Q333 -18 265 10T147 86T69 201T40 343ZM411 138Q454 138 490 153T552 197T592 262T607 343Q607 387 593 424T552 489T490 532T411 548Q368 548 332 533T270 490T230 425T215 343Q215 299 229 262T270 197T332 154T411 138ZM255 745L215 808L324 876Q343 887 365 899T411 912Q435 912 458 900T498 876L607 808L567 745L411 807L255 745Z"  />
<glyph unicode="&#xD5;" horiz-adv-x="822" d="M40 343Q40 419 68 485T147 599T265 676T411 704Q489 704 557 676T675 600T753 485T782 343Q782 267 754 201T675 87T557 10T411 -18Q333 -18 265 10T147 86T69 201T40 343ZM411 138Q454 138 490 153T552 197T592 262T607 343Q607 387 593 424T552 489T490 532T411 548Q368 548 332 533T270 490T230 425T215 343Q215 299 229 262T270 197T332 154T411 138ZM212 764Q217 786 226 806T251 843T287 870T338 880Q364 880 383 876T416 868Q431 863 448 859T479 854Q491 854 500 861T514 888L610 870Q605 848 596 827T572 790T536 764T484 754Q469 754 454 756T424 763T398 770T380 775Q372 777 362 779T344 781Q333 781 324 773T310 745L212 764Z"  />
<glyph unicode="&#xD6;" horiz-adv-x="822" d="M40 343Q40 419 68 485T147 599T265 676T411 704Q489 704 557 676T675 600T753 485T782 343Q782 267 754 201T675 87T557 10T411 -18Q333 -18 265 10T147 86T69 201T40 343ZM411 138Q454 138 490 153T552 197T592 262T607 343Q607 387 593 424T552 489T490 532T411 548Q368 548 332 533T270 490T230 425T215 343Q215 299 229 262T270 197T332 154T411 138ZM452 829Q452 857 473 879T527 902Q559 902 580 880T602 829Q602 801 581 779T527 756Q495 756 474 778T452 829ZM220 829Q220 843 226 856T242 879T267 896T296 902Q327 902 349 880T371 829Q371 801 349 779T296 756Q281 756 267 762T243 778T226 802T220 829Z"  />
<glyph unicode="&#xD7;" horiz-adv-x="637" d="M208 342L125 422Q101 446 101 471Q101 499 131 529Q151 549 169 558T193 570L313 448L396 533Q419 556 444 556Q474 556 505 525Q524 505 534 486T547 461L422 339L505 259Q518 247 523 235T528 211Q528 196 520 182T498 152Q479 133 460 123T436 111L316 234L234 148Q211 125 185 125Q156 125 125 156Q105 176 95 194T82 220L208 342Z"  />
<glyph unicode="&#xD8;" horiz-adv-x="822" d="M196 46Q124 95 82 172T40 343Q40 419 68 485T147 599T265 676T411 704Q456 704 502 693L522 736Q534 761 550 773T598 785Q615 785 630 781T656 772T674 761T684 754L629 637Q699 588 740 512T782 343Q782 267 754 201T675 87T557 10T411 -18Q388 -18 366 -16T323 -8L281 -98H128L196 46ZM432 547Q430 547 423 547T411 548Q368 548 332 533T270 490T230 425T215 343Q215 255 268 199L432 547ZM411 138Q454 138 490 153T552 197T592 262T607 343Q607 385 594 421T556 484L393 138H411Z"  />
<glyph unicode="&#xD9;" horiz-adv-x="760" d="M63 612Q63 653 87 669T150 686Q179 686 201 679T230 670V321Q230 276 237 242T262 184T308 148T380 136Q423 136 451 148T497 183T522 241T530 321V612Q530 653 554 669T617 686Q646 686 668 679T697 670V304Q697 152 615 67T380 -18Q227 -18 145 67T63 304V612ZM236 828Q236 831 239 844T250 873T274 900T315 912Q333 912 351 905T389 888L524 820L489 747L236 828Z"  />
<glyph unicode="&#xDA;" horiz-adv-x="760" d="M63 612Q63 653 87 669T150 686Q179 686 201 679T230 670V321Q230 276 237 242T262 184T308 148T380 136Q423 136 451 148T497 183T522 241T530 321V612Q530 653 554 669T617 686Q646 686 668 679T697 670V304Q697 152 615 67T380 -18Q227 -18 145 67T63 304V612ZM258 820L393 888Q412 898 430 905T467 912Q492 912 507 900T531 873T543 845T546 828L292 747L258 820Z"  />
<glyph unicode="&#xDB;" horiz-adv-x="760" d="M63 612Q63 653 87 669T150 686Q179 686 201 679T230 670V321Q230 276 237 242T262 184T308 148T380 136Q423 136 451 148T497 183T522 241T530 321V612Q530 653 554 669T617 686Q646 686 668 679T697 670V304Q697 152 615 67T380 -18Q227 -18 145 67T63 304V612ZM231 745L191 808L300 876Q319 887 341 899T387 912Q411 912 434 900T474 876L583 808L543 745L387 807L231 745Z"  />
<glyph unicode="&#xDC;" horiz-adv-x="760" d="M63 612Q63 653 87 669T150 686Q179 686 201 679T230 670V321Q230 276 237 242T262 184T308 148T380 136Q423 136 451 148T497 183T522 241T530 321V612Q530 653 554 669T617 686Q646 686 668 679T697 670V304Q697 152 615 67T380 -18Q227 -18 145 67T63 304V612ZM435 829Q435 857 456 879T510 902Q542 902 563 880T585 829Q585 801 564 779T510 756Q478 756 457 778T435 829ZM203 829Q203 843 209 856T225 879T250 896T279 902Q310 902 332 880T354 829Q354 801 332 779T279 756Q264 756 250 762T226 778T209 802T203 829Z"  />
<glyph unicode="&#xDD;" horiz-adv-x="691" d="M252 253Q229 281 203 314T153 378T109 437T75 482Q65 496 53 513T30 548T12 585T5 618Q5 653 27 669T82 686Q110 686 129 680T154 670Q169 647 193 611T243 537T295 462T338 402Q356 426 375 454T414 512T452 571T487 625Q493 634 501 645T522 665T552 680T592 686Q610 686 626 682T654 671T675 659T686 650Q678 633 661 605T621 541T570 465T516 387T464 314T419 253V0H252V253ZM235 816L350 889Q367 900 383 908T417 917Q439 917 453 906T475 881T486 855T490 840L279 750L235 816Z"  />
<glyph unicode="&#xDE;" horiz-adv-x="668" d="M70 612Q70 653 93 669T155 686Q184 686 206 679T233 670V582Q250 583 271 583T318 584Q408 584 468 564T564 510T616 433T632 343Q632 290 615 246T562 171T470 122T335 104Q317 104 300 105T269 107T246 109T233 111V0H70V612ZM233 252Q240 251 257 249T315 246Q361 246 389 254T434 277T455 308T461 343Q461 359 457 376T437 407T394 431T317 441Q282 441 260 440T233 437V252Z"  />
<glyph unicode="&#xDF;" horiz-adv-x="643" d="M55 0V522Q55 561 66 599T106 668T182 718T301 737Q367 737 412 721T484 678T524 619T537 556Q537 500 513 464T459 415Q487 409 514 396T562 358T595 297T608 211Q608 156 589 114T538 44T463 1T372 -14Q325 -14 300 -8T270 0L287 129Q292 127 309 124T345 121Q375 121 394 129T424 150T439 181T443 219Q443 273 409 301T321 329H280V456H297Q333 456 356 475T379 533Q379 576 354 595T298 615Q255 615 235 591T215 524V0H55Z"  />
<glyph unicode="&#xE0;" horiz-adv-x="582" d="M527 3Q521 1 500 -1T448 -7T376 -12T290 -14Q214 -14 164 -1T84 36T42 89T30 154Q30 246 89 285T276 325Q308 325 329 324T365 321Q365 356 337 376T242 396Q211 396 188 393T148 384T121 374T107 366Q105 368 99 374T87 389T76 411T71 437Q71 524 249 524Q307 524 358 514T446 478T505 410T527 305V3ZM366 212Q357 214 340 215T287 217Q257 217 238 212T209 199T194 179T190 156Q190 147 193 137T206 119T236 106T289 100Q315 100 337 101T366 105V212ZM172 660Q172 663 175 675T187 701T209 726T245 737Q262 737 278 729T312 709L427 636L383 570L172 660Z"  />
<glyph unicode="&#xE1;" horiz-adv-x="582" d="M527 3Q521 1 500 -1T448 -7T376 -12T290 -14Q214 -14 164 -1T84 36T42 89T30 154Q30 246 89 285T276 325Q308 325 329 324T365 321Q365 356 337 376T242 396Q211 396 188 393T148 384T121 374T107 366Q105 368 99 374T87 389T76 411T71 437Q71 524 249 524Q307 524 358 514T446 478T505 410T527 305V3ZM366 212Q357 214 340 215T287 217Q257 217 238 212T209 199T194 179T190 156Q190 147 193 137T206 119T236 106T289 100Q315 100 337 101T366 105V212ZM202 636L317 709Q334 720 350 728T384 737Q406 737 420 726T442 701T453 675T457 660L246 570L202 636Z"  />
<glyph unicode="&#xE2;" horiz-adv-x="582" d="M527 3Q521 1 500 -1T448 -7T376 -12T290 -14Q214 -14 164 -1T84 36T42 89T30 154Q30 246 89 285T276 325Q308 325 329 324T365 321Q365 356 337 376T242 396Q211 396 188 393T148 384T121 374T107 366Q105 368 99 374T87 389T76 411T71 437Q71 524 249 524Q307 524 358 514T446 478T505 410T527 305V3ZM366 212Q357 214 340 215T287 217Q257 217 238 212T209 199T194 179T190 156Q190 147 193 137T206 119T236 106T289 100Q315 100 337 101T366 105V212ZM179 570L129 633L228 701Q243 712 264 724T307 737Q329 737 350 725T386 701L485 633L435 570L307 640L179 570Z"  />
<glyph unicode="&#xE3;" horiz-adv-x="582" d="M527 3Q521 1 500 -1T448 -7T376 -12T290 -14Q214 -14 164 -1T84 36T42 89T30 154Q30 246 89 285T276 325Q308 325 329 324T365 321Q365 356 337 376T242 396Q211 396 188 393T148 384T121 374T107 366Q105 368 99 374T87 389T76 411T71 437Q71 524 249 524Q307 524 358 514T446 478T505 410T527 305V3ZM366 212Q357 214 340 215T287 217Q257 217 238 212T209 199T194 179T190 156Q190 147 193 137T206 119T236 106T289 100Q315 100 337 101T366 105V212ZM120 589Q124 610 133 630T156 667T191 692T239 702Q263 702 281 698T313 690L338 682Q349 679 356 678T374 676Q386 676 395 683T409 710L498 692Q493 671 485 651T462 614T427 589T379 579Q358 579 341 583T303 593L279 600Q271 602 262 604T244 606Q233 606 224 598T210 570L120 589Z"  />
<glyph unicode="&#xE4;" horiz-adv-x="582" d="M527 3Q521 1 500 -1T448 -7T376 -12T290 -14Q214 -14 164 -1T84 36T42 89T30 154Q30 246 89 285T276 325Q308 325 329 324T365 321Q365 356 337 376T242 396Q211 396 188 393T148 384T121 374T107 366Q105 368 99 374T87 389T76 411T71 437Q71 524 249 524Q307 524 358 514T446 478T505 410T527 305V3ZM366 212Q357 214 340 215T287 217Q257 217 238 212T209 199T194 179T190 156Q190 147 193 137T206 119T236 106T289 100Q315 100 337 101T366 105V212ZM125 642Q125 655 131 668T147 691T171 707T200 713Q230 713 251 691T273 642Q273 614 252 592T200 570Q185 570 172 576T148 592T131 615T125 642ZM338 642Q338 669 359 691T412 713Q443 713 464 691T485 642Q485 614 464 592T412 570Q381 570 360 592T338 642Z"  />
<glyph unicode="&#xE5;" horiz-adv-x="582" d="M527 3Q521 1 500 -1T448 -7T376 -12T290 -14Q214 -14 164 -1T84 36T42 89T30 154Q30 246 89 285T276 325Q308 325 329 324T365 321Q365 356 337 376T242 396Q211 396 188 393T148 384T121 374T107 366Q105 368 99 374T87 389T76 411T71 437Q71 524 249 524Q307 524 358 514T446 478T505 410T527 305V3ZM366 212Q357 214 340 215T287 217Q257 217 238 212T209 199T194 179T190 156Q190 147 193 137T206 119T236 106T289 100Q315 100 337 101T366 105V212ZM198 666Q198 687 206 705T228 737T261 759T301 767Q322 767 341 759T374 737T396 705T404 666Q404 645 396 627T374 595T341 573T301 565Q280 565 261 573T228 595T206 627T198 666ZM301 622Q321 622 332 634T343 666Q343 686 332 698T301 710Q281 710 270 698T259 666Q259 646 270 634T301 622Z"  />
<glyph unicode="&#xE6;" horiz-adv-x="890" d="M853 40Q845 35 827 26T780 8T715 -7T632 -14Q599 -14 572 -9T525 5T490 20T469 33Q467 31 455 24T418 8T359 -7T274 -14Q204 -14 158 -1T83 36T42 89T30 154Q30 246 87 285T264 325Q277 325 293 324T324 322T350 320T365 318Q365 356 337 376T242 397Q211 397 188 393T148 384T121 374T107 366Q105 368 99 374T87 389T76 411T71 437Q71 524 249 524Q300 524 337 516T399 496T439 472T461 451Q467 458 481 470T519 494T573 515T643 524Q695 524 736 510T807 470T851 413T867 347Q867 310 854 281T812 231T734 200T614 189Q590 189 566 190T535 192Q537 178 545 166T569 143T609 127T667 121Q693 121 716 125T756 135T784 145T797 152L853 40ZM392 122Q390 126 386 136T377 158T370 185T366 212Q357 214 339 215T287 217Q257 217 238 212T209 199T194 179T190 156Q190 147 193 137T206 119T236 105T289 99Q334 99 360 109T392 122ZM566 294Q618 294 647 299T691 311T709 329T712 348Q712 369 693 384T636 400Q610 400 590 391T557 367T536 334T527 296V294H566Z"  />
<glyph unicode="&#xE7;" horiz-adv-x="518" d="M516 44Q505 37 487 27T444 8T385 -7T312 -14Q258 -14 208 3T119 53T58 137T35 255Q35 319 57 369T118 454T208 506T318 524Q371 524 417 511T487 474Q498 463 504 451T511 421Q511 404 505 390T490 365T472 346T455 333Q437 351 405 366T329 382Q303 382 280 374T239 350T211 310T200 255Q200 222 210 199T238 160T280 138T331 131Q354 131 373 135T408 146T433 157T446 166L516 44ZM162 -114Q164 -116 173 -119T195 -126T224 -132T253 -135Q274 -135 282 -130T291 -112Q291 -98 272 -91T232 -84L249 -25Q275 -25 302 -29T351 -44T387 -71T401 -113Q401 -158 365 -184T265 -211Q208 -211 175 -200T133 -182L162 -114Z"  />
<glyph unicode="&#xE8;" horiz-adv-x="561" d="M206 188Q208 176 216 165T240 143T280 127T338 121Q364 121 387 125T427 135T455 145T468 152L524 40Q516 35 498 26T451 8T386 -7T303 -14Q247 -14 198 4T113 56T55 141T34 255Q34 315 55 365T113 450T200 504T308 524Q362 524 405 510T477 470T522 413T538 347Q538 310 525 281T479 231T388 199T241 188H206ZM198 292Q265 292 302 297T357 310T379 328T383 348Q383 369 364 384T307 400Q280 400 260 391T227 366T206 332T198 292ZM186 660Q186 663 189 675T201 701T223 726T259 737Q276 737 292 729T326 709L441 636L397 570L186 660Z"  />
<glyph unicode="&#xE9;" horiz-adv-x="561" d="M206 188Q208 176 216 165T240 143T280 127T338 121Q364 121 387 125T427 135T455 145T468 152L524 40Q516 35 498 26T451 8T386 -7T303 -14Q247 -14 198 4T113 56T55 141T34 255Q34 315 55 365T113 450T200 504T308 524Q362 524 405 510T477 470T522 413T538 347Q538 310 525 281T479 231T388 199T241 188H206ZM198 292Q265 292 302 297T357 310T379 328T383 348Q383 369 364 384T307 400Q280 400 260 391T227 366T206 332T198 292ZM211 636L326 709Q343 720 359 728T393 737Q415 737 429 726T451 701T462 675T466 660L255 570L211 636Z"  />
<glyph unicode="&#xEA;" horiz-adv-x="561" d="M206 188Q208 176 216 165T240 143T280 127T338 121Q364 121 387 125T427 135T455 145T468 152L524 40Q516 35 498 26T451 8T386 -7T303 -14Q247 -14 198 4T113 56T55 141T34 255Q34 315 55 365T113 450T200 504T308 524Q362 524 405 510T477 470T522 413T538 347Q538 310 525 281T479 231T388 199T241 188H206ZM198 292Q265 292 302 297T357 310T379 328T383 348Q383 369 364 384T307 400Q280 400 260 391T227 366T206 332T198 292ZM184 570L134 633L233 701Q248 712 269 724T312 737Q334 737 355 725T391 701L490 633L440 570L312 640L184 570Z"  />
<glyph unicode="&#xEB;" horiz-adv-x="561" d="M206 188Q208 176 216 165T240 143T280 127T338 121Q364 121 387 125T427 135T455 145T468 152L524 40Q516 35 498 26T451 8T386 -7T303 -14Q247 -14 198 4T113 56T55 141T34 255Q34 315 55 365T113 450T200 504T308 524Q362 524 405 510T477 470T522 413T538 347Q538 310 525 281T479 231T388 199T241 188H206ZM198 292Q265 292 302 297T357 310T379 328T383 348Q383 369 364 384T307 400Q280 400 260 391T227 366T206 332T198 292ZM123 642Q123 655 129 668T145 691T169 707T198 713Q228 713 249 691T271 642Q271 614 250 592T198 570Q183 570 170 576T146 592T129 615T123 642ZM336 642Q336 669 357 691T410 713Q441 713 462 691T483 642Q483 614 462 592T410 570Q379 570 358 592T336 642Z"  />
<glyph unicode="&#xEC;" horiz-adv-x="281" d="M60 439Q60 478 83 494T144 510Q171 510 193 504T221 495V0H60V439ZM30 660Q30 663 33 675T45 701T67 726T103 737Q120 737 136 729T170 709L285 636L241 570L30 660Z"  />
<glyph unicode="&#xED;" horiz-adv-x="281" d="M60 439Q60 478 83 494T144 510Q171 510 193 504T221 495V0H60V439ZM24 636L139 709Q156 720 172 728T206 737Q228 737 242 726T264 701T275 675T279 660L68 570L24 636Z"  />
<glyph unicode="&#xEE;" horiz-adv-x="281" d="M60 439Q60 478 83 494T144 510Q171 510 193 504T221 495V0H60V439ZM15 570L-35 633L64 701Q79 712 100 724T143 737Q165 737 186 725T222 701L321 633L271 570L143 640L15 570Z"  />
<glyph unicode="&#xEF;" horiz-adv-x="281" d="M60 439Q60 478 83 494T144 510Q171 510 193 504T221 495V0H60V439ZM-38 642Q-38 655 -32 668T-16 691T8 707T37 713Q67 713 88 691T110 642Q110 614 89 592T37 570Q22 570 9 576T-15 592T-32 615T-38 642ZM175 642Q175 669 196 691T249 713Q280 713 301 691T322 642Q322 614 301 592T249 570Q218 570 197 592T175 642Z"  />
<glyph unicode="&#xF0;" horiz-adv-x="634" d="M144 568L235 615Q220 623 203 630T168 643L212 737Q291 713 355 678L469 737L509 662L435 623Q518 554 558 465T599 279Q599 204 579 149T521 58T432 4T317 -14Q255 -14 203 3T114 51T56 127T35 228Q35 284 55 328T108 403T183 450T271 466Q306 466 331 461T373 449T399 434T413 421Q411 427 406 441T389 475T359 517T316 561L185 493L144 568ZM200 228Q200 179 231 147T317 115Q371 115 402 147T434 228Q434 277 403 309T317 341Q263 341 232 309T200 228Z"  />
<glyph unicode="&#xF1;" horiz-adv-x="619" d="M55 309Q55 361 75 401T130 469T211 510T310 524Q362 524 408 510T489 469T544 402T564 309V0H403V272Q403 325 379 350T310 376Q216 376 216 272V0H55V309ZM121 589Q125 610 134 630T157 667T192 692T240 702Q264 702 282 698T314 690L339 682Q350 679 357 678T375 676Q387 676 396 683T410 710L499 692Q494 671 486 651T463 614T428 589T380 579Q359 579 342 583T304 593L280 600Q272 602 263 604T245 606Q234 606 225 598T211 570L121 589Z"  />
<glyph unicode="&#xF2;" horiz-adv-x="634" d="M35 255Q35 313 57 362T117 447T207 503T317 524Q375 524 426 504T516 447T577 362T599 255Q599 197 577 148T517 63T427 7T317 -14Q258 -14 207 6T118 63T57 148T35 255ZM317 130Q342 130 363 139T401 165T425 205T434 255Q434 282 426 305T401 344T364 370T317 380Q291 380 270 371T233 345T209 305T200 255Q200 228 208 205T233 166T270 140T317 130ZM180 660Q180 663 183 675T195 701T217 726T253 737Q270 737 286 729T320 709L435 636L391 570L180 660Z"  />
<glyph unicode="&#xF3;" horiz-adv-x="634" d="M35 255Q35 313 57 362T117 447T207 503T317 524Q375 524 426 504T516 447T577 362T599 255Q599 197 577 148T517 63T427 7T317 -14Q258 -14 207 6T118 63T57 148T35 255ZM317 130Q342 130 363 139T401 165T425 205T434 255Q434 282 426 305T401 344T364 370T317 380Q291 380 270 371T233 345T209 305T200 255Q200 228 208 205T233 166T270 140T317 130ZM205 636L320 709Q337 720 353 728T387 737Q409 737 423 726T445 701T456 675T460 660L249 570L205 636Z"  />
<glyph unicode="&#xF4;" horiz-adv-x="634" d="M35 255Q35 313 57 362T117 447T207 503T317 524Q375 524 426 504T516 447T577 362T599 255Q599 197 577 148T517 63T427 7T317 -14Q258 -14 207 6T118 63T57 148T35 255ZM317 130Q342 130 363 139T401 165T425 205T434 255Q434 282 426 305T401 344T364 370T317 380Q291 380 270 371T233 345T209 305T200 255Q200 228 208 205T233 166T270 140T317 130ZM190 570L140 633L239 701Q254 712 275 724T318 737Q340 737 361 725T397 701L496 633L446 570L318 640L190 570Z"  />
<glyph unicode="&#xF5;" horiz-adv-x="634" d="M35 255Q35 313 57 362T117 447T207 503T317 524Q375 524 426 504T516 447T577 362T599 255Q599 197 577 148T517 63T427 7T317 -14Q258 -14 207 6T118 63T57 148T35 255ZM317 130Q342 130 363 139T401 165T425 205T434 255Q434 282 426 305T401 344T364 370T317 380Q291 380 270 371T233 345T209 305T200 255Q200 228 208 205T233 166T270 140T317 130ZM128 589Q132 610 141 630T164 667T199 692T247 702Q271 702 289 698T321 690L346 682Q357 679 364 678T382 676Q394 676 403 683T417 710L506 692Q501 671 493 651T470 614T435 589T387 579Q366 579 349 583T311 593L287 600Q279 602 270 604T252 606Q241 606 232 598T218 570L128 589Z"  />
<glyph unicode="&#xF6;" horiz-adv-x="634" d="M35 255Q35 313 57 362T117 447T207 503T317 524Q375 524 426 504T516 447T577 362T599 255Q599 197 577 148T517 63T427 7T317 -14Q258 -14 207 6T118 63T57 148T35 255ZM317 130Q342 130 363 139T401 165T425 205T434 255Q434 282 426 305T401 344T364 370T317 380Q291 380 270 371T233 345T209 305T200 255Q200 228 208 205T233 166T270 140T317 130ZM137 642Q137 655 143 668T159 691T183 707T212 713Q242 713 263 691T285 642Q285 614 264 592T212 570Q197 570 184 576T160 592T143 615T137 642ZM350 642Q350 669 371 691T424 713Q455 713 476 691T497 642Q497 614 476 592T424 570Q393 570 372 592T350 642Z"  />
<glyph unicode="&#xF7;" horiz-adv-x="630" d="M507 417Q546 417 562 396T578 337Q578 310 572 290T563 264H123Q84 264 68 285T52 344Q52 371 58 391T67 417H507ZM226 546Q226 584 251 610T315 636Q353 636 379 610T405 546Q405 508 379 483T315 457Q277 457 252 482T226 546ZM226 134Q226 172 251 198T315 224Q353 224 379 198T405 134Q405 96 379 71T315 45Q277 45 252 70T226 134Z"  />
<glyph unicode="&#xF8;" horiz-adv-x="634" d="M157 31Q101 67 68 125T35 255Q35 313 57 362T117 447T207 503T317 524Q337 524 356 522T393 514L412 554Q420 571 431 579T464 587Q487 587 503 578T522 566L478 477Q533 441 566 384T599 255Q599 197 577 148T517 63T427 7T317 -14Q278 -14 242 -5L207 -76H105L157 31ZM328 382Q325 383 317 383Q291 383 269 374T230 347T205 306T196 255Q196 204 225 169L328 382ZM317 127Q343 127 365 136T404 163T429 204T438 255Q438 304 410 338L307 127H317Z"  />
<glyph unicode="&#xF9;" horiz-adv-x="620" d="M216 238Q216 134 310 134Q404 134 404 238V439Q404 478 427 494T488 510Q515 510 537 504T565 495V208Q565 152 546 111T492 42T411 0T310 -14Q256 -14 209 0T128 41T75 110T55 208V439Q55 478 78 494T139 510Q166 510 188 504T216 495V238ZM156 660Q156 663 159 675T171 701T193 726T229 737Q246 737 262 729T296 709L411 636L367 570L156 660Z"  />
<glyph unicode="&#xFA;" horiz-adv-x="620" d="M216 238Q216 134 310 134Q404 134 404 238V439Q404 478 427 494T488 510Q515 510 537 504T565 495V208Q565 152 546 111T492 42T411 0T310 -14Q256 -14 209 0T128 41T75 110T55 208V439Q55 478 78 494T139 510Q166 510 188 504T216 495V238ZM221 636L336 709Q353 720 369 728T403 737Q425 737 439 726T461 701T472 675T476 660L265 570L221 636Z"  />
<glyph unicode="&#xFB;" horiz-adv-x="620" d="M216 238Q216 134 310 134Q404 134 404 238V439Q404 478 427 494T488 510Q515 510 537 504T565 495V208Q565 152 546 111T492 42T411 0T310 -14Q256 -14 209 0T128 41T75 110T55 208V439Q55 478 78 494T139 510Q166 510 188 504T216 495V238ZM182 570L132 633L231 701Q246 712 267 724T310 737Q332 737 353 725T389 701L488 633L438 570L310 640L182 570Z"  />
<glyph unicode="&#xFC;" horiz-adv-x="620" d="M216 238Q216 134 310 134Q404 134 404 238V439Q404 478 427 494T488 510Q515 510 537 504T565 495V208Q565 152 546 111T492 42T411 0T310 -14Q256 -14 209 0T128 41T75 110T55 208V439Q55 478 78 494T139 510Q166 510 188 504T216 495V238ZM130 642Q130 655 136 668T152 691T176 707T205 713Q235 713 256 691T278 642Q278 614 257 592T205 570Q190 570 177 576T153 592T136 615T130 642ZM343 642Q343 669 364 691T417 713Q448 713 469 691T490 642Q490 614 469 592T417 570Q386 570 365 592T343 642Z"  />
<glyph unicode="&#xFD;" horiz-adv-x="620" d="M114 -55Q118 -57 131 -61T165 -70T210 -78T263 -82Q340 -82 374 -49T408 60Q389 37 350 24T272 10Q226 10 187 21T118 57T72 117T55 204V439Q55 478 78 494T139 510Q166 510 188 504T216 495V237Q216 189 238 168T309 147Q354 147 379 173T404 253V439Q404 478 427 494T488 510Q515 510 537 504T565 495V71Q565 -5 545 -58T488 -145T400 -194T286 -210Q242 -210 205 -205T140 -194T95 -181T75 -173L114 -55ZM223 636L338 709Q355 720 371 728T405 737Q427 737 441 726T463 701T474 675T478 660L267 570L223 636Z"  />
<glyph unicode="&#xFE;" horiz-adv-x="632" d="M43 -200V666Q43 705 66 721T128 737Q155 737 176 731T204 722V472Q222 490 258 507T350 524Q401 524 446 505T524 451T577 367T597 257Q597 195 578 146T525 61T446 7T350 -12Q294 -12 258 5T203 41V-200H43ZM317 133Q367 133 399 167T432 256Q432 310 400 343T317 376Q267 376 235 344T202 256Q202 230 210 208T234 169T271 143T317 133Z"  />
<glyph unicode="&#xFF;" horiz-adv-x="620" d="M114 -55Q118 -57 131 -61T165 -70T210 -78T263 -82Q340 -82 374 -49T408 60Q389 37 350 24T272 10Q226 10 187 21T118 57T72 117T55 204V439Q55 478 78 494T139 510Q166 510 188 504T216 495V237Q216 189 238 168T309 147Q354 147 379 173T404 253V439Q404 478 427 494T488 510Q515 510 537 504T565 495V71Q565 -5 545 -58T488 -145T400 -194T286 -210Q242 -210 205 -205T140 -194T95 -181T75 -173L114 -55ZM137 642Q137 655 143 668T159 691T183 707T212 713Q242 713 263 691T285 642Q285 614 264 592T212 570Q197 570 184 576T160 592T143 615T137 642ZM350 642Q350 669 371 691T424 713Q455 713 476 691T497 642Q497 614 476 592T424 570Q393 570 372 592T350 642Z"  />
<glyph unicode="&#x100;" horiz-adv-x="769" d="M5 0Q26 56 56 130T120 288T192 459T266 627Q285 670 312 687T385 704Q402 704 418 700T448 691T469 680T479 674Q494 649 518 595T572 474T632 332T689 192T736 74T764 0H580Q569 29 556 64T524 148H233Q217 106 205 71T178 0H5ZM467 299Q457 326 444 359T419 424T397 482T380 522Q374 508 364 483T342 426T317 361T293 299H467ZM530 866Q562 866 572 851T582 811Q582 793 579 781T573 764H240Q211 764 199 778T187 814Q187 834 189 845T195 866H530Z"  />
<glyph unicode="&#x101;" horiz-adv-x="582" d="M527 3Q521 1 500 -1T448 -7T376 -12T290 -14Q214 -14 164 -1T84 36T42 89T30 154Q30 246 89 285T276 325Q308 325 329 324T365 321Q365 356 337 376T242 396Q211 396 188 393T148 384T121 374T107 366Q105 368 99 374T87 389T76 411T71 437Q71 524 249 524Q307 524 358 514T446 478T505 410T527 305V3ZM366 212Q357 214 340 215T287 217Q257 217 238 212T209 199T194 179T190 156Q190 147 193 137T206 119T236 106T289 100Q315 100 337 101T366 105V212ZM406 692Q433 692 443 679T454 643Q454 626 450 614T444 597H158Q132 597 121 610T110 646Q110 663 114 675T120 692H406Z"  />
<glyph unicode="&#x102;" horiz-adv-x="769" d="M5 0Q26 56 56 130T120 288T192 459T266 627Q285 670 312 687T385 704Q402 704 418 700T448 691T469 680T479 674Q494 649 518 595T572 474T632 332T689 192T736 74T764 0H580Q569 29 556 64T524 148H233Q217 106 205 71T178 0H5ZM467 299Q457 326 444 359T419 424T397 482T380 522Q374 508 364 483T342 426T317 361T293 299H467ZM301 907Q322 839 386 839Q452 839 471 906L554 897Q553 875 545 849T518 801T466 763T386 747Q337 747 305 762T254 800T226 849T217 897L301 907Z"  />
<glyph unicode="&#x103;" horiz-adv-x="582" d="M527 3Q521 1 500 -1T448 -7T376 -12T290 -14Q214 -14 164 -1T84 36T42 89T30 154Q30 246 89 285T276 325Q308 325 329 324T365 321Q365 356 337 376T242 396Q211 396 188 393T148 384T121 374T107 366Q105 368 99 374T87 389T76 411T71 437Q71 524 249 524Q307 524 358 514T446 478T505 410T527 305V3ZM366 212Q357 214 340 215T287 217Q257 217 238 212T209 199T194 179T190 156Q190 147 193 137T206 119T236 106T289 100Q315 100 337 101T366 105V212ZM205 730Q214 695 232 679T281 662Q312 662 330 678T357 730L432 720Q431 699 424 674T399 626T353 588T281 573Q237 573 209 588T163 625T138 673T130 720L205 730Z"  />
<glyph unicode="&#x104;" horiz-adv-x="769" d="M5 0Q26 56 56 130T120 288T192 459T266 627Q285 670 312 687T385 704Q402 704 418 700T448 691T469 680T479 674Q494 649 518 595T572 474T632 332T689 192T736 74T764 0H703Q693 -2 678 -6T648 -20T623 -41T612 -70Q612 -88 625 -94T652 -100Q679 -100 697 -92T719 -82L750 -149Q736 -157 705 -167T627 -178Q575 -178 542 -158T509 -92Q509 -70 517 -53T537 -25T561 -7T579 2Q568 31 555 66T524 148H233Q217 106 205 71T178 0H5ZM467 299Q457 326 444 359T419 424T397 482T380 522Q374 508 364 483T342 426T317 361T293 299H467Z"  />
<glyph unicode="&#x105;" horiz-adv-x="582" d="M527 3Q522 1 504 -1T457 -6Q446 -10 434 -15T412 -29T396 -48T389 -72Q389 -92 403 -98T432 -105Q460 -105 477 -97T498 -87L527 -151Q513 -159 483 -169T406 -179Q355 -179 323 -160T290 -95Q290 -63 305 -44T336 -13Q325 -14 313 -14T290 -14Q214 -14 164 -1T84 36T42 89T30 154Q30 246 89 285T276 325Q308 325 329 324T365 321Q365 356 337 376T242 396Q211 396 188 393T148 384T121 374T107 366Q105 368 99 374T87 389T76 411T71 437Q71 524 249 524Q307 524 358 514T446 478T505 410T527 305V3ZM366 212Q357 214 340 215T287 217Q257 217 238 212T209 199T194 179T190 156Q190 147 193 137T206 119T236 106T289 100Q315 100 337 101T366 105V212Z"  />
<glyph unicode="&#x106;" horiz-adv-x="671" d="M660 51Q649 43 629 32T577 9T504 -10T409 -18Q334 -18 267 4T150 72T70 184T40 340Q40 427 68 494T146 608T262 679T406 704Q447 704 480 699T538 686T582 669T611 653Q634 636 644 618T654 579Q654 560 647 543T629 513T608 490T590 476Q580 486 565 499T527 524T477 543T413 551Q369 551 333 537T271 495T230 428T215 340Q215 290 231 252T275 189T341 150T425 137Q481 137 521 151T583 180L658 51H660ZM267 820L402 888Q421 898 439 905T476 912Q501 912 516 900T540 873T552 845T555 828L301 747L267 820Z"  />
<glyph unicode="&#x107;" horiz-adv-x="518" d="M516 44Q505 37 487 27T444 8T385 -7T312 -14Q258 -14 208 3T119 53T58 137T35 255Q35 319 57 369T118 454T208 506T318 524Q371 524 417 511T487 474Q498 463 504 451T511 421Q511 404 505 390T490 365T472 346T455 333Q437 351 405 366T329 382Q303 382 280 374T239 350T211 310T200 255Q200 222 210 199T238 160T280 138T331 131Q354 131 373 135T408 146T433 157T446 166L516 44ZM200 636L315 709Q332 720 348 728T382 737Q404 737 418 726T440 701T451 675T455 660L244 570L200 636Z"  />
<glyph unicode="&#x108;" horiz-adv-x="671" d="M660 51Q649 43 629 32T577 9T504 -10T409 -18Q334 -18 267 4T150 72T70 184T40 340Q40 427 68 494T146 608T262 679T406 704Q447 704 480 699T538 686T582 669T611 653Q634 636 644 618T654 579Q654 560 647 543T629 513T608 490T590 476Q580 486 565 499T527 524T477 543T413 551Q369 551 333 537T271 495T230 428T215 340Q215 290 231 252T275 189T341 150T425 137Q481 137 521 151T583 180L658 51H660ZM256 745L216 808L325 876Q344 887 366 899T412 912Q436 912 459 900T499 876L608 808L568 745L412 807L256 745Z"  />
<glyph unicode="&#x109;" horiz-adv-x="518" d="M516 44Q505 37 487 27T444 8T385 -7T312 -14Q258 -14 208 3T119 53T58 137T35 255Q35 319 57 369T118 454T208 506T318 524Q371 524 417 511T487 474Q498 463 504 451T511 421Q511 404 505 390T490 365T472 346T455 333Q437 351 405 366T329 382Q303 382 280 374T239 350T211 310T200 255Q200 222 210 199T238 160T280 138T331 131Q354 131 373 135T408 146T433 157T446 166L516 44ZM181 570L131 633L230 701Q245 712 266 724T309 737Q331 737 352 725T388 701L487 633L437 570L309 640L181 570Z"  />
<glyph unicode="&#x10A;" horiz-adv-x="671" d="M660 51Q649 43 629 32T577 9T504 -10T409 -18Q334 -18 267 4T150 72T70 184T40 340Q40 427 68 494T146 608T262 679T406 704Q447 704 480 699T538 686T582 669T611 653Q634 636 644 618T654 579Q654 560 647 543T629 513T608 490T590 476Q580 486 565 499T527 524T477 543T413 551Q369 551 333 537T271 495T230 428T215 340Q215 290 231 252T275 189T341 150T425 137Q481 137 521 151T583 180L658 51H660ZM333 829Q333 843 339 856T355 879T380 896T409 902Q440 902 462 880T484 829Q484 801 462 779T409 756Q394 756 380 762T356 778T339 802T333 829Z"  />
<glyph unicode="&#x10B;" horiz-adv-x="518" d="M516 44Q505 37 487 27T444 8T385 -7T312 -14Q258 -14 208 3T119 53T58 137T35 255Q35 319 57 369T118 454T208 506T318 524Q371 524 417 511T487 474Q498 463 504 451T511 421Q511 404 505 390T490 365T472 346T455 333Q437 351 405 366T329 382Q303 382 280 374T239 350T211 310T200 255Q200 222 210 199T238 160T280 138T331 131Q354 131 373 135T408 146T433 157T446 166L516 44ZM245 642Q245 655 251 667T267 689T290 704T317 710Q331 710 344 705T366 690T381 668T387 642Q387 615 367 594T317 573Q303 573 290 578T267 594T251 616T245 642Z"  />
<glyph unicode="&#x10C;" horiz-adv-x="671" d="M660 51Q649 43 629 32T577 9T504 -10T409 -18Q334 -18 267 4T150 72T70 184T40 340Q40 427 68 494T146 608T262 679T406 704Q447 704 480 699T538 686T582 669T611 653Q634 636 644 618T654 579Q654 560 647 543T629 513T608 490T590 476Q580 486 565 499T527 524T477 543T413 551Q369 551 333 537T271 495T230 428T215 340Q215 290 231 252T275 189T341 150T425 137Q481 137 521 151T583 180L658 51H660ZM251 913L407 851L564 913L603 850L494 782Q477 771 454 759T407 746Q383 746 361 758T320 782L211 850L251 913Z"  />
<glyph unicode="&#x10D;" horiz-adv-x="518" d="M516 44Q505 37 487 27T444 8T385 -7T312 -14Q258 -14 208 3T119 53T58 137T35 255Q35 319 57 369T118 454T208 506T318 524Q371 524 417 511T487 474Q498 463 504 451T511 421Q511 404 505 390T490 365T472 346T455 333Q437 351 405 366T329 382Q303 382 280 374T239 350T211 310T200 255Q200 222 210 199T238 160T280 138T331 131Q354 131 373 135T408 146T433 157T446 166L516 44ZM134 674L180 737L310 667L440 737L486 674L389 606Q374 595 353 583T310 570Q288 570 267 582T231 606L134 674Z"  />
<glyph unicode="&#x10E;" horiz-adv-x="751" d="M237 148Q243 147 263 146T313 144Q363 144 404 155T474 191T520 254T536 344Q536 388 523 425T484 489T417 531T321 546Q282 546 261 545T237 542V148ZM70 597Q70 619 76 635T91 661T113 677T139 685Q158 689 194 692T302 696Q395 696 470 673T599 605T682 495T711 344Q711 260 684 195T604 84T471 14T286 -10Q173 -10 124 -6T70 0V597ZM171 913L327 851L484 913L523 850L414 782Q397 771 374 759T327 746Q303 746 281 758T240 782L131 850L171 913Z"  />
<glyph unicode="&#x10F;" horiz-adv-x="812" d="M589 278Q589 214 576 167T539 88Q501 38 442 12T311 -14Q252 -14 202 5T114 60T56 145T35 255Q35 316 54 365T107 450T186 504T282 524Q338 524 374 506T429 469V666Q429 705 452 721T513 737Q540 737 561 731T589 722V278ZM315 134Q365 134 397 166T430 254Q430 280 422 302T398 341T361 367T315 377Q265 377 233 343T200 254Q200 200 232 167T315 134ZM677 668Q677 706 699 721T759 737Q772 737 778 735T788 731T792 727T797 723L778 503H677V668Z"  />
<glyph unicode="&#x110;" horiz-adv-x="779" d="M98 288H73Q40 288 26 305T12 355Q12 375 17 390T26 411H98V597Q98 619 104 635T119 661T141 677T167 685Q186 689 222 692T330 696Q423 696 498 673T627 605T710 495T739 344Q739 260 712 195T632 84T499 14T314 -10Q201 -10 152 -6T98 0V288ZM265 148Q271 147 291 146T341 144Q391 144 432 155T502 191T548 254T564 344Q564 388 551 425T512 489T445 531T349 546Q310 546 289 545T265 542V411H383Q417 411 430 394T444 347Q444 325 439 310T430 288H265V148Z"  />
<glyph unicode="&#x111;" horiz-adv-x="632" d="M200 244Q200 190 232 162T315 134Q365 134 397 164T430 250Q430 302 397 329T314 357Q264 357 232 328T200 244ZM589 274Q589 210 576 165T539 88Q501 38 442 12T311 -14Q252 -14 202 4T114 55T56 137T35 245Q35 306 54 354T107 435T186 486T282 504Q338 504 374 486T429 449V555H332Q303 555 291 569T279 605Q279 625 281 636T287 657H429V666Q429 705 452 721T513 737Q540 737 561 731T589 722V657H632Q664 657 674 642T684 602Q684 584 681 572T675 555H589V274Z"  />
<glyph unicode="&#x112;" horiz-adv-x="641" d="M70 591Q70 686 169 686H511Q557 686 576 667T596 610Q596 583 588 561T575 530H237V423H498Q544 423 563 404T583 347Q583 320 575 298T562 267H237V156H591V0H70V591ZM473 866Q505 866 515 851T525 811Q525 793 522 781T516 764H183Q154 764 142 778T130 814Q130 834 132 845T138 866H473Z"  />
<glyph unicode="&#x113;" horiz-adv-x="561" d="M206 188Q208 176 216 165T240 143T280 127T338 121Q364 121 387 125T427 135T455 145T468 152L524 40Q516 35 498 26T451 8T386 -7T303 -14Q247 -14 198 4T113 56T55 141T34 255Q34 315 55 365T113 450T200 504T308 524Q362 524 405 510T477 470T522 413T538 347Q538 310 525 281T479 231T388 199T241 188H206ZM198 292Q265 292 302 297T357 310T379 328T383 348Q383 369 364 384T307 400Q280 400 260 391T227 366T206 332T198 292ZM426 692Q453 692 463 679T474 643Q474 626 470 614T464 597H178Q152 597 141 610T130 646Q130 663 134 675T140 692H426Z"  />
<glyph unicode="&#x114;" horiz-adv-x="641" d="M70 591Q70 686 169 686H511Q557 686 576 667T596 610Q596 583 588 561T575 530H237V423H498Q544 423 563 404T583 347Q583 320 575 298T562 267H237V156H591V0H70V591ZM250 907Q271 839 335 839Q401 839 420 906L503 897Q502 875 494 849T467 801T415 763T335 747Q286 747 254 762T203 800T175 849T166 897L250 907Z"  />
<glyph unicode="&#x115;" horiz-adv-x="561" d="M206 188Q208 176 216 165T240 143T280 127T338 121Q364 121 387 125T427 135T455 145T468 152L524 40Q516 35 498 26T451 8T386 -7T303 -14Q247 -14 198 4T113 56T55 141T34 255Q34 315 55 365T113 450T200 504T308 524Q362 524 405 510T477 470T522 413T538 347Q538 310 525 281T479 231T388 199T241 188H206ZM198 292Q265 292 302 297T357 310T379 328T383 348Q383 369 364 384T307 400Q280 400 260 391T227 366T206 332T198 292ZM233 730Q242 695 260 679T309 662Q340 662 358 678T385 730L460 720Q459 699 452 674T427 626T381 588T309 573Q265 573 237 588T191 625T166 673T158 720L233 730Z"  />
<glyph unicode="&#x116;" horiz-adv-x="641" d="M70 591Q70 686 169 686H511Q557 686 576 667T596 610Q596 583 588 561T575 530H237V423H498Q544 423 563 404T583 347Q583 320 575 298T562 267H237V156H591V0H70V591ZM265 829Q265 843 271 856T287 879T312 896T341 902Q372 902 394 880T416 829Q416 801 394 779T341 756Q326 756 312 762T288 778T271 802T265 829Z"  />
<glyph unicode="&#x117;" horiz-adv-x="561" d="M206 188Q208 176 216 165T240 143T280 127T338 121Q364 121 387 125T427 135T455 145T468 152L524 40Q516 35 498 26T451 8T386 -7T303 -14Q247 -14 198 4T113 56T55 141T34 255Q34 315 55 365T113 450T200 504T308 524Q362 524 405 510T477 470T522 413T538 347Q538 310 525 281T479 231T388 199T241 188H206ZM198 292Q265 292 302 297T357 310T379 328T383 348Q383 369 364 384T307 400Q280 400 260 391T227 366T206 332T198 292ZM238 642Q238 655 244 667T260 689T283 704T310 710Q324 710 337 705T359 690T374 668T380 642Q380 615 360 594T310 573Q296 573 283 578T260 594T244 616T238 642Z"  />
<glyph unicode="&#x118;" horiz-adv-x="641" d="M70 591Q70 686 169 686H511Q557 686 576 667T596 610Q596 583 588 561T575 530H237V423H498Q544 423 563 404T583 347Q583 320 575 298T562 267H237V156H591V0H544Q534 -2 519 -6T489 -20T464 -41T453 -70Q453 -88 466 -94T493 -100Q520 -100 538 -92T560 -82L591 -149Q577 -157 546 -167T468 -178Q416 -178 383 -158T350 -92Q350 -71 357 -56T374 -29T395 -11T414 0H70V591Z"  />
<glyph unicode="&#x119;" horiz-adv-x="561" d="M206 188Q208 176 216 165T240 143T280 127T338 121Q364 121 387 125T427 135T455 145T468 152L524 40Q512 32 479 18T392 -6Q380 -10 369 -15T347 -29T331 -48T325 -72Q325 -92 339 -98T368 -105Q396 -105 413 -97T434 -87L463 -151Q449 -159 419 -169T342 -179Q291 -179 259 -160T226 -95Q226 -63 241 -44T273 -13Q222 -8 179 12T103 66T52 147T34 255Q34 315 55 365T113 450T200 504T308 524Q362 524 405 510T477 470T522 413T538 347Q538 310 525 281T479 231T388 199T241 188H206ZM198 292Q265 292 302 297T357 310T379 328T383 348Q383 369 364 384T307 400Q280 400 260 391T227 366T206 332T198 292Z"  />
<glyph unicode="&#x11A;" horiz-adv-x="641" d="M70 591Q70 686 169 686H511Q557 686 576 667T596 610Q596 583 588 561T575 530H237V423H498Q544 423 563 404T583 347Q583 320 575 298T562 267H237V156H591V0H70V591ZM186 913L342 851L499 913L538 850L429 782Q412 771 389 759T342 746Q318 746 296 758T255 782L146 850L186 913Z"  />
<glyph unicode="&#x11B;" horiz-adv-x="561" d="M206 188Q208 176 216 165T240 143T280 127T338 121Q364 121 387 125T427 135T455 145T468 152L524 40Q516 35 498 26T451 8T386 -7T303 -14Q247 -14 198 4T113 56T55 141T34 255Q34 315 55 365T113 450T200 504T308 524Q362 524 405 510T477 470T522 413T538 347Q538 310 525 281T479 231T388 199T241 188H206ZM198 292Q265 292 302 297T357 310T379 328T383 348Q383 369 364 384T307 400Q280 400 260 391T227 366T206 332T198 292ZM128 674L174 737L304 667L434 737L480 674L383 606Q368 595 347 583T304 570Q282 570 261 582T225 606L128 674Z"  />
<glyph unicode="&#x11C;" horiz-adv-x="720" d="M501 252H440Q394 252 375 270T355 326Q355 353 363 374T376 404H566Q665 404 665 309V0Q660 -1 641 -4T591 -10T524 -15T445 -18Q355 -18 281 4T153 72T70 184T40 342Q40 426 68 493T148 607T269 679T421 704Q463 704 495 699T552 687T594 672T622 656Q664 630 664 589Q664 570 657 554T639 525T618 503T600 488Q590 498 575 509T538 531T488 547T424 553Q375 553 336 538T270 496T229 429T214 342Q214 235 274 185T440 135Q458 135 477 136T501 138V252ZM254 745L214 808L323 876Q342 887 364 899T410 912Q434 912 457 900T497 876L606 808L566 745L410 807L254 745Z"  />
<glyph unicode="&#x11D;" horiz-adv-x="632" d="M123 -50Q126 -52 139 -57T172 -67T220 -77T280 -82Q312 -82 339 -75T386 -52T417 -10T428 54V65Q423 60 412 51T382 33T338 17T282 10Q228 10 183 26T104 75T53 153T35 259Q35 318 56 366T114 450T202 504T316 524Q385 524 443 498T540 422Q564 390 576 347T589 238V89Q589 11 567 -45T506 -138T414 -192T297 -210Q253 -210 216 -205T151 -192T104 -177T79 -165L123 -50ZM200 259Q200 202 232 174T314 146Q363 146 395 177T428 259Q428 310 396 342T314 375Q289 375 268 366T232 341T209 304T200 259ZM191 570L141 633L240 701Q255 712 276 724T319 737Q341 737 362 725T398 701L497 633L447 570L319 640L191 570Z"  />
<glyph unicode="&#x11E;" horiz-adv-x="720" d="M501 252H440Q394 252 375 270T355 326Q355 353 363 374T376 404H566Q665 404 665 309V0Q660 -1 641 -4T591 -10T524 -15T445 -18Q355 -18 281 4T153 72T70 184T40 342Q40 426 68 493T148 607T269 679T421 704Q463 704 495 699T552 687T594 672T622 656Q664 630 664 589Q664 570 657 554T639 525T618 503T600 488Q590 498 575 509T538 531T488 547T424 553Q375 553 336 538T270 496T229 429T214 342Q214 235 274 185T440 135Q458 135 477 136T501 138V252ZM324 907Q345 839 409 839Q475 839 494 906L577 897Q576 875 568 849T541 801T489 763T409 747Q360 747 328 762T277 800T249 849T240 897L324 907Z"  />
<glyph unicode="&#x11F;" horiz-adv-x="632" d="M123 -50Q126 -52 139 -57T172 -67T220 -77T280 -82Q312 -82 339 -75T386 -52T417 -10T428 54V65Q423 60 412 51T382 33T338 17T282 10Q228 10 183 26T104 75T53 153T35 259Q35 318 56 366T114 450T202 504T316 524Q385 524 443 498T540 422Q564 390 576 347T589 238V89Q589 11 567 -45T506 -138T414 -192T297 -210Q253 -210 216 -205T151 -192T104 -177T79 -165L123 -50ZM200 259Q200 202 232 174T314 146Q363 146 395 177T428 259Q428 310 396 342T314 375Q289 375 268 366T232 341T209 304T200 259ZM244 730Q253 695 271 679T320 662Q351 662 369 678T396 730L471 720Q470 699 463 674T438 626T392 588T320 573Q276 573 248 588T202 625T177 673T169 720L244 730Z"  />
<glyph unicode="&#x120;" horiz-adv-x="720" d="M501 252H440Q394 252 375 270T355 326Q355 353 363 374T376 404H566Q665 404 665 309V0Q660 -1 641 -4T591 -10T524 -15T445 -18Q355 -18 281 4T153 72T70 184T40 342Q40 426 68 493T148 607T269 679T421 704Q463 704 495 699T552 687T594 672T622 656Q664 630 664 589Q664 570 657 554T639 525T618 503T600 488Q590 498 575 509T538 531T488 547T424 553Q375 553 336 538T270 496T229 429T214 342Q214 235 274 185T440 135Q458 135 477 136T501 138V252ZM341 829Q341 843 347 856T363 879T388 896T417 902Q448 902 470 880T492 829Q492 801 470 779T417 756Q402 756 388 762T364 778T347 802T341 829Z"  />
<glyph unicode="&#x121;" horiz-adv-x="632" d="M123 -50Q126 -52 139 -57T172 -67T220 -77T280 -82Q312 -82 339 -75T386 -52T417 -10T428 54V65Q423 60 412 51T382 33T338 17T282 10Q228 10 183 26T104 75T53 153T35 259Q35 318 56 366T114 450T202 504T316 524Q385 524 443 498T540 422Q564 390 576 347T589 238V89Q589 11 567 -45T506 -138T414 -192T297 -210Q253 -210 216 -205T151 -192T104 -177T79 -165L123 -50ZM200 259Q200 202 232 174T314 146Q363 146 395 177T428 259Q428 310 396 342T314 375Q289 375 268 366T232 341T209 304T200 259ZM249 642Q249 655 255 667T271 689T294 704T321 710Q335 710 348 705T370 690T385 668T391 642Q391 615 371 594T321 573Q307 573 294 578T271 594T255 616T249 642Z"  />
<glyph unicode="&#x122;" horiz-adv-x="720" d="M501 252H440Q394 252 375 270T355 326Q355 353 363 374T376 404H566Q665 404 665 309V0Q660 -1 641 -4T591 -10T524 -15T445 -18Q355 -18 281 4T153 72T70 184T40 342Q40 426 68 493T148 607T269 679T421 704Q463 704 495 699T552 687T594 672T622 656Q664 630 664 589Q664 570 657 554T639 525T618 503T600 488Q590 498 575 509T538 531T488 547T424 553Q375 553 336 538T270 496T229 429T214 342Q214 235 274 185T440 135Q458 135 477 136T501 138V252ZM343 -135Q347 -100 364 -76T418 -51Q441 -51 458 -59T482 -72L417 -275L329 -261L343 -135Z"  />
<glyph unicode="&#x123;" horiz-adv-x="632" d="M123 -50Q126 -52 139 -57T172 -67T220 -77T280 -82Q312 -82 339 -75T386 -52T417 -10T428 54V65Q423 60 412 51T382 33T338 17T282 10Q228 10 183 26T104 75T53 153T35 259Q35 318 56 366T114 450T202 504T316 524Q385 524 443 498T540 422Q564 390 576 347T589 238V89Q589 11 567 -45T506 -138T414 -192T297 -210Q253 -210 216 -205T151 -192T104 -177T79 -165L123 -50ZM200 259Q200 202 232 174T314 146Q363 146 395 177T428 259Q428 310 396 342T314 375Q289 375 268 366T232 341T209 304T200 259ZM318 795L406 781L392 655Q388 620 371 596T317 571Q294 571 277 579T253 592L318 795Z"  />
<glyph unicode="&#x124;" horiz-adv-x="740" d="M70 0V612Q70 653 94 669T157 686Q186 686 208 679T237 670V435H503V612Q503 653 527 669T590 686Q619 686 641 679T670 670V0H503V277H237V0H70ZM227 745L187 808L296 876Q315 887 337 899T383 912Q407 912 430 900T470 876L579 808L539 745L383 807L227 745Z"  />
<glyph unicode="&#x125;" horiz-adv-x="617" d="M55 666Q55 705 78 721T139 737Q166 737 187 731T215 722V480Q234 497 267 511T352 525Q397 525 435 513T501 474T546 407T562 311V0H401V278Q401 329 379 352T311 375Q266 375 241 348T216 264V0H55V666ZM108 796L58 859L157 927Q172 938 193 950T236 963Q258 963 279 951T315 927L414 859L364 796L236 866L108 796Z"  />
<glyph unicode="&#x126;" horiz-adv-x="768" d="M84 0V489H53Q24 489 12 503T0 539Q0 559 2 570T8 591H84V612Q84 653 108 669T171 686Q200 686 222 679T251 670V591H517V612Q517 653 541 669T604 686Q633 686 655 679T684 670V591H716Q748 591 758 576T768 536Q768 518 765 506T759 489H684V0H517V267H251V0H84ZM251 415H517V489H251V415Z"  />
<glyph unicode="&#x127;" horiz-adv-x="617" d="M55 555H14Q-15 555 -27 569T-39 605Q-39 625 -37 636T-31 657H55V666Q55 705 78 721T139 737Q166 737 187 731T215 722V657H314Q346 657 356 642T366 602Q366 584 363 572T357 555H215V450Q234 467 267 481T352 495Q397 495 435 483T501 444T546 377T562 281V0H401V248Q401 299 379 322T311 345Q266 345 241 318T216 234V0H55V555Z"  />
<glyph unicode="&#x128;" horiz-adv-x="307" d="M70 0V612Q70 653 94 669T157 686Q186 686 208 679T237 670V0H70ZM-43 764Q-38 786 -29 806T-4 843T32 870T83 880Q109 880 128 876T161 868Q176 863 193 859T224 854Q236 854 245 861T259 888L355 870Q350 848 341 827T317 790T281 764T229 754Q214 754 199 756T169 763T143 770T125 775Q117 777 107 779T89 781Q78 781 69 773T55 745L-43 764Z"  />
<glyph unicode="&#x129;" horiz-adv-x="281" d="M60 439Q60 478 83 494T144 510Q171 510 193 504T221 495V0H60V439ZM-46 589Q-42 610 -33 630T-10 667T25 692T73 702Q97 702 115 698T147 690L172 682Q183 679 190 678T208 676Q220 676 229 683T243 710L332 692Q327 671 319 651T296 614T261 589T213 579Q192 579 175 583T137 593L113 600Q105 602 96 604T78 606Q67 606 58 598T44 570L-46 589Z"  />
<glyph unicode="&#x12A;" horiz-adv-x="307" d="M70 0V612Q70 653 94 669T157 686Q186 686 208 679T237 670V0H70ZM301 866Q333 866 343 851T353 811Q353 793 350 781T344 764H11Q-18 764 -30 778T-42 814Q-42 834 -40 845T-34 866H301Z"  />
<glyph unicode="&#x12B;" horiz-adv-x="281" d="M60 439Q60 478 83 494T144 510Q171 510 193 504T221 495V0H60V439ZM268 692Q295 692 305 679T316 643Q316 626 312 614T306 597H20Q-6 597 -17 610T-28 646Q-28 663 -24 675T-18 692H268Z"  />
<glyph unicode="&#x12C;" horiz-adv-x="307" d="M70 0V612Q70 653 94 669T157 686Q186 686 208 679T237 670V0H70ZM71 907Q92 839 156 839Q222 839 241 906L324 897Q323 875 315 849T288 801T236 763T156 747Q107 747 75 762T24 800T-4 849T-13 897L71 907Z"  />
<glyph unicode="&#x12D;" horiz-adv-x="281" d="M60 439Q60 478 83 494T144 510Q171 510 193 504T221 495V0H60V439ZM67 730Q76 695 94 679T143 662Q174 662 192 678T219 730L294 720Q293 699 286 674T261 626T215 588T143 573Q99 573 71 588T25 625T0 673T-8 720L67 730Z"  />
<glyph unicode="&#x12E;" horiz-adv-x="307" d="M214 0Q204 -2 189 -6T159 -20T134 -41T123 -70Q123 -88 136 -94T163 -100Q190 -100 208 -92T230 -82L261 -149Q247 -157 216 -167T138 -178Q86 -178 53 -158T20 -92Q20 -71 27 -56T44 -29T65 -11T84 0H70V612Q70 653 94 669T157 686Q186 686 208 679T237 670V0H214Z"  />
<glyph unicode="&#x12F;" horiz-adv-x="281" d="M60 439Q60 478 83 494T144 510Q171 510 193 504T221 495V0H201Q190 -2 174 -6T143 -20T118 -42T107 -72Q107 -92 121 -98T150 -105Q178 -105 195 -97T216 -87L245 -151Q231 -159 201 -169T124 -179Q73 -179 41 -160T8 -95Q8 -70 18 -52T41 -23T65 -7T80 0H60V439ZM51 647Q51 685 76 711T140 737Q178 737 204 711T230 647Q230 609 204 584T140 558Q102 558 77 583T51 647Z"  />
<glyph unicode="&#x130;" horiz-adv-x="307" d="M70 0V612Q70 653 94 669T157 686Q186 686 208 679T237 670V0H70ZM89 829Q89 843 95 856T111 879T136 896T165 902Q196 902 218 880T240 829Q240 801 218 779T165 756Q150 756 136 762T112 778T95 802T89 829Z"  />
<glyph unicode="&#x131;" horiz-adv-x="281" d="M60 439Q60 478 83 494T144 510Q171 510 193 504T221 495V0H60V439Z"  />
<glyph unicode="&#x132;" horiz-adv-x="913" d="M70 0V612Q70 653 94 669T157 686Q186 686 208 679T237 670V0H70ZM437 212Q441 206 450 193T476 166T516 142T572 131Q628 131 655 158T683 249V612Q683 653 707 669T770 686Q799 686 821 679T850 670V239Q850 182 834 135T785 53T702 1T583 -18Q520 -18 473 -1T394 39T344 83T322 113L437 212Z"  />
<glyph unicode="&#x133;" horiz-adv-x="567" d="M60 439Q60 478 83 494T144 510Q171 510 193 504T221 495V0H60V439ZM51 647Q51 685 76 711T140 737Q178 737 204 711T230 647Q230 609 204 584T140 558Q102 558 77 583T51 647ZM197 -60Q210 -67 231 -72T273 -77Q302 -77 324 -62T346 -5V439Q346 478 369 494T430 510Q457 510 479 504T507 495V8Q507 -55 490 -97T444 -164T378 -199T299 -210Q276 -210 253 -207T211 -198T177 -187T157 -179L197 -60ZM337 647Q337 685 362 711T426 737Q464 737 490 711T516 647Q516 609 490 584T426 558Q388 558 363 583T337 647Z"  />
<glyph unicode="&#x134;" horiz-adv-x="599" d="M123 212Q127 206 136 193T162 166T202 142T258 131Q314 131 341 158T369 249V612Q369 653 393 669T456 686Q485 686 507 679T536 670V239Q536 182 520 135T471 53T388 1T269 -18Q206 -18 159 -1T80 39T30 83T8 113L123 212ZM294 745L254 808L363 876Q382 887 404 899T450 912Q474 912 497 900T537 876L646 808L606 745L450 807L294 745Z"  />
<glyph unicode="&#x135;" horiz-adv-x="281" d="M-89 -60Q-76 -67 -55 -72T-13 -77Q16 -77 38 -62T60 -5V439Q60 478 83 494T144 510Q171 510 193 504T221 495V8Q221 -55 204 -97T158 -164T92 -199T13 -210Q-10 -210 -33 -207T-75 -198T-109 -187T-129 -179L-89 -60ZM16 570L-34 633L65 701Q80 712 101 724T144 737Q166 737 187 725T223 701L322 633L272 570L144 640L16 570Z"  />
<glyph unicode="&#x136;" horiz-adv-x="700" d="M70 0V612Q70 653 94 669T157 686Q186 686 208 679T237 670V415Q260 441 288 471T346 533T403 592T454 641Q472 657 496 671T556 686Q579 686 598 681T630 668T653 652T666 639Q661 634 643 616T601 573T547 519T490 461T439 407T401 366Q443 321 481 278T554 190T624 99T695 0H490Q464 35 432 75T367 156T299 234T237 299V0H70ZM297 -135Q301 -100 318 -76T372 -51Q395 -51 412 -59T436 -72L371 -275L283 -261L297 -135Z"  />
<glyph unicode="&#x137;" horiz-adv-x="601" d="M55 666Q55 705 78 721T139 737Q166 737 188 731T216 722V340Q234 355 254 371T294 404T331 435T360 460Q375 473 386 482T410 498T437 507T471 510Q491 510 508 504T538 490T560 472T573 455Q554 435 526 410T467 361T408 314T361 276Q423 220 486 148T601 0H402Q382 27 358 55T309 109T260 158T216 202V0H55V666ZM231 -135Q235 -100 252 -76T306 -51Q329 -51 346 -59T370 -72L305 -275L217 -261L231 -135Z"  />
<glyph unicode="&#x138;" horiz-adv-x="601" d="M55 439Q55 478 78 494T139 510Q166 510 188 504T216 495V319Q234 334 254 354T294 394T331 432T360 460Q375 473 386 482T410 498T437 507T471 510Q491 510 508 504T538 490T560 472T573 455Q554 435 526 407T467 350T408 296T361 255Q425 203 484 143T601 0H402Q352 55 307 99T216 181V0H55V439Z"  />
<glyph unicode="&#x139;" horiz-adv-x="559" d="M70 0V612Q70 653 94 669T157 686Q186 686 208 679T237 670V156H554V0H70ZM67 820L202 888Q221 898 239 905T276 912Q301 912 316 900T340 873T352 845T355 828L101 747L67 820Z"  />
<glyph unicode="&#x13A;" horiz-adv-x="281" d="M60 666Q60 705 83 721T144 737Q171 737 193 731T221 722V0H60V666ZM28 862L143 935Q160 946 176 954T210 963Q232 963 246 952T268 927T279 901T283 886L72 796L28 862Z"  />
<glyph unicode="&#x13B;" horiz-adv-x="559" d="M70 0V612Q70 653 94 669T157 686Q186 686 208 679T237 670V156H554V0H70ZM237 -135Q241 -100 258 -76T312 -51Q335 -51 352 -59T376 -72L311 -275L223 -261L237 -135Z"  />
<glyph unicode="&#x13C;" horiz-adv-x="281" d="M60 666Q60 705 83 721T144 737Q171 737 193 731T221 722V0H60V666ZM62 -135Q66 -100 83 -76T137 -51Q160 -51 177 -59T201 -72L136 -275L48 -261L62 -135Z"  />
<glyph unicode="&#x13D;" horiz-adv-x="559" d="M70 0V612Q70 653 94 669T157 686Q186 686 208 679T237 670V156H554V0H70ZM345 620Q345 658 367 673T427 689Q440 689 446 687T456 683T460 679T465 675L446 455H345V620Z"  />
<glyph unicode="&#x13E;" horiz-adv-x="424" d="M60 666Q60 705 83 721T144 737Q171 737 193 731T221 722V0H60V666ZM311 668Q311 706 333 721T393 737Q406 737 412 735T422 731T426 727T431 723L412 503H311V668Z"  />
<glyph unicode="&#x13F;" horiz-adv-x="559" d="M70 0V612Q70 653 94 669T157 686Q186 686 208 679T237 670V156H554V0H70ZM356 423Q356 437 362 450T378 473T403 490T432 496Q463 496 485 474T507 423Q507 395 485 373T432 350Q417 350 403 356T379 372T362 396T356 423Z"  />
<glyph unicode="&#x140;" horiz-adv-x="448" d="M60 666Q60 705 83 721T144 737Q171 737 193 731T221 722V0H60V666ZM297 400Q297 413 303 425T319 447T342 462T369 468Q383 468 396 463T418 448T433 426T439 400Q439 373 419 352T369 331Q355 331 342 336T319 352T303 374T297 400Z"  />
<glyph unicode="&#x141;" horiz-adv-x="559" d="M70 0V243L4 201V241Q4 256 5 272T9 305T21 334T45 358L70 374V612Q70 653 94 669T157 686Q186 686 208 679T237 670V471L380 563V516Q380 485 375 455T339 405L237 340V156H554V0H70Z"  />
<glyph unicode="&#x142;" horiz-adv-x="281" d="M60 272L4 232V309Q4 324 4 335T9 356T20 374T42 393L60 406V666Q60 705 83 721T144 737Q171 737 193 731T221 722V501L277 541V464Q277 449 277 438T272 418T261 400T239 381L221 368V0H60V272Z"  />
<glyph unicode="&#x143;" horiz-adv-x="739" d="M70 599Q70 625 78 642T99 668T128 682T162 686Q197 686 218 677T245 662Q250 657 267 633T309 574T362 497T418 414T468 339T504 283V612Q504 653 528 669T591 686Q620 686 642 679T669 670V0H512Q503 15 484 45T440 113T387 194T331 280T278 359T235 422V0H70V599ZM249 820L384 888Q403 898 421 905T458 912Q483 912 498 900T522 873T534 845T537 828L283 747L249 820Z"  />
<glyph unicode="&#x144;" horiz-adv-x="619" d="M55 309Q55 361 75 401T130 469T211 510T310 524Q362 524 408 510T489 469T544 402T564 309V0H403V272Q403 325 379 350T310 376Q216 376 216 272V0H55V309ZM195 636L310 709Q327 720 343 728T377 737Q399 737 413 726T435 701T446 675T450 660L239 570L195 636Z"  />
<glyph unicode="&#x145;" horiz-adv-x="739" d="M70 599Q70 625 78 642T99 668T128 682T162 686Q197 686 218 677T245 662Q250 657 267 633T309 574T362 497T418 414T468 339T504 283V612Q504 653 528 669T591 686Q620 686 642 679T669 670V0H512Q503 15 484 45T440 113T387 194T331 280T278 359T235 422V0H70V599ZM310 -135Q314 -100 331 -76T385 -51Q408 -51 425 -59T449 -72L384 -275L296 -261L310 -135Z"  />
<glyph unicode="&#x146;" horiz-adv-x="619" d="M55 309Q55 361 75 401T130 469T211 510T310 524Q362 524 408 510T489 469T544 402T564 309V0H403V272Q403 325 379 350T310 376Q216 376 216 272V0H55V309ZM240 -135Q244 -100 261 -76T315 -51Q338 -51 355 -59T379 -72L314 -275L226 -261L240 -135Z"  />
<glyph unicode="&#x147;" horiz-adv-x="739" d="M70 599Q70 625 78 642T99 668T128 682T162 686Q197 686 218 677T245 662Q250 657 267 633T309 574T362 497T418 414T468 339T504 283V612Q504 653 528 669T591 686Q620 686 642 679T669 670V0H512Q503 15 484 45T440 113T387 194T331 280T278 359T235 422V0H70V599ZM236 913L392 851L549 913L588 850L479 782Q462 771 439 759T392 746Q368 746 346 758T305 782L196 850L236 913Z"  />
<glyph unicode="&#x148;" horiz-adv-x="619" d="M55 309Q55 361 75 401T130 469T211 510T310 524Q362 524 408 510T489 469T544 402T564 309V0H403V272Q403 325 379 350T310 376Q216 376 216 272V0H55V309ZM138 674L184 737L314 667L444 737L490 674L393 606Q378 595 357 583T314 570Q292 570 271 582T235 606L138 674Z"  />
<glyph unicode="&#x149;" horiz-adv-x="691" d="M126 309Q126 361 146 401T201 469T282 510T381 524Q433 524 479 510T560 469T615 402T635 309V0H474V272Q474 325 450 350T381 376Q287 376 287 272V0H126V309ZM80 678Q88 706 102 721T147 736Q178 736 198 723T225 701L122 465L30 500L80 678Z"  />
<glyph unicode="&#x14A;" horiz-adv-x="739" d="M70 599Q70 625 78 642T99 668T128 682T162 686Q197 686 218 677T245 662Q250 657 267 633T309 574T362 497T418 414T468 339T504 283V612Q504 653 528 669T591 686Q620 686 642 679T669 670V8Q669 -55 652 -97T606 -164T540 -199T461 -210Q438 -210 415 -207T373 -198T339 -187T319 -179L359 -60Q372 -67 393 -72T435 -77Q450 -77 463 -74T486 -60T502 -32T508 15Q499 30 480 58T437 124T385 202T330 284T278 360T235 422V0H70V599Z"  />
<glyph unicode="&#x14B;" horiz-adv-x="619" d="M254 -60Q267 -67 288 -72T330 -77Q359 -77 381 -62T403 -5V272Q403 325 379 350T310 376Q216 376 216 272V0H55V309Q55 361 75 401T130 469T211 510T310 524Q362 524 408 510T489 469T544 402T564 309V8Q564 -55 547 -97T501 -164T435 -199T356 -210Q333 -210 310 -207T268 -198T234 -187T214 -179L254 -60Z"  />
<glyph unicode="&#x14C;" horiz-adv-x="822" d="M40 343Q40 419 68 485T147 599T265 676T411 704Q489 704 557 676T675 600T753 485T782 343Q782 267 754 201T675 87T557 10T411 -18Q333 -18 265 10T147 86T69 201T40 343ZM411 138Q454 138 490 153T552 197T592 262T607 343Q607 387 593 424T552 489T490 532T411 548Q368 548 332 533T270 490T230 425T215 343Q215 299 229 262T270 197T332 154T411 138ZM556 866Q588 866 598 851T608 811Q608 793 605 781T599 764H266Q237 764 225 778T213 814Q213 834 215 845T221 866H556Z"  />
<glyph unicode="&#x14D;" horiz-adv-x="634" d="M35 255Q35 313 57 362T117 447T207 503T317 524Q375 524 426 504T516 447T577 362T599 255Q599 197 577 148T517 63T427 7T317 -14Q258 -14 207 6T118 63T57 148T35 255ZM317 130Q342 130 363 139T401 165T425 205T434 255Q434 282 426 305T401 344T364 370T317 380Q291 380 270 371T233 345T209 305T200 255Q200 228 208 205T233 166T270 140T317 130ZM442 692Q469 692 479 679T490 643Q490 626 486 614T480 597H194Q168 597 157 610T146 646Q146 663 150 675T156 692H442Z"  />
<glyph unicode="&#x14E;" horiz-adv-x="822" d="M40 343Q40 419 68 485T147 599T265 676T411 704Q489 704 557 676T675 600T753 485T782 343Q782 267 754 201T675 87T557 10T411 -18Q333 -18 265 10T147 86T69 201T40 343ZM411 138Q454 138 490 153T552 197T592 262T607 343Q607 387 593 424T552 489T490 532T411 548Q368 548 332 533T270 490T230 425T215 343Q215 299 229 262T270 197T332 154T411 138ZM327 907Q348 839 412 839Q478 839 497 906L580 897Q579 875 571 849T544 801T492 763T412 747Q363 747 331 762T280 800T252 849T243 897L327 907Z"  />
<glyph unicode="&#x14F;" horiz-adv-x="634" d="M35 255Q35 313 57 362T117 447T207 503T317 524Q375 524 426 504T516 447T577 362T599 255Q599 197 577 148T517 63T427 7T317 -14Q258 -14 207 6T118 63T57 148T35 255ZM317 130Q342 130 363 139T401 165T425 205T434 255Q434 282 426 305T401 344T364 370T317 380Q291 380 270 371T233 345T209 305T200 255Q200 228 208 205T233 166T270 140T317 130ZM241 730Q250 695 268 679T317 662Q348 662 366 678T393 730L468 720Q467 699 460 674T435 626T389 588T317 573Q273 573 245 588T199 625T174 673T166 720L241 730Z"  />
<glyph unicode="&#x150;" horiz-adv-x="822" d="M40 343Q40 419 68 485T147 599T265 676T411 704Q489 704 557 676T675 600T753 485T782 343Q782 267 754 201T675 87T557 10T411 -18Q333 -18 265 10T147 86T69 201T40 343ZM411 138Q454 138 490 153T552 197T592 262T607 343Q607 387 593 424T552 489T490 532T411 548Q368 548 332 533T270 490T230 425T215 343Q215 299 229 262T270 197T332 154T411 138ZM205 823L313 898Q347 922 385 922Q408 922 421 911T440 887T448 863T450 848L244 757L205 823ZM480 823L588 898Q622 922 660 922Q683 922 696 911T715 887T723 863T725 848L519 757L480 823Z"  />
<glyph unicode="&#x151;" horiz-adv-x="634" d="M35 255Q35 313 57 362T117 447T207 503T317 524Q375 524 426 504T516 447T577 362T599 255Q599 197 577 148T517 63T427 7T317 -14Q258 -14 207 6T118 63T57 148T35 255ZM317 130Q342 130 363 139T401 165T425 205T434 255Q434 282 426 305T401 344T364 370T317 380Q291 380 270 371T233 345T209 305T200 255Q200 228 208 205T233 166T270 140T317 130ZM363 631L456 709Q472 723 486 730T518 737Q541 737 553 727T571 703Q578 688 579 670L410 570L363 631ZM124 631L217 709Q233 723 247 730T279 737Q302 737 314 727T332 703Q339 688 340 670L171 570L124 631Z"  />
<glyph unicode="&#x152;" horiz-adv-x="1168" d="M607 69Q594 52 573 37T524 11T464 -7T396 -14Q323 -14 259 12T146 85T69 197T40 343Q40 423 68 488T145 601T258 674T396 700Q445 700 483 689T549 664T592 635T609 613Q609 624 614 637T630 661T657 679T697 686H1038Q1084 686 1103 667T1123 610Q1123 583 1115 561T1102 530H771V423H1025Q1071 423 1090 404T1110 347Q1110 320 1102 298T1089 267H771V156H1118V0H607V69ZM411 142Q454 142 490 157T552 199T592 262T607 343Q607 387 593 424T552 487T490 529T411 544Q368 544 332 530T270 489T230 426T215 343Q215 298 229 261T270 197T332 157T411 142Z"  />
<glyph unicode="&#x153;" horiz-adv-x="958" d="M603 188Q605 176 613 165T637 143T677 127T735 121Q761 121 784 125T824 135T852 145T865 152L921 40Q913 35 895 26T848 8T783 -7T700 -14Q643 -14 591 7T509 66Q476 29 424 8T308 -14Q253 -14 204 6T117 61T57 146T35 255Q35 315 57 364T117 449T205 504T312 524Q373 524 427 501T511 440Q543 481 595 502T705 524Q759 524 802 510T874 470T919 413T935 347Q935 310 922 281T876 231T785 199T638 188H603ZM317 130Q342 130 363 139T401 165T425 205T434 255Q434 282 426 305T401 344T364 370T317 380Q291 380 270 371T233 345T209 305T200 255Q200 228 208 205T233 166T270 140T317 130ZM595 292Q662 292 699 297T754 310T776 328T780 348Q780 369 761 384T704 400Q677 400 657 391T624 366T603 332T595 292Z"  />
<glyph unicode="&#x154;" horiz-adv-x="690" d="M70 597Q70 619 76 635T91 661T113 677T139 685Q149 687 162 689T196 692T246 695T318 696Q408 696 468 677T564 624T616 549T632 460Q632 399 607 351T525 271Q540 247 558 215T595 148T634 74T670 0H479Q474 11 461 41T430 107T394 177T362 230Q348 228 334 228T303 228Q297 228 287 228T265 229T245 230T233 232V0H70V597ZM233 374Q236 374 241 373T257 371T282 370T321 369Q364 369 391 376T434 396T455 425T461 459Q461 475 456 491T436 522T391 545T314 554Q279 554 259 553T233 550V374ZM210 820L345 888Q364 898 382 905T419 912Q444 912 459 900T483 873T495 845T498 828L244 747L210 820Z"  />
<glyph unicode="&#x155;" horiz-adv-x="438" d="M55 320Q55 369 71 407T117 471T187 510T277 524Q337 524 370 511T419 483Q428 473 433 462T438 436Q438 421 434 408T423 385T410 368T401 358Q384 366 360 373T307 380Q269 380 243 358T216 285V0H55V320ZM133 636L248 709Q265 720 281 728T315 737Q337 737 351 726T373 701T384 675T388 660L177 570L133 636Z"  />
<glyph unicode="&#x156;" horiz-adv-x="690" d="M70 597Q70 619 76 635T91 661T113 677T139 685Q149 687 162 689T196 692T246 695T318 696Q408 696 468 677T564 624T616 549T632 460Q632 399 607 351T525 271Q540 247 558 215T595 148T634 74T670 0H479Q474 11 461 41T430 107T394 177T362 230Q348 228 334 228T303 228Q297 228 287 228T265 229T245 230T233 232V0H70V597ZM233 374Q236 374 241 373T257 371T282 370T321 369Q364 369 391 376T434 396T455 425T461 459Q461 475 456 491T436 522T391 545T314 554Q279 554 259 553T233 550V374ZM284 -135Q288 -100 305 -76T359 -51Q382 -51 399 -59T423 -72L358 -275L270 -261L284 -135Z"  />
<glyph unicode="&#x157;" horiz-adv-x="438" d="M55 320Q55 369 71 407T117 471T187 510T277 524Q337 524 370 511T419 483Q428 473 433 462T438 436Q438 421 434 408T423 385T410 368T401 358Q384 366 360 373T307 380Q269 380 243 358T216 285V0H55V320ZM66 -135Q70 -100 87 -76T141 -51Q164 -51 181 -59T205 -72L140 -275L52 -261L66 -135Z"  />
<glyph unicode="&#x158;" horiz-adv-x="690" d="M70 597Q70 619 76 635T91 661T113 677T139 685Q149 687 162 689T196 692T246 695T318 696Q408 696 468 677T564 624T616 549T632 460Q632 399 607 351T525 271Q540 247 558 215T595 148T634 74T670 0H479Q474 11 461 41T430 107T394 177T362 230Q348 228 334 228T303 228Q297 228 287 228T265 229T245 230T233 232V0H70V597ZM233 374Q236 374 241 373T257 371T282 370T321 369Q364 369 391 376T434 396T455 425T461 459Q461 475 456 491T436 522T391 545T314 554Q279 554 259 553T233 550V374ZM186 913L342 851L499 913L538 850L429 782Q412 771 389 759T342 746Q318 746 296 758T255 782L146 850L186 913Z"  />
<glyph unicode="&#x159;" horiz-adv-x="438" d="M55 320Q55 369 71 407T117 471T187 510T277 524Q337 524 370 511T419 483Q428 473 433 462T438 436Q438 421 434 408T423 385T410 368T401 358Q384 366 360 373T307 380Q269 380 243 358T216 285V0H55V320ZM94 674L140 737L270 667L400 737L446 674L349 606Q334 595 313 583T270 570Q248 570 227 582T191 606L94 674Z"  />
<glyph unicode="&#x15A;" horiz-adv-x="682" d="M99 196Q105 191 126 181T179 160T253 141T344 132Q384 132 408 137T445 152T462 172T466 196Q466 220 447 235T374 260L272 278Q232 285 192 298T121 334T69 393T49 482Q49 528 66 568T118 639T206 686T332 704Q384 704 423 699T490 685T535 669T561 656Q578 646 593 629T609 587Q609 570 603 555T589 526T570 504T553 489Q543 499 523 511T475 534T411 551T334 558Q295 558 272 552T238 536T223 514T219 492Q219 483 221 475T233 460T260 446T308 433L414 412Q470 401 512 385T584 344T627 286T642 205Q642 100 564 41T342 -18Q277 -18 223 -7T127 18T61 46T30 64L99 196ZM217 820L352 888Q371 898 389 905T426 912Q451 912 466 900T490 873T502 845T505 828L251 747L217 820Z"  />
<glyph unicode="&#x15B;" horiz-adv-x="564" d="M82 156Q90 150 108 142T152 126T210 113T279 107Q320 107 341 114T362 141Q362 161 345 168T290 181L238 187Q199 192 163 201T100 229T56 277T40 350Q40 387 53 418T96 473T170 510T277 524Q340 524 385 516T464 491Q483 481 494 467T506 431Q506 415 500 403T485 381T469 367T459 361Q456 364 443 372T407 387T353 401T281 407Q236 407 219 397T201 369Q201 352 217 345T265 333L356 320Q390 315 421 306T477 278T516 232T531 164Q531 80 467 33T290 -14Q231 -14 186 -6T107 12T54 34T25 52L82 156ZM182 636L297 709Q314 720 330 728T364 737Q386 737 400 726T422 701T433 675T437 660L226 570L182 636Z"  />
<glyph unicode="&#x15C;" horiz-adv-x="682" d="M99 196Q105 191 126 181T179 160T253 141T344 132Q384 132 408 137T445 152T462 172T466 196Q466 220 447 235T374 260L272 278Q232 285 192 298T121 334T69 393T49 482Q49 528 66 568T118 639T206 686T332 704Q384 704 423 699T490 685T535 669T561 656Q578 646 593 629T609 587Q609 570 603 555T589 526T570 504T553 489Q543 499 523 511T475 534T411 551T334 558Q295 558 272 552T238 536T223 514T219 492Q219 483 221 475T233 460T260 446T308 433L414 412Q470 401 512 385T584 344T627 286T642 205Q642 100 564 41T342 -18Q277 -18 223 -7T127 18T61 46T30 64L99 196ZM197 745L157 808L266 876Q285 887 307 899T353 912Q377 912 400 900T440 876L549 808L509 745L353 807L197 745Z"  />
<glyph unicode="&#x15D;" horiz-adv-x="564" d="M82 156Q90 150 108 142T152 126T210 113T279 107Q320 107 341 114T362 141Q362 161 345 168T290 181L238 187Q199 192 163 201T100 229T56 277T40 350Q40 387 53 418T96 473T170 510T277 524Q340 524 385 516T464 491Q483 481 494 467T506 431Q506 415 500 403T485 381T469 367T459 361Q456 364 443 372T407 387T353 401T281 407Q236 407 219 397T201 369Q201 352 217 345T265 333L356 320Q390 315 421 306T477 278T516 232T531 164Q531 80 467 33T290 -14Q231 -14 186 -6T107 12T54 34T25 52L82 156ZM159 570L109 633L208 701Q223 712 244 724T287 737Q309 737 330 725T366 701L465 633L415 570L287 640L159 570Z"  />
<glyph unicode="&#x15E;" horiz-adv-x="682" d="M99 196Q105 191 126 181T179 160T253 141T344 132Q384 132 408 137T445 152T462 172T466 196Q466 220 447 235T374 260L272 278Q232 285 192 298T121 334T69 393T49 482Q49 528 66 568T118 639T206 686T332 704Q384 704 423 699T490 685T535 669T561 656Q578 646 593 629T609 587Q609 570 603 555T589 526T570 504T553 489Q543 499 523 511T475 534T411 551T334 558Q295 558 272 552T238 536T223 514T219 492Q219 483 221 475T233 460T260 446T308 433L414 412Q470 401 512 385T584 344T627 286T642 205Q642 100 564 41T342 -18Q277 -18 223 -7T127 18T61 46T30 64L99 196ZM207 -131Q209 -133 218 -136T240 -143T269 -149T298 -152Q319 -152 327 -147T336 -129Q336 -115 317 -108T277 -101L294 -42Q320 -42 347 -46T396 -61T432 -88T446 -130Q446 -175 410 -201T310 -228Q253 -228 220 -217T178 -199L207 -131Z"  />
<glyph unicode="&#x15F;" horiz-adv-x="564" d="M82 156Q90 150 108 142T152 126T210 113T279 107Q320 107 341 114T362 141Q362 161 345 168T290 181L238 187Q199 192 163 201T100 229T56 277T40 350Q40 387 53 418T96 473T170 510T277 524Q340 524 385 516T464 491Q483 481 494 467T506 431Q506 415 500 403T485 381T469 367T459 361Q456 364 443 372T407 387T353 401T281 407Q236 407 219 397T201 369Q201 352 217 345T265 333L356 320Q390 315 421 306T477 278T516 232T531 164Q531 80 467 33T290 -14Q231 -14 186 -6T107 12T54 34T25 52L82 156ZM153 -114Q155 -116 164 -119T186 -126T215 -132T244 -135Q265 -135 273 -130T282 -112Q282 -98 263 -91T223 -84L240 -25Q266 -25 293 -29T342 -44T378 -71T392 -113Q392 -158 356 -184T256 -211Q199 -211 166 -200T124 -182L153 -114Z"  />
<glyph unicode="&#x160;" horiz-adv-x="682" d="M99 196Q105 191 126 181T179 160T253 141T344 132Q384 132 408 137T445 152T462 172T466 196Q466 220 447 235T374 260L272 278Q232 285 192 298T121 334T69 393T49 482Q49 528 66 568T118 639T206 686T332 704Q384 704 423 699T490 685T535 669T561 656Q578 646 593 629T609 587Q609 570 603 555T589 526T570 504T553 489Q543 499 523 511T475 534T411 551T334 558Q295 558 272 552T238 536T223 514T219 492Q219 483 221 475T233 460T260 446T308 433L414 412Q470 401 512 385T584 344T627 286T642 205Q642 100 564 41T342 -18Q277 -18 223 -7T127 18T61 46T30 64L99 196ZM191 854L237 917L367 847L497 917L543 854L446 786Q431 775 410 763T367 750Q345 750 324 762T288 786L191 854Z"  />
<glyph unicode="&#x161;" horiz-adv-x="564" d="M82 156Q90 150 108 142T152 126T210 113T279 107Q320 107 341 114T362 141Q362 161 345 168T290 181L238 187Q199 192 163 201T100 229T56 277T40 350Q40 387 53 418T96 473T170 510T277 524Q340 524 385 516T464 491Q483 481 494 467T506 431Q506 415 500 403T485 381T469 367T459 361Q456 364 443 372T407 387T353 401T281 407Q236 407 219 397T201 369Q201 352 217 345T265 333L356 320Q390 315 421 306T477 278T516 232T531 164Q531 80 467 33T290 -14Q231 -14 186 -6T107 12T54 34T25 52L82 156ZM121 674L167 737L297 667L427 737L473 674L376 606Q361 595 340 583T297 570Q275 570 254 582T218 606L121 674Z"  />
<glyph unicode="&#x162;" horiz-adv-x="667" d="M250 530H90Q44 530 25 549T5 606Q5 633 13 655T26 686H577Q623 686 642 667T662 610Q662 583 654 561T641 530H417V0H250V530ZM213 -131Q215 -133 224 -136T246 -143T275 -149T304 -152Q325 -152 333 -147T342 -129Q342 -115 323 -108T283 -101L300 -42Q326 -42 353 -46T402 -61T438 -88T452 -130Q452 -175 416 -201T316 -228Q259 -228 226 -217T184 -199L213 -131Z"  />
<glyph unicode="&#x163;" horiz-adv-x="444" d="M55 589Q55 628 78 644T139 660Q166 660 188 654T216 645V510H331Q376 510 395 492T414 438Q414 412 406 390T394 360H216V203Q216 180 223 167T240 145T264 135T292 132Q320 132 343 140T376 155L439 45Q430 37 413 27T372 8T318 -7T255 -14Q161 -14 108 35T55 168V589ZM138 -114Q140 -116 149 -119T171 -126T200 -132T229 -135Q250 -135 258 -130T267 -112Q267 -98 248 -91T208 -84L225 -25Q251 -25 278 -29T327 -44T363 -71T377 -113Q377 -158 341 -184T241 -211Q184 -211 151 -200T109 -182L138 -114Z"  />
<glyph unicode="&#x164;" horiz-adv-x="667" d="M250 530H90Q44 530 25 549T5 606Q5 633 13 655T26 686H577Q623 686 642 667T662 610Q662 583 654 561T641 530H417V0H250V530ZM182 913L338 851L495 913L534 850L425 782Q408 771 385 759T338 746Q314 746 292 758T251 782L142 850L182 913Z"  />
<glyph unicode="&#x165;" horiz-adv-x="444" d="M55 589Q55 628 78 644T139 660Q166 660 188 654T216 645V510H331Q376 510 395 492T414 438Q414 412 406 390T394 360H216V203Q216 180 223 167T240 145T264 135T292 132Q320 132 343 140T376 155L439 45Q430 37 413 27T372 8T318 -7T255 -14Q161 -14 108 35T55 168V589ZM281 685Q281 714 301 725T354 737Q365 737 371 736T379 733T383 730T388 727L371 561H281V685Z"  />
<glyph unicode="&#x166;" horiz-adv-x="667" d="M250 242H137Q104 242 90 261T76 313Q76 333 81 350T90 373H250V530H90Q44 530 25 549T5 606Q5 633 13 655T26 686H577Q623 686 642 667T662 610Q662 583 654 561T641 530H417V373H539Q573 373 586 354T600 305Q600 283 595 266T586 242H417V0H250V242Z"  />
<glyph unicode="&#x167;" horiz-adv-x="444" d="M55 589Q55 628 78 644T139 660Q166 660 188 654T216 645V510H340Q414 510 414 450Q414 429 406 410T394 386H216V321H346Q413 321 413 266Q413 243 406 228T394 207H216Q218 170 242 151T292 132Q320 132 343 140T376 155L439 45Q430 37 413 27T372 8T318 -7T255 -14Q161 -14 108 35T55 168V589Z"  />
<glyph unicode="&#x168;" horiz-adv-x="760" d="M93 612Q93 653 117 669T180 686Q209 686 231 679T260 670V321Q260 276 267 242T292 184T338 148T410 136Q453 136 481 148T527 183T552 241T560 321V612Q560 653 584 669T647 686Q676 686 698 679T727 670V304Q727 152 645 67T410 -18Q257 -18 175 67T93 304V612ZM244 764Q249 786 258 806T283 843T319 870T370 880Q396 880 415 876T448 868Q463 863 480 859T511 854Q523 854 532 861T546 888L642 870Q637 848 628 827T604 790T568 764T516 754Q501 754 486 756T456 763T430 770T412 775Q404 777 394 779T376 781Q365 781 356 773T342 745L244 764Z"  />
<glyph unicode="&#x169;" horiz-adv-x="620" d="M216 238Q216 134 310 134Q404 134 404 238V439Q404 478 427 494T488 510Q515 510 537 504T565 495V208Q565 152 546 111T492 42T411 0T310 -14Q256 -14 209 0T128 41T75 110T55 208V439Q55 478 78 494T139 510Q166 510 188 504T216 495V238ZM144 589Q148 610 157 630T180 667T215 692T263 702Q287 702 305 698T337 690L362 682Q373 679 380 678T398 676Q410 676 419 683T433 710L522 692Q517 671 509 651T486 614T451 589T403 579Q382 579 365 583T327 593L303 600Q295 602 286 604T268 606Q257 606 248 598T234 570L144 589Z"  />
<glyph unicode="&#x16A;" horiz-adv-x="760" d="M63 612Q63 653 87 669T150 686Q179 686 201 679T230 670V321Q230 276 237 242T262 184T308 148T380 136Q423 136 451 148T497 183T522 241T530 321V612Q530 653 554 669T617 686Q646 686 668 679T697 670V304Q697 152 615 67T380 -18Q227 -18 145 67T63 304V612ZM534 866Q566 866 576 851T586 811Q586 793 583 781T577 764H244Q215 764 203 778T191 814Q191 834 193 845T199 866H534Z"  />
<glyph unicode="&#x16B;" horiz-adv-x="620" d="M216 238Q216 134 310 134Q404 134 404 238V439Q404 478 427 494T488 510Q515 510 537 504T565 495V208Q565 152 546 111T492 42T411 0T310 -14Q256 -14 209 0T128 41T75 110T55 208V439Q55 478 78 494T139 510Q166 510 188 504T216 495V238ZM449 692Q476 692 486 679T497 643Q497 626 493 614T487 597H201Q175 597 164 610T153 646Q153 663 157 675T163 692H449Z"  />
<glyph unicode="&#x16C;" horiz-adv-x="760" d="M63 612Q63 653 87 669T150 686Q179 686 201 679T230 670V321Q230 276 237 242T262 184T308 148T380 136Q423 136 451 148T497 183T522 241T530 321V612Q530 653 554 669T617 686Q646 686 668 679T697 670V304Q697 152 615 67T380 -18Q227 -18 145 67T63 304V612ZM315 907Q336 839 400 839Q466 839 485 906L568 897Q567 875 559 849T532 801T480 763T400 747Q351 747 319 762T268 800T240 849T231 897L315 907Z"  />
<glyph unicode="&#x16D;" horiz-adv-x="620" d="M216 238Q216 134 310 134Q404 134 404 238V439Q404 478 427 494T488 510Q515 510 537 504T565 495V208Q565 152 546 111T492 42T411 0T310 -14Q256 -14 209 0T128 41T75 110T55 208V439Q55 478 78 494T139 510Q166 510 188 504T216 495V238ZM252 730Q261 695 279 679T328 662Q359 662 377 678T404 730L479 720Q478 699 471 674T446 626T400 588T328 573Q284 573 256 588T210 625T185 673T177 720L252 730Z"  />
<glyph unicode="&#x16E;" horiz-adv-x="760" d="M63 612Q63 653 87 669T150 686Q179 686 201 679T230 670V321Q230 276 237 242T262 184T308 148T380 136Q423 136 451 148T497 183T522 241T530 321V612Q530 653 554 669T617 686Q646 686 668 679T697 670V304Q697 152 615 67T380 -18Q227 -18 145 67T63 304V612ZM282 840Q282 863 291 883T316 919T353 944T398 953Q422 953 442 944T478 920T503 884T512 840Q512 817 503 797T479 761T443 737T398 728Q374 728 353 737T316 761T291 796T282 840ZM398 794Q418 794 429 806T441 840Q441 860 430 873T398 886Q377 886 366 873T354 840Q354 819 365 807T398 794Z"  />
<glyph unicode="&#x16F;" horiz-adv-x="620" d="M216 238Q216 134 310 134Q404 134 404 238V439Q404 478 427 494T488 510Q515 510 537 504T565 495V208Q565 152 546 111T492 42T411 0T310 -14Q256 -14 209 0T128 41T75 110T55 208V439Q55 478 78 494T139 510Q166 510 188 504T216 495V238ZM222 666Q222 687 230 705T252 737T285 759T325 767Q346 767 365 759T398 737T420 705T428 666Q428 645 420 627T398 595T365 573T325 565Q304 565 285 573T252 595T230 627T222 666ZM325 622Q345 622 356 634T367 666Q367 686 356 698T325 710Q305 710 294 698T283 666Q283 646 294 634T325 622Z"  />
<glyph unicode="&#x170;" horiz-adv-x="760" d="M63 612Q63 653 87 669T150 686Q179 686 201 679T230 670V321Q230 276 237 242T262 184T308 148T380 136Q423 136 451 148T497 183T522 241T530 321V612Q530 653 554 669T617 686Q646 686 668 679T697 670V304Q697 152 615 67T380 -18Q227 -18 145 67T63 304V612ZM179 823L287 898Q321 922 359 922Q382 922 395 911T414 887T422 863T424 848L218 757L179 823ZM454 823L562 898Q596 922 634 922Q657 922 670 911T689 887T697 863T699 848L493 757L454 823Z"  />
<glyph unicode="&#x171;" horiz-adv-x="620" d="M216 238Q216 134 310 134Q404 134 404 238V439Q404 478 427 494T488 510Q515 510 537 504T565 495V208Q565 152 546 111T492 42T411 0T310 -14Q256 -14 209 0T128 41T75 110T55 208V439Q55 478 78 494T139 510Q166 510 188 504T216 495V238ZM364 631L457 709Q473 723 487 730T519 737Q542 737 554 727T572 703Q579 688 580 670L411 570L364 631ZM125 631L218 709Q234 723 248 730T280 737Q303 737 315 727T333 703Q340 688 341 670L172 570L125 631Z"  />
<glyph unicode="&#x172;" horiz-adv-x="760" d="M63 612Q63 653 87 669T150 686Q179 686 201 679T230 670V321Q230 276 237 242T262 184T308 148T380 136Q423 136 451 148T497 183T522 241T530 321V612Q530 653 554 669T617 686Q646 686 668 679T697 670V304Q697 167 631 85T440 -14Q422 -22 408 -36T394 -70Q394 -88 407 -94T434 -100Q461 -100 479 -92T501 -82L532 -149Q518 -157 487 -167T409 -178Q357 -178 324 -158T291 -92Q291 -64 303 -45T330 -15Q200 -1 132 81T63 304V612Z"  />
<glyph unicode="&#x173;" horiz-adv-x="620" d="M216 238Q216 134 310 134Q404 134 404 238V439Q404 478 427 494T488 510Q515 510 537 504T565 495V208Q565 161 551 124T512 60T452 16T375 -8Q353 -16 333 -31T313 -72Q313 -92 327 -98T356 -105Q384 -105 401 -97T422 -87L451 -151Q437 -159 407 -169T330 -179Q279 -179 247 -160T214 -95Q214 -62 230 -42T263 -11Q218 -6 180 10T114 54T71 120T55 208V439Q55 478 78 494T139 510Q166 510 188 504T216 495V238Z"  />
<glyph unicode="&#x174;" horiz-adv-x="1010" d="M213 0Q199 32 183 75T149 165T114 261T82 351T56 427T38 480Q25 521 15 552T5 614Q5 648 25 667T86 686Q118 686 139 679T166 668Q176 627 193 568T229 446T268 321T303 216Q317 264 331 317T359 424T385 526T408 614Q416 646 435 666T499 686Q528 686 552 677T582 665Q590 629 603 572T633 451T664 325T693 217Q709 265 725 318T757 424T785 524T807 607Q818 650 839 668T906 686Q925 686 942 682T973 673T994 662T1005 656Q966 514 907 346T776 0H598Q589 22 576 64T549 158T521 264T496 363Q484 318 470 264T440 159T412 65T390 0H213ZM349 745L309 808L418 876Q437 887 459 899T505 912Q529 912 552 900T592 876L701 808L661 745L505 807L349 745Z"  />
<glyph unicode="&#x175;" horiz-adv-x="837" d="M173 0Q148 55 125 112T82 217T50 302T32 350Q27 364 19 388T10 440Q10 468 29 489T89 510Q121 510 139 504T163 495Q176 450 188 406T213 321T235 248T252 194Q258 212 268 246T288 319T309 391T324 444Q333 474 349 492T409 510Q435 510 457 503T484 492Q497 447 509 403T533 319T553 248T569 194Q575 212 583 237T600 292T618 355T637 421Q650 467 671 488T736 510Q756 510 772 506T800 497T818 488T827 482Q820 453 800 395T754 268T698 127T643 0H489Q483 16 473 50T452 123T429 202T408 269Q399 241 388 201T365 122T343 49T328 0H173ZM287 570L237 633L336 701Q351 712 372 724T415 737Q437 737 458 725T494 701L593 633L543 570L415 640L287 570Z"  />
<glyph unicode="&#x176;" horiz-adv-x="691" d="M252 253Q229 281 203 314T153 378T109 437T75 482Q65 496 53 513T30 548T12 585T5 618Q5 653 27 669T82 686Q110 686 129 680T154 670Q169 647 193 611T243 537T295 462T338 402Q356 426 375 454T414 512T452 571T487 625Q493 634 501 645T522 665T552 680T592 686Q610 686 626 682T654 671T675 659T686 650Q678 633 661 605T621 541T570 465T516 387T464 314T419 253V0H252V253ZM188 745L148 808L257 876Q276 887 298 899T344 912Q368 912 391 900T431 876L540 808L500 745L344 807L188 745Z"  />
<glyph unicode="&#x177;" horiz-adv-x="620" d="M114 -55Q118 -57 131 -61T165 -70T210 -78T263 -82Q340 -82 374 -49T408 60Q389 37 350 24T272 10Q226 10 187 21T118 57T72 117T55 204V439Q55 478 78 494T139 510Q166 510 188 504T216 495V237Q216 189 238 168T309 147Q354 147 379 173T404 253V439Q404 478 427 494T488 510Q515 510 537 504T565 495V71Q565 -5 545 -58T488 -145T400 -194T286 -210Q242 -210 205 -205T140 -194T95 -181T75 -173L114 -55ZM193 570L143 633L242 701Q257 712 278 724T321 737Q343 737 364 725T400 701L499 633L449 570L321 640L193 570Z"  />
<glyph unicode="&#x178;" horiz-adv-x="691" d="M252 253Q229 281 203 314T153 378T109 437T75 482Q65 496 53 513T30 548T12 585T5 618Q5 653 27 669T82 686Q110 686 129 680T154 670Q169 647 193 611T243 537T295 462T338 402Q356 426 375 454T414 512T452 571T487 625Q493 634 501 645T522 665T552 680T592 686Q610 686 626 682T654 671T675 659T686 650Q678 633 661 605T621 541T570 465T516 387T464 314T419 253V0H252V253ZM168 822Q168 835 174 848T190 871T214 887T243 893Q273 893 294 871T316 822Q316 794 295 772T243 750Q228 750 215 756T191 772T174 795T168 822ZM381 822Q381 849 402 871T455 893Q486 893 507 871T528 822Q528 794 507 772T455 750Q424 750 403 772T381 822Z"  />
<glyph unicode="&#x179;" horiz-adv-x="644" d="M10 143Q62 192 120 248T232 358T330 457T398 530H113Q67 530 48 549T28 606Q28 633 36 655T49 686H524Q571 686 597 665T624 602Q624 564 602 532T548 465Q494 405 420 327T249 156H620V0H10V143ZM226 820L361 888Q380 898 398 905T435 912Q460 912 475 900T499 873T511 845T514 828L260 747L226 820Z"  />
<glyph unicode="&#x17A;" horiz-adv-x="549" d="M19 125Q49 151 90 187T172 259T244 323T289 363H102Q57 363 38 379T19 432Q19 458 27 480T39 510H435Q470 510 492 491T515 433Q515 408 505 388T469 345Q463 339 446 324T407 288T358 244T308 199T264 161T234 136H517V0H19V125ZM179 636L294 709Q311 720 327 728T361 737Q383 737 397 726T419 701T430 675T434 660L223 570L179 636Z"  />
<glyph unicode="&#x17B;" horiz-adv-x="644" d="M10 143Q62 192 120 248T232 358T330 457T398 530H113Q67 530 48 549T28 606Q28 633 36 655T49 686H524Q571 686 597 665T624 602Q624 564 602 532T548 465Q494 405 420 327T249 156H620V0H10V143ZM263 829Q263 843 269 856T285 879T310 896T339 902Q370 902 392 880T414 829Q414 801 392 779T339 756Q324 756 310 762T286 778T269 802T263 829Z"  />
<glyph unicode="&#x17C;" horiz-adv-x="549" d="M19 125Q49 151 90 187T172 259T244 323T289 363H102Q57 363 38 379T19 432Q19 458 27 480T39 510H435Q470 510 492 491T515 433Q515 408 505 388T469 345Q463 339 446 324T407 288T358 244T308 199T264 161T234 136H517V0H19V125ZM203 642Q203 655 209 667T225 689T248 704T275 710Q289 710 302 705T324 690T339 668T345 642Q345 615 325 594T275 573Q261 573 248 578T225 594T209 616T203 642Z"  />
<glyph unicode="&#x17D;" horiz-adv-x="644" d="M10 143Q62 192 120 248T232 358T330 457T398 530H113Q67 530 48 549T28 606Q28 633 36 655T49 686H524Q571 686 597 665T624 602Q624 564 602 532T548 465Q494 405 420 327T249 156H620V0H10V143ZM154 854L200 917L330 847L460 917L506 854L409 786Q394 775 373 763T330 750Q308 750 287 762T251 786L154 854Z"  />
<glyph unicode="&#x17E;" horiz-adv-x="549" d="M19 125Q49 151 90 187T172 259T244 323T289 363H102Q57 363 38 379T19 432Q19 458 27 480T39 510H435Q470 510 492 491T515 433Q515 408 505 388T469 345Q463 339 446 324T407 288T358 244T308 199T264 161T234 136H517V0H19V125ZM104 674L150 737L280 667L410 737L456 674L359 606Q344 595 323 583T280 570Q258 570 237 582T201 606L104 674Z"  />
<glyph unicode="&#x17F;" horiz-adv-x="425" d="M60 526Q60 581 75 621T119 686T186 724T274 737Q316 737 347 731T402 710Q414 703 425 690T436 654Q436 631 423 612T393 584Q381 595 356 603T303 612Q265 612 243 592T221 532V0H60V526Z"  />
<glyph unicode="&#x192;" horiz-adv-x="538" d="M-98 -62Q-88 -67 -69 -72T-29 -77Q0 -77 24 -63T54 -6L126 512Q135 574 156 617T209 686T282 725T371 737Q413 737 443 730T494 709Q508 700 514 689T521 659Q521 632 504 612T469 584Q458 595 434 603T383 612Q345 612 320 592T289 532L286 510H387Q432 510 451 492T470 438Q470 412 462 390T450 360H265L216 8Q207 -55 185 -97T131 -164T63 -199T-12 -210Q-66 -210 -103 -198T-150 -179L-98 -62Z"  />
<glyph unicode="&#x218;" horiz-adv-x="682" d="M99 196Q105 191 126 181T179 160T253 141T344 132Q384 132 408 137T445 152T462 172T466 196Q466 220 447 235T374 260L272 278Q232 285 192 298T121 334T69 393T49 482Q49 528 66 568T118 639T206 686T332 704Q384 704 423 699T490 685T535 669T561 656Q578 646 593 629T609 587Q609 570 603 555T589 526T570 504T553 489Q543 499 523 511T475 534T411 551T334 558Q295 558 272 552T238 536T223 514T219 492Q219 483 221 475T233 460T260 446T308 433L414 412Q470 401 512 385T584 344T627 286T642 205Q642 100 564 41T342 -18Q277 -18 223 -7T127 18T61 46T30 64L99 196ZM270 -135Q274 -100 291 -76T345 -51Q368 -51 385 -59T409 -72L344 -275L256 -261L270 -135Z"  />
<glyph unicode="&#x219;" horiz-adv-x="564" d="M82 156Q90 150 108 142T152 126T210 113T279 107Q320 107 341 114T362 141Q362 161 345 168T290 181L238 187Q199 192 163 201T100 229T56 277T40 350Q40 387 53 418T96 473T170 510T277 524Q340 524 385 516T464 491Q483 481 494 467T506 431Q506 415 500 403T485 381T469 367T459 361Q456 364 443 372T407 387T353 401T281 407Q236 407 219 397T201 369Q201 352 217 345T265 333L356 320Q390 315 421 306T477 278T516 232T531 164Q531 80 467 33T290 -14Q231 -14 186 -6T107 12T54 34T25 52L82 156ZM203 -135Q207 -100 224 -76T278 -51Q301 -51 318 -59T342 -72L277 -275L189 -261L203 -135Z"  />
<glyph unicode="&#x21A;" horiz-adv-x="667" d="M250 530H90Q44 530 25 549T5 606Q5 633 13 655T26 686H577Q623 686 642 667T662 610Q662 583 654 561T641 530H417V0H250V530ZM254 -135Q258 -100 275 -76T329 -51Q352 -51 369 -59T393 -72L328 -275L240 -261L254 -135Z"  />
<glyph unicode="&#x21B;" horiz-adv-x="444" d="M55 589Q55 628 78 644T139 660Q166 660 188 654T216 645V510H331Q376 510 395 492T414 438Q414 412 406 390T394 360H216V203Q216 180 223 167T240 145T264 135T292 132Q320 132 343 140T376 155L439 45Q430 37 413 27T372 8T318 -7T255 -14Q161 -14 108 35T55 168V589ZM172 -135Q176 -100 193 -76T247 -51Q270 -51 287 -59T311 -72L246 -275L158 -261L172 -135Z"  />
<glyph unicode="&#x237;" horiz-adv-x="281" d="M-89 -60Q-76 -67 -55 -72T-13 -77Q16 -77 38 -62T60 -5V439Q60 478 83 494T144 510Q171 510 193 504T221 495V8Q221 -55 204 -97T158 -164T92 -199T13 -210Q-10 -210 -33 -207T-75 -198T-109 -187T-129 -179L-89 -60Z"  />
<glyph unicode="&#x2BC;" horiz-adv-x="500" d="M19 678Q27 706 41 721T86 736Q117 736 137 723T164 701L61 465L-31 500L19 678Z"  />
<glyph unicode="&#x2C6;" horiz-adv-x="500" d="M122 570L72 633L171 701Q186 712 207 724T250 737Q272 737 293 725T329 701L428 633L378 570L250 640L122 570Z"  />
<glyph unicode="&#x2C7;" horiz-adv-x="500" d="M74 674L120 737L250 667L380 737L426 674L329 606Q314 595 293 583T250 570Q228 570 207 582T171 606L74 674Z"  />
<glyph unicode="&#x2C9;" horiz-adv-x="500" d="M375 692Q402 692 412 679T423 643Q423 626 419 614T413 597H127Q101 597 90 610T79 646Q79 663 83 675T89 692H375Z"  />
<glyph unicode="&#x2D8;" horiz-adv-x="500" d="M174 730Q183 695 201 679T250 662Q281 662 299 678T326 730L401 720Q400 699 393 674T368 626T322 588T250 573Q206 573 178 588T132 625T107 673T99 720L174 730Z"  />
<glyph unicode="&#x2D9;" horiz-adv-x="500" d="M179 642Q179 655 185 667T201 689T224 704T251 710Q265 710 278 705T300 690T315 668T321 642Q321 615 301 594T251 573Q237 573 224 578T201 594T185 616T179 642Z"  />
<glyph unicode="&#x2DA;" horiz-adv-x="500" d="M147 666Q147 687 155 705T177 737T210 759T250 767Q271 767 290 759T323 737T345 705T353 666Q353 645 345 627T323 595T290 573T250 565Q229 565 210 573T177 595T155 627T147 666ZM250 622Q270 622 281 634T292 666Q292 686 281 698T250 710Q230 710 219 698T208 666Q208 646 219 634T250 622Z"  />
<glyph unicode="&#x2DB;" horiz-adv-x="500" d="M325 0Q314 -2 298 -6T267 -20T242 -42T231 -72Q231 -92 245 -98T274 -105Q302 -105 319 -97T340 -87L369 -151Q355 -159 325 -169T248 -179Q197 -179 165 -160T132 -95Q132 -70 142 -52T166 -23T191 -6T205 0H325Z"  />
<glyph unicode="&#x2DC;" horiz-adv-x="500" d="M61 589Q65 610 74 630T97 667T132 692T180 702Q204 702 222 698T254 690L279 682Q290 679 297 678T315 676Q327 676 336 683T350 710L439 692Q434 671 426 651T403 614T368 589T320 579Q299 579 282 583T244 593L220 600Q212 602 203 604T185 606Q174 606 165 598T151 570L61 589Z"  />
<glyph unicode="&#x2DD;" horiz-adv-x="500" d="M261 631L354 709Q370 723 384 730T416 737Q439 737 451 727T469 703Q476 688 477 670L308 570L261 631ZM22 631L115 709Q131 723 145 730T177 737Q200 737 212 727T230 703Q237 688 238 670L69 570L22 631Z"  />
<glyph unicode="&#x394;" horiz-adv-x="769" d="M233 147H524L379 507L233 147ZM5 0L301 704H470L764 0H5Z"  />
<glyph unicode="&#x3A9;" horiz-adv-x="840" d="M50 138H167Q126 176 98 234T70 373Q70 440 90 500T152 606T260 677T420 704Q513 704 579 678T688 606T750 501T770 373Q770 292 742 234T673 138H790V0H470V137Q531 168 563 221T595 355Q595 396 586 432T555 496T501 540T420 556Q373 556 340 540T285 497T255 433T245 355Q245 274 277 221T370 137V0H50V138Z"  />
<glyph unicode="&#x3BC;" horiz-adv-x="620" d="M55 -200V439Q55 478 78 494T139 510Q166 510 188 504T216 495V224Q216 194 226 174T254 142T296 125T348 120Q367 120 382 121T404 125V439Q404 478 427 494T488 510Q515 510 537 504T565 495V0Q554 -2 507 -8T384 -14Q342 -14 312 -9T261 5T230 20T215 33V-200H55Z"  />
<glyph unicode="&#x3C0;" horiz-adv-x="720" d="M576 360V180Q576 157 586 143T620 128Q632 128 645 131T666 140L715 23Q693 10 660 -2T581 -14Q548 -14 518 -4T465 27T429 83T415 168V360H280V0H119V360H96Q52 360 34 379T15 433Q15 459 23 480T35 510H610Q654 510 672 491T691 436Q691 411 683 390T671 360H576Z"  />
<glyph unicode="&#x60C;" horiz-adv-x="337" d="M226 59Q216 26 199 8T146 -10Q128 -10 112 -5T84 6T64 20T52 32L183 334L294 292L226 59Z"  />
<glyph unicode="&#x615;" horiz-adv-x="0" d="M-41 988Q-30 1002 -11 1011T35 1020Q54 1020 72 1015T103 999T125 969T134 923V858H-134V909H-96V1058Q-96 1084 -68 1084Q-59 1084 -52 1081T-41 1076V988ZM29 968Q0 968 -20 951T-42 909H78V921Q78 943 67 955T29 968Z"  />
<glyph unicode="&#x61B;" horiz-adv-x="337" d="M242 393Q232 360 215 342T162 324Q144 324 128 329T100 340T80 354T68 366L199 668L310 626L242 393ZM159 183Q178 183 195 176T226 155T247 124T255 86Q255 66 248 49T227 19T196 -2T159 -10Q139 -10 122 -3T92 18T71 49T63 86Q63 106 70 123T91 154T122 175T159 183Z"  />
<glyph unicode="&#x61F;" horiz-adv-x="542" d="M385 220H225Q225 252 203 269T147 310Q128 323 109 340T75 380T50 434T40 504Q40 544 55 580T101 644T179 688T291 704Q339 704 374 697T434 681T473 660T496 641Q510 625 515 610T521 577Q521 562 515 549T499 524T474 504T444 492Q427 521 393 543T306 566Q251 566 228 543T205 490Q205 451 233 427T305 379Q347 355 366 324T385 243V220ZM401 76Q401 57 394 40T373 11T342 -9T305 -17Q285 -17 268 -10T238 10T217 40T209 76Q209 95 216 111T237 140T268 160T305 168Q324 168 341 161T372 141T393 112T401 76Z"  />
<glyph unicode="&#x621;" horiz-adv-x="383" d="M358 112V0H25V112H91Q86 119 79 133T72 175Q72 200 83 221T114 257T161 281T222 290Q255 290 281 281T321 259Q329 251 334 242T339 219Q339 208 334 198T320 178T304 162T289 152Q281 162 266 170T232 179Q217 179 205 171T193 144Q193 134 201 123T227 112H358Z"  />
<glyph unicode="&#x622;" horiz-adv-x="273" d="M57 0V711Q57 753 79 770T140 787Q168 787 188 780T216 770V0H57ZM83 952Q98 952 112 946T141 934T168 921T196 915Q209 915 212 925T216 952H287Q287 922 280 901T262 867T237 848T206 842Q188 842 172 848T140 862Q126 869 114 874T93 879Q80 879 76 869T71 842H3Q3 903 27 927T83 952Z"  />
<glyph unicode="&#x623;" horiz-adv-x="273" d="M57 0V711Q57 753 79 770T140 787Q168 787 188 780T216 770V0H57ZM36 901H82Q71 912 67 924T63 947Q63 981 89 1002T154 1023Q185 1023 206 1012T228 981Q228 973 224 965T206 944Q199 947 189 952T162 958Q148 958 141 951T134 933Q134 916 146 909T175 901H237V841H36V901Z"  />
<glyph unicode="&#x624;" horiz-adv-x="587" d="M537 57Q537 -26 517 -83T462 -177T380 -229T278 -245Q259 -245 239 -243T199 -236T162 -227T133 -214L171 -92Q188 -100 216 -106T268 -112Q318 -112 345 -85T377 0H284Q226 0 180 16T101 63T51 136T33 230Q33 284 52 328T105 404T184 453T282 470Q343 470 398 448T488 380Q511 348 524 301T537 185V57ZM190 575H236Q225 586 221 598T217 621Q217 655 243 676T308 697Q339 697 360 686T382 655Q382 647 378 639T360 618Q353 621 343 626T316 632Q302 632 295 625T288 607Q288 590 300 583T329 575H391V515H190V575ZM380 197Q380 245 369 272T343 313T310 330T280 334Q240 334 215 309T190 232Q190 190 217 165T285 140H380V197Z"  />
<glyph unicode="&#x625;" horiz-adv-x="273" d="M57 0V711Q57 753 79 770T140 787Q168 787 188 780T216 770V0H57ZM36 -184H82Q71 -173 67 -161T63 -138Q63 -104 89 -83T154 -62Q185 -62 206 -73T228 -104Q228 -112 224 -120T206 -141Q199 -138 189 -133T162 -127Q148 -127 141 -134T134 -152Q134 -169 146 -176T175 -184H237V-244H36V-184Z"  />
<glyph unicode="&#x626;" horiz-adv-x="903" d="M482 254Q482 303 498 341T544 405T614 445T705 459Q729 459 757 454T810 436T851 405T868 358Q868 331 853 316T819 288Q803 305 780 312T733 320Q697 320 670 298T643 225V-230H356Q292 -230 235 -213T134 -159T66 -64T40 78Q40 131 46 164T66 215T98 239T143 246Q173 246 193 235T220 219Q209 168 206 135T203 84Q203 -5 245 -45T360 -86H482V254ZM225 389H271Q260 400 256 412T252 435Q252 469 278 490T343 511Q374 511 395 500T417 469Q417 461 413 453T395 432Q388 435 378 440T351 446Q337 446 330 439T323 421Q323 404 335 397T364 389H426V329H225V389Z"  />
<glyph unicode="&#x627;" horiz-adv-x="273" d="M57 0V711Q57 753 79 770T140 787Q168 787 188 780T216 770V0H57Z"  />
<glyph unicode="&#x628;" horiz-adv-x="888" d="M209 348Q202 319 201 295T199 264Q199 207 239 174T368 140H672V384Q672 426 694 443T755 460Q777 460 796 455T831 444V0H337Q268 0 213 19T120 73T61 154T40 255Q40 318 61 345T129 372Q172 372 209 348ZM396 -125Q396 -93 417 -72T470 -50Q502 -50 524 -71T546 -125Q546 -156 524 -178T470 -200Q438 -200 417 -178T396 -125Z"  />
<glyph unicode="&#x629;" horiz-adv-x="571" d="M521 231Q521 172 507 132T469 65T418 23T362 1T311 -8T274 -10Q212 -10 167 8T92 57T48 129T33 216Q33 264 48 308T100 386T199 440T357 461H521V231ZM191 216Q191 197 198 183T217 159T244 145T274 140Q290 140 306 144T335 158T356 187T364 234V323H327Q285 323 259 314T217 290T197 256T191 216ZM341 581Q341 612 362 633T415 655Q447 655 469 634T491 581Q491 549 469 527T415 505Q383 505 362 527T341 581ZM159 581Q159 612 180 633T233 655Q265 655 287 634T309 581Q309 549 287 527T233 505Q201 505 180 527T159 581Z"  />
<glyph unicode="&#x62A;" horiz-adv-x="883" d="M467 581Q467 612 488 633T542 655Q574 655 595 634T617 581Q617 549 596 527T542 505Q510 505 489 527T467 581ZM281 581Q281 612 302 633T355 655Q387 655 409 634T431 581Q431 549 409 527T355 505Q323 505 302 527T281 581ZM204 348Q197 319 196 295T194 264Q194 207 234 174T363 140H667V384Q667 426 689 443T750 460Q772 460 791 455T826 444V0H332Q263 0 208 19T115 73T56 154T35 255Q35 318 56 345T124 372Q167 372 204 348Z"  />
<glyph unicode="&#x62B;" horiz-adv-x="883" d="M205 352Q197 320 196 296T194 264Q194 207 234 174T363 140H667V384Q667 426 689 443T750 460Q772 460 791 455T826 444V0H332Q263 0 208 19T115 73T56 154T35 255Q35 318 56 345T124 372Q145 372 165 367T205 352ZM466 581Q466 612 487 633T541 655Q573 655 594 634T616 581Q616 549 595 527T541 505Q509 505 488 527T466 581ZM280 581Q280 612 301 633T354 655Q386 655 408 634T430 581Q430 549 408 527T354 505Q322 505 301 527T280 581ZM375 733Q375 764 396 785T449 807Q481 807 503 786T525 733Q525 701 503 679T449 657Q417 657 396 679T375 733Z"  />
<glyph unicode="&#x62C;" horiz-adv-x="669" d="M362 184Q330 225 305 251T257 292T214 312T173 318Q159 318 147 316T119 308Q116 311 111 317T100 332T90 355T85 384Q85 422 114 443T201 464Q239 464 271 454T332 428T385 389T433 343Q460 313 482 286T527 227T572 160T625 76Q615 63 600 53T569 34T537 22T507 17Q482 17 469 29T445 59H434Q384 59 339 49T259 17T204 -39T183 -122Q183 -155 194 -182T227 -229T277 -260T344 -271Q380 -271 419 -263T484 -241L543 -364Q507 -381 454 -396T331 -412Q261 -412 203 -393T103 -337T38 -250T15 -134Q15 -55 42 2T117 97T227 156T362 184ZM270 -128Q270 -96 291 -75T345 -53Q377 -53 398 -74T420 -128Q420 -159 399 -181T345 -203Q313 -203 292 -181T270 -128Z"  />
<glyph unicode="&#x62D;" horiz-adv-x="669" d="M362 184Q330 225 305 251T257 292T214 312T173 318Q159 318 147 316T119 308Q116 311 111 317T100 332T90 355T85 384Q85 422 114 443T201 464Q239 464 271 454T332 428T385 389T433 343Q460 313 482 286T527 227T572 160T625 76Q615 63 600 53T569 34T537 22T507 17Q482 17 469 29T445 59H434Q384 59 339 49T259 17T204 -39T183 -122Q183 -155 194 -182T227 -229T277 -260T344 -271Q380 -271 419 -263T484 -241L543 -364Q507 -381 454 -396T331 -412Q261 -412 203 -393T103 -337T38 -250T15 -134Q15 -55 42 2T117 97T227 156T362 184Z"  />
<glyph unicode="&#x62E;" horiz-adv-x="669" d="M362 184Q330 225 305 251T257 292T214 312T173 318Q159 318 147 316T119 308Q116 311 111 317T100 332T90 355T85 384Q85 422 114 443T201 464Q239 464 271 454T332 428T385 389T433 343Q460 313 482 286T527 227T572 160T625 76Q615 63 600 53T569 34T537 22T507 17Q482 17 469 29T445 59H434Q384 59 339 49T259 17T204 -39T183 -122Q183 -155 194 -182T227 -229T277 -260T344 -271Q380 -271 419 -263T484 -241L543 -364Q507 -381 454 -396T331 -412Q261 -412 203 -393T103 -337T38 -250T15 -134Q15 -55 42 2T117 97T227 156T362 184ZM141 579Q141 611 162 632T216 654Q248 654 269 633T291 579Q291 548 270 526T216 504Q184 504 163 526T141 579Z"  />
<glyph unicode="&#x62F;" horiz-adv-x="605" d="M243 470Q306 470 362 451T462 391T530 288T555 141V0H42V140H387Q387 189 375 223T342 280T292 311T229 321Q206 321 182 318T131 306Q128 308 122 315T109 332T97 356T92 386Q92 413 108 429T149 455T199 467T243 470Z"  />
<glyph unicode="&#x630;" horiz-adv-x="605" d="M213 587Q213 618 234 639T287 661Q319 661 341 640T363 587Q363 555 341 533T287 511Q255 511 234 533T213 587ZM243 470Q306 470 362 451T462 391T530 288T555 141V0H42V140H387Q387 189 375 223T342 280T292 311T229 321Q206 321 182 318T131 306Q128 308 122 315T109 332T97 356T92 386Q92 413 108 429T149 455T199 467T243 470Z"  />
<glyph unicode="&#x631;" horiz-adv-x="409" d="M193 385Q193 427 217 443T280 460Q305 460 322 454T352 445V-18Q352 -81 335 -123T288 -190T221 -225T142 -236Q119 -236 97 -233T57 -224T25 -214T6 -205L44 -86Q58 -94 82 -98T126 -103Q152 -103 172 -87T193 -33V385Z"  />
<glyph unicode="&#x632;" horiz-adv-x="409" d="M197 581Q197 612 218 633T271 655Q303 655 325 634T347 581Q347 549 325 527T271 505Q239 505 218 527T197 581ZM193 385Q193 427 217 443T280 460Q305 460 322 454T352 445V-18Q352 -81 335 -123T288 -190T221 -225T142 -236Q119 -236 97 -233T57 -224T25 -214T6 -205L44 -86Q58 -94 82 -98T126 -103Q152 -103 172 -87T193 -33V385Z"  />
<glyph unicode="&#x633;" horiz-adv-x="1272" d="M646 14Q635 -52 607 -98T537 -174T446 -217T340 -230Q280 -230 226 -213T130 -158T64 -61T40 82Q40 132 46 164T66 216T98 242T143 250Q172 250 193 239T220 223Q208 173 205 140T202 88Q202 -1 240 -43T344 -85Q415 -85 454 -42T494 99V387Q494 427 515 443T575 460Q603 460 624 454T652 444V211Q652 179 667 160T714 140Q740 140 758 155T777 204V387Q777 427 798 443T858 460Q886 460 907 454T935 444V200Q935 174 948 157T996 140H1057V387Q1057 427 1078 443T1138 460Q1166 460 1187 454T1215 444V0H966Q924 0 899 11T856 49Q839 23 807 7T731 -10Q712 -10 688 -5T646 14Z"  />
<glyph unicode="&#x634;" horiz-adv-x="1272" d="M876 581Q876 612 897 633T951 655Q983 655 1004 634T1026 581Q1026 549 1005 527T951 505Q919 505 898 527T876 581ZM690 581Q690 612 711 633T764 655Q796 655 818 634T840 581Q840 549 818 527T764 505Q732 505 711 527T690 581ZM785 733Q785 764 806 785T859 807Q891 807 913 786T935 733Q935 701 913 679T859 657Q827 657 806 679T785 733ZM646 14Q635 -52 607 -98T537 -174T446 -217T340 -230Q280 -230 226 -213T130 -158T64 -61T40 82Q40 132 46 164T66 216T98 242T143 250Q172 250 193 239T220 223Q208 173 205 140T202 88Q202 -1 240 -43T344 -85Q415 -85 454 -42T494 99V387Q494 427 515 443T575 460Q603 460 624 454T652 444V211Q652 179 667 160T714 140Q740 140 758 155T777 204V387Q777 427 798 443T858 460Q886 460 907 454T935 444V200Q935 174 948 157T996 140H1057V387Q1057 427 1078 443T1138 460Q1166 460 1187 454T1215 444V0H966Q924 0 899 11T856 49Q839 23 807 7T731 -10Q712 -10 688 -5T646 14Z"  />
<glyph unicode="&#x635;" horiz-adv-x="1224" d="M645 0Q632 -62 603 -105T534 -176T445 -217T340 -230Q280 -230 226 -213T130 -158T64 -61T40 82Q40 132 46 164T66 216T98 242T143 250Q172 250 193 239T220 223Q208 173 205 140T202 88Q202 -1 240 -43T344 -85Q415 -85 454 -42T494 99V384Q494 426 516 443T576 460Q602 460 623 453T653 441V368Q668 388 691 406T743 439T807 461T882 470Q936 470 988 455T1082 406T1149 314T1174 172V0H645ZM860 326Q815 326 777 312T712 272T668 213T651 140H1013V164Q1013 242 976 284T860 326Z"  />
<glyph unicode="&#x636;" horiz-adv-x="1224" d="M804 581Q804 612 825 633T879 655Q911 655 932 634T954 581Q954 549 933 527T879 505Q847 505 826 527T804 581ZM645 0Q632 -62 603 -105T534 -176T445 -217T340 -230Q280 -230 226 -213T130 -158T64 -61T40 82Q40 132 46 164T66 216T98 242T143 250Q172 250 193 239T220 223Q208 173 205 140T202 88Q202 -1 240 -43T344 -85Q415 -85 454 -42T494 99V384Q494 426 516 443T576 460Q602 460 623 453T653 441V368Q668 388 691 406T743 439T807 461T882 470Q936 470 988 455T1082 406T1149 314T1174 172V0H645ZM860 326Q815 326 777 312T712 272T668 213T651 140H1013V164Q1013 242 976 284T860 326Z"  />
<glyph unicode="&#x637;" horiz-adv-x="885" d="M313 368Q329 388 352 406T404 439T468 461T543 470Q597 470 649 455T743 406T810 314T835 172V0H42V140H154V711Q154 753 176 770T237 787Q262 787 284 780T313 768V368ZM520 326Q475 326 437 312T372 272T328 213T311 140H673V164Q673 242 636 284T520 326Z"  />
<glyph unicode="&#x638;" horiz-adv-x="885" d="M469 581Q469 612 490 633T544 655Q576 655 597 634T619 581Q619 549 598 527T544 505Q512 505 491 527T469 581ZM313 368Q329 388 352 406T404 439T468 461T543 470Q597 470 649 455T743 406T810 314T835 172V0H42V140H154V711Q154 753 176 770T237 787Q262 787 284 780T313 768V368ZM520 326Q475 326 437 312T372 272T328 213T311 140H673V164Q673 242 636 284T520 326Z"  />
<glyph unicode="&#x639;" horiz-adv-x="636" d="M312 170Q327 175 348 181T390 192T432 200T468 204Q500 204 521 183T543 124Q543 107 540 90T530 61Q436 52 373 34T271 -10T216 -69T199 -139Q199 -205 242 -239T359 -274Q395 -274 426 -267T484 -251T529 -231T560 -212L631 -337Q621 -344 597 -358T536 -385T449 -409T338 -419Q269 -419 211 -401T112 -346T48 -258T25 -140Q25 -70 57 -6T171 106Q127 136 108 178T89 268Q89 306 105 342T151 407T226 453T326 470Q382 470 424 458T488 425Q498 415 504 404T511 375Q511 360 505 347T491 324T473 306T456 294Q439 310 411 322T345 335Q297 335 274 311T250 255Q250 229 266 207T312 170Z"  />
<glyph unicode="&#x63A;" horiz-adv-x="636" d="M312 170Q327 175 348 181T390 192T432 200T468 204Q500 204 521 183T543 124Q543 107 540 90T530 61Q436 52 373 34T271 -10T216 -69T199 -139Q199 -205 242 -239T359 -274Q395 -274 426 -267T484 -251T529 -231T560 -212L631 -337Q621 -344 597 -358T536 -385T449 -409T338 -419Q269 -419 211 -401T112 -346T48 -258T25 -140Q25 -70 57 -6T171 106Q127 136 108 178T89 268Q89 306 105 342T151 407T226 453T326 470Q382 470 424 458T488 425Q498 415 504 404T511 375Q511 360 505 347T491 324T473 306T456 294Q439 310 411 322T345 335Q297 335 274 311T250 255Q250 229 266 207T312 170ZM245 581Q245 612 266 633T320 655Q352 655 374 634T396 581Q396 549 374 527T320 505Q288 505 267 527T245 581Z"  />
<glyph unicode="&#x640;" horiz-adv-x="400" d="M-15 140H415V0H-15V140Z"  />
<glyph unicode="&#x641;" horiz-adv-x="1046" d="M524 140Q519 150 514 163T506 189T500 216T498 239Q498 291 518 333T572 406T651 453T747 470Q804 470 850 453T928 403T978 323T996 217V0H333Q264 0 209 19T115 71T56 151T35 253Q35 315 55 343T130 372Q156 372 177 363T206 348Q201 330 198 306T194 263Q194 206 234 173T364 140H524ZM838 140V199Q838 222 835 245T823 288T796 319T748 331Q703 331 680 304T656 236Q656 216 663 199T682 168T711 148T747 140H838ZM670 581Q670 612 691 633T745 655Q777 655 798 634T820 581Q820 549 799 527T745 505Q713 505 692 527T670 581Z"  />
<glyph unicode="&#x642;" horiz-adv-x="870" d="M586 581Q586 612 607 633T660 655Q692 655 714 634T736 581Q736 549 714 527T660 505Q628 505 607 527T586 581ZM400 581Q400 612 421 633T474 655Q506 655 528 634T550 581Q550 549 528 527T474 505Q442 505 421 527T400 581ZM40 86Q40 140 46 173T66 224T98 248T142 254Q157 254 169 251T192 243T209 234T219 227Q213 198 210 180T205 147T203 120T202 92Q202 5 260 -39T430 -84H663V0H567Q509 0 463 16T384 63T334 136T316 230Q316 281 335 325T388 401T467 452T565 470Q697 470 758 394T820 185V-227H415Q227 -227 134 -146T40 86ZM475 230Q475 188 502 164T570 140H663V188Q663 214 659 239T645 285T615 319T565 332Q525 332 500 302T475 230Z"  />
<glyph unicode="&#x643;" horiz-adv-x="883" d="M205 352Q197 320 196 296T194 264Q194 207 234 174T363 140H667V711Q667 753 689 770T750 787Q772 787 791 782T826 771V0H332Q263 0 208 19T115 73T56 154T35 255Q35 318 56 345T124 372Q145 372 165 367T205 352ZM339 416H385Q374 427 370 439T366 462Q366 496 392 517T457 538Q488 538 509 527T531 496Q531 488 527 480T509 459Q502 462 492 467T465 473Q451 473 444 466T437 448Q437 431 449 424T478 416H540V356H339V416Z"  />
<glyph unicode="&#x644;" horiz-adv-x="708" d="M651 73Q651 -17 623 -76T549 -171T449 -220T338 -235Q278 -235 224 -218T128 -163T62 -66T38 77Q38 127 44 159T64 211T96 237T141 245Q170 245 191 234T218 218Q206 168 203 135T200 83Q200 -6 238 -48T342 -90Q413 -90 452 -49T492 84V711Q492 753 514 770T574 787Q602 787 623 780T651 770V73Z"  />
<glyph unicode="&#x645;" horiz-adv-x="709" d="M244 0Q209 0 199 -17T188 -64V-230H30V-11Q30 35 41 64T71 111T117 134T175 140H186Q175 151 164 180T152 247Q152 296 172 337T227 407T309 453T411 470Q463 470 511 453T594 402Q626 371 642 326T659 217V0H244ZM500 140V199Q500 245 495 265T481 298Q457 331 411 331Q366 331 340 304T314 236Q314 195 340 169T402 140H500Z"  />
<glyph unicode="&#x646;" horiz-adv-x="708" d="M267 582Q267 613 288 634T342 656Q374 656 395 635T417 582Q417 550 396 528T342 506Q310 506 289 528T267 582ZM651 73Q651 -17 623 -76T549 -171T449 -220T338 -235Q278 -235 224 -218T128 -163T62 -66T38 77Q38 127 44 159T64 211T96 237T141 245Q170 245 191 234T218 218Q206 168 203 135T200 83Q200 -6 238 -48T342 -90Q413 -90 452 -49T492 84V385Q492 427 514 444T574 461Q602 461 623 454T651 444V73Z"  />
<glyph unicode="&#x647;" horiz-adv-x="571" d="M521 231Q521 172 507 132T469 65T418 23T362 1T311 -8T274 -10Q212 -10 167 8T92 57T48 129T33 216Q33 264 48 308T100 386T199 440T357 461H521V231ZM191 216Q191 197 198 183T217 159T244 145T274 140Q290 140 306 144T335 158T356 187T364 234V323H327Q285 323 259 314T217 290T197 256T191 216Z"  />
<glyph unicode="&#x648;" horiz-adv-x="587" d="M537 57Q537 -26 517 -83T462 -177T380 -229T278 -245Q259 -245 239 -243T199 -236T162 -227T133 -214L171 -92Q188 -100 216 -106T268 -112Q318 -112 345 -85T377 0H284Q226 0 180 16T101 63T51 136T33 230Q33 284 52 328T105 404T184 453T282 470Q343 470 398 448T488 380Q511 348 524 301T537 185V57ZM380 197Q380 245 369 272T343 313T310 330T280 334Q240 334 215 309T190 232Q190 190 217 165T285 140H380V197Z"  />
<glyph unicode="&#x649;" horiz-adv-x="903" d="M482 254Q482 303 498 341T544 405T614 445T705 459Q729 459 757 454T810 436T851 405T868 358Q868 331 853 316T819 288Q803 305 780 312T733 320Q697 320 670 298T643 225V-230H356Q292 -230 235 -213T134 -159T66 -64T40 78Q40 131 46 164T66 215T98 239T143 246Q173 246 193 235T220 219Q209 168 206 135T203 84Q203 -5 245 -45T360 -86H482V254Z"  />
<glyph unicode="&#x64A;" horiz-adv-x="903" d="M482 254Q482 303 498 341T544 405T614 445T705 459Q729 459 757 454T810 436T851 405T868 358Q868 331 853 316T819 288Q803 305 780 312T733 320Q697 320 670 298T643 225V-230H356Q292 -230 235 -213T134 -159T66 -64T40 78Q40 131 46 164T66 215T98 239T143 246Q173 246 193 235T220 219Q209 168 206 135T203 84Q203 -5 245 -45T360 -86H482V254ZM380 -345Q380 -314 401 -293T455 -271Q487 -271 508 -292T530 -345Q530 -376 509 -398T455 -421Q423 -421 402 -399T380 -345ZM194 -345Q194 -314 215 -293T268 -271Q300 -271 322 -292T344 -345Q344 -376 322 -398T268 -421Q236 -421 215 -399T194 -345Z"  />
<glyph unicode="&#x64B;" horiz-adv-x="0" d="M-134 974V1026H134V974H-134ZM-134 858V910H134V858H-134Z"  />
<glyph unicode="&#x64C;" horiz-adv-x="0" d="M71 976Q83 976 94 981T105 1002V1023H80Q60 1023 53 1015T46 997Q46 988 52 982T71 976ZM-94 988Q-59 988 -34 969T-6 906H105V944Q103 942 92 938T60 933Q25 933 9 952T-8 999Q-8 1031 13 1050T80 1070H160V858H-61V888Q-61 918 -74 927T-103 936Q-117 936 -128 932T-144 923Q-154 932 -157 938T-160 951Q-160 962 -154 969T-137 981T-116 986T-94 988Z"  />
<glyph unicode="&#x64D;" horiz-adv-x="0" d="M-134 -93V-41H134V-93H-134ZM-134 -199V-147H134V-199H-134Z"  />
<glyph unicode="&#x64E;" horiz-adv-x="0" d="M-134 858V910H134V858H-134Z"  />
<glyph unicode="&#x64F;" horiz-adv-x="0" d="M-6 900Q25 900 28 931H-2Q-37 931 -59 950T-81 1001Q-81 1032 -58 1053T-2 1074Q37 1074 59 1054T81 995V947Q81 902 59 880T-3 858Q-31 858 -49 868L-36 907Q-22 900 -6 900ZM-29 1001Q-29 975 -1 975H28V994Q28 1007 22 1018T-2 1030Q-29 1030 -29 1001Z"  />
<glyph unicode="&#x650;" horiz-adv-x="0" d="M-134 -93V-41H134V-93H-134Z"  />
<glyph unicode="&#x651;" horiz-adv-x="0" d="M-140 1006Q-140 1020 -131 1026T-108 1032Q-98 1032 -92 1030T-83 1026V933Q-83 921 -75 914T-55 906Q-42 906 -35 913T-27 933V1006Q-27 1032 2 1032Q11 1032 19 1030T30 1026V936Q30 925 35 918T55 910H84V1006Q84 1032 112 1032Q122 1032 130 1030T141 1026V858H45Q28 858 19 863T1 879Q-10 867 -23 861T-60 855Q-73 855 -87 858T-113 870T-132 894T-140 934V1006Z"  />
<glyph unicode="&#x652;" horiz-adv-x="0" d="M-96 946Q-96 965 -89 982T-68 1011T-37 1031T1 1039Q21 1039 38 1032T69 1012T89 982T97 946Q97 927 90 910T69 881T39 861T1 854Q-19 854 -36 861T-67 880T-88 910T-96 946ZM-41 946Q-41 928 -29 916T1 904Q20 904 32 916T44 946Q44 965 32 977T1 989Q-17 989 -29 977T-41 946Z"  />
<glyph unicode="&#x653;" horiz-adv-x="0" d="M-63 961Q-47 961 -31 955T1 942T29 929T52 923Q68 923 73 933T78 961H140Q140 904 116 882T62 859Q47 859 32 865T1 877T-27 890T-53 896Q-69 896 -74 886T-80 859H-140Q-140 887 -134 906T-116 938T-92 955T-63 961Z"  />
<glyph unicode="&#x654;" horiz-adv-x="0" d="M-99 910H-48Q-58 920 -62 932T-66 958Q-66 996 -39 1016T24 1037Q52 1037 71 1029T91 1003Q91 988 74 974Q68 977 57 981T32 986Q14 986 4 978T-7 954Q-7 931 9 921T46 910H100V858H-99V910Z"  />
<glyph unicode="&#x655;" horiz-adv-x="0" d="M-99 -167H-48Q-58 -157 -62 -145T-66 -119Q-66 -81 -39 -61T24 -40Q52 -40 71 -48T91 -74Q91 -89 74 -103Q68 -100 57 -96T32 -91Q14 -91 4 -99T-7 -123Q-7 -146 9 -156T46 -167H100V-219H-99V-167Z"  />
<glyph unicode="&#x656;" horiz-adv-x="0" d="M29 -223H-28V-61Q-28 -48 -21 -40T4 -32Q10 -32 18 -34T29 -39V-223Z"  />
<glyph unicode="&#x658;" horiz-adv-x="0" d="M0 849Q-21 849 -40 857T-73 878T-96 909T-104 947H-48Q-48 927 -35 913T0 898Q21 898 34 912T48 947H104Q104 927 96 910T74 879T40 857T0 849Z"  />
<glyph unicode="&#x660;" horiz-adv-x="280" d="M140 243Q120 243 103 250T73 271T52 302T44 340Q44 359 51 376T72 407T103 428T140 436Q159 436 176 429T207 408T228 377T236 340Q236 320 229 303T208 272T177 251T140 243Z"  />
<glyph unicode="&#x661;" horiz-adv-x="392" d="M120 0V619Q120 658 141 674T199 691Q225 691 245 685T272 675V0H120Z"  />
<glyph unicode="&#x662;" horiz-adv-x="500" d="M399 686Q445 686 464 667T484 610Q484 583 476 561T463 530H217Q219 503 222 462T228 371T236 268T243 165T250 72T257 0H99Q96 26 93 64T87 147T80 241T73 339T66 430T59 509Q57 528 56 546T54 594Q54 639 77 662T143 686H399Z"  />
<glyph unicode="&#x663;" horiz-adv-x="839" d="M341 331Q318 331 302 335T272 346V0H120V622Q120 660 140 675T197 691Q223 691 244 685T271 676V531Q271 499 287 484T326 469Q349 469 365 484T381 531V622Q381 660 402 675T459 691Q485 691 506 685T532 676V530Q532 501 543 485T587 469H642V622Q642 660 663 675T719 691Q745 691 766 685T793 676V334H571Q535 334 507 347T462 390Q444 359 411 345T341 331Z"  />
<glyph unicode="&#x664;" horiz-adv-x="602" d="M537 0H121Q90 39 72 87T54 184Q54 238 80 284T164 357Q122 380 96 419T70 513Q70 552 86 586T134 647T215 688T330 704Q380 704 415 698T473 683T510 664T532 646Q546 630 551 615T556 585Q556 570 550 557T533 532T508 513T479 501Q475 511 466 523T440 545T399 563T341 570Q309 570 288 564T254 547T236 523T230 495Q230 465 252 445T331 424H405Q449 424 468 408T488 356Q488 332 482 312T470 282H318Q267 282 243 256T218 194Q218 179 222 163T236 133H537V0Z"  />
<glyph unicode="&#x665;" horiz-adv-x="672" d="M336 -17Q265 -17 211 8T119 79T62 192T43 343Q43 427 62 493T118 607T210 679T336 704Q406 704 461 679T553 607T609 494T629 343Q629 259 610 193T553 80T461 8T336 -17ZM336 130Q397 130 432 182T467 343Q467 452 432 504T336 557Q273 557 239 505T205 343Q205 234 239 182T336 130Z"  />
<glyph unicode="&#x666;" horiz-adv-x="553" d="M364 686Q407 686 430 663T453 594Q453 568 452 550T449 514L422 0H264L293 530H103Q57 530 38 549T18 606Q18 633 26 655T39 686H364Z"  />
<glyph unicode="&#x667;" horiz-adv-x="628" d="M433 611Q446 649 467 667T530 686Q551 686 567 681T594 670T612 658T621 651Q616 636 602 595T567 497T522 373T473 239T424 109T381 0H232Q211 47 190 99T149 204T110 304T78 391T53 459T39 497Q29 524 19 555T8 617Q8 686 87 686Q118 686 139 679T166 668Q179 622 196 564T233 444T270 323T306 216Q334 296 365 397T433 611Z"  />
<glyph unicode="&#x668;" horiz-adv-x="628" d="M219 633Q229 657 249 671T309 686Q324 686 339 684T366 677T386 670T397 665Q418 618 441 560T487 440T534 314T577 192T613 85T639 0H462Q446 52 426 117T386 247T347 371T314 470Q300 430 282 373T243 251T203 121T164 0H-10Q0 31 16 78T53 183T95 301T139 423T181 537T219 633Z"  />
<glyph unicode="&#x669;" horiz-adv-x="622" d="M371 0V254H299Q213 254 160 275T78 327T40 395T30 461Q30 573 114 629T360 686H422Q469 686 495 666T522 604V0H371ZM192 463Q192 419 221 401T299 382H371V564H337Q292 564 264 555T220 532T198 500T192 463Z"  />
<glyph unicode="&#x66A;" horiz-adv-x="621" d="M423 686Q435 707 451 722T502 737Q519 737 533 733T559 724T577 714T586 708L175 0H25L423 686ZM160 541Q140 541 123 548T93 569T72 600T64 638Q64 657 71 674T92 705T123 726T160 734Q179 734 196 727T227 706T248 675T256 638Q256 618 249 601T228 570T197 549T160 541ZM461 -10Q441 -10 424 -3T394 18T373 49T365 87Q365 106 372 123T393 154T424 175T461 183Q480 183 497 176T528 155T549 124T557 87Q557 67 550 50T529 19T498 -2T461 -10Z"  />
<glyph unicode="&#x66B;" horiz-adv-x="337" d="M113 107Q123 140 140 158T193 176Q211 176 227 171T255 160T275 146T287 134L156 -168L45 -126L113 107Z"  />
<glyph unicode="&#x66C;" horiz-adv-x="337" d="M226 59Q216 26 199 8T146 -10Q128 -10 112 -5T84 6T64 20T52 32L183 334L294 292L226 59Z"  />
<glyph unicode="&#x66D;" horiz-adv-x="590" d="M515 343Q521 343 526 339T533 329T534 317T527 307L395 219L447 73Q449 67 447 61T439 52T428 47T416 50L294 146L172 50Q167 46 161 47T149 51T142 61T141 73L194 219L63 307Q58 311 57 317T57 329T64 339T75 343L233 337L276 489Q280 501 295 501T314 489L358 337L515 343Z"  />
<glyph unicode="&#x670;" horiz-adv-x="0" d="M29 858H-28V1020Q-28 1033 -21 1041T4 1049Q10 1049 18 1047T29 1042V858Z"  />
<glyph unicode="&#x671;" horiz-adv-x="273" d="M57 0V711Q57 753 79 770T140 787Q168 787 188 780T216 770V0H57ZM37 901Q41 927 53 947T83 981T122 1002T166 1010Q211 1010 241 988T272 910V841H0V901H37ZM164 949Q139 949 122 935T100 901H208V908Q208 949 164 949Z"  />
<glyph unicode="&#x679;" horiz-adv-x="883" d="M204 348Q197 319 196 295T194 264Q194 207 234 174T363 140H667V384Q667 426 689 443T750 460Q772 460 791 455T826 444V0H332Q263 0 208 19T115 73T56 154T35 255Q35 318 56 345T124 372Q167 372 204 348ZM329 587Q329 603 338 610T362 617Q372 617 381 614T393 609V526Q400 534 419 544T465 554Q484 554 501 549T533 532T555 501T564 454V385H292V445H329V587ZM456 493Q431 493 414 479T392 445H500V452Q500 493 456 493Z"  />
<glyph unicode="&#x67E;" horiz-adv-x="884" d="M205 348Q198 319 197 295T195 264Q195 207 235 174T364 140H668V384Q668 426 690 443T751 460Q773 460 792 455T827 444V0H333Q264 0 209 19T116 73T57 154T36 255Q36 318 57 345T125 372Q168 372 205 348ZM484 -126Q484 -94 505 -72T558 -50Q590 -50 612 -72T634 -126Q634 -157 612 -178T558 -200Q526 -200 505 -179T484 -126ZM297 -126Q297 -94 318 -72T372 -50Q404 -50 426 -72T448 -126Q448 -157 426 -178T372 -200Q340 -200 319 -179T297 -126ZM393 -278Q393 -246 414 -224T467 -202Q499 -202 521 -224T543 -278Q543 -309 521 -330T467 -352Q435 -352 414 -331T393 -278Z"  />
<glyph unicode="&#x686;" horiz-adv-x="669" d="M374 -82Q374 -64 386 -50T419 -36Q438 -36 451 -50T465 -82Q465 -101 452 -114T419 -128Q399 -128 387 -115T374 -82ZM310 -186Q310 -168 323 -154T355 -140Q374 -140 387 -154T401 -186Q401 -206 388 -219T355 -232Q336 -232 323 -219T310 -186ZM243 -82Q243 -64 256 -50T289 -36Q307 -36 321 -50T335 -82Q335 -101 321 -114T289 -128Q269 -128 256 -115T243 -82ZM362 184Q330 225 305 251T257 292T214 312T173 318Q159 318 147 316T119 308Q116 311 111 317T100 332T90 355T85 384Q85 422 114 443T201 464Q239 464 271 454T332 428T385 389T433 343Q460 313 482 286T527 227T572 160T625 76Q615 63 600 53T569 34T537 22T507 17Q482 17 469 29T445 59H434Q384 59 339 49T259 17T204 -39T183 -122Q183 -155 194 -182T227 -229T277 -260T344 -271Q380 -271 419 -263T484 -241L543 -364Q507 -381 454 -396T331 -412Q261 -412 203 -393T103 -337T38 -250T15 -134Q15 -55 42 2T117 97T227 156T362 184Z"  />
<glyph unicode="&#x688;" horiz-adv-x="605" d="M243 470Q306 470 362 451T462 391T530 288T555 141V0H42V140H387Q387 189 375 223T342 280T292 311T229 321Q206 321 182 318T131 306Q128 308 122 315T109 332T97 356T92 386Q92 413 108 429T149 455T199 467T243 470ZM220 717Q220 733 229 740T253 747Q263 747 272 744T284 739V656Q291 664 310 674T356 684Q375 684 392 679T424 662T446 631T455 584V515H183V575H220V717ZM347 623Q322 623 305 609T283 575H391V582Q391 623 347 623Z"  />
<glyph unicode="&#x691;" horiz-adv-x="413" d="M193 385Q193 427 217 443T280 460Q305 460 322 454T352 445V-18Q352 -81 335 -123T288 -190T221 -225T142 -236Q119 -236 97 -233T57 -224T25 -214T6 -205L44 -86Q58 -94 82 -98T126 -103Q152 -103 172 -87T193 -33V385ZM166 717Q166 733 175 740T199 747Q209 747 218 744T230 739V656Q237 664 256 674T302 684Q321 684 338 679T370 662T392 631T401 584V515H129V575H166V717ZM293 623Q268 623 251 609T229 575H337V582Q337 623 293 623Z"  />
<glyph unicode="&#x698;" horiz-adv-x="448" d="M198 385Q198 427 222 443T285 460Q310 460 327 454T357 445V-18Q357 -81 340 -123T293 -190T226 -225T147 -236Q124 -236 102 -233T62 -224T30 -214T11 -205L49 -86Q63 -94 87 -98T131 -103Q157 -103 177 -87T198 -33V385ZM295 581Q295 612 316 633T369 655Q401 655 423 634T445 581Q445 549 423 527T369 505Q337 505 316 527T295 581ZM108 581Q108 612 129 633T183 655Q215 655 236 634T258 581Q258 549 237 527T183 505Q151 505 130 527T108 581ZM203 733Q203 764 224 785T278 807Q310 807 331 786T353 733Q353 701 332 679T278 657Q246 657 225 679T203 733Z"  />
<glyph unicode="&#x6A4;" horiz-adv-x="1046" d="M524 140Q519 150 514 163T506 189T500 216T498 239Q498 291 518 333T572 406T651 453T747 470Q804 470 850 453T928 403T978 323T996 217V0H333Q264 0 209 19T115 71T56 151T35 253Q35 315 55 343T130 372Q156 372 177 363T206 348Q201 330 198 306T194 263Q194 206 234 173T364 140H524ZM838 140V199Q838 222 835 245T823 288T796 319T748 331Q703 331 680 304T656 236Q656 216 663 199T682 168T711 148T747 140H838ZM766 581Q766 612 787 633T841 655Q873 655 894 634T916 581Q916 549 895 527T841 505Q809 505 788 527T766 581ZM580 581Q580 612 601 633T654 655Q686 655 708 634T730 581Q730 549 708 527T654 505Q622 505 601 527T580 581ZM675 733Q675 764 696 785T749 807Q781 807 803 786T825 733Q825 701 803 679T749 657Q717 657 696 679T675 733Z"  />
<glyph unicode="&#x6A9;" horiz-adv-x="963" d="M741 148Q741 199 725 233T682 287T620 316T547 325Q509 325 480 319T436 306Q433 308 427 314T413 329T401 352T396 381Q396 394 399 405T411 427T433 453T464 486L695 726Q727 758 754 772T817 787Q838 787 854 782T882 768T904 751T919 732L628 450Q692 447 743 426T831 366T886 273T906 152V0H333Q264 0 209 19T115 73T56 154T35 255Q35 318 57 345T125 372Q146 372 166 367T206 352Q198 321 196 296T194 264Q194 207 234 174T364 140H741V148Z"  />
<glyph unicode="&#x6AF;" horiz-adv-x="963" d="M333 0Q264 0 209 19T115 73T56 154T35 255Q35 318 57 345T125 372Q146 372 166 367T206 352Q198 321 196 296T194 264Q194 207 234 174T364 140H741V148Q741 199 725 233T682 287T620 316T547 325Q509 325 480 319T436 306Q433 308 427 313T414 328T403 349T398 376Q398 402 413 423T463 479L703 724Q735 756 763 771T827 787Q848 787 864 781T893 766T913 748T926 732L637 452Q700 448 749 426T834 365T887 273T906 152V0H333ZM345 453Q320 467 306 488T292 531Q292 546 301 565T336 610L573 852Q598 878 617 889T662 901Q693 901 712 888T742 862L345 453Z"  />
<glyph unicode="&#x6BA;" horiz-adv-x="708" d="M651 68Q651 -22 623 -81T549 -176T449 -225T338 -240Q278 -240 224 -223T128 -168T62 -71T38 72Q38 122 44 154T64 206T96 232T141 240Q170 240 191 229T218 213Q206 163 203 130T200 78Q200 -11 238 -53T342 -95Q413 -95 452 -54T492 79V380Q492 422 514 439T574 456Q602 456 623 449T651 439V68Z"  />
<glyph unicode="&#x6BE;" horiz-adv-x="858" d="M458 461Q433 461 416 459T387 455Q460 428 495 367T531 217V140H645V284Q645 331 631 364T591 419T531 451T458 461ZM377 140V199Q377 245 372 265T358 298Q347 315 329 323T288 331Q243 331 217 305T191 236Q191 195 218 168T283 140H377ZM277 502Q277 533 297 553Q306 562 322 570T361 583T410 592T464 596Q528 596 589 580T697 527T772 432T801 291V0H531V-72H377V0H288Q236 0 190 12T109 53T54 127T33 239Q33 293 53 335T107 407T187 453T282 470Q279 478 278 485T277 502Z"  />
<glyph unicode="&#x6C0;" horiz-adv-x="571" d="M232 585H278Q267 596 263 608T259 631Q259 665 285 686T350 707Q381 707 402 696T424 665Q424 657 420 649T402 628Q395 631 385 636T358 642Q344 642 337 635T330 617Q330 600 342 593T371 585H433V525H232V585ZM521 231Q521 172 507 132T469 65T418 23T362 1T311 -8T274 -10Q212 -10 167 8T92 57T48 129T33 216Q33 264 48 308T100 386T199 440T357 461H521V231ZM191 216Q191 197 198 183T217 159T244 145T274 140Q290 140 306 144T335 158T356 187T364 234V323H327Q285 323 259 314T217 290T197 256T191 216Z"  />
<glyph unicode="&#x6C1;" horiz-adv-x="571" d="M521 231Q521 172 507 132T469 65T418 23T362 1T311 -8T274 -10Q212 -10 167 8T92 57T48 129T33 216Q33 264 48 308T100 386T199 440T357 461H521V231ZM191 216Q191 197 198 183T217 159T244 145T274 140Q290 140 306 144T335 158T356 187T364 234V323H327Q285 323 259 314T217 290T197 256T191 216Z"  />
<glyph unicode="&#x6C2;" horiz-adv-x="571" d="M232 585H278Q267 596 263 608T259 631Q259 665 285 686T350 707Q381 707 402 696T424 665Q424 657 420 649T402 628Q395 631 385 636T358 642Q344 642 337 635T330 617Q330 600 342 593T371 585H433V525H232V585ZM521 231Q521 172 507 132T469 65T418 23T362 1T311 -8T274 -10Q212 -10 167 8T92 57T48 129T33 216Q33 264 48 308T100 386T199 440T357 461H521V231ZM191 216Q191 197 198 183T217 159T244 145T274 140Q290 140 306 144T335 158T356 187T364 234V323H327Q285 323 259 314T217 290T197 256T191 216Z"  />
<glyph unicode="&#x6C3;" horiz-adv-x="571" d="M521 231Q521 172 507 132T469 65T418 23T362 1T311 -8T274 -10Q212 -10 167 8T92 57T48 129T33 216Q33 264 48 308T100 386T199 440T357 461H521V231ZM191 216Q191 197 198 183T217 159T244 145T274 140Q290 140 306 144T335 158T356 187T364 234V323H327Q285 323 259 314T217 290T197 256T191 216ZM341 581Q341 612 362 633T415 655Q447 655 469 634T491 581Q491 549 469 527T415 505Q383 505 362 527T341 581ZM159 581Q159 612 180 633T233 655Q265 655 287 634T309 581Q309 549 287 527T233 505Q201 505 180 527T159 581Z"  />
<glyph unicode="&#x6CC;" horiz-adv-x="903" d="M482 254Q482 303 498 341T544 405T614 445T705 459Q729 459 757 454T810 436T851 405T868 358Q868 331 853 316T819 288Q803 305 780 312T733 320Q697 320 670 298T643 225V-230H356Q292 -230 235 -213T134 -159T66 -64T40 78Q40 131 46 164T66 215T98 239T143 246Q173 246 193 235T220 219Q209 168 206 135T203 84Q203 -5 245 -45T360 -86H482V254Z"  />
<glyph unicode="&#x6D2;" horiz-adv-x="784" d="M263 140H739V0H45V125L249 332Q281 364 308 378T371 393Q392 393 408 388T436 374T458 357T473 338L263 140Z"  />
<glyph unicode="&#x6D3;" horiz-adv-x="784" d="M45 466H91Q80 477 76 489T72 512Q72 546 98 567T163 588Q194 588 215 577T237 546Q237 538 233 530T215 509Q208 512 198 517T171 523Q157 523 150 516T143 498Q143 481 155 474T184 466H246V406H45V466ZM263 140H739V0H45V125L249 332Q281 364 308 378T371 393Q392 393 408 388T436 374T458 357T473 338L263 140Z"  />
<glyph unicode="&#x6D4;" horiz-adv-x="337" d="M240 137Q275 137 289 117T304 65Q304 42 298 24T290 0H97Q62 0 48 20T33 72Q33 95 39 113T47 137H240Z"  />
<glyph unicode="&#x6D5;" horiz-adv-x="571" d="M521 231Q521 172 507 132T469 65T418 23T362 1T311 -8T274 -10Q212 -10 167 8T92 57T48 129T33 216Q33 264 48 308T100 386T199 440T357 461H521V231ZM191 216Q191 197 198 183T217 159T244 145T274 140Q290 140 306 144T335 158T356 187T364 234V323H327Q285 323 259 314T217 290T197 256T191 216Z"  />
<glyph unicode="&#x6F0;" horiz-adv-x="280" d="M140 243Q120 243 103 250T73 271T52 302T44 340Q44 359 51 376T72 407T103 428T140 436Q159 436 176 429T207 408T228 377T236 340Q236 320 229 303T208 272T177 251T140 243Z"  />
<glyph unicode="&#x6F1;" horiz-adv-x="392" d="M120 0V619Q120 658 141 674T199 691Q225 691 245 685T272 675V0H120Z"  />
<glyph unicode="&#x6F2;" horiz-adv-x="500" d="M399 686Q445 686 464 667T484 610Q484 583 476 561T463 530H217Q219 503 222 462T228 371T236 268T243 165T250 72T257 0H99Q96 26 93 64T87 147T80 241T73 339T66 430T59 509Q57 528 56 546T54 594Q54 639 77 662T143 686H399Z"  />
<glyph unicode="&#x6F3;" horiz-adv-x="839" d="M341 331Q318 331 302 335T272 346V0H120V622Q120 660 140 675T197 691Q223 691 244 685T271 676V531Q271 499 287 484T326 469Q349 469 365 484T381 531V622Q381 660 402 675T459 691Q485 691 506 685T532 676V530Q532 501 543 485T587 469H642V622Q642 660 663 675T719 691Q745 691 766 685T793 676V334H571Q535 334 507 347T462 390Q444 359 411 345T341 331Z"  />
<glyph unicode="&#x6F4;" horiz-adv-x="610" d="M100 0V482Q100 531 117 572T166 642T245 688T350 704Q398 704 431 698T487 683T523 664T544 646Q557 630 562 615T567 585Q567 570 561 557T545 532T521 513T493 501Q489 511 480 523T455 545T416 563T361 570Q311 570 286 546T260 493Q260 463 282 442T361 421H435Q479 421 498 405T518 353Q518 329 512 309T500 279H384Q341 279 308 289T252 314V0H100Z"  />
<glyph unicode="&#x6F5;" horiz-adv-x="672" d="M437 -11Q413 -11 397 -7T369 5T351 20T336 38Q330 29 323 21T304 5T277 -6T237 -11Q203 -11 169 10T106 72T61 172T43 305Q43 380 62 451T118 579T210 670T336 704Q406 704 461 670T553 580T609 452T629 305Q629 157 582 73T437 -11ZM280 137Q292 137 300 142T313 154T324 166T336 172Q342 172 347 167T357 155T371 143T392 137Q403 137 416 144T440 170T459 221T467 305Q467 348 458 393T432 474T391 534T336 557Q305 557 281 534T240 475T214 393T205 305Q205 254 212 221T231 170T256 144T280 137Z"  />
<glyph unicode="&#x6F6;" horiz-adv-x="595" d="M348 0H176L304 280Q259 283 217 294T144 329T93 389T74 481Q74 531 91 572T140 642T219 688T324 704Q372 704 405 698T461 683T497 664T518 646Q532 631 536 616T541 585Q541 570 535 557T519 532T495 513T467 501Q463 511 454 523T429 545T390 563T335 570Q285 570 260 546T234 493Q234 463 256 442T335 421H409Q453 421 472 405T492 353Q492 329 486 309T474 279L348 0Z"  />
<glyph unicode="&#x6F7;" horiz-adv-x="628" d="M433 611Q446 649 467 667T530 686Q551 686 567 681T594 670T612 658T621 651Q616 636 602 595T567 497T522 373T473 239T424 109T381 0H232Q211 47 190 99T149 204T110 304T78 391T53 459T39 497Q29 524 19 555T8 617Q8 686 87 686Q118 686 139 679T166 668Q179 622 196 564T233 444T270 323T306 216Q334 296 365 397T433 611Z"  />
<glyph unicode="&#x6F8;" horiz-adv-x="628" d="M219 633Q229 657 249 671T309 686Q324 686 339 684T366 677T386 670T397 665Q418 618 441 560T487 440T534 314T577 192T613 85T639 0H462Q446 52 426 117T386 247T347 371T314 470Q300 430 282 373T243 251T203 121T164 0H-10Q0 31 16 78T53 183T95 301T139 423T181 537T219 633Z"  />
<glyph unicode="&#x6F9;" horiz-adv-x="622" d="M371 0V254H299Q213 254 160 275T78 327T40 395T30 461Q30 573 114 629T360 686H422Q469 686 495 666T522 604V0H371ZM192 463Q192 419 221 401T299 382H371V564H337Q292 564 264 555T220 532T198 500T192 463Z"  />
<glyph unicode="&#x1E80;" horiz-adv-x="1010" d="M213 0Q199 32 183 75T149 165T114 261T82 351T56 427T38 480Q25 521 15 552T5 614Q5 648 25 667T86 686Q118 686 139 679T166 668Q176 627 193 568T229 446T268 321T303 216Q317 264 331 317T359 424T385 526T408 614Q416 646 435 666T499 686Q528 686 552 677T582 665Q590 629 603 572T633 451T664 325T693 217Q709 265 725 318T757 424T785 524T807 607Q818 650 839 668T906 686Q925 686 942 682T973 673T994 662T1005 656Q966 514 907 346T776 0H598Q589 22 576 64T549 158T521 264T496 363Q484 318 470 264T440 159T412 65T390 0H213ZM361 828Q361 831 364 844T375 873T399 900T440 912Q458 912 476 905T514 888L649 820L614 747L361 828Z"  />
<glyph unicode="&#x1E81;" horiz-adv-x="837" d="M173 0Q148 55 125 112T82 217T50 302T32 350Q27 364 19 388T10 440Q10 468 29 489T89 510Q121 510 139 504T163 495Q176 450 188 406T213 321T235 248T252 194Q258 212 268 246T288 319T309 391T324 444Q333 474 349 492T409 510Q435 510 457 503T484 492Q497 447 509 403T533 319T553 248T569 194Q575 212 583 237T600 292T618 355T637 421Q650 467 671 488T736 510Q756 510 772 506T800 497T818 488T827 482Q820 453 800 395T754 268T698 127T643 0H489Q483 16 473 50T452 123T429 202T408 269Q399 241 388 201T365 122T343 49T328 0H173ZM291 660Q291 663 294 675T306 701T328 726T364 737Q381 737 397 729T431 709L546 636L502 570L291 660Z"  />
<glyph unicode="&#x1E82;" horiz-adv-x="1010" d="M213 0Q199 32 183 75T149 165T114 261T82 351T56 427T38 480Q25 521 15 552T5 614Q5 648 25 667T86 686Q118 686 139 679T166 668Q176 627 193 568T229 446T268 321T303 216Q317 264 331 317T359 424T385 526T408 614Q416 646 435 666T499 686Q528 686 552 677T582 665Q590 629 603 572T633 451T664 325T693 217Q709 265 725 318T757 424T785 524T807 607Q818 650 839 668T906 686Q925 686 942 682T973 673T994 662T1005 656Q966 514 907 346T776 0H598Q589 22 576 64T549 158T521 264T496 363Q484 318 470 264T440 159T412 65T390 0H213ZM361 820L496 888Q515 898 533 905T570 912Q595 912 610 900T634 873T646 845T649 828L395 747L361 820Z"  />
<glyph unicode="&#x1E83;" horiz-adv-x="837" d="M173 0Q148 55 125 112T82 217T50 302T32 350Q27 364 19 388T10 440Q10 468 29 489T89 510Q121 510 139 504T163 495Q176 450 188 406T213 321T235 248T252 194Q258 212 268 246T288 319T309 391T324 444Q333 474 349 492T409 510Q435 510 457 503T484 492Q497 447 509 403T533 319T553 248T569 194Q575 212 583 237T600 292T618 355T637 421Q650 467 671 488T736 510Q756 510 772 506T800 497T818 488T827 482Q820 453 800 395T754 268T698 127T643 0H489Q483 16 473 50T452 123T429 202T408 269Q399 241 388 201T365 122T343 49T328 0H173ZM281 636L396 709Q413 720 429 728T463 737Q485 737 499 726T521 701T532 675T536 660L325 570L281 636Z"  />
<glyph unicode="&#x1E84;" horiz-adv-x="1010" d="M213 0Q199 32 183 75T149 165T114 261T82 351T56 427T38 480Q25 521 15 552T5 614Q5 648 25 667T86 686Q118 686 139 679T166 668Q176 627 193 568T229 446T268 321T303 216Q317 264 331 317T359 424T385 526T408 614Q416 646 435 666T499 686Q528 686 552 677T582 665Q590 629 603 572T633 451T664 325T693 217Q709 265 725 318T757 424T785 524T807 607Q818 650 839 668T906 686Q925 686 942 682T973 673T994 662T1005 656Q966 514 907 346T776 0H598Q589 22 576 64T549 158T521 264T496 363Q484 318 470 264T440 159T412 65T390 0H213ZM556 829Q556 857 577 879T631 902Q663 902 684 880T706 829Q706 801 685 779T631 756Q599 756 578 778T556 829ZM324 829Q324 843 330 856T346 879T371 896T400 902Q431 902 453 880T475 829Q475 801 453 779T400 756Q385 756 371 762T347 778T330 802T324 829Z"  />
<glyph unicode="&#x1E85;" horiz-adv-x="837" d="M173 0Q148 55 125 112T82 217T50 302T32 350Q27 364 19 388T10 440Q10 468 29 489T89 510Q121 510 139 504T163 495Q176 450 188 406T213 321T235 248T252 194Q258 212 268 246T288 319T309 391T324 444Q333 474 349 492T409 510Q435 510 457 503T484 492Q497 447 509 403T533 319T553 248T569 194Q575 212 583 237T600 292T618 355T637 421Q650 467 671 488T736 510Q756 510 772 506T800 497T818 488T827 482Q820 453 800 395T754 268T698 127T643 0H489Q483 16 473 50T452 123T429 202T408 269Q399 241 388 201T365 122T343 49T328 0H173ZM238 642Q238 655 244 668T260 691T284 707T313 713Q343 713 364 691T386 642Q386 614 365 592T313 570Q298 570 285 576T261 592T244 615T238 642ZM451 642Q451 669 472 691T525 713Q556 713 577 691T598 642Q598 614 577 592T525 570Q494 570 473 592T451 642Z"  />
<glyph unicode="&#x1EF2;" horiz-adv-x="691" d="M252 253Q229 281 203 314T153 378T109 437T75 482Q65 496 53 513T30 548T12 585T5 618Q5 653 27 669T82 686Q110 686 129 680T154 670Q169 647 193 611T243 537T295 462T338 402Q356 426 375 454T414 512T452 571T487 625Q493 634 501 645T522 665T552 680T592 686Q610 686 626 682T654 671T675 659T686 650Q678 633 661 605T621 541T570 465T516 387T464 314T419 253V0H252V253ZM201 828Q201 831 204 844T215 873T239 900T280 912Q298 912 316 905T354 888L489 820L454 747L201 828Z"  />
<glyph unicode="&#x1EF3;" horiz-adv-x="620" d="M114 -55Q118 -57 131 -61T165 -70T210 -78T263 -82Q340 -82 374 -49T408 60Q389 37 350 24T272 10Q226 10 187 21T118 57T72 117T55 204V439Q55 478 78 494T139 510Q166 510 188 504T216 495V237Q216 189 238 168T309 147Q354 147 379 173T404 253V439Q404 478 427 494T488 510Q515 510 537 504T565 495V71Q565 -5 545 -58T488 -145T400 -194T286 -210Q242 -210 205 -205T140 -194T95 -181T75 -173L114 -55ZM182 660Q182 663 185 675T197 701T219 726T255 737Q272 737 288 729T322 709L437 636L393 570L182 660Z"  />
<glyph unicode="&#x200C;" horiz-adv-x="0" d="M-69 729L-17 782L-69 833L-53 851L0 797L52 850L68 833L16 782L68 729L52 713L0 765L-53 712L-69 729Z"  />
<glyph unicode="&#x200D;" horiz-adv-x="0" d="M-99 793H100V725H77V771H-76V725H-99V793Z"  />
<glyph unicode="&#x200E;" horiz-adv-x="0" d="M-75 793H51L10 833L26 851L95 782L26 712L10 729L51 771H-75V793Z"  />
<glyph unicode="&#x200F;" horiz-adv-x="0" d="M-26 851L-10 834L-51 793H76V771H-50L-10 729L-26 713L-95 782L-26 851Z"  />
<glyph unicode="&#x2013;" horiz-adv-x="500" d="M435 348Q471 348 485 327T500 270Q500 245 494 225T486 199H65Q29 199 15 220T0 277Q0 302 6 322T14 348H435Z"  />
<glyph unicode="&#x2014;" horiz-adv-x="1000" d="M935 348Q971 348 985 327T1000 270Q1000 245 994 225T986 199H65Q29 199 15 220T0 277Q0 302 6 322T14 348H935Z"  />
<glyph unicode="&#x2018;" horiz-adv-x="337" d="M167 393L36 695Q40 699 48 706T68 720T96 732T130 737Q166 737 183 719T210 668L278 435L167 393Z"  />
<glyph unicode="&#x2019;" horiz-adv-x="337" d="M127 668Q137 701 154 719T207 737Q225 737 241 732T269 721T289 707T301 695L170 393L59 435L127 668Z"  />
<glyph unicode="&#x201A;" horiz-adv-x="351" d="M100 107Q110 140 127 158T180 176Q198 176 214 171T242 160T262 146T274 134L143 -168L32 -126L100 107Z"  />
<glyph unicode="&#x201C;" horiz-adv-x="573" d="M402 393L271 695Q275 699 283 706T303 720T331 732T365 737Q401 737 418 719T445 668L513 435L402 393ZM167 393L36 695Q40 699 48 706T68 720T96 732T130 737Q166 737 183 719T210 668L278 435L167 393Z"  />
<glyph unicode="&#x201D;" horiz-adv-x="573" d="M128 668Q138 701 155 719T208 737Q226 737 242 732T270 721T290 707T302 695L171 393L60 435L128 668ZM363 668Q373 701 390 719T443 737Q461 737 477 732T505 721T525 707T537 695L406 393L295 435L363 668Z"  />
<glyph unicode="&#x201E;" horiz-adv-x="573" d="M128 107Q138 140 155 158T208 176Q226 176 242 171T270 160T290 146T302 134L171 -168L60 -126L128 107ZM363 107Q373 140 390 158T443 176Q461 176 477 171T505 160T525 146T537 134L406 -168L295 -126L363 107Z"  />
<glyph unicode="&#x2020;" horiz-adv-x="539" d="M189 360H88Q43 360 24 378T5 432Q5 458 13 480T25 510H189V666Q189 705 212 721T273 737Q300 737 322 731T350 722V510H451Q496 510 515 492T534 438Q534 412 526 390T514 360H350V-200H189V360Z"  />
<glyph unicode="&#x2021;" horiz-adv-x="585" d="M212 -21H111Q66 -21 47 -3T28 51Q28 77 36 99T48 129H212V360H111Q66 360 47 378T28 432Q28 458 36 480T48 510H212V666Q212 705 235 721T296 737Q323 737 345 731T373 722V510H474Q519 510 538 492T557 438Q557 412 549 390T537 360H373V129H474Q519 129 538 111T557 57Q557 31 549 9T537 -21H373V-200H212V-21Z"  />
<glyph unicode="&#x2022;" horiz-adv-x="533" d="M123 342Q123 372 134 398T164 443T210 474T267 486Q298 486 324 475T369 444T399 398T410 342Q410 313 399 287T369 242T324 211T267 199Q236 199 210 210T165 241T134 287T123 342Z"  />
<glyph unicode="&#x2026;" horiz-adv-x="1012" d="M169 -17Q149 -17 132 -10T102 11T81 42T73 80Q73 99 80 116T101 147T132 168T169 176Q188 176 205 169T236 148T257 117T265 80Q265 60 258 43T237 12T206 -9T169 -17ZM506 -17Q486 -17 469 -10T439 11T418 42T410 80Q410 99 417 116T438 147T469 168T506 176Q525 176 542 169T573 148T594 117T602 80Q602 60 595 43T574 12T543 -9T506 -17ZM843 -17Q823 -17 806 -10T776 11T755 42T747 80Q747 99 754 116T775 147T806 168T843 176Q862 176 879 169T910 148T931 117T939 80Q939 60 932 43T911 12T880 -9T843 -17Z"  />
<glyph unicode="&#x202A;" horiz-adv-x="0" d="M-85 793H-28V771H-85V793ZM10 729L51 771H1V793H51L10 833L26 851L95 782L26 712L10 729Z"  />
<glyph unicode="&#x202B;" horiz-adv-x="0" d="M28 793H85V771H28V793ZM-26 851L-10 834L-51 793H-1V771H-50L-10 729L-26 713L-95 782L-26 851Z"  />
<glyph unicode="&#x202C;" horiz-adv-x="0" d="M-12 812L-52 772L-69 789L0 857L69 789L52 772L11 813V711H-12V812Z"  />
<glyph unicode="&#x202D;" horiz-adv-x="0" d="M-103 793H3L-37 833L-21 851L48 782L-21 712L-37 729L4 771H-103V793ZM28 729L81 782L28 833L44 851L113 782L44 712L28 729Z"  />
<glyph unicode="&#x202E;" horiz-adv-x="0" d="M-47 806L21 875L38 858L-3 817H104V794H-3L38 754L21 737L-47 806ZM-44 875L-28 858L-80 806L-28 754L-44 737L-113 806L-44 875Z"  />
<glyph unicode="&#x2030;" horiz-adv-x="1470" d="M614 686Q626 707 642 722T693 737Q710 737 724 733T750 724T768 714T777 708L366 0H216L614 686ZM222 338Q178 338 142 353T80 396T40 459T25 537Q25 579 39 615T80 679T142 721T222 737Q266 737 302 722T365 679T405 616T420 537Q420 495 406 459T365 396T303 354T222 338ZM222 456Q253 456 270 480T287 537Q287 571 270 595T222 619Q191 619 174 595T157 537Q157 504 174 480T222 456ZM778 -17Q734 -17 698 -2T636 41T596 104T581 182Q581 224 595 260T636 324T698 366T778 382Q822 382 858 367T921 324T961 261T976 182Q976 140 962 104T921 41T859 -1T778 -17ZM778 101Q809 101 826 125T843 182Q843 216 826 240T778 264Q747 264 730 240T713 182Q713 149 730 125T778 101ZM1247 -17Q1203 -17 1167 -2T1105 41T1065 104T1050 182Q1050 224 1064 260T1105 324T1167 366T1247 382Q1291 382 1327 367T1390 324T1430 261T1445 182Q1445 140 1431 104T1390 41T1328 -1T1247 -17ZM1247 101Q1278 101 1295 125T1312 182Q1312 216 1295 240T1247 264Q1216 264 1199 240T1182 182Q1182 149 1199 125T1247 101Z"  />
<glyph unicode="&#x2039;" horiz-adv-x="351" d="M230 19L58 194Q47 206 39 222T30 257Q30 275 38 291T58 319L230 495L321 411L191 257L321 103L230 19Z"  />
<glyph unicode="&#x203A;" horiz-adv-x="351" d="M160 257L30 411L121 495L293 319Q304 307 312 291T321 257Q321 239 313 223T293 194L121 19L30 103L160 257Z"  />
<glyph unicode="&#x2044;" horiz-adv-x="92" d="M160 686Q172 707 188 722T239 737Q256 737 270 733T296 724T314 714T323 708L-88 0H-238L160 686Z"  />
<glyph unicode="&#x2070;" horiz-adv-x="497" d="M248 276Q141 276 87 336T33 506Q33 615 87 676T248 737Q356 737 410 676T465 506Q465 397 411 337T248 276ZM248 389Q285 389 299 420T313 506Q313 560 299 592T248 624Q211 624 198 592T185 506Q185 452 198 421T248 389Z"  />
<glyph unicode="&#x2074;" horiz-adv-x="497" d="M265 367H132Q83 367 57 384T30 447Q30 488 53 530T107 608Q129 633 156 656T211 698T268 726T320 737Q350 737 369 732T398 722V470H407Q433 470 443 456T453 426Q453 408 449 393T440 367H398V287H265V367ZM265 472V600Q246 589 227 573T198 544Q184 527 177 513T169 487Q169 478 174 475T190 472H265Z"  />
<glyph unicode="&#x2075;" horiz-adv-x="497" d="M76 414Q84 411 120 401T218 390Q259 390 272 400T285 426Q285 434 283 442T272 456T247 466T205 470Q190 470 170 468T129 464T92 458T67 453L77 659Q80 726 155 726H343Q385 726 401 715T418 672Q418 653 409 638T393 615H196L195 561Q200 563 217 565T248 567Q350 567 393 529T437 431Q437 359 383 318T223 276Q181 276 147 281T89 294T51 308T34 317L76 414Z"  />
<glyph unicode="&#x2076;" horiz-adv-x="497" d="M210 700Q220 711 238 724T288 737Q305 737 319 733T344 721T363 707T375 694L261 573Q264 575 274 578T307 582Q334 582 360 574T408 549T442 507T455 448Q455 408 440 377T398 323T333 288T249 276Q204 276 167 288T103 321T61 374T46 444Q46 490 68 531T123 607L210 700ZM184 444Q184 418 202 401T249 384Q280 384 297 401T315 444Q315 469 298 485T249 502Q220 502 202 486T184 444Z"  />
<glyph unicode="&#x2077;" horiz-adv-x="497" d="M272 608H121Q81 608 66 623T50 668Q50 685 58 702T72 726H342Q429 726 429 660Q429 646 423 631T409 600L248 287H101L272 608Z"  />
<glyph unicode="&#x2078;" horiz-adv-x="497" d="M189 595Q189 580 202 568T248 556Q281 556 294 568T308 595Q308 610 295 622T248 634Q216 634 203 622T189 595ZM183 425Q183 409 197 397T248 384Q286 384 300 396T314 425Q314 439 300 451T248 463Q211 463 197 451T183 425ZM98 511Q65 529 54 552T42 600Q42 665 96 701T248 737Q345 737 400 701T455 600Q455 575 443 552T399 511Q434 493 449 468T464 415Q464 351 410 314T248 276Q141 276 87 313T33 415Q33 443 48 468T98 511Z"  />
<glyph unicode="&#x2079;" horiz-adv-x="497" d="M235 439Q233 437 222 434T190 431Q163 431 137 439T89 464T55 506T42 565Q42 605 57 636T99 690T164 725T248 737Q293 737 330 725T394 692T436 639T451 569Q451 523 429 482T374 406L258 282H87L235 439ZM182 569Q182 544 199 528T248 511Q277 511 295 527T313 569Q313 595 295 612T248 629Q217 629 200 612T182 569Z"  />
<glyph unicode="&#x2080;" horiz-adv-x="497" d="M248 -9Q141 -9 87 51T33 221Q33 330 87 391T248 452Q356 452 410 391T465 221Q465 112 411 52T248 -9ZM248 104Q285 104 299 135T313 221Q313 275 299 307T248 339Q211 339 198 307T185 221Q185 167 198 136T248 104Z"  />
<glyph unicode="&#x2081;" horiz-adv-x="497" d="M197 289L127 243Q124 244 114 248T93 261T72 282T63 312Q63 332 74 347T111 379L177 421Q203 437 220 444T263 452Q291 452 311 443T340 428V2H197V289Z"  />
<glyph unicode="&#x2082;" horiz-adv-x="497" d="M48 102Q52 104 70 115T113 141T164 173T210 205Q233 222 253 245T273 291Q273 310 261 323T218 337Q199 337 182 329T153 311T132 290T122 275Q117 276 105 279T81 291T60 311T51 344Q51 366 65 386T104 420T159 443T226 452Q277 452 314 441T375 408T412 359T424 298Q424 262 406 233T363 182T313 144T274 121H427V2H48V102Z"  />
<glyph unicode="&#x2083;" horiz-adv-x="497" d="M71 136Q73 135 84 130T115 119T161 109T217 104Q252 104 267 113T282 139Q282 152 270 163T217 175H170Q168 176 159 188T149 226Q149 250 162 261T209 272H216Q251 272 263 281T276 307Q276 319 264 330T211 342Q185 342 166 336T134 323T113 309T104 300Q98 301 89 305T70 317T53 334T46 359Q46 373 51 385T66 406Q71 412 82 419T113 434T160 447T226 452Q281 452 319 440T382 409T416 367T427 323Q427 289 410 265T360 227Q434 199 434 125Q434 98 422 74T385 31T323 2T236 -9Q191 -9 155 -3T92 10T50 23T31 32L71 136Z"  />
<glyph unicode="&#x2084;" horiz-adv-x="497" d="M265 82H132Q83 82 57 99T30 162Q30 203 53 245T107 323Q129 348 156 371T211 413T268 441T320 452Q350 452 369 447T398 437V185H407Q433 185 443 171T453 141Q453 123 449 108T440 82H398V2H265V82ZM265 187V315Q246 304 227 288T198 259Q184 242 177 228T169 202Q169 193 174 190T190 187H265Z"  />
<glyph unicode="&#x2085;" horiz-adv-x="497" d="M76 129Q84 126 120 116T218 105Q259 105 272 115T285 141Q285 149 283 157T272 171T247 181T205 185Q190 185 170 183T129 179T92 173T67 168L77 374Q80 441 155 441H343Q385 441 401 430T418 387Q418 368 409 353T393 330H196L195 276Q200 278 217 280T248 282Q350 282 393 244T437 146Q437 74 383 33T223 -9Q181 -9 147 -4T89 9T51 23T34 32L76 129Z"  />
<glyph unicode="&#x2086;" horiz-adv-x="497" d="M210 415Q220 426 238 439T288 452Q305 452 319 448T344 436T363 422T375 409L261 288Q264 290 274 293T307 297Q334 297 360 289T408 264T442 222T455 163Q455 123 440 92T398 38T333 3T249 -9Q204 -9 167 3T103 36T61 89T46 159Q46 205 68 246T123 322L210 415ZM184 159Q184 133 202 116T249 99Q280 99 297 116T315 159Q315 184 298 200T249 217Q220 217 202 201T184 159Z"  />
<glyph unicode="&#x2087;" horiz-adv-x="497" d="M272 323H121Q81 323 66 338T50 383Q50 400 58 417T72 441H342Q429 441 429 375Q429 361 423 346T409 315L248 2H101L272 323Z"  />
<glyph unicode="&#x2088;" horiz-adv-x="497" d="M189 310Q189 295 202 283T248 271Q281 271 294 283T308 310Q308 325 295 337T248 349Q216 349 203 337T189 310ZM183 140Q183 124 197 112T248 99Q286 99 300 111T314 140Q314 154 300 166T248 178Q211 178 197 166T183 140ZM98 226Q65 244 54 267T42 315Q42 380 96 416T248 452Q345 452 400 416T455 315Q455 290 443 267T399 226Q434 208 449 183T464 130Q464 66 410 29T248 -9Q141 -9 87 28T33 130Q33 158 48 183T98 226Z"  />
<glyph unicode="&#x2089;" horiz-adv-x="497" d="M235 154Q233 152 222 149T190 146Q163 146 137 154T89 179T55 221T42 280Q42 320 57 351T99 405T164 440T248 452Q293 452 330 440T394 407T436 354T451 284Q451 238 429 197T374 121L258 -3H87L235 154ZM182 284Q182 259 199 243T248 226Q277 226 295 242T313 284Q313 310 295 327T248 344Q217 344 200 327T182 284Z"  />
<glyph unicode="&#x20AC;" horiz-adv-x="641" d="M31 298H96Q95 306 95 315T95 334Q95 342 95 350T96 366H31V455H107Q134 576 213 640T418 704Q481 704 516 694T573 671Q596 657 607 640T619 602Q619 584 612 568T594 539T574 517T557 503Q552 508 542 516T515 533T476 546T424 552Q371 552 335 530T280 455H465Q492 455 502 443T513 412Q513 396 509 383T503 366H265Q264 358 264 350T264 334Q264 324 264 315T265 298H440Q467 298 477 286T488 255Q488 239 484 226T478 209H288Q308 171 343 153T430 135Q459 135 483 140T526 152T556 165T572 175L636 51Q631 48 615 37T570 13T502 -8T411 -18Q363 -18 316 -6T229 33T157 103T110 209H31V298Z"  />
<glyph unicode="&#x2113;" horiz-adv-x="570" d="M25 195Q48 213 70 229T114 263V498Q114 567 129 617T170 701T233 749T313 765Q354 765 384 751T434 711T463 653T473 582Q473 493 416 410T259 239V203Q259 158 286 134T349 110Q370 110 390 117T427 138T460 167T488 201L549 138Q503 56 441 24T313 -9Q267 -9 233 3T175 36T137 85T117 147Q116 150 116 156Q103 147 90 138T63 118L25 195ZM259 369Q310 424 342 481T374 586Q374 622 362 642T321 663Q310 663 299 656T279 632T265 586T259 514V369Z"  />
<glyph unicode="&#x2122;" horiz-adv-x="996" d="M157 581H67Q36 581 23 594T10 631Q10 651 15 666T24 686H367Q398 686 411 673T424 636Q424 616 419 601T410 581H277V268H157V581ZM482 628Q484 664 504 675T549 686Q576 686 595 679T621 666Q629 649 639 626T660 578T682 528T705 481Q725 520 743 562T778 640Q789 666 808 676T852 686Q878 686 897 679T923 667L946 268H825L814 488Q794 449 777 407T748 337H660Q646 369 630 409T594 488Q591 434 588 377T583 268H462L482 628Z"  />
<glyph unicode="&#x2126;" horiz-adv-x="840" d="M50 138H167Q126 176 98 234T70 373Q70 440 90 500T152 606T260 677T420 704Q513 704 579 678T688 606T750 501T770 373Q770 292 742 234T673 138H790V0H470V137Q531 168 563 221T595 355Q595 396 586 432T555 496T501 540T420 556Q373 556 340 540T285 497T255 433T245 355Q245 274 277 221T370 137V0H50V138Z"  />
<glyph unicode="&#x212E;" horiz-adv-x="870" d="M181 138Q181 125 190 116Q238 65 300 37T435 9Q514 9 580 41T694 128H751Q725 96 691 71T615 27T528 -1T434 -11Q351 -11 278 17T151 94T66 208T34 349Q34 424 65 489T151 604T278 681T434 710Q517 710 590 682T718 604T804 490T836 349V339H186Q181 339 181 335V138ZM684 358Q688 358 688 365V562Q688 575 679 586Q631 634 569 661T435 688Q364 688 301 659T191 582Q186 578 184 572T181 558V365Q181 358 186 358H684Z"  />
<glyph unicode="&#x2153;" horiz-adv-x="1060" d="M161 574L91 528Q88 529 78 533T57 546T36 567T27 597Q27 617 38 632T75 664L141 706Q167 722 184 729T227 737Q255 737 275 728T304 713V287H161V574ZM589 686Q601 707 617 722T668 737Q685 737 699 733T725 724T743 714T752 708L341 0H191L589 686ZM642 136Q644 135 655 130T686 119T732 109T788 104Q823 104 838 113T853 139Q853 152 841 163T788 175H741Q739 176 730 188T720 226Q720 250 733 261T780 272H787Q822 272 834 281T847 307Q847 319 835 330T782 342Q756 342 737 336T705 323T684 309T675 300Q669 301 660 305T641 317T624 334T617 359Q617 373 622 385T637 406Q642 412 653 419T684 434T731 447T797 452Q852 452 890 440T953 409T987 367T998 323Q998 289 981 265T931 227Q1005 199 1005 125Q1005 98 993 74T956 31T894 2T807 -9Q762 -9 726 -3T663 10T621 23T602 32L642 136Z"  />
<glyph unicode="&#x2154;" horiz-adv-x="1141" d="M32 387Q36 389 54 400T97 426T148 458T194 490Q217 507 237 530T257 576Q257 595 245 608T202 622Q183 622 166 614T137 596T116 575T106 560Q101 561 89 564T65 576T44 596T35 629Q35 651 49 671T88 705T143 728T210 737Q261 737 298 726T359 693T396 644T408 583Q408 547 390 518T347 467T297 429T258 406H411V287H32V387ZM675 686Q687 707 703 722T754 737Q771 737 785 733T811 724T829 714T838 708L427 0H277L675 686ZM723 136Q725 135 736 130T767 119T813 109T869 104Q904 104 919 113T934 139Q934 152 922 163T869 175H822Q820 176 811 188T801 226Q801 250 814 261T861 272H868Q903 272 915 281T928 307Q928 319 916 330T863 342Q837 342 818 336T786 323T765 309T756 300Q750 301 741 305T722 317T705 334T698 359Q698 373 703 385T718 406Q723 412 734 419T765 434T812 447T878 452Q933 452 971 440T1034 409T1068 367T1079 323Q1079 289 1062 265T1012 227Q1086 199 1086 125Q1086 98 1074 74T1037 31T975 2T888 -9Q843 -9 807 -3T744 10T702 23T683 32L723 136Z"  />
<glyph unicode="&#x2155;" horiz-adv-x="1032" d="M161 574L91 528Q88 529 78 533T57 546T36 567T27 597Q27 617 38 632T75 664L141 706Q167 722 184 729T227 737Q255 737 275 728T304 713V287H161V574ZM589 686Q601 707 617 722T668 737Q685 737 699 733T725 724T743 714T752 708L341 0H191L589 686ZM621 129Q629 126 665 116T763 105Q804 105 817 115T830 141Q830 149 828 157T817 171T792 181T750 185Q735 185 715 183T674 179T637 173T612 168L622 374Q625 441 700 441H888Q930 441 946 430T963 387Q963 368 954 353T938 330H741L740 276Q745 278 762 280T793 282Q895 282 938 244T982 146Q982 74 928 33T768 -9Q726 -9 692 -4T634 9T596 23T579 32L621 129Z"  />
<glyph unicode="&#x2156;" horiz-adv-x="1117" d="M32 387Q36 389 54 400T97 426T148 458T194 490Q217 507 237 530T257 576Q257 595 245 608T202 622Q183 622 166 614T137 596T116 575T106 560Q101 561 89 564T65 576T44 596T35 629Q35 651 49 671T88 705T143 728T210 737Q261 737 298 726T359 693T396 644T408 583Q408 547 390 518T347 467T297 429T258 406H411V287H32V387ZM677 686Q689 707 705 722T756 737Q773 737 787 733T813 724T831 714T840 708L429 0H279L677 686ZM706 129Q714 126 750 116T848 105Q889 105 902 115T915 141Q915 149 913 157T902 171T877 181T835 185Q820 185 800 183T759 179T722 173T697 168L707 374Q710 441 785 441H973Q1015 441 1031 430T1048 387Q1048 368 1039 353T1023 330H826L825 276Q830 278 847 280T878 282Q980 282 1023 244T1067 146Q1067 74 1013 33T853 -9Q811 -9 777 -4T719 9T681 23T664 32L706 129Z"  />
<glyph unicode="&#x2157;" horiz-adv-x="1111" d="M67 421Q69 420 80 415T111 404T157 394T213 389Q248 389 263 398T278 424Q278 437 266 448T213 460H166Q164 461 155 473T145 511Q145 535 158 546T205 557H212Q247 557 259 566T272 592Q272 604 260 615T207 627Q181 627 162 621T130 608T109 594T100 585Q94 586 85 590T66 602T49 619T42 644Q42 658 47 670T62 691Q67 697 78 704T109 719T156 732T222 737Q277 737 315 725T378 694T412 652T423 608Q423 574 406 550T356 512Q430 484 430 410Q430 383 418 359T381 316T319 287T232 276Q187 276 151 282T88 295T46 308T27 317L67 421ZM666 686Q678 707 694 722T745 737Q762 737 776 733T802 724T820 714T829 708L418 0H268L666 686ZM700 129Q708 126 744 116T842 105Q883 105 896 115T909 141Q909 149 907 157T896 171T871 181T829 185Q814 185 794 183T753 179T716 173T691 168L701 374Q704 441 779 441H967Q1009 441 1025 430T1042 387Q1042 368 1033 353T1017 330H820L819 276Q824 278 841 280T872 282Q974 282 1017 244T1061 146Q1061 74 1007 33T847 -9Q805 -9 771 -4T713 9T675 23T658 32L700 129Z"  />
<glyph unicode="&#x2158;" horiz-adv-x="1106" d="M251 367H118Q69 367 43 384T16 447Q16 488 39 530T93 608Q115 633 142 656T197 698T254 726T306 737Q336 737 355 732T384 722V470H393Q419 470 429 456T439 426Q439 408 435 393T426 367H384V287H251V367ZM251 472V600Q232 589 213 573T184 544Q170 527 163 513T155 487Q155 478 160 475T176 472H251ZM665 686Q677 707 693 722T744 737Q761 737 775 733T801 724T819 714T828 708L417 0H267L665 686ZM695 129Q703 126 739 116T837 105Q878 105 891 115T904 141Q904 149 902 157T891 171T866 181T824 185Q809 185 789 183T748 179T711 173T686 168L696 374Q699 441 774 441H962Q1004 441 1020 430T1037 387Q1037 368 1028 353T1012 330H815L814 276Q819 278 836 280T867 282Q969 282 1012 244T1056 146Q1056 74 1002 33T842 -9Q800 -9 766 -4T708 9T670 23T653 32L695 129Z"  />
<glyph unicode="&#x2159;" horiz-adv-x="986" d="M161 574L91 528Q88 529 78 533T57 546T36 567T27 597Q27 617 38 632T75 664L141 706Q167 722 184 729T227 737Q255 737 275 728T304 713V287H161V574ZM589 686Q601 707 617 722T668 737Q685 737 699 733T725 724T743 714T752 708L341 0H191L589 686ZM706 415Q716 426 734 439T784 452Q801 452 815 448T840 436T859 422T871 409L757 288Q760 290 770 293T803 297Q830 297 856 289T904 264T938 222T951 163Q951 123 936 92T894 38T829 3T745 -9Q700 -9 663 3T599 36T557 89T542 159Q542 205 564 246T619 322L706 415ZM680 159Q680 133 698 116T745 99Q776 99 793 116T811 159Q811 184 794 200T745 217Q716 217 698 201T680 159Z"  />
</font>
</defs>
</svg>
