<?xml  version="1.0" encoding="UTF-8"?>
<!DOCTYPE svg PUBLIC "-//W3C//DTD SVG 1.0//EN" "http://www.w3.org/TR/2001/REC-SVG-20010904/DTD/svg10.dtd" >
<svg xmlns="http://www.w3.org/2000/svg" >
<metadata>
<version>1.0</version>
<id><![CDATA[FBChamBlue]]></id>
<vendor>Monotype Imaging Inc.</vendor>
<credits>
<name>Fonts.com WebFonts</name>
<URL>http://webfonts.fonts.com</URL>
<role>Home of the Web fonts</role>
</credits>
<license>
<URL>http://webfonts.fonts.com/Legal</URL>
</license>
<copyright><![CDATA[Copyright(c) 2008 Fontbank(NSG) Inc. All rights reserved.]]></copyright>
<trademark><![CDATA[FBChamBlue is a registered trademark of 2008 Fontbank(NSG) Inc.]]></trademark>
<licensee>
<name></name>
</licensee>
</metadata>
<defs >
<font horiz-adv-x="1024" id="12333ad5-3ac0-4a7d-b109-6d8c8101515a">
<font-face font-family="" panose-1="2 2 6 3 2 1 1 2 1 1" ascent="1758" descent="-290" units-per-em="2048" alphabetic="0">
</font-face>
<missing-glyph horiz-adv-x="2048" d="M205 -85V1553H1843V-85H205ZM307 17H1741V1451H307V17Z"  />

<glyph unicode="&#xA;" />
<glyph unicode="&#xD;" />
<glyph unicode=" " horiz-adv-x="680" />
<glyph unicode="!" horiz-adv-x="872" d="M652 1590H220V966L292 342H580L652 966V1590ZM652 282H220V-58H652V282Z"  />
<glyph unicode="&quot;" horiz-adv-x="868" d="M352 1598H84V926H352V1598ZM796 1598H528V926H796V1598Z"  />
<glyph unicode="#" horiz-adv-x="1820" d="M840 650L912 862H984L912 650H840ZM228 862H540L472 650H180L96 398H392L236 -78H612L764 398H832L676 -78H1052L1208 398H1508L1588 650H1284L1348 862H1644L1720 1114H1428L1584 1594H1212L1060 1114H992L1148 1594H776L620 1114H308L228 862Z"  />
<glyph unicode="$" horiz-adv-x="1448" d="M184 350Q247 269 346 211T572 126V-78H860L864 130Q952 148 1023 187T1146 281Q1197 335 1224 401T1252 538Q1252 673 1155 764T860 898V1050Q887 1032 924 1001T1012 922L1216 1170Q1150 1242 1058 1293T864 1362L860 1522H572V1354Q489 1331 423 1292T311 1202Q265 1151 241 1094T216 978Q216 858 304 769T572 634V462Q561 472 548 485T517 514Q500 530 480 550T436 594L184 350ZM860 578Q872 578 892 556T912 498Q912 474 906 459T892 434Q883 425 875 422T860 418V578ZM572 946Q560 946 542 962T524 1014Q521 1053 540 1073T572 1094V946Z"  />
<glyph unicode="%" horiz-adv-x="1680" d="M1168 314Q1168 401 1182 433T1208 466Q1214 466 1221 459T1234 435Q1240 417 1244 388T1248 314Q1248 266 1244 234T1234 184Q1228 165 1221 158T1208 150Q1203 150 1196 157T1183 184Q1177 202 1173 234T1168 314ZM1032 1562L844 1154Q844 1157 844 1162T844 1170Q844 1248 818 1319T742 1444Q693 1498 623 1530T464 1562Q377 1562 306 1530T185 1444Q134 1390 107 1319T80 1170Q80 1092 107 1022T185 898Q235 844 306 813T464 782Q539 782 601 805T712 870L272 -82H644L832 330Q832 324 832 321T832 314Q832 234 858 162T934 36Q983 -18 1052 -50T1208 -82Q1296 -82 1366 -50T1486 36Q1535 90 1561 162T1588 314Q1588 390 1562 460T1486 584Q1437 638 1367 670T1208 702Q1136 702 1074 677T964 610L1404 1562H1032ZM424 1174Q424 1220 428 1251T439 1300Q445 1318 452 1326T464 1334Q468 1334 475 1326T488 1300Q494 1282 499 1251T504 1174Q504 1129 499 1099T488 1051Q482 1033 475 1026T464 1018Q459 1018 452 1024T439 1049Q433 1067 429 1097T424 1174Z"  />
<glyph unicode="&amp;" horiz-adv-x="1504" d="M716 1126Q716 1198 727 1224T748 1250Q757 1250 768 1229T780 1142Q780 1106 767 1077T732 1026Q723 1050 720 1076T716 1126ZM628 202Q602 202 576 217T528 261Q507 290 494 331T480 426Q480 477 494 515T536 586Q578 505 626 431T740 270Q701 225 677 214T628 202ZM1420 226Q1361 226 1325 226T1265 231Q1241 234 1227 242T1200 266Q1239 320 1266 372T1314 481Q1334 537 1347 598T1372 730H968Q966 715 964 701T960 673Q957 659 955 647T952 622Q931 658 910 694T868 770Q1015 845 1083 942T1152 1142Q1152 1214 1120 1281T1032 1401Q975 1453 899 1484T732 1514Q643 1514 567 1481T435 1394Q378 1340 346 1272T312 1134Q312 1080 331 1018T396 866Q231 770 156 656T80 410Q80 309 121 219T235 61Q307 -7 405 -46T616 -86Q703 -86 793 -61T952 10Q1000 -23 1063 -44T1192 -66H1420V226Z"  />
<glyph unicode="&apos;" horiz-adv-x="552" d="M452 1598H104V926H452V1598Z"  />
<glyph unicode="(" horiz-adv-x="912" d="M700 1790Q541 1653 431 1524T253 1266Q184 1137 154 1005T124 730Q124 587 155 456T255 195Q324 66 434 -63T704 -330L860 -154Q785 -66 731 30T641 235Q605 343 589 466T572 730Q572 869 588 991T640 1221Q675 1329 730 1426T864 1614L700 1790Z"  />
<glyph unicode=")" horiz-adv-x="912" d="M208 -326Q367 -188 477 -59T657 199Q726 328 757 459T788 734Q788 876 758 1008T659 1270Q590 1399 481 1528T212 1794L48 1618Q124 1528 179 1431T270 1225Q306 1117 323 995T340 734Q340 593 323 470T271 239Q235 131 181 35T52 -150L208 -326Z"  />
<glyph unicode="*" horiz-adv-x="1252" d="M848 1082L1116 1174L1044 1418L800 1330V1598H456V1330L208 1418L136 1174L404 1082L240 846L476 646L628 858L780 646L1012 846L848 1082Z"  />
<glyph unicode="+" horiz-adv-x="1952" d="M292 606H800V30H1152V606H1660V858H1152V1430H800V858H292V606Z"  />
<glyph unicode="&#x2c;" horiz-adv-x="828" d="M76 -234H400L668 350H252L76 -234Z"  />
<glyph unicode="-" horiz-adv-x="1952" d="M1468 610V862H484V610H1468Z"  />
<glyph unicode="." horiz-adv-x="828" d="M636 322H196V-22H636V322Z"  />
<glyph unicode="/" horiz-adv-x="928" d="M-4 -194H356L940 1690H580L-4 -194Z"  />
<glyph unicode="0" horiz-adv-x="1460" d="M524 746Q524 882 539 981T582 1144Q609 1208 646 1239T728 1270Q773 1270 810 1240T875 1147Q902 1084 917 987T932 754Q932 611 917 509T874 341Q847 275 809 245T724 214Q680 214 644 244T580 340Q553 405 539 505T524 746ZM100 754Q100 565 140 411T259 147Q338 37 455 -22T728 -82Q882 -82 999 -23T1196 147Q1275 256 1315 410T1356 754Q1356 932 1314 1081T1190 1338Q1109 1446 992 1506T724 1566Q574 1566 458 1506T262 1338Q182 1230 141 1081T100 754Z"  />
<glyph unicode="1" horiz-adv-x="828" d="M304 982V-54H724V1538H348Q331 1455 320 1407T290 1333Q272 1308 241 1301T152 1294L100 1006H308Q308 1004 307 1002T306 997Q305 994 305 990T304 982Z"  />
<glyph unicode="2" horiz-adv-x="1372" d="M496 902Q490 986 505 1051T547 1162Q574 1207 609 1230T680 1254Q731 1254 771 1201T812 1042Q812 908 754 800T597 593Q498 494 370 398T100 190V-54H1268V242H664Q790 336 897 424T1082 605Q1160 698 1204 802T1248 1034Q1249 1143 1206 1238T1085 1405Q1007 1476 902 1517T676 1558Q545 1559 440 1513T261 1383Q187 1299 148 1185T108 938L496 902Z"  />
<glyph unicode="3" horiz-adv-x="1404" d="M504 1002Q511 1089 532 1144T582 1231Q611 1262 645 1274T712 1286Q769 1286 808 1242T848 1102Q848 1049 838 1015T803 959Q779 938 740 930T644 922H504V658H644Q704 658 746 647T816 611Q843 585 855 543T868 438Q868 318 820 256T700 194Q661 194 623 207T554 256Q524 291 508 350T496 502L100 442Q110 320 155 223T276 56Q351 -13 456 -49T692 -86Q831 -86 943 -47T1135 62Q1214 130 1257 221T1300 414Q1300 519 1244 614T1056 794Q1173 863 1220 945T1268 1114Q1268 1219 1219 1302T1089 1445Q1009 1503 908 1534T704 1566Q587 1566 491 1532T323 1434Q251 1371 205 1283T140 1086L504 1002Z"  />
<glyph unicode="4" horiz-adv-x="1416" d="M1124 -54V322H1312V606H1124V1538H732L100 578V322H712V-54H1124ZM508 602L708 910V602H508Z"  />
<glyph unicode="5" horiz-adv-x="1432" d="M532 650Q550 701 569 734T609 787Q630 806 654 814T708 822Q747 822 782 803T845 745Q872 706 888 650T904 518Q904 441 889 384T846 287Q819 248 784 229T708 210Q664 210 631 218T574 253Q551 280 540 329T528 462L100 430Q115 314 164 220T292 58Q370 -9 473 -45T700 -82Q844 -82 959 -36T1156 91Q1237 172 1281 283T1328 526Q1328 647 1285 753T1163 939Q1085 1018 977 1064T740 1110Q710 1110 676 1107T608 1094L636 1246H1232L1280 1538H296L140 674L532 650Z"  />
<glyph unicode="6" horiz-adv-x="1392" d="M544 470Q544 542 557 595T593 684Q615 719 645 736T708 754Q780 754 826 691T872 490Q872 346 823 278T704 210Q672 210 643 225T592 274Q570 306 557 355T544 470ZM1272 1134Q1255 1227 1209 1306T1092 1443Q1022 1500 932 1533T736 1566Q583 1566 465 1504T265 1330Q184 1218 142 1063T100 722Q100 540 139 392T256 138Q333 33 447 -24T712 -82Q836 -82 941 -36T1124 89Q1201 167 1244 270T1288 486Q1288 591 1246 691T1128 869Q1053 947 951 994T728 1042Q680 1042 629 1031T532 1002Q559 1149 613 1213T736 1278Q758 1278 777 1270T814 1238Q832 1214 849 1173T884 1066L1272 1134Z"  />
<glyph unicode="7" horiz-adv-x="1320" d="M712 -54Q760 351 889 691T1216 1298V1538H152L100 1242H756Q649 1072 566 910T421 588Q358 428 316 269T248 -54H712Z"  />
<glyph unicode="8" horiz-adv-x="1412" d="M524 422Q524 542 575 592T716 642Q791 642 839 590T888 426Q888 312 838 261T704 210Q626 210 575 262T524 422ZM712 1286Q775 1286 815 1244T856 1114Q856 1015 812 969T704 922Q635 922 592 964T548 1102Q548 1198 594 1242T712 1286ZM100 426Q100 319 143 226T267 63Q347 -6 461 -46T716 -86Q836 -86 943 -50T1132 54Q1213 121 1260 217T1308 434Q1308 527 1255 619T1088 786Q1187 864 1225 938T1264 1102Q1264 1198 1225 1281T1114 1428Q1042 1490 940 1526T712 1562Q583 1562 479 1526T300 1428Q226 1366 186 1283T144 1106Q144 1025 186 943T328 786Q208 714 154 618T100 426Z"  />
<glyph unicode="9" horiz-adv-x="1392" d="M112 358Q128 262 174 181T292 42Q362 -17 453 -49T652 -82Q803 -82 921 -20T1121 154Q1202 265 1245 420T1288 762Q1288 945 1249 1093T1131 1347Q1053 1452 938 1509T672 1566Q549 1566 444 1520T263 1396Q186 1318 143 1216T100 1002Q100 894 141 794T258 617Q333 540 435 494T660 446Q708 446 758 457T856 486Q842 408 822 355T775 270Q748 237 717 224T652 210Q622 210 601 215T563 241Q546 262 533 302T504 414L112 358ZM840 1018Q840 946 827 893T791 806Q768 771 739 755T676 738Q607 738 562 801T516 1002Q516 1140 563 1209T680 1278Q711 1278 740 1262T791 1212Q813 1179 826 1131T840 1018Z"  />
<glyph unicode=":" horiz-adv-x="872" d="M656 1306H220V970H656V1306ZM656 490H220V150H656V490Z"  />
<glyph unicode=";" horiz-adv-x="872" d="M252 530L64 -118H388L668 530H252ZM656 1286H216V954H656V1286Z"  />
<glyph unicode="&lt;" horiz-adv-x="1952" d="M1652 34V330L736 738L1652 1146V1446L300 834V642L1652 34Z"  />
<glyph unicode="=" horiz-adv-x="1952" d="M1660 642H292V398H1660V642ZM1660 1098H292V850H1660V1098Z"  />
<glyph unicode="&gt;" horiz-adv-x="1952" d="M300 322V26L1652 634V826L300 1438V1138L1216 730L300 322Z"  />
<glyph unicode="?" horiz-adv-x="1340" d="M880 282H444V-58H880V282ZM856 518Q856 572 870 599T920 654Q1070 762 1137 876T1204 1098Q1204 1201 1163 1293T1048 1455Q974 1524 871 1565T644 1606Q528 1606 432 1568T263 1460Q190 1391 142 1294T72 1078L464 990Q467 1093 480 1153T516 1244Q538 1274 569 1283T640 1294Q697 1294 730 1249T764 1098Q764 1029 733 973T648 878Q597 843 562 812T505 745Q483 709 474 663T464 550V370H856V518Z"  />
<glyph unicode="@" horiz-adv-x="2300" d="M1508 182Q1559 182 1612 192T1715 221Q1765 239 1808 263T1884 314Q2025 434 2092 594T2160 926Q2160 1100 2091 1250T1868 1530Q1817 1575 1747 1611T1595 1675Q1513 1701 1424 1715T1244 1730Q1104 1730 976 1701T735 1618Q622 1564 528 1488T364 1318Q247 1162 194 1000T140 658Q140 445 221 269T476 -54Q536 -105 612 -145T776 -213Q864 -241 962 -255T1164 -270Q1368 -270 1563 -199T1920 10L1796 206Q1694 129 1609 78T1449 -3Q1373 -33 1302 -45T1156 -58Q1013 -58 891 -15T679 117Q589 205 539 340T488 658Q488 842 541 999T692 1270Q790 1384 928 1449T1236 1514Q1353 1512 1458 1477T1643 1369Q1722 1297 1769 1186T1816 922Q1816 860 1806 801T1779 689Q1761 635 1738 590T1688 510Q1598 399 1571 396T1552 510L1704 1186H1384L1372 1162Q1327 1189 1272 1205T1156 1222Q1022 1222 918 1163T741 1012Q669 919 632 807T596 586Q596 497 622 424T700 297Q751 244 825 215T996 186Q1071 186 1137 206T1260 266Q1299 227 1361 205T1508 182ZM1216 622Q1186 493 1141 440T1044 386Q1023 386 1007 394T981 423Q970 444 965 480T960 574Q961 650 977 730T1021 876Q1049 941 1088 982T1176 1022Q1212 1022 1238 989T1264 862L1216 622Z"  />
<glyph unicode="A" horiz-adv-x="1480" d="M40 -58H468L536 194H936L1008 -58H1444L964 1590H508L40 -58ZM856 502H616L736 982L856 502Z"  />
<glyph unicode="B" horiz-adv-x="1552" d="M884 666Q953 666 990 621T1028 458Q1028 347 989 301T884 254H616V666H884ZM832 1286Q868 1286 892 1280T932 1255Q947 1237 953 1206T960 1126Q960 1036 929 999T844 962H616V1286H832ZM892 -58Q1028 -58 1135 -20T1318 87Q1393 156 1432 250T1472 458Q1472 572 1409 675T1204 850Q1312 916 1354 994T1396 1154Q1396 1248 1357 1328T1246 1466Q1173 1524 1069 1557T832 1590H188L100 1286H188V146Q188 44 219 -7T344 -58H892Z"  />
<glyph unicode="C" horiz-adv-x="1584" d="M1088 594Q1062 489 1033 419T971 307Q938 265 903 248T828 230Q768 230 716 264T624 367Q585 435 563 537T540 774Q540 877 558 973T612 1145Q648 1220 700 1265T820 1310Q859 1310 894 1294T961 1238Q992 1199 1020 1136T1072 978L1476 1098Q1449 1219 1391 1316T1248 1481Q1164 1549 1056 1585T820 1622Q640 1622 505 1550T280 1359Q190 1240 145 1087T100 770Q100 602 142 446T272 170Q360 50 496 -22T820 -94Q941 -94 1045 -60T1234 41Q1318 107 1380 201T1480 414L1088 594Z"  />
<glyph unicode="D" horiz-adv-x="1576" d="M724 1278Q803 1278 863 1249T965 1157Q1006 1094 1027 996T1048 758Q1048 624 1028 529T967 374Q927 314 867 286T728 258H604V1278H724ZM728 -58Q911 -58 1052 0T1289 166Q1385 273 1434 424T1484 762Q1484 948 1435 1100T1291 1362Q1197 1470 1060 1530T748 1590H180L100 1278H180V122Q180 77 182 43T198 -13Q212 -36 242 -47T328 -58H728Z"  />
<glyph unicode="E" horiz-adv-x="1408" d="M596 254V646H1248V954H596V1282H1304V1590H172L100 1274H172V166Q172 110 177 68T203 -2Q224 -30 264 -44T376 -58H1332V254H596Z"  />
<glyph unicode="F" horiz-adv-x="1360" d="M1236 646V958H620V1278H1284V1590H192L100 1266H192V-58H620V646H1236Z"  />
<glyph unicode="G" horiz-adv-x="1624" d="M860 226Q789 226 730 259T629 361Q587 429 564 531T540 770Q540 878 560 975T621 1148Q660 1222 718 1266T852 1310Q895 1310 932 1294T1005 1239Q1040 1199 1074 1131T1144 958L1516 1134Q1480 1248 1417 1339T1269 1494Q1184 1557 1079 1591T852 1626Q664 1626 523 1554T288 1361Q194 1240 147 1083T100 754Q100 590 146 437T285 166Q377 48 515 -23T836 -94Q911 -94 981 -80T1112 -38V-58H1520V862H860L780 546H1108Q1102 384 1035 305T860 226Z"  />
<glyph unicode="H" horiz-adv-x="1496" d="M964 646V-58H1392V1590H964V958H528V1590H100V-58H528V646H964Z"  />
<glyph unicode="I" horiz-adv-x="636" d="M100 1590V-58H532V1590H100Z"  />
<glyph unicode="J" horiz-adv-x="992" d="M380 510Q380 421 375 370T356 293Q342 267 317 261T252 254Q237 254 220 255T177 259Q151 262 115 267T24 282V-30Q120 -54 183 -60T292 -66Q550 -66 681 62T812 422V1590H380V510Z"  />
<glyph unicode="K" horiz-adv-x="1532" d="M668 598L1004 -58H1460L944 946L1420 1590H940L556 1042V1590H132V-58H556V442L668 598Z"  />
<glyph unicode="L" horiz-adv-x="1208" d="M572 258V1590H140V134Q140 86 145 50T169 -10Q187 -34 224 -46T324 -58H1144V258H572Z"  />
<glyph unicode="M" horiz-adv-x="1624" d="M624 -58H1004L1128 570V-58H1520V1590H964L812 742L664 1590H100V-58H512V570L624 -58Z"  />
<glyph unicode="N" horiz-adv-x="1456" d="M964 -58H1352V1590H932V742L496 1590H100V-58H520V798L964 -58Z"  />
<glyph unicode="O" horiz-adv-x="1612" d="M800 226Q735 226 682 259T589 360Q550 427 529 527T508 762Q508 898 529 999T589 1168Q628 1235 681 1268T800 1302Q863 1302 916 1269T1009 1168Q1048 1101 1070 1000T1092 762Q1092 628 1070 528T1009 360Q970 293 917 260T800 226ZM1532 762Q1532 928 1487 1083T1350 1358Q1259 1478 1122 1550T800 1622Q615 1622 478 1550T249 1358Q158 1238 113 1083T68 762Q68 597 113 443T249 170Q340 51 477 -21T800 -94Q984 -94 1121 -23T1350 169Q1441 288 1486 442T1532 762Z"  />
<glyph unicode="P" horiz-adv-x="1448" d="M808 498Q935 498 1038 539T1215 652Q1288 724 1328 823T1368 1038Q1368 1158 1329 1259T1216 1434Q1142 1507 1035 1548T792 1590H196L100 1282H196V-58H620V498H808ZM784 1282Q853 1282 890 1228T928 1038Q928 972 919 928T891 856Q873 829 845 818T780 806H620V1282H784Z"  />
<glyph unicode="Q" horiz-adv-x="1732" d="M1716 194Q1660 197 1622 202T1555 218Q1525 228 1501 245T1448 290Q1505 410 1528 521T1552 762Q1552 928 1507 1084T1371 1360Q1280 1480 1142 1553T816 1626Q634 1626 497 1553T268 1360Q176 1240 130 1084T84 762Q84 597 130 442T268 167Q360 47 497 -24T816 -94Q936 -94 1040 -60T1228 34Q1291 -26 1389 -66T1628 -118L1716 194ZM816 226Q753 226 700 259T609 359Q570 425 549 526T528 762Q528 897 549 998T609 1167Q647 1234 700 1268T816 1302Q880 1302 934 1268T1028 1167Q1067 1099 1089 998T1112 762Q1112 627 1091 526T1030 359Q991 292 937 259T816 226Z"  />
<glyph unicode="R" horiz-adv-x="1540" d="M784 1278Q832 1278 864 1269T918 1237Q938 1214 947 1175T956 1074Q956 1012 946 971T914 904Q892 879 858 869T776 858H604V1278H784ZM696 558L1004 -58H1464L1108 626Q1252 710 1320 826T1388 1086Q1388 1200 1349 1293T1232 1452Q1155 1518 1042 1554T780 1590H180L100 1278H180V-58H604V558H696Z"  />
<glyph unicode="S" horiz-adv-x="1520" d="M100 246Q142 168 210 105T366 -4Q453 -49 557 -73T776 -98Q902 -98 1017 -61T1222 48Q1310 118 1363 219T1416 446Q1416 632 1291 755T892 942Q724 969 652 1016T580 1150Q580 1243 622 1278T752 1314Q798 1314 838 1305T918 1268Q957 1241 1000 1191T1096 1058L1396 1322Q1345 1397 1276 1453T1123 1547Q1039 1584 945 1603T748 1622Q628 1622 519 1586T328 1484Q245 1418 197 1323T148 1110Q148 1006 183 929T291 795Q363 738 470 697T720 622Q855 592 915 546T976 418Q976 316 922 271T768 226Q723 226 684 235T602 274Q560 304 513 359T404 506L100 246Z"  />
<glyph unicode="T" horiz-adv-x="1252" d="M840 -58V1266H1224V1590H24V1266H404V-58H840Z"  />
<glyph unicode="U" horiz-adv-x="1460" d="M100 530Q100 384 140 269T259 72Q338 -9 455 -51T728 -94Q884 -94 1001 -52T1198 72Q1276 153 1316 268T1356 530V1590H932V554Q932 461 920 399T882 299Q857 261 819 246T728 230Q675 230 637 245T573 299Q548 336 536 398T524 554V1590H100V530Z"  />
<glyph unicode="V" horiz-adv-x="1388" d="M928 1590L692 602L456 1590H20L448 -58H928L1364 1590H928Z"  />
<glyph unicode="W" horiz-adv-x="1876" d="M1072 -58H1540L1852 1590H1420L1304 874L1180 1590H708L576 854L448 1590H20L344 -58H812L944 702L1072 -58Z"  />
<glyph unicode="X" horiz-adv-x="1496" d="M732 454L988 -58H1464L960 842L1376 1590H916L736 1222L552 1590H88L512 830L20 -58H468L732 454Z"  />
<glyph unicode="Y" horiz-adv-x="1436" d="M924 -58V614L1408 1590H952L712 1046L476 1590H20L492 602V-58H924Z"  />
<glyph unicode="Z" horiz-adv-x="1360" d="M1256 250H596L1256 1394V1590H180L120 1290H748L100 154V46Q100 -17 129 -37T236 -58H1256V250Z"  />
<glyph unicode="[" horiz-adv-x="912" d="M840 1710H180V-70Q180 -151 217 -192T332 -234H840V30H580V1446H840V1710Z"  />
<glyph unicode="\" horiz-adv-x="792" d="M-68 1686L512 -198H872L284 1686H-68Z"  />
<glyph unicode="]" horiz-adv-x="912" d="M68 -234H564Q618 -234 651 -222T702 -184Q720 -159 726 -122T732 -34V1710H68V1446H332V30H68V-234Z"  />
<glyph unicode="^" horiz-adv-x="2296" d="M1148 1294L1484 922H1860L1316 1598H980L436 922H808L1148 1294Z"  />
<glyph unicode="_" horiz-adv-x="1252" d="M1228 26H32V-230H1228V26Z"  />
<glyph unicode="`" horiz-adv-x="1252" d="M532 1254H868L652 1598H236L532 1254Z"  />
<glyph unicode="a" horiz-adv-x="1268" d="M1164 -42Q1153 -14 1146 14T1133 77Q1128 111 1126 154T1124 254V822Q1124 999 1005 1096T648 1194Q411 1194 282 1084T128 766H528Q531 817 537 848T557 897Q569 914 589 920T640 926Q667 926 683 923T709 910Q718 900 721 882T724 834Q724 810 718 794T697 768Q682 758 655 752T584 742Q488 721 398 694T238 621Q168 575 126 505T84 326Q84 252 117 184T210 62Q270 8 352 -24T532 -58Q595 -58 656 -44T768 -2Q780 -11 793 -20T828 -42H1164ZM584 226Q545 226 527 249T508 342Q508 408 543 440T660 490Q681 493 697 496T728 506V482Q728 404 721 354T696 276Q679 247 652 237T584 226Z"  />
<glyph unicode="b" horiz-adv-x="1316" d="M528 542Q528 636 537 699T564 802Q582 841 607 857T664 874Q698 874 726 856T776 798Q797 758 808 695T820 542Q820 368 777 291T664 214Q631 214 606 229T563 283Q545 321 537 384T528 542ZM704 -82Q840 -82 940 -28T1106 116Q1172 204 1204 316T1236 542Q1236 657 1204 769T1106 971Q1040 1060 940 1115T704 1170Q656 1170 613 1160T528 1134V1590H124V126Q124 81 127 48T145 -8Q158 -30 184 -41T256 -54H528V-50Q570 -65 613 -73T704 -82Z"  />
<glyph unicode="c" horiz-adv-x="1304" d="M860 482Q828 402 804 354T759 278Q738 251 720 243T680 234Q611 234 564 315T516 570Q516 651 529 711T566 811Q588 850 617 870T676 890Q698 890 717 881T757 846Q776 819 797 772T844 646L1200 826Q1170 907 1119 974T1002 1091Q935 1139 855 1166T684 1194Q546 1194 438 1140T254 998Q179 910 140 797T100 566Q100 444 137 329T247 124Q319 34 427 -20T676 -74Q766 -74 847 -49T996 24Q1064 70 1116 135T1200 278L860 482Z"  />
<glyph unicode="d" horiz-adv-x="1312" d="M780 542Q780 447 771 384T745 283Q727 245 702 230T644 214Q575 214 532 291T488 542Q488 632 499 695T531 798Q552 837 580 855T644 874Q677 874 702 858T745 804Q762 765 771 702T780 542ZM780 1590V1134Q738 1149 694 1159T604 1170Q464 1170 364 1116T200 973Q136 884 106 772T76 542Q76 428 106 316T200 116Q264 27 364 -27T604 -82Q649 -82 693 -74T780 -50V-54H1184V1590H780Z"  />
<glyph unicode="e" horiz-adv-x="1340" d="M668 906Q707 906 740 869T788 730H528Q552 829 589 867T668 906ZM908 450Q872 379 844 336T791 269Q767 245 746 238T704 230Q641 230 593 279T524 454H1236Q1234 601 1200 734T1097 969Q1027 1071 920 1131T664 1194Q529 1194 424 1139T247 996Q175 907 138 796T100 570Q100 447 138 332T252 126Q327 36 437 -18T692 -74Q776 -74 853 -51T998 15Q1066 57 1123 118T1224 254L908 450Z"  />
<glyph unicode="f" horiz-adv-x="836" d="M636 882H816V1146H636V1194Q636 1248 636 1276T640 1316Q644 1328 654 1329T684 1330Q685 1330 691 1329T713 1328Q728 1327 756 1327T832 1326V1566Q766 1593 719 1601T632 1610Q536 1610 462 1584T338 1513Q287 1468 262 1406T236 1270V1146H72V882H236V-58H636V882Z"  />
<glyph unicode="g" horiz-adv-x="1304" d="M788 646Q788 566 781 519T757 446Q741 421 715 414T652 406Q614 406 587 414T542 449Q524 475 516 522T508 646Q508 722 518 774T547 860Q565 893 592 907T652 922Q685 922 710 909T753 865Q770 833 779 780T788 646ZM616 1198Q487 1198 389 1152T225 1028Q159 950 126 850T92 642Q92 541 121 453T206 296Q262 227 343 182T528 122H124Q128 30 167 -42T275 -164Q342 -214 434 -240T636 -266Q726 -266 807 -251T956 -206Q1022 -177 1071 -137T1144 -46Q1156 -15 1164 12T1179 72Q1185 105 1187 148T1188 254V1174H788V1170Q746 1182 702 1190T616 1198ZM616 118Q658 118 702 124T788 146Q785 101 777 74T750 33Q732 18 704 14T632 10Q611 10 599 11T578 23Q570 33 565 55T552 118Q567 118 582 118T616 118Z"  />
<glyph unicode="h" horiz-adv-x="1236" d="M512 650Q512 767 556 824T660 882Q678 882 692 874T718 844Q728 823 734 786T740 690V-58H1140V734Q1140 825 1110 904T1023 1041Q966 1099 887 1132T708 1166Q660 1166 610 1155T512 1126V1590H108V-58H512V650Z"  />
<glyph unicode="i" horiz-adv-x="608" d="M100 1590V1250H504V1590H100ZM100 1146V-58H504V1146H100Z"  />
<glyph unicode="j" horiz-adv-x="804" d="M216 1598V1262H624V1598H216ZM216 170Q216 108 216 76T212 28Q209 13 201 12T176 10Q170 10 161 10T136 11Q119 11 93 13T24 18V-254Q72 -257 103 -258T156 -259Q176 -259 187 -259T204 -258Q301 -258 379 -232T511 -159Q565 -114 594 -53T624 78V1154H216V170Z"  />
<glyph unicode="k" horiz-adv-x="1304" d="M560 378L792 -58H1232L832 674L1228 1146H792L536 842V1590H132V-58H536V350L560 378Z"  />
<glyph unicode="l" horiz-adv-x="608" d="M100 1590V-58H504V1590H100Z"  />
<glyph unicode="m" horiz-adv-x="1788" d="M512 666Q512 724 522 767T551 838Q569 866 591 880T636 894Q651 894 662 887T683 858Q691 837 695 801T700 706V-42H1100V666Q1100 783 1137 838T1220 894Q1235 894 1247 886T1269 857Q1278 836 1283 800T1288 706V-42H1692V750Q1692 840 1664 918T1582 1054Q1528 1111 1450 1144T1272 1178Q1191 1178 1113 1149T972 1074Q918 1122 842 1150T684 1178Q642 1178 598 1171T512 1146V1158H108V-42H512V666Z"  />
<glyph unicode="n" horiz-adv-x="1236" d="M512 666Q512 783 556 838T660 894Q678 894 692 886T718 857Q728 836 734 800T740 706V-42H1140V750Q1140 841 1110 919T1023 1055Q966 1112 887 1145T708 1178Q660 1178 610 1169T512 1142V1158H108V-42H512V666Z"  />
<glyph unicode="o" horiz-adv-x="1272" d="M472 558Q472 645 485 708T521 813Q544 854 574 874T640 894Q673 894 702 875T753 814Q774 773 787 710T800 558Q800 471 787 408T753 305Q731 264 702 245T640 226Q605 226 575 245T521 305Q498 345 485 408T472 558ZM640 -74Q779 -74 886 -21T1066 122Q1138 210 1176 324T1216 558Q1216 679 1179 793T1069 997Q996 1086 889 1140T640 1194Q499 1194 391 1140T209 997Q135 908 98 794T60 558Q60 438 97 324T209 122Q282 33 390 -20T640 -74Z"  />
<glyph unicode="p" horiz-adv-x="1316" d="M528 562Q528 658 536 721T563 822Q580 859 605 874T664 890Q733 890 776 815T820 562Q820 475 810 419T779 329Q759 296 730 283T664 270Q626 270 600 280T558 321Q542 352 535 409T528 562ZM124 1170V-274H528V22Q567 7 611 -1T704 -10Q839 -10 939 36T1105 160Q1171 238 1203 342T1236 562Q1236 677 1204 789T1106 991Q1040 1080 940 1135T704 1190Q656 1190 612 1181T528 1154V1170H124Z"  />
<glyph unicode="q" horiz-adv-x="1312" d="M780 562Q783 412 747 341T644 270Q572 270 530 336T488 562Q488 739 531 814T644 890Q677 890 702 875T745 822Q762 784 771 721T780 562ZM604 1190Q467 1190 368 1135T203 991Q138 902 107 790T76 562Q77 446 109 342T208 160Q273 82 371 36T604 -10Q649 -10 695 -2T780 22V-274H1184V1170H780V1154Q741 1172 695 1181T604 1190Z"  />
<glyph unicode="r" horiz-adv-x="828" d="M504 610Q504 680 520 728T576 803Q614 830 676 838T828 838V1178Q729 1184 650 1174T504 1134V1158H100V-42H504V610Z"  />
<glyph unicode="s" horiz-adv-x="1268" d="M100 166Q187 55 330 -7T648 -70Q763 -70 858 -36T1021 57Q1089 115 1126 191T1164 350Q1164 482 1079 575T820 702Q764 720 714 730T624 753Q585 764 563 779T540 822Q540 876 560 893T640 910Q667 910 692 904T748 878Q779 859 820 824T920 730L1132 982Q1036 1084 913 1137T648 1190Q534 1190 439 1157T276 1068Q207 1013 170 942T132 794Q132 725 156 669T234 567Q287 522 371 489T576 434Q672 434 714 403T756 330Q756 264 730 241T644 218Q609 218 583 223T527 248Q497 268 459 307T360 414L100 166Z"  />
<glyph unicode="t" horiz-adv-x="860" d="M828 1146H632V1542H232V1146H68V882H232V338Q232 234 247 158T306 30Q348 -21 424 -45T620 -70Q659 -70 706 -63T828 -38V214Q783 214 755 214T710 214Q693 214 686 214T676 214Q656 214 647 215T634 228Q631 240 631 269T632 354V882H828V1146Z"  />
<glyph unicode="u" horiz-adv-x="1236" d="M724 450Q724 333 682 276T580 218Q559 218 543 226T517 257Q506 278 501 315T496 410V1158H92V366Q92 274 123 196T211 60Q268 3 348 -29T528 -62Q576 -62 626 -53T724 -26V-42H1124V1158H724V450Z"  />
<glyph unicode="v" horiz-adv-x="1120" d="M688 1158L556 674L432 1158H20L356 -42H752L1092 1158H688Z"  />
<glyph unicode="w" horiz-adv-x="1644" d="M912 -42H1292L1628 1158H1224L1112 674L1004 1158H644L536 682L428 1158H16L356 -42H736L824 390L912 -42Z"  />
<glyph unicode="x" horiz-adv-x="1216" d="M748 -42H1192L820 590L1164 1158H724L604 938L488 1158H56L380 590L16 -42H456L604 246L748 -42Z"  />
<glyph unicode="y" horiz-adv-x="1088" d="M12 1182L340 114Q340 88 339 70T338 40Q338 28 338 23T340 18H124V-258H360Q462 -258 528 -236T637 -170Q680 -128 706 -66T756 74L1080 1182H668L548 718L428 1182H12Z"  />
<glyph unicode="z" horiz-adv-x="1196" d="M572 242L1076 942V1158H116V878H588L100 198V94Q100 55 104 29T122 -13Q135 -29 160 -35T228 -42H1092V242H572Z"  />
<glyph unicode="{" horiz-adv-x="1252" d="M1072 -6H936Q906 -6 888 -2T860 22Q850 42 847 83T844 198V378Q842 442 834 493T804 587Q783 629 746 662T648 722Q708 750 746 784T806 861Q827 903 835 953T844 1066V1266Q844 1347 847 1389T871 1449Q892 1466 938 1463T1072 1450V1726H936Q813 1726 731 1712T600 1670Q558 1643 530 1614T486 1544Q469 1504 463 1449T456 1314V1102Q456 1022 449 974T427 898Q411 871 385 863T320 854Q303 855 281 852T237 839Q216 830 202 817T188 786V666Q188 643 202 629T237 607Q257 599 279 597T316 594Q356 594 383 585T426 549Q442 522 449 473T456 342V154Q456 79 462 25T484 -70Q500 -111 528 -141T600 -198Q621 -212 654 -223T730 -242Q772 -250 820 -254T920 -258H1072V-6Z"  />
<glyph unicode="|" horiz-adv-x="1252" d="M808 -250V1722H448V-250H808Z"  />
<glyph unicode="}" horiz-adv-x="1252" d="M936 594Q955 592 978 597T1021 612Q1041 622 1054 637T1068 670V778Q1068 809 1053 824T1017 846Q996 852 977 852T948 854Q901 854 872 863T825 899Q808 926 802 975T796 1106V1314Q796 1392 790 1447T769 1543Q753 1583 725 1613T652 1670Q607 1697 525 1711T316 1726H188V1470H328Q353 1474 368 1469T393 1443Q402 1422 405 1381T408 1270V1070Q409 1007 417 957T448 865Q469 823 507 790T608 726Q546 697 507 663T446 587Q424 545 416 494T408 382V202Q408 127 406 86T395 25Q386 5 368 2T316 -2H188V-258H316Q442 -258 527 -240T652 -198Q694 -171 721 -142T766 -72Q782 -32 789 22T796 154V346Q796 430 799 478T818 551Q832 575 860 583T936 594Z"  />
<glyph unicode="~" horiz-adv-x="1952" d="M1740 1074Q1624 981 1548 925T1420 839Q1369 809 1336 800T1272 790Q1239 790 1192 803T1060 846Q995 870 945 886T851 914Q808 924 769 929T688 934Q580 934 461 885T216 746V398Q336 492 414 548T543 634Q594 664 626 673T688 682Q710 682 735 679T793 667Q826 658 868 643T968 602Q1037 575 1113 557T1268 538Q1376 538 1496 587T1740 726V1074Z"  />
<glyph unicode="&#xA0;" d=""  />
<glyph unicode="&#xA1;" horiz-adv-x="2048" d="M1182 582L1128 1120H928L874 582L877 -169H1182V582ZM1206 1669H850V1315H1206V1669Z"  />
<glyph unicode="&#xA4;" horiz-adv-x="2048" d="M625 168Q709 108 810 75T1024 42Q1138 42 1241 76T1430 174L1651 -50L1806 104L1583 328Q1646 412 1680 514T1714 729Q1714 846 1678 950T1575 1141L1806 1370L1651 1524L1417 1293Q1334 1352 1234 1385T1024 1419Q915 1419 815 1387T631 1297L408 1524L252 1370L477 1143Q409 1058 373 952T336 729Q336 614 371 510T471 322L252 104L408 -50L625 168ZM1024 1184Q1118 1184 1201 1148T1346 1051Q1407 989 1443 906T1479 729Q1479 634 1443 552T1346 408Q1284 347 1201 312T1024 277Q929 277 847 312T703 408Q641 469 606 551T571 729Q571 823 606 906T703 1051Q764 1112 846 1148T1024 1184H1024Z"  />
<glyph unicode="&#xA7;" horiz-adv-x="860" d="M174 608Q234 533 293 476T400 367Q447 315 476 264T506 152Q506 130 499 110T480 75Q468 60 455 51T428 42Q417 42 408 46T393 55Q387 61 383 65T379 71Q382 78 383 82T386 91Q386 96 386 104T387 129Q385 177 353 214T252 252Q231 252 210 243T172 218Q156 202 146 179T135 127Q135 68 162 21T233 -59Q276 -92 330 -109T440 -126Q515 -126 572 -96T666 -17Q704 32 722 94T737 221Q734 287 717 341T657 434Q675 439 697 453T739 495Q759 522 771 565T782 674Q779 731 765 778T722 868Q693 910 651 950T551 1034Q515 1061 482 1093T422 1164Q395 1202 377 1244T354 1333Q350 1376 366 1403T406 1442Q430 1454 456 1453T500 1438Q481 1417 477 1386T481 1324Q490 1293 513 1268T575 1235Q602 1229 630 1239T681 1271Q703 1292 715 1323T721 1393Q713 1435 691 1472T633 1538Q598 1566 552 1583T451 1600Q388 1600 334 1582T240 1526Q200 1490 178 1436T156 1311Q156 1254 165 1208T186 1126Q199 1091 213 1067T238 1030Q177 1006 145 955T107 841Q101 779 118 717T174 608H174ZM575 611Q577 595 568 588T539 588Q500 601 460 626T387 683Q353 715 331 753T305 834Q303 853 317 865T352 871Q376 862 413 837T485 776Q520 741 546 698T575 611H575Z"  />
<glyph unicode="&#xA8;" horiz-adv-x="2048" d="M881 1198V1757H313V1198H881ZM1745 1198V1757H1178V1198H1745Z"  />
<glyph unicode="&#xAA;" horiz-adv-x="2048" d="M1260 422Q1269 397 1279 371T1305 318H1595Q1594 319 1583 343T1559 402Q1547 436 1537 473T1526 537V1149Q1526 1240 1483 1311T1369 1432Q1298 1480 1206 1506T1016 1532Q912 1532 818 1506T653 1424Q582 1369 543 1286T510 1088H797Q785 1183 838 1236T1016 1290Q1079 1290 1124 1275T1198 1237Q1227 1215 1241 1190T1255 1143Q1255 1103 1219 1086T1133 1059Q1101 1053 1057 1050T962 1041Q911 1036 855 1028T743 1004Q675 983 620 947T527 859Q490 808 474 741T469 592Q479 509 518 450T618 354Q678 317 755 302T918 291Q979 293 1032 307T1130 341Q1174 361 1207 383T1260 422H1260ZM1255 842V762Q1255 734 1234 697T1171 626Q1131 592 1072 566T938 533Q907 530 876 534T820 551Q794 563 778 583T758 631Q748 689 784 730T887 793Q898 796 930 800T1007 810Q1050 815 1100 822T1198 840Q1227 845 1239 846T1256 846Q1260 845 1258 844T1255 842H1255ZM371 152V-81H1710V152H371Z"  />
<glyph unicode="&#xAB;" horiz-adv-x="2048" d="M1534 990L1372 1111L1024 718L1384 334L1554 454L1278 714L1534 990ZM1088 990L926 1110L574 718L934 330L1104 450L828 714L1088 990Z"  />
<glyph unicode="&#xAD;" horiz-adv-x="2048" d="M1552 484V924H528V484H1552Z"  />
<glyph unicode="&#xB0;" horiz-adv-x="573" d="M549 1458Q549 1513 529 1561T473 1645Q437 1680 390 1700T287 1721Q231 1721 183 1701T100 1645Q65 1609 45 1561T25 1458Q25 1402 45 1355T100 1271Q135 1236 183 1216T287 1196Q342 1196 389 1216T473 1271Q508 1307 528 1354T549 1458H549ZM383 1458Q383 1416 355 1387T287 1358Q251 1358 221 1387T190 1458Q190 1500 220 1529T287 1559Q326 1559 354 1530T383 1458H383Z"  />
<glyph unicode="&#xB1;" horiz-adv-x="2048" d="M328 1061V807H883V365H1167V807H1720V1061H1167V1491H883V1061H328ZM328 240V-9H1720V240H328Z"  />
<glyph unicode="&#xB2;" horiz-adv-x="819" d="M365 914Q368 916 371 920T378 929Q383 935 390 942T410 957L586 1075Q614 1096 646 1120T705 1178Q732 1211 750 1255T768 1360Q768 1420 745 1476T678 1575Q634 1618 570 1644T424 1671Q338 1671 272 1641T163 1559Q119 1508 98 1441T80 1299H309Q307 1377 337 1423T424 1469Q476 1469 506 1434T532 1358Q530 1319 497 1289T428 1233L272 1129Q200 1079 160 1025T99 916Q79 861 75 808T70 707H764V914H365Z"  />
<glyph unicode="&#xB3;" horiz-adv-x="819" d="M664 1190Q670 1196 684 1209T712 1245Q726 1269 737 1303T748 1385Q748 1442 724 1493T656 1583Q612 1621 551 1644T414 1667Q340 1667 278 1644T171 1576Q127 1533 103 1471T82 1333H315Q309 1396 335 1430T416 1465Q467 1465 492 1436T514 1379Q509 1358 495 1337T465 1307Q457 1302 441 1298T403 1291Q382 1287 359 1286T315 1284V1092Q330 1092 352 1091T397 1089Q419 1087 438 1084T467 1077Q496 1063 518 1037T541 983Q541 943 505 914T416 885Q357 885 322 920T293 1030H57Q54 944 80 878T156 766Q205 721 272 698T416 674Q495 674 561 697T675 762Q722 803 749 859T776 981Q776 1022 764 1057T734 1121Q716 1148 697 1166T664 1190H664Z"  />
<glyph unicode="&#xB4;" horiz-adv-x="2048" d="M883 1114L1249 1712H928L702 1114H883Z"  />
<glyph unicode="&#xB6;" horiz-adv-x="2048" d="M1540 -210V1594H1368V-210H1540ZM1160 -210V1594H924Q762 1595 659 1565T493 1479Q430 1424 401 1348T356 1182Q360 1093 381 1026T436 910Q470 861 513 828T605 774Q654 753 705 742T806 727Q856 723 901 723T984 726V-210H1160ZM532 1170Q542 1269 585 1321T692 1398Q755 1421 831 1423T984 1422V898Q886 893 805 900T665 936Q605 965 571 1021T532 1170Z"  />
<glyph unicode="&#xB7;" horiz-adv-x="2048" d="M1315 453V1012H748V453H1315Z"  />
<glyph unicode="&#xB8;" horiz-adv-x="778" d="M571 -21L381 32L213 -144L281 -210Q300 -202 322 -198T362 -193Q370 -193 382 -196T407 -207Q419 -213 427 -223T436 -247Q436 -274 400 -289T322 -308Q308 -308 287 -306T241 -297Q217 -291 192 -282T147 -259L102 -353Q153 -391 223 -416T385 -441Q446 -441 498 -424T588 -376Q626 -347 646 -308T666 -222Q664 -173 631 -128T541 -66L571 -21Z"  />
<glyph unicode="&#xB9;" horiz-adv-x="819" d="M594 686V1651H383Q383 1608 364 1577T330 1534Q311 1519 263 1508T162 1497V1297H360V686H594Z"  />
<glyph unicode="&#xBA;" horiz-adv-x="2048" d="M1589 920Q1589 1049 1551 1162T1439 1359Q1367 1443 1263 1491T1028 1540Q896 1540 792 1492T615 1359Q542 1275 504 1162T465 920Q465 790 503 677T614 480Q686 397 790 349T1026 301Q1157 301 1261 349T1438 480Q1511 564 1550 677T1589 920H1589ZM1708 -73V160H367V-73H1708ZM1305 920Q1305 843 1284 776T1224 658Q1187 607 1136 578T1026 549Q966 549 916 578T828 658Q791 708 771 775T750 920Q750 996 771 1064T829 1184Q867 1235 917 1265T1028 1295Q1087 1295 1137 1265T1225 1184Q1262 1133 1283 1065T1305 920H1305Z"  />
<glyph unicode="&#xBB;" horiz-adv-x="2048" d="M518 990L774 714L498 454L668 334L1028 718L680 1110L518 990ZM1004 990L1264 714L988 450L1158 330L1518 718L1166 1110L1004 990Z"  />
<glyph unicode="&#xBC;" horiz-adv-x="2048" d="M637 686V1651H426Q426 1608 407 1577T373 1534Q354 1519 306 1508T205 1497V1297H403V686H637ZM330 -156L1792 1528L1645 1659L195 -13L330 -156ZM1823 -27V176H1716V801H1505L1116 182V-27H1503V-163H1716V-27H1823ZM1503 408V176H1356L1503 408Z"  />
<glyph unicode="&#xBD;" horiz-adv-x="2048" d="M637 686V1651H426Q426 1608 407 1577T373 1534Q354 1519 306 1508T205 1497V1297H403V686H637ZM1456 67Q1459 69 1462 73T1469 82Q1474 88 1481 95T1501 110L1677 228Q1705 248 1737 272T1797 330Q1824 363 1842 407T1860 512Q1860 572 1837 628T1770 728Q1726 771 1662 797T1516 824Q1429 824 1364 794T1254 711Q1210 660 1189 593T1171 451H1401Q1399 529 1429 575T1516 621Q1567 621 1597 586T1624 510Q1622 471 1589 441T1520 385L1364 281Q1292 231 1252 177T1191 69Q1171 14 1166 -39T1161 -140H1855V67H1456ZM330 -156L1792 1528L1645 1659L195 -13L330 -156Z"  />
<glyph unicode="&#xBE;" horiz-adv-x="2048" d="M330 -156L1792 1528L1645 1659L195 -13L330 -156ZM745 1190Q752 1196 766 1209T794 1245Q808 1269 818 1303T829 1385Q829 1442 805 1493T737 1583Q693 1621 632 1644T496 1667Q422 1667 360 1644T253 1576Q209 1533 185 1471T164 1333H397Q391 1396 417 1430T498 1465Q549 1465 574 1436T596 1379Q591 1358 577 1337T547 1307Q539 1302 523 1298T485 1291Q464 1287 441 1286T397 1284V1092Q412 1092 434 1091T479 1089Q501 1087 520 1084T549 1077Q578 1063 600 1037T623 983Q623 943 587 914T498 885Q439 885 404 920T375 1030H139Q136 944 162 878T238 766Q287 721 354 698T498 674Q577 674 643 697T757 762Q804 803 831 859T858 981Q858 1022 846 1057T816 1121Q798 1148 779 1166T745 1190H745ZM1823 -27V176H1716V801H1505L1116 182V-27H1503V-163H1716V-27H1823ZM1503 408V176H1356L1503 408Z"  />
<glyph unicode="&#xBF;" horiz-adv-x="2048" d="M1024 -165Q1169 -165 1274 -116T1446 14Q1512 94 1541 196T1563 406H1268Q1272 355 1259 305T1215 215Q1185 176 1138 152T1028 127Q965 127 920 146T846 197Q818 228 808 268T809 350Q817 386 838 420T888 487Q916 519 949 551T1017 619Q1050 653 1081 690T1137 770Q1161 812 1175 860T1190 965V1147H879V965Q879 926 865 894T827 831Q804 801 774 772T710 712Q676 680 643 646T580 569Q551 528 528 479T494 369Q473 264 505 167T610 -3Q682 -77 788 -121T1024 -165H1024ZM860 1647V1301H1204V1647H860Z"  />
<glyph unicode="&#xC6;" horiz-adv-x="2048" d="M1956 -75V191H1513L1350 611H1898V879H1237L1096 1245H1937V1514H692L53 -75H352L502 293H1176L1325 -75H1956ZM1065 568H610L840 1139L1065 568Z"  />
<glyph unicode="&#xD0;" horiz-adv-x="2048" d="M506 674H184V434H506V-77H1051Q1221 -78 1355 -20T1583 145Q1677 251 1726 397T1776 717Q1776 888 1727 1033T1583 1285Q1490 1392 1356 1452T1051 1512H506V674ZM791 674V1243H1012Q1130 1243 1217 1201T1362 1087Q1420 1015 1448 920T1477 717Q1477 607 1449 511T1362 344Q1304 272 1217 232T1012 191H791V434H1262V674H791Z"  />
<glyph unicode="&#xD7;" horiz-adv-x="2048" d="M1733 223L1208 735L1692 1225L1507 1399L1022 918L543 1409L344 1221L840 729L330 232L526 48L1020 549L1548 28L1733 223Z"  />
<glyph unicode="&#xD8;" horiz-adv-x="2048" d="M479 148L295 -116L481 -249L651 -5Q686 -28 724 -46T807 -76Q852 -89 906 -95T1030 -101Q1198 -101 1333 -43T1562 124Q1657 232 1708 384T1759 725Q1759 926 1710 1069T1569 1307L1745 1559L1561 1692L1391 1452Q1331 1495 1245 1519T1030 1544Q862 1544 727 1486T498 1319Q404 1212 354 1061T303 725Q303 524 347 385T479 148H479ZM1235 1227L659 404Q653 412 643 444T623 523Q613 569 607 622T600 725Q600 849 629 951T715 1126Q770 1198 850 1238T1030 1278Q1059 1278 1092 1272T1155 1257Q1184 1249 1206 1241T1235 1227H1235ZM1391 1053Q1399 1042 1410 1008T1431 928Q1441 882 1448 829T1456 725Q1456 599 1426 496T1341 319Q1285 246 1207 206T1030 166Q999 166 964 172T897 188Q865 197 841 207T809 225L1391 1053Z"  />
<glyph unicode="&#xDE;" horiz-adv-x="2048" d="M1028 1016Q1094 1016 1147 991T1237 919Q1274 872 1293 808T1313 664Q1313 584 1294 520T1237 408Q1200 362 1147 337T1028 312Q894 312 818 403T741 664Q741 834 817 925T1028 1016H1028ZM741 142Q752 130 779 113T847 80Q887 64 940 53T1059 42Q1185 42 1288 87T1465 214Q1539 296 1579 410T1620 664Q1620 803 1580 918T1465 1115Q1391 1197 1288 1242T1059 1288Q994 1288 941 1275T847 1245Q806 1228 779 1210T741 1180V1524H459V-68H741V142Z"  />
<glyph unicode="&#xDF;" horiz-adv-x="2048" d="M555 -118H827V1094Q827 1129 840 1163T877 1225Q902 1252 937 1269T1016 1286Q1058 1286 1096 1276T1165 1242Q1195 1219 1213 1181T1231 1086Q1231 1029 1212 988T1159 921Q1126 894 1080 883T981 873H897V625H995Q1041 628 1090 619T1181 584Q1222 558 1249 514T1276 402Q1276 330 1250 284T1182 212Q1141 186 1092 176T997 166H895V-81H1032Q1161 -81 1260 -47T1428 50Q1495 112 1529 196T1563 381Q1562 459 1546 520T1501 630Q1474 678 1437 714T1358 778Q1380 799 1407 824T1457 889Q1480 928 1495 986T1511 1133Q1511 1213 1478 1284T1384 1410Q1324 1463 1239 1494T1051 1526H1024Q938 1526 854 1503T703 1425Q637 1371 596 1284T555 1067V-118Z"  />
<glyph unicode="&#xE6;" horiz-adv-x="2048" d="M1307 -128Q1409 -128 1483 -97T1609 -9Q1661 47 1694 122T1749 287H1473Q1461 221 1421 173T1313 125Q1279 125 1245 143T1184 197Q1156 231 1139 280T1120 389H1767Q1769 569 1733 705T1633 933Q1569 1024 1483 1070T1300 1116Q1245 1116 1197 1103T1110 1070Q1071 1050 1043 1025T1001 975Q986 999 958 1023T889 1068Q849 1088 799 1101T692 1114Q606 1114 529 1087T394 1005Q336 950 304 867T276 670H551Q539 768 575 819T694 871Q733 871 760 857T805 820Q822 798 830 772T838 723Q838 702 829 687T808 662Q796 653 783 648T762 641Q740 635 707 631T632 620Q591 614 546 604T455 576Q398 555 352 520T273 434Q242 384 230 319T229 174Q241 93 275 36T360 -58Q411 -94 477 -111T621 -128Q690 -128 752 -104T862 -49Q909 -17 938 14T973 59Q978 44 1002 13T1070 -50Q1113 -81 1172 -104T1307 -128H1307ZM838 426V342Q838 312 824 274T783 203Q756 169 716 145T623 116Q584 111 547 133T506 211Q500 269 526 312T600 379Q607 382 629 385T681 393Q711 398 747 404T819 422Q823 423 827 424T838 426H838ZM1128 631Q1131 677 1143 718T1177 792Q1198 824 1227 843T1296 862Q1339 862 1372 844T1428 794Q1451 762 1463 720T1479 631H1128Z"  />
<glyph unicode="&#xF0;" horiz-adv-x="2048" d="M967 627H438Q432 430 478 290T608 60Q690 -29 800 -71T1030 -113Q1166 -113 1276 -66T1465 66Q1543 150 1585 265T1628 516Q1628 649 1583 764T1458 965L1651 1127L1503 1303L1262 1100Q1209 1123 1151 1135T1028 1147Q899 1147 806 1112T646 1018Q579 960 536 883T465 723H788Q795 746 812 770T855 815Q880 836 914 851T991 873L856 760L967 627ZM1055 627L1235 778Q1268 744 1288 705T1311 627H1055ZM1307 369Q1299 325 1276 286T1217 216Q1181 186 1134 169T1032 152Q974 152 926 170T843 218Q807 249 786 288T760 369H1307Z"  />
<glyph unicode="&#xF7;" horiz-adv-x="2048" d="M1225 1297Q1225 1336 1212 1371T1172 1434Q1146 1461 1107 1477T1016 1493Q972 1493 936 1476T874 1432Q849 1405 835 1370T821 1297Q821 1252 836 1216T880 1153Q908 1127 946 1113T1028 1098Q1068 1097 1104 1113T1167 1157Q1194 1185 1209 1221T1225 1297H1225ZM1741 590V864H307V590H1741ZM1225 170Q1225 210 1212 245T1172 308Q1146 335 1107 351T1016 367Q972 367 936 350T874 306Q849 278 835 243T821 170Q821 125 836 89T880 28Q908 2 946 -12T1028 -27Q1068 -29 1104 -13T1167 31Q1194 59 1209 95T1225 170H1225Z"  />
<glyph unicode="&#xF8;" horiz-adv-x="2048" d="M578 102L469 -54L655 -185L754 -44Q814 -78 884 -95T1034 -113Q1169 -113 1278 -64T1466 71Q1543 156 1585 270T1628 516Q1628 648 1585 764T1462 965L1583 1137L1395 1266L1276 1098Q1223 1122 1163 1134T1036 1147Q900 1147 790 1097T603 962Q525 876 484 761T442 516Q442 396 476 290T578 102H578ZM1106 854L772 377Q761 409 757 444T752 516Q752 589 771 653T827 764Q864 812 916 839T1034 867Q1054 867 1072 864T1106 854H1106ZM1276 699Q1296 660 1306 614T1317 516Q1317 443 1297 379T1240 267Q1204 219 1152 192T1034 164Q1001 164 973 170T920 189L1276 699Z"  />
<glyph unicode="&#xFE;" horiz-adv-x="2048" d="M1053 881Q1119 881 1172 856T1261 784Q1298 738 1317 674T1337 531Q1337 453 1318 389T1261 278Q1225 232 1172 207T1053 182Q918 182 842 272T766 531Q766 699 842 790T1053 881H1053ZM766 18Q776 7 802 -10T870 -45Q910 -61 964 -73T1083 -85Q1209 -85 1312 -40T1490 86Q1563 168 1604 281T1645 531Q1645 670 1604 784T1490 979Q1416 1060 1313 1104T1083 1149Q1018 1149 964 1137T870 1109Q829 1092 803 1075T766 1047V1524H483V-286H766V18Z"  />
<glyph unicode="&#x111;" horiz-adv-x="2048" d="M1020 776Q1085 776 1136 752T1223 686Q1258 643 1277 585T1296 457Q1296 388 1277 330T1223 229Q1187 186 1136 163T1020 139Q958 139 907 162T819 229Q782 271 762 329T741 457Q741 526 760 584T816 686Q853 728 904 752T1020 776H1020ZM1300 1090V940Q1289 950 1264 966T1201 996Q1162 1011 1110 1021T991 1032Q867 1032 765 991T588 875Q514 800 473 694T432 459Q432 329 474 223T591 42Q666 -34 768 -75T991 -116Q1055 -116 1107 -103T1199 -71Q1238 -53 1262 -35T1296 -5V-75H1587V1090H1872V1327H1587V1518H1300V1327H649V1090H1300Z"  />
<glyph unicode="&#x126;" horiz-adv-x="2048" d="M408 1268H166V1037H408V-68H692V633H1358V-68H1642V1037H1882V1268H1642V1520H1358V1268H692V1520H408V1268ZM692 1037H1358V901H692V1037Z"  />
<glyph unicode="&#x127;" horiz-adv-x="2048" d="M801 1284V1524H518V1284H238V1053H518V-68H801V467Q801 519 821 566T878 650Q913 686 960 707T1061 729Q1168 729 1217 677T1266 502V-68H1550V586Q1550 650 1531 719T1469 849Q1427 909 1358 952T1190 1010Q1103 1017 1037 1008T922 983Q874 966 844 947T801 914V1053H1423V1284H801Z"  />
<glyph unicode="&#x131;" horiz-adv-x="2048" d="M1165 -68V1104H881V-68H1165Z"  />
<glyph unicode="&#x132;" horiz-adv-x="2048" d="M1702 1524H1417V371Q1417 311 1401 270T1359 203Q1332 178 1299 167T1229 156Q1196 156 1164 167T1106 203Q1081 228 1065 269T1047 371L1044 512H762V336Q760 227 797 143T898 2Q962 -55 1047 -84T1229 -113Q1327 -113 1413 -84T1563 2Q1627 59 1664 143T1702 336V1524ZM633 -70V1524H348V-70H633Z"  />
<glyph unicode="&#x133;" horiz-adv-x="2048" d="M846 -70V1102H559V-70H846ZM846 1229V1520H559V1229H846ZM1481 1229V1520H1196V1229H1481ZM1481 1102H1196V-85Q1196 -130 1193 -149T1178 -181Q1172 -186 1154 -188T1114 -193Q1092 -194 1071 -194T1036 -195V-447H1196Q1282 -447 1333 -424T1421 -353Q1440 -330 1452 -310T1470 -265Q1476 -238 1478 -201T1481 -107V1102Z"  />
<glyph unicode="&#x138;" horiz-adv-x="2048" d="M788 361L883 443L1321 -68H1665L1083 615L1595 1094H1219L788 703V1094H504V-68H788V361Z"  />
<glyph unicode="&#x13F;" horiz-adv-x="2048" d="M1495 785Q1458 785 1427 772T1372 734Q1349 710 1336 678T1323 608Q1323 571 1336 540T1372 486Q1395 463 1426 451T1495 438Q1531 438 1562 450T1617 486Q1640 508 1653 539T1667 608Q1667 645 1654 677T1617 734Q1593 758 1562 771T1495 785H1495ZM1606 -75V201H813V1518H518V-75H1606Z"  />
<glyph unicode="&#x140;" horiz-adv-x="2048" d="M1339 1092Q1302 1092 1270 1079T1215 1041Q1191 1018 1178 986T1165 918Q1165 881 1178 850T1215 796Q1238 773 1270 761T1339 748Q1376 748 1407 760T1463 796Q1486 819 1499 850T1513 918Q1513 954 1500 986T1463 1041Q1439 1065 1408 1078T1339 1092H1339ZM791 1526V-68H1077V1526H791Z"  />
<glyph unicode="&#x141;" horiz-adv-x="2048" d="M516 836L258 619L403 434L516 531V-79H1608V197H813V785L1110 1039L965 1215L813 1088V1514H516V836Z"  />
<glyph unicode="&#x142;" horiz-adv-x="2048" d="M1165 1039V1524H881V805L500 488L645 297L881 498V-70H1165V737L1569 1075L1423 1254L1165 1039Z"  />
<glyph unicode="&#x149;" horiz-adv-x="2048" d="M506 1096V-68H791V588Q791 641 811 689T867 774Q902 811 950 832T1053 854Q1157 854 1205 802T1253 625V-68H1538V709Q1538 772 1519 841T1457 972Q1415 1032 1346 1075T1178 1131Q1091 1138 1024 1128T909 1100Q861 1082 832 1062T791 1028V1096H506ZM1190 1512V1745H860V1415H1010Q1010 1414 1007 1407T997 1389Q992 1379 986 1369T975 1352Q959 1336 926 1319T846 1293L940 1141Q997 1156 1041 1184T1126 1266Q1166 1316 1178 1373T1190 1512H1190Z"  />
<glyph unicode="&#x14A;" horiz-adv-x="2048" d="M672 1014L1352 -36V-111Q1352 -143 1349 -160T1330 -185Q1315 -193 1283 -194T1194 -195V-464H1360Q1499 -464 1568 -379T1638 -138V1516H1352V488L686 1516H385V-73H672V1014Z"  />
<glyph unicode="&#x14B;" horiz-adv-x="2048" d="M1233 -101Q1233 -148 1231 -169T1214 -202Q1208 -207 1191 -209T1151 -214Q1129 -215 1108 -215T1073 -216V-466H1233Q1319 -466 1373 -439T1464 -361Q1483 -339 1494 -323T1510 -285Q1515 -262 1516 -226T1518 -130V709Q1518 773 1499 842T1437 972Q1394 1032 1325 1075T1157 1131Q1070 1140 1004 1129T890 1097Q842 1077 813 1054T770 1018V1096H485V-68H770V590Q770 643 790 691T846 775Q882 811 929 832T1032 854Q1136 854 1184 802T1233 627V-101Z"  />
<glyph unicode="&#x152;" horiz-adv-x="2048" d="M772 -68H1939V197H1182V621H1888V889H1182V1252H1925V1520H766Q605 1520 477 1464T259 1304Q169 1201 122 1056T74 731Q74 549 122 402T261 150Q351 45 480 -11T772 -68H772ZM899 1254V197H774Q677 197 601 235T471 343Q418 413 390 511T362 731Q362 849 390 945T471 1111Q524 1179 600 1216T774 1254H899Z"  />
<glyph unicode="&#x153;" horiz-adv-x="2048" d="M1202 631Q1205 677 1219 718T1257 792Q1280 824 1310 843T1376 862Q1413 862 1444 840T1499 784Q1523 750 1537 709T1554 631H1202ZM702 862Q742 862 775 833T834 754Q859 705 873 638T887 494Q887 417 873 350T834 232Q809 182 776 154T702 125Q663 125 629 153T570 232Q544 282 530 349T516 494Q516 570 530 637T570 754Q595 804 629 833T702 862H702ZM1044 48Q1061 15 1091 -16T1164 -73Q1207 -98 1261 -113T1380 -128Q1482 -128 1555 -97T1681 -10Q1732 46 1765 122T1821 287H1536Q1528 258 1514 229T1480 177Q1460 154 1434 140T1376 125Q1343 125 1311 149T1254 212Q1228 251 1212 297T1194 389H1841Q1844 576 1807 713T1706 940Q1642 1029 1557 1072T1376 1116Q1310 1116 1256 1101T1158 1061Q1116 1037 1086 1006T1040 944Q1023 975 994 1006T922 1061Q879 1085 824 1100T702 1116Q593 1116 507 1067T362 933Q302 848 271 735T240 494Q240 365 271 252T362 54Q421 -30 507 -79T702 -128Q769 -128 825 -113T925 -72Q969 -47 999 -16T1044 48H1044Z"  />
<glyph unicode="&#x166;" horiz-adv-x="2048" d="M1167 930V1254H1663V1522H391V1254H881V930H365V697H881V-66H1167V697H1683V930H1167Z"  />
<glyph unicode="&#x167;" horiz-adv-x="2048" d="M821 748H520V510H821V266Q821 210 822 178T829 123Q834 100 846 82T879 36Q900 9 920 -11T963 -44Q986 -58 1015 -64T1085 -70H1266V180Q1253 180 1232 181T1188 185Q1166 187 1148 190T1126 199Q1112 211 1109 229T1106 293V510H1425V748H1106V846H1266V1096H1106V1434H821V1096H682V846H821V748Z"  />
<glyph unicode="&#x2C7;" horiz-adv-x="2048" d="M1030 1278L1544 1585L1407 1753L1028 1528L639 1749L506 1577L1030 1278Z"  />
<glyph unicode="&#x2D0;" horiz-adv-x="563" d="M508 207L281 598L53 207H508ZM53 1260L281 869L508 1260H53Z"  />
<glyph unicode="&#x2D8;" horiz-adv-x="2048" d="M688 1766L492 1641Q553 1561 614 1504T741 1411Q806 1375 875 1359T1024 1342Q1176 1342 1307 1414T1559 1643L1362 1766Q1327 1719 1285 1681T1199 1615Q1154 1588 1109 1574T1024 1559Q983 1559 938 1573T849 1615Q805 1642 764 1680T688 1766H688Z"  />
<glyph unicode="&#x2D9;" horiz-adv-x="2048" d="M1026 1716Q987 1716 953 1702T894 1662Q868 1637 854 1603T840 1530Q840 1491 854 1457T894 1398Q919 1372 953 1358T1026 1344Q1065 1344 1098 1358T1158 1398Q1183 1423 1197 1457T1212 1530Q1212 1569 1198 1603T1158 1662Q1132 1687 1099 1701T1026 1716H1026Z"  />
<glyph unicode="&#x2DA;" horiz-adv-x="2048" d="M1290 1458Q1290 1513 1270 1561T1214 1645Q1179 1680 1131 1700T1028 1721Q972 1721 925 1701T841 1645Q806 1609 786 1561T766 1458Q766 1402 786 1355T841 1271Q877 1236 924 1216T1028 1196Q1083 1196 1131 1216T1214 1271Q1249 1307 1269 1354T1290 1458H1290ZM1124 1458Q1124 1416 1096 1387T1028 1358Q992 1358 962 1387T932 1458Q932 1500 962 1529T1028 1559Q1067 1559 1095 1530T1124 1458H1124Z"  />
<glyph unicode="&#x2DB;" horiz-adv-x="778" d="M446 -15H227Q190 -46 165 -94T137 -193Q134 -234 149 -269T195 -332Q225 -360 267 -376T360 -394Q404 -394 449 -383T537 -351Q579 -330 616 -300T680 -230L604 -165Q573 -193 527 -212T444 -230Q408 -229 382 -209T356 -154Q356 -129 379 -93T446 -15H446Z"  />
<glyph unicode="&#x2DD;" horiz-adv-x="2048" d="M733 1114L1100 1712H778L553 1114H733ZM1098 1114L1464 1712H1143L918 1114H1098Z"  />
<glyph unicode="&#x391;" horiz-adv-x="2048" d="M1806 -75L1190 1512H852L240 -75H555L690 275H1352L1489 -75H1806ZM1243 559H801L1024 1135L1243 559Z"  />
<glyph unicode="&#x392;" horiz-adv-x="2048" d="M1470 774Q1502 795 1535 830T1593 913Q1617 961 1628 1022T1630 1155Q1619 1225 1580 1290T1476 1405Q1411 1454 1323 1484T1128 1514H434V-75H1130Q1250 -75 1351 -43T1527 49Q1602 107 1646 188T1698 365Q1702 447 1682 514T1627 634Q1592 685 1550 720T1470 774H1470ZM1087 893H741V1231H1090Q1195 1231 1256 1187T1317 1069Q1317 986 1257 940T1087 893H1087ZM1112 207H741V613H1120Q1189 613 1238 596T1320 550Q1352 522 1367 486T1382 412Q1382 372 1367 335T1318 270Q1285 241 1234 224T1112 207H1112Z"  />
<glyph unicode="&#x393;" horiz-adv-x="2048" d="M1606 1516H512V-75H819V1235H1606V1516Z"  />
<glyph unicode="&#x394;" horiz-adv-x="2048" d="M1489 -75H1806L1190 1512H852L240 -75H555L1024 1135L1489 -75Z"  />
<glyph unicode="&#x395;" horiz-adv-x="2048" d="M1634 -75V205L784 207V598H1573V875L784 877V1231H1616V1514H477V-75H1634Z"  />
<glyph unicode="&#x396;" horiz-adv-x="2048" d="M1636 -75V209H764L1614 1245V1514H436V1229H1208L377 201V-75H1636Z"  />
<glyph unicode="&#x397;" horiz-adv-x="2048" d="M1649 -75V1524H1335V901H698V1524H387V-75H698V617H1335V-75H1649Z"  />
<glyph unicode="&#x398;" horiz-adv-x="2048" d="M1022 1555Q852 1555 716 1494T485 1323Q389 1214 338 1061T287 725Q287 540 338 386T485 122Q580 11 716 -50T1022 -111Q1191 -111 1328 -50T1562 122Q1658 232 1710 386T1763 725Q1763 908 1711 1061T1562 1323Q1465 1433 1328 1494T1022 1555H1022ZM1022 166Q924 166 847 207T716 323Q662 397 634 500T606 725Q606 845 634 946T716 1120Q770 1193 847 1233T1022 1274Q1119 1274 1197 1234T1331 1120Q1386 1047 1416 946T1446 725Q1446 603 1416 500T1331 323Q1276 249 1198 208T1022 166H1022ZM754 850V592H1303V850H754Z"  />
<glyph unicode="&#x399;" horiz-adv-x="2048" d="M1178 -75V1524H866V-75H1178Z"  />
<glyph unicode="&#x39A;" horiz-adv-x="2048" d="M1804 -77L1061 852Q1132 922 1210 1002T1369 1168Q1449 1255 1530 1344T1690 1524H1323Q1244 1434 1171 1354T1025 1199Q953 1123 878 1049T721 895V1524H412V-75H719V518L844 643L1432 -77H1804Z"  />
<glyph unicode="&#x39B;" horiz-adv-x="2048" d="M1489 -75H1806L1190 1512H852L240 -75H555L1024 1135L1489 -75Z"  />
<glyph unicode="&#x39C;" horiz-adv-x="2048" d="M1788 -73V1516H1423L1024 330L621 1516H266V-73H569V824L856 -73H1196L1485 836V-73H1788Z"  />
<glyph unicode="&#x39D;" horiz-adv-x="2048" d="M1669 -73V1524H1362V420L748 1524H393V-73H700V1032L1309 -73H1669Z"  />
<glyph unicode="&#x39E;" horiz-adv-x="2048" d="M1655 199H377V-77H1655V199ZM1581 1512H438V1237H1581V1512ZM1513 893H524V617H1513V893Z"  />
<glyph unicode="&#x39F;" horiz-adv-x="2048" d="M1014 1555Q844 1555 708 1494T477 1323Q381 1214 330 1061T279 725Q279 540 330 386T477 122Q572 11 708 -50T1014 -111Q1183 -111 1320 -50T1554 122Q1650 232 1702 386T1755 725Q1755 908 1703 1061T1554 1323Q1457 1433 1320 1494T1014 1555H1014ZM1014 166Q916 166 839 207T708 323Q654 397 626 500T598 725Q598 845 626 946T708 1120Q762 1193 839 1233T1014 1274Q1111 1274 1189 1234T1323 1120Q1378 1047 1408 946T1438 725Q1438 603 1408 500T1323 323Q1268 249 1190 208T1014 166H1014Z"  />
<glyph unicode="&#x3A0;" horiz-adv-x="2048" d="M389 1514V-77H692V1241H1305V-77H1606V1514H389Z"  />
<glyph unicode="&#x3A1;" horiz-adv-x="2048" d="M1106 1514H438V-75H745V492H1106Q1220 492 1320 533T1495 644Q1570 714 1613 807T1657 1006Q1657 1110 1614 1202T1495 1364Q1421 1433 1321 1473T1106 1514H1106ZM1067 772H745V1231H1067Q1115 1231 1164 1219T1252 1180Q1291 1154 1316 1111T1341 1006Q1341 940 1316 896T1252 823Q1213 796 1164 784T1067 772H1067Z"  />
<glyph unicode="&#x3A3;" horiz-adv-x="2048" d="M1581 1514H467V1247L926 750L451 201V-75H1612V199H823L1286 752L856 1243H1581V1514Z"  />
<glyph unicode="&#x3A4;" horiz-adv-x="2048" d="M1657 1233V1514H362V1233H852V-75H1161V1233H1657Z"  />
<glyph unicode="&#x3A5;" horiz-adv-x="2048" d="M1720 1524H1372L995 836L616 1524H270L844 490V-75H1153V498L1720 1524Z"  />
<glyph unicode="&#x3A6;" horiz-adv-x="2048" d="M1169 1364V1516H891V1364Q768 1350 657 1298T460 1163Q375 1081 326 974T276 744Q276 621 325 513T460 323Q545 240 656 187T891 119V-75H1169V119Q1294 132 1407 185T1606 322Q1692 405 1743 513T1794 744Q1794 866 1743 974T1606 1166Q1520 1250 1407 1302T1169 1364H1169ZM1169 375V1110Q1229 1101 1288 1068T1395 986Q1442 936 1471 874T1501 744Q1501 676 1472 613T1395 501Q1348 451 1289 418T1169 375H1169ZM891 1110V373Q833 383 775 416T671 500Q624 550 596 613T567 744Q567 811 595 873T671 985Q717 1035 775 1068T891 1110H891Z"  />
<glyph unicode="&#x3A7;" horiz-adv-x="2048" d="M1733 -75L1184 760L1677 1524H1311L999 1039L684 1524H315L817 756L270 -75H633L997 486L1366 -75H1733Z"  />
<glyph unicode="&#x3A8;" horiz-adv-x="2048" d="M547 1516H240V1037Q240 945 249 873T277 741Q295 683 323 635T389 545Q442 480 502 443T622 388Q682 369 739 364T846 357V-75H1153V357Q1195 357 1233 359T1311 372Q1350 381 1393 399T1489 447Q1563 488 1614 541T1697 666Q1729 737 1743 829T1757 1039V1516H1452V1088Q1452 939 1435 851T1381 717Q1345 670 1289 655T1153 637V1516H846V639Q760 640 703 661T611 735Q576 786 562 872T547 1088V1516Z"  />
<glyph unicode="&#x3A9;" horiz-adv-x="2048" d="M258 197V-75H954V193Q868 250 804 311T695 444Q652 515 630 598T608 783Q608 872 633 957T708 1110Q758 1176 833 1217T1008 1258Q1106 1258 1181 1218T1306 1110Q1357 1044 1383 959T1409 783Q1409 592 1318 445T1059 197V-75H1757V197H1460Q1503 233 1550 291T1638 428Q1677 505 1703 599T1729 801Q1729 941 1679 1073T1535 1309Q1441 1411 1308 1473T1008 1536Q835 1536 701 1475T475 1311Q383 1210 335 1079T287 809Q287 689 312 594T376 423Q415 348 463 292T557 197H258Z"  />
<glyph unicode="&#x3B1;" horiz-adv-x="1362" d="M827 946Q773 1017 689 1058T518 1100Q413 1100 324 1060T169 944Q104 867 68 757T31 504Q31 375 61 266T151 78Q209 -2 294 -46T489 -91Q621 -91 698 -58T805 20Q812 5 828 -13T870 -48Q895 -64 931 -74T1014 -85Q1110 -85 1186 -10T1313 201L1085 330Q1079 310 1071 287T1054 242Q1046 221 1040 207T1034 191Q1025 191 1014 208T994 255Q985 285 979 324T973 410L1151 1030L872 1104L827 946ZM508 150Q467 150 431 174T367 244Q339 289 323 353T307 498Q307 576 324 640T368 752Q396 798 431 824T504 850Q541 850 573 830T631 768Q655 726 669 660T686 500Q688 418 675 353T636 243Q612 198 579 174T508 150H508Z"  />
<glyph unicode="&#x3B2;" horiz-adv-x="1241" d="M399 65Q459 -29 546 -63T745 -97Q838 -97 913 -62T1040 33Q1093 93 1121 173T1149 344Q1149 415 1129 484T1073 612Q1038 670 992 712T895 772Q929 785 959 817T1013 895Q1036 941 1049 998T1063 1118Q1063 1202 1028 1273T930 1397Q868 1449 785 1478T606 1508Q502 1508 412 1468T255 1348Q188 1270 150 1155T111 889V-455H399V65ZM512 658Q613 657 679 633T786 567Q825 526 841 470T858 350Q858 305 842 268T798 206Q771 180 736 166T664 152Q638 152 610 162T554 190Q528 208 505 229T469 273Q455 293 443 313T420 354Q411 375 405 395T399 438V928Q399 1021 411 1085T450 1191Q476 1231 515 1249T608 1268Q643 1268 674 1255T730 1217Q754 1193 768 1160T782 1088Q782 1044 768 1002T722 926Q690 892 639 872T512 852V658Z"  />
<glyph unicode="&#x3B3;" horiz-adv-x="1331" d="M1247 1077H928L655 539L385 1077H63L479 242Q434 167 405 115T359 22Q343 -18 337 -53T330 -128Q330 -180 348 -235T405 -335Q443 -381 502 -411T641 -441Q719 -441 780 -417T883 -349Q925 -306 947 -248T969 -120Q969 -82 963 -48T941 26Q925 65 898 113T827 228L1247 1077ZM612 -122Q612 -98 621 -76T651 -23Q661 -39 668 -51T681 -74Q686 -85 689 -96T692 -122Q692 -142 681 -160T655 -179Q640 -179 626 -164T612 -122H612Z"  />
<glyph unicode="&#x3B4;" horiz-adv-x="1239" d="M1079 1514H162V1303L463 1010Q404 999 332 957T193 828Q126 747 97 661T68 469Q68 400 76 345T102 242Q120 194 148 152T217 67Q259 25 301 -8T392 -63Q439 -86 495 -97T621 -109Q691 -109 749 -96T856 -59Q905 -34 947 0T1030 79Q1068 122 1095 165T1140 255Q1157 301 1165 353T1174 469Q1174 551 1155 617T1106 737Q1077 790 1042 830T975 903L604 1249H1079V1514ZM621 778Q675 778 723 754T808 687Q844 645 865 589T887 469Q887 402 866 344T808 242Q772 199 724 175T621 150Q566 150 518 174T432 242Q396 285 375 343T354 469Q354 532 374 588T432 687Q468 729 516 753T621 778H621Z"  />
<glyph unicode="&#x3B5;" horiz-adv-x="1096" d="M215 531Q193 522 164 498T108 440Q82 405 64 362T45 271Q45 181 79 112T179 -3Q243 -50 334 -73T539 -97Q637 -97 720 -75T870 -3Q936 45 983 121T1057 305L793 352Q778 295 752 257T693 197Q659 174 620 165T539 156Q439 156 383 190T326 281Q326 329 420 368T702 408V643Q610 643 546 650T442 671Q402 686 385 708T367 762Q367 778 380 793T418 822Q442 834 474 842T545 850Q618 850 688 810T805 694L1055 803Q1005 886 948 943T826 1036Q761 1071 690 1086T543 1102Q451 1102 368 1079T222 1012Q158 968 121 904T84 756Q84 710 97 674T130 609Q150 581 172 562T215 531H215Z"  />
<glyph unicode="&#x3B6;" horiz-adv-x="983" d="M922 1516H158V1262H506Q448 1216 404 1177T322 1095Q284 1053 248 1004T172 889Q129 822 103 769T62 667Q47 620 42 575T37 481Q37 397 56 326T121 201Q167 146 243 109T432 54Q475 47 504 41T550 25Q568 16 575 3T582 -30Q582 -66 544 -94T432 -118L365 -378Q514 -378 614 -346T775 -263Q836 -210 861 -142T887 -1Q887 63 860 115T772 217Q733 248 688 269T598 306Q555 321 519 330T461 348Q437 354 414 366T372 398Q354 418 343 447T332 516Q332 553 342 599T370 697Q389 748 414 799T471 897Q499 940 548 994T659 1105Q720 1162 788 1217T922 1317V1516Z"  />
<glyph unicode="&#x3B7;" horiz-adv-x="1106" d="M340 -75V582Q340 642 360 690T413 774Q446 808 485 827T561 846Q659 846 711 776T764 578V-447H1055V717Q1055 780 1025 849T941 978Q886 1037 809 1075T635 1114Q571 1114 523 1104T439 1077Q403 1061 379 1043T340 1010V1094H49V-75H340Z"  />
<glyph unicode="&#x3B8;" horiz-adv-x="1055" d="M39 744Q39 555 72 402T169 139Q233 30 324 -29T532 -89Q636 -89 725 -28T878 143Q943 253 979 405T1016 740Q1016 899 979 1041T876 1291Q811 1398 722 1461T528 1524Q423 1524 333 1461T178 1291Q113 1184 76 1043T39 744H39ZM709 613Q696 387 650 263T532 139Q493 139 462 172T406 267Q382 329 367 416T348 613H709ZM348 864Q357 1076 404 1188T528 1301Q603 1301 649 1190T709 864H348Z"  />
<glyph unicode="&#x3B9;" horiz-adv-x="502" d="M29 234Q29 173 47 118T102 20Q139 -23 196 -48T330 -73H477V185Q444 185 417 188T371 203Q351 214 341 234T330 289V1098H29V234Z"  />
<glyph unicode="&#x3BA;" horiz-adv-x="1085" d="M348 1098H49V-77H348V279L401 342L711 -77H1065L596 543L1055 1098H700L348 678V1098Z"  />
<glyph unicode="&#x3BB;" horiz-adv-x="1188" d="M846 -75H1159L580 1512H254L440 1020L23 -75H332L600 606L846 -75Z"  />
<glyph unicode="&#x3BC;" horiz-adv-x="1106" d="M350 -1Q383 -49 440 -67T555 -85Q586 -85 618 -80T680 -64Q708 -52 729 -35T760 9V-75H1042V1098H739V529Q739 425 726 357T687 248Q661 208 624 192T539 176Q506 176 473 192T412 238Q384 268 367 312T350 412V1098H49V-324H350V-1Z"  />
<glyph unicode="&#x3BD;" horiz-adv-x="1270" d="M631 307L344 1098H31L483 -77H778L1231 1098H918L631 307Z"  />
<glyph unicode="&#x3BE;" horiz-adv-x="983" d="M358 864Q208 768 135 651T59 418Q57 309 99 230T223 89Q263 60 304 41T385 8Q423 -5 456 -13T516 -27Q533 -32 552 -40T587 -58Q602 -67 612 -74T623 -85Q623 -125 578 -140T455 -146L385 -421Q541 -424 644 -399T808 -328Q869 -283 894 -219T920 -77Q920 -14 896 38T831 130Q790 169 735 197T616 242Q498 272 432 329T365 473Q365 533 399 589T494 688Q554 731 637 757T817 783V1037Q800 1035 777 1034T728 1032Q703 1031 681 1031T643 1030Q616 1030 577 1036T502 1057Q466 1071 441 1092T416 1143Q416 1172 429 1195T476 1233Q510 1249 569 1257T721 1266H825V1514H596Q456 1514 362 1481T211 1397Q154 1347 130 1287T106 1174Q106 1066 167 988T358 864H358Z"  />
<glyph unicode="&#x3BF;" horiz-adv-x="1280" d="M49 510Q49 374 89 260T206 63Q282 -19 391 -65T639 -111Q776 -111 885 -65T1071 63Q1147 146 1188 260T1229 510Q1229 646 1188 760T1070 956Q994 1039 885 1085T639 1131Q502 1131 393 1085T207 956Q130 874 90 760T49 510H49ZM639 871Q703 871 756 844T847 769Q884 721 905 655T926 510Q926 430 905 364T847 250Q809 202 756 176T639 150Q574 150 521 176T431 250Q393 297 373 363T352 510Q352 589 372 655T431 769Q468 817 521 844T639 871H639Z"  />
<glyph unicode="&#x3C0;" horiz-adv-x="1577" d="M1542 1100H37V828H328V-75H625V828H956V-75H1255V828H1542V1100Z"  />
<glyph unicode="&#x3C1;" horiz-adv-x="1167" d="M334 -472V-3Q359 -27 380 -43T430 -70Q459 -80 501 -84T612 -89Q719 -89 813 -42T978 85Q1048 165 1089 271T1130 498Q1130 613 1094 722T986 915Q916 1000 813 1051T578 1102Q551 1102 499 1096T379 1061Q310 1033 248 983T138 855Q91 776 63 667T35 410V-472H334ZM580 848Q637 848 682 822T758 751Q790 705 806 643T823 508Q823 438 805 377T755 269Q722 223 677 197T575 170Q519 170 475 193T399 259Q367 300 351 356T334 477Q334 576 354 646T407 761Q441 806 485 827T580 848H580Z"  />
<glyph unicode="&#x3C3;" horiz-adv-x="1372" d="M1063 813H1333V1084H614Q486 1084 381 1040T202 918Q127 840 86 732T45 496Q45 368 85 259T199 71Q273 -9 377 -54T610 -99Q738 -99 841 -54T1016 71Q1089 150 1128 259T1167 496Q1167 565 1152 621T1119 719Q1101 760 1084 784T1063 813H1063ZM610 815Q669 815 716 792T798 726Q831 683 849 625T868 496Q868 425 849 366T796 265Q761 222 714 199T610 176Q556 176 509 199T428 265Q393 307 374 366T354 496Q354 566 372 624T424 726Q458 768 505 791T610 815H610Z"  />
<glyph unicode="&#x3C4;" horiz-adv-x="1055" d="M1008 1100H41V834H379V-75H680V834H1008V1100Z"  />
<glyph unicode="&#x3C5;" horiz-adv-x="1106" d="M51 1098V361Q51 263 79 179T168 32Q227 -31 317 -66T532 -101Q669 -101 766 -58T926 58Q989 130 1020 222T1057 410Q1063 516 1046 620T998 819Q969 912 934 992T870 1129L598 1061Q644 978 680 882T738 692Q761 599 769 518T770 383Q764 336 742 297T687 229Q654 201 613 186T528 170Q492 170 457 182T394 218Q366 241 349 273T332 344V1098H51Z"  />
<glyph unicode="&#x3C6;" horiz-adv-x="1372" d="M537 1120Q418 1096 324 1040T165 904Q100 824 66 725T31 516Q31 390 68 288T174 107Q243 30 338 -21T549 -97V-433H836V-99Q950 -77 1043 -20T1204 120Q1270 203 1308 306T1350 522Q1352 576 1349 619T1337 702Q1327 742 1310 780T1268 864Q1202 981 1097 1046T856 1112Q762 1112 691 1069T584 932Q570 897 563 860T552 786Q549 749 549 714T549 647V189Q502 201 461 227T388 295Q357 337 340 395T322 531Q322 586 338 633T383 717Q410 754 445 780T516 819L537 1120ZM836 649Q836 712 837 749T846 807Q852 827 864 833T899 840Q933 840 965 819T1021 759Q1045 720 1060 665T1075 543Q1075 478 1057 419T1006 310Q973 262 930 228T836 180V649Z"  />
<glyph unicode="&#x3C7;" horiz-adv-x="1239" d="M451 395L18 -337H344L610 104L874 -337H1214L778 406L1188 1100H860L616 694L375 1100H39L451 395Z"  />
<glyph unicode="&#x3C8;" horiz-adv-x="1423" d="M344 1098H47V504Q47 444 49 400T58 319Q64 283 74 254T98 195Q111 167 140 124T222 38Q275 -5 357 -38T561 -79V-460H860V-81Q946 -77 1030 -53T1169 11Q1200 34 1236 63T1303 145Q1333 198 1353 283T1374 504V1098H1075V504Q1075 447 1074 398T1063 326Q1047 293 1030 270T989 230Q965 214 934 206T860 195V1098H561V195Q496 199 454 220T388 280Q363 319 354 374T344 504V1098Z"  />
<glyph unicode="&#x3C9;" horiz-adv-x="1659" d="M827 118Q861 59 902 19T989 -45Q1033 -70 1079 -80T1167 -91Q1269 -91 1355 -52T1503 62Q1564 135 1596 238T1624 467Q1623 533 1611 614T1578 780Q1556 865 1526 947T1458 1100H1159Q1190 1035 1219 947T1272 768Q1295 678 1309 597T1323 467Q1323 382 1308 324T1266 231Q1240 195 1205 180T1130 164Q1067 164 1023 234T979 447V776H680V438Q680 365 668 313T634 228Q613 195 586 180T528 164Q489 164 454 178T393 228Q366 262 351 317T336 455Q336 509 350 593T387 771Q409 863 438 951T498 1100H203Q173 1050 145 973T93 807Q70 719 55 630T39 467Q33 343 60 240T144 64Q201 -10 287 -50T489 -91Q531 -91 577 -81T668 -45Q713 -21 754 19T827 118H827Z"  />
<glyph unicode="&#x401;" horiz-adv-x="2048" d="M1612 -75V205L762 207V598H1550V875L762 877V1231H1593V1514H455V-75H1612ZM791 1874Q761 1874 734 1863T688 1832Q668 1812 657 1787T645 1733Q645 1703 656 1676T688 1629Q707 1608 734 1597T791 1585Q819 1585 845 1596T891 1629Q910 1649 922 1676T934 1733Q934 1761 922 1786T891 1832Q871 1851 845 1862T791 1874H791ZM1262 1874Q1232 1874 1206 1863T1159 1832Q1139 1812 1128 1787T1116 1733Q1116 1703 1127 1676T1159 1629Q1179 1608 1205 1597T1262 1585Q1290 1585 1315 1596T1361 1629Q1381 1649 1393 1676T1405 1733Q1405 1761 1393 1786T1361 1832Q1341 1851 1316 1862T1262 1874H1262Z"  />
<glyph unicode="&#x410;" horiz-adv-x="2048" d="M1810 -75L1194 1512H856L244 -75H559L694 275H1356L1493 -75H1810ZM1247 559H805L1028 1135L1247 559Z"  />
<glyph unicode="&#x411;" horiz-adv-x="2048" d="M758 187V617H1137Q1256 617 1325 558T1391 404Q1389 307 1328 247T1130 187H758ZM469 1514V-75H1137Q1247 -75 1345 -45T1518 41Q1592 98 1638 178T1692 361Q1698 464 1664 558T1557 724Q1484 796 1373 838T1114 881H758V1249H1587V1514H469Z"  />
<glyph unicode="&#x412;" horiz-adv-x="2048" d="M1491 774Q1523 795 1556 830T1613 913Q1638 961 1649 1022T1651 1155Q1640 1225 1601 1290T1496 1405Q1432 1454 1344 1484T1149 1514H455V-75H1151Q1270 -75 1371 -43T1548 49Q1623 107 1667 188T1718 365Q1722 447 1702 514T1647 634Q1613 685 1571 720T1491 774H1491ZM1108 893H762V1231H1110Q1215 1231 1276 1187T1337 1069Q1337 986 1277 940T1108 893H1108ZM1133 207H762V613H1141Q1210 613 1259 596T1341 550Q1372 522 1387 486T1403 412Q1403 372 1388 335T1339 270Q1306 241 1255 224T1133 207H1133Z"  />
<glyph unicode="&#x413;" horiz-adv-x="2048" d="M471 1516V-75H770V1247H1597V1516H471Z"  />
<glyph unicode="&#x414;" horiz-adv-x="2048" d="M473 185H336V-396H618V-75H1430V-396H1712V185H1571V1514H637Q637 1434 637 1346T634 1167Q632 1075 628 982T616 797Q608 706 597 619T567 454Q550 375 527 307T473 185H473ZM1280 185H791Q816 237 835 300T869 433Q884 503 893 578T909 728Q916 803 919 876T924 1015Q925 1082 925 1140T926 1245H1280V185Z"  />
<glyph unicode="&#x415;" horiz-adv-x="2048" d="M1612 -75V205L762 207V598H1550V875L762 877V1231H1593V1514H455V-75H1612Z"  />
<glyph unicode="&#x416;" horiz-adv-x="2048" d="M881 901L455 1516H123L606 819L10 -75H352L780 572L881 424V-75H1157V426L1255 572L1683 -75H2025L1430 819L1913 1516H1581L1157 905V1516H881V901Z"  />
<glyph unicode="&#x417;" horiz-adv-x="2048" d="M1331 754Q1364 770 1399 800T1463 875Q1491 919 1509 977T1528 1108Q1528 1199 1490 1282T1382 1430Q1313 1493 1217 1531T1004 1569Q890 1569 792 1531T624 1425Q553 1357 515 1265T481 1065H778Q775 1114 788 1158T829 1234Q858 1267 902 1286T1006 1305Q1066 1305 1109 1285T1179 1235Q1206 1204 1218 1167T1227 1096Q1222 1034 1193 993T1122 930Q1074 903 1014 895T883 887V611Q908 611 936 611T993 611Q1022 610 1051 606T1110 594Q1150 582 1181 560T1235 508Q1256 478 1266 444T1274 375Q1270 327 1250 286T1195 214Q1161 184 1113 167T1006 150Q943 150 892 168T806 221Q771 255 753 304T739 414H438Q432 291 475 191T596 19Q674 -52 780 -91T1008 -130Q1130 -130 1234 -91T1416 17Q1492 85 1535 177T1579 375Q1579 437 1559 495T1505 602Q1471 652 1426 691T1331 754H1331Z"  />
<glyph unicode="&#x418;" horiz-adv-x="2048" d="M393 -73H754L1362 1032V-73H1669V1524H1315L700 420V1524H393V-73Z"  />
<glyph unicode="&#x419;" horiz-adv-x="2048" d="M393 -73H754L1362 1032V-73H1669V1524H1315L700 420V1524H393V-73ZM1145 1860Q1137 1797 1103 1771T1032 1745Q996 1745 960 1772T909 1860H653Q674 1766 711 1703T800 1602Q850 1564 909 1548T1034 1532Q1097 1532 1157 1547T1266 1601Q1316 1639 1350 1702T1397 1860H1145Z"  />
<glyph unicode="&#x41A;" horiz-adv-x="2048" d="M1800 -77L1057 852Q1128 922 1206 1002T1365 1168Q1445 1255 1526 1344T1686 1524H1319Q1240 1434 1167 1354T1021 1199Q949 1123 874 1049T717 895V1524H408V-75H715V518L840 643L1427 -77H1800Z"  />
<glyph unicode="&#x41B;" horiz-adv-x="2048" d="M817 1247H1313V-75H1616V1512H526V361Q526 338 521 307T497 248Q479 219 445 200T354 180V-89Q491 -89 580 -54T723 42Q775 101 796 178T817 338V1247Z"  />
<glyph unicode="&#x41C;" horiz-adv-x="2048" d="M1780 -73V1516H1415L1016 330L612 1516H258V-73H561V824L848 -73H1188L1477 836V-73H1780Z"  />
<glyph unicode="&#x41D;" horiz-adv-x="2048" d="M1657 -75V1524H1343V901H707V1524H395V-75H707V617H1343V-75H1657Z"  />
<glyph unicode="&#x41E;" horiz-adv-x="2048" d="M1016 1555Q846 1555 710 1494T479 1323Q383 1214 332 1061T281 725Q281 540 332 386T479 122Q574 11 710 -50T1016 -111Q1185 -111 1322 -50T1556 122Q1652 232 1704 386T1757 725Q1757 908 1705 1061T1556 1323Q1459 1433 1322 1494T1016 1555H1016ZM1016 166Q918 166 841 207T710 323Q656 397 628 500T600 725Q600 845 628 946T710 1120Q764 1193 841 1233T1016 1274Q1113 1274 1191 1234T1325 1120Q1380 1047 1410 946T1440 725Q1440 603 1410 500T1325 323Q1270 249 1192 208T1016 166H1016Z"  />
<glyph unicode="&#x41F;" horiz-adv-x="2048" d="M705 1249H1331V-75H1636V1514H393V-75H705V1249Z"  />
<glyph unicode="&#x420;" horiz-adv-x="2048" d="M1110 1514H442V-75H750V492H1110Q1224 492 1324 533T1499 644Q1574 714 1617 807T1661 1006Q1661 1110 1618 1202T1499 1364Q1425 1433 1325 1473T1110 1514H1110ZM1071 772H750V1231H1071Q1119 1231 1168 1219T1256 1180Q1296 1154 1321 1111T1346 1006Q1346 940 1321 896T1256 823Q1217 796 1168 784T1071 772H1071Z"  />
<glyph unicode="&#x421;" horiz-adv-x="2048" d="M1442 479Q1425 424 1395 369T1318 268Q1272 223 1210 195T1067 166Q968 166 890 206T755 320Q700 393 671 496T641 725Q641 849 670 950T755 1124Q811 1195 889 1234T1067 1274Q1150 1274 1212 1247T1319 1178Q1363 1136 1390 1084T1432 981H1763Q1746 1071 1696 1171T1558 1358Q1472 1443 1347 1499T1057 1555Q886 1555 750 1494T518 1323Q423 1214 373 1061T322 725Q322 540 372 386T518 122Q614 11 750 -50T1057 -111Q1216 -111 1338 -58T1549 79Q1638 164 1692 269T1769 479H1442Z"  />
<glyph unicode="&#x422;" horiz-adv-x="2048" d="M1677 1233V1514H383V1233H872V-75H1182V1233H1677Z"  />
<glyph unicode="&#x423;" horiz-adv-x="2048" d="M1620 1514H1294L1012 760L733 1514H406L854 342L827 264Q815 225 780 198T698 170H567V-91H725Q772 -91 826 -84T934 -50Q979 -27 1023 20T1096 142L1620 1514Z"  />
<glyph unicode="&#x424;" horiz-adv-x="2048" d="M1161 1112Q1231 1104 1291 1074T1396 994Q1441 943 1466 875T1491 721Q1491 632 1465 563T1395 445Q1350 395 1290 367T1161 332V1112ZM889 332Q817 339 756 367T651 445Q607 494 582 563T557 721Q557 806 582 874T651 994Q695 1044 756 1074T889 1112V332ZM889 71V-75H1161V71Q1293 84 1405 137T1599 275Q1681 360 1727 473T1774 721Q1774 855 1727 969T1598 1170Q1516 1256 1404 1308T1161 1372V1516H889V1372Q757 1361 644 1309T449 1170Q367 1084 321 970T274 721Q274 586 320 472T448 271Q530 186 643 134T889 71H889Z"  />
<glyph unicode="&#x425;" horiz-adv-x="2048" d="M1757 -75L1208 760L1702 1524H1335L1024 1039L709 1524H340L842 756L295 -75H657L1022 486L1391 -75H1757Z"  />
<glyph unicode="&#x426;" horiz-adv-x="2048" d="M739 199V1516H449V-75H1468V-310H1761V197H1610V1516H1317V199H739Z"  />
<glyph unicode="&#x427;" horiz-adv-x="2048" d="M1651 -75V1516H1366V897Q1366 849 1332 807T1246 734Q1195 702 1136 684T1028 664Q967 662 904 667T789 699Q737 727 705 785T672 950V1516H387V875Q387 745 436 654T562 504Q640 445 736 418T926 387Q1004 384 1072 394T1196 422Q1252 439 1295 461T1366 506V-75H1651Z"  />
<glyph unicode="&#x428;" horiz-adv-x="2048" d="M1470 187H1165V1516H885V187H578V1516H299V-75H1749V1516H1470V187Z"  />
<glyph unicode="&#x429;" horiz-adv-x="2048" d="M1753 189V1516H1473V189H1167V1516H887V189H580V1516H299V-75H1634V-310H1911V189H1753Z"  />
<glyph unicode="&#x42A;" horiz-adv-x="2048" d="M922 647H1288Q1334 647 1378 633T1456 591Q1490 563 1511 521T1532 422Q1532 363 1511 320T1456 248Q1422 219 1378 205T1288 191H922V647ZM637 1256V-75H1288Q1405 -75 1504 -40T1674 61Q1745 126 1785 217T1825 422Q1825 532 1785 623T1674 779Q1603 844 1504 880T1288 916H922V1514H240V1256H637Z"  />
<glyph unicode="&#x42B;" horiz-adv-x="2048" d="M1501 1514V-75H1790V1514H1501ZM258 -75H911Q1029 -75 1128 -40T1300 61Q1371 126 1411 218T1452 424Q1452 535 1412 626T1300 783Q1228 848 1129 884T911 920H547V1514H258V-75ZM547 647H911Q957 647 1000 633T1078 591Q1111 564 1132 522T1153 424Q1153 366 1132 323T1078 252Q1044 223 1001 209T911 195H547V647Z"  />
<glyph unicode="&#x42C;" horiz-adv-x="2048" d="M455 -75H1106Q1224 -75 1323 -40T1494 61Q1566 126 1606 218T1647 424Q1647 535 1607 626T1494 783Q1422 848 1323 884T1106 920H741V1514H455V-75ZM741 647H1106Q1152 647 1195 633T1274 591Q1308 564 1329 522T1350 424Q1350 366 1329 323T1274 252Q1239 223 1196 209T1106 195H741V647Z"  />
<glyph unicode="&#x42D;" horiz-adv-x="2048" d="M698 586H1440Q1432 496 1400 418T1314 283Q1261 225 1189 193T1028 160Q897 160 799 216T657 406H352Q395 266 458 169T606 11Q690 -50 795 -77T1028 -105Q1193 -105 1325 -45T1551 125Q1643 234 1693 386T1743 721Q1743 904 1693 1056T1550 1318Q1457 1427 1324 1488T1026 1549Q769 1549 605 1422T350 1039H657Q708 1156 802 1222T1026 1288Q1114 1288 1187 1253T1313 1158Q1367 1098 1399 1019T1440 850H698V586Z"  />
<glyph unicode="&#x42E;" horiz-adv-x="2048" d="M1243 1266Q1322 1266 1388 1226T1503 1113Q1551 1040 1577 939T1604 717Q1604 595 1578 494T1503 321Q1455 248 1389 208T1243 168Q1162 168 1095 208T980 321Q932 393 906 494T879 717Q879 838 905 939T980 1113Q1028 1185 1095 1225T1243 1266H1243ZM475 586H608Q617 442 665 318T795 101Q877 10 990 -42T1243 -95Q1390 -95 1508 -36T1709 132Q1792 239 1837 388T1882 717Q1882 895 1837 1044T1709 1302Q1626 1410 1508 1470T1243 1530Q1103 1530 990 1477T795 1332Q713 1240 665 1116T608 848H475V1516H195V-77H475V586Z"  />
<glyph unicode="&#x42F;" horiz-adv-x="2048" d="M231 -77L610 -75L1047 529H1253V-75H1561V1514H895Q780 1514 680 1477T505 1375Q430 1311 387 1223T344 1034Q344 951 371 875T444 735Q491 672 553 626T686 559L231 -77ZM670 1034Q670 1084 691 1121T749 1182Q785 1207 834 1219T940 1231H1253V813H940Q884 813 835 827T749 871Q712 899 691 940T670 1034H670Z"  />
<glyph unicode="&#x430;" horiz-adv-x="2048" d="M1628 -70Q1625 -63 1619 -43T1606 6Q1599 33 1594 66T1589 131V756Q1589 848 1545 919T1425 1040Q1349 1089 1250 1115T1040 1141Q926 1141 826 1106T652 1011Q578 950 538 867T504 686H793Q790 728 809 763T864 825Q899 851 946 866T1047 881Q1157 881 1219 855T1282 793Q1282 768 1267 750T1230 720Q1207 707 1179 699T1124 686Q1094 680 1052 677T962 667Q914 661 862 651T760 625Q692 602 634 562T534 467Q493 412 474 344T465 197Q475 116 514 55T613 -44Q673 -83 749 -98T909 -105Q962 -100 1016 -85T1121 -48Q1171 -27 1213 -1T1284 52Q1288 15 1298 -16T1323 -70H1628ZM1286 416Q1288 383 1264 350T1202 287Q1165 258 1119 234T1032 195Q998 183 959 176T884 172Q848 175 820 190T780 238Q762 286 793 322T881 381Q905 391 939 398T1011 412Q1049 418 1088 424T1161 438Q1190 444 1224 455T1282 481L1286 416Z"  />
<glyph unicode="&#x431;" horiz-adv-x="2048" d="M879 1125Q885 1132 893 1139T909 1154Q917 1161 926 1168T944 1184Q957 1194 980 1203T1031 1220Q1057 1227 1082 1231T1124 1235Q1150 1234 1178 1232T1238 1230Q1270 1230 1307 1235T1389 1256Q1422 1266 1453 1285T1512 1342Q1539 1378 1559 1435T1591 1579H1313Q1305 1523 1268 1499T1190 1477Q1085 1483 981 1467T784 1383Q682 1308 619 1200T518 975Q497 912 485 856T467 747Q461 694 460 642T459 537Q459 406 497 292T607 93Q679 8 782 -40T1018 -89Q1149 -89 1253 -40T1429 95Q1502 181 1540 295T1579 541Q1579 667 1542 780T1433 978Q1362 1063 1258 1113T1020 1163Q983 1163 948 1154T879 1125H879ZM1018 185Q961 185 914 212T831 288Q797 336 778 401T758 541Q758 610 777 674T831 788Q865 838 913 867T1018 897Q1073 897 1121 868T1205 790Q1241 741 1261 677T1282 541Q1282 465 1262 400T1206 287Q1171 239 1123 212T1018 185H1018Z"  />
<glyph unicode="&#x432;" horiz-adv-x="2048" d="M1493 774Q1493 849 1464 914T1381 1028Q1327 1077 1252 1105T1083 1133H586V-75H1096Q1189 -75 1269 -50T1409 25Q1468 74 1502 144T1536 303Q1536 367 1518 413T1477 490Q1453 521 1430 538T1397 561Q1402 565 1417 581T1450 624Q1466 651 1479 689T1493 774H1493ZM1051 193H872V420H1075Q1121 420 1151 410T1200 385Q1218 370 1225 353T1233 320Q1231 290 1222 267T1193 227Q1172 210 1138 202T1051 193H1051ZM872 864H1051Q1132 864 1162 836T1192 774Q1192 738 1163 711T1061 684H872V864Z"  />
<glyph unicode="&#x433;" horiz-adv-x="2048" d="M897 836H1513V1098H608V-75H897V836Z"  />
<glyph unicode="&#x434;" horiz-adv-x="2048" d="M1276 -312H1571V197H1460V1098H711Q714 968 712 838T698 588Q687 469 667 368T614 197H483V-312H778V-75H1276V-312ZM1165 826V197H924Q949 252 963 337T985 514Q992 604 993 688T995 826H1165Z"  />
<glyph unicode="&#x435;" horiz-adv-x="2048" d="M1620 406Q1626 601 1580 741T1451 971Q1369 1060 1260 1102T1030 1145Q894 1145 784 1097T595 965Q517 881 475 766T432 514Q432 380 476 266T600 67Q680 -18 790 -65T1032 -113Q1160 -113 1254 -79T1415 13Q1481 71 1524 147T1595 307H1272Q1263 281 1243 254T1192 204Q1162 181 1121 167T1028 152Q972 152 923 175T836 235Q798 272 776 317T750 406H1620ZM754 662Q760 705 783 744T842 814Q878 843 925 861T1028 879Q1085 879 1133 861T1217 811Q1252 781 1273 742T1300 662H754Z"  />
<glyph unicode="&#x436;" horiz-adv-x="2048" d="M879 727L627 1098H299L631 602L221 -75H547L803 344L879 240V-75H1169V240L1245 344L1501 -75H1827L1417 602L1749 1098H1421L1169 723V1098H879V727Z"  />
<glyph unicode="&#x437;" horiz-adv-x="2048" d="M1319 541Q1335 551 1355 570T1393 618Q1410 646 1422 685T1434 776Q1434 852 1401 916T1312 1028Q1256 1074 1180 1100T1018 1127Q924 1127 846 1100T713 1022Q657 972 627 902T596 744V682H879Q879 769 909 814T1012 860Q1065 860 1103 833T1141 774Q1141 736 1125 712T1075 674Q1041 659 988 654T858 649V416Q910 416 966 413T1071 397Q1118 384 1149 357T1180 281Q1180 256 1167 235T1132 197Q1109 182 1080 173T1018 164Q925 164 886 220T846 377H559V314Q559 219 593 143T687 11Q748 -44 832 -73T1016 -103Q1118 -103 1201 -77T1344 -2Q1403 47 1435 116T1470 273Q1470 328 1455 372T1418 449Q1395 483 1369 505T1319 541H1319Z"  />
<glyph unicode="&#x438;" horiz-adv-x="2048" d="M1223 586V-75H1513V1098H1212L825 441V1098H535V-75H836L1223 586Z"  />
<glyph unicode="&#x439;" horiz-adv-x="2048" d="M1223 586V-75H1513V1098H1212L825 441V1098H535V-75H836L1223 586ZM1141 1442Q1132 1379 1103 1351T1032 1323Q995 1323 960 1352T913 1442H653Q674 1348 711 1285T799 1182Q849 1143 908 1127T1034 1110Q1097 1110 1157 1126T1266 1182Q1316 1221 1350 1284T1397 1442H1141Z"  />
<glyph unicode="&#x43A;" horiz-adv-x="2048" d="M872 1098H569V-77H872V279L928 342L1245 -77H1597L1122 547L1585 1098H1231L872 676V1098Z"  />
<glyph unicode="&#x43B;" horiz-adv-x="2048" d="M1235 -77H1534V1098H551V269Q551 260 548 246T532 216Q519 202 495 192T430 182V-91Q569 -91 652 -61T779 20Q823 70 836 133T850 264V830H1235V-77Z"  />
<glyph unicode="&#x43C;" horiz-adv-x="2048" d="M782 285L922 -77H1155L1294 285V-77H1579V1098H1317L1038 402L760 1098H498V-77H782V285Z"  />
<glyph unicode="&#x43D;" horiz-adv-x="2048" d="M1231 -75H1522V1098H1231V676H829V1098H541V-75H829V410H1231V-75Z"  />
<glyph unicode="&#x43E;" horiz-adv-x="2048" d="M1030 1139Q893 1139 784 1092T597 960Q520 876 479 761T438 512Q438 377 479 262T597 63Q674 -21 783 -68T1030 -116Q1167 -116 1277 -69T1464 63Q1541 147 1582 262T1624 512Q1624 646 1583 761T1464 960Q1387 1044 1277 1091T1030 1139H1030ZM1030 156Q965 156 913 182T824 256Q787 303 768 368T748 512Q748 589 767 654T824 765Q861 812 913 838T1030 864Q1093 864 1145 838T1235 765Q1272 719 1292 654T1313 512Q1313 434 1293 369T1235 256Q1198 209 1146 183T1030 156H1030Z"  />
<glyph unicode="&#x43F;" horiz-adv-x="2048" d="M1223 -77H1518V1098H528V-77H823V830H1223V-77Z"  />
<glyph unicode="&#x440;" horiz-adv-x="2048" d="M1260 1143Q1155 1143 1066 1109T909 1008V1096H602V-314H909V28Q976 -38 1065 -74T1260 -111Q1378 -111 1475 -65T1642 64Q1712 147 1750 262T1788 516Q1788 653 1750 768T1642 967Q1573 1050 1476 1096T1260 1143H1260ZM1194 154Q1128 154 1075 180T984 254Q947 302 927 368T907 516Q907 596 927 662T984 776Q1021 823 1074 849T1194 875Q1260 875 1312 849T1402 776Q1438 728 1457 662T1477 516Q1477 435 1458 369T1402 254Q1365 206 1313 180T1194 154H1194Z"  />
<glyph unicode="&#x441;" horiz-adv-x="2048" d="M1311 348Q1300 310 1278 276T1225 215Q1194 189 1154 174T1065 158Q999 158 947 184T857 257Q820 304 800 369T780 512Q780 589 799 654T856 767Q893 814 946 840T1065 867Q1120 867 1162 849T1235 802Q1265 774 1284 740T1313 676H1628Q1609 765 1564 848T1448 997Q1377 1062 1281 1101T1063 1141Q923 1141 814 1093T627 961Q551 877 511 762T471 512Q471 377 511 262T627 63Q704 -21 813 -68T1063 -116Q1182 -116 1276 -81T1440 17Q1509 80 1555 164T1628 346L1311 348Z"  />
<glyph unicode="&#x442;" horiz-adv-x="2048" d="M1171 834H1536V1098H518V834H881V-77H1171V834Z"  />
<glyph unicode="&#x443;" horiz-adv-x="2048" d="M1606 1098H1298L1024 418L756 1098H444L866 28L854 -9Q848 -29 834 -43T802 -67Q784 -76 764 -80T727 -85H596V-339H743Q780 -339 810 -338T864 -333Q894 -327 929 -314T1000 -277Q1035 -252 1067 -213T1122 -116L1606 1098Z"  />
<glyph unicode="&#x444;" horiz-adv-x="2048" d="M881 1034Q843 1061 790 1082T672 1104Q552 1104 461 1055T310 926Q249 845 219 743T188 535Q188 424 218 321T310 138Q371 59 461 12T672 -36Q729 -36 768 -25T831 1Q855 16 866 28T881 44V-312H1169V50Q1169 48 1180 35T1216 5Q1240 -11 1278 -23T1370 -36Q1485 -36 1576 7T1731 128Q1794 205 1828 309T1862 535Q1862 654 1831 758T1739 939Q1680 1015 1594 1059T1399 1104Q1321 1104 1266 1075T1169 1010V1448H881V1034ZM870 533Q870 465 854 406T811 303Q784 259 748 234T672 209Q630 209 595 234T533 303Q508 346 494 405T479 533Q479 599 493 658T533 761Q559 805 594 830T672 856Q714 856 750 831T813 762Q839 719 854 660T870 533H870ZM1573 533Q1573 464 1558 405T1515 302Q1489 258 1454 234T1378 209Q1336 209 1300 233T1237 302Q1210 345 1195 404T1180 533Q1180 600 1195 659T1237 762Q1263 805 1299 830T1378 856Q1418 856 1454 831T1516 762Q1542 718 1557 659T1573 533H1573Z"  />
<glyph unicode="&#x445;" horiz-adv-x="2048" d="M877 525L469 -75H811L1044 277L1280 -75H1622L1214 525L1599 1100H1264L1044 770L825 1100H492L877 525Z"  />
<glyph unicode="&#x446;" horiz-adv-x="2048" d="M1360 -329H1659V193H1528V1098H1229V195H844V1098H545V-75H1360V-329Z"  />
<glyph unicode="&#x447;" horiz-adv-x="2048" d="M1227 -77H1516V1098H1227V613Q1227 588 1209 563T1162 518Q1133 498 1095 486T1014 473Q984 473 950 481T888 512Q860 533 842 568T823 658V1098H535V619Q535 496 580 416T696 290Q766 243 848 225T1004 207Q1055 207 1095 218T1164 242Q1193 256 1208 268T1227 283V-77Z"  />
<glyph unicode="&#x448;" horiz-adv-x="2048" d="M502 -75H1583V1100H1296V191H1186V1100H899V191H788V1100H502V-75Z"  />
<glyph unicode="&#x449;" horiz-adv-x="2048" d="M1696 193H1575V1098H1288V191H1174V1098H889V191H776V1098H489V-75H1413V-314H1696V193Z"  />
<glyph unicode="&#x44A;" horiz-adv-x="2048" d="M1679 328Q1679 415 1648 487T1555 611Q1493 663 1401 692T1188 721H987V1098H406V826H688V-75H1204Q1297 -75 1381 -54T1530 13Q1594 58 1633 129T1679 299V328ZM1178 197H987V449H1180Q1219 449 1254 442T1316 421Q1342 406 1358 384T1374 330Q1371 258 1320 228T1178 197H1178Z"  />
<glyph unicode="&#x44B;" horiz-adv-x="2048" d="M1354 320Q1354 407 1322 480T1229 607Q1167 661 1076 691T864 721H659V1098H362V-75H881Q971 -75 1054 -55T1201 9Q1266 54 1306 124T1354 295V320ZM1659 -75V1098H1374V-75H1659ZM854 197H659V449H856Q894 449 928 442T989 420Q1016 405 1031 382T1047 326Q1043 255 992 226T854 197H854Z"  />
<glyph unicode="&#x44C;" horiz-adv-x="2048" d="M1524 324Q1524 410 1492 483T1398 609Q1336 661 1244 691T1032 721H827V1098H530V-75H1051Q1142 -75 1225 -54T1373 13Q1438 58 1478 129T1524 299V324ZM1022 197H827V449H1024Q1061 449 1096 443T1159 422Q1186 408 1202 386T1219 330Q1215 259 1162 228T1022 197H1022Z"  />
<glyph unicode="&#x44D;" horiz-adv-x="2048" d="M741 647V377H1290Q1287 345 1268 305T1213 230Q1178 194 1129 170T1018 146Q968 146 930 162T863 204Q835 229 818 257T795 309H485Q505 226 547 150T655 15Q722 -43 813 -78T1024 -113Q1156 -113 1262 -64T1442 70Q1516 154 1555 267T1595 508Q1595 635 1556 748T1442 947Q1368 1031 1262 1081T1024 1131Q890 1131 798 1098T644 1007Q582 950 544 873T479 709H793Q797 725 812 752T855 804Q882 830 922 848T1018 867Q1079 867 1127 843T1211 784Q1245 750 1264 712T1286 647H741Z"  />
<glyph unicode="&#x44E;" horiz-adv-x="2048" d="M733 660V1098H446V-77H733V381H778Q785 289 819 202T913 46Q973 -22 1055 -63T1241 -105Q1351 -105 1438 -54T1586 83Q1646 169 1678 281T1710 516Q1710 637 1678 750T1586 950Q1526 1036 1439 1088T1243 1141Q1141 1141 1060 1100T921 991Q862 924 827 838T780 660H733ZM1055 516Q1055 592 1069 658T1109 775Q1135 825 1168 854T1241 883Q1279 883 1312 854T1370 774Q1394 724 1408 658T1423 516Q1423 441 1409 375T1371 257Q1347 207 1314 178T1241 148Q1202 148 1168 177T1109 257Q1083 308 1069 374T1055 516H1055Z"  />
<glyph unicode="&#x44F;" horiz-adv-x="2048" d="M1139 -77H1438V1098H924Q831 1098 751 1072T610 997Q550 948 516 877T481 713Q481 638 501 577T553 470Q583 424 618 397T682 363L383 -77H733L1001 320H1139V-77ZM1139 826V590H969Q933 590 900 596T840 618Q815 632 800 655T784 711Q784 771 834 798T969 826H1139Z"  />
<glyph unicode="&#x451;" horiz-adv-x="2048" d="M1620 404Q1626 600 1580 740T1451 971Q1369 1060 1260 1102T1030 1145Q894 1145 784 1097T595 964Q517 880 475 765T432 514Q432 380 476 265T600 65Q680 -20 790 -68T1032 -116Q1160 -116 1254 -82T1415 12Q1481 70 1524 146T1595 307H1272Q1263 281 1243 254T1192 205Q1162 182 1121 168T1028 154Q972 154 923 177T836 236Q798 272 776 316T750 404H1620ZM754 662Q760 705 783 744T842 814Q878 843 925 861T1028 879Q1085 879 1133 861T1217 811Q1252 781 1273 742T1300 662H754ZM791 1510Q757 1510 728 1497T676 1462Q654 1439 642 1410T629 1348Q629 1315 641 1286T676 1234Q698 1211 727 1199T791 1186Q823 1186 852 1198T902 1234Q924 1256 937 1285T950 1348Q950 1381 937 1410T902 1462Q881 1484 852 1497T791 1510H791ZM1255 1510Q1222 1510 1193 1497T1141 1462Q1119 1439 1107 1410T1094 1348Q1094 1315 1106 1286T1141 1234Q1163 1211 1192 1199T1255 1186Q1287 1186 1316 1198T1367 1234Q1389 1256 1402 1285T1415 1348Q1415 1381 1402 1410T1367 1462Q1345 1484 1316 1497T1255 1510H1255Z"  />
<glyph unicode="&#x2015;" horiz-adv-x="2048" d="M1860 484V924H201V484H1860Z"  />
<glyph unicode="&#x2018;" horiz-adv-x="776" d="M233 1753Q226 1744 220 1734T206 1712Q199 1701 192 1689T176 1663Q150 1612 137 1569T119 1487Q113 1448 113 1413T113 1342V746H676V1295H430Q429 1331 429 1371T442 1448Q455 1485 489 1514T592 1561L635 1753H233Z"  />
<glyph unicode="&#x2019;" horiz-adv-x="776" d="M604 750Q611 759 617 768T631 790Q638 801 645 813T662 840Q687 890 700 933T718 1015Q724 1054 724 1089T725 1161V1757H164V1209H248Q248 1171 242 1131T213 1054Q191 1017 150 988T41 942L203 750H604Z"  />
<glyph unicode="&#x201C;" horiz-adv-x="1401" d="M864 1753Q857 1744 850 1734T837 1712Q830 1701 823 1689T807 1663Q781 1612 768 1569T749 1487Q743 1448 743 1413T743 1342V746H1307V1295H1061Q1060 1331 1060 1371T1072 1448Q1086 1485 1120 1514T1223 1561L1266 1753H864ZM209 1753Q201 1744 195 1734T181 1712Q174 1701 167 1689T152 1663Q126 1612 113 1569T94 1487Q88 1448 88 1413T88 1342V746H651V1295H406Q404 1331 404 1371T417 1448Q430 1485 464 1514T567 1561L610 1753H209Z"  />
<glyph unicode="&#x201D;" horiz-adv-x="1401" d="M690 938L848 750H1249Q1256 759 1262 768T1276 790Q1283 801 1290 813T1307 840Q1332 890 1345 933T1363 1015Q1369 1054 1369 1089T1370 1161V1757H809V1209H893Q893 1172 887 1132T859 1056Q837 1019 798 990T692 944Q701 975 705 1003T712 1058Q714 1085 714 1110T715 1161V1757H154V1209H238Q238 1171 232 1131T203 1054Q181 1017 140 988T31 942L193 750H594Q600 759 607 768T621 790Q627 801 634 813T651 840Q665 867 674 892T690 938H690Z"  />
<glyph unicode="&#x2020;" horiz-adv-x="2048" d="M1600 1010V1178H1128V1658H952V1178H476V1010H952V-238H1128V1010H1600Z"  />
<glyph unicode="&#x2021;" horiz-adv-x="2048" d="M1588 1194V1362H1120V1646H944V1362H484V1194H944V1030H532V862H944V-250H1120V862H1544V1030H1120V1194H1588Z"  />
<glyph unicode="&#x2025;" horiz-adv-x="2048" d="M881 453V1012H313V453H881ZM1745 453V1012H1178V453H1745Z"  />
<glyph unicode="&#x2026;" horiz-adv-x="2048" d="M1950 453V1012H1432V453H1950ZM626 453V1012H109V453H626ZM773 1012V453H1290V1012H773Z"  />
<glyph unicode="&#x2030;" horiz-adv-x="2048" d="M1292 1553L18 -97H256L1522 1553H1292ZM625 1518Q552 1515 483 1487T355 1410Q295 1361 249 1296T176 1155Q146 1080 151 1011T190 889Q224 836 281 807T412 783Q482 786 548 814T670 890Q727 937 771 1000T844 1137Q877 1216 876 1286T845 1409Q816 1461 760 1490T625 1518H625ZM614 1321Q641 1321 647 1284T627 1176Q607 1141 578 1106T517 1044Q485 1016 455 999T403 981Q379 981 372 1019T395 1120Q413 1157 441 1193T501 1257Q532 1286 562 1303T614 1321H614ZM1081 672Q1007 669 938 641T811 565Q752 517 706 453T633 314Q604 237 610 167T649 45Q682 -7 739 -36T870 -60Q940 -57 1006 -28T1130 49Q1187 96 1232 159T1307 297Q1337 376 1335 445T1302 567Q1271 618 1215 646T1081 672H1081ZM1075 477Q1101 477 1106 440T1083 330Q1065 296 1037 261T976 198Q945 170 914 153T862 135Q835 135 830 173T852 281Q870 316 899 351T959 414Q991 442 1021 459T1075 477H1075ZM1792 672Q1718 669 1650 641T1523 565Q1464 517 1419 453T1346 314Q1317 237 1323 167T1363 45Q1397 -7 1454 -36T1585 -60Q1655 -57 1720 -29T1843 47Q1899 94 1944 158T2019 297Q2049 376 2047 445T2015 567Q1984 618 1928 646T1792 672H1792ZM1788 477Q1812 477 1818 439T1796 330Q1778 296 1749 261T1689 198Q1657 170 1627 153T1575 135Q1551 135 1544 174T1563 281Q1582 316 1612 351T1674 414Q1705 442 1735 459T1788 477H1788Z"  />
<glyph unicode="&#x2032;" horiz-adv-x="870" d="M771 1737H270L112 900L437 799L771 1737Z"  />
<glyph unicode="&#x2033;" horiz-adv-x="1249" d="M653 1737H202L44 900L319 799L653 1737ZM1210 1737H759L601 900L876 799L1210 1737Z"  />
<glyph unicode="&#x203B;" horiz-adv-x="2048" d="M1038 973L367 1645L117 1395L788 723L117 52L367 -197L1038 473L1710 -197L1960 52L1288 723L1960 1395L1710 1645L1038 973ZM1028 1755Q976 1755 931 1736T851 1682Q817 1648 798 1603T778 1505Q778 1453 797 1408T851 1329Q885 1295 930 1276T1028 1256Q1080 1256 1125 1275T1205 1329Q1238 1362 1258 1407T1278 1505Q1278 1557 1258 1602T1205 1682Q1171 1716 1126 1735T1028 1755H1028ZM1028 209Q976 209 931 190T851 137Q817 103 798 58T778 -40Q778 -92 797 -137T851 -217Q885 -251 930 -270T1028 -290Q1080 -290 1125 -271T1205 -217Q1238 -183 1258 -138T1278 -40Q1278 12 1258 57T1205 137Q1171 170 1126 189T1028 209H1028ZM4 731Q4 679 23 634T76 554Q110 520 155 501T254 481Q305 481 350 500T430 554Q464 588 484 633T504 731Q504 783 484 828T430 908Q396 942 351 961T254 981Q201 981 156 962T76 908Q43 874 24 829T4 731H4ZM1550 731Q1550 679 1569 634T1622 554Q1656 520 1701 501T1800 481Q1851 481 1896 500T1976 554Q2010 588 2030 633T2050 731Q2050 783 2030 828T1976 908Q1942 942 1897 961T1800 981Q1747 981 1702 962T1622 908Q1589 874 1570 829T1550 731H1550Z"  />
<glyph unicode="&#x2074;" horiz-adv-x="819" d="M762 821V1026H655V1651H444L55 1032V821H442V686H655V821H762ZM442 1258V1026H295L442 1258Z"  />
<glyph unicode="&#x207F;" horiz-adv-x="819" d="M264 1581V1632H18V711H258V1258Q258 1294 270 1327T305 1386Q327 1412 357 1427T422 1442Q459 1442 484 1428T525 1391Q540 1368 546 1338T553 1274V711H801V1329Q801 1385 782 1443T721 1549Q680 1596 616 1626T463 1657Q395 1657 346 1636T264 1581H264Z"  />
<glyph unicode="&#x2081;" horiz-adv-x="819" d="M594 -181V783H383Q383 739 364 708T330 666Q311 650 263 640T162 629V428H360V-181H594Z"  />
<glyph unicode="&#x2082;" horiz-adv-x="819" d="M358 46Q361 48 364 52T372 62Q377 67 384 74T403 89L580 207Q608 227 640 251T699 310Q726 343 744 387T762 492Q762 551 739 607T672 707Q628 750 564 776T418 803Q331 803 266 773T156 691Q113 639 92 572T74 430H303Q301 508 331 554T418 600Q469 600 499 566T526 490Q524 451 491 421T422 365L266 260Q194 210 154 156T93 48Q73 -7 68 -60T63 -161H758V46H358Z"  />
<glyph unicode="&#x2083;" horiz-adv-x="819" d="M664 322Q670 328 684 341T712 377Q726 400 737 434T748 516Q748 573 724 624T656 715Q612 753 551 776T414 799Q340 799 278 776T171 708Q127 665 103 603T82 465H315Q309 528 335 562T416 596Q467 596 492 568T514 510Q509 490 495 469T465 438Q457 433 441 429T403 422Q382 419 359 418T315 416V223Q330 223 352 223T397 220Q419 219 438 216T467 209Q496 195 518 169T541 116Q541 76 505 47T416 18Q357 18 322 53T293 162H57Q54 77 80 11T156 -101Q205 -146 272 -169T416 -193Q495 -193 561 -170T675 -105Q722 -64 749 -8T776 114Q776 154 764 189T734 252Q716 279 697 297T664 322H664Z"  />
<glyph unicode="&#x2084;" horiz-adv-x="819" d="M762 -46V158H655V783H444L55 164V-46H442V-181H655V-46H762ZM442 389V158H295L442 389Z"  />
<glyph unicode="&#x2103;" horiz-adv-x="2048" d="M1578 594Q1552 489 1523 419T1461 307Q1428 265 1393 248T1318 230Q1258 230 1206 264T1114 367Q1075 435 1053 537T1030 774Q1030 877 1048 973T1102 1145Q1138 1220 1190 1265T1310 1310Q1349 1310 1384 1294T1451 1238Q1482 1199 1510 1136T1562 978L1966 1098Q1939 1219 1881 1316T1738 1481Q1654 1549 1546 1585T1310 1622Q1130 1622 995 1550T770 1359Q680 1240 635 1087T590 770Q590 602 632 446T762 170Q850 50 986 -22T1310 -94Q1431 -94 1535 -60T1724 41Q1808 107 1870 201T1970 414L1578 594ZM628 1392Q628 1447 608 1495T552 1579Q517 1614 469 1634T366 1655Q310 1655 263 1635T179 1579Q144 1543 124 1495T104 1392Q104 1336 124 1289T179 1205Q215 1170 262 1150T366 1130Q421 1130 469 1150T552 1205Q587 1241 607 1288T628 1392H628ZM462 1392Q462 1350 434 1321T366 1292Q330 1292 300 1321T270 1392Q270 1434 300 1463T366 1493Q405 1493 433 1464T462 1392H462Z"  />
<glyph unicode="&#x2109;" horiz-adv-x="2048" d="M1852 1296V1522H920V70H1170V680H1788V910H1170V1296H1852ZM532 1250Q532 1208 508 1177T436 1146Q388 1146 364 1177T340 1250Q337 1286 363 1314T432 1342Q483 1342 507 1316T532 1250ZM660 1250Q660 1289 644 1328T598 1399Q568 1430 526 1450T432 1470Q381 1470 340 1450T271 1397Q242 1365 227 1326T212 1250Q212 1211 227 1171T271 1099Q299 1066 340 1046T432 1026Q486 1026 528 1046T600 1099Q629 1131 644 1171T660 1250Z"  />
<glyph unicode="&#x2113;" horiz-adv-x="2048" d="M1481 106L1296 254Q1260 177 1227 133T1167 79Q1144 68 1115 74T1067 108Q1111 148 1156 208T1242 353Q1282 437 1315 547T1368 799Q1391 967 1384 1113T1338 1366Q1299 1474 1231 1533T1065 1589Q975 1583 898 1523T763 1360Q706 1257 672 1119T635 821Q629 647 644 487T725 195Q719 193 694 189T636 179Q604 174 572 170T522 164L610 -56Q700 -53 751 -40T842 -5Q875 -54 918 -88T1009 -141Q1057 -160 1105 -164T1198 -156Q1244 -144 1281 -125T1351 -76Q1384 -46 1415 -2T1481 106H1481ZM1061 1352Q1093 1353 1111 1306T1136 1183Q1143 1107 1141 1012T1128 821Q1119 738 1098 659T1051 512Q1024 445 995 393T938 314Q927 330 916 385T896 515Q887 589 883 670T881 819Q884 907 900 1000T942 1171Q967 1249 997 1299T1061 1352H1061Z"  />
<glyph unicode="&#x2116;" horiz-adv-x="2048" d="M289 989L686 20H963V1450H729V479L332 1450H57V20H289V989ZM1815 502Q1815 604 1787 695T1707 854Q1654 922 1579 962T1407 1002Q1311 1002 1236 962T1108 854Q1056 786 1029 695T1001 502Q1001 399 1028 308T1108 149Q1161 81 1236 42T1407 3Q1503 3 1578 42T1707 149Q1759 217 1787 308T1815 502H1815ZM1593 502Q1593 439 1581 387T1544 297Q1520 259 1486 238T1407 217Q1362 217 1328 238T1270 298Q1247 336 1235 388T1223 502Q1223 561 1235 613T1271 703Q1294 742 1328 764T1407 787Q1451 787 1485 765T1544 703Q1568 665 1580 613T1593 502H1593ZM2023 95Q2023 123 2012 149T1980 196Q1961 216 1935 228T1880 240Q1850 240 1824 228T1777 196Q1757 176 1746 150T1735 95Q1735 65 1746 39T1777 -6Q1797 -25 1823 -35T1880 -46Q1909 -46 1935 -36T1980 -6Q2000 13 2011 39T2023 95H2023Z"  />
<glyph unicode="&#x2121;" horiz-adv-x="2048" d="M463 1290V-75H698V1290H1100V1516H61V1290H463ZM1212 1110Q1104 1110 1019 1062T874 931Q815 848 784 739T752 506Q752 381 785 271T880 79Q941 -4 1026 -51T1214 -99Q1316 -99 1390 -69T1516 13Q1567 65 1599 133T1649 279H1405Q1396 249 1381 221T1342 169Q1318 146 1286 132T1212 118Q1171 118 1132 144T1062 212Q1031 255 1011 308T989 418H1675Q1677 593 1641 723T1541 939Q1477 1025 1392 1067T1212 1110H1212ZM997 623Q1001 680 1018 729T1064 814Q1092 850 1129 870T1212 891Q1260 891 1299 868T1366 806Q1394 768 1410 720T1430 623H997ZM1718 1516V-75H1954V1516H1718Z"  />
<glyph unicode="&#x2122;" horiz-adv-x="2048" d="M1139 1125L1309 654H1458L1624 1137V654H1810V1542H1569L1382 1004L1184 1542H954V654H1139V1125ZM446 1370V654H641V1370H915V1542H168V1370H446Z"  />
<glyph unicode="&#x2126;" horiz-adv-x="2048" d="M1657 862Q1657 1012 1609 1140T1475 1363Q1388 1457 1269 1510T1006 1563Q863 1563 744 1507T537 1355Q450 1258 402 1129T354 854Q354 725 384 619T467 430Q520 349 592 293T748 207V142H463V-75H887Q942 -75 959 -44T977 28L979 273Q979 283 979 300T973 335Q966 354 950 371T901 402Q742 465 673 577T604 858Q604 964 633 1050T716 1199Q769 1261 843 1295T1006 1329Q1097 1329 1171 1297T1299 1204Q1352 1143 1381 1057T1411 864Q1411 771 1388 695T1327 562Q1288 504 1237 466T1128 412Q1099 402 1082 391T1056 364Q1047 349 1045 327T1042 275V28Q1042 -17 1061 -46T1130 -75H1571V142H1270V213Q1345 241 1414 299T1538 441Q1592 525 1624 631T1657 862H1657Z"  />
<glyph unicode="&#x212B;" horiz-adv-x="2048" d="M1288 1542Q1288 1597 1268 1645T1212 1729Q1177 1764 1129 1784T1026 1805Q970 1805 923 1785T839 1729Q804 1693 784 1645T764 1542Q764 1486 784 1439T839 1355Q875 1320 922 1300T1026 1280Q1081 1280 1129 1300T1212 1355Q1247 1391 1267 1438T1288 1542H1288ZM1122 1542Q1122 1500 1094 1471T1026 1442Q990 1442 960 1471T930 1542Q930 1584 960 1613T1026 1643Q1065 1643 1093 1614T1122 1542H1122ZM844 430L1026 897L1208 430H844ZM750 193H1303L1417 -97H1690L1167 1217H883L365 -97H633L750 193Z"  />
<glyph unicode="&#x2153;" horiz-adv-x="2048" d="M1761 340Q1768 346 1782 359T1810 396Q1824 419 1834 453T1845 535Q1845 592 1821 643T1753 733Q1709 771 1648 794T1511 817Q1437 817 1376 794T1269 727Q1225 683 1201 622T1180 484H1413Q1407 547 1433 581T1513 615Q1565 615 1590 587T1612 529Q1607 508 1593 487T1563 457Q1555 452 1538 448T1500 441Q1479 437 1456 436T1413 434V242Q1428 242 1450 242T1495 239Q1517 238 1536 235T1565 228Q1594 213 1616 187T1638 133Q1638 94 1603 65T1513 36Q1455 36 1420 71T1391 180H1155Q1152 95 1178 29T1254 -83Q1303 -128 1369 -151T1513 -175Q1592 -175 1658 -152T1772 -87Q1820 -46 1847 10T1874 131Q1874 172 1862 207T1832 271Q1814 298 1795 316T1761 340H1761ZM330 -156L1792 1528L1645 1659L195 -13L330 -156ZM637 686V1651H426Q426 1608 407 1577T373 1534Q354 1519 306 1508T205 1497V1297H403V686H637Z"  />
<glyph unicode="&#x2154;" horiz-adv-x="2048" d="M395 914Q398 916 401 920T409 929Q414 935 421 942T440 957L616 1075Q644 1096 676 1120T736 1178Q763 1211 781 1255T799 1360Q799 1420 776 1476T709 1575Q665 1618 601 1644T455 1671Q368 1671 303 1641T193 1559Q149 1508 128 1441T111 1299H340Q338 1377 368 1423T455 1469Q506 1469 536 1434T563 1358Q561 1319 528 1289T459 1233L303 1129Q231 1079 191 1025T130 916Q110 861 105 808T100 707H795V914H395ZM1761 340Q1768 346 1782 359T1810 396Q1824 419 1834 453T1845 535Q1845 592 1821 643T1753 733Q1709 771 1648 794T1511 817Q1437 817 1376 794T1269 727Q1225 683 1201 622T1180 484H1413Q1407 547 1433 581T1513 615Q1565 615 1590 587T1612 529Q1607 508 1593 487T1563 457Q1555 452 1538 448T1500 441Q1479 437 1456 436T1413 434V242Q1428 242 1450 242T1495 239Q1517 238 1536 235T1565 228Q1594 213 1616 187T1638 133Q1638 94 1603 65T1513 36Q1455 36 1420 71T1391 180H1155Q1152 95 1178 29T1254 -83Q1303 -128 1369 -151T1513 -175Q1592 -175 1658 -152T1772 -87Q1820 -46 1847 10T1874 131Q1874 172 1862 207T1832 271Q1814 298 1795 316T1761 340H1761ZM330 -156L1792 1528L1645 1659L195 -13L330 -156Z"  />
<glyph unicode="&#x215B;" horiz-adv-x="2048" d="M1761 344Q1793 364 1821 415T1849 539Q1849 597 1823 648T1749 737Q1703 775 1639 797T1501 819Q1427 819 1364 797T1254 737Q1208 699 1182 648T1155 539Q1155 467 1183 416T1245 342Q1199 319 1162 262T1124 121Q1124 56 1152 1T1232 -95Q1283 -135 1352 -158T1501 -181Q1581 -181 1650 -158T1772 -95Q1823 -54 1852 1T1882 121Q1882 205 1845 262T1761 344H1761ZM330 -156L1792 1528L1645 1659L195 -13L330 -156ZM637 686V1651H426Q426 1608 407 1577T373 1534Q354 1519 306 1508T205 1497V1297H403V686H637ZM1501 441Q1442 441 1417 468T1391 527Q1391 555 1416 584T1501 613Q1558 613 1586 585T1614 527Q1614 496 1586 469T1501 441H1501ZM1501 26Q1436 26 1401 59T1366 131Q1366 169 1401 203T1501 238Q1533 238 1558 228T1602 203Q1620 188 1630 169T1640 131Q1640 92 1603 59T1501 26H1501Z"  />
<glyph unicode="&#x215C;" horiz-adv-x="2048" d="M1761 344Q1793 364 1821 415T1849 539Q1849 597 1823 648T1749 737Q1703 775 1639 797T1501 819Q1427 819 1364 797T1254 737Q1208 699 1182 648T1155 539Q1155 467 1183 416T1245 342Q1199 319 1162 262T1124 121Q1124 56 1152 1T1232 -95Q1283 -135 1352 -158T1501 -181Q1581 -181 1650 -158T1772 -95Q1823 -54 1852 1T1882 121Q1882 205 1845 262T1761 344H1761ZM745 1190Q752 1196 766 1209T794 1245Q808 1269 818 1303T829 1385Q829 1442 805 1493T737 1583Q693 1621 632 1644T496 1667Q422 1667 360 1644T253 1576Q209 1533 185 1471T164 1333H397Q391 1396 417 1430T498 1465Q549 1465 574 1436T596 1379Q591 1358 577 1337T547 1307Q539 1302 523 1298T485 1291Q464 1287 441 1286T397 1284V1092Q412 1092 434 1091T479 1089Q501 1087 520 1084T549 1077Q578 1063 600 1037T623 983Q623 943 587 914T498 885Q439 885 404 920T375 1030H139Q136 944 162 878T238 766Q287 721 354 698T498 674Q577 674 643 697T757 762Q804 803 831 859T858 981Q858 1022 846 1057T816 1121Q798 1148 779 1166T745 1190H745ZM330 -156L1792 1528L1645 1659L195 -13L330 -156ZM1501 441Q1442 441 1417 468T1391 527Q1391 555 1416 584T1501 613Q1558 613 1586 585T1614 527Q1614 496 1586 469T1501 441H1501ZM1501 26Q1436 26 1401 59T1366 131Q1366 169 1401 203T1501 238Q1533 238 1558 228T1602 203Q1620 188 1630 169T1640 131Q1640 92 1603 59T1501 26H1501Z"  />
<glyph unicode="&#x215D;" horiz-adv-x="2048" d="M1761 344Q1793 364 1821 415T1849 539Q1849 597 1823 648T1749 737Q1703 775 1639 797T1501 819Q1427 819 1364 797T1254 737Q1208 699 1182 648T1155 539Q1155 467 1183 416T1245 342Q1199 319 1162 262T1124 121Q1124 56 1152 1T1232 -95Q1283 -135 1352 -158T1501 -181Q1581 -181 1650 -158T1772 -95Q1823 -54 1852 1T1882 121Q1882 205 1845 262T1761 344H1761ZM639 1344Q607 1353 575 1353T516 1351Q488 1348 469 1343T442 1336L457 1422H829V1635H254L174 1106H410Q426 1130 457 1143T516 1157Q568 1157 604 1119T637 1020Q631 963 594 927T512 891Q467 891 432 922T387 1012H156Q161 945 187 885T260 778Q305 732 368 705T512 678Q579 678 643 701T759 769Q810 813 841 877T872 1022Q872 1098 853 1152T800 1245Q768 1283 726 1306T639 1344H639ZM330 -156L1792 1528L1645 1659L195 -13L330 -156ZM1501 441Q1442 441 1417 468T1391 527Q1391 555 1416 584T1501 613Q1558 613 1586 585T1614 527Q1614 496 1586 469T1501 441H1501ZM1501 26Q1436 26 1401 59T1366 131Q1366 169 1401 203T1501 238Q1533 238 1558 228T1602 203Q1620 188 1630 169T1640 131Q1640 92 1603 59T1501 26H1501Z"  />
<glyph unicode="&#x215E;" horiz-adv-x="2048" d="M1761 344Q1793 364 1821 415T1849 539Q1849 597 1823 648T1749 737Q1703 775 1639 797T1501 819Q1427 819 1364 797T1254 737Q1208 699 1182 648T1155 539Q1155 467 1183 416T1245 342Q1199 319 1162 262T1124 121Q1124 56 1152 1T1232 -95Q1283 -135 1352 -158T1501 -181Q1581 -181 1650 -158T1772 -95Q1823 -54 1852 1T1882 121Q1882 205 1845 262T1761 344H1761ZM330 -156L1792 1528L1645 1659L195 -13L330 -156ZM940 1635H231V1417H662Q647 1400 629 1380T589 1329Q568 1299 543 1257T487 1153Q454 1087 431 1017T392 882Q376 818 368 765T358 680H614Q614 720 623 780T650 908Q666 975 688 1042T735 1163Q757 1212 786 1255T843 1334Q872 1369 897 1395T940 1438V1635ZM1501 441Q1442 441 1417 468T1391 527Q1391 555 1416 584T1501 613Q1558 613 1586 585T1614 527Q1614 496 1586 469T1501 441H1501ZM1501 26Q1436 26 1401 59T1366 131Q1366 169 1401 203T1501 238Q1533 238 1558 228T1602 203Q1620 188 1630 169T1640 131Q1640 92 1603 59T1501 26H1501Z"  />
<glyph unicode="&#x2160;" horiz-adv-x="2048" d="M1165 -68V1538H881V-68H1165Z"  />
<glyph unicode="&#x2161;" horiz-adv-x="2048" d="M1538 -68V1538H1255V-68H1538ZM795 -68V1538H512V-68H795Z"  />
<glyph unicode="&#x2162;" horiz-adv-x="2048" d="M883 1538V-68H1165V1538H883ZM422 1538V-68H702V1538H422ZM1346 1538V-68H1626V1538H1346Z"  />
<glyph unicode="&#x2163;" horiz-adv-x="2048" d="M1823 1540H1520L1231 377L940 1540H637L1067 -66H1395L1823 1540ZM592 -66V1540H307V-66H592Z"  />
<glyph unicode="&#x2164;" horiz-adv-x="2048" d="M1763 1542H1450L1030 295L608 1542H295L866 -64H1192L1763 1542Z"  />
<glyph unicode="&#x2165;" horiz-adv-x="2048" d="M1767 -66V1540H1483V-66H1767ZM1438 1540H1135L846 377L555 1540H252L680 -66H1008L1438 1540Z"  />
<glyph unicode="&#x2166;" horiz-adv-x="2048" d="M1870 -66V1540H1606V-66H1870ZM1526 -66V1540H1264V-66H1526ZM1217 1540H913L686 398L455 1540H152L520 -66H848L1217 1540Z"  />
<glyph unicode="&#x2167;" horiz-adv-x="2048" d="M1325 1538H1085V-66H1325V1538ZM393 -66H719L1026 1538H766L555 387L344 1538H84L393 -66ZM1649 1538H1409V-66H1649V1538ZM1970 1538H1729V-66H1970V1538Z"  />
<glyph unicode="&#x2168;" horiz-adv-x="2048" d="M1368 735L1841 1553H1524L1208 1008L891 1553H573L1049 735L573 -85H891L1208 461L1528 -85H1845L1368 735ZM205 1553V-85H492V1553H205Z"  />
<glyph unicode="&#x2169;" horiz-adv-x="2048" d="M1202 764L1739 1553H1421L1044 998L666 1553H348L885 764L307 -85H625L1044 531L1466 -85H1784L1202 764Z"  />
<glyph unicode="&#x2170;" horiz-adv-x="2048" d="M1165 1260V1542H881V1260H1165ZM1165 -64V1102H881V-64H1165Z"  />
<glyph unicode="&#x2171;" horiz-adv-x="2048" d="M1536 1260V1542H1253V1260H1536ZM793 1260V1542H510V1260H793ZM1536 -64V1102H1253V-64H1536ZM793 -64V1102H510V-64H793Z"  />
<glyph unicode="&#x2172;" horiz-adv-x="2048" d="M1165 -64V1102H883V-64H1165ZM1165 1260V1542H883V1260H1165ZM1645 -64V1102H1364V-64H1645ZM1645 1260V1542H1364V1260H1645ZM682 -64V1102H401V-64H682ZM682 1260V1542H401V1260H682Z"  />
<glyph unicode="&#x2173;" horiz-adv-x="2048" d="M618 1258V1540H336V1258H618ZM1757 1098H1448L1204 316L961 1098H651L1042 -46H1366L1757 1098ZM618 -66V1098H336V-66H618Z"  />
<glyph unicode="&#x2174;" horiz-adv-x="2048" d="M1573 1096H1266L1022 312L776 1096H469L860 -50H1182L1573 1096Z"  />
<glyph unicode="&#x2175;" horiz-adv-x="2048" d="M1710 1258V1540H1427V1258H1710ZM1395 1098H1085L844 316L598 1098H289L680 -46H1004L1395 1098ZM1710 -66V1098H1427V-66H1710Z"  />
<glyph unicode="&#x2176;" horiz-adv-x="2048" d="M1831 1258V1540H1569V1258H1831ZM1489 1258V1540H1225V1258H1489ZM1196 1100H907L694 328L479 1100H190L530 -46H854L1196 1100ZM1831 -66V1100H1569V-66H1831ZM1489 -66V1100H1225V-66H1489Z"  />
<glyph unicode="&#x2177;" horiz-adv-x="2048" d="M1278 -66V1100H1036V-66H1278ZM1278 1258V1540H1036V1258H1278ZM1602 -66V1100H1360V-66H1602ZM1602 1258V1540H1360V1258H1602ZM383 -46H705L985 1100H717L543 316L369 1100H102L383 -46ZM1921 -66V1100H1681V-66H1921ZM1921 1258V1540H1681V1258H1921Z"  />
<glyph unicode="&#x2178;" horiz-adv-x="2048" d="M621 1254V1538H338V1254H621ZM1767 -68L1397 525L1751 1094H1417L1227 793L1034 1094H700L1059 525L684 -68H1018L1227 254L1434 -68H1767ZM621 -68V1096H338V-68H621Z"  />
<glyph unicode="&#x2179;" horiz-adv-x="2048" d="M1597 -52L1196 533L1577 1090H1245L1026 776L805 1090H473L856 533L453 -52H784L1026 289L1266 -52H1597Z"  />
<glyph unicode="&#x2190;" horiz-adv-x="2048" d="M848 1157L-1 733L848 312L774 561H2040V907H772L848 1157Z"  />
<glyph unicode="&#x2191;" horiz-adv-x="2048" d="M596 905L846 981V-286H1192V979L1442 905L1020 1755L596 905Z"  />
<glyph unicode="&#x2192;" horiz-adv-x="2048" d="M1192 1157L1268 907H0V561H1266L1192 312L2042 733L1192 1157Z"  />
<glyph unicode="&#x2193;" horiz-adv-x="2048" d="M596 561L1020 -288L1442 561L1192 488V1753H846V486L596 561Z"  />
<glyph unicode="&#x2194;" horiz-adv-x="2048" d="M666 326L610 559H1434L1378 326L2048 735L1378 1143L1434 910H610L666 1143L-1 735L666 326Z"  />
<glyph unicode="&#x2195;" horiz-adv-x="2048" d="M1430 377L1196 322V1145L1430 1090L1020 1759L612 1090L846 1145V322L612 377L1020 -290L1430 377Z"  />
<glyph unicode="&#x2196;" horiz-adv-x="2048" d="M1960 11L735 1241L993 1348L57 1694L389 770L500 1022L1722 -204L1960 11Z"  />
<glyph unicode="&#x2197;" horiz-adv-x="2048" d="M76 11L313 -204L1536 1022L1647 770L1978 1694L1042 1348L1300 1241L76 11Z"  />
<glyph unicode="&#x2198;" horiz-adv-x="2048" d="M1966 -224L1634 699L1524 447L301 1673L63 1458L1288 228L1030 121L1966 -224Z"  />
<glyph unicode="&#x2199;" horiz-adv-x="2048" d="M1976 1458L1739 1673L516 447L406 699L74 -224L1010 121L752 228L1976 1458Z"  />
<glyph unicode="&#x21D2;" horiz-adv-x="2048" d="M1476 78L1324 230L1724 698L1320 1182L1476 1326L1996 698L1476 78ZM84 842V1038H1676V842H84ZM84 382V578H1676V382H84Z"  />
<glyph unicode="&#x21D4;" horiz-adv-x="2048" d="M672 78L152 698L672 1326L828 1182L424 698L824 230L672 78ZM1424 78L1272 230L1672 698L1268 1182L1424 1326L1944 698L1424 78ZM468 838V1034H1636V838H468ZM468 382V578H1636V382H468Z"  />
<glyph unicode="&#x2200;" horiz-adv-x="2048" d="M1344 1042L1516 1554H1804L1192 -182H924L312 1554H588L760 1042H1344ZM844 794L976 386L1056 154L1132 398L1260 794H844Z"  />
<glyph unicode="&#x2202;" horiz-adv-x="942" d="M434 977Q494 984 526 964T575 916Q590 889 593 865T596 840Q568 840 529 836T428 813Q302 774 228 721T117 609Q81 551 75 496T78 398Q98 335 137 298T228 244Q279 228 339 232T460 258Q522 280 581 316T692 401Q743 450 781 509T840 635Q869 743 859 837T806 1003Q764 1075 693 1118T530 1170Q483 1173 438 1164T353 1138Q312 1120 277 1096T215 1044Q187 1017 169 989T143 934Q136 908 141 887T166 852Q185 838 202 838T235 844Q250 851 264 864T293 891Q319 918 352 945T434 977H434ZM580 662Q564 615 542 578T477 500Q462 484 439 468T393 440Q370 429 351 426T324 432Q317 441 319 460T332 504Q342 527 359 551T401 596Q428 618 458 631T515 651Q541 658 559 660T580 662H580Z"  />
<glyph unicode="&#x2203;" horiz-adv-x="2048" d="M1304 634H516V882H1304V1282H460V1538H1572V-70H448V186H1304V634Z"  />
<glyph unicode="&#x2207;" horiz-adv-x="2048" d="M1024 85L1800 1411H244L1024 85ZM1024 262L399 1323H1645L1024 262Z"  />
<glyph unicode="&#x2208;" horiz-adv-x="2048" d="M426 602H1774V817H428Q436 880 469 937T553 1037Q604 1080 670 1105T813 1131H1769V1350H801Q692 1350 582 1308T384 1185Q295 1103 240 983T184 705Q184 560 233 445T367 248Q452 167 564 124T803 81H1776V295H819Q745 295 677 319T555 385Q501 427 467 483T426 602H426Z"  />
<glyph unicode="&#x220B;" horiz-adv-x="2048" d="M1577 602Q1571 539 1537 484T1449 388Q1396 347 1328 323T1184 299H227V81H1200Q1328 81 1440 124T1637 248Q1721 329 1770 444T1819 705Q1819 862 1763 982T1618 1185Q1530 1266 1420 1308T1202 1350H233V1131H1190Q1265 1131 1331 1106T1449 1037Q1500 994 1533 937T1575 817H229V602H1577Z"  />
<glyph unicode="&#x220F;" horiz-adv-x="2048" d="M1872 1438V1582H232V1438H436V-26H244V-170H912V-26H744V1438H1348V-26H1172V-170H1840V-26H1656V1438H1872Z"  />
<glyph unicode="&#x2211;" horiz-adv-x="2048" d="M1844 826V1586H180V1430L984 706L180 -78V-166H1840V422H1684V106H624L1316 774L608 1410H1572L1724 826H1844Z"  />
<glyph unicode="&#x221A;" horiz-adv-x="2048" d="M274 510L397 340L483 467L879 -314L1653 1585H2046V1755H1530L866 150L518 858L274 510Z"  />
<glyph unicode="&#x221D;" horiz-adv-x="2048" d="M690 1002Q767 1007 823 971T915 888Q951 842 969 801T989 756Q974 726 951 681T891 596Q855 555 804 529T684 508Q644 511 606 532T539 587Q510 622 493 667T477 766Q477 812 496 854T546 928Q577 960 614 979T690 1002H690ZM1815 1094Q1795 1107 1768 1127T1701 1166Q1662 1185 1609 1198T1487 1211Q1408 1210 1348 1187T1243 1130Q1198 1097 1168 1059T1118 989Q1114 996 1086 1034T1004 1115Q950 1157 870 1188T680 1213Q591 1208 514 1171T379 1075Q322 1015 288 937T252 770Q249 677 277 595T357 450Q410 387 484 346T649 293Q746 279 825 305T964 371Q1022 412 1058 456T1106 525Q1122 494 1153 454T1231 377Q1276 340 1336 314T1473 285Q1542 282 1602 297T1706 333Q1750 354 1776 372T1806 393L1698 586Q1680 569 1656 553T1605 525Q1578 513 1550 506T1495 502Q1443 506 1404 525T1334 576Q1302 607 1276 650T1223 746Q1239 778 1261 818T1313 895Q1342 932 1379 958T1464 991Q1506 995 1542 990T1608 973Q1637 962 1657 948T1686 922L1815 1094Z"  />
<glyph unicode="&#x221E;" horiz-adv-x="2048" d="M1024 936Q1021 941 1003 973T943 1043Q902 1080 836 1110T674 1141Q589 1141 515 1110T386 1023Q331 968 300 894T268 733Q268 647 299 573T386 443Q441 388 515 357T674 326Q769 326 834 356T942 424Q983 462 1002 495T1024 535Q1026 529 1046 496T1109 424Q1151 387 1216 357T1374 326Q1458 326 1532 357T1661 443Q1716 498 1748 572T1780 733Q1780 819 1748 893T1661 1023Q1606 1078 1532 1109T1374 1141Q1279 1141 1214 1111T1106 1043Q1065 1006 1046 974T1024 936H1024ZM479 733Q479 774 494 811T537 876Q564 903 599 919T674 936Q730 936 772 906T842 840Q870 803 884 771T901 733Q899 727 885 695T842 626Q814 590 772 561T674 531Q635 531 600 547T537 590Q510 618 495 654T479 733H479ZM1571 733Q1571 691 1555 655T1511 591Q1484 564 1449 549T1374 533Q1317 533 1275 562T1205 627Q1177 663 1163 695T1147 733Q1148 738 1162 770T1205 840Q1233 876 1275 906T1374 936Q1413 936 1448 920T1511 876Q1538 848 1554 811T1571 733H1571Z"  />
<glyph unicode="&#x2220;" horiz-adv-x="2048" d="M678 260L1720 1307L1548 1475L319 242Q318 241 308 231T285 202Q274 184 267 161T266 110Q283 62 308 47T381 32H1802V260H678Z"  />
<glyph unicode="&#x2225;" horiz-adv-x="2048" d="M1116 1712V-267H1335V1712H1116ZM700 1712V-267H920V1712H700Z"  />
<glyph unicode="&#x2227;" horiz-adv-x="2048" d="M289 108L483 -9L1020 1075L1546 9L1753 106L1126 1358Q1110 1391 1080 1408T1017 1425Q984 1425 954 1408T909 1358L289 108Z"  />
<glyph unicode="&#x2228;" horiz-adv-x="2048" d="M291 1379L911 127Q927 95 958 80T1023 65Q1056 66 1086 81T1130 129L1755 1383L1548 1479L1022 412L485 1497L291 1379Z"  />
<glyph unicode="&#x2229;" horiz-adv-x="2048" d="M610 -54V899Q610 981 641 1052T727 1175Q782 1228 856 1258T1016 1288Q1106 1288 1182 1256T1314 1170Q1369 1116 1400 1044T1432 889V-62H1651V930Q1651 1045 1606 1151T1477 1338Q1394 1419 1277 1467T1016 1516Q883 1516 769 1469T570 1341Q486 1259 439 1149T391 910V-54H610Z"  />
<glyph unicode="&#x222A;" horiz-adv-x="2048" d="M610 1499H391V535Q391 406 439 296T573 105Q658 24 773 -22T1022 -68Q1166 -68 1282 -19T1480 112Q1562 193 1606 298T1651 514V1508H1432V555Q1432 473 1402 400T1317 272Q1263 216 1188 184T1022 152Q936 152 861 182T730 266Q674 319 642 390T610 545V1499Z"  />
<glyph unicode="&#x222B;" horiz-adv-x="2048" d="M1407 1401Q1427 1444 1422 1481T1392 1547Q1369 1574 1333 1589T1257 1604Q1191 1602 1142 1578T1057 1510Q1020 1468 994 1411T948 1288Q915 1179 898 1086T873 903Q865 814 862 722T854 522Q851 453 849 386T841 264Q835 209 824 172T793 127Q792 127 788 131T774 143Q765 150 752 157T719 172Q680 183 640 169T569 89Q552 57 556 18T584 -53Q608 -85 649 -102T748 -109Q827 -95 885 -47T983 79Q1024 157 1049 262T1092 496Q1099 561 1103 618T1111 732Q1114 789 1117 847T1124 971Q1128 1040 1134 1109T1147 1234Q1154 1290 1163 1328T1186 1372Q1186 1370 1200 1357T1255 1329Q1276 1320 1297 1318T1338 1323Q1357 1330 1375 1348T1407 1401H1407Z"  />
<glyph unicode="&#x222C;" horiz-adv-x="2048" d="M1700 1401Q1720 1444 1714 1481T1684 1547Q1660 1574 1624 1589T1548 1604Q1483 1602 1435 1578T1349 1510Q1313 1468 1287 1411T1241 1288Q1208 1179 1191 1086T1166 903Q1157 814 1154 722T1145 522Q1142 453 1140 386T1132 263Q1126 208 1116 171T1085 127Q1084 127 1080 131T1066 143Q1058 150 1045 157T1012 172Q973 183 933 169T862 89Q844 57 847 18T874 -53Q897 -85 938 -102T1036 -109Q1117 -95 1175 -47T1274 79Q1315 156 1341 261T1384 496Q1390 561 1394 618T1402 730Q1405 786 1408 843T1417 967Q1421 1036 1427 1105T1440 1232Q1447 1289 1456 1327T1479 1372Q1479 1370 1493 1357T1548 1329Q1569 1320 1590 1318T1631 1323Q1650 1330 1668 1348T1700 1401H1700ZM1143 1401Q1164 1444 1158 1481T1129 1547Q1106 1574 1070 1589T993 1604Q927 1602 879 1578T794 1511Q758 1469 732 1412T684 1288Q652 1177 636 1084T612 902Q604 812 601 721T592 522Q588 453 586 386T579 264Q573 209 562 173T530 129Q530 130 513 143T457 168Q418 180 377 166T305 89Q288 57 293 18T321 -53Q344 -85 385 -102T483 -109Q562 -95 620 -47T719 80Q759 158 784 263T825 496Q833 561 838 618T848 731Q852 787 855 845T862 969Q866 1038 871 1107T884 1233Q891 1290 900 1328T922 1372Q922 1370 936 1357T991 1329Q1012 1320 1033 1318T1074 1323Q1093 1330 1111 1348T1143 1401H1143Z"  />
<glyph unicode="&#x222E;" horiz-adv-x="2048" d="M774 14Q775 53 756 89T684 137Q615 151 577 119T524 22Q517 -15 525 -49T554 -111Q574 -138 605 -157T674 -183Q753 -198 816 -174T931 -93Q981 -35 1020 55T1090 262Q1155 266 1214 293T1322 366Q1370 412 1403 475T1450 615Q1463 687 1450 754T1405 879Q1374 936 1329 980T1231 1051L1249 1252Q1253 1291 1259 1316T1274 1360Q1282 1377 1291 1389T1309 1413Q1300 1395 1298 1367T1300 1327Q1303 1318 1310 1304T1329 1274Q1341 1260 1359 1248T1401 1233Q1459 1227 1500 1253T1556 1350Q1563 1389 1553 1421T1522 1479Q1500 1504 1468 1521T1399 1546Q1248 1573 1145 1467T987 1100Q927 1095 869 1069T762 998Q714 953 679 892T631 754Q617 682 628 613T669 486Q700 428 747 384T852 318L817 114Q808 58 794 13T758 -50Q767 -37 769 -23T774 14H774ZM954 930L877 484Q859 490 842 512T813 567Q801 599 797 640T801 729Q807 771 825 807T865 870Q888 897 911 912T954 930H954ZM1202 883Q1217 873 1234 850T1265 795Q1277 763 1282 723T1280 639Q1274 591 1256 554T1215 490Q1192 464 1169 450T1128 434L1202 883Z"  />
<glyph unicode="&#x2234;" horiz-adv-x="2048" d="M1016 1329Q978 1329 946 1315T889 1277Q865 1253 852 1221T838 1151Q838 1113 851 1081T889 1024Q913 1000 945 987T1016 973Q1053 973 1085 986T1142 1024Q1166 1048 1180 1080T1194 1151Q1194 1188 1180 1220T1142 1277Q1118 1301 1086 1315T1016 1329H1016ZM1544 453Q1506 453 1474 439T1417 401Q1393 377 1380 345T1366 275Q1366 237 1379 205T1417 148Q1441 124 1473 111T1544 97Q1581 97 1613 110T1670 148Q1694 172 1708 204T1722 275Q1722 312 1708 344T1670 401Q1646 425 1614 439T1544 453H1544ZM502 453Q464 453 432 439T375 401Q351 377 338 345T324 275Q324 237 337 205T375 148Q399 124 431 111T502 97Q539 97 571 110T628 148Q652 172 666 204T680 275Q680 312 666 344T628 401Q604 425 572 439T502 453H502Z"  />
<glyph unicode="&#x2235;" horiz-adv-x="2048" d="M1016 114Q1053 114 1085 127T1142 165Q1166 188 1180 220T1194 291Q1194 328 1180 360T1142 417Q1118 441 1086 455T1016 469Q978 469 946 455T889 417Q865 393 852 361T838 291Q838 253 851 221T889 165Q913 141 945 128T1016 114H1016ZM1544 989Q1581 989 1613 1002T1670 1040Q1694 1064 1708 1097T1722 1168Q1722 1205 1708 1237T1670 1294Q1646 1318 1614 1332T1544 1346Q1506 1346 1474 1332T1417 1294Q1393 1270 1380 1238T1366 1168Q1366 1130 1379 1097T1417 1040Q1441 1016 1473 1003T1544 989H1544ZM502 989Q539 989 571 1002T628 1040Q652 1064 666 1097T680 1168Q680 1205 666 1237T628 1294Q604 1318 572 1332T502 1346Q464 1346 432 1332T375 1294Q351 1270 338 1238T324 1168Q324 1130 337 1097T375 1040Q399 1016 431 1003T502 989H502Z"  />
<glyph unicode="&#x223C;" horiz-adv-x="2048" d="M1903 1037H1731Q1711 953 1683 885T1617 770Q1581 722 1537 698T1444 676Q1420 677 1396 696T1343 745Q1315 775 1282 814T1209 894Q1168 935 1119 975T1010 1050Q949 1084 876 1108T715 1143Q526 1163 382 1086T141 850V330H446Q467 525 527 613T680 694Q703 692 729 673T786 623Q816 592 851 553T930 473Q972 431 1022 390T1134 315Q1194 281 1265 257T1421 225Q1576 210 1695 248T1903 375V1037Z"  />
<glyph unicode="&#x223D;" horiz-adv-x="2048" d="M825 903L928 1084Q907 1107 878 1130T811 1173Q772 1191 723 1203T612 1215Q513 1215 432 1178T293 1080Q235 1019 204 941T172 781Q172 661 207 573T303 426Q363 367 441 337T606 305Q674 303 732 319T839 364Q889 392 929 430T1003 510Q1036 551 1061 593T1106 672Q1125 709 1138 737T1159 781Q1217 888 1287 944T1452 996Q1499 993 1538 973T1607 921Q1635 889 1651 848T1667 760Q1667 719 1656 676T1618 598Q1592 563 1551 541T1450 518Q1409 517 1370 527T1299 550Q1266 563 1244 575T1214 592L1110 410Q1115 404 1145 384T1225 344Q1274 324 1338 310T1475 301Q1593 310 1681 367T1822 509Q1874 593 1888 694T1872 895Q1819 1038 1712 1122T1444 1213Q1349 1216 1276 1191T1145 1118Q1087 1070 1042 1004T956 862Q932 813 900 752T827 636Q786 583 735 548T623 516Q569 520 526 542T452 600Q422 636 409 684T401 787Q405 831 424 870T473 941Q502 971 537 989T608 1008Q645 1008 679 999T742 975Q770 959 791 940T825 903H825Z"  />
<glyph unicode="&#x2252;" horiz-adv-x="2048" d="M268 434H1780V658H268V434ZM621 1409Q559 1409 517 1367T475 1264Q475 1233 486 1206T517 1160Q536 1140 563 1129T621 1118Q651 1118 677 1129T723 1160Q743 1179 754 1206T766 1264Q766 1294 755 1320T723 1367Q704 1386 678 1397T621 1409H621ZM1430 355Q1400 355 1373 343T1327 312Q1307 292 1296 266T1284 209Q1284 179 1295 153T1327 107Q1346 87 1373 76T1430 65Q1459 65 1485 76T1532 107Q1551 126 1563 152T1575 209Q1575 239 1563 265T1532 312Q1512 331 1486 343T1430 355H1430ZM268 809H1780V1030H268V809Z"  />
<glyph unicode="&#x2260;" horiz-adv-x="2048" d="M795 590H307V338H707L600 36L889 -19L1012 338H1782V590H1098L1200 885H1782V1139H1288L1391 1438L1116 1501L989 1139H307V885H899L795 590Z"  />
<glyph unicode="&#x2261;" horiz-adv-x="2048" d="M268 955H1780V1147H268V955ZM268 637H1780V830H268V637ZM268 320H1780V512H268V320Z"  />
<glyph unicode="&#x2264;" horiz-adv-x="2048" d="M1757 514L752 934L1739 1344L1655 1555L371 1014Q346 1003 331 996T309 980Q301 972 299 961T297 932Q297 890 314 873T373 844L1651 307L1757 514ZM1778 42V273H272V42H1778Z"  />
<glyph unicode="&#x2265;" horiz-adv-x="2048" d="M1772 934Q1772 952 1770 963T1759 982Q1751 990 1737 997T1698 1016L414 1557L330 1346L1317 936L311 516L418 309L1696 846Q1735 858 1753 875T1772 934H1772ZM1796 40V269H291V40H1796Z"  />
<glyph unicode="&#x226A;" horiz-adv-x="2048" d="M1286 1458L164 733L1272 -11L1380 137L500 733L1391 1311L1286 1458ZM1763 1458L641 733L1749 -11L1858 137L977 733L1868 1311L1763 1458Z"  />
<glyph unicode="&#x226B;" horiz-adv-x="2048" d="M741 1458L637 1311L1528 733L647 137L756 -11L1864 733L741 1458ZM264 1458L160 1311L1051 733L170 137L279 -11L1386 733L264 1458Z"  />
<glyph unicode="&#x2282;" horiz-adv-x="2048" d="M1817 1123V1342H852Q723 1342 613 1293T420 1159Q339 1074 293 959T246 711Q246 566 296 450T428 252Q510 170 615 127T831 83H1825V301H872Q792 301 720 331T594 415Q540 469 509 544T477 711Q477 796 506 871T587 1002Q639 1058 709 1090T862 1123H1817Z"  />
<glyph unicode="&#x2283;" horiz-adv-x="2048" d="M250 1123H1204Q1286 1123 1356 1091T1478 1002Q1530 946 1559 871T1589 711Q1589 620 1557 545T1471 415Q1417 361 1345 331T1194 301H242V83H1235Q1345 83 1450 126T1638 252Q1720 334 1770 450T1821 711Q1821 843 1774 958T1645 1159Q1564 1244 1453 1293T1214 1342H250V1123Z"  />
<glyph unicode="&#x2286;" horiz-adv-x="2048" d="M1821 1297V1503H854Q729 1503 619 1463T427 1348Q345 1274 298 1168T250 930Q250 794 296 688T422 509Q500 437 602 399T817 361H1831V570H874Q791 570 720 595T596 668Q544 715 515 782T485 934Q485 1013 516 1080T600 1195Q653 1243 722 1270T866 1297H1821ZM236 225V22H1853V225H236Z"  />
<glyph unicode="&#x2287;" horiz-adv-x="2048" d="M268 1297H1223Q1298 1297 1366 1270T1488 1195Q1541 1147 1572 1080T1604 934Q1604 850 1574 783T1492 668Q1439 621 1368 596T1214 570H258V361H1272Q1383 361 1485 399T1666 509Q1745 582 1792 688T1839 930Q1839 1062 1791 1168T1661 1348Q1579 1422 1469 1462T1235 1503H268V1297ZM1853 225H236V22H1853V225Z"  />
<glyph unicode="&#x2299;" horiz-adv-x="2048" d="M1896 710Q1896 771 1884 840T1848 982Q1823 1054 1786 1125T1697 1263Q1645 1328 1579 1384T1431 1481Q1350 1523 1252 1546T1040 1570Q925 1570 827 1547T647 1481Q565 1440 499 1384T380 1263Q328 1197 290 1126T228 982Q203 910 192 841T180 710Q180 649 191 580T228 440Q252 369 290 299T380 164Q432 99 498 44T647 -53Q729 -94 827 -118T1040 -142Q1154 -142 1252 -118T1431 -53Q1513 -12 1579 43T1697 164Q1749 228 1786 298T1848 440Q1872 511 1884 580T1896 710ZM1784 718Q1784 658 1772 595T1736 469Q1713 406 1678 346T1596 230Q1549 175 1491 129T1363 49Q1294 15 1213 -5T1040 -26Q945 -26 863 -7T709 46Q639 80 580 126T475 227Q428 282 393 342T334 467Q311 530 300 594T288 718Q288 841 334 972T475 1213Q568 1321 709 1391T1040 1462Q1132 1462 1213 1444T1363 1393Q1433 1360 1491 1315T1596 1214Q1643 1159 1678 1098T1736 973Q1760 909 1772 844T1784 718ZM1620 714Q1620 820 1582 922T1471 1106Q1397 1187 1289 1236T1040 1286Q896 1286 788 1237T608 1106Q536 1025 500 923T464 714Q464 607 500 504T608 319Q680 238 788 188T1040 138Q1181 138 1289 188T1471 319Q1544 400 1582 503T1620 714Z"  />
<glyph unicode="&#x22A5;" horiz-adv-x="2048" d="M268 258V18H1780V258H1149V1409H899V258H268Z"  />
<glyph unicode="&#x2312;" horiz-adv-x="2048" d="M477 715Q497 834 548 929T673 1092Q745 1159 834 1195T1020 1231Q1115 1231 1204 1194T1367 1090Q1440 1022 1491 927T1563 715H1808Q1779 888 1708 1027T1534 1263Q1430 1360 1299 1412T1020 1465Q870 1465 739 1412T504 1262Q401 1164 331 1026T236 715H477Z"  />
<glyph unicode="&#x2460;" horiz-adv-x="2048" d="M1169 106V1374H967Q967 1323 943 1282T889 1219Q847 1191 793 1176T678 1161V959H938V106H1169ZM1991 733Q1991 932 1915 1108T1707 1416Q1575 1547 1399 1623T1024 1700Q824 1700 648 1624T341 1416Q209 1285 133 1109T57 733Q57 533 133 358T341 51Q472 -81 648 -156T1024 -232Q1223 -232 1399 -157T1707 51Q1838 182 1914 357T1991 733H1991ZM1024 1546Q1191 1546 1337 1482T1593 1307Q1702 1197 1765 1049T1829 733Q1829 565 1766 417T1593 159Q1484 48 1338 -15T1024 -79Q856 -79 710 -16T454 159Q345 269 282 417T219 733Q219 901 282 1049T454 1307Q563 1418 709 1482T1024 1546H1024Z"  />
<glyph unicode="&#x2461;" horiz-adv-x="2048" d="M1452 127V330H877Q884 348 895 371T921 418Q935 442 953 464T993 504L1225 688Q1261 719 1300 754T1372 834Q1404 878 1425 934T1446 1065Q1446 1139 1420 1207T1342 1327Q1291 1378 1216 1409T1042 1440Q940 1440 861 1405T728 1310Q675 1251 648 1175T625 1018H856Q853 1066 864 1107T898 1179Q922 1210 957 1227T1040 1245Q1084 1245 1117 1229T1173 1188Q1195 1162 1205 1129T1214 1061Q1211 1023 1198 992T1164 935Q1144 909 1120 888T1073 848L868 684Q782 618 731 548T650 407Q622 336 613 266T604 127H1452ZM1991 733Q1991 932 1915 1108T1707 1416Q1575 1547 1399 1623T1024 1700Q824 1700 648 1624T341 1416Q209 1285 133 1109T57 733Q57 533 133 358T341 51Q472 -81 648 -156T1024 -232Q1223 -232 1399 -157T1707 51Q1838 182 1914 357T1991 733H1991ZM1024 1546Q1191 1546 1337 1482T1593 1307Q1702 1197 1765 1049T1829 733Q1829 565 1766 417T1593 159Q1484 48 1338 -15T1024 -79Q856 -79 710 -16T454 159Q345 269 282 417T219 733Q219 901 282 1049T454 1307Q563 1418 709 1482T1024 1546H1024Z"  />
<glyph unicode="&#x2462;" horiz-adv-x="2048" d="M1458 461Q1458 508 1444 554T1404 639Q1379 679 1346 710T1274 760Q1298 774 1323 799T1370 861Q1391 897 1405 942T1419 1043Q1419 1112 1390 1177T1308 1293Q1255 1344 1181 1374T1018 1405Q931 1405 857 1374T728 1290Q674 1237 645 1165T618 1010H852Q849 1048 858 1082T889 1144Q910 1170 943 1186T1020 1202Q1066 1202 1099 1186T1153 1144Q1173 1119 1181 1090T1188 1034Q1183 986 1161 950T1108 895Q1072 878 1027 871T926 864V647Q947 647 968 647T1012 646Q1034 645 1056 643T1100 635Q1129 626 1152 608T1193 566Q1209 542 1217 515T1223 461Q1219 425 1204 393T1164 336Q1138 311 1102 297T1020 283Q973 283 935 298T870 341Q844 368 832 406T823 490H588Q584 394 616 316T709 182Q768 126 848 96T1022 65Q1115 65 1194 96T1333 181Q1391 235 1424 307T1458 461H1458ZM1991 733Q1991 932 1915 1108T1707 1416Q1575 1547 1399 1623T1024 1700Q824 1700 648 1624T341 1416Q209 1285 133 1109T57 733Q57 533 133 358T341 51Q472 -81 648 -156T1024 -232Q1223 -232 1399 -157T1707 51Q1838 182 1914 357T1991 733H1991ZM1024 1546Q1191 1546 1337 1482T1593 1307Q1702 1197 1765 1049T1829 733Q1829 565 1766 417T1593 159Q1484 48 1338 -15T1024 -79Q856 -79 710 -16T454 159Q345 269 282 417T219 733Q219 901 282 1049T454 1307Q563 1418 709 1482T1024 1546H1024Z"  />
<glyph unicode="&#x2463;" horiz-adv-x="2048" d="M1460 271V488H1307V1362H1077L514 512V271H1073V91H1307V271H1460ZM1073 488H760L1073 959V488ZM1991 733Q1991 932 1915 1108T1707 1416Q1575 1547 1399 1623T1024 1700Q824 1700 648 1624T341 1416Q209 1285 133 1109T57 733Q57 533 133 358T341 51Q472 -81 648 -156T1024 -232Q1223 -232 1399 -157T1707 51Q1838 182 1914 357T1991 733H1991ZM1024 1546Q1191 1546 1337 1482T1593 1307Q1702 1197 1765 1049T1829 733Q1829 565 1766 417T1593 159Q1484 48 1338 -15T1024 -79Q856 -79 710 -16T454 159Q345 269 282 417T219 733Q219 901 282 1049T454 1307Q563 1418 709 1482T1024 1546H1024Z"  />
<glyph unicode="&#x2464;" horiz-adv-x="2048" d="M1991 733Q1991 932 1915 1108T1707 1416Q1575 1547 1399 1623T1024 1700Q824 1700 648 1624T341 1416Q209 1285 133 1109T57 733Q57 533 133 358T341 51Q472 -81 648 -156T1024 -232Q1223 -232 1399 -157T1707 51Q1838 182 1914 357T1991 733H1991ZM1024 1546Q1191 1546 1337 1482T1593 1307Q1702 1197 1765 1049T1829 733Q1829 565 1766 417T1593 159Q1484 48 1338 -15T1024 -79Q856 -79 710 -16T454 159Q345 269 282 417T219 733Q219 901 282 1049T454 1307Q563 1418 709 1482T1024 1546H1024ZM1139 912Q1125 914 1094 916T1022 915Q981 913 938 905T858 877L905 1125H1399V1344H709L600 660H844Q847 666 867 682T920 712Q952 725 994 729T1083 717Q1129 700 1155 669T1195 606Q1208 573 1211 546T1214 510Q1214 493 1208 457T1182 380Q1162 341 1126 309T1030 269Q970 261 928 280T859 331Q832 362 819 394T805 445H573Q573 440 577 400T608 305Q633 251 687 191T840 85Q937 38 1024 45T1182 86Q1251 119 1299 163T1366 236Q1385 265 1404 301T1435 385Q1447 433 1447 494T1430 635Q1412 709 1369 760T1278 845Q1231 878 1191 893T1139 912H1139Z"  />
<glyph unicode="&#x2465;" horiz-adv-x="2048" d="M1473 502Q1473 590 1443 672T1360 818Q1307 882 1235 920T1077 959Q977 959 914 929T813 862Q813 895 819 941T846 1043Q857 1071 873 1099T914 1149Q938 1171 971 1184T1051 1198Q1097 1198 1130 1184T1188 1145Q1211 1121 1225 1091T1245 1030H1462Q1456 1103 1423 1170T1336 1290Q1282 1341 1210 1372T1053 1403Q897 1403 788 1318T625 1090Q599 1024 585 934T569 749Q567 654 576 565T606 410Q629 338 668 277T762 169Q817 124 888 99T1047 73Q1138 73 1216 105T1351 196Q1408 253 1440 331T1473 502H1473ZM1241 506Q1241 401 1185 345T1034 289Q938 289 885 346T829 506Q826 614 882 679T1034 744Q1081 744 1119 726T1185 677Q1212 645 1226 602T1241 506H1241ZM1991 733Q1991 932 1915 1108T1707 1416Q1575 1547 1399 1623T1024 1700Q824 1700 648 1624T341 1416Q209 1285 133 1109T57 733Q57 533 133 358T341 51Q472 -81 648 -156T1024 -232Q1223 -232 1399 -157T1707 51Q1838 182 1914 357T1991 733H1991ZM1024 1546Q1191 1546 1337 1482T1593 1307Q1702 1197 1765 1049T1829 733Q1829 565 1766 417T1593 159Q1484 48 1338 -15T1024 -79Q856 -79 710 -16T454 159Q345 269 282 417T219 733Q219 901 282 1049T454 1307Q563 1418 709 1482T1024 1546H1024Z"  />
<glyph unicode="&#x2466;" horiz-adv-x="2048" d="M1454 1315H590V1082H1231Q1210 1057 1175 1013T1099 912Q1059 855 1017 787T938 645Q895 559 865 476T815 317Q795 243 785 181T772 75H1032Q1032 125 1042 196T1072 349Q1092 431 1121 517T1188 684Q1224 761 1262 826T1337 942Q1373 994 1403 1031T1454 1090V1315ZM1991 733Q1991 932 1915 1108T1707 1416Q1575 1547 1399 1623T1024 1700Q824 1700 648 1624T341 1416Q209 1285 133 1109T57 733Q57 533 133 358T341 51Q472 -81 648 -156T1024 -232Q1223 -232 1399 -157T1707 51Q1838 182 1914 357T1991 733H1991ZM1024 1546Q1191 1546 1337 1482T1593 1307Q1702 1197 1765 1049T1829 733Q1829 565 1766 417T1593 159Q1484 48 1338 -15T1024 -79Q856 -79 710 -16T454 159Q345 269 282 417T219 733Q219 901 282 1049T454 1307Q563 1418 709 1482T1024 1546H1024Z"  />
<glyph unicode="&#x2467;" horiz-adv-x="2048" d="M1491 451Q1491 497 1477 543T1437 631Q1411 673 1375 709T1296 772Q1368 818 1409 891T1450 1049Q1450 1127 1416 1192T1323 1305Q1265 1352 1188 1378T1024 1405Q937 1405 860 1378T724 1303Q666 1255 632 1190T598 1049Q598 965 639 892T752 770Q708 744 672 709T610 631Q585 589 571 543T557 451Q557 366 594 294T695 169Q759 116 843 87T1024 57Q1119 57 1204 87T1352 171Q1416 224 1453 296T1491 451H1491ZM1212 1030Q1212 968 1163 924T1024 879Q931 879 884 923T836 1030Q836 1060 848 1087T883 1137Q907 1158 942 1171T1024 1184Q1069 1184 1104 1171T1163 1137Q1187 1115 1199 1088T1212 1030H1212ZM1249 461Q1249 425 1233 392T1188 335Q1159 310 1118 296T1024 281Q971 281 930 295T859 335Q830 359 815 392T799 461Q799 498 814 532T859 591Q888 617 929 632T1024 647Q1076 647 1117 632T1188 591Q1217 566 1233 532T1249 461H1249ZM1991 733Q1991 932 1915 1108T1707 1416Q1575 1547 1399 1623T1024 1700Q824 1700 648 1624T341 1416Q209 1285 133 1109T57 733Q57 533 133 358T341 51Q472 -81 648 -156T1024 -232Q1223 -232 1399 -157T1707 51Q1838 182 1914 357T1991 733H1991ZM1024 1546Q1191 1546 1337 1482T1593 1307Q1702 1197 1765 1049T1829 733Q1829 565 1766 417T1593 159Q1484 48 1338 -15T1024 -79Q856 -79 710 -16T454 159Q345 269 282 417T219 733Q219 901 282 1049T454 1307Q563 1418 709 1482T1024 1546H1024Z"  />
<glyph unicode="&#x2468;" horiz-adv-x="2048" d="M1991 733Q1991 932 1915 1108T1707 1416Q1575 1547 1399 1623T1024 1700Q824 1700 648 1624T341 1416Q209 1285 133 1109T57 733Q57 533 133 358T341 51Q472 -81 648 -156T1024 -232Q1223 -232 1399 -157T1707 51Q1838 182 1914 357T1991 733H1991ZM1829 733Q1829 565 1766 417T1593 159Q1484 48 1338 -15T1024 -79Q856 -79 710 -16T454 159Q345 269 282 417T219 733Q219 901 282 1049T454 1307Q563 1418 709 1482T1024 1546Q1191 1546 1337 1482T1593 1307Q1702 1197 1765 1049T1829 733H1829ZM1464 1057Q1441 1128 1402 1189T1307 1297Q1252 1342 1181 1368T1024 1395Q932 1395 854 1362T719 1271Q662 1213 630 1135T598 965Q598 876 627 794T710 648Q763 584 835 546T993 508Q1092 508 1155 537T1257 604Q1257 570 1251 525T1225 424Q1213 394 1197 367T1156 317Q1132 295 1099 282T1020 269Q973 269 940 283T882 321Q859 344 845 374T825 436H608Q613 362 646 295T734 177Q788 125 860 95T1018 65Q1173 65 1281 149T1446 377Q1471 443 1484 533T1501 717Q1503 812 1494 901T1464 1057H1464ZM1241 961Q1244 851 1188 787T1036 723Q988 723 950 740T884 789Q857 821 843 864T829 961Q829 1065 884 1121T1036 1178Q1131 1178 1184 1121T1241 961H1241Z"  />
<glyph unicode="&#x2469;" horiz-adv-x="2048" d="M1724 737Q1724 875 1695 992T1611 1194Q1556 1280 1475 1328T1290 1376Q1185 1376 1104 1328T967 1194Q912 1109 883 992T854 737Q854 599 883 482T967 279Q1023 193 1104 145T1290 97Q1394 97 1475 145T1611 279Q1666 364 1695 481T1724 737H1724ZM807 125V1348H612Q612 1298 589 1258T537 1198Q498 1170 446 1157T336 1143V946H584V125H807ZM1487 737Q1487 647 1474 570T1435 434Q1410 377 1373 345T1290 312Q1242 312 1205 344T1143 434Q1118 492 1105 569T1092 737Q1092 827 1105 904T1143 1040Q1168 1097 1205 1130T1290 1163Q1336 1163 1373 1130T1435 1040Q1460 982 1473 905T1487 737H1487ZM1991 733Q1991 932 1915 1108T1707 1416Q1575 1547 1399 1623T1024 1700Q824 1700 648 1624T341 1416Q209 1285 133 1109T57 733Q57 533 133 358T341 51Q472 -81 648 -156T1024 -232Q1223 -232 1399 -157T1707 51Q1838 182 1914 357T1991 733H1991ZM1829 733Q1829 565 1766 417T1593 159Q1484 48 1338 -15T1024 -79Q856 -79 710 -16T454 159Q345 269 282 417T219 733Q219 901 282 1049T454 1307Q563 1418 709 1482T1024 1546Q1191 1546 1337 1482T1593 1307Q1702 1197 1765 1049T1829 733H1829Z"  />
<glyph unicode="&#x246A;" horiz-adv-x="2048" d="M1454 129V1348H1257Q1257 1298 1234 1259T1182 1198Q1143 1171 1091 1157T981 1143V948H1229V129H1454ZM879 129V1348H684Q684 1298 661 1259T608 1198Q569 1171 517 1157T408 1143V948H655V129H879ZM1991 733Q1991 932 1915 1108T1707 1416Q1575 1547 1399 1623T1024 1700Q824 1700 648 1624T341 1416Q209 1285 133 1109T57 733Q57 533 133 358T341 51Q472 -81 648 -156T1024 -232Q1223 -232 1399 -157T1707 51Q1838 182 1914 357T1991 733H1991ZM1829 733Q1829 565 1766 417T1593 159Q1484 48 1338 -15T1024 -79Q856 -79 710 -16T454 159Q345 269 282 417T219 733Q219 901 282 1049T454 1307Q563 1418 709 1482T1024 1546Q1191 1546 1337 1482T1593 1307Q1702 1197 1765 1049T1829 733H1829Z"  />
<glyph unicode="&#x246B;" horiz-adv-x="2048" d="M805 144V1362H614Q614 1313 590 1273T537 1213Q498 1186 452 1172T346 1157V963H584V144H805ZM1581 148V336H1122Q1126 349 1135 370T1157 412Q1168 433 1180 452T1204 481L1395 654Q1417 675 1450 709T1515 789Q1546 835 1568 893T1591 1020Q1591 1089 1569 1154T1502 1270Q1458 1320 1391 1350T1233 1381Q1132 1381 1062 1346T947 1253Q902 1196 884 1123T868 973H1092Q1086 1057 1122 1114T1231 1172Q1265 1172 1289 1159T1330 1123Q1345 1101 1351 1073T1356 1016Q1354 983 1342 954T1313 900Q1297 875 1279 856T1247 824L1079 668Q1032 624 990 567T916 443Q885 376 867 301T848 146H1579Q1471 41 1329 -19T1024 -79Q856 -79 710 -16T454 159Q345 269 282 417T219 733Q219 901 282 1049T454 1307Q563 1418 709 1482T1024 1546Q1191 1546 1337 1482T1593 1307Q1702 1197 1765 1049T1829 733Q1829 561 1763 410T1581 148H1581ZM1991 733Q1991 932 1915 1108T1707 1416Q1575 1547 1399 1623T1024 1700Q824 1700 648 1624T341 1416Q209 1285 133 1109T57 733Q57 533 133 358T341 51Q472 -81 648 -156T1024 -232Q1223 -232 1399 -157T1707 51Q1838 182 1914 357T1991 733H1991Z"  />
<glyph unicode="&#x246C;" horiz-adv-x="2048" d="M1694 477Q1694 523 1680 566T1640 647Q1615 684 1583 713T1513 762Q1536 775 1561 799T1608 857Q1629 891 1643 933T1657 1028Q1657 1094 1628 1156T1547 1266Q1496 1314 1425 1343T1270 1372Q1187 1372 1115 1343T991 1262Q938 1211 909 1143T883 996H1114Q1111 1030 1121 1061T1151 1117Q1171 1141 1201 1155T1272 1170Q1313 1170 1343 1155T1393 1117Q1412 1095 1420 1069T1427 1020Q1424 977 1402 945T1352 895Q1319 880 1274 874T1178 867V645Q1197 645 1217 645T1259 644Q1279 644 1299 642T1339 637Q1366 628 1389 612T1429 574Q1445 553 1453 528T1460 479Q1454 414 1404 368T1272 322Q1229 322 1194 334T1134 371Q1110 395 1099 429T1092 508H856Q851 416 882 342T972 215Q1029 163 1107 135T1274 106Q1362 106 1438 135T1572 214Q1628 264 1661 331T1694 477H1694ZM803 121V1344H610Q610 1294 586 1255T532 1194Q493 1167 443 1153T332 1139V944H580V121H803ZM1991 733Q1991 932 1915 1108T1707 1416Q1575 1547 1399 1623T1024 1700Q824 1700 648 1624T341 1416Q209 1285 133 1109T57 733Q57 533 133 358T341 51Q472 -81 648 -156T1024 -232Q1223 -232 1399 -157T1707 51Q1838 182 1914 357T1991 733H1991ZM1829 733Q1829 565 1766 417T1593 159Q1484 48 1338 -15T1024 -79Q856 -79 710 -16T454 159Q345 269 282 417T219 733Q219 901 282 1049T454 1307Q563 1418 709 1482T1024 1546Q1191 1546 1337 1482T1593 1307Q1702 1197 1765 1049T1829 733H1829Z"  />
<glyph unicode="&#x246D;" horiz-adv-x="2048" d="M793 118V1342H600Q600 1292 577 1252T524 1192Q485 1165 439 1151T334 1137V942H571V118H793ZM1694 303V510H1542V1338H1325L834 537V303H1321V116H1542V303H1694ZM1321 510H1065L1321 950V510ZM1991 733Q1991 932 1915 1108T1707 1416Q1575 1547 1399 1623T1024 1700Q824 1700 648 1624T341 1416Q209 1285 133 1109T57 733Q57 533 133 358T341 51Q472 -81 648 -156T1024 -232Q1223 -232 1399 -157T1707 51Q1838 182 1914 357T1991 733H1991ZM1829 733Q1829 565 1766 417T1593 159Q1484 48 1338 -15T1024 -79Q856 -79 710 -16T454 159Q345 269 282 417T219 733Q219 901 282 1049T454 1307Q563 1418 709 1482T1024 1546Q1191 1546 1337 1482T1593 1307Q1702 1197 1765 1049T1829 733H1829Z"  />
<glyph unicode="&#x246E;" horiz-adv-x="2048" d="M791 112V1333H600Q600 1285 576 1245T522 1184Q483 1157 438 1144T332 1131V934H569V112H791ZM1640 514Q1640 603 1616 669T1554 783Q1517 830 1470 859T1376 903Q1343 913 1306 916T1231 916Q1195 912 1161 903T1102 881L1139 1112H1573V1323H954L862 672H1087Q1111 701 1150 714T1237 727Q1274 727 1306 710T1360 664Q1383 635 1394 596T1403 510Q1395 423 1348 368T1229 312Q1158 312 1113 354T1055 467H836Q841 401 871 334T953 213Q1005 159 1077 125T1239 91Q1311 91 1382 120T1511 205Q1568 260 1604 338T1640 514H1640ZM1991 733Q1991 932 1915 1108T1707 1416Q1575 1547 1399 1623T1024 1700Q824 1700 648 1624T341 1416Q209 1285 133 1109T57 733Q57 533 133 358T341 51Q472 -81 648 -156T1024 -232Q1223 -232 1399 -157T1707 51Q1838 182 1914 357T1991 733H1991ZM1829 733Q1829 565 1766 417T1593 159Q1484 48 1338 -15T1024 -79Q856 -79 710 -16T454 159Q345 269 282 417T219 733Q219 901 282 1049T454 1307Q563 1418 709 1482T1024 1546Q1191 1546 1337 1482T1593 1307Q1702 1197 1765 1049T1829 733H1829Z"  />
<glyph unicode="&#x2474;" horiz-adv-x="2048" d="M1178 95V1381H971Q971 1328 946 1286T889 1219Q844 1189 789 1174T670 1159V953H940V95H1178ZM2013 733Q2013 889 1983 1019T1906 1255Q1860 1360 1806 1440T1702 1579H1552Q1626 1482 1677 1378T1759 1167Q1790 1060 1803 951T1817 733Q1817 511 1758 298T1552 -111H1702Q1750 -56 1804 23T1905 209Q1952 314 1982 444T2013 733H2013ZM496 -111Q349 84 290 297T231 733Q231 841 244 950T288 1167Q319 1274 370 1378T496 1579H346Q296 1521 242 1441T141 1255Q95 1150 65 1020T35 733Q35 575 65 445T142 209Q188 103 242 24T346 -111H496Z"  />
<glyph unicode="&#x2475;" horiz-adv-x="2048" d="M1466 89V295H866Q880 331 910 375T989 457L1229 643Q1266 675 1307 709T1382 788Q1415 833 1437 890T1460 1024Q1460 1100 1433 1172T1353 1299Q1300 1355 1222 1388T1042 1422Q936 1422 854 1384T716 1283Q660 1220 633 1140T608 977H846Q843 1027 854 1070T891 1146Q916 1178 953 1196T1040 1215Q1086 1215 1121 1198T1179 1154Q1203 1126 1214 1091T1223 1020Q1220 981 1206 950T1171 892Q1150 866 1125 845T1075 805L862 641Q773 572 720 503T636 365Q607 296 598 227T588 89H1466ZM2013 733Q2013 889 1983 1019T1906 1255Q1860 1360 1806 1440T1702 1579H1552Q1626 1482 1677 1378T1759 1167Q1790 1060 1803 951T1817 733Q1817 511 1758 298T1552 -111H1702Q1750 -56 1804 23T1905 209Q1952 314 1982 444T2013 733H2013ZM496 -111Q349 84 290 297T231 733Q231 841 244 950T288 1167Q319 1274 370 1378T496 1579H346Q296 1521 242 1441T141 1255Q95 1150 65 1020T35 733Q35 575 65 445T142 209Q188 103 242 24T346 -111H496Z"  />
<glyph unicode="&#x2476;" horiz-adv-x="2048" d="M1473 457Q1473 506 1458 552T1415 639Q1389 678 1353 708T1276 758Q1302 772 1330 797T1381 857Q1404 892 1419 938T1434 1043Q1434 1115 1404 1180T1319 1297Q1264 1347 1188 1377T1018 1407Q928 1407 851 1377T718 1292Q662 1239 632 1167T604 1010H842Q839 1049 848 1083T881 1144Q903 1169 938 1184T1020 1200Q1069 1200 1103 1184T1159 1144Q1180 1120 1189 1091T1196 1034Q1191 983 1168 949T1112 897Q1076 879 1028 872T924 864V643Q945 643 967 643T1011 642Q1034 641 1056 639T1102 631Q1165 612 1201 564T1233 457Q1227 380 1171 331T1020 281Q921 281 862 335T811 486H571Q567 388 601 309T697 174Q759 119 842 89T1022 59Q1118 59 1200 89T1343 174Q1404 228 1438 300T1473 457H1473ZM2013 733Q2013 889 1983 1019T1906 1255Q1860 1360 1806 1440T1702 1579H1552Q1626 1482 1677 1378T1759 1167Q1790 1060 1803 951T1817 733Q1817 511 1758 298T1552 -111H1702Q1750 -56 1804 23T1905 209Q1952 314 1982 444T2013 733H2013ZM496 -111Q349 84 290 297T231 733Q231 841 244 950T288 1167Q319 1274 370 1378T496 1579H346Q296 1521 242 1441T141 1255Q95 1150 65 1020T35 733Q35 575 65 445T142 209Q188 103 242 24T346 -111H496Z"  />
<glyph unicode="&#x2477;" horiz-adv-x="2048" d="M1507 262V484H1348V1372L1114 1370L549 510V262H1110V87H1348V262H1507ZM1110 484H797L1110 965V484ZM2013 733Q2013 889 1983 1019T1906 1255Q1860 1360 1806 1440T1702 1579H1552Q1626 1482 1677 1378T1759 1167Q1790 1060 1803 951T1817 733Q1817 511 1758 298T1552 -111H1702Q1750 -56 1804 23T1905 209Q1952 314 1982 444T2013 733H2013ZM496 -111Q349 84 290 297T231 733Q231 841 244 950T288 1167Q319 1274 370 1378T496 1579H346Q296 1521 242 1441T141 1255Q95 1150 65 1020T35 733Q35 575 65 445T142 209Q188 103 242 24T346 -111H496Z"  />
<glyph unicode="&#x2478;" horiz-adv-x="2048" d="M1468 516Q1468 612 1442 682T1373 802Q1331 851 1280 881T1178 928Q1140 940 1098 942T1013 941Q971 936 933 925T864 899L907 1143H1415V1366H705L604 680L852 682Q876 714 923 733T1028 752Q1074 752 1112 735T1178 685Q1205 654 1218 609T1229 510Q1220 410 1162 349T1020 287Q933 287 879 335T813 461H575Q580 390 614 320T705 192Q763 135 843 100T1022 65Q1103 65 1183 95T1326 184Q1389 242 1428 326T1468 516H1468ZM2013 733Q2013 889 1983 1019T1906 1255Q1860 1360 1806 1440T1702 1579H1552Q1626 1482 1677 1378T1759 1167Q1790 1060 1803 951T1817 733Q1817 511 1758 298T1552 -111H1702Q1750 -56 1804 23T1905 209Q1952 314 1982 444T2013 733H2013ZM496 -111Q349 84 290 297T231 733Q231 841 244 950T288 1167Q319 1274 370 1378T496 1579H346Q296 1521 242 1441T141 1255Q95 1150 65 1020T35 733Q35 575 65 445T142 209Q188 103 242 24T346 -111H496Z"  />
<glyph unicode="&#x2479;" horiz-adv-x="2048" d="M1489 508Q1489 599 1459 679T1374 819Q1320 879 1246 913T1083 948Q977 948 911 916T805 846Q805 882 810 931T840 1041Q852 1072 869 1101T912 1154Q937 1176 972 1190T1057 1204Q1105 1204 1140 1189T1200 1149Q1225 1124 1239 1093T1262 1028H1483Q1476 1103 1442 1172T1351 1294Q1295 1347 1220 1379T1059 1411Q896 1411 785 1323T616 1086Q590 1018 576 930T559 750Q557 658 566 570T598 414Q622 339 662 275T758 163Q814 116 887 90T1051 63Q1145 63 1225 97T1364 191Q1423 250 1456 331T1489 508H1489ZM1245 506Q1245 404 1188 344T1038 283Q945 283 888 343T831 506Q831 607 888 668T1038 729Q1130 729 1187 668T1245 506H1245ZM2013 733Q2013 889 1983 1019T1906 1255Q1860 1360 1806 1440T1702 1579H1552Q1626 1482 1677 1378T1759 1167Q1790 1060 1803 951T1817 733Q1817 511 1758 298T1552 -111H1702Q1750 -56 1804 23T1905 209Q1952 314 1982 444T2013 733H2013ZM496 -111Q349 84 290 297T231 733Q231 841 244 950T288 1167Q319 1274 370 1378T496 1579H346Q296 1521 242 1441T141 1255Q95 1150 65 1020T35 733Q35 575 65 445T142 209Q188 103 242 24T346 -111H496Z"  />
<glyph unicode="&#x247A;" horiz-adv-x="2048" d="M1481 1356H608V1116H1253Q1233 1090 1199 1047T1124 946Q1083 888 1039 819T956 672Q913 582 882 499T831 342Q811 268 800 207T786 102H1053Q1053 154 1064 225T1095 377Q1115 457 1145 543T1214 713Q1289 877 1363 977T1479 1123L1481 1356ZM2013 733Q2013 889 1983 1019T1906 1255Q1860 1360 1806 1440T1702 1579H1552Q1626 1482 1677 1378T1759 1167Q1790 1060 1803 951T1817 733Q1817 511 1758 298T1552 -111H1702Q1750 -56 1804 23T1905 209Q1952 314 1982 444T2013 733H2013ZM496 -111Q349 84 290 297T231 733Q231 841 244 950T288 1167Q319 1274 370 1378T496 1579H346Q296 1521 242 1441T141 1255Q95 1150 65 1020T35 733Q35 575 65 445T142 209Q188 103 242 24T346 -111H496Z"  />
<glyph unicode="&#x247B;" horiz-adv-x="2048" d="M1501 449Q1501 547 1446 633T1298 774Q1372 822 1415 894T1458 1051Q1458 1125 1424 1190T1331 1304Q1272 1352 1193 1380T1024 1409Q934 1409 855 1381T717 1304Q658 1255 624 1190T590 1051Q590 966 633 894T750 772Q657 718 602 633T547 449Q547 367 584 295T687 169Q752 115 838 84T1024 52Q1122 52 1208 83T1360 169Q1425 223 1463 295T1501 449H1501ZM1217 1032Q1217 967 1169 924T1024 881Q925 881 878 924T831 1032Q831 1093 878 1138T1024 1184Q1120 1184 1168 1139T1217 1032H1217ZM1255 459Q1255 384 1194 333T1024 281Q915 281 854 332T793 459Q793 498 808 531T854 591Q883 616 926 630T1024 645Q1078 645 1121 631T1193 591Q1223 565 1239 532T1255 459H1255ZM2013 733Q2013 889 1983 1019T1906 1255Q1860 1360 1806 1440T1702 1579H1552Q1626 1482 1677 1378T1759 1167Q1790 1060 1803 951T1817 733Q1817 511 1758 298T1552 -111H1702Q1750 -56 1804 23T1905 209Q1952 314 1982 444T2013 733H2013ZM496 -111Q349 84 290 297T231 733Q231 841 244 950T288 1167Q319 1274 370 1378T496 1579H346Q296 1521 242 1441T141 1255Q95 1150 65 1020T35 733Q35 575 65 445T142 209Q188 103 242 24T346 -111H496Z"  />
<glyph unicode="&#x247C;" horiz-adv-x="2048" d="M1454 1051Q1430 1126 1390 1190T1293 1303Q1237 1350 1164 1377T1001 1405Q906 1405 827 1370T690 1275Q633 1215 600 1134T563 959Q560 860 590 779T674 639Q728 581 803 548T969 514Q1015 513 1057 522T1136 547Q1172 562 1200 581T1247 619Q1247 582 1242 534T1214 426Q1202 395 1185 366T1141 313Q1115 290 1079 276T995 262Q946 262 911 277T851 316Q826 341 812 372T791 436H569Q575 361 611 293T704 172Q762 119 838 88T1001 57Q1164 57 1272 144T1440 381Q1465 448 1478 536T1494 716Q1495 808 1485 896T1454 1051H1454ZM1221 961Q1221 859 1164 798T1014 737Q921 737 864 798T807 961Q807 1062 864 1123T1014 1184Q1106 1184 1163 1123T1221 961H1221ZM2013 733Q2013 889 1983 1019T1906 1255Q1860 1360 1806 1440T1702 1579H1552Q1626 1482 1677 1378T1759 1167Q1790 1060 1803 951T1817 733Q1817 511 1758 298T1552 -111H1702Q1750 -56 1804 23T1905 209Q1952 314 1982 444T2013 733H2013ZM496 -111Q349 84 290 297T231 733Q231 841 244 950T288 1167Q319 1274 370 1378T496 1579H346Q296 1521 242 1441T141 1255Q95 1150 65 1020T35 733Q35 575 65 445T142 209Q188 103 242 24T346 -111H496Z"  />
<glyph unicode="&#x247D;" horiz-adv-x="2048" d="M1739 740Q1739 884 1710 1003T1624 1208Q1568 1294 1485 1341T1294 1389Q1186 1389 1103 1342T963 1208Q906 1123 877 1004T848 740Q848 596 877 477T963 271Q1019 186 1102 139T1294 91Q1402 91 1485 138T1624 271Q1681 357 1710 476T1739 740H1739ZM809 121V1356H610Q610 1305 585 1264T530 1200Q488 1172 435 1158T322 1143V944H580V121H809ZM1499 740Q1499 646 1486 567T1446 430Q1420 373 1382 341T1294 309Q1244 309 1205 341T1140 430Q1114 488 1101 567T1087 740Q1087 833 1100 912T1139 1049Q1166 1107 1204 1139T1294 1172Q1343 1172 1381 1140T1446 1049Q1472 991 1485 912T1499 740H1499ZM2013 733Q2013 889 1983 1019T1906 1255Q1860 1360 1806 1440T1702 1579H1552Q1626 1482 1677 1378T1759 1167Q1790 1060 1803 951T1817 733Q1817 511 1758 298T1552 -111H1702Q1750 -56 1804 23T1905 209Q1952 314 1982 444T2013 733H2013ZM496 -111Q349 84 290 297T231 733Q231 841 244 950T288 1167Q319 1274 370 1378T496 1579H346Q296 1521 242 1441T141 1255Q95 1150 65 1020T35 733Q35 575 65 445T142 209Q188 103 242 24T346 -111H496Z"  />
<glyph unicode="&#x247E;" horiz-adv-x="2048" d="M1493 121V1356H1294Q1294 1305 1269 1264T1214 1200Q1172 1172 1119 1158T1006 1143V944H1264V121H1493ZM895 121V1356H696Q696 1305 671 1264T616 1200Q574 1172 521 1158T408 1143V944H666V121H895ZM2013 733Q2013 889 1983 1019T1906 1255Q1860 1360 1806 1440T1702 1579H1552Q1626 1482 1677 1378T1759 1167Q1790 1060 1803 951T1817 733Q1817 511 1758 298T1552 -111H1702Q1750 -56 1804 23T1905 209Q1952 314 1982 444T2013 733H2013ZM496 -111Q349 84 290 297T231 733Q231 841 244 950T288 1167Q319 1274 370 1378T496 1579H346Q296 1521 242 1441T141 1255Q95 1150 65 1020T35 733Q35 575 65 445T142 209Q188 103 242 24T346 -111H496Z"  />
<glyph unicode="&#x247F;" horiz-adv-x="2048" d="M1653 139V334H1151Q1154 347 1163 366T1185 405Q1197 424 1212 441T1241 471L1442 649Q1465 670 1500 704T1570 784Q1603 830 1627 888T1651 1018Q1651 1090 1628 1157T1556 1277Q1509 1330 1438 1361T1272 1393Q1165 1393 1090 1357T968 1262Q922 1203 902 1128T885 973H1116Q1111 1060 1150 1120T1270 1180Q1306 1180 1332 1166T1375 1127Q1391 1104 1398 1074T1403 1014Q1401 980 1389 951T1359 898Q1342 874 1323 855T1288 824L1108 660Q1058 614 1014 558T936 437Q903 371 884 297T864 139H1653ZM809 137V1372H610Q610 1321 585 1280T530 1217Q488 1189 435 1174T322 1159V961H580V137H809ZM2013 733Q2013 889 1983 1019T1906 1255Q1860 1360 1806 1440T1702 1579H1552Q1626 1482 1677 1378T1759 1167Q1790 1060 1803 951T1817 733Q1817 511 1758 298T1552 -111H1702Q1750 -56 1804 23T1905 209Q1952 314 1982 444T2013 733H2013ZM496 -111Q349 84 290 297T231 733Q231 841 244 950T288 1167Q319 1274 370 1378T496 1579H346Q296 1521 242 1441T141 1255Q95 1150 65 1020T35 733Q35 575 65 445T142 209Q188 103 242 24T346 -111H496Z"  />
<glyph unicode="&#x2480;" horiz-adv-x="2048" d="M1733 473Q1733 520 1719 564T1679 646Q1655 684 1621 713T1548 760Q1572 773 1598 796T1646 854Q1668 888 1682 931T1696 1030Q1696 1098 1667 1160T1586 1271Q1534 1319 1461 1347T1300 1376Q1215 1376 1142 1347T1016 1267Q962 1216 933 1147T907 998H1143Q1138 1068 1178 1119T1303 1170Q1347 1170 1378 1156T1429 1119Q1448 1097 1456 1071T1462 1020Q1457 975 1437 944T1386 897Q1353 880 1310 874T1214 867V641Q1234 641 1254 641T1296 640Q1316 640 1336 638T1376 633Q1433 614 1466 571T1495 475Q1489 406 1439 362T1303 318Q1215 318 1162 367T1118 506L879 502Q874 409 905 334T996 205Q1054 152 1134 124T1305 95Q1396 95 1474 124T1610 204Q1667 255 1700 324T1733 473H1733ZM813 118V1352H614Q614 1301 590 1260T535 1196Q493 1168 440 1154T326 1139V940H584V118H813ZM2013 733Q2013 889 1983 1019T1906 1255Q1860 1360 1806 1440T1702 1579H1552Q1626 1482 1677 1378T1759 1167Q1790 1060 1803 951T1817 733Q1817 511 1758 298T1552 -111H1702Q1750 -56 1804 23T1905 209Q1952 314 1982 444T2013 733H2013ZM496 -111Q349 84 290 297T231 733Q231 841 244 950T288 1167Q319 1274 370 1378T496 1579H346Q296 1521 242 1441T141 1255Q95 1150 65 1020T35 733Q35 575 65 445T142 209Q188 103 242 24T346 -111H496Z"  />
<glyph unicode="&#x2481;" horiz-adv-x="2048" d="M1741 291V502H1595V1348L1374 1346L838 529V291H1370V116H1595V291H1741ZM786 114V1348H588Q588 1297 563 1256T508 1192Q466 1164 413 1150T299 1135V936H557V114H786ZM1370 502H1073L1370 959V502ZM2013 733Q2013 889 1983 1019T1906 1255Q1860 1360 1806 1440T1702 1579H1552Q1626 1482 1677 1378T1759 1167Q1790 1060 1803 951T1817 733Q1817 511 1758 298T1552 -111H1702Q1750 -56 1804 23T1905 209Q1952 314 1982 444T2013 733H2013ZM496 -111Q349 84 290 297T231 733Q231 841 244 950T288 1167Q319 1274 370 1378T496 1579H346Q296 1521 242 1441T141 1255Q95 1150 65 1020T35 733Q35 575 65 445T142 209Q188 103 242 24T346 -111H496Z"  />
<glyph unicode="&#x2482;" horiz-adv-x="2048" d="M799 106V1340H600Q600 1289 575 1248T520 1184Q478 1156 425 1142T311 1127V928H569V106H799ZM1708 500Q1708 591 1683 658T1618 771Q1578 818 1529 846T1432 891Q1396 902 1356 904T1276 903Q1236 898 1200 888T1135 864L1178 1118H1657V1331H981L887 656H1122Q1145 683 1187 698T1282 713Q1322 713 1356 697T1415 652Q1439 624 1451 584T1460 496Q1452 405 1401 350T1274 295Q1196 295 1148 335T1085 447H858Q863 380 895 313T982 192Q1037 138 1113 105T1284 71Q1360 71 1436 100T1572 184Q1633 239 1670 318T1708 500H1708ZM2013 733Q2013 889 1983 1019T1906 1255Q1860 1360 1806 1440T1702 1579H1552Q1626 1482 1677 1378T1759 1167Q1790 1060 1803 951T1817 733Q1817 511 1758 298T1552 -111H1702Q1750 -56 1804 23T1905 209Q1952 314 1982 444T2013 733H2013ZM496 -111Q349 84 290 297T231 733Q231 841 244 950T288 1167Q319 1274 370 1378T496 1579H346Q296 1521 242 1441T141 1255Q95 1150 65 1020T35 733Q35 575 65 445T142 209Q188 103 242 24T346 -111H496Z"  />
<glyph unicode="&#x249C;" horiz-adv-x="2048" d="M1530 244Q1529 245 1523 260T1508 298Q1501 321 1495 350T1489 410V934Q1489 1004 1456 1062T1364 1161Q1306 1202 1228 1224T1059 1247Q964 1247 883 1219T742 1140Q683 1091 652 1023T627 875H866Q863 910 876 938T914 987Q940 1008 975 1019T1053 1030Q1145 1030 1193 1007T1241 940Q1241 915 1229 900T1198 875Q1179 865 1157 860T1114 850Q1089 844 1056 839T983 826Q944 820 902 812T817 791Q762 773 715 742T635 668Q602 624 587 569T580 447Q587 380 618 333T699 256Q747 228 809 218T940 215Q983 219 1027 231T1113 260Q1153 277 1186 296T1241 336Q1247 308 1256 285T1278 246L1530 244ZM1241 651Q1241 619 1221 591T1171 540Q1141 516 1106 498T1038 467Q1010 458 977 453T914 448Q884 448 862 455T836 477Q820 514 845 539T913 582Q933 590 961 597T1022 610Q1053 617 1085 623T1145 635Q1157 639 1170 643T1196 653Q1209 657 1220 662T1241 674V651ZM2013 733Q2013 889 1983 1019T1906 1255Q1860 1360 1806 1440T1702 1579H1552Q1626 1482 1677 1378T1759 1167Q1790 1060 1803 951T1817 733Q1817 511 1758 298T1552 -111H1702Q1750 -56 1804 23T1905 209Q1952 314 1982 444T2013 733H2013ZM496 -111Q349 84 290 297T231 733Q231 841 244 950T288 1167Q319 1274 370 1378T496 1579H346Q296 1521 242 1441T141 1255Q95 1150 65 1020T35 733Q35 575 65 445T142 209Q188 103 242 24T346 -111H496Z"  />
<glyph unicode="&#x249D;" horiz-adv-x="2048" d="M1544 549Q1544 661 1513 756T1426 921Q1370 991 1291 1030T1114 1069Q1029 1069 956 1038T829 950V1397H580V65H829V148Q883 93 956 63T1114 32Q1211 32 1290 70T1426 177Q1482 246 1513 341T1544 549H1544ZM1292 549Q1292 484 1277 429T1231 335Q1202 295 1160 273T1063 250Q1010 250 967 272T893 335Q862 374 846 429T829 549Q829 615 845 670T893 765Q923 805 966 827T1063 850Q1117 850 1159 828T1231 765Q1261 725 1276 670T1292 549H1292ZM2013 733Q2013 889 1983 1019T1906 1255Q1860 1360 1806 1440T1702 1579H1552Q1626 1482 1677 1378T1759 1167Q1790 1060 1803 951T1817 733Q1817 511 1758 298T1552 -111H1702Q1750 -56 1804 23T1905 209Q1952 314 1982 444T2013 733H2013ZM496 -111Q349 84 290 297T231 733Q231 841 244 950T288 1167Q319 1274 370 1378T496 1579H346Q296 1521 242 1441T141 1255Q95 1150 65 1020T35 733Q35 575 65 445T142 209Q188 103 242 24T346 -111H496Z"  />
<glyph unicode="&#x249E;" horiz-adv-x="2048" d="M1501 570H1233Q1227 549 1212 526T1173 483Q1149 463 1117 451T1044 438Q988 438 945 460T872 523Q842 562 827 615T811 729Q811 789 826 842T871 936Q901 976 944 999T1044 1022Q1088 1022 1121 1008T1178 974Q1202 954 1215 932T1235 891H1501Q1487 949 1450 1012T1354 1128Q1296 1181 1217 1215T1040 1249Q929 1249 841 1208T690 1095Q629 1025 596 930T563 729Q563 622 596 528T690 362Q752 291 840 250T1040 209Q1136 209 1214 240T1351 322Q1409 373 1446 437T1501 570H1501ZM2013 733Q2013 889 1983 1019T1906 1255Q1860 1360 1806 1440T1702 1579H1552Q1626 1482 1677 1378T1759 1167Q1790 1060 1803 951T1817 733Q1817 511 1758 298T1552 -111H1702Q1750 -56 1804 23T1905 209Q1952 314 1982 444T2013 733H2013ZM496 -111Q349 84 290 297T231 733Q231 841 244 950T288 1167Q319 1274 370 1378T496 1579H346Q296 1521 242 1441T141 1255Q95 1150 65 1020T35 733Q35 575 65 445T142 209Q188 103 242 24T346 -111H496Z"  />
<glyph unicode="&#x249F;" horiz-adv-x="2048" d="M1470 73V1405H1221V967Q1168 1019 1097 1048T940 1077Q839 1077 759 1038T622 929Q566 859 536 764T506 557Q506 444 536 349T622 185Q678 116 758 78T940 40Q1026 40 1097 69T1221 152V73H1470ZM1221 557Q1221 492 1207 437T1165 343Q1136 303 1093 281T991 258Q933 258 891 280T820 343Q791 382 778 437T764 557Q764 623 777 678T820 773Q848 813 890 835T991 858Q1050 858 1093 836T1165 773Q1193 733 1207 678T1221 557H1221ZM2013 733Q2013 889 1983 1019T1906 1255Q1860 1360 1806 1440T1702 1579H1552Q1626 1482 1677 1378T1759 1167Q1790 1060 1803 951T1817 733Q1817 511 1758 298T1552 -111H1702Q1750 -56 1804 23T1905 209Q1952 314 1982 444T2013 733H2013ZM496 -111Q349 84 290 297T231 733Q231 841 244 950T288 1167Q319 1274 370 1378T496 1579H346Q296 1521 242 1441T141 1255Q95 1150 65 1020T35 733Q35 575 65 445T142 209Q188 103 242 24T346 -111H496Z"  />
<glyph unicode="&#x24A0;" horiz-adv-x="2048" d="M1497 637Q1508 793 1472 908T1368 1100Q1300 1176 1210 1214T1024 1252Q914 1252 826 1211T675 1098Q612 1027 579 932T545 729Q545 622 580 528T679 362Q743 291 832 250T1028 209Q1129 209 1203 237T1330 312Q1382 357 1415 413T1468 525L1194 522Q1187 512 1173 498T1137 471Q1116 459 1088 450T1026 441Q973 441 933 461T864 513Q837 543 822 577T805 637H1497ZM1231 850H815Q823 883 840 914T884 968Q910 992 945 1006T1026 1020Q1067 1020 1100 1005T1160 966Q1185 942 1202 912T1231 850H1231ZM2013 733Q2013 889 1983 1019T1906 1255Q1860 1360 1806 1440T1702 1579H1552Q1626 1482 1677 1378T1759 1167Q1790 1060 1803 951T1817 733Q1817 511 1758 298T1552 -111H1702Q1750 -56 1804 23T1905 209Q1952 314 1982 444T2013 733H2013ZM496 -111Q349 84 290 297T231 733Q231 841 244 950T288 1167Q319 1274 370 1378T496 1579H346Q296 1521 242 1441T141 1255Q95 1150 65 1020T35 733Q35 575 65 445T142 209Q188 103 242 24T346 -111H496Z"  />
<glyph unicode="&#x24A1;" horiz-adv-x="2048" d="M1266 813V1026H1135V1086Q1135 1118 1139 1134T1161 1166Q1170 1170 1179 1172T1201 1175Q1213 1176 1229 1176T1266 1176V1389H1135Q1075 1389 1030 1371T954 1323Q918 1287 903 1243T887 1135V1026H772V813H887V75H1135V813H1266ZM2013 733Q2013 889 1983 1019T1906 1255Q1860 1360 1806 1440T1702 1579H1552Q1626 1482 1677 1378T1759 1167Q1790 1060 1803 951T1817 733Q1817 511 1758 298T1552 -111H1702Q1750 -56 1804 23T1905 209Q1952 314 1982 444T2013 733H2013ZM496 -111Q349 84 290 297T231 733Q231 841 244 950T288 1167Q319 1274 370 1378T496 1579H346Q296 1521 242 1441T141 1255Q95 1150 65 1020T35 733Q35 575 65 445T142 209Q188 103 242 24T346 -111H496Z"  />
<glyph unicode="&#x24A2;" horiz-adv-x="2048" d="M1489 498V1366H1243V1297Q1187 1345 1114 1372T954 1399Q857 1399 778 1364T643 1265Q587 1203 557 1117T526 930Q526 828 556 742T643 594Q699 531 778 496T954 461Q1040 461 1113 487T1243 565V477Q1243 430 1226 396T1179 339Q1149 316 1108 306T1020 295Q977 295 939 304T872 330Q843 347 826 370T809 420H557Q561 353 594 292T686 184Q745 138 828 111T1018 83Q1097 83 1181 102T1333 168Q1401 215 1445 295T1489 498H1489ZM1243 930Q1243 874 1226 828T1179 749Q1148 716 1105 698T1008 680Q900 680 839 749T778 930Q778 1044 839 1114T1008 1184Q1061 1184 1104 1166T1179 1114Q1209 1080 1226 1034T1243 930H1243ZM2013 733Q2013 889 1983 1019T1906 1255Q1860 1360 1806 1440T1702 1579H1552Q1626 1482 1677 1378T1759 1167Q1790 1060 1803 951T1817 733Q1817 511 1758 298T1552 -111H1702Q1750 -56 1804 23T1905 209Q1952 314 1982 444T2013 733H2013ZM496 -111Q349 84 290 297T231 733Q231 841 244 950T288 1167Q319 1274 370 1378T496 1579H346Q296 1521 242 1441T141 1255Q95 1150 65 1020T35 733Q35 575 65 445T142 209Q188 103 242 24T346 -111H496Z"  />
<glyph unicode="&#x24A3;" horiz-adv-x="2048" d="M1466 67V733Q1466 786 1448 843T1392 948Q1356 996 1300 1028T1169 1067Q1063 1076 985 1043T858 963V1399H612V67H858V600Q858 706 912 768T1057 830Q1141 830 1181 778T1221 623V67H1466ZM2013 733Q2013 889 1983 1019T1906 1255Q1860 1360 1806 1440T1702 1579H1552Q1626 1482 1677 1378T1759 1167Q1790 1060 1803 951T1817 733Q1817 511 1758 298T1552 -111H1702Q1750 -56 1804 23T1905 209Q1952 314 1982 444T2013 733H2013ZM496 -111Q349 84 290 297T231 733Q231 841 244 950T288 1167Q319 1274 370 1378T496 1579H346Q296 1521 242 1441T141 1255Q95 1150 65 1020T35 733Q35 575 65 445T142 209Q188 103 242 24T346 -111H496Z"  />
<glyph unicode="&#x24A4;" horiz-adv-x="2048" d="M1149 1149V1397H901V1149H1149ZM1149 65V1034H901V65H1149ZM2013 733Q2013 889 1983 1019T1906 1255Q1860 1360 1806 1440T1702 1579H1552Q1626 1482 1677 1378T1759 1167Q1790 1060 1803 951T1817 733Q1817 511 1758 298T1552 -111H1702Q1750 -56 1804 23T1905 209Q1952 314 1982 444T2013 733H2013ZM496 -111Q349 84 290 297T231 733Q231 841 244 950T288 1167Q319 1274 370 1378T496 1579H346Q296 1521 242 1441T141 1255Q95 1150 65 1020T35 733Q35 575 65 445T142 209Q188 103 242 24T346 -111H496Z"  />
<glyph unicode="&#x24A5;" horiz-adv-x="2048" d="M1184 1303V1551H934V1303H1184ZM1184 187V1147H934V232Q934 199 929 182T905 152Q897 145 889 142T868 138Q856 136 841 136T803 137V-77H934Q992 -77 1036 -60T1114 -9Q1146 21 1165 71T1184 187H1184ZM2013 733Q2013 889 1983 1019T1906 1255Q1860 1360 1806 1440T1702 1579H1552Q1626 1482 1677 1378T1759 1167Q1790 1060 1803 951T1817 733Q1817 511 1758 298T1552 -111H1702Q1750 -56 1804 23T1905 209Q1952 314 1982 444T2013 733H2013ZM496 -111Q349 84 290 297T231 733Q231 841 244 950T288 1167Q319 1274 370 1378T496 1579H346Q296 1521 242 1441T141 1255Q95 1150 65 1020T35 733Q35 575 65 445T142 209Q188 103 242 24T346 -111H496Z"  />
<glyph unicode="&#x24A6;" horiz-adv-x="2048" d="M1513 73L1083 668L1456 1041H1143L840 737V1403H592V73H840V428L911 498L1227 75L1513 73ZM2013 733Q2013 889 1983 1019T1906 1255Q1860 1360 1806 1440T1702 1579H1552Q1626 1482 1677 1378T1759 1167Q1790 1060 1803 951T1817 733Q1817 511 1758 298T1552 -111H1702Q1750 -56 1804 23T1905 209Q1952 314 1982 444T2013 733H2013ZM496 -111Q349 84 290 297T231 733Q231 841 244 950T288 1167Q319 1274 370 1378T496 1579H346Q296 1521 242 1441T141 1255Q95 1150 65 1020T35 733Q35 575 65 445T142 209Q188 103 242 24T346 -111H496Z"  />
<glyph unicode="&#x24A7;" horiz-adv-x="2048" d="M1147 69V1399H899V69H1147ZM2013 733Q2013 889 1983 1019T1906 1255Q1860 1360 1806 1440T1702 1579H1552Q1626 1482 1677 1378T1759 1167Q1790 1060 1803 951T1817 733Q1817 511 1758 298T1552 -111H1702Q1750 -56 1804 23T1905 209Q1952 314 1982 444T2013 733H2013ZM496 -111Q349 84 290 297T231 733Q231 841 244 950T288 1167Q319 1274 370 1378T496 1579H346Q296 1521 242 1441T141 1255Q95 1150 65 1020T35 733Q35 575 65 445T142 209Q188 103 242 24T346 -111H496Z"  />
<glyph unicode="&#x24A8;" horiz-adv-x="2048" d="M1657 232V901Q1657 962 1642 1019T1594 1123Q1563 1168 1514 1197T1399 1233Q1328 1239 1278 1229T1192 1200Q1157 1181 1135 1158T1096 1116Q1068 1168 1013 1201T879 1235Q832 1235 795 1224T727 1197Q697 1180 675 1161T637 1123V1202H389V232H637V787Q637 889 675 945T784 1004Q820 1004 843 989T878 946Q891 918 896 882T901 805V232H1147V787Q1147 889 1184 945T1294 1004Q1330 1004 1352 989T1387 946Q1400 918 1404 882T1409 805V232H1657ZM2013 733Q2013 889 1983 1019T1906 1255Q1860 1360 1806 1440T1702 1579H1552Q1626 1482 1677 1378T1759 1167Q1790 1060 1803 951T1817 733Q1817 511 1758 298T1552 -111H1702Q1750 -56 1804 23T1905 209Q1952 314 1982 444T2013 733H2013ZM496 -111Q349 84 290 297T231 733Q231 841 244 950T288 1167Q319 1274 370 1378T496 1579H346Q296 1521 242 1441T141 1255Q95 1150 65 1020T35 733Q35 575 65 445T142 209Q188 103 242 24T346 -111H496Z"  />
<glyph unicode="&#x24A9;" horiz-adv-x="2048" d="M1448 221V885Q1448 938 1430 995T1374 1101Q1338 1150 1282 1183T1151 1225Q1098 1229 1052 1222T967 1199Q928 1183 896 1162T840 1118V1192H594V221H840V756Q840 861 894 923T1038 985Q1122 985 1162 932T1202 774V221H1448ZM2013 733Q2013 889 1983 1019T1906 1255Q1860 1360 1806 1440T1702 1579H1552Q1626 1482 1677 1378T1759 1167Q1790 1060 1803 951T1817 733Q1817 511 1758 298T1552 -111H1702Q1750 -56 1804 23T1905 209Q1952 314 1982 444T2013 733H2013ZM496 -111Q349 84 290 297T231 733Q231 841 244 950T288 1167Q319 1274 370 1378T496 1579H346Q296 1521 242 1441T141 1255Q95 1150 65 1020T35 733Q35 575 65 445T142 209Q188 103 242 24T346 -111H496Z"  />
<glyph unicode="&#x24AA;" horiz-adv-x="2048" d="M1505 729Q1505 836 1472 931T1376 1098Q1313 1169 1225 1210T1026 1252Q915 1252 827 1211T675 1098Q613 1026 580 931T547 729Q547 622 580 528T675 362Q738 291 826 250T1026 209Q1136 209 1224 250T1376 362Q1438 433 1471 527T1505 729H1505ZM1251 729Q1251 668 1235 615T1190 522Q1161 482 1120 459T1026 436Q973 436 932 459T861 522Q832 561 817 614T801 729Q801 789 816 842T861 935Q890 974 931 997T1026 1020Q1078 1020 1119 997T1190 935Q1219 895 1235 842T1251 729H1251ZM2013 733Q2013 889 1983 1019T1906 1255Q1860 1360 1806 1440T1702 1579H1552Q1626 1482 1677 1378T1759 1167Q1790 1060 1803 951T1817 733Q1817 511 1758 298T1552 -111H1702Q1750 -56 1804 23T1905 209Q1952 314 1982 444T2013 733H2013ZM496 -111Q349 84 290 297T231 733Q231 841 244 950T288 1167Q319 1274 370 1378T496 1579H346Q296 1521 242 1441T141 1255Q95 1150 65 1020T35 733Q35 575 65 445T142 209Q188 103 242 24T346 -111H496Z"  />
<glyph unicode="&#x24AB;" horiz-adv-x="2048" d="M1559 883Q1559 996 1528 1091T1441 1255Q1385 1324 1305 1362T1128 1401Q1042 1401 969 1371T842 1286V1366H594V100H842V479Q896 421 969 391T1128 361Q1225 361 1305 400T1441 509Q1497 578 1528 674T1559 883H1559ZM1305 883Q1305 817 1290 762T1245 667Q1215 627 1173 606T1077 584Q1024 584 981 605T906 667Q875 707 859 762T842 883Q842 947 858 1002T906 1098Q937 1138 980 1161T1077 1184Q1131 1184 1173 1161T1245 1098Q1274 1057 1289 1002T1305 883H1305ZM2013 733Q2013 889 1983 1019T1906 1255Q1860 1360 1806 1440T1702 1579H1552Q1626 1482 1677 1378T1759 1167Q1790 1060 1803 951T1817 733Q1817 511 1758 298T1552 -111H1702Q1750 -56 1804 23T1905 209Q1952 314 1982 444T2013 733H2013ZM496 -111Q349 84 290 297T231 733Q231 841 244 950T288 1167Q319 1274 370 1378T496 1579H346Q296 1521 242 1441T141 1255Q95 1150 65 1020T35 733Q35 575 65 445T142 209Q188 103 242 24T346 -111H496Z"  />
<glyph unicode="&#x24AC;" horiz-adv-x="2048" d="M1446 102V1368H1196V1286Q1142 1343 1069 1373T911 1403Q813 1403 734 1364T598 1256Q542 1187 512 1092T481 883Q481 770 511 675T598 510Q654 440 733 402T911 363Q995 363 1068 394T1196 481V102H1446ZM1196 883Q1196 818 1179 763T1132 669Q1101 629 1058 607T963 584Q908 584 865 606T793 669Q763 708 748 763T733 883Q733 949 748 1004T793 1099Q822 1139 865 1161T963 1184Q1015 1184 1058 1162T1132 1099Q1162 1059 1179 1004T1196 883H1196ZM2013 733Q2013 889 1983 1019T1906 1255Q1860 1360 1806 1440T1702 1579H1552Q1626 1482 1677 1378T1759 1167Q1790 1060 1803 951T1817 733Q1817 511 1758 298T1552 -111H1702Q1750 -56 1804 23T1905 209Q1952 314 1982 444T2013 733H2013ZM496 -111Q349 84 290 297T231 733Q231 841 244 950T288 1167Q319 1274 370 1378T496 1579H346Q296 1521 242 1441T141 1255Q95 1150 65 1020T35 733Q35 575 65 445T142 209Q188 103 242 24T346 -111H496Z"  />
<glyph unicode="&#x24AD;" horiz-adv-x="2048" d="M1337 1004V1249Q1335 1249 1319 1247T1279 1241Q1256 1236 1229 1230T1178 1215Q1127 1190 1094 1164T1034 1106V1217H786V246H1034V705Q1034 797 1064 855T1151 955Q1193 983 1241 993T1337 1004H1337ZM2013 733Q2013 889 1983 1019T1906 1255Q1860 1360 1806 1440T1702 1579H1552Q1626 1482 1677 1378T1759 1167Q1790 1060 1803 951T1817 733Q1817 511 1758 298T1552 -111H1702Q1750 -56 1804 23T1905 209Q1952 314 1982 444T2013 733H2013ZM496 -111Q349 84 290 297T231 733Q231 841 244 950T288 1167Q319 1274 370 1378T496 1579H346Q296 1521 242 1441T141 1255Q95 1150 65 1020T35 733Q35 575 65 445T142 209Q188 103 242 24T346 -111H496Z"  />
<glyph unicode="&#x24AE;" horiz-adv-x="2048" d="M1444 520Q1446 566 1433 604T1396 675Q1373 706 1342 730T1276 772Q1240 789 1198 803T1112 828Q1069 839 1031 848T965 867Q914 882 892 903T877 961Q883 999 923 1016T1032 1034Q1098 1034 1141 1002T1184 928H1415Q1416 988 1390 1045T1311 1148Q1260 1192 1186 1219T1018 1247Q930 1247 860 1221T741 1154Q692 1113 665 1062T635 961Q627 864 672 797T823 690Q853 678 891 668T970 646Q1010 636 1049 625T1122 600Q1155 586 1177 564T1196 514Q1193 484 1153 455T1030 426Q984 426 950 438T891 471Q868 491 855 516T840 568H606Q606 521 628 460T701 344Q752 288 835 250T1040 211Q1118 210 1189 234T1316 301Q1371 343 1405 399T1444 520H1444ZM2013 733Q2013 889 1983 1019T1906 1255Q1860 1360 1806 1440T1702 1579H1552Q1626 1482 1677 1378T1759 1167Q1790 1060 1803 951T1817 733Q1817 511 1758 298T1552 -111H1702Q1750 -56 1804 23T1905 209Q1952 314 1982 444T2013 733H2013ZM496 -111Q349 84 290 297T231 733Q231 841 244 950T288 1167Q319 1274 370 1378T496 1579H346Q296 1521 242 1441T141 1255Q95 1150 65 1020T35 733Q35 575 65 445T142 209Q188 103 242 24T346 -111H496Z"  />
<glyph unicode="&#x24AF;" horiz-adv-x="2048" d="M1266 100V314Q1224 314 1201 316T1163 330Q1145 343 1140 359T1135 410V854H1266V1069H1135V1364H887V1069H772V854H887V365Q887 299 905 248T954 168Q987 134 1031 117T1135 100H1266ZM2013 733Q2013 889 1983 1019T1906 1255Q1860 1360 1806 1440T1702 1579H1552Q1626 1482 1677 1378T1759 1167Q1790 1060 1803 951T1817 733Q1817 511 1758 298T1552 -111H1702Q1750 -56 1804 23T1905 209Q1952 314 1982 444T2013 733H2013ZM496 -111Q349 84 290 297T231 733Q231 841 244 950T288 1167Q319 1274 370 1378T496 1579H346Q296 1521 242 1441T141 1255Q95 1150 65 1020T35 733Q35 575 65 445T142 209Q188 103 242 24T346 -111H496Z"  />
<glyph unicode="&#x24B0;" horiz-adv-x="2048" d="M1446 266V1237H1198V703Q1198 595 1149 534T1008 473Q924 473 889 523T854 682V1237H606V576Q606 513 624 454T679 346Q716 298 772 267T905 230Q951 226 994 234T1074 257Q1112 272 1143 292T1198 336V266H1446ZM2013 733Q2013 889 1983 1019T1906 1255Q1860 1360 1806 1440T1702 1579H1552Q1626 1482 1677 1378T1759 1167Q1790 1060 1803 951T1817 733Q1817 511 1758 298T1552 -111H1702Q1750 -56 1804 23T1905 209Q1952 314 1982 444T2013 733H2013ZM496 -111Q349 84 290 297T231 733Q231 841 244 950T288 1167Q319 1274 370 1378T496 1579H346Q296 1521 242 1441T141 1255Q95 1150 65 1020T35 733Q35 575 65 445T142 209Q188 103 242 24T346 -111H496Z"  />
<glyph unicode="&#x24B1;" horiz-adv-x="2048" d="M1526 1209H1255L1028 580L803 1209H530L891 256H1165L1526 1209ZM2013 733Q2013 889 1983 1019T1906 1255Q1860 1360 1806 1440T1702 1579H1552Q1626 1482 1677 1378T1759 1167Q1790 1060 1803 951T1817 733Q1817 511 1758 298T1552 -111H1702Q1750 -56 1804 23T1905 209Q1952 314 1982 444T2013 733H2013ZM496 -111Q349 84 290 297T231 733Q231 841 244 950T288 1167Q319 1274 370 1378T496 1579H346Q296 1521 242 1441T141 1255Q95 1150 65 1020T35 733Q35 575 65 445T142 209Q188 103 242 24T346 -111H496Z"  />
<glyph unicode="&#x24B2;" horiz-adv-x="2048" d="M1661 1200H1415L1282 619L1149 1200H895L764 619L629 1200H383L631 250H893L1022 776L1151 250H1413L1661 1200ZM2013 733Q2013 889 1983 1019T1906 1255Q1860 1360 1806 1440T1702 1579H1552Q1626 1482 1677 1378T1759 1167Q1790 1060 1803 951T1817 733Q1817 511 1758 298T1552 -111H1702Q1750 -56 1804 23T1905 209Q1952 314 1982 444T2013 733H2013ZM496 -111Q349 84 290 297T231 733Q231 841 244 950T288 1167Q319 1274 370 1378T496 1579H346Q296 1521 242 1441T141 1255Q95 1150 65 1020T35 733Q35 575 65 445T142 209Q188 103 242 24T346 -111H496Z"  />
<glyph unicode="&#x24B3;" horiz-adv-x="2048" d="M1513 248L1169 737L1491 1204H1204L1026 946L848 1204H561L883 737L541 248H831L1026 531L1219 248H1513ZM2013 733Q2013 889 1983 1019T1906 1255Q1860 1360 1806 1440T1702 1579H1552Q1626 1482 1677 1378T1759 1167Q1790 1060 1803 951T1817 733Q1817 511 1758 298T1552 -111H1702Q1750 -56 1804 23T1905 209Q1952 314 1982 444T2013 733H2013ZM496 -111Q349 84 290 297T231 733Q231 841 244 950T288 1167Q319 1274 370 1378T496 1579H346Q296 1521 242 1441T141 1255Q95 1150 65 1020T35 733Q35 575 65 445T142 209Q188 103 242 24T346 -111H496Z"  />
<glyph unicode="&#x24B4;" horiz-adv-x="2048" d="M1532 1397H1260L1032 768L807 1397H535L907 418L883 350Q873 324 843 303T778 281H670V67H799Q838 67 881 72T967 100Q1006 118 1041 155T1102 254L1532 1397ZM2013 733Q2013 889 1983 1019T1906 1255Q1860 1360 1806 1440T1702 1579H1552Q1626 1482 1677 1378T1759 1167Q1790 1060 1803 951T1817 733Q1817 511 1758 298T1552 -111H1702Q1750 -56 1804 23T1905 209Q1952 314 1982 444T2013 733H2013ZM496 -111Q349 84 290 297T231 733Q231 841 244 950T288 1167Q319 1274 370 1378T496 1579H346Q296 1521 242 1441T141 1255Q95 1150 65 1020T35 733Q35 575 65 445T142 209Q188 103 242 24T346 -111H496Z"  />
<glyph unicode="&#x24B5;" horiz-adv-x="2048" d="M1458 246V461H938L1427 1010V1219H670V1004H1104L621 457V246H1458ZM2013 733Q2013 889 1983 1019T1906 1255Q1860 1360 1806 1440T1702 1579H1552Q1626 1482 1677 1378T1759 1167Q1790 1060 1803 951T1817 733Q1817 511 1758 298T1552 -111H1702Q1750 -56 1804 23T1905 209Q1952 314 1982 444T2013 733H2013ZM496 -111Q349 84 290 297T231 733Q231 841 244 950T288 1167Q319 1274 370 1378T496 1579H346Q296 1521 242 1441T141 1255Q95 1150 65 1020T35 733Q35 575 65 445T142 209Q188 103 242 24T346 -111H496Z"  />
<glyph unicode="&#x24D0;" horiz-adv-x="2048" d="M1432 441V944Q1432 1010 1400 1064T1313 1156Q1257 1194 1183 1215T1024 1237Q936 1237 860 1211T727 1139Q671 1093 641 1031T616 895H831Q828 928 840 955T879 1004Q904 1024 940 1035T1020 1047Q1112 1047 1160 1020T1208 950Q1208 924 1196 908T1165 882Q1146 872 1123 866T1079 856Q1056 850 1024 845T954 833Q916 827 876 819T797 799Q744 782 700 753T624 682Q592 641 578 589T571 475Q579 413 609 370T684 299Q729 272 786 263T909 260Q953 264 998 276T1083 307Q1123 324 1155 344T1206 387Q1210 353 1219 329T1239 287H1464Q1463 288 1458 301T1447 336Q1441 357 1437 384T1432 441H1432ZM1208 711V672Q1208 641 1189 613T1140 561Q1110 537 1075 519T1008 488Q979 478 945 474T881 471Q851 472 829 479T803 502Q787 540 811 568T883 615Q902 622 929 628T987 641Q1017 647 1048 653T1106 666Q1119 670 1134 674T1163 685Q1177 690 1188 696T1208 711H1208ZM1991 733Q1991 932 1915 1108T1707 1416Q1575 1547 1399 1623T1024 1700Q824 1700 648 1624T341 1416Q209 1285 133 1109T57 733Q57 533 133 358T341 51Q472 -81 648 -156T1024 -232Q1223 -232 1399 -157T1707 51Q1838 182 1914 357T1991 733H1991ZM1024 1546Q1191 1546 1337 1482T1593 1307Q1702 1197 1765 1049T1829 733Q1829 565 1766 417T1593 159Q1484 48 1338 -15T1024 -79Q856 -79 710 -16T454 159Q345 269 282 417T219 733Q219 901 282 1049T454 1307Q563 1418 709 1482T1024 1546H1024Z"  />
<glyph unicode="&#x24D1;" horiz-adv-x="2048" d="M1556 565Q1556 671 1528 761T1446 917Q1394 982 1320 1019T1153 1057Q1065 1057 994 1025T868 932V1370H647V106H868V197Q922 138 993 106T1153 73Q1245 73 1319 109T1446 211Q1499 277 1527 367T1556 565H1556ZM1331 565Q1331 499 1315 445T1270 350Q1240 310 1198 288T1102 266Q1049 266 1006 288T932 350Q902 390 885 444T868 565Q868 630 885 684T932 778Q963 817 1006 838T1102 860Q1155 860 1197 839T1270 778Q1299 739 1315 685T1331 565H1331ZM1991 733Q1991 932 1915 1108T1707 1416Q1575 1547 1399 1623T1024 1700Q824 1700 648 1624T341 1416Q209 1285 133 1109T57 733Q57 533 133 358T341 51Q472 -81 648 -156T1024 -232Q1223 -232 1399 -157T1707 51Q1838 182 1914 357T1991 733H1991ZM1024 1546Q1191 1546 1337 1482T1593 1307Q1702 1197 1765 1049T1829 733Q1829 565 1766 417T1593 159Q1484 48 1338 -15T1024 -79Q856 -79 710 -16T454 159Q345 269 282 417T219 733Q219 901 282 1049T454 1307Q563 1418 709 1482T1024 1546H1024Z"  />
<glyph unicode="&#x24D2;" horiz-adv-x="2048" d="M1468 568H1227Q1220 549 1206 527T1168 486Q1144 468 1112 456T1040 443Q984 443 941 465T868 527Q838 566 823 618T807 729Q807 788 822 840T867 932Q897 972 940 995T1040 1018Q1084 1018 1117 1005T1174 971Q1197 952 1210 931T1229 893H1468Q1456 944 1422 1001T1333 1108Q1277 1157 1203 1189T1036 1221Q930 1221 846 1182T704 1076Q645 1009 615 920T584 729Q584 627 614 538T704 382Q762 315 846 277T1036 238Q1127 238 1200 267T1329 343Q1383 389 1418 448T1468 568H1468ZM1991 733Q1991 932 1915 1108T1707 1416Q1575 1547 1399 1623T1024 1700Q824 1700 648 1624T341 1416Q209 1285 133 1109T57 733Q57 533 133 358T341 51Q472 -81 648 -156T1024 -232Q1223 -232 1399 -157T1707 51Q1838 182 1914 357T1991 733H1991ZM1024 1546Q1191 1546 1337 1482T1593 1307Q1702 1197 1765 1049T1829 733Q1829 565 1766 417T1593 159Q1484 48 1338 -15T1024 -79Q856 -79 710 -16T454 159Q345 269 282 417T219 733Q219 901 282 1049T454 1307Q563 1418 709 1482T1024 1546H1024Z"  />
<glyph unicode="&#x24D3;" horiz-adv-x="2048" d="M1405 108V1372H1184V940Q1131 997 1061 1028T903 1059Q807 1059 732 1022T604 919Q551 853 524 763T496 568Q496 460 523 370T604 213Q656 148 731 112T903 75Q990 75 1060 106T1184 195V108H1405ZM1184 568Q1184 502 1170 447T1126 352Q1098 313 1055 291T954 269Q897 269 854 291T782 352Q754 392 740 447T725 568Q725 633 739 687T782 780Q811 819 854 840T954 862Q1011 862 1054 841T1126 780Q1155 741 1169 687T1184 568H1184ZM1991 733Q1991 932 1915 1108T1707 1416Q1575 1547 1399 1623T1024 1700Q824 1700 648 1624T341 1416Q209 1285 133 1109T57 733Q57 533 133 358T341 51Q472 -81 648 -156T1024 -232Q1223 -232 1399 -157T1707 51Q1838 182 1914 357T1991 733H1991ZM1024 1546Q1191 1546 1337 1482T1593 1307Q1702 1197 1765 1049T1829 733Q1829 565 1766 417T1593 159Q1484 48 1338 -15T1024 -79Q856 -79 710 -16T454 159Q345 269 282 417T219 733Q219 901 282 1049T454 1307Q563 1418 709 1482T1024 1546H1024Z"  />
<glyph unicode="&#x24D4;" horiz-adv-x="2048" d="M1475 649Q1485 793 1451 901T1352 1081Q1288 1153 1203 1189T1026 1225Q923 1225 840 1186T696 1079Q637 1011 605 921T573 729Q573 627 606 538T701 382Q761 315 845 277T1030 238Q1126 238 1196 264T1316 332Q1366 373 1396 423T1444 522H1194Q1188 512 1174 499T1139 472Q1118 460 1090 452T1028 443Q972 443 931 465T863 520Q836 552 823 587T809 649H1475ZM1235 838H815Q822 873 839 905T883 963Q909 988 945 1003T1028 1018Q1071 1018 1105 1002T1166 961Q1192 935 1209 903T1235 838H1235ZM1991 733Q1991 932 1915 1108T1707 1416Q1575 1547 1399 1623T1024 1700Q824 1700 648 1624T341 1416Q209 1285 133 1109T57 733Q57 533 133 358T341 51Q472 -81 648 -156T1024 -232Q1223 -232 1399 -157T1707 51Q1838 182 1914 357T1991 733H1991ZM1024 1546Q1191 1546 1337 1482T1593 1307Q1702 1197 1765 1049T1829 733Q1829 565 1766 417T1593 159Q1484 48 1338 -15T1024 -79Q856 -79 710 -16T454 159Q345 269 282 417T219 733Q219 901 282 1049T454 1307Q563 1418 709 1482T1024 1546H1024Z"  />
<glyph unicode="&#x24D5;" horiz-adv-x="2048" d="M1235 803V993H1108V1057Q1108 1090 1114 1107T1139 1139Q1148 1144 1157 1146T1178 1150Q1189 1151 1203 1151T1235 1151V1342H1116Q1060 1342 1020 1325T950 1278Q916 1245 902 1204T887 1104V993H778V803H887V93H1108V803H1235ZM1991 733Q1991 932 1915 1108T1707 1416Q1575 1547 1399 1623T1024 1700Q824 1700 648 1624T341 1416Q209 1285 133 1109T57 733Q57 533 133 358T341 51Q472 -81 648 -156T1024 -232Q1223 -232 1399 -157T1707 51Q1838 182 1914 357T1991 733H1991ZM1024 1546Q1191 1546 1337 1482T1593 1307Q1702 1197 1765 1049T1829 733Q1829 565 1766 417T1593 159Q1484 48 1338 -15T1024 -79Q856 -79 710 -16T454 159Q345 269 282 417T219 733Q219 901 282 1049T454 1307Q563 1418 709 1482T1024 1546H1024Z"  />
<glyph unicode="&#x24D6;" horiz-adv-x="2048" d="M1444 494V1321H1223V1243Q1170 1294 1097 1324T938 1354Q845 1354 771 1321T644 1228Q591 1168 563 1087T535 910Q535 812 563 731T644 591Q696 532 770 500T938 467Q1024 467 1097 496T1223 578V475Q1223 428 1206 394T1158 337Q1128 314 1088 304T1001 293Q957 293 919 302T852 328Q824 344 808 365T791 410H565Q569 350 600 295T687 197Q743 155 821 130T999 104Q1074 104 1153 121T1296 183Q1361 228 1402 303T1444 494H1444ZM1223 910Q1223 854 1206 809T1158 730Q1128 697 1085 680T989 662Q881 662 821 730T760 910Q760 1021 820 1091T989 1161Q1041 1161 1084 1143T1158 1091Q1189 1058 1206 1012T1223 910H1223ZM1991 733Q1991 932 1915 1108T1707 1416Q1575 1547 1399 1623T1024 1700Q824 1700 648 1624T341 1416Q209 1285 133 1109T57 733Q57 533 133 358T341 51Q472 -81 648 -156T1024 -232Q1223 -232 1399 -157T1707 51Q1838 182 1914 357T1991 733H1991ZM1024 1546Q1191 1546 1337 1482T1593 1307Q1702 1197 1765 1049T1829 733Q1829 565 1766 417T1593 159Q1484 48 1338 -15T1024 -79Q856 -79 710 -16T454 159Q345 269 282 417T219 733Q219 901 282 1049T454 1307Q563 1418 709 1482T1024 1546H1024Z"  />
<glyph unicode="&#x24D7;" horiz-adv-x="2048" d="M1427 100V731Q1427 780 1410 833T1358 933Q1324 978 1272 1009T1151 1047Q1096 1051 1050 1043T965 1018Q926 1002 895 979T842 932V1364H621V100H842V606Q842 711 896 772T1040 834Q1126 834 1166 782T1206 625V100H1427ZM1991 733Q1991 932 1915 1108T1707 1416Q1575 1547 1399 1623T1024 1700Q824 1700 648 1624T341 1416Q209 1285 133 1109T57 733Q57 533 133 358T341 51Q472 -81 648 -156T1024 -232Q1223 -232 1399 -157T1707 51Q1838 182 1914 357T1991 733H1991ZM1024 1546Q1191 1546 1337 1482T1593 1307Q1702 1197 1765 1049T1829 733Q1829 565 1766 417T1593 159Q1484 48 1338 -15T1024 -79Q856 -79 710 -16T454 159Q345 269 282 417T219 733Q219 901 282 1049T454 1307Q563 1418 709 1482T1024 1546H1024Z"  />
<glyph unicode="&#x24D8;" horiz-adv-x="2048" d="M1137 1133V1354H913V1133H1137ZM1137 89V1008H913V89H1137ZM1991 733Q1991 932 1915 1108T1707 1416Q1575 1547 1399 1623T1024 1700Q824 1700 648 1624T341 1416Q209 1285 133 1109T57 733Q57 533 133 358T341 51Q472 -81 648 -156T1024 -232Q1223 -232 1399 -157T1707 51Q1838 182 1914 357T1991 733H1991ZM1024 1546Q1191 1546 1337 1482T1593 1307Q1702 1197 1765 1049T1829 733Q1829 565 1766 417T1593 159Q1484 48 1338 -15T1024 -79Q856 -79 710 -16T454 159Q345 269 282 417T219 733Q219 901 282 1049T454 1307Q563 1418 709 1482T1024 1546H1024Z"  />
<glyph unicode="&#x24D9;" horiz-adv-x="2048" d="M1169 1268V1489H946V1268H1169ZM1169 225V1141H946V269Q946 234 940 218T915 187Q906 179 897 176T877 171Q865 169 851 169T819 170V-17H938Q992 -17 1032 -2T1104 42Q1136 69 1152 115T1169 225H1169ZM1991 733Q1991 932 1915 1108T1707 1416Q1575 1547 1399 1623T1024 1700Q824 1700 648 1624T341 1416Q209 1285 133 1109T57 733Q57 533 133 358T341 51Q472 -81 648 -156T1024 -232Q1223 -232 1399 -157T1707 51Q1838 182 1914 357T1991 733H1991ZM1024 1546Q1191 1546 1337 1482T1593 1307Q1702 1197 1765 1049T1829 733Q1829 565 1766 417T1593 159Q1484 48 1338 -15T1024 -79Q856 -79 710 -16T454 159Q345 269 282 417T219 733Q219 901 282 1049T454 1307Q563 1418 709 1482T1024 1546H1024Z"  />
<glyph unicode="&#x24DA;" horiz-adv-x="2048" d="M1479 104L1069 672L1419 1022H1143L838 717V1370H616V104H838V443L915 518L1223 104H1479ZM1991 733Q1991 932 1915 1108T1707 1416Q1575 1547 1399 1623T1024 1700Q824 1700 648 1624T341 1416Q209 1285 133 1109T57 733Q57 533 133 358T341 51Q472 -81 648 -156T1024 -232Q1223 -232 1399 -157T1707 51Q1838 182 1914 357T1991 733H1991ZM1024 1546Q1191 1546 1337 1482T1593 1307Q1702 1197 1765 1049T1829 733Q1829 565 1766 417T1593 159Q1484 48 1338 -15T1024 -79Q856 -79 710 -16T454 159Q345 269 282 417T219 733Q219 901 282 1049T454 1307Q563 1418 709 1482T1024 1546H1024Z"  />
<glyph unicode="&#x24DB;" horiz-adv-x="2048" d="M1135 102V1366H911V102H1135ZM1991 733Q1991 932 1915 1108T1707 1416Q1575 1547 1399 1623T1024 1700Q824 1700 648 1624T341 1416Q209 1285 133 1109T57 733Q57 533 133 358T341 51Q472 -81 648 -156T1024 -232Q1223 -232 1399 -157T1707 51Q1838 182 1914 357T1991 733H1991ZM1024 1546Q1191 1546 1337 1482T1593 1307Q1702 1197 1765 1049T1829 733Q1829 565 1766 417T1593 159Q1484 48 1338 -15T1024 -79Q856 -79 710 -16T454 159Q345 269 282 417T219 733Q219 901 282 1049T454 1307Q563 1418 709 1482T1024 1546H1024Z"  />
<glyph unicode="&#x24DC;" horiz-adv-x="2048" d="M1628 266V903Q1628 960 1614 1013T1569 1110Q1540 1152 1495 1180T1389 1213Q1318 1219 1269 1207T1186 1176Q1152 1156 1131 1133T1094 1094Q1070 1145 1017 1180T887 1215Q838 1215 799 1202T731 1170Q701 1151 680 1131T647 1094V1184H426V266H647V791Q647 895 686 950T797 1008Q833 1008 856 993T893 950Q907 923 912 887T918 809V266H1139V791Q1139 895 1177 950T1286 1008Q1322 1008 1345 993T1383 950Q1396 923 1401 887T1407 809V266H1628ZM1991 733Q1991 932 1915 1108T1707 1416Q1575 1547 1399 1623T1024 1700Q824 1700 648 1624T341 1416Q209 1285 133 1109T57 733Q57 533 133 358T341 51Q472 -81 648 -156T1024 -232Q1223 -232 1399 -157T1707 51Q1838 182 1914 357T1991 733H1991ZM1024 1546Q1191 1546 1337 1482T1593 1307Q1702 1197 1765 1049T1829 733Q1829 565 1766 417T1593 159Q1484 48 1338 -15T1024 -79Q856 -79 710 -16T454 159Q345 269 282 417T219 733Q219 901 282 1049T454 1307Q563 1418 709 1482T1024 1546H1024Z"  />
<glyph unicode="&#x24DD;" horiz-adv-x="2048" d="M1430 250V881Q1430 930 1413 983T1361 1082Q1326 1127 1274 1158T1153 1196Q1098 1200 1052 1193T967 1169Q928 1153 897 1131T844 1084V1168H623V250H844V756Q844 861 898 922T1042 983Q1128 983 1168 931T1208 772V250H1430ZM1991 733Q1991 932 1915 1108T1707 1416Q1575 1547 1399 1623T1024 1700Q824 1700 648 1624T341 1416Q209 1285 133 1109T57 733Q57 533 133 358T341 51Q472 -81 648 -156T1024 -232Q1223 -232 1399 -157T1707 51Q1838 182 1914 357T1991 733H1991ZM1024 1546Q1191 1546 1337 1482T1593 1307Q1702 1197 1765 1049T1829 733Q1829 565 1766 417T1593 159Q1484 48 1338 -15T1024 -79Q856 -79 710 -16T454 159Q345 269 282 417T219 733Q219 901 282 1049T454 1307Q563 1418 709 1482T1024 1546H1024Z"  />
<glyph unicode="&#x24DE;" horiz-adv-x="2048" d="M1477 729Q1477 831 1446 921T1356 1078Q1297 1145 1214 1184T1026 1223Q921 1223 838 1184T696 1078Q637 1011 606 921T575 729Q575 627 606 538T696 382Q754 315 837 277T1026 238Q1130 238 1213 276T1356 382Q1414 449 1445 538T1477 729H1477ZM1251 729Q1251 670 1235 618T1190 526Q1161 486 1120 464T1026 441Q973 441 932 463T861 526Q832 565 817 617T801 729Q801 788 816 840T861 931Q890 970 931 993T1026 1016Q1078 1016 1119 993T1190 931Q1219 892 1235 840T1251 729H1251ZM1991 733Q1991 932 1915 1108T1707 1416Q1575 1547 1399 1623T1024 1700Q824 1700 648 1624T341 1416Q209 1285 133 1109T57 733Q57 533 133 358T341 51Q472 -81 648 -156T1024 -232Q1223 -232 1399 -157T1707 51Q1838 182 1914 357T1991 733H1991ZM1024 1546Q1191 1546 1337 1482T1593 1307Q1702 1197 1765 1049T1829 733Q1829 565 1766 417T1593 159Q1484 48 1338 -15T1024 -79Q856 -79 710 -16T454 159Q345 269 282 417T219 733Q219 901 282 1049T454 1307Q563 1418 709 1482T1024 1546H1024Z"  />
<glyph unicode="&#x24DF;" horiz-adv-x="2048" d="M1538 869Q1538 976 1509 1066T1428 1221Q1375 1287 1301 1323T1135 1360Q1047 1360 976 1327T850 1237V1325H629V123H850V502Q904 440 975 409T1135 377Q1226 377 1300 414T1428 516Q1480 582 1509 672T1538 869H1538ZM1313 869Q1313 802 1297 748T1252 655Q1222 616 1180 595T1083 574Q1030 574 988 595T914 655Q883 693 867 747T850 869Q850 933 866 988T914 1083Q945 1122 987 1145T1083 1168Q1137 1168 1179 1145T1252 1083Q1281 1043 1297 988T1313 869H1313ZM1991 733Q1991 932 1915 1108T1707 1416Q1575 1547 1399 1623T1024 1700Q824 1700 648 1624T341 1416Q209 1285 133 1109T57 733Q57 533 133 358T341 51Q472 -81 648 -156T1024 -232Q1223 -232 1399 -157T1707 51Q1838 182 1914 357T1991 733H1991ZM1024 1546Q1191 1546 1337 1482T1593 1307Q1702 1197 1765 1049T1829 733Q1829 565 1766 417T1593 159Q1484 48 1338 -15T1024 -79Q856 -79 710 -16T454 159Q345 269 282 417T219 733Q219 901 282 1049T454 1307Q563 1418 709 1482T1024 1546H1024Z"  />
<glyph unicode="&#x24E0;" horiz-adv-x="2048" d="M1401 129V1331H1180V1241Q1126 1301 1054 1333T895 1366Q802 1366 728 1329T601 1226Q548 1161 520 1071T492 873Q492 766 520 677T601 521Q653 456 727 420T895 383Q982 383 1054 415T1180 506V129H1401ZM1180 873Q1180 808 1163 754T1115 661Q1084 621 1041 600T946 578Q892 578 850 599T777 661Q748 700 733 754T717 873Q717 939 732 993T777 1088Q807 1128 849 1150T946 1172Q998 1172 1041 1150T1115 1088Q1145 1048 1162 994T1180 873H1180ZM1991 733Q1991 932 1915 1108T1707 1416Q1575 1547 1399 1623T1024 1700Q824 1700 648 1624T341 1416Q209 1285 133 1109T57 733Q57 533 133 358T341 51Q472 -81 648 -156T1024 -232Q1223 -232 1399 -157T1707 51Q1838 182 1914 357T1991 733H1991ZM1024 1546Q1191 1546 1337 1482T1593 1307Q1702 1197 1765 1049T1829 733Q1829 565 1766 417T1593 159Q1484 48 1338 -15T1024 -79Q856 -79 710 -16T454 159Q345 269 282 417T219 733Q219 901 282 1049T454 1307Q563 1418 709 1482T1024 1546H1024Z"  />
<glyph unicode="&#x24E1;" horiz-adv-x="2048" d="M1339 959V1182Q1337 1182 1324 1180T1290 1173Q1270 1168 1247 1162T1202 1147Q1143 1120 1110 1092T1051 1028V1149H829V232H1051V664Q1051 756 1080 813T1165 910Q1208 940 1254 949T1339 959H1339ZM1991 733Q1991 932 1915 1108T1707 1416Q1575 1547 1399 1623T1024 1700Q824 1700 648 1624T341 1416Q209 1285 133 1109T57 733Q57 533 133 358T341 51Q472 -81 648 -156T1024 -232Q1223 -232 1399 -157T1707 51Q1838 182 1914 357T1991 733H1991ZM1024 1546Q1191 1546 1337 1482T1593 1307Q1702 1197 1765 1049T1829 733Q1829 565 1766 417T1593 159Q1484 48 1338 -15T1024 -79Q856 -79 710 -16T454 159Q345 269 282 417T219 733Q219 901 282 1049T454 1307Q563 1418 709 1482T1024 1546H1024Z"  />
<glyph unicode="&#x24E2;" horiz-adv-x="2048" d="M1419 529Q1421 571 1409 607T1374 672Q1352 702 1323 724T1260 762Q1226 778 1186 791T1104 816Q1064 827 1027 836T963 854Q909 871 888 894T872 953Q877 991 918 1010T1030 1030Q1063 1030 1091 1021T1141 997Q1162 982 1173 964T1184 928H1389Q1390 982 1365 1034T1292 1128Q1243 1170 1174 1195T1016 1221Q933 1221 868 1197T757 1134Q711 1096 685 1048T655 953Q647 862 689 800T831 701Q860 689 897 679T973 658Q1012 648 1050 637T1120 613Q1158 597 1178 573T1196 522Q1193 491 1153 461T1028 430Q981 430 947 442T888 474Q864 494 851 518T836 565H627Q627 525 648 470T718 363Q766 312 844 276T1038 240Q1111 239 1178 261T1298 324Q1350 364 1382 416T1419 529H1419ZM1991 733Q1991 932 1915 1108T1707 1416Q1575 1547 1399 1623T1024 1700Q824 1700 648 1624T341 1416Q209 1285 133 1109T57 733Q57 533 133 358T341 51Q472 -81 648 -156T1024 -232Q1223 -232 1399 -157T1707 51Q1838 182 1914 357T1991 733H1991ZM1024 1546Q1191 1546 1337 1482T1593 1307Q1702 1197 1765 1049T1829 733Q1829 565 1766 417T1593 159Q1484 48 1338 -15T1024 -79Q856 -79 710 -16T454 159Q345 269 282 417T219 733Q219 901 282 1049T454 1307Q563 1418 709 1482T1024 1546H1024Z"  />
<glyph unicode="&#x24E3;" horiz-adv-x="2048" d="M1243 131V322Q1207 322 1186 324T1147 340Q1128 355 1122 371T1116 424V860H1243V1051H1116V1336H895V1051H786V860H895V379Q895 317 911 271T958 195Q990 165 1030 148T1124 131H1243ZM1991 733Q1991 932 1915 1108T1707 1416Q1575 1547 1399 1623T1024 1700Q824 1700 648 1624T341 1416Q209 1285 133 1109T57 733Q57 533 133 358T341 51Q472 -81 648 -156T1024 -232Q1223 -232 1399 -157T1707 51Q1838 182 1914 357T1991 733H1991ZM1024 1546Q1191 1546 1337 1482T1593 1307Q1702 1197 1765 1049T1829 733Q1829 565 1766 417T1593 159Q1484 48 1338 -15T1024 -79Q856 -79 710 -16T454 159Q345 269 282 417T219 733Q219 901 282 1049T454 1307Q563 1418 709 1482T1024 1546H1024Z"  />
<glyph unicode="&#x24E4;" horiz-adv-x="2048" d="M1419 291V1209H1196V703Q1196 595 1146 535T1006 475Q921 475 885 524T848 684V1209H627V580Q627 522 643 466T694 366Q729 321 781 292T905 258Q952 255 996 263T1077 288Q1115 304 1145 325T1196 371V291H1419ZM1991 733Q1991 932 1915 1108T1707 1416Q1575 1547 1399 1623T1024 1700Q824 1700 648 1624T341 1416Q209 1285 133 1109T57 733Q57 533 133 358T341 51Q472 -81 648 -156T1024 -232Q1223 -232 1399 -157T1707 51Q1838 182 1914 357T1991 733H1991ZM1024 1546Q1191 1546 1337 1482T1593 1307Q1702 1197 1765 1049T1829 733Q1829 565 1766 417T1593 159Q1484 48 1338 -15T1024 -79Q856 -79 710 -16T454 159Q345 269 282 417T219 733Q219 901 282 1049T454 1307Q563 1418 709 1482T1024 1546H1024Z"  />
<glyph unicode="&#x24E5;" horiz-adv-x="2048" d="M1493 1129H1253L1028 508L805 1129H563L901 228H1155L1493 1129ZM1991 733Q1991 932 1915 1108T1707 1416Q1575 1547 1399 1623T1024 1700Q824 1700 648 1624T341 1416Q209 1285 133 1109T57 733Q57 533 133 358T341 51Q472 -81 648 -156T1024 -232Q1223 -232 1399 -157T1707 51Q1838 182 1914 357T1991 733H1991ZM1024 1546Q1191 1546 1337 1482T1593 1307Q1702 1197 1765 1049T1829 733Q1829 565 1766 417T1593 159Q1484 48 1338 -15T1024 -79Q856 -79 710 -16T454 159Q345 269 282 417T219 733Q219 901 282 1049T454 1307Q563 1418 709 1482T1024 1546H1024Z"  />
<glyph unicode="&#x24E6;" horiz-adv-x="2048" d="M1628 1129H1407L1272 555L1139 1129H905L774 555L637 1129H416L653 230H891L1022 762L1153 230H1391L1628 1129ZM1991 733Q1991 932 1915 1108T1707 1416Q1575 1547 1399 1623T1024 1700Q824 1700 648 1624T341 1416Q209 1285 133 1109T57 733Q57 533 133 358T341 51Q472 -81 648 -156T1024 -232Q1223 -232 1399 -157T1707 51Q1838 182 1914 357T1991 733H1991ZM1024 1546Q1191 1546 1337 1482T1593 1307Q1702 1197 1765 1049T1829 733Q1829 565 1766 417T1593 159Q1484 48 1338 -15T1024 -79Q856 -79 710 -16T454 159Q345 269 282 417T219 733Q219 901 282 1049T454 1307Q563 1418 709 1482T1024 1546H1024Z"  />
<glyph unicode="&#x24E7;" horiz-adv-x="2048" d="M1475 273L1155 733L1458 1172H1200L1024 922L850 1172H590L893 733L573 273H834L1024 545L1214 273H1475ZM1991 733Q1991 932 1915 1108T1707 1416Q1575 1547 1399 1623T1024 1700Q824 1700 648 1624T341 1416Q209 1285 133 1109T57 733Q57 533 133 358T341 51Q472 -81 648 -156T1024 -232Q1223 -232 1399 -157T1707 51Q1838 182 1914 357T1991 733H1991ZM1024 1546Q1191 1546 1337 1482T1593 1307Q1702 1197 1765 1049T1829 733Q1829 565 1766 417T1593 159Q1484 48 1338 -15T1024 -79Q856 -79 710 -16T454 159Q345 269 282 417T219 733Q219 901 282 1049T454 1307Q563 1418 709 1482T1024 1546H1024Z"  />
<glyph unicode="&#x24E8;" horiz-adv-x="2048" d="M1520 1315H1278L1053 694L827 1315H586L940 379L915 316Q906 286 876 262T807 238H711V48H825Q864 48 905 53T985 81Q1021 101 1054 134T1112 225L1520 1315ZM1991 733Q1991 932 1915 1108T1707 1416Q1575 1547 1399 1623T1024 1700Q824 1700 648 1624T341 1416Q209 1285 133 1109T57 733Q57 533 133 358T341 51Q472 -81 648 -156T1024 -232Q1223 -232 1399 -157T1707 51Q1838 182 1914 357T1991 733H1991ZM1024 1546Q1191 1546 1337 1482T1593 1307Q1702 1197 1765 1049T1829 733Q1829 565 1766 417T1593 159Q1484 48 1338 -15T1024 -79Q856 -79 710 -16T454 159Q345 269 282 417T219 733Q219 901 282 1049T454 1307Q563 1418 709 1482T1024 1546H1024Z"  />
<glyph unicode="&#x24E9;" horiz-adv-x="2048" d="M1421 275V463H909L1389 1002V1190H678V1002H1104L629 463V275H1421ZM1991 733Q1991 932 1915 1108T1707 1416Q1575 1547 1399 1623T1024 1700Q824 1700 648 1624T341 1416Q209 1285 133 1109T57 733Q57 533 133 358T341 51Q472 -81 648 -156T1024 -232Q1223 -232 1399 -157T1707 51Q1838 182 1914 357T1991 733H1991ZM1024 1546Q1191 1546 1337 1482T1593 1307Q1702 1197 1765 1049T1829 733Q1829 565 1766 417T1593 159Q1484 48 1338 -15T1024 -79Q856 -79 710 -16T454 159Q345 269 282 417T219 733Q219 901 282 1049T454 1307Q563 1418 709 1482T1024 1546H1024Z"  />
<glyph unicode="&#x2500;" horiz-adv-x="2048" d="M2044 686V810H0V686H2044Z"  />
<glyph unicode="&#x2501;" horiz-adv-x="2048" d="M2052 638V854H-4V638H2052Z"  />
<glyph unicode="&#x2502;" horiz-adv-x="2048" d="M1100 -286V1786H972V-286H1100Z"  />
<glyph unicode="&#x2503;" horiz-adv-x="2048" d="M1144 -290V1782H932V-290H1144Z"  />
<glyph unicode="&#x250C;" horiz-adv-x="2048" d="M2052 682V806H972V-290H1096V682H2052Z"  />
<glyph unicode="&#x250D;" horiz-adv-x="2048" d="M2044 638V854H972V-290H1096V638H2044Z"  />
<glyph unicode="&#x250E;" horiz-adv-x="2048" d="M2052 682V810H932V-286H1152V682H2052Z"  />
<glyph unicode="&#x250F;" horiz-adv-x="2048" d="M2056 638V854H932V-290H1148V638H2056Z"  />
<glyph unicode="&#x2510;" horiz-adv-x="2048" d="M1096 -290V806H-4V682H972V-290H1096Z"  />
<glyph unicode="&#x2511;" horiz-adv-x="2048" d="M1096 -290V854H-4V638H972V-290H1096Z"  />
<glyph unicode="&#x2512;" horiz-adv-x="2048" d="M1144 -290V806H-4V682H928V-290H1144Z"  />
<glyph unicode="&#x2513;" horiz-adv-x="2048" d="M1144 -290V854H-4V638H928V-290H1144Z"  />
<glyph unicode="&#x2514;" horiz-adv-x="2048" d="M2044 682V810H1100V1782H972V682H2044Z"  />
<glyph unicode="&#x2515;" horiz-adv-x="2048" d="M2048 638V854H1096V1778H972V638H2048Z"  />
<glyph unicode="&#x2516;" horiz-adv-x="2048" d="M2048 682V810H1148V1778H932V682H2048Z"  />
<glyph unicode="&#x2517;" horiz-adv-x="2048" d="M2052 638V854H1148V1782H932V638H2052Z"  />
<glyph unicode="&#x2518;" horiz-adv-x="2048" d="M1096 686V1782H972V810H0V686H1096Z"  />
<glyph unicode="&#x2519;" horiz-adv-x="2048" d="M1104 638V1778H980V854H0V638H1104Z"  />
<glyph unicode="&#x251A;" horiz-adv-x="2048" d="M1152 682V1778H932V810H0V682H1152Z"  />
<glyph unicode="&#x251B;" horiz-adv-x="2048" d="M1144 638V1782H928V854H-4V638H1144Z"  />
<glyph unicode="&#x251C;" horiz-adv-x="2048" d="M2048 682V810H1096V1782H972V-290H1096V682H2048Z"  />
<glyph unicode="&#x251D;" horiz-adv-x="2048" d="M2044 638V854H1096V1778H972V-290H1096V638H2044Z"  />
<glyph unicode="&#x251E;" horiz-adv-x="2048" d="M2052 682V810H1152V1778H932V718H976V-290H1100V682H2052Z"  />
<glyph unicode="&#x251F;" horiz-adv-x="2048" d="M2056 686V814H1104V1786H976V774H936V-286H1152V686H2056Z"  />
<glyph unicode="&#x2520;" horiz-adv-x="2048" d="M2052 682V810H1152V1782H936V-286H1152V682H2052Z"  />
<glyph unicode="&#x2521;" horiz-adv-x="2048" d="M2052 642V854H1152V1782H932V722H976V-286H1100V642H2052Z"  />
<glyph unicode="&#x2522;" horiz-adv-x="2048" d="M2056 638V854H1104V1782H976V770H936V-290H1152V638H2056Z"  />
<glyph unicode="&#x2523;" horiz-adv-x="2048" d="M2048 638V854H1148V1778H932V-290H1148V638H2048Z"  />
<glyph unicode="&#x2524;" horiz-adv-x="2048" d="M1096 -290V1778H972V810H-4V682H972V-290H1096Z"  />
<glyph unicode="&#x2525;" horiz-adv-x="2048" d="M1100 -286V1782H972V854H0V642H972V-286H1100Z"  />
<glyph unicode="&#x2526;" horiz-adv-x="2048" d="M1144 718V1778H928V810H-4V682H972V-290H1096V718H1144Z"  />
<glyph unicode="&#x2527;" horiz-adv-x="2048" d="M1152 -286V770H1100V1782H976V810H0V682H932V-286H1152Z"  />
<glyph unicode="&#x2528;" horiz-adv-x="2048" d="M1152 -286V1782H936V810H0V682H936V-286H1152Z"  />
<glyph unicode="&#x2529;" horiz-adv-x="2048" d="M1152 722V1786H932V854H0V642H976V-286H1100V722H1152Z"  />
<glyph unicode="&#x252A;" horiz-adv-x="2048" d="M1148 -286V770H1100V1782H972V854H0V642H932V-286H1148Z"  />
<glyph unicode="&#x252B;" horiz-adv-x="2048" d="M1144 -290V1778H928V854H-4V638H928V-290H1144Z"  />
<glyph unicode="&#x252C;" horiz-adv-x="2048" d="M2052 682V806H-4V682H972V-290H1100V682H2052Z"  />
<glyph unicode="&#x252D;" horiz-adv-x="2048" d="M2048 682V806H1064V854H-4V638H972V-290H1100V682H2048Z"  />
<glyph unicode="&#x252E;" horiz-adv-x="2048" d="M2048 638V854H1012V806H-4V682H972V-290H1100V638H2048Z"  />
<glyph unicode="&#x252F;" horiz-adv-x="2048" d="M2048 638V854H-4V638H972V-286H1100V638H2048Z"  />
<glyph unicode="&#x2530;" horiz-adv-x="2048" d="M2048 682V806H-4V682H932V-290H1144V682H2048Z"  />
<glyph unicode="&#x2531;" horiz-adv-x="2048" d="M2048 682V806H1064V854H-4V638H932V-290H1144V682H2048Z"  />
<glyph unicode="&#x2532;" horiz-adv-x="2048" d="M2048 638V854H1012V806H-4V682H932V-290H1144V638H2048Z"  />
<glyph unicode="&#x2533;" horiz-adv-x="2048" d="M2048 638V854H-4V638H932V-290H1144V638H2048Z"  />
<glyph unicode="&#x2534;" horiz-adv-x="2048" d="M2052 682V810H1100V1778H972V810H-4V682H2052Z"  />
<glyph unicode="&#x2535;" horiz-adv-x="2048" d="M2052 682V810H1100V1778H972V854H-4V638H1064V682H2052Z"  />
<glyph unicode="&#x2536;" horiz-adv-x="2048" d="M2048 638V854H1100V1782H972V810H-4V682H1012V638H2048Z"  />
<glyph unicode="&#x2537;" horiz-adv-x="2048" d="M2044 642V858H1100V1786H972V858H-4V642H2044Z"  />
<glyph unicode="&#x2538;" horiz-adv-x="2048" d="M2048 682V810H1144V1778H932V810H-4V682H2048Z"  />
<glyph unicode="&#x2539;" horiz-adv-x="2048" d="M2044 682V810H1144V1778H932V854H-4V638H1064V682H2044Z"  />
<glyph unicode="&#x253A;" horiz-adv-x="2048" d="M2048 638V854H1144V1778H932V810H-4V682H1012V638H2048Z"  />
<glyph unicode="&#x253B;" horiz-adv-x="2048" d="M2052 638V854H1148V1782H932V854H0V638H2052Z"  />
<glyph unicode="&#x253C;" horiz-adv-x="2048" d="M2052 682V810H1100V1778H972V810H-4V682H972V-290H1100V682H2052Z"  />
<glyph unicode="&#x253D;" horiz-adv-x="2048" d="M2048 682V810H1100V1778H972V854H-4V638H972V-290H1100V682H2048Z"  />
<glyph unicode="&#x253E;" horiz-adv-x="2048" d="M2044 638V854H1100V1782H972V810H-4V682H972V-290H1100V638H2044Z"  />
<glyph unicode="&#x253F;" horiz-adv-x="2048" d="M2052 642V854H1100V1786H972V854H0V642H972V-286H1100V642H2052Z"  />
<glyph unicode="&#x2540;" horiz-adv-x="2048" d="M2044 682V810H1144V1778H932V810H-4V682H972V-290H1100V682H2044Z"  />
<glyph unicode="&#x2541;" horiz-adv-x="2048" d="M2044 682V810H1100V1778H972V810H-4V682H932V-290H1144V682H2044Z"  />
<glyph unicode="&#x2542;" horiz-adv-x="2048" d="M2048 682V810H1144V1778H932V810H-4V682H932V-290H1144V682H2048Z"  />
<glyph unicode="&#x2543;" horiz-adv-x="2048" d="M2056 682V810H1152V1782H936V854H0V642H976V-286H1104V682H2056Z"  />
<glyph unicode="&#x2544;" horiz-adv-x="2048" d="M2044 638V854H1144V1782H932V810H-4V682H972V-290H1100V638H2044Z"  />
<glyph unicode="&#x2545;" horiz-adv-x="2048" d="M2044 682V810H1100V1782H972V854H-4V638H932V-290H1144V682H2044Z"  />
<glyph unicode="&#x2546;" horiz-adv-x="2048" d="M2044 638V854H1100V1778H972V810H-4V682H932V-290H1144V638H2044Z"  />
<glyph unicode="&#x2547;" horiz-adv-x="2048" d="M2048 638V854H1148V1778H932V854H0V638H972V-290H1100V638H2048Z"  />
<glyph unicode="&#x2548;" horiz-adv-x="2048" d="M2052 638V854H1104V1778H976V854H0V638H936V-290H1152V638H2052Z"  />
<glyph unicode="&#x2549;" horiz-adv-x="2048" d="M2048 682V810H1144V1778H932V854H-4V638H932V-290H1144V682H2048Z"  />
<glyph unicode="&#x254A;" horiz-adv-x="2048" d="M2044 638V854H1144V1778H932V810H-4V682H932V-290H1144V638H2044Z"  />
<glyph unicode="&#x254B;" horiz-adv-x="2048" d="M2052 642V858H1132V1786H920V858H0V642H920V-282H1132V642H2052Z"  />
</font>
</defs>
</svg>
