<?xml  version="1.0" encoding="UTF-8"?>
<!DOCTYPE svg PUBLIC "-//W3C//DTD SVG 1.0//EN" "http://www.w3.org/TR/2001/REC-SVG-20010904/DTD/svg10.dtd" >
<svg xmlns="http://www.w3.org/2000/svg" >
<metadata>
<version>1.0</version>
<id><![CDATA[Tanseek Modern W20 Light]]></id>
<vendor>Monotype Imaging Inc.</vendor>
<credits>
<name>Fonts.com WebFonts</name>
<URL>http://webfonts.fonts.com</URL>
<role>Home of the Web fonts</role>
</credits>
<license>
<URL>http://webfonts.fonts.com/Legal</URL>
</license>
<copyright><![CDATA[Copyright 2008 Monotype Imaging Inc. All rights reserved.]]></copyright>
<trademark><![CDATA[Tanseek is a trademark of Monotype Imaging Inc. and may be registered in certain jurisdictions.]]></trademark>
<licensee>
<name></name>
</licensee>
</metadata>
<defs >
<font horiz-adv-x="354" id="4fa09e39-beb9-46ca-bfcc-f9518ab4a9bd">
<font-face font-family="" panose-1="2 11 3 4 3 2 2 2 3 3" ascent="621" descent="-165" units-per-em="1000" alphabetic="0">
</font-face>
<missing-glyph horiz-adv-x="500" d="M12 665H487V0H12V665ZM250 375L411 618H88L250 375ZM60 91L221 333L60 575V91ZM278 333L440 90V575L278 333ZM250 290L88 48H411L250 290Z"  />

<glyph unicode="&#xA;" />
<glyph unicode="&#xD;" />
<glyph unicode=" " horiz-adv-x="126" />
<glyph unicode="!" horiz-adv-x="156" d="M92 112H64L57 467H99L92 112ZM105 24Q105 13 97 5T78 -4Q67 -4 59 4T51 24Q51 35 59 42T78 50Q89 50 97 43T105 24Z"  />
<glyph unicode="&quot;" horiz-adv-x="201" d="M153 339H128L116 467H164L153 339ZM74 339H49L37 467H86L74 339Z"  />
<glyph unicode="#" horiz-adv-x="446" d="M406 295H335L310 172H380L373 139H302L273 0H236L266 139H138L109 0H73L102 139H33L40 172H109L135 295H66L73 328H142L172 467H208L179 328H306L336 467H372L343 328H413L406 295ZM171 295L145 172H273L299 295H171Z"  />
<glyph unicode="$" horiz-adv-x="369" d="M322 120Q322 60 288 30T198 -6V-63H172V-7Q140 -7 106 -2T46 18L53 53Q67 45 98 35T172 24V230Q148 242 125 255T85 283T58 318T47 363Q47 393 57 413T84 447T123 466T172 475V532H198V475Q226 475 254 468T306 450L299 419Q285 426 259 434T198 444V256Q215 246 236 235T277 208T309 171T322 120ZM172 443Q154 442 138 438T110 424T91 401T83 364Q83 333 108 313T172 271V443ZM286 115Q286 134 280 148T261 173T233 195T198 216V26Q214 28 230 33T258 48T278 75T286 115Z"  />
<glyph unicode="%" horiz-adv-x="654" d="M619 126Q619 86 609 61T582 20T544 0T500 -6Q478 -6 457 -1T419 20T392 60T381 126Q381 166 391 192T418 233T456 254T500 260Q522 260 543 254T582 233T609 192T619 126ZM211 -12H179L432 479H464L211 -12ZM272 340Q272 300 262 275T236 235T198 215T154 209Q131 209 110 214T72 234T45 274T35 340Q35 380 45 406T72 447T110 469T154 475Q176 475 197 469T235 448T262 406T272 340ZM588 126Q588 160 581 181T561 214T533 230T500 234Q483 234 468 230T440 215T420 182T412 126Q412 91 419 71T439 39T467 25T500 21Q517 21 533 24T561 39T580 70T588 126ZM241 340Q241 374 234 395T214 428T186 444T154 448Q137 448 122 444T94 429T74 396T66 340Q66 305 73 285T93 253T121 239T154 235Q170 235 186 238T214 253T233 284T241 340Z"  />
<glyph unicode="&amp;" horiz-adv-x="466" d="M428 239H375Q375 217 372 193T362 148Q357 134 353 122T343 99Q338 88 333 78Q348 60 364 42T393 24Q407 24 412 26T424 31L419 -1Q404 -7 385 -7Q367 -7 349 9T311 49Q303 40 293 31T268 13T232 -1T182 -7Q151 -7 125 -1T80 21T51 62T40 127Q40 163 52 187T79 227T111 251T136 262Q115 290 101 314T87 370Q87 390 93 409T113 442T147 466T194 475Q232 475 259 467T297 454L291 422Q287 424 279 427T259 435T233 441T204 444Q193 444 180 443T153 434T132 412T123 370Q123 350 135 328T169 276Q184 255 205 229T248 179T286 134T312 104Q315 109 323 126T337 173Q340 190 342 215T344 269H433L428 239ZM292 74Q275 92 238 134T154 237Q146 234 133 228T107 210T85 177T76 127Q76 92 88 72T117 41T152 27T182 24Q209 24 228 30T260 44T281 61T292 74Z"  />
<glyph unicode="&apos;" horiz-adv-x="123" d="M74 339H49L37 467H86L74 339Z"  />
<glyph unicode="(" horiz-adv-x="200" d="M152 -102Q131 -72 112 -36T77 43T53 132T44 233Q44 285 53 333T77 423T111 501T152 568L181 549Q156 512 137 476T105 402T86 322T79 233Q79 186 85 145T105 65T137 -10T181 -83L152 -102Z"  />
<glyph unicode=")" horiz-adv-x="200" d="M156 233Q156 180 147 133T123 43T89 -35T48 -102L19 -83Q44 -46 63 -10T95 64T114 144T121 233Q121 280 115 321T95 401T63 476T19 549L48 568Q69 538 88 502T123 423T147 333T156 233Z"  />
<glyph unicode="*" horiz-adv-x="236" d="M182 338L126 381L135 308H100L110 381L54 338L36 369L101 395L36 421L54 453L110 409L100 483H135L126 409L182 453L200 421L135 395L200 369L182 338Z"  />
<glyph unicode="+" horiz-adv-x="350" d="M193 208V60H158V208H33V242H158V390H193V242H316V208H193Z"  />
<glyph unicode="&#x2c;" horiz-adv-x="135" d="M94 13Q94 -13 75 -35T34 -70L25 -48Q28 -46 33 -42T44 -32T53 -22T57 -11Q57 -4 47 4T37 26Q37 35 44 42T65 50Q77 50 85 40T94 13Z"  />
<glyph unicode="-" horiz-adv-x="274" d="M58 160V191H216V160H58Z"  />
<glyph unicode="." horiz-adv-x="135" d="M94 24Q94 13 86 5T67 -4Q56 -4 49 4T41 24Q41 35 48 42T67 50Q78 50 86 43T94 24Z"  />
<glyph unicode="/" horiz-adv-x="326" d="M62 -21H27L264 488H299L62 -21Z"  />
<glyph unicode="0" horiz-adv-x="455" d="M408 233Q408 164 393 118T353 45T296 5T228 -7Q193 -7 160 5T102 44T62 118T47 233Q47 302 62 348T102 422T160 463T228 475Q263 475 295 463T353 423T393 348T408 233ZM372 233Q372 297 359 338T326 402T279 435T228 444Q202 444 177 435T131 403T97 338T84 233Q84 169 97 129T130 65T176 33T228 24Q254 24 279 32T325 64T359 128T372 233Z"  />
<glyph unicode="1" horiz-adv-x="216" d="M99 0V428L26 393V426L107 467H134V0H99Z"  />
<glyph unicode="2" horiz-adv-x="360" d="M305 0H17V20Q72 75 118 120T198 203T251 275T270 345Q270 373 260 391T234 421T198 438T158 443Q115 443 82 432T25 408L33 447Q65 462 96 468T164 475Q201 475 228 465T272 437T298 396T307 347Q307 306 282 264T220 181T142 102T67 30H310L305 0Z"  />
<glyph unicode="3" horiz-adv-x="377" d="M331 142Q331 103 317 75T280 29T229 2T170 -7Q122 -7 87 4T31 31L37 66Q59 49 91 37T170 24Q182 24 203 27T244 43T280 78T295 141Q295 174 281 192T246 218T205 228T170 230H106V259H170Q189 259 209 261T246 272T273 298T284 346Q284 374 273 392T244 422T206 439T168 444Q113 444 85 431T43 408L49 447Q66 457 94 466T168 475Q234 475 277 442T321 347Q321 322 314 305T295 275T269 256T243 244Q257 242 272 235T301 214T322 183T331 142Z"  />
<glyph unicode="4" horiz-adv-x="388" d="M357 115H296V0H261V115H33L29 139L256 467H296V146H362L357 115ZM261 423L68 146H261V423Z"  />
<glyph unicode="5" horiz-adv-x="357" d="M323 146Q323 106 310 77T274 30T223 2T164 -7Q117 -7 90 2T36 31L43 66Q68 46 93 35T164 24Q185 24 206 30T246 50T275 88T287 146Q287 180 275 201T245 234T207 250T172 254Q133 254 103 247T47 230L59 467H297L292 437H94L85 274Q102 279 125 282T176 286Q197 286 222 280T270 257T308 214T323 146Z"  />
<glyph unicode="6" horiz-adv-x="403" d="M363 139Q363 101 351 74T319 28T270 2T211 -7Q173 -7 143 5T91 45T59 117T47 225Q47 280 56 326T87 405T143 456T226 475Q267 475 293 468T345 449L339 414Q318 426 290 435T227 444Q182 444 154 429T111 386T90 321T84 240Q101 253 135 266T217 279Q236 279 261 274T308 253T347 211T363 139ZM326 139Q326 172 316 193T291 226T256 242T217 247Q176 247 141 235T84 207Q84 150 96 115T127 59T168 32T211 25Q223 25 242 27T280 39T312 73T326 139Z"  />
<glyph unicode="7" horiz-adv-x="319" d="M114 0H79L257 437H13L18 467H296V444L114 0Z"  />
<glyph unicode="8" horiz-adv-x="412" d="M372 127Q372 61 326 27T206 -7Q170 -7 140 1T87 27T53 69T40 127Q40 151 47 169T67 202T94 225T124 239Q89 250 70 276T50 342Q50 375 62 399T95 441T144 466T206 475Q239 475 267 467T317 441T350 400T362 342Q362 304 343 277T288 239Q304 234 319 225T346 203T365 171T372 127ZM327 342Q327 372 317 391T291 422T252 439T206 444Q182 444 160 439T122 423T96 392T86 342Q86 300 117 277T206 254Q264 254 295 277T327 342ZM336 127Q336 158 323 177T290 206T248 220T206 223Q189 223 167 220T124 207T91 177T77 127Q77 74 113 49T206 24Q262 24 299 49T336 127Z"  />
<glyph unicode="9" horiz-adv-x="403" d="M356 230Q356 177 346 134T313 59T256 10T174 -7Q121 -7 92 5T45 32L51 67Q71 49 104 37T173 25Q203 25 229 34T276 67T308 130T320 230Q305 216 271 203T186 189Q155 189 129 198T83 224T52 267T40 326Q40 365 52 393T86 440T136 466T198 475Q279 475 317 413T356 230ZM318 268Q318 356 286 400T198 444Q181 444 161 442T121 427T90 392T77 326Q77 279 106 250T186 221Q230 221 266 235T318 268Z"  />
<glyph unicode=":" horiz-adv-x="165" d="M108 248Q108 237 100 229T81 220Q70 220 63 228T55 248Q55 259 62 266T81 274Q92 274 100 267T108 248ZM110 24Q110 13 102 5T83 -4Q72 -4 64 4T56 24Q56 35 64 42T83 50Q94 50 102 43T110 24Z"  />
<glyph unicode=";" horiz-adv-x="165" d="M108 248Q108 237 100 229T81 220Q70 220 63 228T55 248Q55 259 62 266T81 274Q92 274 100 267T108 248ZM110 13Q110 -13 91 -35T50 -70L41 -48Q44 -46 49 -42T60 -32T69 -22T73 -11Q73 -4 63 4T53 26Q53 35 60 42T81 50Q93 50 101 40T110 13Z"  />
<glyph unicode="&lt;" horiz-adv-x="350" d="M34 214V234L315 379V340L88 225V224L315 108V69L34 214Z"  />
<glyph unicode="=" horiz-adv-x="350" d="M33 281V316H316V281H33ZM33 134V169H316V134H33Z"  />
<glyph unicode="&gt;" horiz-adv-x="350" d="M34 69V108L262 223V224L34 339V378L315 234V214L34 69Z"  />
<glyph unicode="?" horiz-adv-x="302" d="M266 363Q266 324 247 299T204 255T162 217T142 172V112H107V178Q107 209 126 230T169 270T211 311T231 363Q231 388 222 404T200 428T169 439T135 442Q112 442 87 437T41 422L36 455Q57 463 83 468T135 474Q157 474 180 470T222 454T253 420T266 363ZM152 24Q152 13 144 5T125 -4Q114 -4 106 4T98 24Q98 35 106 42T125 50Q136 50 144 43T152 24Z"  />
<glyph unicode="@" horiz-adv-x="664" d="M191 91Q191 124 202 144T233 176T277 192T329 196Q349 196 368 195T407 192V233Q407 259 398 273T375 295T343 305T306 307Q284 307 262 302T213 288L220 321Q244 329 271 333T322 338Q352 338 374 333T412 313T434 276T442 215V99Q442 64 449 46T493 27Q503 27 517 32T545 53T567 100T576 183Q576 252 560 301T513 381T438 426T335 441Q284 441 240 429T162 384T109 296T89 153Q89 70 108 18T159 -65T231 -106T314 -118Q376 -118 423 -110T494 -93L504 -126Q485 -134 433 -141T311 -149Q243 -149 194 -128T114 -67T68 29T53 153Q53 315 127 393T335 472Q392 472 442 458T530 410T589 321T611 183Q611 145 605 111T584 52T548 11T493 -5Q470 -5 455 -2T431 8T417 24T408 46Q395 26 372 11T297 -5Q246 -5 219 20T191 91ZM407 164Q389 166 369 167T330 168Q308 168 289 166T256 157T234 136T226 99Q226 57 247 42T297 27Q327 27 347 35T381 58T401 89T407 125V164Z"  />
<glyph unicode="A" horiz-adv-x="403" d="M349 0L307 120H96L53 0H17L183 467H221L386 0H349ZM202 417L106 150H296L202 417Z"  />
<glyph unicode="B" horiz-adv-x="379" d="M347 129Q347 63 313 32T206 0H56V467H199Q217 467 240 465T283 450T318 414T332 347Q332 319 324 301T305 271T281 253T259 244Q298 233 322 204T347 129ZM296 347Q296 393 272 414T207 436H91V259H207Q222 259 238 263T266 277T287 304T296 347ZM311 129Q311 171 283 199T212 228H91V31H212Q228 31 245 34T277 47T301 76T311 129Z"  />
<glyph unicode="C" horiz-adv-x="392" d="M359 8Q339 1 310 -3T255 -7Q212 -7 173 7T105 51T58 124T40 227Q40 278 54 323T94 401T160 455T249 475Q298 475 326 467T365 453L359 420Q340 429 311 436T253 444Q219 444 187 432T131 392T92 323T77 223Q77 171 93 134T134 72T191 36T254 24Q280 24 308 28T365 44L359 8Z"  />
<glyph unicode="D" horiz-adv-x="434" d="M391 233Q391 167 376 123T336 51T278 12T208 0H56V467H207Q303 467 347 406T391 233ZM355 233Q355 302 339 342T300 403T253 430T213 436H91V30H213Q229 30 253 36T300 63T339 124T355 233Z"  />
<glyph unicode="E" horiz-adv-x="345" d="M307 0H56V467H312L307 436H91V248H286L281 218H91V31H312L307 0Z"  />
<glyph unicode="F" horiz-adv-x="324" d="M296 436H91V248H276L270 218H91V0H56V467H302L296 436Z"  />
<glyph unicode="G" horiz-adv-x="443" d="M392 15Q378 9 343 1T257 -7Q214 -7 175 7T107 51T60 124T42 227Q42 278 56 323T96 401T162 455T251 475Q300 475 332 468T381 453L375 420Q355 428 322 436T255 444Q221 444 189 432T133 392T94 323T79 223Q79 156 102 117T155 57T215 30T256 24Q279 24 307 28T357 40V218H224L230 249H392V15Z"  />
<glyph unicode="H" horiz-adv-x="435" d="M344 0V218H91V0H56V467H91V248H344V467H379V0H344Z"  />
<glyph unicode="I" horiz-adv-x="151" d="M58 0V467H93V0H58Z"  />
<glyph unicode="J" horiz-adv-x="208" d="M154 111Q154 70 149 47T133 12T107 -3T70 -6Q59 -6 43 -4T16 0L10 31Q26 26 42 24T70 22Q82 22 91 24T106 33T116 57T119 101V436H34L44 467H154V111Z"  />
<glyph unicode="K" horiz-adv-x="373" d="M326 0L186 265L91 141V0H56V467H91V189L302 467H343L209 294L364 0H326Z"  />
<glyph unicode="L" horiz-adv-x="311" d="M284 0H56V467H91V31H289L284 0Z"  />
<glyph unicode="M" horiz-adv-x="510" d="M422 0V420L273 0H237L88 420V0H56V467H105L255 37L405 467H454V0H422Z"  />
<glyph unicode="N" horiz-adv-x="435" d="M349 0L91 395V0H56V467H86L344 73V467H379V0H349Z"  />
<glyph unicode="O" horiz-adv-x="461" d="M418 233Q418 164 402 118T359 44T299 5T231 -7Q197 -7 164 4T103 44T60 118T43 233Q43 303 59 349T103 424T163 463T231 475Q265 475 298 464T358 424T401 350T418 233ZM382 233Q382 297 368 338T331 402T283 435T231 444Q206 444 180 435T131 403T95 338T80 233Q80 169 94 129T131 65T179 33T231 24Q256 24 282 32T331 64T367 128T382 233Z"  />
<glyph unicode="P" horiz-adv-x="381" d="M347 329Q347 265 313 228T210 191H91V0H56V467H210Q279 467 313 430T347 329ZM311 329Q311 365 301 386T275 418T242 433T212 436H91V222H212Q225 222 242 225T274 239T300 271T311 329Z"  />
<glyph unicode="Q" horiz-adv-x="461" d="M381 -52L355 -97L236 -7Q200 -7 165 4T103 44T60 118T43 233Q43 303 59 349T103 424T163 463T231 475Q265 475 298 464T358 424T401 350T418 233Q418 176 407 135T376 66T332 22T279 -1L381 -52ZM382 233Q382 297 368 338T331 402T283 435T231 444Q206 444 180 435T131 403T95 338T80 233Q80 169 94 129T131 65T179 33T231 24Q256 24 282 32T331 64T367 128T382 233Z"  />
<glyph unicode="R" horiz-adv-x="391" d="M324 0L226 192Q221 191 210 191H91V0H56V467H210Q279 467 313 430T347 329Q347 278 326 245T261 198L363 0H324ZM311 329Q311 365 301 386T275 418T242 433T212 436H91V222H212Q225 222 242 225T274 239T300 271T311 329Z"  />
<glyph unicode="S" horiz-adv-x="332" d="M306 120Q306 53 264 23T154 -7Q113 -7 81 0T30 18L37 53Q57 42 86 33T154 24Q172 24 192 27T230 40T259 68T270 115Q270 144 253 164T208 201T151 233T93 266T49 307T31 363Q31 396 43 417T76 452T124 470T182 475Q209 475 238 468T290 450L283 419Q259 429 233 436T179 444Q158 444 138 441T102 430T77 406T67 364Q67 339 84 321T129 286T186 255T244 221T288 178T306 120Z"  />
<glyph unicode="T" horiz-adv-x="341" d="M312 436H190V0H155V436H32V467H317L312 436Z"  />
<glyph unicode="U" horiz-adv-x="429" d="M376 155Q376 132 372 104T352 51T303 10T215 -7Q159 -7 127 9T79 51T58 104T53 155V467H88V155Q88 129 93 106T113 64T151 35T215 24Q254 24 278 35T317 64T336 105T341 155V467H376V155Z"  />
<glyph unicode="V" horiz-adv-x="407" d="M222 0H184L19 467H55L203 50L351 467H388L222 0Z"  />
<glyph unicode="W" horiz-adv-x="581" d="M431 0H393L291 414L188 0H151L22 467H58L170 52L272 467H310L412 52L523 467H559L431 0Z"  />
<glyph unicode="X" horiz-adv-x="351" d="M301 0L174 226L50 0H11L149 246L22 467H60L174 266L291 467H329L202 246L340 0H301Z"  />
<glyph unicode="Y" horiz-adv-x="378" d="M207 201V0H172V201L10 467H48L189 232L331 467H368L207 201Z"  />
<glyph unicode="Z" horiz-adv-x="370" d="M33 0V20L278 436H47L52 467H324V447L78 31H329V0H33Z"  />
<glyph unicode="[" horiz-adv-x="194" d="M58 -102V568H178V538H93V-72H178V-102H58Z"  />
<glyph unicode="\" horiz-adv-x="326" d="M264 -21L27 488H62L299 -21H264Z"  />
<glyph unicode="]" horiz-adv-x="194" d="M16 -102V-72H101V538H16V568H136V-102H16Z"  />
<glyph unicode="^" horiz-adv-x="350" d="M281 239L176 427H174L70 239H27L164 475H186L323 239H281Z"  />
<glyph unicode="_" horiz-adv-x="276" d="M-5 -136V-104H281V-136H-5Z"  />
<glyph unicode="`" horiz-adv-x="120" d="M80 383L0 448H55L120 383H80Z"  />
<glyph unicode="a" horiz-adv-x="328" d="M319 3Q298 -4 285 -4Q279 -4 273 -3T261 2T252 16T248 41V49Q239 34 226 24T198 7T168 -2T138 -5Q87 -5 59 20T31 91Q31 124 42 144T73 176T118 192T170 196Q190 196 209 195T248 192V233Q248 259 239 273T216 295T184 305T147 307Q125 307 103 302T54 288L61 321Q85 329 112 333T163 338Q193 338 215 333T253 313T275 276T283 215V43Q283 24 299 24Q304 24 313 27L319 3ZM248 164Q230 166 210 167T171 168Q149 168 130 166T97 157T75 136T67 99Q67 57 88 42T138 27Q168 27 188 35T222 58T242 89T248 125V164Z"  />
<glyph unicode="b" horiz-adv-x="380" d="M341 169Q341 130 332 98T305 43T260 8T195 -5Q162 -5 125 -1T54 14V467H88V278Q93 288 103 298T128 318T163 332T211 338Q236 338 259 331T301 304T330 252T341 169ZM305 164Q305 231 284 269T206 307Q177 307 155 298T118 275T96 244T88 209V39Q110 33 136 30T188 27Q212 27 233 32T271 52T296 94T305 164Z"  />
<glyph unicode="c" horiz-adv-x="315" d="M287 288Q268 294 245 299T196 305Q139 305 106 269T73 165Q73 116 88 89T124 48T167 31T205 28Q228 28 249 33T290 46L283 10Q270 4 246 0T199 -5Q174 -5 146 1T93 26T53 79T37 169Q37 204 46 235T75 289T124 325T194 338Q230 338 252 334T294 321L287 288Z"  />
<glyph unicode="d" horiz-adv-x="378" d="M297 289Q276 295 252 300T196 306Q172 306 151 301T114 281T89 239T80 169Q80 101 101 64T178 27Q207 27 229 35T267 58T289 89T297 125V289ZM367 3Q354 -2 346 -3T333 -4Q326 -4 320 -3T308 3T300 18T297 45V52Q292 44 282 34T257 16T220 1T173 -5Q148 -5 125 2T83 29T55 81T44 164Q44 203 52 235T79 290T124 325T189 338Q222 338 249 334T297 323V467H331V43Q331 24 347 24Q352 24 361 27L367 3Z"  />
<glyph unicode="e" horiz-adv-x="362" d="M326 192Q326 176 325 168T324 157H75Q75 113 86 87T115 48T156 31T204 27Q265 27 317 50L310 15Q287 4 258 0T201 -5Q111 -5 75 37T39 162Q39 199 48 231T75 287T120 324T186 338Q222 338 248 327T292 297T317 250T326 192ZM292 185Q295 250 265 278T186 307Q153 307 132 295T98 264T80 224T75 185H292Z"  />
<glyph unicode="f" horiz-adv-x="183" d="M180 439Q171 444 159 447T136 450Q112 450 104 440T96 403V332H170V304H96V0H61V304H10L16 332H61V403Q61 439 76 459T134 480Q151 480 163 477T186 469L180 439Z"  />
<glyph unicode="g" horiz-adv-x="375" d="M326 15Q326 -37 315 -67T282 -113T233 -133T172 -138Q101 -138 47 -109L53 -78Q80 -92 113 -100T175 -108Q203 -108 225 -104T262 -88T284 -55T292 1V56Q287 46 277 35T252 15T216 1T168 -5Q143 -5 120 2T78 29T50 81T39 164Q39 252 78 295T192 338Q244 338 274 332T326 319V15ZM292 294Q276 298 254 302T198 306Q175 306 153 303T114 285T86 244T75 169Q75 101 96 64T173 27Q202 27 224 35T262 58T284 89T292 125V294Z"  />
<glyph unicode="h" horiz-adv-x="352" d="M273 222Q273 264 263 284T212 305Q191 305 170 298T131 280T100 259T83 244V0H49V467H83V280Q91 287 105 297T137 316T175 331T217 338Q243 338 260 332T288 313T303 278T307 224V43Q307 24 323 24Q328 24 337 27L343 3Q322 -4 309 -4Q303 -4 297 -3T285 2T277 16T273 42V222Z"  />
<glyph unicode="i" horiz-adv-x="129" d="M91 439Q91 428 84 421T65 414Q55 414 48 421T41 439Q41 450 48 457T65 464Q76 464 83 457T91 439ZM48 332H82V43Q82 24 98 24Q103 24 112 27L118 3Q97 -4 84 -4Q67 -4 58 4T48 43V332Z"  />
<glyph unicode="j" horiz-adv-x="117" d="M77 439Q77 428 70 421T52 414Q41 414 34 421T27 439Q27 450 34 457T52 464Q62 464 69 457T77 439ZM69 -61Q69 -99 53 -118T-4 -138Q-23 -138 -35 -135T-56 -126L-49 -97Q-44 -100 -34 -104T-7 -108Q13 -108 24 -101T35 -61V332H69V-61Z"  />
<glyph unicode="k" horiz-adv-x="302" d="M263 0L154 169L83 92V0H49V467H83V136L258 332H296L176 196L300 0H263Z"  />
<glyph unicode="l" horiz-adv-x="131" d="M51 467H85V43Q85 24 101 24Q106 24 115 27L121 3Q100 -4 87 -4Q70 -4 61 4T51 43V467Z"  />
<glyph unicode="m" horiz-adv-x="554" d="M475 222Q475 264 465 284T414 305Q395 305 377 299T343 283T315 263T295 244Q296 239 296 234T296 223V0H261V222Q261 264 251 284T200 305Q179 305 160 298T125 280T98 259T83 244V0H49V332H83V280Q91 287 103 297T131 316T166 331T205 338Q243 338 263 326T291 277Q302 287 316 298T346 318T381 332T419 338Q443 338 460 333T488 316T504 281T509 223V43Q509 24 525 24Q530 24 539 27L545 3Q524 -4 511 -4Q505 -4 499 -3T487 2T479 16T475 42V222Z"  />
<glyph unicode="n" horiz-adv-x="352" d="M83 280Q91 287 105 297T137 316T175 331T217 338Q243 338 260 332T288 313T303 278T307 224V43Q307 24 323 24Q328 24 337 27L343 3Q322 -4 309 -4Q303 -4 297 -3T285 2T277 16T273 42V222Q273 264 263 284T212 305Q191 305 170 298T131 280T100 259T83 244V0H49V332H83V280Z"  />
<glyph unicode="o" horiz-adv-x="379" d="M340 165Q340 114 327 81T293 29T245 3T189 -5Q160 -5 133 2T85 29T52 81T39 165Q39 216 51 249T85 302T133 330T189 338Q218 338 245 330T293 303T327 250T340 165ZM304 165Q304 209 294 237T268 280T231 301T189 307Q168 307 148 302T111 281T85 237T75 165Q75 121 85 94T111 52T147 32T189 27Q210 27 231 32T268 52T294 94T304 165Z"  />
<glyph unicode="p" horiz-adv-x="375" d="M336 169Q336 130 327 98T300 43T255 8T190 -5Q148 -5 122 5T83 25V-133H49V332H83V281Q87 289 97 299T123 317T159 332T206 338Q231 338 254 331T296 304T325 252T336 169ZM300 164Q300 231 279 269T201 307Q172 307 150 298T113 275T91 244T83 209V61Q92 52 120 40T183 27Q207 27 228 32T266 52T291 94T300 164Z"  />
<glyph unicode="q" horiz-adv-x="375" d="M292 -133V56Q287 46 277 35T252 15T216 1T168 -5Q143 -5 120 2T78 29T50 81T39 164Q39 252 78 295T192 338Q239 338 271 332T326 319V-133H292ZM292 294Q274 299 252 302T198 306Q175 306 153 303T114 285T86 244T75 169Q75 101 96 64T173 27Q202 27 224 35T262 58T284 89T292 125V294Z"  />
<glyph unicode="r" horiz-adv-x="240" d="M219 290Q209 296 196 300T164 305Q150 305 137 299T113 283T94 263T83 247V0H49V332H83V286Q96 306 117 322T168 338Q186 338 201 333T226 321L219 290Z"  />
<glyph unicode="s" horiz-adv-x="298" d="M270 94Q270 51 237 23T140 -5Q101 -5 76 -1T36 10L44 45Q58 37 83 32T139 26Q154 26 171 28T202 38T226 59T235 94Q235 112 221 124T186 146T141 164T95 184T60 211T46 250Q46 275 55 291T81 318T119 333T164 338Q194 338 216 334T257 321L250 289Q233 297 210 302T161 307Q119 307 100 293T81 253Q81 236 95 225T130 204T175 186T221 165T256 136T270 94Z"  />
<glyph unicode="t" horiz-adv-x="201" d="M175 304H99V73Q99 44 107 35T135 26Q146 26 155 28T174 38L183 8Q163 -5 134 -5Q99 -5 82 11T65 72V304H14L20 332H65V433L99 442V332H175V304Z"  />
<glyph unicode="u" horiz-adv-x="353" d="M273 52Q265 44 251 35T218 16T180 1T139 -5Q94 -5 72 18T49 107V332H83V111Q83 69 93 49T144 28Q165 28 186 35T225 53T256 73T273 88V332H308V43Q308 24 324 24Q329 24 338 27L344 3Q323 -4 310 -4Q304 -4 298 -3T286 2T277 16T273 42V52Z"  />
<glyph unicode="v" horiz-adv-x="303" d="M170 0H134L10 332H46L152 47L258 332H293L170 0Z"  />
<glyph unicode="w" horiz-adv-x="442" d="M334 0H301L222 292L143 0H109L14 332H47L126 42L204 332H239L316 42L395 332H428L334 0Z"  />
<glyph unicode="x" horiz-adv-x="285" d="M239 0L143 153L45 0H9L120 174L19 332H56L143 196L229 332H265L164 174L276 0H239Z"  />
<glyph unicode="y" horiz-adv-x="297" d="M153 -35Q135 -85 114 -111T48 -138Q31 -138 18 -135T-3 -126L4 -96Q13 -101 23 -105T50 -109Q64 -109 74 -104T94 -86T111 -55T130 -8L136 9L4 332H40L152 52L251 332H287L153 -35Z"  />
<glyph unicode="z" horiz-adv-x="280" d="M36 0V17L209 304H38L44 332H259V315L81 28H262V0H36Z"  />
<glyph unicode="{" horiz-adv-x="239" d="M217 -102Q174 -102 150 -90T113 -52T97 16T94 118Q94 136 92 154T84 187T69 211T44 223V246Q59 248 68 257T84 282T92 315T94 351Q94 411 97 452T112 520T149 558T217 570V542Q192 542 175 537T148 513T134 455T129 351Q129 325 126 307T117 275T104 252T87 234Q105 219 117 195T129 118Q129 52 133 14T148 -43T175 -68T217 -74V-102Z"  />
<glyph unicode="|" horiz-adv-x="173" d="M69 -165V535H104V-165H69Z"  />
<glyph unicode="}" horiz-adv-x="239" d="M195 223Q180 221 171 212T155 187T147 154T145 118Q145 58 142 16T127 -52T90 -90T22 -102V-74Q47 -74 64 -69T91 -44T105 14T110 118Q110 144 113 162T121 194T134 217T151 234Q142 242 135 251T122 274T113 306T110 351Q110 417 106 455T92 512T64 537T22 542V570Q65 570 89 559T126 521T142 453T145 351Q145 333 147 315T155 282T170 258T195 246V223Z"  />
<glyph unicode="~" horiz-adv-x="350" d="M325 239Q311 218 291 202T241 185Q221 185 203 191T170 208Q156 216 141 223T110 230Q93 230 77 218T48 185L25 209Q39 232 59 248T110 264Q130 264 147 258T180 242Q196 232 210 226T240 219Q257 219 273 231T302 264L325 239Z"  />
<glyph unicode="&#xA0;" horiz-adv-x="126" />
<glyph unicode="&#xA1;" horiz-adv-x="156" d="M105 443Q105 432 97 424T78 416Q67 416 59 424T51 443Q51 454 59 462T78 470Q89 470 97 462T105 443ZM57 0L64 355H92L99 0H57Z"  />
<glyph unicode="&#xA2;" horiz-adv-x="329" d="M295 354Q287 359 261 364T211 372V94Q235 94 256 99T298 113L291 77Q280 72 263 68T211 62V0H187V62Q174 62 151 67T104 91T63 143T45 236Q45 269 53 298T80 350T124 387T187 404V467H211V405Q247 404 269 399T302 388L295 354ZM187 371Q137 365 109 330T81 232Q81 192 91 167T117 126T151 105T187 96V371Z"  />
<glyph unicode="&#xA3;" horiz-adv-x="407" d="M349 0H77V20Q102 74 107 120T112 216H56V245H110Q108 254 106 267T101 294T98 323T96 347Q96 373 103 396T127 437T170 465T234 475Q271 475 299 466T348 446L341 409Q323 420 298 431T240 443Q219 443 200 440T166 426T142 396T133 347Q133 322 136 297T145 245H314V216H148Q148 168 144 121T117 30H355L349 0Z"  />
<glyph unicode="&#xA4;" horiz-adv-x="414" d="M357 121L336 99L290 146Q256 117 207 117Q190 117 167 123T124 146L78 99L57 121L104 166Q92 182 84 202T75 248Q75 273 82 294T104 330L57 376L78 398L124 351Q146 368 168 373T207 379Q227 379 249 373T289 351L336 398L357 376L310 330Q325 312 331 291T338 248Q338 202 310 166L357 121ZM308 249Q308 272 300 290T277 322T245 342T208 349Q185 349 167 341T134 320T113 288T105 249Q105 228 113 210T135 177T167 155T207 147Q228 147 246 155T278 177T300 209T308 249Z"  />
<glyph unicode="&#xA5;" horiz-adv-x="460" d="M257 214H358V186H248V129H358V101H248V0H213V101H103V129H213V186H103V214H205L51 467H89L230 232L372 467H409L257 214Z"  />
<glyph unicode="&#xA6;" horiz-adv-x="173" d="M69 242V535H104V242H69ZM69 -165V130H104V-165H69Z"  />
<glyph unicode="&#xA7;" horiz-adv-x="390" d="M350 -39Q350 -56 344 -76T320 -113T273 -143T193 -155Q158 -155 117 -150T43 -130L50 -95Q65 -102 83 -107T121 -115T159 -121T192 -123Q212 -123 233 -119T271 -106T298 -80T309 -39Q309 -13 289 4T239 36T175 63T110 91T60 127T40 178Q40 222 62 245T122 283Q113 287 101 294T79 311T61 333T53 360Q53 408 89 441T209 474Q274 474 335 451L323 416Q314 420 300 425T269 433T236 439T208 442Q188 442 168 439T132 428T105 406T94 367Q94 347 112 333T159 306T220 281T281 253T327 216T346 164Q346 141 336 123T313 91T287 71T267 63Q281 57 295 48T322 26T342 -3T350 -39ZM307 155Q307 177 295 193T261 221T212 245T153 268Q121 256 100 239T79 185Q79 164 93 149T129 122T179 99T234 78Q247 82 260 89T283 106T300 128T307 155Z"  />
<glyph unicode="&#xA8;" horiz-adv-x="171" d="M171 419Q171 408 164 401T146 394Q135 394 128 401T121 419Q121 430 128 437T146 444Q156 444 163 437T171 419ZM50 419Q50 408 43 401T24 394Q14 394 7 401T0 419Q0 430 7 437T24 444Q35 444 42 437T50 419Z"  />
<glyph unicode="&#xA9;" horiz-adv-x="421" d="M371 316Q371 281 359 251T325 199T274 165T210 152Q175 152 146 164T95 199T61 251T48 316Q48 351 60 381T94 433T145 467T210 480Q244 480 273 468T324 433T358 381T371 316ZM345 316Q345 344 335 369T308 414T265 444T210 455Q180 455 155 444T112 414T85 370T75 316Q75 288 84 263T112 218T155 188T210 177Q240 177 265 188T307 218T335 262T345 316ZM261 236Q247 230 221 230Q206 230 191 233T164 246T145 272T137 314Q137 365 161 384T224 403Q239 403 251 400T266 395L261 369Q255 372 246 374T225 377Q212 377 201 375T182 367T169 348T164 313Q164 255 224 255Q235 255 246 257T267 263L261 236Z"  />
<glyph unicode="&#xAA;" horiz-adv-x="279" d="M237 258Q226 253 215 253Q208 253 199 257T190 283V288Q180 271 162 262T120 253Q86 253 69 269T51 315Q51 336 58 350T78 371T107 382T141 385Q152 385 164 384T190 382V407Q190 437 173 444T128 452Q97 452 66 440L70 465Q99 475 136 475Q176 475 195 459T214 395V284Q214 274 223 274Q228 274 234 276L237 258ZM190 360Q177 361 165 362T137 363Q109 363 93 355T76 320Q76 293 88 285T120 276Q158 276 174 295T190 337V360Z"  />
<glyph unicode="&#xAB;" horiz-adv-x="306" d="M240 66L155 186L240 303H280L202 186L280 66H240ZM132 66L47 186L132 303H172L94 186L172 66H132Z"  />
<glyph unicode="&#xAC;" horiz-adv-x="350" d="M282 134V281H33V316H316V134H282Z"  />
<glyph unicode="&#xAD;" horiz-adv-x="274" d="M58 160V191H216V160H58Z"  />
<glyph unicode="&#xAE;" horiz-adv-x="421" d="M371 316Q371 281 359 251T325 199T274 165T210 152Q175 152 146 164T95 199T61 251T48 316Q48 351 60 381T94 433T145 467T210 480Q244 480 273 468T324 433T358 381T371 316ZM345 316Q345 344 335 369T308 414T265 444T210 455Q180 455 155 444T112 414T85 370T75 316Q75 288 84 263T112 218T155 188T210 177Q240 177 265 188T307 218T335 262T345 316ZM252 232L223 292H184V232H158V401H217Q246 401 259 384T273 343Q273 313 247 300L281 232H252ZM246 344Q246 378 217 378H184V314H217Q225 314 235 318T246 344Z"  />
<glyph unicode="&#xAF;" horiz-adv-x="174" d="M0 402V432H174V402H0Z"  />
<glyph unicode="&#xB0;" horiz-adv-x="257" d="M221 407Q221 388 214 371T195 342T165 322T129 315Q109 315 93 322T63 341T43 371T36 407Q36 426 43 443T63 472T92 492T129 500Q148 500 165 493T194 473T214 443T221 407ZM196 407Q196 433 179 455T129 477Q97 477 79 457T61 407Q61 377 80 357T129 337Q161 337 178 359T196 407Z"  />
<glyph unicode="&#xB1;" horiz-adv-x="350" d="M33 20V55H316V20H33ZM193 246V104H158V246H33V280H158V423H193V280H316V246H193Z"  />
<glyph unicode="&#xB2;" horiz-adv-x="290" d="M231 213H43V224Q79 254 108 277T159 321T191 359T203 396Q203 427 183 437T136 447Q107 447 86 441T49 428L54 459Q76 467 95 470T140 474Q164 474 182 468T211 450T228 425T234 397Q234 374 222 354T190 314T148 277T103 240H237L231 213Z"  />
<glyph unicode="&#xB3;" horiz-adv-x="279" d="M235 290Q235 269 226 254T201 229T167 214T128 209Q89 209 64 218T36 230L40 258Q52 250 72 243T128 235Q138 235 151 237T176 244T195 261T203 290Q203 306 196 314T178 327T156 332T137 333H86V360H137Q148 360 158 361T177 367T191 380T196 403Q196 418 189 426T172 439T150 445T127 447Q91 447 72 440T44 428L49 458Q60 463 78 468T127 474Q171 474 199 456T228 403Q228 376 213 364T182 346Q201 344 218 330T235 290Z"  />
<glyph unicode="&#xB4;" horiz-adv-x="120" d="M41 383H0L66 448H120L41 383Z"  />
<glyph unicode="&#xB5;" horiz-adv-x="353" d="M49 -133V332H83V111Q83 69 93 49T144 28Q165 28 186 35T225 53T256 73T273 88V332H308V43Q308 24 324 24Q329 24 338 27L344 3Q323 -4 310 -4Q304 -4 298 -3T286 2T277 16T273 42V52Q265 44 251 35T218 16T180 1T139 -5Q103 -5 83 8V-133H49Z"  />
<glyph unicode="&#xB6;" horiz-adv-x="387" d="M299 -81V436H257V-81H222V184H180Q111 184 77 222T43 325Q43 390 77 428T180 467H334V-81H299Z"  />
<glyph unicode="&#xB7;" horiz-adv-x="135" d="M94 248Q94 237 86 229T67 220Q56 220 49 228T41 248Q41 259 48 266T67 274Q78 274 86 267T94 248Z"  />
<glyph unicode="&#xB8;" horiz-adv-x="101" d="M40 -130H0L50 -43H101L40 -130Z"  />
<glyph unicode="&#xB9;" horiz-adv-x="188" d="M80 215V442L32 423V449L86 471H110V215H80Z"  />
<glyph unicode="&#xBA;" horiz-adv-x="301" d="M248 363Q248 330 240 309T218 275T187 258T150 253Q132 253 115 258T84 275T62 308T53 363Q53 396 61 417T83 452T114 470T150 475Q169 475 186 470T217 452T239 418T248 363ZM223 363Q223 392 217 409T201 436T177 449T150 452Q136 452 123 449T100 437T83 410T77 363Q77 334 83 317T99 291T123 279T150 276Q164 276 177 279T200 291T217 317T223 363Z"  />
<glyph unicode="&#xBB;" horiz-adv-x="306" d="M26 66L104 186L26 303H66L151 186L66 66H26ZM134 66L212 186L134 303H174L259 186L174 66H134Z"  />
<glyph unicode="&#xBC;" horiz-adv-x="488" d="M453 60H417V0H387V60H248L245 76L384 256H417V87H456L453 60ZM100 -12H68L320 479H353L100 -12ZM80 215V442L32 423V449L86 471H110V215H80ZM387 218L286 87H387V218Z"  />
<glyph unicode="&#xBD;" horiz-adv-x="527" d="M469 0H281V11Q317 41 346 64T397 108T429 146T441 183Q441 214 421 224T374 234Q345 234 324 228T287 214L292 246Q314 254 334 257T378 261Q402 261 420 254T449 236T466 212T472 184Q472 161 460 141T428 101T386 64T341 27H475L469 0ZM100 -12H68L320 479H353L100 -12ZM80 215V442L32 423V449L86 471H110V215H80Z"  />
<glyph unicode="&#xBE;" horiz-adv-x="583" d="M548 60H512V0H482V60H343L340 76L479 256H512V87H551L548 60ZM195 -12H163L415 479H448L195 -12ZM235 290Q235 269 226 254T201 229T167 214T128 209Q89 209 64 218T36 230L40 258Q52 250 72 243T128 235Q138 235 151 237T176 244T195 261T203 290Q203 306 196 314T178 327T156 332T137 333H86V360H137Q148 360 158 361T177 367T191 380T196 403Q196 418 189 426T172 439T150 445T127 447Q91 447 72 440T44 428L49 458Q60 463 78 468T127 474Q171 474 199 456T228 403Q228 376 213 364T182 346Q201 344 218 330T235 290ZM482 218L381 87H482V218Z"  />
<glyph unicode="&#xBF;" horiz-adv-x="302" d="M204 447Q204 436 196 428T177 420Q166 420 158 428T150 447Q150 458 158 466T177 474Q188 474 196 466T204 447ZM266 15Q246 8 220 2T167 -4Q145 -4 122 0T80 16T49 50T36 107Q36 146 55 171T98 215T140 253T160 298V358H195V293Q195 262 176 241T133 200T91 159T71 107Q71 81 80 66T102 42T133 31T167 28Q190 28 216 33T261 48L266 15Z"  />
<glyph unicode="&#xC0;" horiz-adv-x="403" d="M349 0L307 120H96L53 0H17L183 467H221L386 0H349ZM202 417L106 150H296L202 417ZM221 520L141 585H196L261 520H221Z"  />
<glyph unicode="&#xC1;" horiz-adv-x="403" d="M349 0L307 120H96L53 0H17L183 467H221L386 0H349ZM202 417L106 150H296L202 417ZM182 520H141L207 585H261L182 520Z"  />
<glyph unicode="&#xC2;" horiz-adv-x="403" d="M349 0L307 120H96L53 0H17L183 467H221L386 0H349ZM202 417L106 150H296L202 417ZM245 520L201 566L157 520H116L176 585H226L286 520H245Z"  />
<glyph unicode="&#xC3;" horiz-adv-x="403" d="M349 0L307 120H96L53 0H17L183 467H221L386 0H349ZM202 417L106 150H296L202 417ZM297 585Q297 552 287 536T250 519Q241 519 227 524T199 535T172 547T153 552Q145 552 143 543T140 519H105Q105 549 115 568T152 588Q162 588 175 583T202 572T228 560T248 555Q257 555 259 563T262 585H297Z"  />
<glyph unicode="&#xC4;" horiz-adv-x="403" d="M349 0L307 120H96L53 0H17L183 467H221L386 0H349ZM202 417L106 150H296L202 417ZM287 556Q287 545 280 538T262 531Q251 531 244 538T237 556Q237 567 244 574T262 581Q272 581 279 574T287 556ZM166 556Q166 545 159 538T140 531Q130 531 123 538T116 556Q116 567 123 574T140 581Q151 581 158 574T166 556Z"  />
<glyph unicode="&#xC5;" horiz-adv-x="403" d="M349 0L307 120H96L53 0H17L183 467H221L386 0H349ZM202 417L106 150H296L202 417ZM257 565Q257 542 241 526T202 509Q179 509 163 525T146 565Q146 588 163 604T203 621Q226 621 241 605T257 565ZM233 565Q233 578 224 587T202 596Q189 596 180 587T170 565Q170 552 179 543T202 534Q215 534 224 543T233 565Z"  />
<glyph unicode="&#xC6;" horiz-adv-x="581" d="M543 0H292V120H121L56 0H20L273 467H548L543 436H327V248H522L517 218H327V31H548L543 0ZM292 436L138 151H292V436Z"  />
<glyph unicode="&#xC7;" horiz-adv-x="392" d="M359 8Q339 1 310 -3T255 -7Q212 -7 173 7T105 51T58 124T40 227Q40 278 54 323T94 401T160 455T249 475Q298 475 326 467T365 453L359 420Q340 429 311 436T253 444Q219 444 187 432T131 392T92 323T77 223Q77 171 93 134T134 72T191 36T254 24Q280 24 308 28T365 44L359 8ZM185 -130H145L195 -43H246L185 -130Z"  />
<glyph unicode="&#xC8;" horiz-adv-x="345" d="M307 0H56V467H312L307 436H91V248H286L281 218H91V31H312L307 0ZM192 520L112 585H167L232 520H192Z"  />
<glyph unicode="&#xC9;" horiz-adv-x="345" d="M307 0H56V467H312L307 436H91V248H286L281 218H91V31H312L307 0ZM173 520H132L198 585H252L173 520Z"  />
<glyph unicode="&#xCA;" horiz-adv-x="345" d="M307 0H56V467H312L307 436H91V248H286L281 218H91V31H312L307 0ZM226 520L182 566L138 520H97L157 585H207L267 520H226Z"  />
<glyph unicode="&#xCB;" horiz-adv-x="345" d="M307 0H56V467H312L307 436H91V248H286L281 218H91V31H312L307 0ZM268 556Q268 545 261 538T243 531Q232 531 225 538T218 556Q218 567 225 574T243 581Q253 581 260 574T268 556ZM147 556Q147 545 140 538T121 531Q111 531 104 538T97 556Q97 567 104 574T121 581Q132 581 139 574T147 556Z"  />
<glyph unicode="&#xCC;" horiz-adv-x="151" d="M58 0V467H93V0H58ZM95 520L15 585H70L135 520H95Z"  />
<glyph unicode="&#xCD;" horiz-adv-x="151" d="M58 0V467H93V0H58ZM56 520H15L81 585H135L56 520Z"  />
<glyph unicode="&#xCE;" horiz-adv-x="151" d="M58 0V467H93V0H58ZM120 520L76 566L32 520H-9L51 585H101L161 520H120Z"  />
<glyph unicode="&#xCF;" horiz-adv-x="151" d="M58 0V467H93V0H58ZM161 556Q161 545 154 538T136 531Q125 531 118 538T111 556Q111 567 118 574T136 581Q146 581 153 574T161 556ZM40 556Q40 545 33 538T14 531Q4 531 -3 538T-10 556Q-10 567 -3 574T14 581Q25 581 32 574T40 556Z"  />
<glyph unicode="&#xD0;" horiz-adv-x="443" d="M400 233Q400 167 385 123T345 51T287 12T217 0H65V216H1V246H65V467H216Q312 467 356 406T400 233ZM364 233Q364 302 348 342T309 403T262 430T222 436H100V246H173V216H100V30H222Q238 30 262 36T309 63T348 124T364 233Z"  />
<glyph unicode="&#xD1;" horiz-adv-x="435" d="M349 0L91 395V0H56V467H86L344 73V467H379V0H349ZM313 585Q313 552 303 536T266 519Q257 519 243 524T215 535T188 547T169 552Q161 552 159 543T156 519H121Q121 549 131 568T168 588Q178 588 191 583T218 572T244 560T264 555Q273 555 275 563T278 585H313Z"  />
<glyph unicode="&#xD2;" horiz-adv-x="461" d="M418 233Q418 164 402 118T359 44T299 5T231 -7Q197 -7 164 4T103 44T60 118T43 233Q43 303 59 349T103 424T163 463T231 475Q265 475 298 464T358 424T401 350T418 233ZM382 233Q382 297 368 338T331 402T283 435T231 444Q206 444 180 435T131 403T95 338T80 233Q80 169 94 129T131 65T179 33T231 24Q256 24 282 32T331 64T367 128T382 233ZM240 520L160 585H215L280 520H240Z"  />
<glyph unicode="&#xD3;" horiz-adv-x="461" d="M418 233Q418 164 402 118T359 44T299 5T231 -7Q197 -7 164 4T103 44T60 118T43 233Q43 303 59 349T103 424T163 463T231 475Q265 475 298 464T358 424T401 350T418 233ZM382 233Q382 297 368 338T331 402T283 435T231 444Q206 444 180 435T131 403T95 338T80 233Q80 169 94 129T131 65T179 33T231 24Q256 24 282 32T331 64T367 128T382 233ZM211 520H170L236 585H290L211 520Z"  />
<glyph unicode="&#xD4;" horiz-adv-x="461" d="M418 233Q418 164 402 118T359 44T299 5T231 -7Q197 -7 164 4T103 44T60 118T43 233Q43 303 59 349T103 424T163 463T231 475Q265 475 298 464T358 424T401 350T418 233ZM382 233Q382 297 368 338T331 402T283 435T231 444Q206 444 180 435T131 403T95 338T80 233Q80 169 94 129T131 65T179 33T231 24Q256 24 282 32T331 64T367 128T382 233ZM274 520L230 566L186 520H145L205 585H255L315 520H274Z"  />
<glyph unicode="&#xD5;" horiz-adv-x="461" d="M418 233Q418 164 402 118T359 44T299 5T231 -7Q197 -7 164 4T103 44T60 118T43 233Q43 303 59 349T103 424T163 463T231 475Q265 475 298 464T358 424T401 350T418 233ZM382 233Q382 297 368 338T331 402T283 435T231 444Q206 444 180 435T131 403T95 338T80 233Q80 169 94 129T131 65T179 33T231 24Q256 24 282 32T331 64T367 128T382 233ZM326 585Q326 552 316 536T279 519Q270 519 256 524T228 535T201 547T182 552Q174 552 172 543T169 519H134Q134 549 144 568T181 588Q191 588 204 583T231 572T257 560T277 555Q286 555 288 563T291 585H326Z"  />
<glyph unicode="&#xD6;" horiz-adv-x="461" d="M418 233Q418 164 402 118T359 44T299 5T231 -7Q197 -7 164 4T103 44T60 118T43 233Q43 303 59 349T103 424T163 463T231 475Q265 475 298 464T358 424T401 350T418 233ZM382 233Q382 297 368 338T331 402T283 435T231 444Q206 444 180 435T131 403T95 338T80 233Q80 169 94 129T131 65T179 33T231 24Q256 24 282 32T331 64T367 128T382 233ZM316 556Q316 545 309 538T291 531Q280 531 273 538T266 556Q266 567 273 574T291 581Q301 581 308 574T316 556ZM195 556Q195 545 188 538T169 531Q159 531 152 538T145 556Q145 567 152 574T169 581Q180 581 187 574T195 556Z"  />
<glyph unicode="&#xD7;" horiz-adv-x="350" d="M297 74L175 197L53 74L27 100L149 222L28 343L53 369L175 247L297 369L323 343L201 222L323 100L297 74Z"  />
<glyph unicode="&#xD8;" horiz-adv-x="461" d="M418 233Q418 164 402 118T359 44T299 5T231 -7Q205 -7 181 -1T134 19L108 -29H75L110 37Q81 64 62 111T43 233Q43 303 59 349T103 424T163 463T231 475Q256 475 280 470T327 450L352 498H386L351 431Q381 404 399 356T418 233ZM382 233Q382 295 369 335T334 399L150 48Q170 34 190 29T231 24Q255 24 282 32T331 64T367 128T382 233ZM311 420Q292 434 272 439T231 444Q206 444 180 435T131 403T95 338T80 233Q80 172 93 132T127 69L311 420Z"  />
<glyph unicode="&#xD9;" horiz-adv-x="429" d="M376 155Q376 132 372 104T352 51T303 10T215 -7Q159 -7 127 9T79 51T58 104T53 155V467H88V155Q88 129 93 106T113 64T151 35T215 24Q254 24 278 35T317 64T336 105T341 155V467H376V155ZM234 520L154 585H209L274 520H234Z"  />
<glyph unicode="&#xDA;" horiz-adv-x="429" d="M376 155Q376 132 372 104T352 51T303 10T215 -7Q159 -7 127 9T79 51T58 104T53 155V467H88V155Q88 129 93 106T113 64T151 35T215 24Q254 24 278 35T317 64T336 105T341 155V467H376V155ZM205 520H164L230 585H284L205 520Z"  />
<glyph unicode="&#xDB;" horiz-adv-x="429" d="M376 155Q376 132 372 104T352 51T303 10T215 -7Q159 -7 127 9T79 51T58 104T53 155V467H88V155Q88 129 93 106T113 64T151 35T215 24Q254 24 278 35T317 64T336 105T341 155V467H376V155ZM258 520L214 566L170 520H129L189 585H239L299 520H258Z"  />
<glyph unicode="&#xDC;" horiz-adv-x="429" d="M376 155Q376 132 372 104T352 51T303 10T215 -7Q159 -7 127 9T79 51T58 104T53 155V467H88V155Q88 129 93 106T113 64T151 35T215 24Q254 24 278 35T317 64T336 105T341 155V467H376V155ZM300 556Q300 545 293 538T275 531Q264 531 257 538T250 556Q250 567 257 574T275 581Q285 581 292 574T300 556ZM179 556Q179 545 172 538T153 531Q143 531 136 538T129 556Q129 567 136 574T153 581Q164 581 171 574T179 556Z"  />
<glyph unicode="&#xDD;" horiz-adv-x="378" d="M207 201V0H172V201L10 467H48L189 232L331 467H368L207 201ZM170 520H129L195 585H249L170 520Z"  />
<glyph unicode="&#xDE;" horiz-adv-x="381" d="M347 234Q347 169 313 133T210 96H91V0H56V467H91V372H210Q279 372 313 335T347 234ZM311 234Q311 270 301 291T275 323T242 338T212 341H91V127H212Q225 127 242 130T274 144T300 176T311 234Z"  />
<glyph unicode="&#xDF;" horiz-adv-x="362" d="M328 97Q328 43 296 19T218 -5Q186 -5 162 -1T121 10L128 43Q144 37 167 32T218 26Q233 26 247 29T272 41T289 63T296 97Q296 118 287 133T263 160T231 182T200 202T176 225T166 255Q166 276 180 289T211 316T242 343T256 378Q256 398 249 411T231 433T205 445T176 449Q136 449 110 429T83 356V0H49V349Q49 412 80 446T176 480Q195 480 216 475T253 458T281 427T292 379Q292 352 277 334T245 303T212 278T197 255Q197 241 217 229T262 200T307 159T328 97Z"  />
<glyph unicode="&#xE0;" horiz-adv-x="328" d="M319 3Q298 -4 285 -4Q279 -4 273 -3T261 2T252 16T248 41V49Q239 34 226 24T198 7T168 -2T138 -5Q87 -5 59 20T31 91Q31 124 42 144T73 176T118 192T170 196Q190 196 209 195T248 192V233Q248 259 239 273T216 295T184 305T147 307Q125 307 103 302T54 288L61 321Q85 329 112 333T163 338Q193 338 215 333T253 313T275 276T283 215V43Q283 24 299 24Q304 24 313 27L319 3ZM248 164Q230 166 210 167T171 168Q149 168 130 166T97 157T75 136T67 99Q67 57 88 42T138 27Q168 27 188 35T222 58T242 89T248 125V164ZM184 383L104 448H159L224 383H184Z"  />
<glyph unicode="&#xE1;" horiz-adv-x="328" d="M319 3Q298 -4 285 -4Q279 -4 273 -3T261 2T252 16T248 41V49Q239 34 226 24T198 7T168 -2T138 -5Q87 -5 59 20T31 91Q31 124 42 144T73 176T118 192T170 196Q190 196 209 195T248 192V233Q248 259 239 273T216 295T184 305T147 307Q125 307 103 302T54 288L61 321Q85 329 112 333T163 338Q193 338 215 333T253 313T275 276T283 215V43Q283 24 299 24Q304 24 313 27L319 3ZM248 164Q230 166 210 167T171 168Q149 168 130 166T97 157T75 136T67 99Q67 57 88 42T138 27Q168 27 188 35T222 58T242 89T248 125V164ZM145 383H104L170 448H224L145 383Z"  />
<glyph unicode="&#xE2;" horiz-adv-x="328" d="M319 3Q298 -4 285 -4Q279 -4 273 -3T261 2T252 16T248 41V49Q239 34 226 24T198 7T168 -2T138 -5Q87 -5 59 20T31 91Q31 124 42 144T73 176T118 192T170 196Q190 196 209 195T248 192V233Q248 259 239 273T216 295T184 305T147 307Q125 307 103 302T54 288L61 321Q85 329 112 333T163 338Q193 338 215 333T253 313T275 276T283 215V43Q283 24 299 24Q304 24 313 27L319 3ZM248 164Q230 166 210 167T171 168Q149 168 130 166T97 157T75 136T67 99Q67 57 88 42T138 27Q168 27 188 35T222 58T242 89T248 125V164ZM208 383L164 429L120 383H79L139 448H189L249 383H208Z"  />
<glyph unicode="&#xE3;" horiz-adv-x="328" d="M319 3Q298 -4 285 -4Q279 -4 273 -3T261 2T252 16T248 41V49Q239 34 226 24T198 7T168 -2T138 -5Q87 -5 59 20T31 91Q31 124 42 144T73 176T118 192T170 196Q190 196 209 195T248 192V233Q248 259 239 273T216 295T184 305T147 307Q125 307 103 302T54 288L61 321Q85 329 112 333T163 338Q193 338 215 333T253 313T275 276T283 215V43Q283 24 299 24Q304 24 313 27L319 3ZM248 164Q230 166 210 167T171 168Q149 168 130 166T97 157T75 136T67 99Q67 57 88 42T138 27Q168 27 188 35T222 58T242 89T248 125V164ZM260 448Q260 415 250 399T213 382Q204 382 190 387T162 398T135 410T116 415Q108 415 106 406T103 382H68Q68 412 78 431T115 451Q125 451 138 446T165 435T191 423T211 418Q220 418 222 426T225 448H260Z"  />
<glyph unicode="&#xE4;" horiz-adv-x="328" d="M319 3Q298 -4 285 -4Q279 -4 273 -3T261 2T252 16T248 41V49Q239 34 226 24T198 7T168 -2T138 -5Q87 -5 59 20T31 91Q31 124 42 144T73 176T118 192T170 196Q190 196 209 195T248 192V233Q248 259 239 273T216 295T184 305T147 307Q125 307 103 302T54 288L61 321Q85 329 112 333T163 338Q193 338 215 333T253 313T275 276T283 215V43Q283 24 299 24Q304 24 313 27L319 3ZM248 164Q230 166 210 167T171 168Q149 168 130 166T97 157T75 136T67 99Q67 57 88 42T138 27Q168 27 188 35T222 58T242 89T248 125V164ZM249 419Q249 408 242 401T224 394Q213 394 206 401T199 419Q199 430 206 437T224 444Q234 444 241 437T249 419ZM128 419Q128 408 121 401T102 394Q92 394 85 401T78 419Q78 430 85 437T102 444Q113 444 120 437T128 419Z"  />
<glyph unicode="&#xE5;" horiz-adv-x="328" d="M319 3Q298 -4 285 -4Q279 -4 273 -3T261 2T252 16T248 41V49Q239 34 226 24T198 7T168 -2T138 -5Q87 -5 59 20T31 91Q31 124 42 144T73 176T118 192T170 196Q190 196 209 195T248 192V233Q248 259 239 273T216 295T184 305T147 307Q125 307 103 302T54 288L61 321Q85 329 112 333T163 338Q193 338 215 333T253 313T275 276T283 215V43Q283 24 299 24Q304 24 313 27L319 3ZM248 164Q230 166 210 167T171 168Q149 168 130 166T97 157T75 136T67 99Q67 57 88 42T138 27Q168 27 188 35T222 58T242 89T248 125V164ZM219 428Q219 405 203 389T164 372Q141 372 125 388T108 428Q108 451 125 467T165 484Q188 484 203 468T219 428ZM195 428Q195 441 186 450T164 459Q151 459 142 450T132 428Q132 415 141 406T164 397Q177 397 186 406T195 428Z"  />
<glyph unicode="&#xE6;" horiz-adv-x="571" d="M535 192Q535 176 534 168T533 157H284Q284 113 295 87T324 48T364 31T407 27Q475 27 526 50L519 15Q498 5 468 0T411 -5Q352 -5 318 12T266 65Q261 56 252 44T227 21T189 3T138 -5Q87 -5 59 20T31 91Q31 122 41 141T69 170T111 184T162 188Q180 188 203 187T248 185V226Q248 252 239 268T216 292T184 304T147 307Q124 307 102 302T54 288L61 321Q88 331 112 334T163 338Q202 338 231 325T274 274Q291 302 319 320T395 338Q431 338 457 327T501 297T527 250T535 192ZM501 185Q505 249 475 278T395 307Q362 307 341 295T307 263T289 223T284 185H501ZM248 157Q225 159 205 159T161 160Q139 160 122 159T92 151T74 131T67 94Q67 56 88 42T138 27Q168 27 188 35T222 58T242 89T248 125V157Z"  />
<glyph unicode="&#xE7;" horiz-adv-x="315" d="M287 288Q268 294 245 299T196 305Q139 305 106 269T73 165Q73 116 88 89T124 48T167 31T205 28Q228 28 249 33T290 46L283 10Q270 4 246 0T199 -5Q174 -5 146 1T93 26T53 79T37 169Q37 204 46 235T75 289T124 325T194 338Q230 338 252 334T294 321L287 288ZM147 -130H107L157 -43H208L147 -130Z"  />
<glyph unicode="&#xE8;" horiz-adv-x="362" d="M326 192Q326 176 325 168T324 157H75Q75 113 86 87T115 48T156 31T204 27Q265 27 317 50L310 15Q287 4 258 0T201 -5Q111 -5 75 37T39 162Q39 199 48 231T75 287T120 324T186 338Q222 338 248 327T292 297T317 250T326 192ZM292 185Q295 250 265 278T186 307Q153 307 132 295T98 264T80 224T75 185H292ZM201 383L121 448H176L241 383H201Z"  />
<glyph unicode="&#xE9;" horiz-adv-x="362" d="M326 192Q326 176 325 168T324 157H75Q75 113 86 87T115 48T156 31T204 27Q265 27 317 50L310 15Q287 4 258 0T201 -5Q111 -5 75 37T39 162Q39 199 48 231T75 287T120 324T186 338Q222 338 248 327T292 297T317 250T326 192ZM292 185Q295 250 265 278T186 307Q153 307 132 295T98 264T80 224T75 185H292ZM162 383H121L187 448H241L162 383Z"  />
<glyph unicode="&#xEA;" horiz-adv-x="362" d="M326 192Q326 176 325 168T324 157H75Q75 113 86 87T115 48T156 31T204 27Q265 27 317 50L310 15Q287 4 258 0T201 -5Q111 -5 75 37T39 162Q39 199 48 231T75 287T120 324T186 338Q222 338 248 327T292 297T317 250T326 192ZM292 185Q295 250 265 278T186 307Q153 307 132 295T98 264T80 224T75 185H292ZM225 383L181 429L137 383H96L156 448H206L266 383H225Z"  />
<glyph unicode="&#xEB;" horiz-adv-x="362" d="M326 192Q326 176 325 168T324 157H75Q75 113 86 87T115 48T156 31T204 27Q265 27 317 50L310 15Q287 4 258 0T201 -5Q111 -5 75 37T39 162Q39 199 48 231T75 287T120 324T186 338Q222 338 248 327T292 297T317 250T326 192ZM292 185Q295 250 265 278T186 307Q153 307 132 295T98 264T80 224T75 185H292ZM266 419Q266 408 259 401T241 394Q230 394 223 401T216 419Q216 430 223 437T241 444Q251 444 258 437T266 419ZM145 419Q145 408 138 401T119 394Q109 394 102 401T95 419Q95 430 102 437T119 444Q130 444 137 437T145 419Z"  />
<glyph unicode="&#xEC;" horiz-adv-x="129" d="M48 332H82V43Q82 24 98 24Q103 24 112 27L118 3Q97 -4 84 -4Q67 -4 58 4T48 43V332ZM84 383L4 448H59L124 383H84Z"  />
<glyph unicode="&#xED;" horiz-adv-x="129" d="M48 332H82V43Q82 24 98 24Q103 24 112 27L118 3Q97 -4 84 -4Q67 -4 58 4T48 43V332ZM45 383H4L70 448H124L45 383Z"  />
<glyph unicode="&#xEE;" horiz-adv-x="129" d="M48 332H82V43Q82 24 98 24Q103 24 112 27L118 3Q97 -4 84 -4Q67 -4 58 4T48 43V332ZM109 383L65 429L21 383H-20L40 448H90L150 383H109Z"  />
<glyph unicode="&#xEF;" horiz-adv-x="129" d="M48 332H82V43Q82 24 98 24Q103 24 112 27L118 3Q97 -4 84 -4Q67 -4 58 4T48 43V332ZM150 419Q150 408 143 401T125 394Q114 394 107 401T100 419Q100 430 107 437T125 444Q135 444 142 437T150 419ZM29 419Q29 408 22 401T3 394Q-7 394 -14 401T-21 419Q-21 430 -14 437T3 444Q14 444 21 437T29 419Z"  />
<glyph unicode="&#xF0;" horiz-adv-x="379" d="M230 467Q235 459 240 450T252 429L329 451L335 426L266 405Q278 385 291 358T315 299T333 233T340 165Q340 114 327 81T293 29T245 3T190 -5Q161 -5 134 2T86 29T52 81T39 165Q39 216 52 249T86 302T134 330T190 338Q224 338 241 334T270 323Q262 342 254 359T234 397L158 376L150 401L220 421Q212 434 206 445T192 467H230ZM304 165Q304 204 297 235T283 281Q275 287 251 297T190 307Q169 307 148 302T111 281T85 237T75 165Q75 121 85 94T111 52T148 32T190 27Q211 27 231 32T268 52T294 94T304 165Z"  />
<glyph unicode="&#xF1;" horiz-adv-x="352" d="M83 280Q91 287 105 297T137 316T175 331T217 338Q243 338 260 332T288 313T303 278T307 224V43Q307 24 323 24Q328 24 337 27L343 3Q322 -4 309 -4Q303 -4 297 -3T285 2T277 16T273 42V222Q273 264 263 284T212 305Q191 305 170 298T131 280T100 259T83 244V0H49V332H83V280ZM272 448Q272 415 262 399T225 382Q216 382 202 387T174 398T147 410T128 415Q120 415 118 406T115 382H80Q80 412 90 431T127 451Q137 451 150 446T177 435T203 423T223 418Q232 418 234 426T237 448H272Z"  />
<glyph unicode="&#xF2;" horiz-adv-x="379" d="M340 165Q340 114 327 81T293 29T245 3T189 -5Q160 -5 133 2T85 29T52 81T39 165Q39 216 51 249T85 302T133 330T189 338Q218 338 245 330T293 303T327 250T340 165ZM304 165Q304 209 294 237T268 280T231 301T189 307Q168 307 148 302T111 281T85 237T75 165Q75 121 85 94T111 52T147 32T189 27Q210 27 231 32T268 52T294 94T304 165ZM209 383L129 448H184L249 383H209Z"  />
<glyph unicode="&#xF3;" horiz-adv-x="379" d="M340 165Q340 114 327 81T293 29T245 3T189 -5Q160 -5 133 2T85 29T52 81T39 165Q39 216 51 249T85 302T133 330T189 338Q218 338 245 330T293 303T327 250T340 165ZM304 165Q304 209 294 237T268 280T231 301T189 307Q168 307 148 302T111 281T85 237T75 165Q75 121 85 94T111 52T147 32T189 27Q210 27 231 32T268 52T294 94T304 165ZM170 383H129L195 448H249L170 383Z"  />
<glyph unicode="&#xF4;" horiz-adv-x="379" d="M340 165Q340 114 327 81T293 29T245 3T189 -5Q160 -5 133 2T85 29T52 81T39 165Q39 216 51 249T85 302T133 330T189 338Q218 338 245 330T293 303T327 250T340 165ZM304 165Q304 209 294 237T268 280T231 301T189 307Q168 307 148 302T111 281T85 237T75 165Q75 121 85 94T111 52T147 32T189 27Q210 27 231 32T268 52T294 94T304 165ZM233 383L189 429L145 383H104L164 448H214L274 383H233Z"  />
<glyph unicode="&#xF5;" horiz-adv-x="379" d="M340 165Q340 114 327 81T293 29T245 3T189 -5Q160 -5 133 2T85 29T52 81T39 165Q39 216 51 249T85 302T133 330T189 338Q218 338 245 330T293 303T327 250T340 165ZM304 165Q304 209 294 237T268 280T231 301T189 307Q168 307 148 302T111 281T85 237T75 165Q75 121 85 94T111 52T147 32T189 27Q210 27 231 32T268 52T294 94T304 165ZM285 448Q285 415 275 399T238 382Q229 382 215 387T187 398T160 410T141 415Q133 415 131 406T128 382H93Q93 412 103 431T140 451Q150 451 163 446T190 435T216 423T236 418Q245 418 247 426T250 448H285Z"  />
<glyph unicode="&#xF6;" horiz-adv-x="379" d="M340 165Q340 114 327 81T293 29T245 3T189 -5Q160 -5 133 2T85 29T52 81T39 165Q39 216 51 249T85 302T133 330T189 338Q218 338 245 330T293 303T327 250T340 165ZM304 165Q304 209 294 237T268 280T231 301T189 307Q168 307 148 302T111 281T85 237T75 165Q75 121 85 94T111 52T147 32T189 27Q210 27 231 32T268 52T294 94T304 165ZM275 419Q275 408 268 401T250 394Q239 394 232 401T225 419Q225 430 232 437T250 444Q260 444 267 437T275 419ZM154 419Q154 408 147 401T128 394Q118 394 111 401T104 419Q104 430 111 437T128 444Q139 444 146 437T154 419Z"  />
<glyph unicode="&#xF7;" horiz-adv-x="350" d="M205 348Q205 335 196 327T176 318Q163 318 155 326T146 348Q146 360 154 368T176 377Q188 377 196 369T205 348ZM33 208V242H316V208H33ZM205 102Q205 89 196 81T176 72Q163 72 155 80T146 102Q146 115 154 123T176 131Q188 131 196 123T205 102Z"  />
<glyph unicode="&#xF8;" horiz-adv-x="379" d="M340 165Q340 114 327 81T293 29T245 3T189 -5Q154 -5 123 6L105 -29H72L97 20Q71 37 55 72T39 165Q39 216 51 249T85 302T133 330T189 338Q207 338 224 336T258 325L274 356H307L283 311Q309 292 324 257T340 165ZM304 165Q304 210 294 237T268 281L138 35Q150 30 163 29T189 27Q210 27 231 32T268 52T294 94T304 165ZM243 297Q219 307 189 307Q168 307 148 302T111 281T85 237T75 165Q75 119 85 92T113 50L243 297Z"  />
<glyph unicode="&#xF9;" horiz-adv-x="353" d="M273 52Q265 44 251 35T218 16T180 1T139 -5Q94 -5 72 18T49 107V332H83V111Q83 69 93 49T144 28Q165 28 186 35T225 53T256 73T273 88V332H308V43Q308 24 324 24Q329 24 338 27L344 3Q323 -4 310 -4Q304 -4 298 -3T286 2T277 16T273 42V52ZM196 383L116 448H171L236 383H196Z"  />
<glyph unicode="&#xFA;" horiz-adv-x="353" d="M273 52Q265 44 251 35T218 16T180 1T139 -5Q94 -5 72 18T49 107V332H83V111Q83 69 93 49T144 28Q165 28 186 35T225 53T256 73T273 88V332H308V43Q308 24 324 24Q329 24 338 27L344 3Q323 -4 310 -4Q304 -4 298 -3T286 2T277 16T273 42V52ZM157 383H116L182 448H236L157 383Z"  />
<glyph unicode="&#xFB;" horiz-adv-x="353" d="M273 52Q265 44 251 35T218 16T180 1T139 -5Q94 -5 72 18T49 107V332H83V111Q83 69 93 49T144 28Q165 28 186 35T225 53T256 73T273 88V332H308V43Q308 24 324 24Q329 24 338 27L344 3Q323 -4 310 -4Q304 -4 298 -3T286 2T277 16T273 42V52ZM220 383L176 429L132 383H91L151 448H201L261 383H220Z"  />
<glyph unicode="&#xFC;" horiz-adv-x="353" d="M273 52Q265 44 251 35T218 16T180 1T139 -5Q94 -5 72 18T49 107V332H83V111Q83 69 93 49T144 28Q165 28 186 35T225 53T256 73T273 88V332H308V43Q308 24 324 24Q329 24 338 27L344 3Q323 -4 310 -4Q304 -4 298 -3T286 2T277 16T273 42V52ZM262 419Q262 408 255 401T237 394Q226 394 219 401T212 419Q212 430 219 437T237 444Q247 444 254 437T262 419ZM141 419Q141 408 134 401T115 394Q105 394 98 401T91 419Q91 430 98 437T115 444Q126 444 133 437T141 419Z"  />
<glyph unicode="&#xFD;" horiz-adv-x="297" d="M153 -35Q135 -85 114 -111T48 -138Q31 -138 18 -135T-3 -126L4 -96Q13 -101 23 -105T50 -109Q64 -109 74 -104T94 -86T111 -55T130 -8L136 9L4 332H40L152 52L251 332H287L153 -35ZM129 383H88L154 448H208L129 383Z"  />
<glyph unicode="&#xFE;" horiz-adv-x="375" d="M336 169Q336 130 327 98T300 43T255 8T190 -5Q144 -5 119 6T83 25V-133H49V467H83V281Q87 288 96 298T121 317T157 332T206 338Q231 338 254 331T296 304T325 252T336 169ZM300 164Q300 231 279 269T201 307Q172 307 150 298T113 275T91 244T83 209V61Q87 57 96 51T119 40T148 31T183 27Q207 27 228 32T266 52T291 94T300 164Z"  />
<glyph unicode="&#xFF;" horiz-adv-x="297" d="M153 -35Q135 -85 114 -111T48 -138Q31 -138 18 -135T-3 -126L4 -96Q13 -101 23 -105T50 -109Q64 -109 74 -104T94 -86T111 -55T130 -8L136 9L4 332H40L152 52L251 332H287L153 -35ZM234 419Q234 408 227 401T209 394Q198 394 191 401T184 419Q184 430 191 437T209 444Q219 444 226 437T234 419ZM113 419Q113 408 106 401T87 394Q77 394 70 401T63 419Q63 430 70 437T87 444Q98 444 105 437T113 419Z"  />
<glyph unicode="&#x100;" horiz-adv-x="403" d="M349 0L307 120H96L53 0H17L183 467H221L386 0H349ZM202 417L106 150H296L202 417ZM115 539V569H289V539H115Z"  />
<glyph unicode="&#x101;" horiz-adv-x="328" d="M319 3Q298 -4 285 -4Q279 -4 273 -3T261 2T252 16T248 41V49Q239 34 226 24T198 7T168 -2T138 -5Q87 -5 59 20T31 91Q31 124 42 144T73 176T118 192T170 196Q190 196 209 195T248 192V233Q248 259 239 273T216 295T184 305T147 307Q125 307 103 302T54 288L61 321Q85 329 112 333T163 338Q193 338 215 333T253 313T275 276T283 215V43Q283 24 299 24Q304 24 313 27L319 3ZM248 164Q230 166 210 167T171 168Q149 168 130 166T97 157T75 136T67 99Q67 57 88 42T138 27Q168 27 188 35T222 58T242 89T248 125V164ZM77 402V432H251V402H77Z"  />
<glyph unicode="&#x102;" horiz-adv-x="403" d="M349 0L307 120H96L53 0H17L183 467H221L386 0H349ZM202 417L106 150H296L202 417ZM202 516Q166 516 145 535T120 586H150Q154 565 166 553T202 541Q225 541 237 553T254 586H284Q280 555 259 536T202 516Z"  />
<glyph unicode="&#x103;" horiz-adv-x="328" d="M319 3Q298 -4 285 -4Q279 -4 273 -3T261 2T252 16T248 41V49Q239 34 226 24T198 7T168 -2T138 -5Q87 -5 59 20T31 91Q31 124 42 144T73 176T118 192T170 196Q190 196 209 195T248 192V233Q248 259 239 273T216 295T184 305T147 307Q125 307 103 302T54 288L61 321Q85 329 112 333T163 338Q193 338 215 333T253 313T275 276T283 215V43Q283 24 299 24Q304 24 313 27L319 3ZM248 164Q230 166 210 167T171 168Q149 168 130 166T97 157T75 136T67 99Q67 57 88 42T138 27Q168 27 188 35T222 58T242 89T248 125V164ZM164 379Q128 379 107 398T82 449H112Q116 428 128 416T164 404Q187 404 199 416T216 449H246Q242 418 221 399T164 379Z"  />
<glyph unicode="&#x104;" horiz-adv-x="403" d="M411 -114Q406 -116 396 -117T381 -119Q346 -119 331 -102T316 -56Q316 -38 325 -24T349 0L307 120H96L53 0H17L183 467H221L386 0Q363 -12 356 -26T348 -57Q348 -72 358 -81T389 -91Q393 -91 401 -91T420 -86L411 -114ZM202 417L106 150H296L202 417Z"  />
<glyph unicode="&#x105;" horiz-adv-x="328" d="M310 0Q287 -10 276 -25T265 -57Q265 -72 275 -81T306 -91Q310 -91 318 -91T337 -86L328 -114Q323 -116 313 -117T298 -119Q263 -119 248 -102T233 -56Q233 -38 242 -24T265 0Q257 3 253 12T248 41V49Q239 34 226 24T198 7T168 -2T138 -5Q87 -5 59 20T31 91Q31 124 42 144T73 176T118 192T170 196Q190 196 209 195T248 192V233Q248 259 239 273T216 295T184 305T147 307Q125 307 103 302T54 288L61 321Q85 329 112 333T163 338Q193 338 215 333T253 313T275 276T283 215V43Q283 24 299 24Q304 24 313 27L319 3L310 0ZM248 164Q230 166 210 167T171 168Q149 168 130 166T97 157T75 136T67 99Q67 57 88 42T138 27Q168 27 188 35T222 58T242 89T248 125V164Z"  />
<glyph unicode="&#x106;" horiz-adv-x="392" d="M359 8Q339 1 310 -3T255 -7Q212 -7 173 7T105 51T58 124T40 227Q40 278 54 323T94 401T160 455T249 475Q298 475 326 467T365 453L359 420Q340 429 311 436T253 444Q219 444 187 432T131 392T92 323T77 223Q77 171 93 134T134 72T191 36T254 24Q280 24 308 28T365 44L359 8ZM237 520H196L262 585H316L237 520Z"  />
<glyph unicode="&#x107;" horiz-adv-x="315" d="M287 288Q268 294 245 299T196 305Q139 305 106 269T73 165Q73 116 88 89T124 48T167 31T205 28Q228 28 249 33T290 46L283 10Q270 4 246 0T199 -5Q174 -5 146 1T93 26T53 79T37 169Q37 204 46 235T75 289T124 325T194 338Q230 338 252 334T294 321L287 288ZM179 383H138L204 448H258L179 383Z"  />
<glyph unicode="&#x108;" horiz-adv-x="392" d="M359 8Q339 1 310 -3T255 -7Q212 -7 173 7T105 51T58 124T40 227Q40 278 54 323T94 401T160 455T249 475Q298 475 326 467T365 453L359 420Q340 429 311 436T253 444Q219 444 187 432T131 392T92 323T77 223Q77 171 93 134T134 72T191 36T254 24Q280 24 308 28T365 44L359 8ZM280 520L236 566L192 520H151L211 585H261L321 520H280Z"  />
<glyph unicode="&#x109;" horiz-adv-x="315" d="M287 288Q268 294 245 299T196 305Q139 305 106 269T73 165Q73 116 88 89T124 48T167 31T205 28Q228 28 249 33T290 46L283 10Q270 4 246 0T199 -5Q174 -5 146 1T93 26T53 79T37 169Q37 204 46 235T75 289T124 325T194 338Q230 338 252 334T294 321L287 288ZM232 383L188 429L144 383H103L163 448H213L273 383H232Z"  />
<glyph unicode="&#x10A;" horiz-adv-x="392" d="M359 8Q339 1 310 -3T255 -7Q212 -7 173 7T105 51T58 124T40 227Q40 278 54 323T94 401T160 455T249 475Q298 475 326 467T365 453L359 420Q340 429 311 436T253 444Q219 444 187 432T131 392T92 323T77 223Q77 171 93 134T134 72T191 36T254 24Q280 24 308 28T365 44L359 8ZM271 556Q271 545 264 538T245 531Q235 531 228 538T221 556Q221 567 228 574T245 581Q256 581 263 574T271 556Z"  />
<glyph unicode="&#x10B;" horiz-adv-x="315" d="M287 288Q268 294 245 299T196 305Q139 305 106 269T73 165Q73 116 88 89T124 48T167 31T205 28Q228 28 249 33T290 46L283 10Q270 4 246 0T199 -5Q174 -5 146 1T93 26T53 79T37 169Q37 204 46 235T75 289T124 325T194 338Q230 338 252 334T294 321L287 288ZM213 419Q213 408 206 401T187 394Q177 394 170 401T163 419Q163 430 170 437T187 444Q198 444 205 437T213 419Z"  />
<glyph unicode="&#x10C;" horiz-adv-x="392" d="M359 8Q339 1 310 -3T255 -7Q212 -7 173 7T105 51T58 124T40 227Q40 278 54 323T94 401T160 455T249 475Q298 475 326 467T365 453L359 420Q340 429 311 436T253 444Q219 444 187 432T131 392T92 323T77 223Q77 171 93 134T134 72T191 36T254 24Q280 24 308 28T365 44L359 8ZM202 585L246 539L290 585H331L271 520H221L161 585H202Z"  />
<glyph unicode="&#x10D;" horiz-adv-x="315" d="M287 288Q268 294 245 299T196 305Q139 305 106 269T73 165Q73 116 88 89T124 48T167 31T205 28Q228 28 249 33T290 46L283 10Q270 4 246 0T199 -5Q174 -5 146 1T93 26T53 79T37 169Q37 204 46 235T75 289T124 325T194 338Q230 338 252 334T294 321L287 288ZM152 448L196 402L240 448H281L221 383H171L111 448H152Z"  />
<glyph unicode="&#x10E;" horiz-adv-x="434" d="M391 233Q391 167 376 123T336 51T278 12T208 0H56V467H207Q303 467 347 406T391 233ZM355 233Q355 302 339 342T300 403T253 430T213 436H91V30H213Q229 30 253 36T300 63T339 124T355 233ZM143 585L187 539L231 585H272L212 520H162L102 585H143Z"  />
<glyph unicode="&#x10F;" horiz-adv-x="378" d="M297 289Q276 295 252 300T196 306Q172 306 151 301T114 281T89 239T80 169Q80 101 101 64T178 27Q207 27 229 35T267 58T289 89T297 125V289ZM367 3Q354 -2 346 -3T333 -4Q326 -4 320 -3T308 3T300 18T297 45V52Q292 44 282 34T257 16T220 1T173 -5Q148 -5 125 2T83 29T55 81T44 164Q44 203 52 235T79 290T124 325T189 338Q222 338 249 334T297 323V467H331V43Q331 24 347 24Q352 24 361 27L367 3ZM444 444Q444 421 427 401T390 369L381 389Q387 392 398 403T410 422Q410 429 401 435T392 455Q392 463 399 470T417 477Q428 477 436 468T444 444Z"  />
<glyph unicode="&#x110;" horiz-adv-x="443" d="M400 233Q400 167 385 123T345 51T287 12T217 0H65V216H1V246H65V467H216Q312 467 356 406T400 233ZM364 233Q364 302 348 342T309 403T262 430T222 436H100V246H173V216H100V30H222Q238 30 262 36T309 63T348 124T364 233Z"  />
<glyph unicode="&#x111;" horiz-adv-x="378" d="M367 3Q354 -2 346 -3T333 -4Q326 -4 320 -3T308 3T300 18T297 45V52Q292 44 282 34T257 16T220 1T173 -5Q148 -5 125 2T83 29T55 81T44 164Q44 203 52 235T79 290T124 325T189 338Q222 338 249 334T297 323V389H175V417H297V467H331V417H381V389H331V43Q331 24 347 24Q352 24 361 27L367 3ZM297 289Q276 295 252 300T196 306Q172 306 151 301T114 281T89 239T80 169Q80 101 101 64T178 27Q207 27 229 35T267 58T289 89T297 125V289Z"  />
<glyph unicode="&#x112;" horiz-adv-x="345" d="M307 0H56V467H312L307 436H91V248H286L281 218H91V31H312L307 0ZM96 539V569H270V539H96Z"  />
<glyph unicode="&#x113;" horiz-adv-x="362" d="M326 192Q326 176 325 168T324 157H75Q75 113 86 87T115 48T156 31T204 27Q265 27 317 50L310 15Q287 4 258 0T201 -5Q111 -5 75 37T39 162Q39 199 48 231T75 287T120 324T186 338Q222 338 248 327T292 297T317 250T326 192ZM292 185Q295 250 265 278T186 307Q153 307 132 295T98 264T80 224T75 185H292ZM99 402V432H273V402H99Z"  />
<glyph unicode="&#x114;" horiz-adv-x="345" d="M307 0H56V467H312L307 436H91V248H286L281 218H91V31H312L307 0ZM188 516Q152 516 131 535T106 586H136Q140 565 152 553T188 541Q211 541 223 553T240 586H270Q266 555 245 536T188 516Z"  />
<glyph unicode="&#x115;" horiz-adv-x="362" d="M326 192Q326 176 325 168T324 157H75Q75 113 86 87T115 48T156 31T204 27Q265 27 317 50L310 15Q287 4 258 0T201 -5Q111 -5 75 37T39 162Q39 199 48 231T75 287T120 324T186 338Q222 338 248 327T292 297T317 250T326 192ZM292 185Q295 250 265 278T186 307Q153 307 132 295T98 264T80 224T75 185H292ZM189 379Q153 379 132 398T107 449H137Q141 428 153 416T189 404Q212 404 224 416T241 449H271Q267 418 246 399T189 379Z"  />
<glyph unicode="&#x116;" horiz-adv-x="345" d="M307 0H56V467H312L307 436H91V248H286L281 218H91V31H312L307 0ZM208 556Q208 545 201 538T182 531Q172 531 165 538T158 556Q158 567 165 574T182 581Q193 581 200 574T208 556Z"  />
<glyph unicode="&#x117;" horiz-adv-x="362" d="M326 192Q326 176 325 168T324 157H75Q75 113 86 87T115 48T156 31T204 27Q265 27 317 50L310 15Q287 4 258 0T201 -5Q111 -5 75 37T39 162Q39 199 48 231T75 287T120 324T186 338Q222 338 248 327T292 297T317 250T326 192ZM292 185Q295 250 265 278T186 307Q153 307 132 295T98 264T80 224T75 185H292ZM211 419Q211 408 204 401T185 394Q175 394 168 401T161 419Q161 430 168 437T185 444Q196 444 203 437T211 419Z"  />
<glyph unicode="&#x118;" horiz-adv-x="345" d="M56 0V467H312L307 436H91V248H286L281 218H91V31H312L307 0H280Q257 -10 246 -25T235 -57Q235 -72 245 -81T276 -91Q280 -91 288 -91T307 -86L298 -114Q293 -116 283 -117T268 -119Q233 -119 218 -102T203 -56Q203 -38 212 -24T236 0H56Z"  />
<glyph unicode="&#x119;" horiz-adv-x="362" d="M295 -114Q290 -116 280 -117T265 -119Q230 -119 215 -102T200 -56Q200 -39 207 -26T227 -4Q220 -5 214 -5T201 -5Q111 -5 75 37T39 162Q39 199 48 231T75 287T120 324T186 338Q222 338 248 327T292 297T317 250T326 192Q326 176 325 168T324 157H75Q75 113 86 87T115 48T156 31T204 27Q265 27 317 50L310 15Q305 12 298 10T279 4Q256 -6 244 -23T232 -57Q232 -72 242 -81T273 -91Q277 -91 285 -91T304 -86L295 -114ZM292 185Q295 250 265 278T186 307Q153 307 132 295T98 264T80 224T75 185H292Z"  />
<glyph unicode="&#x11A;" horiz-adv-x="345" d="M307 0H56V467H312L307 436H91V248H286L281 218H91V31H312L307 0ZM139 585L183 539L227 585H268L208 520H158L98 585H139Z"  />
<glyph unicode="&#x11B;" horiz-adv-x="362" d="M326 192Q326 176 325 168T324 157H75Q75 113 86 87T115 48T156 31T204 27Q265 27 317 50L310 15Q287 4 258 0T201 -5Q111 -5 75 37T39 162Q39 199 48 231T75 287T120 324T186 338Q222 338 248 327T292 297T317 250T326 192ZM292 185Q295 250 265 278T186 307Q153 307 132 295T98 264T80 224T75 185H292ZM142 448L186 402L230 448H271L211 383H161L101 448H142Z"  />
<glyph unicode="&#x11C;" horiz-adv-x="443" d="M392 15Q378 9 343 1T257 -7Q214 -7 175 7T107 51T60 124T42 227Q42 278 56 323T96 401T162 455T251 475Q300 475 332 468T381 453L375 420Q355 428 322 436T255 444Q221 444 189 432T133 392T94 323T79 223Q79 156 102 117T155 57T215 30T256 24Q279 24 307 28T357 40V218H224L230 249H392V15ZM286 520L242 566L198 520H157L217 585H267L327 520H286Z"  />
<glyph unicode="&#x11D;" horiz-adv-x="375" d="M326 15Q326 -37 315 -67T282 -113T233 -133T172 -138Q101 -138 47 -109L53 -78Q80 -92 113 -100T175 -108Q203 -108 225 -104T262 -88T284 -55T292 1V56Q287 46 277 35T252 15T216 1T168 -5Q143 -5 120 2T78 29T50 81T39 164Q39 252 78 295T192 338Q244 338 274 332T326 319V15ZM292 294Q276 298 254 302T198 306Q175 306 153 303T114 285T86 244T75 169Q75 101 96 64T173 27Q202 27 224 35T262 58T284 89T292 125V294ZM237 383L193 429L149 383H108L168 448H218L278 383H237Z"  />
<glyph unicode="&#x11E;" horiz-adv-x="443" d="M392 15Q378 9 343 1T257 -7Q214 -7 175 7T107 51T60 124T42 227Q42 278 56 323T96 401T162 455T251 475Q300 475 332 468T381 453L375 420Q355 428 322 436T255 444Q221 444 189 432T133 392T94 323T79 223Q79 156 102 117T155 57T215 30T256 24Q279 24 307 28T357 40V218H224L230 249H392V15ZM247 516Q211 516 190 535T165 586H195Q199 565 211 553T247 541Q270 541 282 553T299 586H329Q325 555 304 536T247 516Z"  />
<glyph unicode="&#x11F;" horiz-adv-x="375" d="M326 15Q326 -37 315 -67T282 -113T233 -133T172 -138Q101 -138 47 -109L53 -78Q80 -92 113 -100T175 -108Q203 -108 225 -104T262 -88T284 -55T292 1V56Q287 46 277 35T252 15T216 1T168 -5Q143 -5 120 2T78 29T50 81T39 164Q39 252 78 295T192 338Q244 338 274 332T326 319V15ZM292 294Q276 298 254 302T198 306Q175 306 153 303T114 285T86 244T75 169Q75 101 96 64T173 27Q202 27 224 35T262 58T284 89T292 125V294ZM190 379Q154 379 133 398T108 449H138Q142 428 154 416T190 404Q213 404 225 416T242 449H272Q268 418 247 399T190 379Z"  />
<glyph unicode="&#x120;" horiz-adv-x="443" d="M392 15Q378 9 343 1T257 -7Q214 -7 175 7T107 51T60 124T42 227Q42 278 56 323T96 401T162 455T251 475Q300 475 332 468T381 453L375 420Q355 428 322 436T255 444Q221 444 189 432T133 392T94 323T79 223Q79 156 102 117T155 57T215 30T256 24Q279 24 307 28T357 40V218H224L230 249H392V15ZM277 556Q277 545 270 538T251 531Q241 531 234 538T227 556Q227 567 234 574T251 581Q262 581 269 574T277 556Z"  />
<glyph unicode="&#x121;" horiz-adv-x="375" d="M326 15Q326 -37 315 -67T282 -113T233 -133T172 -138Q101 -138 47 -109L53 -78Q80 -92 113 -100T175 -108Q203 -108 225 -104T262 -88T284 -55T292 1V56Q287 46 277 35T252 15T216 1T168 -5Q143 -5 120 2T78 29T50 81T39 164Q39 252 78 295T192 338Q244 338 274 332T326 319V15ZM292 294Q276 298 254 302T198 306Q175 306 153 303T114 285T86 244T75 169Q75 101 96 64T173 27Q202 27 224 35T262 58T284 89T292 125V294ZM220 419Q220 408 213 401T194 394Q184 394 177 401T170 419Q170 430 177 437T194 444Q205 444 212 437T220 419Z"  />
<glyph unicode="&#x122;" horiz-adv-x="443" d="M392 15Q378 9 343 1T257 -7Q214 -7 175 7T107 51T60 124T42 227Q42 278 56 323T96 401T162 455T251 475Q300 475 332 468T381 453L375 420Q355 428 322 436T255 444Q221 444 189 432T133 392T94 323T79 223Q79 156 102 117T155 57T215 30T256 24Q279 24 307 28T357 40V218H224L230 249H392V15ZM287 -76Q287 -99 270 -119T233 -151L224 -131Q230 -128 241 -117T253 -98Q253 -91 244 -85T235 -65Q235 -57 242 -50T260 -43Q271 -43 279 -52T287 -76Z"  />
<glyph unicode="&#x123;" horiz-adv-x="375" d="M326 15Q326 -37 315 -67T282 -113T233 -133T172 -138Q101 -138 47 -109L53 -78Q80 -92 113 -100T175 -108Q203 -108 225 -104T262 -88T284 -55T292 1V56Q287 46 277 35T252 15T216 1T168 -5Q143 -5 120 2T78 29T50 81T39 164Q39 252 78 295T192 338Q244 338 274 332T326 319V15ZM292 294Q276 298 254 302T198 306Q175 306 153 303T114 285T86 244T75 169Q75 101 96 64T173 27Q202 27 224 35T262 58T284 89T292 125V294ZM157 416Q157 439 174 459T211 491L220 471Q214 468 203 457T191 438Q191 431 200 425T209 405Q209 397 202 390T184 383Q173 383 165 392T157 416Z"  />
<glyph unicode="&#x124;" horiz-adv-x="435" d="M344 0V218H91V0H56V467H91V248H344V467H379V0H344ZM259 520L215 566L171 520H130L190 585H240L300 520H259Z"  />
<glyph unicode="&#x125;" horiz-adv-x="352" d="M273 222Q273 264 263 284T212 305Q191 305 170 298T131 280T100 259T83 244V0H49V467H83V280Q91 287 105 297T137 316T175 331T217 338Q243 338 260 332T288 313T303 278T307 224V43Q307 24 323 24Q328 24 337 27L343 3Q322 -4 309 -4Q303 -4 297 -3T285 2T277 16T273 42V222ZM110 520L66 566L22 520H-19L41 585H91L151 520H110Z"  />
<glyph unicode="&#x126;" horiz-adv-x="435" d="M344 0V218H91V0H56V348H-4V378H56V467H91V378H344V467H379V378H439V348H379V0H344ZM344 248V348H91V248H344Z"  />
<glyph unicode="&#x127;" horiz-adv-x="352" d="M273 222Q273 264 263 284T212 305Q191 305 170 298T131 280T100 259T83 244V0H49V389H-1V417H49V467H83V417H205V389H83V280Q91 287 105 297T137 316T175 331T217 338Q243 338 260 332T288 313T303 278T307 224V43Q307 24 323 24Q328 24 337 27L343 3Q322 -4 309 -4Q303 -4 297 -3T285 2T277 16T273 42V222Z"  />
<glyph unicode="&#x128;" horiz-adv-x="151" d="M58 0V467H93V0H58ZM171 585Q171 552 161 536T124 519Q115 519 101 524T73 535T46 547T27 552Q19 552 17 543T14 519H-21Q-21 549 -11 568T26 588Q36 588 49 583T76 572T102 560T122 555Q131 555 133 563T136 585H171Z"  />
<glyph unicode="&#x129;" horiz-adv-x="129" d="M48 332H82V43Q82 24 98 24Q103 24 112 27L118 3Q97 -4 84 -4Q67 -4 58 4T48 43V332ZM160 448Q160 415 150 399T113 382Q104 382 90 387T62 398T35 410T16 415Q8 415 6 406T3 382H-32Q-32 412 -22 431T15 451Q25 451 38 446T65 435T91 423T111 418Q120 418 122 426T125 448H160Z"  />
<glyph unicode="&#x12A;" horiz-adv-x="151" d="M58 0V467H93V0H58ZM-12 539V569H162V539H-12Z"  />
<glyph unicode="&#x12B;" horiz-adv-x="129" d="M48 332H82V43Q82 24 98 24Q103 24 112 27L118 3Q97 -4 84 -4Q67 -4 58 4T48 43V332ZM-23 402V432H151V402H-23Z"  />
<glyph unicode="&#x12C;" horiz-adv-x="151" d="M58 0V467H93V0H58ZM75 516Q39 516 18 535T-7 586H23Q27 565 39 553T75 541Q98 541 110 553T127 586H157Q153 555 132 536T75 516Z"  />
<glyph unicode="&#x12D;" horiz-adv-x="129" d="M48 332H82V43Q82 24 98 24Q103 24 112 27L118 3Q97 -4 84 -4Q67 -4 58 4T48 43V332ZM64 379Q28 379 7 398T-18 449H12Q16 428 28 416T64 404Q87 404 99 416T116 449H146Q142 418 121 399T64 379Z"  />
<glyph unicode="&#x12E;" horiz-adv-x="151" d="M93 0Q71 -12 64 -26T57 -57Q57 -72 67 -81T98 -91Q102 -91 110 -91T129 -86L120 -114Q115 -116 105 -117T90 -119Q55 -119 40 -102T25 -56Q25 -38 34 -24T58 0V467H93V0Z"  />
<glyph unicode="&#x12F;" horiz-adv-x="129" d="M48 332H82V43Q82 24 98 24Q103 24 112 27L118 3L109 0Q87 -10 77 -25T66 -57Q66 -72 76 -81T107 -91Q111 -91 119 -91T138 -86L129 -114Q124 -116 114 -117T99 -119Q64 -119 49 -102T34 -56Q34 -38 43 -24T65 -1Q57 3 53 13T48 43V332ZM91 439Q91 428 84 421T65 414Q55 414 48 421T41 439Q41 450 48 457T65 464Q76 464 83 457T91 439Z"  />
<glyph unicode="&#x130;" horiz-adv-x="151" d="M58 0V467H93V0H58ZM101 556Q101 545 94 538T75 531Q65 531 58 538T51 556Q51 567 58 574T75 581Q86 581 93 574T101 556Z"  />
<glyph unicode="&#x131;" horiz-adv-x="129" d="M48 332H82V43Q82 24 98 24Q103 24 112 27L118 3Q97 -4 84 -4Q67 -4 58 4T48 43V332Z"  />
<glyph unicode="&#x132;" horiz-adv-x="359" d="M58 0V467H93V0H58ZM305 111Q305 70 300 47T284 12T258 -3T221 -6Q210 -6 194 -4T167 0L161 31Q177 26 193 24T221 22Q233 22 242 24T257 33T267 57T270 101V436H185L195 467H305V111Z"  />
<glyph unicode="&#x133;" horiz-adv-x="246" d="M91 439Q91 428 84 421T65 414Q55 414 48 421T41 439Q41 450 48 457T65 464Q76 464 83 457T91 439ZM48 332H82V43Q82 24 98 24Q103 24 112 27L118 3Q97 -4 84 -4Q67 -4 58 4T48 43V332ZM206 439Q206 428 199 421T181 414Q170 414 163 421T156 439Q156 450 163 457T181 464Q191 464 198 457T206 439ZM198 -61Q198 -99 182 -118T125 -138Q106 -138 94 -135T73 -126L80 -97Q85 -100 95 -104T122 -108Q142 -108 153 -101T164 -61V332H198V-61Z"  />
<glyph unicode="&#x134;" horiz-adv-x="208" d="M154 111Q154 70 149 47T133 12T107 -3T70 -6Q59 -6 43 -4T16 0L10 31Q26 26 42 24T70 22Q82 22 91 24T106 33T116 57T119 101V436H34L44 467H154V111ZM148 520L104 566L60 520H19L79 585H129L189 520H148Z"  />
<glyph unicode="&#x135;" horiz-adv-x="117" d="M69 -61Q69 -99 53 -118T-4 -138Q-23 -138 -35 -135T-56 -126L-49 -97Q-44 -100 -34 -104T-7 -108Q13 -108 24 -101T35 -61V332H69V-61ZM95 383L51 429L7 383H-34L26 448H76L136 383H95Z"  />
<glyph unicode="&#x136;" horiz-adv-x="373" d="M326 0L186 265L91 141V0H56V467H91V189L302 467H343L209 294L364 0H326ZM222 -76Q222 -99 205 -119T168 -151L159 -131Q165 -128 176 -117T188 -98Q188 -91 179 -85T170 -65Q170 -57 177 -50T195 -43Q206 -43 214 -52T222 -76Z"  />
<glyph unicode="&#x137;" horiz-adv-x="302" d="M263 0L154 169L83 92V0H49V467H83V136L258 332H296L176 196L300 0H263ZM187 -76Q187 -99 170 -119T133 -151L124 -131Q130 -128 141 -117T153 -98Q153 -91 144 -85T135 -65Q135 -57 142 -50T160 -43Q171 -43 179 -52T187 -76Z"  />
<glyph unicode="&#x138;" horiz-adv-x="302" d="M83 336V136L258 332H296L176 196L300 0H263L154 169L83 92V0H49V336H83Z"  />
<glyph unicode="&#x139;" horiz-adv-x="311" d="M284 0H56V467H91V31H289L284 0ZM152 520H111L177 585H231L152 520Z"  />
<glyph unicode="&#x13A;" horiz-adv-x="131" d="M51 467H85V43Q85 24 101 24Q106 24 115 27L121 3Q100 -4 87 -4Q70 -4 61 4T51 43V467ZM67 520H26L92 585H146L67 520Z"  />
<glyph unicode="&#x13B;" horiz-adv-x="311" d="M284 0H56V467H91V31H289L284 0ZM201 -76Q201 -99 184 -119T147 -151L138 -131Q144 -128 155 -117T167 -98Q167 -91 158 -85T149 -65Q149 -57 156 -50T174 -43Q185 -43 193 -52T201 -76Z"  />
<glyph unicode="&#x13C;" horiz-adv-x="131" d="M51 467H85V43Q85 24 101 24Q106 24 115 27L121 3Q100 -4 87 -4Q70 -4 61 4T51 43V467ZM106 -76Q106 -99 89 -119T52 -151L43 -131Q49 -128 60 -117T72 -98Q72 -91 63 -85T54 -65Q54 -57 61 -50T79 -43Q90 -43 98 -52T106 -76Z"  />
<glyph unicode="&#x13D;" horiz-adv-x="311" d="M284 0H56V467H91V31H289L284 0ZM227 444Q227 421 210 401T173 369L164 389Q170 392 181 403T193 422Q193 429 184 435T175 455Q175 463 182 470T200 477Q211 477 219 468T227 444Z"  />
<glyph unicode="&#x13E;" horiz-adv-x="131" d="M51 467H85V43Q85 24 101 24Q106 24 115 27L121 3Q100 -4 87 -4Q70 -4 61 4T51 43V467ZM188 444Q188 421 171 401T134 369L125 389Q131 392 142 403T154 422Q154 429 145 435T136 455Q136 463 143 470T161 477Q172 477 180 468T188 444Z"  />
<glyph unicode="&#x13F;" horiz-adv-x="311" d="M284 0H56V467H91V31H289L284 0ZM254 233Q254 222 247 215T228 208Q218 208 211 215T204 233Q204 244 211 251T228 258Q239 258 246 251T254 233Z"  />
<glyph unicode="&#x140;" horiz-adv-x="184" d="M51 467H85V43Q85 24 101 24Q106 24 115 27L121 3Q100 -4 87 -4Q70 -4 61 4T51 43V467ZM185 233Q185 222 178 215T159 208Q149 208 142 215T135 233Q135 244 142 251T159 258Q170 258 177 251T185 233Z"  />
<glyph unicode="&#x141;" horiz-adv-x="324" d="M297 0H69V226L14 176V220L69 270V467H104V302L191 381V337L104 258V31H302L297 0Z"  />
<glyph unicode="&#x142;" horiz-adv-x="158" d="M101 254V43Q101 24 116 24Q121 24 130 27L137 3Q124 -2 116 -3T103 -4Q96 -4 90 -3T78 3T70 18T67 45V221L20 176V220L67 265V467H101V297L146 341V297L101 254Z"  />
<glyph unicode="&#x143;" horiz-adv-x="435" d="M349 0L91 395V0H56V467H86L344 73V467H379V0H349ZM209 520H168L234 585H288L209 520Z"  />
<glyph unicode="&#x144;" horiz-adv-x="352" d="M83 280Q91 287 105 297T137 316T175 331T217 338Q243 338 260 332T288 313T303 278T307 224V43Q307 24 323 24Q328 24 337 27L343 3Q322 -4 309 -4Q303 -4 297 -3T285 2T277 16T273 42V222Q273 264 263 284T212 305Q191 305 170 298T131 280T100 259T83 244V0H49V332H83V280ZM177 383H136L202 448H256L177 383Z"  />
<glyph unicode="&#x145;" horiz-adv-x="435" d="M349 0L91 395V0H56V467H86L344 73V467H379V0H349ZM250 -76Q250 -99 233 -119T196 -151L187 -131Q193 -128 204 -117T216 -98Q216 -91 207 -85T198 -65Q198 -57 205 -50T223 -43Q234 -43 242 -52T250 -76Z"  />
<glyph unicode="&#x146;" horiz-adv-x="352" d="M83 280Q91 287 105 297T137 316T175 331T217 338Q243 338 260 332T288 313T303 278T307 224V43Q307 24 323 24Q328 24 337 27L343 3Q322 -4 309 -4Q303 -4 297 -3T285 2T277 16T273 42V222Q273 264 263 284T212 305Q191 305 170 298T131 280T100 259T83 244V0H49V332H83V280ZM219 -76Q219 -99 202 -119T165 -151L156 -131Q162 -128 173 -117T185 -98Q185 -91 176 -85T167 -65Q167 -57 174 -50T192 -43Q203 -43 211 -52T219 -76Z"  />
<glyph unicode="&#x147;" horiz-adv-x="435" d="M349 0L91 395V0H56V467H86L344 73V467H379V0H349ZM174 585L218 539L262 585H303L243 520H193L133 585H174Z"  />
<glyph unicode="&#x148;" horiz-adv-x="352" d="M83 280Q91 287 105 297T137 316T175 331T217 338Q243 338 260 332T288 313T303 278T307 224V43Q307 24 323 24Q328 24 337 27L343 3Q322 -4 309 -4Q303 -4 297 -3T285 2T277 16T273 42V222Q273 264 263 284T212 305Q191 305 170 298T131 280T100 259T83 244V0H49V332H83V280ZM142 448L186 402L230 448H271L211 383H161L101 448H142Z"  />
<glyph unicode="&#x149;" horiz-adv-x="393" d="M124 280Q132 287 146 297T178 316T216 331T258 338Q284 338 301 332T329 313T344 278T348 224V43Q348 24 364 24Q369 24 378 27L384 3Q363 -4 350 -4Q344 -4 338 -3T326 2T318 16T314 42V222Q314 264 304 284T253 305Q232 305 211 298T172 280T141 259T124 244V0H90V332H124V280ZM55 467Q55 444 38 423T-6 384L-14 406Q-11 408 -6 412T5 422T14 432T18 443Q18 448 15 451T8 458T1 467T-2 480Q-2 490 5 497T26 505Q37 505 46 495T55 467Z"  />
<glyph unicode="&#x14A;" horiz-adv-x="435" d="M379 467V-21Q379 -62 374 -85T358 -120T332 -135T295 -138Q284 -138 268 -136T241 -132L235 -101Q251 -106 267 -108T295 -110Q307 -110 316 -108T331 -99T341 -75T344 -31V7L91 395V0H56V467H86L344 73V467H379Z"  />
<glyph unicode="&#x14B;" horiz-adv-x="352" d="M83 280Q91 287 105 297T137 316T175 331T217 338Q243 338 260 332T288 313T303 278T307 224V-61Q307 -99 291 -118T234 -138Q215 -138 203 -135T182 -126L189 -97Q194 -100 204 -104T231 -108Q251 -108 262 -101T273 -61V222Q273 264 263 284T212 305Q191 305 170 298T131 280T100 259T83 244V0H49V332H83V280Z"  />
<glyph unicode="&#x14C;" horiz-adv-x="461" d="M418 233Q418 164 402 118T359 44T299 5T231 -7Q197 -7 164 4T103 44T60 118T43 233Q43 303 59 349T103 424T163 463T231 475Q265 475 298 464T358 424T401 350T418 233ZM382 233Q382 297 368 338T331 402T283 435T231 444Q206 444 180 435T131 403T95 338T80 233Q80 169 94 129T131 65T179 33T231 24Q256 24 282 32T331 64T367 128T382 233ZM144 539V569H318V539H144Z"  />
<glyph unicode="&#x14D;" horiz-adv-x="379" d="M340 165Q340 114 327 81T293 29T245 3T189 -5Q160 -5 133 2T85 29T52 81T39 165Q39 216 51 249T85 302T133 330T189 338Q218 338 245 330T293 303T327 250T340 165ZM304 165Q304 209 294 237T268 280T231 301T189 307Q168 307 148 302T111 281T85 237T75 165Q75 121 85 94T111 52T147 32T189 27Q210 27 231 32T268 52T294 94T304 165ZM103 402V432H277V402H103Z"  />
<glyph unicode="&#x14E;" horiz-adv-x="461" d="M418 233Q418 164 402 118T359 44T299 5T231 -7Q197 -7 164 4T103 44T60 118T43 233Q43 303 59 349T103 424T163 463T231 475Q265 475 298 464T358 424T401 350T418 233ZM382 233Q382 297 368 338T331 402T283 435T231 444Q206 444 180 435T131 403T95 338T80 233Q80 169 94 129T131 65T179 33T231 24Q256 24 282 32T331 64T367 128T382 233ZM231 516Q195 516 174 535T149 586H179Q183 565 195 553T231 541Q254 541 266 553T283 586H313Q309 555 288 536T231 516Z"  />
<glyph unicode="&#x14F;" horiz-adv-x="379" d="M340 165Q340 114 327 81T293 29T245 3T189 -5Q160 -5 133 2T85 29T52 81T39 165Q39 216 51 249T85 302T133 330T189 338Q218 338 245 330T293 303T327 250T340 165ZM304 165Q304 209 294 237T268 280T231 301T189 307Q168 307 148 302T111 281T85 237T75 165Q75 121 85 94T111 52T147 32T189 27Q210 27 231 32T268 52T294 94T304 165ZM190 379Q154 379 133 398T108 449H138Q142 428 154 416T190 404Q213 404 225 416T242 449H272Q268 418 247 399T190 379Z"  />
<glyph unicode="&#x150;" horiz-adv-x="461" d="M418 233Q418 164 402 118T359 44T299 5T231 -7Q197 -7 164 4T103 44T60 118T43 233Q43 303 59 349T103 424T163 463T231 475Q265 475 298 464T358 424T401 350T418 233ZM382 233Q382 297 368 338T331 402T283 435T231 444Q206 444 180 435T131 403T95 338T80 233Q80 169 94 129T131 65T179 33T231 24Q256 24 282 32T331 64T367 128T382 233ZM274 520H233L299 585H353L274 520ZM169 520H128L194 585H248L169 520Z"  />
<glyph unicode="&#x151;" horiz-adv-x="379" d="M340 165Q340 114 327 81T293 29T245 3T189 -5Q160 -5 133 2T85 29T52 81T39 165Q39 216 51 249T85 302T133 330T189 338Q218 338 245 330T293 303T327 250T340 165ZM304 165Q304 209 294 237T268 280T231 301T189 307Q168 307 148 302T111 281T85 237T75 165Q75 121 85 94T111 52T147 32T189 27Q210 27 231 32T268 52T294 94T304 165ZM233 383H192L258 448H312L233 383ZM128 383H87L153 448H207L128 383Z"  />
<glyph unicode="&#x152;" horiz-adv-x="671" d="M633 0H382V78Q356 31 315 12T231 -7Q197 -7 164 4T103 44T60 118T43 233Q43 303 59 349T103 424T163 463T231 475Q274 475 315 456T382 389V467H638L633 436H417V248H612L607 218H417V31H638L633 0ZM382 233Q382 297 368 338T331 402T283 435T231 444Q206 444 180 435T131 403T95 338T80 233Q80 169 94 129T131 65T179 33T231 24Q256 24 283 32T332 64T368 128T382 233Z"  />
<glyph unicode="&#x153;" horiz-adv-x="627" d="M591 192Q591 176 590 168T589 157H340Q340 109 353 83T385 44T427 29T469 27Q482 27 497 28T527 32T557 39T582 50L575 15Q554 4 524 0T467 -5Q407 -5 373 14T321 69Q301 26 264 11T189 -5Q160 -5 133 2T85 29T52 81T39 165Q39 216 51 249T85 302T133 330T189 338Q230 338 266 321T323 258Q338 291 368 314T451 338Q487 338 513 327T557 297T583 250T591 192ZM557 185Q561 249 531 278T451 307Q418 307 397 295T363 263T345 223T340 185H557ZM304 165Q304 209 294 237T268 280T231 301T189 307Q168 307 148 302T111 281T85 237T75 165Q75 121 85 94T111 52T147 32T189 27Q210 27 231 32T268 52T294 94T304 165Z"  />
<glyph unicode="&#x154;" horiz-adv-x="391" d="M324 0L226 192Q221 191 210 191H91V0H56V467H210Q279 467 313 430T347 329Q347 278 326 245T261 198L363 0H324ZM311 329Q311 365 301 386T275 418T242 433T212 436H91V222H212Q225 222 242 225T274 239T300 271T311 329ZM167 520H126L192 585H246L167 520Z"  />
<glyph unicode="&#x155;" horiz-adv-x="240" d="M219 290Q209 296 196 300T164 305Q150 305 137 299T113 283T94 263T83 247V0H49V332H83V286Q96 306 117 322T168 338Q186 338 201 333T226 321L219 290ZM121 383H80L146 448H200L121 383Z"  />
<glyph unicode="&#x156;" horiz-adv-x="391" d="M324 0L226 192Q221 191 210 191H91V0H56V467H210Q279 467 313 430T347 329Q347 278 326 245T261 198L363 0H324ZM311 329Q311 365 301 386T275 418T242 433T212 436H91V222H212Q225 222 242 225T274 239T300 271T311 329ZM228 -76Q228 -99 211 -119T174 -151L165 -131Q171 -128 182 -117T194 -98Q194 -91 185 -85T176 -65Q176 -57 183 -50T201 -43Q212 -43 220 -52T228 -76Z"  />
<glyph unicode="&#x157;" horiz-adv-x="240" d="M219 290Q209 296 196 300T164 305Q150 305 137 299T113 283T94 263T83 247V0H49V332H83V286Q96 306 117 322T168 338Q186 338 201 333T226 321L219 290ZM96 -76Q96 -99 79 -119T42 -151L33 -131Q39 -128 50 -117T62 -98Q62 -91 53 -85T44 -65Q44 -57 51 -50T69 -43Q80 -43 88 -52T96 -76Z"  />
<glyph unicode="&#x158;" horiz-adv-x="391" d="M324 0L226 192Q221 191 210 191H91V0H56V467H210Q279 467 313 430T347 329Q347 278 326 245T261 198L363 0H324ZM311 329Q311 365 301 386T275 418T242 433T212 436H91V222H212Q225 222 242 225T274 239T300 271T311 329ZM142 585L186 539L230 585H271L211 520H161L101 585H142Z"  />
<glyph unicode="&#x159;" horiz-adv-x="240" d="M219 290Q209 296 196 300T164 305Q150 305 137 299T113 283T94 263T83 247V0H49V332H83V286Q96 306 117 322T168 338Q186 338 201 333T226 321L219 290ZM91 448L135 402L179 448H220L160 383H110L50 448H91Z"  />
<glyph unicode="&#x15A;" horiz-adv-x="332" d="M306 120Q306 53 264 23T154 -7Q113 -7 81 0T30 18L37 53Q57 42 86 33T154 24Q172 24 192 27T230 40T259 68T270 115Q270 144 253 164T208 201T151 233T93 266T49 307T31 363Q31 396 43 417T76 452T124 470T182 475Q209 475 238 468T290 450L283 419Q259 429 233 436T179 444Q158 444 138 441T102 430T77 406T67 364Q67 339 84 321T129 286T186 255T244 221T288 178T306 120ZM157 520H116L182 585H236L157 520Z"  />
<glyph unicode="&#x15B;" horiz-adv-x="298" d="M270 94Q270 51 237 23T140 -5Q101 -5 76 -1T36 10L44 45Q58 37 83 32T139 26Q154 26 171 28T202 38T226 59T235 94Q235 112 221 124T186 146T141 164T95 184T60 211T46 250Q46 275 55 291T81 318T119 333T164 338Q194 338 216 334T257 321L250 289Q233 297 210 302T161 307Q119 307 100 293T81 253Q81 236 95 225T130 204T175 186T221 165T256 136T270 94ZM150 383H109L175 448H229L150 383Z"  />
<glyph unicode="&#x15C;" horiz-adv-x="332" d="M306 120Q306 53 264 23T154 -7Q113 -7 81 0T30 18L37 53Q57 42 86 33T154 24Q172 24 192 27T230 40T259 68T270 115Q270 144 253 164T208 201T151 233T93 266T49 307T31 363Q31 396 43 417T76 452T124 470T182 475Q209 475 238 468T290 450L283 419Q259 429 233 436T179 444Q158 444 138 441T102 430T77 406T67 364Q67 339 84 321T129 286T186 255T244 221T288 178T306 120ZM212 520L168 566L124 520H83L143 585H193L253 520H212Z"  />
<glyph unicode="&#x15D;" horiz-adv-x="298" d="M270 94Q270 51 237 23T140 -5Q101 -5 76 -1T36 10L44 45Q58 37 83 32T139 26Q154 26 171 28T202 38T226 59T235 94Q235 112 221 124T186 146T141 164T95 184T60 211T46 250Q46 275 55 291T81 318T119 333T164 338Q194 338 216 334T257 321L250 289Q233 297 210 302T161 307Q119 307 100 293T81 253Q81 236 95 225T130 204T175 186T221 165T256 136T270 94ZM198 383L154 429L110 383H69L129 448H179L239 383H198Z"  />
<glyph unicode="&#x15E;" horiz-adv-x="332" d="M306 120Q306 53 264 23T154 -7Q113 -7 81 0T30 18L37 53Q57 42 86 33T154 24Q172 24 192 27T230 40T259 68T270 115Q270 144 253 164T208 201T151 233T93 266T49 307T31 363Q31 396 43 417T76 452T124 470T182 475Q209 475 238 468T290 450L283 419Q259 429 233 436T179 444Q158 444 138 441T102 430T77 406T67 364Q67 339 84 321T129 286T186 255T244 221T288 178T306 120ZM150 -130H110L160 -43H211L150 -130Z"  />
<glyph unicode="&#x15F;" horiz-adv-x="298" d="M270 94Q270 51 237 23T140 -5Q101 -5 76 -1T36 10L44 45Q58 37 83 32T139 26Q154 26 171 28T202 38T226 59T235 94Q235 112 221 124T186 146T141 164T95 184T60 211T46 250Q46 275 55 291T81 318T119 333T164 338Q194 338 216 334T257 321L250 289Q233 297 210 302T161 307Q119 307 100 293T81 253Q81 236 95 225T130 204T175 186T221 165T256 136T270 94ZM124 -130H84L134 -43H185L124 -130Z"  />
<glyph unicode="&#x160;" horiz-adv-x="332" d="M306 120Q306 53 264 23T154 -7Q113 -7 81 0T30 18L37 53Q57 42 86 33T154 24Q172 24 192 27T230 40T259 68T270 115Q270 144 253 164T208 201T151 233T93 266T49 307T31 363Q31 396 43 417T76 452T124 470T182 475Q209 475 238 468T290 450L283 419Q259 429 233 436T179 444Q158 444 138 441T102 430T77 406T67 364Q67 339 84 321T129 286T186 255T244 221T288 178T306 120ZM122 585L166 539L210 585H251L191 520H141L81 585H122Z"  />
<glyph unicode="&#x161;" horiz-adv-x="298" d="M270 94Q270 51 237 23T140 -5Q101 -5 76 -1T36 10L44 45Q58 37 83 32T139 26Q154 26 171 28T202 38T226 59T235 94Q235 112 221 124T186 146T141 164T95 184T60 211T46 250Q46 275 55 291T81 318T119 333T164 338Q194 338 216 334T257 321L250 289Q233 297 210 302T161 307Q119 307 100 293T81 253Q81 236 95 225T130 204T175 186T221 165T256 136T270 94ZM105 448L149 402L193 448H234L174 383H124L64 448H105Z"  />
<glyph unicode="&#x162;" horiz-adv-x="341" d="M312 436H190V0H155V436H32V467H317L312 436ZM200 -76Q200 -99 183 -119T146 -151L137 -131Q143 -128 154 -117T166 -98Q166 -91 157 -85T148 -65Q148 -57 155 -50T173 -43Q184 -43 192 -52T200 -76Z"  />
<glyph unicode="&#x163;" horiz-adv-x="201" d="M175 304H99V73Q99 44 107 35T135 26Q146 26 155 28T174 38L183 8Q163 -5 134 -5Q99 -5 82 11T65 72V304H14L20 332H65V433L99 442V332H175V304ZM137 -76Q137 -99 120 -119T83 -151L74 -131Q80 -128 91 -117T103 -98Q103 -91 94 -85T85 -65Q85 -57 92 -50T110 -43Q121 -43 129 -52T137 -76Z"  />
<glyph unicode="&#x164;" horiz-adv-x="341" d="M312 436H190V0H155V436H32V467H317L312 436ZM127 585L171 539L215 585H256L196 520H146L86 585H127Z"  />
<glyph unicode="&#x165;" horiz-adv-x="201" d="M175 304H99V73Q99 44 107 35T135 26Q146 26 155 28T174 38L183 8Q163 -5 134 -5Q99 -5 82 11T65 72V304H14L20 332H65V433L99 442V332H175V304ZM202 444Q202 421 185 401T148 369L139 389Q145 392 156 403T168 422Q168 429 159 435T150 455Q150 463 157 470T175 477Q186 477 194 468T202 444Z"  />
<glyph unicode="&#x166;" horiz-adv-x="341" d="M312 436H190V258H312V228H190V0H155V228H37V258H155V436H32V467H317L312 436Z"  />
<glyph unicode="&#x167;" horiz-adv-x="201" d="M175 304H99V189H175V161H99V73Q99 44 107 35T135 26Q146 26 155 28T174 38L183 8Q163 -5 134 -5Q99 -5 82 11T65 72V161H19V189H65V304H14L20 332H65V433L99 442V332H175V304Z"  />
<glyph unicode="&#x168;" horiz-adv-x="429" d="M376 155Q376 132 372 104T352 51T303 10T215 -7Q159 -7 127 9T79 51T58 104T53 155V467H88V155Q88 129 93 106T113 64T151 35T215 24Q254 24 278 35T317 64T336 105T341 155V467H376V155ZM311 585Q311 552 301 536T264 519Q255 519 241 524T213 535T186 547T167 552Q159 552 157 543T154 519H119Q119 549 129 568T166 588Q176 588 189 583T216 572T242 560T262 555Q271 555 273 563T276 585H311Z"  />
<glyph unicode="&#x169;" horiz-adv-x="353" d="M273 52Q265 44 251 35T218 16T180 1T139 -5Q94 -5 72 18T49 107V332H83V111Q83 69 93 49T144 28Q165 28 186 35T225 53T256 73T273 88V332H308V43Q308 24 324 24Q329 24 338 27L344 3Q323 -4 310 -4Q304 -4 298 -3T286 2T277 16T273 42V52ZM277 448Q277 415 267 399T230 382Q221 382 207 387T179 398T152 410T133 415Q125 415 123 406T120 382H85Q85 412 95 431T132 451Q142 451 155 446T182 435T208 423T228 418Q237 418 239 426T242 448H277Z"  />
<glyph unicode="&#x16A;" horiz-adv-x="429" d="M376 155Q376 132 372 104T352 51T303 10T215 -7Q159 -7 127 9T79 51T58 104T53 155V467H88V155Q88 129 93 106T113 64T151 35T215 24Q254 24 278 35T317 64T336 105T341 155V467H376V155ZM128 539V569H302V539H128Z"  />
<glyph unicode="&#x16B;" horiz-adv-x="353" d="M273 52Q265 44 251 35T218 16T180 1T139 -5Q94 -5 72 18T49 107V332H83V111Q83 69 93 49T144 28Q165 28 186 35T225 53T256 73T273 88V332H308V43Q308 24 324 24Q329 24 338 27L344 3Q323 -4 310 -4Q304 -4 298 -3T286 2T277 16T273 42V52ZM90 402V432H264V402H90Z"  />
<glyph unicode="&#x16C;" horiz-adv-x="429" d="M376 155Q376 132 372 104T352 51T303 10T215 -7Q159 -7 127 9T79 51T58 104T53 155V467H88V155Q88 129 93 106T113 64T151 35T215 24Q254 24 278 35T317 64T336 105T341 155V467H376V155ZM215 516Q179 516 158 535T133 586H163Q167 565 179 553T215 541Q238 541 250 553T267 586H297Q293 555 272 536T215 516Z"  />
<glyph unicode="&#x16D;" horiz-adv-x="353" d="M273 52Q265 44 251 35T218 16T180 1T139 -5Q94 -5 72 18T49 107V332H83V111Q83 69 93 49T144 28Q165 28 186 35T225 53T256 73T273 88V332H308V43Q308 24 324 24Q329 24 338 27L344 3Q323 -4 310 -4Q304 -4 298 -3T286 2T277 16T273 42V52ZM177 379Q141 379 120 398T95 449H125Q129 428 141 416T177 404Q200 404 212 416T229 449H259Q255 418 234 399T177 379Z"  />
<glyph unicode="&#x16E;" horiz-adv-x="429" d="M376 155Q376 132 372 104T352 51T303 10T215 -7Q159 -7 127 9T79 51T58 104T53 155V467H88V155Q88 129 93 106T113 64T151 35T215 24Q254 24 278 35T317 64T336 105T341 155V467H376V155ZM270 565Q270 542 254 526T215 509Q192 509 176 525T159 565Q159 588 176 604T216 621Q239 621 254 605T270 565ZM246 565Q246 578 237 587T215 596Q202 596 193 587T183 565Q183 552 192 543T215 534Q228 534 237 543T246 565Z"  />
<glyph unicode="&#x16F;" horiz-adv-x="353" d="M273 52Q265 44 251 35T218 16T180 1T139 -5Q94 -5 72 18T49 107V332H83V111Q83 69 93 49T144 28Q165 28 186 35T225 53T256 73T273 88V332H308V43Q308 24 324 24Q329 24 338 27L344 3Q323 -4 310 -4Q304 -4 298 -3T286 2T277 16T273 42V52ZM232 428Q232 405 216 389T177 372Q154 372 138 388T121 428Q121 451 138 467T178 484Q201 484 216 468T232 428ZM208 428Q208 441 199 450T177 459Q164 459 155 450T145 428Q145 415 154 406T177 397Q190 397 199 406T208 428Z"  />
<glyph unicode="&#x170;" horiz-adv-x="429" d="M376 155Q376 132 372 104T352 51T303 10T215 -7Q159 -7 127 9T79 51T58 104T53 155V467H88V155Q88 129 93 106T113 64T151 35T215 24Q254 24 278 35T317 64T336 105T341 155V467H376V155ZM258 520H217L283 585H337L258 520ZM153 520H112L178 585H232L153 520Z"  />
<glyph unicode="&#x171;" horiz-adv-x="353" d="M273 52Q265 44 251 35T218 16T180 1T139 -5Q94 -5 72 18T49 107V332H83V111Q83 69 93 49T144 28Q165 28 186 35T225 53T256 73T273 88V332H308V43Q308 24 324 24Q329 24 338 27L344 3Q323 -4 310 -4Q304 -4 298 -3T286 2T277 16T273 42V52ZM222 383H181L247 448H301L222 383ZM117 383H76L142 448H196L117 383Z"  />
<glyph unicode="&#x172;" horiz-adv-x="429" d="M376 155Q376 134 373 109T357 60T319 20T251 -4Q234 -15 225 -29T216 -57Q216 -72 226 -81T257 -91Q261 -91 269 -91T288 -86L279 -114Q274 -116 264 -117T249 -119Q214 -119 199 -102T184 -56Q184 -41 190 -29T208 -7Q154 -6 124 11T77 52T57 104T53 155V467H88V155Q88 129 93 106T113 64T151 35T215 24Q254 24 278 35T317 64T336 105T341 155V467H376V155Z"  />
<glyph unicode="&#x173;" horiz-adv-x="353" d="M289 0Q282 4 278 13T273 42V52Q265 44 251 35T218 16T180 1T139 -5Q94 -5 72 18T49 107V332H83V111Q83 69 93 49T144 28Q165 28 186 35T225 53T256 73T273 88V332H308V43Q308 24 324 24Q329 24 338 27L344 3L331 -1Q309 -11 299 -26T288 -57Q288 -72 298 -81T329 -91Q333 -91 341 -91T360 -86L351 -114Q346 -116 336 -117T321 -119Q286 -119 271 -102T256 -56Q256 -38 265 -24T289 0Z"  />
<glyph unicode="&#x174;" horiz-adv-x="581" d="M431 0H393L291 414L188 0H151L22 467H58L170 52L272 467H310L412 52L523 467H559L431 0ZM335 520L291 566L247 520H206L266 585H316L376 520H335Z"  />
<glyph unicode="&#x175;" horiz-adv-x="442" d="M334 0H301L222 292L143 0H109L14 332H47L126 42L204 332H239L316 42L395 332H428L334 0ZM265 383L221 429L177 383H136L196 448H246L306 383H265Z"  />
<glyph unicode="&#x176;" horiz-adv-x="378" d="M207 201V0H172V201L10 467H48L189 232L331 467H368L207 201ZM233 520L189 566L145 520H104L164 585H214L274 520H233Z"  />
<glyph unicode="&#x177;" horiz-adv-x="297" d="M153 -35Q135 -85 114 -111T48 -138Q31 -138 18 -135T-3 -126L4 -96Q13 -101 23 -105T50 -109Q64 -109 74 -104T94 -86T111 -55T130 -8L136 9L4 332H40L152 52L251 332H287L153 -35ZM193 383L149 429L105 383H64L124 448H174L234 383H193Z"  />
<glyph unicode="&#x178;" horiz-adv-x="378" d="M207 201V0H172V201L10 467H48L189 232L331 467H368L207 201ZM274 556Q274 545 267 538T249 531Q238 531 231 538T224 556Q224 567 231 574T249 581Q259 581 266 574T274 556ZM153 556Q153 545 146 538T127 531Q117 531 110 538T103 556Q103 567 110 574T127 581Q138 581 145 574T153 556Z"  />
<glyph unicode="&#x179;" horiz-adv-x="370" d="M33 0V20L278 436H47L52 467H324V447L78 31H329V0H33ZM176 520H135L201 585H255L176 520Z"  />
<glyph unicode="&#x17A;" horiz-adv-x="280" d="M36 0V17L209 304H38L44 332H259V315L81 28H262V0H36ZM141 383H100L166 448H220L141 383Z"  />
<glyph unicode="&#x17B;" horiz-adv-x="370" d="M33 0V20L278 436H47L52 467H324V447L78 31H329V0H33ZM213 556Q213 545 206 538T187 531Q177 531 170 538T163 556Q163 567 170 574T187 581Q198 581 205 574T213 556Z"  />
<glyph unicode="&#x17C;" horiz-adv-x="280" d="M36 0V17L209 304H38L44 332H259V315L81 28H262V0H36ZM175 419Q175 408 168 401T149 394Q139 394 132 401T125 419Q125 430 132 437T149 444Q160 444 167 437T175 419Z"  />
<glyph unicode="&#x17D;" horiz-adv-x="370" d="M33 0V20L278 436H47L52 467H324V447L78 31H329V0H33ZM141 585L185 539L229 585H270L210 520H160L100 585H141Z"  />
<glyph unicode="&#x17E;" horiz-adv-x="280" d="M36 0V17L209 304H38L44 332H259V315L81 28H262V0H36ZM96 448L140 402L184 448H225L165 383H115L55 448H96Z"  />
<glyph unicode="&#x192;" horiz-adv-x="249" d="M240 433Q229 438 219 441T192 445Q175 445 165 440T148 422T138 388T133 333L129 258H191V230H127L114 19Q109 -47 78 -87T-10 -128Q-17 -128 -20 -128T-29 -127L-24 -99Q18 -104 46 -74T79 19L93 230H46L51 258H95L99 328Q101 374 107 403T125 448T153 469T196 475Q210 475 222 472T246 463L240 433Z"  />
<glyph unicode="&#x1FC;" horiz-adv-x="581" d="M543 0H292V120H121L56 0H20L273 467H548L543 436H327V248H522L517 218H327V31H548L543 0ZM292 436L138 151H292V436ZM362 520H321L387 585H441L362 520Z"  />
<glyph unicode="&#x1FD;" horiz-adv-x="571" d="M535 192Q535 176 534 168T533 157H284Q284 113 295 87T324 48T364 31T407 27Q475 27 526 50L519 15Q498 5 468 0T411 -5Q352 -5 318 12T266 65Q261 56 252 44T227 21T189 3T138 -5Q87 -5 59 20T31 91Q31 122 41 141T69 170T111 184T162 188Q180 188 203 187T248 185V226Q248 252 239 268T216 292T184 304T147 307Q124 307 102 302T54 288L61 321Q88 331 112 334T163 338Q202 338 231 325T274 274Q291 302 319 320T395 338Q431 338 457 327T501 297T527 250T535 192ZM501 185Q505 249 475 278T395 307Q362 307 341 295T307 263T289 223T284 185H501ZM248 157Q225 159 205 159T161 160Q139 160 122 159T92 151T74 131T67 94Q67 56 88 42T138 27Q168 27 188 35T222 58T242 89T248 125V157ZM267 383H226L292 448H346L267 383Z"  />
<glyph unicode="&#x1FE;" horiz-adv-x="461" d="M418 233Q418 164 402 118T359 44T299 5T231 -7Q205 -7 181 -1T134 19L108 -29H75L110 37Q81 64 62 111T43 233Q43 303 59 349T103 424T163 463T231 475Q256 475 280 470T327 450L352 498H386L351 431Q381 404 399 356T418 233ZM382 233Q382 295 369 335T334 399L150 48Q170 34 190 29T231 24Q255 24 282 32T331 64T367 128T382 233ZM311 420Q292 434 272 439T231 444Q206 444 180 435T131 403T95 338T80 233Q80 172 93 132T127 69L311 420ZM222 520H181L247 585H301L222 520Z"  />
<glyph unicode="&#x1FF;" horiz-adv-x="379" d="M340 165Q340 114 327 81T293 29T245 3T189 -5Q154 -5 123 6L105 -29H72L97 20Q71 37 55 72T39 165Q39 216 51 249T85 302T133 330T189 338Q207 338 224 336T258 325L274 356H307L283 311Q309 292 324 257T340 165ZM304 165Q304 210 294 237T268 281L138 35Q150 30 163 29T189 27Q210 27 231 32T268 52T294 94T304 165ZM243 297Q219 307 189 307Q168 307 148 302T111 281T85 237T75 165Q75 119 85 92T113 50L243 297ZM181 383H140L206 448H260L181 383Z"  />
<glyph unicode="&#x218;" horiz-adv-x="332" d="M306 120Q306 53 264 23T154 -7Q113 -7 81 0T30 18L37 53Q57 42 86 33T154 24Q172 24 192 27T230 40T259 68T270 115Q270 144 253 164T208 201T151 233T93 266T49 307T31 363Q31 396 43 417T76 452T124 470T182 475Q209 475 238 468T290 450L283 419Q259 429 233 436T179 444Q158 444 138 441T102 430T77 406T67 364Q67 339 84 321T129 286T186 255T244 221T288 178T306 120ZM195 -76Q195 -99 178 -119T141 -151L132 -131Q138 -128 149 -117T161 -98Q161 -91 152 -85T143 -65Q143 -57 150 -50T168 -43Q179 -43 187 -52T195 -76Z"  />
<glyph unicode="&#x219;" horiz-adv-x="298" d="M270 94Q270 51 237 23T140 -5Q101 -5 76 -1T36 10L44 45Q58 37 83 32T139 26Q154 26 171 28T202 38T226 59T235 94Q235 112 221 124T186 146T141 164T95 184T60 211T46 250Q46 275 55 291T81 318T119 333T164 338Q194 338 216 334T257 321L250 289Q233 297 210 302T161 307Q119 307 100 293T81 253Q81 236 95 225T130 204T175 186T221 165T256 136T270 94ZM178 -76Q178 -99 161 -119T124 -151L115 -131Q121 -128 132 -117T144 -98Q144 -91 135 -85T126 -65Q126 -57 133 -50T151 -43Q162 -43 170 -52T178 -76Z"  />
<glyph unicode="&#x21A;" horiz-adv-x="341" d="M312 436H190V0H155V436H32V467H317L312 436ZM200 -76Q200 -99 183 -119T146 -151L137 -131Q143 -128 154 -117T166 -98Q166 -91 157 -85T148 -65Q148 -57 155 -50T173 -43Q184 -43 192 -52T200 -76Z"  />
<glyph unicode="&#x21B;" horiz-adv-x="201" d="M175 304H99V73Q99 44 107 35T135 26Q146 26 155 28T174 38L183 8Q163 -5 134 -5Q99 -5 82 11T65 72V304H14L20 332H65V433L99 442V332H175V304ZM137 -76Q137 -99 120 -119T83 -151L74 -131Q80 -128 91 -117T103 -98Q103 -91 94 -85T85 -65Q85 -57 92 -50T110 -43Q121 -43 129 -52T137 -76Z"  />
<glyph unicode="&#x2C6;" horiz-adv-x="170" d="M129 383L85 429L41 383H0L60 448H110L170 383H129Z"  />
<glyph unicode="&#x2C7;" horiz-adv-x="170" d="M41 448L85 402L129 448H170L110 383H60L0 448H41Z"  />
<glyph unicode="&#x2C9;" horiz-adv-x="174" d="M0 402V432H174V402H0Z"  />
<glyph unicode="&#x2D8;" horiz-adv-x="164" d="M82 379Q46 379 25 398T0 449H30Q34 428 46 416T82 404Q105 404 117 416T134 449H164Q160 418 139 399T82 379Z"  />
<glyph unicode="&#x2D9;" horiz-adv-x="50" d="M50 419Q50 408 43 401T24 394Q14 394 7 401T0 419Q0 430 7 437T24 444Q35 444 42 437T50 419Z"  />
<glyph unicode="&#x2DA;" horiz-adv-x="111" d="M111 428Q111 405 95 389T56 372Q33 372 17 388T0 428Q0 451 17 467T57 484Q80 484 95 468T111 428ZM87 428Q87 441 78 450T56 459Q43 459 34 450T24 428Q24 415 33 406T56 397Q69 397 78 406T87 428Z"  />
<glyph unicode="&#x2DB;" horiz-adv-x="94" d="M73 0Q50 -10 39 -25T28 -57Q28 -72 38 -81T69 -91Q73 -91 81 -91T100 -86L91 -114Q86 -116 76 -117T61 -119Q26 -119 11 -102T-4 -56Q-4 -38 5 -24T29 0H73Z"  />
<glyph unicode="&#x2DC;" horiz-adv-x="192" d="M192 448Q192 415 182 399T145 382Q136 382 122 387T94 398T67 410T48 415Q40 415 38 406T35 382H0Q0 412 10 431T47 451Q57 451 70 446T97 435T123 423T143 418Q152 418 154 426T157 448H192Z"  />
<glyph unicode="&#x2DD;" horiz-adv-x="225" d="M146 383H105L171 448H225L146 383ZM41 383H0L66 448H120L41 383Z"  />
<glyph unicode="&#x3A9;" horiz-adv-x="469" d="M289 0V30Q305 45 324 65T359 114T385 179T396 264Q396 307 386 344T355 409T305 451T235 467Q198 467 168 452T116 409T83 345T71 265Q71 219 81 183T106 118T141 68T179 30V0H36V30H139Q123 43 105 64T72 114T46 181T35 266Q35 315 49 357T90 431T154 480T236 498Q282 498 318 482T379 435T417 362T431 268Q431 226 422 189T398 122T365 69T328 30H432V0H289Z"  />
<glyph unicode="&#x3BC;" horiz-adv-x="380" d="M49 -133V332H83V111Q83 69 93 49T144 28Q165 28 186 35T225 53T256 73T273 88V332H308V43Q308 24 324 24Q329 24 338 27L344 3Q323 -4 310 -4Q304 -4 298 -3T286 2T277 16T273 42V52Q265 44 251 35T218 16T180 1T139 -5Q103 -5 83 8V-133H49Z"  />
<glyph unicode="&#x3C0;" horiz-adv-x="412" d="M383 3Q376 -1 367 -2T348 -4Q309 -4 292 20T275 79V320H133V89Q133 63 131 40T124 0H89Q94 19 96 43T98 89V320Q84 320 64 316T30 306L19 334Q30 339 52 344T106 350H383V320H310V81Q310 56 320 41T355 26Q363 26 375 31L383 3Z"  />
<glyph unicode="&#x60C;" horiz-adv-x="109" d="M20 33Q20 59 39 81T80 116L89 94Q86 92 81 88T70 78T61 67T57 57Q57 53 60 50T67 42T74 33T77 20Q77 11 70 4T49 -4Q37 -4 29 6T20 33Z"  />
<glyph unicode="&#x61B;" horiz-adv-x="109" d="M22 22Q22 33 30 41T49 50Q60 50 67 42T75 22Q75 11 68 4T49 -4Q38 -4 30 3T22 22ZM20 257Q20 283 39 305T80 340L89 318Q86 316 81 312T70 302T61 291T57 281Q57 277 60 274T67 266T74 257T77 244Q77 235 70 228T49 220Q37 220 29 230T20 257Z"  />
<glyph unicode="&#x61F;" horiz-adv-x="272" d="M225 175H192V258H155Q129 258 109 267T76 290T55 322T47 361Q47 405 76 436T152 467H225V433H152Q134 433 121 427T98 410T85 387T80 362Q80 335 99 313T152 291H225V175ZM230 22Q230 13 224 7T208 0Q199 0 192 6T185 22Q185 31 192 38T208 45Q217 45 223 38T230 22Z"  />
<glyph unicode="&#x621;" horiz-adv-x="374" d="M328 30Q265 9 207 -24T92 -96L75 -68Q104 -46 134 -27T197 8Q165 11 138 25T90 61T59 113T47 176Q47 208 58 237T90 288T141 324T211 337Q223 337 237 337T264 334V301Q253 303 239 303T214 304Q151 304 116 268T81 178Q81 145 93 119T125 75T171 48T225 38Q253 38 278 46T328 66V30Z"  />
<glyph unicode="&#x622;" arabic-form="terminal" horiz-adv-x="115" d="M80 467V83Q80 60 91 47T120 34V0Q86 0 67 24T47 84V467H80ZM106 551Q99 542 90 542Q84 542 77 546T62 554T48 563T39 567Q34 567 28 561L14 546L2 558L18 575Q27 586 36 586Q41 586 48 582T62 573T76 564T86 560Q91 560 97 566L112 582L124 570L106 551Z"  />
<glyph unicode="&#x622;" arabic-form="isolated" horiz-adv-x="127" d="M80 0L47 -19V467H80V0ZM106 551Q99 542 90 542Q84 542 77 546T62 554T48 563T39 567Q34 567 28 561L14 546L2 558L18 575Q27 586 36 586Q41 586 48 582T62 573T76 564T86 560Q91 560 97 566L112 582L124 570L106 551Z"  />
<glyph unicode="&#x623;" arabic-form="terminal" horiz-adv-x="115" d="M80 467V83Q80 60 91 47T120 34V0Q86 0 67 24T47 84V467H80ZM100 643H83Q69 643 59 636T48 613Q48 596 58 590T81 583H119V564H6V583H38Q32 589 30 597T27 614Q27 631 39 646T77 662H100V643Z"  />
<glyph unicode="&#x623;" arabic-form="isolated" horiz-adv-x="127" d="M80 0L47 -19V467H80V0ZM100 643H83Q69 643 59 636T48 613Q48 596 58 590T81 583H119V564H6V583H38Q32 589 30 597T27 614Q27 631 39 646T77 662H100V643Z"  />
<glyph unicode="&#x624;" arabic-form="terminal" horiz-adv-x="303" d="M146 0Q92 0 70 27T47 94V237Q47 288 74 310T146 332H267V33H307V0H267V-36Q267 -81 252 -108T215 -150T168 -170T122 -175Q118 -175 114 -175T106 -174L84 -142Q91 -144 99 -144T114 -144Q136 -144 157 -140T196 -123T223 -91T234 -39V0H146ZM234 299H138Q106 299 93 283T80 238V93Q80 67 94 50T138 33H234V299ZM186 519H169Q155 519 145 512T134 489Q134 472 144 466T167 459H205V440H92V459H124Q118 465 116 473T113 490Q113 507 125 522T163 538H186V519Z"  />
<glyph unicode="&#x624;" arabic-form="isolated" horiz-adv-x="314" d="M146 0Q92 0 70 27T47 94V237Q47 288 74 310T146 332H267V-36Q267 -81 252 -108T215 -150T168 -170T122 -175Q118 -175 114 -175T106 -174L84 -142Q91 -144 99 -144T114 -144Q136 -144 157 -140T196 -123T223 -91T234 -39V0H146ZM234 299H138Q106 299 93 283T80 238V93Q80 67 94 50T138 33H234V299ZM186 519H169Q155 519 145 512T134 489Q134 472 144 466T167 459H205V440H92V459H124Q118 465 116 473T113 490Q113 507 125 522T163 538H186V519Z"  />
<glyph unicode="&#x625;" arabic-form="terminal" horiz-adv-x="115" d="M101 -96H84Q70 -96 60 -103T49 -126Q49 -143 59 -149T82 -156H120V-175H7V-156H39Q33 -150 31 -142T28 -125Q28 -108 40 -93T78 -77H101V-96ZM80 467V83Q80 60 91 47T120 34V0Q86 0 67 24T47 84V467H80Z"  />
<glyph unicode="&#x625;" arabic-form="isolated" horiz-adv-x="127" d="M80 0H47V467H80V0ZM99 -97H83Q69 -97 59 -103T48 -126Q48 -143 58 -149T81 -156H119V-175H6V-156H38Q27 -145 27 -125Q27 -109 39 -93T77 -77H99V-97Z"  />
<glyph unicode="&#x626;" arabic-form="initial" horiz-adv-x="197" d="M53 33Q90 33 104 49T118 97V332H151V99Q151 51 127 26T52 0H0V33H53ZM132 519H115Q101 519 91 512T80 489Q80 472 90 466T113 459H151V440H38V459H70Q64 465 62 473T59 490Q59 507 71 522T109 538H132V519Z"  />
<glyph unicode="&#x626;" arabic-form="medial" horiz-adv-x="186" d="M0 33H118V332H151V33H190V0H0V33ZM132 519H115Q101 519 91 512T80 489Q80 472 90 466T113 459H151V440H38V459H70Q64 465 62 473T59 490Q59 507 71 522T109 538H132V519Z"  />
<glyph unicode="&#x626;" arabic-form="terminal" horiz-adv-x="477" d="M332 0V33H482V0H442V-27Q442 -73 422 -102T371 -148T307 -171T244 -178Q213 -178 179 -172T115 -149T66 -103T47 -28V160L80 183V-28Q80 -66 97 -89T140 -124T194 -140T244 -144Q272 -144 301 -138T355 -119T394 -83T409 -27V0H332ZM106 359H89Q75 359 65 352T54 329Q54 312 64 306T87 299H125V280H12V299H44Q38 305 36 313T33 330Q33 347 45 362T83 378H106V359Z"  />
<glyph unicode="&#x626;" arabic-form="isolated" horiz-adv-x="489" d="M442 -27Q442 -73 422 -102T371 -148T307 -171T244 -178Q213 -178 179 -172T115 -149T66 -103T47 -28V160L80 183V-28Q80 -66 97 -89T140 -124T194 -140T244 -144Q272 -144 301 -138T355 -119T394 -83T409 -27V0H320Q269 0 245 26T221 98V234Q221 280 245 306T320 332H442V299H314Q282 299 268 281T254 234V97Q254 63 270 48T314 33H442V-27ZM105 359H90Q77 359 65 353T53 329Q53 311 64 305T91 299H125V280H11V299H43Q31 314 31 330Q31 352 46 365T82 378H105V359Z"  />
<glyph unicode="&#x627;" arabic-form="terminal" horiz-adv-x="115" d="M80 467V83Q80 60 91 47T120 34V0Q86 0 67 24T47 84V467H80Z"  />
<glyph unicode="&#x627;" arabic-form="isolated" horiz-adv-x="127" d="M80 0L47 -19V467H80V0Z"  />
<glyph unicode="&#x628;" arabic-form="initial" horiz-adv-x="197" d="M150 -153Q150 -162 144 -168T129 -175Q120 -175 113 -169T106 -153Q106 -144 113 -137T129 -130Q138 -130 144 -137T150 -153ZM53 33Q90 33 104 49T118 97V332H151V99Q151 51 127 26T52 0H0V33H53Z"  />
<glyph unicode="&#x628;" arabic-form="medial" horiz-adv-x="186" d="M0 33H118V332H151V33H190V0H0V33ZM156 -153Q156 -162 150 -168T134 -175Q125 -175 119 -169T112 -153Q112 -144 118 -137T134 -130Q143 -130 149 -137T156 -153Z"  />
<glyph unicode="&#x628;" arabic-form="terminal" horiz-adv-x="589" d="M331 -153Q331 -162 325 -168T309 -175Q300 -175 294 -169T287 -153Q287 -144 293 -137T309 -130Q318 -130 324 -137T331 -153ZM521 332H554V33H594V0H141Q90 0 69 26T47 98V224L80 246V96Q80 61 96 47T145 33H521V332Z"  />
<glyph unicode="&#x628;" arabic-form="isolated" horiz-adv-x="601" d="M80 246V96Q80 61 96 47T145 33H456Q494 33 507 49T521 97V332H554V98Q554 46 528 23T454 0H141Q90 0 69 26T47 98V224L80 246ZM331 -153Q331 -162 325 -168T309 -175Q300 -175 294 -169T287 -153Q287 -144 293 -137T309 -130Q318 -130 324 -137T331 -153Z"  />
<glyph unicode="&#x629;" arabic-form="terminal" horiz-adv-x="303" d="M142 461Q142 452 136 446T120 440Q111 440 104 446T97 461Q97 471 104 477T120 484Q129 484 135 478T142 461ZM218 461Q218 452 212 446T197 440Q187 440 181 446T174 461Q174 471 180 477T197 484Q206 484 212 478T218 461ZM144 0Q91 0 69 27T47 95V237Q47 289 75 310T147 332H267V33H307V0H234V20L209 0H144ZM234 299H142Q107 299 94 282T80 235V94Q80 33 141 33H234V299Z"  />
<glyph unicode="&#x629;" arabic-form="isolated" horiz-adv-x="314" d="M138 299Q107 299 94 282T80 237V101Q80 80 87 67T105 46T129 37T157 34Q172 34 186 37T210 47T227 68T234 101V299H138ZM267 91Q267 65 257 48T231 20T196 5T157 0Q137 0 118 4T82 19T57 47T47 91V239Q47 286 74 309T146 332H267V91ZM142 461Q142 452 136 446T120 440Q111 440 104 446T97 461Q97 471 104 477T120 484Q129 484 135 478T142 461ZM218 461Q218 452 212 446T197 440Q187 440 181 446T174 461Q174 471 180 477T197 484Q206 484 212 478T218 461Z"  />
<glyph unicode="&#x62A;" arabic-form="initial" horiz-adv-x="197" d="M80 461Q80 452 73 446T57 440Q48 440 42 446T35 461Q35 471 41 477T57 484Q66 484 73 478T80 461ZM156 461Q156 452 150 446T134 440Q125 440 119 446T112 461Q112 471 118 477T134 484Q143 484 149 478T156 461ZM53 33Q90 33 104 49T118 97V332H151V99Q151 51 127 26T52 0H0V33H53Z"  />
<glyph unicode="&#x62A;" arabic-form="medial" horiz-adv-x="186" d="M0 33H118V332H151V33H190V0H0V33ZM80 461Q80 452 73 446T57 440Q48 440 42 446T35 461Q35 471 41 477T57 484Q66 484 73 478T80 461ZM156 461Q156 452 150 446T134 440Q125 440 119 446T112 461Q112 471 118 477T134 484Q143 484 149 478T156 461Z"  />
<glyph unicode="&#x62A;" arabic-form="terminal" horiz-adv-x="589" d="M293 461Q293 452 287 446T270 440Q261 440 255 446T248 461Q248 471 254 477T270 484Q280 484 286 478T293 461ZM369 461Q369 452 363 446T347 440Q338 440 332 446T325 461Q325 471 331 477T347 484Q356 484 362 478T369 461ZM521 332H554V33H594V0H141Q90 0 69 26T47 98V224L80 246V96Q80 61 96 47T145 33H521V332Z"  />
<glyph unicode="&#x62A;" arabic-form="isolated" horiz-adv-x="601" d="M293 461Q293 452 287 446T270 440Q261 440 255 446T248 461Q248 471 254 477T270 484Q280 484 286 478T293 461ZM369 461Q369 452 363 446T347 440Q338 440 332 446T325 461Q325 471 331 477T347 484Q356 484 362 478T369 461ZM80 246V96Q80 61 96 47T145 33H456Q494 33 507 49T521 97V332H554V98Q554 46 528 23T454 0H141Q90 0 69 26T47 98V224L80 246Z"  />
<glyph unicode="&#x62B;" arabic-form="initial" horiz-adv-x="203" d="M80 461Q80 452 73 446T57 440Q48 440 42 446T35 461Q35 471 41 477T57 484Q66 484 73 478T80 461ZM156 461Q156 452 150 446T134 440Q125 440 119 446T112 461Q112 470 118 477T134 484Q143 484 149 478T156 461ZM113 527Q113 520 109 515T96 510Q88 510 83 515T78 527Q78 535 83 540T96 545Q104 545 108 540T113 527ZM53 33Q90 33 104 49T118 97V332H151V99Q151 51 127 26T52 0H0V33H53Z"  />
<glyph unicode="&#x62B;" arabic-form="medial" horiz-adv-x="186" d="M80 461Q80 452 73 446T57 440Q48 440 42 446T35 461Q35 471 41 477T57 484Q66 484 73 478T80 461ZM156 461Q156 452 150 446T134 440Q125 440 119 446T112 461Q112 471 118 477T134 484Q143 484 149 478T156 461ZM113 527Q113 520 109 515T96 510Q88 510 83 515T78 527Q78 535 83 540T96 545Q104 545 108 540T113 527ZM0 33H118V332H151V33H190V0H0V33Z"  />
<glyph unicode="&#x62B;" arabic-form="terminal" horiz-adv-x="589" d="M293 461Q293 452 287 446T270 440Q261 440 255 446T248 461Q248 471 254 477T270 484Q280 484 286 478T293 461ZM369 461Q369 452 363 446T347 440Q338 440 332 446T325 461Q325 471 331 477T347 484Q356 484 362 478T369 461ZM326 527Q326 520 321 515T309 510Q302 510 297 515T291 527Q291 535 296 540T309 545Q316 545 321 540T326 527ZM521 332H554V33H594V0H141Q90 0 69 26T47 98V224L80 246V96Q80 61 96 47T145 33H521V332Z"  />
<glyph unicode="&#x62B;" arabic-form="isolated" horiz-adv-x="601" d="M293 461Q293 452 287 446T270 440Q261 440 255 446T248 461Q248 471 254 477T270 484Q280 484 286 478T293 461ZM369 461Q369 452 363 446T347 440Q338 440 332 446T325 461Q325 471 331 477T347 484Q356 484 362 478T369 461ZM326 527Q326 520 321 515T309 510Q302 510 297 515T291 527Q291 535 296 540T309 545Q316 545 321 540T326 527ZM80 246V96Q80 61 96 47T145 33H456Q494 33 507 49T521 97V332H554V98Q554 46 528 23T454 0H141Q90 0 69 26T47 98V224L80 246Z"  />
<glyph unicode="&#x62C;" arabic-form="initial" horiz-adv-x="343" d="M190 -153Q190 -162 184 -168T168 -175Q158 -175 152 -169T146 -153Q146 -144 152 -137T168 -130Q177 -130 183 -137T190 -153ZM0 33H201Q234 33 248 49T263 94V238Q263 270 245 284T201 299H75V332H197Q248 332 272 306T296 238V95Q296 46 270 23T195 0H0V33Z"  />
<glyph unicode="&#x62C;" arabic-form="medial" horiz-adv-x="332" d="M190 -153Q190 -162 184 -168T168 -175Q158 -175 152 -169T146 -153Q146 -144 152 -137T168 -130Q177 -130 183 -137T190 -153ZM263 238Q263 270 245 284T201 299H75V332H197Q248 332 272 306T296 238V33H336V0H0V33H263V238Z"  />
<glyph unicode="&#x62C;" arabic-form="terminal" horiz-adv-x="368" d="M333 -156Q333 -165 327 -172T311 -179Q302 -179 296 -172T289 -156Q289 -147 295 -141T311 -134Q320 -134 326 -140T333 -156ZM300 238Q300 270 282 284T238 299H112V332H234Q285 332 309 306T333 238V33H373V0H155Q120 0 100 -21T79 -71Q79 -100 99 -121T154 -142H199L178 -175H153Q106 -175 76 -146T46 -71Q46 -49 55 -30T78 3T111 25T150 33H300V238Z"  />
<glyph unicode="&#x62C;" arabic-form="isolated" horiz-adv-x="380" d="M153 -175Q106 -175 76 -146T46 -71Q46 -49 55 -30T78 3T111 25T150 33H238Q271 33 285 49T300 94V238Q300 270 282 284T238 299H112V332H234Q285 332 309 306T333 238V95Q333 46 307 23T232 0H155Q120 0 100 -21T79 -71Q79 -100 99 -121T154 -142H199L178 -175H153ZM333 -156Q333 -165 327 -172T311 -179Q302 -179 296 -172T289 -156Q289 -147 295 -141T311 -134Q320 -134 326 -140T333 -156Z"  />
<glyph unicode="&#x62D;" arabic-form="initial" horiz-adv-x="343" d="M0 33H201Q234 33 248 49T263 94V238Q263 270 245 284T201 299H75V332H197Q248 332 272 306T296 238V95Q296 46 270 23T195 0H0V33Z"  />
<glyph unicode="&#x62D;" arabic-form="medial" horiz-adv-x="332" d="M263 238Q263 270 245 284T201 299H75V332H197Q248 332 272 306T296 238V33H336V0H0V33H263V238Z"  />
<glyph unicode="&#x62D;" arabic-form="terminal" horiz-adv-x="368" d="M300 238Q300 270 282 284T238 299H112V332H234Q285 332 309 306T333 238V33H373V0H155Q120 0 100 -21T79 -71Q79 -100 99 -121T154 -142H332L311 -175H153Q106 -175 76 -146T46 -71Q46 -49 55 -30T78 3T111 25T150 33H300V238Z"  />
<glyph unicode="&#x62D;" arabic-form="isolated" horiz-adv-x="380" d="M153 -175Q106 -175 76 -146T46 -71Q46 -49 55 -30T78 3T111 25T150 33H238Q271 33 285 49T300 94V238Q300 270 282 284T238 299H112V332H234Q285 332 309 306T333 238V95Q333 46 307 23T232 0H155Q120 0 100 -21T79 -71Q79 -100 99 -121T154 -142H332L311 -175H153Z"  />
<glyph unicode="&#x62E;" arabic-form="initial" horiz-adv-x="343" d="M190 461Q190 452 184 446T168 440Q158 440 152 446T146 461Q146 471 152 477T168 484Q177 484 183 478T190 461ZM0 33H201Q234 33 248 49T263 94V238Q263 270 245 284T201 299H75V332H197Q248 332 272 306T296 238V95Q296 46 270 23T195 0H0V33Z"  />
<glyph unicode="&#x62E;" arabic-form="medial" horiz-adv-x="332" d="M190 461Q190 452 184 446T168 440Q158 440 152 446T146 461Q146 471 152 477T168 484Q177 484 183 478T190 461ZM263 238Q263 270 245 284T201 299H75V332H197Q248 332 272 306T296 238V33H336V0H0V33H263V238Z"  />
<glyph unicode="&#x62E;" arabic-form="terminal" horiz-adv-x="368" d="M227 462Q227 453 220 447T204 440Q195 440 189 446T182 462Q182 471 188 477T204 484Q213 484 220 478T227 462ZM300 238Q300 270 282 284T238 299H112V332H234Q285 332 309 306T333 238V33H373V0H155Q120 0 100 -21T79 -71Q79 -100 99 -121T154 -142H332L311 -175H153Q106 -175 76 -146T46 -71Q46 -49 55 -30T78 3T111 25T150 33H300V238Z"  />
<glyph unicode="&#x62E;" arabic-form="isolated" horiz-adv-x="380" d="M227 461Q227 452 221 446T204 440Q195 440 189 446T183 461Q183 471 189 477T204 484Q214 484 220 478T227 461ZM153 -175Q106 -175 76 -146T46 -71Q46 -49 55 -30T78 3T111 25T150 33H238Q271 33 285 49T300 94V238Q300 270 282 284T238 299H112V332H234Q285 332 309 306T333 238V95Q333 46 307 23T232 0H155Q120 0 100 -21T79 -71Q79 -100 99 -121T154 -142H332L311 -175H153Z"  />
<glyph unicode="&#x62F;" arabic-form="terminal" horiz-adv-x="318" d="M249 189Q249 248 220 273T143 299H102V332H142Q181 332 207 321T251 290T275 246T283 194V33H322V0H47V33H249V189Z"  />
<glyph unicode="&#x62F;" arabic-form="isolated" horiz-adv-x="329" d="M142 332Q181 332 207 321T251 290T275 246T283 194V95Q283 46 256 23T184 0H47V33H191Q218 33 233 47T249 93V189Q249 248 220 273T143 299H102V332H142Z"  />
<glyph unicode="&#x630;" arabic-form="terminal" horiz-adv-x="318" d="M146 461Q146 452 140 446T125 440Q116 440 109 446T102 461Q102 471 109 477T125 484Q133 484 139 478T146 461ZM249 189Q249 248 220 273T143 299H102V332H142Q181 332 207 321T251 290T275 246T283 194V33H322V0H47V33H249V189Z"  />
<glyph unicode="&#x630;" arabic-form="isolated" horiz-adv-x="329" d="M146 461Q146 452 140 446T125 440Q115 440 109 446T102 461Q102 471 108 477T125 484Q133 484 139 478T146 461ZM142 332Q181 332 207 321T251 290T275 246T283 194V95Q283 46 256 23T184 0H47V33H191Q218 33 233 47T249 93V189Q249 248 220 273T143 299H102V332H142Z"  />
<glyph unicode="&#x631;" arabic-form="terminal" horiz-adv-x="155" d="M120 33H159V0H120V-39Q120 -94 100 -124T39 -175L17 -146Q36 -136 49 -127T71 -107T82 -82T86 -48V332H120V33Z"  />
<glyph unicode="&#x631;" arabic-form="isolated" horiz-adv-x="167" d="M120 -39Q120 -94 100 -124T39 -175L17 -146Q36 -136 49 -127T71 -107T82 -82T86 -48V332H120V-39Z"  />
<glyph unicode="&#x632;" arabic-form="terminal" horiz-adv-x="155" d="M125 461Q125 452 119 446T103 440Q94 440 88 446T81 461Q81 471 87 477T103 484Q112 484 118 478T125 461ZM120 33H159V0H120V-39Q120 -94 100 -124T39 -175L17 -146Q36 -136 49 -127T71 -107T82 -82T86 -48V332H120V33Z"  />
<glyph unicode="&#x632;" arabic-form="isolated" horiz-adv-x="167" d="M125 462Q125 453 119 447T103 440Q94 440 87 446T80 462Q80 471 87 477T103 484Q112 484 118 478T125 462ZM120 -39Q120 -94 100 -124T39 -175L17 -146Q36 -136 49 -127T71 -107T82 -82T86 -48V332H120V-39Z"  />
<glyph unicode="&#x633;" arabic-form="initial" horiz-adv-x="645" d="M189 33V332H222V33H376V332H410V33H500Q538 33 551 50T565 99V332H598V101Q598 53 575 27T498 0H0V33H189Z"  />
<glyph unicode="&#x633;" arabic-form="medial" horiz-adv-x="633" d="M0 33H190V332H223V33H377V332H411V33H566V332H598V33H638V0H0V33Z"  />
<glyph unicode="&#x633;" arabic-form="terminal" horiz-adv-x="853" d="M785 332H818V33H857V0H442V-29Q442 -73 423 -101T374 -147T310 -171T244 -178Q210 -178 175 -171T112 -146T65 -100T47 -28V160L80 183V-28Q80 -61 95 -83T133 -119T186 -138T244 -144Q277 -144 306 -138T359 -118T395 -82T409 -29V332H442V33H596V332H630V33H785V332Z"  />
<glyph unicode="&#x633;" arabic-form="isolated" horiz-adv-x="864" d="M818 101Q818 53 795 27T718 0H442V-29Q442 -73 423 -101T374 -147T310 -171T244 -178Q210 -178 175 -171T112 -146T65 -100T47 -28V160L80 183V-28Q80 -61 95 -83T133 -119T186 -138T244 -144Q277 -144 306 -138T359 -118T395 -82T409 -29V332H442V33H596V332H630V33H720Q758 33 771 50T785 99V332H818V101Z"  />
<glyph unicode="&#x634;" arabic-form="initial" horiz-adv-x="645" d="M379 461Q379 452 373 446T356 440Q347 440 341 446T335 461Q335 471 341 477T356 484Q366 484 372 478T379 461ZM455 461Q455 452 449 446T433 440Q424 440 418 446T411 461Q411 470 417 477T433 484Q442 484 448 478T455 461ZM412 527Q412 520 408 515T395 510Q388 510 383 515T377 527Q377 535 382 540T395 545Q403 545 407 540T412 527ZM189 33V332H222V33H376V332H410V33H500Q538 33 551 50T565 99V332H598V101Q598 53 575 27T498 0H0V33H189Z"  />
<glyph unicode="&#x634;" arabic-form="medial" horiz-adv-x="633" d="M0 33H190V332H223V33H377V332H411V33H566V332H598V33H638V0H0V33ZM379 461Q379 452 373 446T356 440Q347 440 341 446T335 461Q335 471 341 477T356 484Q366 484 372 478T379 461ZM455 461Q455 452 449 446T433 440Q424 440 418 446T411 461Q411 470 417 477T433 484Q442 484 448 478T455 461ZM412 527Q412 520 408 515T395 510Q388 510 383 515T377 527Q377 535 382 540T395 545Q403 545 407 540T412 527Z"  />
<glyph unicode="&#x634;" arabic-form="terminal" horiz-adv-x="853" d="M598 461Q598 452 592 446T575 440Q566 440 560 446T554 461Q554 471 560 477T575 484Q585 484 591 478T598 461ZM674 461Q674 452 668 446T652 440Q643 440 637 446T630 461Q630 470 636 477T652 484Q661 484 667 478T674 461ZM631 527Q631 520 627 515T614 510Q607 510 602 515T596 527Q596 535 601 540T614 545Q622 545 626 540T631 527ZM785 332H818V33H857V0H442V-29Q442 -73 423 -101T374 -147T310 -171T244 -178Q210 -178 175 -171T112 -146T65 -100T47 -28V160L80 183V-28Q80 -61 95 -83T133 -119T186 -138T244 -144Q277 -144 306 -138T359 -118T395 -82T409 -29V332H442V33H596V332H630V33H785V332Z"  />
<glyph unicode="&#x634;" arabic-form="isolated" horiz-adv-x="864" d="M598 461Q598 452 592 446T575 440Q566 440 560 446T554 461Q554 471 560 477T575 484Q585 484 591 478T598 461ZM674 461Q674 452 668 446T652 440Q643 440 637 446T630 461Q630 470 636 477T652 484Q661 484 667 478T674 461ZM631 527Q631 520 627 515T614 510Q607 510 602 515T596 527Q596 535 601 540T614 545Q622 545 626 540T631 527ZM818 101Q818 53 795 27T718 0H442V-29Q442 -73 423 -101T374 -147T310 -171T244 -178Q210 -178 175 -171T112 -146T65 -100T47 -28V160L80 183V-28Q80 -61 95 -83T133 -119T186 -138T244 -144Q277 -144 306 -138T359 -118T395 -82T409 -29V332H442V33H596V332H630V33H720Q758 33 771 50T785 99V332H818V101Z"  />
<glyph unicode="&#x635;" arabic-form="initial" horiz-adv-x="459" d="M75 332H108V263Q117 272 134 277L290 331Q308 337 325 337Q360 337 386 314T412 249V98Q412 47 387 24T316 0H108V-45L75 -62V0H0V33H75V332ZM317 33Q352 33 365 51T379 97V250Q379 268 368 285T326 303Q315 303 307 301T288 295L153 250Q132 243 120 231T108 194V33H317Z"  />
<glyph unicode="&#x635;" arabic-form="medial" horiz-adv-x="448" d="M452 33V0H108V-45L75 -62V0H0V33H75V332H108V263Q117 272 134 277L290 331Q308 337 325 337Q360 337 386 314T412 249V33H452ZM379 250Q379 268 368 285T326 303Q315 303 307 301T288 295L153 250Q132 243 120 231T108 194V33H379V250Z"  />
<glyph unicode="&#x635;" arabic-form="terminal" horiz-adv-x="769" d="M701 250Q701 268 690 285T648 303Q637 303 629 301T610 295L475 250Q454 243 442 231T430 194V33H701V250ZM773 33V0H430V-29Q430 -73 412 -101T365 -147T303 -171T238 -178Q204 -178 170 -171T109 -146T64 -100T47 -28V160L80 183V-28Q80 -61 94 -83T130 -119T181 -138T238 -144Q271 -144 299 -138T350 -118T384 -82T397 -29V332H430V263Q439 272 456 277L612 331Q630 337 647 337Q682 337 708 314T734 249V33H773Z"  />
<glyph unicode="&#x635;" arabic-form="isolated" horiz-adv-x="793" d="M651 33Q686 33 699 51T713 97V250Q713 268 702 285T660 303Q649 303 641 301T622 295L487 250Q466 243 454 231T442 194V33H651ZM409 332H442V263Q451 272 468 277L624 331Q642 337 659 337Q694 337 720 314T746 249V98Q746 47 721 24T650 0H442V-29Q442 -73 423 -101T374 -147T310 -171T244 -178Q210 -178 175 -171T112 -146T65 -100T47 -28V160L80 183V-28Q80 -61 95 -83T133 -119T186 -138T244 -144Q277 -144 306 -138T359 -118T395 -82T409 -29V332Z"  />
<glyph unicode="&#x636;" arabic-form="initial" horiz-adv-x="459" d="M266 461Q266 452 259 446T244 440Q235 440 228 446T221 461Q221 471 228 477T244 484Q252 484 259 478T266 461ZM75 332H108V263Q117 272 134 277L290 331Q308 337 325 337Q360 337 386 314T412 249V98Q412 47 387 24T316 0H108V-45L75 -62V0H0V33H75V332ZM317 33Q352 33 365 51T379 97V250Q379 268 368 285T326 303Q315 303 307 301T288 295L153 250Q132 243 120 231T108 194V33H317Z"  />
<glyph unicode="&#x636;" arabic-form="medial" horiz-adv-x="448" d="M266 461Q266 452 259 446T244 440Q235 440 228 446T221 461Q221 471 228 477T244 484Q252 484 259 478T266 461ZM452 33V0H108V-45L75 -62V0H0V33H75V332H108V263Q117 272 134 277L290 331Q308 337 325 337Q360 337 386 314T412 249V33H452ZM379 250Q379 268 368 285T326 303Q315 303 307 301T288 295L153 250Q132 243 120 231T108 194V33H379V250Z"  />
<glyph unicode="&#x636;" arabic-form="terminal" horiz-adv-x="769" d="M587 461Q587 452 581 446T565 440Q556 440 549 446T542 461Q542 471 549 477T565 484Q574 484 580 478T587 461ZM701 250Q701 268 690 285T648 303Q637 303 629 301T610 295L475 250Q454 243 442 231T430 194V33H701V250ZM773 33V0H430V-29Q430 -73 412 -101T365 -147T303 -171T238 -178Q204 -178 170 -171T109 -146T64 -100T47 -28V160L80 183V-28Q80 -61 94 -83T130 -119T181 -138T238 -144Q271 -144 299 -138T350 -118T384 -82T397 -29V332H430V263Q439 272 456 277L612 331Q630 337 647 337Q682 337 708 314T734 249V33H773Z"  />
<glyph unicode="&#x636;" arabic-form="isolated" horiz-adv-x="793" d="M599 461Q599 452 593 446T577 440Q568 440 562 446T555 461Q555 471 561 477T577 484Q586 484 592 478T599 461ZM651 33Q686 33 699 51T713 97V250Q713 268 702 285T660 303Q649 303 641 301T622 295L487 250Q466 243 454 231T442 194V33H651ZM409 332H442V263Q451 272 468 277L624 331Q642 337 659 337Q694 337 720 314T746 249V98Q746 47 721 24T650 0H442V-29Q442 -73 423 -101T374 -147T310 -171T244 -178Q210 -178 175 -171T112 -146T65 -100T47 -28V160L80 183V-28Q80 -61 95 -83T133 -119T186 -138T244 -144Q277 -144 306 -138T359 -118T395 -82T409 -29V332Z"  />
<glyph unicode="&#x637;" arabic-form="initial" horiz-adv-x="459" d="M75 33V467H108V263Q117 272 134 277L290 331Q308 337 325 337Q360 337 386 314T412 249V98Q412 47 387 24T316 0H108V-45L75 -62V0H0V33H75ZM317 33Q352 33 365 51T379 97V250Q379 268 368 285T326 303Q315 303 307 301T288 295L153 250Q132 243 120 231T108 194V33H317Z"  />
<glyph unicode="&#x637;" arabic-form="medial" horiz-adv-x="448" d="M75 33V467H108V263Q117 272 134 277L290 331Q308 337 325 337Q360 337 386 314T412 249V33H452V0H108V-45L75 -62V0H0V33H75ZM379 250Q379 268 368 285T326 303Q315 303 307 301T288 295L153 250Q132 243 120 231T108 194V33H379V250Z"  />
<glyph unicode="&#x637;" arabic-form="terminal" horiz-adv-x="503" d="M62 33H130V467H163V263Q172 272 189 277L345 331Q363 337 380 337Q415 337 441 314T467 249V33H507V0H163V-45L130 -62V0H47L62 33ZM434 250Q434 268 423 285T381 303Q370 303 362 301T343 295L208 250Q187 243 175 231T163 194V33H434V250Z"  />
<glyph unicode="&#x637;" arabic-form="isolated" horiz-adv-x="514" d="M372 33Q407 33 420 51T434 97V250Q434 268 423 285T381 303Q370 303 362 301T343 295L208 250Q187 243 175 231T163 194V33H372ZM163 -45L130 -62V0H47L62 33H130V467H163V263Q172 272 189 277L345 331Q363 337 380 337Q415 337 441 314T467 249V98Q467 47 442 24T371 0H163V-45Z"  />
<glyph unicode="&#x638;" arabic-form="initial" horiz-adv-x="459" d="M266 461Q266 452 259 446T244 440Q235 440 228 446T221 461Q221 471 228 477T244 484Q252 484 259 478T266 461ZM75 33V467H108V263Q117 272 134 277L290 331Q308 337 325 337Q360 337 386 314T412 249V98Q412 47 387 24T316 0H108V-45L75 -62V0H0V33H75ZM317 33Q352 33 365 51T379 97V250Q379 268 368 285T326 303Q315 303 307 301T288 295L153 250Q132 243 120 231T108 194V33H317Z"  />
<glyph unicode="&#x638;" arabic-form="medial" horiz-adv-x="448" d="M266 461Q266 452 259 446T244 440Q235 440 228 446T221 461Q221 471 228 477T244 484Q252 484 259 478T266 461ZM75 33V467H108V263Q117 272 134 277L290 331Q308 337 325 337Q360 337 386 314T412 249V33H452V0H108V-45L75 -62V0H0V33H75ZM379 250Q379 268 368 285T326 303Q315 303 307 301T288 295L153 250Q132 243 120 231T108 194V33H379V250Z"  />
<glyph unicode="&#x638;" arabic-form="terminal" horiz-adv-x="503" d="M321 461Q321 452 315 446T298 440Q289 440 283 446T276 461Q276 471 282 477T298 484Q308 484 314 478T321 461ZM62 33H130V467H163V263Q172 272 189 277L345 331Q363 337 380 337Q415 337 441 314T467 249V33H507V0H163V-45L130 -62V0H47L62 33ZM434 250Q434 268 423 285T381 303Q370 303 362 301T343 295L208 250Q187 243 175 231T163 194V33H434V250Z"  />
<glyph unicode="&#x638;" arabic-form="isolated" horiz-adv-x="514" d="M321 461Q321 452 315 446T298 440Q289 440 283 446T276 461Q276 471 282 477T298 484Q308 484 314 478T321 461ZM372 33Q407 33 420 51T434 97V250Q434 268 423 285T381 303Q370 303 362 301T343 295L208 250Q187 243 175 231T163 194V33H372ZM163 -45L130 -62V0H47L62 33H130V467H163V263Q172 272 189 277L345 331Q363 337 380 337Q415 337 441 314T467 249V98Q467 47 442 24T371 0H163V-45Z"  />
<glyph unicode="&#x639;" arabic-form="initial" horiz-adv-x="390" d="M0 33H94Q81 47 78 63T75 98V238Q75 288 103 310T173 332H296V299H169Q137 299 123 283T108 238V97Q108 68 121 51T169 33H343V0H0V33Z"  />
<glyph unicode="&#x639;" arabic-form="medial" horiz-adv-x="414" d="M208 33Q182 73 148 111T75 183V197Q75 229 88 255T122 299T170 327T227 337Q255 337 282 328T331 300T366 256T379 197V183Q341 151 307 113T245 33H419V0H255Q244 0 239 3T227 13Q220 6 214 3T198 0H0V33H208ZM346 198Q345 222 335 241T308 275T270 296T227 304Q205 304 184 297T146 275T119 242T108 198Q142 169 171 134T227 64Q253 100 282 134T346 198Z"  />
<glyph unicode="&#x639;" arabic-form="terminal" horiz-adv-x="400" d="M241 0Q230 0 225 3T213 13Q206 6 200 3T184 0H157Q124 0 102 -18T80 -71Q80 -105 102 -123T155 -142H333L311 -175H155Q131 -175 111 -167T77 -145T54 -111T46 -70Q46 -52 52 -34T73 0T110 24T162 33H194Q168 73 134 111T61 183V197Q61 229 74 255T108 299T156 327T213 337Q241 337 268 328T317 300T352 256T365 197V183Q327 151 293 113T231 33H405V0H241ZM332 198Q331 222 321 241T294 275T256 296T213 304Q191 304 170 297T132 275T105 242T94 198Q128 169 157 134T213 64Q239 100 268 134T332 198Z"  />
<glyph unicode="&#x639;" arabic-form="isolated" horiz-adv-x="380" d="M159 0Q121 0 101 -21T80 -71Q80 -104 101 -123T155 -142H333L311 -175H155Q131 -175 111 -167T77 -145T54 -112T46 -71Q46 -43 59 -19T98 19Q76 38 71 56T65 98V236Q65 284 91 308T166 332H286V299H160Q127 299 113 282T98 237V97Q98 58 116 46T159 33H333V0H159Z"  />
<glyph unicode="&#x63A;" arabic-form="initial" horiz-adv-x="390" d="M181 461Q181 471 187 477T203 484Q213 484 219 478T225 461Q225 452 219 446T203 440Q194 440 188 446T181 461ZM0 33H94Q81 47 78 63T75 98V238Q75 288 103 310T173 332H296V299H169Q137 299 123 283T108 238V97Q108 68 121 51T169 33H343V0H0V33Z"  />
<glyph unicode="&#x63A;" arabic-form="medial" horiz-adv-x="414" d="M205 461Q205 471 211 477T227 484Q236 484 242 478T249 461Q249 452 243 446T227 440Q218 440 212 446T205 461ZM208 33Q182 73 148 111T75 183V197Q75 229 88 255T122 299T170 327T227 337Q255 337 282 328T331 300T366 256T379 197V183Q341 151 307 113T245 33H419V0H255Q244 0 239 3T227 13Q220 6 214 3T198 0H0V33H208ZM346 198Q345 222 335 241T308 275T270 296T227 304Q205 304 184 297T146 275T119 242T108 198Q142 169 171 134T227 64Q253 100 282 134T346 198Z"  />
<glyph unicode="&#x63A;" arabic-form="terminal" horiz-adv-x="400" d="M191 461Q191 471 197 477T213 484Q222 484 228 478T235 461Q235 452 229 446T213 440Q204 440 198 446T191 461ZM241 0Q230 0 225 3T213 13Q206 6 200 3T184 0H157Q124 0 102 -18T80 -71Q80 -105 102 -123T155 -142H333L311 -175H155Q131 -175 111 -167T77 -145T54 -111T46 -70Q46 -52 52 -34T73 0T110 24T162 33H194Q168 73 134 111T61 183V197Q61 229 74 255T108 299T156 327T213 337Q241 337 268 328T317 300T352 256T365 197V183Q327 151 293 113T231 33H405V0H241ZM332 198Q331 222 321 241T294 275T256 296T213 304Q191 304 170 297T132 275T105 242T94 198Q128 169 157 134T213 64Q239 100 268 134T332 198Z"  />
<glyph unicode="&#x63A;" arabic-form="isolated" horiz-adv-x="380" d="M171 461Q171 471 177 477T193 484Q203 484 209 478T216 461Q216 452 210 446T193 440Q184 440 178 446T171 461ZM159 0Q121 0 101 -21T80 -71Q80 -104 101 -123T155 -142H333L311 -175H155Q131 -175 111 -167T77 -145T54 -112T46 -71Q46 -43 59 -19T98 19Q76 38 71 56T65 98V236Q65 284 91 308T166 332H286V299H160Q127 299 113 282T98 237V97Q98 58 116 46T159 33H333V0H159Z"  />
<glyph unicode="&#x640;" horiz-adv-x="103" d="M108 33V0H0V33H108Z"  />
<glyph unicode="&#x641;" arabic-form="initial" horiz-adv-x="342" d="M207 461Q207 452 201 446T185 440Q176 440 169 446T162 461Q162 471 169 477T185 484Q194 484 200 478T207 461ZM0 0V33H75V236Q75 287 102 309T176 332H295V95Q295 49 271 25T196 0H0ZM197 33Q262 33 262 94V299H170Q137 299 123 283T108 235V33H197Z"  />
<glyph unicode="&#x641;" arabic-form="medial" horiz-adv-x="330" d="M207 461Q207 452 201 446T185 440Q176 440 169 446T162 461Q162 471 169 477T185 484Q194 484 200 478T207 461ZM335 33V0H0V33H75V236Q75 287 102 309T176 332H295V33H335ZM262 299H170Q137 299 123 283T108 235V33H262V299Z"  />
<glyph unicode="&#x641;" arabic-form="terminal" horiz-adv-x="589" d="M466 461Q466 452 460 446T444 440Q435 440 429 446T422 461Q422 471 428 477T444 484Q453 484 459 478T466 461ZM594 33V0H143Q115 0 97 8T67 29T52 60T47 97V224L80 246V97Q80 33 141 33H334V236Q334 287 361 309T435 332H554V33H594ZM521 299H429Q396 299 382 283T367 235V33H521V299Z"  />
<glyph unicode="&#x641;" arabic-form="isolated" horiz-adv-x="601" d="M80 246V97Q80 33 141 33H334V236Q334 287 361 309T435 332H554V95Q554 49 530 25T455 0H143Q115 0 97 8T67 29T52 60T47 97V224L80 246ZM456 33Q521 33 521 94V299H429Q396 299 382 283T367 235V33H456ZM466 461Q466 452 460 446T444 440Q435 440 429 446T422 461Q422 471 428 477T444 484Q453 484 459 478T466 461Z"  />
<glyph unicode="&#x642;" arabic-form="initial" horiz-adv-x="342" d="M169 461Q169 452 163 446T148 440Q138 440 132 446T125 461Q125 471 131 477T148 484Q157 484 163 478T169 461ZM246 461Q246 452 240 446T224 440Q215 440 209 446T202 461Q202 471 208 477T224 484Q233 484 239 478T246 461ZM0 0V33H75V236Q75 287 102 309T176 332H295V95Q295 49 271 25T196 0H0ZM197 33Q262 33 262 94V299H170Q137 299 123 283T108 235V33H197Z"  />
<glyph unicode="&#x642;" arabic-form="medial" horiz-adv-x="330" d="M169 461Q169 452 163 446T148 440Q138 440 132 446T125 461Q125 471 131 477T148 484Q157 484 163 478T169 461ZM246 461Q246 452 240 446T224 440Q215 440 209 446T202 461Q202 471 208 477T224 484Q233 484 239 478T246 461ZM335 33V0H0V33H75V236Q75 287 102 309T176 332H295V33H335ZM262 299H170Q137 299 123 283T108 235V33H262V299Z"  />
<glyph unicode="&#x642;" arabic-form="terminal" horiz-adv-x="477" d="M316 461Q316 452 310 446T294 440Q284 440 278 446T272 461Q272 471 278 477T294 484Q303 484 309 478T316 461ZM393 461Q393 452 387 446T370 440Q361 440 355 446T349 461Q349 471 355 477T370 484Q379 484 386 478T393 461ZM442 33H482V0H442V-27Q442 -73 422 -102T371 -148T307 -171T244 -178Q213 -178 179 -172T115 -149T66 -103T47 -28V160L80 183V-28Q80 -66 97 -89T140 -124T194 -140T244 -144Q272 -144 301 -138T355 -119T394 -83T409 -27V0H320Q269 0 245 26T221 98V234Q221 280 245 306T320 332H442V33ZM409 299H314Q282 299 268 281T254 234V97Q254 63 270 48T314 33H409V299Z"  />
<glyph unicode="&#x642;" arabic-form="isolated" horiz-adv-x="489" d="M316 461Q316 452 310 446T294 440Q284 440 278 446T272 461Q272 471 278 477T294 484Q303 484 309 478T316 461ZM393 461Q393 452 387 446T370 440Q361 440 355 446T349 461Q349 471 355 477T370 484Q379 484 386 478T393 461ZM409 299H314Q282 299 268 281T254 234V97Q254 63 270 48T314 33H409V299ZM442 -27Q442 -73 422 -102T371 -148T307 -171T244 -178Q213 -178 179 -172T115 -149T66 -103T47 -28V160L80 183V-28Q80 -66 97 -89T140 -124T194 -140T244 -144Q272 -144 301 -138T355 -119T394 -83T409 -27V0H320Q269 0 245 26T221 98V234Q221 280 245 306T320 332H442V-27Z"  />
<glyph unicode="&#x643;" arabic-form="initial" horiz-adv-x="377" d="M0 33H236Q268 33 282 49T297 94V237Q297 272 280 285T236 299H77V369Q77 420 103 443T177 467H283V433H170Q135 433 123 416T110 370V332H232Q284 332 307 306T330 237V96Q330 46 304 23T230 0H0V33Z"  />
<glyph unicode="&#x643;" arabic-form="medial" horiz-adv-x="365" d="M297 237Q297 272 280 285T236 299H77V369Q77 420 103 443T177 467H283V433H170Q135 433 123 416T110 370V332H232Q284 332 307 306T330 237V33H370V0H0V33H297V237Z"  />
<glyph unicode="&#x643;" arabic-form="terminal" horiz-adv-x="589" d="M521 467H554V33H594V0H141Q90 0 69 26T47 98V224L80 246V96Q80 61 96 47T145 33H521V467ZM332 306H315Q301 306 291 299T280 276Q280 259 290 253T313 246H351V227H238V246H270Q264 252 262 260T259 277Q259 294 271 309T309 325H332V306Z"  />
<glyph unicode="&#x643;" arabic-form="isolated" horiz-adv-x="601" d="M80 246V96Q80 61 96 47T145 33H456Q494 33 507 49T521 97V467H554V98Q554 46 528 23T454 0H141Q90 0 69 26T47 98V224L80 246ZM332 306H315Q301 306 291 299T280 276Q280 259 290 253T313 246H351V227H238V246H270Q264 252 262 260T259 277Q259 294 271 309T309 325H332V306Z"  />
<glyph unicode="&#x644;" arabic-form="initial" horiz-adv-x="155" d="M108 467V87Q108 43 86 22T27 0H0V33H24Q41 33 51 38T66 51T74 70T76 89V467H108Z"  />
<glyph unicode="&#x644;" arabic-form="medial" horiz-adv-x="144" d="M0 33H76V467H108V33H148V0H0V33Z"  />
<glyph unicode="&#x644;" arabic-form="terminal" horiz-adv-x="477" d="M442 33H482V0H442V-29Q442 -73 423 -101T374 -147T310 -171T244 -178Q210 -178 175 -171T112 -146T65 -100T47 -28V160L80 183V-28Q80 -61 95 -83T133 -119T186 -138T244 -144Q277 -144 306 -138T359 -118T395 -82T409 -29V467H442V33Z"  />
<glyph unicode="&#x644;" arabic-form="isolated" horiz-adv-x="489" d="M442 -29Q442 -73 423 -101T374 -147T310 -171T244 -178Q210 -178 175 -171T112 -146T65 -100T47 -28V160L80 183V-28Q80 -61 95 -83T133 -119T186 -138T244 -144Q277 -144 306 -138T359 -118T395 -82T409 -29V467H442V-29Z"  />
<glyph unicode="&#x645;" arabic-form="initial" horiz-adv-x="343" d="M0 0V33H76V239Q76 267 86 286T112 316T147 332T186 337Q205 337 224 333T260 317T286 286T297 239V22Q297 -7 287 -26T261 -57T225 -74T186 -79Q169 -79 151 -75T118 -62T91 -38T77 0H0ZM108 29Q108 6 114 -9T132 -32T157 -43T186 -46Q201 -46 214 -44T239 -33T256 -10T263 29V235Q263 256 257 269T239 290T215 301T186 304Q171 304 157 301T132 290T115 269T108 235V29Z"  />
<glyph unicode="&#x645;" arabic-form="medial" horiz-adv-x="332" d="M0 0V33H76V239Q76 267 86 286T112 316T147 332T186 337Q205 337 224 333T260 317T286 286T297 239V33H337V0H295Q291 -22 280 -37T254 -61T221 -75T186 -79Q169 -79 151 -75T118 -62T91 -38T77 0H0ZM108 29Q108 6 114 -9T132 -32T157 -43T186 -46Q201 -46 214 -44T239 -33T256 -10T263 29V235Q263 256 257 269T239 290T215 301T186 304Q171 304 157 301T132 290T115 269T108 235V29Z"  />
<glyph unicode="&#x645;" arabic-form="terminal" horiz-adv-x="403" d="M408 33V0H145Q105 0 93 -17T80 -63V-158L47 -177V-63Q47 -12 73 10T148 33V236Q148 287 175 309T249 332H368V33H408ZM335 299H243Q210 299 196 283T181 235V33H335V299Z"  />
<glyph unicode="&#x645;" arabic-form="isolated" horiz-adv-x="414" d="M145 0Q105 0 93 -17T80 -63V-158L47 -177V-63Q47 -12 73 10T148 33V236Q148 287 175 309T249 332H368V95Q368 49 344 25T269 0H145ZM270 33Q335 33 335 94V299H243Q210 299 196 283T181 235V33H270Z"  />
<glyph unicode="&#x646;" arabic-form="initial" horiz-adv-x="197" d="M156 461Q156 452 150 446T134 440Q125 440 119 446T112 461Q112 471 118 477T134 484Q143 484 149 478T156 461ZM53 33Q90 33 104 49T118 97V332H151V99Q151 51 127 26T52 0H0V33H53Z"  />
<glyph unicode="&#x646;" arabic-form="medial" horiz-adv-x="186" d="M0 33H118V332H151V33H190V0H0V33ZM156 461Q156 452 150 446T134 440Q125 440 119 446T112 461Q112 471 118 477T134 484Q143 484 149 478T156 461Z"  />
<glyph unicode="&#x646;" arabic-form="terminal" horiz-adv-x="477" d="M267 461Q267 452 261 446T245 440Q236 440 230 446T223 461Q223 471 229 477T245 484Q254 484 260 478T267 461ZM442 33H482V0H442V-29Q442 -73 423 -101T374 -147T310 -171T244 -178Q210 -178 175 -171T112 -146T65 -100T47 -28V160L80 183V-28Q80 -61 95 -83T133 -119T186 -138T244 -144Q277 -144 306 -138T359 -118T395 -82T409 -29V332H442V33Z"  />
<glyph unicode="&#x646;" arabic-form="isolated" horiz-adv-x="489" d="M267 461Q267 452 261 446T245 440Q236 440 230 446T223 461Q223 471 229 477T245 484Q254 484 260 478T267 461ZM442 -29Q442 -73 423 -101T374 -147T310 -171T244 -178Q210 -178 175 -171T112 -146T65 -100T47 -28V160L80 183V-28Q80 -61 95 -83T133 -119T186 -138T244 -144Q277 -144 306 -138T359 -118T395 -82T409 -29V332H442V-29Z"  />
<glyph unicode="&#x647;" arabic-form="initial" horiz-adv-x="417" d="M149 7Q141 2 136 1T121 0H0V33H94Q75 55 75 83Q75 113 96 134T149 156Q180 156 201 135T222 83Q222 56 202 33H275Q307 33 322 49T337 94V237Q337 270 319 284T275 299H75V332H272Q323 332 346 306T370 236V95Q370 68 362 50T340 21T308 5T271 0H176Q168 0 162 1T149 7ZM197 83Q197 103 183 117T148 132Q128 132 114 118T100 83Q100 63 114 49T148 34Q169 34 183 48T197 83Z"  />
<glyph unicode="&#x647;" arabic-form="medial" horiz-adv-x="403" d="M337 237Q337 270 319 284T275 299H75V332H272Q323 332 346 306T370 236V33H408V0H176Q168 0 162 1T149 7Q141 2 136 1T121 0H0V33H94Q75 55 75 83Q75 113 96 134T149 156Q180 156 201 135T222 83Q222 56 202 33H337V237ZM197 83Q197 103 183 117T148 132Q128 132 114 118T100 83Q100 63 114 49T148 34Q169 34 183 48T197 83Z"  />
<glyph unicode="&#x647;" arabic-form="terminal" horiz-adv-x="303" d="M144 0Q91 0 69 27T47 95V237Q47 289 75 310T147 332H267V33H307V0H234V20L209 0H144ZM234 299H142Q107 299 94 282T80 235V94Q80 33 141 33H234V299Z"  />
<glyph unicode="&#x647;" arabic-form="isolated" horiz-adv-x="314" d="M138 299Q107 299 94 282T80 237V101Q80 80 87 67T105 46T129 37T157 34Q172 34 186 37T210 47T227 68T234 101V299H138ZM267 91Q267 65 257 48T231 20T196 5T157 0Q137 0 118 4T82 19T57 47T47 91V239Q47 286 74 309T146 332H267V91Z"  />
<glyph unicode="&#x648;" arabic-form="terminal" horiz-adv-x="303" d="M146 0Q92 0 70 27T47 94V237Q47 288 74 310T146 332H267V33H307V0H267V-36Q267 -81 252 -108T215 -150T168 -170T122 -175Q118 -175 114 -175T106 -174L84 -142Q91 -144 99 -144T114 -144Q136 -144 157 -140T196 -123T223 -91T234 -39V0H146ZM234 299H138Q106 299 93 283T80 238V93Q80 67 94 50T138 33H234V299Z"  />
<glyph unicode="&#x648;" arabic-form="isolated" horiz-adv-x="314" d="M146 0Q92 0 70 27T47 94V237Q47 288 74 310T146 332H267V-36Q267 -81 252 -108T215 -150T168 -170T122 -175Q118 -175 114 -175T106 -174L84 -142Q91 -144 99 -144T114 -144Q136 -144 157 -140T196 -123T223 -91T234 -39V0H146ZM234 299H138Q106 299 93 283T80 238V93Q80 67 94 50T138 33H234V299Z"  />
<glyph unicode="&#x649;" arabic-form="initial" horiz-adv-x="197" d="M53 33Q90 33 104 49T118 97V332H151V99Q151 51 127 26T52 0H0V33H53Z"  />
<glyph unicode="&#x649;" arabic-form="medial" horiz-adv-x="186" d="M0 33H118V332H151V33H190V0H0V33Z"  />
<glyph unicode="&#x649;" arabic-form="terminal" horiz-adv-x="477" d="M332 0V33H482V0H442V-27Q442 -73 422 -102T371 -148T307 -171T244 -178Q213 -178 179 -172T115 -149T66 -103T47 -28V160L80 183V-28Q80 -66 97 -89T140 -124T194 -140T244 -144Q272 -144 301 -138T355 -119T394 -83T409 -27V0H332Z"  />
<glyph unicode="&#x649;" arabic-form="isolated" horiz-adv-x="489" d="M442 -27Q442 -73 422 -102T371 -148T307 -171T244 -178Q213 -178 179 -172T115 -149T66 -103T47 -28V160L80 183V-28Q80 -66 97 -89T140 -124T194 -140T244 -144Q272 -144 301 -138T355 -119T394 -83T409 -27V0H320Q269 0 245 26T221 98V234Q221 280 245 306T320 332H442V299H314Q282 299 268 281T254 234V97Q254 63 270 48T314 33H442V-27Z"  />
<glyph unicode="&#x64A;" arabic-form="initial" horiz-adv-x="197" d="M80 -153Q80 -162 73 -168T57 -175Q48 -175 42 -169T35 -153Q35 -144 41 -137T57 -130Q66 -130 73 -137T80 -153ZM156 -153Q156 -162 150 -168T134 -175Q125 -175 119 -169T112 -153Q112 -144 118 -137T134 -130Q143 -130 149 -137T156 -153ZM53 33Q90 33 104 49T118 97V332H151V99Q151 51 127 26T52 0H0V33H53Z"  />
<glyph unicode="&#x64A;" arabic-form="medial" horiz-adv-x="186" d="M0 33H118V332H151V33H190V0H0V33ZM80 -153Q80 -162 73 -168T57 -175Q48 -175 42 -169T35 -153Q35 -144 41 -137T57 -130Q66 -130 73 -137T80 -153ZM156 -153Q156 -162 150 -168T134 -175Q125 -175 119 -169T112 -153Q112 -144 118 -137T134 -130Q143 -130 149 -137T156 -153Z"  />
<glyph unicode="&#x64A;" arabic-form="terminal" horiz-adv-x="477" d="M228 -305Q228 -314 222 -321T206 -328Q197 -328 190 -321T183 -305Q183 -296 190 -290T206 -283Q215 -283 221 -289T228 -305ZM304 -305Q304 -314 298 -321T283 -328Q273 -328 267 -321T260 -305Q260 -296 266 -290T283 -283Q292 -283 298 -289T304 -305ZM332 0V33H482V0H442V-27Q442 -73 422 -102T371 -148T307 -171T244 -178Q213 -178 179 -172T115 -149T66 -103T47 -28V160L80 183V-28Q80 -66 97 -89T140 -124T194 -140T244 -144Q272 -144 301 -138T355 -119T394 -83T409 -27V0H332Z"  />
<glyph unicode="&#x64A;" arabic-form="isolated" horiz-adv-x="489" d="M228 -305Q228 -314 222 -321T206 -328Q197 -328 190 -321T183 -305Q183 -296 190 -290T206 -283Q215 -283 221 -289T228 -305ZM304 -305Q304 -314 298 -321T283 -328Q273 -328 267 -321T260 -305Q260 -296 266 -290T283 -283Q292 -283 298 -289T304 -305ZM442 -27Q442 -73 422 -102T371 -148T307 -171T244 -178Q213 -178 179 -172T115 -149T66 -103T47 -28V160L80 183V-28Q80 -66 97 -89T140 -124T194 -140T244 -144Q272 -144 301 -138T355 -119T394 -83T409 -27V0H320Q269 0 245 26T221 98V234Q221 280 245 306T320 332H442V299H314Q282 299 268 281T254 234V97Q254 63 270 48T314 33H442V-27Z"  />
<glyph unicode="&#x64B;" horiz-adv-x="0" d="M113 647H0V666H113V647ZM113 564H0V583H113V564Z"  />
<glyph unicode="&#x64C;" horiz-adv-x="0" d="M113 542Q109 539 103 536T92 532Q83 532 71 547T43 586L19 540L0 549L17 581Q22 591 28 597T45 604Q53 604 60 597T74 581T86 565T97 557Q98 557 104 559L147 591Q132 609 125 620T118 645Q118 665 133 678T167 692Q188 692 202 678T217 644Q217 627 208 616T178 591L195 574L178 561L162 579L113 542ZM165 603Q174 611 184 620T195 643Q195 655 187 663T167 671Q156 671 148 664T139 645Q139 634 145 625T165 603Z"  />
<glyph unicode="&#x64D;" horiz-adv-x="0" d="M113 -96H0V-77H113V-96ZM113 -179H0V-160H113V-179Z"  />
<glyph unicode="&#x64E;" horiz-adv-x="0" d="M113 564H0V583H113V564Z"  />
<glyph unicode="&#x64F;" horiz-adv-x="0" d="M109 603Q119 611 129 620T140 643Q140 655 132 663T111 672Q100 672 92 664T83 645Q83 633 92 623T109 603ZM92 591Q81 602 72 615T63 645Q63 665 77 679T112 693Q132 693 146 679T161 644Q161 624 149 613T122 591L139 575L123 561L106 579Q83 562 59 549T8 525L0 541Q23 552 47 564T92 591Z"  />
<glyph unicode="&#x650;" horiz-adv-x="0" d="M113 -96H0V-77H113V-96Z"  />
<glyph unicode="&#x651;" horiz-adv-x="0" d="M173 603Q173 589 168 577T139 564H34Q11 564 6 576T0 603V665H19V599Q19 587 24 585T36 583H76V665H96V583H136Q143 583 148 585T153 599V665H173V603Z"  />
<glyph unicode="&#x652;" horiz-adv-x="0" d="M78 611Q78 623 69 631T49 640Q38 640 30 631T21 611Q21 600 29 592T49 583Q60 583 69 591T78 611ZM98 612Q98 591 84 577T49 562Q29 562 15 576T0 612Q0 632 14 646T49 661Q69 661 83 647T98 612Z"  />
<glyph unicode="&#x653;" horiz-adv-x="0" d="M104 551Q97 542 88 542Q82 542 75 546T60 554T46 563T37 567Q32 567 26 561L12 546L0 558L16 575Q25 586 34 586Q39 586 46 582T60 573T74 564T84 560Q89 560 95 566L110 582L122 570L104 551Z"  />
<glyph unicode="&#x654;" horiz-adv-x="0" d="M94 643H77Q63 643 53 636T42 613Q42 596 52 590T75 583H113V564H0V583H32Q26 589 24 597T21 614Q21 631 33 646T71 662H94V643Z"  />
<glyph unicode="&#x655;" horiz-adv-x="0" d="M94 -96H77Q63 -96 53 -103T42 -126Q42 -143 52 -149T75 -156H113V-175H0V-156H32Q26 -150 24 -142T21 -125Q21 -108 33 -93T71 -77H94V-96Z"  />
<glyph unicode="&#x660;" horiz-adv-x="191" d="M144 220Q144 200 130 186T95 171Q75 171 61 185T47 220Q47 240 61 254T95 268Q115 268 129 254T144 220Z"  />
<glyph unicode="&#x661;" horiz-adv-x="127" d="M80 0H47V467H80V0Z"  />
<glyph unicode="&#x662;" horiz-adv-x="279" d="M232 433H139Q104 433 92 414T80 370V0H47V371Q47 417 73 442T144 467H232V433Z"  />
<glyph unicode="&#x663;" horiz-adv-x="477" d="M80 0H47V467H80V250H222V467H255V250H335Q360 250 378 266T397 313V467H430V312Q430 274 406 245T329 216H80V0Z"  />
<glyph unicode="&#x664;" horiz-adv-x="292" d="M183 217Q140 217 110 196T80 127Q80 109 86 93T105 63T135 41T176 33H245V0H174Q144 0 120 10T80 39T55 80T46 127Q46 151 52 169T67 199T85 220T103 234Q74 253 61 279T47 339Q47 394 82 430T178 467H245V433H183Q141 433 111 409T80 339Q80 325 84 310T100 281T129 259T176 250H245V217H183Z"  />
<glyph unicode="&#x665;" horiz-adv-x="358" d="M79 383Q81 399 88 414T107 441T137 460T179 467Q204 467 222 460T252 441T270 414T279 382L309 152Q310 143 311 130T312 108Q312 78 301 58T271 25T228 6T180 0Q121 0 84 27T47 109Q47 113 47 119T48 132T49 144T50 152L79 383ZM81 132Q80 127 80 122T80 111Q80 93 88 79T110 55T142 40T180 34Q199 34 217 39T249 55T271 79T279 111Q279 116 279 121T278 132L250 374Q247 401 228 418T179 435Q149 435 130 418T108 374L81 132Z"  />
<glyph unicode="&#x666;" horiz-adv-x="279" d="M47 467H135Q180 467 206 442T232 371V0H199V370Q199 394 187 413T140 433H47V467Z"  />
<glyph unicode="&#x667;" horiz-adv-x="381" d="M145 79Q146 71 148 63T156 48T169 37T190 33Q216 33 224 47T236 79L301 467H334L271 85Q269 70 265 55T251 28T228 8T190 0Q167 0 153 7T130 27T117 55T110 85L47 467H80L145 79Z"  />
<glyph unicode="&#x668;" horiz-adv-x="381" d="M80 0H47L110 382Q112 397 116 412T129 439T152 459T190 467Q213 467 227 459T251 439T264 412T271 382L334 0H301L236 388Q233 405 225 419T190 434Q164 434 156 419T145 388L80 0Z"  />
<glyph unicode="&#x669;" horiz-adv-x="314" d="M146 216Q93 216 70 243T47 311V372Q47 421 74 444T145 467H267V0H234V216H146ZM234 433H141Q80 433 80 371V312Q80 286 93 268T139 250H234V433Z"  />
<glyph unicode="&#x66A;" horiz-adv-x="328" d="M83 0H47L246 467H282L83 0ZM265 87Q265 79 259 72T243 65Q234 65 228 72T221 87Q221 96 227 103T243 110Q252 110 258 103T265 87ZM107 379Q107 370 101 364T85 357Q76 357 70 363T63 379Q63 388 69 395T85 402Q94 402 100 395T107 379Z"  />
<glyph unicode="&#x66B;" horiz-adv-x="155" d="M109 13Q109 -13 90 -35T49 -70L40 -48Q43 -46 48 -42T59 -32T68 -22T72 -11Q72 -4 62 4T52 26Q52 35 59 42T80 50Q92 50 100 40T109 13Z"  />
<glyph unicode="&#x66C;" horiz-adv-x="155" d="M49 33Q49 59 68 81T109 116L118 94Q115 92 110 88T99 78T90 67T86 57Q86 53 89 50T96 42T103 33T106 20Q106 11 99 4T78 -4Q66 -4 58 6T49 33Z"  />
<glyph unicode="&#x66D;" horiz-adv-x="362" d="M204 110L272 19L246 0L182 87L116 0L90 20L157 110L47 147L57 178L164 143V258H197V143L305 178L315 147L204 110Z"  />
<glyph unicode="&#x670;" horiz-adv-x="0" d="M0 738V876H20V738H0Z"  />
<glyph unicode="&#x671;" arabic-form="terminal" horiz-adv-x="115" d="M80 467V90Q80 68 88 51T120 33V0Q100 0 86 7T64 27T51 54T47 87V467H80ZM-22 586L1 608Q7 614 10 614Q14 614 20 610L42 594Q46 591 51 591Q57 591 63 599T76 618T92 638T113 647Q128 647 136 638T145 615Q145 590 124 577T80 564Q69 564 57 567T36 577L20 588Q14 592 11 592Q9 592 6 589L-9 574L-22 586ZM70 583Q73 582 80 582Q94 582 111 589T128 614Q128 622 124 625T113 629Q106 629 102 624T93 612T83 597T70 583Z"  />
<glyph unicode="&#x671;" arabic-form="isolated" horiz-adv-x="127" d="M80 0L47 -19V467H80V0ZM-22 586L1 608Q7 614 10 614Q14 614 20 610L42 594Q46 591 51 591Q57 591 63 599T76 618T92 638T113 647Q128 647 136 638T145 615Q145 590 124 577T80 564Q68 564 57 567T36 577L20 588Q14 592 11 592Q9 592 6 589L-9 574L-22 586ZM70 583Q73 582 80 582Q94 582 111 589T128 614Q128 622 124 625T113 629Q106 629 102 624T93 612T83 597T70 583Z"  />
<glyph unicode="&#x679;" arabic-form="initial" horiz-adv-x="257" d="M113 33Q150 33 164 49T178 97V332H211V99Q211 51 187 26T112 0H0V33H113ZM175 458Q191 458 191 472V508Q191 515 188 521T177 527Q169 527 162 524L118 507Q102 501 102 487V458H175ZM102 421L83 411V440H46L54 458H83V586H102V521L163 544Q170 547 178 547Q191 547 201 538T211 515V469Q211 451 200 446T177 440H102V421Z"  />
<glyph unicode="&#x679;" arabic-form="medial" horiz-adv-x="246" d="M0 33H177V332H211V33H251V0H0V33ZM175 458Q191 458 191 472V508Q191 515 188 521T177 527Q169 527 162 524L118 507Q102 501 102 487V458H175ZM102 421L83 411V440H46L54 458H83V586H102V521L163 544Q170 547 178 547Q191 547 201 538T211 515V469Q211 451 200 446T177 440H102V421Z"  />
<glyph unicode="&#x679;" arabic-form="terminal" horiz-adv-x="589" d="M521 332H554V33H594V0H141Q90 0 69 26T47 98V224L80 246V96Q80 61 96 47T145 33H521V332ZM347 458Q363 458 363 472V508Q363 515 360 521T349 527Q341 527 334 524L290 507Q274 501 274 487V458H347ZM274 421L255 411V440H218L226 458H255V586H274V521L335 544Q342 547 350 547Q363 547 373 538T383 515V469Q383 451 372 446T349 440H274V421Z"  />
<glyph unicode="&#x679;" arabic-form="isolated" horiz-adv-x="601" d="M347 458Q363 458 363 472V508Q363 515 360 521T349 527Q341 527 334 524L290 507Q274 501 274 487V458H347ZM274 421L255 411V440H218L226 458H255V586H274V521L335 544Q342 547 350 547Q363 547 373 538T383 515V469Q383 451 372 446T349 440H274V421ZM80 246V96Q80 61 96 47T145 33H456Q494 33 507 49T521 97V332H554V98Q554 46 528 23T454 0H141Q90 0 69 26T47 98V224L80 246Z"  />
<glyph unicode="&#x67E;" arabic-form="initial" horiz-adv-x="197" d="M53 33Q90 33 104 49T118 97V332H151V99Q151 51 127 26T52 0H0V33H53ZM113 -218Q113 -226 109 -231T96 -236Q88 -236 83 -231T78 -218Q78 -211 83 -206T96 -201Q104 -201 108 -206T113 -218ZM80 -153Q80 -162 73 -168T57 -175Q48 -175 42 -169T35 -153Q35 -144 41 -137T57 -130Q66 -130 73 -137T80 -153ZM156 -153Q156 -162 150 -168T134 -175Q125 -175 119 -169T112 -153Q112 -144 118 -137T134 -130Q143 -130 149 -137T156 -153Z"  />
<glyph unicode="&#x67E;" arabic-form="medial" horiz-adv-x="186" d="M0 33H118V332H151V33H190V0H0V33ZM80 -153Q80 -162 73 -168T57 -175Q48 -175 42 -169T35 -153Q35 -144 41 -137T57 -130Q66 -130 73 -137T80 -153ZM156 -153Q156 -162 150 -168T134 -175Q125 -175 119 -169T112 -153Q112 -144 118 -137T134 -130Q143 -130 149 -137T156 -153ZM113 -218Q113 -226 109 -231T96 -236Q88 -236 83 -231T78 -218Q78 -211 83 -206T96 -201Q104 -201 108 -206T113 -218Z"  />
<glyph unicode="&#x67E;" arabic-form="terminal" horiz-adv-x="589" d="M286 -153Q286 -162 280 -168T264 -175Q254 -175 248 -169T241 -153Q241 -144 247 -137T264 -130Q273 -130 279 -137T286 -153ZM363 -153Q363 -162 356 -168T340 -175Q331 -175 325 -169T318 -153Q318 -144 324 -137T340 -130Q349 -130 356 -137T363 -153ZM320 -218Q320 -226 315 -231T302 -236Q295 -236 290 -231T285 -218Q285 -211 290 -206T302 -201Q309 -201 314 -206T320 -218ZM521 332H554V33H594V0H141Q90 0 69 26T47 98V224L80 246V96Q80 61 96 47T145 33H521V332Z"  />
<glyph unicode="&#x67E;" arabic-form="isolated" horiz-adv-x="601" d="M286 -153Q286 -162 280 -168T264 -175Q254 -175 248 -169T241 -153Q241 -144 247 -137T264 -130Q273 -130 279 -137T286 -153ZM363 -153Q363 -162 356 -168T340 -175Q331 -175 325 -169T318 -153Q318 -144 324 -137T340 -130Q349 -130 356 -137T363 -153ZM320 -218Q320 -226 315 -231T302 -236Q295 -236 290 -231T285 -218Q285 -211 290 -206T302 -201Q309 -201 314 -206T320 -218ZM80 246V96Q80 61 96 47T145 33H456Q494 33 507 49T521 97V332H554V98Q554 46 528 23T454 0H141Q90 0 69 26T47 98V224L80 246Z"  />
<glyph unicode="&#x686;" arabic-form="initial" horiz-adv-x="343" d="M152 -153Q152 -162 145 -168T129 -175Q121 -175 114 -169T107 -153Q107 -144 114 -137T129 -130Q138 -130 145 -137T152 -153ZM228 -153Q228 -162 222 -168T206 -175Q197 -175 191 -169T184 -153Q184 -144 190 -137T206 -130Q215 -130 221 -137T228 -153ZM185 -218Q185 -226 181 -231T168 -236Q160 -236 155 -231T150 -218Q150 -211 155 -206T168 -201Q176 -201 180 -206T185 -218ZM0 33H201Q234 33 248 49T263 94V238Q263 270 245 284T201 299H75V332H197Q248 332 272 306T296 238V95Q296 46 270 23T195 0H0V33Z"  />
<glyph unicode="&#x686;" arabic-form="medial" horiz-adv-x="332" d="M152 -153Q152 -162 145 -168T129 -175Q121 -175 114 -169T107 -153Q107 -144 114 -137T129 -130Q138 -130 145 -137T152 -153ZM228 -153Q228 -162 222 -168T206 -175Q197 -175 191 -169T184 -153Q184 -144 190 -137T206 -130Q215 -130 221 -137T228 -153ZM185 -218Q185 -226 181 -231T168 -236Q160 -236 155 -231T150 -218Q150 -211 155 -206T168 -201Q176 -201 180 -206T185 -218ZM263 238Q263 270 245 284T201 299H75V332H197Q248 332 272 306T296 238V33H336V0H0V33H263V238Z"  />
<glyph unicode="&#x686;" arabic-form="terminal" horiz-adv-x="368" d="M300 -181Q300 -186 297 -190T287 -195Q282 -195 278 -191T274 -181Q274 -176 278 -172T287 -167Q293 -167 296 -171T300 -181ZM333 -137Q333 -144 329 -149T316 -154Q309 -154 305 -149T300 -137Q300 -130 304 -125T316 -120Q324 -120 328 -125T333 -137ZM275 -137Q275 -144 270 -149T258 -154Q251 -154 246 -149T241 -137Q241 -130 246 -125T258 -120Q265 -120 270 -125T275 -137ZM300 238Q300 270 282 284T238 299H112V332H234Q285 332 309 306T333 238V33H373V0H155Q120 0 100 -21T79 -71Q79 -100 99 -121T154 -142H161L140 -174Q98 -169 72 -141T46 -71Q46 -49 55 -30T78 3T111 25T150 33H300V238Z"  />
<glyph unicode="&#x686;" arabic-form="isolated" horiz-adv-x="381" d="M301 -181Q301 -186 297 -190T288 -195Q283 -195 279 -191T274 -181Q274 -176 278 -172T288 -167Q293 -167 297 -171T301 -181ZM334 -137Q334 -144 329 -149T317 -154Q310 -154 305 -149T300 -137Q300 -130 305 -125T317 -120Q324 -120 329 -125T334 -137ZM275 -137Q275 -144 271 -149T259 -154Q251 -154 247 -149T242 -137Q242 -130 246 -125T259 -120Q266 -120 270 -125T275 -137ZM140 -174Q98 -169 72 -141T46 -71Q46 -49 55 -30T78 3T111 25T150 33H238Q271 33 285 49T300 94V238Q300 270 282 284T238 299H112V332H234Q285 332 309 306T333 238V95Q333 46 307 23T232 0H155Q120 0 100 -21T79 -71Q79 -100 99 -121T154 -142H161L140 -174Z"  />
<glyph unicode="&#x688;" arabic-form="terminal" horiz-adv-x="318" d="M232 458Q248 458 248 472V508Q248 515 245 521T234 527Q226 527 219 524L175 507Q159 501 159 487V458H232ZM159 421L140 411V440H103L111 458H140V586H159V521L220 544Q227 547 235 547Q248 547 258 538T268 515V469Q268 451 257 446T234 440H159V421ZM249 189Q249 248 220 273T143 299H102V332H142Q181 332 207 321T251 290T275 246T283 194V33H322V0H47V33H249V189Z"  />
<glyph unicode="&#x688;" arabic-form="isolated" horiz-adv-x="329" d="M232 458Q248 458 248 472V508Q248 515 245 521T234 527Q226 527 219 524L175 507Q159 501 159 487V458H232ZM159 421L140 411V440H103L111 458H140V586H159V521L220 544Q227 547 235 547Q248 547 258 538T268 515V469Q268 451 257 446T234 440H159V421ZM142 332Q181 332 207 321T251 290T275 246T283 194V95Q283 46 256 23T184 0H47V33H191Q218 33 233 47T249 93V189Q249 248 220 273T143 299H102V332H142Z"  />
<glyph unicode="&#x691;" arabic-form="terminal" horiz-adv-x="224" d="M189 33H228V0H189V-39Q189 -94 169 -124T108 -175L86 -146Q105 -136 118 -127T140 -107T151 -82T155 -48V332H189V33ZM153 458Q169 458 169 472V508Q169 515 166 521T155 527Q147 527 140 524L96 507Q80 501 80 487V458H153ZM80 421L61 411V440H24L32 458H61V586H80V521L141 544Q148 547 156 547Q169 547 179 538T189 515V469Q189 451 178 446T155 440H80V421Z"  />
<glyph unicode="&#x691;" arabic-form="isolated" horiz-adv-x="235" d="M188 -39Q188 -94 169 -124T108 -175L85 -146Q104 -136 117 -127T139 -107T151 -82T155 -48V332H188V-39ZM153 458Q169 458 169 472V508Q169 515 166 521T155 527Q147 527 140 524L96 507Q80 501 80 487V458H153ZM80 421L61 411V440H24L32 458H61V586H80V521L141 544Q148 547 156 547Q169 547 179 538T189 515V469Q189 451 178 446T155 440H80V421Z"  />
<glyph unicode="&#x698;" arabic-form="terminal" horiz-adv-x="174" d="M68 461Q68 452 62 446T46 439Q37 439 31 445T24 461Q24 470 30 477T46 484Q55 484 61 477T68 461ZM145 461Q145 452 138 446T122 439Q114 439 107 445T100 461Q100 470 107 477T122 484Q131 484 138 477T145 461ZM102 527Q102 519 97 515T85 510Q77 510 72 514T66 527Q66 534 71 539T85 545Q92 545 97 540T102 527ZM140 33H179V0H140V-39Q140 -94 120 -124T59 -175L37 -146Q56 -136 69 -127T91 -107T102 -82T106 -48V332H140V33Z"  />
<glyph unicode="&#x698;" arabic-form="isolated" horiz-adv-x="186" d="M68 461Q68 452 62 446T46 439Q37 439 31 445T24 461Q24 470 30 477T46 484Q55 484 61 477T68 461ZM145 461Q145 452 138 446T122 439Q114 439 107 445T100 461Q100 470 107 477T122 484Q131 484 138 477T145 461ZM102 527Q102 519 97 515T85 510Q77 510 72 514T66 527Q66 534 71 539T85 545Q92 545 97 540T102 527ZM140 -39Q140 -94 120 -124T59 -175L37 -146Q56 -136 69 -127T91 -107T102 -82T106 -48V332H140V-39Z"  />
<glyph unicode="&#x6A4;" arabic-form="initial" horiz-adv-x="342" d="M169 461Q169 452 163 446T148 440Q138 440 132 446T125 461Q125 471 131 477T148 484Q157 484 163 478T169 461ZM246 461Q246 452 240 446T224 440Q215 440 209 446T202 461Q202 471 208 477T224 484Q233 484 239 478T246 461ZM204 527Q204 520 199 515T186 510Q178 510 173 515T168 527Q168 535 173 540T186 545Q193 545 198 540T204 527ZM0 33H75V236Q75 287 102 309T176 332H295V95Q295 49 271 25T196 0H0V33ZM197 33Q262 33 262 94V299H170Q137 299 123 283T108 235V33H197Z"  />
<glyph unicode="&#x6A4;" arabic-form="medial" horiz-adv-x="330" d="M169 461Q169 452 163 446T148 440Q138 440 132 446T125 461Q125 471 131 477T148 484Q157 484 163 478T169 461ZM246 461Q246 452 240 446T224 440Q215 440 209 446T202 461Q202 471 208 477T224 484Q233 484 239 478T246 461ZM204 527Q204 520 199 515T186 510Q178 510 173 515T168 527Q168 535 173 540T186 545Q193 545 198 540T204 527ZM262 299H170Q137 299 123 283T108 235V33H262V299ZM0 0V33H75V236Q75 287 102 309T176 332H295V33H335V0H0Z"  />
<glyph unicode="&#x6A4;" arabic-form="terminal" horiz-adv-x="589" d="M143 0Q115 0 97 8T67 29T52 60T47 97V224L80 246V97Q80 33 141 33H334V236Q334 287 361 309T435 332H554V33H594V0H143ZM428 461Q428 452 422 446T407 440Q397 440 391 446T384 461Q384 471 390 477T407 484Q416 484 422 478T428 461ZM505 461Q505 452 499 446T483 440Q474 440 468 446T461 461Q461 471 467 477T483 484Q493 484 499 478T505 461ZM463 527Q463 520 458 515T445 510Q437 510 433 515T428 527Q428 535 432 540T445 545Q452 545 457 540T463 527ZM521 299H429Q396 299 382 283T367 235V33H521V299Z"  />
<glyph unicode="&#x6A4;" arabic-form="isolated" horiz-adv-x="601" d="M463 527Q463 520 458 515T445 510Q437 510 433 515T428 527Q428 535 432 540T445 545Q452 545 457 540T463 527ZM428 461Q428 452 422 446T407 440Q397 440 391 446T384 461Q384 471 390 477T407 484Q416 484 422 478T428 461ZM505 461Q505 452 499 446T483 440Q474 440 468 446T461 461Q461 471 467 477T483 484Q493 484 499 478T505 461ZM80 246V97Q80 33 141 33H334V236Q334 287 361 309T435 332H554V95Q554 49 530 25T455 0H143Q115 0 97 8T67 29T52 60T47 97V224L80 246ZM456 33Q521 33 521 94V299H429Q396 299 382 283T367 235V33H456Z"  />
<glyph unicode="&#x6A9;" arabic-form="initial" horiz-adv-x="377" d="M0 33H235Q267 33 281 49T296 94V237Q296 272 279 285T235 299H76V369Q76 420 102 443T176 467H282V433H169Q134 433 122 416T109 370V332H231Q283 332 306 306T329 237V96Q329 46 303 23T229 0H0V33Z"  />
<glyph unicode="&#x6A9;" arabic-form="medial" horiz-adv-x="365" d="M0 33H297V237Q297 272 280 285T236 299H77V369Q77 420 103 443T177 467H283V433H170Q135 433 123 416T110 370V332H232Q284 332 307 306T330 237V33H370V0H0V33Z"  />
<glyph unicode="&#x6A9;" arabic-form="terminal" horiz-adv-x="589" d="M521 237Q521 272 504 285T460 299H301V369Q301 420 327 443T401 467H507V433H394Q359 433 347 416T334 370V332H456Q508 332 531 306T554 237V33H594V0H147Q91 0 69 27T47 96V224L80 246V94Q80 33 141 33H521V237Z"  />
<glyph unicode="&#x6A9;" arabic-form="isolated" horiz-adv-x="587" d="M80 94Q80 33 141 33H460Q492 33 506 49T521 94V237Q521 272 504 285T460 299H301V369Q301 420 327 443T401 467H507V433H394Q359 433 347 416T334 370V332H456Q508 332 531 306T554 237V96Q554 46 528 23T454 0H147Q91 0 69 27T47 96V224L80 246V94Z"  />
<glyph unicode="&#x6AF;" arabic-form="initial" horiz-adv-x="377" d="M151 574Q108 574 77 549V583Q94 598 114 602T160 607H283V574H151ZM0 33H235Q267 33 281 49T296 94V237Q296 272 279 285T235 299H76V369Q76 420 102 443T176 467H282V433H169Q134 433 122 416T109 370V332H231Q283 332 306 306T329 237V96Q329 46 303 23T229 0H0V33Z"  />
<glyph unicode="&#x6AF;" arabic-form="medial" horiz-adv-x="365" d="M151 574Q108 574 77 549V583Q94 598 114 602T160 607H283V574H151ZM0 33H297V237Q297 272 280 285T236 299H77V369Q77 420 103 443T177 467H283V433H170Q135 433 123 416T110 370V332H232Q284 332 307 306T330 237V33H370V0H0V33Z"  />
<glyph unicode="&#x6AF;" arabic-form="terminal" horiz-adv-x="589" d="M521 237Q521 272 504 285T460 299H301V369Q301 420 327 443T401 467H507V433H394Q359 433 347 416T334 370V332H456Q508 332 531 306T554 237V33H594V0H147Q91 0 69 27T47 96V224L80 246V94Q80 33 141 33H521V237ZM375 574Q332 574 301 549V583Q318 598 338 602T384 607H507V574H375Z"  />
<glyph unicode="&#x6AF;" arabic-form="isolated" horiz-adv-x="601" d="M375 574Q332 574 301 549V583Q318 598 338 602T384 607H507V574H375ZM80 94Q80 33 141 33H460Q492 33 506 49T521 94V237Q521 272 504 285T460 299H301V369Q301 420 327 443T401 467H507V433H394Q359 433 347 416T334 370V332H456Q508 332 531 306T554 237V96Q554 46 528 23T454 0H147Q91 0 69 27T47 96V224L80 246V94Z"  />
<glyph unicode="&#x6BA;" arabic-form="initial" horiz-adv-x="197" d="M156 461Q156 452 150 446T134 440Q125 440 119 446T112 461Q112 471 118 477T134 484Q143 484 149 478T156 461ZM53 33Q90 33 104 49T118 97V332H151V99Q151 51 127 26T52 0H0V33H53Z"  />
<glyph unicode="&#x6BA;" arabic-form="medial" horiz-adv-x="186" d="M0 33H118V332H151V33H190V0H0V33ZM156 461Q156 452 150 446T134 440Q125 440 119 446T112 461Q112 471 118 477T134 484Q143 484 149 478T156 461Z"  />
<glyph unicode="&#x6BA;" arabic-form="terminal" horiz-adv-x="477" d="M442 33H482V0H442V-29Q442 -73 423 -101T374 -147T310 -171T244 -178Q210 -178 175 -171T112 -146T65 -100T47 -28V160L80 183V-28Q80 -61 95 -83T133 -119T186 -138T244 -144Q277 -144 306 -138T359 -118T395 -82T409 -29V332H442V33Z"  />
<glyph unicode="&#x6BA;" arabic-form="isolated" horiz-adv-x="489" d="M442 -29Q442 -73 423 -101T374 -147T310 -171T244 -178Q210 -178 175 -171T112 -146T65 -100T47 -28V160L80 183V-28Q80 -61 95 -83T133 -119T186 -138T244 -144Q277 -144 306 -138T359 -118T395 -82T409 -29V332H442V-29Z"  />
<glyph unicode="&#x6BE;" arabic-form="initial" horiz-adv-x="417" d="M149 7Q141 2 136 1T121 0H0V33H94Q75 55 75 83Q75 113 96 134T149 156Q180 156 201 135T222 83Q222 56 202 33H275Q307 33 322 49T337 94V237Q337 270 319 284T275 299H75V332H272Q323 332 346 306T370 236V95Q370 68 362 50T340 21T308 5T271 0H176Q168 0 162 1T149 7ZM197 83Q197 103 183 117T148 132Q128 132 114 118T100 83Q100 63 114 49T148 34Q169 34 183 48T197 83Z"  />
<glyph unicode="&#x6BE;" arabic-form="medial" horiz-adv-x="403" d="M337 237Q337 270 319 284T275 299H75V332H272Q323 332 346 306T370 236V33H408V0H176Q168 0 162 1T149 7Q141 2 136 1T121 0H0V33H94Q75 55 75 83Q75 113 96 134T149 156Q180 156 201 135T222 83Q222 56 202 33H337V237ZM197 83Q197 103 183 117T148 132Q128 132 114 118T100 83Q100 63 114 49T148 34Q169 34 183 48T197 83Z"  />
<glyph unicode="&#x6BE;" arabic-form="terminal" horiz-adv-x="403" d="M337 237Q337 270 319 284T275 299H75V332H272Q323 332 346 306T370 236V33H408V0H176Q168 0 162 1T149 7Q141 2 136 1T121 0H0V33H94Q75 55 75 83Q75 113 96 134T149 156Q180 156 201 135T222 83Q222 56 202 33H337V237ZM197 83Q197 103 183 117T148 132Q128 132 114 118T100 83Q100 63 114 49T148 34Q169 34 183 48T197 83Z"  />
<glyph unicode="&#x6BE;" arabic-form="isolated" horiz-adv-x="417" d="M149 7Q141 2 136 1T121 0H0V33H94Q75 55 75 83Q75 113 96 134T149 156Q180 156 201 135T222 83Q222 56 202 33H275Q307 33 322 49T337 94V237Q337 270 319 284T275 299H75V332H272Q323 332 346 306T370 236V95Q370 68 362 50T340 21T308 5T271 0H176Q168 0 162 1T149 7ZM197 83Q197 103 183 117T148 132Q128 132 114 118T100 83Q100 63 114 49T148 34Q169 34 183 48T197 83Z"  />
<glyph unicode="&#x6C0;" arabic-form="terminal" horiz-adv-x="303" d="M144 0Q91 0 69 27T47 95V237Q47 289 75 310T147 332H267V33H307V0H234V20L209 0H144ZM234 299H142Q107 299 94 282T80 235V94Q80 33 141 33H234V299ZM186 519H169Q155 519 145 512T134 489Q134 472 144 466T167 459H205V440H92V459H124Q118 465 116 473T113 490Q113 507 125 522T163 538H186V519Z"  />
<glyph unicode="&#x6C0;" arabic-form="isolated" horiz-adv-x="314" d="M138 299Q107 299 94 282T80 237V101Q80 80 87 67T105 46T129 37T157 34Q172 34 186 37T210 47T227 68T234 101V299H138ZM267 91Q267 65 257 48T231 20T196 5T157 0Q137 0 118 4T82 19T57 47T47 91V239Q47 286 74 309T146 332H267V91ZM186 519H169Q155 519 145 512T134 489Q134 472 144 466T167 459H205V440H92V459H124Q118 465 116 473T113 490Q113 507 125 522T163 538H186V519Z"  />
<glyph unicode="&#x6C1;" arabic-form="initial" horiz-adv-x="311" d="M0 0V33H169Q231 33 231 94V332H265V94Q265 52 247 33T197 0L76 -120Q71 -125 71 -128Q71 -133 75 -138T80 -152Q80 -161 74 -168T57 -175Q46 -175 41 -168T35 -152Q35 -141 46 -130L176 0H0Z"  />
<glyph unicode="&#x6C1;" arabic-form="medial" horiz-adv-x="327" d="M0 33H42Q83 33 97 6T111 -64Q111 -74 114 -88T126 -114T148 -136T185 -145Q220 -145 239 -121T259 -64Q260 -19 275 7T332 33V0Q305 0 298 -17T290 -68Q289 -96 280 -117T255 -151T222 -171T185 -178Q169 -178 151 -173T117 -154T91 -120T79 -68Q78 -47 76 -34T69 -14T55 -3T29 0H0V33Z"  />
<glyph unicode="&#x6C1;" arabic-form="terminal" horiz-adv-x="556" d="M560 0Q528 0 508 22T487 84V296Q430 293 392 268T332 205T300 118T290 21V0H267Q223 0 184 10T113 44T64 105T46 197Q46 209 46 222T48 245L83 268Q81 249 80 235T79 208Q79 123 124 79T258 33Q259 113 279 170T334 263T414 315T510 332H520V87Q520 61 531 48T560 34V0Z"  />
<glyph unicode="&#x6C1;" arabic-form="isolated" horiz-adv-x="314" d="M138 299Q107 299 94 282T80 237V101Q80 80 87 67T105 46T129 37T157 34Q172 34 186 37T210 47T227 68T234 101V299H138ZM267 91Q267 65 257 48T231 20T196 5T157 0Q137 0 118 4T82 19T57 47T47 91V239Q47 286 74 309T146 332H267V91Z"  />
<glyph unicode="&#x6C2;" horiz-adv-x="314" d="M138 299Q107 299 94 282T80 237V101Q80 80 87 67T105 46T129 37T157 34Q172 34 186 37T210 47T227 68T234 101V299H138ZM267 91Q267 65 257 48T231 20T196 5T157 0Q137 0 118 4T82 19T57 47T47 91V239Q47 286 74 309T146 332H267V91ZM186 519H169Q155 519 145 512T134 489Q134 472 144 466T167 459H205V440H92V459H124Q118 465 116 473T113 490Q113 507 125 522T163 538H186V519Z"  />
<glyph unicode="&#x6C3;" horiz-adv-x="314" d="M138 299Q107 299 94 282T80 237V101Q80 80 87 67T105 46T129 37T157 34Q172 34 186 37T210 47T227 68T234 101V299H138ZM267 91Q267 65 257 48T231 20T196 5T157 0Q137 0 118 4T82 19T57 47T47 91V239Q47 286 74 309T146 332H267V91ZM142 461Q142 452 136 446T120 440Q111 440 104 446T97 461Q97 471 104 477T120 484Q129 484 135 478T142 461ZM218 461Q218 452 212 446T197 440Q187 440 181 446T174 461Q174 471 180 477T197 484Q206 484 212 478T218 461Z"  />
<glyph unicode="&#x6CC;" arabic-form="initial" horiz-adv-x="197" d="M80 -153Q80 -162 73 -168T57 -175Q48 -175 42 -169T35 -153Q35 -144 41 -137T57 -130Q66 -130 73 -137T80 -153ZM156 -153Q156 -162 150 -168T134 -175Q125 -175 119 -169T112 -153Q112 -144 118 -137T134 -130Q143 -130 149 -137T156 -153ZM53 33Q90 33 104 49T118 97V332H151V99Q151 51 127 26T52 0H0V33H53Z"  />
<glyph unicode="&#x6CC;" arabic-form="medial" horiz-adv-x="186" d="M0 33H118V332H151V33H190V0H0V33ZM80 -153Q80 -162 73 -168T57 -175Q48 -175 42 -169T35 -153Q35 -144 41 -137T57 -130Q66 -130 73 -137T80 -153ZM156 -153Q156 -162 150 -168T134 -175Q125 -175 119 -169T112 -153Q112 -144 118 -137T134 -130Q143 -130 149 -137T156 -153Z"  />
<glyph unicode="&#x6CC;" arabic-form="terminal" horiz-adv-x="477" d="M332 0V33H482V0H442V-27Q442 -73 422 -102T371 -148T307 -171T244 -178Q213 -178 179 -172T115 -149T66 -103T47 -28V160L80 183V-28Q80 -66 97 -89T140 -124T194 -140T244 -144Q272 -144 301 -138T355 -119T394 -83T409 -27V0H332Z"  />
<glyph unicode="&#x6CC;" arabic-form="isolated" horiz-adv-x="489" d="M442 -27Q442 -73 422 -102T371 -148T307 -171T244 -178Q213 -178 179 -172T115 -149T66 -103T47 -28V160L80 183V-28Q80 -66 97 -89T140 -124T194 -140T244 -144Q272 -144 301 -138T355 -119T394 -83T409 -27V0H320Q269 0 245 26T221 98V234Q221 280 245 306T320 332H442V299H314Q282 299 268 281T254 234V97Q254 63 270 48T314 33H442V-27Z"  />
<glyph unicode="&#x6D2;" arabic-form="initial" horiz-adv-x="197" d="M80 -153Q80 -162 73 -168T57 -175Q48 -175 42 -169T35 -153Q35 -144 41 -137T57 -130Q66 -130 73 -137T80 -153ZM156 -153Q156 -162 150 -168T134 -175Q125 -175 119 -169T112 -153Q112 -144 118 -137T134 -130Q143 -130 149 -137T156 -153ZM53 33Q90 33 104 49T118 97V332H151V99Q151 51 127 26T52 0H0V33H53Z"  />
<glyph unicode="&#x6D2;" arabic-form="medial" horiz-adv-x="186" d="M0 33H118V332H151V33H190V0H0V33ZM80 -153Q80 -162 73 -168T57 -175Q48 -175 42 -169T35 -153Q35 -144 41 -137T57 -130Q66 -130 73 -137T80 -153ZM156 -153Q156 -162 150 -168T134 -175Q125 -175 119 -169T112 -153Q112 -144 118 -137T134 -130Q143 -130 149 -137T156 -153Z"  />
<glyph unicode="&#x6D2;" arabic-form="terminal" horiz-adv-x="672" d="M153 0Q117 0 99 -22T80 -70Q80 -99 98 -120T154 -142H622L600 -175H149Q128 -175 110 -167T77 -146T55 -113T47 -71Q47 -49 55 -30T77 3T110 25T150 33H677V0H153Z"  />
<glyph unicode="&#x6D2;" arabic-form="isolated" horiz-adv-x="687" d="M365 369Q365 397 375 416T401 446T436 462T475 467Q496 467 515 462T551 446T576 416T586 369V330H553V364Q553 385 547 398T529 419T504 430T475 433Q442 433 420 419T398 364V299H143Q108 299 94 283T80 234V93Q80 61 97 47T146 33H640L619 0H148Q93 0 70 26T47 93V236Q47 287 74 309T146 332H365V369Z"  />
<glyph unicode="&#x6D3;" arabic-form="initial" horiz-adv-x="197" d="M53 33Q90 33 104 49T118 97V332H151V99Q151 51 127 26T52 0H0V33H53ZM132 519H115Q101 519 91 512T80 489Q80 472 90 466T113 459H151V440H38V459H70Q64 465 62 473T59 490Q59 507 71 522T109 538H132V519Z"  />
<glyph unicode="&#x6D3;" arabic-form="medial" horiz-adv-x="186" d="M0 33H118V332H151V33H190V0H0V33ZM132 519H115Q101 519 91 512T80 489Q80 472 90 466T113 459H151V440H38V459H70Q64 465 62 473T59 490Q59 507 71 522T109 538H132V519Z"  />
<glyph unicode="&#x6D3;" arabic-form="terminal" horiz-adv-x="671" d="M153 0Q117 0 99 -22T80 -70Q80 -99 98 -120T154 -142H622L600 -175H149Q128 -175 110 -167T77 -146T55 -113T47 -71Q47 -49 55 -30T77 3T110 25T150 33H677V0H153ZM246 219H229Q215 219 205 212T194 189Q194 172 204 166T227 159H265V140H152V159H184Q178 165 176 173T173 190Q173 207 185 222T223 238H246V219Z"  />
<glyph unicode="&#x6D3;" arabic-form="isolated" horiz-adv-x="687" d="M365 369Q365 397 375 416T401 446T436 462T475 467Q496 467 515 462T551 446T576 416T586 369V330H553V364Q553 385 547 398T529 419T504 430T475 433Q442 433 420 419T398 364V299H143Q108 299 94 283T80 234V93Q80 61 97 47T146 33H640L619 0H148Q93 0 70 26T47 93V236Q47 287 74 309T146 332H365V369ZM228 519H211Q197 519 187 512T176 489Q176 472 186 466T209 459H247V440H134V459H166Q160 465 158 473T155 490Q155 507 167 522T205 538H228V519Z"  />
<glyph unicode="&#x6F0;" horiz-adv-x="191" d="M144 220Q144 200 130 186T95 171Q75 171 61 185T47 220Q47 240 61 254T95 268Q115 268 129 254T144 220Z"  />
<glyph unicode="&#x6F1;" horiz-adv-x="127" d="M80 0H47V467H80V0Z"  />
<glyph unicode="&#x6F2;" horiz-adv-x="279" d="M232 433H139Q104 433 92 414T80 370V0H47V371Q47 417 73 442T144 467H232V433Z"  />
<glyph unicode="&#x6F3;" horiz-adv-x="477" d="M80 0H47V467H80V250H222V467H255V250H335Q360 250 378 266T397 313V467H430V312Q430 274 406 245T329 216H80V0Z"  />
<glyph unicode="&#x6F4;" horiz-adv-x="364" d="M80 251H138Q207 251 239 267T284 325H317Q311 290 294 269T253 237T200 221T143 217H80V0H47V467H80V363Q112 412 161 438T267 467V433Q226 433 192 418T133 378T94 324T80 266V251Z"  />
<glyph unicode="&#x6F5;" horiz-adv-x="377" d="M188 27Q172 13 156 6T119 -1Q87 -1 67 22T46 83Q46 97 48 111T52 139L87 384Q89 399 95 414T114 441T144 460T188 468Q215 468 233 461T264 441T282 414T290 384L325 139Q327 125 328 111T330 83Q330 45 310 22T257 -1Q219 -1 188 27ZM188 73Q199 57 215 45T251 33Q273 33 285 45T297 85Q297 96 296 107T293 129L262 372Q257 407 239 421T188 435Q156 435 138 420T114 372L83 129Q81 118 80 107T78 85Q78 57 91 45T125 33Q145 33 161 45T188 73Z"  />
<glyph unicode="&#x6F6;" horiz-adv-x="395" d="M47 0Q54 30 68 60T102 117T145 169T193 212Q154 230 128 261T101 338Q101 368 113 392T144 432T190 458T245 467Q259 467 272 465T299 460V426Q285 430 273 432T246 434Q197 434 166 407T134 340Q134 319 142 303T162 273T191 251T224 234Q241 244 253 251T279 264T309 275T349 287V253Q298 239 256 214T179 156T121 82T80 0H47Z"  />
<glyph unicode="&#x6F7;" horiz-adv-x="381" d="M145 79Q146 71 148 63T156 48T169 37T190 33Q216 33 224 47T236 79L301 467H334L271 85Q269 70 265 55T251 28T228 8T190 0Q167 0 153 7T130 27T117 55T110 85L47 467H80L145 79Z"  />
<glyph unicode="&#x6F8;" horiz-adv-x="381" d="M80 0H47L110 382Q112 397 116 412T129 439T152 459T190 467Q213 467 227 459T251 439T264 412T271 382L334 0H301L236 388Q233 405 225 419T190 434Q164 434 156 419T145 388L80 0Z"  />
<glyph unicode="&#x6F9;" horiz-adv-x="314" d="M146 216Q93 216 70 243T47 311V372Q47 421 74 444T145 467H267V0H234V216H146ZM234 433H141Q80 433 80 371V312Q80 286 93 268T139 250H234V433Z"  />
<glyph unicode="&#x1E80;" horiz-adv-x="581" d="M431 0H393L291 414L188 0H151L22 467H58L170 52L272 467H310L412 52L523 467H559L431 0ZM311 520L231 585H286L351 520H311Z"  />
<glyph unicode="&#x1E81;" horiz-adv-x="442" d="M334 0H301L222 292L143 0H109L14 332H47L126 42L204 332H239L316 42L395 332H428L334 0ZM241 383L161 448H216L281 383H241Z"  />
<glyph unicode="&#x1E82;" horiz-adv-x="581" d="M431 0H393L291 414L188 0H151L22 467H58L170 52L272 467H310L412 52L523 467H559L431 0ZM272 520H231L297 585H351L272 520Z"  />
<glyph unicode="&#x1E83;" horiz-adv-x="442" d="M334 0H301L222 292L143 0H109L14 332H47L126 42L204 332H239L316 42L395 332H428L334 0ZM202 383H161L227 448H281L202 383Z"  />
<glyph unicode="&#x1E84;" horiz-adv-x="581" d="M431 0H393L291 414L188 0H151L22 467H58L170 52L272 467H310L412 52L523 467H559L431 0ZM376 556Q376 545 369 538T351 531Q340 531 333 538T326 556Q326 567 333 574T351 581Q361 581 368 574T376 556ZM255 556Q255 545 248 538T229 531Q219 531 212 538T205 556Q205 567 212 574T229 581Q240 581 247 574T255 556Z"  />
<glyph unicode="&#x1E85;" horiz-adv-x="442" d="M334 0H301L222 292L143 0H109L14 332H47L126 42L204 332H239L316 42L395 332H428L334 0ZM307 419Q307 408 300 401T282 394Q271 394 264 401T257 419Q257 430 264 437T282 444Q292 444 299 437T307 419ZM186 419Q186 408 179 401T160 394Q150 394 143 401T136 419Q136 430 143 437T160 444Q171 444 178 437T186 419Z"  />
<glyph unicode="&#x1EF2;" horiz-adv-x="378" d="M207 201V0H172V201L10 467H48L189 232L331 467H368L207 201ZM199 520L119 585H174L239 520H199Z"  />
<glyph unicode="&#x1EF3;" horiz-adv-x="297" d="M153 -35Q135 -85 114 -111T48 -138Q31 -138 18 -135T-3 -126L4 -96Q13 -101 23 -105T50 -109Q64 -109 74 -104T94 -86T111 -55T130 -8L136 9L4 332H40L152 52L251 332H287L153 -35ZM155 383L75 448H130L195 383H155Z"  />
<glyph unicode="&#x200C;" horiz-adv-x="0" d="M39 323L31 316L12 337V-49H1V337L-19 316L-27 323L-1 349L-27 374L-19 382L6 356L31 382L39 374L14 349L39 323Z"  />
<glyph unicode="&#x200D;" horiz-adv-x="0" d="M10 -41H0V352H10V-41Z"  />
<glyph unicode="&#x200E;" horiz-adv-x="0" d="M73 348L41 315L34 323L54 343H12V-45H1V353H53L34 373L41 381L73 348Z"  />
<glyph unicode="&#x200F;" horiz-adv-x="0" d="M-29 381L-22 373L-41 353H10V-50H-1V343H-43L-22 323L-29 315L-62 348L-29 381Z"  />
<glyph unicode="&#x2013;" horiz-adv-x="386" d="M18 178V210H368V178H18Z"  />
<glyph unicode="&#x2014;" horiz-adv-x="736" d="M18 178V210H718V178H18Z"  />
<glyph unicode="&#x2018;" horiz-adv-x="133" d="M43 422Q43 445 60 466T104 505L112 483Q109 481 104 477T93 467T84 456T80 446Q80 441 83 438T90 431T97 422T100 409Q100 399 93 392T72 384Q61 384 52 394T43 422Z"  />
<glyph unicode="&#x2019;" horiz-adv-x="133" d="M90 467Q90 444 73 423T29 384L21 406Q24 408 29 412T40 422T49 432T53 443Q53 448 50 451T43 458T36 467T33 480Q33 490 40 497T61 505Q72 505 81 495T90 467Z"  />
<glyph unicode="&#x201A;" horiz-adv-x="133" d="M90 12Q90 -11 73 -32T29 -71L21 -49Q24 -47 29 -43T40 -33T49 -23T53 -12Q53 -7 50 -4T43 3T36 12T33 25Q33 35 40 42T61 50Q72 50 81 40T90 12Z"  />
<glyph unicode="&#x201C;" horiz-adv-x="211" d="M43 422Q43 445 60 466T104 505L112 483Q109 481 104 477T93 467T84 456T80 446Q80 441 83 438T90 431T97 422T100 409Q100 399 93 392T72 384Q61 384 52 394T43 422ZM121 422Q121 445 138 466T182 505L190 483Q187 481 182 477T171 467T162 456T158 446Q158 441 161 438T168 431T175 422T178 409Q178 399 171 392T150 384Q139 384 130 394T121 422Z"  />
<glyph unicode="&#x201D;" horiz-adv-x="211" d="M168 467Q168 444 151 423T107 384L99 406Q102 408 107 412T118 422T127 432T131 443Q131 448 128 451T121 458T114 467T111 480Q111 490 118 497T139 505Q150 505 159 495T168 467ZM90 467Q90 444 73 423T29 384L21 406Q24 408 29 412T40 422T49 432T53 443Q53 448 50 451T43 458T36 467T33 480Q33 490 40 497T61 505Q72 505 81 495T90 467Z"  />
<glyph unicode="&#x201E;" horiz-adv-x="211" d="M169 12Q169 -11 152 -32T108 -71L100 -49Q103 -47 108 -43T119 -33T128 -23T132 -12Q132 -7 129 -4T122 3T115 12T112 25Q112 35 119 42T140 50Q151 50 160 40T169 12ZM91 12Q91 -11 74 -32T30 -71L22 -49Q25 -47 30 -43T41 -33T50 -23T54 -12Q54 -7 51 -4T44 3T37 12T34 25Q34 35 41 42T62 50Q73 50 82 40T91 12Z"  />
<glyph unicode="&#x2020;" horiz-adv-x="298" d="M165 317L170 -46H127L132 317L49 310V358L132 351L127 512H170L165 351L249 358V310L165 317Z"  />
<glyph unicode="&#x2021;" horiz-adv-x="298" d="M165 115L170 -46H127L132 115L49 108V156L132 149V317L49 310V358L132 351L127 512H170L165 351L249 358V310L165 317V149L249 156V108L165 115Z"  />
<glyph unicode="&#x2022;" horiz-adv-x="288" d="M245 211Q245 190 237 172T215 141T183 119T144 111Q123 111 105 119T73 140T51 172T43 211Q43 232 51 250T72 282T104 304T144 312Q165 312 183 304T215 283T237 251T245 211Z"  />
<glyph unicode="&#x2026;" horiz-adv-x="396" d="M355 24Q355 13 347 5T328 -4Q317 -4 309 4T301 24Q301 35 309 42T328 50Q339 50 347 43T355 24ZM236 24Q236 13 228 5T209 -4Q198 -4 190 4T182 24Q182 35 190 42T209 50Q220 50 228 43T236 24ZM117 24Q117 13 109 5T90 -4Q79 -4 71 4T63 24Q63 35 71 42T90 50Q101 50 109 43T117 24Z"  />
<glyph unicode="&#x2030;" horiz-adv-x="949" d="M914 126Q914 86 904 61T878 20T840 0T796 -6Q773 -6 752 -1T714 20T687 60T677 126Q677 166 687 192T714 233T752 254T796 260Q818 260 839 254T877 233T904 192T914 126ZM619 126Q619 86 609 61T582 20T544 0T500 -6Q478 -6 457 -1T419 20T392 60T381 126Q381 166 391 192T418 233T456 254T500 260Q522 260 543 254T582 233T609 192T619 126ZM211 -12H179L432 479H464L211 -12ZM272 340Q272 300 262 275T236 235T198 215T154 209Q131 209 110 214T72 234T45 274T35 340Q35 380 45 406T72 447T110 469T154 475Q176 475 197 469T235 448T262 406T272 340ZM883 126Q883 160 876 181T856 214T828 230T796 234Q779 234 764 230T736 215T716 182T708 126Q708 91 715 71T735 39T763 25T796 21Q812 21 828 24T856 39T875 70T883 126ZM588 126Q588 160 581 181T561 214T533 230T500 234Q483 234 468 230T440 215T420 182T412 126Q412 91 419 71T439 39T467 25T500 21Q517 21 533 24T561 39T580 70T588 126ZM241 340Q241 374 234 395T214 428T186 444T154 448Q137 448 122 444T94 429T74 396T66 340Q66 305 73 285T93 253T121 239T154 235Q170 235 186 238T214 253T233 284T241 340Z"  />
<glyph unicode="&#x2039;" horiz-adv-x="198" d="M132 66L47 186L132 303H172L94 186L172 66H132Z"  />
<glyph unicode="&#x203A;" horiz-adv-x="198" d="M26 66L104 186L26 303H66L151 186L66 66H26Z"  />
<glyph unicode="&#x2044;" horiz-adv-x="321" d="M50 -12H18L271 479H303L50 -12Z"  />
<glyph unicode="&#x20AC;" horiz-adv-x="432" d="M374 423Q357 432 332 438T279 444Q253 444 228 436T181 410T145 360T123 281H349L344 252H120V213H333L327 184H122Q128 126 149 94T196 46T246 27T285 24Q304 24 330 30T377 45L370 8Q352 1 326 -3T281 -7Q202 -6 150 40T87 184H32V213H85V252H32V281H88Q94 324 108 359T145 420T201 460T275 475Q320 475 345 467T381 454L374 423Z"  />
<glyph unicode="&#x2113;" horiz-adv-x="325" d="M266 40Q253 25 232 9T181 -8Q150 -8 133 11Q109 35 109 89V184L67 134L45 155L109 229V399Q109 456 128 483T181 510Q197 510 208 504T227 487T238 465T241 442Q241 392 219 347T165 254Q160 248 155 240T144 226V83Q144 50 156 36T186 22Q206 22 221 33T249 59L266 40ZM207 439Q207 453 202 466T181 480Q164 480 154 463T144 396V275Q151 283 156 294Q179 331 193 367T207 439Z"  />
<glyph unicode="&#x2122;" horiz-adv-x="418" d="M337 284V431L291 284H264L218 431V284H191V467H235L277 321L320 467H364V284H337ZM154 441H112V284H85V441H43V467H158L154 441Z"  />
<glyph unicode="&#x2126;" horiz-adv-x="469" d="M289 0V30Q305 45 324 65T359 114T385 179T396 264Q396 307 386 344T355 409T305 451T235 467Q198 467 168 452T116 409T83 345T71 265Q71 219 81 183T106 118T141 68T179 30V0H36V30H139Q123 43 105 64T72 114T46 181T35 266Q35 315 49 357T90 431T154 480T236 498Q282 498 318 482T379 435T417 362T431 268Q431 226 422 189T398 122T365 69T328 30H432V0H289Z"  />
<glyph unicode="&#x212E;" horiz-adv-x="446" d="M113 199V62Q159 18 223 18Q274 18 309 42T369 109L394 93Q363 46 324 19T223 -8Q178 -8 142 8T81 53T42 119T28 200Q28 243 41 281T80 347T141 391T223 407Q269 407 305 391T367 347T405 280T421 199H113ZM332 336Q311 358 283 370T222 382Q158 382 113 337V225H332V336Z"  />
<glyph unicode="&#x2153;" horiz-adv-x="537" d="M100 -12H68L320 479H353L100 -12ZM80 215V442L32 423V449L86 471H110V215H80ZM485 77Q485 56 476 41T451 16T417 1T378 -4Q339 -4 314 5T286 17L290 45Q302 37 322 30T378 22Q388 22 401 24T426 31T445 48T453 77Q453 93 446 101T428 114T406 119T387 120H336V147H387Q398 147 408 148T427 154T441 167T446 190Q446 205 439 213T422 226T400 232T377 234Q341 234 322 227T294 215L299 245Q310 250 328 255T377 261Q421 261 449 243T478 190Q478 163 463 151T432 133Q451 131 468 117T485 77Z"  />
<glyph unicode="&#x2154;" horiz-adv-x="647" d="M210 -12H178L430 479H463L210 -12ZM595 77Q595 56 586 41T561 16T527 1T488 -4Q449 -4 424 5T396 17L400 45Q412 37 432 30T488 22Q498 22 511 24T536 31T555 48T563 77Q563 93 556 101T538 114T516 119T497 120H446V147H497Q508 147 518 148T537 154T551 167T556 190Q556 205 549 213T532 226T510 232T487 234Q451 234 432 227T404 215L409 245Q420 250 438 255T487 261Q531 261 559 243T588 190Q588 163 573 151T542 133Q561 131 578 117T595 77ZM231 215H43V226Q79 256 108 279T159 323T191 361T203 398Q203 429 183 439T136 449Q107 449 86 443T49 430L54 461Q76 469 95 472T140 476Q164 476 182 470T211 452T228 427T234 399Q234 376 222 356T190 316T148 279T103 242H237L231 215Z"  />
<glyph unicode="&#x215B;" horiz-adv-x="547" d="M100 -12H68L320 479H353L100 -12ZM80 215V442L32 423V449L86 471H110V215H80ZM495 71Q495 34 464 15T383 -4Q335 -4 303 15T271 71Q271 94 284 108T316 131Q301 139 290 153T278 185Q278 222 308 241T383 260Q428 260 458 241T488 185Q488 146 448 131Q467 123 481 109T495 71ZM458 185Q458 214 436 224T383 235Q353 235 331 225T309 185Q309 165 328 154T383 143Q418 143 438 154T458 185ZM463 71Q463 86 455 95T434 110T408 116T383 118Q372 118 358 117T332 110T312 96T303 71Q303 45 325 33T383 21Q418 21 440 33T463 71Z"  />
<glyph unicode="&#x215C;" horiz-adv-x="637" d="M190 -12H158L410 479H443L190 -12ZM585 71Q585 34 554 15T473 -4Q425 -4 393 15T361 71Q361 94 374 108T406 131Q391 139 380 153T368 185Q368 222 398 241T473 260Q518 260 548 241T578 185Q578 146 538 131Q557 123 571 109T585 71ZM548 185Q548 214 526 224T473 235Q443 235 421 225T399 185Q399 165 418 154T473 143Q508 143 528 154T548 185ZM553 71Q553 86 545 95T524 110T498 116T473 118Q462 118 448 117T422 110T402 96T393 71Q393 45 415 33T473 21Q508 21 530 33T553 71ZM235 290Q235 269 226 254T201 229T167 214T128 209Q89 209 64 218T36 230L40 258Q52 250 72 243T128 235Q138 235 151 237T176 244T195 261T203 290Q203 306 196 314T178 327T156 332T137 333H86V360H137Q148 360 158 361T177 367T191 380T196 403Q196 418 189 426T172 439T150 445T127 447Q91 447 72 440T44 428L49 458Q60 463 78 468T127 474Q171 474 199 456T228 403Q228 376 213 364T182 346Q201 344 218 330T235 290Z"  />
<glyph unicode="&#x215D;" horiz-adv-x="627" d="M180 -12H148L400 479H433L180 -12ZM575 71Q575 34 544 15T463 -4Q415 -4 383 15T351 71Q351 94 364 108T396 131Q381 139 370 153T358 185Q358 222 388 241T463 260Q508 260 538 241T568 185Q568 146 528 131Q547 123 561 109T575 71ZM538 185Q538 214 516 224T463 235Q433 235 411 225T389 185Q389 165 408 154T463 143Q498 143 518 154T538 185ZM543 71Q543 86 535 95T514 110T488 116T463 118Q452 118 438 117T412 110T392 96T383 71Q383 45 405 33T463 21Q498 21 520 33T543 71ZM224 296Q224 274 215 258T190 232T156 216T116 211Q84 211 67 217T29 234L35 260Q53 249 70 243T116 236Q129 236 142 239T167 249T185 267T192 296Q192 313 185 323T167 340T144 348T122 350Q96 350 75 346T36 336L44 471H208L203 447H75L69 369Q80 371 93 373T124 375Q138 375 155 372T188 359T213 335T224 296Z"  />
<glyph unicode="&#x215E;" horiz-adv-x="547" d="M100 -12H68L320 479H353L100 -12ZM495 71Q495 34 464 15T383 -4Q335 -4 303 15T271 71Q271 94 284 108T316 131Q301 139 290 153T278 185Q278 222 308 241T383 260Q428 260 458 241T488 185Q488 146 448 131Q467 123 481 109T495 71ZM458 185Q458 214 436 224T383 235Q353 235 331 225T309 185Q309 165 328 154T383 143Q418 143 438 154T458 185ZM463 71Q463 86 455 95T434 110T408 116T383 118Q372 118 358 117T332 110T312 96T303 71Q303 45 325 33T383 21Q418 21 440 33T463 71ZM77 216H44L160 447H4L9 471H196V453L77 216Z"  />
<glyph unicode="&#x2202;" horiz-adv-x="375" d="M341 354Q341 325 337 290T322 214Q313 177 298 138T260 67T207 14T138 -7Q90 -7 61 26T31 116Q31 165 46 207T85 282T142 332T211 351Q246 351 267 335T300 298H302Q305 322 305 353Q305 419 281 448T211 478Q197 478 181 473T150 460L139 487Q150 495 172 501T215 508Q273 508 307 470T341 354ZM296 256Q288 285 267 303T209 321Q180 321 155 304T110 259T79 193T67 115Q67 71 87 48T140 24Q192 24 233 84T296 256Z"  />
<glyph unicode="&#x2206;" horiz-adv-x="391" d="M15 0V21L179 490H214L376 21V0H15ZM206 409Q202 420 201 429T197 446H195Q193 438 191 428T185 409L55 31H335L206 409Z"  />
<glyph unicode="&#x220F;" horiz-adv-x="467" d="M372 -161V459H96V-161H60V489H407V-161H372Z"  />
<glyph unicode="&#x2211;" horiz-adv-x="412" d="M16 -161V-149L245 167L33 472V489H374V459H82L284 167L67 -131H392V-161H16Z"  />
<glyph unicode="&#x2212;" horiz-adv-x="350" d="M33 208V242H316V208H33Z"  />
<glyph unicode="&#x2215;" horiz-adv-x="321" d="M50 -12H18L271 479H303L50 -12Z"  />
<glyph unicode="&#x2219;" horiz-adv-x="135" d="M94 248Q94 237 86 229T67 220Q56 220 49 228T41 248Q41 259 48 266T67 274Q78 274 86 267T94 248Z"  />
<glyph unicode="&#x221A;" horiz-adv-x="323" d="M201 -8H171L76 244L39 224L27 249L95 285L185 50L299 510H331L201 -8Z"  />
<glyph unicode="&#x221E;" horiz-adv-x="506" d="M468 205Q468 163 441 133T369 102Q327 102 298 125T253 177H251Q232 147 203 125T139 102Q90 102 64 131T37 203Q37 248 63 277T137 307Q159 307 177 300T209 282T233 257T252 232H254Q261 244 272 257T297 281T328 300T366 307Q410 307 439 280T468 205ZM434 205Q434 235 418 256T366 277Q335 277 312 257T268 204Q288 169 313 151T365 132Q400 132 417 154T434 205ZM237 205Q219 236 193 256T139 277Q103 277 87 255T71 203Q71 170 90 151T139 132Q170 132 195 154T237 205Z"  />
<glyph unicode="&#x222B;" horiz-adv-x="324" d="M268 487Q263 489 255 491T237 493Q209 493 194 475T179 421V-53Q179 -101 154 -127T87 -154Q77 -154 66 -152T47 -147L55 -118Q66 -123 86 -123Q144 -123 144 -53V423Q144 469 169 496T237 523Q248 523 259 521T276 516L268 487Z"  />
<glyph unicode="&#x2248;" horiz-adv-x="350" d="M325 313Q311 291 291 275T241 258Q221 258 203 264T170 281Q156 289 141 296T110 303Q93 303 77 291T48 259L25 283Q39 305 59 321T110 338Q130 338 147 332T180 316Q196 305 210 299T240 293Q257 293 273 305T302 338L325 313ZM325 167Q311 145 291 129T241 112Q221 112 203 118T170 135Q156 143 141 150T110 157Q93 157 77 145T48 112L25 137Q39 160 59 176T110 192Q130 192 147 186T180 170Q196 159 210 153T240 147Q257 147 273 159T302 191L325 167Z"  />
<glyph unicode="&#x2260;" horiz-adv-x="350" d="M148 134L105 40H69L113 134H33V169H129L182 281H33V316H198L242 410H278L233 316H316V281H217L165 169H316V134H148Z"  />
<glyph unicode="&#x2264;" horiz-adv-x="350" d="M33 20V55H316V20H33ZM33 252V272L316 411V372L90 262V261L316 151V112L33 252Z"  />
<glyph unicode="&#x2265;" horiz-adv-x="350" d="M33 20V55H316V20H33ZM33 112V151L261 261V262L33 373V411L316 272V252L33 112Z"  />
<glyph unicode="&#x25CA;" horiz-adv-x="360" d="M321 245L190 0H169L39 244L169 490H190L321 245ZM287 245L179 444L72 245L179 46L287 245Z"  />
<glyph unicode="&#x25CC;" horiz-adv-x="234" d="M184 150Q184 141 176 141Q166 141 166 150Q166 159 176 159Q184 159 184 150ZM157 168Q157 159 148 159Q139 159 139 168Q139 177 148 177Q157 177 157 168ZM203 123Q203 114 193 114Q184 114 184 123Q184 132 194 132Q203 132 203 123ZM209 92Q209 83 200 83Q190 83 190 92Q190 101 200 101Q209 101 209 92ZM125 175Q125 166 117 166Q108 166 108 175Q108 183 117 183Q125 183 125 175ZM203 60Q203 51 193 51Q184 51 184 60Q184 69 193 69Q203 69 203 60ZM94 168Q94 159 85 159Q76 159 76 168Q76 177 85 177Q94 177 94 168ZM68 150Q68 141 58 141Q50 141 50 150Q50 159 58 159Q68 159 68 150ZM184 33Q184 24 176 24Q167 24 167 33Q167 42 176 42Q184 42 184 33ZM157 15Q157 6 148 6Q139 6 139 15Q139 24 148 24Q157 24 157 15ZM50 123Q50 114 41 114Q31 114 31 123Q31 132 41 132Q50 132 50 123ZM43 92Q43 83 34 83Q25 83 25 92Q25 101 34 101Q43 101 43 92ZM125 9Q125 0 117 0Q108 0 108 9Q108 18 117 18Q125 18 125 9ZM94 15Q94 6 85 6Q76 6 76 15Q76 24 85 24Q94 24 94 15ZM50 60Q50 51 41 51Q31 51 31 60Q31 69 41 69Q50 69 50 60ZM68 33Q68 24 59 24Q50 24 50 33Q50 42 58 42Q68 42 68 33Z"  />
<glyph unicode="&#xE818;" horiz-adv-x="0" d="M143 821H30V840H143V821ZM143 738H30V757H143V738ZM173 603Q173 589 168 577T139 564H34Q11 564 6 576T0 603V665H19V599Q19 587 24 585T36 583H76V665H96V583H136Q143 583 148 585T153 599V665H173V603Z"  />
<glyph unicode="&#xF6C3;" horiz-adv-x="121" d="M85 -76Q85 -99 68 -119T31 -151L22 -131Q28 -128 39 -117T51 -98Q51 -91 42 -85T33 -65Q33 -57 40 -50T58 -43Q69 -43 77 -52T85 -76Z"  />
<glyph unicode="&#xF805;" horiz-adv-x="458" d="M412 433Q383 433 364 427T328 408T296 375T262 328Q247 349 233 368T201 402T160 424T104 433H80V0H47V467H102Q135 467 159 461T201 445T234 419T263 385Q292 429 326 447T412 466V433Z"  />
<glyph unicode="&#xF806;" horiz-adv-x="560" d="M514 34V0L132 63Q117 65 102 69T75 83T55 106T47 143Q47 166 54 180T74 204T102 217T132 224L514 287V254L126 189Q109 186 95 178T80 143Q80 130 84 122T94 109T109 102T126 98L514 34Z"  />
<glyph unicode="&#xFB00;" horiz-adv-x="378" d="M180 439Q171 444 159 447T136 450Q112 450 104 440T96 403V332H170V304H96V0H61V304H10L16 332H61V403Q61 439 76 459T134 480Q151 480 163 477T186 469L180 439ZM375 439Q366 444 354 447T331 450Q307 450 299 440T291 403V332H365V304H291V0H256V304H205L211 332H256V403Q256 439 271 459T329 480Q346 480 358 477T381 469L375 439Z"  />
<glyph unicode="&#xFB01;" horiz-adv-x="312" d="M180 439Q171 444 159 447T136 450Q112 450 104 440T96 403V332H170V304H96V0H61V304H10L16 332H61V403Q61 439 76 459T134 480Q151 480 163 477T186 469L180 439ZM274 439Q274 428 267 421T248 414Q238 414 231 421T224 439Q224 450 231 457T248 464Q259 464 266 457T274 439ZM231 332H265V43Q265 24 281 24Q286 24 295 27L301 3Q280 -4 267 -4Q250 -4 241 4T231 43V332Z"  />
<glyph unicode="&#xFB02;" horiz-adv-x="324" d="M180 439Q171 444 159 447T136 450Q112 450 104 440T96 403V332H170V304H96V0H61V304H10L16 332H61V403Q61 439 76 459T134 480Q151 480 163 477T186 469L180 439ZM314 3Q301 -2 293 -3T280 -4Q273 -4 267 -3T255 3T247 18T244 45V467H278V43Q278 24 293 24Q298 24 307 27L314 3Z"  />
<glyph unicode="&#xFB03;" horiz-adv-x="507" d="M180 439Q171 444 159 447T136 450Q112 450 104 440T96 403V332H170V304H96V0H61V304H10L16 332H61V403Q61 439 76 459T134 480Q151 480 163 477T186 469L180 439ZM375 439Q366 444 354 447T331 450Q307 450 299 440T291 403V332H365V304H291V0H256V304H205L211 332H256V403Q256 439 271 459T329 480Q346 480 358 477T381 469L375 439ZM469 439Q469 428 462 421T443 414Q433 414 426 421T419 439Q419 450 426 457T443 464Q454 464 461 457T469 439ZM426 332H460V43Q460 24 476 24Q481 24 490 27L496 3Q475 -4 462 -4Q445 -4 436 4T426 43V332Z"  />
<glyph unicode="&#xFB04;" horiz-adv-x="519" d="M180 439Q171 444 159 447T136 450Q112 450 104 440T96 403V332H170V304H96V0H61V304H10L16 332H61V403Q61 439 76 459T134 480Q151 480 163 477T186 469L180 439ZM375 439Q366 444 354 447T331 450Q307 450 299 440T291 403V332H365V304H291V0H256V304H205L211 332H256V403Q256 439 271 459T329 480Q346 480 358 477T381 469L375 439ZM439 467H473V43Q473 24 489 24Q494 24 503 27L509 3Q488 -4 475 -4Q458 -4 449 4T439 43V467Z"  />
<glyph unicode="&#xFB50;" arabic-form="terminal" horiz-adv-x="115" d="M80 467V90Q80 68 88 51T120 33V0Q100 0 86 7T64 27T51 54T47 87V467H80ZM-22 586L1 608Q7 614 10 614Q14 614 20 610L42 594Q46 591 51 591Q57 591 63 599T76 618T92 638T113 647Q128 647 136 638T145 615Q145 590 124 577T80 564Q69 564 57 567T36 577L20 588Q14 592 11 592Q9 592 6 589L-9 574L-22 586ZM70 583Q73 582 80 582Q94 582 111 589T128 614Q128 622 124 625T113 629Q106 629 102 624T93 612T83 597T70 583Z"  />
<glyph unicode="&#xFB50;" arabic-form="isolated" horiz-adv-x="127" d="M80 0L47 -19V467H80V0ZM-22 586L1 608Q7 614 10 614Q14 614 20 610L42 594Q46 591 51 591Q57 591 63 599T76 618T92 638T113 647Q128 647 136 638T145 615Q145 590 124 577T80 564Q68 564 57 567T36 577L20 588Q14 592 11 592Q9 592 6 589L-9 574L-22 586ZM70 583Q73 582 80 582Q94 582 111 589T128 614Q128 622 124 625T113 629Q106 629 102 624T93 612T83 597T70 583Z"  />
<glyph unicode="&#xFB51;" horiz-adv-x="115" d="M80 467V90Q80 68 88 51T120 33V0Q100 0 86 7T64 27T51 54T47 87V467H80ZM-22 586L1 608Q7 614 10 614Q14 614 20 610L42 594Q46 591 51 591Q57 591 63 599T76 618T92 638T113 647Q128 647 136 638T145 615Q145 590 124 577T80 564Q69 564 57 567T36 577L20 588Q14 592 11 592Q9 592 6 589L-9 574L-22 586ZM70 583Q73 582 80 582Q94 582 111 589T128 614Q128 622 124 625T113 629Q106 629 102 624T93 612T83 597T70 583Z"  />
<glyph unicode="&#xFB56;" arabic-form="initial" horiz-adv-x="197" d="M53 33Q90 33 104 49T118 97V332H151V99Q151 51 127 26T52 0H0V33H53ZM113 -218Q113 -226 109 -231T96 -236Q88 -236 83 -231T78 -218Q78 -211 83 -206T96 -201Q104 -201 108 -206T113 -218ZM80 -153Q80 -162 73 -168T57 -175Q48 -175 42 -169T35 -153Q35 -144 41 -137T57 -130Q66 -130 73 -137T80 -153ZM156 -153Q156 -162 150 -168T134 -175Q125 -175 119 -169T112 -153Q112 -144 118 -137T134 -130Q143 -130 149 -137T156 -153Z"  />
<glyph unicode="&#xFB56;" arabic-form="medial" horiz-adv-x="186" d="M0 33H118V332H151V33H190V0H0V33ZM80 -153Q80 -162 73 -168T57 -175Q48 -175 42 -169T35 -153Q35 -144 41 -137T57 -130Q66 -130 73 -137T80 -153ZM156 -153Q156 -162 150 -168T134 -175Q125 -175 119 -169T112 -153Q112 -144 118 -137T134 -130Q143 -130 149 -137T156 -153ZM113 -218Q113 -226 109 -231T96 -236Q88 -236 83 -231T78 -218Q78 -211 83 -206T96 -201Q104 -201 108 -206T113 -218Z"  />
<glyph unicode="&#xFB56;" arabic-form="terminal" horiz-adv-x="589" d="M286 -153Q286 -162 280 -168T264 -175Q254 -175 248 -169T241 -153Q241 -144 247 -137T264 -130Q273 -130 279 -137T286 -153ZM363 -153Q363 -162 356 -168T340 -175Q331 -175 325 -169T318 -153Q318 -144 324 -137T340 -130Q349 -130 356 -137T363 -153ZM320 -218Q320 -226 315 -231T302 -236Q295 -236 290 -231T285 -218Q285 -211 290 -206T302 -201Q309 -201 314 -206T320 -218ZM521 332H554V33H594V0H141Q90 0 69 26T47 98V224L80 246V96Q80 61 96 47T145 33H521V332Z"  />
<glyph unicode="&#xFB56;" arabic-form="isolated" horiz-adv-x="601" d="M286 -153Q286 -162 280 -168T264 -175Q254 -175 248 -169T241 -153Q241 -144 247 -137T264 -130Q273 -130 279 -137T286 -153ZM363 -153Q363 -162 356 -168T340 -175Q331 -175 325 -169T318 -153Q318 -144 324 -137T340 -130Q349 -130 356 -137T363 -153ZM320 -218Q320 -226 315 -231T302 -236Q295 -236 290 -231T285 -218Q285 -211 290 -206T302 -201Q309 -201 314 -206T320 -218ZM80 246V96Q80 61 96 47T145 33H456Q494 33 507 49T521 97V332H554V98Q554 46 528 23T454 0H141Q90 0 69 26T47 98V224L80 246Z"  />
<glyph unicode="&#xFB57;" horiz-adv-x="589" d="M286 -153Q286 -162 280 -168T264 -175Q254 -175 248 -169T241 -153Q241 -144 247 -137T264 -130Q273 -130 279 -137T286 -153ZM363 -153Q363 -162 356 -168T340 -175Q331 -175 325 -169T318 -153Q318 -144 324 -137T340 -130Q349 -130 356 -137T363 -153ZM320 -218Q320 -226 315 -231T302 -236Q295 -236 290 -231T285 -218Q285 -211 290 -206T302 -201Q309 -201 314 -206T320 -218ZM521 332H554V33H594V0H141Q90 0 69 26T47 98V224L80 246V96Q80 61 96 47T145 33H521V332Z"  />
<glyph unicode="&#xFB58;" horiz-adv-x="197" d="M53 33Q90 33 104 49T118 97V332H151V99Q151 51 127 26T52 0H0V33H53ZM113 -218Q113 -226 109 -231T96 -236Q88 -236 83 -231T78 -218Q78 -211 83 -206T96 -201Q104 -201 108 -206T113 -218ZM80 -153Q80 -162 73 -168T57 -175Q48 -175 42 -169T35 -153Q35 -144 41 -137T57 -130Q66 -130 73 -137T80 -153ZM156 -153Q156 -162 150 -168T134 -175Q125 -175 119 -169T112 -153Q112 -144 118 -137T134 -130Q143 -130 149 -137T156 -153Z"  />
<glyph unicode="&#xFB59;" horiz-adv-x="186" d="M0 33H118V332H151V33H190V0H0V33ZM80 -153Q80 -162 73 -168T57 -175Q48 -175 42 -169T35 -153Q35 -144 41 -137T57 -130Q66 -130 73 -137T80 -153ZM156 -153Q156 -162 150 -168T134 -175Q125 -175 119 -169T112 -153Q112 -144 118 -137T134 -130Q143 -130 149 -137T156 -153ZM113 -218Q113 -226 109 -231T96 -236Q88 -236 83 -231T78 -218Q78 -211 83 -206T96 -201Q104 -201 108 -206T113 -218Z"  />
<glyph unicode="&#xFB66;" arabic-form="initial" horiz-adv-x="257" d="M113 33Q150 33 164 49T178 97V332H211V99Q211 51 187 26T112 0H0V33H113ZM175 458Q191 458 191 472V508Q191 515 188 521T177 527Q169 527 162 524L118 507Q102 501 102 487V458H175ZM102 421L83 411V440H46L54 458H83V586H102V521L163 544Q170 547 178 547Q191 547 201 538T211 515V469Q211 451 200 446T177 440H102V421Z"  />
<glyph unicode="&#xFB66;" arabic-form="medial" horiz-adv-x="246" d="M0 33H177V332H211V33H251V0H0V33ZM175 458Q191 458 191 472V508Q191 515 188 521T177 527Q169 527 162 524L118 507Q102 501 102 487V458H175ZM102 421L83 411V440H46L54 458H83V586H102V521L163 544Q170 547 178 547Q191 547 201 538T211 515V469Q211 451 200 446T177 440H102V421Z"  />
<glyph unicode="&#xFB66;" arabic-form="terminal" horiz-adv-x="589" d="M521 332H554V33H594V0H141Q90 0 69 26T47 98V224L80 246V96Q80 61 96 47T145 33H521V332ZM347 458Q363 458 363 472V508Q363 515 360 521T349 527Q341 527 334 524L290 507Q274 501 274 487V458H347ZM274 421L255 411V440H218L226 458H255V586H274V521L335 544Q342 547 350 547Q363 547 373 538T383 515V469Q383 451 372 446T349 440H274V421Z"  />
<glyph unicode="&#xFB66;" arabic-form="isolated" horiz-adv-x="601" d="M347 458Q363 458 363 472V508Q363 515 360 521T349 527Q341 527 334 524L290 507Q274 501 274 487V458H347ZM274 421L255 411V440H218L226 458H255V586H274V521L335 544Q342 547 350 547Q363 547 373 538T383 515V469Q383 451 372 446T349 440H274V421ZM80 246V96Q80 61 96 47T145 33H456Q494 33 507 49T521 97V332H554V98Q554 46 528 23T454 0H141Q90 0 69 26T47 98V224L80 246Z"  />
<glyph unicode="&#xFB67;" horiz-adv-x="589" d="M521 332H554V33H594V0H141Q90 0 69 26T47 98V224L80 246V96Q80 61 96 47T145 33H521V332ZM347 458Q363 458 363 472V508Q363 515 360 521T349 527Q341 527 334 524L290 507Q274 501 274 487V458H347ZM274 421L255 411V440H218L226 458H255V586H274V521L335 544Q342 547 350 547Q363 547 373 538T383 515V469Q383 451 372 446T349 440H274V421Z"  />
<glyph unicode="&#xFB68;" horiz-adv-x="257" d="M113 33Q150 33 164 49T178 97V332H211V99Q211 51 187 26T112 0H0V33H113ZM175 458Q191 458 191 472V508Q191 515 188 521T177 527Q169 527 162 524L118 507Q102 501 102 487V458H175ZM102 421L83 411V440H46L54 458H83V586H102V521L163 544Q170 547 178 547Q191 547 201 538T211 515V469Q211 451 200 446T177 440H102V421Z"  />
<glyph unicode="&#xFB69;" horiz-adv-x="246" d="M0 33H177V332H211V33H251V0H0V33ZM175 458Q191 458 191 472V508Q191 515 188 521T177 527Q169 527 162 524L118 507Q102 501 102 487V458H175ZM102 421L83 411V440H46L54 458H83V586H102V521L163 544Q170 547 178 547Q191 547 201 538T211 515V469Q211 451 200 446T177 440H102V421Z"  />
</font>
</defs>
</svg>
