<?xml  version="1.0" encoding="UTF-8"?>
<!DOCTYPE svg PUBLIC "-//W3C//DTD SVG 1.0//EN" "http://www.w3.org/TR/2001/REC-SVG-20010904/DTD/svg10.dtd" >
<svg xmlns="http://www.w3.org/2000/svg" >
<metadata>
<version>1.0</version>
<id><![CDATA[Soho W02 Thin Condensed]]></id>
<vendor>Monotype Imaging Inc.</vendor>
<credits>
<name>Fonts.com WebFonts</name>
<URL>http://webfonts.fonts.com</URL>
<role>Home of the Web fonts</role>
</credits>
<license>
<URL>http://webfonts.fonts.com/Legal</URL>
</license>
<copyright><![CDATA[Copyright (c) 2007 Monotype Imaging Inc. Soho is designed by Sebastian Lester. All rights reserved.]]></copyright>
<trademark><![CDATA[Soho is a trademark of Monotype Imaging, Inc and may be registered in certain jurisdictions.]]></trademark>
<licensee>
<name></name>
</licensee>
</metadata>
<defs >
<font horiz-adv-x="389" id="84e110e9-fd29-4036-b9ad-27968a6ba793">
<font-face font-family="" panose-1="2 4 4 6 2 2 6 2 2 4" ascent="987" descent="-225" units-per-em="1000" alphabetic="0">
</font-face>
<missing-glyph horiz-adv-x="0" />

<glyph unicode="&#xA;" />
<glyph unicode="&#xD;" horiz-adv-x="0" />
<glyph unicode=" " horiz-adv-x="176" />
<glyph unicode="!" horiz-adv-x="148" d="M66 0V119H82V0H66ZM82 190H66V748H82V190Z"  />
<glyph unicode="&quot;" horiz-adv-x="257" d="M200 529H184L205 760H222L200 529ZM74 760L52 529H35L56 760H74Z"  />
<glyph unicode="#" horiz-adv-x="523" d="M352 222L334 1H318L336 222H169L151 1H134L152 222H58V238H154L175 496H58V512H176L195 743H212L193 512H360L379 743H395L376 512H484V496H375L354 238H484V222H352ZM192 496L170 238H337L358 496H192Z"  />
<glyph unicode="$" horiz-adv-x="388" d="M370 178Q370 137 359 104T327 46T276 7T206 -8V-113H189V-8Q151 -7 118 -5T63 1V83H79V13Q102 11 132 9T198 7Q271 7 312 52T354 178Q354 212 347 236T323 283T281 329T218 382L182 411Q151 436 128 459T89 505T65 553T57 607Q57 636 65 662T91 707T139 738T213 751V854H229V751Q267 751 298 749T355 742V659H340V729Q318 732 289 733T224 735Q182 735 154 726T107 701T82 660T74 607Q74 579 81 556T103 512T140 469T192 423L229 393Q267 362 293 338T337 290T362 240T370 178Z"  />
<glyph unicode="%" horiz-adv-x="755" d="M722 170Q722 76 693 33T603 -10Q543 -10 513 33T483 170V261Q483 355 513 398T603 441Q663 441 692 398T722 261V170ZM706 261Q706 350 680 387T603 425Q551 425 525 388T499 261V169Q499 80 525 43T603 6Q654 6 680 43T706 169V261ZM220 0H201L553 743H571L220 0ZM287 481Q287 387 257 344T167 301Q107 301 77 344T47 481V572Q47 666 77 709T167 752Q227 752 257 709T287 572V481ZM270 572Q270 662 244 699T167 736Q116 736 90 699T64 572V480Q64 391 90 354T167 317Q218 317 244 354T270 480V572Z"  />
<glyph unicode="&amp;" horiz-adv-x="490" d="M361 74Q338 36 300 14T204 -9Q169 -9 139 2T87 35T53 92T40 174V178Q41 246 61 298T136 390L132 396Q109 428 95 454T72 504T60 550T56 598V600Q56 682 96 716T207 751Q243 751 275 749T336 742V651H321V729Q301 731 272 733T207 736Q178 736 153 730T110 709T82 668T72 600V598Q72 574 75 552T87 507T109 459T146 402L360 102Q386 159 392 233T398 385H337V400H473V385H413Q413 344 412 304T406 225T393 152T369 89L433 0H414L361 74ZM204 6Q259 6 294 27T352 87L145 378Q94 340 76 292T56 178V174Q56 130 67 99T98 47T145 16T204 6Z"  />
<glyph unicode="&apos;" horiz-adv-x="109" d="M52 529H35L56 760H74L52 529Z"  />
<glyph unicode="(" horiz-adv-x="223" d="M182 -202Q153 -160 129 -110T86 -1T57 125T46 267V274Q46 424 85 541T182 743H198Q168 698 143 647T100 538T72 414T62 274V267Q62 118 100 3T198 -202H182Z"  />
<glyph unicode=")" horiz-adv-x="223" d="M177 267Q177 192 167 125T138 -1T94 -110T41 -202H25Q85 -111 122 3T160 267V274Q160 423 123 537T25 743H41Q98 659 137 542T177 274V267H177Z"  />
<glyph unicode="*" horiz-adv-x="423" d="M276 592Q265 588 252 584T227 577Q234 568 243 557T258 537L327 442L313 431L244 526Q237 535 229 546T214 568Q208 558 201 547T186 526L117 431L103 442L171 536Q178 545 186 557T201 577Q190 580 177 583T153 591L42 628L48 644L158 609Q169 604 182 600T207 592Q206 603 206 616T206 641V760H224V641Q224 630 224 617T223 592L270 609L382 645L388 628L276 592Z"  />
<glyph unicode="+" horiz-adv-x="518" d="M268 384V187H252V384H54V401H252V598H268V401H464V384H268Z"  />
<glyph unicode="&#x2c;" horiz-adv-x="122" d="M42 -70H26L70 130H87L42 -70Z"  />
<glyph unicode="-" horiz-adv-x="268" d="M46 274V290H223V274H46Z"  />
<glyph unicode="." horiz-adv-x="97" d="M40 0V130H57V0H40Z"  />
<glyph unicode="/" horiz-adv-x="270" d="M35 0H18L223 743H239L35 0Z"  />
<glyph unicode="0" horiz-adv-x="433" d="M385 325Q385 233 376 170T346 67T294 9T216 -9Q171 -9 139 9T86 66T57 169T47 325V417Q47 508 56 572T86 675T138 733T216 751Q262 751 294 733T346 676T375 572T385 417V325ZM369 417Q369 507 360 568T332 667T285 720T216 736Q177 736 148 720T101 667T73 569T64 417V325Q64 235 73 174T100 76T148 23T216 7Q256 7 284 23T332 76T360 174T369 325V417Z"  />
<glyph unicode="1" horiz-adv-x="293" d="M41 0V15H145V726L40 675V693L145 744H161V15H264V0H41Z"  />
<glyph unicode="2" horiz-adv-x="415" d="M54 0V29Q54 102 62 150T89 236T139 304T219 376Q259 410 284 436T325 486T345 534T351 591Q351 626 343 653T316 698T265 726T185 736Q159 736 127 733T69 725V651H53V737Q64 740 80 742T114 747T150 750T185 751Q239 751 274 740T330 707T359 657T367 591Q367 558 362 532T341 481T299 427T230 364Q183 325 152 295T103 229T78 147T70 29V16H347V102H362V0H54Z"  />
<glyph unicode="3" horiz-adv-x="408" d="M360 182Q360 140 353 105T327 45T272 5T180 -9Q165 -9 147 -8T110 -6T75 -2T47 3V100H63V14Q87 10 120 9T180 7Q232 7 264 19T314 54T338 109T344 182V233Q344 261 341 288T325 336T288 369T220 382H69V398H220Q262 398 287 410T324 442T340 490T344 547V569Q344 609 338 640T314 692T264 725T180 736Q154 736 121 734T63 727V655H47V739Q58 742 74 744T109 747T146 750T180 751Q237 751 272 738T327 702T354 645T361 569V547Q361 517 358 492T344 446T317 412T271 390Q300 382 317 367T344 332T357 286T360 233V182H360Z"  />
<glyph unicode="4" horiz-adv-x="443" d="M315 229V15H375V0H237V15H298V229H30V244L291 745H315V244H410V229H315ZM298 729L48 244H298V729Z"  />
<glyph unicode="5" horiz-adv-x="415" d="M368 196Q368 149 362 112T336 48T281 7T187 -8Q168 -8 148 -7T109 -4T74 1T47 7V86H63V17Q89 12 121 10T187 8Q241 8 273 20T322 57T345 116T351 196V227Q351 280 342 316T310 375T251 406T160 416H59L82 743H344V654H328V728H98L77 431H160Q219 431 259 420T323 384T357 321T368 227V196H368Z"  />
<glyph unicode="6" horiz-adv-x="444" d="M397 214Q397 165 388 124T357 54T303 9T222 -8Q174 -8 141 9T87 59T57 136T47 238V523Q47 575 54 617T81 690T138 736T236 752Q253 752 273 751T312 747T348 743T376 737V654H361V725Q335 730 299 733T236 736Q181 736 148 722T96 680T71 614T64 526V418Q108 431 148 436T224 442Q309 442 353 398T397 252V214ZM381 252Q381 301 371 334T340 387T291 417T224 426Q189 426 149 421T64 403V237Q64 128 101 68T223 7Q266 7 296 21T345 63T372 128T381 214V252Z"  />
<glyph unicode="7" horiz-adv-x="390" d="M114 0H97L344 728H56V654H41V743H360V728L114 0Z"  />
<glyph unicode="8" horiz-adv-x="449" d="M401 207Q401 154 394 114T368 46T315 5T227 -9H221Q168 -9 134 5T81 46T54 114T47 208V217Q47 252 51 281T65 332T94 369T140 391Q112 397 94 412T66 448T52 496T48 554V564Q48 607 55 642T81 701T134 738T222 751H227Q281 751 314 738T367 701T393 642T400 564V554Q400 522 397 495T383 447T354 412T308 391Q336 384 354 370T382 333T397 282T401 218V207ZM385 218Q385 252 381 282T365 335T328 370T265 383H183Q144 383 121 370T85 335T68 282T64 217V208Q64 155 71 118T95 55T143 19T221 7H227Q274 7 304 18T353 54T378 116T385 207V218ZM384 564Q384 606 377 638T353 691T305 724T227 735H222Q175 735 145 724T97 692T72 638T65 564V554Q65 524 69 496T85 447T120 412T183 399H265Q304 399 327 411T363 445T380 494T384 554V564Z"  />
<glyph unicode="9" horiz-adv-x="444" d="M397 220Q397 167 390 125T363 53T306 7T209 -9Q192 -9 172 -8T133 -5T96 0T68 6V89H83V17Q109 13 145 10T209 6Q263 6 296 20T348 62T373 128T380 217V325Q336 312 296 307T221 301Q136 301 92 345T47 491V529Q47 578 56 619T87 689T141 734T222 751Q270 751 303 734T357 684T387 606T397 504V220ZM380 506Q380 614 343 674T222 735Q179 735 149 721T100 679T73 614T64 529V491Q64 442 74 409T105 355T154 325T221 316Q256 316 296 321T380 340V506Z"  />
<glyph unicode=":" horiz-adv-x="99" d="M49 0V130H65V0H49ZM65 414H49V544H65V414Z"  />
<glyph unicode=";" horiz-adv-x="118" d="M35 -70H18L63 130H80L35 -70ZM63 414V544H80V414H63Z"  />
<glyph unicode="&lt;" horiz-adv-x="518" d="M353 140L141 391L353 641H376L165 391L376 140H353Z"  />
<glyph unicode="=" horiz-adv-x="518" d="M86 270V287H432V270H86ZM86 499V515H432V499H86Z"  />
<glyph unicode="&gt;" horiz-adv-x="518" d="M164 140H141L353 391L141 641H164L376 391L164 140Z"  />
<glyph unicode="?" horiz-adv-x="303" d="M101 0V119H118V0H101ZM273 614Q273 584 270 561T257 516T234 471T198 420Q171 384 155 360T131 314T121 273T118 225V191H101V225Q101 252 103 274T115 318T140 367T186 429Q208 457 221 478T243 520T254 563T257 614V617Q257 685 226 711T127 737Q88 737 45 731V665H30V743Q56 748 82 750T127 753Q197 753 235 723T273 617V614Z"  />
<glyph unicode="@" horiz-adv-x="581" d="M552 409Q552 350 543 290T506 180T431 99T304 68Q230 68 201 102T171 207Q171 225 172 244T176 282Q182 338 193 374T223 433T266 463T324 472Q361 472 407 462L371 91Q422 104 454 137T504 214T529 308T536 409Q536 513 488 573T331 633Q272 633 230 613T157 559T109 481T80 388T67 290T63 195Q63 49 119 -20T285 -90Q316 -90 345 -87T395 -81V-96Q374 -99 345 -102T283 -105Q165 -105 106 -30T47 195Q47 240 50 291T65 392T95 488T146 570T223 627T331 648Q390 648 432 631T500 583T539 507T552 409ZM390 451Q380 453 361 455T324 457Q296 457 274 450T236 423T209 369T192 281Q190 263 189 243T187 205Q187 145 212 114T304 83Q321 83 332 84T353 87L390 451Z"  />
<glyph unicode="A" horiz-adv-x="526" d="M398 0V15H446L373 307H153L80 15H127V0H15V15H62L245 728H195V743H276L463 15H511V0H398ZM264 731H262L157 323H369L264 731Z"  />
<glyph unicode="B" horiz-adv-x="447" d="M408 181Q408 139 400 104T369 44T308 5T209 -9Q181 -9 160 -8T120 -5T80 -2T34 0V15H82V728H34V743Q59 743 79 744T118 746T158 748T204 749Q265 749 304 737T366 701T397 644T406 569V557Q406 531 403 505T387 457T351 417T289 391Q328 383 351 365T387 323T404 270T408 208V181ZM392 208Q392 239 388 270T367 327T319 368T231 384H99V14Q121 12 147 10T209 7Q264 7 299 18T355 52T384 107T392 181V208ZM390 569Q390 609 382 639T353 691T296 722T204 733Q172 733 149 732T99 729V399H231Q286 399 318 414T366 452T386 503T390 557V569Z"  />
<glyph unicode="C" horiz-adv-x="402" d="M363 3Q349 0 317 -4T239 -8Q181 -8 143 14T83 81T51 197T42 365V378Q42 475 51 545T82 661T143 729T239 751Q284 751 317 747T363 740V659H347V728Q327 731 299 733T239 736Q186 736 152 716T97 653T68 541T59 378V365Q59 270 67 202T96 91T151 27T239 7Q273 7 301 9T347 14V81H363V3H363Z"  />
<glyph unicode="D" horiz-adv-x="476" d="M434 356Q434 261 424 193T388 79T319 13T212 -9Q184 -9 164 -8T124 -5T83 -2T34 0V15H82V728H34V743Q62 743 82 744T120 746T160 749T212 750Q276 750 319 729T387 663T423 549T434 386V356ZM417 386Q417 479 407 545T372 653T309 715T212 735Q179 735 152 734T99 730V14Q120 12 152 10T212 7Q270 7 309 27T372 89T406 197T417 356V386Z"  />
<glyph unicode="E" horiz-adv-x="408" d="M34 0V15H82V728H34V743H378V659H362V728H99V400H355V385H99V15H362V85H378V0H34Z"  />
<glyph unicode="F" horiz-adv-x="402" d="M99 385V15H155V0H34V15H82V728H34V743H378V656H362V728H99V400H355V385H99Z"  />
<glyph unicode="G" horiz-adv-x="429" d="M372 2Q337 -3 306 -5T244 -8Q189 -8 151 13T88 80T53 195T42 364V379Q42 479 52 549T87 665T149 730T244 751Q281 751 313 748T372 740V656H357V727Q334 731 305 733T244 736Q193 736 158 717T101 655T69 544T59 379V364Q59 267 69 199T101 89T159 27T244 7Q269 7 298 8T356 14V366H256V381H372V2H372Z"  />
<glyph unicode="H" horiz-adv-x="535" d="M101 728V410H434V728H384V743H499V728H451V15H499V0H384V15H434V394H101V15H151V0H36V15H84V728H36V743H151V728H101Z"  />
<glyph unicode="I" horiz-adv-x="188" d="M37 0V15H86V728H37V743H151V728H102V15H151V0H37Z"  />
<glyph unicode="J" horiz-adv-x="188" d="M102 728V-71Q102 -94 100 -114T90 -150T66 -175T22 -184Q11 -184 -4 -184T-29 -181V-168H22Q44 -168 57 -162T76 -142T84 -112T86 -71V728H37V743H151V728H102Z"  />
<glyph unicode="K" horiz-adv-x="452" d="M372 0L102 375V15H152V0H37V15H85V728H38V743H152V728H102V381L370 743H424V728H379L120 378L381 15H427V0H372Z"  />
<glyph unicode="L" horiz-adv-x="395" d="M36 0V15H85V728H36V743H153V728H102V15H355V90H370V0H36Z"  />
<glyph unicode="M" horiz-adv-x="591" d="M557 743V728H509V15H557V0H441V15H492V726H491L309 326H282L100 726H99V15H149V0H34V15H82V728H34V743H110L295 337H296L481 743H557Z"  />
<glyph unicode="N" horiz-adv-x="527" d="M445 728V-1H416L100 725H99V15H150V0H34V15H83V728H34V743H111L427 16H428V728H378V743H493V728H445Z"  />
<glyph unicode="O" horiz-adv-x="469" d="M426 357Q426 255 416 185T383 73T324 11T235 -8Q183 -8 147 11T87 72T53 185T42 357V386Q42 488 52 558T86 670T146 732T235 751Q287 751 323 732T382 671T415 558T426 386V357ZM410 386Q410 488 400 555T369 662T314 719T235 736Q189 736 156 720T101 663T69 555T59 386V357Q59 255 69 188T101 80T156 24T235 7Q280 7 313 23T367 80T399 187T410 357V386Z"  />
<glyph unicode="P" horiz-adv-x="424" d="M388 536Q388 489 380 451T350 387T291 346T196 331Q175 331 150 331T99 334V15H152V0H34V15H83V728H34V743Q59 743 78 744T116 746T153 749T199 751Q256 751 293 738T351 699T380 636T388 551V536ZM372 551Q372 597 365 631T338 689T285 723T199 735Q166 735 140 733T99 729V350Q125 348 150 348T196 347Q248 347 282 359T336 395T364 454T372 536V551Z"  />
<glyph unicode="Q" horiz-adv-x="469" d="M426 357Q426 257 416 188T384 76T327 13T243 -8V-80Q243 -102 244 -118T252 -146T271 -162T304 -168H367V-181Q357 -182 337 -183T304 -184Q277 -184 262 -177T239 -155T229 -122T227 -80V-8Q177 -7 142 13T85 76T52 188T42 357V386Q42 488 52 558T86 670T146 732T235 751Q287 751 323 732T382 671T415 558T426 386V357ZM410 386Q410 488 400 555T369 662T314 719T235 736Q189 736 156 720T101 663T69 555T59 386V357Q59 255 69 188T101 80T156 24T235 7Q280 7 313 23T367 80T399 187T410 357V386Z"  />
<glyph unicode="R" horiz-adv-x="456" d="M389 0L243 333Q236 332 225 332T199 331Q173 331 144 332T99 334V15H150V0H34V15H83V728H34V743Q63 743 84 744T122 746T157 749T198 751Q255 751 291 738T349 699T379 636T388 551V536Q388 491 383 457T363 398T323 358T260 335L400 15H442V0H389ZM372 551Q372 597 364 631T335 689T282 723T198 735Q176 735 149 734T99 730V350Q119 349 146 348T199 347Q251 347 284 359T337 394T364 453T372 536V551Z"  />
<glyph unicode="S" horiz-adv-x="377" d="M347 178Q347 138 337 104T306 45T253 6T174 -8Q135 -8 98 -6T38 1V83H54V14Q76 11 107 9T174 7Q254 7 292 54T330 178Q330 212 322 237T298 285T256 331T195 382L158 411Q127 436 103 459T63 505T39 553T31 607Q31 637 39 663T67 708T119 739T198 751Q234 751 267 749T329 742V659H314V729Q295 731 264 733T198 736Q155 736 127 727T81 700T56 659T48 607Q48 579 55 556T78 512T115 469T168 423L205 393Q240 364 266 341T311 293T338 241T347 178Z"  />
<glyph unicode="T" horiz-adv-x="446" d="M405 659V728H231V15H293V0H153V15H215V728H41V659H26V743H420V659H405Z"  />
<glyph unicode="U" horiz-adv-x="521" d="M435 728V287Q435 216 428 162T402 70T349 13T260 -7Q206 -7 172 12T119 69T93 161T86 287V728H34V743H153V728H102V287Q102 217 108 165T132 78T180 26T260 8Q309 8 340 25T388 77T412 164T419 287V728H368V743H487V728H435Z"  />
<glyph unicode="V" horiz-adv-x="531" d="M466 728L278 0H252L65 728H21V743H133V728H82L265 13H266L448 728H397V743H510V728H466Z"  />
<glyph unicode="W" horiz-adv-x="694" d="M624 728L506 0H478L347 556H346L215 0H188L68 728H21V743H136V728H85L201 13H202L332 570H361L491 13H493L608 728H558V743H672V728H624Z"  />
<glyph unicode="X" horiz-adv-x="506" d="M242 378L69 728H21V743H130V728H87L253 393L418 728H375V743H484V728H436L261 376L440 15H484V0H379V15H422L251 360L82 15H125V0H21V15H64L242 378Z"  />
<glyph unicode="Y" horiz-adv-x="459" d="M392 728L238 310V15H297V0H162V15H221V310L68 728H21V743H133V728H85L229 337H230L374 728H326V743H438V728H392Z"  />
<glyph unicode="Z" horiz-adv-x="437" d="M36 0V15L371 728H67V659H51V743H389V728L54 15H385V84H400V0H36Z"  />
<glyph unicode="[" horiz-adv-x="240" d="M69 -203V743H211V727H85V-187H211V-203H69Z"  />
<glyph unicode="\" horiz-adv-x="297" d="M249 0L17 743H35L267 0H249Z"  />
<glyph unicode="]" horiz-adv-x="240" d="M28 -203V-187H154V727H28V743H171V-203H28Z"  />
<glyph unicode="^" horiz-adv-x="489" d="M419 353L253 575L87 353H68L241 586H265L438 353H419Z"  />
<glyph unicode="_" horiz-adv-x="437" d="M-21 -87V-71H427V-87H-21Z"  />
<glyph unicode="`" horiz-adv-x="244" d="M149 607L43 760H61L167 607H149Z"  />
<glyph unicode="a" horiz-adv-x="366" d="M284 0V33Q257 16 225 4T154 -9Q86 -9 62 32T38 146V150Q38 191 45 220T73 269T126 298T213 307H284V387Q284 427 280 453T263 494T226 516T161 523Q147 523 128 522T81 519V460H65V532Q103 536 124 537T161 539Q204 539 231 532T274 507T294 460T300 387V15H343V0H284ZM284 292H213Q165 292 135 285T86 261T62 217T55 150V146Q55 74 77 41T156 7Q191 7 224 20T284 50V292Z"  />
<glyph unicode="b" horiz-adv-x="371" d="M326 250Q326 179 319 130T295 50T248 5T172 -9Q158 -9 132 -8T57 -2V744H14V760H73V522Q105 532 132 535T176 539Q220 539 249 526T295 483T319 403T326 280V250ZM310 280Q310 353 304 400T282 474T241 512T176 523Q160 523 132 520T73 507V11Q111 8 134 8T172 7Q212 7 238 18T281 58T303 133T310 250V280Z"  />
<glyph unicode="c" horiz-adv-x="318" d="M290 0Q260 -5 237 -7T198 -9Q153 -9 123 3T76 45T52 127T45 257V274Q45 350 52 401T77 483T124 526T198 539Q217 539 237 538T290 531V454H274V517Q252 521 232 522T198 523Q159 523 133 513T90 474T68 398T61 274V257Q61 180 67 131T89 55T131 17T198 7Q212 7 233 8T290 16V0H290Z"  />
<glyph unicode="d" horiz-adv-x="385" d="M297 0V31Q275 17 244 5T174 -8Q136 -8 111 6T72 51T51 134T45 258V273Q45 343 52 393T76 476T124 523T200 539Q212 539 235 538T297 532V744H250V760H313V15H357V0H297ZM297 517Q262 522 237 522T200 523Q159 523 133 510T90 468T68 390T61 273V258Q61 186 66 138T85 60T120 19T176 7Q212 7 244 20T297 47V517Z"  />
<glyph unicode="e" horiz-adv-x="372" d="M61 265V242Q61 178 68 134T92 61T136 20T203 7Q235 7 268 10T325 18V4Q307 0 273 -4T203 -8Q156 -8 126 7T77 53T52 131T45 243V288Q45 348 51 395T73 474T116 522T188 539Q231 539 259 523T303 475T325 396T331 287V265H61ZM315 290Q315 350 309 393T289 466T250 509T188 523Q149 523 125 508T86 464T66 391T61 290V280H315V290Z"  />
<glyph unicode="f" horiz-adv-x="276" d="M119 514V15H166V0H55V15H102V514H22V529H102V638Q102 669 105 692T118 731T147 755T197 763Q205 763 222 762T254 758V745Q240 746 223 746T197 747Q171 747 156 742T133 723T122 690T119 638V529H248V514H119Z"  />
<glyph unicode="g" horiz-adv-x="378" d="M342 -38Q342 -71 336 -101T312 -155T266 -192T190 -206Q143 -206 113 -193T66 -156T43 -102T37 -38Q37 16 51 47T84 100Q61 107 50 123T39 163Q39 183 51 203T81 237Q58 260 50 293T42 364Q42 394 46 425T64 481T107 523T185 539H334V523H259Q298 503 313 464T328 364Q328 337 324 308T304 256T261 217T185 202Q153 202 130 209T93 227Q77 216 66 198T55 163Q55 142 66 128T109 113H182Q232 113 263 104T312 76T336 29T342 -38ZM326 -38Q326 -2 321 24T301 66T257 90T182 98H100Q80 75 67 45T53 -38Q53 -70 58 -97T79 -145T121 -178T190 -190Q232 -190 258 -178T300 -146T320 -98T326 -38ZM312 364Q312 393 309 421T292 472T254 509T185 523Q140 523 115 509T77 472T61 421T58 364Q58 336 62 310T79 263T117 231T185 218Q228 218 253 230T291 263T308 309T312 364Z"  />
<glyph unicode="h" horiz-adv-x="426" d="M332 0V357Q332 403 328 435T312 486T281 514T233 523Q197 523 161 509T94 474V15H138V0H35V15H78V744H35V760H94V491Q122 508 157 523T233 539Q268 539 290 528T325 495T343 438T348 357V15H391V0H332Z"  />
<glyph unicode="i" horiz-adv-x="176" d="M36 0V15H80V514H36V529H96V15H139V0H36ZM80 640V760H96V640H80Z"  />
<glyph unicode="j" horiz-adv-x="136" d="M96 -115Q96 -136 94 -152T84 -181T64 -199T28 -206Q22 -206 11 -206T-15 -203V-189Q2 -191 12 -191T28 -191Q60 -191 70 -174T80 -115V514H37V529H96V-115ZM80 639V760H96V639H80Z"  />
<glyph unicode="k" horiz-adv-x="353" d="M285 0L92 272V15H136V0H32V15H76V744H32V760H92V276L283 529H334V514H292L111 274L295 15H335V0H285Z"  />
<glyph unicode="l" horiz-adv-x="176" d="M36 0V15H80V744H36V760H96V15H139V0H36Z"  />
<glyph unicode="m" horiz-adv-x="604" d="M510 0V394Q510 424 508 448T497 488T472 514T430 523Q402 523 371 512T304 474Q307 460 309 442T311 394V0H295V394Q295 425 293 449T282 490T258 514T215 523Q190 523 161 512T94 476V15H137V0H35V15H78V514H35V529H94V493Q130 518 160 528T215 539Q251 539 270 526T300 489Q333 515 367 527T430 539Q462 539 481 528T510 497T523 451T526 394V15H569V0H510Z"  />
<glyph unicode="n" horiz-adv-x="420" d="M329 0V357Q329 404 324 435T308 486T277 514T228 523Q193 523 159 510T91 474V15H134V0H32V15H75V514H32V529H91V491Q121 511 155 525T228 539Q263 539 286 528T322 495T340 438T345 357V15H388V0H329Z"  />
<glyph unicode="o" horiz-adv-x="384" d="M339 258Q339 188 333 138T310 55T265 7T192 -9Q148 -9 120 6T75 54T52 137T45 258V273Q45 343 51 393T74 475T119 523T192 539Q236 539 264 524T309 476T332 393T339 273V258ZM323 273Q323 342 317 389T296 467T256 510T192 523Q153 523 128 510T88 467T67 390T61 273V258Q61 189 67 141T88 63T128 20T192 7Q230 7 255 20T295 63T316 141T323 258V273Z"  />
<glyph unicode="p" horiz-adv-x="393" d="M34 -203V-188H78V514H34V529H94V496Q117 511 151 525T223 539Q262 539 286 525T323 480T342 397T347 273V258Q347 189 340 139T315 57T267 8T191 -8Q179 -8 156 -7T94 -1V-188H138V-203H34ZM331 273Q331 344 327 392T311 469T278 510T222 523Q186 523 152 509T94 480V13Q129 8 154 8T191 7Q231 7 258 21T301 65T324 142T331 258V273Z"  />
<glyph unicode="q" horiz-adv-x="385" d="M254 -203V-188H297V6Q277 -1 248 -4T196 -8Q151 -8 122 5T76 50T52 132T45 258V272Q45 347 52 398T77 480T126 524T205 538Q217 538 244 538T313 532V-188H357V-203H254ZM297 519Q265 522 241 522T205 523Q163 523 135 512T91 472T68 395T61 272V258Q61 184 67 136T89 59T131 19T196 7Q219 7 245 10T297 22V519Z"  />
<glyph unicode="r" horiz-adv-x="271" d="M256 523Q246 523 229 522T191 516T144 501T94 473V15H145V0H35V15H78V514H35V529H94V489Q118 507 143 516T189 531T228 537T256 538V523H256Z"  />
<glyph unicode="s" horiz-adv-x="324" d="M289 121Q289 100 284 77T263 35T220 4T150 -9Q115 -9 87 -6T38 3V72H53V15Q71 11 96 9T150 6Q187 6 211 16T248 42T267 79T273 121Q273 165 249 197T168 265L142 282Q116 299 97 314T64 346T43 383T36 429Q36 452 42 472T64 506T106 529T173 538Q200 538 228 535T275 528V460H260V515Q243 518 220 520T173 523Q137 523 114 516T77 497T58 468T52 429Q52 405 58 388T76 355T107 326T150 296L177 278Q234 240 261 205T289 121Z"  />
<glyph unicode="t" horiz-adv-x="276" d="M251 -5Q231 -7 214 -8T189 -9Q166 -9 152 -3T131 16T121 46T118 87V514H22V529H118V668H134V529H253V514H134V87Q134 42 144 25T189 7Q210 7 251 10V-5H251Z"  />
<glyph unicode="u" horiz-adv-x="421" d="M329 0V39Q300 19 268 5T192 -9Q157 -9 135 2T99 35T81 92T76 173V514H32V529H92V173Q92 126 97 95T113 44T144 16T192 7Q231 7 264 20T329 57V514H286V529H345V15H389V0H329Z"  />
<glyph unicode="v" horiz-adv-x="414" d="M349 514L220 0H194L65 514H25V529H125V514H82L207 14H208L332 514H289V529H389V514H349Z"  />
<glyph unicode="w" horiz-adv-x="638" d="M572 514L481 0H455L320 466H318L183 0H157L66 514H27V529H126V514H83L169 15H171L307 485H331L467 15H469L554 514H511V529H611V514H572Z"  />
<glyph unicode="x" horiz-adv-x="408" d="M205 287L332 529H385V514H342L213 272L350 15H388V0H340L203 257L67 0H19V15H57L194 274L66 514H22V529H76L205 287Z"  />
<glyph unicode="y" horiz-adv-x="421" d="M355 514L218 -39Q207 -85 196 -117T171 -168T136 -197T86 -206Q76 -206 61 -206T32 -203V-189Q52 -191 64 -191T86 -191Q111 -191 128 -183T157 -157T180 -108T201 -33L210 2L68 514H24V529H129V514H85L218 31H220L338 514H295V529H399V514H355Z"  />
<glyph unicode="z" horiz-adv-x="336" d="M35 0V15L283 514H61V460H45V529H301V515L53 15H286V70H301V0H35Z"  />
<glyph unicode="{" horiz-adv-x="264" d="M211 -203Q172 -203 150 -193T116 -166T101 -127T98 -79V103Q98 134 95 156T83 196T62 229T30 261V280Q49 296 62 311T83 345T94 385T98 438V619Q98 644 101 666T115 706T149 733T211 743H234V727H211Q177 727 158 719T129 697T117 663T115 619V438Q115 407 111 384T98 341T75 304T42 270Q61 253 75 237T98 201T111 158T115 103V-79Q115 -103 117 -123T128 -157T157 -179T211 -187H234V-203H211Z"  />
<glyph unicode="|" horiz-adv-x="139" d="M69 -203V743H85V-203H69Z"  />
<glyph unicode="}" horiz-adv-x="264" d="M233 261Q214 244 201 229T180 196T169 156T165 103V-79Q165 -104 162 -126T148 -166T114 -193T52 -203H30V-187H52Q86 -187 105 -179T135 -157T147 -123T149 -79V103Q149 134 153 157T166 200T188 236T221 270Q202 287 189 304T166 340T153 383T149 438V619Q149 643 147 662T135 696T106 719T52 727H30V743H52Q91 743 114 733T148 706T162 667T165 619V438Q165 407 168 385T180 345T201 312T233 280V261H233Z"  />
<glyph unicode="~" horiz-adv-x="462" d="M398 457Q398 398 387 366T334 334Q305 334 287 352T248 401L211 445Q190 475 177 488T140 502Q106 502 99 474T91 396V341H74V396Q74 455 86 486T140 518Q168 518 184 502T224 454L261 411Q282 382 297 366T334 350Q367 350 374 378T381 457V511H398V457H398Z"  />
<glyph unicode="&#xA0;" horiz-adv-x="176" />
<glyph unicode="&#xA1;" horiz-adv-x="148" d="M66 -203V343H82V-203H66ZM66 410V529H82V410H66Z"  />
<glyph unicode="&#xA2;" horiz-adv-x="315" d="M288 1Q257 -4 238 -6T204 -9V-121H187V-9Q145 -7 117 7T73 48T50 116T43 212V319Q43 373 50 413T73 480T117 522T187 539V663H204V539Q218 538 237 537T288 529V440H272V518Q243 522 226 522T197 523Q158 523 132 511T89 475T67 412T60 319V212Q60 156 66 118T88 54T130 18T197 7Q211 7 232 8T288 16V1H288Z"  />
<glyph unicode="&#xA3;" horiz-adv-x="440" d="M61 0V16Q77 36 87 53T104 90T112 131T115 185V382H47V398H115V520Q115 581 121 624T146 694T196 734T281 747Q313 747 343 745T400 739V642H384V726Q358 728 332 730T281 732Q235 732 206 722T161 687T138 621T132 520V398H340V382H132V185Q132 153 129 130T120 87T103 51T80 16H400V0H61Z"  />
<glyph unicode="&#xA4;" horiz-adv-x="496" d="M432 186L365 253Q340 230 310 219T249 208Q217 208 187 219T132 253L65 186L53 197L121 265Q98 289 88 319T77 380Q77 416 88 443T121 496L54 564L65 575L133 507Q157 530 187 541T249 552Q280 552 310 541T364 508L432 575L443 564L375 496Q392 478 406 449T421 380Q421 348 410 318T376 264L443 197L432 186ZM405 380Q405 409 394 437T363 486T313 521T249 535Q217 535 189 524T140 493T106 444T93 380Q93 349 105 321T138 272T187 237T249 224Q281 224 309 235T358 268T391 317T405 380Z"  />
<glyph unicode="&#xA5;" horiz-adv-x="467" d="M242 296V15H300V0H165V15H225V296H54V312H224L169 464H54V480H163L72 727H32V743H84L233 333H234L383 743H436V727H395L304 480H413V464H298L243 312H413V296H242Z"  />
<glyph unicode="&#xA6;" horiz-adv-x="139" d="M69 354V744H85V354H69ZM85 -203H69V187H85V-203Z"  />
<glyph unicode="&#xA7;" horiz-adv-x="412" d="M362 -38Q362 -79 353 -113T324 -172T269 -211T185 -225Q149 -225 116 -223T55 -215V-133H69V-203Q101 -207 127 -208T185 -210Q230 -210 261 -198T311 -163T338 -109T346 -38Q346 -1 339 25T316 74T271 121T201 180L163 210Q138 230 117 249T81 290T58 336T49 389Q49 417 56 446T83 496Q64 524 57 550T49 606Q49 673 87 712T216 751Q257 751 292 748T347 742V659H333V729Q312 732 281 734T216 736Q136 736 101 702T65 606Q65 578 71 555T92 510T131 464T191 412L229 382Q263 355 288 333T329 288T354 239T362 178Q362 150 358 121T340 66Q352 42 357 18T362 -38ZM330 81Q339 103 342 128T346 178Q346 212 339 236T316 281T277 323T220 370L179 403Q147 429 126 448T92 485Q78 467 72 442T65 389Q65 361 73 339T95 296T129 258T175 219L209 192Q257 154 285 129T330 81Z"  />
<glyph unicode="&#xA8;" horiz-adv-x="290" d="M226 628V745H242V628H226ZM61 628H45V745H61V628Z"  />
<glyph unicode="&#xA9;" horiz-adv-x="646" d="M607 381Q607 299 587 235T530 127T440 59T323 36Q258 36 206 59T116 126T59 235T38 381Q38 462 58 526T116 635T205 702T323 726Q387 726 439 703T529 635T587 527T607 381ZM591 381Q591 458 573 519T519 622T435 687T323 710Q261 710 211 688T126 623T73 519T54 381Q54 304 72 243T126 140T211 75T323 52Q385 52 434 74T519 139T572 243T591 381ZM403 167Q386 165 369 164T329 162Q291 162 266 174T225 210T204 269T197 350V409Q197 455 203 490T225 549T265 585T329 597Q352 597 373 596T403 593V518H387V579Q376 580 361 580T329 581Q264 581 239 540T213 409V350Q213 260 238 219T329 178Q340 178 351 178T387 181V241H403V167Z"  />
<glyph unicode="&#xAA;" horiz-adv-x="247" d="M176 448V467Q164 460 146 452T102 443Q64 443 48 466T32 527V545Q32 568 37 584T54 611T86 627T137 632H176V670Q176 693 174 708T164 731T143 743T106 747Q100 747 88 747T62 745V714H48V757Q62 760 79 761T106 762Q133 762 149 758T175 742T188 714T191 670V463H215V448H176ZM176 617H137Q83 617 65 601T47 545V527Q47 492 60 475T104 457Q125 457 143 464T176 482V617Z"  />
<glyph unicode="&#xAB;" horiz-adv-x="394" d="M336 70L208 277L336 483H356L229 277L356 70H336ZM186 70H166L38 277L166 483H186L59 277L186 70Z"  />
<glyph unicode="&#xAC;" horiz-adv-x="518" d="M416 270V499H86V515H432V270H416Z"  />
<glyph unicode="&#xAD;" horiz-adv-x="268" d="M46 274V290H223V274H46Z"  />
<glyph unicode="&#xAE;" horiz-adv-x="533" d="M491 482Q491 420 475 369T430 280T360 223T266 203Q214 203 173 223T102 280T57 368T41 482Q41 545 56 596T101 684T172 741T266 761Q318 761 359 741T430 684T475 596T491 482ZM475 482Q475 541 461 589T421 672T355 726T266 745Q216 745 178 726T113 673T72 590T58 482Q58 423 72 375T112 292T177 238T266 219Q316 219 355 238T420 292T461 375T475 482ZM336 323L269 471H252H211V337H235V323H173V337H197V645H173V657Q205 659 223 659T252 660Q302 660 321 635T340 568V562Q340 487 285 474L345 337H370V323H336ZM326 568Q326 608 309 627T252 646Q243 646 232 646T211 645V484H257Q295 484 310 502T326 562V568Z"  />
<glyph unicode="&#xAF;" horiz-adv-x="333" d="M31 678V694H302V678H31Z"  />
<glyph unicode="&#xB0;" horiz-adv-x="378" d="M347 593Q347 560 335 531T301 481T251 448T189 436Q155 436 126 448T76 481T42 531T30 593Q30 627 42 656T75 706T126 740T189 752Q222 752 250 740T300 707T334 656T347 593ZM331 593Q331 623 320 649T289 695T244 725T189 736Q159 736 133 725T88 695T57 650T46 593Q46 563 57 537T87 492T133 463T189 452Q218 452 243 462T288 492T319 537T331 593Z"  />
<glyph unicode="&#xB1;" horiz-adv-x="518" d="M61 0V16H457V0H61ZM268 384V187H252V384H54V401H252V598H268V401H464V384H268Z"  />
<glyph unicode="&#xB2;" horiz-adv-x="300" d="M41 309V329Q41 368 45 395T62 443T95 484T152 528Q181 548 199 563T226 593T239 622T243 655Q243 704 217 720T137 737Q117 737 97 736T60 732V689H45V743Q64 748 89 750T137 752Q198 752 228 732T259 655Q259 637 256 621T242 588T212 555T163 516Q130 493 109 475T77 436T61 391T57 329V324H238V368H252V309H41Z"  />
<glyph unicode="&#xB3;" horiz-adv-x="296" d="M254 428Q254 356 222 329T122 301Q99 301 76 303T41 308V365H56V320Q70 318 87 317T122 316Q152 316 174 321T210 338T231 373T238 428V431Q238 452 235 470T222 501T195 521T149 528H55V543H149Q177 543 194 551T222 573T235 606T238 646V651Q238 701 213 719T125 737Q108 737 91 736T56 733V689H41V745Q54 747 79 749T125 752Q193 752 223 731T254 651V646Q254 604 241 575T189 535Q229 525 241 499T254 431V428H254Z"  />
<glyph unicode="&#xB4;" horiz-adv-x="297" d="M141 607H124L229 760H248L141 607Z"  />
<glyph unicode="&#xB5;" horiz-adv-x="421" d="M329 0V39Q300 19 268 5T192 -9Q114 -9 92 43V-188H136V-203H32V-188H76V514H32V529H92V153Q92 74 113 41T192 7Q231 7 264 20T329 57V514H286V529H345V15H389V0H329Z"  />
<glyph unicode="&#xB6;" horiz-adv-x="480" d="M421 -203V729H340V-203H262V-187H324V264H283Q230 264 186 275T111 314T61 386T43 499V510Q43 581 60 626T109 698T185 735T283 745H437V-203H421ZM324 729H283Q233 729 192 720T121 685T75 618T59 510V500Q59 437 75 395T122 327T193 291T283 280H324V729Z"  />
<glyph unicode="&#xB7;" horiz-adv-x="97" d="M40 288V420H56V288H40Z"  />
<glyph unicode="&#xB8;" horiz-adv-x="260" d="M73 -203H55L156 -62H176L73 -203Z"  />
<glyph unicode="&#xB9;" horiz-adv-x="236" d="M22 307V321H108V730L22 697V712L108 745H124V321H213V307H22Z"  />
<glyph unicode="&#xBA;" horiz-adv-x="262" d="M219 579Q219 550 215 525T202 480T175 451T130 440Q103 440 87 450T60 480T47 524T43 579V624Q43 653 46 678T60 722T86 751T130 762Q157 762 174 752T201 723T215 679T219 624V579ZM204 624Q204 652 201 674T189 713T166 738T130 747Q89 747 74 713T59 624V579Q59 523 74 489T130 455Q173 455 188 489T204 579V624Z"  />
<glyph unicode="&#xBB;" horiz-adv-x="394" d="M228 70H207L335 277L207 483H228L356 277L228 70ZM186 277L58 70H37L165 277L37 483H58L186 277Z"  />
<glyph unicode="&#xBC;" horiz-adv-x="629" d="M532 132V16H565V1H483V16H516V132H332V147L510 437H532V147H590V132H532ZM516 420L350 147H516V420ZM162 0H143L495 743H513L162 0ZM39 307V321H125V730L39 697V712L125 745H141V321H229V307H39Z"  />
<glyph unicode="&#xBD;" horiz-adv-x="677" d="M420 1V21Q420 60 424 86T441 134T475 175T532 219Q561 239 578 255T606 285T619 314T622 347Q622 396 596 412T516 429Q496 429 477 427T439 423V380H424V435Q443 439 468 441T516 444Q577 444 607 423T638 347Q638 329 634 313T620 280T591 247T542 208Q508 184 488 166T456 128T440 83T436 21V16H617V60H631V1H420ZM162 0H143L495 743H513L162 0ZM39 307V321H125V730L39 697V712L125 745H141V321H229V307H39Z"  />
<glyph unicode="&#xBE;" horiz-adv-x="634" d="M537 132V16H571V1H488V16H521V132H337V147L515 437H537V147H596V132H537ZM521 420L356 147H521V420ZM167 0H148L500 743H519L167 0ZM252 428Q252 356 220 329T120 301Q97 301 74 303T39 308V365H53V320Q67 318 85 317T120 316Q150 316 172 321T208 338T229 373T236 428V431Q236 452 233 470T220 501T193 521T147 528H53V543H147Q175 543 192 551T219 573T232 606T236 646V651Q236 701 210 719T122 737Q105 737 88 736T53 733V689H39V745Q52 747 77 749T122 752Q190 752 221 731T252 651V646Q252 604 238 575T187 535Q226 525 239 499T252 431V428Z"  />
<glyph unicode="&#xBF;" horiz-adv-x="303" d="M273 -215Q247 -220 221 -222T176 -224Q106 -224 68 -195T30 -88V-86Q30 -56 33 -33T45 12T68 56T105 108Q132 144 148 168T172 214T182 255T185 303V337H202V303Q202 276 200 254T188 210T162 162T117 99Q95 71 81 50T60 8T49 -35T46 -86V-88Q46 -157 77 -183T176 -209Q196 -209 216 -207T258 -203V-145H273V-215ZM185 409V529H202V409H185Z"  />
<glyph unicode="&#xC0;" horiz-adv-x="526" d="M398 0V15H446L373 307H153L80 15H127V0H15V15H62L245 728H195V743H276L463 15H511V0H398ZM264 731H262L157 323H369L264 731ZM270 800L164 953H182L288 800H270Z"  />
<glyph unicode="&#xC1;" horiz-adv-x="526" d="M398 0V15H446L373 307H153L80 15H127V0H15V15H62L245 728H195V743H276L463 15H511V0H398ZM264 731H262L157 323H369L264 731ZM263 800H246L351 953H370L263 800Z"  />
<glyph unicode="&#xC2;" horiz-adv-x="526" d="M398 0V15H446L373 307H153L80 15H127V0H15V15H62L245 728H195V743H276L463 15H511V0H398ZM264 731H262L157 323H369L264 731ZM366 800L263 941L160 800H140L254 953H272L386 800H366Z"  />
<glyph unicode="&#xC3;" horiz-adv-x="526" d="M398 0V15H446L373 307H153L80 15H127V0H15V15H62L245 728H195V743H276L463 15H511V0H398ZM264 731H262L157 323H369L264 731ZM403 906Q403 854 392 826T344 798Q319 798 304 812T270 855L247 891Q229 919 216 932T182 945Q167 945 158 938T145 919T139 889T138 851V802H123V851Q123 903 134 931T182 959Q207 959 224 944T259 900L282 864Q300 836 312 825T344 813Q359 813 368 820T381 839T387 869T388 906V956H403V906H403Z"  />
<glyph unicode="&#xC4;" horiz-adv-x="526" d="M398 0V15H446L373 307H153L80 15H127V0H15V15H62L245 728H195V743H276L463 15H511V0H398ZM264 731H262L157 323H369L264 731ZM345 821V938H361V821H345ZM180 821H164V938H180V821Z"  />
<glyph unicode="&#xC5;" horiz-adv-x="526" d="M398 0V15H446L373 307H153L80 15H127V0H15V15H62L245 728H195V743H276L463 15H511V0H398ZM264 731H262L157 323H369L264 731ZM357 883Q357 832 331 806T262 779Q219 779 194 805T168 883Q168 934 193 960T262 987Q305 987 331 961T357 883ZM342 883Q342 932 319 952T262 972Q229 972 206 953T183 883Q183 833 206 814T262 794Q296 794 319 813T342 883Z"  />
<glyph unicode="&#xC6;" horiz-adv-x="667" d="M293 0V15H342V307H147L70 0H10V15H56L239 728H189V743H637V659H622V728H358V400H615V385H358V15H622V85H637V0H293ZM342 728H254Q248 702 243 679T230 631L151 323H342V728Z"  />
<glyph unicode="&#xC7;" horiz-adv-x="402" d="M363 3Q349 0 317 -4T239 -8Q181 -8 143 14T83 81T51 197T42 365V378Q42 475 51 545T82 661T143 729T239 751Q284 751 317 747T363 740V659H347V728Q327 731 299 733T239 736Q186 736 152 716T97 653T68 541T59 378V365Q59 270 67 202T96 91T151 27T239 7Q273 7 301 9T347 14V81H363V3ZM158 -203H140L241 -62H261L158 -203Z"  />
<glyph unicode="&#xC8;" horiz-adv-x="408" d="M34 0V15H82V728H34V743H378V659H362V728H99V400H355V385H99V15H362V85H378V0H34ZM218 800L112 953H130L236 800H218Z"  />
<glyph unicode="&#xC9;" horiz-adv-x="408" d="M34 0V15H82V728H34V743H378V659H362V728H99V400H355V385H99V15H362V85H378V0H34ZM213 800H196L301 953H320L213 800Z"  />
<glyph unicode="&#xCA;" horiz-adv-x="408" d="M34 0V15H82V728H34V743H378V659H362V728H99V400H355V385H99V15H362V85H378V0H34ZM320 800L217 941L114 800H94L208 953H226L340 800H320Z"  />
<glyph unicode="&#xCB;" horiz-adv-x="408" d="M34 0V15H82V728H34V743H378V659H362V728H99V400H355V385H99V15H362V85H378V0H34ZM307 821V938H323V821H307ZM142 821H126V938H142V821Z"  />
<glyph unicode="&#xCC;" horiz-adv-x="188" d="M37 0V15H86V728H37V743H151V728H102V15H151V0H37ZM108 800L2 953H20L126 800H108Z"  />
<glyph unicode="&#xCD;" horiz-adv-x="188" d="M37 0V15H86V728H37V743H151V728H102V15H151V0H37ZM87 800H70L175 953H194L87 800Z"  />
<glyph unicode="&#xCE;" horiz-adv-x="188" d="M37 0V15H86V728H37V743H151V728H102V15H151V0H37ZM198 800L95 941L-8 800H-28L86 953H104L218 800H198Z"  />
<glyph unicode="&#xCF;" horiz-adv-x="188" d="M37 0V15H86V728H37V743H151V728H102V15H151V0H37ZM178 825V942H194V825H178ZM13 825H-3V942H13V825Z"  />
<glyph unicode="&#xD0;" horiz-adv-x="476" d="M434 356Q434 261 424 193T388 79T319 13T212 -9Q184 -9 164 -8T124 -5T83 -2T34 0V15H82V379H33V396H82V728H34V743Q62 743 82 744T120 746T160 749T212 750Q276 750 319 729T387 663T423 549T434 386V356ZM417 386Q417 479 407 545T372 653T309 715T212 735Q179 735 152 734T99 730V396H241V379H99V14Q120 12 152 10T212 7Q270 7 309 27T372 89T406 197T417 356V386Z"  />
<glyph unicode="&#xD1;" horiz-adv-x="527" d="M445 728V-1H416L100 725H99V15H150V0H34V15H83V728H34V743H111L427 16H428V728H378V743H493V728H445ZM403 910Q403 858 392 830T344 802Q319 802 304 816T270 859L247 895Q229 923 216 936T182 949Q167 949 158 942T145 923T139 893T138 855V806H123V855Q123 907 134 935T182 963Q207 963 224 948T259 904L282 868Q300 840 312 829T344 817Q359 817 368 824T381 843T387 873T388 910V960H403V910H403Z"  />
<glyph unicode="&#xD2;" horiz-adv-x="469" d="M426 357Q426 255 416 185T383 73T324 11T235 -8Q183 -8 147 11T87 72T53 185T42 357V386Q42 488 52 558T86 670T146 732T235 751Q287 751 323 732T382 671T415 558T426 386V357ZM410 386Q410 488 400 555T369 662T314 719T235 736Q189 736 156 720T101 663T69 555T59 386V357Q59 255 69 188T101 80T156 24T235 7Q280 7 313 23T367 80T399 187T410 357V386ZM237 800L131 953H149L255 800H237Z"  />
<glyph unicode="&#xD3;" horiz-adv-x="469" d="M426 357Q426 255 416 185T383 73T324 11T235 -8Q183 -8 147 11T87 72T53 185T42 357V386Q42 488 52 558T86 670T146 732T235 751Q287 751 323 732T382 671T415 558T426 386V357ZM410 386Q410 488 400 555T369 662T314 719T235 736Q189 736 156 720T101 663T69 555T59 386V357Q59 255 69 188T101 80T156 24T235 7Q280 7 313 23T367 80T399 187T410 357V386ZM237 800H220L325 953H344L237 800Z"  />
<glyph unicode="&#xD4;" horiz-adv-x="469" d="M426 357Q426 255 416 185T383 73T324 11T235 -8Q183 -8 147 11T87 72T53 185T42 357V386Q42 488 52 558T86 670T146 732T235 751Q287 751 323 732T382 671T415 558T426 386V357ZM410 386Q410 488 400 555T369 662T314 719T235 736Q189 736 156 720T101 663T69 555T59 386V357Q59 255 69 188T101 80T156 24T235 7Q280 7 313 23T367 80T399 187T410 357V386ZM336 800L233 941L130 800H110L224 953H242L356 800H336Z"  />
<glyph unicode="&#xD5;" horiz-adv-x="469" d="M426 357Q426 255 416 185T383 73T324 11T235 -8Q183 -8 147 11T87 72T53 185T42 357V386Q42 488 52 558T86 670T146 732T235 751Q287 751 323 732T382 671T415 558T426 386V357ZM410 386Q410 488 400 555T369 662T314 719T235 736Q189 736 156 720T101 663T69 555T59 386V357Q59 255 69 188T101 80T156 24T235 7Q280 7 313 23T367 80T399 187T410 357V386ZM374 909Q374 857 363 829T315 801Q290 801 275 815T241 858L218 894Q200 922 187 935T153 948Q138 948 129 941T116 922T110 892T109 854V805H94V854Q94 906 105 934T153 962Q178 962 195 947T230 903L253 867Q271 839 283 828T315 816Q330 816 339 823T352 842T358 872T359 909V959H374V909H374Z"  />
<glyph unicode="&#xD6;" horiz-adv-x="469" d="M426 357Q426 255 416 185T383 73T324 11T235 -8Q183 -8 147 11T87 72T53 185T42 357V386Q42 488 52 558T86 670T146 732T235 751Q287 751 323 732T382 671T415 558T426 386V357ZM410 386Q410 488 400 555T369 662T314 719T235 736Q189 736 156 720T101 663T69 555T59 386V357Q59 255 69 188T101 80T156 24T235 7Q280 7 313 23T367 80T399 187T410 357V386ZM315 819V936H331V819H315ZM150 819H134V936H150V819Z"  />
<glyph unicode="&#xD7;" horiz-adv-x="518" d="M418 220L258 381L98 220L86 232L247 392L86 553L98 565L258 403L419 565L431 553L269 392L430 232L418 220Z"  />
<glyph unicode="&#xD8;" horiz-adv-x="469" d="M426 357Q426 255 416 185T383 73T324 11T235 -8Q183 -8 147 10T87 70L51 0H32L78 89Q59 132 51 197T42 357V386Q42 488 52 558T86 670T146 732T235 751Q287 751 323 733T382 671L420 743H439L391 651Q426 568 426 386V357ZM59 357Q59 270 66 210T89 108L373 653Q351 699 317 717T235 736Q189 736 156 720T101 663T69 555T59 386V357ZM410 386Q410 471 403 531T381 632L97 88Q118 43 152 25T235 7Q280 7 313 23T367 80T399 187T410 357V386Z"  />
<glyph unicode="&#xD9;" horiz-adv-x="521" d="M435 728V287Q435 216 428 162T402 70T349 13T260 -7Q206 -7 172 12T119 69T93 161T86 287V728H34V743H153V728H102V287Q102 217 108 165T132 78T180 26T260 8Q309 8 340 25T388 77T412 164T419 287V728H368V743H487V728H435ZM263 800L157 953H175L281 800H263Z"  />
<glyph unicode="&#xDA;" horiz-adv-x="521" d="M435 728V287Q435 216 428 162T402 70T349 13T260 -7Q206 -7 172 12T119 69T93 161T86 287V728H34V743H153V728H102V287Q102 217 108 165T132 78T180 26T260 8Q309 8 340 25T388 77T412 164T419 287V728H368V743H487V728H435ZM250 800H233L338 953H357L250 800Z"  />
<glyph unicode="&#xDB;" horiz-adv-x="521" d="M435 728V287Q435 216 428 162T402 70T349 13T260 -7Q206 -7 172 12T119 69T93 161T86 287V728H34V743H153V728H102V287Q102 217 108 165T132 78T180 26T260 8Q309 8 340 25T388 77T412 164T419 287V728H368V743H487V728H435ZM366 800L263 941L160 800H140L254 953H272L386 800H366Z"  />
<glyph unicode="&#xDC;" horiz-adv-x="521" d="M435 728V287Q435 216 428 162T402 70T349 13T260 -7Q206 -7 172 12T119 69T93 161T86 287V728H34V743H153V728H102V287Q102 217 108 165T132 78T180 26T260 8Q309 8 340 25T388 77T412 164T419 287V728H368V743H487V728H435ZM344 825V942H360V825H344ZM179 825H163V942H179V825Z"  />
<glyph unicode="&#xDD;" horiz-adv-x="459" d="M392 728L238 310V15H297V0H162V15H221V310L68 728H21V743H133V728H85L229 337H230L374 728H326V743H438V728H392ZM232 800H215L320 953H339L232 800Z"  />
<glyph unicode="&#xDE;" horiz-adv-x="424" d="M386 398Q386 351 378 314T347 250T288 209T193 194Q172 194 155 194T106 197V15H165V0H34V15H90V728H34V743H165V728H106V631Q137 633 154 633T193 634Q250 634 287 620T347 580T377 515T386 430V398ZM370 430Q370 476 362 511T333 571T279 607T193 619Q172 619 152 619T106 616V212Q132 210 150 210T193 209Q245 209 279 221T333 258T361 317T370 398V430Z"  />
<glyph unicode="&#xDF;" horiz-adv-x="439" d="M409 198Q409 153 401 115T374 50T322 7T243 -9Q233 -9 224 -9T198 -6V8Q216 7 224 7T243 7Q324 7 358 58T393 198V216Q393 255 385 287T359 341T310 376T237 389H198V405H237Q279 405 306 418T350 454T374 510T381 582V590Q381 630 375 661T353 715T308 750T236 762Q192 762 164 749T119 711T96 648T89 562V0H18V15H73V562Q73 611 80 651T105 719T155 762T236 777Q284 777 315 763T365 725T391 666T398 590V582Q398 506 369 457T284 397Q343 389 376 342T409 216V198H409Z"  />
<glyph unicode="&#xE0;" horiz-adv-x="366" d="M284 0V33Q257 16 225 4T154 -9Q86 -9 62 32T38 146V150Q38 191 45 220T73 269T126 298T213 307H284V387Q284 427 280 453T263 494T226 516T161 523Q147 523 128 522T81 519V460H65V532Q103 536 124 537T161 539Q204 539 231 532T274 507T294 460T300 387V15H343V0H284ZM284 292H213Q165 292 135 285T86 261T62 217T55 150V146Q55 74 77 41T156 7Q191 7 224 20T284 50V292ZM183 607L77 760H95L201 607H183Z"  />
<glyph unicode="&#xE1;" horiz-adv-x="366" d="M284 0V33Q257 16 225 4T154 -9Q86 -9 62 32T38 146V150Q38 191 45 220T73 269T126 298T213 307H284V387Q284 427 280 453T263 494T226 516T161 523Q147 523 128 522T81 519V460H65V532Q103 536 124 537T161 539Q204 539 231 532T274 507T294 460T300 387V15H343V0H284ZM284 292H213Q165 292 135 285T86 261T62 217T55 150V146Q55 74 77 41T156 7Q191 7 224 20T284 50V292ZM174 607H157L262 760H281L174 607Z"  />
<glyph unicode="&#xE2;" horiz-adv-x="366" d="M284 0V33Q257 16 225 4T154 -9Q86 -9 62 32T38 146V150Q38 191 45 220T73 269T126 298T213 307H284V387Q284 427 280 453T263 494T226 516T161 523Q147 523 128 522T81 519V460H65V532Q103 536 124 537T161 539Q204 539 231 532T274 507T294 460T300 387V15H343V0H284ZM284 292H213Q165 292 135 285T86 261T62 217T55 150V146Q55 74 77 41T156 7Q191 7 224 20T284 50V292ZM285 607L182 748L79 607H59L173 760H191L305 607H285Z"  />
<glyph unicode="&#xE3;" horiz-adv-x="366" d="M284 0V33Q257 16 225 4T154 -9Q86 -9 62 32T38 146V150Q38 191 45 220T73 269T126 298T213 307H284V387Q284 427 280 453T263 494T226 516T161 523Q147 523 128 522T81 519V460H65V532Q103 536 124 537T161 539Q204 539 231 532T274 507T294 460T300 387V15H343V0H284ZM284 292H213Q165 292 135 285T86 261T62 217T55 150V146Q55 74 77 41T156 7Q191 7 224 20T284 50V292ZM329 713Q329 661 318 633T270 605Q245 605 230 619T196 662L173 698Q155 726 142 739T108 752Q93 752 84 745T71 726T65 696T64 658V609H49V658Q49 710 60 738T108 766Q133 766 150 751T185 707L208 671Q226 643 238 632T270 620Q285 620 294 627T307 646T313 676T314 713V763H329V713H329Z"  />
<glyph unicode="&#xE4;" horiz-adv-x="366" d="M284 0V33Q257 16 225 4T154 -9Q86 -9 62 32T38 146V150Q38 191 45 220T73 269T126 298T213 307H284V387Q284 427 280 453T263 494T226 516T161 523Q147 523 128 522T81 519V460H65V532Q103 536 124 537T161 539Q204 539 231 532T274 507T294 460T300 387V15H343V0H284ZM284 292H213Q165 292 135 285T86 261T62 217T55 150V146Q55 74 77 41T156 7Q191 7 224 20T284 50V292ZM272 628V745H288V628H272ZM107 628H91V745H107V628Z"  />
<glyph unicode="&#xE5;" horiz-adv-x="366" d="M284 0V33Q257 16 225 4T154 -9Q86 -9 62 32T38 146V150Q38 191 45 220T73 269T126 298T213 307H284V387Q284 427 280 453T263 494T226 516T161 523Q147 523 128 522T81 519V460H65V532Q103 536 124 537T161 539Q204 539 231 532T274 507T294 460T300 387V15H343V0H284ZM284 292H213Q165 292 135 285T86 261T62 217T55 150V146Q55 74 77 41T156 7Q191 7 224 20T284 50V292ZM281 690Q281 639 255 613T186 586Q143 586 118 612T92 690Q92 741 117 767T186 794Q229 794 255 768T281 690ZM266 690Q266 739 243 759T186 779Q153 779 130 760T107 690Q107 640 130 621T186 601Q220 601 243 620T266 690Z"  />
<glyph unicode="&#xE6;" horiz-adv-x="619" d="M300 265V94Q300 44 335 26T446 7Q481 7 516 11T572 18V4Q563 2 549 0T517 -4T482 -7T446 -9Q419 -9 395 -7T351 1T316 18T292 48Q263 22 226 7T149 -9Q118 -9 97 1T63 29T44 73T38 130V164Q38 200 45 226T73 271T126 298T213 307H284V387Q284 427 280 453T262 494T225 516T160 523Q146 523 123 522T77 519V460H62V533Q91 537 117 538T160 539Q232 539 261 519T296 449Q308 490 341 514T432 539Q477 539 505 523T550 477T572 407T578 320V265H300ZM562 320Q562 367 556 404T536 468T496 509T432 523Q394 523 369 511T328 476T307 423T300 357V280H562V320ZM284 292H213Q165 292 134 285T86 263T61 223T54 164V130Q54 71 75 39T151 7Q187 7 221 22T284 60V292Z"  />
<glyph unicode="&#xE7;" horiz-adv-x="318" d="M290 0Q260 -5 237 -7T198 -9Q153 -9 123 3T76 45T52 127T45 257V274Q45 350 52 401T77 483T124 526T198 539Q217 539 237 538T290 531V454H274V517Q252 521 232 522T198 523Q159 523 133 513T90 474T68 398T61 274V257Q61 180 67 131T89 55T131 17T198 7Q212 7 233 8T290 16V0ZM102 -203H84L185 -62H205L102 -203Z"  />
<glyph unicode="&#xE8;" horiz-adv-x="372" d="M61 265V242Q61 178 68 134T92 61T136 20T203 7Q235 7 268 10T325 18V4Q307 0 273 -4T203 -8Q156 -8 126 7T77 53T52 131T45 243V288Q45 348 51 395T73 474T116 522T188 539Q231 539 259 523T303 475T325 396T331 287V265H61ZM315 290Q315 350 309 393T289 466T250 509T188 523Q149 523 125 508T86 464T66 391T61 290V280H315V290ZM199 607L93 760H111L217 607H199Z"  />
<glyph unicode="&#xE9;" horiz-adv-x="372" d="M61 265V242Q61 178 68 134T92 61T136 20T203 7Q235 7 268 10T325 18V4Q307 0 273 -4T203 -8Q156 -8 126 7T77 53T52 131T45 243V288Q45 348 51 395T73 474T116 522T188 539Q231 539 259 523T303 475T325 396T331 287V265H61ZM315 290Q315 350 309 393T289 466T250 509T188 523Q149 523 125 508T86 464T66 391T61 290V280H315V290ZM175 607H158L263 760H282L175 607Z"  />
<glyph unicode="&#xEA;" horiz-adv-x="372" d="M61 265V242Q61 178 68 134T92 61T136 20T203 7Q235 7 268 10T325 18V4Q307 0 273 -4T203 -8Q156 -8 126 7T77 53T52 131T45 243V288Q45 348 51 395T73 474T116 522T188 539Q231 539 259 523T303 475T325 396T331 287V265H61ZM315 290Q315 350 309 393T289 466T250 509T188 523Q149 523 125 508T86 464T66 391T61 290V280H315V290ZM292 607L189 748L86 607H66L180 760H198L312 607H292Z"  />
<glyph unicode="&#xEB;" horiz-adv-x="372" d="M61 265V242Q61 178 68 134T92 61T136 20T203 7Q235 7 268 10T325 18V4Q307 0 273 -4T203 -8Q156 -8 126 7T77 53T52 131T45 243V288Q45 348 51 395T73 474T116 522T188 539Q231 539 259 523T303 475T325 396T331 287V265H61ZM315 290Q315 350 309 393T289 466T250 509T188 523Q149 523 125 508T86 464T66 391T61 290V280H315V290ZM271 628V745H287V628H271ZM106 628H90V745H106V628Z"  />
<glyph unicode="&#xEC;" horiz-adv-x="176" d="M36 0V15H80V514H36V529H96V15H139V0H36ZM109 607L3 760H21L127 607H109Z"  />
<glyph unicode="&#xED;" horiz-adv-x="176" d="M36 0V15H80V514H36V529H96V15H139V0H36ZM85 607H68L173 760H192L85 607Z"  />
<glyph unicode="&#xEE;" horiz-adv-x="176" d="M36 0V15H80V514H36V529H96V15H139V0H36ZM193 607L90 748L-13 607H-33L81 760H99L213 607H193Z"  />
<glyph unicode="&#xEF;" horiz-adv-x="176" d="M36 0V15H80V514H36V529H96V15H139V0H36ZM173 628V745H189V628H173ZM8 628H-8V745H8V628Z"  />
<glyph unicode="&#xF0;" horiz-adv-x="384" d="M339 216Q339 166 333 125T311 53T266 7T192 -10Q148 -10 120 6T75 53T52 124T45 216V314Q45 363 51 404T74 476T119 522T192 539Q242 539 272 518T317 461Q309 552 285 610T215 703L111 611L102 620L204 713Q174 732 139 740T62 748V763Q102 763 140 755T214 724L274 772L283 763L226 715Q256 691 277 659T312 580T332 469T339 314V216ZM323 314Q323 363 317 402T296 468T256 509T192 523Q154 523 129 509T89 468T68 402T62 314V216Q62 166 68 127T89 61T129 20T192 6Q231 6 256 20T296 61T317 127T323 216V314Z"  />
<glyph unicode="&#xF1;" horiz-adv-x="420" d="M329 0V357Q329 404 324 435T308 486T277 514T228 523Q193 523 159 510T91 474V15H134V0H32V15H75V514H32V529H91V491Q121 511 155 525T228 539Q263 539 286 528T322 495T340 438T345 357V15H388V0H329ZM341 713Q341 661 330 633T282 605Q257 605 242 619T208 662L185 698Q167 726 154 739T120 752Q105 752 96 745T83 726T77 696T76 658V609H61V658Q61 710 72 738T120 766Q145 766 162 751T197 707L220 671Q238 643 250 632T282 620Q297 620 306 627T319 646T325 676T326 713V763H341V713H341Z"  />
<glyph unicode="&#xF2;" horiz-adv-x="384" d="M339 258Q339 188 333 138T310 55T265 7T192 -9Q148 -9 120 6T75 54T52 137T45 258V273Q45 343 51 393T74 475T119 523T192 539Q236 539 264 524T309 476T332 393T339 273V258ZM323 273Q323 342 317 389T296 467T256 510T192 523Q153 523 128 510T88 467T67 390T61 273V258Q61 189 67 141T88 63T128 20T192 7Q230 7 255 20T295 63T316 141T323 258V273ZM202 607L96 760H114L220 607H202Z"  />
<glyph unicode="&#xF3;" horiz-adv-x="384" d="M339 258Q339 188 333 138T310 55T265 7T192 -9Q148 -9 120 6T75 54T52 137T45 258V273Q45 343 51 393T74 475T119 523T192 539Q236 539 264 524T309 476T332 393T339 273V258ZM323 273Q323 342 317 389T296 467T256 510T192 523Q153 523 128 510T88 467T67 390T61 273V258Q61 189 67 141T88 63T128 20T192 7Q230 7 255 20T295 63T316 141T323 258V273ZM175 607H158L263 760H282L175 607Z"  />
<glyph unicode="&#xF4;" horiz-adv-x="384" d="M339 258Q339 188 333 138T310 55T265 7T192 -9Q148 -9 120 6T75 54T52 137T45 258V273Q45 343 51 393T74 475T119 523T192 539Q236 539 264 524T309 476T332 393T339 273V258ZM323 273Q323 342 317 389T296 467T256 510T192 523Q153 523 128 510T88 467T67 390T61 273V258Q61 189 67 141T88 63T128 20T192 7Q230 7 255 20T295 63T316 141T323 258V273ZM291 607L188 748L85 607H65L179 760H197L311 607H291Z"  />
<glyph unicode="&#xF5;" horiz-adv-x="384" d="M339 258Q339 188 333 138T310 55T265 7T192 -9Q148 -9 120 6T75 54T52 137T45 258V273Q45 343 51 393T74 475T119 523T192 539Q236 539 264 524T309 476T332 393T339 273V258ZM323 273Q323 342 317 389T296 467T256 510T192 523Q153 523 128 510T88 467T67 390T61 273V258Q61 189 67 141T88 63T128 20T192 7Q230 7 255 20T295 63T316 141T323 258V273ZM329 713Q329 661 318 633T270 605Q245 605 230 619T196 662L173 698Q155 726 142 739T108 752Q93 752 84 745T71 726T65 696T64 658V609H49V658Q49 710 60 738T108 766Q133 766 150 751T185 707L208 671Q226 643 238 632T270 620Q285 620 294 627T307 646T313 676T314 713V763H329V713H329Z"  />
<glyph unicode="&#xF6;" horiz-adv-x="384" d="M339 258Q339 188 333 138T310 55T265 7T192 -9Q148 -9 120 6T75 54T52 137T45 258V273Q45 343 51 393T74 475T119 523T192 539Q236 539 264 524T309 476T332 393T339 273V258ZM323 273Q323 342 317 389T296 467T256 510T192 523Q153 523 128 510T88 467T67 390T61 273V258Q61 189 67 141T88 63T128 20T192 7Q230 7 255 20T295 63T316 141T323 258V273ZM271 628V745H287V628H271ZM106 628H90V745H106V628Z"  />
<glyph unicode="&#xF7;" horiz-adv-x="518" d="M251 118V244H267V118H251ZM465 382H53V398H465V382ZM251 522V648H267V522H251Z"  />
<glyph unicode="&#xF8;" horiz-adv-x="384" d="M339 258Q339 188 333 138T310 55T265 7T192 -9Q114 -9 82 41L44 -30H26L72 58Q56 90 51 139T45 258V273Q45 343 51 393T74 475T119 523T192 539Q269 539 301 489L339 560H357L311 473Q327 441 333 392T339 273V258ZM323 273Q323 336 318 380T301 455L91 58Q106 31 130 19T192 7Q230 7 255 20T295 63T316 141T323 258V273ZM61 258Q61 195 66 151T82 76L292 473Q263 523 192 523Q153 523 128 510T88 467T67 390T61 273V258Z"  />
<glyph unicode="&#xF9;" horiz-adv-x="421" d="M329 0V39Q300 19 268 5T192 -9Q157 -9 135 2T99 35T81 92T76 173V514H32V529H92V173Q92 126 97 95T113 44T144 16T192 7Q231 7 264 20T329 57V514H286V529H345V15H389V0H329ZM206 607L100 760H118L224 607H206Z"  />
<glyph unicode="&#xFA;" horiz-adv-x="421" d="M329 0V39Q300 19 268 5T192 -9Q157 -9 135 2T99 35T81 92T76 173V514H32V529H92V173Q92 126 97 95T113 44T144 16T192 7Q231 7 264 20T329 57V514H286V529H345V15H389V0H329ZM206 607H189L294 760H313L206 607Z"  />
<glyph unicode="&#xFB;" horiz-adv-x="421" d="M329 0V39Q300 19 268 5T192 -9Q157 -9 135 2T99 35T81 92T76 173V514H32V529H92V173Q92 126 97 95T113 44T144 16T192 7Q231 7 264 20T329 57V514H286V529H345V15H389V0H329ZM308 607L205 748L102 607H82L196 760H214L328 607H308Z"  />
<glyph unicode="&#xFC;" horiz-adv-x="421" d="M329 0V39Q300 19 268 5T192 -9Q157 -9 135 2T99 35T81 92T76 173V514H32V529H92V173Q92 126 97 95T113 44T144 16T192 7Q231 7 264 20T329 57V514H286V529H345V15H389V0H329ZM289 628V745H305V628H289ZM124 628H108V745H124V628Z"  />
<glyph unicode="&#xFD;" horiz-adv-x="421" d="M355 514L218 -39Q207 -85 196 -117T171 -168T136 -197T86 -206Q76 -206 61 -206T32 -203V-189Q52 -191 64 -191T86 -191Q111 -191 128 -183T157 -157T180 -108T201 -33L210 2L68 514H24V529H129V514H85L218 31H220L338 514H295V529H399V514H355ZM227 607H210L315 760H334L227 607Z"  />
<glyph unicode="&#xFE;" horiz-adv-x="393" d="M347 258Q347 189 340 139T315 57T267 8T190 -8Q178 -8 155 -7T93 -1V-188H141V-203H34V-188H77V744H34V760H93V496Q116 511 150 525T222 539Q261 539 285 525T323 480T342 397T347 273V258ZM330 273Q330 344 326 392T310 469T277 510T221 523Q185 523 151 509T93 480V13Q128 8 153 8T190 7Q230 7 257 21T300 65T323 142T330 258V273Z"  />
<glyph unicode="&#xFF;" horiz-adv-x="421" d="M355 514L218 -39Q207 -85 196 -117T171 -168T136 -197T86 -206Q76 -206 61 -206T32 -203V-189Q52 -191 64 -191T86 -191Q111 -191 128 -183T157 -157T180 -108T201 -33L210 2L68 514H24V529H129V514H85L218 31H220L338 514H295V529H399V514H355ZM301 628V745H317V628H301ZM136 628H120V745H136V628Z"  />
<glyph unicode="&#x100;" horiz-adv-x="526" d="M398 0V15H446L373 307H153L80 15H127V0H15V15H62L245 728H195V743H276L463 15H511V0H398ZM264 731H262L157 323H369L264 731ZM127 871V887H398V871H127Z"  />
<glyph unicode="&#x101;" horiz-adv-x="366" d="M284 0V33Q257 16 225 4T154 -9Q86 -9 62 32T38 146V150Q38 191 45 220T73 269T126 298T213 307H284V387Q284 427 280 453T263 494T226 516T161 523Q147 523 128 522T81 519V460H65V532Q103 536 124 537T161 539Q204 539 231 532T274 507T294 460T300 387V15H343V0H284ZM284 292H213Q165 292 135 285T86 261T62 217T55 150V146Q55 74 77 41T156 7Q191 7 224 20T284 50V292ZM41 678V694H312V678H41Z"  />
<glyph unicode="&#x102;" horiz-adv-x="526" d="M398 0V15H446L373 307H153L80 15H127V0H15V15H62L245 728H195V743H276L463 15H511V0H398ZM264 731H262L157 323H369L264 731ZM376 958Q374 925 370 896T354 844T321 809T263 796Q228 796 207 809T173 844T156 895T150 958H166Q167 927 170 900T184 854T213 823T263 811Q294 811 313 822T342 853T356 900T361 958H376H376Z"  />
<glyph unicode="&#x103;" horiz-adv-x="366" d="M284 0V33Q257 16 225 4T154 -9Q86 -9 62 32T38 146V150Q38 191 45 220T73 269T126 298T213 307H284V387Q284 427 280 453T263 494T226 516T161 523Q147 523 128 522T81 519V460H65V532Q103 536 124 537T161 539Q204 539 231 532T274 507T294 460T300 387V15H343V0H284ZM284 292H213Q165 292 135 285T86 261T62 217T55 150V146Q55 74 77 41T156 7Q191 7 224 20T284 50V292ZM297 765Q295 732 291 703T275 651T242 616T184 603Q149 603 128 616T94 651T77 702T71 765H87Q88 734 91 707T105 661T134 630T184 618Q215 618 234 629T263 660T277 707T282 765H297H297Z"  />
<glyph unicode="&#x104;" horiz-adv-x="526" d="M398 0V15H446L373 307H153L80 15H127V0H15V15H62L245 728H195V743H276L463 15H511V0H398ZM264 731H262L157 323H369L264 731ZM511 -207Q500 -209 482 -211T444 -214Q416 -214 398 -208T370 -191T355 -166T350 -136Q350 -114 361 -95T390 -59T432 -28T483 0H511Q443 -33 405 -64T366 -136Q366 -166 383 -182T444 -199Q463 -199 481 -197T511 -193V-207Z"  />
<glyph unicode="&#x105;" horiz-adv-x="366" d="M343 -207Q332 -209 314 -211T276 -214Q248 -214 230 -208T202 -191T187 -166T182 -136Q182 -114 193 -95T222 -59T264 -28T315 0H284V33Q257 16 225 4T154 -9Q86 -9 62 32T38 146V150Q38 191 45 220T73 269T126 298T213 307H284V387Q284 427 280 453T263 494T226 516T161 523Q147 523 128 522T81 519V460H65V532Q103 536 124 537T161 539Q204 539 231 532T274 507T294 460T300 387V15H343V0Q275 -33 237 -64T198 -136Q198 -166 215 -182T276 -199Q295 -199 313 -197T343 -193V-207ZM284 292H213Q165 292 135 285T86 261T62 217T55 150V146Q55 74 77 41T156 7Q191 7 224 20T284 50V292Z"  />
<glyph unicode="&#x106;" horiz-adv-x="402" d="M363 3Q349 0 317 -4T239 -8Q181 -8 143 14T83 81T51 197T42 365V378Q42 475 51 545T82 661T143 729T239 751Q284 751 317 747T363 740V659H347V728Q327 731 299 733T239 736Q186 736 152 716T97 653T68 541T59 378V365Q59 270 67 202T96 91T151 27T239 7Q273 7 301 9T347 14V81H363V3H363ZM222 800H205L310 953H329L222 800Z"  />
<glyph unicode="&#x107;" horiz-adv-x="318" d="M290 0Q260 -5 237 -7T198 -9Q153 -9 123 3T76 45T52 127T45 257V274Q45 350 52 401T77 483T124 526T198 539Q217 539 237 538T290 531V454H274V517Q252 521 232 522T198 523Q159 523 133 513T90 474T68 398T61 274V257Q61 180 67 131T89 55T131 17T198 7Q212 7 233 8T290 16V0H290ZM177 607H160L265 760H284L177 607Z"  />
<glyph unicode="&#x108;" horiz-adv-x="402" d="M363 3Q349 0 317 -4T239 -8Q181 -8 143 14T83 81T51 197T42 365V378Q42 475 51 545T82 661T143 729T239 751Q284 751 317 747T363 740V659H347V728Q327 731 299 733T239 736Q186 736 152 716T97 653T68 541T59 378V365Q59 270 67 202T96 91T151 27T239 7Q273 7 301 9T347 14V81H363V3H363ZM331 800L228 941L125 800H105L219 953H237L351 800H331Z"  />
<glyph unicode="&#x109;" horiz-adv-x="318" d="M290 0Q260 -5 237 -7T198 -9Q153 -9 123 3T76 45T52 127T45 257V274Q45 350 52 401T77 483T124 526T198 539Q217 539 237 538T290 531V454H274V517Q252 521 232 522T198 523Q159 523 133 513T90 474T68 398T61 274V257Q61 180 67 131T89 55T131 17T198 7Q212 7 233 8T290 16V0H290ZM279 607L176 748L73 607H53L167 760H185L299 607H279Z"  />
<glyph unicode="&#x10A;" horiz-adv-x="402" d="M363 3Q349 0 317 -4T239 -8Q181 -8 143 14T83 81T51 197T42 365V378Q42 475 51 545T82 661T143 729T239 751Q284 751 317 747T363 740V659H347V728Q327 731 299 733T239 736Q186 736 152 716T97 653T68 541T59 378V365Q59 270 67 202T96 91T151 27T239 7Q273 7 301 9T347 14V81H363V3H363ZM226 834V952H243V834H226Z"  />
<glyph unicode="&#x10B;" horiz-adv-x="318" d="M290 0Q260 -5 237 -7T198 -9Q153 -9 123 3T76 45T52 127T45 257V274Q45 350 52 401T77 483T124 526T198 539Q217 539 237 538T290 531V454H274V517Q252 521 232 522T198 523Q159 523 133 513T90 474T68 398T61 274V257Q61 180 67 131T89 55T131 17T198 7Q212 7 233 8T290 16V0H290ZM172 641V759H189V641H172Z"  />
<glyph unicode="&#x10C;" horiz-adv-x="402" d="M363 3Q349 0 317 -4T239 -8Q181 -8 143 14T83 81T51 197T42 365V378Q42 475 51 545T82 661T143 729T239 751Q284 751 317 747T363 740V659H347V728Q327 731 299 733T239 736Q186 736 152 716T97 653T68 541T59 378V365Q59 270 67 202T96 91T151 27T239 7Q273 7 301 9T347 14V81H363V3H363ZM361 953L247 800H229L115 953H135L238 812L341 953H361Z"  />
<glyph unicode="&#x10D;" horiz-adv-x="318" d="M290 0Q260 -5 237 -7T198 -9Q153 -9 123 3T76 45T52 127T45 257V274Q45 350 52 401T77 483T124 526T198 539Q217 539 237 538T290 531V454H274V517Q252 521 232 522T198 523Q159 523 133 513T90 474T68 398T61 274V257Q61 180 67 131T89 55T131 17T198 7Q212 7 233 8T290 16V0H290ZM313 760L199 607H181L67 760H87L190 619L293 760H313Z"  />
<glyph unicode="&#x10E;" horiz-adv-x="476" d="M434 356Q434 261 424 193T388 79T319 13T212 -9Q184 -9 164 -8T124 -5T83 -2T34 0V15H82V728H34V743Q62 743 82 744T120 746T160 749T212 750Q276 750 319 729T387 663T423 549T434 386V356ZM417 386Q417 479 407 545T372 653T309 715T212 735Q179 735 152 734T99 730V14Q120 12 152 10T212 7Q270 7 309 27T372 89T406 197T417 356V386ZM356 953L242 800H224L110 953H130L233 812L336 953H356Z"  />
<glyph unicode="&#x10F;" horiz-adv-x="439" d="M391 534H374L421 760H439L391 534ZM297 0V31Q275 17 244 5T174 -8Q136 -8 111 6T72 51T51 134T45 258V273Q45 343 52 393T76 476T124 523T200 539Q212 539 235 538T297 532V744H250V760H313V15H357V0H297ZM297 517Q262 522 237 522T200 523Q159 523 133 510T90 468T68 390T61 273V258Q61 186 66 138T85 60T120 19T176 7Q212 7 244 20T297 47V517Z"  />
<glyph unicode="&#x110;" horiz-adv-x="476" d="M434 356Q434 261 424 193T388 79T319 13T212 -9Q184 -9 164 -8T124 -5T83 -2T34 0V15H82V379H33V396H82V728H34V743Q62 743 82 744T120 746T160 749T212 750Q276 750 319 729T387 663T423 549T434 386V356ZM417 386Q417 479 407 545T372 653T309 715T212 735Q179 735 152 734T99 730V396H241V379H99V14Q120 12 152 10T212 7Q270 7 309 27T372 89T406 197T417 356V386Z"  />
<glyph unicode="&#x111;" horiz-adv-x="385" d="M297 0V31Q275 17 244 5T174 -8Q136 -8 111 6T72 51T51 134T45 258V273Q45 343 52 393T76 476T124 523T200 539Q212 539 235 538T297 532V623H180V638H297V744H250V760H313V638H356V623H313V15H357V0H297ZM297 517Q262 522 237 522T200 523Q159 523 133 510T90 468T68 390T61 273V258Q61 186 66 138T85 60T120 19T176 7Q212 7 244 20T297 47V517Z"  />
<glyph unicode="&#x112;" horiz-adv-x="408" d="M34 0V15H82V728H34V743H378V659H362V728H99V400H355V385H99V15H362V85H378V0H34ZM81 871V887H352V871H81Z"  />
<glyph unicode="&#x113;" horiz-adv-x="372" d="M61 265V242Q61 178 68 134T92 61T136 20T203 7Q235 7 268 10T325 18V4Q307 0 273 -4T203 -8Q156 -8 126 7T77 53T52 131T45 243V288Q45 348 51 395T73 474T116 522T188 539Q231 539 259 523T303 475T325 396T331 287V265H61ZM315 290Q315 350 309 393T289 466T250 509T188 523Q149 523 125 508T86 464T66 391T61 290V280H315V290ZM55 678V694H326V678H55Z"  />
<glyph unicode="&#x114;" horiz-adv-x="408" d="M34 0V15H82V728H34V743H378V659H362V728H99V400H355V385H99V15H362V85H378V0H34ZM326 958Q324 925 320 896T304 844T271 809T213 796Q178 796 157 809T123 844T106 895T100 958H116Q117 927 120 900T134 854T163 823T213 811Q244 811 263 822T292 853T306 900T311 958H326H326Z"  />
<glyph unicode="&#x115;" horiz-adv-x="372" d="M61 265V242Q61 178 68 134T92 61T136 20T203 7Q235 7 268 10T325 18V4Q307 0 273 -4T203 -8Q156 -8 126 7T77 53T52 131T45 243V288Q45 348 51 395T73 474T116 522T188 539Q231 539 259 523T303 475T325 396T331 287V265H61ZM315 290Q315 350 309 393T289 466T250 509T188 523Q149 523 125 508T86 464T66 391T61 290V280H315V290ZM303 765Q301 732 297 703T281 651T248 616T190 603Q155 603 134 616T100 651T83 702T77 765H93Q94 734 97 707T111 661T140 630T190 618Q221 618 240 629T269 660T283 707T288 765H303H303Z"  />
<glyph unicode="&#x116;" horiz-adv-x="408" d="M34 0V15H82V728H34V743H378V659H362V728H99V400H355V385H99V15H362V85H378V0H34ZM211 834V952H228V834H211Z"  />
<glyph unicode="&#x117;" horiz-adv-x="372" d="M61 265V242Q61 178 68 134T92 61T136 20T203 7Q235 7 268 10T325 18V4Q307 0 273 -4T203 -8Q156 -8 126 7T77 53T52 131T45 243V288Q45 348 51 395T73 474T116 522T188 539Q231 539 259 523T303 475T325 396T331 287V265H61ZM315 290Q315 350 309 393T289 466T250 509T188 523Q149 523 125 508T86 464T66 391T61 290V280H315V290ZM180 641V759H197V641H180Z"  />
<glyph unicode="&#x118;" horiz-adv-x="408" d="M378 -207Q367 -209 349 -211T311 -214Q283 -214 265 -208T237 -190T222 -164T217 -132Q217 -111 227 -93T254 -59T295 -29T346 0H34V15H82V728H34V743H378V659H362V728H99V400H355V385H99V15H362V85H378V0Q309 -35 271 -64T233 -132Q233 -165 250 -182T311 -199Q330 -199 348 -197T378 -193V-207H378Z"  />
<glyph unicode="&#x119;" horiz-adv-x="372" d="M325 -207Q314 -209 296 -211T258 -214Q230 -214 212 -208T184 -191T169 -166T164 -136Q164 -94 199 -61T282 -3Q265 -5 244 -6T203 -8Q156 -8 126 7T77 53T52 131T45 243V288Q45 348 51 395T73 474T116 522T188 539Q231 539 259 523T303 475T325 396T331 287V265H61V242Q61 178 68 134T92 61T136 20T203 7Q235 7 268 10T325 18V4Q256 -29 218 -61T180 -136Q180 -166 197 -182T258 -199Q277 -199 295 -197T325 -193V-207ZM315 290Q315 350 309 393T289 466T250 509T188 523Q149 523 125 508T86 464T66 391T61 290V280H315V290Z"  />
<glyph unicode="&#x11A;" horiz-adv-x="408" d="M34 0V15H82V728H34V743H378V659H362V728H99V400H355V385H99V15H362V85H378V0H34ZM352 953L238 800H220L106 953H126L229 812L332 953H352Z"  />
<glyph unicode="&#x11B;" horiz-adv-x="372" d="M61 265V242Q61 178 68 134T92 61T136 20T203 7Q235 7 268 10T325 18V4Q307 0 273 -4T203 -8Q156 -8 126 7T77 53T52 131T45 243V288Q45 348 51 395T73 474T116 522T188 539Q231 539 259 523T303 475T325 396T331 287V265H61ZM315 290Q315 350 309 393T289 466T250 509T188 523Q149 523 125 508T86 464T66 391T61 290V280H315V290ZM319 760L205 607H187L73 760H93L196 619L299 760H319Z"  />
<glyph unicode="&#x11C;" horiz-adv-x="429" d="M372 2Q337 -3 306 -5T244 -8Q189 -8 151 13T88 80T53 195T42 364V379Q42 479 52 549T87 665T149 730T244 751Q281 751 313 748T372 740V656H357V727Q334 731 305 733T244 736Q193 736 158 717T101 655T69 544T59 379V364Q59 267 69 199T101 89T159 27T244 7Q269 7 298 8T356 14V366H256V381H372V2H372ZM317 800L214 941L111 800H91L205 953H223L337 800H317Z"  />
<glyph unicode="&#x11D;" horiz-adv-x="378" d="M342 -38Q342 -71 336 -101T312 -155T266 -192T190 -206Q143 -206 113 -193T66 -156T43 -102T37 -38Q37 16 51 47T84 100Q61 107 50 123T39 163Q39 183 51 203T81 237Q58 260 50 293T42 364Q42 394 46 425T64 481T107 523T185 539H334V523H259Q298 503 313 464T328 364Q328 337 324 308T304 256T261 217T185 202Q153 202 130 209T93 227Q77 216 66 198T55 163Q55 142 66 128T109 113H182Q232 113 263 104T312 76T336 29T342 -38ZM326 -38Q326 -2 321 24T301 66T257 90T182 98H100Q80 75 67 45T53 -38Q53 -70 58 -97T79 -145T121 -178T190 -190Q232 -190 258 -178T300 -146T320 -98T326 -38ZM312 364Q312 393 309 421T292 472T254 509T185 523Q140 523 115 509T77 472T61 421T58 364Q58 336 62 310T79 263T117 231T185 218Q228 218 253 230T291 263T308 309T312 364ZM288 607L185 748L82 607H62L176 760H194L308 607H288Z"  />
<glyph unicode="&#x11E;" horiz-adv-x="429" d="M372 2Q337 -3 306 -5T244 -8Q189 -8 151 13T88 80T53 195T42 364V379Q42 479 52 549T87 665T149 730T244 751Q281 751 313 748T372 740V656H357V727Q334 731 305 733T244 736Q193 736 158 717T101 655T69 544T59 379V364Q59 267 69 199T101 89T159 27T244 7Q269 7 298 8T356 14V366H256V381H372V2H372ZM341 958Q339 925 335 896T319 844T286 809T228 796Q193 796 172 809T138 844T121 895T115 958H131Q132 927 135 900T149 854T178 823T228 811Q259 811 278 822T307 853T321 900T326 958H341H341Z"  />
<glyph unicode="&#x11F;" horiz-adv-x="378" d="M342 -38Q342 -71 336 -101T312 -155T266 -192T190 -206Q143 -206 113 -193T66 -156T43 -102T37 -38Q37 16 51 47T84 100Q61 107 50 123T39 163Q39 183 51 203T81 237Q58 260 50 293T42 364Q42 394 46 425T64 481T107 523T185 539H334V523H259Q298 503 313 464T328 364Q328 337 324 308T304 256T261 217T185 202Q153 202 130 209T93 227Q77 216 66 198T55 163Q55 142 66 128T109 113H182Q232 113 263 104T312 76T336 29T342 -38ZM326 -38Q326 -2 321 24T301 66T257 90T182 98H100Q80 75 67 45T53 -38Q53 -70 58 -97T79 -145T121 -178T190 -190Q232 -190 258 -178T300 -146T320 -98T326 -38ZM312 364Q312 393 309 421T292 472T254 509T185 523Q140 523 115 509T77 472T61 421T58 364Q58 336 62 310T79 263T117 231T185 218Q228 218 253 230T291 263T308 309T312 364ZM297 765Q295 732 291 703T275 651T242 616T184 603Q149 603 128 616T94 651T77 702T71 765H87Q88 734 91 707T105 661T134 630T184 618Q215 618 234 629T263 660T277 707T282 765H297H297Z"  />
<glyph unicode="&#x120;" horiz-adv-x="429" d="M372 2Q337 -3 306 -5T244 -8Q189 -8 151 13T88 80T53 195T42 364V379Q42 479 52 549T87 665T149 730T244 751Q281 751 313 748T372 740V656H357V727Q334 731 305 733T244 736Q193 736 158 717T101 655T69 544T59 379V364Q59 267 69 199T101 89T159 27T244 7Q269 7 298 8T356 14V366H256V381H372V2H372ZM226 834V952H243V834H226Z"  />
<glyph unicode="&#x121;" horiz-adv-x="378" d="M342 -38Q342 -71 336 -101T312 -155T266 -192T190 -206Q143 -206 113 -193T66 -156T43 -102T37 -38Q37 16 51 47T84 100Q61 107 50 123T39 163Q39 183 51 203T81 237Q58 260 50 293T42 364Q42 394 46 425T64 481T107 523T185 539H334V523H259Q298 503 313 464T328 364Q328 337 324 308T304 256T261 217T185 202Q153 202 130 209T93 227Q77 216 66 198T55 163Q55 142 66 128T109 113H182Q232 113 263 104T312 76T336 29T342 -38ZM326 -38Q326 -2 321 24T301 66T257 90T182 98H100Q80 75 67 45T53 -38Q53 -70 58 -97T79 -145T121 -178T190 -190Q232 -190 258 -178T300 -146T320 -98T326 -38ZM312 364Q312 393 309 421T292 472T254 509T185 523Q140 523 115 509T77 472T61 421T58 364Q58 336 62 310T79 263T117 231T185 218Q228 218 253 230T291 263T308 309T312 364ZM173 641V759H190V641H173Z"  />
<glyph unicode="&#x122;" horiz-adv-x="429" d="M372 2Q337 -3 306 -5T244 -8Q189 -8 151 13T88 80T53 195T42 364V379Q42 479 52 549T87 665T149 730T244 751Q281 751 313 748T372 740V656H357V727Q334 731 305 733T244 736Q193 736 158 717T101 655T69 544T59 379V364Q59 267 69 199T101 89T159 27T244 7Q269 7 298 8T356 14V366H256V381H372V2H372ZM178 -203H160L248 -62H268L178 -203Z"  />
<glyph unicode="&#x123;" horiz-adv-x="378" d="M342 -38Q342 -71 336 -101T312 -155T266 -192T190 -206Q143 -206 113 -193T66 -156T43 -102T37 -38Q37 16 51 47T84 100Q61 107 50 123T39 163Q39 183 51 203T81 237Q58 260 50 293T42 364Q42 394 46 425T64 481T107 523T185 539H334V523H259Q298 503 313 464T328 364Q328 337 324 308T304 256T261 217T185 202Q153 202 130 209T93 227Q77 216 66 198T55 163Q55 142 66 128T109 113H182Q232 113 263 104T312 76T336 29T342 -38ZM326 -38Q326 -2 321 24T301 66T257 90T182 98H100Q80 75 67 45T53 -38Q53 -70 58 -97T79 -145T121 -178T190 -190Q232 -190 258 -178T300 -146T320 -98T326 -38ZM312 364Q312 393 309 421T292 472T254 509T185 523Q140 523 115 509T77 472T61 421T58 364Q58 336 62 310T79 263T117 231T185 218Q228 218 253 230T291 263T308 309T312 364ZM187 607H168L257 748H277L187 607Z"  />
<glyph unicode="&#x124;" horiz-adv-x="535" d="M101 728V410H434V728H384V743H499V728H451V15H499V0H384V15H434V394H101V15H151V0H36V15H84V728H36V743H151V728H101ZM371 800L268 941L165 800H145L259 953H277L391 800H371Z"  />
<glyph unicode="&#x125;" horiz-adv-x="426" d="M332 0V357Q332 403 328 435T312 486T281 514T233 523Q197 523 161 509T94 474V15H138V0H35V15H78V744H35V760H94V491Q122 508 157 523T233 539Q268 539 290 528T325 495T343 438T348 357V15H391V0H332ZM317 779L214 920L111 779H91L205 932H223L337 779H317Z"  />
<glyph unicode="&#x126;" horiz-adv-x="535" d="M101 728V577H434V728H384V743H499V728H451V577H499V561H451V15H499V0H384V15H434V394H101V15H151V0H36V15H84V561H36V577H84V728H36V743H151V728H101ZM434 410V561H101V410H434Z"  />
<glyph unicode="&#x127;" horiz-adv-x="426" d="M332 0V357Q332 403 328 435T312 486T281 514T233 523Q197 523 161 509T94 474V15H138V0H35V15H78V623H34V638H78V744H35V760H94V638H230V623H94V491Q122 508 157 523T233 539Q268 539 290 528T325 495T343 438T348 357V15H391V0H332Z"  />
<glyph unicode="&#x128;" horiz-adv-x="188" d="M37 0V15H86V728H37V743H151V728H102V15H151V0H37ZM235 910Q235 858 224 830T176 802Q151 802 136 816T102 859L79 895Q61 923 48 936T14 949Q-1 949 -10 942T-23 923T-29 893T-30 855V806H-45V855Q-45 907 -34 935T14 963Q39 963 56 948T91 904L114 868Q132 840 144 829T176 817Q191 817 200 824T213 843T219 873T220 910V960H235V910H235Z"  />
<glyph unicode="&#x129;" horiz-adv-x="176" d="M36 0V15H80V514H36V529H96V15H139V0H36ZM230 713Q230 661 219 633T171 605Q146 605 131 619T97 662L74 698Q56 726 43 739T9 752Q-6 752 -15 745T-28 726T-34 696T-35 658V609H-50V658Q-50 710 -39 738T9 766Q34 766 51 751T86 707L109 671Q127 643 139 632T171 620Q186 620 195 627T208 646T214 676T215 713V763H230V713H230Z"  />
<glyph unicode="&#x12A;" horiz-adv-x="188" d="M37 0V15H86V728H37V743H151V728H102V15H151V0H37ZM-40 875V891H231V875H-40Z"  />
<glyph unicode="&#x12B;" horiz-adv-x="176" d="M36 0V15H80V514H36V529H96V15H139V0H36ZM-46 678V694H225V678H-46Z"  />
<glyph unicode="&#x12E;" horiz-adv-x="188" d="M167 -207Q156 -209 138 -211T100 -214Q72 -214 54 -208T26 -190T11 -164T6 -132Q6 -90 39 -59T126 0H37V15H86V728H37V743H151V728H102V15H151V0Q82 -35 52 -64T22 -132Q22 -165 39 -182T100 -199Q119 -199 137 -197T167 -193V-207H167Z"  />
<glyph unicode="&#x12F;" horiz-adv-x="176" d="M161 -207Q150 -209 132 -211T94 -214Q66 -214 48 -208T20 -190T5 -164T0 -132Q0 -92 28 -59T111 0H36V15H80V514H36V529H96V15H139V0Q71 -33 44 -64T16 -132Q16 -165 33 -182T94 -199Q113 -199 131 -197T161 -193V-207ZM80 640V760H96V640H80Z"  />
<glyph unicode="&#x130;" horiz-adv-x="188" d="M37 0V15H86V728H37V743H151V728H102V15H151V0H37ZM87 825V943H104V825H87Z"  />
<glyph unicode="&#x131;" horiz-adv-x="176" d="M36 0V15H80V514H36V529H96V15H139V0H36Z"  />
<glyph unicode="&#x132;" horiz-adv-x="361" d="M276 728V-71Q276 -94 274 -114T265 -150T241 -175T197 -184Q186 -184 171 -184T145 -181V-168H197Q219 -168 231 -162T250 -142T258 -112T260 -71V728H213V743H324V728H276ZM37 0V15H85V728H37V743H150V728H102V15H150V0H37Z"  />
<glyph unicode="&#x133;" horiz-adv-x="325" d="M39 0V15H83V514H39V529H99V15H142V0H39ZM83 640V760H99V640H83ZM249 -115Q249 -136 247 -152T237 -181T217 -199T181 -206Q175 -206 164 -206T138 -203V-189Q155 -191 165 -191T181 -191Q213 -191 223 -174T233 -115V514H190V529H249V-115ZM233 639V760H249V639H233Z"  />
<glyph unicode="&#x134;" horiz-adv-x="188" d="M102 728V-71Q102 -94 100 -114T90 -150T66 -175T22 -184Q11 -184 -4 -184T-29 -181V-168H22Q44 -168 57 -162T76 -142T84 -112T86 -71V728H37V743H151V728H102ZM198 807L95 948L-8 807H-28L86 960H104L218 807H198Z"  />
<glyph unicode="&#x135;" horiz-adv-x="136" d="M96 -115Q96 -136 94 -152T84 -181T64 -199T28 -206Q22 -206 11 -206T-15 -203V-189Q2 -191 12 -191T28 -191Q60 -191 70 -174T80 -115V514H37V529H96V-115H96ZM187 607L84 748L-19 607H-39L75 760H93L207 607H187Z"  />
<glyph unicode="&#x136;" horiz-adv-x="452" d="M372 0L102 375V15H152V0H37V15H85V728H38V743H152V728H102V381L370 743H424V728H379L120 378L381 15H427V0H372ZM148 -203H130L218 -62H238L148 -203Z"  />
<glyph unicode="&#x137;" horiz-adv-x="353" d="M285 0L92 272V15H136V0H32V15H76V744H32V760H92V276L283 529H334V514H292L111 274L295 15H335V0H285ZM41 -203H23L111 -62H131L41 -203Z"  />
<glyph unicode="&#x139;" horiz-adv-x="395" d="M36 0V15H85V728H36V743H153V728H102V15H355V90H370V0H36ZM209 805H192L297 958H316L209 805Z"  />
<glyph unicode="&#x13A;" horiz-adv-x="176" d="M36 0V15H80V744H36V760H96V15H139V0H36ZM88 779H71L176 932H195L88 779Z"  />
<glyph unicode="&#x13B;" horiz-adv-x="395" d="M36 0V15H85V728H36V743H153V728H102V15H355V90H370V0H36ZM138 -203H120L208 -62H228L138 -203Z"  />
<glyph unicode="&#x13C;" horiz-adv-x="176" d="M36 0V15H80V744H36V760H96V15H139V0H36ZM39 -203H21L109 -62H129L39 -203Z"  />
<glyph unicode="&#x13D;" horiz-adv-x="395" d="M36 0V15H85V728H36V743H153V728H102V15H355V90H370V0H36ZM276 534H260L307 760H325L276 534Z"  />
<glyph unicode="&#x13E;" horiz-adv-x="223" d="M36 0V15H80V744H36V760H96V15H139V0H36ZM166 534H149L196 760H214L166 534Z"  />
<glyph unicode="&#x13F;" horiz-adv-x="395" d="M36 0V15H85V728H36V743H153V728H102V15H355V90H370V0H36ZM253 363V481H270V363H253Z"  />
<glyph unicode="&#x140;" horiz-adv-x="194" d="M36 0V15H80V744H36V760H96V15H139V0H36ZM170 337V455H187V337H170Z"  />
<glyph unicode="&#x141;" horiz-adv-x="395" d="M26 0V15H85V397L8 309V335L85 422V728H26V743H161V728H102V442L215 568V543L102 417V15H355V90H370V0H26Z"  />
<glyph unicode="&#x142;" horiz-adv-x="176" d="M36 0V15H80V388L9 311V335L80 412V744H36V760H96V432L165 509V485L96 408V15H139V0H36Z"  />
<glyph unicode="&#x143;" horiz-adv-x="527" d="M445 728V-1H416L100 725H99V15H150V0H34V15H83V728H34V743H111L427 16H428V728H378V743H493V728H445ZM258 800H241L346 953H365L258 800Z"  />
<glyph unicode="&#x144;" horiz-adv-x="420" d="M329 0V357Q329 404 324 435T308 486T277 514T228 523Q193 523 159 510T91 474V15H134V0H32V15H75V514H32V529H91V491Q121 511 155 525T228 539Q263 539 286 528T322 495T340 438T345 357V15H388V0H329ZM191 607H174L279 760H298L191 607Z"  />
<glyph unicode="&#x145;" horiz-adv-x="527" d="M445 728V-1H416L100 725H99V15H150V0H34V15H83V728H34V743H111L427 16H428V728H378V743H493V728H445ZM188 -203H170L258 -62H278L188 -203Z"  />
<glyph unicode="&#x146;" horiz-adv-x="420" d="M329 0V357Q329 404 324 435T308 486T277 514T228 523Q193 523 159 510T91 474V15H134V0H32V15H75V514H32V529H91V491Q121 511 155 525T228 539Q263 539 286 528T322 495T340 438T345 357V15H388V0H329ZM142 -203H124L212 -62H232L142 -203Z"  />
<glyph unicode="&#x147;" horiz-adv-x="527" d="M445 728V-1H416L100 725H99V15H150V0H34V15H83V728H34V743H111L427 16H428V728H378V743H493V728H445ZM394 953L280 800H262L148 953H168L271 812L374 953H394Z"  />
<glyph unicode="&#x148;" horiz-adv-x="420" d="M329 0V357Q329 404 324 435T308 486T277 514T228 523Q193 523 159 510T91 474V15H134V0H32V15H75V514H32V529H91V491Q121 511 155 525T228 539Q263 539 286 528T322 495T340 438T345 357V15H388V0H329ZM334 760L220 607H202L88 760H108L211 619L314 760H334Z"  />
<glyph unicode="&#x149;" horiz-adv-x="420" d="M329 0V357Q329 404 324 435T308 486T277 514T228 523Q193 523 159 510T91 474V15H134V0H32V15H75V514H32V529H91V491Q121 511 155 525T228 539Q263 539 286 528T322 495T340 438T345 357V15H388V0H329ZM-11 534H-27L20 760H38L-11 534Z"  />
<glyph unicode="&#x14C;" horiz-adv-x="469" d="M426 357Q426 255 416 185T383 73T324 11T235 -8Q183 -8 147 11T87 72T53 185T42 357V386Q42 488 52 558T86 670T146 732T235 751Q287 751 323 732T382 671T415 558T426 386V357ZM410 386Q410 488 400 555T369 662T314 719T235 736Q189 736 156 720T101 663T69 555T59 386V357Q59 255 69 188T101 80T156 24T235 7Q280 7 313 23T367 80T399 187T410 357V386ZM98 832V848H369V832H98Z"  />
<glyph unicode="&#x14D;" horiz-adv-x="384" d="M339 258Q339 188 333 138T310 55T265 7T192 -9Q148 -9 120 6T75 54T52 137T45 258V273Q45 343 51 393T74 475T119 523T192 539Q236 539 264 524T309 476T332 393T339 273V258ZM323 273Q323 342 317 389T296 467T256 510T192 523Q153 523 128 510T88 467T67 390T61 273V258Q61 189 67 141T88 63T128 20T192 7Q230 7 255 20T295 63T316 141T323 258V273ZM55 678V694H326V678H55Z"  />
<glyph unicode="&#x14E;" horiz-adv-x="469" d="M426 357Q426 255 416 185T383 73T324 11T235 -8Q183 -8 147 11T87 72T53 185T42 357V386Q42 488 52 558T86 670T146 732T235 751Q287 751 323 732T382 671T415 558T426 386V357ZM410 386Q410 488 400 555T369 662T314 719T235 736Q189 736 156 720T101 663T69 555T59 386V357Q59 255 69 188T101 80T156 24T235 7Q280 7 313 23T367 80T399 187T410 357V386ZM345 967Q343 934 339 905T323 853T290 818T232 805Q197 805 176 818T142 853T125 904T119 967H135Q136 936 139 909T153 863T182 832T232 820Q263 820 282 831T311 862T325 909T330 967H345H345Z"  />
<glyph unicode="&#x14F;" horiz-adv-x="384" d="M339 258Q339 188 333 138T310 55T265 7T192 -9Q148 -9 120 6T75 54T52 137T45 258V273Q45 343 51 393T74 475T119 523T192 539Q236 539 264 524T309 476T332 393T339 273V258ZM323 273Q323 342 317 389T296 467T256 510T192 523Q153 523 128 510T88 467T67 390T61 273V258Q61 189 67 141T88 63T128 20T192 7Q230 7 255 20T295 63T316 141T323 258V273ZM302 765Q300 732 296 703T280 651T247 616T189 603Q154 603 133 616T99 651T82 702T76 765H92Q93 734 96 707T110 661T139 630T189 618Q220 618 239 629T268 660T282 707T287 765H302H302Z"  />
<glyph unicode="&#x150;" horiz-adv-x="469" d="M426 357Q426 255 416 185T383 73T324 11T235 -8Q183 -8 147 11T87 72T53 185T42 357V386Q42 488 52 558T86 670T146 732T235 751Q287 751 323 732T382 671T415 558T426 386V357ZM410 386Q410 488 400 555T369 662T314 719T235 736Q189 736 156 720T101 663T69 555T59 386V357Q59 255 69 188T101 80T156 24T235 7Q280 7 313 23T367 80T399 187T410 357V386ZM300 800H282L388 953H406L300 800ZM267 953L160 800H142L248 953H267Z"  />
<glyph unicode="&#x151;" horiz-adv-x="384" d="M339 258Q339 188 333 138T310 55T265 7T192 -9Q148 -9 120 6T75 54T52 137T45 258V273Q45 343 51 393T74 475T119 523T192 539Q236 539 264 524T309 476T332 393T339 273V258ZM323 273Q323 342 317 389T296 467T256 510T192 523Q153 523 128 510T88 467T67 390T61 273V258Q61 189 67 141T88 63T128 20T192 7Q230 7 255 20T295 63T316 141T323 258V273ZM263 607H245L351 760H369L263 607ZM230 760L123 607H105L211 760H230Z"  />
<glyph unicode="&#x152;" horiz-adv-x="689" d="M376 0Q344 -5 307 -7T239 -10Q135 -10 89 69T42 319V422Q42 593 88 672T239 751Q268 751 303 749T367 743H650V659H635V728H371V400H628V385H371V15H635V83H650V0H376ZM355 729Q326 733 294 734T239 736Q193 736 160 719T104 665T70 567T59 422V319Q59 233 70 174T103 77T159 23T239 6Q262 6 294 7T355 12V729Z"  />
<glyph unicode="&#x153;" horiz-adv-x="650" d="M339 265V242Q339 178 346 134T370 61T414 20T481 7Q513 7 546 10T603 18V4Q585 0 551 -4T481 -8Q412 -8 378 24T331 126Q320 56 288 24T192 -9Q148 -9 120 6T75 54T52 137T45 258V273Q45 343 51 393T74 475T119 523T192 539Q256 539 287 507T330 405Q341 471 372 505T466 539Q509 539 537 523T581 475T603 396T609 287V265H339ZM192 7Q229 7 254 19T294 60T316 134T323 244V299Q323 360 316 403T294 472T253 511T192 523Q153 523 128 510T88 467T67 390T61 273V258Q61 189 67 141T88 63T128 20T192 7ZM593 290Q593 350 587 393T567 466T528 509T466 523Q428 523 404 509T365 466T345 397T339 300V280H593V290Z"  />
<glyph unicode="&#x154;" horiz-adv-x="456" d="M389 0L243 333Q236 332 225 332T199 331Q173 331 144 332T99 334V15H150V0H34V15H83V728H34V743Q63 743 84 744T122 746T157 749T198 751Q255 751 291 738T349 699T379 636T388 551V536Q388 491 383 457T363 398T323 358T260 335L400 15H442V0H389ZM372 551Q372 597 364 631T335 689T282 723T198 735Q176 735 149 734T99 730V350Q119 349 146 348T199 347Q251 347 284 359T337 394T364 453T372 536V551ZM215 800H198L303 953H322L215 800Z"  />
<glyph unicode="&#x155;" horiz-adv-x="271" d="M256 523Q246 523 229 522T191 516T144 501T94 473V15H145V0H35V15H78V514H35V529H94V489Q118 507 143 516T189 531T228 537T256 538V523H256ZM141 607H124L229 760H248L141 607Z"  />
<glyph unicode="&#x156;" horiz-adv-x="456" d="M389 0L243 333Q236 332 225 332T199 331Q173 331 144 332T99 334V15H150V0H34V15H83V728H34V743Q63 743 84 744T122 746T157 749T198 751Q255 751 291 738T349 699T379 636T388 551V536Q388 491 383 457T363 398T323 358T260 335L400 15H442V0H389ZM372 551Q372 597 364 631T335 689T282 723T198 735Q176 735 149 734T99 730V350Q119 349 146 348T199 347Q251 347 284 359T337 394T364 453T372 536V551ZM154 -203H136L224 -62H244L154 -203Z"  />
<glyph unicode="&#x157;" horiz-adv-x="271" d="M256 523Q246 523 229 522T191 516T144 501T94 473V15H145V0H35V15H78V514H35V529H94V489Q118 507 143 516T189 531T228 537T256 538V523H256ZM59 -203H41L129 -62H149L59 -203Z"  />
<glyph unicode="&#x158;" horiz-adv-x="456" d="M389 0L243 333Q236 332 225 332T199 331Q173 331 144 332T99 334V15H150V0H34V15H83V728H34V743Q63 743 84 744T122 746T157 749T198 751Q255 751 291 738T349 699T379 636T388 551V536Q388 491 383 457T363 398T323 358T260 335L400 15H442V0H389ZM372 551Q372 597 364 631T335 689T282 723T198 735Q176 735 149 734T99 730V350Q119 349 146 348T199 347Q251 347 284 359T337 394T364 453T372 536V551ZM354 953L240 800H222L108 953H128L231 812L334 953H354Z"  />
<glyph unicode="&#x159;" horiz-adv-x="271" d="M256 523Q246 523 229 522T191 516T144 501T94 473V15H145V0H35V15H78V514H35V529H94V489Q118 507 143 516T189 531T228 537T256 538V523H256ZM276 760L162 607H144L30 760H50L153 619L256 760H276Z"  />
<glyph unicode="&#x15A;" horiz-adv-x="377" d="M347 178Q347 138 337 104T306 45T253 6T174 -8Q135 -8 98 -6T38 1V83H54V14Q76 11 107 9T174 7Q254 7 292 54T330 178Q330 212 322 237T298 285T256 331T195 382L158 411Q127 436 103 459T63 505T39 553T31 607Q31 637 39 663T67 708T119 739T198 751Q234 751 267 749T329 742V659H314V729Q295 731 264 733T198 736Q155 736 127 727T81 700T56 659T48 607Q48 579 55 556T78 512T115 469T168 423L205 393Q240 364 266 341T311 293T338 241T347 178ZM183 800H166L271 953H290L183 800Z"  />
<glyph unicode="&#x15B;" horiz-adv-x="324" d="M289 121Q289 100 284 77T263 35T220 4T150 -9Q115 -9 87 -6T38 3V72H53V15Q71 11 96 9T150 6Q187 6 211 16T248 42T267 79T273 121Q273 165 249 197T168 265L142 282Q116 299 97 314T64 346T43 383T36 429Q36 452 42 472T64 506T106 529T173 538Q200 538 228 535T275 528V460H260V515Q243 518 220 520T173 523Q137 523 114 516T77 497T58 468T52 429Q52 405 58 388T76 355T107 326T150 296L177 278Q234 240 261 205T289 121ZM158 607H141L246 760H265L158 607Z"  />
<glyph unicode="&#x15C;" horiz-adv-x="377" d="M347 178Q347 138 337 104T306 45T253 6T174 -8Q135 -8 98 -6T38 1V83H54V14Q76 11 107 9T174 7Q254 7 292 54T330 178Q330 212 322 237T298 285T256 331T195 382L158 411Q127 436 103 459T63 505T39 553T31 607Q31 637 39 663T67 708T119 739T198 751Q234 751 267 749T329 742V659H314V729Q295 731 264 733T198 736Q155 736 127 727T81 700T56 659T48 607Q48 579 55 556T78 512T115 469T168 423L205 393Q240 364 266 341T311 293T338 241T347 178ZM289 800L186 941L83 800H63L177 953H195L309 800H289Z"  />
<glyph unicode="&#x15D;" horiz-adv-x="324" d="M289 121Q289 100 284 77T263 35T220 4T150 -9Q115 -9 87 -6T38 3V72H53V15Q71 11 96 9T150 6Q187 6 211 16T248 42T267 79T273 121Q273 165 249 197T168 265L142 282Q116 299 97 314T64 346T43 383T36 429Q36 452 42 472T64 506T106 529T173 538Q200 538 228 535T275 528V460H260V515Q243 518 220 520T173 523Q137 523 114 516T77 497T58 468T52 429Q52 405 58 388T76 355T107 326T150 296L177 278Q234 240 261 205T289 121ZM268 607L165 748L62 607H42L156 760H174L288 607H268Z"  />
<glyph unicode="&#x15E;" horiz-adv-x="377" d="M347 178Q347 138 337 104T306 45T253 6T174 -8Q135 -8 98 -6T38 1V83H54V14Q76 11 107 9T174 7Q254 7 292 54T330 178Q330 212 322 237T298 285T256 331T195 382L158 411Q127 436 103 459T63 505T39 553T31 607Q31 637 39 663T67 708T119 739T198 751Q234 751 267 749T329 742V659H314V729Q295 731 264 733T198 736Q155 736 127 727T81 700T56 659T48 607Q48 579 55 556T78 512T115 469T168 423L205 393Q240 364 266 341T311 293T338 241T347 178ZM113 -203H95L196 -62H216L113 -203Z"  />
<glyph unicode="&#x15F;" horiz-adv-x="324" d="M289 121Q289 100 284 77T263 35T220 4T150 -9Q115 -9 87 -6T38 3V72H53V15Q71 11 96 9T150 6Q187 6 211 16T248 42T267 79T273 121Q273 165 249 197T168 265L142 282Q116 299 97 314T64 346T43 383T36 429Q36 452 42 472T64 506T106 529T173 538Q200 538 228 535T275 528V460H260V515Q243 518 220 520T173 523Q137 523 114 516T77 497T58 468T52 429Q52 405 58 388T76 355T107 326T150 296L177 278Q234 240 261 205T289 121ZM82 -203H64L165 -62H185L82 -203Z"  />
<glyph unicode="&#x160;" horiz-adv-x="377" d="M347 178Q347 138 337 104T306 45T253 6T174 -8Q135 -8 98 -6T38 1V83H54V14Q76 11 107 9T174 7Q254 7 292 54T330 178Q330 212 322 237T298 285T256 331T195 382L158 411Q127 436 103 459T63 505T39 553T31 607Q31 637 39 663T67 708T119 739T198 751Q234 751 267 749T329 742V659H314V729Q295 731 264 733T198 736Q155 736 127 727T81 700T56 659T48 607Q48 579 55 556T78 512T115 469T168 423L205 393Q240 364 266 341T311 293T338 241T347 178ZM319 953L205 800H187L73 953H93L196 812L299 953H319Z"  />
<glyph unicode="&#x161;" horiz-adv-x="324" d="M289 121Q289 100 284 77T263 35T220 4T150 -9Q115 -9 87 -6T38 3V72H53V15Q71 11 96 9T150 6Q187 6 211 16T248 42T267 79T273 121Q273 165 249 197T168 265L142 282Q116 299 97 314T64 346T43 383T36 429Q36 452 42 472T64 506T106 529T173 538Q200 538 228 535T275 528V460H260V515Q243 518 220 520T173 523Q137 523 114 516T77 497T58 468T52 429Q52 405 58 388T76 355T107 326T150 296L177 278Q234 240 261 205T289 121ZM295 760L181 607H163L49 760H69L172 619L275 760H295Z"  />
<glyph unicode="&#x162;" horiz-adv-x="446" d="M405 659V728H231V15H293V0H153V15H215V728H41V659H26V743H420V659H405ZM166 -203H148L236 -62H256L166 -203Z"  />
<glyph unicode="&#x163;" horiz-adv-x="276" d="M251 -5Q231 -7 214 -8T189 -9Q166 -9 152 -3T131 16T121 46T118 87V514H22V529H118V668H134V529H253V514H134V87Q134 42 144 25T189 7Q210 7 251 10V-5H251ZM113 -203H95L183 -62H203L113 -203Z"  />
<glyph unicode="&#x164;" horiz-adv-x="446" d="M405 659V728H231V15H293V0H153V15H215V728H41V659H26V743H420V659H405ZM356 958L242 805H224L110 958H130L233 817L336 958H356Z"  />
<glyph unicode="&#x165;" horiz-adv-x="357" d="M252 -4Q232 -7 215 -8T189 -9Q144 -9 131 15T118 87V514H23V529H118V668H134V529H253V514H134V87Q134 42 144 25T189 7Q200 7 215 7T252 10V-4ZM304 534H287L334 760H352L304 534Z"  />
<glyph unicode="&#x166;" horiz-adv-x="446" d="M231 519V15H293V0H153V15H215V519H26V534H215V728H41V659H26V743H420V659H405V728H231V534H420V519H231Z"  />
<glyph unicode="&#x167;" horiz-adv-x="276" d="M135 385V87Q135 42 145 25T189 7Q198 7 214 7T252 10V-4Q233 -7 216 -8T189 -9Q144 -9 131 15T118 87V385H23V400H118V514H23V529H118V668H135V529H254V514H135V400H254V385H135Z"  />
<glyph unicode="&#x168;" horiz-adv-x="521" d="M435 728V287Q435 216 428 162T402 70T349 13T260 -7Q206 -7 172 12T119 69T93 161T86 287V728H34V743H153V728H102V287Q102 217 108 165T132 78T180 26T260 8Q309 8 340 25T388 77T412 164T419 287V728H368V743H487V728H435ZM402 904Q402 852 391 824T343 796Q318 796 303 810T269 853L246 889Q228 917 215 930T181 943Q166 943 157 936T144 917T138 887T137 849V800H122V849Q122 901 133 929T181 957Q206 957 223 942T258 898L281 862Q299 834 311 823T343 811Q358 811 367 818T380 837T386 867T387 904V954H402V904H402Z"  />
<glyph unicode="&#x169;" horiz-adv-x="421" d="M329 0V39Q300 19 268 5T192 -9Q157 -9 135 2T99 35T81 92T76 173V514H32V529H92V173Q92 126 97 95T113 44T144 16T192 7Q231 7 264 20T329 57V514H286V529H345V15H389V0H329ZM345 713Q345 661 334 633T286 605Q261 605 246 619T212 662L189 698Q171 726 158 739T124 752Q109 752 100 745T87 726T81 696T80 658V609H65V658Q65 710 76 738T124 766Q149 766 166 751T201 707L224 671Q242 643 254 632T286 620Q301 620 310 627T323 646T329 676T330 713V763H345V713H345Z"  />
<glyph unicode="&#x16A;" horiz-adv-x="521" d="M435 728V287Q435 216 428 162T402 70T349 13T260 -7Q206 -7 172 12T119 69T93 161T86 287V728H34V743H153V728H102V287Q102 217 108 165T132 78T180 26T260 8Q309 8 340 25T388 77T412 164T419 287V728H368V743H487V728H435ZM125 849V865H396V849H125Z"  />
<glyph unicode="&#x16B;" horiz-adv-x="421" d="M329 0V39Q300 19 268 5T192 -9Q157 -9 135 2T99 35T81 92T76 173V514H32V529H92V173Q92 126 97 95T113 44T144 16T192 7Q231 7 264 20T329 57V514H286V529H345V15H389V0H329ZM73 678V694H344V678H73Z"  />
<glyph unicode="&#x16C;" horiz-adv-x="521" d="M435 728V287Q435 216 428 162T402 70T349 13T260 -7Q206 -7 172 12T119 69T93 161T86 287V728H34V743H153V728H102V287Q102 217 108 165T132 78T180 26T260 8Q309 8 340 25T388 77T412 164T419 287V728H368V743H487V728H435ZM368 946Q366 913 362 884T346 832T313 797T255 784Q220 784 199 797T165 832T148 883T142 946H158Q159 915 162 888T176 842T205 811T255 799Q286 799 305 810T334 841T348 888T353 946H368H368Z"  />
<glyph unicode="&#x16D;" horiz-adv-x="421" d="M329 0V39Q300 19 268 5T192 -9Q157 -9 135 2T99 35T81 92T76 173V514H32V529H92V173Q92 126 97 95T113 44T144 16T192 7Q231 7 264 20T329 57V514H286V529H345V15H389V0H329ZM322 765Q320 732 316 703T300 651T267 616T209 603Q174 603 153 616T119 651T102 702T96 765H112Q113 734 116 707T130 661T159 630T209 618Q240 618 259 629T288 660T302 707T307 765H322H322Z"  />
<glyph unicode="&#x16E;" horiz-adv-x="521" d="M435 728V287Q435 216 428 162T402 70T349 13T260 -7Q206 -7 172 12T119 69T93 161T86 287V728H34V743H153V728H102V287Q102 217 108 165T132 78T180 26T260 8Q309 8 340 25T388 77T412 164T419 287V728H368V743H487V728H435ZM358 882Q358 831 332 805T263 778Q220 778 195 804T169 882Q169 933 194 959T263 986Q306 986 332 960T358 882ZM343 882Q343 931 320 951T263 971Q230 971 207 952T184 882Q184 832 207 813T263 793Q297 793 320 812T343 882Z"  />
<glyph unicode="&#x16F;" horiz-adv-x="421" d="M329 0V39Q300 19 268 5T192 -9Q157 -9 135 2T99 35T81 92T76 173V514H32V529H92V173Q92 126 97 95T113 44T144 16T192 7Q231 7 264 20T329 57V514H286V529H345V15H389V0H329ZM301 690Q301 639 275 613T206 586Q163 586 138 612T112 690Q112 741 137 767T206 794Q249 794 275 768T301 690ZM286 690Q286 739 263 759T206 779Q173 779 150 760T127 690Q127 640 150 621T206 601Q240 601 263 620T286 690Z"  />
<glyph unicode="&#x170;" horiz-adv-x="521" d="M435 728V287Q435 216 428 162T402 70T349 13T260 -7Q206 -7 172 12T119 69T93 161T86 287V728H34V743H153V728H102V287Q102 217 108 165T132 78T180 26T260 8Q309 8 340 25T388 77T412 164T419 287V728H368V743H487V728H435ZM324 800H306L412 953H430L324 800ZM291 953L184 800H166L272 953H291Z"  />
<glyph unicode="&#x171;" horiz-adv-x="421" d="M329 0V39Q300 19 268 5T192 -9Q157 -9 135 2T99 35T81 92T76 173V514H32V529H92V173Q92 126 97 95T113 44T144 16T192 7Q231 7 264 20T329 57V514H286V529H345V15H389V0H329ZM284 607H266L372 760H390L284 607ZM251 760L144 607H126L232 760H251Z"  />
<glyph unicode="&#x172;" horiz-adv-x="521" d="M325 -207Q314 -209 296 -211T258 -214Q230 -214 212 -208T184 -191T169 -166T164 -136Q164 -115 173 -97T197 -63T233 -33T278 -6Q273 -6 269 -6T260 -7Q206 -7 172 12T119 69T93 161T86 287V728H34V743H153V728H102V287Q102 217 108 165T132 78T180 26T260 8Q309 8 340 25T388 77T412 164T419 287V728H368V743H487V728H435V287Q435 227 430 179T413 94T378 34T320 0Q254 -32 217 -63T180 -136Q180 -166 197 -182T258 -199Q277 -199 295 -197T325 -193V-207H325Z"  />
<glyph unicode="&#x173;" horiz-adv-x="421" d="M389 -207Q378 -209 360 -211T322 -214Q294 -214 276 -208T248 -191T233 -166T228 -136Q228 -114 239 -95T268 -59T310 -28T361 0H329V39Q300 19 268 5T192 -9Q157 -9 135 2T99 35T81 92T76 173V514H32V529H92V173Q92 126 97 95T113 44T144 16T192 7Q231 7 264 20T329 57V514H286V529H345V15H389V0Q321 -33 283 -64T244 -136Q244 -166 261 -182T322 -199Q341 -199 359 -197T389 -193V-207H389Z"  />
<glyph unicode="&#x174;" horiz-adv-x="694" d="M624 728L506 0H478L347 556H346L215 0H188L68 728H21V743H136V728H85L201 13H202L332 570H361L491 13H493L608 728H558V743H672V728H624ZM449 800L346 941L243 800H223L337 953H355L469 800H449Z"  />
<glyph unicode="&#x175;" horiz-adv-x="638" d="M572 514L481 0H455L320 466H318L183 0H157L66 514H27V529H126V514H83L169 15H171L307 485H331L467 15H469L554 514H511V529H611V514H572ZM422 607L319 748L216 607H196L310 760H328L442 607H422Z"  />
<glyph unicode="&#x176;" horiz-adv-x="459" d="M392 728L238 310V15H297V0H162V15H221V310L68 728H21V743H133V728H85L229 337H230L374 728H326V743H438V728H392ZM334 805L231 946L128 805H108L222 958H240L354 805H334Z"  />
<glyph unicode="&#x177;" horiz-adv-x="421" d="M355 514L218 -39Q207 -85 196 -117T171 -168T136 -197T86 -206Q76 -206 61 -206T32 -203V-189Q52 -191 64 -191T86 -191Q111 -191 128 -183T157 -157T180 -108T201 -33L210 2L68 514H24V529H129V514H85L218 31H220L338 514H295V529H399V514H355ZM322 607L219 748L116 607H96L210 760H228L342 607H322Z"  />
<glyph unicode="&#x178;" horiz-adv-x="459" d="M392 728L238 310V15H297V0H162V15H221V310L68 728H21V743H133V728H85L229 337H230L374 728H326V743H438V728H392ZM313 818V935H329V818H313ZM148 818H132V935H148V818Z"  />
<glyph unicode="&#x179;" horiz-adv-x="437" d="M36 0V15L371 728H67V659H51V743H389V728L54 15H385V84H400V0H36ZM222 800H205L310 953H329L222 800Z"  />
<glyph unicode="&#x17A;" horiz-adv-x="336" d="M35 0V15L283 514H61V460H45V529H301V515L53 15H286V70H301V0H35ZM178 607H161L266 760H285L178 607Z"  />
<glyph unicode="&#x17B;" horiz-adv-x="437" d="M36 0V15L371 728H67V659H51V743H389V728L54 15H385V84H400V0H36ZM207 819V937H224V819H207Z"  />
<glyph unicode="&#x17C;" horiz-adv-x="336" d="M35 0V15L283 514H61V460H45V529H301V515L53 15H286V70H301V0H35ZM168 641V759H185V641H168Z"  />
<glyph unicode="&#x17D;" horiz-adv-x="437" d="M36 0V15L371 728H67V659H51V743H389V728L54 15H385V84H400V0H36ZM353 953L239 800H221L107 953H127L230 812L333 953H353Z"  />
<glyph unicode="&#x17E;" horiz-adv-x="336" d="M35 0V15L283 514H61V460H45V529H301V515L53 15H286V70H301V0H35ZM297 760L183 607H165L51 760H71L174 619L277 760H297Z"  />
<glyph unicode="&#x192;" horiz-adv-x="428" d="M395 734Q382 736 367 736T343 737Q318 737 302 732T275 713T260 680T252 628L232 402H362L361 386H230L190 -57Q187 -89 182 -112T164 -151T133 -173T82 -181Q74 -181 59 -180T30 -177L31 -163Q45 -165 60 -165T83 -166Q108 -166 124 -161T150 -142T165 -108T173 -57L214 386H101L102 402H215L236 628Q239 660 244 683T262 722T293 745T344 753Q353 753 368 752T397 748L395 734Z"  />
<glyph unicode="&#x218;" horiz-adv-x="377" d="M347 178Q347 138 337 104T306 45T253 6T174 -8Q135 -8 98 -6T38 1V83H54V14Q76 11 107 9T174 7Q254 7 292 54T330 178Q330 212 322 237T298 285T256 331T195 382L158 411Q127 436 103 459T63 505T39 553T31 607Q31 637 39 663T67 708T119 739T198 751Q234 751 267 749T329 742V659H314V729Q295 731 264 733T198 736Q155 736 127 727T81 700T56 659T48 607Q48 579 55 556T78 512T115 469T168 423L205 393Q240 364 266 341T311 293T338 241T347 178ZM113 -203H95L183 -62H203L113 -203Z"  />
<glyph unicode="&#x219;" horiz-adv-x="324" d="M289 121Q289 100 284 77T263 35T220 4T150 -9Q115 -9 87 -6T38 3V72H53V15Q71 11 96 9T150 6Q187 6 211 16T248 42T267 79T273 121Q273 165 249 197T168 265L142 282Q116 299 97 314T64 346T43 383T36 429Q36 452 42 472T64 506T106 529T173 538Q200 538 228 535T275 528V460H260V515Q243 518 220 520T173 523Q137 523 114 516T77 497T58 468T52 429Q52 405 58 388T76 355T107 326T150 296L177 278Q234 240 261 205T289 121ZM83 -203H65L153 -62H173L83 -203Z"  />
<glyph unicode="&#x21A;" horiz-adv-x="446" d="M405 659V728H231V15H293V0H153V15H215V728H41V659H26V743H420V659H405ZM166 -203H148L236 -62H256L166 -203Z"  />
<glyph unicode="&#x21B;" horiz-adv-x="276" d="M251 -5Q231 -7 214 -8T189 -9Q166 -9 152 -3T131 16T121 46T118 87V514H22V529H118V668H134V529H253V514H134V87Q134 42 144 25T189 7Q210 7 251 10V-5H251ZM113 -203H95L183 -62H203L113 -203Z"  />
<glyph unicode="&#x2C6;" horiz-adv-x="344" d="M275 607L172 748L69 607H49L163 760H181L295 607H275Z"  />
<glyph unicode="&#x2C7;" horiz-adv-x="344" d="M295 760L181 607H163L49 760H69L172 619L275 760H295Z"  />
<glyph unicode="&#x2C9;" horiz-adv-x="333" d="M31 683V698H302V683H31Z"  />
<glyph unicode="&#x2D8;" horiz-adv-x="306" d="M268 765Q266 732 262 703T246 651T213 616T155 603Q120 603 99 616T65 651T48 702T42 765H58Q59 734 62 707T76 661T105 630T155 618Q186 618 205 629T234 660T248 707T253 765H268H268Z"  />
<glyph unicode="&#x2D9;" horiz-adv-x="241" d="M112 641V759H129V641H112Z"  />
<glyph unicode="&#x2DA;" horiz-adv-x="306" d="M247 690Q247 639 221 613T152 586Q109 586 84 612T58 690Q58 741 83 767T152 794Q195 794 221 768T247 690ZM232 690Q232 739 209 759T152 779Q119 779 96 760T73 690Q73 640 96 621T152 601Q186 601 209 620T232 690Z"  />
<glyph unicode="&#x2DB;" horiz-adv-x="308" d="M259 -207Q248 -209 230 -211T192 -214Q164 -214 146 -208T118 -191T103 -166T98 -136Q98 -114 109 -95T138 -59T180 -28T231 0H259Q191 -33 153 -64T114 -136Q114 -166 131 -182T192 -199Q211 -199 229 -197T259 -193V-207H259Z"  />
<glyph unicode="&#x2DC;" horiz-adv-x="318" d="M299 713Q299 661 288 633T240 605Q215 605 200 619T166 662L143 698Q125 726 112 739T78 752Q63 752 54 745T41 726T35 696T34 658V609H19V658Q19 710 30 738T78 766Q103 766 120 751T155 707L178 671Q196 643 208 632T240 620Q255 620 264 627T277 646T283 676T284 713V763H299V713H299Z"  />
<glyph unicode="&#x2DD;" horiz-adv-x="323" d="M195 607H177L283 760H301L195 607ZM162 760L55 607H37L143 760H162Z"  />
<glyph unicode="&#x394;" horiz-adv-x="455" d="M23 0L214 743H240L432 0H23ZM228 731H227L44 16H411L228 731Z"  />
<glyph unicode="&#x3A9;" horiz-adv-x="463" d="M428 347Q428 163 289 89V16H417V0H272V96Q349 134 380 197T412 347V468Q412 530 403 580T372 665T316 720T231 740Q181 740 147 721T91 666T60 580T50 468V347Q50 261 81 198T190 96V0H45V16H173V89Q34 163 34 347V468Q34 532 44 584T77 675T138 734T231 755Q286 755 323 734T384 675T418 585T428 468V347H428Z"  />
<glyph unicode="&#x3BC;" horiz-adv-x="421" d="M329 0V39Q300 19 268 5T192 -9Q114 -9 92 43V-188H136V-203H32V-188H76V514H32V529H92V153Q92 74 113 41T192 7Q231 7 264 20T329 57V514H286V529H345V15H389V0H329Z"  />
<glyph unicode="&#x3C0;" horiz-adv-x="460" d="M431 -9Q424 -10 421 -10T415 -10Q390 -10 376 -2T354 21T344 59T341 111V513H119V0H103V513H29V529H431V513H358V111Q358 55 367 31T415 6H431V-9H431Z"  />
<glyph unicode="&#x2013;" horiz-adv-x="359" d="M40 274V290H320V274H40Z"  />
<glyph unicode="&#x2014;" horiz-adv-x="461" d="M40 274V290H421V274H40Z"  />
<glyph unicode="&#x2018;" horiz-adv-x="135" d="M53 534H35L83 760H100L53 534Z"  />
<glyph unicode="&#x2019;" horiz-adv-x="135" d="M51 534H35L82 760H100L51 534Z"  />
<glyph unicode="&#x201A;" horiz-adv-x="135" d="M52 -91H35L82 134H100L52 -91Z"  />
<glyph unicode="&#x201C;" horiz-adv-x="287" d="M205 534H187L235 760H252L205 534ZM100 760L53 534H35L83 760H100Z"  />
<glyph unicode="&#x201D;" horiz-adv-x="287" d="M204 534H187L234 760H252L204 534ZM100 760L51 534H35L82 760H100Z"  />
<glyph unicode="&#x201E;" horiz-adv-x="287" d="M204 -91H187L234 134H252L204 -91ZM100 134L52 -91H35L82 134H100Z"  />
<glyph unicode="&#x2020;" horiz-adv-x="347" d="M178 520V-100H161V520H49V537H161V760H178V537H297V520H178Z"  />
<glyph unicode="&#x2021;" horiz-adv-x="347" d="M179 297V-100H162V297H47V314H162V515H47V532H162V760H179V532H300V515H179V314H300V297H179Z"  />
<glyph unicode="&#x2022;" horiz-adv-x="404" d="M355 368Q355 336 343 308T311 259T262 226T202 214Q170 214 142 226T94 259T61 308T49 368Q49 400 61 428T93 476T142 509T202 521Q234 521 262 509T310 477T343 428T355 368ZM339 368Q339 396 328 421T298 465T255 495T202 506Q174 506 149 495T106 465T76 421T65 368Q65 339 76 314T105 271T149 241T202 230Q230 230 254 241T298 270T328 314T339 368Z"  />
<glyph unicode="&#x2026;" horiz-adv-x="554" d="M269 0V119H285V0H269ZM59 0V119H75V0H59ZM478 0V119H494V0H478Z"  />
<glyph unicode="&#x2030;" horiz-adv-x="1062" d="M1030 170Q1030 76 1000 33T910 -10Q850 -10 820 33T790 170V261Q790 355 820 398T910 441Q970 441 1000 398T1030 261V170ZM1013 261Q1013 350 987 387T910 425Q859 425 833 388T807 261V169Q807 80 833 43T910 6Q961 6 987 43T1013 169V261ZM722 170Q722 76 693 33T603 -10Q543 -10 513 33T483 170V261Q483 355 513 398T603 441Q663 441 692 398T722 261V170ZM706 261Q706 350 680 387T603 425Q551 425 525 388T499 261V169Q499 80 525 43T603 6Q654 6 680 43T706 169V261ZM220 0H201L553 743H571L220 0ZM287 481Q287 387 257 344T167 301Q107 301 77 344T47 481V572Q47 666 77 709T167 752Q227 752 257 709T287 572V481ZM270 572Q270 662 244 699T167 736Q116 736 90 699T64 572V480Q64 391 90 354T167 317Q218 317 244 354T270 480V572Z"  />
<glyph unicode="&#x2039;" horiz-adv-x="223" d="M169 70L41 277L169 483H190L62 277L190 70H169Z"  />
<glyph unicode="&#x203A;" horiz-adv-x="223" d="M62 70H41L169 277L41 483H62L190 277L62 70Z"  />
<glyph unicode="&#x2044;" horiz-adv-x="332" d="M8 0H-10L342 743H360L8 0Z"  />
<glyph unicode="&#x20AC;" horiz-adv-x="428" d="M397 6Q395 5 384 3T357 -1T319 -6T273 -8Q220 -8 185 10T127 65T94 154T79 278H23V295H78Q75 386 78 452H23V468H79Q83 537 94 589T127 678T185 732T273 751Q297 751 319 749T357 745T384 740T397 737V659H381V727Q365 729 335 732T273 736Q225 736 193 719T141 669T110 585T96 468H359L356 452H95Q93 419 93 380T94 295H324L321 278H95Q99 210 109 159T139 75T192 24T273 7Q292 7 312 8T349 12T378 17T397 20V6H397Z"  />
<glyph unicode="&#x2113;" horiz-adv-x="376" d="M335 26Q281 -19 226 -19Q170 -19 149 17T127 128V303Q104 278 80 255T31 208L20 220Q48 246 74 272T127 326V594Q127 636 130 670T145 728T176 765T231 778Q259 778 277 769T307 743T323 707T328 664Q328 577 279 495T143 321V128Q143 60 160 29T226 -3Q252 -3 277 8T326 38L335 26ZM312 664Q312 707 295 735T231 763Q201 763 184 750T157 714T146 661T143 594V345Q223 432 267 507T312 664Z"  />
<glyph unicode="&#x2122;" horiz-adv-x="630" d="M529 360V375H563V730H562L466 529H447L352 730H351V375H384V360H301V375H335V730H302V743H362L456 543H457L551 743H612V730H578V375H613V360H529ZM256 689V727H158V375H200V360H101V375H142V727H46V689H32V743H269V689H256Z"  />
<glyph unicode="&#x2126;" horiz-adv-x="463" d="M428 347Q428 163 289 89V16H417V0H272V96Q349 134 380 197T412 347V468Q412 530 403 580T372 665T316 720T231 740Q181 740 147 721T91 666T60 580T50 468V347Q50 261 81 198T190 96V0H45V16H173V89Q34 163 34 347V468Q34 532 44 584T77 675T138 734T231 755Q286 755 323 734T384 675T418 585T428 468V347H428Z"  />
<glyph unicode="&#x212E;" horiz-adv-x="609" d="M157 282V89Q189 59 226 43T309 26Q351 26 382 36T439 64T483 104T519 153L550 134Q530 104 508 78T457 33T392 4T309 -7Q248 -7 198 16T113 79T58 171T38 283Q38 343 57 395T111 487T198 550T313 573Q377 573 427 550T513 487T567 394T586 282H157ZM466 478Q439 503 398 521T313 540Q268 540 228 525T157 478V315H466V478Z"  />
<glyph unicode="&#x2202;" horiz-adv-x="439" d="M409 505Q409 474 408 424T400 317T380 201T342 96T280 19T188 -11Q116 -11 82 28T47 161Q47 186 49 218T59 286T80 354T115 414T167 457T241 473Q265 473 290 466T336 443T370 400T386 333Q391 384 391 431T392 505Q392 568 383 616T350 696T287 745T187 762Q170 762 152 760T116 755V770Q132 773 149 775T187 777Q248 777 290 760T359 708T397 623T409 505ZM373 302Q373 336 366 364T344 413T303 445T241 457Q202 457 174 442T126 402T94 346T75 281T66 217T63 161Q63 74 94 40T189 5Q228 5 257 23T308 72T344 139T364 215Q369 239 371 261T373 302Z"  />
<glyph unicode="&#x2206;" horiz-adv-x="455" d="M23 0L214 743H240L432 0H23ZM228 731H227L44 16H411L228 731Z"  />
<glyph unicode="&#x220F;" horiz-adv-x="574" d="M450 727V-43H434V727H155V-43H139V727H33V743H556V727H450Z"  />
<glyph unicode="&#x2211;" horiz-adv-x="412" d="M53 -43V-29L260 350L53 728V743H371V727H73L277 354V345L73 -27H371V-43H53Z"  />
<glyph unicode="&#x2212;" horiz-adv-x="518" d="M75 384V401H443V384H75Z"  />
<glyph unicode="&#x2215;" horiz-adv-x="332" d="M8 0H-10L342 743H360L8 0Z"  />
<glyph unicode="&#x2219;" horiz-adv-x="97" d="M40 288V420H56V288H40Z"  />
<glyph unicode="&#x221A;" horiz-adv-x="664" d="M345 -74H321L157 463H35V479H170L333 -61L611 873H628L345 -74Z"  />
<glyph unicode="&#x221E;" horiz-adv-x="592" d="M521 370Q521 344 519 307T505 234T470 175T402 150H399Q370 150 338 167T277 219Q263 185 243 168T191 150H188Q144 150 121 175T86 235T72 307T70 371V377Q70 403 72 440T86 513T121 572T189 597H192Q221 597 253 581T314 528Q335 597 401 597H403Q446 597 470 572T505 512T519 440T521 376V370ZM505 376Q505 403 503 438T490 505T460 559T403 581H401Q374 581 358 569T332 531T317 469T307 383Q302 337 297 301T283 236Q312 199 341 183T399 166H402Q438 166 458 187T489 240T502 307T505 370V376ZM308 511Q278 548 250 564T192 581H189Q153 581 133 560T103 507T90 440T87 377V371Q87 344 89 309T101 242T131 188T188 166H191Q216 166 233 179T261 219T279 287T291 383Q293 417 297 451T308 511Z"  />
<glyph unicode="&#x222B;" horiz-adv-x="343" d="M310 734Q296 735 281 736T257 737Q232 737 217 732T193 713T182 679T179 628V-82Q179 -113 176 -136T163 -175T135 -198T85 -206Q77 -206 62 -205T32 -202V-188Q46 -189 61 -190T85 -191Q110 -191 125 -186T149 -167T160 -133T163 -82V628Q163 659 166 682T179 721T207 744T257 752Q265 752 280 751T310 748V734H310Z"  />
<glyph unicode="&#x2248;" horiz-adv-x="518" d="M421 531Q421 472 410 440T357 408Q328 408 306 426T264 475L234 519Q213 549 200 562T163 576Q129 576 122 548T114 470V415H97V470Q97 529 109 560T163 592Q191 592 207 576T247 528L277 485Q298 456 316 440T357 424Q390 424 397 452T404 531V585H421V531ZM421 309Q421 250 410 218T357 186Q328 186 306 204T264 253L234 297Q213 327 200 340T163 354Q129 354 122 326T114 248V193H97V248Q97 307 109 338T163 370Q191 370 207 354T247 306L277 263Q298 234 316 218T357 202Q390 202 397 230T404 309V363H421V309Z"  />
<glyph unicode="&#x2260;" horiz-adv-x="518" d="M236 271L171 0H155L220 271H94V287H224L277 498H94V515H280L337 746H353L297 515H424V498H292L241 287H424V271H236Z"  />
<glyph unicode="&#x2264;" horiz-adv-x="518" d="M68 0V16H449V0H68ZM313 155L113 397L313 640H335L135 397L335 155H313Z"  />
<glyph unicode="&#x2265;" horiz-adv-x="518" d="M69 0V16H449V0H69ZM204 155H182L382 397L182 640H204L405 397L204 155Z"  />
<glyph unicode="&#x25CA;" horiz-adv-x="471" d="M234 63L50 360L236 658L421 361L234 63ZM236 617L73 360L235 104L398 361L236 617Z"  />
<glyph unicode="&#xE504;" horiz-adv-x="258" d="M114 10H95L184 151H204L114 10Z"  />
<glyph unicode="&#xF6BE;" horiz-adv-x="136" d="M96 -115Q96 -136 94 -152T84 -181T64 -199T28 -206Q22 -206 11 -206T-15 -203V-189Q2 -191 12 -191T28 -191Q60 -191 70 -174T80 -115V514H37V529H96V-115H96Z"  />
<glyph unicode="&#xF6C3;" horiz-adv-x="333" d="M91 -203H73L161 -62H181L91 -203Z"  />
<glyph unicode="&#xFB01;" horiz-adv-x="425" d="M254 0V15H298V514H118V15H166V0H55V15H102V514H22V529H102V638Q102 669 105 692T118 731T146 755T196 763Q205 763 222 762T253 758V745Q239 746 222 746T196 747Q171 747 156 742T132 723T121 690T118 638V529H314V15H357V0H254ZM298 640V760H314V640H298Z"  />
<glyph unicode="&#xFB02;" horiz-adv-x="422" d="M282 0V15H325V745Q308 747 280 748T228 750Q193 750 172 747T139 732T123 698T119 638V529H248V514H119V15H166V0H55V15H102V514H22V529H102V638Q102 680 107 705T126 743T164 761T228 766Q239 766 253 766T280 764T305 763T325 761H341V15H385V0H282Z"  />

</font>
</defs>
</svg>
