<?xml  version="1.0" encoding="UTF-8"?>
<!DOCTYPE svg PUBLIC "-//W3C//DTD SVG 1.0//EN" "http://www.w3.org/TR/2001/REC-SVG-20010904/DTD/svg10.dtd" >
<svg xmlns="http://www.w3.org/2000/svg" >
<metadata>
<version>1.0</version>
<id><![CDATA[Frank Ruhl W26 Regular]]></id>
<vendor>Monotype Imaging Inc.</vendor>
<credits>
<name>Fonts.com WebFonts</name>
<URL>http://webfonts.fonts.com</URL>
<role>Home of the Web fonts</role>
</credits>
<license>
<URL>http://webfonts.fonts.com/Legal</URL>
</license>
<copyright><![CDATA[Copyright (c) Masterfont Studio Rosenberg 2005, All Rights Reserved. Version 1.0.  Programed and generated by Marzel A.S. -- Jerusalem.]]></copyright>
<trademark></trademark>
<licensee>
<name></name>
</licensee>
</metadata>
<defs >
<font horiz-adv-x="427" id="850e45c9-2003-49fa-8e3f-c7dfd6579acc">
<font-face font-family="" panose-1="2 4 6 3 5 2 1 2 2 3" ascent="800" descent="-370" units-per-em="1000" alphabetic="0">
</font-face>
<missing-glyph horiz-adv-x="777" d="M138 0V625H638V0H138ZM154 16H622V609H154V16Z"  />

<glyph unicode="&#xA;" />
<glyph unicode="&#xD;" />
<glyph unicode=" " horiz-adv-x="250" />
<glyph unicode="!" horiz-adv-x="333" d="M195 325L140 187L85 325V483Q85 506 101 522T140 538Q163 538 179 522T195 483V325ZM210 73L141 -8L72 73L141 154L210 73Z"  />
<glyph unicode="&quot;" horiz-adv-x="382" d="M326 546Q326 522 277 440Q232 366 208 339H175Q195 388 212 451Q219 485 235 554Q241 577 268 577H279Q326 577 326 546ZM182 546Q182 522 133 440Q88 366 64 339H31Q51 388 68 451Q75 485 91 554Q97 577 124 577H135Q182 577 182 546Z"  />
<glyph unicode="#" horiz-adv-x="528" d="M502 480L494 432H414L377 223H456L447 171H368L333 -30H286L322 171H151L114 -30H69L105 171H25L35 223H114L152 432H72L82 480H160L193 673H239L206 480H377L411 672H456L424 480H502ZM369 431H199L160 222H332L369 431Z"  />
<glyph unicode="$" horiz-adv-x="407" d="M367 149Q367 83 326 43T217 -7V-57H186V-9Q48 -7 33 99V106Q33 166 64 166Q102 166 102 135Q102 127 95 116T87 97Q87 96 88 93Q88 90 88 88Q98 59 126 43T186 25V227Q147 244 120 266Q44 327 44 398Q44 455 85 496T185 541V580H216V540Q284 540 330 503Q354 484 354 435Q354 417 347 401Q338 380 322 380Q280 380 280 413Q280 421 287 435T295 455Q295 475 265 492Q240 507 217 509V329Q239 317 272 297Q367 231 367 149ZM186 343V509Q153 507 132 487T111 434Q111 382 186 343ZM294 105Q294 169 217 207V26Q249 30 271 52T294 105Z"  />
<glyph unicode="%" horiz-adv-x="686" d="M625 161Q625 96 584 35Q539 -32 477 -32Q426 -32 398 7Q372 42 372 95Q372 163 415 222Q462 286 528 286Q575 286 602 246Q625 211 625 161ZM521 532L189 -46H150L451 475H449Q409 457 364 457Q325 457 295 475Q307 433 307 425Q307 341 262 283Q213 220 154 220Q106 220 79 261Q54 296 54 346Q54 415 93 474Q138 539 204 539Q226 539 280 512T372 485Q443 485 494 541L521 532ZM594 168Q594 251 537 251Q493 251 462 181Q436 122 436 71Q436 0 489 0Q538 0 569 62Q594 113 594 168ZM276 423Q276 453 263 476Q248 505 220 505Q175 505 144 435Q118 377 118 325Q118 255 165 255Q215 255 248 317Q276 368 276 423Z"  />
<glyph unicode="&amp;" horiz-adv-x="680" d="M675 90Q675 61 625 19Q587 -13 540 -13Q464 -13 387 70Q287 -13 187 -13Q119 -13 79 24T38 130Q38 200 96 257Q133 294 214 340Q182 431 182 468Q182 527 221 567T320 608Q372 608 407 579T443 500Q443 443 398 403Q369 377 302 346Q353 244 421 160Q504 264 504 324Q504 348 486 357Q476 362 446 365V383H641V365Q609 360 596 353Q572 340 556 311Q519 244 443 135Q459 104 500 78T576 52Q607 52 626 64Q638 72 662 101L675 90ZM394 504Q394 536 375 558T324 580Q254 580 254 502Q254 450 290 374Q394 433 394 504ZM364 94Q304 166 227 310Q180 279 154 249Q121 211 121 162Q121 112 154 74T238 36Q297 36 364 94Z"  />
<glyph unicode="&apos;" horiz-adv-x="224" d="M177 546Q177 522 128 440Q83 366 59 339H26Q46 388 63 451Q70 485 86 554Q92 577 119 577H130Q177 577 177 546Z"  />
<glyph unicode="(" horiz-adv-x="265" d="M231 -89L214 -112Q175 -82 157 -66Q129 -40 106 -6Q34 100 34 240Q34 379 106 485Q142 539 214 591L231 568Q177 516 156 460Q120 366 120 243Q120 113 156 19Q177 -37 231 -89Z"  />
<glyph unicode=")" horiz-adv-x="265" d="M226 240Q226 100 154 -6Q120 -56 46 -112L29 -89Q83 -37 104 19Q140 113 140 243Q140 366 104 460Q83 516 29 568L46 591Q118 539 154 485Q226 379 226 240Z"  />
<glyph unicode="*" horiz-adv-x="526" d="M439 333Q439 298 404 298Q375 298 337 331Q324 342 274 394Q306 310 306 267Q306 220 270 220Q233 220 233 274Q233 299 241 333Q241 336 259 394Q177 292 133 292Q100 292 100 329Q100 363 180 388Q220 400 251 406Q186 418 157 429Q100 451 100 482Q100 519 133 519Q164 519 214 468Q238 443 259 417Q233 501 233 537Q233 592 270 592Q306 592 306 545Q306 501 274 417L323 468Q370 514 404 514Q439 514 439 478Q439 433 282 406Q439 382 439 333Z"  />
<glyph unicode="+" horiz-adv-x="643" d="M545 225H350V24H292V225H98V286H290V489H350V286H545V225Z"  />
<glyph unicode="&#x2c;" horiz-adv-x="224" d="M181 51Q181 -31 62 -128L44 -108Q58 -89 73 -57Q90 -19 90 -2Q90 18 44 73L114 154Q134 131 154 108Q181 73 181 51Z"  />
<glyph unicode="-" horiz-adv-x="443" d="M395 304L374 222H48L69 304H395Z"  />
<glyph unicode="." horiz-adv-x="248" d="M183 63L114 -18L44 63L114 144L183 63Z"  />
<glyph unicode="/" horiz-adv-x="350" d="M364 538L28 -32H-20L313 538H364Z"  />
<glyph unicode="0" horiz-adv-x="442" d="M402 269Q402 149 353 71T222 -7Q140 -7 90 72Q41 148 41 269Q41 410 96 486Q144 555 222 555Q299 555 348 486Q402 410 402 269ZM299 273Q299 372 282 445Q266 515 222 515Q177 515 161 445Q144 372 144 273Q144 133 168 77Q187 33 222 33Q273 33 290 130Q299 184 299 273Z"  />
<glyph unicode="1" horiz-adv-x="442" d="M349 0H123V40Q148 46 172 51Q192 60 192 90V432L99 406V442Q129 452 180 490Q224 522 252 550H280V90Q280 60 300 51Q324 46 349 40V0Z"  />
<glyph unicode="2" horiz-adv-x="442" d="M406 130Q361 35 351 0H51V41Q127 101 206 213Q275 311 275 386Q275 405 266 428Q244 484 185 484Q154 484 126 459T89 404L60 424Q87 493 135 528Q176 559 222 559Q281 559 324 517T367 411Q367 319 251 188Q235 170 150 85H289Q320 85 338 95Q353 104 375 130H406Z"  />
<glyph unicode="3" horiz-adv-x="442" d="M372 186Q372 104 321 49T188 -7Q144 -7 107 18Q65 46 65 89Q65 129 98 129Q118 129 129 108T151 65Q168 42 200 42Q239 42 264 80Q286 114 286 155Q286 239 236 266Q194 289 151 289V317Q259 317 259 421Q259 446 242 466T200 487Q146 487 98 422L73 449Q159 558 240 558Q284 558 315 529T346 456Q346 397 280 340Q325 321 348 279T372 186Z"  />
<glyph unicode="4" horiz-adv-x="442" d="M409 249L388 139H329V0H244V139H27V223L269 549H329V218H329Q365 218 391 249H409ZM243 218V456L66 218H243Z"  />
<glyph unicode="5" horiz-adv-x="442" d="M374 550L345 464H186L161 381Q191 387 207 387Q282 387 327 335T372 206Q372 119 322 57Q269 -9 183 -9Q141 -9 107 15Q69 41 69 81Q69 120 106 120Q132 120 153 89Q182 46 206 46Q250 46 277 85Q301 119 301 165Q301 221 264 259T169 297Q146 297 121 287Q110 294 86 304L160 550H374Z"  />
<glyph unicode="6" horiz-adv-x="442" d="M397 184Q397 106 348 50Q296 -9 219 -9Q136 -9 87 63Q45 126 45 213Q45 340 130 444T339 564L351 539Q195 484 159 317Q217 347 252 347Q316 347 358 297Q397 249 397 184ZM300 169Q300 218 283 252Q261 296 216 296Q172 296 153 274Q144 243 144 201Q144 37 224 37Q300 37 300 169Z"  />
<glyph unicode="7" horiz-adv-x="442" d="M382 550Q375 528 341 429L261 200Q221 85 221 0H122Q208 237 296 474Q296 474 249 474H155Q102 474 90 421L64 429L89 550H382Z"  />
<glyph unicode="8" horiz-adv-x="442" d="M395 151Q395 84 344 39T225 -7Q154 -7 103 33Q48 77 48 146Q48 231 141 292Q63 352 63 420Q63 483 112 523Q158 559 223 559Q282 559 324 529Q371 496 371 439Q371 369 282 317Q395 244 395 151ZM302 435Q302 475 279 500T216 525Q185 525 164 505T142 453Q142 418 180 385Q194 372 248 337Q302 376 302 435ZM317 121Q317 192 180 268Q128 228 128 158Q128 106 152 73Q180 35 229 35Q265 35 291 60T317 121Z"  />
<glyph unicode="9" horiz-adv-x="442" d="M397 338Q397 211 313 109Q228 4 103 -12L91 13Q246 68 284 234Q226 204 191 204Q127 204 85 255Q45 303 45 368Q45 446 95 503T223 560Q306 560 355 488Q397 426 397 338ZM298 351Q298 514 218 514Q142 514 142 383Q142 333 159 299Q182 255 227 255Q268 255 290 277Q298 309 298 351Z"  />
<glyph unicode=":" horiz-adv-x="248" d="M183 358L114 276L44 358L114 439L183 358ZM183 63L114 -18L44 63L114 144L183 63Z"  />
<glyph unicode=";" horiz-adv-x="248" d="M183 358L114 276L44 358L114 439L183 358ZM181 51Q181 -31 62 -128L44 -108Q58 -89 73 -57Q90 -19 90 -2Q90 18 44 73L114 154Q134 131 154 108Q181 73 181 51Z"  />
<glyph unicode="&lt;" horiz-adv-x="504" d="M411 -97L88 171V233L411 501V439L125 202L411 -34V-97Z"  />
<glyph unicode="=" horiz-adv-x="643" d="M545 305H98V365H545V305ZM545 143H98V203H545V143Z"  />
<glyph unicode="&gt;" horiz-adv-x="504" d="M398 171L75 -97V-35L361 202L75 438V501L398 233V171Z"  />
<glyph unicode="?" horiz-adv-x="393" d="M333 416Q333 375 293 334Q286 328 273 316Q267 310 226 260Q198 226 198 175H183Q161 236 161 277Q161 293 196 358T231 435Q235 443 235 455Q235 471 228 486T206 502Q172 502 153 450Q145 422 136 394Q132 396 60 439Q75 478 109 507T183 536Q333 536 333 416ZM261 63L191 -18L122 63L191 144L261 63Z"  />
<glyph unicode="@" horiz-adv-x="968" d="M928 94Q862 -56 765 -130Q657 -212 497 -212Q298 -212 177 -82Q61 42 61 237Q61 434 196 565T537 696Q687 696 783 598T879 341Q879 200 802 92T627 -16Q530 -16 526 60Q525 85 534 129Q472 57 447 34Q390 -16 344 -16Q299 -16 274 21Q252 53 252 103Q252 215 338 338Q430 469 533 469Q563 469 583 444T608 384L628 449L710 459L616 142Q603 98 603 68Q603 18 639 18Q715 18 780 119T845 345Q845 481 753 576Q663 668 539 668Q348 668 225 538Q105 412 105 227Q105 61 214 -58Q328 -182 503 -182Q784 -182 898 94H928ZM585 369Q585 396 563 419T520 443Q444 443 378 321Q320 211 320 118Q320 48 375 48Q446 48 518 165Q585 276 585 369Z"  />
<glyph unicode="A" horiz-adv-x="750" d="M742 0H462V18Q536 18 536 61Q536 80 524 107L473 227H208L156 107Q144 80 144 62Q144 18 223 18V0H6V18Q65 18 103 107L356 696H380L629 107Q650 57 671 39Q695 18 742 18V0ZM454 265L341 539L223 265H454Z"  />
<glyph unicode="B" horiz-adv-x="672" d="M621 184Q621 105 561 53T405 0H20V18Q74 18 95 36T116 108V572Q116 625 95 643T20 662V680H365Q464 680 526 634T589 513Q589 457 565 422T476 353V351Q543 340 582 296T621 184ZM483 503Q483 567 441 605Q394 646 305 646Q263 646 220 635V377Q247 370 351 370Q412 370 447 408T483 503ZM509 180Q509 250 468 290Q421 336 327 336Q276 336 220 329V50Q264 39 333 39Q419 39 466 81Q509 118 509 180Z"  />
<glyph unicode="C" horiz-adv-x="685" d="M652 159Q610 84 545 37Q470 -16 386 -16Q234 -16 133 85T32 332Q32 482 138 589T389 696Q442 696 481 684Q504 677 532 662Q554 650 564 650Q575 650 586 663T601 696H618L635 465H611Q601 547 541 604T406 662Q293 662 222 567Q154 477 154 328Q154 188 232 104Q306 23 421 23Q541 23 635 169L652 159Z"  />
<glyph unicode="D" horiz-adv-x="737" d="M705 346Q705 197 612 101Q514 0 347 0H20V18Q74 18 95 36T116 108V572Q116 625 95 643T20 662V680H322Q512 680 600 598Q705 500 705 346ZM583 344Q583 471 511 558T330 646Q280 646 220 629V50Q262 34 330 34Q438 34 509 117Q583 204 583 344Z"  />
<glyph unicode="E" horiz-adv-x="625" d="M607 191L546 0H20V18Q74 18 95 36T116 108V572Q116 625 95 643T20 662V680H542L550 518H532Q519 583 489 613Q456 646 392 646H220V388H367Q469 388 469 476H487V246H469Q469 354 369 354H220V76Q220 59 232 47T260 34H402Q534 34 583 191H607Z"  />
<glyph unicode="F" horiz-adv-x="552" d="M532 518H514Q501 583 471 613Q438 646 374 646H220V388H323Q425 388 425 476H443V246H425Q425 354 325 354H220V108Q220 55 241 37T316 18V0H20V18Q74 18 95 36T116 108V572Q116 625 95 643T20 662V680H524L532 518Z"  />
<glyph unicode="G" horiz-adv-x="758" d="M726 345Q687 345 672 327T657 260V50Q546 -16 386 -16Q234 -16 133 85T32 332Q32 482 138 589T389 696Q461 696 516 673T576 650Q587 650 598 663T613 696H630L647 465H623Q574 662 406 662Q293 662 222 567Q154 477 154 328Q154 188 232 104Q306 23 421 23Q500 23 553 70V260Q553 309 534 327T458 345V363H726V345Z"  />
<glyph unicode="H" horiz-adv-x="751" d="M731 0H435V18Q489 18 510 36T531 108V336H220V108Q220 55 241 37T316 18V0H20V18Q74 18 95 36T116 108V572Q116 625 95 643T20 662V680H316V662Q262 662 241 644T220 572V370H531V572Q531 625 510 643T435 662V680H731V662Q677 662 656 644T635 572V108Q635 55 656 37T731 18V0Z"  />
<glyph unicode="I" horiz-adv-x="342" d="M319 0H23V18Q77 18 98 36T119 108V572Q119 625 98 643T23 662V680H319V662Q265 662 244 644T223 572V108Q223 55 244 37T319 18V0Z"  />
<glyph unicode="J" horiz-adv-x="397" d="M387 662Q333 662 312 644T291 572V218Q291 103 240 44T101 -16Q61 -16 34 3Q4 25 4 62Q4 83 21 97T59 112Q89 112 103 88Q112 65 122 42T153 18Q187 18 187 83V572Q187 625 166 643T91 662V680H387V662Z"  />
<glyph unicode="K" horiz-adv-x="752" d="M761 0H444V18Q492 18 492 54Q492 72 454 110L220 345V108Q220 55 241 37T316 18V0H20V18Q74 18 95 36T116 108V572Q116 625 95 643T20 662V680H316V662Q262 662 241 644T220 572V379L437 575Q483 617 483 638Q483 662 420 662V680H671V661Q625 662 589 645T506 583L304 394L580 119Q649 50 678 34T761 18V0Z"  />
<glyph unicode="L" horiz-adv-x="628" d="M610 185L551 0H20V18Q74 18 95 36T116 108V572Q116 625 95 643T20 662V680H316V662Q262 662 241 644T220 572V85Q220 64 231 49T259 34H386Q540 34 590 190L610 185Z"  />
<glyph unicode="M" horiz-adv-x="926" d="M904 0H608V18Q662 18 683 36T704 108V557H700L447 0H426L169 553H162V108Q162 55 183 37T258 18V0H20V18Q74 18 95 36T116 108V572Q116 625 95 643T20 662V680H222L463 158H468L704 680H904V662Q850 662 829 644T808 572V108Q808 55 829 37T904 18V0Z"  />
<glyph unicode="N" horiz-adv-x="739" d="M722 662Q668 662 647 644T626 572V-16H602L163 537H159V108Q159 55 180 37T255 18V0H17V18Q71 18 92 36T113 108V566Q113 608 80 635T0 662V680H171L576 183H580V572Q580 625 559 643T484 662V680H722V662Z"  />
<glyph unicode="O" horiz-adv-x="746" d="M714 344Q714 195 615 90T373 -16Q230 -16 131 89T32 344Q32 491 131 593T373 696Q516 696 615 594T714 344ZM592 344Q592 488 535 573Q477 662 373 662Q268 662 210 573Q154 488 154 344Q154 198 210 111Q268 18 373 18Q476 18 535 111Q592 199 592 344Z"  />
<glyph unicode="P" horiz-adv-x="576" d="M544 486Q544 398 480 348Q424 303 341 303Q266 303 220 315V108Q220 55 241 37T316 18V0H20V18Q74 18 95 36T116 108V572Q116 625 95 643T20 662V680H312Q412 680 476 630Q544 576 544 486ZM432 479Q432 548 392 595T294 642Q251 642 220 632V353Q269 338 299 338Q363 338 399 379Q432 417 432 479Z"  />
<glyph unicode="Q" horiz-adv-x="738" d="M706 344Q706 224 634 123Q560 19 450 -6Q472 -78 542 -134Q617 -195 702 -195V-213Q576 -213 444 -141Q330 -79 272 -2Q169 26 101 128T32 344Q32 491 129 593T369 696Q512 696 609 594T706 344ZM588 344Q588 488 531 573Q473 662 369 662Q264 662 206 573Q150 488 150 344Q150 198 206 111Q264 18 369 18Q474 31 531 116T588 344Z"  />
<glyph unicode="R" horiz-adv-x="691" d="M702 0H508L293 320H220V108Q220 55 241 37T316 18V0H20V18Q74 18 95 36T116 108V572Q116 625 95 643T20 662V680H330Q438 680 498 630Q554 583 554 503Q554 440 513 394T403 330L548 117Q615 18 702 18V0ZM442 499Q442 561 405 603T312 646Q255 646 220 633V354H280Q351 354 396 393T442 499Z"  />
<glyph unicode="S" horiz-adv-x="560" d="M510 179Q510 96 451 41Q388 -16 283 -16Q229 -16 177 4Q131 22 115 22Q89 22 83 -16H65V214H83Q90 125 153 72Q211 22 291 22Q343 22 381 53T420 134Q420 202 326 260Q239 310 152 360Q58 426 58 513Q58 592 114 644T260 696Q292 696 345 680Q351 678 379 666Q398 658 410 658Q424 658 435 670T447 696H465V459H446Q437 553 389 605T260 658Q207 658 171 622Q138 590 138 549Q138 491 234 432Q324 380 414 328Q510 260 510 179Z"  />
<glyph unicode="T" horiz-adv-x="590" d="M578 518H560Q547 583 517 613Q484 646 420 646H346V108Q346 55 367 37T442 18V0H146V18Q200 18 221 36T242 108V646H168Q104 646 73 615T28 518H10L18 680H570L578 518Z"  />
<glyph unicode="U" horiz-adv-x="752" d="M743 662Q689 662 668 644T647 572V239Q647 127 584 59Q512 -16 376 -16Q252 -16 180 60Q113 130 113 241V572Q113 625 92 643T17 662V680H313V662Q259 662 238 644T217 572V239Q217 150 270 89T409 28Q496 28 550 90Q601 149 601 239V572Q601 625 580 643T505 662V680H743V662Z"  />
<glyph unicode="V" horiz-adv-x="724" d="M721 662Q661 662 614 547L386 -16H360L102 578Q82 624 59 643T0 662V680H278V662Q204 662 204 615Q204 595 218 562L401 139L569 555Q581 584 581 606Q581 662 511 662V680H721V662Z"  />
<glyph unicode="W" horiz-adv-x="946" d="M950 662Q909 662 889 635Q876 618 855 557L660 -16H636L479 415L326 -16H302L98 554Q75 617 60 636Q40 662 0 662V680H252V662Q185 662 185 625Q185 606 202 558L342 163L455 481L429 555Q408 613 392 634Q368 662 323 662V680H588V662Q520 662 520 624Q520 599 535 556L671 163L809 559Q820 592 820 612Q820 662 747 662L748 680H950V662Z"  />
<glyph unicode="X" horiz-adv-x="742" d="M734 0H439V17Q506 18 506 56Q506 77 486 108L360 298L217 114Q190 87 190 60Q190 18 252 18V0H0V18Q40 18 87 46Q131 71 158 107L335 338L168 579Q110 662 24 662V680H343V662Q271 662 271 624Q271 605 291 576L398 418L522 575Q548 608 548 628Q548 662 479 662V680H718V661Q679 662 650 645T587 586L421 377L613 108Q648 59 663 45Q694 18 734 18V0Z"  />
<glyph unicode="Y" horiz-adv-x="694" d="M695 662Q652 662 626 643T569 577L391 294V108Q391 55 412 37T487 18V0H191V18Q245 18 266 36T287 108V283L86 585Q58 627 44 640Q20 662 -16 662V680H280V662Q198 662 199 615Q199 596 217 568L364 332L517 578Q527 594 527 613Q527 662 456 662V680H695V662Z"  />
<glyph unicode="Z" horiz-adv-x="622" d="M598 178L566 0H10V17L448 641H238Q163 641 132 614T89 509H71L86 680H597L146 39H421Q472 39 515 78T580 178H598Z"  />
<glyph unicode="[" horiz-adv-x="162" d="M135 -56H23V598H135V570H82V-30H135V-56Z"  />
<glyph unicode="\" horiz-adv-x="275" d="M227 -16L-1 696H46L274 -16H227Z"  />
<glyph unicode="]" horiz-adv-x="162" d="M137 -56H25V-30H78V570H25V598H137V-56Z"  />
<glyph unicode="^" horiz-adv-x="496" d="M484 328H421L247 620L72 328H12L232 696H264L484 328Z"  />
<glyph unicode="_" horiz-adv-x="550" d="M550 -146H0V-100H550V-146Z"  />
<glyph unicode="`" horiz-adv-x="201" d="M190 709H162L11 886H137L190 709Z"  />
<glyph unicode="a" horiz-adv-x="445" d="M439 58Q399 -10 332 -10Q308 -10 294 15Q282 35 282 63Q230 19 223 14Q185 -10 139 -10Q90 -10 61 22T32 105Q32 183 117 232Q150 252 282 298V326Q282 439 201 439Q133 439 133 369Q133 308 92 308Q73 308 61 323T48 362Q48 407 98 438T217 469Q365 469 365 347V87Q365 52 388 52Q414 52 439 92V58ZM282 96V268Q115 209 115 129Q115 96 135 71T183 46Q221 46 282 96Z"  />
<glyph unicode="b" horiz-adv-x="506" d="M468 264Q468 151 400 71T235 -10Q136 -10 74 45V550Q74 595 70 607Q65 625 44 625Q32 625 3 617L-4 635L133 696H157V374Q177 413 219 441T301 469Q373 469 420 410T468 264ZM381 235Q381 303 345 351T259 399Q231 399 202 383T157 343V75Q202 28 252 28Q309 28 345 86T381 235Z"  />
<glyph unicode="c" horiz-adv-x="450" d="M421 174Q400 86 350 38T229 -10Q147 -10 90 56T32 218Q32 322 95 395T249 469Q319 469 364 438T410 360Q410 339 393 324T355 309Q333 309 320 324T306 360Q306 435 236 435Q181 435 148 390T115 277Q115 186 155 123T261 60Q354 60 402 180L421 174Z"  />
<glyph unicode="d" horiz-adv-x="510" d="M511 53L371 -10H347V45Q286 -10 209 -10Q136 -10 84 59T32 224Q32 319 97 394T252 469Q305 469 347 427V550Q347 595 343 607Q338 625 317 625Q305 625 276 617L269 635L406 696H430V136Q430 92 439 76T472 59Q490 59 505 67L511 53ZM347 87V314Q347 366 314 402Q283 435 243 435Q193 435 159 383T124 250Q124 163 162 102T256 40Q308 40 347 87Z"  />
<glyph unicode="e" horiz-adv-x="462" d="M435 161Q417 90 359 40T237 -10Q152 -10 92 55T32 213Q32 325 89 397T238 469Q319 469 371 416T424 284H112Q112 190 154 125T260 60Q314 60 360 90T417 164L435 161ZM320 308Q320 361 289 398T212 435Q174 435 145 398T112 308H320Z"  />
<glyph unicode="f" horiz-adv-x="292" d="M409 615Q409 576 368 576Q338 576 316 619T258 662Q232 662 211 636T189 576V459H301V425H189V107Q189 56 203 37T261 18V0H34V18Q78 18 93 39Q106 57 106 107V425H18V459H106V528Q106 598 151 647T262 696Q409 696 409 615Z"  />
<glyph unicode="g" horiz-adv-x="500" d="M474 -36Q474 -117 408 -164T226 -212Q20 -212 20 -118Q20 -85 51 -49Q64 -33 113 11Q58 31 58 67Q58 95 83 124T143 168Q53 210 53 304Q53 372 106 420T237 469Q322 469 355 436H474V398H395Q422 356 422 309Q422 238 368 194T228 149Q199 149 167 159Q138 134 138 106Q138 76 191 74L346 67Q474 61 474 -36ZM332 286Q332 353 301 399T227 445Q146 445 146 321Q146 258 173 216T242 173Q278 173 305 206T332 286ZM436 -69Q436 -10 332 -10Q205 -10 138 4Q100 -28 100 -74Q100 -107 140 -128Q183 -152 258 -152Q337 -152 389 -126Q436 -101 436 -69Z"  />
<glyph unicode="h" horiz-adv-x="520" d="M506 0H279V18Q323 18 338 39Q351 57 351 107V315Q351 407 284 407Q228 407 167 341V107Q167 56 181 37T239 18V0H12V18Q56 18 71 39Q84 57 84 107V550Q84 595 80 607Q75 625 54 625Q42 625 13 617L6 635L143 696H167V376Q242 469 329 469Q373 469 403 429T434 330V107Q434 56 448 37T506 18V0Z"  />
<glyph unicode="i" horiz-adv-x="278" d="M192 650Q192 631 178 618T144 604Q124 604 110 617T96 650Q96 669 110 682T144 696Q164 696 178 683T192 650ZM258 0H31V18Q75 18 90 39Q103 57 103 107V323Q103 368 99 380Q94 398 73 398Q61 398 32 390L25 408L162 469H186V107Q186 56 200 37T258 18V0Z"  />
<glyph unicode="j" horiz-adv-x="278" d="M192 650Q192 631 178 618T144 604Q124 604 110 617T96 650Q96 669 110 682T144 696Q164 696 178 683T192 650ZM186 0Q186 -133 142 -178Q109 -212 19 -212Q-18 -212 -40 -196T-63 -157Q-63 -118 -20 -118Q-2 -118 18 -148T60 -178Q103 -178 103 -100V323Q103 368 99 380Q94 398 73 398Q61 398 32 390L25 408L162 469H186V0Z"  />
<glyph unicode="k" horiz-adv-x="510" d="M525 0H298V18Q328 18 328 41Q328 56 291 102L171 252V107Q171 56 185 37T243 18V0H16V18Q60 18 75 39Q88 57 88 107V550Q88 595 84 607Q79 625 58 625Q46 625 17 617L10 635L147 696H171V261L282 362Q300 379 318 396T336 425Q336 441 300 441V459H490V441Q444 441 415 427T331 366L247 293L383 121Q432 59 460 39T525 18V0Z"  />
<glyph unicode="l" horiz-adv-x="277" d="M253 0H26V18Q70 18 85 39Q98 57 98 107V550Q98 595 94 607Q89 625 68 625Q56 625 27 617L20 635L157 696H181V107Q181 56 195 37T253 18V0Z"  />
<glyph unicode="m" horiz-adv-x="805" d="M797 0H570V18Q614 18 629 39Q642 57 642 107V312Q642 351 620 379T567 407Q533 407 499 388T448 342V107Q448 56 462 37T520 18V0H293V18Q337 18 352 39Q365 57 365 107V312Q365 351 343 379T290 407Q259 407 225 388T171 342V107Q171 56 185 37T243 18V0H16V18Q60 18 75 39Q88 57 88 107V323Q88 368 84 380Q79 398 58 398Q46 398 17 390L10 408L147 469H171V374Q205 414 248 441Q295 469 331 469Q370 469 405 441T447 372Q468 412 516 440T611 469Q658 469 691 427T725 325V107Q725 56 739 37T797 18V0Z"  />
<glyph unicode="n" horiz-adv-x="518" d="M510 0H283V18Q327 18 342 39Q355 57 355 107V315Q355 407 288 407Q232 407 171 341V107Q171 56 185 37T243 18V0H16V18Q60 18 75 39Q88 57 88 107V323Q88 368 84 380Q79 398 58 398Q46 398 17 390L10 408L147 469H171V376Q246 469 333 469Q377 469 407 429T438 330V107Q438 56 452 37T510 18V0Z"  />
<glyph unicode="o" horiz-adv-x="506" d="M474 243Q474 137 411 64T253 -10Q158 -10 95 58T32 224Q32 327 95 398T253 469Q348 469 411 404T474 243ZM381 196Q381 435 233 435Q190 435 158 385T125 266Q125 162 163 95Q203 24 269 24Q317 24 349 74T381 196Z"  />
<glyph unicode="p" horiz-adv-x="516" d="M484 253Q484 137 429 65Q373 -10 280 -10Q216 -10 168 24V-87Q168 -138 182 -157T240 -176V-194H13V-176Q57 -176 71 -157T85 -87V323Q85 368 81 380Q76 398 55 398Q43 398 14 390L7 408L144 469H168V366Q240 469 320 469Q393 469 438 407T484 253ZM392 205Q392 304 361 357Q332 407 283 407Q217 407 168 333V124Q168 82 199 53T280 24Q327 24 359 74T392 205Z"  />
<glyph unicode="q" horiz-adv-x="512" d="M503 -194H276V-176Q320 -176 334 -157T348 -87V72Q280 -10 199 -10Q130 -10 81 53T32 207Q32 316 98 392T260 469Q325 469 348 435L411 469H431V-87Q431 -138 445 -157T503 -176V-194ZM348 116V348Q348 380 323 406Q295 435 249 435Q195 435 157 382T119 255Q119 174 155 117T242 60Q277 60 309 79Q337 96 348 116Z"  />
<glyph unicode="r" horiz-adv-x="344" d="M353 414Q353 369 305 369Q285 369 267 384T236 399Q209 399 169 327V107Q169 56 183 37T241 18V0H14V18Q58 18 73 39Q86 57 86 107V323Q86 368 82 380Q77 398 56 398Q44 398 15 390L8 408L145 469H169V373Q228 469 288 469Q315 469 334 453T353 414Z"  />
<glyph unicode="s" horiz-adv-x="402" d="M367 129Q367 68 325 29T207 -10Q176 -10 139 1T93 13Q78 13 72 0H54V159H72Q80 103 120 64T209 24Q241 24 263 43T285 90Q285 136 224 170Q168 201 111 231Q50 274 50 341Q50 397 87 433T185 469Q213 469 246 460T289 451Q306 451 310 469H328V316H310Q307 367 273 403T193 439Q157 439 135 421T112 378Q112 333 178 298Q239 268 301 237Q367 194 367 129Z"  />
<glyph unicode="t" horiz-adv-x="290" d="M290 97Q258 -10 162 -10Q80 -10 80 97V425H8V449Q55 449 91 497T139 617H163V459H274V425H163V97Q163 77 176 63T208 48Q245 48 268 97H290Z"  />
<glyph unicode="u" horiz-adv-x="518" d="M518 53L378 -10H354V86Q332 46 291 18T212 -10Q157 -10 119 32T80 133V362Q80 408 65 424T8 441V459H163V133Q163 98 190 74T255 50Q280 50 309 71T354 124V362Q354 408 339 424T282 441V459H437V136Q437 92 446 76T479 59Q497 59 512 67L518 53Z"  />
<glyph unicode="v" horiz-adv-x="494" d="M485 441Q447 441 422 381L259 -10H235L72 371Q54 413 40 427T0 441V459H208V441Q155 441 155 412Q155 393 170 356L270 112L374 366Q387 398 387 422Q387 441 330 441V459H485V441Z"  />
<glyph unicode="w" horiz-adv-x="753" d="M753 441Q709 441 685 416Q667 397 649 348L517 -10H493L374 298L255 -10H231L92 344Q66 411 52 426T0 441V459H200V441Q161 441 161 416Q161 393 179 348L269 124L355 344L345 370Q336 395 316 414Q289 441 256 441V459H488V441Q425 441 425 408Q425 390 442 348L532 124L607 338Q627 395 627 410Q627 441 583 441V459H753V441Z"  />
<glyph unicode="x" horiz-adv-x="503" d="M497 0H272L273 18Q320 18 320 47Q320 58 291 102L225 203L136 88Q119 66 119 44Q119 18 161 18V0H12V18Q40 18 84 76L203 233L111 380Q73 441 8 441V459H224V441Q194 441 192 419Q191 407 211 375L256 304L296 360Q328 405 328 421Q328 441 288 441V459H448V441Q421 441 400 426Q374 408 334 354L275 275L402 87Q449 18 497 18V0Z"  />
<glyph unicode="y" horiz-adv-x="514" d="M497 441Q470 441 456 423Q446 410 426 362L241 -90Q219 -144 180 -178T100 -212Q73 -212 54 -198T33 -163Q31 -112 84 -112Q104 -112 119 -121T150 -130Q182 -130 216 -47L245 23L102 323Q46 441 0 441V459H211V441Q162 441 162 405Q162 391 197 317L286 129L381 363Q395 396 395 413Q395 441 348 441V459H497V441Z"  />
<glyph unicode="z" horiz-adv-x="463" d="M440 441L132 34H327Q367 34 387 49Q414 69 420 146H438L428 0H20V24L322 425H157Q117 425 100 408Q78 386 76 332H58V459H440V441Z"  />
<glyph unicode="{" horiz-adv-x="297" d="M239 -14L223 -49Q136 -32 110 36Q98 67 98 94Q98 116 101 159T104 224Q104 287 58 302V330Q104 345 104 408Q104 429 101 472T98 538Q98 565 110 596Q136 664 223 681L239 646Q160 625 160 557Q160 534 164 487T168 416Q168 351 112 316Q168 281 168 216Q168 193 164 146T160 75Q160 7 239 -14Z"  />
<glyph unicode="|" horiz-adv-x="250" d="M66 -89H25V697H66V-89Z"  />
<glyph unicode="}" horiz-adv-x="297" d="M246 302Q200 287 200 224Q200 203 203 160T206 94Q206 67 194 36Q168 -32 81 -49L65 -14Q144 7 144 75Q144 99 140 146T136 216Q136 281 192 316Q136 351 136 416Q136 440 140 487T144 557Q144 625 65 646L81 681Q168 664 194 596Q206 565 206 538Q206 516 203 473T200 408Q200 345 246 330V302Z"  />
<glyph unicode="~" horiz-adv-x="398" d="M360 380Q360 344 326 325Q299 309 261 309Q214 309 167 329Q151 337 135 345Q115 354 103 354Q62 354 59 318H38Q38 331 45 345Q72 396 139 396Q172 396 226 375T301 353Q336 353 338 380H360Z"  />
<glyph unicode="&#xA1;" horiz-adv-x="277" d="M206 453Q206 430 189 414T146 398Q121 398 104 414T86 453Q86 476 103 492T146 509Q171 509 188 493T206 453ZM208 -48Q208 -138 145 -138Q80 -138 80 -48Q80 -11 91 41Q101 84 111 128Q122 185 134 347H155Q159 296 162 244Q168 176 177 128Q183 105 195 50T208 -48Z"  />
<glyph unicode="&#xA2;" horiz-adv-x="500" d="M445 175Q400 -10 257 -10Q215 -10 175 11L99 -194H59L142 32Q59 100 59 218Q59 322 123 395T277 469Q294 469 303 468L382 680H422L341 461Q438 435 438 360Q438 339 421 324T383 309Q361 309 348 324T334 360Q334 395 323 411L208 100Q244 64 290 64Q383 64 431 183L445 175ZM290 432Q280 435 264 435Q209 435 176 390T143 277Q143 196 180 135L290 432Z"  />
<glyph unicode="&#xA3;" horiz-adv-x="530" d="M501 152Q493 83 457 37Q415 -16 347 -16Q257 -16 180 67Q145 -16 84 -16Q58 -16 39 3T20 51Q20 86 45 109T109 132Q117 132 131 130T151 127Q156 164 156 207Q156 268 145 345H42V379H140Q134 439 134 470Q134 565 182 627Q236 696 332 696Q392 696 430 661Q462 630 462 595Q462 579 450 566T422 552Q382 552 380 613Q379 665 317 665Q222 665 222 523Q222 473 233 379H369L370 345H236L235 297Q233 203 201 117Q285 76 370 76Q461 76 484 156L501 152ZM147 86Q124 100 101 100Q52 100 52 57Q52 15 85 15Q129 15 147 86Z"  />
<glyph unicode="&#xA4;" horiz-adv-x="530" d="M520 125L490 96L412 171Q352 119 265 119Q176 119 118 171L40 96L10 125L88 200Q33 257 33 341Q33 421 88 482L10 557L40 586L118 511Q176 563 265 563Q352 563 412 511L490 586L520 557L442 482Q497 423 497 341Q497 259 442 200L520 125ZM453 341Q453 417 397 469T265 522Q188 522 133 470T77 341Q77 264 132 212T265 160Q341 160 397 212T453 341Z"  />
<glyph unicode="&#xA5;" horiz-adv-x="607" d="M607 662Q518 662 479 577L454 522H552V484H437L391 384H552V346H374L351 295V108Q351 55 371 37T446 18V0H143V18Q200 18 219 36T239 108V283L212 346H44V384H195L152 484H44V522H136L108 587Q76 662 0 662V680H296V662Q219 662 219 623Q219 605 233 568L251 522H405L429 578Q438 599 438 616Q438 662 368 662V680H607V662ZM388 484H266L324 337L388 484Z"  />
<glyph unicode="&#xA6;" horiz-adv-x="164" d="M111 494H60V896H111V494ZM111 0H60V367H111V0Z"  />
<glyph unicode="&#xA7;" horiz-adv-x="500" d="M434 237Q434 187 399 138Q367 93 318 67Q385 -2 385 -57Q385 -121 341 -166T232 -212Q181 -212 141 -179T101 -98Q101 -81 113 -68T142 -54Q180 -54 180 -99Q180 -109 176 -126T172 -153Q172 -188 236 -188Q269 -188 299 -161T329 -102Q329 -49 259 10Q195 62 130 115Q60 181 60 250Q60 358 176 423Q110 487 110 549Q110 611 153 653T261 696Q314 696 353 665Q393 631 393 582Q393 565 381 552T352 538Q335 538 323 549T310 577Q310 585 314 601T318 626Q318 672 261 672Q223 672 195 648T166 588Q166 534 235 476Q300 426 365 375Q434 310 434 237ZM380 190Q380 251 311 312Q252 360 193 407Q114 363 114 294Q114 236 184 175Q243 128 301 82Q380 124 380 190Z"  />
<glyph unicode="&#xA8;" horiz-adv-x="285" d="M274 774Q274 755 259 742T221 729Q199 729 184 742T168 774Q168 793 183 806T221 819Q243 819 258 806T274 774ZM117 774Q117 755 102 742T64 729Q42 729 27 742T11 774Q11 793 26 806T64 819Q86 819 101 806T117 774Z"  />
<glyph unicode="&#xA9;" horiz-adv-x="760" d="M737 341Q737 193 633 89T380 -16Q232 -16 128 88T23 341Q23 489 127 592T380 696Q528 696 632 593T737 341ZM706 341Q706 476 611 570T380 665Q245 665 150 571T54 341Q54 206 150 111T380 15Q515 15 610 109T706 341ZM576 216Q506 113 380 113Q286 113 218 177T149 335Q149 441 216 506T391 571Q425 571 482 552Q497 547 500 547Q518 547 526 571H544L554 429H536Q522 484 482 515T385 547Q233 547 233 353Q233 147 401 147Q506 147 556 227L576 216Z"  />
<glyph unicode="&#xAA;" horiz-adv-x="320" d="M309 431Q258 394 231 394Q199 394 192 440Q127 394 80 394Q54 394 33 413T12 459Q12 533 192 592Q193 632 185 650Q173 677 136 677Q90 677 90 636T58 594Q26 594 26 624Q26 663 69 681Q101 696 150 696Q265 696 265 601V461Q265 438 280 437Q282 437 309 454V431ZM192 464V569Q85 539 85 481Q85 463 98 450T131 437Q146 437 162 446T192 464Z"  />
<glyph unicode="&#xAB;" horiz-adv-x="528" d="M478 0H447L248 230L447 459H478L350 230L478 0ZM280 0H249L50 230L249 459H280L152 230L280 0Z"  />
<glyph unicode="&#xAC;" horiz-adv-x="605" d="M585 459V253H541V415H20V459H585Z"  />
<glyph unicode="&#xAE;" horiz-adv-x="761" d="M735 341Q735 193 631 89T378 -16Q230 -16 126 88T21 341Q21 489 125 592T378 696Q526 696 630 593T735 341ZM704 341Q704 476 609 570T378 665Q243 665 148 571T52 341Q52 206 148 111T378 15Q513 15 608 109T704 341ZM610 127H509L354 330H314V213Q314 145 377 145V127H184V145Q239 145 239 213V487Q239 521 230 533T190 546V564H380Q454 564 499 538Q550 509 550 452Q550 366 433 339L535 200Q561 164 570 157Q584 145 610 145V127ZM464 445Q464 487 434 514T359 542Q334 542 314 534V353H324Q464 353 464 445Z"  />
<glyph unicode="&#xAF;" horiz-adv-x="353" d="M343 656V592H10V656H343Z"  />
<glyph unicode="&#xB0;" horiz-adv-x="400" d="M360 543Q360 479 314 433T201 387Q133 387 85 433T37 544Q37 607 84 651T198 696Q264 696 312 651T360 543ZM314 543Q314 589 280 622T198 655Q152 655 118 622T83 544Q83 496 117 462T201 428Q249 428 281 462T314 543Z"  />
<glyph unicode="&#xB1;" horiz-adv-x="568" d="M518 476H325V301H237V476H44V558H237V734H325V558H518V476ZM496 175H66V256H496V175Z"  />
<glyph unicode="&#xB2;" horiz-adv-x="306" d="M263 270Q236 213 230 192H50V216Q96 252 143 320Q185 379 185 423Q185 447 170 464T131 482Q112 482 95 467T73 434L56 446Q88 527 153 527Q189 527 214 502T240 438Q240 383 170 305Q161 294 110 243H193Q222 243 245 270H263Z"  />
<glyph unicode="&#xB3;" horiz-adv-x="306" d="M253 300Q253 251 222 218T142 184Q116 184 92 200T68 242Q68 266 88 266Q101 266 113 240T149 214Q173 214 188 237Q201 257 201 282Q201 332 171 348Q146 362 120 362V379Q185 379 185 441Q185 456 175 468T149 481Q117 481 88 442L73 458Q125 523 173 523Q200 523 218 506T237 462Q237 427 197 393Q253 369 253 300Z"  />
<glyph unicode="&#xB4;" horiz-adv-x="201" d="M190 896L39 719H11L64 896H190Z"  />
<glyph unicode="&#xB5;" horiz-adv-x="525" d="M519 101Q518 53 492 20Q463 -16 415 -16Q338 -16 332 80Q250 -16 166 -16Q116 -16 87 24H85Q85 -25 95 -81T106 -155Q106 -212 64 -212Q19 -212 19 -154Q19 -136 33 -72T48 68V459H131V178Q131 46 209 46Q274 46 332 114V459H415V122Q415 96 424 71Q434 38 453 38Q490 38 496 101H519Z"  />
<glyph unicode="&#xB6;" horiz-adv-x="539" d="M442 -194H404V668H306V-194H268V315Q215 315 172 325T97 357T48 415T30 503Q30 594 84 645T252 696H512V668H442V-194Z"  />
<glyph unicode="&#xB7;" horiz-adv-x="190" d="M137 238Q137 220 125 208T95 196Q78 196 66 208T53 238Q53 255 65 267T95 279Q113 279 125 267T137 238Z"  />
<glyph unicode="&#xB8;" horiz-adv-x="346" d="M262 -91Q262 -150 181 -150Q149 -150 98 -137L97 -106Q151 -118 180 -118Q215 -118 215 -93Q215 -61 156 -67V-6H181V-37Q262 -37 262 -91Z"  />
<glyph unicode="&#xB9;" horiz-adv-x="306" d="M229 195H94V219Q109 222 122 226T135 249V454L79 439V460Q120 474 171 525H188V249Q188 231 201 227T229 219V195Z"  />
<glyph unicode="&#xBA;" horiz-adv-x="348" d="M326 547Q326 487 280 441T172 394Q107 394 64 435T20 539Q20 607 64 651T178 696Q242 696 284 653T326 547ZM253 515Q253 567 232 613Q205 671 158 671Q93 671 93 575Q93 526 112 480Q137 419 181 419Q253 419 253 515Z"  />
<glyph unicode="&#xBB;" horiz-adv-x="528" d="M478 230L279 0H248L376 230L248 459H279L478 230ZM280 230L81 0H50L178 230L50 459H81L280 230Z"  />
<glyph unicode="&#xBC;" horiz-adv-x="653" d="M580 149L567 83H532V0H481V83H351V134L496 329H532V131H532Q554 131 569 149H580ZM514 538L178 -32H130L463 538H514ZM189 195H53V219Q68 222 83 226Q95 231 95 249V454L39 439V460Q80 474 131 525H147V249Q147 231 160 227T189 219V195ZM480 131V274L374 131H480Z"  />
<glyph unicode="&#xBD;" horiz-adv-x="653" d="M581 67Q554 10 548 -11H368V13Q414 49 461 116Q502 175 502 220Q502 244 487 261T448 279Q430 279 413 264T391 231L373 243Q406 324 471 324Q506 324 532 299T558 235Q558 180 488 101Q479 91 427 40H511Q540 40 562 67H581ZM484 538L148 -32H100L433 538H484ZM189 195H53V219Q68 222 83 226Q95 231 95 249V454L39 439V460Q80 474 131 525H147V249Q147 231 160 227T189 219V195Z"  />
<glyph unicode="&#xBE;" horiz-adv-x="653" d="M580 149L567 83H532V0H481V83H351V134L496 329H532V131H532Q554 131 569 149H580ZM514 538L178 -32H130L463 538H514ZM253 300Q253 251 222 218T142 184Q116 184 92 200T68 242Q68 266 88 266Q101 266 113 240T149 214Q173 214 188 237Q201 257 201 282Q201 332 171 348Q146 362 120 362V379Q185 379 185 441Q185 456 175 468T149 481Q117 481 88 442L73 458Q125 523 173 523Q200 523 218 506T237 462Q237 427 197 393Q253 369 253 300ZM480 131V274L374 131H480Z"  />
<glyph unicode="&#xBF;" horiz-adv-x="431" d="M259 642Q259 620 243 604T203 588Q180 588 164 604T147 642Q147 664 163 680T203 696Q226 696 242 680T259 642ZM406 146Q406 71 353 28T215 -16Q144 -16 92 21Q32 63 32 137Q32 168 48 187T88 206Q126 206 127 164Q128 148 112 121T95 78Q95 53 123 38T189 22Q302 22 302 153Q302 212 273 272Q247 325 220 378Q191 445 191 521H215Q215 457 265 389Q310 332 356 275Q406 208 406 146Z"  />
<glyph unicode="&#xC0;" horiz-adv-x="750" d="M490 709H462L311 886H437L490 709ZM742 0H462V18Q536 18 536 61Q536 80 524 107L473 227H208L156 107Q144 80 144 62Q144 18 223 18V0H6V18Q65 18 103 107L356 696H380L629 107Q650 57 671 39Q695 18 742 18V0ZM454 265L341 539L223 265H454Z"  />
<glyph unicode="&#xC1;" horiz-adv-x="750" d="M429 886L278 709H250L303 886H429ZM742 0H462V18Q536 18 536 61Q536 80 524 107L473 227H208L156 107Q144 80 144 62Q144 18 223 18V0H6V18Q65 18 103 107L356 696H380L629 107Q650 57 671 39Q695 18 742 18V0ZM454 265L341 539L223 265H454Z"  />
<glyph unicode="&#xC2;" horiz-adv-x="750" d="M523 739H506L375 846L244 739H227L327 906H423L523 739ZM742 0H462V18Q536 18 536 61Q536 80 524 107L473 227H208L156 107Q144 80 144 62Q144 18 223 18V0H6V18Q65 18 103 107L356 696H380L629 107Q650 57 671 39Q695 18 742 18V0ZM454 265L341 539L223 265H454Z"  />
<glyph unicode="&#xC3;" horiz-adv-x="750" d="M536 830Q536 794 503 775Q475 759 437 759Q390 759 343 779Q327 787 312 795Q292 804 279 804Q238 804 235 768H214Q214 781 222 795Q249 846 315 846Q349 846 403 825T477 803Q512 803 514 830H536ZM742 0H462V18Q536 18 536 61Q536 80 524 107L473 227H208L156 107Q144 80 144 62Q144 18 223 18V0H6V18Q65 18 103 107L356 696H380L629 107Q650 57 671 39Q695 18 742 18V0ZM454 265L341 539L223 265H454Z"  />
<glyph unicode="&#xC4;" horiz-adv-x="750" d="M507 834Q507 815 491 802T454 789Q432 789 417 802T401 834Q401 853 416 866T454 879Q475 879 491 866T507 834ZM350 834Q350 815 334 802T297 789Q275 789 260 802T244 834Q244 853 259 866T297 879Q318 879 334 866T350 834ZM742 0H462V18Q536 18 536 61Q536 80 524 107L473 227H208L156 107Q144 80 144 62Q144 18 223 18V0H6V18Q65 18 103 107L356 696H380L629 107Q650 57 671 39Q695 18 742 18V0ZM454 265L341 539L223 265H454Z"  />
<glyph unicode="&#xC5;" horiz-adv-x="750" d="M431 758Q431 732 413 714T369 696Q343 696 325 714T307 758Q307 783 325 801T369 819Q395 819 413 801T431 758ZM742 0H462V18Q536 18 536 61Q536 80 524 107L473 227H208L156 107Q144 80 144 62Q144 18 223 18V0H6V18Q65 18 103 107L356 696H380L629 107Q650 57 671 39Q695 18 742 18V0ZM402 758Q402 771 392 781T369 791Q336 791 336 758Q336 725 369 725Q382 725 392 734T402 758ZM454 265L341 539L223 265H454Z"  />
<glyph unicode="&#xC6;" horiz-adv-x="1065" d="M1047 191L986 0H460V18Q514 18 535 36T556 108V227H268L176 107Q159 85 159 65Q159 18 243 18V0H6V18Q54 18 123 107L536 643Q516 662 460 662V680H982L990 518H972Q959 583 929 613Q896 646 832 646H660V388H807Q909 388 909 476H927V246H909Q909 354 809 354H660V76Q660 59 672 47T700 34H842Q974 34 1023 191H1047ZM556 265V572Q556 587 555 598L293 265H556Z"  />
<glyph unicode="&#xC7;" horiz-adv-x="685" d="M652 159Q612 88 550 41Q479 -11 400 -16Q368 -45 368 -68Q368 -84 383 -87Q384 -87 412 -87V-122H391Q336 -122 336 -81Q336 -51 379 -16Q230 -13 131 87T32 332Q32 482 138 589T389 696Q442 696 481 684Q504 677 532 662Q554 650 564 650Q575 650 586 663T601 696H618L635 465H611Q601 547 541 604T406 662Q293 662 222 567Q154 477 154 328Q154 188 232 104Q306 23 421 23Q541 23 635 169L652 159Z"  />
<glyph unicode="&#xC8;" horiz-adv-x="625" d="M390 719H362L211 896H337L390 719ZM607 191L546 0H20V18Q74 18 95 36T116 108V572Q116 625 95 643T20 662V680H542L550 518H532Q519 583 489 613Q456 646 392 646H220V388H367Q469 388 469 476H487V246H469Q469 354 369 354H220V76Q220 59 232 47T260 34H402Q534 34 583 191H607Z"  />
<glyph unicode="&#xC9;" horiz-adv-x="625" d="M402 896L251 719H223L276 896H402ZM607 191L546 0H20V18Q74 18 95 36T116 108V572Q116 625 95 643T20 662V680H542L550 518H532Q519 583 489 613Q456 646 392 646H220V388H367Q469 388 469 476H487V246H469Q469 354 369 354H220V76Q220 59 232 47T260 34H402Q534 34 583 191H607Z"  />
<glyph unicode="&#xCA;" horiz-adv-x="625" d="M461 729H444L313 836L182 729H165L265 896H361L461 729ZM607 191L546 0H20V18Q74 18 95 36T116 108V572Q116 625 95 643T20 662V680H542L550 518H532Q519 583 489 613Q456 646 392 646H220V388H367Q469 388 469 476H487V246H469Q469 354 369 354H220V76Q220 59 232 47T260 34H402Q534 34 583 191H607Z"  />
<glyph unicode="&#xCB;" horiz-adv-x="625" d="M444 774Q444 755 429 742T391 729Q369 729 354 742T338 774Q338 793 353 806T391 819Q413 819 428 806T444 774ZM287 774Q287 755 272 742T234 729Q212 729 197 742T181 774Q181 793 196 806T234 819Q256 819 271 806T287 774ZM607 191L546 0H20V18Q74 18 95 36T116 108V572Q116 625 95 643T20 662V680H542L550 518H532Q519 583 489 613Q456 646 392 646H220V388H367Q469 388 469 476H487V246H469Q469 354 369 354H220V76Q220 59 232 47T260 34H402Q534 34 583 191H607Z"  />
<glyph unicode="&#xCC;" horiz-adv-x="342" d="M241 719H213L62 896H188L241 719ZM319 0H23V18Q77 18 98 36T119 108V572Q119 625 98 643T23 662V680H319V662Q265 662 244 644T223 572V108Q223 55 244 37T319 18V0Z"  />
<glyph unicode="&#xCD;" horiz-adv-x="342" d="M281 896L130 719H102L155 896H281ZM319 0H23V18Q77 18 98 36T119 108V572Q119 625 98 643T23 662V680H319V662Q265 662 244 644T223 572V108Q223 55 244 37T319 18V0Z"  />
<glyph unicode="&#xCE;" horiz-adv-x="342" d="M319 729H302L171 836L40 729H23L123 896H219L319 729ZM319 0H23V18Q77 18 98 36T119 108V572Q119 625 98 643T23 662V680H319V662Q265 662 244 644T223 572V108Q223 55 244 37T319 18V0Z"  />
<glyph unicode="&#xCF;" horiz-adv-x="342" d="M319 0H23V18Q77 18 98 36T119 108V572Q119 625 98 643T23 662V680H319V662Q265 662 244 644T223 572V108Q223 55 244 37T319 18V0ZM303 774Q303 755 288 742T250 729Q228 729 213 742T197 774Q197 793 212 806T250 819Q272 819 287 806T303 774ZM146 774Q146 755 131 742T93 729Q71 729 56 742T40 774Q40 793 55 806T93 819Q115 819 130 806T146 774Z"  />
<glyph unicode="&#xD1;" horiz-adv-x="739" d="M531 830Q531 794 497 775Q470 759 432 759Q385 759 338 779Q322 787 306 795Q286 804 274 804Q233 804 230 768H209Q209 781 216 795Q243 846 310 846Q343 846 397 825T472 803Q507 803 509 830H531ZM722 662Q668 662 647 644T626 572V-16H602L163 537H159V108Q159 55 180 37T255 18V0H17V18Q71 18 92 36T113 108V566Q113 608 80 635T0 662V680H171L576 183H580V572Q580 625 559 643T484 662V680H722V662Z"  />
<glyph unicode="&#xD2;" horiz-adv-x="506" d="M293 519H265L114 696H240L293 519ZM474 243Q474 137 411 64T253 -10Q158 -10 95 58T32 224Q32 327 95 398T253 469Q348 469 411 404T474 243ZM381 196Q381 435 233 435Q190 435 158 385T125 266Q125 162 163 95Q203 24 269 24Q317 24 349 74T381 196Z"  />
<glyph unicode="&#xD3;" horiz-adv-x="506" d="M351 696L200 519H172L225 696H351ZM474 243Q474 137 411 64T253 -10Q158 -10 95 58T32 224Q32 327 95 398T253 469Q348 469 411 404T474 243ZM381 196Q381 435 233 435Q190 435 158 385T125 266Q125 162 163 95Q203 24 269 24Q317 24 349 74T381 196Z"  />
<glyph unicode="&#xD4;" horiz-adv-x="506" d="M401 519H384L253 626L122 519H105L205 686H301L401 519ZM474 243Q474 137 411 64T253 -10Q158 -10 95 58T32 224Q32 327 95 398T253 469Q348 469 411 404T474 243ZM381 196Q381 435 233 435Q190 435 158 385T125 266Q125 162 163 95Q203 24 269 24Q317 24 349 74T381 196Z"  />
<glyph unicode="&#xD5;" horiz-adv-x="746" d="M534 830Q534 794 501 775Q473 759 435 759Q388 759 341 779Q325 787 310 795Q290 804 277 804Q236 804 233 768H212Q212 781 220 795Q247 846 313 846Q347 846 401 825T475 803Q510 803 512 830H534ZM714 344Q714 195 615 90T373 -16Q230 -16 131 89T32 344Q32 491 131 593T373 696Q516 696 615 594T714 344ZM592 344Q592 488 535 573Q477 662 373 662Q268 662 210 573Q154 488 154 344Q154 198 210 111Q268 18 373 18Q476 18 535 111Q592 199 592 344Z"  />
<glyph unicode="&#xD6;" horiz-adv-x="746" d="M505 774Q505 755 489 742T452 729Q430 729 415 742T399 774Q399 793 414 806T452 819Q473 819 489 806T505 774ZM348 774Q348 755 332 742T295 729Q273 729 258 742T242 774Q242 793 257 806T295 819Q316 819 332 806T348 774ZM714 344Q714 195 615 90T373 -16Q230 -16 131 89T32 344Q32 491 131 593T373 696Q516 696 615 594T714 344ZM592 344Q592 488 535 573Q477 662 373 662Q268 662 210 573Q154 488 154 344Q154 198 210 111Q268 18 373 18Q476 18 535 111Q592 199 592 344Z"  />
<glyph unicode="&#xD7;" horiz-adv-x="581" d="M549 57L493 6L290 192L89 6L33 57L234 243L33 427L89 479L290 293L493 479L549 427L347 243L549 57Z"  />
<glyph unicode="&#xD8;" horiz-adv-x="746" d="M714 344Q714 195 615 90T373 -16Q298 -16 232 16L187 -84L161 -73L207 29Q127 76 80 160T32 344Q32 491 131 593T373 696Q436 696 494 674L540 776L565 765L520 663Q608 620 661 535T714 344ZM592 344Q592 533 499 616L252 61Q302 18 373 18Q476 18 535 110Q592 199 592 344ZM476 633Q431 662 373 662Q268 662 209 573Q154 488 154 344Q154 170 230 82L476 633Z"  />
<glyph unicode="&#xD9;" horiz-adv-x="518" d="M293 519H265L114 696H240L293 519ZM518 53L378 -10H354V86Q332 46 291 18T212 -10Q157 -10 119 32T80 133V362Q80 408 65 424T8 441V459H163V133Q163 98 190 74T255 50Q280 50 309 71T354 124V362Q354 408 339 424T282 441V459H437V136Q437 92 446 76T479 59Q497 59 512 67L518 53Z"  />
<glyph unicode="&#xDA;" horiz-adv-x="518" d="M321 696L170 519H142L195 696H321ZM518 53L378 -10H354V86Q332 46 291 18T212 -10Q157 -10 119 32T80 133V362Q80 408 65 424T8 441V459H163V133Q163 98 190 74T255 50Q280 50 309 71T354 124V362Q354 408 339 424T282 441V459H437V136Q437 92 446 76T479 59Q497 59 512 67L518 53Z"  />
<glyph unicode="&#xDB;" horiz-adv-x="518" d="M407 519H390L259 626L128 519H111L211 686H307L407 519ZM518 53L378 -10H354V86Q332 46 291 18T212 -10Q157 -10 119 32T80 133V362Q80 408 65 424T8 441V459H163V133Q163 98 190 74T255 50Q280 50 309 71T354 124V362Q354 408 339 424T282 441V459H437V136Q437 92 446 76T479 59Q497 59 512 67L518 53Z"  />
<glyph unicode="&#xDC;" horiz-adv-x="752" d="M508 774Q508 755 492 742T455 729Q433 729 418 742T402 774Q402 793 417 806T455 819Q476 819 492 806T508 774ZM351 774Q351 755 335 742T298 729Q276 729 261 742T245 774Q245 793 260 806T298 819Q319 819 335 806T351 774ZM743 662Q689 662 668 644T647 572V239Q647 127 584 59Q512 -16 376 -16Q252 -16 180 60Q113 130 113 241V572Q113 625 92 643T17 662V680H313V662Q259 662 238 644T217 572V239Q217 150 270 89T409 28Q496 28 550 90Q601 149 601 239V572Q601 625 580 643T505 662V680H743V662Z"  />
<glyph unicode="&#xDF;" horiz-adv-x="590" d="M548 185Q548 107 498 48T371 -11Q331 -11 304 6Q272 27 272 64Q272 84 284 98T316 112Q334 112 345 101T361 50Q364 20 391 20Q454 20 454 163Q454 252 397 308Q354 350 275 356V385Q338 399 354 411Q395 441 395 516Q395 571 376 609Q351 657 302 657Q217 657 217 532V0H27V19Q75 19 92 31Q120 50 120 104V455Q120 512 156 592Q197 684 308 684Q382 684 429 648Q481 608 481 536Q481 477 443 436T346 378Q424 358 463 329Q548 265 548 185Z"  />
<glyph unicode="&#xE0;" horiz-adv-x="445" d="M262 519H234L83 696H209L262 519ZM439 58Q399 -10 332 -10Q308 -10 294 15Q282 35 282 63Q230 19 223 14Q185 -10 139 -10Q90 -10 61 22T32 105Q32 183 117 232Q150 252 282 298V326Q282 439 201 439Q133 439 133 369Q133 308 92 308Q73 308 61 323T48 362Q48 407 98 438T217 469Q365 469 365 347V87Q365 52 388 52Q414 52 439 92V58ZM282 96V268Q115 209 115 129Q115 96 135 71T183 46Q221 46 282 96Z"  />
<glyph unicode="&#xE1;" horiz-adv-x="445" d="M312 696L161 519H133L186 696H312ZM439 58Q399 -10 332 -10Q308 -10 294 15Q282 35 282 63Q230 19 223 14Q185 -10 139 -10Q90 -10 61 22T32 105Q32 183 117 232Q150 252 282 298V326Q282 439 201 439Q133 439 133 369Q133 308 92 308Q73 308 61 323T48 362Q48 407 98 438T217 469Q365 469 365 347V87Q365 52 388 52Q414 52 439 92V58ZM282 96V268Q115 209 115 129Q115 96 135 71T183 46Q221 46 282 96Z"  />
<glyph unicode="&#xE2;" horiz-adv-x="445" d="M371 519H354L223 626L92 519H75L175 686H271L371 519ZM439 58Q399 -10 332 -10Q308 -10 294 15Q282 35 282 63Q230 19 223 14Q185 -10 139 -10Q90 -10 61 22T32 105Q32 183 117 232Q150 252 282 298V326Q282 439 201 439Q133 439 133 369Q133 308 92 308Q73 308 61 323T48 362Q48 407 98 438T217 469Q365 469 365 347V87Q365 52 388 52Q414 52 439 92V58ZM282 96V268Q115 209 115 129Q115 96 135 71T183 46Q221 46 282 96Z"  />
<glyph unicode="&#xE3;" horiz-adv-x="445" d="M384 630Q384 594 350 575Q323 559 285 559Q238 559 191 579Q175 587 159 595Q139 604 127 604Q86 604 83 568H62Q62 581 69 595Q96 646 163 646Q196 646 250 625T325 603Q360 603 362 630H384ZM439 58Q399 -10 332 -10Q308 -10 294 15Q282 35 282 63Q230 19 223 14Q185 -10 139 -10Q90 -10 61 22T32 105Q32 183 117 232Q150 252 282 298V326Q282 439 201 439Q133 439 133 369Q133 308 92 308Q73 308 61 323T48 362Q48 407 98 438T217 469Q365 469 365 347V87Q365 52 388 52Q414 52 439 92V58ZM282 96V268Q115 209 115 129Q115 96 135 71T183 46Q221 46 282 96Z"  />
<glyph unicode="&#xE4;" horiz-adv-x="445" d="M354 574Q354 555 339 542T301 529Q279 529 264 542T248 574Q248 593 263 606T301 619Q323 619 338 606T354 574ZM197 574Q197 555 182 542T144 529Q122 529 107 542T91 574Q91 593 106 606T144 619Q166 619 181 606T197 574ZM439 58Q399 -10 332 -10Q308 -10 294 15Q282 35 282 63Q230 19 223 14Q185 -10 139 -10Q90 -10 61 22T32 105Q32 183 117 232Q150 252 282 298V326Q282 439 201 439Q133 439 133 369Q133 308 92 308Q73 308 61 323T48 362Q48 407 98 438T217 469Q365 469 365 347V87Q365 52 388 52Q414 52 439 92V58ZM282 96V268Q115 209 115 129Q115 96 135 71T183 46Q221 46 282 96Z"  />
<glyph unicode="&#xE5;" horiz-adv-x="445" d="M274 548Q274 522 256 504T212 486Q186 486 169 504T151 548Q151 573 168 591T212 609Q238 609 256 591T274 548ZM439 58Q399 -10 332 -10Q308 -10 294 15Q282 35 282 63Q230 19 223 14Q185 -10 139 -10Q90 -10 61 22T32 105Q32 183 117 232Q150 252 282 298V326Q282 439 201 439Q133 439 133 369Q133 308 92 308Q73 308 61 323T48 362Q48 407 98 438T217 469Q365 469 365 347V87Q365 52 388 52Q414 52 439 92V58ZM245 548Q245 561 236 571T212 581Q179 581 179 548Q179 515 212 515Q226 515 235 524T245 548ZM282 96V268Q115 209 115 129Q115 96 135 71T183 46Q221 46 282 96Z"  />
<glyph unicode="&#xE6;" horiz-adv-x="712" d="M685 161Q667 90 609 40T487 -10Q430 -10 383 21T308 104Q294 73 282 63Q229 19 222 14Q185 -10 139 -10Q90 -10 61 22T32 105Q32 183 117 232Q150 252 282 298V326Q282 439 201 439Q133 439 133 369Q133 308 92 308Q73 308 61 323T48 362Q48 407 98 438T217 469Q320 469 350 410Q405 469 488 469Q569 469 621 416T674 284H362Q362 190 404 125T510 60Q564 60 610 90T667 164L685 161ZM570 308Q570 361 539 398T462 435Q424 435 395 398T362 308H570ZM282 96V268Q115 209 115 129Q115 96 135 71T183 46Q221 46 282 96Z"  />
<glyph unicode="&#xE7;" horiz-adv-x="450" d="M421 174Q378 -2 239 -10Q210 -37 210 -60Q210 -76 225 -79Q226 -79 254 -79V-114H233Q178 -114 178 -73Q178 -43 219 -10Q141 -5 87 61T32 218Q32 322 95 395T249 469Q319 469 364 438T410 360Q410 339 393 324T355 309Q333 309 320 324T306 360Q306 435 236 435Q181 435 148 390T115 277Q115 186 155 123T261 60Q354 60 402 180L421 174Z"  />
<glyph unicode="&#xE8;" horiz-adv-x="462" d="M293 519H265L114 696H240L293 519ZM435 161Q417 90 359 40T237 -10Q152 -10 92 55T32 213Q32 325 89 397T238 469Q319 469 371 416T424 284H112Q112 190 154 125T260 60Q314 60 360 90T417 164L435 161ZM320 308Q320 361 289 398T212 435Q174 435 145 398T112 308H320Z"  />
<glyph unicode="&#xE9;" horiz-adv-x="462" d="M321 696L170 519H142L195 696H321ZM435 161Q417 90 359 40T237 -10Q152 -10 92 55T32 213Q32 325 89 397T238 469Q319 469 371 416T424 284H112Q112 190 154 125T260 60Q314 60 360 90T417 164L435 161ZM320 308Q320 361 289 398T212 435Q174 435 145 398T112 308H320Z"  />
<glyph unicode="&#xEA;" horiz-adv-x="462" d="M379 519H362L231 626L100 519H83L183 686H279L379 519ZM435 161Q417 90 359 40T237 -10Q152 -10 92 55T32 213Q32 325 89 397T238 469Q319 469 371 416T424 284H112Q112 190 154 125T260 60Q314 60 360 90T417 164L435 161ZM320 308Q320 361 289 398T212 435Q174 435 145 398T112 308H320Z"  />
<glyph unicode="&#xEB;" horiz-adv-x="462" d="M363 574Q363 555 347 542T310 529Q288 529 273 542T257 574Q257 593 272 606T310 619Q331 619 347 606T363 574ZM206 574Q206 555 190 542T153 529Q131 529 116 542T100 574Q100 593 115 606T153 619Q174 619 190 606T206 574ZM435 161Q417 90 359 40T237 -10Q152 -10 92 55T32 213Q32 325 89 397T238 469Q319 469 371 416T424 284H112Q112 190 154 125T260 60Q314 60 360 90T417 164L435 161ZM320 308Q320 361 289 398T212 435Q174 435 145 398T112 308H320Z"  />
<glyph unicode="&#xEC;" horiz-adv-x="278" d="M209 519H181L30 696H156L209 519ZM258 0H31V18Q75 18 90 39Q103 57 103 107V323Q103 368 99 380Q94 398 73 398Q61 398 32 390L25 408L162 469H186V107Q186 56 200 37T258 18V0Z"  />
<glyph unicode="&#xED;" horiz-adv-x="278" d="M229 696L78 519H50L103 696H229ZM258 0H31V18Q75 18 90 39Q103 57 103 107V323Q103 368 99 380Q94 398 73 398Q61 398 32 390L25 408L162 469H186V107Q186 56 200 37T258 18V0Z"  />
<glyph unicode="&#xEE;" horiz-adv-x="278" d="M287 519H270L139 626L8 519H-9L91 686H187L287 519ZM258 0H31V18Q75 18 90 39Q103 57 103 107V323Q103 368 99 380Q94 398 73 398Q61 398 32 390L25 408L162 469H186V107Q186 56 200 37T258 18V0Z"  />
<glyph unicode="&#xEF;" horiz-adv-x="278" d="M271 574Q271 555 255 542T218 529Q196 529 181 542T165 574Q165 593 180 606T218 619Q239 619 255 606T271 574ZM114 574Q114 555 98 542T61 529Q39 529 24 542T8 574Q8 593 23 606T61 619Q82 619 98 606T114 574ZM258 0H31V18Q75 18 90 39Q103 57 103 107V323Q103 368 99 380Q94 398 73 398Q61 398 32 390L25 408L162 469H186V107Q186 56 200 37T258 18V0Z"  />
<glyph unicode="&#xF1;" horiz-adv-x="518" d="M420 630Q420 594 387 575Q359 559 321 559Q274 559 227 579Q211 587 196 595Q176 604 163 604Q122 604 119 568H98Q98 581 106 595Q133 646 199 646Q233 646 287 625T361 603Q396 603 398 630H420ZM510 0H283V18Q327 18 342 39Q355 57 355 107V315Q355 407 288 407Q232 407 171 341V107Q171 56 185 37T243 18V0H16V18Q60 18 75 39Q88 57 88 107V323Q88 368 84 380Q79 398 58 398Q46 398 17 390L10 408L147 469H171V376Q246 469 333 469Q377 469 407 429T438 330V107Q438 56 452 37T510 18V0Z"  />
<glyph unicode="&#xF2;" horiz-adv-x="506" d="M293 519H265L114 696H240L293 519ZM474 243Q474 137 411 64T253 -10Q158 -10 95 58T32 224Q32 327 95 398T253 469Q348 469 411 404T474 243ZM381 196Q381 435 233 435Q190 435 158 385T125 266Q125 162 163 95Q203 24 269 24Q317 24 349 74T381 196Z"  />
<glyph unicode="&#xF3;" horiz-adv-x="506" d="M351 696L200 519H172L225 696H351ZM474 243Q474 137 411 64T253 -10Q158 -10 95 58T32 224Q32 327 95 398T253 469Q348 469 411 404T474 243ZM381 196Q381 435 233 435Q190 435 158 385T125 266Q125 162 163 95Q203 24 269 24Q317 24 349 74T381 196Z"  />
<glyph unicode="&#xF4;" horiz-adv-x="506" d="M401 519H384L253 626L122 519H105L205 686H301L401 519ZM474 243Q474 137 411 64T253 -10Q158 -10 95 58T32 224Q32 327 95 398T253 469Q348 469 411 404T474 243ZM381 196Q381 435 233 435Q190 435 158 385T125 266Q125 162 163 95Q203 24 269 24Q317 24 349 74T381 196Z"  />
<glyph unicode="&#xF5;" horiz-adv-x="506" d="M414 630Q414 594 381 575Q353 559 315 559Q268 559 221 579Q205 587 190 595Q170 604 157 604Q116 604 113 568H92Q92 581 100 595Q127 646 193 646Q227 646 281 625T355 603Q390 603 392 630H414ZM474 243Q474 137 411 64T253 -10Q158 -10 95 58T32 224Q32 327 95 398T253 469Q348 469 411 404T474 243ZM381 196Q381 435 233 435Q190 435 158 385T125 266Q125 162 163 95Q203 24 269 24Q317 24 349 74T381 196Z"  />
<glyph unicode="&#xF6;" horiz-adv-x="506" d="M385 574Q385 555 369 542T332 529Q310 529 295 542T279 574Q279 593 294 606T332 619Q353 619 369 606T385 574ZM228 574Q228 555 212 542T175 529Q153 529 138 542T122 574Q122 593 137 606T175 619Q196 619 212 606T228 574ZM474 243Q474 137 411 64T253 -10Q158 -10 95 58T32 224Q32 327 95 398T253 469Q348 469 411 404T474 243ZM381 196Q381 435 233 435Q190 435 158 385T125 266Q125 162 163 95Q203 24 269 24Q317 24 349 74T381 196Z"  />
<glyph unicode="&#xF7;" horiz-adv-x="529" d="M353 533Q353 501 329 479T270 457Q235 457 211 479T187 533Q187 565 211 587T270 609Q305 609 329 587T353 533ZM465 312H73V392H465V312ZM353 161Q353 129 329 107T270 84Q236 84 212 106T187 161Q187 193 211 215T270 237Q305 237 329 215T353 161Z"  />
<glyph unicode="&#xF8;" horiz-adv-x="506" d="M474 243Q474 137 411 64T253 -10Q215 -10 181 2L161 -49L141 -42L161 10Q102 38 67 95T32 224Q32 327 95 398T253 469Q294 469 332 455L350 503L370 495L352 447Q408 419 441 365T474 243ZM381 196Q381 331 331 391L199 50Q230 24 269 24Q317 24 349 74T381 196ZM314 408Q281 435 233 435Q190 435 158 385T125 266Q125 134 182 67L314 408Z"  />
<glyph unicode="&#xF9;" horiz-adv-x="518" d="M293 519H265L114 696H240L293 519ZM518 53L378 -10H354V86Q332 46 291 18T212 -10Q157 -10 119 32T80 133V362Q80 408 65 424T8 441V459H163V133Q163 98 190 74T255 50Q280 50 309 71T354 124V362Q354 408 339 424T282 441V459H437V136Q437 92 446 76T479 59Q497 59 512 67L518 53Z"  />
<glyph unicode="&#xFA;" horiz-adv-x="518" d="M321 696L170 519H142L195 696H321ZM518 53L378 -10H354V86Q332 46 291 18T212 -10Q157 -10 119 32T80 133V362Q80 408 65 424T8 441V459H163V133Q163 98 190 74T255 50Q280 50 309 71T354 124V362Q354 408 339 424T282 441V459H437V136Q437 92 446 76T479 59Q497 59 512 67L518 53Z"  />
<glyph unicode="&#xFB;" horiz-adv-x="518" d="M407 519H390L259 626L128 519H111L211 686H307L407 519ZM518 53L378 -10H354V86Q332 46 291 18T212 -10Q157 -10 119 32T80 133V362Q80 408 65 424T8 441V459H163V133Q163 98 190 74T255 50Q280 50 309 71T354 124V362Q354 408 339 424T282 441V459H437V136Q437 92 446 76T479 59Q497 59 512 67L518 53Z"  />
<glyph unicode="&#xFC;" horiz-adv-x="518" d="M381 574Q381 555 365 542T328 529Q306 529 291 542T275 574Q275 593 290 606T328 619Q349 619 365 606T381 574ZM224 574Q224 555 208 542T171 529Q149 529 134 542T118 574Q118 593 133 606T171 619Q192 619 208 606T224 574ZM518 53L378 -10H354V86Q332 46 291 18T212 -10Q157 -10 119 32T80 133V362Q80 408 65 424T8 441V459H163V133Q163 98 190 74T255 50Q280 50 309 71T354 124V362Q354 408 339 424T282 441V459H437V136Q437 92 446 76T479 59Q497 59 512 67L518 53Z"  />
<glyph unicode="&#xFF;" horiz-adv-x="514" d="M389 574Q389 555 373 542T336 529Q314 529 299 542T283 574Q283 593 298 606T336 619Q357 619 373 606T389 574ZM232 574Q232 555 216 542T179 529Q157 529 142 542T126 574Q126 593 141 606T179 619Q200 619 216 606T232 574ZM497 441Q470 441 456 423Q446 410 426 362L241 -90Q219 -144 180 -178T100 -212Q73 -212 54 -198T33 -163Q31 -112 84 -112Q104 -112 119 -121T150 -130Q182 -130 216 -47L245 23L102 323Q46 441 0 441V459H211V441Q162 441 162 405Q162 391 197 317L286 129L381 363Q395 396 395 413Q395 441 348 441V459H497V441Z"  />
<glyph unicode="&#x141;" horiz-adv-x="628" d="M610 185L551 0H20V18Q74 18 95 36T116 108V280L51 224L32 246L116 320V572Q116 625 95 643T20 662V680H316V662Q262 662 241 644T220 572V410L279 461L299 439L220 370V85Q220 64 231 49T259 34H386Q540 34 590 190L610 185Z"  />
<glyph unicode="&#x142;" horiz-adv-x="342" d="M319 0H23V18Q77 18 98 36T119 108V282L51 224L32 246L119 322V572Q119 625 98 643T23 662V680H319V662Q265 662 244 644T223 572V413L279 461L299 439L223 373V108Q223 55 244 37T319 18V0Z"  />
<glyph unicode="&#x152;" horiz-adv-x="1175" d="M1157 191L1096 0H666V159Q621 79 545 32Q466 -16 373 -16Q230 -16 131 89T32 344Q32 491 131 593T373 696Q466 696 545 649Q621 604 666 526V680H1092L1100 518H1082Q1069 583 1039 613Q1006 646 942 646H770V388H917Q1019 388 1019 476H1037V246H1019Q1019 354 919 354H770V76Q770 59 782 47T810 34H952Q1084 34 1133 191H1157ZM592 344Q592 488 535 573Q477 662 373 662Q268 662 210 573Q154 488 154 344Q154 198 210 111Q268 18 373 18Q476 18 535 111Q592 199 592 344Z"  />
<glyph unicode="&#x153;" horiz-adv-x="828" d="M801 161Q783 90 725 40T603 -10Q492 -10 431 91Q367 -10 253 -10Q158 -10 95 58T32 224Q32 327 95 398T253 469Q373 469 437 371Q495 469 604 469Q685 469 737 416T790 284H478Q478 190 520 125T626 60Q680 60 726 90T783 164L801 161ZM686 308Q686 361 655 398T578 435Q540 435 511 398T478 308H686ZM381 196Q381 435 233 435Q190 435 158 385T125 266Q125 162 163 95Q203 24 269 24Q317 24 349 74T381 196Z"  />
<glyph unicode="&#x160;" horiz-adv-x="560" d="M510 179Q510 96 451 41Q388 -16 283 -16Q229 -16 177 4Q131 22 115 22Q89 22 83 -16H65V214H83Q90 125 153 72Q211 22 291 22Q343 22 381 53T420 134Q420 202 326 260Q239 310 152 360Q58 426 58 513Q58 592 114 644T260 696Q292 696 345 680Q351 678 379 666Q398 658 410 658Q424 658 435 670T447 696H465V459H446Q437 553 389 605T260 658Q207 658 171 622Q138 590 138 549Q138 491 234 432Q324 380 414 328Q510 260 510 179ZM333 812L285 727H237L189 812H219L261 757L303 812H333Z"  />
<glyph unicode="&#x161;" horiz-adv-x="402" d="M367 129Q367 68 325 29T207 -10Q176 -10 139 1T93 13Q78 13 72 0H54V159H72Q80 103 120 64T209 24Q241 24 263 43T285 90Q285 136 224 170Q168 201 111 231Q50 274 50 341Q50 397 87 433T185 469Q213 469 246 460T289 451Q306 451 310 469H328V316H310Q307 367 273 403T193 439Q157 439 135 421T112 378Q112 333 178 298Q239 268 301 237Q367 194 367 129ZM264 602L216 517H168L120 602H149L192 547L234 602H264Z"  />
<glyph unicode="&#x178;" horiz-adv-x="694" d="M479 764Q479 745 463 732T426 719Q404 719 389 732T373 764Q373 783 388 796T426 809Q447 809 463 796T479 764ZM322 764Q322 745 306 732T269 719Q247 719 232 732T216 764Q216 783 231 796T269 809Q290 809 306 796T322 764ZM695 662Q652 662 626 643T569 577L391 294V108Q391 55 412 37T487 18V0H191V18Q245 18 266 36T287 108V283L86 585Q58 627 44 640Q20 662 -16 662V680H280V662Q198 662 199 615Q199 596 217 568L364 332L517 578Q527 594 527 613Q527 662 456 662V680H695V662Z"  />
<glyph unicode="&#x17D;" horiz-adv-x="622" d="M383 812L335 727H287L239 812H269L311 757L353 812H383ZM598 178L566 0H10V17L448 641H238Q163 641 132 614T89 509H71L86 680H597L146 39H421Q472 39 515 78T580 178H598Z"  />
<glyph unicode="&#x17E;" horiz-adv-x="463" d="M304 602L256 517H208L160 602H189L232 547L274 602H304ZM442 441L134 34H329Q368 34 389 49Q416 69 422 146H440L430 0H22V24L324 425H159Q119 425 102 408Q79 386 78 332H60V459H442V441Z"  />
<glyph unicode="&#x2C6;" horiz-adv-x="328" d="M213 906L313 739H296L165 846L34 739H17L117 906H213Z"  />
<glyph unicode="&#x2C7;" horiz-adv-x="328" d="M117 739L17 906H34L165 799L296 906H313L213 739H117Z"  />
<glyph unicode="&#x2DB;" horiz-adv-x="346" d="M224 -150H195Q119 -150 119 -93Q119 -51 182 0H210Q163 -42 163 -75Q163 -97 185 -101Q186 -101 224 -101V-150Z"  />
<glyph unicode="&#x2DD;" horiz-adv-x="341" d="M190 896L39 719H11L64 896H190ZM330 896L179 719H151L204 896H330Z"  />
<glyph unicode="&#x591;" horiz-adv-x="341" d="M297 348Q297 293 260 256T168 219Q115 219 78 256T40 348Q40 401 77 439T168 477Q222 477 259 439T297 348ZM261 348Q261 388 234 414T168 441Q129 441 102 415T75 348Q75 310 102 282T168 254Q207 254 234 282T261 348Z"  />
<glyph unicode="&#x592;" horiz-adv-x="341" d="M297 348Q297 293 260 256T168 219Q115 219 78 256T40 348Q40 401 77 439T168 477Q222 477 259 439T297 348ZM261 348Q261 388 234 414T168 441Q129 441 102 415T75 348Q75 310 102 282T168 254Q207 254 234 282T261 348Z"  />
<glyph unicode="&#x593;" horiz-adv-x="341" d="M297 348Q297 293 260 256T168 219Q115 219 78 256T40 348Q40 401 77 439T168 477Q222 477 259 439T297 348ZM261 348Q261 388 234 414T168 441Q129 441 102 415T75 348Q75 310 102 282T168 254Q207 254 234 282T261 348Z"  />
<glyph unicode="&#x594;" horiz-adv-x="341" d="M297 348Q297 293 260 256T168 219Q115 219 78 256T40 348Q40 401 77 439T168 477Q222 477 259 439T297 348ZM261 348Q261 388 234 414T168 441Q129 441 102 415T75 348Q75 310 102 282T168 254Q207 254 234 282T261 348Z"  />
<glyph unicode="&#x595;" horiz-adv-x="341" d="M297 348Q297 293 260 256T168 219Q115 219 78 256T40 348Q40 401 77 439T168 477Q222 477 259 439T297 348ZM261 348Q261 388 234 414T168 441Q129 441 102 415T75 348Q75 310 102 282T168 254Q207 254 234 282T261 348Z"  />
<glyph unicode="&#x596;" horiz-adv-x="341" d="M297 348Q297 293 260 256T168 219Q115 219 78 256T40 348Q40 401 77 439T168 477Q222 477 259 439T297 348ZM261 348Q261 388 234 414T168 441Q129 441 102 415T75 348Q75 310 102 282T168 254Q207 254 234 282T261 348Z"  />
<glyph unicode="&#x597;" horiz-adv-x="341" d="M297 348Q297 293 260 256T168 219Q115 219 78 256T40 348Q40 401 77 439T168 477Q222 477 259 439T297 348ZM261 348Q261 388 234 414T168 441Q129 441 102 415T75 348Q75 310 102 282T168 254Q207 254 234 282T261 348Z"  />
<glyph unicode="&#x598;" horiz-adv-x="341" d="M297 348Q297 293 260 256T168 219Q115 219 78 256T40 348Q40 401 77 439T168 477Q222 477 259 439T297 348ZM261 348Q261 388 234 414T168 441Q129 441 102 415T75 348Q75 310 102 282T168 254Q207 254 234 282T261 348Z"  />
<glyph unicode="&#x599;" horiz-adv-x="341" d="M297 348Q297 293 260 256T168 219Q115 219 78 256T40 348Q40 401 77 439T168 477Q222 477 259 439T297 348ZM261 348Q261 388 234 414T168 441Q129 441 102 415T75 348Q75 310 102 282T168 254Q207 254 234 282T261 348Z"  />
<glyph unicode="&#x59A;" horiz-adv-x="341" d="M297 348Q297 293 260 256T168 219Q115 219 78 256T40 348Q40 401 77 439T168 477Q222 477 259 439T297 348ZM261 348Q261 388 234 414T168 441Q129 441 102 415T75 348Q75 310 102 282T168 254Q207 254 234 282T261 348Z"  />
<glyph unicode="&#x59B;" horiz-adv-x="341" d="M297 348Q297 293 260 256T168 219Q115 219 78 256T40 348Q40 401 77 439T168 477Q222 477 259 439T297 348ZM261 348Q261 388 234 414T168 441Q129 441 102 415T75 348Q75 310 102 282T168 254Q207 254 234 282T261 348Z"  />
<glyph unicode="&#x59C;" horiz-adv-x="341" d="M297 348Q297 293 260 256T168 219Q115 219 78 256T40 348Q40 401 77 439T168 477Q222 477 259 439T297 348ZM261 348Q261 388 234 414T168 441Q129 441 102 415T75 348Q75 310 102 282T168 254Q207 254 234 282T261 348Z"  />
<glyph unicode="&#x59D;" horiz-adv-x="341" d="M297 348Q297 293 260 256T168 219Q115 219 78 256T40 348Q40 401 77 439T168 477Q222 477 259 439T297 348ZM261 348Q261 388 234 414T168 441Q129 441 102 415T75 348Q75 310 102 282T168 254Q207 254 234 282T261 348Z"  />
<glyph unicode="&#x59E;" horiz-adv-x="341" d="M297 348Q297 293 260 256T168 219Q115 219 78 256T40 348Q40 401 77 439T168 477Q222 477 259 439T297 348ZM261 348Q261 388 234 414T168 441Q129 441 102 415T75 348Q75 310 102 282T168 254Q207 254 234 282T261 348Z"  />
<glyph unicode="&#x59F;" horiz-adv-x="341" d="M297 348Q297 293 260 256T168 219Q115 219 78 256T40 348Q40 401 77 439T168 477Q222 477 259 439T297 348ZM261 348Q261 388 234 414T168 441Q129 441 102 415T75 348Q75 310 102 282T168 254Q207 254 234 282T261 348Z"  />
<glyph unicode="&#x5A0;" horiz-adv-x="341" d="M297 348Q297 293 260 256T168 219Q115 219 78 256T40 348Q40 401 77 439T168 477Q222 477 259 439T297 348ZM261 348Q261 388 234 414T168 441Q129 441 102 415T75 348Q75 310 102 282T168 254Q207 254 234 282T261 348Z"  />
<glyph unicode="&#x5A1;" horiz-adv-x="341" d="M297 348Q297 293 260 256T168 219Q115 219 78 256T40 348Q40 401 77 439T168 477Q222 477 259 439T297 348ZM261 348Q261 388 234 414T168 441Q129 441 102 415T75 348Q75 310 102 282T168 254Q207 254 234 282T261 348Z"  />
<glyph unicode="&#x5A3;" horiz-adv-x="341" d="M297 348Q297 293 260 256T168 219Q115 219 78 256T40 348Q40 401 77 439T168 477Q222 477 259 439T297 348ZM261 348Q261 388 234 414T168 441Q129 441 102 415T75 348Q75 310 102 282T168 254Q207 254 234 282T261 348Z"  />
<glyph unicode="&#x5A4;" horiz-adv-x="341" d="M297 348Q297 293 260 256T168 219Q115 219 78 256T40 348Q40 401 77 439T168 477Q222 477 259 439T297 348ZM261 348Q261 388 234 414T168 441Q129 441 102 415T75 348Q75 310 102 282T168 254Q207 254 234 282T261 348Z"  />
<glyph unicode="&#x5A5;" horiz-adv-x="341" d="M297 348Q297 293 260 256T168 219Q115 219 78 256T40 348Q40 401 77 439T168 477Q222 477 259 439T297 348ZM261 348Q261 388 234 414T168 441Q129 441 102 415T75 348Q75 310 102 282T168 254Q207 254 234 282T261 348Z"  />
<glyph unicode="&#x5A6;" horiz-adv-x="341" d="M297 348Q297 293 260 256T168 219Q115 219 78 256T40 348Q40 401 77 439T168 477Q222 477 259 439T297 348ZM261 348Q261 388 234 414T168 441Q129 441 102 415T75 348Q75 310 102 282T168 254Q207 254 234 282T261 348Z"  />
<glyph unicode="&#x5A7;" horiz-adv-x="341" d="M297 348Q297 293 260 256T168 219Q115 219 78 256T40 348Q40 401 77 439T168 477Q222 477 259 439T297 348ZM261 348Q261 388 234 414T168 441Q129 441 102 415T75 348Q75 310 102 282T168 254Q207 254 234 282T261 348Z"  />
<glyph unicode="&#x5A8;" horiz-adv-x="341" d="M297 348Q297 293 260 256T168 219Q115 219 78 256T40 348Q40 401 77 439T168 477Q222 477 259 439T297 348ZM261 348Q261 388 234 414T168 441Q129 441 102 415T75 348Q75 310 102 282T168 254Q207 254 234 282T261 348Z"  />
<glyph unicode="&#x5A9;" horiz-adv-x="341" d="M297 348Q297 293 260 256T168 219Q115 219 78 256T40 348Q40 401 77 439T168 477Q222 477 259 439T297 348ZM261 348Q261 388 234 414T168 441Q129 441 102 415T75 348Q75 310 102 282T168 254Q207 254 234 282T261 348Z"  />
<glyph unicode="&#x5AA;" horiz-adv-x="341" d="M297 348Q297 293 260 256T168 219Q115 219 78 256T40 348Q40 401 77 439T168 477Q222 477 259 439T297 348ZM261 348Q261 388 234 414T168 441Q129 441 102 415T75 348Q75 310 102 282T168 254Q207 254 234 282T261 348Z"  />
<glyph unicode="&#x5AB;" horiz-adv-x="341" d="M297 348Q297 293 260 256T168 219Q115 219 78 256T40 348Q40 401 77 439T168 477Q222 477 259 439T297 348ZM261 348Q261 388 234 414T168 441Q129 441 102 415T75 348Q75 310 102 282T168 254Q207 254 234 282T261 348Z"  />
<glyph unicode="&#x5AC;" horiz-adv-x="341" d="M297 348Q297 293 260 256T168 219Q115 219 78 256T40 348Q40 401 77 439T168 477Q222 477 259 439T297 348ZM261 348Q261 388 234 414T168 441Q129 441 102 415T75 348Q75 310 102 282T168 254Q207 254 234 282T261 348Z"  />
<glyph unicode="&#x5AD;" horiz-adv-x="341" d="M297 348Q297 293 260 256T168 219Q115 219 78 256T40 348Q40 401 77 439T168 477Q222 477 259 439T297 348ZM261 348Q261 388 234 414T168 441Q129 441 102 415T75 348Q75 310 102 282T168 254Q207 254 234 282T261 348Z"  />
<glyph unicode="&#x5AE;" horiz-adv-x="341" d="M297 348Q297 293 260 256T168 219Q115 219 78 256T40 348Q40 401 77 439T168 477Q222 477 259 439T297 348ZM261 348Q261 388 234 414T168 441Q129 441 102 415T75 348Q75 310 102 282T168 254Q207 254 234 282T261 348Z"  />
<glyph unicode="&#x5AF;" horiz-adv-x="341" d="M297 348Q297 293 260 256T168 219Q115 219 78 256T40 348Q40 401 77 439T168 477Q222 477 259 439T297 348ZM261 348Q261 388 234 414T168 441Q129 441 102 415T75 348Q75 310 102 282T168 254Q207 254 234 282T261 348Z"  />
<glyph unicode="&#x5B0;" horiz-adv-x="1" d="M36 -135Q36 -149 26 -159T0 -170Q-14 -170 -24 -160T-35 -135Q-35 -120 -25 -110T0 -99Q15 -99 25 -109T36 -135ZM36 -265Q36 -280 26 -290T0 -301Q-14 -301 -24 -291T-35 -265Q-35 -251 -25 -241T0 -230Q15 -230 25 -240T36 -265Z"  />
<glyph unicode="&#x5B1;" horiz-adv-x="1" d="M162 -135Q162 -149 151 -159T126 -170Q111 -170 101 -160T91 -135Q91 -120 101 -110T126 -99Q141 -99 151 -109T162 -135ZM36 -135Q36 -149 25 -159T-1 -170Q-15 -170 -26 -160T-37 -135Q-37 -120 -27 -110T-1 -99Q15 -99 25 -109T36 -135ZM162 -265Q162 -280 152 -290T126 -301Q111 -301 101 -291T91 -265Q91 -251 101 -241T126 -230Q140 -230 151 -240T162 -265ZM-90 -135Q-90 -149 -100 -159T-125 -170Q-139 -170 -150 -160T-161 -135Q-161 -120 -151 -110T-125 -99Q-110 -99 -100 -109T-90 -135ZM-12 -265Q-12 -280 -22 -290T-48 -301Q-62 -301 -72 -291T-83 -265Q-83 -250 -73 -240T-48 -229Q-33 -229 -23 -239T-12 -265Z"  />
<glyph unicode="&#x5B2;" horiz-adv-x="1" d="M150 -135Q150 -149 139 -159T114 -170Q99 -170 89 -160T79 -135Q79 -120 89 -110T114 -99Q129 -99 139 -109T150 -135ZM150 -265Q150 -280 140 -290T114 -301Q99 -301 89 -291T79 -265Q79 -251 89 -241T114 -230Q128 -230 139 -240T150 -265ZM50 -151H-149V-102H50V-151Z"  />
<glyph unicode="&#x5B3;" horiz-adv-x="1" d="M160 -135Q160 -149 150 -159T124 -170Q110 -170 100 -160T89 -135Q89 -120 99 -110T124 -99Q139 -99 149 -109T160 -135ZM160 -265Q160 -280 150 -290T124 -301Q110 -301 100 -291T89 -265Q89 -251 99 -241T124 -230Q139 -230 149 -240T160 -265ZM59 -151H-32L-24 -298H-73L-67 -151H-159V-102H59V-151Z"  />
<glyph unicode="&#x5B4;" horiz-adv-x="1" d="M37 -135Q37 -149 26 -159T1 -170Q-14 -170 -25 -160T-36 -135Q-36 -120 -26 -110T1 -99Q16 -99 26 -109T37 -135Z"  />
<glyph unicode="&#x5B5;" horiz-adv-x="1" d="M112 -135Q112 -149 101 -159T76 -170Q61 -170 51 -160T40 -135Q40 -120 50 -110T76 -99Q91 -99 101 -109T112 -135ZM-40 -135Q-40 -149 -50 -159T-75 -170Q-89 -170 -100 -160T-111 -135Q-111 -120 -101 -110T-75 -99Q-60 -99 -50 -109T-40 -135Z"  />
<glyph unicode="&#x5B6;" horiz-adv-x="1" d="M112 -135Q112 -149 101 -159T76 -170Q61 -170 51 -160T40 -135Q40 -120 50 -110T76 -99Q91 -99 101 -109T112 -135ZM-40 -135Q-40 -149 -50 -159T-75 -170Q-89 -170 -100 -160T-111 -135Q-111 -120 -101 -110T-75 -99Q-60 -99 -50 -109T-40 -135ZM39 -265Q39 -280 29 -290T3 -301Q-12 -301 -22 -291T-33 -265Q-33 -250 -23 -240T3 -229Q18 -229 28 -239T39 -265Z"  />
<glyph unicode="&#x5B7;" horiz-adv-x="1" d="M110 -153H-109V-102H110V-153Z"  />
<glyph unicode="&#x5B8;" horiz-adv-x="1" d="M110 -151H19L27 -298H-23L-17 -151H-109V-102H110V-151Z"  />
<glyph unicode="&#x5B9;" horiz-adv-x="1" d="M36 626Q36 611 26 601T1 590Q-14 590 -24 600T-35 626Q-35 640 -25 650T1 661Q15 661 25 651T36 626Z"  />
<glyph unicode="&#x5BB;" horiz-adv-x="1" d="M37 -135Q37 -149 27 -159T2 -170Q-13 -170 -23 -160T-34 -135Q-34 -120 -24 -110T2 -99Q16 -99 26 -109T37 -135ZM91 -222Q91 -236 81 -246T55 -257Q40 -257 30 -247T19 -222Q19 -207 29 -197T55 -186Q70 -186 80 -196T91 -222ZM153 -307Q153 -322 142 -332T117 -343Q82 -343 82 -307Q82 -292 92 -282T118 -271Q132 -271 142 -281T153 -307Z"  />
<glyph unicode="&#x5BC;" horiz-adv-x="1" d="M37 255Q37 241 26 231T1 220Q-14 220 -25 230T-36 255Q-36 270 -26 280T1 291Q16 291 26 281T37 255Z"  />
<glyph unicode="&#x5BD;" horiz-adv-x="1" d="M15 -229H-14V-102H15V-229Z"  />
<glyph unicode="&#x5BE;" horiz-adv-x="343" d="M295 507L274 393H48L69 507H295Z"  />
<glyph unicode="&#x5BF;" horiz-adv-x="1" d="M127 655H-127V709H127V655Z"  />
<glyph unicode="&#x5C0;" horiz-adv-x="168" d="M108 -130H60V617H108V-130Z"  />
<glyph unicode="&#x5C1;" horiz-adv-x="1" d="M36 626Q36 611 26 601T1 590Q-14 590 -24 600T-35 626Q-35 640 -25 650T1 661Q15 661 25 651T36 626Z"  />
<glyph unicode="&#x5C2;" horiz-adv-x="1" d="M36 626Q36 611 26 601T1 590Q-14 590 -24 600T-35 626Q-35 640 -25 650T1 661Q15 661 25 651T36 626Z"  />
<glyph unicode="&#x5C3;" horiz-adv-x="248" d="M183 358L114 276L44 358L114 439L183 358ZM183 63L114 -18L44 63L114 144L183 63Z"  />
<glyph unicode="&#x5C4;" horiz-adv-x="1" d="M36 626Q36 611 26 601T1 590Q-14 590 -24 600T-35 626Q-35 640 -25 650T1 661Q15 661 25 651T36 626Z"  />
<glyph unicode="&#x5D0;" horiz-adv-x="493" d="M452 73Q452 30 413 1Q409 -1 402 -4L350 69Q291 145 175 283Q173 284 170 284Q161 284 154 277Q128 251 128 219Q128 207 137 189Q154 159 172 130Q199 83 199 70Q199 55 191 30Q181 0 170 0H55L44 26Q85 39 85 51Q85 50 82 59Q72 94 60 143Q55 162 55 174Q55 240 145 315L71 403Q46 433 46 460Q46 487 73 518Q90 542 98 542Q129 505 129 502Q131 490 200 407L297 290Q303 304 331 347Q365 399 365 398Q324 403 310 412Q285 427 285 471Q285 495 294 520Q305 551 324 551Q325 551 325 551Q329 551 335 533T366 511Q395 511 402 508Q451 503 451 440Q451 423 446 389H408Q375 389 354 340Q338 304 334 257Q334 257 334 256Q334 251 351 229Q384 188 427 134Q452 101 452 73Z"  />
<glyph unicode="&#x5D1;" horiz-adv-x="458" d="M427 124L402 0H30L58 124H280Q347 124 347 235V272Q347 353 322 372T206 391Q187 391 162 390T136 389Q42 389 42 469Q42 499 50 523Q62 557 86 557Q88 557 94 535T137 512H266Q349 512 378 469Q401 434 401 347Q401 199 369 124H427Z"  />
<glyph unicode="&#x5D2;" horiz-adv-x="371" d="M339 85L311 -20Q280 64 278 69Q252 127 226 144Q218 143 197 78Q178 20 175 0H32L67 124H121Q221 124 221 322V341Q221 367 214 377Q204 389 174 389Q124 389 103 403Q75 420 75 469Q75 498 83 523Q95 557 118 557Q122 557 124 549T127 535Q134 512 170 512H175Q230 512 249 502Q279 486 279 434Q279 410 273 363T267 291Q267 239 297 183Q332 116 339 85Z"  />
<glyph unicode="&#x5D3;" horiz-adv-x="447" d="M414 405Q406 402 389 390Q378 379 370 356T361 318Q361 304 366 269L387 121Q391 93 391 81Q391 52 365 22T309 -13Q313 36 313 98Q313 128 310 186T307 274Q307 302 320 335Q327 348 334 363T342 389H122Q29 389 29 469Q29 498 37 523Q49 557 72 557Q76 557 78 549T81 535Q88 512 124 512H346Q390 512 405 478Q414 457 414 405Z"  />
<glyph unicode="&#x5D4;" horiz-adv-x="478" d="M442 425Q442 406 420 372T398 318Q398 304 403 269L424 121Q428 93 428 81Q428 51 402 21T346 -13Q351 49 351 98Q351 128 348 186T344 274Q344 304 357 335Q364 348 371 363T379 389H135Q41 389 41 469Q41 499 49 523Q61 557 85 557Q87 557 93 535T136 512H384Q442 512 442 443V425ZM139 277Q126 238 126 222Q126 197 128 146T131 69Q131 43 106 17T54 -13V194Q54 225 80 251T138 277Q139 277 139 277Z"  />
<glyph unicode="&#x5D5;" horiz-adv-x="285" d="M251 67L171 -13Q180 102 180 140V201Q180 359 169 374T120 389Q26 389 26 469Q26 499 34 523Q46 557 70 557Q73 557 75 548Q78 535 78 535Q85 512 121 512H174Q203 512 219 488T235 433Q235 414 236 375Q236 337 236 317Q236 192 251 67Z"  />
<glyph unicode="&#x5D6;" horiz-adv-x="285" d="M256 443Q256 413 244 389H196Q184 389 175 362Q167 340 167 325Q167 322 169 303Q177 231 187 155Q195 97 195 82Q195 55 166 25T110 -13Q121 89 121 98Q121 130 117 194T112 290Q112 338 151 389H146Q87 389 65 399Q31 416 31 469Q31 499 39 523Q51 557 75 557Q77 557 83 535T126 512H195Q256 512 256 443Z"  />
<glyph unicode="&#x5D7;" horiz-adv-x="494" d="M454 425Q454 405 432 372T410 318Q410 304 415 269L436 121Q440 93 440 81Q440 51 414 21T358 -13Q362 61 362 98Q362 128 359 186T356 274Q356 306 369 335Q376 348 382 360Q390 376 390 387Q390 389 390 389H172Q162 381 150 369Q134 352 134 302V301V64Q134 6 62 -12V249Q62 295 78 327Q91 350 127 389Q53 395 53 469Q53 557 96 557Q100 557 102 547Q103 541 104 535Q111 512 148 512H395Q454 512 454 443V425Z"  />
<glyph unicode="&#x5D8;" horiz-adv-x="519" d="M479 344Q479 200 388 33Q376 12 367 0H96Q93 56 91 76Q87 118 79 151Q67 202 67 254Q67 305 107 389Q35 396 35 469Q35 499 43 523Q55 557 79 557Q81 557 87 536T124 512Q168 509 177 505Q204 492 204 444Q204 400 196 389H153Q119 347 119 278Q119 186 149 144Q163 124 201 124H311Q348 124 379 155Q428 204 428 278Q428 321 408 356Q384 397 344 397Q293 397 265 333Q262 325 254 307L229 319Q278 515 368 515Q425 515 455 455Q479 408 479 344Z"  />
<glyph unicode="&#x5D9;" horiz-adv-x="279" d="M244 410Q244 298 148 217L125 238Q184 301 184 350Q184 389 131 389H119Q35 389 35 469Q35 498 43 523Q55 557 78 557Q82 557 84 549T87 535Q94 512 130 512H162Q244 512 244 410Z"  />
<glyph unicode="&#x5DA;" horiz-adv-x="452" d="M411 405Q375 389 375 356Q375 354 376 331Q379 252 389 81Q397 -62 397 -99Q397 -112 376 -141Q352 -174 320 -193Q321 -181 321 -156L320 371Q320 389 305 389H132Q38 389 38 469Q38 499 46 523Q58 557 82 557Q84 557 90 535T133 512H345Q388 512 402 477Q411 456 411 405Z"  />
<glyph unicode="&#x5DB;" horiz-adv-x="452" d="M405 255Q405 206 394 150Q382 85 362 51T297 6Q273 0 223 0H30L58 124H251Q315 124 342 159Q365 190 365 257Q365 335 339 362T238 389H136Q42 389 42 469Q42 499 50 523Q62 557 86 557Q88 557 94 535T137 512H276Q336 512 365 465Q405 401 405 255Z"  />
<glyph unicode="&#x5DC;" horiz-adv-x="457" d="M426 367Q426 270 364 217Q332 193 272 141Q243 111 243 74Q243 67 246 53T250 31Q250 -8 206 -8Q159 -8 159 49Q159 94 208 139Q251 172 294 205Q355 252 355 328Q355 389 296 389H143Q87 389 70 416Q58 435 58 495Q58 560 93 651Q34 675 34 710Q34 759 75 785Q80 769 121 750Q159 732 159 708Q159 693 135 639T110 556Q110 526 117 519T154 512H352Q426 512 426 448V367Z"  />
<glyph unicode="&#x5DD;" horiz-adv-x="493" d="M446 293Q446 194 428 0H71Q62 135 62 227Q62 336 129 389Q45 389 45 469Q45 499 53 523Q65 557 89 557Q91 557 97 535T140 512H333Q384 512 407 487Q427 467 436 414T446 293ZM396 189V318Q396 355 385 370Q372 389 335 389H164Q157 383 144 369Q113 328 113 255Q113 152 137 133Q148 124 176 124H332Q372 124 384 136T396 189Z"  />
<glyph unicode="&#x5DE;" horiz-adv-x="519" d="M482 280Q482 229 465 139Q446 46 426 0H174L211 124H361Q395 124 410 140Q430 161 430 226Q430 291 394 334Q356 381 293 381Q228 381 180 320Q141 270 124 199T107 59V33Q77 3 50 -10V34Q50 99 69 177T120 308Q128 322 154 360Q161 370 161 379Q161 389 139 389Q128 390 108 393Q52 405 52 469Q52 499 60 523Q72 557 96 557Q98 557 103 537T138 512Q189 506 203 487Q214 472 214 425V402L218 398Q258 409 305 522Q339 519 379 493T440 435Q482 375 482 280Z"  />
<glyph unicode="&#x5DF;" horiz-adv-x="285" d="M252 441Q252 404 220 357T187 276Q187 214 195 89T204 -99Q204 -119 174 -152Q148 -181 127 -193Q127 -187 128 -175Q128 -162 128 -156L127 190Q127 263 149 318T172 371Q172 389 161 389H156Q96 389 75 399Q40 416 40 469Q40 499 48 523Q60 557 84 557Q86 557 92 535T135 512H171Q212 512 229 501Q252 485 252 441Z"  />
<glyph unicode="&#x5E0;" horiz-adv-x="325" d="M290 120Q290 100 264 0H29L64 124H170Q217 124 217 152Q217 172 214 200T211 249Q211 279 214 305T218 340Q218 372 200 382Q190 387 150 390Q74 396 74 469Q74 499 82 523Q94 557 118 557Q120 557 126 535T169 512H209Q234 512 253 492T273 447Q273 433 266 356Q258 268 258 279Q258 234 275 175Q290 123 290 120Z"  />
<glyph unicode="&#x5E1;" horiz-adv-x="473" d="M426 294Q426 148 369 64Q322 -5 232 -5Q154 -5 113 40Q48 112 48 212Q48 312 108 391Q42 399 42 469Q42 499 50 523Q62 557 86 557Q89 557 91 548Q94 535 94 535Q102 512 137 512H282Q353 512 380 477Q426 418 426 294ZM373 266Q373 389 284 389H159Q143 389 128 359Q116 337 111 315Q105 289 105 265Q105 167 166 135Q195 120 237 120Q302 120 337 160T373 266Z"  />
<glyph unicode="&#x5E2;" horiz-adv-x="488" d="M455 421Q455 403 444 384T422 348Q378 272 366 226Q360 192 347 124Q333 63 298 35Q260 5 173 -27Q105 -49 37 -71L61 54Q74 57 203 97Q213 119 213 134Q213 160 191 187Q153 235 150 240Q128 277 128 325Q128 352 135 389H130Q49 389 49 469Q49 499 57 523Q69 557 93 557Q95 557 100 536T137 510Q183 503 190 500Q217 487 217 446Q217 432 208 389H170Q167 382 167 373Q167 348 190 305Q209 273 227 240Q244 203 249 121Q286 136 301 177Q313 217 343 299Q350 316 370 340T397 378Q374 383 329 393Q275 408 275 469Q275 498 283 523Q295 557 318 557Q322 557 327 536T366 511Q411 504 425 496Q455 477 455 421Z"  />
<glyph unicode="&#x5E3;" horiz-adv-x="453" d="M418 -99Q418 -126 341 -193V371Q341 389 326 389H144Q109 361 109 315Q166 307 170 306Q203 295 203 262Q203 239 189 195H166Q149 221 124 221Q107 221 98 215Q94 212 80 195H53Q47 219 47 244Q47 283 64 326Q83 374 112 392Q53 402 53 469Q53 499 61 523Q73 557 97 557Q99 557 105 535T148 512H305Q368 512 389 476Q404 451 404 390V356Q404 194 410 81Q418 -70 418 -99Z"  />
<glyph unicode="&#x5E4;" horiz-adv-x="473" d="M425 265Q425 187 408 123Q384 35 334 10Q312 -1 282 -1Q242 -1 161 -1Q81 0 40 0L73 124H295Q344 124 369 167Q389 201 389 254Q389 314 365 353Q343 389 275 389H153Q118 359 118 315Q175 307 179 306Q212 295 212 262Q212 239 198 195H175Q160 221 133 221Q116 221 107 215Q103 212 89 195H62Q56 219 56 244Q56 283 73 326Q92 374 121 392Q62 403 62 469Q62 499 70 523Q82 557 106 557Q108 557 114 535T157 512H308Q372 512 403 416Q425 348 425 265Z"  />
<glyph unicode="&#x5E5;" horiz-adv-x="488" d="M441 389H412Q369 359 295 278Q240 219 217 179Q203 155 203 117Q203 124 206 70Q213 -56 213 -99Q213 -131 136 -193V275Q136 329 173 389H156Q100 389 79 401Q47 418 47 472Q47 498 54 522Q65 555 85 555Q93 555 95 547T98 530Q103 514 134 512Q178 508 185 506Q212 496 212 462Q212 466 209 421Q208 401 194 359T180 287Q180 260 189 224L361 389Q274 392 274 469Q274 499 282 523Q294 557 318 557Q320 557 325 536T363 511Q388 508 413 505Q441 498 441 444V389Z"  />
<glyph unicode="&#x5E6;" horiz-adv-x="473" d="M431 389H402Q363 361 294 278Q283 265 283 255Q283 244 295 234L393 155Q405 145 405 131Q405 124 401 110L369 0H50V1Q50 11 86 124H291L296 133Q290 138 190 237Q160 267 160 333V352Q160 389 139 389H120Q37 389 37 472Q37 502 46 526Q57 555 75 555Q79 555 79 555Q84 554 85 546Q87 533 88 530Q92 519 104 516Q106 516 137 511Q152 509 171 507Q202 500 202 462Q202 467 199 421T196 369Q196 302 238 276Q250 287 351 389Q349 389 341 390Q264 395 264 469Q264 499 272 523Q284 557 308 557Q310 557 316 536T359 510Q375 509 402 504T431 449Q431 449 431 431V389Z"  />
<glyph unicode="&#x5E7;" horiz-adv-x="473" d="M437 354Q437 262 394 218Q378 202 346 182Q309 159 296 148Q247 107 247 74Q247 67 250 53T254 31Q254 -8 212 -8Q175 -8 175 49Q175 98 226 142Q274 180 322 218Q373 266 373 325Q373 365 344 379Q323 389 279 389H144Q50 389 50 469Q50 499 58 523Q70 557 94 557Q96 557 102 535T145 512H299Q437 512 437 354ZM134 -99Q134 -119 105 -152Q79 -180 57 -193V218Q57 253 63 273Q77 321 123 321Q116 295 116 274Q116 212 125 88T134 -99Z"  />
<glyph unicode="&#x5E8;" horiz-adv-x="422" d="M392 67L312 -13Q321 102 321 140V206Q321 359 310 374T260 389H107Q26 389 26 469Q26 557 69 557Q73 557 75 547Q76 541 77 535Q84 512 121 512H315Q343 512 359 488T375 433Q375 414 376 376T377 317Q377 180 392 67Z"  />
<glyph unicode="&#x5E9;" horiz-adv-x="610" d="M574 442Q574 394 553 343Q530 298 508 253Q483 210 434 121Q410 77 378 0H119Q72 178 72 256Q72 310 101 389Q30 400 30 469Q30 499 38 523Q50 557 74 557Q78 557 80 547Q81 541 82 535Q88 517 116 512Q156 505 165 500Q189 485 189 443Q189 415 177 389H143Q121 341 121 287Q121 224 158 147Q169 124 178 124H185L287 389Q220 399 220 469Q220 498 228 523Q240 557 263 557Q267 557 269 549T272 535Q277 517 306 512Q345 505 354 500Q379 485 379 443Q379 415 367 389H333L227 124H293Q326 124 350 137Q396 162 452 241Q510 324 510 373Q510 389 490 389Q413 389 413 469Q413 557 456 557Q460 557 462 547Q463 541 464 535Q470 517 499 512Q539 505 549 499Q574 485 574 442Z"  />
<glyph unicode="&#x5EA;" horiz-adv-x="523" d="M495 67L416 -13Q425 102 425 140V169Q425 343 407 369Q393 389 354 389H225Q198 381 177 350T155 293Q155 255 172 178Q178 153 197 102L162 0H27L54 124H121L111 185Q104 229 104 249Q104 297 144 358Q159 381 174 389H164Q83 389 83 469Q83 557 126 557Q130 557 132 547Q133 541 134 535Q141 512 178 512H382Q418 512 446 488Q479 458 479 409Q479 390 480 364T481 317Q481 183 495 67Z"  />
<glyph unicode="&#x5F0;" horiz-adv-x="566" d="M521 67L441 -13Q450 102 450 140V201Q450 359 439 374T390 389Q296 389 296 469Q296 499 304 523Q316 557 340 557Q343 557 345 548Q348 535 348 535Q355 512 391 512H444Q473 512 489 488T505 433Q505 414 506 375Q506 337 506 317Q506 192 521 67ZM251 67L171 -13Q180 102 180 140V201Q180 359 169 374T120 389Q26 389 26 469Q26 499 34 523Q46 557 70 557Q73 557 75 548Q78 535 78 535Q85 512 121 512H174Q203 512 219 488T235 433Q235 414 236 375Q236 337 236 317Q236 192 251 67Z"  />
<glyph unicode="&#x5F1;" horiz-adv-x="566" d="M511 67L431 -13Q440 102 440 140V201Q440 359 429 374T380 389Q286 389 286 469Q286 499 294 523Q306 557 330 557Q333 557 335 548Q338 535 338 535Q345 512 381 512H434Q463 512 479 488T495 433Q495 414 496 375Q496 337 496 317Q496 192 511 67ZM244 410Q244 298 148 217L125 238Q184 301 184 350Q184 389 131 389H119Q35 389 35 469Q35 498 43 523Q55 557 78 557Q82 557 84 549T87 535Q94 512 130 512H162Q244 512 244 410Z"  />
<glyph unicode="&#x5F2;" horiz-adv-x="552" d="M504 410Q504 298 408 217L385 238Q444 301 444 350Q444 389 391 389H379Q295 389 295 469Q295 498 303 523Q315 557 338 557Q342 557 344 549T347 535Q354 512 390 512H422Q504 512 504 410ZM244 410Q244 298 148 217L125 238Q184 301 184 350Q184 389 131 389H119Q35 389 35 469Q35 498 43 523Q55 557 78 557Q82 557 84 549T87 535Q94 512 130 512H162Q244 512 244 410Z"  />
<glyph unicode="&#x5F3;" horiz-adv-x="224" d="M177 546Q177 522 128 440Q83 366 59 339H26Q46 388 63 451Q70 485 86 554Q92 577 119 577H130Q177 577 177 546Z"  />
<glyph unicode="&#x5F4;" horiz-adv-x="382" d="M326 546Q326 522 277 440Q232 366 208 339H175Q195 388 212 451Q219 485 235 554Q241 577 268 577H279Q326 577 326 546ZM182 546Q182 522 133 440Q88 366 64 339H31Q51 388 68 451Q75 485 91 554Q97 577 124 577H135Q182 577 182 546Z"  />
<glyph unicode="&#x200C;" horiz-adv-x="21" d="M22 0H0V795H22V0Z"  />
<glyph unicode="&#x2013;" horiz-adv-x="443" d="M395 304L374 222H48L69 304H395Z"  />
<glyph unicode="&#x2014;" horiz-adv-x="646" d="M598 304L577 222H48L69 304H598Z"  />
<glyph unicode="&#x2018;" horiz-adv-x="298" d="M225 486Q225 460 205 442T155 424Q118 424 92 455T65 531Q65 598 113 646Q159 691 225 696V672Q178 659 146 626T113 556Q113 528 129 528Q136 528 148 536T175 544Q196 544 210 527T225 486Z"  />
<glyph unicode="&#x2019;" horiz-adv-x="298" d="M225 589Q225 522 178 476T65 424V448Q112 461 144 494T177 564Q177 592 161 592Q154 592 142 584T115 576Q94 576 80 593T65 634Q65 660 85 678T135 696Q172 696 198 665T225 589Z"  />
<glyph unicode="&#x201A;" horiz-adv-x="270" d="M225 -3Q225 -70 178 -116T65 -168V-144Q112 -131 144 -98T177 -28Q177 0 161 0Q154 0 142 -8T115 -16Q94 -16 80 1T65 42Q65 68 85 86T135 104Q172 104 198 73T225 -3Z"  />
<glyph unicode="&#x201C;" horiz-adv-x="516" d="M451 486Q451 460 431 442T381 424Q344 424 318 455T291 531Q291 598 339 646Q385 691 451 696V672Q404 659 372 626T339 556Q339 528 355 528Q362 528 374 536T401 544Q422 544 436 527T451 486ZM225 486Q225 460 205 442T155 424Q118 424 92 455T65 531Q65 598 113 646Q159 691 225 696V672Q178 659 146 626T113 556Q113 528 129 528Q136 528 148 536T175 544Q196 544 210 527T225 486Z"  />
<glyph unicode="&#x201D;" horiz-adv-x="516" d="M451 589Q451 522 404 476T291 424V448Q338 461 370 494T403 564Q403 592 387 592Q380 592 368 584T341 576Q320 576 306 593T291 634Q291 660 311 678T361 696Q398 696 424 665T451 589ZM225 589Q225 522 178 476T65 424V448Q112 461 144 494T177 564Q177 592 161 592Q154 592 142 584T115 576Q94 576 80 593T65 634Q65 660 85 678T135 696Q172 696 198 665T225 589Z"  />
<glyph unicode="&#x201E;" horiz-adv-x="496" d="M451 -3Q451 -70 404 -116T291 -168V-144Q338 -131 370 -98T403 -28Q403 0 387 0Q380 0 368 -8T341 -16Q320 -16 306 1T291 42Q291 68 311 86T361 104Q398 104 424 73T451 -3ZM225 -3Q225 -70 178 -116T65 -168V-144Q112 -131 144 -98T177 -28Q177 0 161 0Q154 0 142 -8T115 -16Q94 -16 80 1T65 42Q65 68 85 86T135 104Q172 104 198 73T225 -3Z"  />
<glyph unicode="&#x2020;" horiz-adv-x="486" d="M456 449Q456 427 439 414T400 400Q377 400 328 420T251 440Q251 360 303 320Q251 127 251 -212H231Q231 127 179 320Q231 360 231 440Q205 440 156 420T82 400Q60 400 43 413T26 449Q26 471 43 484T82 497Q106 497 155 477T231 457Q231 487 207 542T183 629Q183 655 199 675T241 696Q267 696 283 676T299 629Q299 598 275 543T251 457Q278 457 327 477T400 497Q422 497 439 484T456 449Z"  />
<glyph unicode="&#x2021;" horiz-adv-x="432" d="M412 1Q412 -43 362 -43Q339 -43 296 -26T227 -8Q226 -33 248 -85T270 -156Q270 -179 255 -195T216 -212Q193 -212 178 -196T162 -156Q162 -137 184 -85T205 -8Q179 -8 136 -25T70 -43Q20 -43 20 1Q20 46 70 46Q93 46 136 28T205 10Q200 67 155 96Q205 154 205 246Q205 330 155 388Q200 417 205 474Q179 474 136 456T70 438Q20 438 20 483Q20 527 70 527Q93 527 136 510T205 492Q204 517 183 568T162 640Q162 663 177 679T216 696Q239 696 254 680T270 640Q270 621 248 569T227 492Q253 492 296 509T362 527Q412 527 412 483Q412 438 362 438Q339 438 296 456T227 474Q232 417 277 388Q227 330 227 246Q227 154 277 96Q232 67 227 10Q253 10 296 28T362 46Q412 46 412 1Z"  />
<glyph unicode="&#x2022;" horiz-adv-x="350" d="M42 300Q42 326 52 349T81 389T123 417T174 427Q201 427 225 417T267 390T295 349T305 300Q305 274 295 251T267 211T225 184T174 174Q147 174 123 184T81 211T53 251T42 300Z"  />
<glyph unicode="&#x2026;" horiz-adv-x="715" d="M650 63L580 -18L511 63L580 144L650 63ZM416 63L347 -18L278 63L347 144L416 63ZM183 63L114 -18L44 63L114 144L183 63Z"  />
<glyph unicode="&#x2030;" horiz-adv-x="1179" d="M1148 165Q1148 92 1111 40Q1071 -16 1004 -16Q938 -16 898 40Q861 92 861 165Q861 239 898 294Q939 353 1005 353Q1072 353 1112 294Q1148 240 1148 165ZM818 165Q818 92 781 40Q741 -16 674 -16Q608 -16 568 40Q531 92 531 165Q531 239 568 294Q609 353 675 353Q742 353 782 294Q818 240 818 165ZM691 696L203 -16H158L646 696H691ZM317 508Q317 435 280 383Q240 327 173 327Q107 327 67 383Q30 435 30 508Q30 582 67 637Q108 696 174 696Q241 696 281 637Q317 583 317 508ZM1069 165Q1069 220 1058 262Q1042 327 1006 327Q968 327 951 263Q940 221 940 165Q940 10 1004 10Q1069 10 1069 165ZM739 165Q739 220 728 262Q712 327 676 327Q638 327 621 263Q610 221 610 165Q610 10 674 10Q739 10 739 165ZM238 508Q238 563 227 605Q211 670 175 670Q137 670 120 606Q109 564 109 508Q109 353 173 353Q238 353 238 508Z"  />
<glyph unicode="&#x2039;" horiz-adv-x="330" d="M280 0H249L50 230L249 459H280L152 230L280 0Z"  />
<glyph unicode="&#x203A;" horiz-adv-x="330" d="M280 230L81 0H50L178 230L50 459H81L280 230Z"  />
<glyph unicode="&#x20A7;" horiz-adv-x="968" d="M21 662H272Q346 662 402 638T491 565Q512 534 517 481Q540 507 552 527T579 588H595V446H679V418H595V118Q595 83 599 72T611 55T628 49Q635 49 644 54T676 81V149H694Q703 102 718 75T761 32T813 16Q845 16 866 36T888 86Q888 112 868 137Q848 161 783 198T697 263Q675 291 675 330Q675 384 711 420T800 457Q824 457 866 445Q881 440 887 440Q893 440 903 445H924V311H907Q896 375 867 402T797 430Q769 430 750 411T730 367Q730 341 753 318Q770 301 839 262T932 191Q955 160 955 121Q955 64 915 26T813 -13Q790 -13 750 -1Q725 6 714 6Q706 6 698 0H676V42Q648 10 629 -1T589 -13Q558 -13 538 12T517 93V117V418H507Q480 360 442 333Q389 296 317 296Q298 296 272 301T212 317V101Q212 57 232 37T299 17V0H21V17Q57 17 74 26T99 52T108 108V566Q108 605 89 624T21 645V662ZM212 349Q230 340 247 336T278 331Q326 331 361 370T397 476Q397 545 359 584T262 624Q240 624 212 615V349ZM393 -2Q367 117 294 148Q367 179 393 299Q417 179 492 148Q417 117 393 -2Z"  />
<glyph unicode="&#x20AA;" horiz-adv-x="769" d="M618 105Q618 41 580 17Q553 0 512 0H231V226L293 265V60H509Q556 60 556 107V310Q556 364 533 364V383L618 435V105ZM458 170L395 130V288Q395 338 345 338H132V89Q132 35 155 35V16L70 -36V398H354Q458 398 458 301V170Z"  />
<glyph unicode="&#x20AC;" horiz-adv-x="615" d="M589 52Q509 -16 403 -16Q307 -16 231 41T127 191H29L63 251H117Q116 271 116 271Q116 278 117 294H29L63 354H128Q157 445 232 501T403 558Q509 558 589 490L558 437Q493 498 403 498Q334 498 278 459T192 354H512L476 294H177Q176 282 176 271Q176 266 177 251H452L417 191H190Q218 124 275 84T403 44Q493 44 558 105L572 79Q575 74 589 52Z"  />
<glyph unicode="&#x2122;" horiz-adv-x="1034" d="M1006 275H803V293Q840 293 853 315Q863 331 863 371V605H861L708 275H691L538 600H536V371Q536 330 548 313Q562 293 596 293V275H445V293Q480 293 493 313Q505 330 505 371V585Q505 626 493 644T445 662V680H591L729 392L862 680H1006V662Q968 662 955 640Q946 625 946 585V371Q946 330 958 313Q971 293 1006 293V275ZM410 578H394Q384 622 354 637Q332 648 280 648H258V371Q258 331 267 315Q280 293 319 293V275H118V293Q155 293 167 316Q175 332 175 371V648H157Q103 648 82 638Q51 623 43 578H24L36 680H401L410 578Z"  />
<glyph unicode="&#x2212;" horiz-adv-x="443" d="M395 304L374 222H48L69 304H395Z"  />
<glyph unicode="&#xE801;" horiz-adv-x="256" d="M36 626Q36 611 26 601T1 590Q-14 590 -24 600T-35 626Q-35 640 -25 650T1 661Q15 661 25 651T36 626ZM251 67L171 -13Q180 102 180 140V201Q180 359 169 374T120 389Q26 389 26 469Q26 499 34 523Q46 557 70 557Q73 557 75 548Q78 535 78 535Q85 512 121 512H174Q203 512 219 488T235 433Q235 414 236 375Q236 337 236 317Q236 192 251 67Z"  />
<glyph unicode="&#xE802;" horiz-adv-x="492" d="M227 255Q227 241 216 231T191 220Q176 220 166 230T155 255Q155 270 165 280T191 291Q206 291 216 281T227 255ZM411 405Q375 389 375 356Q375 354 376 331Q379 252 389 81Q397 -62 397 -99Q397 -112 376 -141Q352 -174 320 -193Q321 -181 321 -156L320 371Q320 389 305 389H132Q38 389 38 469Q38 499 46 523Q58 557 82 557Q84 557 90 535T133 512H345Q388 512 402 477Q411 456 411 405ZM227 135Q227 121 216 111T191 100Q176 100 166 110T155 135Q155 150 165 160T191 171Q206 171 216 161T227 135Z"  />
<glyph unicode="&#xE803;" horiz-adv-x="492" d="M411 405Q375 389 375 356Q375 354 376 331Q379 252 389 81Q397 -62 397 -99Q397 -112 376 -141Q352 -174 320 -193Q321 -181 321 -156L320 371Q320 389 305 389H132Q38 389 38 469Q38 499 46 523Q58 557 82 557Q84 557 90 535T133 512H345Q388 512 402 477Q411 456 411 405ZM285 204H194L202 57H153L159 204H67V253H285V204Z"  />
<glyph unicode="&#xE804;" horiz-adv-x="417" d="M426 367Q426 270 364 217Q332 193 273 142Q243 111 243 74Q243 67 246 53T250 31Q250 -8 206 -8Q159 -8 159 49Q159 94 208 139Q251 172 294 205Q355 252 355 328Q355 389 296 389H143Q87 389 70 416Q58 435 58 495Q58 560 93 651Q34 675 34 710Q34 759 75 785Q80 769 121 750Q159 732 159 708Q159 693 135 639T110 556Q110 526 117 519T154 512H352Q426 512 426 448V367ZM-4 626Q-4 611 -14 601T-39 590Q-54 590 -64 600T-75 626Q-75 640 -65 650T-39 661Q-25 661 -15 651T-4 626Z"  />
<glyph unicode="&#xE805;" horiz-adv-x="417" d="M426 367Q426 270 364 217Q332 193 273 142Q243 111 243 74Q243 67 246 53T250 31Q250 -8 206 -8Q159 -8 159 49Q159 94 208 139Q251 172 294 205Q355 252 355 328Q355 389 296 389H143Q87 389 70 416Q58 435 58 495Q58 560 93 651Q34 675 34 710Q34 759 75 785Q80 769 121 750Q159 732 159 708Q159 693 135 639T110 556Q110 526 117 519T154 512H352Q426 512 426 448V367ZM-3 626Q-3 611 -13 601T-38 590Q-53 590 -63 600T-74 626Q-74 640 -64 650T-38 661Q-24 661 -14 651T-3 626ZM221 255Q221 241 211 231T185 220Q170 220 160 230T149 255Q149 270 159 280T185 291Q200 291 210 281T221 255Z"  />
<glyph unicode="&#xE811;" horiz-adv-x="341" d="M262 348Q262 309 235 282T169 254Q130 254 103 282T76 348Q76 388 102 414T169 441Q209 441 235 415T262 348Z"  />
<glyph unicode="&#xE812;" horiz-adv-x="341" d="M262 348Q262 310 235 282T169 254Q130 254 103 282T76 348Q76 388 103 414T169 441Q208 441 235 415T262 348Z"  />
<glyph unicode="&#xE813;" horiz-adv-x="341" d="M262 348Q262 310 235 282T169 254Q130 254 103 282T76 348Q76 388 103 414T169 441Q208 441 235 415T262 348Z"  />
<glyph unicode="&#xE814;" horiz-adv-x="341" d="M262 348Q262 310 235 282T169 254Q130 254 103 282T76 348Q76 388 103 414T169 441Q208 441 235 415T262 348Z"  />
<glyph unicode="&#xE815;" horiz-adv-x="341" d="M262 348Q262 310 235 282T169 254Q130 254 103 282T76 348Q76 388 103 414T169 441Q208 441 235 415T262 348Z"  />
<glyph unicode="&#xE816;" horiz-adv-x="341" d="M262 348Q262 310 235 282T169 254Q130 254 103 282T76 348Q76 388 103 414T169 441Q208 441 235 415T262 348Z"  />
<glyph unicode="&#xE817;" horiz-adv-x="341" d="M262 348Q262 310 235 282T169 254Q130 254 103 282T76 348Q76 388 103 414T169 441Q208 441 235 415T262 348Z"  />
<glyph unicode="&#xE818;" horiz-adv-x="341" d="M262 348Q262 310 235 282T169 254Q130 254 103 282T76 348Q76 388 103 414T169 441Q208 441 235 415T262 348Z"  />
<glyph unicode="&#xE819;" horiz-adv-x="341" d="M262 348Q262 310 235 282T169 254Q130 254 103 282T76 348Q76 388 103 414T169 441Q208 441 235 415T262 348Z"  />
<glyph unicode="&#xE81A;" horiz-adv-x="341" d="M262 348Q262 310 235 282T169 254Q130 254 103 282T76 348Q76 388 103 414T169 441Q208 441 235 415T262 348Z"  />
<glyph unicode="&#xE81B;" horiz-adv-x="341" d="M262 348Q262 310 235 282T169 254Q130 254 103 282T76 348Q76 388 103 414T169 441Q208 441 235 415T262 348Z"  />
<glyph unicode="&#xE81C;" horiz-adv-x="341" d="M262 348Q262 310 235 282T169 254Q130 254 103 282T76 348Q76 388 103 414T169 441Q208 441 235 415T262 348Z"  />
<glyph unicode="&#xE820;" horiz-adv-x="720" d="M720 402Q720 256 616 148T360 40Q209 40 105 148T0 402Q0 556 104 658T360 760Q511 760 615 658T720 402ZM360 101Q408 339 558 401Q408 463 360 703Q308 463 162 401Q308 339 360 101Z"  />
<glyph unicode="&#xE821;" horiz-adv-x="341" d="M262 348Q262 310 235 282T169 254Q130 254 103 282T76 348Q76 388 103 414T169 441Q208 441 235 415T262 348Z"  />
<glyph unicode="&#xE822;" horiz-adv-x="341" d="M262 348Q262 310 235 282T169 254Q130 254 103 282T76 348Q76 388 103 414T169 441Q208 441 235 415T262 348Z"  />
<glyph unicode="&#xE823;" horiz-adv-x="341" d="M262 348Q262 310 235 282T169 254Q130 254 103 282T76 348Q76 388 103 414T169 441Q208 441 235 415T262 348Z"  />
<glyph unicode="&#xE824;" horiz-adv-x="341" d="M262 348Q262 310 235 282T169 254Q130 254 103 282T76 348Q76 388 103 414T169 441Q208 441 235 415T262 348Z"  />
<glyph unicode="&#xE825;" horiz-adv-x="341" d="M262 348Q262 310 235 282T169 254Q130 254 103 282T76 348Q76 388 103 414T169 441Q208 441 235 415T262 348Z"  />
<glyph unicode="&#xE826;" horiz-adv-x="341" d="M262 348Q262 310 235 282T169 254Q130 254 103 282T76 348Q76 388 103 414T169 441Q208 441 235 415T262 348Z"  />
<glyph unicode="&#xE827;" horiz-adv-x="341" d="M262 348Q262 310 235 282T169 254Q130 254 103 282T76 348Q76 388 103 414T169 441Q208 441 235 415T262 348Z"  />
<glyph unicode="&#xE828;" horiz-adv-x="341" d="M262 348Q262 310 235 282T169 254Q130 254 103 282T76 348Q76 388 103 414T169 441Q208 441 235 415T262 348Z"  />
<glyph unicode="&#xE829;" horiz-adv-x="341" d="M262 348Q262 310 235 282T169 254Q130 254 103 282T76 348Q76 388 103 414T169 441Q208 441 235 415T262 348Z"  />
<glyph unicode="&#xE82A;" horiz-adv-x="341" d="M262 348Q262 310 235 282T169 254Q130 254 103 282T76 348Q76 388 103 414T169 441Q208 441 235 415T262 348Z"  />
<glyph unicode="&#xE82B;" horiz-adv-x="341" d="M262 348Q262 310 235 282T169 254Q130 254 103 282T76 348Q76 388 103 414T169 441Q208 441 235 415T262 348Z"  />
<glyph unicode="&#xE82C;" horiz-adv-x="341" d="M262 348Q262 310 235 282T169 254Q130 254 103 282T76 348Q76 388 103 414T169 441Q208 441 235 415T262 348Z"  />
<glyph unicode="&#xE82D;" horiz-adv-x="341" d="M262 348Q262 310 235 282T169 254Q130 254 103 282T76 348Q76 388 103 414T169 441Q208 441 235 415T262 348Z"  />
<glyph unicode="&#xE82E;" horiz-adv-x="341" d="M262 348Q262 310 235 282T169 254Q130 254 103 282T76 348Q76 388 103 414T169 441Q208 441 235 415T262 348Z"  />
<glyph unicode="&#xE82F;" horiz-adv-x="341" d="M262 348Q262 310 235 282T169 254Q130 254 103 282T76 348Q76 388 103 414T169 441Q208 441 235 415T262 348Z"  />
<glyph unicode="&#xE830;" horiz-adv-x="341" d="M262 348Q262 310 235 282T169 254Q130 254 103 282T76 348Q76 388 103 414T169 441Q208 441 235 415T262 348Z"  />
<glyph unicode="&#xE831;" horiz-adv-x="341" d="M262 348Q262 310 235 282T169 254Q130 254 103 282T76 348Q76 388 103 414T169 441Q208 441 235 415T262 348Z"  />
<glyph unicode="&#xE832;" horiz-adv-x="341" d="M262 348Q262 310 235 282T169 254Q130 254 103 282T76 348Q76 388 103 414T169 441Q208 441 235 415T262 348Z"  />
<glyph unicode="&#xE833;" horiz-adv-x="341" d="M262 348Q262 310 235 282T169 254Q130 254 103 282T76 348Q76 388 103 414T169 441Q208 441 235 415T262 348Z"  />
<glyph unicode="&#xE834;" horiz-adv-x="341" d="M262 348Q262 310 235 282T169 254Q130 254 103 282T76 348Q76 388 103 414T169 441Q208 441 235 415T262 348Z"  />
<glyph unicode="&#xE835;" horiz-adv-x="341" d="M262 348Q262 310 235 282T169 254Q130 254 103 282T76 348Q76 388 103 414T169 441Q208 441 235 415T262 348Z"  />
<glyph unicode="&#xE836;" horiz-adv-x="341" d="M262 348Q262 310 235 282T169 254Q130 254 103 282T76 348Q76 388 103 414T169 441Q208 441 235 415T262 348Z"  />
<glyph unicode="&#xE837;" horiz-adv-x="341" d="M262 348Q262 310 235 282T169 254Q130 254 103 282T76 348Q76 388 103 414T169 441Q208 441 235 415T262 348Z"  />
<glyph unicode="&#xE838;" horiz-adv-x="341" d="M262 348Q262 310 235 282T169 254Q130 254 103 282T76 348Q76 388 103 414T169 441Q208 441 235 415T262 348Z"  />
<glyph unicode="&#xE839;" horiz-adv-x="341" d="M262 348Q262 310 235 282T169 254Q130 254 103 282T76 348Q76 388 103 414T169 441Q208 441 235 415T262 348Z"  />
<glyph unicode="&#xE83A;" horiz-adv-x="341" d="M262 348Q262 310 235 282T169 254Q130 254 103 282T76 348Q76 388 103 414T169 441Q208 441 235 415T262 348Z"  />
<glyph unicode="&#xE83B;" horiz-adv-x="341" d="M262 348Q262 310 235 282T169 254Q130 254 103 282T76 348Q76 388 103 414T169 441Q208 441 235 415T262 348Z"  />
<glyph unicode="&#xE83C;" horiz-adv-x="341" d="M262 348Q262 310 235 282T169 254Q130 254 103 282T76 348Q76 388 103 414T169 441Q208 441 235 415T262 348Z"  />
<glyph unicode="&#xE83D;" horiz-adv-x="341" d="M262 348Q262 310 235 282T169 254Q130 254 103 282T76 348Q76 388 103 414T169 441Q208 441 235 415T262 348Z"  />
<glyph unicode="&#xE83E;" horiz-adv-x="341" d="M262 348Q262 310 235 282T169 254Q130 254 103 282T76 348Q76 388 103 414T169 441Q208 441 235 415T262 348Z"  />
<glyph unicode="&#xE83F;" horiz-adv-x="341" d="M262 348Q262 310 235 282T169 254Q130 254 103 282T76 348Q76 388 103 414T169 441Q208 441 235 415T262 348Z"  />
<glyph unicode="&#xE840;" horiz-adv-x="341" d="M262 348Q262 310 235 282T169 254Q130 254 103 282T76 348Q76 388 103 414T169 441Q208 441 235 415T262 348Z"  />
<glyph unicode="&#xE841;" horiz-adv-x="341" d="M262 348Q262 310 235 282T169 254Q130 254 103 282T76 348Q76 388 103 414T169 441Q208 441 235 415T262 348Z"  />
<glyph unicode="&#xE842;" horiz-adv-x="341" d="M262 348Q262 310 235 282T169 254Q130 254 103 282T76 348Q76 388 103 414T169 441Q208 441 235 415T262 348Z"  />
<glyph unicode="&#xE843;" horiz-adv-x="341" d="M262 348Q262 310 235 282T169 254Q130 254 103 282T76 348Q76 388 103 414T169 441Q208 441 235 415T262 348Z"  />
<glyph unicode="&#xE844;" horiz-adv-x="341" d="M262 348Q262 310 235 282T169 254Q130 254 103 282T76 348Q76 388 103 414T169 441Q208 441 235 415T262 348Z"  />
<glyph unicode="&#xE845;" horiz-adv-x="341" d="M262 348Q262 310 235 282T169 254Q130 254 103 282T76 348Q76 388 103 414T169 441Q208 441 235 415T262 348Z"  />
<glyph unicode="&#xE846;" horiz-adv-x="341" d="M262 348Q262 310 235 282T169 254Q130 254 103 282T76 348Q76 388 103 414T169 441Q208 441 235 415T262 348Z"  />
<glyph unicode="&#xE847;" horiz-adv-x="341" d="M262 348Q262 310 235 282T169 254Q130 254 103 282T76 348Q76 388 103 414T169 441Q208 441 235 415T262 348Z"  />
<glyph unicode="&#xE848;" horiz-adv-x="341" d="M262 348Q262 310 235 282T169 254Q130 254 103 282T76 348Q76 388 103 414T169 441Q208 441 235 415T262 348Z"  />
<glyph unicode="&#xE849;" horiz-adv-x="341" d="M262 348Q262 310 235 282T169 254Q130 254 103 282T76 348Q76 388 103 414T169 441Q208 441 235 415T262 348Z"  />
<glyph unicode="&#xE84A;" horiz-adv-x="341" d="M262 348Q262 310 235 282T169 254Q130 254 103 282T76 348Q76 388 103 414T169 441Q208 441 235 415T262 348Z"  />
<glyph unicode="&#xE84B;" horiz-adv-x="341" d="M262 348Q262 310 235 282T169 254Q130 254 103 282T76 348Q76 388 103 414T169 441Q208 441 235 415T262 348Z"  />
<glyph unicode="&#xE84C;" horiz-adv-x="341" d="M262 348Q262 310 235 282T169 254Q130 254 103 282T76 348Q76 388 103 414T169 441Q208 441 235 415T262 348Z"  />
<glyph unicode="&#xE84D;" horiz-adv-x="341" d="M262 348Q262 310 235 282T169 254Q130 254 103 282T76 348Q76 388 103 414T169 441Q208 441 235 415T262 348Z"  />
<glyph unicode="&#xE84E;" horiz-adv-x="341" d="M262 348Q262 310 235 282T169 254Q130 254 103 282T76 348Q76 388 103 414T169 441Q208 441 235 415T262 348Z"  />
<glyph unicode="&#xE84F;" horiz-adv-x="341" d="M262 348Q262 310 235 282T169 254Q130 254 103 282T76 348Q76 388 103 414T169 441Q208 441 235 415T262 348Z"  />
<glyph unicode="&#xE850;" horiz-adv-x="341" d="M262 348Q262 310 235 282T169 254Q130 254 103 282T76 348Q76 388 103 414T169 441Q208 441 235 415T262 348Z"  />
<glyph unicode="&#xE851;" horiz-adv-x="341" d="M262 348Q262 310 235 282T169 254Q130 254 103 282T76 348Q76 388 103 414T169 441Q208 441 235 415T262 348Z"  />
<glyph unicode="&#xE852;" horiz-adv-x="341" d="M262 348Q262 310 235 282T169 254Q130 254 103 282T76 348Q76 388 103 414T169 441Q208 441 235 415T262 348Z"  />
<glyph unicode="&#xE853;" horiz-adv-x="341" d="M262 348Q262 310 235 282T169 254Q130 254 103 282T76 348Q76 388 103 414T169 441Q208 441 235 415T262 348Z"  />
<glyph unicode="&#xE854;" horiz-adv-x="341" d="M262 348Q262 310 235 282T169 254Q130 254 103 282T76 348Q76 388 103 414T169 441Q208 441 235 415T262 348Z"  />
<glyph unicode="&#xE855;" horiz-adv-x="341" d="M262 348Q262 310 235 282T169 254Q130 254 103 282T76 348Q76 388 103 414T169 441Q208 441 235 415T262 348Z"  />
<glyph unicode="&#xE856;" horiz-adv-x="341" d="M262 348Q262 310 235 282T169 254Q130 254 103 282T76 348Q76 388 103 414T169 441Q208 441 235 415T262 348Z"  />
<glyph unicode="&#xE857;" horiz-adv-x="341" d="M262 348Q262 310 235 282T169 254Q130 254 103 282T76 348Q76 388 103 414T169 441Q208 441 235 415T262 348Z"  />
<glyph unicode="&#xE858;" horiz-adv-x="341" d="M262 348Q262 310 235 282T169 254Q130 254 103 282T76 348Q76 388 103 414T169 441Q208 441 235 415T262 348Z"  />
<glyph unicode="&#xE859;" horiz-adv-x="341" d="M262 348Q262 310 235 282T169 254Q130 254 103 282T76 348Q76 388 103 414T169 441Q208 441 235 415T262 348Z"  />
<glyph unicode="&#xE85A;" horiz-adv-x="341" d="M262 348Q262 310 235 282T169 254Q130 254 103 282T76 348Q76 388 103 414T169 441Q208 441 235 415T262 348Z"  />
<glyph unicode="&#xE85B;" horiz-adv-x="341" d="M262 348Q262 310 235 282T169 254Q130 254 103 282T76 348Q76 388 103 414T169 441Q208 441 235 415T262 348Z"  />
<glyph unicode="&#xE85C;" horiz-adv-x="341" d="M262 348Q262 310 235 282T169 254Q130 254 103 282T76 348Q76 388 103 414T169 441Q208 441 235 415T262 348Z"  />
<glyph unicode="&#xE85D;" horiz-adv-x="341" d="M262 348Q262 310 235 282T169 254Q130 254 103 282T76 348Q76 388 103 414T169 441Q208 441 235 415T262 348Z"  />
<glyph unicode="&#xE85E;" horiz-adv-x="341" d="M262 348Q262 310 235 282T169 254Q130 254 103 282T76 348Q76 388 103 414T169 441Q208 441 235 415T262 348Z"  />
<glyph unicode="&#xE85F;" horiz-adv-x="341" d="M262 348Q262 310 235 282T169 254Q130 254 103 282T76 348Q76 388 103 414T169 441Q208 441 235 415T262 348Z"  />
<glyph unicode="&#xE860;" horiz-adv-x="341" d="M262 348Q262 310 235 282T169 254Q130 254 103 282T76 348Q76 388 103 414T169 441Q208 441 235 415T262 348Z"  />
<glyph unicode="&#xE861;" horiz-adv-x="341" d="M262 348Q262 310 235 282T169 254Q130 254 103 282T76 348Q76 388 103 414T169 441Q208 441 235 415T262 348Z"  />
<glyph unicode="&#xE862;" horiz-adv-x="341" d="M262 348Q262 310 235 282T169 254Q130 254 103 282T76 348Q76 388 103 414T169 441Q208 441 235 415T262 348Z"  />
<glyph unicode="&#xE863;" horiz-adv-x="341" d="M262 348Q262 310 235 282T169 254Q130 254 103 282T76 348Q76 388 103 414T169 441Q208 441 235 415T262 348Z"  />
<glyph unicode="&#xE864;" horiz-adv-x="341" d="M262 348Q262 310 235 282T169 254Q130 254 103 282T76 348Q76 388 103 414T169 441Q208 441 235 415T262 348Z"  />
<glyph unicode="&#xE865;" horiz-adv-x="341" d="M262 348Q262 310 235 282T169 254Q130 254 103 282T76 348Q76 388 103 414T169 441Q208 441 235 415T262 348Z"  />
<glyph unicode="&#xE866;" horiz-adv-x="341" d="M262 348Q262 310 235 282T169 254Q130 254 103 282T76 348Q76 388 103 414T169 441Q208 441 235 415T262 348Z"  />
<glyph unicode="&#xE867;" horiz-adv-x="341" d="M262 348Q262 310 235 282T169 254Q130 254 103 282T76 348Q76 388 103 414T169 441Q208 441 235 415T262 348Z"  />
<glyph unicode="&#xE868;" horiz-adv-x="341" d="M262 348Q262 310 235 282T169 254Q130 254 103 282T76 348Q76 388 103 414T169 441Q208 441 235 415T262 348Z"  />
<glyph unicode="&#xE869;" horiz-adv-x="341" d="M262 348Q262 310 235 282T169 254Q130 254 103 282T76 348Q76 388 103 414T169 441Q208 441 235 415T262 348Z"  />
<glyph unicode="&#xE86A;" horiz-adv-x="341" d="M262 348Q262 310 235 282T169 254Q130 254 103 282T76 348Q76 388 103 414T169 441Q208 441 235 415T262 348Z"  />
<glyph unicode="&#xE86B;" horiz-adv-x="341" d="M262 348Q262 310 235 282T169 254Q130 254 103 282T76 348Q76 388 103 414T169 441Q208 441 235 415T262 348Z"  />
<glyph unicode="&#xE86C;" horiz-adv-x="341" d="M262 348Q262 310 235 282T169 254Q130 254 103 282T76 348Q76 388 103 414T169 441Q208 441 235 415T262 348Z"  />
<glyph unicode="&#xE86D;" horiz-adv-x="341" d="M262 348Q262 310 235 282T169 254Q130 254 103 282T76 348Q76 388 103 414T169 441Q208 441 235 415T262 348Z"  />
<glyph unicode="&#xE86E;" horiz-adv-x="341" d="M262 348Q262 310 235 282T169 254Q130 254 103 282T76 348Q76 388 103 414T169 441Q208 441 235 415T262 348Z"  />
<glyph unicode="&#xE86F;" horiz-adv-x="341" d="M262 348Q262 310 235 282T169 254Q130 254 103 282T76 348Q76 388 103 414T169 441Q208 441 235 415T262 348Z"  />
<glyph unicode="&#xE870;" horiz-adv-x="341" d="M262 348Q262 310 235 282T169 254Q130 254 103 282T76 348Q76 388 103 414T169 441Q208 441 235 415T262 348Z"  />
<glyph unicode="&#xE871;" horiz-adv-x="341" d="M262 348Q262 310 235 282T169 254Q130 254 103 282T76 348Q76 388 103 414T169 441Q208 441 235 415T262 348Z"  />
<glyph unicode="&#xE872;" horiz-adv-x="341" d="M262 348Q262 310 235 282T169 254Q130 254 103 282T76 348Q76 388 103 414T169 441Q208 441 235 415T262 348Z"  />
<glyph unicode="&#xE873;" horiz-adv-x="341" d="M262 348Q262 310 235 282T169 254Q130 254 103 282T76 348Q76 388 103 414T169 441Q208 441 235 415T262 348Z"  />
<glyph unicode="&#xE874;" horiz-adv-x="341" d="M262 348Q262 310 235 282T169 254Q130 254 103 282T76 348Q76 388 103 414T169 441Q208 441 235 415T262 348Z"  />
<glyph unicode="&#xE875;" horiz-adv-x="341" d="M262 348Q262 310 235 282T169 254Q130 254 103 282T76 348Q76 388 103 414T169 441Q208 441 235 415T262 348Z"  />
<glyph unicode="&#xE876;" horiz-adv-x="341" d="M262 348Q262 310 235 282T169 254Q130 254 103 282T76 348Q76 388 103 414T169 441Q208 441 235 415T262 348Z"  />
<glyph unicode="&#xE877;" horiz-adv-x="341" d="M262 348Q262 310 235 282T169 254Q130 254 103 282T76 348Q76 388 103 414T169 441Q208 441 235 415T262 348Z"  />
<glyph unicode="&#xE878;" horiz-adv-x="341" d="M262 348Q262 310 235 282T169 254Q130 254 103 282T76 348Q76 388 103 414T169 441Q208 441 235 415T262 348Z"  />
<glyph unicode="&#xE879;" horiz-adv-x="341" d="M262 348Q262 310 235 282T169 254Q130 254 103 282T76 348Q76 388 103 414T169 441Q208 441 235 415T262 348Z"  />
<glyph unicode="&#xE87A;" horiz-adv-x="341" d="M262 348Q262 310 235 282T169 254Q130 254 103 282T76 348Q76 388 103 414T169 441Q208 441 235 415T262 348Z"  />
<glyph unicode="&#xE87B;" horiz-adv-x="341" d="M262 348Q262 310 235 282T169 254Q130 254 103 282T76 348Q76 388 103 414T169 441Q208 441 235 415T262 348Z"  />
<glyph unicode="&#xE87C;" horiz-adv-x="341" d="M262 348Q262 310 235 282T169 254Q130 254 103 282T76 348Q76 388 103 414T169 441Q208 441 235 415T262 348Z"  />
<glyph unicode="&#xE87D;" horiz-adv-x="341" d="M262 348Q262 310 235 282T169 254Q130 254 103 282T76 348Q76 388 103 414T169 441Q208 441 235 415T262 348Z"  />
<glyph unicode="&#xE87E;" horiz-adv-x="341" d="M262 348Q262 310 235 282T169 254Q130 254 103 282T76 348Q76 388 103 414T169 441Q208 441 235 415T262 348Z"  />
<glyph unicode="&#xE87F;" horiz-adv-x="341" d="M262 348Q262 310 235 282T169 254Q130 254 103 282T76 348Q76 388 103 414T169 441Q208 441 235 415T262 348Z"  />
<glyph unicode="&#xE880;" horiz-adv-x="341" d="M262 348Q262 310 235 282T169 254Q130 254 103 282T76 348Q76 388 103 414T169 441Q208 441 235 415T262 348Z"  />
<glyph unicode="&#xE881;" horiz-adv-x="341" d="M262 348Q262 310 235 282T169 254Q130 254 103 282T76 348Q76 388 103 414T169 441Q208 441 235 415T262 348Z"  />
<glyph unicode="&#xE882;" horiz-adv-x="341" d="M262 348Q262 310 235 282T169 254Q130 254 103 282T76 348Q76 388 103 414T169 441Q208 441 235 415T262 348Z"  />
<glyph unicode="&#xE883;" horiz-adv-x="341" d="M262 348Q262 310 235 282T169 254Q130 254 103 282T76 348Q76 388 103 414T169 441Q208 441 235 415T262 348Z"  />
<glyph unicode="&#xE884;" horiz-adv-x="341" d="M262 348Q262 310 235 282T169 254Q130 254 103 282T76 348Q76 388 103 414T169 441Q208 441 235 415T262 348Z"  />
<glyph unicode="&#xE885;" horiz-adv-x="341" d="M262 348Q262 310 235 282T169 254Q130 254 103 282T76 348Q76 388 103 414T169 441Q208 441 235 415T262 348Z"  />
<glyph unicode="&#xE886;" horiz-adv-x="341" d="M262 348Q262 310 235 282T169 254Q130 254 103 282T76 348Q76 388 103 414T169 441Q208 441 235 415T262 348Z"  />
<glyph unicode="&#xE887;" horiz-adv-x="341" d="M262 348Q262 310 235 282T169 254Q130 254 103 282T76 348Q76 388 103 414T169 441Q208 441 235 415T262 348Z"  />
<glyph unicode="&#xE888;" horiz-adv-x="341" d="M262 348Q262 310 235 282T169 254Q130 254 103 282T76 348Q76 388 103 414T169 441Q208 441 235 415T262 348Z"  />
<glyph unicode="&#xE889;" horiz-adv-x="341" d="M262 348Q262 310 235 282T169 254Q130 254 103 282T76 348Q76 388 103 414T169 441Q208 441 235 415T262 348Z"  />
<glyph unicode="&#xE88A;" horiz-adv-x="341" d="M262 348Q262 310 235 282T169 254Q130 254 103 282T76 348Q76 388 103 414T169 441Q208 441 235 415T262 348Z"  />
<glyph unicode="&#xE88B;" horiz-adv-x="341" d="M262 348Q262 310 235 282T169 254Q130 254 103 282T76 348Q76 388 103 414T169 441Q208 441 235 415T262 348Z"  />
<glyph unicode="&#xE88C;" horiz-adv-x="341" d="M262 348Q262 310 235 282T169 254Q130 254 103 282T76 348Q76 388 103 414T169 441Q208 441 235 415T262 348Z"  />
<glyph unicode="&#xE88D;" horiz-adv-x="341" d="M262 348Q262 309 235 282T169 254Q130 254 103 282T76 348Q76 388 102 414T169 441Q209 441 235 415T262 348Z"  />
<glyph unicode="&#xE88E;" horiz-adv-x="341" d="M262 348Q262 309 235 282T169 254Q130 254 103 282T76 348Q76 388 102 414T169 441Q209 441 235 415T262 348Z"  />
<glyph unicode="&#xE88F;" horiz-adv-x="341" d="M262 348Q262 309 235 282T169 254Q130 254 103 282T76 348Q76 388 102 414T169 441Q209 441 235 415T262 348Z"  />
<glyph unicode="&#xE890;" horiz-adv-x="341" d="M262 348Q262 309 235 282T169 254Q130 254 103 282T76 348Q76 388 102 414T169 441Q209 441 235 415T262 348Z"  />
<glyph unicode="&#xE891;" horiz-adv-x="341" d="M262 348Q262 309 235 282T169 254Q130 254 103 282T76 348Q76 388 102 414T169 441Q209 441 235 415T262 348Z"  />
<glyph unicode="&#xE892;" horiz-adv-x="341" d="M262 348Q262 309 235 282T169 254Q130 254 103 282T76 348Q76 388 102 414T169 441Q209 441 235 415T262 348Z"  />
<glyph unicode="&#xE893;" horiz-adv-x="341" d="M262 348Q262 309 235 282T169 254Q130 254 103 282T76 348Q76 388 102 414T169 441Q209 441 235 415T262 348Z"  />
<glyph unicode="&#xE894;" horiz-adv-x="341" d="M262 348Q262 309 235 282T169 254Q130 254 103 282T76 348Q76 388 102 414T169 441Q209 441 235 415T262 348Z"  />
<glyph unicode="&#xE895;" horiz-adv-x="341" d="M262 348Q262 309 235 282T169 254Q130 254 103 282T76 348Q76 388 102 414T169 441Q209 441 235 415T262 348Z"  />
<glyph unicode="&#xE896;" horiz-adv-x="341" d="M262 348Q262 309 235 282T169 254Q130 254 103 282T76 348Q76 388 102 414T169 441Q209 441 235 415T262 348Z"  />
<glyph unicode="&#xE897;" horiz-adv-x="341" d="M262 348Q262 309 235 282T169 254Q130 254 103 282T76 348Q76 388 102 414T169 441Q209 441 235 415T262 348Z"  />
<glyph unicode="&#xE898;" horiz-adv-x="341" d="M262 348Q262 309 235 282T169 254Q130 254 103 282T76 348Q76 388 102 414T169 441Q209 441 235 415T262 348Z"  />
<glyph unicode="&#xE899;" horiz-adv-x="341" d="M262 348Q262 309 235 282T169 254Q130 254 103 282T76 348Q76 388 102 414T169 441Q209 441 235 415T262 348Z"  />
<glyph unicode="&#xE89A;" horiz-adv-x="21" d="M78 730L63 716L22 757V0H0V757L-40 716L-56 730L-2 783L-56 835L-40 850L11 797L63 850L78 835L26 783L78 730Z"  />
<glyph unicode="&#xE89B;" horiz-adv-x="21" d="M148 783L81 716L66 731L108 773H22V0H0V795H106L66 835L81 850L148 783Z"  />
<glyph unicode="&#xE89C;" horiz-adv-x="21" d="M23 0H1V773H-84L-42 731L-58 716L-125 783L-58 850L-42 835L-83 795H23V0Z"  />
<glyph unicode="&#xF001;" horiz-adv-x="538" d="M518 0H34V18Q78 18 93 39Q106 57 106 107V425H18V459H106V528Q106 601 154 648T292 696Q360 696 402 677Q449 655 449 615Q449 576 408 576Q372 576 359 598Q350 619 341 640Q326 662 288 662Q245 662 217 637T189 576V459H446V107Q446 56 460 37T518 18V0ZM363 107V353Q363 397 359 409Q354 425 333 425H189V107Q189 56 203 37T261 18H291Q335 18 350 39Q363 57 363 107Z"  />
<glyph unicode="&#xF002;" horiz-adv-x="587" d="M563 0H336V18Q380 18 395 39Q408 57 408 107V550Q408 588 407 599Q398 576 368 576Q338 576 316 619T258 662Q232 662 211 636T189 576V459H301V425H189V107Q189 56 203 37T261 18V0H34V18Q78 18 93 39Q106 57 106 107V425H18V459H106V528Q106 598 151 647T262 696Q353 696 389 661L467 696H491V107Q491 56 505 37T563 18V0Z"  />
<glyph unicode="&#xFB1D;" horiz-adv-x="281" d="M244 410Q244 298 148 217L125 238Q184 301 184 350Q184 389 131 389H119Q35 389 35 469Q35 498 43 523Q55 557 78 557Q82 557 84 549T87 535Q94 512 130 512H162Q244 512 244 410ZM165 26Q165 9 152 -3T122 -16Q104 -16 91 -4T77 27Q77 45 89 57T120 70Q138 70 151 57T165 26Z"  />
<glyph unicode="&#xFB1E;" horiz-adv-x="341" d="M262 348Q262 309 235 282T169 254Q130 254 103 282T76 348Q76 388 102 414T169 441Q209 441 235 415T262 348Z"  />
<glyph unicode="&#xFB1F;" horiz-adv-x="541" d="M504 410Q504 298 408 217L385 238Q444 301 444 350Q444 389 391 389H379Q295 389 295 469Q295 498 303 523Q315 557 338 557Q342 557 344 549T347 535Q354 512 390 512H422Q504 512 504 410ZM244 410Q244 298 148 217L125 238Q184 301 184 350Q184 389 131 389H119Q35 389 35 469Q35 498 43 523Q55 557 78 557Q82 557 84 549T87 535Q94 512 130 512H162Q244 512 244 410ZM476 0H92V54H476V0Z"  />
<glyph unicode="&#xFB20;" horiz-adv-x="341" d="M262 348Q262 309 235 282T169 254Q130 254 103 282T76 348Q76 388 102 414T169 441Q209 441 235 415T262 348Z"  />
<glyph unicode="&#xFB21;" horiz-adv-x="693" d="M682 276Q682 276 682 277V276ZM648 437Q648 420 643 386Q615 395 605 386Q530 317 530 245Q530 201 547 187L607 137Q648 103 648 64Q648 33 624 4Q621 1 614 -3Q196 320 194 320L154 277Q128 251 128 219Q128 207 137 189Q154 159 172 130Q199 83 199 70Q199 55 191 30Q181 0 170 0H55L44 26Q85 39 85 51Q85 50 82 59Q72 94 60 143Q55 162 55 174Q55 209 91 256Q107 277 165 337L84 398Q53 421 47 448Q41 475 60 511Q71 538 79 540H79Q82 541 99 526T118 508Q121 502 291 378Q378 314 466 250L528 344Q562 396 562 395Q521 400 507 409Q482 424 482 468Q482 492 491 517Q502 548 521 548Q522 548 522 548Q526 548 532 530T563 508Q592 508 599 505Q648 500 648 437Z"  />
<glyph unicode="&#xFB22;" horiz-adv-x="647" d="M614 405Q606 402 589 390Q578 379 570 356T561 318Q561 304 566 269L587 121Q591 93 591 81Q591 52 565 22T509 -13Q513 36 513 98Q513 128 510 186T507 274Q507 302 520 335Q527 348 534 363T542 389H122Q29 389 29 469Q29 498 37 523Q49 557 72 557Q76 557 78 549T81 535Q88 512 124 512H546Q590 512 605 478Q614 457 614 405Z"  />
<glyph unicode="&#xFB23;" horiz-adv-x="678" d="M642 425Q642 406 620 372T598 318Q598 304 603 269L624 121Q628 93 628 81Q628 51 602 21T546 -13Q551 49 551 98Q551 128 548 186T544 274Q544 304 557 335Q564 348 571 363T579 389H135Q41 389 41 469Q41 499 49 523Q61 557 85 557Q87 557 93 535T136 512H584Q642 512 642 443V425ZM139 277Q126 238 126 222Q126 197 128 146T131 69Q131 43 106 17T54 -13V194Q54 225 80 251T138 277H138Q139 277 139 277Z"  />
<glyph unicode="&#xFB24;" horiz-adv-x="652" d="M605 255Q605 206 594 150Q582 85 562 51T497 6Q473 0 423 0H30L58 124H451Q515 124 542 159Q565 190 565 257Q565 335 539 362T438 389H136Q42 389 42 469Q42 499 50 523Q62 557 86 557Q88 557 94 535T137 512H476Q536 512 565 465Q605 401 605 255Z"  />
<glyph unicode="&#xFB25;" horiz-adv-x="657" d="M626 367Q626 285 577 221Q562 202 550 193Q544 189 485 153Q443 128 443 74Q443 67 446 53T450 31Q450 -8 406 -8Q359 -8 359 49Q359 95 409 141Q424 155 494 205Q555 249 555 328Q555 389 496 389H143Q87 389 70 416Q58 435 58 495Q58 560 93 651Q34 675 34 710Q34 759 75 785Q80 769 121 750Q159 732 159 708Q159 693 135 639T110 556Q110 526 117 519T154 512H552Q626 512 626 448V367Z"  />
<glyph unicode="&#xFB26;" horiz-adv-x="693" d="M646 293Q646 194 628 0H71Q62 135 62 227Q62 322 121 379Q121 379 129 387V389Q129 389 129 389Q45 389 45 469Q45 499 53 523Q65 557 89 557Q91 557 97 535T140 512H533Q584 512 607 487Q627 467 636 414T646 293ZM596 189V318Q596 355 585 370Q572 389 535 389H164Q157 383 144 369Q113 328 113 255Q113 152 137 133Q148 124 176 124H532Q572 124 584 136T596 189Z"  />
<glyph unicode="&#xFB27;" horiz-adv-x="622" d="M592 67L512 -13Q521 102 521 140V206Q521 359 510 374T460 389H107Q26 389 26 469Q26 557 69 557Q73 557 75 547Q76 541 77 535Q84 512 121 512H515Q543 512 559 488T575 433Q575 414 576 376T577 317Q577 180 592 67Z"  />
<glyph unicode="&#xFB28;" horiz-adv-x="723" d="M695 67L616 -13Q625 102 625 140V169Q625 343 607 369Q593 389 554 389H225Q198 381 177 350T155 293Q155 255 172 178Q178 153 197 102L162 0H27L54 124H121L111 185Q104 229 104 249Q104 297 144 358Q159 381 174 389H164Q83 389 83 469Q83 557 126 557Q130 557 132 547Q133 541 134 535Q141 512 178 512H582Q618 512 646 488Q679 458 679 409Q679 390 680 364T681 317Q681 183 695 67Z"  />
<glyph unicode="&#xFB29;" horiz-adv-x="341" d="M262 348Q262 309 235 282T169 254Q130 254 103 282T76 348Q76 388 102 414T169 441Q209 441 235 415T262 348Z"  />
<glyph unicode="&#xFB2A;" horiz-adv-x="653" d="M552 626Q552 611 542 601T517 590Q502 590 492 600T481 626Q481 640 491 650T517 661Q532 661 542 651T552 626ZM574 442Q574 394 553 343Q530 298 508 253Q483 210 434 121Q410 77 378 0H119Q72 178 72 256Q72 310 101 389Q30 400 30 469Q30 499 38 523Q50 557 74 557Q78 557 80 547Q81 541 82 535Q88 517 116 512Q156 505 165 500Q189 485 189 443Q189 415 177 389H143Q121 341 121 287Q121 224 158 147Q169 124 178 124H185L287 389Q220 399 220 469Q220 498 228 523Q240 557 263 557Q267 557 269 549T272 535Q277 517 306 512Q345 505 354 500Q379 485 379 443Q379 415 367 389H333L227 124H293Q326 124 350 137Q396 162 452 241Q510 324 510 373Q510 389 490 389Q413 389 413 469Q413 557 456 557Q460 557 462 547Q463 541 464 535Q470 517 499 512Q539 505 549 499Q574 485 574 442Z"  />
<glyph unicode="&#xFB2B;" horiz-adv-x="653" d="M136 626Q136 611 126 601T101 590Q86 590 76 600T65 626Q65 640 75 650T101 661Q116 661 126 651T136 626ZM574 442Q574 394 553 343Q530 298 508 253Q483 210 434 121Q410 77 378 0H119Q72 178 72 256Q72 310 101 389Q30 400 30 469Q30 499 38 523Q50 557 74 557Q78 557 80 547Q81 541 82 535Q88 517 116 512Q156 505 165 500Q189 485 189 443Q189 415 177 389H143Q121 341 121 287Q121 224 158 147Q169 124 178 124H185L287 389Q220 399 220 469Q220 498 228 523Q240 557 263 557Q267 557 269 549T272 535Q277 517 306 512Q345 505 354 500Q379 485 379 443Q379 415 367 389H333L227 124H293Q326 124 350 137Q396 162 452 241Q510 324 510 373Q510 389 490 389Q413 389 413 469Q413 557 456 557Q460 557 462 547Q463 541 464 535Q470 517 499 512Q539 505 549 499Q574 485 574 442Z"  />
<glyph unicode="&#xFB2C;" horiz-adv-x="653" d="M556 626Q556 611 546 601T521 590Q506 590 496 600T485 626Q485 640 495 650T521 661Q535 661 545 651T556 626ZM406 255Q406 241 396 231T370 220Q355 220 345 230T334 255Q334 270 344 280T370 291Q385 291 395 281T406 255ZM574 442Q574 394 553 343Q530 298 508 253Q483 210 434 121Q410 77 378 0H119Q72 178 72 256Q72 310 101 389Q30 400 30 469Q30 499 38 523Q50 557 74 557Q78 557 80 547Q81 541 82 535Q88 517 116 512Q156 505 165 500Q189 485 189 443Q189 415 177 389H143Q121 341 121 287Q121 224 158 147Q169 124 178 124H185L287 389Q220 399 220 469Q220 498 228 523Q240 557 263 557Q267 557 269 549T272 535Q277 517 306 512Q345 505 354 500Q379 485 379 443Q379 415 367 389H333L227 124H293Q326 124 350 137Q396 162 452 241Q510 324 510 373Q510 389 490 389Q413 389 413 469Q413 557 456 557Q460 557 462 547Q463 541 464 535Q470 517 499 512Q539 505 549 499Q574 485 574 442Z"  />
<glyph unicode="&#xFB2D;" horiz-adv-x="653" d="M139 626Q139 611 129 601T104 590Q89 590 79 600T68 626Q68 640 78 650T104 661Q119 661 129 651T139 626ZM403 255Q403 241 393 231T367 220Q352 220 342 230T331 255Q331 270 341 280T367 291Q382 291 392 281T403 255ZM574 442Q574 394 553 343Q530 298 508 253Q483 210 434 121Q410 77 378 0H119Q72 178 72 256Q72 310 101 389Q30 400 30 469Q30 499 38 523Q50 557 74 557Q78 557 80 547Q81 541 82 535Q88 517 116 512Q156 505 165 500Q189 485 189 443Q189 415 177 389H143Q121 341 121 287Q121 224 158 147Q169 124 178 124H185L287 389Q220 399 220 469Q220 498 228 523Q240 557 263 557Q267 557 269 549T272 535Q277 517 306 512Q345 505 354 500Q379 485 379 443Q379 415 367 389H333L227 124H293Q326 124 350 137Q396 162 452 241Q510 324 510 373Q510 389 490 389Q413 389 413 469Q413 557 456 557Q460 557 462 547Q463 541 464 535Q470 517 499 512Q539 505 549 499Q574 485 574 442Z"  />
<glyph unicode="&#xFB2E;" horiz-adv-x="597" d="M452 73Q452 30 413 1Q409 -1 402 -4L350 69Q291 145 175 283Q173 284 170 284Q161 284 154 277Q128 251 128 219Q128 207 137 189Q154 159 172 130Q199 83 199 70Q199 55 191 30Q181 0 170 0H55L44 26Q85 39 85 51Q85 50 82 59Q72 94 60 143Q55 162 55 174Q55 240 145 315L71 403Q46 433 46 460Q46 487 73 518Q90 542 98 542Q129 505 129 502Q131 490 200 407L297 290Q303 304 331 347Q365 399 365 398Q324 403 310 412Q285 427 285 471Q285 495 294 520Q305 551 324 551Q325 551 325 551Q329 551 335 533T366 511Q395 511 402 508Q451 503 451 440Q451 423 446 389H408Q375 389 354 340Q338 304 334 257Q334 257 334 256Q334 251 351 229Q384 188 427 134Q452 101 452 73ZM350 -153H132V-102H350V-153Z"  />
<glyph unicode="&#xFB2F;" horiz-adv-x="597" d="M452 73Q452 30 413 1Q409 -1 402 -4L350 69Q291 145 175 283Q173 284 170 284Q161 284 154 277Q128 251 128 219Q128 207 137 189Q154 159 172 130Q199 83 199 70Q199 55 191 30Q181 0 170 0H55L44 26Q85 39 85 51Q85 50 82 59Q72 94 60 143Q55 162 55 174Q55 240 145 315L71 403Q46 433 46 460Q46 487 73 518Q90 542 98 542Q129 505 129 502Q131 490 200 407L297 290Q303 304 331 347Q365 399 365 398Q324 403 310 412Q285 427 285 471Q285 495 294 520Q305 551 324 551Q325 551 325 551Q329 551 335 533T366 511Q395 511 402 508Q451 503 451 440Q451 423 446 389H408Q375 389 354 340Q338 304 334 257Q334 257 334 256Q334 251 351 229Q384 188 427 134Q452 101 452 73ZM350 -151H259L267 -298H218L224 -151H132V-102H350V-151Z"  />
<glyph unicode="&#xFB30;" horiz-adv-x="597" d="M452 73Q452 30 413 1Q409 -1 402 -4L350 69Q291 145 175 283Q173 284 170 284Q161 284 154 277Q128 251 128 219Q128 207 137 189Q154 159 172 130Q199 83 199 70Q199 55 191 30Q181 0 170 0H55L44 26Q85 39 85 51Q85 50 82 59Q72 94 60 143Q55 162 55 174Q55 240 145 315L71 403Q46 433 46 460Q46 487 73 518Q90 542 98 542Q129 505 129 502Q131 490 200 407L297 290Q303 304 331 347Q365 399 365 398Q324 403 310 412Q285 427 285 471Q285 495 294 520Q305 551 324 551Q325 551 325 551Q329 551 335 533T366 511Q395 511 402 508Q451 503 451 440Q451 423 446 389H408Q375 389 354 340Q338 304 334 257Q334 257 334 256Q334 251 351 229Q384 188 427 134Q452 101 452 73ZM287 -135Q287 -149 276 -159T251 -170Q236 -170 226 -160T215 -135Q215 -120 225 -110T251 -99Q266 -99 276 -109T287 -135Z"  />
<glyph unicode="&#xFB31;" horiz-adv-x="492" d="M427 124L402 0H30L58 124H280Q347 124 347 235V272Q347 353 322 372T206 391Q187 391 162 390T136 389Q42 389 42 469Q42 499 50 523Q62 557 86 557Q88 557 94 535T137 512H266Q349 512 378 469Q401 434 401 347Q401 199 369 124H427ZM257 255Q257 241 246 231T221 220Q206 220 196 230T185 255Q185 270 195 280T221 291Q236 291 246 281T257 255Z"  />
<glyph unicode="&#xFB32;" horiz-adv-x="379" d="M339 85L311 -20Q280 64 278 69Q252 127 226 144Q218 143 197 78Q178 20 175 0H32L67 124H121Q221 124 221 322V341Q221 367 214 377Q204 389 174 389Q124 389 103 403Q75 420 75 469Q75 498 83 523Q95 557 118 557Q122 557 124 549T127 535Q134 512 170 512H175Q230 512 249 502Q279 486 279 434Q279 410 273 363T267 291Q267 239 297 183Q332 116 339 85ZM177 255Q177 241 166 231T141 220Q126 220 116 230T105 255Q105 270 115 280T141 291Q156 291 166 281T177 255Z"  />
<glyph unicode="&#xFB33;" horiz-adv-x="455" d="M414 405Q406 402 389 390Q378 379 370 356T361 318Q361 304 366 269L387 121Q391 93 391 81Q391 52 365 22T309 -13Q313 36 313 98Q313 128 310 186T307 274Q307 302 320 335Q327 348 334 363T342 389H122Q29 389 29 469Q29 498 37 523Q49 557 72 557Q76 557 78 549T81 535Q88 512 124 512H346Q390 512 405 478Q414 457 414 405ZM217 255Q217 241 206 231T181 220Q166 220 156 230T145 255Q145 270 155 280T181 291Q196 291 206 281T217 255Z"  />
<glyph unicode="&#xFB34;" horiz-adv-x="492" d="M442 425Q442 406 420 372T398 318Q398 304 403 269L424 121Q428 93 428 81Q428 51 402 21T346 -13Q351 49 351 98Q351 128 348 186T344 274Q344 304 357 335Q364 348 371 363T379 389H135Q41 389 41 469Q41 499 49 523Q61 557 85 557Q87 557 93 535T136 512H384Q442 512 442 443V425ZM267 255Q267 241 256 231T231 220Q216 220 206 230T195 255Q195 270 205 280T231 291Q246 291 256 281T267 255ZM139 277Q126 238 126 222Q126 197 128 146T131 69Q131 43 106 17T54 -13V194Q54 225 80 251T138 277Q139 277 139 277Z"  />
<glyph unicode="&#xFB35;" horiz-adv-x="256" d="M251 67L171 -13Q180 102 180 140V201Q180 359 169 374T120 389Q26 389 26 469Q26 499 34 523Q46 557 70 557Q73 557 75 548Q78 535 78 535Q85 512 121 512H174Q203 512 219 488T235 433Q235 414 236 375Q236 337 236 317Q236 192 251 67ZM127 255Q127 241 116 231T91 220Q76 220 66 230T55 255Q55 270 65 280T91 291Q106 291 116 281T127 255Z"  />
<glyph unicode="&#xFB36;" horiz-adv-x="293" d="M256 443Q256 413 244 389H196Q184 389 175 362Q167 340 167 325Q167 322 169 303Q177 231 187 155Q195 97 195 82Q195 55 166 25T110 -13Q121 89 121 98Q121 130 117 194T112 290Q112 338 151 389H146Q87 389 65 399Q31 416 31 469Q31 499 39 523Q51 557 75 557Q77 557 83 535T126 512H195Q256 512 256 443ZM77 255Q77 241 66 231T41 220Q26 220 16 230T5 255Q5 270 15 280T41 291Q56 291 66 281T77 255Z"  />
<glyph unicode="&#xFB38;" horiz-adv-x="549" d="M479 344Q479 200 388 33Q376 12 367 0H96Q93 56 91 76Q87 118 79 151Q67 202 67 254Q67 305 107 389Q35 396 35 469Q35 499 43 523Q55 557 79 557Q81 557 87 536T124 512Q168 509 177 505Q204 492 204 444Q204 400 196 389H153Q119 347 119 278Q119 186 149 144Q163 124 201 124H311Q348 124 379 155Q428 204 428 278Q428 321 408 356Q384 397 344 397Q293 397 265 333Q262 325 254 307L229 319Q278 515 368 515Q425 515 455 455Q479 408 479 344ZM287 255Q287 241 276 231T251 220Q236 220 226 230T215 255Q215 270 225 280T251 291Q266 291 276 281T287 255Z"  />
<glyph unicode="&#xFB39;" horiz-adv-x="246" d="M244 410Q244 298 148 217L125 238Q184 301 184 350Q184 389 131 389H119Q35 389 35 469Q35 498 43 523Q55 557 78 557Q82 557 84 549T87 535Q94 512 130 512H162Q244 512 244 410ZM97 255Q97 241 86 231T61 220Q46 220 36 230T25 255Q25 270 35 280T61 291Q76 291 86 281T97 255Z"  />
<glyph unicode="&#xFB3A;" horiz-adv-x="492" d="M237 255Q237 241 226 231T201 220Q186 220 176 230T165 255Q165 270 175 280T201 291Q216 291 226 281T237 255ZM411 405Q375 389 375 356Q375 354 376 331Q379 252 389 81Q397 -62 397 -99Q397 -112 376 -141Q352 -174 320 -193Q321 -181 321 -156L320 371Q320 389 305 389H132Q38 389 38 469Q38 499 46 523Q58 557 82 557Q84 557 90 535T133 512H345Q388 512 402 477Q411 456 411 405Z"  />
<glyph unicode="&#xFB3B;" horiz-adv-x="436" d="M405 255Q405 206 394 150Q382 85 362 51T297 6Q273 0 223 0H30L58 124H251Q315 124 342 159Q365 190 365 257Q365 335 339 362T238 389H136Q42 389 42 469Q42 499 50 523Q62 557 86 557Q88 557 94 535T137 512H276Q336 512 365 465Q405 401 405 255ZM237 255Q237 241 226 231T201 220Q186 220 176 230T165 255Q165 270 175 280T201 291Q216 291 226 281T237 255Z"  />
<glyph unicode="&#xFB3C;" horiz-adv-x="417" d="M426 367Q426 270 364 217Q332 193 273 142Q243 111 243 74Q243 67 246 53T250 31Q250 -8 206 -8Q159 -8 159 49Q159 94 208 139Q251 172 294 205Q355 252 355 328Q355 389 296 389H143Q87 389 70 416Q58 435 58 495Q58 560 93 651Q34 675 34 710Q34 759 75 785Q80 769 121 750Q159 732 159 708Q159 693 135 639T110 556Q110 526 117 519T154 512H352Q426 512 426 448V367ZM237 255Q237 241 226 231T201 220Q186 220 176 230T165 255Q165 270 175 280T201 291Q216 291 226 281T237 255Z"  />
<glyph unicode="&#xFB3E;" horiz-adv-x="521" d="M327 255Q327 241 316 231T291 220Q276 220 266 230T255 255Q255 270 265 280T291 291Q306 291 316 281T327 255ZM482 280Q482 229 465 139Q446 46 426 0H174L211 124H361Q395 124 410 140Q430 161 430 226Q430 291 394 334Q356 381 293 381Q228 381 180 320Q141 270 124 199T107 59V33Q77 3 50 -10V34Q50 99 69 177T120 308Q128 322 154 360Q161 370 161 379Q161 389 139 389Q128 390 108 393Q52 405 52 469Q52 499 60 523Q72 557 96 557Q98 557 103 537T138 512Q189 506 203 487Q214 472 214 425V402L218 398Q258 409 305 522Q339 519 379 493T440 435Q482 375 482 280Z"  />
<glyph unicode="&#xFB40;" horiz-adv-x="312" d="M290 120Q290 100 264 0H29L64 124H170Q217 124 217 152Q217 172 214 200T211 249Q211 279 214 305T218 340Q218 372 200 382Q190 387 150 390Q74 396 74 469Q74 499 82 523Q94 557 118 557Q120 557 126 535T169 512H209Q234 512 253 492T273 447Q273 433 266 356Q258 268 258 279Q258 234 275 175Q290 123 290 120ZM177 255Q177 241 166 231T141 220Q126 220 116 230T105 255Q105 270 115 280T141 291Q156 291 166 281T177 255Z"  />
<glyph unicode="&#xFB41;" horiz-adv-x="540" d="M426 294Q426 148 369 64Q322 -5 232 -5Q154 -5 113 40Q48 112 48 212Q48 312 108 391Q42 399 42 469Q42 499 50 523Q62 557 86 557Q89 557 91 548Q94 535 94 535Q102 512 137 512H282Q353 512 380 477Q426 418 426 294ZM373 266Q373 389 284 389H159Q143 389 128 359Q116 337 111 315Q105 289 105 265Q105 167 166 135Q195 120 237 120Q302 120 337 160T373 266ZM277 255Q277 241 266 231T241 220Q226 220 216 230T205 255Q205 270 215 280T241 291Q256 291 266 281T277 255Z"  />
<glyph unicode="&#xFB43;" horiz-adv-x="436" d="M307 255Q307 241 296 231T271 220Q256 220 246 230T235 255Q235 270 245 280T271 291Q286 291 296 281T307 255ZM418 -99Q418 -126 341 -193V371Q341 389 326 389H144Q109 361 109 315Q166 307 170 306Q203 295 203 262Q203 239 189 195H166Q149 221 124 221Q107 221 98 215Q94 212 80 195H53Q47 219 47 244Q47 283 64 326Q83 374 112 392Q53 402 53 469Q53 499 61 523Q73 557 97 557Q99 557 105 535T148 512H305Q368 512 389 476Q404 451 404 390V356Q404 194 410 81Q418 -70 418 -99Z"  />
<glyph unicode="&#xFB44;" horiz-adv-x="436" d="M327 255Q327 241 316 231T291 220Q276 220 266 230T255 255Q255 270 265 280T291 291Q306 291 316 281T327 255ZM425 265Q425 187 408 123Q384 35 334 10Q312 -1 282 -1Q242 -1 161 -1Q81 0 40 0L73 124H295Q344 124 369 167Q389 201 389 254Q389 314 365 353Q343 389 275 389H153Q118 359 118 315Q175 307 179 306Q212 295 212 262Q212 239 198 195H175Q160 221 133 221Q116 221 107 215Q103 212 89 195H62Q56 219 56 244Q56 283 73 326Q92 374 121 392Q62 403 62 469Q62 499 70 523Q82 557 106 557Q108 557 114 535T157 512H308Q372 512 403 416Q425 348 425 265Z"  />
<glyph unicode="&#xFB46;" horiz-adv-x="521" d="M431 389H402Q363 361 294 278Q283 265 283 255Q283 244 295 234L393 155Q405 145 405 131Q405 124 401 110L369 0H50V1Q50 11 86 124H291L296 133Q290 138 190 237Q160 267 160 333V352Q160 389 139 389H120Q37 389 37 472Q37 502 46 526Q57 555 75 555Q79 555 79 555Q84 554 85 546Q87 533 88 530Q92 519 104 516Q106 516 137 511Q152 509 171 507Q202 500 202 462Q202 467 199 421T196 369Q196 302 238 276Q250 287 351 389Q349 389 341 390Q264 395 264 469Q264 499 272 523Q284 557 308 557Q310 557 316 536T359 510Q375 509 402 504T431 449Q431 449 431 431V389ZM127 255Q127 241 116 231T91 220Q76 220 66 230T55 255Q55 270 65 280T91 291Q106 291 116 281T127 255Z"  />
<glyph unicode="&#xFB47;" horiz-adv-x="417" d="M437 354Q437 262 394 218Q378 202 346 182Q309 159 296 148Q247 107 247 74Q247 67 250 53T254 31Q254 -8 212 -8Q175 -8 175 49Q175 98 226 142Q274 180 322 218Q373 266 373 325Q373 365 344 379Q323 389 279 389H144Q50 389 50 469Q50 499 58 523Q70 557 94 557Q96 557 102 535T145 512H299Q437 512 437 354ZM267 255Q267 241 256 231T231 220Q216 220 206 230T195 255Q195 270 205 280T231 291Q246 291 256 281T267 255ZM134 -99Q134 -119 105 -152Q79 -180 57 -193V218Q57 253 63 273Q77 321 123 321Q116 295 116 274Q116 212 125 88T134 -99Z"  />
<glyph unicode="&#xFB48;" horiz-adv-x="436" d="M392 67L312 -13Q321 102 321 140V206Q321 359 310 374T260 389H107Q26 389 26 469Q26 557 69 557Q73 557 75 547Q76 541 77 535Q84 512 121 512H315Q343 512 359 488T375 433Q375 414 376 376T377 317Q377 180 392 67ZM237 255Q237 241 226 231T201 220Q186 220 176 230T165 255Q165 270 175 280T201 291Q216 291 226 281T237 255Z"  />
<glyph unicode="&#xFB49;" horiz-adv-x="653" d="M407 255Q407 241 396 231T371 220Q356 220 346 230T335 255Q335 270 345 280T371 291Q386 291 396 281T407 255ZM574 442Q574 394 553 343Q530 298 508 253Q483 210 434 121Q410 77 378 0H119Q72 178 72 256Q72 310 101 389Q30 400 30 469Q30 499 38 523Q50 557 74 557Q78 557 80 547Q81 541 82 535Q88 517 116 512Q156 505 165 500Q189 485 189 443Q189 415 177 389H143Q121 341 121 287Q121 224 158 147Q169 124 178 124H185L287 389Q220 399 220 469Q220 498 228 523Q240 557 263 557Q267 557 269 549T272 535Q277 517 306 512Q345 505 354 500Q379 485 379 443Q379 415 367 389H333L227 124H293Q326 124 350 137Q396 162 452 241Q510 324 510 373Q510 389 490 389Q413 389 413 469Q413 557 456 557Q460 557 462 547Q463 541 464 535Q470 517 499 512Q539 505 549 499Q574 485 574 442Z"  />
<glyph unicode="&#xFB4A;" horiz-adv-x="511" d="M337 255Q337 241 326 231T301 220Q286 220 276 230T265 255Q265 270 275 280T301 291Q316 291 326 281T337 255ZM495 67L416 -13Q425 102 425 140V169Q425 343 407 369Q393 389 354 389H225Q198 381 177 350T155 293Q155 255 172 178Q178 153 197 102L162 0H27L54 124H121L111 185Q104 229 104 249Q104 297 144 358Q159 381 174 389H164Q83 389 83 469Q83 557 126 557Q130 557 132 547Q133 541 134 535Q141 512 178 512H382Q418 512 446 488Q479 458 479 409Q479 390 480 364T481 317Q481 183 495 67Z"  />
<glyph unicode="&#xFB4B;" horiz-adv-x="256" d="M176 626Q176 611 166 601T141 590Q126 590 116 600T105 626Q105 640 115 650T141 661Q155 661 165 651T176 626ZM251 67L171 -13Q180 102 180 140V201Q180 359 169 374T120 389Q26 389 26 469Q26 499 34 523Q46 557 70 557Q73 557 75 548Q78 535 78 535Q85 512 121 512H174Q203 512 219 488T235 433Q235 414 236 375Q236 337 236 317Q236 192 251 67Z"  />
<glyph unicode="&#xFB4C;" horiz-adv-x="492" d="M347 655H93V709H347V655ZM427 124L402 0H30L58 124H280Q347 124 347 235V272Q347 353 322 372T206 391Q187 391 162 390T136 389Q42 389 42 469Q42 499 50 523Q62 557 86 557Q88 557 94 535T137 512H266Q349 512 378 469Q401 434 401 347Q401 199 369 124H427Z"  />
<glyph unicode="&#xFB4D;" horiz-adv-x="436" d="M317 655H63V709H317V655ZM405 255Q405 206 394 150Q382 85 362 51T297 6Q273 0 223 0H30L58 124H251Q315 124 342 159Q365 190 365 257Q365 335 339 362T238 389H136Q42 389 42 469Q42 499 50 523Q62 557 86 557Q88 557 94 535T137 512H276Q336 512 365 465Q405 401 405 255Z"  />
<glyph unicode="&#xFB4E;" horiz-adv-x="436" d="M297 655H43V709H297V655ZM425 265Q425 187 408 123Q384 35 334 10Q312 -1 282 -1Q242 -1 161 -1Q81 0 40 0L73 124H295Q344 124 369 167Q389 201 389 254Q389 314 365 353Q343 389 275 389H153Q118 359 118 315Q175 307 179 306Q212 295 212 262Q212 239 198 195H175Q160 221 133 221Q116 221 107 215Q103 212 89 195H62Q56 219 56 244Q56 283 73 326Q92 374 121 392Q62 403 62 469Q62 499 70 523Q82 557 106 557Q108 557 114 535T157 512H308Q372 512 403 416Q425 348 425 265Z"  />
<glyph unicode="&#xFB4F;" horiz-adv-x="503" d="M462 73Q462 30 423 1Q419 -1 412 -4L360 69Q301 145 185 283Q185 283 155 317Q128 348 81 403Q60 428 56 459Q56 459 56 459Q57 453 57 458Q58 465 58 495Q58 560 93 651Q34 675 34 710Q34 759 75 785Q80 769 121 750Q159 732 159 708Q159 693 137 638T114 553Q139 507 139 502Q141 490 210 407L307 290Q313 304 341 347Q375 399 375 398Q334 403 320 412Q295 427 295 471Q295 495 304 520Q315 551 334 551Q335 551 335 551Q339 551 345 533T376 511Q405 511 412 508Q461 503 461 440Q461 423 456 389H418Q385 389 364 340Q348 304 344 257Q344 257 344 256Q344 251 361 229Q394 188 437 134Q462 101 462 73Z"  />
<glyph unicode="&#xFFFC;" horiz-adv-x="1000" d="M1000 562H951L842 670V719H1000V562ZM719 670H562V719H719V670ZM1000 281H951V438H1000V281ZM870 298Q870 181 767 181Q725 181 700 203L735 241Q748 229 767 229Q813 229 813 296V532H870V298ZM438 670H281V719H438V670ZM1000 0H842V49L951 158H1000V0ZM695 289Q695 187 561 187H444V532H559Q680 532 680 441Q680 397 637 371Q695 348 695 289ZM158 670L49 562H0V719H158V670ZM719 0H562V49H719V0ZM417 359Q417 274 377 228T262 181Q188 181 149 227T109 359Q109 444 148 491T262 538Q337 538 377 491T417 359ZM49 281H0V438H49V281ZM438 0H281V49H438V0ZM158 0H0V158H49L158 49V0ZM624 436Q624 484 544 484H500V390H550Q624 390 624 436ZM638 289Q638 342 555 342H500V234H561Q638 234 638 289ZM360 359Q360 490 262 490Q166 490 166 359Q166 229 262 229Q360 229 360 359ZM263 233Q239 333 172 359Q239 386 263 485Q286 386 354 359Q286 333 263 233Z"  />


</font>
</defs>
</svg>
