<?xml  version="1.0" encoding="UTF-8"?>
<!DOCTYPE svg PUBLIC "-//W3C//DTD SVG 1.0//EN" "http://www.w3.org/TR/2001/REC-SVG-20010904/DTD/svg10.dtd" >
<svg xmlns="http://www.w3.org/2000/svg" >
<metadata>
<version>1.0</version>
<id><![CDATA[Arabic Typesetting W23 Reg]]></id>
<vendor>Monotype Imaging Inc.</vendor>
<credits>
<name>Fonts.com WebFonts</name>
<URL>http://webfonts.fonts.com</URL>
<role>Home of the Web fonts</role>
</credits>
<license>
<URL>http://webfonts.fonts.com/Legal</URL>
</license>
<copyright><![CDATA[© 2008 Microsoft Corporation. All Rights Reserved.]]></copyright>
<trademark></trademark>
<licensee>
<name></name>
</licensee>
</metadata>
<defs >
<font horiz-adv-x="828" id="8db4ca73-82e1-4259-afcd-c1f15b14f62b">
<font-face font-family="" panose-1="3 2 4 2 4 4 6 3 2 3" ascent="1435" descent="-896" units-per-em="2048" alphabetic="0">
</font-face>
<missing-glyph horiz-adv-x="684" d="M684 960V0H0V960H684ZM627 57V903H57V57H627ZM300 313L298 335Q298 409 320 452Q327 465 341 482T377 522Q420 565 432 586Q444 608 444 634Q444 684 413 715Q383 748 344 748Q299 748 270 718T233 621L166 632Q175 727 224 771T346 815Q417 815 465 766Q513 718 513 640Q513 595 497 564Q489 548 472 528T430 483Q379 435 372 407Q362 388 362 313H300ZM293 156V246H369V156H293Z"  />

<glyph unicode="&#xA;" />
<glyph unicode="&#xD;" horiz-adv-x="413" />
<glyph unicode=" " horiz-adv-x="413" />
<glyph unicode="!" horiz-adv-x="388" d="M281 945L288 938Q276 866 266 777T247 595T231 414T219 256L175 251Q172 317 167 407T156 593T144 777T131 929L281 945ZM274 63Q274 30 252 7T197 -17Q165 -17 143 6T120 63Q120 96 142 119T197 143Q229 143 251 120T274 63Z"  />
<glyph unicode="&quot;" horiz-adv-x="572" d="M482 1012Q477 995 469 952T451 856T435 753T424 667L382 662L344 996L473 1021L482 1012ZM238 1012Q233 995 225 952T207 856T191 753T180 667L138 662L100 996L229 1021L238 1012Z"  />
<glyph unicode="#" horiz-adv-x="680" d="M650 589L630 524L497 521L450 313L587 316L568 251L435 248L386 35L321 30L371 247L216 245L168 35L103 30L151 244L14 242L33 306L166 308L213 517L76 515L96 579L228 581L277 795L343 800L293 582L448 585L496 795L561 800L512 586L650 589ZM231 309L386 312L433 520L278 518L231 309Z"  />
<glyph unicode="$" horiz-adv-x="680" d="M611 227Q611 176 591 135T538 64T459 14T365 -13V-105L307 -111V-16Q253 -16 205 -6T95 21Q89 72 82 118T62 215L109 227Q122 189 138 157T178 99T233 58T307 38V378Q264 397 222 417T147 464T93 530T72 623Q72 672 90 710T141 776T217 820T312 843V929L370 935V845Q427 844 476 839T580 819Q575 769 574 729T572 641L528 636Q516 705 476 745T370 792V478Q413 459 456 439T533 390T589 323T611 227ZM499 185Q499 217 489 242T460 287T418 322T365 352V39Q423 47 461 86T499 185ZM312 790Q255 785 220 753T184 664Q184 634 194 610T221 567T261 533T312 504V790Z"  />
<glyph unicode="%" horiz-adv-x="1260" d="M553 709Q553 571 492 493T312 414Q256 414 216 435T150 492T112 576T100 677Q100 744 115 798T161 891T236 950T340 971Q396 971 436 950T503 892T541 809T553 709ZM1160 284Q1160 146 1099 68T919 -11Q863 -11 823 10T757 67T719 151T707 252Q707 319 722 373T768 466T843 525T947 546Q1003 546 1043 525T1110 467T1148 384T1160 284ZM1055 253Q1055 324 1043 371T1013 447T972 488T929 500Q906 500 885 490T848 454T822 386T812 280Q812 209 824 162T855 86T896 45T938 33Q962 33 983 43T1020 79T1045 147T1055 253ZM448 678Q448 749 436 796T406 872T365 913T322 925Q299 925 278 915T241 879T215 811T205 705Q205 634 217 587T248 511T289 470T331 458Q355 458 376 468T413 504T438 572T448 678ZM980 979L328 -54L280 -21L928 1011L980 979Z"  />
<glyph unicode="&amp;" horiz-adv-x="1045" d="M993 536Q951 532 923 525T876 505T841 472T809 423Q787 386 765 348T713 272Q739 242 758 218T798 169Q821 140 843 116T890 75T945 47T1015 35L1013 -1Q997 -1 975 -1T930 0Q908 0 888 0T856 1Q829 1 811 0T777 -1Q745 56 712 99T644 181Q611 139 576 102T500 38T415 -5T318 -21Q265 -21 220 -3T142 48T89 123T70 214Q70 262 86 307T131 391T196 462T274 517Q229 560 202 607T174 717Q174 766 193 805T246 873T322 917T412 933Q451 933 487 921T552 885T597 829T614 754Q614 713 599 681T559 623T501 575T432 530Q495 481 558 425T676 311Q716 366 740 411T765 489Q765 504 757 513T737 526T708 533T673 536L675 570Q704 570 745 569T832 568Q851 568 873 568T916 569Q938 569 957 569T990 570L993 536ZM607 222Q577 255 546 285T478 346T401 412T310 486Q250 450 215 393T179 268Q179 228 193 193T233 131T294 89T370 73Q406 73 440 85T504 117T561 164T607 222ZM390 562Q448 590 480 631T513 736Q513 763 505 789T480 835T441 868T388 880Q362 880 341 869T306 840T284 798T276 749Q276 716 285 690T309 642T345 600T390 562Z"  />
<glyph unicode="&apos;" horiz-adv-x="328" d="M238 1012Q233 995 225 952T207 856T191 753T180 667L138 662L100 996L229 1021L238 1012Z"  />
<glyph unicode="(" horiz-adv-x="499" d="M401 1024Q333 963 286 891T208 738T164 569T150 387Q150 294 164 206T208 37T285 -115T401 -248L372 -282Q292 -222 232 -147T130 15T68 195T47 386Q47 482 67 576T128 758T230 921T372 1058L401 1024Z"  />
<glyph unicode=")" horiz-adv-x="499" d="M452 390Q452 294 432 200T371 18T269 -145T127 -282L98 -248Q165 -187 212 -115T290 38T335 207T349 389Q349 483 335 571T291 739T213 891T98 1024L127 1058Q207 998 267 923T369 761T431 580T452 390Z"  />
<glyph unicode="*" horiz-adv-x="527" d="M449 859L296 787L449 716L418 665L281 762L296 594H237L252 762L113 665L84 716L236 787L84 859L113 910L252 813L237 980H296L281 813L418 910L449 859Z"  />
<glyph unicode="+" horiz-adv-x="680" d="M620 328L615 262H373V10L307 5V262H61L66 328H307V580L373 585V328H620Z"  />
<glyph unicode="&#x2c;" horiz-adv-x="342" d="M274 36Q274 -3 260 -36T221 -98T164 -147T97 -181L81 -143Q126 -123 155 -90T184 -4Q184 31 165 53T107 78Q96 84 91 96T86 119Q86 148 107 164T156 181Q184 181 206 168T243 133T266 87T274 36Z"  />
<glyph unicode="-" horiz-adv-x="435" d="M409 309L40 276L30 286L41 351L407 348L409 309Z"  />
<glyph unicode="." horiz-adv-x="342" d="M90 67Q90 84 96 99T114 126T139 144T171 151Q187 151 202 145T228 127T245 100T252 67Q252 50 246 35T228 8T202 -10T171 -17Q154 -17 140 -11T114 7T97 34T90 67Z"  />
<glyph unicode="/" horiz-adv-x="540" d="M379 1001L448 990L132 -141L64 -130L379 1001Z"  />
<glyph unicode="0" horiz-adv-x="680" d="M359 850Q433 850 486 817T572 727T622 595T638 438Q638 332 618 247T557 103T458 12T322 -20Q248 -20 195 13T108 103T58 234T42 392Q42 498 62 583T123 727T223 818T359 850ZM334 796Q301 796 270 779T216 721T179 611T165 436Q165 320 182 243T227 120T286 54T347 34Q380 34 410 51T464 109T501 219T515 394Q515 509 498 586T454 710T395 776T334 796Z"  />
<glyph unicode="1" horiz-adv-x="680" d="M101 740Q192 762 270 789T416 845L426 837Q423 812 421 784T418 729T417 677T416 634V132Q416 108 419 91T439 61T489 43T583 36L581 0Q549 0 497 1T359 2Q274 2 214 1T125 0L122 34Q187 35 224 41T279 63T301 107T306 181V727L109 698L101 740Z"  />
<glyph unicode="2" horiz-adv-x="680" d="M88 593Q88 647 87 690T82 775Q137 811 195 830T319 850Q370 850 419 836T507 792T569 721T593 622Q593 567 575 521T525 433T452 352T366 273L165 88L481 95Q499 95 513 98T541 112T568 145T598 205L636 196Q630 173 624 147T613 94T605 43T600 0H458Q401 0 363 0T299 1H196Q166 1 135 1T77 0H38L28 21L260 246Q303 288 341 329T409 413T456 500T473 591Q473 630 460 662T422 718T366 755T298 768Q260 768 231 755T180 718T146 661T130 589L88 593Z"  />
<glyph unicode="3" horiz-adv-x="680" d="M79 654Q79 689 78 716T73 776Q133 811 190 830T316 850Q363 850 409 838T492 801T552 739T575 652Q575 639 571 618T552 569T508 508T429 436Q470 425 506 405T570 357T612 294T628 215Q628 125 590 57T490 -57T351 -126T196 -150Q169 -150 140 -147T87 -133T48 -106T32 -61Q32 -35 52 -15T100 11Q136 -29 188 -51T295 -74Q344 -74 382 -57T447 -10T488 62T502 154Q502 206 486 244T440 307T370 345T279 358Q256 358 231 356T186 346L177 391Q226 402 275 417T365 459T431 524T457 622Q457 656 444 684T409 731T358 760T297 771Q259 771 228 759T174 725T138 672T121 601L79 604V654Z"  />
<glyph unicode="4" horiz-adv-x="680" d="M414 152L17 151L0 190Q60 266 127 353T259 527T383 697T489 848L536 835Q531 790 528 745T525 645V236L643 238L655 226L650 151H525V-36Q496 -38 471 -40T411 -45Q413 -3 413 22T414 65V152ZM414 639L409 641Q331 544 255 441T99 229L414 234V639Z"  />
<glyph unicode="5" horiz-adv-x="680" d="M140 445Q186 469 234 480T327 492Q387 492 440 473T533 417T596 330T620 214Q620 129 584 62T489 -53T352 -125T194 -150Q171 -150 143 -147T89 -135T47 -109T30 -62Q30 -50 36 -38T51 -17T73 0T99 10H104Q120 -10 142 -25T189 -52T240 -69T293 -75Q343 -75 381 -56T444 -3T482 72T495 162Q495 219 478 265T428 343T348 393T242 410Q204 410 162 401T87 379L73 392Q85 492 107 603T155 830Q200 830 243 829T339 828Q368 828 400 828T464 829T526 830T581 831L560 716L194 724Q175 650 163 585T140 445Z"  />
<glyph unicode="6" horiz-adv-x="680" d="M592 930Q494 907 422 865T299 766T217 639T172 489Q223 525 276 542T382 560Q434 560 481 543T563 492T619 411T640 301Q640 233 618 175T555 73T458 5T333 -20Q258 -20 203 9T111 89T57 204T39 341Q39 466 76 572T183 761T352 899T578 979L592 930ZM169 439Q167 423 166 407T165 373Q165 326 173 267T204 156T265 69T364 34Q403 34 431 51T478 97T506 166T516 251Q516 300 505 341T470 410T410 455T323 471Q286 471 244 462T169 439Z"  />
<glyph unicode="7" horiz-adv-x="680" d="M65 597V650Q65 689 64 731T60 830Q204 830 295 830T441 829H489Q517 829 545 829T598 830H636L646 809Q592 711 536 608T432 398T346 182T293 -36Q274 -38 245 -39T176 -44L168 -33Q182 24 207 89T265 221T333 357T405 490T476 614T537 722Q544 737 527 737L237 733Q207 733 185 730T147 714T121 672T104 595L65 597Z"  />
<glyph unicode="8" horiz-adv-x="680" d="M236 482Q158 520 112 577T66 716Q66 774 89 822T153 906T247 960T361 980Q424 980 471 961T551 910T600 840T616 762Q616 739 610 714T584 659T527 595T426 519Q520 479 577 415T635 259Q635 196 609 145T538 57T437 0T319 -20Q262 -20 211 -6T122 37T61 109T38 210Q38 232 43 261T68 324T127 398T236 482ZM287 455Q227 413 195 363T163 242Q163 199 176 162T215 96T276 52T358 35Q395 35 425 49T475 87T507 142T518 209Q518 258 500 295T450 360T376 411T287 455ZM373 545Q433 579 465 630T497 747Q497 793 483 827T446 883T395 915T338 926Q302 926 273 914T223 879T192 828T181 766Q181 721 193 689T230 632T290 587T373 545Z"  />
<glyph unicode="9" horiz-adv-x="680" d="M510 335Q458 301 406 285T303 269Q249 269 201 287T117 341T61 426T40 539Q40 607 62 664T125 762T222 827T347 850Q427 850 483 818T574 733T625 614T641 478Q641 342 602 233T492 45T321 -84T102 -149L90 -98Q282 -59 384 47T510 335ZM515 387L516 399V437Q516 470 513 509T503 588T481 665T445 730T392 776T318 794Q279 794 251 779T203 736T174 672T164 589Q164 539 175 497T210 425T270 377T357 359Q383 359 422 365T515 387Z"  />
<glyph unicode=":" horiz-adv-x="342" d="M120 509Q120 526 126 541T144 568T169 586T201 593Q217 593 232 587T258 569T275 542T282 509Q282 492 276 477T258 450T232 432T201 425Q184 425 170 431T144 449T127 476T120 509ZM120 67Q120 84 126 99T144 126T169 144T201 151Q217 151 232 145T258 127T275 100T282 67Q282 50 276 35T258 8T232 -10T201 -17Q184 -17 170 -11T144 7T127 34T120 67Z"  />
<glyph unicode=";" horiz-adv-x="342" d="M299 36Q299 -3 285 -36T246 -98T189 -147T122 -181L106 -143Q151 -123 180 -90T209 -4Q209 31 190 53T132 78Q121 84 116 96T111 119Q111 148 132 164T181 181Q209 181 231 168T268 133T291 87T299 36ZM120 509Q120 526 126 541T144 568T169 586T201 593Q217 593 232 587T258 569T275 542T282 509Q282 492 276 477T258 450T232 432T201 425Q184 425 170 431T144 449T127 476T120 509Z"  />
<glyph unicode="&lt;" horiz-adv-x="680" d="M617 517L131 284L617 53L610 -11L60 259L65 310L610 581L617 517Z"  />
<glyph unicode="=" horiz-adv-x="680" d="M620 438L615 372H60L65 438H620ZM620 219L615 153H60L65 219H620Z"  />
<glyph unicode="&gt;" horiz-adv-x="680" d="M620 312L615 260L70 -11L63 53L549 286L63 517L70 581L620 312Z"  />
<glyph unicode="?" horiz-adv-x="544" d="M504 709Q504 677 491 652T456 606T410 566T363 529Q321 497 297 470T272 405Q272 369 289 339T335 280L305 249Q231 305 197 348T162 438Q162 467 175 491T208 537T253 577T299 613Q320 630 339 644T373 674T395 710T404 760Q404 802 377 826T308 851Q263 851 234 830T179 773H173Q152 781 131 799T110 841Q110 866 127 884T168 916T218 935T264 942Q304 942 346 921T424 867T481 792T504 709ZM342 63Q342 30 320 7T265 -17Q233 -17 211 6T188 63Q188 96 210 119T265 143Q297 143 319 120T342 63Z"  />
<glyph unicode="@" horiz-adv-x="1197" d="M842 576Q824 518 809 452T782 322T764 201T757 104Q757 72 772 60T809 48Q873 48 920 84T998 176T1044 294T1060 410Q1060 491 1032 559T952 675T831 751T678 779Q561 779 466 737T304 623T201 453T164 247Q164 143 197 53T292 -104T441 -209T637 -248Q697 -248 760 -234T876 -191L897 -230Q831 -275 750 -296T588 -317Q472 -317 377 -277T212 -167T105 0T67 207Q67 294 88 375T149 526T245 655T372 754T524 818T697 841Q790 841 870 809T1008 721T1100 587T1133 418Q1133 339 1107 261T1032 122T914 22T757 -17Q719 -17 693 0T665 60Q665 78 667 107T672 170Q584 70 528 26T450 -18Q428 -18 409 -4T376 33T353 85T345 147Q345 221 367 282T423 391T499 476T580 536T651 571T697 583Q713 583 730 580T765 571Q802 576 838 583L842 576ZM729 486Q720 492 700 497T659 503Q617 503 580 475T515 403T470 305T453 199Q453 187 454 170T461 138T475 112T500 101Q520 101 566 133T678 238Q688 304 701 367T729 486Z"  />
<glyph unicode="A" horiz-adv-x="962" d="M618 355H285L208 158Q188 101 188 86Q188 60 212 50T300 37L297 1Q260 1 214 2T123 3Q86 3 47 2T-30 1L-32 35Q7 38 32 44T75 68T110 116T149 198L436 875Q448 905 456 927T475 976L538 984Q549 936 561 896T585 823L810 171Q825 127 837 102T865 64T905 45T969 37L966 1Q924 1 874 2T772 3Q730 3 687 2T602 1L599 35Q655 39 679 48T703 84Q703 95 699 109T689 142L618 355ZM308 413H599L465 809L308 413Z"  />
<glyph unicode="B" horiz-adv-x="847" d="M57 960Q73 960 95 960T141 959Q166 959 192 959T243 958Q283 958 333 963T438 968Q501 968 559 957T661 919T732 849T758 743Q758 691 740 655T695 593T635 553T573 524Q685 507 746 443T807 273Q807 196 774 143T688 55T566 6T425 -10Q380 -10 326 -4T226 2Q206 2 184 2T138 1Q115 1 94 1T57 0L54 34Q96 37 122 43T162 63T180 100T185 162V835Q185 859 181 875T164 901T124 917T55 924L57 960ZM301 153Q301 120 304 99T321 65T361 49T435 44Q540 44 603 97T667 254Q667 315 646 359T588 432T498 474T381 488H301V153ZM301 539H384Q508 539 565 586T623 727Q623 761 614 794T580 855T511 899T398 916Q362 916 342 912T313 899T303 878T301 849V539Z"  />
<glyph unicode="C" horiz-adv-x="1013" d="M207 498Q207 402 231 318T303 171T425 72T597 35Q651 35 700 50T788 99Q824 131 850 177T903 287L943 277Q926 211 916 153T899 29Q820 6 743 -7T587 -20Q474 -20 379 15T214 114T105 268T66 470Q66 598 113 693T240 853T427 948T651 980Q712 980 781 971T911 946Q905 882 904 825T902 703L860 699Q856 758 837 801T785 873T709 915T615 929Q515 929 439 898T312 810T234 674T207 498Z"  />
<glyph unicode="D" horiz-adv-x="1080" d="M53 960Q89 960 140 959T243 958Q294 958 350 963T458 969Q566 969 666 946T843 870T967 732T1014 522Q1014 394 968 295T844 128T663 25T444 -11Q393 -11 335 -5T226 2Q206 2 184 2T138 1Q115 1 94 1T57 0L54 34Q96 37 122 43T162 63T180 100T185 162V831Q185 858 181 875T164 902T123 917T51 924L53 960ZM301 178Q301 149 303 125T318 82T360 54T443 44Q540 44 619 74T756 163T844 304T876 491Q876 597 844 676T754 809T619 890T450 917Q418 917 391 913T344 902T313 887T301 870V178Z"  />
<glyph unicode="E" horiz-adv-x="816" d="M300 163Q300 129 304 107T321 73T359 55T425 50H499Q557 50 593 59T655 91T699 151T742 242L781 233Q773 204 766 171T753 106T743 46T738 0Q539 0 416 1T231 2Q213 2 189 2T138 1Q112 1 88 1T46 0L43 34Q89 37 117 43T160 63T180 100T185 162V835Q185 859 181 875T163 901T124 917T55 924L58 960Q77 960 101 960T151 959Q177 959 201 959T247 958Q286 958 411 959T729 960Q723 909 720 853T716 734L676 733Q667 785 656 819T625 873T573 902T490 911H347Q317 911 309 905T300 874V528L638 538L645 531L643 448Q552 456 464 459T300 464V163Z"  />
<glyph unicode="F" horiz-adv-x="744" d="M50 960Q71 960 96 960T148 959Q174 959 200 959T247 958Q286 958 400 959T714 960Q708 909 705 851T701 730L661 729Q652 782 641 817T610 873T558 902T475 911H347Q317 911 309 905T300 874V507L623 517L630 510L628 426Q537 434 456 437T300 443V127Q300 103 304 86T325 59T374 43T462 36L460 0Q440 0 410 0T347 1Q314 1 283 1T231 2Q214 2 191 2T144 1Q120 1 97 1T57 0L54 34Q96 37 121 43T161 64T180 101T185 162V835Q185 859 181 875T162 901T121 917T47 924L50 960Z"  />
<glyph unicode="G" horiz-adv-x="1061" d="M881 696Q877 755 855 799T796 872T712 915T609 929Q506 929 430 898T304 810T230 674T205 498Q205 402 230 318T305 171T431 72T610 35Q624 35 656 38T723 49T782 70T808 103V301Q808 325 802 341T778 367T727 383T638 390L640 426Q664 426 692 426T749 425Q778 425 805 425T854 424Q874 424 896 424T939 425Q960 425 979 425T1013 426L1016 392Q987 389 969 383T941 363T927 326T923 265V201Q923 153 924 109T930 36Q849 14 765 -3T601 -20Q484 -20 386 15T216 114T104 268T64 470Q64 598 109 693T234 853T419 948T647 980Q678 980 715 977T789 969T863 956T930 941Q924 877 924 821T923 700L881 696Z"  />
<glyph unicode="H" horiz-adv-x="1135" d="M835 535V835Q835 859 832 875T816 901T779 917T713 924L715 960Q731 960 753 960T801 959Q827 959 854 959T905 958Q924 958 947 958T992 959Q1015 959 1035 959T1069 960L1071 926Q1032 923 1009 917T972 897T955 859T950 798V125Q950 101 954 85T970 59T1008 43T1075 36L1073 0Q1057 0 1034 0T985 1Q959 1 932 1T881 2Q861 2 839 2T794 1Q772 1 753 1T719 0L716 34Q755 37 778 43T814 63T831 100T835 162V476H300V125Q300 101 303 85T319 59T356 43T422 36L420 0Q404 0 382 0T334 1T281 2T230 3Q211 3 188 3T142 2Q120 2 100 2T66 1L64 35Q103 38 126 44T163 64T180 101T185 163V835Q185 859 181 875T165 901T127 917T60 924L62 960H106Q131 960 156 960T206 959H294Q317 959 339 959T382 960H416L419 926Q380 923 357 917T321 897T304 859T300 798V535H835Z"  />
<glyph unicode="I" horiz-adv-x="485" d="M61 34Q100 37 124 43T161 63T180 100T185 162V835Q185 859 181 875T164 901T125 917T59 924L61 960Q77 960 100 960T149 959Q176 959 203 959T255 958Q274 958 297 958T344 959Q367 959 387 959T422 960L425 926Q386 923 362 917T324 897T305 860T300 799V125Q300 101 304 85T321 59T360 43T427 36L425 0Q409 0 386 0T335 1Q309 1 282 1T231 2Q211 2 188 2T142 1Q119 1 99 1T64 0L61 34Z"  />
<glyph unicode="J" horiz-adv-x="460" d="M52 960Q68 960 91 960T140 959Q166 959 193 959T245 958H287Q311 958 334 958T379 959H417L420 925Q380 922 355 916T316 896T296 858T291 797V393Q291 350 291 306T292 216Q292 173 292 138T293 77V47Q293 -50 266 -122T194 -242Q157 -284 105 -304T-4 -325Q-21 -325 -38 -322T-71 -310T-95 -287T-105 -253Q-105 -229 -86 -213T-40 -192Q-21 -209 10 -225T75 -242Q94 -242 112 -236T142 -212Q155 -195 162 -171T172 -118T175 -58T176 4V835Q176 859 172 875T155 901T116 917T50 924L52 960Z"  />
<glyph unicode="K" horiz-adv-x="992" d="M427 926Q387 923 363 917T324 897T305 860T300 799V514Q329 519 352 531T405 569Q436 598 471 633T540 704T607 777T664 844Q678 862 684 876T684 900T656 917T593 925L595 960Q609 960 631 960T677 959Q702 959 727 959T775 958Q794 958 819 958T870 959Q896 959 918 959T954 960L957 926Q921 923 892 916T835 896T780 864T723 816Q701 796 670 765T602 697T525 619T447 539Q489 487 536 429T630 317T717 216T785 141Q815 110 835 91T875 61T916 44T972 36L970 0Q932 0 887 1T796 2Q782 2 767 2T737 0Q729 15 709 42T661 104T600 179T531 262T460 346T393 425Q373 448 357 457T323 467Q312 467 300 464V125Q300 101 304 85T321 59T360 43T429 36L427 0Q411 0 388 0T337 1Q310 1 283 1T231 2Q211 2 188 2T140 1Q116 1 95 1T60 0L57 34Q99 37 124 43T162 63T180 100T185 162V835Q185 859 181 875T164 901T124 917T55 924L57 960Q73 960 97 960T148 959Q175 959 203 959T255 958Q274 958 297 958T344 959Q368 959 389 959T424 960L427 926Z"  />
<glyph unicode="L" horiz-adv-x="780" d="M430 926Q389 923 364 917T324 897T305 859T300 798V163Q300 129 304 107T321 73T359 55T425 50H478Q536 50 573 59T635 91T680 151T722 242L760 233Q752 204 745 171T732 106T722 46T717 0H565Q499 0 451 0T369 1Q335 1 310 1T266 2H231Q211 2 187 2T139 1Q115 1 94 1T58 0L55 34Q96 37 121 43T161 63T180 100T185 162V835Q185 859 181 875T163 901T124 917T55 924L58 960Q74 960 97 960T148 959Q175 959 203 959T255 958Q274 958 298 958T346 959Q370 959 391 959T427 960L430 926Z"  />
<glyph unicode="M" horiz-adv-x="1272" d="M33 960Q45 960 74 960T140 959Q176 959 213 959T277 958Q295 915 313 873T351 788L637 158L914 801Q931 840 947 879T979 958Q998 958 1033 958T1106 959Q1144 959 1177 959T1224 960L1226 926Q1182 923 1156 917T1115 897T1097 859T1094 798L1115 125Q1116 101 1121 85T1141 59T1182 43T1253 36L1251 0Q1233 0 1209 0T1158 1Q1132 1 1105 1T1054 2Q1034 2 1013 2T970 1Q949 1 930 1T897 0L894 34Q930 37 951 43T984 64T998 101T1000 162L979 800Q891 597 806 398T635 -8L587 -14Q558 57 448 299T241 755L219 175Q217 128 221 102T238 62T275 44T337 36L335 0Q303 0 266 1T181 2Q143 2 102 1T25 0L22 34Q63 38 89 43T130 66T151 117T159 211L180 728Q181 764 180 789T175 833T164 865T146 889Q127 908 98 915T31 924L33 960Z"  />
<glyph unicode="N" horiz-adv-x="1098" d="M881 -14Q855 23 829 57T774 127L235 766V175Q235 128 240 102T261 62T301 44T368 36L366 0Q334 0 291 1T199 2Q161 2 120 1T43 0L40 34Q80 38 106 43T147 66T169 117T175 211V712Q175 754 174 780T170 822T160 850T144 873Q134 886 124 895T101 910T69 919T22 924L24 960Q36 960 59 960T112 959Q141 959 172 959T230 958L873 205V784Q873 831 868 857T847 897T806 915T739 923L741 959Q773 959 817 958T909 957Q928 957 949 957T990 958T1029 959T1062 960L1063 926Q1024 922 999 916T960 893T939 842T933 748V-4L881 -14Z"  />
<glyph unicode="O" horiz-adv-x="1122" d="M561 980Q670 980 761 946T918 847T1019 693T1056 490Q1056 379 1020 286T919 124T763 18T561 -20Q452 -20 361 14T205 113T103 267T66 470Q66 581 102 674T203 836T359 942T561 980ZM555 926Q486 926 423 904T311 831T233 702T204 508Q204 374 237 283T322 137T438 58T567 34Q636 34 699 56T811 129T889 258T918 452Q918 586 885 677T800 823T684 902T555 926Z"  />
<glyph unicode="P" horiz-adv-x="805" d="M300 127Q300 103 303 87T321 59T366 43T452 36L450 0Q396 0 337 1T230 2Q211 2 188 2T142 1Q120 1 100 1T66 0L64 34Q103 37 126 43T163 63T180 100T185 162V835Q185 859 181 875T165 901T127 917T60 924L62 960Q78 960 99 960T146 959Q171 959 197 959T247 958Q283 958 329 963T420 968Q491 968 555 954T668 908T746 824T775 695Q775 618 743 561T660 466T546 409T420 390Q382 390 351 395T300 408V127ZM300 458Q323 451 349 448T407 444Q446 444 487 456T561 496T617 572T639 690Q639 805 577 860T402 915Q367 915 347 911T317 899T303 876T300 841V458Z"  />
<glyph unicode="Q" horiz-adv-x="1121" d="M561 980Q670 980 761 946T918 847T1019 693T1056 491Q1056 393 1025 309T939 159T808 50T642 -8L640 -15Q698 -38 754 -63T864 -114Q925 -143 975 -163T1068 -197T1149 -217T1223 -224Q1268 -224 1311 -213T1405 -181L1423 -214Q1330 -272 1261 -300T1128 -329Q1095 -329 1064 -323T1000 -304T930 -269T847 -218Q767 -165 707 -129T600 -68T517 -30T447 -9Q363 8 293 49T173 151T94 293T66 471Q66 582 102 675T203 836T359 942T561 980ZM555 926Q486 926 423 904T311 832T233 703T204 509Q204 375 238 284T325 138T444 60T574 36Q643 36 705 58T815 130T890 259T918 453Q918 587 885 678T800 824T684 902T555 926Z"  />
<glyph unicode="R" horiz-adv-x="915" d="M300 127Q300 103 303 87T319 59T359 43T432 36L430 0Q382 0 330 1T230 2Q211 2 188 2T142 1Q120 1 100 1T66 0L64 34Q103 37 126 43T163 63T180 100T185 162V835Q185 859 181 875T165 901T127 917T60 924L62 960Q78 960 99 960T146 959Q171 959 197 959T247 958Q287 958 327 963T410 969Q470 969 530 959T638 923T717 853T747 739Q747 693 733 652T692 578T631 519T552 477Q584 416 615 360T672 258T720 176T756 121Q775 95 789 80T819 56T858 43T915 36L913 0Q883 0 835 1T741 2Q727 2 711 2T680 0Q670 21 649 61T599 155T535 272T462 400Q456 410 451 418T437 431T414 440T377 443H347Q339 443 328 443T300 445V127ZM300 493Q308 492 316 492T332 491H364Q482 491 546 545T611 720Q611 822 550 869T386 916Q355 916 338 911T312 894T302 867T300 831V493Z"  />
<glyph unicode="S" horiz-adv-x="707" d="M84 279Q104 227 126 183T180 107T254 56T355 37Q394 37 427 50T485 87T524 143T538 215Q538 264 520 299T472 359T404 404T326 441Q281 461 236 485T154 542T95 618T72 720Q72 783 97 831T166 913T267 963T390 980Q453 980 506 971T621 945Q618 913 616 886T614 832T613 778T612 718L570 714Q561 820 506 872T356 925Q320 925 290 914T238 882T204 832T191 767Q191 719 206 687T249 630T311 589T386 554Q434 533 482 508T569 449T632 370T656 264Q656 196 628 144T554 55T448 -1T325 -20Q270 -20 211 -9T86 21Q79 87 69 145T42 269L84 279Z"  />
<glyph unicode="T" horiz-adv-x="878" d="M437 958Q471 958 518 958T620 959Q675 959 734 959T853 960Q850 925 848 896T844 838T842 780T841 717L803 715Q794 769 784 806T753 866T699 900T609 910H495V125Q495 101 499 85T517 59T559 43T637 36L635 0Q614 0 588 0T533 1Q505 1 478 1T426 2Q406 2 383 2T335 1Q311 1 287 1T244 0L241 34Q287 37 315 43T357 63T375 100T380 162V910H269Q213 910 179 900T123 867T91 806T71 715L33 717V780Q33 825 32 866T25 960Q85 960 143 960T255 959Q309 959 355 959T437 958Z"  />
<glyph unicode="U" horiz-adv-x="1047" d="M284 329Q284 257 308 206T371 122T461 74T564 58Q618 58 667 74T754 127T814 221T837 360V780Q837 824 831 851T807 893T758 914T678 923L680 959Q715 959 764 958T868 957Q912 957 960 958T1040 960L1041 926Q997 922 970 917T926 895T903 848T897 763V340Q897 242 864 174T778 63T657 0T519 -20Q450 -20 387 -1T276 57T198 155T169 294V828Q169 852 165 869T146 897T104 915T32 923L34 959Q52 959 76 959T128 958Q156 958 184 958T238 957Q258 957 282 957T332 958Q357 958 379 958T419 959L422 925Q379 922 352 915T310 893T290 854T284 792V329Z"  />
<glyph unicode="V" horiz-adv-x="962" d="M360 926Q303 921 280 912T257 876Q257 865 260 851T270 819L507 158L751 805Q759 828 764 845T769 875Q769 888 764 896T745 910T710 919T655 924L657 960Q694 960 740 959T831 958Q868 958 907 959T984 960L987 926Q948 923 924 917T881 893T848 845T812 763Q734 567 658 378T505 -9L445 -15Q372 190 298 388T149 790Q133 833 121 858T93 896T53 915T-10 924L-8 960Q34 960 84 959T186 958Q228 958 271 959T357 960L360 926Z"  />
<glyph unicode="W" horiz-adv-x="1375" d="M478 164L670 643L622 790Q608 833 597 858T570 897T532 916T474 924L476 960Q518 960 568 959T670 958Q712 958 754 959T839 960L842 926Q780 921 755 911T730 874Q730 863 741 819L948 164L1166 804Q1183 858 1183 875Q1183 901 1157 910T1061 924L1063 960Q1108 960 1154 959T1245 958Q1282 958 1321 959T1398 960L1401 926Q1362 923 1337 917T1292 894T1258 847T1223 764Q1151 568 1084 378T947 -10L887 -15Q839 134 791 276T699 554Q674 495 644 421T584 271T526 121T477 -10L419 -15Q353 190 287 388T152 790Q138 833 126 858T98 897T57 916T-6 924L-4 960Q38 960 88 959T190 958Q232 958 274 959T359 960L362 926Q305 921 282 911T259 875Q259 864 262 851T271 819L478 164Z"  />
<glyph unicode="X" horiz-adv-x="966" d="M328 0Q297 0 247 1T151 2Q101 2 67 1T-2 0L-4 36Q38 38 66 46T118 73T164 118T215 186L422 475L200 800Q173 839 156 862T119 899T76 917T10 924L12 960Q27 960 50 960T101 959Q128 959 155 959T205 958Q251 958 299 959T378 960L381 926Q327 921 308 913T288 891Q288 877 308 848L497 571L675 830Q689 850 696 864T704 889Q704 905 684 913T612 926L615 960Q646 960 692 959T784 958Q830 958 861 959T924 960L926 924Q885 922 858 914T809 889T767 846T718 780L531 521L775 166Q803 125 823 101T864 62T911 43T980 36L978 0Q960 0 937 0T887 1Q861 1 834 1T781 2Q758 2 732 2T678 1Q652 1 629 1T591 0L586 33Q645 38 667 45T689 68Q689 83 670 111L457 423L257 130Q243 110 236 97T229 72Q229 55 252 47T333 33L328 0Z"  />
<glyph unicode="Y" horiz-adv-x="870" d="M380 314Q380 343 379 363T373 404T356 449T325 509Q298 557 260 625T162 791Q139 830 123 854T88 893T44 914T-20 924L-18 960Q24 960 74 959T176 958Q218 958 261 959T347 960L350 926Q296 922 276 913T255 886Q255 874 262 858T281 819L463 484L639 802Q655 831 663 850T672 884Q672 903 650 911T570 924L572 960Q609 960 650 959T736 958Q773 958 812 959T889 960L892 926Q853 923 828 916T782 892T743 846T695 770Q644 685 607 620T549 512Q528 471 517 446T501 402T496 366T495 323V125Q495 101 499 85T517 59T559 43T637 36L635 0Q614 0 588 0T533 1Q505 1 478 1T426 2Q406 2 383 2T335 1Q311 1 287 1T244 0L241 34Q287 37 315 43T357 63T375 100T380 162V314Z"  />
<glyph unicode="Z" horiz-adv-x="908" d="M50 16Q71 43 104 88T177 189T262 310T352 438T439 563T516 673T574 757T607 805L679 909H382Q323 909 286 904T225 880T187 821T161 715L123 717V782Q123 827 121 867T115 960Q184 960 251 960T377 959Q437 959 480 959T543 958H577Q600 958 630 958T692 959Q725 959 754 959T806 960H838L850 944Q832 921 801 878T729 778T644 658T554 528T465 401T387 289T328 205T296 159L222 53H585Q626 53 662 61T731 92T793 154T847 253L886 243Q862 166 849 101T834 0Q749 0 672 0T529 1Q465 1 417 1T342 2H305Q282 2 253 2T193 1Q163 1 136 1T87 0H59L50 16Z"  />
<glyph unicode="[" horiz-adv-x="499" d="M121 1038H381L385 1000Q323 995 288 990T236 970T215 931T211 861V-85Q211 -129 215 -154T236 -194T288 -213T385 -224L381 -262H121V1038Z"  />
<glyph unicode="\" horiz-adv-x="540" d="M476 -130L408 -141L92 990L161 1001L476 -130Z"  />
<glyph unicode="]" horiz-adv-x="499" d="M377 -263L118 -262L114 -224Q176 -219 211 -214T263 -194T284 -155T288 -85V861Q288 905 284 930T263 970T211 989T114 1000L118 1038L377 1037V-263Z"  />
<glyph unicode="^" horiz-adv-x="680" d="M366 970L636 420L572 413L339 899L108 413L44 420L315 965L366 970Z"  />
<glyph unicode="_" horiz-adv-x="1024" d="M1024 -171V-236H0V-171H1024Z"  />
<glyph unicode="`" horiz-adv-x="700" d="M378 648L375 642L340 636L185 881L190 892L295 901L378 648Z"  />
<glyph unicode="a" horiz-adv-x="620" d="M392 323Q393 330 393 340V413Q393 464 369 497T290 531Q261 531 241 521T207 493T187 454T180 408Q164 395 136 395Q113 395 93 405T72 437Q72 453 84 470T117 503T163 535T214 561Q281 590 346 590Q378 590 406 582T455 555T488 507T500 438Q500 378 498 300T496 125Q496 86 511 64T553 42Q577 42 605 59L623 32Q600 10 567 -4T499 -18Q464 -18 435 1T395 66Q385 59 364 45T316 17T258 -9T199 -20Q166 -20 139 -8T93 24T63 71T52 128Q52 179 81 215T159 272Q194 286 252 300T392 323ZM390 114Q390 156 391 196T392 278Q365 275 338 271T284 259T235 241T196 215Q171 193 171 158Q171 116 192 87T259 58Q291 58 326 73T390 114Z"  />
<glyph unicode="b" horiz-adv-x="722" d="M228 1073Q225 1048 223 1014T219 947T216 883T215 835V527Q263 559 311 574T404 590Q463 590 511 567T594 505T648 415T667 307Q667 234 640 174T567 71T457 4T321 -20Q270 -20 214 -9T106 29Q108 105 108 142V892Q108 921 105 938T92 966T62 981T10 991L6 1020Q29 1024 57 1031T113 1046T169 1063T217 1081L228 1073ZM215 123Q215 105 226 89T257 60T301 40T355 32Q404 32 440 52T500 107T535 184T547 274Q547 322 533 365T493 440T428 492T340 511Q311 511 280 504T215 478V123Z"  />
<glyph unicode="c" horiz-adv-x="584" d="M566 127Q549 92 522 65T463 19T394 -10T322 -20Q262 -20 212 3T126 66T70 156T50 265Q50 334 77 393T151 496T259 565T388 590Q421 590 454 584T520 561Q534 554 539 543T545 520Q545 502 531 483T485 447H480Q443 485 409 503T330 521Q288 521 257 504T204 459T172 395T161 319Q161 270 175 225T217 146T283 92T374 71Q422 71 466 91T537 153L566 127Z"  />
<glyph unicode="d" horiz-adv-x="733" d="M623 1073Q620 1048 618 1014T614 946T611 882T610 834V150Q610 121 613 105T627 79T659 66T717 56L721 28Q689 23 656 18T595 6T545 -5T513 -14L503 -6V59Q454 18 405 0T305 -19Q253 -19 207 1T127 57T72 144T52 259Q52 331 79 391T154 496T265 565T400 590Q414 590 444 588T503 578V910Q503 938 500 954T486 980T453 995T394 1006L391 1034Q428 1040 464 1047T530 1060T582 1072T613 1081L623 1073ZM503 477Q476 508 438 523T361 538Q313 538 278 518T220 465T186 389T174 300Q174 253 186 210T224 133T285 80T369 60Q411 60 444 72T503 106V477Z"  />
<glyph unicode="e" horiz-adv-x="604" d="M559 111Q527 69 493 44T428 4T371 -15T330 -20Q268 -20 216 3T127 66T69 159T48 273Q48 340 72 397T137 498T231 565T340 590Q385 590 425 576T496 534T544 469T562 384V370L561 356Q556 329 533 329H155Q156 260 176 211T227 131T298 86T375 71Q416 71 453 85T531 140L559 111ZM411 374Q431 374 437 381T443 407Q443 434 434 458T408 500T366 528T310 538Q286 538 262 527T217 495T181 444T159 374H411Z"  />
<glyph unicode="f" horiz-adv-x="417" d="M247 503V114Q247 89 252 74T271 52T310 41T378 37L375 0Q359 0 337 0T290 1Q265 1 239 1T188 2Q149 2 110 1T43 0L40 32Q73 35 92 40T122 59T136 94T140 155V503H45L38 510L42 548L140 556V712Q140 806 167 876T242 994Q284 1036 336 1056T448 1076Q463 1076 482 1073T519 1063T548 1042T560 1008Q560 976 544 962T496 937Q471 960 435 977T363 995Q343 995 325 989T292 968Q275 951 266 926T253 872T248 812T247 751V558L412 561L420 554L417 503H247Z"  />
<glyph unicode="g" horiz-adv-x="682" d="M67 353Q67 403 87 446T142 522T222 572T317 590Q397 590 455 556Q466 549 475 547T498 544Q509 545 514 545L667 556L674 548L668 490H527Q568 437 568 373Q568 314 545 269T484 194T401 148T311 132Q272 132 228 142Q205 131 190 110T174 69Q174 55 184 45T210 27T243 17T275 14Q314 14 356 15T436 17Q476 17 516 10T588 -17T641 -71T661 -157Q661 -220 633 -275T555 -371T436 -435T283 -459Q240 -459 195 -448T112 -413T52 -354T28 -270Q28 -236 41 -208T75 -155T122 -111T174 -73Q133 -58 104 -33T74 30Q74 47 85 66T113 103T147 136T178 162Q67 218 67 353ZM334 -85Q301 -85 280 -85T244 -89T219 -98T196 -114Q165 -140 150 -172T135 -240Q135 -281 155 -309T206 -354T275 -380T349 -388Q394 -388 434 -379T504 -348T551 -294T569 -215Q569 -173 551 -145T499 -103Q470 -90 435 -88T354 -85H334ZM327 176Q359 176 382 191T419 230T441 284T448 343Q448 379 441 415T417 481T374 528T308 546Q275 546 252 532T215 493T194 440T187 380Q187 346 195 310T219 244T262 195T327 176Z"  />
<glyph unicode="h" horiz-adv-x="769" d="M254 1073Q250 1048 248 1014T244 946T241 882T240 834V509Q291 543 351 566T468 590Q504 590 536 579T592 544T630 480T644 383V114Q644 90 646 76T659 53T689 42T743 37L741 0Q709 0 668 1T578 2Q539 2 504 1T441 0L438 32Q469 35 488 40T518 56T532 89T536 149V360Q536 441 500 476T407 511Q369 511 326 498T240 459V114Q240 90 243 76T256 53T285 42T338 37L335 0Q303 0 264 1T176 2Q137 2 100 1T35 0L33 32Q66 35 85 41T116 59T130 94T134 155V900Q134 929 131 945T117 971T85 985T30 996L27 1025Q55 1030 86 1037T147 1051T201 1066T243 1081L254 1073Z"  />
<glyph unicode="i" horiz-adv-x="375" d="M355 0Q323 0 278 1T185 2Q146 2 109 1T44 0L42 32Q75 35 94 40T125 59T139 94T143 155V418Q143 446 140 462T128 487T100 501T51 511L48 540Q79 546 110 552T169 566T218 579T251 590L261 582Q258 557 256 529T253 474T252 422T251 379V114Q251 90 254 76T267 53T299 42T357 37L355 0ZM122 830Q122 863 142 883T195 904Q230 904 250 884T271 830Q271 797 251 777T195 756Q162 756 142 776T122 830Z"  />
<glyph unicode="j" horiz-adv-x="349" d="M256 582Q253 557 251 528T248 471T246 417T245 374V118Q245 67 245 24T246 -50V-91Q246 -136 238 -176T218 -248Q195 -305 139 -362T6 -464L-18 -428Q42 -386 74 -340T120 -241T136 -129T138 0V418Q138 446 135 462T123 487T95 501T46 511L43 540Q74 546 105 552T164 566T213 579T246 590L256 582ZM116 830Q116 863 136 883T189 904Q224 904 244 884T265 830Q265 797 245 777T189 756Q156 756 136 776T116 830Z"  />
<glyph unicode="k" horiz-adv-x="725" d="M260 293Q240 293 240 285V114Q240 90 242 76T254 53T283 42T336 37L334 0Q302 0 263 1T176 2Q137 2 97 1T28 0L26 32Q61 35 82 40T115 59T130 94T134 155V902Q134 931 131 947T118 973T87 987T33 998L29 1027Q58 1033 89 1040T150 1054T203 1068T243 1081L254 1073Q250 1047 247 1014T243 946T241 882T240 834V339Q240 334 243 333T258 331Q283 331 305 344T357 388L410 445Q435 472 445 486T456 509Q456 522 439 528T393 538L396 568H415Q428 568 441 568T467 567H524Q552 567 587 567T674 571L677 537Q656 534 638 532T602 524T566 510T528 485Q483 450 450 416T398 362Q386 350 386 344Q386 337 393 330L532 166Q568 124 590 99T631 61T671 44T725 37L723 0Q696 0 651 1T555 2Q519 2 486 1T424 0L422 32Q447 35 464 38T482 56Q482 64 477 71T461 91L305 274Q296 284 284 288T260 293Z"  />
<glyph unicode="l" horiz-adv-x="367" d="M254 1073Q250 1047 247 1014T243 946T241 882T240 834V114Q240 90 243 76T257 53T289 42T347 37L345 0Q313 0 269 1T176 2Q137 2 99 1T33 0L30 32Q64 35 84 40T116 59T130 94T134 155V902Q134 931 131 947T117 973T86 987T30 998L27 1027Q57 1033 89 1040T150 1054T204 1068T243 1081L254 1073Z"  />
<glyph unicode="m" horiz-adv-x="1148" d="M346 0Q314 0 274 1T186 2Q147 2 109 1T42 0L39 32Q73 35 93 41T125 59T140 94T144 155V414Q144 442 141 458T129 483T101 498T52 508L49 536Q74 541 102 548T158 562T208 577T247 590L259 582Q256 561 254 541T252 499Q304 542 362 566T473 590Q523 590 562 566T622 487Q679 536 740 563T859 590Q893 590 923 579T976 542T1011 479T1024 385V114Q1024 90 1027 76T1039 53T1068 42T1119 37L1117 0Q1085 0 1047 1T961 2Q922 2 887 1T823 0L820 32Q851 35 870 40T899 56T912 89T915 149V360Q915 440 882 475T796 511Q759 511 717 494T633 448Q635 434 636 420T638 389V114Q638 90 641 76T653 53T682 42T733 37L731 0Q699 0 661 1T575 2Q536 2 501 1T437 0L434 32Q465 35 484 40T513 56T526 89T529 149V360Q529 440 496 475T410 511Q375 511 334 496T252 452V114Q252 90 254 76T267 53T296 42T349 37L346 0Z"  />
<glyph unicode="n" horiz-adv-x="778" d="M346 0Q314 0 274 1T186 2Q147 2 109 1T42 0L39 32Q73 35 93 41T125 59T140 94T144 155V414Q144 442 141 458T129 483T101 498T52 508L49 536Q74 541 102 548T158 562T208 577T247 590L259 582Q256 561 254 541T252 499Q306 542 366 566T482 590Q518 590 549 579T604 542T640 479T654 385V114Q654 90 657 76T669 53T698 42T749 37L747 0Q715 0 677 1T590 2Q551 2 516 1T452 0L449 32Q480 35 499 40T528 56T541 89T544 149V360Q544 440 509 475T419 511Q381 511 338 496T252 452V114Q252 90 254 76T267 53T296 42T349 37L346 0Z"  />
<glyph unicode="o" horiz-adv-x="711" d="M54 279Q54 343 77 400T141 499T237 565T355 590Q423 590 479 567T574 503T635 408T657 291Q657 226 634 170T570 71T474 5T355 -20Q287 -20 232 3T137 67T76 162T54 279ZM368 29Q412 29 443 50T495 104T525 178T535 260Q535 308 525 358T491 448T432 515T343 541Q298 541 267 521T215 467T186 393T176 311Q176 265 187 215T221 124T280 56T368 29Z"  />
<glyph unicode="p" horiz-adv-x="742" d="M243 582Q241 565 239 552T238 514Q284 554 332 572T427 590Q479 590 526 569T610 511T667 423T689 311Q689 238 662 177T587 73T476 5T341 -20Q334 -20 323 -19T297 -16T268 -11T237 -2V-327Q237 -351 240 -366T257 -389T298 -402T374 -408L372 -445Q356 -445 332 -445T280 -444Q253 -444 225 -444T173 -443Q134 -443 96 -444T30 -445L27 -413Q61 -410 81 -404T113 -386T127 -351T131 -290V414Q131 442 128 458T114 483T83 498T27 508L24 536Q54 542 85 549T144 563T195 578T231 590L243 582ZM238 93Q265 62 303 49T380 36Q428 36 463 55T521 106T555 181T567 269Q567 316 554 359T517 436T456 490T372 510Q289 510 238 467V93Z"  />
<glyph unicode="q" horiz-adv-x="721" d="M626 574Q623 548 621 516T617 453T614 393T613 347V-330Q613 -354 616 -368T629 -391T661 -402T718 -407L715 -444Q683 -444 640 -443T548 -442Q529 -442 506 -442T460 -443Q437 -443 417 -443T382 -444L379 -412Q424 -409 449 -403T487 -385T503 -350T506 -289V49Q455 13 406 -3T308 -19Q250 -19 203 3T122 62T70 151T52 260Q52 333 79 393T155 497T267 565T403 590Q429 590 472 584T557 564Q571 567 588 572T616 582L626 574ZM506 476Q477 507 439 522T358 538Q327 538 295 525T235 484T191 410T174 298Q174 239 191 195T237 119T301 73T372 57Q408 57 442 66T506 99V476Z"  />
<glyph unicode="r" horiz-adv-x="512" d="M377 0Q361 0 339 0T290 1Q264 1 237 1T186 2Q147 2 111 1T47 0L44 32Q77 35 96 40T126 59T140 94T144 155V414Q144 442 141 458T129 483T100 498T49 508L46 536Q73 541 102 547T158 561T208 576T247 590L259 582Q254 551 253 521T252 460Q284 499 310 524T359 564T399 584T436 590Q462 590 484 577T506 534Q506 514 486 490T433 446Q415 462 396 470T353 479Q330 479 303 459T259 401Q254 390 253 382T252 359V114Q252 90 255 76T272 53T310 42T379 37L377 0Z"  />
<glyph unicode="s" horiz-adv-x="522" d="M417 400Q414 431 402 457T369 503T321 532T263 543Q244 543 227 537T196 520T174 493T166 455Q166 430 178 412T211 379T258 353T313 331Q344 318 374 304T429 270T467 223T482 159Q482 112 462 79T410 23T338 -9T256 -20Q230 -20 204 -16T154 -7Q133 -2 114 2T71 9Q70 26 68 52T62 105T56 156T48 195L82 204Q96 170 113 138T153 82T207 42T278 27Q317 27 347 48T377 114Q377 139 366 158T335 193T291 219T239 242Q208 255 178 269T123 303T84 350T69 415Q69 461 88 494T138 548T208 580T286 590Q326 590 365 582T455 572Q452 540 451 512T450 450V401L417 400Z"  />
<glyph unicode="t" horiz-adv-x="434" d="M231 780Q229 756 228 725T225 662T224 603T223 558L394 561L402 554L399 503H223V181Q223 142 230 117T251 77T283 57T322 51Q344 51 368 56T415 66L422 30Q383 11 338 -2T251 -16Q222 -16 198 -9T154 17T125 64T114 137V164Q114 182 114 222T115 329V503H25L18 510L22 549L115 556V639Q115 664 115 690T114 740Q129 746 145 752T176 765T202 776T220 786L231 780Z"  />
<glyph unicode="u" horiz-adv-x="755" d="M509 -6Q511 12 512 36T513 79Q461 32 402 6T287 -20Q250 -20 219 -8T165 29T129 95T116 191V430Q116 458 113 474T101 499T74 513T27 523L25 552Q57 556 88 561T147 571T195 581T227 590L237 582Q234 557 233 529T230 473T228 422T227 379V229Q227 182 236 150T262 97T300 69T347 60Q388 60 431 77T513 124V430Q513 458 510 474T497 499T468 513T415 523L413 552Q447 556 480 561T542 571T591 581T621 590L632 582Q629 557 627 529T624 473T622 422T621 379V146Q621 117 624 101T637 76T668 63T723 53L727 24Q697 21 666 17T606 7T554 -4T519 -14L509 -6Z"  />
<glyph unicode="v" horiz-adv-x="644" d="M295 -19Q252 102 206 214T111 438Q98 468 88 486T64 514T32 528T-16 534L-14 571Q19 571 60 570T146 569Q185 569 217 570T279 571L281 538Q241 533 225 526T209 502Q209 494 212 483T221 457L349 138L484 459Q489 472 492 482T496 501Q496 517 479 526T416 537L418 571Q449 571 479 570T555 569Q590 569 616 570T668 571L670 539Q640 535 622 530T591 515T566 486T540 438Q522 403 500 355T452 249T398 124T341 -15L295 -19Z"  />
<glyph unicode="w" horiz-adv-x="975" d="M735 571Q766 571 799 570T879 569Q914 569 940 570T992 571L994 539Q964 535 946 531T916 518T895 492T873 445Q857 406 837 355T795 243T748 118T699 -15L659 -19Q617 92 575 196T488 415Q445 309 403 206T317 -15L277 -19Q238 99 199 216T117 445Q106 473 98 490T79 516T51 528T4 534L6 571Q39 571 75 570T156 569Q195 569 232 570T299 571L301 538Q255 534 237 527T219 499Q219 477 226 464Q250 389 276 310T330 154Q368 245 410 346T497 556L541 561Q580 461 620 359T708 154Q721 188 735 226T764 305T791 384T816 459Q824 491 824 496Q824 517 804 524T733 537L735 571Z"  />
<glyph unicode="x" horiz-adv-x="673" d="M311 538Q283 536 271 531T259 514Q259 502 272 483L358 357L438 474Q454 496 454 510Q454 532 398 537L400 571Q432 571 465 570T531 569Q563 569 591 570T651 571L653 539Q620 535 597 530T555 513T517 484T476 435L385 317L514 129Q534 100 548 83T579 56T615 43T668 37L666 0Q634 0 592 1T511 2Q473 2 437 1T372 0L370 32Q428 36 428 60Q428 71 411 97L315 237L225 105Q207 79 207 64Q207 50 222 43T272 34L270 0Q238 0 201 1T132 2Q100 2 72 1T12 0L10 32Q39 35 60 40T98 55T133 83T171 127L287 278L166 455Q149 480 137 495T111 518T78 529T28 534L30 571Q62 571 101 570T177 569Q209 569 244 570T309 571L311 538Z"  />
<glyph unicode="y" horiz-adv-x="661" d="M687 539Q657 535 639 530T608 515T583 486T557 438Q534 392 507 332T452 203T394 63T338 -80Q318 -129 297 -180T252 -278T205 -360T157 -416Q107 -458 56 -458Q30 -458 11 -442T-9 -398Q-9 -376 3 -360T36 -332Q47 -334 56 -335T73 -337Q96 -337 116 -331T153 -308Q189 -270 223 -201T293 -41L295 -33L292 -19Q272 35 249 95T203 215T156 332T111 438Q98 468 88 486T64 514T32 528T-16 534L-14 571Q19 571 60 570T146 569Q185 569 217 570T279 571L281 538Q241 533 225 526T209 502Q209 494 212 483T221 457L354 111L500 459Q511 494 511 499Q511 518 494 526T432 537L434 571Q465 571 495 570T571 569Q606 569 633 570T685 571L687 539Z"  />
<glyph unicode="z" horiz-adv-x="605" d="M42 16Q76 62 119 120T203 236T280 341T332 415L407 524H292Q244 524 214 520T166 501T136 460T115 390L82 391Q82 445 81 486T76 570H203Q254 570 288 570T345 569H388Q404 569 425 569T469 570Q491 570 511 570T546 571L558 555Q524 509 481 450T397 333T322 229T273 159L195 46H358Q398 46 425 53T474 76T512 119T551 186L585 177Q573 133 564 84T552 0H412Q358 0 322 0T260 1H167Q145 1 123 1T82 0H51L42 16Z"  />
<glyph unicode="{" horiz-adv-x="499" d="M31 406Q80 409 108 422T150 455T169 496T173 538Q173 575 170 614T163 694T156 772T153 846Q153 912 174 951T230 1010T304 1036T382 1042L384 1005Q338 1002 311 989T269 955T250 911T245 862Q245 828 248 794T256 724T264 654T268 583Q268 551 263 522T242 468T201 422T135 385Q175 372 201 352T242 307T262 252T268 191Q268 156 265 121T257 50T249 -20T245 -89Q245 -113 249 -137T268 -181T310 -214T384 -231L382 -268Q344 -268 304 -262T230 -236T175 -177T153 -72Q153 -37 156 1T163 80T170 159T173 236Q173 256 169 278T150 319T106 351T27 368L31 406Z"  />
<glyph unicode="|" horiz-adv-x="385" d="M225 -463L160 -467V1101L225 1107V-463Z"  />
<glyph unicode="}" horiz-adv-x="499" d="M468 368Q419 365 391 352T349 319T330 278T326 236Q326 199 329 160T336 80T343 2T346 -72Q346 -138 325 -177T269 -236T195 -262T117 -268L115 -231Q161 -228 188 -215T230 -181T249 -137T254 -88Q254 -54 251 -20T243 50T235 120T231 191Q231 222 236 251T257 306T297 352T364 389Q323 402 298 422T257 467T237 522T231 583Q231 618 234 653T242 724T250 793T254 863Q254 887 250 911T231 955T189 988T115 1005L117 1042Q154 1042 194 1036T269 1010T324 951T346 846Q346 811 343 773T336 694T329 615T326 538Q326 518 330 496T349 455T393 423T472 406L468 368Z"  />
<glyph unicode="~" horiz-adv-x="680" d="M46 239Q62 302 105 339T209 376Q251 376 286 361T355 326Q386 309 416 295T479 281Q521 281 542 307T578 375L634 352Q618 289 575 252T471 215Q429 215 394 230T325 265Q294 282 264 296T201 310Q159 310 138 284T102 216L46 239Z"  />
<glyph unicode="&#xA0;" horiz-adv-x="413" />
<glyph unicode="&#xA1;" horiz-adv-x="388" d="M107 -372L100 -365Q112 -293 122 -204T141 -22T157 158T169 317L213 322Q216 256 221 166T232 -20T244 -204T257 -356L107 -372ZM268 510Q268 477 246 454T191 430Q159 430 137 453T114 510Q114 543 136 566T191 590Q223 590 245 567T268 510Z"  />
<glyph unicode="&#xA2;" horiz-adv-x="680" d="M398 680V588L408 589H424Q459 589 494 584T563 561Q577 554 582 543T588 520Q588 502 576 485T531 451H526Q494 480 464 497T398 519V65Q453 65 501 83T580 147L609 121Q578 64 521 29T398 -16V-105L340 -111V-18Q279 -15 229 9T143 71T87 160T67 265Q67 323 88 375T145 468T232 538T340 581V675L398 680ZM340 520Q299 516 269 498T218 452T187 389T176 316Q176 274 187 235T219 164T270 108T340 73V520Z"  />
<glyph unicode="&#xA3;" horiz-adv-x="680" d="M626 204Q619 181 612 154T599 100T590 52T586 16Q551 1 513 -9T436 -20Q380 -20 342 -7T274 21T216 50T153 63Q116 63 89 45T36 -3L5 31Q63 80 95 123T143 204T162 271T166 324Q166 338 165 352T163 383H46L39 390L48 430L158 433Q153 467 150 499T147 561Q147 597 159 636T193 712T245 783T314 842T396 882T488 897Q498 897 512 895T538 885T559 867T568 837Q568 803 553 788T513 761Q494 786 462 798T399 811Q364 811 339 795T297 751T274 691T266 623Q266 585 274 539T284 438L503 446L511 439L502 383H284Q280 325 254 267T167 148L169 144Q178 148 207 148Q238 148 267 137T327 113T387 89T448 78Q476 78 498 90T536 121T565 165T588 213L626 204Z"  />
<glyph unicode="&#xA4;" horiz-adv-x="680" d="M624 686L525 600Q551 569 565 531T580 447Q580 402 566 364T525 295L607 217L564 152L478 251Q449 230 414 219T340 207Q300 207 265 219T202 252L120 167L55 210L154 296Q100 359 100 447Q100 535 154 598L71 677L114 742L200 642Q229 664 264 675T340 687Q378 687 413 676T477 644L559 729L624 686ZM504 448Q504 485 492 517T459 574T407 612T340 626Q303 626 273 612T222 574T188 518T176 448Q176 411 188 379T221 323T273 285T340 271Q377 271 407 285T458 323T492 379T504 448Z"  />
<glyph unicode="&#xA5;" horiz-adv-x="680" d="M70 414H264Q243 459 227 490T193 550T157 609T112 683Q89 722 73 746T39 784T-1 805T-56 814L-54 850Q-20 850 27 849T125 848Q167 848 203 849T274 850L277 816Q235 812 216 803T197 776Q197 764 204 747T223 709L356 474L483 695Q502 727 508 744T515 775Q515 792 494 801T427 814L429 850Q447 850 463 850T495 849Q512 849 530 849T571 848Q608 848 642 849T714 850L717 816Q681 813 658 806T616 783T577 737T529 662Q505 622 486 590T452 530T422 473T394 414H591L587 362H386V272H580L576 220H386V125Q386 101 390 85T408 59T450 43T528 36L526 0Q505 0 479 0T424 1Q397 1 370 1T319 2Q299 2 276 2T229 1Q205 1 182 1T139 0L136 34Q182 37 210 43T252 63T270 100T275 162V220H85L81 272H275V362H74L70 414Z"  />
<glyph unicode="&#xA6;" horiz-adv-x="449" d="M180 210H269V-320H180V210ZM180 960H269V430H180V960Z"  />
<glyph unicode="&#xA7;" horiz-adv-x="792" d="M682 212Q682 179 675 150T655 93T620 37T571 -21Q582 -46 582 -70Q582 -114 557 -159T494 -241T408 -301T317 -325Q300 -325 280 -321T243 -307T215 -282T203 -245Q203 -220 222 -207T268 -190Q290 -210 319 -222T379 -235Q404 -235 425 -226T462 -202T487 -164T496 -116Q496 -95 487 -75Q482 -66 476 -58T462 -41Q427 -6 388 32T310 109T235 189T171 270Q139 316 120 359T100 443Q100 476 106 505T126 561T159 617T208 677Q195 706 195 734Q195 774 220 817T285 897T371 956T460 980Q482 980 504 975T545 960T574 936T585 904Q585 880 567 864T514 842Q494 861 462 875T400 890Q376 890 355 883T317 862T291 828T281 782Q281 739 315 705Q350 670 390 631T469 551T545 469T611 387Q643 341 662 297T682 212ZM598 139Q598 179 579 221T531 306Q508 339 480 372T423 436T364 496T311 549Q290 570 270 591T233 636Q216 620 200 591T184 516Q184 476 203 435T251 351Q274 318 301 286T357 224T414 167T466 115Q488 93 509 70T548 21Q565 38 581 66T598 139Z"  />
<glyph unicode="&#xA8;" horiz-adv-x="700" d="M477 718Q450 718 431 737T412 784Q412 812 431 831T477 850Q505 850 524 831T543 784Q543 757 524 738T477 718ZM222 718Q195 718 176 737T157 784Q157 811 176 830T222 850Q250 850 269 831T288 784Q288 757 269 738T222 718Z"  />
<glyph unicode="&#xA9;" horiz-adv-x="1170" d="M100 481Q100 580 138 666T243 817T397 918T586 955Q685 955 773 918T927 817T1031 667T1070 481Q1070 381 1032 295T927 144T773 42T586 5Q486 5 398 42T243 143T139 294T100 481ZM164 480Q164 391 197 314T288 179T421 88T585 55Q672 55 748 88T882 178T972 313T1006 480Q1006 569 973 646T882 781T749 872T585 905Q498 905 422 872T288 782T198 647T164 480ZM735 589Q731 649 698 677T617 705Q570 705 534 690T473 646T436 578T423 491Q423 444 435 403T471 330T530 280T613 262Q639 262 663 269T706 295Q723 311 735 336T760 392L791 384Q782 346 777 314T768 245Q723 233 681 226T594 218Q532 218 480 236T389 288T330 370T308 477Q308 544 334 594T404 679T506 729T630 746Q664 746 702 741T774 727Q771 692 770 660T769 592L735 589Z"  />
<glyph unicode="&#xAA;" horiz-adv-x="534" d="M519 427Q501 410 476 399T424 388Q395 388 374 400T339 449Q331 444 314 434T275 413T228 394T180 386Q153 386 131 395T94 420T69 456T60 500Q60 540 83 568T145 611Q174 622 221 632T332 649L333 661V711Q333 747 315 770T259 794Q217 794 200 768T181 707Q168 697 138 697Q116 697 96 705T75 730Q75 747 97 768T152 807T222 837T292 850Q318 850 342 844T384 823T414 788T425 736Q425 691 424 632T423 500Q423 439 466 439Q481 439 504 453L519 427ZM330 494Q330 523 331 551T332 607Q313 605 293 602T255 594T220 582T193 565Q175 547 175 525Q175 496 190 476T237 456Q260 456 285 466T330 494Z"  />
<glyph unicode="&#xAB;" horiz-adv-x="657" d="M557 499L426 285L557 71L525 51Q468 121 417 178T320 278V292Q365 334 416 391T525 519L557 499ZM337 499L206 285L337 71L305 51Q248 121 197 178T100 278V292Q145 334 196 391T305 519L337 499Z"  />
<glyph unicode="&#xAC;" horiz-adv-x="680" d="M610 328V10L544 5V262H61L66 328H610Z"  />
<glyph unicode="&#xAD;" horiz-adv-x="435" d="M409 309L40 276L30 286L41 351L407 348L409 309Z"  />
<glyph unicode="&#xAE;" horiz-adv-x="1170" d="M100 481Q100 580 138 666T243 817T397 918T586 955Q685 955 773 918T927 817T1031 667T1070 481Q1070 381 1032 295T927 144T773 42T586 5Q486 5 398 42T243 143T139 294T100 481ZM164 480Q164 391 197 314T288 179T421 88T585 55Q672 55 748 88T882 178T972 313T1006 480Q1006 569 973 646T882 781T749 872T585 905Q498 905 422 872T288 782T198 647T164 480ZM521 304Q521 291 523 283T532 269T553 260T591 256L589 228Q565 228 537 228T466 229Q437 229 407 229T362 228L360 256Q381 257 394 260T415 271T426 290T429 321V661Q429 686 416 695T358 707L360 736Q377 736 407 736T467 735Q494 735 522 737T580 739Q611 739 646 735T710 718T758 682T778 620Q778 569 747 533T671 480Q687 450 702 422T731 369T754 327T772 299Q781 286 789 278T807 266T831 259T865 256L863 228Q842 228 809 228T743 229H710L700 228Q695 238 686 258T663 306T632 365T594 432Q586 445 580 450T556 456H521V304ZM521 493H555Q607 493 640 523T673 611Q673 656 643 677T567 699Q541 699 531 688T521 652V493Z"  />
<glyph unicode="&#xAF;" horiz-adv-x="700" d="M543 731H157L153 792H547L543 731Z"  />
<glyph unicode="&#xB0;" horiz-adv-x="529" d="M60 775Q60 817 76 854T120 919T185 963T264 980Q306 980 343 964T409 920T453 855T469 775Q469 733 453 696T409 631T344 587T264 571Q222 571 185 587T120 630T76 695T60 775ZM120 775Q120 744 131 717T161 670T207 638T264 626Q294 626 320 637T366 669T397 717T409 775Q409 806 398 833T367 881T321 913T264 925Q234 925 208 913T162 881T131 834T120 775Z"  />
<glyph unicode="&#xB1;" horiz-adv-x="680" d="M373 322V130L307 125V322H61L66 388H307V580L373 585V388H620L615 322H373ZM60 10L65 76H620L615 10H60Z"  />
<glyph unicode="&#xB2;" horiz-adv-x="525" d="M75 789Q75 829 74 861T70 925Q106 951 152 965T246 980Q282 980 319 970T388 939T438 887T458 816Q458 775 444 742T406 681T354 626T296 573L163 453L376 457Q389 457 399 459T418 469T437 491T459 530L490 521Q485 504 480 485T471 445T463 407T459 375Q390 375 347 375T275 376Q247 376 228 376T190 377Q176 377 154 377T110 376Q88 376 69 376T41 375L34 396L199 552Q241 592 276 629T331 705Q340 723 345 745T351 790Q351 843 316 875T228 907Q177 907 146 874T111 787L75 789Z"  />
<glyph unicode="&#xB3;" horiz-adv-x="525" d="M72 808Q72 846 72 875T69 933Q114 955 157 967T253 980Q281 980 314 974T377 952T425 914T444 857Q444 812 418 779T351 717Q411 700 445 657T479 556Q479 502 456 463T396 397T310 359T213 346Q191 346 161 350T104 366T58 396T39 442Q39 462 58 477T107 497Q124 452 160 426T242 399Q269 399 292 409T331 437T356 479T365 532Q365 598 327 629T223 660Q207 660 191 658T158 652L151 693Q181 698 214 705T275 726T321 763T340 822Q340 844 331 861T307 891T272 909T231 915Q181 915 146 886T108 806L72 808Z"  />
<glyph unicode="&#xB4;" horiz-adv-x="700" d="M405 901L510 892L515 881L360 636L325 642L322 648L405 901Z"  />
<glyph unicode="&#xB5;" horiz-adv-x="716" d="M95 430Q95 452 95 468T94 499T92 529T90 567Q128 573 160 579T204 590L215 582Q212 556 210 528T207 473T205 422T204 379V233Q204 188 214 157T241 105T280 76T327 67Q367 67 406 87T475 139V430Q475 452 475 468T474 499T472 529T470 567Q508 573 540 579T583 590L594 582Q591 556 589 528T586 473T584 422T583 379V125Q583 45 637 45Q660 45 689 62L707 31Q684 9 652 -4T586 -18Q569 -18 552 -14T520 1T494 30T479 78Q459 60 436 42T388 11T337 -11T285 -20Q253 -20 222 -6T162 43L156 40Q158 -25 163 -80T180 -186T212 -285T265 -385Q255 -411 235 -428T185 -446Q170 -446 160 -440T142 -423T131 -400T123 -374Q109 -305 102 -211T95 -17V430Z"  />
<glyph unicode="&#xB6;" horiz-adv-x="879" d="M434 200Q357 215 293 248T181 331T107 442T80 577Q80 659 109 730T200 854T361 937T600 968Q637 968 675 967T756 960L759 926Q727 924 707 920T674 909T655 897T646 885Q620 831 602 763T572 622T555 481T549 356Q549 291 554 217T575 66T619 -89T692 -242Q684 -270 662 -289T612 -308Q582 -308 568 -288T547 -241Q534 -194 524 -132T506 -2T495 138T491 274Q491 359 496 441T514 604T549 762T605 916H546Q488 786 460 633T432 291Q432 269 432 246T434 200Z"  />
<glyph unicode="&#xB7;" horiz-adv-x="342" d="M90 327Q90 344 96 359T114 386T139 404T171 411Q187 411 202 405T228 387T245 360T252 327Q252 310 246 295T228 268T202 250T171 243Q154 243 140 249T114 267T97 294T90 327Z"  />
<glyph unicode="&#xB8;" horiz-adv-x="700" d="M389 -2Q360 -17 349 -31T337 -59Q337 -73 349 -87T376 -117Q392 -134 406 -151T420 -185Q420 -203 407 -229T372 -279T321 -319T261 -336Q250 -336 238 -333T216 -322T198 -305T191 -280Q191 -263 207 -247T240 -226Q256 -248 273 -260T312 -272Q342 -272 342 -241Q342 -223 330 -208T302 -176Q285 -159 271 -143T257 -109Q257 -91 276 -64T350 2L389 -2Z"  />
<glyph unicode="&#xB9;" horiz-adv-x="525" d="M83 900Q147 916 207 935T327 975L334 969Q332 951 331 931T329 890T328 852T327 822V477Q327 460 329 448T343 427T376 415T440 409L439 375Q428 375 414 375T380 376Q361 376 336 376T276 377Q209 377 167 376T105 375L103 408Q147 409 172 413T210 429T226 460T229 512V881L91 861L83 900Z"  />
<glyph unicode="&#xBA;" horiz-adv-x="596" d="M60 614Q60 663 78 706T129 781T204 831T297 850Q351 850 395 832T471 783T519 711T536 622Q536 573 518 530T467 455T391 405T297 386Q243 386 200 404T125 452T77 524T60 614ZM307 430Q338 430 361 445T398 485T420 539T427 600Q427 635 420 671T396 738T353 787T290 806Q258 806 235 791T198 752T177 698T170 637Q170 603 178 567T202 500T245 450T307 430Z"  />
<glyph unicode="&#xBB;" horiz-adv-x="657" d="M557 278Q512 236 461 179T352 51L320 71L451 285L320 499L352 519Q409 449 460 392T557 292V278ZM337 278Q292 236 241 179T132 51L100 71L231 285L100 499L132 519Q189 449 240 392T337 292V278Z"  />
<glyph unicode="&#xBC;" horiz-adv-x="1250" d="M83 900Q147 916 207 935T327 975L334 969Q332 951 331 931T329 890T328 852T327 822V477Q327 460 329 448T343 427T376 415T440 409L439 375Q428 375 414 375T380 376Q361 376 336 376T276 377Q209 377 167 376T105 375L103 408Q147 409 172 413T210 429T226 460T229 512V881L91 861L83 900ZM975 979L323 -54L275 -21L923 1011L975 979ZM930 110L657 109L643 143Q685 195 731 255T824 375T914 493T994 598L1036 589Q1032 558 1030 527T1028 459V178L1109 179L1118 170L1114 109H1028V-13Q1003 -14 980 -15T928 -19Q929 0 929 14T930 36V110ZM926 434Q875 371 829 308T731 173L930 177L926 434Z"  />
<glyph unicode="&#xBD;" horiz-adv-x="1250" d="M83 900Q147 916 207 935T327 975L334 969Q332 951 331 931T329 890T328 852T327 822V477Q327 460 329 448T343 427T376 415T440 409L439 375Q428 375 414 375T380 376Q361 376 336 376T276 377Q209 377 167 376T105 375L103 408Q147 409 172 413T210 429T226 460T229 512V881L91 861L83 900ZM975 979L323 -54L275 -21L923 1011L975 979ZM800 416Q800 456 799 488T795 552Q831 578 877 592T971 607Q1007 607 1044 597T1113 566T1163 514T1183 443Q1183 402 1169 369T1131 308T1079 253T1021 200L888 80L1101 84Q1114 84 1124 86T1143 96T1162 118T1184 157L1215 148Q1210 131 1205 112T1196 72T1188 34T1184 2Q1115 2 1072 2T1000 3Q972 3 953 3T915 4Q901 4 879 4T835 3Q813 3 794 3T766 2L759 23L924 179Q966 219 1001 256T1056 332Q1065 350 1070 372T1076 417Q1076 470 1041 502T953 534Q902 534 871 501T836 414L800 416Z"  />
<glyph unicode="&#xBE;" horiz-adv-x="1250" d="M72 808Q72 846 72 875T69 933Q114 955 157 967T253 980Q281 980 314 974T377 952T425 914T444 857Q444 812 418 779T351 717Q411 700 445 657T479 556Q479 502 456 463T396 397T310 359T213 346Q191 346 161 350T104 366T58 396T39 442Q39 462 58 477T107 497Q124 452 160 426T242 399Q269 399 292 409T331 437T356 479T365 532Q365 598 327 629T223 660Q207 660 191 658T158 652L151 693Q181 698 214 705T275 726T321 763T340 822Q340 844 331 861T307 891T272 909T231 915Q181 915 146 886T108 806L72 808ZM975 979L323 -54L275 -21L923 1011L975 979ZM930 110L657 109L643 143Q685 195 731 255T824 375T914 493T994 598L1036 589Q1032 558 1030 527T1028 459V178L1109 179L1118 170L1114 109H1028V-13Q1003 -14 980 -15T928 -19Q929 0 929 14T930 36V110ZM926 434Q875 371 829 308T731 173L930 177L926 434Z"  />
<glyph unicode="&#xBF;" horiz-adv-x="524" d="M239 324Q312 267 347 225T382 135Q382 106 369 82T335 36T291 -4T245 -40Q224 -57 205 -71T171 -101T149 -137T140 -187Q140 -229 167 -253T236 -278Q281 -278 310 -257T365 -200H371Q392 -208 413 -226T434 -268Q434 -293 417 -312T376 -343T326 -362T280 -369Q240 -369 198 -348T120 -294T63 -219T40 -136Q40 -105 53 -80T88 -33T133 7T181 44Q201 60 218 74T247 102T265 132T272 168Q272 204 255 234T209 293L239 324ZM356 510Q356 477 334 454T279 430Q247 430 225 453T202 510Q202 543 224 566T279 590Q311 590 333 567T356 510Z"  />
<glyph unicode="&#xC0;" horiz-adv-x="962" d="M618 355H285L208 158Q188 101 188 86Q188 60 212 50T300 37L297 1Q260 1 214 2T123 3Q86 3 47 2T-30 1L-32 35Q7 38 32 44T75 68T110 116T149 198L436 875Q448 905 456 927T475 976L538 984Q549 936 561 896T585 823L810 171Q825 127 837 102T865 64T905 45T969 37L966 1Q924 1 874 2T772 3Q730 3 687 2T602 1L599 35Q655 39 679 48T703 84Q703 95 699 109T689 142L618 355ZM308 413H599L465 809L308 413ZM576 1052L578 1045L557 1020L290 1136L288 1148L366 1214L576 1052Z"  />
<glyph unicode="&#xC1;" horiz-adv-x="962" d="M618 355H285L208 158Q188 101 188 86Q188 60 212 50T300 37L297 1Q260 1 214 2T123 3Q86 3 47 2T-30 1L-32 35Q7 38 32 44T75 68T110 116T149 198L436 875Q448 905 456 927T475 976L538 984Q549 936 561 896T585 823L810 171Q825 127 837 102T865 64T905 45T969 37L966 1Q924 1 874 2T772 3Q730 3 687 2T602 1L599 35Q655 39 679 48T703 84Q703 95 699 109T689 142L618 355ZM308 413H599L465 809L308 413ZM648 1214L726 1148L724 1136L457 1020L436 1045L438 1052L648 1214Z"  />
<glyph unicode="&#xC2;" horiz-adv-x="962" d="M618 355H285L208 158Q188 101 188 86Q188 60 212 50T300 37L297 1Q260 1 214 2T123 3Q86 3 47 2T-30 1L-32 35Q7 38 32 44T75 68T110 116T149 198L436 875Q448 905 456 927T475 976L538 984Q549 936 561 896T585 823L810 171Q825 127 837 102T865 64T905 45T969 37L966 1Q924 1 874 2T772 3Q730 3 687 2T602 1L599 35Q655 39 679 48T703 84Q703 95 699 109T689 142L618 355ZM308 413H599L465 809L308 413ZM357 1014L319 1024L315 1030L469 1208L551 1214L699 1030L695 1024L657 1014L507 1129L357 1014Z"  />
<glyph unicode="&#xC3;" horiz-adv-x="962" d="M618 355H285L208 158Q188 101 188 86Q188 60 212 50T300 37L297 1Q260 1 214 2T123 3Q86 3 47 2T-30 1L-32 35Q7 38 32 44T75 68T110 116T149 198L436 875Q448 905 456 927T475 976L538 984Q549 936 561 896T585 823L810 171Q825 127 837 102T865 64T905 45T969 37L966 1Q924 1 874 2T772 3Q730 3 687 2T602 1L599 35Q655 39 679 48T703 84Q703 95 699 109T689 142L618 355ZM308 413H599L465 809L308 413ZM720 1156Q709 1133 696 1112T665 1076T628 1051T585 1041Q566 1041 549 1048T511 1063Q469 1080 451 1087T419 1094Q392 1094 374 1079T340 1040L303 1057Q313 1080 326 1100T357 1137T394 1162T437 1171Q456 1171 473 1164T511 1149Q554 1132 572 1125T603 1118Q631 1118 649 1134T683 1173L720 1156Z"  />
<glyph unicode="&#xC4;" horiz-adv-x="962" d="M618 355H285L208 158Q188 101 188 86Q188 60 212 50T300 37L297 1Q260 1 214 2T123 3Q86 3 47 2T-30 1L-32 35Q7 38 32 44T75 68T110 116T149 198L436 875Q448 905 456 927T475 976L538 984Q549 936 561 896T585 823L810 171Q825 127 837 102T865 64T905 45T969 37L966 1Q924 1 874 2T772 3Q730 3 687 2T602 1L599 35Q655 39 679 48T703 84Q703 95 699 109T689 142L618 355ZM308 413H599L465 809L308 413ZM644 1040Q617 1040 598 1059T579 1106Q579 1134 598 1153T644 1172Q672 1172 691 1153T710 1106Q710 1079 691 1060T644 1040ZM369 1040Q342 1040 323 1059T304 1106Q304 1133 323 1152T369 1172Q397 1172 416 1153T435 1106Q435 1079 416 1060T369 1040Z"  />
<glyph unicode="&#xC5;" horiz-adv-x="962" d="M618 355H285L208 158Q188 101 188 86Q188 60 212 50T300 37L297 1Q260 1 214 2T123 3Q86 3 47 2T-30 1L-32 35Q7 38 32 44T75 68T110 116T149 198L436 875Q448 905 456 927T475 976L538 984Q549 936 561 896T585 823L810 171Q825 127 837 102T865 64T905 45T969 37L966 1Q924 1 874 2T772 3Q730 3 687 2T602 1L599 35Q655 39 679 48T703 84Q703 95 699 109T689 142L618 355ZM308 413H599L465 809L308 413ZM384 1119Q384 1141 394 1160T421 1194T461 1216T507 1224Q534 1224 556 1216T595 1194T621 1162T630 1123Q630 1101 620 1082T593 1050T553 1028T507 1020Q453 1020 419 1048T384 1119ZM575 1119Q575 1148 558 1169T507 1191Q473 1191 456 1172T438 1123Q438 1091 456 1072T507 1053Q541 1053 558 1071T575 1119Z"  />
<glyph unicode="&#xC6;" horiz-adv-x="1336" d="M1301 233Q1293 204 1286 171T1273 106T1263 46T1258 0Q1158 0 1080 0T941 1Q880 1 836 1T761 2Q741 2 715 2T663 1Q637 1 614 1T576 0L573 34Q619 37 647 43T690 63T710 100T715 162V419H584Q551 419 513 419T425 417L244 157Q223 126 211 105T198 70Q198 53 219 46T292 36L289 0Q252 0 209 1T121 2Q84 2 42 1T-38 0L-40 34Q0 36 28 44T82 70T132 119T192 197L687 885Q692 893 692 898Q692 911 662 916T575 924L578 960Q597 960 622 960T673 959Q700 959 726 959T777 958Q816 958 933 959T1249 960Q1243 909 1240 850T1236 719L1197 718Q1188 777 1177 814T1146 873T1094 903T1011 911H877Q847 911 839 905T830 874V480L1159 491L1166 484L1164 403Q1079 411 997 414T830 418V163Q830 129 834 107T851 73T889 55T955 50H1019Q1077 50 1113 59T1175 91T1219 151T1262 242L1301 233ZM461 468L715 476V834L461 468Z"  />
<glyph unicode="&#xC7;" horiz-adv-x="1013" d="M197 498Q197 402 221 318T293 171T415 72T587 35Q641 35 690 50T778 99Q814 131 840 177T893 287L933 277Q916 211 906 153T889 29Q814 7 740 -5T592 -20Q579 -30 574 -39T569 -59Q569 -73 581 -87T608 -117Q624 -134 638 -151T652 -185Q652 -203 639 -229T604 -279T553 -319T493 -336Q482 -336 470 -333T448 -322T430 -305T423 -280Q423 -263 439 -247T472 -226Q488 -248 505 -260T544 -272Q574 -272 574 -241Q574 -223 562 -208T534 -176Q517 -159 503 -143T489 -109Q489 -93 502 -71T553 -19Q444 -15 353 21T196 121T93 273T56 470Q56 598 103 693T230 853T417 948T641 980Q702 980 771 971T901 946Q895 882 894 825T892 703L850 699Q846 758 827 801T775 873T699 915T605 929Q505 929 429 898T302 810T224 674T197 498Z"  />
<glyph unicode="&#xC8;" horiz-adv-x="816" d="M300 163Q300 129 304 107T321 73T359 55T425 50H499Q557 50 593 59T655 91T699 151T742 242L781 233Q773 204 766 171T753 106T743 46T738 0Q539 0 416 1T231 2Q213 2 189 2T138 1Q112 1 88 1T46 0L43 34Q89 37 117 43T160 63T180 100T185 162V835Q185 859 181 875T163 901T124 917T55 924L58 960Q77 960 101 960T151 959Q177 959 201 959T247 958Q286 958 411 959T729 960Q723 909 720 853T716 734L676 733Q667 785 656 819T625 873T573 902T490 911H347Q317 911 309 905T300 874V528L638 538L645 531L643 448Q552 456 464 459T300 464V163ZM499 1052L501 1045L480 1020L213 1136L211 1148L289 1214L499 1052Z"  />
<glyph unicode="&#xC9;" horiz-adv-x="816" d="M300 163Q300 129 304 107T321 73T359 55T425 50H499Q557 50 593 59T655 91T699 151T742 242L781 233Q773 204 766 171T753 106T743 46T738 0Q539 0 416 1T231 2Q213 2 189 2T138 1Q112 1 88 1T46 0L43 34Q89 37 117 43T160 63T180 100T185 162V835Q185 859 181 875T163 901T124 917T55 924L58 960Q77 960 101 960T151 959Q177 959 201 959T247 958Q286 958 411 959T729 960Q723 909 720 853T716 734L676 733Q667 785 656 819T625 873T573 902T490 911H347Q317 911 309 905T300 874V528L638 538L645 531L643 448Q552 456 464 459T300 464V163ZM571 1214L649 1148L647 1136L380 1020L359 1045L361 1052L571 1214Z"  />
<glyph unicode="&#xCA;" horiz-adv-x="816" d="M300 163Q300 129 304 107T321 73T359 55T425 50H499Q557 50 593 59T655 91T699 151T742 242L781 233Q773 204 766 171T753 106T743 46T738 0Q539 0 416 1T231 2Q213 2 189 2T138 1Q112 1 88 1T46 0L43 34Q89 37 117 43T160 63T180 100T185 162V835Q185 859 181 875T163 901T124 917T55 924L58 960Q77 960 101 960T151 959Q177 959 201 959T247 958Q286 958 411 959T729 960Q723 909 720 853T716 734L676 733Q667 785 656 819T625 873T573 902T490 911H347Q317 911 309 905T300 874V528L638 538L645 531L643 448Q552 456 464 459T300 464V163ZM280 1014L242 1024L238 1030L392 1208L474 1214L622 1030L618 1024L580 1014L430 1129L280 1014Z"  />
<glyph unicode="&#xCB;" horiz-adv-x="816" d="M300 163Q300 129 304 107T321 73T359 55T425 50H499Q557 50 593 59T655 91T699 151T742 242L781 233Q773 204 766 171T753 106T743 46T738 0Q539 0 416 1T231 2Q213 2 189 2T138 1Q112 1 88 1T46 0L43 34Q89 37 117 43T160 63T180 100T185 162V835Q185 859 181 875T163 901T124 917T55 924L58 960Q77 960 101 960T151 959Q177 959 201 959T247 958Q286 958 411 959T729 960Q723 909 720 853T716 734L676 733Q667 785 656 819T625 873T573 902T490 911H347Q317 911 309 905T300 874V528L638 538L645 531L643 448Q552 456 464 459T300 464V163ZM567 1040Q540 1040 521 1059T502 1106Q502 1134 521 1153T567 1172Q595 1172 614 1153T633 1106Q633 1079 614 1060T567 1040ZM292 1040Q265 1040 246 1059T227 1106Q227 1133 246 1152T292 1172Q320 1172 339 1153T358 1106Q358 1079 339 1060T292 1040Z"  />
<glyph unicode="&#xCC;" horiz-adv-x="485" d="M61 34Q100 37 124 43T161 63T180 100T185 162V835Q185 859 181 875T164 901T125 917T59 924L61 960Q77 960 100 960T149 959Q176 959 203 959T255 958Q274 958 297 958T344 959Q367 959 387 959T422 960L425 926Q386 923 362 917T324 897T305 860T300 799V125Q300 101 304 85T321 59T360 43T427 36L425 0Q409 0 386 0T335 1Q309 1 282 1T231 2Q211 2 188 2T142 1Q119 1 99 1T64 0L61 34ZM336 1052L338 1045L317 1020L50 1136L48 1148L126 1214L336 1052Z"  />
<glyph unicode="&#xCD;" horiz-adv-x="485" d="M61 34Q100 37 124 43T161 63T180 100T185 162V835Q185 859 181 875T164 901T125 917T59 924L61 960Q77 960 100 960T149 959Q176 959 203 959T255 958Q274 958 297 958T344 959Q367 959 387 959T422 960L425 926Q386 923 362 917T324 897T305 860T300 799V125Q300 101 304 85T321 59T360 43T427 36L425 0Q409 0 386 0T335 1Q309 1 282 1T231 2Q211 2 188 2T142 1Q119 1 99 1T64 0L61 34ZM368 1214L446 1148L444 1136L177 1020L156 1045L158 1052L368 1214Z"  />
<glyph unicode="&#xCE;" horiz-adv-x="485" d="M61 34Q100 37 124 43T161 63T180 100T185 162V835Q185 859 181 875T164 901T125 917T59 924L61 960Q77 960 100 960T149 959Q176 959 203 959T255 958Q274 958 297 958T344 959Q367 959 387 959T422 960L425 926Q386 923 362 917T324 897T305 860T300 799V125Q300 101 304 85T321 59T360 43T427 36L425 0Q409 0 386 0T335 1Q309 1 282 1T231 2Q211 2 188 2T142 1Q119 1 99 1T64 0L61 34ZM97 1014L59 1024L55 1030L209 1208L291 1214L439 1030L435 1024L397 1014L247 1129L97 1014Z"  />
<glyph unicode="&#xCF;" horiz-adv-x="485" d="M61 34Q100 37 124 43T161 63T180 100T185 162V835Q185 859 181 875T164 901T125 917T59 924L61 960Q77 960 100 960T149 959Q176 959 203 959T255 958Q274 958 297 958T344 959Q367 959 387 959T422 960L425 926Q386 923 362 917T324 897T305 860T300 799V125Q300 101 304 85T321 59T360 43T427 36L425 0Q409 0 386 0T335 1Q309 1 282 1T231 2Q211 2 188 2T142 1Q119 1 99 1T64 0L61 34ZM384 1040Q357 1040 338 1059T319 1106Q319 1134 338 1153T384 1172Q412 1172 431 1153T450 1106Q450 1079 431 1060T384 1040ZM109 1040Q82 1040 63 1059T44 1106Q44 1133 63 1152T109 1172Q137 1172 156 1153T175 1106Q175 1079 156 1060T109 1040Z"  />
<glyph unicode="&#xD0;" horiz-adv-x="1080" d="M54 534H185V831Q185 858 181 875T164 902T123 917T51 924L53 960Q89 960 140 959T243 958Q294 958 350 963T458 969Q566 969 666 946T843 870T967 732T1014 522Q1014 394 968 295T844 128T663 25T444 -11Q393 -11 335 -5T226 2Q206 2 184 2T138 1Q115 1 94 1T57 0L54 34Q96 37 122 43T162 63T180 100T185 162V476H58L54 534ZM301 534H595L591 476H301V178Q301 149 303 125T318 82T360 54T443 44Q540 44 619 74T756 163T844 304T876 491Q876 597 844 676T754 809T619 890T450 917Q418 917 391 913T344 902T313 887T301 870V534Z"  />
<glyph unicode="&#xD1;" horiz-adv-x="1103" d="M881 -14Q855 23 829 57T774 127L235 766V175Q235 128 240 102T261 62T301 44T368 36L366 0Q334 0 291 1T199 2Q161 2 120 1T43 0L40 34Q80 38 106 43T147 66T169 117T175 211V712Q175 754 174 780T170 822T160 850T144 873Q134 886 124 895T101 910T69 919T22 924L24 960Q36 960 59 960T112 959Q141 959 172 959T230 958L873 205V784Q873 831 868 857T847 897T806 915T739 923L741 959Q773 959 817 958T909 957Q928 957 949 957T990 958T1029 959T1062 960L1063 926Q1024 922 999 916T960 893T939 842T933 748V-4L881 -14ZM768 1156Q757 1133 744 1112T713 1076T676 1051T633 1041Q614 1041 597 1048T559 1063Q517 1080 499 1087T467 1094Q440 1094 422 1079T388 1040L351 1057Q361 1080 374 1100T405 1137T442 1162T485 1171Q504 1171 521 1164T559 1149Q602 1132 620 1125T651 1118Q679 1118 697 1134T731 1173L768 1156Z"  />
<glyph unicode="&#xD2;" horiz-adv-x="1122" d="M561 980Q670 980 761 946T918 847T1019 693T1056 490Q1056 379 1020 286T919 124T763 18T561 -20Q452 -20 361 14T205 113T103 267T66 470Q66 581 102 674T203 836T359 942T561 980ZM555 926Q486 926 423 904T311 831T233 702T204 508Q204 374 237 283T322 137T438 58T567 34Q636 34 699 56T811 129T889 258T918 452Q918 586 885 677T800 823T684 902T555 926ZM630 1052L632 1045L611 1020L344 1136L342 1148L420 1214L630 1052Z"  />
<glyph unicode="&#xD3;" horiz-adv-x="1122" d="M561 980Q670 980 761 946T918 847T1019 693T1056 490Q1056 379 1020 286T919 124T763 18T561 -20Q452 -20 361 14T205 113T103 267T66 470Q66 581 102 674T203 836T359 942T561 980ZM555 926Q486 926 423 904T311 831T233 702T204 508Q204 374 237 283T322 137T438 58T567 34Q636 34 699 56T811 129T889 258T918 452Q918 586 885 677T800 823T684 902T555 926ZM702 1214L780 1148L778 1136L511 1020L490 1045L492 1052L702 1214Z"  />
<glyph unicode="&#xD4;" horiz-adv-x="1122" d="M561 980Q670 980 761 946T918 847T1019 693T1056 490Q1056 379 1020 286T919 124T763 18T561 -20Q452 -20 361 14T205 113T103 267T66 470Q66 581 102 674T203 836T359 942T561 980ZM555 926Q486 926 423 904T311 831T233 702T204 508Q204 374 237 283T322 137T438 58T567 34Q636 34 699 56T811 129T889 258T918 452Q918 586 885 677T800 823T684 902T555 926ZM411 1014L373 1024L369 1030L523 1208L605 1214L753 1030L749 1024L711 1014L561 1129L411 1014Z"  />
<glyph unicode="&#xD5;" horiz-adv-x="1122" d="M561 980Q670 980 761 946T918 847T1019 693T1056 490Q1056 379 1020 286T919 124T763 18T561 -20Q452 -20 361 14T205 113T103 267T66 470Q66 581 102 674T203 836T359 942T561 980ZM555 926Q486 926 423 904T311 831T233 702T204 508Q204 374 237 283T322 137T438 58T567 34Q636 34 699 56T811 129T889 258T918 452Q918 586 885 677T800 823T684 902T555 926ZM774 1156Q763 1133 750 1112T719 1076T682 1051T639 1041Q620 1041 603 1048T565 1063Q523 1080 505 1087T473 1094Q446 1094 428 1079T394 1040L357 1057Q367 1080 380 1100T411 1137T448 1162T491 1171Q510 1171 527 1164T565 1149Q608 1132 626 1125T657 1118Q685 1118 703 1134T737 1173L774 1156Z"  />
<glyph unicode="&#xD6;" horiz-adv-x="1122" d="M561 980Q670 980 761 946T918 847T1019 693T1056 490Q1056 379 1020 286T919 124T763 18T561 -20Q452 -20 361 14T205 113T103 267T66 470Q66 581 102 674T203 836T359 942T561 980ZM555 926Q486 926 423 904T311 831T233 702T204 508Q204 374 237 283T322 137T438 58T567 34Q636 34 699 56T811 129T889 258T918 452Q918 586 885 677T800 823T684 902T555 926ZM698 1040Q671 1040 652 1059T633 1106Q633 1134 652 1153T698 1172Q726 1172 745 1153T764 1106Q764 1079 745 1060T698 1040ZM423 1040Q396 1040 377 1059T358 1106Q358 1133 377 1152T423 1172Q451 1172 470 1153T489 1106Q489 1079 470 1060T423 1040Z"  />
<glyph unicode="&#xD7;" horiz-adv-x="680" d="M611 520L387 295L611 70L568 20L340 248L112 20L69 70L293 295L69 520L112 570L340 342L568 570L611 520Z"  />
<glyph unicode="&#xD8;" horiz-adv-x="1122" d="M561 980Q639 980 705 963T829 914L897 1010L947 981L877 882Q962 818 1009 721T1056 490Q1056 379 1020 286T919 124T763 18T561 -20Q483 -20 414 -3T287 49L212 -57L166 -22L239 82Q157 146 112 241T66 470Q66 581 102 674T203 836T359 942T561 980ZM918 452Q918 575 891 659T819 801L338 121Q389 73 448 54T567 34Q636 34 699 56T811 129T889 258T918 452ZM555 926Q486 926 423 904T311 831T233 702T204 508Q204 388 229 305T298 164L779 844Q728 889 670 907T555 926Z"  />
<glyph unicode="&#xD9;" horiz-adv-x="1047" d="M284 329Q284 257 308 206T371 122T461 74T564 58Q618 58 667 74T754 127T814 221T837 360V780Q837 824 831 851T807 893T758 914T678 923L680 959Q715 959 764 958T868 957Q912 957 960 958T1040 960L1041 926Q997 922 970 917T926 895T903 848T897 763V340Q897 242 864 174T778 63T657 0T519 -20Q450 -20 387 -1T276 57T198 155T169 294V828Q169 852 165 869T146 897T104 915T32 923L34 959Q52 959 76 959T128 958Q156 958 184 958T238 957Q258 957 282 957T332 958Q357 958 379 958T419 959L422 925Q379 922 352 915T310 893T290 854T284 792V329ZM623 1052L625 1045L604 1020L337 1136L335 1148L413 1214L623 1052Z"  />
<glyph unicode="&#xDA;" horiz-adv-x="1047" d="M284 329Q284 257 308 206T371 122T461 74T564 58Q618 58 667 74T754 127T814 221T837 360V780Q837 824 831 851T807 893T758 914T678 923L680 959Q715 959 764 958T868 957Q912 957 960 958T1040 960L1041 926Q997 922 970 917T926 895T903 848T897 763V340Q897 242 864 174T778 63T657 0T519 -20Q450 -20 387 -1T276 57T198 155T169 294V828Q169 852 165 869T146 897T104 915T32 923L34 959Q52 959 76 959T128 958Q156 958 184 958T238 957Q258 957 282 957T332 958Q357 958 379 958T419 959L422 925Q379 922 352 915T310 893T290 854T284 792V329ZM695 1214L773 1148L771 1136L504 1020L483 1045L485 1052L695 1214Z"  />
<glyph unicode="&#xDB;" horiz-adv-x="1047" d="M284 329Q284 257 308 206T371 122T461 74T564 58Q618 58 667 74T754 127T814 221T837 360V780Q837 824 831 851T807 893T758 914T678 923L680 959Q715 959 764 958T868 957Q912 957 960 958T1040 960L1041 926Q997 922 970 917T926 895T903 848T897 763V340Q897 242 864 174T778 63T657 0T519 -20Q450 -20 387 -1T276 57T198 155T169 294V828Q169 852 165 869T146 897T104 915T32 923L34 959Q52 959 76 959T128 958Q156 958 184 958T238 957Q258 957 282 957T332 958Q357 958 379 958T419 959L422 925Q379 922 352 915T310 893T290 854T284 792V329ZM404 1014L366 1024L362 1030L516 1208L598 1214L746 1030L742 1024L704 1014L554 1129L404 1014Z"  />
<glyph unicode="&#xDC;" horiz-adv-x="1047" d="M284 329Q284 257 308 206T371 122T461 74T564 58Q618 58 667 74T754 127T814 221T837 360V780Q837 824 831 851T807 893T758 914T678 923L680 959Q715 959 764 958T868 957Q912 957 960 958T1040 960L1041 926Q997 922 970 917T926 895T903 848T897 763V340Q897 242 864 174T778 63T657 0T519 -20Q450 -20 387 -1T276 57T198 155T169 294V828Q169 852 165 869T146 897T104 915T32 923L34 959Q52 959 76 959T128 958Q156 958 184 958T238 957Q258 957 282 957T332 958Q357 958 379 958T419 959L422 925Q379 922 352 915T310 893T290 854T284 792V329ZM691 1040Q664 1040 645 1059T626 1106Q626 1134 645 1153T691 1172Q719 1172 738 1153T757 1106Q757 1079 738 1060T691 1040ZM416 1040Q389 1040 370 1059T351 1106Q351 1133 370 1152T416 1172Q444 1172 463 1153T482 1106Q482 1079 463 1060T416 1040Z"  />
<glyph unicode="&#xDD;" horiz-adv-x="870" d="M380 314Q380 343 379 363T373 404T356 449T325 509Q298 557 260 625T162 791Q139 830 123 854T88 893T44 914T-20 924L-18 960Q24 960 74 959T176 958Q218 958 261 959T347 960L350 926Q296 922 276 913T255 886Q255 874 262 858T281 819L463 484L639 802Q655 831 663 850T672 884Q672 903 650 911T570 924L572 960Q609 960 650 959T736 958Q773 958 812 959T889 960L892 926Q853 923 828 916T782 892T743 846T695 770Q644 685 607 620T549 512Q528 471 517 446T501 402T496 366T495 323V125Q495 101 499 85T517 59T559 43T637 36L635 0Q614 0 588 0T533 1Q505 1 478 1T426 2Q406 2 383 2T335 1Q311 1 287 1T244 0L241 34Q287 37 315 43T357 63T375 100T380 162V314ZM600 1214L678 1148L676 1136L409 1020L388 1045L390 1052L600 1214Z"  />
<glyph unicode="&#xDE;" horiz-adv-x="805" d="M300 777Q329 782 359 784T419 787Q490 787 554 773T668 727T746 642T775 512Q775 435 743 378T660 284T546 228T420 209Q382 209 351 214T300 227V127Q300 103 303 87T320 59T360 43T432 36L430 0Q414 0 390 0T338 1Q311 1 283 1T230 2Q211 2 188 2T142 1Q120 1 100 1T66 0L64 34Q103 37 126 43T163 63T180 100T185 162V835Q185 859 181 875T165 901T127 917T60 924L62 960Q78 960 101 960T150 959Q176 959 203 959T255 958Q274 958 298 958T347 959Q372 959 393 959T429 960L432 926Q390 923 364 917T324 897T305 860T300 799V777ZM300 277Q323 270 349 267T407 263Q446 263 487 274T561 314T617 389T639 507Q639 622 577 678T402 734Q367 734 347 731T317 720T303 698T300 663V277Z"  />
<glyph unicode="&#xDF;" horiz-adv-x="780" d="M39 548Q70 553 89 557T120 567T134 582T138 607V712Q138 806 168 876T252 994Q294 1030 349 1053T464 1077Q506 1077 545 1064T613 1024T660 960T678 873Q678 824 664 789T627 727T580 679T532 635Q509 612 494 587T479 527Q479 500 491 478T524 436T571 398T624 360Q649 343 672 324T714 283T744 234T755 176Q755 130 738 94T691 32T624 -6T543 -20Q502 -20 468 -9T393 8Q390 45 385 83T368 170L401 180Q411 153 423 125T453 75T496 38T558 24Q603 24 628 53T653 128Q653 154 643 176T615 218T575 255T528 290Q501 308 475 327T429 369T395 419T382 479Q382 515 393 542T421 592T459 634T500 674Q529 703 549 739T570 833Q570 872 555 902T515 954T458 986T390 997Q336 997 298 968Q278 951 268 926T252 872T246 812T245 751V114Q245 89 249 74T265 52T293 41T336 37L333 0Q301 0 268 1T186 2Q147 2 108 1T41 0L38 32Q71 35 90 40T120 59T134 94T138 155V516H43L39 548Z"  />
<glyph unicode="&#xE0;" horiz-adv-x="620" d="M392 323Q393 330 393 340V413Q393 464 369 497T290 531Q261 531 241 521T207 493T187 454T180 408Q164 395 136 395Q113 395 93 405T72 437Q72 453 84 470T117 503T163 535T214 561Q281 590 346 590Q378 590 406 582T455 555T488 507T500 438Q500 378 498 300T496 125Q496 86 511 64T553 42Q577 42 605 59L623 32Q600 10 567 -4T499 -18Q464 -18 435 1T395 66Q385 59 364 45T316 17T258 -9T199 -20Q166 -20 139 -8T93 24T63 71T52 128Q52 179 81 215T159 272Q194 286 252 300T392 323ZM390 114Q390 156 391 196T392 278Q365 275 338 271T284 259T235 241T196 215Q171 193 171 158Q171 116 192 87T259 58Q291 58 326 73T390 114ZM338 648L335 642L300 636L145 881L150 892L255 901L338 648Z"  />
<glyph unicode="&#xE1;" horiz-adv-x="620" d="M392 323Q393 330 393 340V413Q393 464 369 497T290 531Q261 531 241 521T207 493T187 454T180 408Q164 395 136 395Q113 395 93 405T72 437Q72 453 84 470T117 503T163 535T214 561Q281 590 346 590Q378 590 406 582T455 555T488 507T500 438Q500 378 498 300T496 125Q496 86 511 64T553 42Q577 42 605 59L623 32Q600 10 567 -4T499 -18Q464 -18 435 1T395 66Q385 59 364 45T316 17T258 -9T199 -20Q166 -20 139 -8T93 24T63 71T52 128Q52 179 81 215T159 272Q194 286 252 300T392 323ZM390 114Q390 156 391 196T392 278Q365 275 338 271T284 259T235 241T196 215Q171 193 171 158Q171 116 192 87T259 58Q291 58 326 73T390 114ZM365 901L470 892L475 881L320 636L285 642L282 648L365 901Z"  />
<glyph unicode="&#xE2;" horiz-adv-x="620" d="M392 323Q393 330 393 340V413Q393 464 369 497T290 531Q261 531 241 521T207 493T187 454T180 408Q164 395 136 395Q113 395 93 405T72 437Q72 453 84 470T117 503T163 535T214 561Q281 590 346 590Q378 590 406 582T455 555T488 507T500 438Q500 378 498 300T496 125Q496 86 511 64T553 42Q577 42 605 59L623 32Q600 10 567 -4T499 -18Q464 -18 435 1T395 66Q385 59 364 45T316 17T258 -9T199 -20Q166 -20 139 -8T93 24T63 71T52 128Q52 179 81 215T159 272Q194 286 252 300T392 323ZM390 114Q390 156 391 196T392 278Q365 275 338 271T284 259T235 241T196 215Q171 193 171 158Q171 116 192 87T259 58Q291 58 326 73T390 114ZM162 636L122 641L118 647L272 895L354 901L502 647L498 641L458 636L310 814L162 636Z"  />
<glyph unicode="&#xE3;" horiz-adv-x="620" d="M392 323Q393 330 393 340V413Q393 464 369 497T290 531Q261 531 241 521T207 493T187 454T180 408Q164 395 136 395Q113 395 93 405T72 437Q72 453 84 470T117 503T163 535T214 561Q281 590 346 590Q378 590 406 582T455 555T488 507T500 438Q500 378 498 300T496 125Q496 86 511 64T553 42Q577 42 605 59L623 32Q600 10 567 -4T499 -18Q464 -18 435 1T395 66Q385 59 364 45T316 17T258 -9T199 -20Q166 -20 139 -8T93 24T63 71T52 128Q52 179 81 215T159 272Q194 286 252 300T392 323ZM390 114Q390 156 391 196T392 278Q365 275 338 271T284 259T235 241T196 215Q171 193 171 158Q171 116 192 87T259 58Q291 58 326 73T390 114ZM537 821Q526 797 512 775T479 735T440 708T394 698Q374 698 356 706T315 722Q270 740 250 747T217 755Q188 755 169 739T132 697L93 715Q104 739 118 761T151 800T190 827T236 837Q256 837 274 829T315 813Q337 804 353 798T380 788T398 782T413 780Q442 780 461 797T498 839L537 821Z"  />
<glyph unicode="&#xE4;" horiz-adv-x="620" d="M392 323Q393 330 393 340V413Q393 464 369 497T290 531Q261 531 241 521T207 493T187 454T180 408Q164 395 136 395Q113 395 93 405T72 437Q72 453 84 470T117 503T163 535T214 561Q281 590 346 590Q378 590 406 582T455 555T488 507T500 438Q500 378 498 300T496 125Q496 86 511 64T553 42Q577 42 605 59L623 32Q600 10 567 -4T499 -18Q464 -18 435 1T395 66Q385 59 364 45T316 17T258 -9T199 -20Q166 -20 139 -8T93 24T63 71T52 128Q52 179 81 215T159 272Q194 286 252 300T392 323ZM390 114Q390 156 391 196T392 278Q365 275 338 271T284 259T235 241T196 215Q171 193 171 158Q171 116 192 87T259 58Q291 58 326 73T390 114ZM437 718Q410 718 391 737T372 784Q372 812 391 831T437 850Q465 850 484 831T503 784Q503 757 484 738T437 718ZM182 718Q155 718 136 737T117 784Q117 811 136 830T182 850Q210 850 229 831T248 784Q248 757 229 738T182 718Z"  />
<glyph unicode="&#xE5;" horiz-adv-x="620" d="M392 323Q393 330 393 340V413Q393 464 369 497T290 531Q261 531 241 521T207 493T187 454T180 408Q164 395 136 395Q113 395 93 405T72 437Q72 453 84 470T117 503T163 535T214 561Q281 590 346 590Q378 590 406 582T455 555T488 507T500 438Q500 378 498 300T496 125Q496 86 511 64T553 42Q577 42 605 59L623 32Q600 10 567 -4T499 -18Q464 -18 435 1T395 66Q385 59 364 45T316 17T258 -9T199 -20Q166 -20 139 -8T93 24T63 71T52 128Q52 179 81 215T159 272Q194 286 252 300T392 323ZM390 114Q390 156 391 196T392 278Q365 275 338 271T284 259T235 241T196 215Q171 193 171 158Q171 116 192 87T259 58Q291 58 326 73T390 114ZM184 767Q184 792 194 814T222 852T262 877T310 886Q337 886 360 877T400 852T426 815T436 771Q436 746 426 725T398 688T358 663T310 654Q282 654 259 662T220 686T194 722T184 767ZM380 767Q380 801 363 827T310 853Q275 853 257 830T239 771Q239 734 258 711T310 687Q345 687 362 709T380 767Z"  />
<glyph unicode="&#xE6;" horiz-adv-x="923" d="M878 108Q847 67 814 42T750 4T694 -15T652 -20Q576 -20 520 10T427 95Q366 46 307 13T194 -20Q162 -20 136 -8T92 25T63 73T52 131Q52 183 80 219T157 274Q192 288 246 302T383 326Q384 340 384 366T385 413Q385 464 361 497T282 531Q253 531 233 521T199 493T180 453T174 406Q154 392 130 392Q106 392 86 403T66 434Q66 451 77 467T106 500T148 530T198 557Q226 570 265 580T334 590Q379 590 416 572T476 516Q519 555 568 572T660 590Q695 590 730 581T796 551Q835 523 858 481T881 384V370L880 356Q878 342 871 337T853 329L488 292Q494 232 514 190T564 122T628 83T696 71Q736 71 773 84T850 137L878 108ZM733 366Q750 368 756 379T762 406Q762 467 727 502T635 538Q609 538 583 524T536 484T502 420T486 337L733 366ZM408 137Q396 165 391 201T383 281Q358 278 331 274T279 262T231 243T194 217Q170 193 170 158Q170 116 190 87T256 58Q283 58 324 78T408 137Z"  />
<glyph unicode="&#xE7;" horiz-adv-x="584" d="M560 127Q532 72 482 37T373 -13Q356 -25 349 -36T341 -59Q341 -73 353 -87T380 -117Q396 -134 410 -151T424 -185Q424 -203 411 -229T376 -279T325 -319T265 -336Q254 -336 242 -333T220 -322T202 -305T195 -280Q195 -263 211 -247T244 -226Q260 -248 277 -260T316 -272Q346 -272 346 -241Q346 -223 334 -208T306 -176Q289 -159 275 -143T261 -109Q261 -93 275 -71T325 -20Q260 -20 208 3T120 65T64 155T44 265Q44 334 71 393T145 496T253 565T382 590Q415 590 448 584T514 561Q528 554 533 543T539 520Q539 502 525 483T479 447H474Q437 485 403 503T324 521Q282 521 251 504T198 459T166 395T155 319Q155 270 169 225T211 146T277 92T368 71Q416 71 460 91T531 153L560 127Z"  />
<glyph unicode="&#xE8;" horiz-adv-x="604" d="M559 111Q527 69 493 44T428 4T371 -15T330 -20Q268 -20 216 3T127 66T69 159T48 273Q48 340 72 397T137 498T231 565T340 590Q385 590 425 576T496 534T544 469T562 384V370L561 356Q556 329 533 329H155Q156 260 176 211T227 131T298 86T375 71Q416 71 453 85T531 140L559 111ZM411 374Q431 374 437 381T443 407Q443 434 434 458T408 500T366 528T310 538Q286 538 262 527T217 495T181 444T159 374H411ZM363 648L360 642L325 636L170 881L175 892L280 901L363 648Z"  />
<glyph unicode="&#xE9;" horiz-adv-x="604" d="M559 111Q527 69 493 44T428 4T371 -15T330 -20Q268 -20 216 3T127 66T69 159T48 273Q48 340 72 397T137 498T231 565T340 590Q385 590 425 576T496 534T544 469T562 384V370L561 356Q556 329 533 329H155Q156 260 176 211T227 131T298 86T375 71Q416 71 453 85T531 140L559 111ZM411 374Q431 374 437 381T443 407Q443 434 434 458T408 500T366 528T310 538Q286 538 262 527T217 495T181 444T159 374H411ZM390 901L495 892L500 881L345 636L310 642L307 648L390 901Z"  />
<glyph unicode="&#xEA;" horiz-adv-x="604" d="M559 111Q527 69 493 44T428 4T371 -15T330 -20Q268 -20 216 3T127 66T69 159T48 273Q48 340 72 397T137 498T231 565T340 590Q385 590 425 576T496 534T544 469T562 384V370L561 356Q556 329 533 329H155Q156 260 176 211T227 131T298 86T375 71Q416 71 453 85T531 140L559 111ZM411 374Q431 374 437 381T443 407Q443 434 434 458T408 500T366 528T310 538Q286 538 262 527T217 495T181 444T159 374H411ZM187 636L147 641L143 647L297 895L379 901L527 647L523 641L483 636L335 814L187 636Z"  />
<glyph unicode="&#xEB;" horiz-adv-x="604" d="M559 111Q527 69 493 44T428 4T371 -15T330 -20Q268 -20 216 3T127 66T69 159T48 273Q48 340 72 397T137 498T231 565T340 590Q385 590 425 576T496 534T544 469T562 384V370L561 356Q556 329 533 329H155Q156 260 176 211T227 131T298 86T375 71Q416 71 453 85T531 140L559 111ZM411 374Q431 374 437 381T443 407Q443 434 434 458T408 500T366 528T310 538Q286 538 262 527T217 495T181 444T159 374H411ZM462 718Q435 718 416 737T397 784Q397 812 416 831T462 850Q490 850 509 831T528 784Q528 757 509 738T462 718ZM207 718Q180 718 161 737T142 784Q142 811 161 830T207 850Q235 850 254 831T273 784Q273 757 254 738T207 718Z"  />
<glyph unicode="&#xEC;" horiz-adv-x="375" d="M355 0Q323 0 278 1T185 2Q146 2 109 1T44 0L42 32Q75 35 94 40T125 59T139 94T143 155V418Q143 446 140 462T128 487T100 501T51 511L48 540Q79 546 110 552T169 566T218 579T251 590L261 582Q258 557 256 529T253 474T252 422T251 379V114Q251 90 254 76T267 53T299 42T357 37L355 0ZM222 648L219 642L184 636L29 881L34 892L139 901L222 648Z"  />
<glyph unicode="&#xED;" horiz-adv-x="375" d="M355 0Q323 0 278 1T185 2Q146 2 109 1T44 0L42 32Q75 35 94 40T125 59T139 94T143 155V418Q143 446 140 462T128 487T100 501T51 511L48 540Q79 546 110 552T169 566T218 579T251 590L261 582Q258 557 256 529T253 474T252 422T251 379V114Q251 90 254 76T267 53T299 42T357 37L355 0ZM249 901L354 892L359 881L204 636L169 642L166 648L249 901Z"  />
<glyph unicode="&#xEE;" horiz-adv-x="375" d="M355 0Q323 0 278 1T185 2Q146 2 109 1T44 0L42 32Q75 35 94 40T125 59T139 94T143 155V418Q143 446 140 462T128 487T100 501T51 511L48 540Q79 546 110 552T169 566T218 579T251 590L261 582Q258 557 256 529T253 474T252 422T251 379V114Q251 90 254 76T267 53T299 42T357 37L355 0ZM46 636L6 641L2 647L156 895L238 901L386 647L382 641L342 636L194 814L46 636Z"  />
<glyph unicode="&#xEF;" horiz-adv-x="375" d="M355 0Q323 0 278 1T185 2Q146 2 109 1T44 0L42 32Q75 35 94 40T125 59T139 94T143 155V418Q143 446 140 462T128 487T100 501T51 511L48 540Q79 546 110 552T169 566T218 579T251 590L261 582Q258 557 256 529T253 474T252 422T251 379V114Q251 90 254 76T267 53T299 42T357 37L355 0ZM321 718Q294 718 275 737T256 784Q256 812 275 831T321 850Q349 850 368 831T387 784Q387 757 368 738T321 718ZM66 718Q39 718 20 737T1 784Q1 811 20 830T66 850Q94 850 113 831T132 784Q132 757 113 738T66 718Z"  />
<glyph unicode="&#xF0;" horiz-adv-x="700" d="M196 712L358 823Q333 851 307 873T252 914T189 947T113 974L126 1014Q221 996 292 962T428 872L574 971L601 921L469 832Q560 732 604 614T648 365Q648 290 628 221T567 98T469 12T334 -20Q272 -20 220 3T131 65T72 159T50 276Q50 349 76 407T145 505T247 568T369 590Q436 590 502 566Q484 629 459 679T392 780L229 671L196 712ZM528 359Q528 376 527 401T522 443Q484 489 438 512T347 535Q312 535 281 521T225 478T187 406T172 303Q172 261 183 213T216 125T272 58T351 31Q403 31 437 65T492 149T520 256T528 359Z"  />
<glyph unicode="&#xF1;" horiz-adv-x="778" d="M346 0Q314 0 274 1T186 2Q147 2 109 1T42 0L39 32Q73 35 93 41T125 59T140 94T144 155V414Q144 442 141 458T129 483T101 498T52 508L49 536Q74 541 102 548T158 562T208 577T247 590L259 582Q256 561 254 541T252 499Q306 542 366 566T482 590Q518 590 549 579T604 542T640 479T654 385V114Q654 90 657 76T669 53T698 42T749 37L747 0Q715 0 677 1T590 2Q551 2 516 1T452 0L449 32Q480 35 499 40T528 56T541 89T544 149V360Q544 440 509 475T419 511Q381 511 338 496T252 452V114Q252 90 254 76T267 53T296 42T349 37L346 0ZM603 821Q592 797 578 775T545 735T506 708T460 698Q440 698 422 706T381 722Q336 740 316 747T283 755Q254 755 235 739T198 697L159 715Q170 739 184 761T217 800T256 827T302 837Q322 837 340 829T381 813Q403 804 419 798T446 788T464 782T479 780Q508 780 527 797T564 839L603 821Z"  />
<glyph unicode="&#xF2;" horiz-adv-x="711" d="M54 279Q54 343 77 400T141 499T237 565T355 590Q423 590 479 567T574 503T635 408T657 291Q657 226 634 170T570 71T474 5T355 -20Q287 -20 232 3T137 67T76 162T54 279ZM368 29Q412 29 443 50T495 104T525 178T535 260Q535 308 525 358T491 448T432 515T343 541Q298 541 267 521T215 467T186 393T176 311Q176 265 187 215T221 124T280 56T368 29ZM378 648L375 642L340 636L185 881L190 892L295 901L378 648Z"  />
<glyph unicode="&#xF3;" horiz-adv-x="711" d="M54 279Q54 343 77 400T141 499T237 565T355 590Q423 590 479 567T574 503T635 408T657 291Q657 226 634 170T570 71T474 5T355 -20Q287 -20 232 3T137 67T76 162T54 279ZM368 29Q412 29 443 50T495 104T525 178T535 260Q535 308 525 358T491 448T432 515T343 541Q298 541 267 521T215 467T186 393T176 311Q176 265 187 215T221 124T280 56T368 29ZM405 901L510 892L515 881L360 636L325 642L322 648L405 901Z"  />
<glyph unicode="&#xF4;" horiz-adv-x="711" d="M54 279Q54 343 77 400T141 499T237 565T355 590Q423 590 479 567T574 503T635 408T657 291Q657 226 634 170T570 71T474 5T355 -20Q287 -20 232 3T137 67T76 162T54 279ZM368 29Q412 29 443 50T495 104T525 178T535 260Q535 308 525 358T491 448T432 515T343 541Q298 541 267 521T215 467T186 393T176 311Q176 265 187 215T221 124T280 56T368 29ZM202 636L162 641L158 647L312 895L394 901L542 647L538 641L498 636L350 814L202 636Z"  />
<glyph unicode="&#xF5;" horiz-adv-x="711" d="M54 279Q54 343 77 400T141 499T237 565T355 590Q423 590 479 567T574 503T635 408T657 291Q657 226 634 170T570 71T474 5T355 -20Q287 -20 232 3T137 67T76 162T54 279ZM368 29Q412 29 443 50T495 104T525 178T535 260Q535 308 525 358T491 448T432 515T343 541Q298 541 267 521T215 467T186 393T176 311Q176 265 187 215T221 124T280 56T368 29ZM577 821Q566 797 552 775T519 735T480 708T434 698Q414 698 396 706T355 722Q310 740 290 747T257 755Q228 755 209 739T172 697L133 715Q144 739 158 761T191 800T230 827T276 837Q296 837 314 829T355 813Q377 804 393 798T420 788T438 782T453 780Q482 780 501 797T538 839L577 821Z"  />
<glyph unicode="&#xF6;" horiz-adv-x="711" d="M54 279Q54 343 77 400T141 499T237 565T355 590Q423 590 479 567T574 503T635 408T657 291Q657 226 634 170T570 71T474 5T355 -20Q287 -20 232 3T137 67T76 162T54 279ZM368 29Q412 29 443 50T495 104T525 178T535 260Q535 308 525 358T491 448T432 515T343 541Q298 541 267 521T215 467T186 393T176 311Q176 265 187 215T221 124T280 56T368 29ZM477 718Q450 718 431 737T412 784Q412 812 431 831T477 850Q505 850 524 831T543 784Q543 757 524 738T477 718ZM222 718Q195 718 176 737T157 784Q157 811 176 830T222 850Q250 850 269 831T288 784Q288 757 269 738T222 718Z"  />
<glyph unicode="&#xF7;" horiz-adv-x="680" d="M620 328L615 262H60L65 328H620ZM408 487Q408 458 388 438T339 418Q311 418 291 438T271 487Q271 515 291 535T339 555Q368 555 388 535T408 487ZM408 104Q408 75 388 55T339 35Q311 35 291 55T271 104Q271 132 291 152T339 172Q368 172 388 152T408 104Z"  />
<glyph unicode="&#xF8;" horiz-adv-x="711" d="M48 279Q48 343 71 400T135 499T231 565T349 590Q394 590 433 580T505 551L555 621L596 595L545 523Q596 481 623 421T651 291Q651 226 628 170T564 71T468 5T349 -20Q259 -20 191 21L141 -50L103 -19L151 49Q102 91 75 150T48 279ZM362 29Q407 29 439 50T493 104T523 178T533 260Q533 308 523 355T490 445L238 87Q261 61 291 45T362 29ZM166 311Q166 266 176 219T208 130L460 487Q437 512 407 526T337 541Q291 541 259 521T206 467T176 393T166 311Z"  />
<glyph unicode="&#xF9;" horiz-adv-x="755" d="M509 -6Q511 12 512 36T513 79Q461 32 402 6T287 -20Q250 -20 219 -8T165 29T129 95T116 191V430Q116 458 113 474T101 499T74 513T27 523L25 552Q57 556 88 561T147 571T195 581T227 590L237 582Q234 557 233 529T230 473T228 422T227 379V229Q227 182 236 150T262 97T300 69T347 60Q388 60 431 77T513 124V430Q513 458 510 474T497 499T468 513T415 523L413 552Q447 556 480 561T542 571T591 581T621 590L632 582Q629 557 627 529T624 473T622 422T621 379V146Q621 117 624 101T637 76T668 63T723 53L727 24Q697 21 666 17T606 7T554 -4T519 -14L509 -6ZM378 648L375 642L340 636L185 881L190 892L295 901L378 648Z"  />
<glyph unicode="&#xFA;" horiz-adv-x="755" d="M509 -6Q511 12 512 36T513 79Q461 32 402 6T287 -20Q250 -20 219 -8T165 29T129 95T116 191V430Q116 458 113 474T101 499T74 513T27 523L25 552Q57 556 88 561T147 571T195 581T227 590L237 582Q234 557 233 529T230 473T228 422T227 379V229Q227 182 236 150T262 97T300 69T347 60Q388 60 431 77T513 124V430Q513 458 510 474T497 499T468 513T415 523L413 552Q447 556 480 561T542 571T591 581T621 590L632 582Q629 557 627 529T624 473T622 422T621 379V146Q621 117 624 101T637 76T668 63T723 53L727 24Q697 21 666 17T606 7T554 -4T519 -14L509 -6ZM405 901L510 892L515 881L360 636L325 642L322 648L405 901Z"  />
<glyph unicode="&#xFB;" horiz-adv-x="755" d="M509 -6Q511 12 512 36T513 79Q461 32 402 6T287 -20Q250 -20 219 -8T165 29T129 95T116 191V430Q116 458 113 474T101 499T74 513T27 523L25 552Q57 556 88 561T147 571T195 581T227 590L237 582Q234 557 233 529T230 473T228 422T227 379V229Q227 182 236 150T262 97T300 69T347 60Q388 60 431 77T513 124V430Q513 458 510 474T497 499T468 513T415 523L413 552Q447 556 480 561T542 571T591 581T621 590L632 582Q629 557 627 529T624 473T622 422T621 379V146Q621 117 624 101T637 76T668 63T723 53L727 24Q697 21 666 17T606 7T554 -4T519 -14L509 -6ZM202 636L162 641L158 647L312 895L394 901L542 647L538 641L498 636L350 814L202 636Z"  />
<glyph unicode="&#xFC;" horiz-adv-x="755" d="M509 -6Q511 12 512 36T513 79Q461 32 402 6T287 -20Q250 -20 219 -8T165 29T129 95T116 191V430Q116 458 113 474T101 499T74 513T27 523L25 552Q57 556 88 561T147 571T195 581T227 590L237 582Q234 557 233 529T230 473T228 422T227 379V229Q227 182 236 150T262 97T300 69T347 60Q388 60 431 77T513 124V430Q513 458 510 474T497 499T468 513T415 523L413 552Q447 556 480 561T542 571T591 581T621 590L632 582Q629 557 627 529T624 473T622 422T621 379V146Q621 117 624 101T637 76T668 63T723 53L727 24Q697 21 666 17T606 7T554 -4T519 -14L509 -6ZM477 718Q450 718 431 737T412 784Q412 812 431 831T477 850Q505 850 524 831T543 784Q543 757 524 738T477 718ZM222 718Q195 718 176 737T157 784Q157 811 176 830T222 850Q250 850 269 831T288 784Q288 757 269 738T222 718Z"  />
<glyph unicode="&#xFD;" horiz-adv-x="661" d="M687 539Q657 535 639 530T608 515T583 486T557 438Q534 392 507 332T452 203T394 63T338 -80Q318 -129 297 -180T252 -278T205 -360T157 -416Q107 -458 56 -458Q30 -458 11 -442T-9 -398Q-9 -376 3 -360T36 -332Q47 -334 56 -335T73 -337Q96 -337 116 -331T153 -308Q189 -270 223 -201T293 -41L295 -33L292 -19Q272 35 249 95T203 215T156 332T111 438Q98 468 88 486T64 514T32 528T-16 534L-14 571Q19 571 60 570T146 569Q185 569 217 570T279 571L281 538Q241 533 225 526T209 502Q209 494 212 483T221 457L354 111L500 459Q511 494 511 499Q511 518 494 526T432 537L434 571Q465 571 495 570T571 569Q606 569 633 570T685 571L687 539ZM412 901L517 892L522 881L367 636L332 642L329 648L412 901Z"  />
<glyph unicode="&#xFE;" horiz-adv-x="722" d="M228 1073Q225 1048 223 1014T219 947T216 883T215 835V527Q263 559 311 574T404 590Q463 590 511 567T594 505T648 415T667 307Q667 234 640 174T567 71T457 4T321 -20Q269 -20 215 -8V-326Q215 -350 218 -365T234 -388T275 -401T352 -407L349 -444Q333 -444 309 -444T257 -443Q230 -443 202 -443T150 -442Q112 -442 74 -443T7 -444L5 -412Q39 -409 59 -403T90 -385T104 -350T108 -289V892Q108 921 105 938T92 966T62 981T10 991L6 1020Q29 1024 57 1031T113 1046T169 1063T217 1081L228 1073ZM215 123Q215 105 226 89T257 60T301 40T355 32Q404 32 440 52T500 107T535 184T547 274Q547 322 533 365T493 440T428 492T340 511Q311 511 280 504T215 478V123Z"  />
<glyph unicode="&#xFF;" horiz-adv-x="661" d="M687 539Q657 535 639 530T608 515T583 486T557 438Q534 392 507 332T452 203T394 63T338 -80Q318 -129 297 -180T252 -278T205 -360T157 -416Q107 -458 56 -458Q30 -458 11 -442T-9 -398Q-9 -376 3 -360T36 -332Q47 -334 56 -335T73 -337Q96 -337 116 -331T153 -308Q189 -270 223 -201T293 -41L295 -33L292 -19Q272 35 249 95T203 215T156 332T111 438Q98 468 88 486T64 514T32 528T-16 534L-14 571Q19 571 60 570T146 569Q185 569 217 570T279 571L281 538Q241 533 225 526T209 502Q209 494 212 483T221 457L354 111L500 459Q511 494 511 499Q511 518 494 526T432 537L434 571Q465 571 495 570T571 569Q606 569 633 570T685 571L687 539ZM484 718Q457 718 438 737T419 784Q419 812 438 831T484 850Q512 850 531 831T550 784Q550 757 531 738T484 718ZM229 718Q202 718 183 737T164 784Q164 811 183 830T229 850Q257 850 276 831T295 784Q295 757 276 738T229 718Z"  />
<glyph unicode="&#x100;" horiz-adv-x="962" d="M618 355H285L208 158Q188 101 188 86Q188 60 212 50T300 37L297 1Q260 1 214 2T123 3Q86 3 47 2T-30 1L-32 35Q7 38 32 44T75 68T110 116T149 198L436 875Q448 905 456 927T475 976L538 984Q549 936 561 896T585 823L810 171Q825 127 837 102T865 64T905 45T969 37L966 1Q924 1 874 2T772 3Q730 3 687 2T602 1L599 35Q655 39 679 48T703 84Q703 95 699 109T689 142L618 355ZM308 413H599L465 809L308 413ZM710 1073H304L300 1134H714L710 1073Z"  />
<glyph unicode="&#x101;" horiz-adv-x="620" d="M392 323Q393 330 393 340V413Q393 464 369 497T290 531Q261 531 241 521T207 493T187 454T180 408Q164 395 136 395Q113 395 93 405T72 437Q72 453 84 470T117 503T163 535T214 561Q281 590 346 590Q378 590 406 582T455 555T488 507T500 438Q500 378 498 300T496 125Q496 86 511 64T553 42Q577 42 605 59L623 32Q600 10 567 -4T499 -18Q464 -18 435 1T395 66Q385 59 364 45T316 17T258 -9T199 -20Q166 -20 139 -8T93 24T63 71T52 128Q52 179 81 215T159 272Q194 286 252 300T392 323ZM390 114Q390 156 391 196T392 278Q365 275 338 271T284 259T235 241T196 215Q171 193 171 158Q171 116 192 87T259 58Q291 58 326 73T390 114ZM503 731H117L113 792H507L503 731Z"  />
<glyph unicode="&#x102;" horiz-adv-x="962" d="M618 355H285L208 158Q188 101 188 86Q188 60 212 50T300 37L297 1Q260 1 214 2T123 3Q86 3 47 2T-30 1L-32 35Q7 38 32 44T75 68T110 116T149 198L436 875Q448 905 456 927T475 976L538 984Q549 936 561 896T585 823L810 171Q825 127 837 102T865 64T905 45T969 37L966 1Q924 1 874 2T772 3Q730 3 687 2T602 1L599 35Q655 39 679 48T703 84Q703 95 699 109T689 142L618 355ZM308 413H599L465 809L308 413ZM363 1225Q370 1171 408 1138T507 1105Q567 1105 605 1138T651 1225L692 1220Q692 1181 680 1147T645 1087T587 1046T507 1031Q462 1031 427 1046T369 1086T334 1146T322 1220L363 1225Z"  />
<glyph unicode="&#x103;" horiz-adv-x="620" d="M392 323Q393 330 393 340V413Q393 464 369 497T290 531Q261 531 241 521T207 493T187 454T180 408Q164 395 136 395Q113 395 93 405T72 437Q72 453 84 470T117 503T163 535T214 561Q281 590 346 590Q378 590 406 582T455 555T488 507T500 438Q500 378 498 300T496 125Q496 86 511 64T553 42Q577 42 605 59L623 32Q600 10 567 -4T499 -18Q464 -18 435 1T395 66Q385 59 364 45T316 17T258 -9T199 -20Q166 -20 139 -8T93 24T63 71T52 128Q52 179 81 215T159 272Q194 286 252 300T392 323ZM390 114Q390 156 391 196T392 278Q365 275 338 271T284 259T235 241T196 215Q171 193 171 158Q171 116 192 87T259 58Q291 58 326 73T390 114ZM166 870Q173 804 211 766T310 728Q370 728 408 766T454 870L495 865Q495 819 483 780T448 713T390 668T310 651Q265 651 230 667T172 712T137 780T125 865L166 870Z"  />
<glyph unicode="&#x104;" horiz-adv-x="962" d="M616 -173Q616 -213 637 -233T690 -253Q730 -253 768 -223L788 -253Q751 -294 710 -311T630 -329Q581 -329 548 -301T514 -218Q514 -185 528 -154T563 -96T610 -44T659 0Q674 13 683 21T699 35T707 48T709 64Q709 74 707 85T694 126L618 355H285L208 158Q188 101 188 86Q188 60 212 50T300 37L297 1Q260 1 214 2T123 3Q86 3 47 2T-30 1L-32 35Q7 38 32 44T75 68T110 116T149 198L436 875Q448 905 456 927T475 976L538 984Q549 936 561 896T585 823L810 171Q825 127 837 102T865 64T905 45T969 37L966 1Q924 1 876 2T792 3Q773 3 756 1T722 -10Q696 -21 677 -40T644 -82T623 -129T616 -173ZM308 413H599L465 809L308 413Z"  />
<glyph unicode="&#x105;" horiz-adv-x="620" d="M392 323Q393 330 393 340V413Q393 464 369 497T290 531Q261 531 241 521T207 493T187 454T180 408Q164 395 136 395Q113 395 93 405T72 437Q72 453 84 470T117 503T163 535T214 561Q281 590 346 590Q378 590 406 582T455 555T488 507T500 438Q500 378 498 300T496 125Q496 86 511 64T553 42Q577 42 605 59L624 30Q536 -19 493 -70T449 -173Q449 -213 470 -233T523 -253Q563 -253 601 -223L621 -253Q584 -294 543 -311T463 -329Q414 -329 381 -301T347 -218Q347 -193 358 -168T388 -117T433 -68T492 -18Q458 -16 431 3T395 66Q385 59 364 45T316 17T258 -9T199 -20Q166 -20 139 -8T93 24T63 71T52 128Q52 179 81 215T159 272Q194 286 252 300T392 323ZM390 114Q390 156 391 196T392 278Q365 275 338 271T284 259T235 241T196 215Q171 193 171 158Q171 116 192 87T259 58Q291 58 326 73T390 114Z"  />
<glyph unicode="&#x106;" horiz-adv-x="1013" d="M207 498Q207 402 231 318T303 171T425 72T597 35Q651 35 700 50T788 99Q824 131 850 177T903 287L943 277Q926 211 916 153T899 29Q820 6 743 -7T587 -20Q474 -20 379 15T214 114T105 268T66 470Q66 598 113 693T240 853T427 948T651 980Q712 980 781 971T911 946Q905 882 904 825T902 703L860 699Q856 758 837 801T785 873T709 915T615 929Q515 929 439 898T312 810T234 674T207 498ZM739 1214L817 1148L815 1136L548 1020L527 1045L529 1052L739 1214Z"  />
<glyph unicode="&#x107;" horiz-adv-x="584" d="M566 127Q549 92 522 65T463 19T394 -10T322 -20Q262 -20 212 3T126 66T70 156T50 265Q50 334 77 393T151 496T259 565T388 590Q421 590 454 584T520 561Q534 554 539 543T545 520Q545 502 531 483T485 447H480Q443 485 409 503T330 521Q288 521 257 504T204 459T172 395T161 319Q161 270 175 225T217 146T283 92T374 71Q422 71 466 91T537 153L566 127ZM415 901L520 892L525 881L370 636L335 642L332 648L415 901Z"  />
<glyph unicode="&#x108;" horiz-adv-x="1013" d="M207 498Q207 402 231 318T303 171T425 72T597 35Q651 35 700 50T788 99Q824 131 850 177T903 287L943 277Q926 211 916 153T899 29Q820 6 743 -7T587 -20Q474 -20 379 15T214 114T105 268T66 470Q66 598 113 693T240 853T427 948T651 980Q712 980 781 971T911 946Q905 882 904 825T902 703L860 699Q856 758 837 801T785 873T709 915T615 929Q515 929 439 898T312 810T234 674T207 498ZM448 1014L410 1024L406 1030L560 1208L642 1214L790 1030L786 1024L748 1014L598 1129L448 1014Z"  />
<glyph unicode="&#x109;" horiz-adv-x="584" d="M566 127Q549 92 522 65T463 19T394 -10T322 -20Q262 -20 212 3T126 66T70 156T50 265Q50 334 77 393T151 496T259 565T388 590Q421 590 454 584T520 561Q534 554 539 543T545 520Q545 502 531 483T485 447H480Q443 485 409 503T330 521Q288 521 257 504T204 459T172 395T161 319Q161 270 175 225T217 146T283 92T374 71Q422 71 466 91T537 153L566 127ZM212 636L172 641L168 647L322 895L404 901L552 647L548 641L508 636L360 814L212 636Z"  />
<glyph unicode="&#x10A;" horiz-adv-x="1013" d="M207 498Q207 402 231 318T303 171T425 72T597 35Q651 35 700 50T788 99Q824 131 850 177T903 287L943 277Q926 211 916 153T899 29Q820 6 743 -7T587 -20Q474 -20 379 15T214 114T105 268T66 470Q66 598 113 693T240 853T427 948T651 980Q712 980 781 971T911 946Q905 882 904 825T902 703L860 699Q856 758 837 801T785 873T709 915T615 929Q515 929 439 898T312 810T234 674T207 498ZM528 1115Q528 1147 547 1166T598 1186Q630 1186 650 1167T670 1115Q670 1084 650 1065T598 1045Q566 1045 547 1064T528 1115Z"  />
<glyph unicode="&#x10B;" horiz-adv-x="584" d="M566 127Q549 92 522 65T463 19T394 -10T322 -20Q262 -20 212 3T126 66T70 156T50 265Q50 334 77 393T151 496T259 565T388 590Q421 590 454 584T520 561Q534 554 539 543T545 520Q545 502 531 483T485 447H480Q443 485 409 503T330 521Q288 521 257 504T204 459T172 395T161 319Q161 270 175 225T217 146T283 92T374 71Q422 71 466 91T537 153L566 127ZM287 830Q287 863 307 883T360 904Q395 904 415 884T436 830Q436 797 416 777T360 756Q327 756 307 776T287 830Z"  />
<glyph unicode="&#x10C;" horiz-adv-x="1013" d="M207 498Q207 402 231 318T303 171T425 72T597 35Q651 35 700 50T788 99Q824 131 850 177T903 287L943 277Q926 211 916 153T899 29Q820 6 743 -7T587 -20Q474 -20 379 15T214 114T105 268T66 470Q66 598 113 693T240 853T427 948T651 980Q712 980 781 971T911 946Q905 882 904 825T902 703L860 699Q856 758 837 801T785 873T709 915T615 929Q515 929 439 898T312 810T234 674T207 498ZM748 1225L786 1215L790 1209L636 1031L554 1025L406 1209L410 1215L448 1225L598 1110L748 1225Z"  />
<glyph unicode="&#x10D;" horiz-adv-x="584" d="M566 127Q549 92 522 65T463 19T394 -10T322 -20Q262 -20 212 3T126 66T70 156T50 265Q50 334 77 393T151 496T259 565T388 590Q421 590 454 584T520 561Q534 554 539 543T545 520Q545 502 531 483T485 447H480Q443 485 409 503T330 521Q288 521 257 504T204 459T172 395T161 319Q161 270 175 225T217 146T283 92T374 71Q422 71 466 91T537 153L566 127ZM508 911L548 906L552 900L398 652L316 646L168 900L172 906L212 911L360 733L508 911Z"  />
<glyph unicode="&#x10E;" horiz-adv-x="1080" d="M53 960Q89 960 140 959T243 958Q294 958 350 963T458 969Q566 969 666 946T843 870T967 732T1014 522Q1014 394 968 295T844 128T663 25T444 -11Q393 -11 335 -5T226 2Q206 2 184 2T138 1Q115 1 94 1T57 0L54 34Q96 37 122 43T162 63T180 100T185 162V831Q185 858 181 875T164 902T123 917T51 924L53 960ZM301 178Q301 149 303 125T318 82T360 54T443 44Q540 44 619 74T756 163T844 304T876 491Q876 597 844 676T754 809T619 890T450 917Q418 917 391 913T344 902T313 887T301 870V178ZM607 1225L645 1215L649 1209L495 1031L413 1025L265 1209L269 1215L307 1225L457 1110L607 1225Z"  />
<glyph unicode="&#x10F;" horiz-adv-x="833" d="M623 1073Q620 1048 618 1014T614 946T611 882T610 834V150Q610 121 613 105T627 79T659 66T717 56L721 28Q689 23 656 18T595 6T545 -5T513 -14L503 -6V59Q454 18 405 0T305 -19Q253 -19 207 1T127 57T72 144T52 259Q52 331 79 391T154 496T265 565T400 590Q414 590 444 588T503 578V910Q503 938 500 954T486 980T453 995T394 1006L391 1034Q428 1040 464 1047T530 1060T582 1072T613 1081L623 1073ZM503 477Q476 508 438 523T361 538Q313 538 278 518T220 465T186 389T174 300Q174 253 186 210T224 133T285 80T369 60Q411 60 444 72T503 106V477ZM671 693Q716 710 742 744T769 811Q769 837 750 858T690 883Q680 888 676 897T672 916Q672 941 690 955T734 970Q758 970 778 959T811 931T832 891T840 847Q840 814 828 785T794 732T744 690T684 660L671 693Z"  />
<glyph unicode="&#x110;" horiz-adv-x="1080" d="M54 534H185V831Q185 858 181 875T164 902T123 917T51 924L53 960Q89 960 140 959T243 958Q294 958 350 963T458 969Q566 969 666 946T843 870T967 732T1014 522Q1014 394 968 295T844 128T663 25T444 -11Q393 -11 335 -5T226 2Q206 2 184 2T138 1Q115 1 94 1T57 0L54 34Q96 37 122 43T162 63T180 100T185 162V476H58L54 534ZM301 534H595L591 476H301V178Q301 149 303 125T318 82T360 54T443 44Q540 44 619 74T756 163T844 304T876 491Q876 597 844 676T754 809T619 890T450 917Q418 917 391 913T344 902T313 887T301 870V534Z"  />
<glyph unicode="&#x111;" horiz-adv-x="733" d="M623 1073Q620 1048 618 1014T614 946T611 882T610 834V793H720L716 743H610V150Q610 121 613 105T627 79T659 66T717 56L721 28Q689 23 656 18T595 6T545 -5T513 -14L503 -6V59Q454 18 405 0T305 -19Q253 -19 207 1T127 57T72 144T52 259Q52 331 79 391T154 496T265 565T400 590Q414 590 444 588T503 578V743H247L243 793H503V910Q503 938 500 954T486 980T453 995T394 1006L391 1034Q428 1040 464 1047T530 1060T582 1072T613 1081L623 1073ZM503 477Q476 508 438 523T361 538Q313 538 278 518T220 465T186 389T174 300Q174 253 186 210T224 133T285 80T369 60Q411 60 444 72T503 106V477Z"  />
<glyph unicode="&#x112;" horiz-adv-x="816" d="M300 163Q300 129 304 107T321 73T359 55T425 50H499Q557 50 593 59T655 91T699 151T742 242L781 233Q773 204 766 171T753 106T743 46T738 0Q539 0 416 1T231 2Q213 2 189 2T138 1Q112 1 88 1T46 0L43 34Q89 37 117 43T160 63T180 100T185 162V835Q185 859 181 875T163 901T124 917T55 924L58 960Q77 960 101 960T151 959Q177 959 201 959T247 958Q286 958 411 959T729 960Q723 909 720 853T716 734L676 733Q667 785 656 819T625 873T573 902T490 911H347Q317 911 309 905T300 874V528L638 538L645 531L643 448Q552 456 464 459T300 464V163ZM633 1073H227L223 1134H637L633 1073Z"  />
<glyph unicode="&#x113;" horiz-adv-x="604" d="M559 111Q527 69 493 44T428 4T371 -15T330 -20Q268 -20 216 3T127 66T69 159T48 273Q48 340 72 397T137 498T231 565T340 590Q385 590 425 576T496 534T544 469T562 384V370L561 356Q556 329 533 329H155Q156 260 176 211T227 131T298 86T375 71Q416 71 453 85T531 140L559 111ZM411 374Q431 374 437 381T443 407Q443 434 434 458T408 500T366 528T310 538Q286 538 262 527T217 495T181 444T159 374H411ZM528 731H142L138 792H532L528 731Z"  />
<glyph unicode="&#x114;" horiz-adv-x="816" d="M300 163Q300 129 304 107T321 73T359 55T425 50H499Q557 50 593 59T655 91T699 151T742 242L781 233Q773 204 766 171T753 106T743 46T738 0Q539 0 416 1T231 2Q213 2 189 2T138 1Q112 1 88 1T46 0L43 34Q89 37 117 43T160 63T180 100T185 162V835Q185 859 181 875T163 901T124 917T55 924L58 960Q77 960 101 960T151 959Q177 959 201 959T247 958Q286 958 411 959T729 960Q723 909 720 853T716 734L676 733Q667 785 656 819T625 873T573 902T490 911H347Q317 911 309 905T300 874V528L638 538L645 531L643 448Q552 456 464 459T300 464V163ZM286 1225Q293 1171 331 1138T430 1105Q490 1105 528 1138T574 1225L615 1220Q615 1181 603 1147T568 1087T510 1046T430 1031Q385 1031 350 1046T292 1086T257 1146T245 1220L286 1225Z"  />
<glyph unicode="&#x115;" horiz-adv-x="604" d="M559 111Q527 69 493 44T428 4T371 -15T330 -20Q268 -20 216 3T127 66T69 159T48 273Q48 340 72 397T137 498T231 565T340 590Q385 590 425 576T496 534T544 469T562 384V370L561 356Q556 329 533 329H155Q156 260 176 211T227 131T298 86T375 71Q416 71 453 85T531 140L559 111ZM411 374Q431 374 437 381T443 407Q443 434 434 458T408 500T366 528T310 538Q286 538 262 527T217 495T181 444T159 374H411ZM191 870Q198 804 236 766T335 728Q395 728 433 766T479 870L520 865Q520 819 508 780T473 713T415 668T335 651Q290 651 255 667T197 712T162 780T150 865L191 870Z"  />
<glyph unicode="&#x116;" horiz-adv-x="816" d="M300 163Q300 129 304 107T321 73T359 55T425 50H499Q557 50 593 59T655 91T699 151T742 242L781 233Q773 204 766 171T753 106T743 46T738 0Q539 0 416 1T231 2Q213 2 189 2T138 1Q112 1 88 1T46 0L43 34Q89 37 117 43T160 63T180 100T185 162V835Q185 859 181 875T163 901T124 917T55 924L58 960Q77 960 101 960T151 959Q177 959 201 959T247 958Q286 958 411 959T729 960Q723 909 720 853T716 734L676 733Q667 785 656 819T625 873T573 902T490 911H347Q317 911 309 905T300 874V528L638 538L645 531L643 448Q552 456 464 459T300 464V163ZM360 1115Q360 1147 379 1166T430 1186Q462 1186 482 1167T502 1115Q502 1084 482 1065T430 1045Q398 1045 379 1064T360 1115Z"  />
<glyph unicode="&#x117;" horiz-adv-x="604" d="M559 111Q527 69 493 44T428 4T371 -15T330 -20Q268 -20 216 3T127 66T69 159T48 273Q48 340 72 397T137 498T231 565T340 590Q385 590 425 576T496 534T544 469T562 384V370L561 356Q556 329 533 329H155Q156 260 176 211T227 131T298 86T375 71Q416 71 453 85T531 140L559 111ZM411 374Q431 374 437 381T443 407Q443 434 434 458T408 500T366 528T310 538Q286 538 262 527T217 495T181 444T159 374H411ZM262 830Q262 863 282 883T335 904Q370 904 390 884T411 830Q411 797 391 777T335 756Q302 756 282 776T262 830Z"  />
<glyph unicode="&#x118;" horiz-adv-x="816" d="M560 -173Q560 -213 581 -233T634 -253Q674 -253 712 -223L732 -253Q695 -294 654 -311T574 -329Q525 -329 492 -301T458 -218Q458 -188 471 -158T506 -99T558 -45T619 0Q535 0 474 0T368 1Q323 1 291 1T231 2Q211 2 185 2T133 1Q107 1 84 1T46 0L43 34Q89 37 117 43T160 63T180 100T185 162V835Q185 859 181 875T163 901T124 917T55 924L58 960Q74 960 96 960T144 959Q170 959 196 959T247 958Q286 958 411 959T729 960Q723 909 720 853T716 734L676 733Q667 785 656 819T625 873T573 902T490 911H347Q317 911 309 905T300 874V528L638 538L645 531L643 448Q552 456 464 459T300 464V163Q300 129 304 107T321 73T359 55T425 50H499Q557 50 593 59T655 91T699 151T742 242L781 233Q773 204 766 171T753 106T743 45T738 -1L688 0Q659 -13 636 -32T596 -74T570 -122T560 -173Z"  />
<glyph unicode="&#x119;" horiz-adv-x="604" d="M379 -173Q379 -213 400 -233T453 -253Q493 -253 531 -223L551 -253Q514 -294 473 -311T393 -329Q344 -329 311 -301T277 -218Q277 -167 314 -113T418 7Q387 -6 360 -13T320 -20Q258 -20 206 3T117 67T59 161T38 274Q38 340 62 398T127 498T221 565T330 590Q375 590 415 576T486 534T534 469T552 384V370L551 356Q546 329 523 329H145Q146 261 166 213T217 133T288 86T365 71Q407 71 443 86T521 141L550 109Q462 21 421 -51T379 -173ZM401 374Q421 374 427 381T433 407Q433 434 424 458T398 500T356 528T300 538Q276 538 252 527T207 495T171 444T149 374H401Z"  />
<glyph unicode="&#x11A;" horiz-adv-x="816" d="M300 163Q300 129 304 107T321 73T359 55T425 50H499Q557 50 593 59T655 91T699 151T742 242L781 233Q773 204 766 171T753 106T743 46T738 0Q539 0 416 1T231 2Q213 2 189 2T138 1Q112 1 88 1T46 0L43 34Q89 37 117 43T160 63T180 100T185 162V835Q185 859 181 875T163 901T124 917T55 924L58 960Q77 960 101 960T151 959Q177 959 201 959T247 958Q286 958 411 959T729 960Q723 909 720 853T716 734L676 733Q667 785 656 819T625 873T573 902T490 911H347Q317 911 309 905T300 874V528L638 538L645 531L643 448Q552 456 464 459T300 464V163ZM580 1225L618 1215L622 1209L468 1031L386 1025L238 1209L242 1215L280 1225L430 1110L580 1225Z"  />
<glyph unicode="&#x11B;" horiz-adv-x="604" d="M559 111Q527 69 493 44T428 4T371 -15T330 -20Q268 -20 216 3T127 66T69 159T48 273Q48 340 72 397T137 498T231 565T340 590Q385 590 425 576T496 534T544 469T562 384V370L561 356Q556 329 533 329H155Q156 260 176 211T227 131T298 86T375 71Q416 71 453 85T531 140L559 111ZM411 374Q431 374 437 381T443 407Q443 434 434 458T408 500T366 528T310 538Q286 538 262 527T217 495T181 444T159 374H411ZM483 911L523 906L527 900L373 652L291 646L143 900L147 906L187 911L335 733L483 911Z"  />
<glyph unicode="&#x11C;" horiz-adv-x="1061" d="M881 696Q877 755 855 799T796 872T712 915T609 929Q506 929 430 898T304 810T230 674T205 498Q205 402 230 318T305 171T431 72T610 35Q624 35 656 38T723 49T782 70T808 103V301Q808 325 802 341T778 367T727 383T638 390L640 426Q664 426 692 426T749 425Q778 425 805 425T854 424Q874 424 896 424T939 425Q960 425 979 425T1013 426L1016 392Q987 389 969 383T941 363T927 326T923 265V201Q923 153 924 109T930 36Q849 14 765 -3T601 -20Q484 -20 386 15T216 114T104 268T64 470Q64 598 109 693T234 853T419 948T647 980Q678 980 715 977T789 969T863 956T930 941Q924 877 924 821T923 700L881 696ZM458 1014L420 1024L416 1030L570 1208L652 1214L800 1030L796 1024L758 1014L608 1129L458 1014Z"  />
<glyph unicode="&#x11D;" horiz-adv-x="682" d="M67 353Q67 403 87 446T142 522T222 572T317 590Q397 590 455 556Q466 549 475 547T498 544Q509 545 514 545L667 556L674 548L668 490H527Q568 437 568 373Q568 314 545 269T484 194T401 148T311 132Q272 132 228 142Q205 131 190 110T174 69Q174 55 184 45T210 27T243 17T275 14Q314 14 356 15T436 17Q476 17 516 10T588 -17T641 -71T661 -157Q661 -220 633 -275T555 -371T436 -435T283 -459Q240 -459 195 -448T112 -413T52 -354T28 -270Q28 -236 41 -208T75 -155T122 -111T174 -73Q133 -58 104 -33T74 30Q74 47 85 66T113 103T147 136T178 162Q67 218 67 353ZM334 -85Q301 -85 280 -85T244 -89T219 -98T196 -114Q165 -140 150 -172T135 -240Q135 -281 155 -309T206 -354T275 -380T349 -388Q394 -388 434 -379T504 -348T551 -294T569 -215Q569 -173 551 -145T499 -103Q470 -90 435 -88T354 -85H334ZM327 176Q359 176 382 191T419 230T441 284T448 343Q448 379 441 415T417 481T374 528T308 546Q275 546 252 532T215 493T194 440T187 380Q187 346 195 310T219 244T262 195T327 176ZM177 636L137 641L133 647L287 895L369 901L517 647L513 641L473 636L325 814L177 636Z"  />
<glyph unicode="&#x11E;" horiz-adv-x="1061" d="M881 696Q877 755 855 799T796 872T712 915T609 929Q506 929 430 898T304 810T230 674T205 498Q205 402 230 318T305 171T431 72T610 35Q624 35 656 38T723 49T782 70T808 103V301Q808 325 802 341T778 367T727 383T638 390L640 426Q664 426 692 426T749 425Q778 425 805 425T854 424Q874 424 896 424T939 425Q960 425 979 425T1013 426L1016 392Q987 389 969 383T941 363T927 326T923 265V201Q923 153 924 109T930 36Q849 14 765 -3T601 -20Q484 -20 386 15T216 114T104 268T64 470Q64 598 109 693T234 853T419 948T647 980Q678 980 715 977T789 969T863 956T930 941Q924 877 924 821T923 700L881 696ZM464 1225Q471 1171 509 1138T608 1105Q668 1105 706 1138T752 1225L793 1220Q793 1181 781 1147T746 1087T688 1046T608 1031Q563 1031 528 1046T470 1086T435 1146T423 1220L464 1225Z"  />
<glyph unicode="&#x11F;" horiz-adv-x="682" d="M67 353Q67 403 87 446T142 522T222 572T317 590Q397 590 455 556Q466 549 475 547T498 544Q509 545 514 545L667 556L674 548L668 490H527Q568 437 568 373Q568 314 545 269T484 194T401 148T311 132Q272 132 228 142Q205 131 190 110T174 69Q174 55 184 45T210 27T243 17T275 14Q314 14 356 15T436 17Q476 17 516 10T588 -17T641 -71T661 -157Q661 -220 633 -275T555 -371T436 -435T283 -459Q240 -459 195 -448T112 -413T52 -354T28 -270Q28 -236 41 -208T75 -155T122 -111T174 -73Q133 -58 104 -33T74 30Q74 47 85 66T113 103T147 136T178 162Q67 218 67 353ZM334 -85Q301 -85 280 -85T244 -89T219 -98T196 -114Q165 -140 150 -172T135 -240Q135 -281 155 -309T206 -354T275 -380T349 -388Q394 -388 434 -379T504 -348T551 -294T569 -215Q569 -173 551 -145T499 -103Q470 -90 435 -88T354 -85H334ZM327 176Q359 176 382 191T419 230T441 284T448 343Q448 379 441 415T417 481T374 528T308 546Q275 546 252 532T215 493T194 440T187 380Q187 346 195 310T219 244T262 195T327 176ZM181 870Q188 804 226 766T325 728Q385 728 423 766T469 870L510 865Q510 819 498 780T463 713T405 668T325 651Q280 651 245 667T187 712T152 780T140 865L181 870Z"  />
<glyph unicode="&#x120;" horiz-adv-x="1061" d="M881 696Q877 755 855 799T796 872T712 915T609 929Q506 929 430 898T304 810T230 674T205 498Q205 402 230 318T305 171T431 72T610 35Q624 35 656 38T723 49T782 70T808 103V301Q808 325 802 341T778 367T727 383T638 390L640 426Q664 426 692 426T749 425Q778 425 805 425T854 424Q874 424 896 424T939 425Q960 425 979 425T1013 426L1016 392Q987 389 969 383T941 363T927 326T923 265V201Q923 153 924 109T930 36Q849 14 765 -3T601 -20Q484 -20 386 15T216 114T104 268T64 470Q64 598 109 693T234 853T419 948T647 980Q678 980 715 977T789 969T863 956T930 941Q924 877 924 821T923 700L881 696ZM538 1115Q538 1147 557 1166T608 1186Q640 1186 660 1167T680 1115Q680 1084 660 1065T608 1045Q576 1045 557 1064T538 1115Z"  />
<glyph unicode="&#x121;" horiz-adv-x="682" d="M67 353Q67 403 87 446T142 522T222 572T317 590Q397 590 455 556Q466 549 475 547T498 544Q509 545 514 545L667 556L674 548L668 490H527Q568 437 568 373Q568 314 545 269T484 194T401 148T311 132Q272 132 228 142Q205 131 190 110T174 69Q174 55 184 45T210 27T243 17T275 14Q314 14 356 15T436 17Q476 17 516 10T588 -17T641 -71T661 -157Q661 -220 633 -275T555 -371T436 -435T283 -459Q240 -459 195 -448T112 -413T52 -354T28 -270Q28 -236 41 -208T75 -155T122 -111T174 -73Q133 -58 104 -33T74 30Q74 47 85 66T113 103T147 136T178 162Q67 218 67 353ZM334 -85Q301 -85 280 -85T244 -89T219 -98T196 -114Q165 -140 150 -172T135 -240Q135 -281 155 -309T206 -354T275 -380T349 -388Q394 -388 434 -379T504 -348T551 -294T569 -215Q569 -173 551 -145T499 -103Q470 -90 435 -88T354 -85H334ZM327 176Q359 176 382 191T419 230T441 284T448 343Q448 379 441 415T417 481T374 528T308 546Q275 546 252 532T215 493T194 440T187 380Q187 346 195 310T219 244T262 195T327 176ZM252 830Q252 863 272 883T325 904Q360 904 380 884T401 830Q401 797 381 777T325 756Q292 756 272 776T252 830Z"  />
<glyph unicode="&#x122;" horiz-adv-x="1061" d="M881 696Q877 755 855 799T796 872T712 915T609 929Q506 929 430 898T304 810T230 674T205 498Q205 402 230 318T305 171T431 72T610 35Q624 35 656 38T723 49T782 70T808 103V301Q808 325 802 341T778 367T727 383T638 390L640 426Q664 426 692 426T749 425Q778 425 805 425T854 424Q874 424 896 424T939 425Q960 425 979 425T1013 426L1016 392Q987 389 969 383T941 363T927 326T923 265V201Q923 153 924 109T930 36Q849 14 765 -3T601 -20Q484 -20 386 15T216 114T104 268T64 470Q64 598 109 693T234 853T419 948T647 980Q678 980 715 977T789 969T863 956T930 941Q924 877 924 821T923 700L881 696ZM509 -317Q549 -303 572 -275T595 -218Q595 -195 578 -178T526 -157Q518 -151 514 -141T510 -122Q510 -96 528 -81T570 -66Q593 -66 612 -76T644 -102T665 -137T672 -175Q672 -206 660 -233T628 -283T582 -323T525 -352L509 -317Z"  />
<glyph unicode="&#x123;" horiz-adv-x="682" d="M67 353Q67 403 87 446T142 522T222 572T317 590Q397 590 455 556Q466 549 475 547T498 544Q509 545 514 545L667 556L674 548L668 490H527Q568 437 568 373Q568 314 545 269T484 194T401 148T311 132Q272 132 228 142Q205 131 190 110T174 69Q174 55 184 45T210 27T243 17T275 14Q314 14 356 15T436 17Q476 17 516 10T588 -17T641 -71T661 -157Q661 -220 633 -275T555 -371T436 -435T283 -459Q240 -459 195 -448T112 -413T52 -354T28 -270Q28 -236 41 -208T75 -155T122 -111T174 -73Q133 -58 104 -33T74 30Q74 47 85 66T113 103T147 136T178 162Q67 218 67 353ZM334 -85Q301 -85 280 -85T244 -89T219 -98T196 -114Q165 -140 150 -172T135 -240Q135 -281 155 -309T206 -354T275 -380T349 -388Q394 -388 434 -379T504 -348T551 -294T569 -215Q569 -173 551 -145T499 -103Q470 -90 435 -88T354 -85H334ZM327 176Q359 176 382 191T419 230T441 284T448 343Q448 379 441 415T417 481T374 528T308 546Q275 546 252 532T215 493T194 440T187 380Q187 346 195 310T219 244T262 195T327 176ZM402 897Q362 883 339 855T316 798Q316 775 333 758T385 737Q393 731 397 721T401 702Q401 676 383 661T341 646Q318 646 299 656T267 682T246 717T239 755Q239 786 251 813T283 863T329 903T386 932L402 897Z"  />
<glyph unicode="&#x124;" horiz-adv-x="1135" d="M835 535V835Q835 859 832 875T816 901T779 917T713 924L715 960Q731 960 753 960T801 959Q827 959 854 959T905 958Q924 958 947 958T992 959Q1015 959 1035 959T1069 960L1071 926Q1032 923 1009 917T972 897T955 859T950 798V125Q950 101 954 85T970 59T1008 43T1075 36L1073 0Q1057 0 1034 0T985 1Q959 1 932 1T881 2Q861 2 839 2T794 1Q772 1 753 1T719 0L716 34Q755 37 778 43T814 63T831 100T835 162V476H300V125Q300 101 303 85T319 59T356 43T422 36L420 0Q404 0 382 0T334 1T281 2T230 3Q211 3 188 3T142 2Q120 2 100 2T66 1L64 35Q103 38 126 44T163 64T180 101T185 163V835Q185 859 181 875T165 901T127 917T60 924L62 960H106Q131 960 156 960T206 959H294Q317 959 339 959T382 960H416L419 926Q380 923 357 917T321 897T304 859T300 798V535H835ZM417 1014L379 1024L375 1030L529 1208L611 1214L759 1030L755 1024L717 1014L567 1129L417 1014Z"  />
<glyph unicode="&#x125;" horiz-adv-x="769" d="M254 1073Q250 1048 248 1014T244 946T241 882T240 834V509Q291 543 351 566T468 590Q504 590 536 579T592 544T630 480T644 383V114Q644 90 646 76T659 53T689 42T743 37L741 0Q709 0 668 1T578 2Q539 2 504 1T441 0L438 32Q469 35 488 40T518 56T532 89T536 149V360Q536 441 500 476T407 511Q369 511 326 498T240 459V114Q240 90 243 76T256 53T285 42T338 37L335 0Q303 0 264 1T176 2Q137 2 100 1T35 0L33 32Q66 35 85 41T116 59T130 94T134 155V900Q134 929 131 945T117 971T85 985T30 996L27 1025Q55 1030 86 1037T147 1051T201 1066T243 1081L254 1073ZM16 1084L-22 1094L-26 1100L128 1278L210 1284L358 1100L354 1094L316 1084L166 1199L16 1084Z"  />
<glyph unicode="&#x126;" horiz-adv-x="1135" d="M64 34Q103 37 126 43T163 63T180 100T185 162V681H99L95 734H185V835Q185 859 181 875T165 901T127 917T60 924L62 960Q78 960 100 960T148 959Q174 959 201 959T252 958Q271 958 294 958T339 959Q362 959 382 959T416 960L419 926Q380 923 357 917T321 897T304 859T300 798V734H835V835Q835 859 832 875T816 901T779 917T713 924L715 960Q731 960 753 960T801 959Q827 959 854 959T905 958Q924 958 947 958T992 959Q1015 959 1035 959T1069 960L1071 926Q1032 923 1009 917T972 897T955 859T950 798V734H1039L1036 681H950V125Q950 101 954 85T970 59T1008 43T1075 36L1073 0Q1057 0 1034 0T985 1Q959 1 932 1T881 2Q861 2 839 2T794 1Q772 1 753 1T719 0L716 34Q755 37 778 43T814 63T831 100T835 162V466H300V125Q300 101 303 85T319 59T356 43T422 36L420 0Q404 0 382 0T333 1Q308 1 281 1T230 2Q211 2 188 2T142 1Q120 1 100 1T66 0L64 34ZM835 524V681H300V524H835Z"  />
<glyph unicode="&#x127;" horiz-adv-x="769" d="M240 793H516L512 743H240V509Q291 543 351 566T468 590Q504 590 536 579T592 544T630 480T644 383V114Q644 90 646 76T659 53T689 42T743 37L741 0Q709 0 668 1T578 2Q539 2 504 1T441 0L438 32Q469 35 488 40T518 56T532 89T536 149V360Q536 441 500 476T407 511Q369 511 326 498T240 459V114Q240 90 243 76T256 53T285 42T338 37L335 0Q303 0 264 1T176 2Q137 2 100 1T35 0L33 32Q66 35 85 41T116 59T130 94T134 155V743H36L32 793H134V900Q134 929 131 945T117 971T85 985T30 996L27 1025Q55 1030 86 1037T147 1051T201 1066T243 1081L254 1073Q250 1048 248 1014T244 946T241 882T240 834V793Z"  />
<glyph unicode="&#x128;" horiz-adv-x="485" d="M61 34Q100 37 124 43T161 63T180 100T185 162V835Q185 859 181 875T164 901T125 917T59 924L61 960Q77 960 100 960T149 959Q176 959 203 959T255 958Q274 958 297 958T344 959Q367 959 387 959T422 960L425 926Q386 923 362 917T324 897T305 860T300 799V125Q300 101 304 85T321 59T360 43T427 36L425 0Q409 0 386 0T335 1Q309 1 282 1T231 2Q211 2 188 2T142 1Q119 1 99 1T64 0L61 34ZM460 1156Q449 1133 436 1112T405 1076T368 1051T325 1041Q306 1041 289 1048T251 1063Q209 1080 191 1087T159 1094Q132 1094 114 1079T80 1040L43 1057Q53 1080 66 1100T97 1137T134 1162T177 1171Q196 1171 213 1164T251 1149Q294 1132 312 1125T343 1118Q371 1118 389 1134T423 1173L460 1156Z"  />
<glyph unicode="&#x129;" horiz-adv-x="375" d="M355 0Q323 0 278 1T185 2Q146 2 109 1T44 0L42 32Q75 35 94 40T125 59T139 94T143 155V418Q143 446 140 462T128 487T100 501T51 511L48 540Q79 546 110 552T169 566T218 579T251 590L261 582Q258 557 256 529T253 474T252 422T251 379V114Q251 90 254 76T267 53T299 42T357 37L355 0ZM421 821Q410 797 396 775T363 735T324 708T278 698Q258 698 240 706T199 722Q154 740 134 747T101 755Q72 755 53 739T16 697L-23 715Q-12 739 2 761T35 800T74 827T120 837Q140 837 158 829T199 813Q221 804 237 798T264 788T282 782T297 780Q326 780 345 797T382 839L421 821Z"  />
<glyph unicode="&#x12A;" horiz-adv-x="485" d="M61 34Q100 37 124 43T161 63T180 100T185 162V835Q185 859 181 875T164 901T125 917T59 924L61 960Q77 960 100 960T149 959Q176 959 203 959T255 958Q274 958 297 958T344 959Q367 959 387 959T422 960L425 926Q386 923 362 917T324 897T305 860T300 799V125Q300 101 304 85T321 59T360 43T427 36L425 0Q409 0 386 0T335 1Q309 1 282 1T231 2Q211 2 188 2T142 1Q119 1 99 1T64 0L61 34ZM450 1073H44L40 1134H454L450 1073Z"  />
<glyph unicode="&#x12B;" horiz-adv-x="375" d="M355 0Q323 0 278 1T185 2Q146 2 109 1T44 0L42 32Q75 35 94 40T125 59T139 94T143 155V418Q143 446 140 462T128 487T100 501T51 511L48 540Q79 546 110 552T169 566T218 579T251 590L261 582Q258 557 256 529T253 474T252 422T251 379V114Q251 90 254 76T267 53T299 42T357 37L355 0ZM387 731H1L-3 792H391L387 731Z"  />
<glyph unicode="&#x12C;" horiz-adv-x="485" d="M61 34Q100 37 124 43T161 63T180 100T185 162V835Q185 859 181 875T164 901T125 917T59 924L61 960Q77 960 100 960T149 959Q176 959 203 959T255 958Q274 958 297 958T344 959Q367 959 387 959T422 960L425 926Q386 923 362 917T324 897T305 860T300 799V125Q300 101 304 85T321 59T360 43T427 36L425 0Q409 0 386 0T335 1Q309 1 282 1T231 2Q211 2 188 2T142 1Q119 1 99 1T64 0L61 34ZM103 1225Q110 1171 148 1138T247 1105Q307 1105 345 1138T391 1225L432 1220Q432 1181 420 1147T385 1087T327 1046T247 1031Q202 1031 167 1046T109 1086T74 1146T62 1220L103 1225Z"  />
<glyph unicode="&#x12D;" horiz-adv-x="375" d="M355 0Q323 0 278 1T185 2Q146 2 109 1T44 0L42 32Q75 35 94 40T125 59T139 94T143 155V418Q143 446 140 462T128 487T100 501T51 511L48 540Q79 546 110 552T169 566T218 579T251 590L261 582Q258 557 256 529T253 474T252 422T251 379V114Q251 90 254 76T267 53T299 42T357 37L355 0ZM50 870Q57 804 95 766T194 728Q254 728 292 766T338 870L379 865Q379 819 367 780T332 713T274 668T194 651Q149 651 114 667T56 712T21 780T9 865L50 870Z"  />
<glyph unicode="&#x12E;" horiz-adv-x="485" d="M253 -173Q253 -213 274 -233T327 -253Q367 -253 405 -223L425 -253Q388 -294 347 -311T267 -329Q218 -329 185 -301T151 -218Q151 -188 164 -159T198 -101T249 -47T311 1L300 2H231Q211 2 188 2T142 1Q119 1 99 1T64 0L61 34Q100 37 124 43T161 63T180 100T185 162V834Q185 858 181 874T164 900T125 916T59 923L61 959Q77 959 100 959T149 958Q176 958 203 958T255 957Q274 957 297 957T344 958Q367 958 387 958T422 959L425 925Q386 922 362 916T324 896T305 859T300 798V125Q300 101 304 85T321 59T360 43T427 36L425 0Q386 0 365 -8T323 -33Q285 -67 269 -105T253 -173Z"  />
<glyph unicode="&#x12F;" horiz-adv-x="375" d="M164 -173Q164 -213 185 -233T238 -253Q278 -253 316 -223L336 -253Q299 -294 258 -311T178 -329Q129 -329 96 -301T62 -218Q62 -188 75 -158T110 -100T162 -47T224 1L210 2H166Q127 2 90 1T25 0L23 32Q56 35 75 40T106 59T120 94T124 155V418Q124 446 121 462T109 487T81 501T32 511L29 540Q60 546 91 552T150 566T199 579T232 590L242 582Q239 557 237 529T234 474T233 422T232 379V114Q232 90 235 76T248 53T280 42T338 37L336 0H325Q292 -1 273 -8T234 -33Q196 -67 180 -105T164 -173ZM103 860Q103 893 123 913T176 934Q211 934 231 914T252 860Q252 827 232 807T176 786Q143 786 123 806T103 860Z"  />
<glyph unicode="&#x130;" horiz-adv-x="485" d="M61 34Q100 37 124 43T161 63T180 100T185 162V835Q185 859 181 875T164 901T125 917T59 924L61 960Q77 960 100 960T149 959Q176 959 203 959T255 958Q274 958 297 958T344 959Q367 959 387 959T422 960L425 926Q386 923 362 917T324 897T305 860T300 799V125Q300 101 304 85T321 59T360 43T427 36L425 0Q409 0 386 0T335 1Q309 1 282 1T231 2Q211 2 188 2T142 1Q119 1 99 1T64 0L61 34ZM177 1115Q177 1147 196 1166T247 1186Q279 1186 299 1167T319 1115Q319 1084 299 1065T247 1045Q215 1045 196 1064T177 1115Z"  />
<glyph unicode="&#x131;" horiz-adv-x="375" d="M355 0Q323 0 278 1T185 2Q146 2 109 1T44 0L42 32Q75 35 94 40T125 59T139 94T143 155V418Q143 446 140 462T128 487T100 501T51 511L48 540Q79 546 110 552T169 566T218 579T251 590L261 582Q258 557 256 529T253 474T252 422T251 379V114Q251 90 254 76T267 53T299 42T357 37L355 0Z"  />
<glyph unicode="&#x132;" horiz-adv-x="945" d="M61 34Q100 37 124 43T161 63T180 100T185 162V835Q185 859 181 875T164 901T125 917T59 924L61 960Q77 960 100 960T149 959Q176 959 203 959T255 958Q274 958 297 958T344 959Q367 959 387 959T422 960L425 926Q386 923 362 917T324 897T305 860T300 799V125Q300 101 304 85T321 59T360 43T427 36L425 0Q409 0 386 0T335 1Q309 1 282 1T231 2Q211 2 188 2T142 1Q119 1 99 1T64 0L61 34ZM537 960Q553 960 576 960T625 959Q651 959 678 959T730 958H772Q796 958 819 958T864 959H902L905 925Q865 922 840 916T801 896T781 858T776 797V393Q776 350 776 306T777 216Q777 173 777 138T778 77V47Q778 -50 751 -122T679 -242Q642 -284 590 -304T481 -325Q464 -325 447 -322T414 -310T390 -287T380 -253Q380 -229 399 -213T445 -192Q464 -209 495 -225T560 -242Q579 -242 597 -236T627 -212Q640 -195 647 -171T657 -118T660 -58T661 4V835Q661 859 657 875T640 901T601 917T535 924L537 960Z"  />
<glyph unicode="&#x133;" horiz-adv-x="724" d="M355 0Q323 0 278 1T185 2Q146 2 109 1T44 0L42 32Q75 35 94 40T125 59T139 94T143 155V418Q143 446 140 462T128 487T100 501T51 511L48 540Q79 546 110 552T169 566T218 579T251 590L261 582Q258 557 256 529T253 474T252 422T251 379V114Q251 90 254 76T267 53T299 42T357 37L355 0ZM122 830Q122 863 142 883T195 904Q230 904 250 884T271 830Q271 797 251 777T195 756Q162 756 142 776T122 830ZM631 582Q628 557 626 528T623 471T621 417T620 374V118Q620 67 620 24T621 -50V-91Q621 -136 613 -176T593 -248Q570 -305 514 -362T381 -464L357 -428Q417 -386 449 -340T495 -241T511 -129T513 0V418Q513 446 510 462T498 487T470 501T421 511L418 540Q449 546 480 552T539 566T588 579T621 590L631 582ZM491 830Q491 863 511 883T564 904Q599 904 619 884T640 830Q640 797 620 777T564 756Q531 756 511 776T491 830Z"  />
<glyph unicode="&#x134;" horiz-adv-x="460" d="M52 960Q68 960 91 960T140 959Q166 959 193 959T245 958H287Q311 958 334 958T379 959H417L420 925Q380 922 355 916T316 896T296 858T291 797V393Q291 350 291 306T292 216Q292 173 292 138T293 77V47Q293 -50 266 -122T194 -242Q157 -284 105 -304T-4 -325Q-21 -325 -38 -322T-71 -310T-95 -287T-105 -253Q-105 -229 -86 -213T-40 -192Q-21 -209 10 -225T75 -242Q94 -242 112 -236T142 -212Q155 -195 162 -171T172 -118T175 -58T176 4V835Q176 859 172 875T155 901T116 917T50 924L52 960ZM88 1014L50 1024L46 1030L200 1208L282 1214L430 1030L426 1024L388 1014L238 1129L88 1014Z"  />
<glyph unicode="&#x135;" horiz-adv-x="349" d="M256 582Q253 557 251 528T248 471T246 417T245 374V118Q245 67 245 24T246 -50V-91Q246 -136 238 -176T218 -248Q195 -305 139 -362T6 -464L-18 -428Q42 -386 74 -340T120 -241T136 -129T138 0V418Q138 446 135 462T123 487T95 501T46 511L43 540Q74 546 105 552T164 566T213 579T246 590L256 582ZM25 636L-15 641L-19 647L135 895L217 901L365 647L361 641L321 636L173 814L25 636Z"  />
<glyph unicode="&#x136;" horiz-adv-x="992" d="M427 926Q387 923 363 917T324 897T305 860T300 799V514Q329 519 352 531T405 569Q436 598 471 633T540 704T607 777T664 844Q678 862 684 876T684 900T656 917T593 925L595 960Q609 960 631 960T677 959Q702 959 727 959T775 958Q794 958 819 958T870 959Q896 959 918 959T954 960L957 926Q921 923 892 916T835 896T780 864T723 816Q701 796 670 765T602 697T525 619T447 539Q489 487 536 429T630 317T717 216T785 141Q815 110 835 91T875 61T916 44T972 36L970 0Q932 0 887 1T796 2Q782 2 767 2T737 0Q729 15 709 42T661 104T600 179T531 262T460 346T393 425Q373 448 357 457T323 467Q312 467 300 464V125Q300 101 304 85T321 59T360 43T429 36L427 0Q411 0 388 0T337 1Q310 1 283 1T231 2Q211 2 188 2T140 1Q116 1 95 1T60 0L57 34Q99 37 124 43T162 63T180 100T185 162V835Q185 859 181 875T164 901T124 917T55 924L57 960Q73 960 97 960T148 959Q175 959 203 959T255 958Q274 958 297 958T344 959Q368 959 389 959T424 960L427 926ZM418 -317Q458 -303 481 -275T504 -218Q504 -195 487 -178T435 -157Q427 -151 423 -141T419 -122Q419 -96 437 -81T479 -66Q502 -66 521 -76T553 -102T574 -137T581 -175Q581 -206 569 -233T537 -283T491 -323T434 -352L418 -317Z"  />
<glyph unicode="&#x137;" horiz-adv-x="725" d="M260 293Q240 293 240 285V114Q240 90 242 76T254 53T283 42T336 37L334 0Q302 0 263 1T176 2Q137 2 97 1T28 0L26 32Q61 35 82 40T115 59T130 94T134 155V902Q134 931 131 947T118 973T87 987T33 998L29 1027Q58 1033 89 1040T150 1054T203 1068T243 1081L254 1073Q250 1047 247 1014T243 946T241 882T240 834V339Q240 334 243 333T258 331Q283 331 305 344T357 388L410 445Q435 472 445 486T456 509Q456 522 439 528T393 538L396 568H415Q428 568 441 568T467 567H524Q552 567 587 567T674 571L677 537Q656 534 638 532T602 524T566 510T528 485Q483 450 450 416T398 362Q386 350 386 344Q386 337 393 330L532 166Q568 124 590 99T631 61T671 44T725 37L723 0Q696 0 651 1T555 2Q519 2 486 1T424 0L422 32Q447 35 464 38T482 56Q482 64 477 71T461 91L305 274Q296 284 284 288T260 293ZM288 -317Q328 -303 351 -275T374 -218Q374 -195 357 -178T305 -157Q297 -151 293 -141T289 -122Q289 -96 307 -81T349 -66Q372 -66 391 -76T423 -102T444 -137T451 -175Q451 -206 439 -233T407 -283T361 -323T304 -352L288 -317Z"  />
<glyph unicode="&#x138;" horiz-adv-x="735" d="M268 582Q265 557 263 529T260 474T259 422T258 379V329Q258 324 261 323T276 321Q301 321 323 334T375 378L438 445Q463 472 473 486T484 509Q484 522 467 528T421 537L424 568H443Q456 568 469 568T495 567H552Q580 567 615 567T702 571L705 537Q684 534 666 532T630 524T594 510T556 485Q511 450 478 416T426 362Q420 356 404 334Q404 327 411 320L542 166Q578 124 600 99T641 61T681 44T735 37L733 0Q706 0 661 1T565 2Q529 2 496 1T434 0L432 32Q457 35 474 38T492 56Q492 64 487 71T471 91L323 264Q314 274 302 278T278 283Q258 283 258 275V114Q258 90 260 76T272 53T299 42T349 37L347 0Q319 0 280 1T192 2Q153 2 113 1T44 0L42 32Q77 35 98 40T131 59T146 94T150 155V418Q150 446 147 462T135 487T107 501T58 511L55 540Q86 546 117 552T176 566T225 579T258 590L268 582Z"  />
<glyph unicode="&#x139;" horiz-adv-x="780" d="M430 926Q389 923 364 917T324 897T305 859T300 798V163Q300 129 304 107T321 73T359 55T425 50H478Q536 50 573 59T635 91T680 151T722 242L760 233Q752 204 745 171T732 106T722 46T717 0H565Q499 0 451 0T369 1Q335 1 310 1T266 2H231Q211 2 187 2T139 1Q115 1 94 1T58 0L55 34Q96 37 121 43T161 63T180 100T185 162V835Q185 859 181 875T163 901T124 917T55 924L58 960Q74 960 97 960T148 959Q175 959 203 959T255 958Q274 958 298 958T346 959Q370 959 391 959T427 960L430 926ZM368 1214L446 1148L444 1136L177 1020L156 1045L158 1052L368 1214Z"  />
<glyph unicode="&#x13A;" horiz-adv-x="367" d="M254 1073Q250 1047 247 1014T243 946T241 882T240 834V114Q240 90 243 76T257 53T289 42T347 37L345 0Q313 0 269 1T176 2Q137 2 99 1T33 0L30 32Q64 35 84 40T116 59T130 94T134 155V902Q134 931 131 947T117 973T86 987T30 998L27 1027Q57 1033 89 1040T150 1054T204 1068T243 1081L254 1073ZM284 1284L362 1218L360 1206L93 1090L72 1115L74 1122L284 1284Z"  />
<glyph unicode="&#x13B;" horiz-adv-x="780" d="M430 926Q389 923 364 917T324 897T305 859T300 798V163Q300 129 304 107T321 73T359 55T425 50H478Q536 50 573 59T635 91T680 151T722 242L760 233Q752 204 745 171T732 106T722 46T717 0H565Q499 0 451 0T369 1Q335 1 310 1T266 2H231Q211 2 187 2T139 1Q115 1 94 1T58 0L55 34Q96 37 121 43T161 63T180 100T185 162V835Q185 859 181 875T163 901T124 917T55 924L58 960Q74 960 97 960T148 959Q175 959 203 959T255 958Q274 958 298 958T346 959Q370 959 391 959T427 960L430 926ZM337 -317Q377 -303 400 -275T423 -218Q423 -195 406 -178T354 -157Q346 -151 342 -141T338 -122Q338 -96 356 -81T398 -66Q421 -66 440 -76T472 -102T493 -137T500 -175Q500 -206 488 -233T456 -283T410 -323T353 -352L337 -317Z"  />
<glyph unicode="&#x13C;" horiz-adv-x="367" d="M254 1073Q250 1047 247 1014T243 946T241 882T240 834V114Q240 90 243 76T257 53T289 42T347 37L345 0Q313 0 269 1T176 2Q137 2 99 1T33 0L30 32Q64 35 84 40T116 59T130 94T134 155V902Q134 931 131 947T117 973T86 987T30 998L27 1027Q57 1033 89 1040T150 1054T204 1068T243 1081L254 1073ZM100 -317Q140 -303 163 -275T186 -218Q186 -195 169 -178T117 -157Q109 -151 105 -141T101 -122Q101 -96 119 -81T161 -66Q184 -66 203 -76T235 -102T256 -137T263 -175Q263 -206 251 -233T219 -283T173 -323T116 -352L100 -317Z"  />
<glyph unicode="&#x13D;" horiz-adv-x="780" d="M430 926Q389 923 364 917T324 897T305 859T300 798V163Q300 129 304 107T321 73T359 55T425 50H478Q536 50 573 59T635 91T680 151T722 242L760 233Q752 204 745 171T732 106T722 46T717 0H565Q499 0 451 0T369 1Q335 1 310 1T266 2H231Q211 2 187 2T139 1Q115 1 94 1T58 0L55 34Q96 37 121 43T161 63T180 100T185 162V835Q185 859 181 875T163 901T124 917T55 924L58 960Q74 960 97 960T148 959Q175 959 203 959T255 958Q274 958 298 958T346 959Q370 959 391 959T427 960L430 926ZM487 693Q532 710 558 744T585 811Q585 837 566 858T506 883Q496 888 492 897T488 916Q488 941 506 955T550 970Q574 970 594 959T627 931T648 891T656 847Q656 814 644 785T610 732T560 690T500 660L487 693Z"  />
<glyph unicode="&#x13E;" horiz-adv-x="454" d="M254 1073Q250 1047 247 1014T243 946T241 882T240 834V114Q240 90 243 76T257 53T289 42T347 37L345 0Q313 0 269 1T176 2Q137 2 99 1T33 0L30 32Q64 35 84 40T116 59T130 94T134 155V902Q134 931 131 947T117 973T86 987T30 998L27 1027Q57 1033 89 1040T150 1054T204 1068T243 1081L254 1073ZM296 693Q341 710 367 744T394 811Q394 837 375 858T315 883Q305 888 301 897T297 916Q297 941 315 955T359 970Q383 970 403 959T436 931T457 891T465 847Q465 814 453 785T419 732T369 690T309 660L296 693Z"  />
<glyph unicode="&#x13F;" horiz-adv-x="780" d="M430 926Q389 923 364 917T324 897T305 859T300 798V163Q300 129 304 107T321 73T359 55T425 50H478Q536 50 573 59T635 91T680 151T722 242L760 233Q752 204 745 171T732 106T722 46T717 0H565Q499 0 451 0T369 1Q335 1 310 1T266 2H231Q211 2 187 2T139 1Q115 1 94 1T58 0L55 34Q96 37 121 43T161 63T180 100T185 162V835Q185 859 181 875T163 901T124 917T55 924L58 960Q74 960 97 960T148 959Q175 959 203 959T255 958Q274 958 298 958T346 959Q370 959 391 959T427 960L430 926ZM562 483Q562 515 581 534T632 554Q664 554 684 535T704 483Q704 452 684 433T632 413Q600 413 581 432T562 483Z"  />
<glyph unicode="&#x140;" horiz-adv-x="444" d="M254 1073Q250 1047 247 1014T243 946T241 882T240 834V114Q240 90 243 76T257 53T289 42T347 37L345 0Q313 0 269 1T176 2Q137 2 99 1T33 0L30 32Q64 35 84 40T116 59T130 94T134 155V902Q134 931 131 947T117 973T86 987T30 998L27 1027Q57 1033 89 1040T150 1054T204 1068T243 1081L254 1073ZM335 483Q335 515 354 534T405 554Q437 554 457 535T477 483Q477 452 457 433T405 413Q373 413 354 432T335 483Z"  />
<glyph unicode="&#x141;" horiz-adv-x="775" d="M56 316L50 368L185 431V835Q185 859 181 875T163 901T124 917T55 924L58 960Q74 960 97 960T148 959Q175 959 203 959T255 958Q274 958 298 958T346 959Q370 959 391 959T427 960L430 926Q389 923 364 917T324 897T305 859T300 798V483L609 628L615 624V568L300 421V163Q300 129 304 107T321 73T359 55T425 50H478Q536 50 573 59T635 91T680 151T722 242L760 233Q752 204 745 171T732 106T722 46T717 0H565Q499 0 451 0T369 1Q335 1 310 1T266 2H231Q211 2 187 2T139 1Q115 1 94 1T58 0L55 34Q96 37 121 43T161 63T180 100T185 162V370L62 313L56 316Z"  />
<glyph unicode="&#x142;" horiz-adv-x="367" d="M15 375L9 425L124 482V902Q124 931 121 947T107 973T76 987T20 998L17 1027Q47 1033 79 1040T140 1054T194 1068T233 1081L244 1073Q240 1047 237 1014T233 946T231 882T230 834V533L339 588L345 584V530L230 473V114Q230 90 233 76T247 53T279 42T337 37L335 0Q303 0 259 1T166 2Q127 2 89 1T23 0L20 32Q54 35 74 40T106 59T120 94T124 155V423L21 372L15 375Z"  />
<glyph unicode="&#x143;" horiz-adv-x="1103" d="M881 -14Q855 23 829 57T774 127L235 766V175Q235 128 240 102T261 62T301 44T368 36L366 0Q334 0 291 1T199 2Q161 2 120 1T43 0L40 34Q80 38 106 43T147 66T169 117T175 211V712Q175 754 174 780T170 822T160 850T144 873Q134 886 124 895T101 910T69 919T22 924L24 960Q36 960 59 960T112 959Q141 959 172 959T230 958L873 205V784Q873 831 868 857T847 897T806 915T739 923L741 959Q773 959 817 958T909 957Q928 957 949 957T990 958T1029 959T1062 960L1063 926Q1024 922 999 916T960 893T939 842T933 748V-4L881 -14ZM696 1214L774 1148L772 1136L505 1020L484 1045L486 1052L696 1214Z"  />
<glyph unicode="&#x144;" horiz-adv-x="778" d="M346 0Q314 0 274 1T186 2Q147 2 109 1T42 0L39 32Q73 35 93 41T125 59T140 94T144 155V414Q144 442 141 458T129 483T101 498T52 508L49 536Q74 541 102 548T158 562T208 577T247 590L259 582Q256 561 254 541T252 499Q306 542 366 566T482 590Q518 590 549 579T604 542T640 479T654 385V114Q654 90 657 76T669 53T698 42T749 37L747 0Q715 0 677 1T590 2Q551 2 516 1T452 0L449 32Q480 35 499 40T528 56T541 89T544 149V360Q544 440 509 475T419 511Q381 511 338 496T252 452V114Q252 90 254 76T267 53T296 42T349 37L346 0ZM431 901L536 892L541 881L386 636L351 642L348 648L431 901Z"  />
<glyph unicode="&#x145;" horiz-adv-x="1103" d="M881 -14Q855 23 829 57T774 127L235 766V175Q235 128 240 102T261 62T301 44T368 36L366 0Q334 0 291 1T199 2Q161 2 120 1T43 0L40 34Q80 38 106 43T147 66T169 117T175 211V712Q175 754 174 780T170 822T160 850T144 873Q134 886 124 895T101 910T69 919T22 924L24 960Q36 960 59 960T112 959Q141 959 172 959T230 958L873 205V784Q873 831 868 857T847 897T806 915T739 923L741 959Q773 959 817 958T909 957Q928 957 949 957T990 958T1029 959T1062 960L1063 926Q1024 922 999 916T960 893T939 842T933 748V-4L881 -14ZM472 -317Q512 -303 535 -275T558 -218Q558 -195 541 -178T489 -157Q481 -151 477 -141T473 -122Q473 -96 491 -81T533 -66Q556 -66 575 -76T607 -102T628 -137T635 -175Q635 -206 623 -233T591 -283T545 -323T488 -352L472 -317Z"  />
<glyph unicode="&#x146;" horiz-adv-x="778" d="M346 0Q314 0 274 1T186 2Q147 2 109 1T42 0L39 32Q73 35 93 41T125 59T140 94T144 155V414Q144 442 141 458T129 483T101 498T52 508L49 536Q74 541 102 548T158 562T208 577T247 590L259 582Q256 561 254 541T252 499Q306 542 366 566T482 590Q518 590 549 579T604 542T640 479T654 385V114Q654 90 657 76T669 53T698 42T749 37L747 0Q715 0 677 1T590 2Q551 2 516 1T452 0L449 32Q480 35 499 40T528 56T541 89T544 149V360Q544 440 509 475T419 511Q381 511 338 496T252 452V114Q252 90 254 76T267 53T296 42T349 37L346 0ZM302 -317Q342 -303 365 -275T388 -218Q388 -195 371 -178T319 -157Q311 -151 307 -141T303 -122Q303 -96 321 -81T363 -66Q386 -66 405 -76T437 -102T458 -137T465 -175Q465 -206 453 -233T421 -283T375 -323T318 -352L302 -317Z"  />
<glyph unicode="&#x147;" horiz-adv-x="1103" d="M881 -14Q855 23 829 57T774 127L235 766V175Q235 128 240 102T261 62T301 44T368 36L366 0Q334 0 291 1T199 2Q161 2 120 1T43 0L40 34Q80 38 106 43T147 66T169 117T175 211V712Q175 754 174 780T170 822T160 850T144 873Q134 886 124 895T101 910T69 919T22 924L24 960Q36 960 59 960T112 959Q141 959 172 959T230 958L873 205V784Q873 831 868 857T847 897T806 915T739 923L741 959Q773 959 817 958T909 957Q928 957 949 957T990 958T1029 959T1062 960L1063 926Q1024 922 999 916T960 893T939 842T933 748V-4L881 -14ZM705 1225L743 1215L747 1209L593 1031L511 1025L363 1209L367 1215L405 1225L555 1110L705 1225Z"  />
<glyph unicode="&#x148;" horiz-adv-x="778" d="M346 0Q314 0 274 1T186 2Q147 2 109 1T42 0L39 32Q73 35 93 41T125 59T140 94T144 155V414Q144 442 141 458T129 483T101 498T52 508L49 536Q74 541 102 548T158 562T208 577T247 590L259 582Q256 561 254 541T252 499Q306 542 366 566T482 590Q518 590 549 579T604 542T640 479T654 385V114Q654 90 657 76T669 53T698 42T749 37L747 0Q715 0 677 1T590 2Q551 2 516 1T452 0L449 32Q480 35 499 40T528 56T541 89T544 149V360Q544 440 509 475T419 511Q381 511 338 496T252 452V114Q252 90 254 76T267 53T296 42T349 37L346 0ZM524 911L564 906L568 900L414 652L332 646L184 900L188 906L228 911L376 733L524 911Z"  />
<glyph unicode="&#x149;" horiz-adv-x="968" d="M536 0Q504 0 464 1T376 2Q337 2 299 1T232 0L229 32Q263 35 283 41T315 59T330 94T334 155V414Q334 442 331 458T319 483T291 498T242 508L239 536Q264 541 292 548T348 562T398 577T437 590L449 582Q446 561 444 541T442 499Q496 542 556 566T672 590Q708 590 739 579T794 542T830 479T844 385V114Q844 90 847 76T859 53T888 42T939 37L937 0Q905 0 867 1T780 2Q741 2 706 1T642 0L639 32Q670 35 689 40T718 56T731 89T734 149V360Q734 440 699 475T609 511Q571 511 528 496T442 452V114Q442 90 444 76T457 53T486 42T539 37L536 0ZM79 716Q103 725 123 739T156 771T177 808T185 845Q185 874 164 897T100 924Q89 930 85 940T80 961Q80 988 100 1004T147 1020Q173 1020 194 1008T231 977T254 933T262 885Q262 849 248 817T211 759T158 712T93 679L79 716Z"  />
<glyph unicode="&#x14A;" horiz-adv-x="1098" d="M24 960Q36 960 59 960T112 959Q141 959 172 959T230 958L873 205V785Q873 832 868 858T847 898T806 916T739 924L741 960Q773 960 817 959T909 958Q928 958 949 958T990 959Q1011 959 1029 959T1062 960L1063 926Q1024 922 999 917T960 894T939 843T933 749L936 39Q936 -1 933 -43T920 -126T893 -203T848 -266T780 -309T683 -325Q666 -325 647 -321T613 -309T587 -286T576 -251Q576 -227 595 -211T641 -190Q664 -210 694 -224T755 -239Q786 -239 806 -222T839 -180T857 -125T862 -70Q862 -49 860 -30T852 9T835 49T804 91L239 762L235 760V175Q235 128 240 102T261 62T301 44T368 36L366 0Q334 0 291 1T199 2Q161 2 120 1T43 0L40 34Q80 38 106 43T147 66T169 117T175 211V712Q175 754 174 780T170 822T160 850T144 873Q134 886 124 895T101 910T69 919T22 924L24 960Z"  />
<glyph unicode="&#x14B;" horiz-adv-x="743" d="M49 536Q74 541 102 547T158 561T208 576T247 590L259 582Q256 561 254 541T252 499Q274 518 303 534T362 563T421 583T473 590Q508 590 539 579T593 542T629 478T643 384V-80Q643 -174 616 -243T543 -361Q505 -403 454 -423T345 -444Q328 -444 310 -441T275 -429T249 -407T238 -372Q238 -344 257 -329T304 -304Q328 -327 360 -344T427 -362Q467 -362 494 -335Q508 -320 516 -299T528 -253T533 -201T534 -147V350Q534 390 528 420T507 470T467 500T404 510Q378 510 338 498T252 452V114Q252 90 255 76T268 53T300 42T359 37L355 0Q316 0 275 1T186 2Q147 2 109 1T42 0L39 32Q73 35 93 40T125 59T140 94T144 155V414Q144 442 141 458T129 483T101 498T52 508L49 536Z"  />
<glyph unicode="&#x14C;" horiz-adv-x="1122" d="M561 980Q670 980 761 946T918 847T1019 693T1056 490Q1056 379 1020 286T919 124T763 18T561 -20Q452 -20 361 14T205 113T103 267T66 470Q66 581 102 674T203 836T359 942T561 980ZM555 926Q486 926 423 904T311 831T233 702T204 508Q204 374 237 283T322 137T438 58T567 34Q636 34 699 56T811 129T889 258T918 452Q918 586 885 677T800 823T684 902T555 926ZM764 1073H358L354 1134H768L764 1073Z"  />
<glyph unicode="&#x14D;" horiz-adv-x="711" d="M54 279Q54 343 77 400T141 499T237 565T355 590Q423 590 479 567T574 503T635 408T657 291Q657 226 634 170T570 71T474 5T355 -20Q287 -20 232 3T137 67T76 162T54 279ZM368 29Q412 29 443 50T495 104T525 178T535 260Q535 308 525 358T491 448T432 515T343 541Q298 541 267 521T215 467T186 393T176 311Q176 265 187 215T221 124T280 56T368 29ZM543 731H157L153 792H547L543 731Z"  />
<glyph unicode="&#x14E;" horiz-adv-x="1122" d="M561 980Q670 980 761 946T918 847T1019 693T1056 490Q1056 379 1020 286T919 124T763 18T561 -20Q452 -20 361 14T205 113T103 267T66 470Q66 581 102 674T203 836T359 942T561 980ZM555 926Q486 926 423 904T311 831T233 702T204 508Q204 374 237 283T322 137T438 58T567 34Q636 34 699 56T811 129T889 258T918 452Q918 586 885 677T800 823T684 902T555 926ZM417 1225Q424 1171 462 1138T561 1105Q621 1105 659 1138T705 1225L746 1220Q746 1181 734 1147T699 1087T641 1046T561 1031Q516 1031 481 1046T423 1086T388 1146T376 1220L417 1225Z"  />
<glyph unicode="&#x14F;" horiz-adv-x="711" d="M54 279Q54 343 77 400T141 499T237 565T355 590Q423 590 479 567T574 503T635 408T657 291Q657 226 634 170T570 71T474 5T355 -20Q287 -20 232 3T137 67T76 162T54 279ZM368 29Q412 29 443 50T495 104T525 178T535 260Q535 308 525 358T491 448T432 515T343 541Q298 541 267 521T215 467T186 393T176 311Q176 265 187 215T221 124T280 56T368 29ZM206 870Q213 804 251 766T350 728Q410 728 448 766T494 870L535 865Q535 819 523 780T488 713T430 668T350 651Q305 651 270 667T212 712T177 780T165 865L206 870Z"  />
<glyph unicode="&#x150;" horiz-adv-x="1122" d="M561 980Q670 980 761 946T918 847T1019 693T1056 490Q1056 379 1020 286T919 124T763 18T561 -20Q452 -20 361 14T205 113T103 267T66 470Q66 581 102 674T203 836T359 942T561 980ZM555 926Q486 926 423 904T311 831T233 702T204 508Q204 374 237 283T322 137T438 58T567 34Q636 34 699 56T811 129T889 258T918 452Q918 586 885 677T800 823T684 902T555 926ZM772 1239L850 1173L848 1161L666 1017L640 1040L642 1047L772 1239ZM562 1239L640 1173L638 1166L456 1022L430 1040L432 1047L562 1239Z"  />
<glyph unicode="&#x151;" horiz-adv-x="711" d="M54 279Q54 343 77 400T141 499T237 565T355 590Q423 590 479 567T574 503T635 408T657 291Q657 226 634 170T570 71T474 5T355 -20Q287 -20 232 3T137 67T76 162T54 279ZM368 29Q412 29 443 50T495 104T525 178T535 260Q535 308 525 358T491 448T432 515T343 541Q298 541 267 521T215 467T186 393T176 311Q176 265 187 215T221 124T280 56T368 29ZM501 901L596 892L601 881L451 636L421 642L418 648L501 901ZM321 906L416 897L421 886L271 641L241 647L238 653L321 906Z"  />
<glyph unicode="&#x152;" horiz-adv-x="1331" d="M1249 960Q1243 909 1240 853T1236 734L1196 733Q1187 785 1176 819T1145 873T1093 902T1010 911H877Q847 911 839 905T830 874V528L1156 538L1163 531L1161 449Q1070 457 988 459T830 464V163Q830 129 834 107T851 73T889 55T955 50H1014Q1072 50 1108 59T1170 91T1214 151T1257 242L1296 233Q1288 204 1281 171T1268 106T1258 46T1253 0Q1153 0 1076 0T939 1Q879 1 835 1T761 2Q710 2 663 -4T561 -10Q452 -10 361 23T205 119T103 270T66 470Q66 579 102 671T203 830T359 934T561 972Q594 972 618 970T664 965T710 960T767 958Q806 958 931 959T1249 960ZM204 508Q204 374 237 285T322 143T438 67T567 44Q621 44 651 52T695 75T712 113T715 166V861Q715 869 703 879T670 897T619 912T555 918Q486 918 423 896T311 826T233 699T204 508Z"  />
<glyph unicode="&#x153;" horiz-adv-x="1072" d="M348 590Q426 590 486 557T585 469Q607 501 635 524T694 561T754 583T810 590Q844 590 879 581T945 551Q985 523 1007 481T1030 384V370L1029 356Q1026 329 1003 329H636Q637 258 656 209T706 129T773 85T846 71Q886 71 922 84T999 139L1028 110Q997 69 964 44T900 4T844 -15T802 -20Q724 -20 668 12T577 98Q532 38 471 9T346 -20Q278 -20 224 5T132 71T74 164T54 272Q54 354 82 414T154 513T249 571T348 590ZM331 545Q262 545 218 486T174 319Q174 254 187 201T225 108T284 48T363 26Q396 26 424 38T473 78T505 152T517 267Q517 324 505 374T470 463T412 523T331 545ZM880 374Q900 374 906 381T912 407Q912 434 904 458T879 500T838 528T784 538Q761 538 738 527T695 495T660 444T639 374H880Z"  />
<glyph unicode="&#x154;" horiz-adv-x="915" d="M300 127Q300 103 303 87T319 59T359 43T432 36L430 0Q382 0 330 1T230 2Q211 2 188 2T142 1Q120 1 100 1T66 0L64 34Q103 37 126 43T163 63T180 100T185 162V835Q185 859 181 875T165 901T127 917T60 924L62 960Q78 960 99 960T146 959Q171 959 197 959T247 958Q287 958 327 963T410 969Q470 969 530 959T638 923T717 853T747 739Q747 693 733 652T692 578T631 519T552 477Q584 416 615 360T672 258T720 176T756 121Q775 95 789 80T819 56T858 43T915 36L913 0Q883 0 835 1T741 2Q727 2 711 2T680 0Q670 21 649 61T599 155T535 272T462 400Q456 410 451 418T437 431T414 440T377 443H347Q339 443 328 443T300 445V127ZM300 493Q308 492 316 492T332 491H364Q482 491 546 545T611 720Q611 822 550 869T386 916Q355 916 338 911T312 894T302 867T300 831V493ZM543 1214L621 1148L619 1136L352 1020L331 1045L333 1052L543 1214Z"  />
<glyph unicode="&#x155;" horiz-adv-x="512" d="M377 0Q361 0 339 0T290 1Q264 1 237 1T186 2Q147 2 111 1T47 0L44 32Q77 35 96 40T126 59T140 94T144 155V414Q144 442 141 458T129 483T100 498T49 508L46 536Q73 541 102 547T158 561T208 576T247 590L259 582Q254 551 253 521T252 460Q284 499 310 524T359 564T399 584T436 590Q462 590 484 577T506 534Q506 514 486 490T433 446Q415 462 396 470T353 479Q330 479 303 459T259 401Q254 390 253 382T252 359V114Q252 90 255 76T272 53T310 42T379 37L377 0ZM330 901L435 892L440 881L285 636L250 642L247 648L330 901Z"  />
<glyph unicode="&#x156;" horiz-adv-x="915" d="M300 127Q300 103 303 87T319 59T359 43T432 36L430 0Q382 0 330 1T230 2Q211 2 188 2T142 1Q120 1 100 1T66 0L64 34Q103 37 126 43T163 63T180 100T185 162V835Q185 859 181 875T165 901T127 917T60 924L62 960Q78 960 99 960T146 959Q171 959 197 959T247 958Q287 958 327 963T410 969Q470 969 530 959T638 923T717 853T747 739Q747 693 733 652T692 578T631 519T552 477Q584 416 615 360T672 258T720 176T756 121Q775 95 789 80T819 56T858 43T915 36L913 0Q883 0 835 1T741 2Q727 2 711 2T680 0Q670 21 649 61T599 155T535 272T462 400Q456 410 451 418T437 431T414 440T377 443H347Q339 443 328 443T300 445V127ZM300 493Q308 492 316 492T332 491H364Q482 491 546 545T611 720Q611 822 550 869T386 916Q355 916 338 911T312 894T302 867T300 831V493ZM369 -317Q409 -303 432 -275T455 -218Q455 -195 438 -178T386 -157Q378 -151 374 -141T370 -122Q370 -96 388 -81T430 -66Q453 -66 472 -76T504 -102T525 -137T532 -175Q532 -206 520 -233T488 -283T442 -323T385 -352L369 -317Z"  />
<glyph unicode="&#x157;" horiz-adv-x="512" d="M377 0Q361 0 339 0T290 1Q264 1 237 1T186 2Q147 2 111 1T47 0L44 32Q77 35 96 40T126 59T140 94T144 155V414Q144 442 141 458T129 483T100 498T49 508L46 536Q73 541 102 547T158 561T208 576T247 590L259 582Q254 551 253 521T252 460Q284 499 310 524T359 564T399 584T436 590Q462 590 484 577T506 534Q506 514 486 490T433 446Q415 462 396 470T353 479Q330 479 303 459T259 401Q254 390 253 382T252 359V114Q252 90 255 76T272 53T310 42T379 37L377 0ZM129 -317Q169 -303 192 -275T215 -218Q215 -195 198 -178T146 -157Q138 -151 134 -141T130 -122Q130 -96 148 -81T190 -66Q213 -66 232 -76T264 -102T285 -137T292 -175Q292 -206 280 -233T248 -283T202 -323T145 -352L129 -317Z"  />
<glyph unicode="&#x158;" horiz-adv-x="915" d="M300 127Q300 103 303 87T319 59T359 43T432 36L430 0Q382 0 330 1T230 2Q211 2 188 2T142 1Q120 1 100 1T66 0L64 34Q103 37 126 43T163 63T180 100T185 162V835Q185 859 181 875T165 901T127 917T60 924L62 960Q78 960 99 960T146 959Q171 959 197 959T247 958Q287 958 327 963T410 969Q470 969 530 959T638 923T717 853T747 739Q747 693 733 652T692 578T631 519T552 477Q584 416 615 360T672 258T720 176T756 121Q775 95 789 80T819 56T858 43T915 36L913 0Q883 0 835 1T741 2Q727 2 711 2T680 0Q670 21 649 61T599 155T535 272T462 400Q456 410 451 418T437 431T414 440T377 443H347Q339 443 328 443T300 445V127ZM300 493Q308 492 316 492T332 491H364Q482 491 546 545T611 720Q611 822 550 869T386 916Q355 916 338 911T312 894T302 867T300 831V493ZM552 1225L590 1215L594 1209L440 1031L358 1025L210 1209L214 1215L252 1225L402 1110L552 1225Z"  />
<glyph unicode="&#x159;" horiz-adv-x="512" d="M377 0Q361 0 339 0T290 1Q264 1 237 1T186 2Q147 2 111 1T47 0L44 32Q77 35 96 40T126 59T140 94T144 155V414Q144 442 141 458T129 483T100 498T49 508L46 536Q73 541 102 547T158 561T208 576T247 590L259 582Q254 551 253 521T252 460Q284 499 310 524T359 564T399 584T436 590Q462 590 484 577T506 534Q506 514 486 490T433 446Q415 462 396 470T353 479Q330 479 303 459T259 401Q254 390 253 382T252 359V114Q252 90 255 76T272 53T310 42T379 37L377 0ZM423 911L463 906L467 900L313 652L231 646L83 900L87 906L127 911L275 733L423 911Z"  />
<glyph unicode="&#x15A;" horiz-adv-x="707" d="M84 279Q104 227 126 183T180 107T254 56T355 37Q394 37 427 50T485 87T524 143T538 215Q538 264 520 299T472 359T404 404T326 441Q281 461 236 485T154 542T95 618T72 720Q72 783 97 831T166 913T267 963T390 980Q453 980 506 971T621 945Q618 913 616 886T614 832T613 778T612 718L570 714Q561 820 506 872T356 925Q320 925 290 914T238 882T204 832T191 767Q191 719 206 687T249 630T311 589T386 554Q434 533 482 508T569 449T632 370T656 264Q656 196 628 144T554 55T448 -1T325 -20Q270 -20 211 -9T86 21Q79 87 69 145T42 269L84 279ZM521 1214L599 1148L597 1136L330 1020L309 1045L311 1052L521 1214Z"  />
<glyph unicode="&#x15B;" horiz-adv-x="522" d="M417 400Q414 431 402 457T369 503T321 532T263 543Q244 543 227 537T196 520T174 493T166 455Q166 430 178 412T211 379T258 353T313 331Q344 318 374 304T429 270T467 223T482 159Q482 112 462 79T410 23T338 -9T256 -20Q230 -20 204 -16T154 -7Q133 -2 114 2T71 9Q70 26 68 52T62 105T56 156T48 195L82 204Q96 170 113 138T153 82T207 42T278 27Q317 27 347 48T377 114Q377 139 366 158T335 193T291 219T239 242Q208 255 178 269T123 303T84 350T69 415Q69 461 88 494T138 548T208 580T286 590Q326 590 365 582T455 572Q452 540 451 512T450 450V401L417 400ZM340 901L445 892L450 881L295 636L260 642L257 648L340 901Z"  />
<glyph unicode="&#x15C;" horiz-adv-x="707" d="M84 279Q104 227 126 183T180 107T254 56T355 37Q394 37 427 50T485 87T524 143T538 215Q538 264 520 299T472 359T404 404T326 441Q281 461 236 485T154 542T95 618T72 720Q72 783 97 831T166 913T267 963T390 980Q453 980 506 971T621 945Q618 913 616 886T614 832T613 778T612 718L570 714Q561 820 506 872T356 925Q320 925 290 914T238 882T204 832T191 767Q191 719 206 687T249 630T311 589T386 554Q434 533 482 508T569 449T632 370T656 264Q656 196 628 144T554 55T448 -1T325 -20Q270 -20 211 -9T86 21Q79 87 69 145T42 269L84 279ZM230 1014L192 1024L188 1030L342 1208L424 1214L572 1030L568 1024L530 1014L380 1129L230 1014Z"  />
<glyph unicode="&#x15D;" horiz-adv-x="522" d="M417 400Q414 431 402 457T369 503T321 532T263 543Q244 543 227 537T196 520T174 493T166 455Q166 430 178 412T211 379T258 353T313 331Q344 318 374 304T429 270T467 223T482 159Q482 112 462 79T410 23T338 -9T256 -20Q230 -20 204 -16T154 -7Q133 -2 114 2T71 9Q70 26 68 52T62 105T56 156T48 195L82 204Q96 170 113 138T153 82T207 42T278 27Q317 27 347 48T377 114Q377 139 366 158T335 193T291 219T239 242Q208 255 178 269T123 303T84 350T69 415Q69 461 88 494T138 548T208 580T286 590Q326 590 365 582T455 572Q452 540 451 512T450 450V401L417 400ZM137 636L97 641L93 647L247 895L329 901L477 647L473 641L433 636L285 814L137 636Z"  />
<glyph unicode="&#x15E;" horiz-adv-x="707" d="M570 714Q561 820 506 872T356 925Q320 925 290 914T238 882T204 832T191 767Q191 717 211 682T263 621T338 575T423 534T509 491T583 438T636 365T656 264Q656 205 635 158T578 76T494 18T393 -14Q362 -35 362 -59Q362 -73 375 -88T403 -120T432 -152T445 -185Q445 -203 432 -229T397 -279T346 -319T286 -336Q275 -336 263 -333T241 -322T223 -305T216 -280Q216 -263 232 -247T265 -226Q281 -248 298 -260T337 -272Q367 -272 367 -241Q367 -223 354 -207T325 -174T296 -142T282 -109Q282 -93 295 -71T342 -20H325Q270 -20 211 -9T86 21Q79 87 69 145T42 269L84 279Q104 227 126 183T180 107T254 56T355 37Q394 37 427 50T485 87T524 143T538 215Q538 266 518 302T465 364T391 411T305 452T220 495T145 548T92 620T72 720Q72 783 97 831T166 913T267 963T390 980Q453 980 506 971T621 945Q618 913 616 886T614 832T613 778T612 718L570 714Z"  />
<glyph unicode="&#x15F;" horiz-adv-x="522" d="M414 400Q411 431 399 457T366 503T318 532T260 543Q241 543 224 537T193 520T171 493T163 455Q163 420 186 398T280 341Q362 310 397 289T455 238T479 159Q479 122 466 94T432 44T381 8T320 -13Q302 -25 295 -36T287 -59Q287 -73 300 -88T328 -120T357 -152T370 -185Q370 -203 357 -229T322 -279T271 -319T211 -336Q200 -336 188 -333T166 -322T148 -305T141 -280Q141 -263 157 -247T190 -226Q206 -248 223 -260T262 -272Q292 -272 292 -241Q292 -223 279 -207T250 -174T221 -142T207 -109Q207 -93 220 -71T266 -20H253Q227 -20 204 -17T159 -8T115 2T68 9Q67 26 65 52T59 105T53 156T45 195L79 204Q93 170 110 138T150 82T204 42T275 27Q314 27 344 48T374 114Q374 151 351 174T260 234Q180 265 146 286T89 337T66 415Q66 461 85 494T135 548T205 580T283 590Q323 590 362 582T452 572Q449 540 448 512T447 450V401L414 400Z"  />
<glyph unicode="&#x160;" horiz-adv-x="707" d="M84 279Q104 227 126 183T180 107T254 56T355 37Q394 37 427 50T485 87T524 143T538 215Q538 264 520 299T472 359T404 404T326 441Q281 461 236 485T154 542T95 618T72 720Q72 783 97 831T166 913T267 963T390 980Q453 980 506 971T621 945Q618 913 616 886T614 832T613 778T612 718L570 714Q561 820 506 872T356 925Q320 925 290 914T238 882T204 832T191 767Q191 719 206 687T249 630T311 589T386 554Q434 533 482 508T569 449T632 370T656 264Q656 196 628 144T554 55T448 -1T325 -20Q270 -20 211 -9T86 21Q79 87 69 145T42 269L84 279ZM530 1225L568 1215L572 1209L418 1031L336 1025L188 1209L192 1215L230 1225L380 1110L530 1225Z"  />
<glyph unicode="&#x161;" horiz-adv-x="522" d="M417 400Q414 431 402 457T369 503T321 532T263 543Q244 543 227 537T196 520T174 493T166 455Q166 430 178 412T211 379T258 353T313 331Q344 318 374 304T429 270T467 223T482 159Q482 112 462 79T410 23T338 -9T256 -20Q230 -20 204 -16T154 -7Q133 -2 114 2T71 9Q70 26 68 52T62 105T56 156T48 195L82 204Q96 170 113 138T153 82T207 42T278 27Q317 27 347 48T377 114Q377 139 366 158T335 193T291 219T239 242Q208 255 178 269T123 303T84 350T69 415Q69 461 88 494T138 548T208 580T286 590Q326 590 365 582T455 572Q452 540 451 512T450 450V401L417 400ZM433 911L473 906L477 900L323 652L241 646L93 900L97 906L137 911L285 733L433 911Z"  />
<glyph unicode="&#x162;" horiz-adv-x="878" d="M437 958Q471 958 518 958T620 959Q675 959 734 959T853 960Q850 925 848 896T844 838T842 780T841 717L803 715Q794 769 784 806T753 866T699 900T609 910H495V125Q495 101 499 85T517 59T559 43T637 36L635 0Q614 0 588 0T533 1Q505 1 478 1T426 2Q406 2 383 2T335 1Q311 1 287 1T244 0L241 34Q287 37 315 43T357 63T375 100T380 162V910H269Q213 910 179 900T123 867T91 806T71 715L33 717V780Q33 825 32 866T25 960Q85 960 143 960T255 959Q309 959 355 959T437 958ZM359 -317Q399 -303 422 -275T445 -218Q445 -195 428 -178T376 -157Q368 -151 364 -141T360 -122Q360 -96 378 -81T420 -66Q443 -66 462 -76T494 -102T515 -137T522 -175Q522 -206 510 -233T478 -283T432 -323T375 -352L359 -317Z"  />
<glyph unicode="&#x163;" horiz-adv-x="434" d="M231 780Q229 756 228 725T225 662T224 603T223 558L394 561L402 554L399 503H223V181Q223 142 230 117T251 77T283 57T322 51Q344 51 368 56T415 66L422 30Q383 11 338 -2T251 -16Q222 -16 198 -9T154 17T125 64T114 137V164Q114 182 114 222T115 329V503H25L18 510L22 549L115 556V639Q115 664 115 690T114 740Q129 746 145 752T176 765T202 776T220 786L231 780ZM169 -317Q209 -303 232 -275T255 -218Q255 -195 238 -178T186 -157Q178 -151 174 -141T170 -122Q170 -96 188 -81T230 -66Q253 -66 272 -76T304 -102T325 -137T332 -175Q332 -206 320 -233T288 -283T242 -323T185 -352L169 -317Z"  />
<glyph unicode="&#x164;" horiz-adv-x="878" d="M437 958Q471 958 518 958T620 959Q675 959 734 959T853 960Q850 925 848 896T844 838T842 780T841 717L803 715Q794 769 784 806T753 866T699 900T609 910H495V125Q495 101 499 85T517 59T559 43T637 36L635 0Q614 0 588 0T533 1Q505 1 478 1T426 2Q406 2 383 2T335 1Q311 1 287 1T244 0L241 34Q287 37 315 43T357 63T375 100T380 162V910H269Q213 910 179 900T123 867T91 806T71 715L33 717V780Q33 825 32 866T25 960Q85 960 143 960T255 959Q309 959 355 959T437 958ZM587 1225L625 1215L629 1209L475 1031L393 1025L245 1209L249 1215L287 1225L437 1110L587 1225Z"  />
<glyph unicode="&#x165;" horiz-adv-x="442" d="M231 780Q229 756 228 725T225 662T224 603T223 558L394 561L402 554L399 503H223V181Q223 142 230 117T251 77T283 57T322 51Q344 51 368 56T415 66L422 30Q383 11 338 -2T251 -16Q222 -16 198 -9T154 17T125 64T114 137V164Q114 182 114 222T115 329V503H25L18 510L22 549L115 556V639Q115 664 115 690T114 740Q129 746 145 752T176 765T202 776T220 786L231 780ZM284 693Q329 710 355 744T382 811Q382 837 363 858T303 883Q293 888 289 897T285 916Q285 941 303 955T347 970Q371 970 391 959T424 931T445 891T453 847Q453 814 441 785T407 732T357 690T297 660L284 693Z"  />
<glyph unicode="&#x166;" horiz-adv-x="878" d="M380 910H269Q213 910 179 900T123 867T91 806T71 715L33 717V780Q33 825 32 866T25 960Q85 960 143 960T255 959Q309 959 355 959T437 958Q471 958 518 958T620 959Q675 959 734 959T853 960Q850 925 848 896T844 838T842 780T841 717L803 715Q794 769 784 806T753 866T699 900T609 910H495V489H691L688 436H495V125Q495 101 499 85T517 59T559 43T637 36L635 0Q612 0 586 0T531 1Q503 1 476 1T426 2Q406 2 383 2T334 1Q310 1 287 1T244 0L241 34Q287 37 315 43T357 63T375 100T380 162V436H197L193 489H380V910Z"  />
<glyph unicode="&#x167;" horiz-adv-x="434" d="M231 780Q229 756 228 725T225 662T224 603T223 558L394 561L402 554L399 503H223V406H391L387 351H223V181Q223 142 230 117T251 77T283 57T322 51Q344 51 368 56T415 66L422 30Q383 11 338 -2T251 -16Q222 -16 198 -9T154 17T125 64T114 137V164Q114 182 114 222T115 329V351H31L27 406H115V503H25L18 510L22 549L115 556V639Q115 664 115 690T114 740Q129 746 145 752T176 765T202 776T220 786L231 780Z"  />
<glyph unicode="&#x168;" horiz-adv-x="1047" d="M284 329Q284 257 308 206T371 122T461 74T564 58Q618 58 667 74T754 127T814 221T837 360V780Q837 824 831 851T807 893T758 914T678 923L680 959Q715 959 764 958T868 957Q912 957 960 958T1040 960L1041 926Q997 922 970 917T926 895T903 848T897 763V340Q897 242 864 174T778 63T657 0T519 -20Q450 -20 387 -1T276 57T198 155T169 294V828Q169 852 165 869T146 897T104 915T32 923L34 959Q52 959 76 959T128 958Q156 958 184 958T238 957Q258 957 282 957T332 958Q357 958 379 958T419 959L422 925Q379 922 352 915T310 893T290 854T284 792V329ZM767 1156Q756 1133 743 1112T712 1076T675 1051T632 1041Q613 1041 596 1048T558 1063Q516 1080 498 1087T466 1094Q439 1094 421 1079T387 1040L350 1057Q360 1080 373 1100T404 1137T441 1162T484 1171Q503 1171 520 1164T558 1149Q601 1132 619 1125T650 1118Q678 1118 696 1134T730 1173L767 1156Z"  />
<glyph unicode="&#x169;" horiz-adv-x="755" d="M509 -6Q511 12 512 36T513 79Q461 32 402 6T287 -20Q250 -20 219 -8T165 29T129 95T116 191V430Q116 458 113 474T101 499T74 513T27 523L25 552Q57 556 88 561T147 571T195 581T227 590L237 582Q234 557 233 529T230 473T228 422T227 379V229Q227 182 236 150T262 97T300 69T347 60Q388 60 431 77T513 124V430Q513 458 510 474T497 499T468 513T415 523L413 552Q447 556 480 561T542 571T591 581T621 590L632 582Q629 557 627 529T624 473T622 422T621 379V146Q621 117 624 101T637 76T668 63T723 53L727 24Q697 21 666 17T606 7T554 -4T519 -14L509 -6ZM577 821Q566 797 552 775T519 735T480 708T434 698Q414 698 396 706T355 722Q310 740 290 747T257 755Q228 755 209 739T172 697L133 715Q144 739 158 761T191 800T230 827T276 837Q296 837 314 829T355 813Q377 804 393 798T420 788T438 782T453 780Q482 780 501 797T538 839L577 821Z"  />
<glyph unicode="&#x16A;" horiz-adv-x="1047" d="M284 329Q284 257 308 206T371 122T461 74T564 58Q618 58 667 74T754 127T814 221T837 360V780Q837 824 831 851T807 893T758 914T678 923L680 959Q715 959 764 958T868 957Q912 957 960 958T1040 960L1041 926Q997 922 970 917T926 895T903 848T897 763V340Q897 242 864 174T778 63T657 0T519 -20Q450 -20 387 -1T276 57T198 155T169 294V828Q169 852 165 869T146 897T104 915T32 923L34 959Q52 959 76 959T128 958Q156 958 184 958T238 957Q258 957 282 957T332 958Q357 958 379 958T419 959L422 925Q379 922 352 915T310 893T290 854T284 792V329ZM757 1073H351L347 1134H761L757 1073Z"  />
<glyph unicode="&#x16B;" horiz-adv-x="755" d="M509 -6Q511 12 512 36T513 79Q461 32 402 6T287 -20Q250 -20 219 -8T165 29T129 95T116 191V430Q116 458 113 474T101 499T74 513T27 523L25 552Q57 556 88 561T147 571T195 581T227 590L237 582Q234 557 233 529T230 473T228 422T227 379V229Q227 182 236 150T262 97T300 69T347 60Q388 60 431 77T513 124V430Q513 458 510 474T497 499T468 513T415 523L413 552Q447 556 480 561T542 571T591 581T621 590L632 582Q629 557 627 529T624 473T622 422T621 379V146Q621 117 624 101T637 76T668 63T723 53L727 24Q697 21 666 17T606 7T554 -4T519 -14L509 -6ZM543 731H157L153 792H547L543 731Z"  />
<glyph unicode="&#x16C;" horiz-adv-x="1047" d="M284 329Q284 257 308 206T371 122T461 74T564 58Q618 58 667 74T754 127T814 221T837 360V780Q837 824 831 851T807 893T758 914T678 923L680 959Q715 959 764 958T868 957Q912 957 960 958T1040 960L1041 926Q997 922 970 917T926 895T903 848T897 763V340Q897 242 864 174T778 63T657 0T519 -20Q450 -20 387 -1T276 57T198 155T169 294V828Q169 852 165 869T146 897T104 915T32 923L34 959Q52 959 76 959T128 958Q156 958 184 958T238 957Q258 957 282 957T332 958Q357 958 379 958T419 959L422 925Q379 922 352 915T310 893T290 854T284 792V329ZM410 1225Q417 1171 455 1138T554 1105Q614 1105 652 1138T698 1225L739 1220Q739 1181 727 1147T692 1087T634 1046T554 1031Q509 1031 474 1046T416 1086T381 1146T369 1220L410 1225Z"  />
<glyph unicode="&#x16D;" horiz-adv-x="755" d="M509 -6Q511 12 512 36T513 79Q461 32 402 6T287 -20Q250 -20 219 -8T165 29T129 95T116 191V430Q116 458 113 474T101 499T74 513T27 523L25 552Q57 556 88 561T147 571T195 581T227 590L237 582Q234 557 233 529T230 473T228 422T227 379V229Q227 182 236 150T262 97T300 69T347 60Q388 60 431 77T513 124V430Q513 458 510 474T497 499T468 513T415 523L413 552Q447 556 480 561T542 571T591 581T621 590L632 582Q629 557 627 529T624 473T622 422T621 379V146Q621 117 624 101T637 76T668 63T723 53L727 24Q697 21 666 17T606 7T554 -4T519 -14L509 -6ZM206 870Q213 804 251 766T350 728Q410 728 448 766T494 870L535 865Q535 819 523 780T488 713T430 668T350 651Q305 651 270 667T212 712T177 780T165 865L206 870Z"  />
<glyph unicode="&#x16E;" horiz-adv-x="1047" d="M284 329Q284 257 308 206T371 122T461 74T564 58Q618 58 667 74T754 127T814 221T837 360V780Q837 824 831 851T807 893T758 914T678 923L680 959Q715 959 764 958T868 957Q912 957 960 958T1040 960L1041 926Q997 922 970 917T926 895T903 848T897 763V340Q897 242 864 174T778 63T657 0T519 -20Q450 -20 387 -1T276 57T198 155T169 294V828Q169 852 165 869T146 897T104 915T32 923L34 959Q52 959 76 959T128 958Q156 958 184 958T238 957Q258 957 282 957T332 958Q357 958 379 958T419 959L422 925Q379 922 352 915T310 893T290 854T284 792V329ZM431 1119Q431 1141 441 1160T468 1194T508 1216T554 1224Q581 1224 603 1216T642 1194T668 1162T677 1123Q677 1101 667 1082T640 1050T600 1028T554 1020Q500 1020 466 1048T431 1119ZM622 1119Q622 1148 605 1169T554 1191Q520 1191 503 1172T485 1123Q485 1091 503 1072T554 1053Q588 1053 605 1071T622 1119Z"  />
<glyph unicode="&#x16F;" horiz-adv-x="755" d="M509 -6Q511 12 512 36T513 79Q461 32 402 6T287 -20Q250 -20 219 -8T165 29T129 95T116 191V430Q116 458 113 474T101 499T74 513T27 523L25 552Q57 556 88 561T147 571T195 581T227 590L237 582Q234 557 233 529T230 473T228 422T227 379V229Q227 182 236 150T262 97T300 69T347 60Q388 60 431 77T513 124V430Q513 458 510 474T497 499T468 513T415 523L413 552Q447 556 480 561T542 571T591 581T621 590L632 582Q629 557 627 529T624 473T622 422T621 379V146Q621 117 624 101T637 76T668 63T723 53L727 24Q697 21 666 17T606 7T554 -4T519 -14L509 -6ZM224 767Q224 792 234 814T262 852T302 877T350 886Q377 886 400 877T440 852T466 815T476 771Q476 746 466 725T438 688T398 663T350 654Q322 654 299 662T260 686T234 722T224 767ZM420 767Q420 801 403 827T350 853Q315 853 297 830T279 771Q279 734 298 711T350 687Q385 687 402 709T420 767Z"  />
<glyph unicode="&#x170;" horiz-adv-x="1047" d="M284 329Q284 257 308 206T371 122T461 74T564 58Q618 58 667 74T754 127T814 221T837 360V780Q837 824 831 851T807 893T758 914T678 923L680 959Q715 959 764 958T868 957Q912 957 960 958T1040 960L1041 926Q997 922 970 917T926 895T903 848T897 763V340Q897 242 864 174T778 63T657 0T519 -20Q450 -20 387 -1T276 57T198 155T169 294V828Q169 852 165 869T146 897T104 915T32 923L34 959Q52 959 76 959T128 958Q156 958 184 958T238 957Q258 957 282 957T332 958Q357 958 379 958T419 959L422 925Q379 922 352 915T310 893T290 854T284 792V329ZM765 1239L843 1173L841 1161L659 1017L633 1040L635 1047L765 1239ZM555 1239L633 1173L631 1166L449 1022L423 1040L425 1047L555 1239Z"  />
<glyph unicode="&#x171;" horiz-adv-x="755" d="M509 -6Q511 12 512 36T513 79Q461 32 402 6T287 -20Q250 -20 219 -8T165 29T129 95T116 191V430Q116 458 113 474T101 499T74 513T27 523L25 552Q57 556 88 561T147 571T195 581T227 590L237 582Q234 557 233 529T230 473T228 422T227 379V229Q227 182 236 150T262 97T300 69T347 60Q388 60 431 77T513 124V430Q513 458 510 474T497 499T468 513T415 523L413 552Q447 556 480 561T542 571T591 581T621 590L632 582Q629 557 627 529T624 473T622 422T621 379V146Q621 117 624 101T637 76T668 63T723 53L727 24Q697 21 666 17T606 7T554 -4T519 -14L509 -6ZM501 901L596 892L601 881L451 636L421 642L418 648L501 901ZM321 906L416 897L421 886L271 641L241 647L238 653L321 906Z"  />
<glyph unicode="&#x172;" horiz-adv-x="1047" d="M560 -173Q560 -213 581 -233T634 -253Q674 -253 712 -223L732 -253Q695 -294 654 -311T574 -329Q525 -329 492 -301T458 -218Q458 -190 468 -163T497 -111T540 -61T593 -14Q575 -17 556 -18T519 -20Q450 -20 387 -1T276 57T198 155T169 294V828Q169 852 165 869T146 897T104 915T32 923L34 959Q52 959 76 959T128 958Q156 958 184 958T238 957Q258 957 282 957T332 958Q357 958 379 958T419 959L422 925Q379 922 352 915T310 893T290 854T284 792V329Q284 257 308 206T371 122T461 74T564 58Q618 58 667 74T754 127T814 221T837 360V780Q837 824 831 851T807 893T758 914T678 923L680 959Q715 959 764 958T868 957Q912 957 960 958T1040 960L1041 926Q997 922 970 917T926 895T903 848T897 763V340Q897 270 880 216T833 121T763 52T676 6Q622 -34 591 -79T560 -173Z"  />
<glyph unicode="&#x173;" horiz-adv-x="755" d="M555 -173Q555 -213 576 -233T629 -253Q669 -253 707 -223L727 -253Q690 -294 649 -311T569 -329Q520 -329 487 -301T453 -218Q453 -193 464 -168T494 -117T539 -68T595 -19Q561 -16 533 7T500 79Q452 47 419 28T362 -2T318 -16T280 -20Q244 -20 212 -9T156 27T118 92T103 191V430Q103 458 100 474T88 500T61 513T14 523L12 552Q44 556 75 561T134 571T182 581T214 590L224 582Q221 557 219 529T216 474T215 422T214 379V233Q214 183 224 150T252 98T291 72T338 64Q359 64 381 69T424 84T464 104T500 128V430Q500 458 497 474T484 500T455 513T402 523L400 552Q434 556 467 561T529 571T578 581T608 590L619 582Q616 556 614 528T611 473T609 422T608 379V125Q608 83 621 63T658 42Q678 42 707 59L725 28Q637 -17 596 -69T555 -173Z"  />
<glyph unicode="&#x174;" horiz-adv-x="1375" d="M478 164L670 643L622 790Q608 833 597 858T570 897T532 916T474 924L476 960Q518 960 568 959T670 958Q712 958 754 959T839 960L842 926Q780 921 755 911T730 874Q730 863 741 819L948 164L1166 804Q1183 858 1183 875Q1183 901 1157 910T1061 924L1063 960Q1108 960 1154 959T1245 958Q1282 958 1321 959T1398 960L1401 926Q1362 923 1337 917T1292 894T1258 847T1223 764Q1151 568 1084 378T947 -10L887 -15Q839 134 791 276T699 554Q674 495 644 421T584 271T526 121T477 -10L419 -15Q353 190 287 388T152 790Q138 833 126 858T98 897T57 916T-6 924L-4 960Q38 960 88 959T190 958Q232 958 274 959T359 960L362 926Q305 921 282 911T259 875Q259 864 262 851T271 819L478 164ZM555 1014L517 1024L513 1030L667 1208L749 1214L897 1030L893 1024L855 1014L705 1129L555 1014Z"  />
<glyph unicode="&#x175;" horiz-adv-x="975" d="M735 571Q766 571 799 570T879 569Q914 569 940 570T992 571L994 539Q964 535 946 531T916 518T895 492T873 445Q857 406 837 355T795 243T748 118T699 -15L659 -19Q617 92 575 196T488 415Q445 309 403 206T317 -15L277 -19Q238 99 199 216T117 445Q106 473 98 490T79 516T51 528T4 534L6 571Q39 571 75 570T156 569Q195 569 232 570T299 571L301 538Q255 534 237 527T219 499Q219 477 226 464Q250 389 276 310T330 154Q368 245 410 346T497 556L541 561Q580 461 620 359T708 154Q721 188 735 226T764 305T791 384T816 459Q824 491 824 496Q824 517 804 524T733 537L735 571ZM362 636L322 641L318 647L472 895L554 901L702 647L698 641L658 636L510 814L362 636Z"  />
<glyph unicode="&#x176;" horiz-adv-x="870" d="M380 314Q380 343 379 363T373 404T356 449T325 509Q298 557 260 625T162 791Q139 830 123 854T88 893T44 914T-20 924L-18 960Q24 960 74 959T176 958Q218 958 261 959T347 960L350 926Q296 922 276 913T255 886Q255 874 262 858T281 819L463 484L639 802Q655 831 663 850T672 884Q672 903 650 911T570 924L572 960Q609 960 650 959T736 958Q773 958 812 959T889 960L892 926Q853 923 828 916T782 892T743 846T695 770Q644 685 607 620T549 512Q528 471 517 446T501 402T496 366T495 323V125Q495 101 499 85T517 59T559 43T637 36L635 0Q614 0 588 0T533 1Q505 1 478 1T426 2Q406 2 383 2T335 1Q311 1 287 1T244 0L241 34Q287 37 315 43T357 63T375 100T380 162V314ZM309 1014L271 1024L267 1030L421 1208L503 1214L651 1030L647 1024L609 1014L459 1129L309 1014Z"  />
<glyph unicode="&#x177;" horiz-adv-x="661" d="M687 539Q657 535 639 530T608 515T583 486T557 438Q534 392 507 332T452 203T394 63T338 -80Q318 -129 297 -180T252 -278T205 -360T157 -416Q107 -458 56 -458Q30 -458 11 -442T-9 -398Q-9 -376 3 -360T36 -332Q47 -334 56 -335T73 -337Q96 -337 116 -331T153 -308Q189 -270 223 -201T293 -41L295 -33L292 -19Q272 35 249 95T203 215T156 332T111 438Q98 468 88 486T64 514T32 528T-16 534L-14 571Q19 571 60 570T146 569Q185 569 217 570T279 571L281 538Q241 533 225 526T209 502Q209 494 212 483T221 457L354 111L500 459Q511 494 511 499Q511 518 494 526T432 537L434 571Q465 571 495 570T571 569Q606 569 633 570T685 571L687 539ZM209 636L169 641L165 647L319 895L401 901L549 647L545 641L505 636L357 814L209 636Z"  />
<glyph unicode="&#x178;" horiz-adv-x="870" d="M380 314Q380 343 379 363T373 404T356 449T325 509Q298 557 260 625T162 791Q139 830 123 854T88 893T44 914T-20 924L-18 960Q24 960 74 959T176 958Q218 958 261 959T347 960L350 926Q296 922 276 913T255 886Q255 874 262 858T281 819L463 484L639 802Q655 831 663 850T672 884Q672 903 650 911T570 924L572 960Q609 960 650 959T736 958Q773 958 812 959T889 960L892 926Q853 923 828 916T782 892T743 846T695 770Q644 685 607 620T549 512Q528 471 517 446T501 402T496 366T495 323V125Q495 101 499 85T517 59T559 43T637 36L635 0Q614 0 588 0T533 1Q505 1 478 1T426 2Q406 2 383 2T335 1Q311 1 287 1T244 0L241 34Q287 37 315 43T357 63T375 100T380 162V314ZM596 1040Q569 1040 550 1059T531 1106Q531 1134 550 1153T596 1172Q624 1172 643 1153T662 1106Q662 1079 643 1060T596 1040ZM321 1040Q294 1040 275 1059T256 1106Q256 1133 275 1152T321 1172Q349 1172 368 1153T387 1106Q387 1079 368 1060T321 1040Z"  />
<glyph unicode="&#x179;" horiz-adv-x="908" d="M50 16Q71 43 104 88T177 189T262 310T352 438T439 563T516 673T574 757T607 805L679 909H382Q323 909 286 904T225 880T187 821T161 715L123 717V782Q123 827 121 867T115 960Q184 960 251 960T377 959Q437 959 480 959T543 958H577Q600 958 630 958T692 959Q725 959 754 959T806 960H838L850 944Q832 921 801 878T729 778T644 658T554 528T465 401T387 289T328 205T296 159L222 53H585Q626 53 662 61T731 92T793 154T847 253L886 243Q862 166 849 101T834 0Q749 0 672 0T529 1Q465 1 417 1T342 2H305Q282 2 253 2T193 1Q163 1 136 1T87 0H59L50 16ZM621 1214L699 1148L697 1136L430 1020L409 1045L411 1052L621 1214Z"  />
<glyph unicode="&#x17A;" horiz-adv-x="605" d="M42 16Q76 62 119 120T203 236T280 341T332 415L407 524H292Q244 524 214 520T166 501T136 460T115 390L82 391Q82 445 81 486T76 570H203Q254 570 288 570T345 569H388Q404 569 425 569T469 570Q491 570 511 570T546 571L558 555Q524 509 481 450T397 333T322 229T273 159L195 46H358Q398 46 425 53T474 76T512 119T551 186L585 177Q573 133 564 84T552 0H412Q358 0 322 0T260 1H167Q145 1 123 1T82 0H51L42 16ZM375 901L480 892L485 881L330 636L295 642L292 648L375 901Z"  />
<glyph unicode="&#x17B;" horiz-adv-x="908" d="M50 16Q71 43 104 88T177 189T262 310T352 438T439 563T516 673T574 757T607 805L679 909H382Q323 909 286 904T225 880T187 821T161 715L123 717V782Q123 827 121 867T115 960Q184 960 251 960T377 959Q437 959 480 959T543 958H577Q600 958 630 958T692 959Q725 959 754 959T806 960H838L850 944Q832 921 801 878T729 778T644 658T554 528T465 401T387 289T328 205T296 159L222 53H585Q626 53 662 61T731 92T793 154T847 253L886 243Q862 166 849 101T834 0Q749 0 672 0T529 1Q465 1 417 1T342 2H305Q282 2 253 2T193 1Q163 1 136 1T87 0H59L50 16ZM410 1115Q410 1147 429 1166T480 1186Q512 1186 532 1167T552 1115Q552 1084 532 1065T480 1045Q448 1045 429 1064T410 1115Z"  />
<glyph unicode="&#x17C;" horiz-adv-x="605" d="M42 16Q76 62 119 120T203 236T280 341T332 415L407 524H292Q244 524 214 520T166 501T136 460T115 390L82 391Q82 445 81 486T76 570H203Q254 570 288 570T345 569H388Q404 569 425 569T469 570Q491 570 511 570T546 571L558 555Q524 509 481 450T397 333T322 229T273 159L195 46H358Q398 46 425 53T474 76T512 119T551 186L585 177Q573 133 564 84T552 0H412Q358 0 322 0T260 1H167Q145 1 123 1T82 0H51L42 16ZM247 830Q247 863 267 883T320 904Q355 904 375 884T396 830Q396 797 376 777T320 756Q287 756 267 776T247 830Z"  />
<glyph unicode="&#x17D;" horiz-adv-x="908" d="M50 16Q71 43 104 88T177 189T262 310T352 438T439 563T516 673T574 757T607 805L679 909H382Q323 909 286 904T225 880T187 821T161 715L123 717V782Q123 827 121 867T115 960Q184 960 251 960T377 959Q437 959 480 959T543 958H577Q600 958 630 958T692 959Q725 959 754 959T806 960H838L850 944Q832 921 801 878T729 778T644 658T554 528T465 401T387 289T328 205T296 159L222 53H585Q626 53 662 61T731 92T793 154T847 253L886 243Q862 166 849 101T834 0Q749 0 672 0T529 1Q465 1 417 1T342 2H305Q282 2 253 2T193 1Q163 1 136 1T87 0H59L50 16ZM630 1225L668 1215L672 1209L518 1031L436 1025L288 1209L292 1215L330 1225L480 1110L630 1225Z"  />
<glyph unicode="&#x17E;" horiz-adv-x="605" d="M42 16Q76 62 119 120T203 236T280 341T332 415L407 524H292Q244 524 214 520T166 501T136 460T115 390L82 391Q82 445 81 486T76 570H203Q254 570 288 570T345 569H388Q404 569 425 569T469 570Q491 570 511 570T546 571L558 555Q524 509 481 450T397 333T322 229T273 159L195 46H358Q398 46 425 53T474 76T512 119T551 186L585 177Q573 133 564 84T552 0H412Q358 0 322 0T260 1H167Q145 1 123 1T82 0H51L42 16ZM468 911L508 906L512 900L358 652L276 646L128 900L132 906L172 911L320 733L468 911Z"  />
<glyph unicode="&#x17F;" horiz-adv-x="389" d="M245 114Q245 89 250 74T269 52T308 41T376 37L373 0Q357 0 335 0T288 1Q263 1 237 1T186 2Q147 2 108 1T41 0L38 32Q71 35 90 40T120 59T134 94T138 155V516H43L39 548Q70 553 89 557T120 567T134 582T138 607V712Q138 806 165 876T240 994Q282 1036 334 1056T446 1076Q461 1076 480 1073T517 1063T546 1042T558 1008Q558 976 542 962T494 937Q469 960 433 977T361 995Q341 995 323 989T290 968Q273 951 264 926T251 872T246 812T245 751V114Z"  />
<glyph unicode="&#x192;" horiz-adv-x="680" d="M230 536L232 552Q243 640 279 703T369 815Q417 857 471 876T585 896Q599 896 617 893T651 883T678 864T689 834Q689 800 670 784T616 757Q594 780 560 797T490 815Q470 815 451 809T416 788Q397 771 385 748T364 698T350 644T342 591L336 538L503 541L510 534L501 483H329L300 259Q286 147 254 70T174 -53Q154 -72 131 -89T83 -120T32 -142T-19 -150Q-33 -150 -48 -147T-76 -136T-97 -118T-105 -90Q-105 -64 -85 -47T-39 -25Q-24 -39 3 -55T61 -71Q72 -71 85 -63T110 -42T132 -15T148 11Q165 45 175 91T192 198L224 483H129L123 490L131 528L230 536Z"  />
<glyph unicode="&#x1B9;" horiz-adv-x="618" d="M557 383L524 382Q513 428 502 456T472 499T422 519T342 524H183L256 423Q313 345 368 268T482 112L467 90Q439 97 410 100T356 104Q301 104 259 86T187 36T142 -39T126 -133Q126 -185 144 -233T196 -318T276 -377T378 -400Q401 -400 422 -394T459 -373T487 -336T503 -279Q519 -266 547 -266Q570 -266 588 -276T606 -308Q606 -325 590 -350T540 -400T454 -441T332 -459Q262 -459 203 -438T99 -378T30 -284T5 -160Q5 -97 29 -43T95 54T194 122T320 155L240 265Q187 338 136 410T31 555L41 571Q56 571 77 571T122 570Q145 570 167 570T205 569H331Q358 569 388 569T451 570H563Q559 527 558 485T557 383Z"  />
<glyph unicode="&#x1E6;" horiz-adv-x="1061" d="M881 696Q877 755 855 799T796 872T712 915T609 929Q506 929 430 898T304 810T230 674T205 498Q205 402 230 318T305 171T431 72T610 35Q624 35 656 38T723 49T782 70T808 103V301Q808 325 802 341T778 367T727 383T638 390L640 426Q664 426 692 426T749 425Q778 425 805 425T854 424Q874 424 896 424T939 425Q960 425 979 425T1013 426L1016 392Q987 389 969 383T941 363T927 326T923 265V201Q923 153 924 109T930 36Q849 14 765 -3T601 -20Q484 -20 386 15T216 114T104 268T64 470Q64 598 109 693T234 853T419 948T647 980Q678 980 715 977T789 969T863 956T930 941Q924 877 924 821T923 700L881 696ZM758 1225L796 1215L800 1209L646 1031L564 1025L416 1209L420 1215L458 1225L608 1110L758 1225Z"  />
<glyph unicode="&#x1E7;" horiz-adv-x="682" d="M67 353Q67 403 87 446T142 522T222 572T317 590Q397 590 455 556Q466 549 475 547T498 544Q509 545 514 545L667 556L674 548L668 490H527Q568 437 568 373Q568 314 545 269T484 194T401 148T311 132Q272 132 228 142Q205 131 190 110T174 69Q174 55 184 45T210 27T243 17T275 14Q314 14 356 15T436 17Q476 17 516 10T588 -17T641 -71T661 -157Q661 -220 633 -275T555 -371T436 -435T283 -459Q240 -459 195 -448T112 -413T52 -354T28 -270Q28 -236 41 -208T75 -155T122 -111T174 -73Q133 -58 104 -33T74 30Q74 47 85 66T113 103T147 136T178 162Q67 218 67 353ZM334 -85Q301 -85 280 -85T244 -89T219 -98T196 -114Q165 -140 150 -172T135 -240Q135 -281 155 -309T206 -354T275 -380T349 -388Q394 -388 434 -379T504 -348T551 -294T569 -215Q569 -173 551 -145T499 -103Q470 -90 435 -88T354 -85H334ZM327 176Q359 176 382 191T419 230T441 284T448 343Q448 379 441 415T417 481T374 528T308 546Q275 546 252 532T215 493T194 440T187 380Q187 346 195 310T219 244T262 195T327 176ZM473 911L513 906L517 900L363 652L281 646L133 900L137 906L177 911L325 733L473 911Z"  />
<glyph unicode="&#x1FA;" horiz-adv-x="962" d="M618 355H285L208 158Q188 101 188 86Q188 60 212 50T300 37L297 1Q260 1 214 2T123 3Q86 3 47 2T-30 1L-32 35Q7 38 32 44T75 68T110 116T149 198L436 875Q448 905 456 927T475 976L538 984Q549 936 561 896T585 823L810 171Q825 127 837 102T865 64T905 45T969 37L966 1Q924 1 874 2T772 3Q730 3 687 2T602 1L599 35Q655 39 679 48T703 84Q703 95 699 109T689 142L618 355ZM308 413H599L465 809L308 413ZM384 1095Q384 1117 394 1136T421 1170T461 1192T507 1200Q534 1200 556 1192T595 1170T621 1138T630 1099Q630 1077 620 1058T593 1026T553 1004T507 996Q453 996 419 1024T384 1095ZM575 1095Q575 1124 558 1145T507 1167Q473 1167 456 1148T438 1099Q438 1067 456 1048T507 1029Q541 1029 558 1047T575 1095ZM648 1434L726 1368L724 1356L457 1240L436 1265L438 1272L648 1434Z"  />
<glyph unicode="&#x1FB;" horiz-adv-x="620" d="M392 323Q393 330 393 340V413Q393 464 369 497T290 531Q261 531 241 521T207 493T187 454T180 408Q164 395 136 395Q113 395 93 405T72 437Q72 453 84 470T117 503T163 535T214 561Q281 590 346 590Q378 590 406 582T455 555T488 507T500 438Q500 378 498 300T496 125Q496 86 511 64T553 42Q577 42 605 59L623 32Q600 10 567 -4T499 -18Q464 -18 435 1T395 66Q385 59 364 45T316 17T258 -9T199 -20Q166 -20 139 -8T93 24T63 71T52 128Q52 179 81 215T159 272Q194 286 252 300T392 323ZM390 114Q390 156 391 196T392 278Q365 275 338 271T284 259T235 241T196 215Q171 193 171 158Q171 116 192 87T259 58Q291 58 326 73T390 114ZM224 742Q224 767 234 789T262 827T302 852T350 861Q377 861 400 852T440 827T466 790T476 746Q476 721 466 700T438 663T398 638T350 629Q322 629 299 637T260 661T234 697T224 742ZM420 742Q420 776 403 802T350 828Q315 828 297 805T279 746Q279 709 298 686T350 662Q385 662 402 684T420 742ZM365 1151L470 1142L475 1131L320 886L285 892L282 898L365 1151Z"  />
<glyph unicode="&#x1FC;" horiz-adv-x="1336" d="M1301 233Q1293 204 1286 171T1273 106T1263 46T1258 0Q1158 0 1080 0T941 1Q880 1 836 1T761 2Q741 2 715 2T663 1Q637 1 614 1T576 0L573 34Q619 37 647 43T690 63T710 100T715 162V419H584Q551 419 513 419T425 417L244 157Q223 126 211 105T198 70Q198 53 219 46T292 36L289 0Q252 0 209 1T121 2Q84 2 42 1T-38 0L-40 34Q0 36 28 44T82 70T132 119T192 197L687 885Q692 893 692 898Q692 911 662 916T575 924L578 960Q597 960 622 960T673 959Q700 959 726 959T777 958Q816 958 933 959T1249 960Q1243 909 1240 850T1236 719L1197 718Q1188 777 1177 814T1146 873T1094 903T1011 911H877Q847 911 839 905T830 874V480L1159 491L1166 484L1164 403Q1079 411 997 414T830 418V163Q830 129 834 107T851 73T889 55T955 50H1019Q1077 50 1113 59T1175 91T1219 151T1262 242L1301 233ZM461 468L715 476V834L461 468ZM1021 1214L1099 1148L1097 1136L830 1020L809 1045L811 1052L1021 1214Z"  />
<glyph unicode="&#x1FD;" horiz-adv-x="923" d="M878 108Q847 67 814 42T750 4T694 -15T652 -20Q576 -20 520 10T427 95Q366 46 307 13T194 -20Q162 -20 136 -8T92 25T63 73T52 131Q52 183 80 219T157 274Q192 288 246 302T383 326Q384 340 384 366T385 413Q385 464 361 497T282 531Q253 531 233 521T199 493T180 453T174 406Q154 392 130 392Q106 392 86 403T66 434Q66 451 77 467T106 500T148 530T198 557Q226 570 265 580T334 590Q379 590 416 572T476 516Q519 555 568 572T660 590Q695 590 730 581T796 551Q835 523 858 481T881 384V370L880 356Q878 342 871 337T853 329L488 292Q494 232 514 190T564 122T628 83T696 71Q736 71 773 84T850 137L878 108ZM733 366Q750 368 756 379T762 406Q762 467 727 502T635 538Q609 538 583 524T536 484T502 420T486 337L733 366ZM408 137Q396 165 391 201T383 281Q358 278 331 274T279 262T231 243T194 217Q170 193 170 158Q170 116 190 87T256 58Q283 58 324 78T408 137ZM545 901L650 892L655 881L500 636L465 642L462 648L545 901Z"  />
<glyph unicode="&#x1FE;" horiz-adv-x="1122" d="M561 980Q639 980 705 963T829 914L897 1010L947 981L877 882Q962 818 1009 721T1056 490Q1056 379 1020 286T919 124T763 18T561 -20Q483 -20 414 -3T287 49L212 -57L166 -22L239 82Q157 146 112 241T66 470Q66 581 102 674T203 836T359 942T561 980ZM918 452Q918 575 891 659T819 801L338 121Q389 73 448 54T567 34Q636 34 699 56T811 129T889 258T918 452ZM555 926Q486 926 423 904T311 831T233 702T204 508Q204 388 229 305T298 164L779 844Q728 889 670 907T555 926ZM702 1214L780 1148L778 1136L511 1020L490 1045L492 1052L702 1214Z"  />
<glyph unicode="&#x1FF;" horiz-adv-x="711" d="M48 279Q48 343 71 400T135 499T231 565T349 590Q394 590 433 580T505 551L555 621L596 595L545 523Q596 481 623 421T651 291Q651 226 628 170T564 71T468 5T349 -20Q259 -20 191 21L141 -50L103 -19L151 49Q102 91 75 150T48 279ZM362 29Q407 29 439 50T493 104T523 178T533 260Q533 308 523 355T490 445L238 87Q261 61 291 45T362 29ZM166 311Q166 266 176 219T208 130L460 487Q437 512 407 526T337 541Q291 541 259 521T206 467T176 393T166 311ZM405 901L510 892L515 881L360 636L325 642L322 648L405 901Z"  />
<glyph unicode="&#x218;" horiz-adv-x="707" d="M84 279Q104 227 126 183T180 107T254 56T355 37Q394 37 427 50T485 87T524 143T538 215Q538 264 520 299T472 359T404 404T326 441Q281 461 236 485T154 542T95 618T72 720Q72 783 97 831T166 913T267 963T390 980Q453 980 506 971T621 945Q618 913 616 886T614 832T613 778T612 718L570 714Q561 820 506 872T356 925Q320 925 290 914T238 882T204 832T191 767Q191 719 206 687T249 630T311 589T386 554Q434 533 482 508T569 449T632 370T656 264Q656 196 628 144T554 55T448 -1T325 -20Q270 -20 211 -9T86 21Q79 87 69 145T42 269L84 279ZM274 -317Q314 -303 337 -275T360 -218Q360 -195 343 -178T291 -157Q283 -151 279 -141T275 -122Q275 -96 293 -81T335 -66Q358 -66 377 -76T409 -102T430 -137T437 -175Q437 -206 425 -233T393 -283T347 -323T290 -352L274 -317Z"  />
<glyph unicode="&#x219;" horiz-adv-x="522" d="M417 400Q414 431 402 457T369 503T321 532T263 543Q244 543 227 537T196 520T174 493T166 455Q166 430 178 412T211 379T258 353T313 331Q344 318 374 304T429 270T467 223T482 159Q482 112 462 79T410 23T338 -9T256 -20Q230 -20 204 -16T154 -7Q133 -2 114 2T71 9Q70 26 68 52T62 105T56 156T48 195L82 204Q96 170 113 138T153 82T207 42T278 27Q317 27 347 48T377 114Q377 139 366 158T335 193T291 219T239 242Q208 255 178 269T123 303T84 350T69 415Q69 461 88 494T138 548T208 580T286 590Q326 590 365 582T455 572Q452 540 451 512T450 450V401L417 400ZM194 -317Q234 -303 257 -275T280 -218Q280 -195 263 -178T211 -157Q203 -151 199 -141T195 -122Q195 -96 213 -81T255 -66Q278 -66 297 -76T329 -102T350 -137T357 -175Q357 -206 345 -233T313 -283T267 -323T210 -352L194 -317Z"  />
<glyph unicode="&#x237;" horiz-adv-x="349" d="M256 582Q253 557 251 528T248 471T246 417T245 374V118Q245 67 245 24T246 -50V-91Q246 -136 238 -176T218 -248Q195 -305 139 -362T6 -464L-18 -428Q42 -386 74 -340T120 -241T136 -129T138 0V418Q138 446 135 462T123 487T95 501T46 511L43 540Q74 546 105 552T164 566T213 579T246 590L256 582Z"  />
<glyph unicode="&#x294;" horiz-adv-x="645" d="M199 489L210 529Q218 525 235 522T270 518Q325 518 365 536T431 585T471 659T484 750Q484 796 470 842T429 926T362 987T271 1010Q246 1010 222 1002T176 979T140 940T121 886Q116 885 111 885T101 884Q66 884 46 901T25 943Q25 965 46 989T103 1032T188 1063T293 1076Q358 1076 415 1057T514 1000T580 910T605 787Q605 725 584 670T526 572T435 502T317 469Q316 458 316 436T315 393V114Q315 90 318 76T332 53T364 42T422 37L420 0Q388 0 344 1T251 2Q212 2 174 1T108 0L105 32Q139 35 159 40T190 59T204 94T207 155V459Q207 476 199 489Z"  />
<glyph unicode="&#x295;" horiz-adv-x="626" d="M541 32L538 0Q510 0 472 1T395 2Q347 2 303 1T226 0L224 37Q261 39 282 42T314 53T328 75T331 114V392Q331 413 331 434T329 466Q319 465 314 465H306Q247 465 198 486T114 543T60 627T40 732Q40 815 72 879T157 987T278 1053T421 1076Q458 1076 491 1070T548 1053T587 1027T601 993Q601 961 585 947T537 922Q496 968 451 989T362 1010Q314 1010 277 990T214 937T175 861T162 772Q162 725 175 683T215 608T282 557T376 538Q394 538 411 541T436 549L447 509Q439 496 439 479V155Q439 117 442 95T455 59T486 41T541 32Z"  />
<glyph unicode="&#x2BC;" horiz-adv-x="324" d="M62 629Q131 649 161 687T192 767Q192 816 161 840T76 864H65Q54 870 50 883T45 907Q45 934 70 952T129 970Q163 970 190 957T237 921T268 871T279 811Q279 766 264 731T222 669T159 621T80 588L62 629Z"  />
<glyph unicode="&#x2BD;" horiz-adv-x="324" d="M244 588Q202 601 166 621T103 668T61 731T45 811Q45 842 56 870T86 921T133 956T195 970Q228 970 253 952T279 907Q279 897 275 884T259 864H248Q194 864 163 840T132 767Q132 725 162 687T262 629L244 588Z"  />
<glyph unicode="&#x2BE;" horiz-adv-x="278" d="M35 651H44Q75 651 98 662T136 690T159 730T167 777Q167 800 160 822T137 862T98 890T44 901H35L38 960Q43 960 46 960T55 961Q103 961 138 946T197 906T232 849T243 784Q243 749 231 716T195 656T135 613T50 597H40L35 651Z"  />
<glyph unicode="&#x2BF;" horiz-adv-x="278" d="M243 907H234Q203 907 180 896T142 868T119 828T111 781Q111 758 118 736T141 696T180 668T234 657H243L240 598Q235 598 232 598T223 597Q175 597 140 612T81 652T46 709T35 774Q35 809 47 842T83 902T143 945T228 961H238L243 907Z"  />
<glyph unicode="&#x2C0;" horiz-adv-x="442" d="M130 394V565Q130 576 124 585L134 617Q146 610 171 610Q208 610 234 621T278 653T303 700T312 757Q312 787 304 816T280 869T241 907T187 922Q172 922 157 917T128 903T106 879T94 847Q79 841 63 841Q39 841 25 851T10 879Q10 894 25 910T65 940T126 963T201 972Q247 972 287 959T357 922T404 862T422 781Q422 740 408 704T367 639T304 594T226 572Q226 564 226 550T225 521V397L130 394Z"  />
<glyph unicode="&#x2C1;" horiz-adv-x="435" d="M217 394V512Q217 526 217 540T215 562L205 561H200Q159 561 126 575T70 613T33 670T20 741Q20 797 43 840T104 912T191 957T294 972Q349 972 387 957T425 916Q425 894 410 881T359 864Q335 892 306 907T251 922Q222 922 200 909T162 875T138 826T130 768Q130 737 138 710T164 661T208 628T271 616Q296 616 308 623L318 591Q312 582 312 571V397L217 394Z"  />
<glyph unicode="&#x2C6;" horiz-adv-x="700" d="M202 636L162 641L158 647L312 895L394 901L542 647L538 641L498 636L350 814L202 636Z"  />
<glyph unicode="&#x2C7;" horiz-adv-x="700" d="M498 911L538 906L542 900L388 652L306 646L158 900L162 906L202 911L350 733L498 911Z"  />
<glyph unicode="&#x2D2;" horiz-adv-x="384" d="M51 111H63Q101 111 130 125T178 163T207 219T217 289Q217 325 208 357T179 413T131 450T63 464H50L52 516Q59 517 65 517H79Q144 517 193 500T274 452T323 382T339 295Q339 249 322 208T272 135T188 85T72 66H56L51 111Z"  />
<glyph unicode="&#x2D3;" horiz-adv-x="384" d="M333 471H321Q283 471 254 457T206 419T177 363T167 293Q167 257 176 225T205 169T253 132T321 118H334L332 66Q325 65 318 65H305Q240 65 191 82T110 130T61 200T45 287Q45 333 62 374T112 447T196 497T312 516H328L333 471Z"  />
<glyph unicode="&#x2D8;" horiz-adv-x="700" d="M206 870Q213 804 251 766T350 728Q410 728 448 766T494 870L535 865Q535 819 523 780T488 713T430 668T350 651Q305 651 270 667T212 712T177 780T165 865L206 870Z"  />
<glyph unicode="&#x2D9;" horiz-adv-x="700" d="M277 830Q277 863 297 883T350 904Q385 904 405 884T426 830Q426 797 406 777T350 756Q317 756 297 776T277 830Z"  />
<glyph unicode="&#x2DA;" horiz-adv-x="700" d="M224 767Q224 792 234 814T262 852T302 877T350 886Q377 886 400 877T440 852T466 815T476 771Q476 746 466 725T438 688T398 663T350 654Q322 654 299 662T260 686T234 722T224 767ZM420 767Q420 801 403 827T350 853Q315 853 297 830T279 771Q279 734 298 711T350 687Q385 687 402 709T420 767Z"  />
<glyph unicode="&#x2DB;" horiz-adv-x="700" d="M315 -173Q315 -213 336 -233T389 -253Q429 -253 467 -223L487 -253Q450 -294 409 -311T329 -329Q280 -329 247 -301T213 -218Q213 -182 231 -147T279 -78T346 -17T423 35L440 13Q383 -29 349 -75T315 -173Z"  />
<glyph unicode="&#x2DC;" horiz-adv-x="700" d="M577 821Q566 797 552 775T519 735T480 708T434 698Q414 698 396 706T355 722Q310 740 290 747T257 755Q228 755 209 739T172 697L133 715Q144 739 158 761T191 800T230 827T276 837Q296 837 314 829T355 813Q377 804 393 798T420 788T438 782T453 780Q482 780 501 797T538 839L577 821Z"  />
<glyph unicode="&#x2DD;" horiz-adv-x="700" d="M501 901L596 892L601 881L451 636L421 642L418 648L501 901ZM321 906L416 897L421 886L271 641L241 647L238 653L321 906Z"  />
<glyph unicode="&#x300;" horiz-adv-x="0" d="M-317 648L-320 642L-355 636L-510 881L-505 892L-400 901L-317 648Z"  />
<glyph unicode="&#x301;" horiz-adv-x="0" d="M-290 901L-185 892L-180 881L-335 636L-370 642L-373 648L-290 901Z"  />
<glyph unicode="&#x302;" horiz-adv-x="0" d="M-493 636L-533 641L-537 647L-383 895L-301 901L-153 647L-157 641L-197 636L-345 814L-493 636Z"  />
<glyph unicode="&#x303;" horiz-adv-x="0" d="M-118 821Q-129 797 -143 775T-176 735T-215 708T-261 698Q-281 698 -299 706T-340 722Q-385 740 -405 747T-438 755Q-467 755 -486 739T-523 697L-562 715Q-551 739 -537 761T-504 800T-465 827T-419 837Q-399 837 -381 829T-340 813Q-318 804 -302 798T-275 788T-257 782T-242 780Q-213 780 -194 797T-157 839L-118 821Z"  />
<glyph unicode="&#x304;" horiz-adv-x="0" d="M-153 731H-539L-543 792H-149L-153 731Z"  />
<glyph unicode="&#x306;" horiz-adv-x="0" d="M-489 870Q-482 804 -444 766T-345 728Q-285 728 -247 766T-201 870L-160 865Q-160 819 -172 780T-207 713T-265 668T-345 651Q-390 651 -425 667T-483 712T-518 780T-530 865L-489 870Z"  />
<glyph unicode="&#x307;" horiz-adv-x="0" d="M-418 830Q-418 863 -398 883T-345 904Q-310 904 -290 884T-269 830Q-269 797 -289 777T-345 756Q-378 756 -398 776T-418 830Z"  />
<glyph unicode="&#x308;" horiz-adv-x="0" d="M-218 718Q-245 718 -264 737T-283 784Q-283 812 -264 831T-218 850Q-190 850 -171 831T-152 784Q-152 757 -171 738T-218 718ZM-473 718Q-500 718 -519 737T-538 784Q-538 811 -519 830T-473 850Q-445 850 -426 831T-407 784Q-407 757 -426 738T-473 718Z"  />
<glyph unicode="&#x30A;" horiz-adv-x="0" d="M-471 767Q-471 792 -461 814T-433 852T-393 877T-345 886Q-318 886 -295 877T-255 852T-229 815T-219 771Q-219 746 -229 725T-257 688T-297 663T-345 654Q-373 654 -396 662T-435 686T-461 722T-471 767ZM-275 767Q-275 801 -292 827T-345 853Q-380 853 -398 830T-416 771Q-416 734 -397 711T-345 687Q-310 687 -293 709T-275 767Z"  />
<glyph unicode="&#x30B;" horiz-adv-x="0" d="M-194 901L-99 892L-94 881L-244 636L-274 642L-277 648L-194 901ZM-374 906L-279 897L-274 886L-424 641L-454 647L-457 653L-374 906Z"  />
<glyph unicode="&#x30C;" horiz-adv-x="0" d="M-197 911L-157 906L-153 900L-307 652L-389 646L-537 900L-533 906L-493 911L-345 733L-197 911Z"  />
<glyph unicode="&#x323;" horiz-adv-x="0" d="M-70 -151Q-70 -119 -51 -100T0 -80Q32 -80 52 -99T72 -151Q72 -182 52 -201T0 -221Q-32 -221 -51 -202T-70 -151Z"  />
<glyph unicode="&#x326;" horiz-adv-x="700" d="M279 -317Q319 -303 342 -275T365 -218Q365 -195 348 -178T296 -157Q288 -151 284 -141T280 -122Q280 -96 298 -81T340 -66Q363 -66 382 -76T414 -102T435 -137T442 -175Q442 -206 430 -233T398 -283T352 -323T295 -352L279 -317Z"  />
<glyph unicode="&#x327;" horiz-adv-x="0" d="M389 -2Q360 -17 349 -31T337 -59Q337 -73 349 -87T376 -117Q392 -134 406 -151T420 -185Q420 -203 407 -229T372 -279T321 -319T261 -336Q250 -336 238 -333T216 -322T198 -305T191 -280Q191 -263 207 -247T240 -226Q256 -248 273 -260T312 -272Q342 -272 342 -241Q342 -223 330 -208T302 -176Q285 -159 271 -143T257 -109Q257 -91 276 -64T350 2L389 -2Z"  />
<glyph unicode="&#x32E;" horiz-adv-x="0" d="M-494 -95Q-487 -161 -449 -199T-350 -237Q-290 -237 -252 -199T-206 -95L-165 -100Q-165 -146 -177 -185T-212 -252T-270 -297T-350 -314Q-395 -314 -430 -298T-488 -253T-523 -185T-535 -100L-494 -95Z"  />
<glyph unicode="&#x331;" horiz-adv-x="0" d="M-157 -181H-543L-547 -120H-153L-157 -181Z"  />
<glyph unicode="&#x600;" horiz-adv-x="1432" d="M1367 429Q1368 422 1368 415T1369 400Q1369 383 1366 373Q1364 367 1354 355T1331 328T1310 295T1300 259Q1300 253 1310 249T1335 243T1364 240T1386 238Q1401 236 1414 227T1428 194Q1428 181 1424 165T1413 131T1396 99T1373 71Q1356 52 1310 37T1205 15Q1174 12 1128 10T1025 6T908 3T787 1T673 0T576 -1Q519 -1 469 -1T380 1T316 3T284 5Q272 7 247 13T191 29T127 48T67 68T4 92L8 97H206Q270 97 350 97T518 99T696 101T872 105T1032 111T1164 120Q1181 121 1200 123T1239 128T1277 134T1307 142Q1298 145 1286 149T1264 160T1246 177T1239 204Q1239 223 1247 251T1270 308Q1278 324 1289 341T1313 374T1340 405T1367 429Z"  />
<glyph unicode="&#x601;" horiz-adv-x="3075" d="M3034 334Q3051 334 3060 324T3070 286Q3070 255 3056 226T3023 170T2982 120T2945 80Q2930 63 2911 41T2875 0T2826 -46L2822 -42Q2822 -31 2841 -2T2889 66Q2910 94 2929 113T2964 146T2988 172T2998 198Q2998 209 2991 215T2960 222Q2945 222 2908 212T2823 177Q2767 149 2689 114T2515 42T2304 -30T2061 -94T1790 -139T1496 -156Q1354 -156 1249 -146T1069 -121T944 -88T865 -55T819 -30T798 -20Q789 -20 778 -44T746 -96T694 -149T611 -173Q587 -173 569 -163T537 -138T512 -105T489 -72T465 -46T437 -36Q408 -36 389 -56T356 -105T331 -169T306 -233T275 -283T229 -303Q197 -303 174 -281T135 -225T111 -155T103 -86Q103 -60 105 -34T111 14T125 62Q128 22 129 -8T139 -110Q152 -171 174 -191T225 -211Q245 -211 261 -190T293 -136T324 -66T359 4T403 58T461 80Q477 80 489 70T514 43T538 8T565 -27T601 -54T648 -65Q680 -65 703 -53T742 -22T770 18T792 58T811 89T834 102Q843 102 858 91T903 64T982 28T1107 -7T1293 -35T1552 -46Q1715 -46 1858 -30T2125 14T2357 77T2558 149T2730 221T2876 284Q2897 293 2919 301T2963 317T3002 329T3034 334Z"  />
</font>
</defs>
</svg>
