<?xml  version="1.0" encoding="UTF-8"?>
<!DOCTYPE svg PUBLIC "-//W3C//DTD SVG 1.0//EN" "http://www.w3.org/TR/2001/REC-SVG-20010904/DTD/svg10.dtd" >
<svg xmlns="http://www.w3.org/2000/svg" >
<metadata>
<version>1.0</version>
<id><![CDATA[Lucida Console W10 0]]></id>
<vendor>Monotype Imaging Inc.</vendor>
<credits>
<name>Fonts.com WebFonts</name>
<URL>http://webfonts.fonts.com</URL>
<role>Home of the Web fonts</role>
</credits>
<license>
<URL>http://webfonts.fonts.com/Legal</URL>
</license>
<copyright><![CDATA[© 1991 Bigelow & Holmes Inc. © 1990-1991 Type Solutions, Inc. All Rights Reserved.]]></copyright>
<trademark><![CDATA[Lucida® is a registered trademark of Bigelow & Holmes Inc.]]></trademark>
<licensee>
<name></name>
</licensee>
</metadata>
<defs >
<font horiz-adv-x="1230" id="936712ee-6903-4ab8-b6ad-99e7ca1721d0">
<font-face font-family="" panose-1="2 11 6 9 4 5 4 2 2 4" ascent="1616" descent="-432" units-per-em="2048" alphabetic="0">
</font-face>
<missing-glyph horiz-adv-x="0" />

<glyph unicode="&#xA;" />
<glyph unicode="&#xD;" horiz-adv-x="0" />
<glyph unicode=" " horiz-adv-x="1234" />
<glyph unicode="!" horiz-adv-x="1234" d="M542 419L518 1184V1480H715V1184L690 419H542ZM493 0V222H740V0H493Z"  />
<glyph unicode="&quot;" horiz-adv-x="1234" d="M296 1036L247 1579H494L444 1036H296ZM790 1036L740 1579H987L938 1036H790Z"  />
<glyph unicode="#" horiz-adv-x="1234" d="M170 0L282 450H52L81 598H319L391 891H140L169 1039H428L538 1480H690L581 1039H813L922 1480H1075L965 1039H1193L1164 891H926L854 598H1105L1076 450H817L708 0H555L664 450H432L323 0H170ZM471 598H701L774 891H544L471 598Z"  />
<glyph unicode="$" horiz-adv-x="1234" d="M583 -123V0Q421 0 216 79V248Q429 145 583 145V682L510 730Q245 908 245 1115Q245 1264 342 1365T595 1480V1604H718V1480Q866 1471 1021 1415V1253Q876 1325 718 1342V813L785 773Q1059 612 1059 392Q1059 235 963 129T706 0V-123H583ZM706 148Q879 186 879 370Q879 489 751 577L706 609V148ZM595 891V1331Q521 1322 474 1263T427 1121Q427 1013 553 921L595 891Z"  />
<glyph unicode="%" horiz-adv-x="1234" d="M0 -37L1083 1517H1234L150 -37H0ZM303 802Q171 802 86 897T1 1141Q1 1290 86 1385T303 1480Q436 1480 521 1385T606 1141Q606 993 521 898T303 802ZM303 901Q372 901 415 967T458 1141Q458 1249 415 1315T303 1382Q234 1382 192 1316T149 1141Q149 1034 191 968T303 901ZM931 0Q799 0 714 95T629 339Q629 488 714 583T931 679Q1064 679 1149 584T1234 339Q1234 191 1149 96T931 0ZM931 99Q1000 99 1043 165T1086 339Q1086 447 1043 513T931 580Q862 580 820 514T777 339Q777 232 819 166T931 99Z"  />
<glyph unicode="&amp;" horiz-adv-x="1234" d="M962 0L888 89Q725 -37 506 -37Q297 -37 161 95T24 430Q24 588 106 693T375 879Q286 1074 286 1193Q286 1337 376 1427T612 1517Q750 1517 837 1438T924 1231Q924 1008 611 830Q726 606 945 340Q1038 479 1038 712L1036 788H1234Q1213 418 1036 222Q1130 110 1234 0H962ZM801 203Q565 490 434 756Q229 655 229 471Q229 321 320 216T541 111Q667 111 801 203ZM552 961Q742 1051 742 1217Q742 1284 707 1326T615 1369Q560 1369 521 1324T482 1213Q482 1120 552 961Z"  />
<glyph unicode="&apos;" horiz-adv-x="1234" d="M543 962L469 1579H765L691 962H543Z"  />
<glyph unicode="(" horiz-adv-x="1234" d="M1085 -296Q760 -260 553 2T345 642Q345 1018 552 1280T1085 1579V1443Q824 1390 683 1183T542 642Q542 309 683 101T1085 -160V-296Z"  />
<glyph unicode=")" horiz-adv-x="1234" d="M148 1579Q474 1543 681 1281T888 641Q888 265 681 3T148 -296V-160Q409 -107 550 100T691 642Q691 974 551 1182T148 1443V1579Z"  />
<glyph unicode="*" horiz-adv-x="1234" d="M703 1129L1009 1268L1070 1080L742 1012V1026Q742 1079 703 1129ZM732 983L958 735L798 619L632 910Q695 928 732 983ZM601 910L436 619L276 735L502 983Q539 928 601 910ZM492 1012L164 1080L225 1268L530 1129Q492 1079 492 1025V1012ZM555 1147L518 1480H716L679 1147Q644 1160 617 1160Q590 1160 555 1147Z"  />
<glyph unicode="+" horiz-adv-x="1234" d="M542 0V456H86V605H542V1061H691V605H1147V456H691V0H542Z"  />
<glyph unicode="&#x2c;" horiz-adv-x="1234" d="M469 -321V-222Q571 -208 588 -45L592 0H469V296H765V117Q765 -305 469 -321Z"  />
<glyph unicode="-" horiz-adv-x="1234" d="M210 543V691H1024V543H210Z"  />
<glyph unicode="." horiz-adv-x="1234" d="M469 0V296H765V0H469Z"  />
<glyph unicode="/" horiz-adv-x="1234" d="M1160 1579L240 -296H75L995 1579H1160Z"  />
<glyph unicode="0" horiz-adv-x="1234" d="M617 -37Q386 -37 249 174T111 741Q111 1096 248 1306T617 1517Q848 1517 985 1307T1123 741Q1123 385 986 174T617 -37ZM617 111Q913 111 913 741Q913 1369 617 1369Q321 1369 321 741Q321 111 617 111Z"  />
<glyph unicode="1" horiz-adv-x="1234" d="M185 0V148H580V1299L185 1210V1332L777 1517V148H1172V0H185Z"  />
<glyph unicode="2" horiz-adv-x="1234" d="M168 0V173Q290 409 532 649L621 738Q805 921 805 1107Q805 1226 735 1297T546 1369Q403 1369 205 1265V1439Q389 1517 565 1517Q768 1517 891 1407T1015 1115Q1015 998 958 895T765 665L681 586Q449 370 402 173H1007V0H168Z"  />
<glyph unicode="3" horiz-adv-x="1234" d="M234 7V181Q435 111 543 111Q677 111 759 193T841 410Q841 560 744 641T466 722H370V864H427Q558 864 618 880T729 946Q808 1024 808 1147Q808 1250 745 1309T574 1369Q423 1369 255 1288V1461Q418 1518 585 1518Q783 1518 894 1429T1006 1180Q1006 932 739 808Q1051 701 1051 410Q1051 205 913 84T539 -37Q393 -37 234 7Z"  />
<glyph unicode="4" horiz-adv-x="1234" d="M728 0V395H111V561L728 1480H913V543H1110V395H913V0H728ZM277 543H728V1215L277 543Z"  />
<glyph unicode="5" horiz-adv-x="1234" d="M270 8V177Q439 111 541 111Q663 111 741 205T820 447Q820 778 386 778Q349 778 298 774V1480H992V1308H464V924Q726 924 878 792T1030 433Q1030 231 892 97T546 -37Q429 -37 270 8Z"  />
<glyph unicode="6" horiz-adv-x="1234" d="M1042 1462V1293Q865 1370 760 1370Q573 1370 471 1210T369 757Q500 947 707 947Q881 947 1002 813T1123 484Q1123 257 992 110T658 -37Q417 -37 290 155T162 711Q162 1078 320 1298T741 1518Q863 1518 1042 1462ZM682 111Q792 111 861 204T931 445Q931 606 857 705T661 805Q539 805 467 718T394 486Q394 314 472 213T682 111Z"  />
<glyph unicode="7" horiz-adv-x="1234" d="M281 0Q299 160 352 286T597 751L906 1295H201V1480H1093V1314L1045 1234Q568 430 516 0H281Z"  />
<glyph unicode="8" horiz-adv-x="1234" d="M437 806Q235 954 235 1146Q235 1315 350 1416T659 1517Q841 1517 941 1434T1042 1198Q1042 972 783 815Q962 707 1032 614T1102 390Q1102 204 966 84T620 -37Q415 -37 288 76T160 372Q160 638 437 806ZM542 726Q354 572 354 398Q354 270 432 191T638 111Q751 111 827 179T904 348Q904 511 674 648L542 726ZM672 882Q865 1004 865 1166Q865 1258 804 1313T641 1369Q540 1369 480 1316T419 1174Q419 1034 618 914L672 882Z"  />
<glyph unicode="9" horiz-adv-x="1234" d="M230 15V184Q416 111 514 111Q699 111 801 271T903 724Q772 534 564 534Q390 534 270 668T149 996Q149 1223 280 1370T614 1517Q855 1517 982 1326T1109 770Q1109 403 952 183T533 -37Q416 -37 230 15ZM590 1369Q480 1369 410 1276T340 1036Q340 874 415 775T611 676Q732 676 805 763T878 995Q878 1166 800 1267T590 1369Z"  />
<glyph unicode=":" horiz-adv-x="1234" d="M469 790V1086H765V790H469ZM469 0V296H765V0H469Z"  />
<glyph unicode=";" horiz-adv-x="1234" d="M469 -321V-222Q580 -209 592 0H469V296H765V117Q765 -305 469 -321ZM469 790V1086H765V790H469Z"  />
<glyph unicode="&lt;" horiz-adv-x="1234" d="M1147 0L86 530L1147 1061V895L417 530L1147 166V0Z"  />
<glyph unicode="=" horiz-adv-x="1234" d="M86 284V432H1147V284H86ZM86 654V802H1147V654H86Z"  />
<glyph unicode="&gt;" horiz-adv-x="1234" d="M86 1061L1147 530L86 0V166L816 530L86 895V1061Z"  />
<glyph unicode="?" horiz-adv-x="1234" d="M419 0V222H665V0H419ZM443 419V447Q443 578 494 674T665 871L735 929Q879 1048 879 1163Q879 1370 542 1370Q430 1370 312 1340V1170H164V1459Q367 1517 576 1517Q823 1517 954 1433T1086 1191Q1086 1021 894 865L795 785Q709 715 675 650T641 490V419H443Z"  />
<glyph unicode="@" horiz-adv-x="1234" d="M963 33Q780 -37 645 -37Q392 -37 233 166T74 693Q74 1055 253 1286T714 1518Q1111 1518 1111 1075V419H1234V296H963V628Q848 284 676 284Q579 284 518 388T457 656Q457 882 566 1039T835 1196Q890 1196 963 1164Q925 1394 704 1394Q501 1394 362 1191T222 691Q222 426 346 256T663 86Q793 86 963 169V33ZM963 876V1049Q900 1090 846 1090Q735 1090 670 979T605 678Q605 425 696 430Q753 433 829 560T963 876Z"  />
<glyph unicode="A" horiz-adv-x="1234" d="M12 0L518 1283H715L1221 0H1012L891 321H305L182 0H12ZM364 469H832L597 1082L364 469Z"  />
<glyph unicode="B" horiz-adv-x="1234" d="M185 0V1283H599Q1049 1283 1049 985Q1049 871 972 789T755 671Q1112 598 1112 332Q1112 180 1007 94Q939 37 852 19T572 0H185ZM382 728H451Q849 728 849 950Q849 1059 772 1097T474 1135H382V728ZM382 148H560Q755 148 828 188T902 335Q902 459 782 532T454 605H382V148Z"  />
<glyph unicode="C" horiz-adv-x="1234" d="M1155 40Q957 -31 782 -31Q476 -31 289 152T102 635Q102 938 288 1126T774 1314Q944 1314 1138 1256V1075Q940 1166 768 1166Q569 1166 441 1020T312 648Q312 420 457 275T830 130Q968 130 1155 202V40Z"  />
<glyph unicode="D" horiz-adv-x="1234" d="M130 0V1283H517Q1157 1283 1157 667Q1157 382 1018 206Q931 95 804 48T464 0H130ZM327 148H426Q708 148 827 260T947 636Q947 904 839 1019T479 1135H327V148Z"  />
<glyph unicode="E" horiz-adv-x="1234" d="M216 0V1283H1083V1135H413V746H981V598H413V148H1129V0H216Z"  />
<glyph unicode="F" horiz-adv-x="1234" d="M247 0V1283H1160V1135H444V693H1055V545H444V0H247Z"  />
<glyph unicode="G" horiz-adv-x="1234" d="M1113 1256V1075Q915 1166 743 1166Q544 1166 416 1020T287 648Q287 421 432 276T802 130Q853 130 932 142V481H691V629H1129V33Q928 -31 748 -31Q450 -31 264 154T77 635Q77 938 263 1126T749 1314Q919 1314 1113 1256Z"  />
<glyph unicode="H" horiz-adv-x="1234" d="M148 0V1283H345V722H888V1283H1086V0H888V574H345V0H148Z"  />
<glyph unicode="I" horiz-adv-x="1234" d="M173 0V148H518V1135H173V1283H1061V1135H716V148H1061V0H173Z"  />
<glyph unicode="J" horiz-adv-x="1234" d="M197 17V184L263 162Q400 117 480 117Q621 117 677 190T734 448V1135H290V1283H931V553Q931 358 908 263T820 96Q706 -31 494 -31Q379 -31 197 17Z"  />
<glyph unicode="K" horiz-adv-x="1234" d="M170 0V1283H367V654L904 1283H1103L585 678L1202 0H966L367 654V0H170Z"  />
<glyph unicode="L" horiz-adv-x="1234" d="M222 0V1283H419V148H1110V0H222Z"  />
<glyph unicode="M" horiz-adv-x="1234" d="M94 0V1283H331L613 493H615L892 1283H1139V0H978V1101H976L687 271H521L233 1078H231V0H94Z"  />
<glyph unicode="N" horiz-adv-x="1234" d="M148 0V1287H334L923 354H925V1283H1086V0H904L311 940H308V0H148Z"  />
<glyph unicode="O" horiz-adv-x="1234" d="M62 642Q62 949 212 1131T617 1314Q871 1314 1021 1132T1172 642Q1172 334 1022 152T617 -31Q363 -31 213 151T62 642ZM272 642Q272 390 361 254T617 117Q783 117 873 253T963 642Q963 893 873 1029T617 1166Q451 1166 362 1030T272 642Z"  />
<glyph unicode="P" horiz-adv-x="1234" d="M228 0V1283H645Q868 1283 963 1243Q1157 1159 1157 919Q1157 717 1001 602T569 487H425V0H228ZM425 635H548Q948 635 948 915Q948 1033 873 1084T621 1135H425V635Z"  />
<glyph unicode="Q" horiz-adv-x="1234" d="M855 18Q1023 -100 1234 -149L1130 -321Q873 -220 677 -28Q627 -31 600 -31Q360 -31 211 155T62 641Q62 949 212 1131T617 1314Q871 1314 1021 1132T1172 641Q1172 419 1091 259T855 18ZM272 642Q272 390 361 254T617 117Q783 117 873 253T963 642Q963 893 873 1029T617 1166Q451 1166 362 1030T272 642Z"  />
<glyph unicode="R" horiz-adv-x="1234" d="M184 0V1283H543Q767 1283 854 1246Q1040 1169 1040 974Q1040 840 973 751T749 584L1203 0H964L559 534H381V0H184ZM381 683H485Q644 683 737 753T830 942Q830 1053 760 1094T502 1135H381V683Z"  />
<glyph unicode="S" horiz-adv-x="1234" d="M1010 1253V1082Q793 1166 624 1166Q357 1166 357 986Q357 913 407 869T592 777L718 733L838 692Q1117 594 1117 360Q1117 182 975 76T593 -31Q427 -31 164 40V235Q426 117 599 117Q745 117 832 174T919 329Q919 403 868 446T655 548L523 596Q326 669 250 746T173 951Q173 1124 290 1219T621 1314Q794 1314 1010 1253Z"  />
<glyph unicode="T" horiz-adv-x="1234" d="M518 0V1135H25V1283H1209V1135H716V0H518Z"  />
<glyph unicode="U" horiz-adv-x="1234" d="M153 1283H350V504Q350 300 414 209T623 117Q775 117 842 208T909 509V1283H1081V538Q1081 297 1024 192Q903 -31 625 -31Q384 -31 269 101T153 507V1283Z"  />
<glyph unicode="V" horiz-adv-x="1234" d="M512 0L14 1283H222L632 263L1051 1283H1219L710 0H512Z"  />
<glyph unicode="W" horiz-adv-x="1234" d="M207 0L16 1283H184L340 217H343L528 1012H718L900 229H902L1067 1283H1217L1006 0H792L615 753H613L435 0H207Z"  />
<glyph unicode="X" horiz-adv-x="1234" d="M11 0L514 653L54 1283H287L634 808L1001 1283H1193L727 681L1219 0H985L606 522L203 0H11Z"  />
<glyph unicode="Y" horiz-adv-x="1234" d="M519 0V525L32 1283H259L632 691L1040 1283H1227L716 525V0H519Z"  />
<glyph unicode="Z" horiz-adv-x="1234" d="M99 0V148L904 1135H148V1283H1127V1135L323 148H1135V0H99Z"  />
<glyph unicode="[" horiz-adv-x="1234" d="M444 -296V1579H1061V1431H617V-148H1061V-296H444Z"  />
<glyph unicode="\" horiz-adv-x="1234" d="M994 -296L74 1579H239L1159 -296H994Z"  />
<glyph unicode="]" horiz-adv-x="1234" d="M790 1579V-296H173V-148H617V1431H173V1579H790Z"  />
<glyph unicode="^" horiz-adv-x="1234" d="M86 296L616 1480L1147 296H981L616 1111L252 296H86Z"  />
<glyph unicode="_" horiz-adv-x="1234" d="M0 -148V0H1234V-148H0Z"  />
<glyph unicode="`" horiz-adv-x="1234" d="M863 1394H703L370 1616H641L863 1394Z"  />
<glyph unicode="a" horiz-adv-x="1234" d="M835 131Q656 -19 478 -19Q329 -19 233 66T136 281Q136 450 286 553T682 656H804V749Q804 864 753 913T584 962Q413 962 230 866V1035Q440 1110 624 1110Q831 1110 916 1028T1002 745V290Q1002 192 1023 157T1102 121Q1121 121 1164 131L1182 13Q1083 -19 1032 -19Q886 -19 835 131ZM804 259V533H745Q340 533 340 314Q340 235 392 187T530 139Q659 139 804 259Z"  />
<glyph unicode="b" horiz-adv-x="1234" d="M173 -12V1579H370V882Q513 1110 725 1110Q910 1110 1016 968T1123 579Q1123 309 997 142T667 -25Q492 -25 370 123L321 -12H173ZM370 271Q507 123 640 123Q770 123 841 237T913 558Q913 942 684 942Q517 942 370 734V271Z"  />
<glyph unicode="c" horiz-adv-x="1234" d="M1103 35Q928 -25 754 -25Q470 -25 317 123T163 543Q163 810 314 960T736 1110Q908 1110 1083 1058V893Q890 962 754 962Q576 962 475 850T373 543Q373 346 481 235T781 123Q924 123 1103 190V35Z"  />
<glyph unicode="d" horiz-adv-x="1234" d="M880 0V204Q736 -25 524 -25Q340 -25 234 118T127 507Q127 777 253 943T583 1110Q758 1110 880 962V1579H1077V0H880ZM880 814Q742 962 610 962Q480 962 409 848T337 527Q337 144 566 144Q733 144 880 352V814Z"  />
<glyph unicode="e" horiz-adv-x="1234" d="M1098 43Q893 -25 722 -25Q442 -25 292 119T141 531Q141 784 285 947T653 1110Q878 1110 984 975T1091 555V492H351Q373 123 749 123Q908 123 1098 199V43ZM357 640H881V668Q881 962 636 962Q518 962 445 877T357 640Z"  />
<glyph unicode="f" horiz-adv-x="1234" d="M444 0V913H148V1061H444V1176Q444 1404 550 1504T898 1604Q1058 1604 1201 1561V1405Q1055 1456 913 1456Q762 1456 702 1399T641 1197V1061H1160V913H641V0H444Z"  />
<glyph unicode="g" horiz-adv-x="1234" d="M212 -363L233 -197Q410 -272 562 -272Q878 -272 878 29L887 225Q763 0 528 0Q342 0 233 141T123 523Q123 784 250 947T580 1111Q739 1111 893 962V1086H1078V217Q1078 6 1050 -100T945 -289Q822 -420 560 -420Q406 -420 212 -363ZM881 385V812Q748 962 606 962Q477 962 405 850T333 536Q333 365 396 269T572 172Q747 172 881 385Z"  />
<glyph unicode="h" horiz-adv-x="1234" d="M182 0V1579H379V1086V882Q515 1110 749 1110Q1058 1110 1058 743V0H861V689Q861 816 822 869T689 923Q541 923 379 710V0H182Z"  />
<glyph unicode="i" horiz-adv-x="1234" d="M568 0V938H173V1086H765V0H568ZM543 1332V1579H790V1332H543Z"  />
<glyph unicode="j" horiz-adv-x="1234" d="M148 -367V-202Q302 -272 453 -272Q579 -272 625 -209T672 27V938H228V1086H869V67Q869 -186 770 -302T453 -419Q311 -419 148 -367ZM647 1332V1579H894V1332H647Z"  />
<glyph unicode="k" horiz-adv-x="1234" d="M213 0V1579H410V568L866 1086H1079L650 597L1188 0H922L410 568V0H213Z"  />
<glyph unicode="l" horiz-adv-x="1234" d="M592 0V1431H173V1579H790V0H592Z"  />
<glyph unicode="m" horiz-adv-x="1234" d="M93 0V1086H266V882Q393 1110 508 1110Q655 1110 697 882H704Q808 1110 948 1110Q1050 1110 1096 1036T1142 795V0H969V787Q969 876 956 908T907 940Q813 940 704 701V0H531V751Q531 863 518 900T466 938Q424 938 367 870T266 699V0H93Z"  />
<glyph unicode="n" horiz-adv-x="1234" d="M182 0V1086H379V882Q515 1110 749 1110Q1058 1110 1058 743V0H861V689Q861 816 822 869T689 923Q541 923 379 710V0H182Z"  />
<glyph unicode="o" horiz-adv-x="1234" d="M617 -25Q378 -25 242 126T105 543Q105 807 242 958T617 1110Q856 1110 992 959T1129 543Q1129 278 993 127T617 -25ZM617 123Q759 123 839 234T919 543Q919 740 839 851T617 962Q475 962 395 851T315 543Q315 345 395 234T617 123Z"  />
<glyph unicode="p" horiz-adv-x="1234" d="M179 -395V1086H376V882Q519 1110 731 1110Q916 1110 1022 968T1129 579Q1129 309 1003 142T673 -25Q498 -25 376 123V-395H179ZM376 271Q513 123 646 123Q776 123 847 237T919 558Q919 942 690 942Q523 942 376 734V271Z"  />
<glyph unicode="q" horiz-adv-x="1234" d="M1061 1086V-395H864V204Q720 -25 508 -25Q324 -25 218 118T111 507Q111 777 237 943T567 1110Q742 1110 864 962H870L901 1086H1061ZM864 814Q726 962 594 962Q464 962 393 848T321 527Q321 144 550 144Q717 144 864 352V814Z"  />
<glyph unicode="r" horiz-adv-x="1234" d="M308 0V1086H505V882Q655 1110 908 1110Q997 1110 1110 1085V777H962V928Q918 938 882 938Q769 938 684 886T505 707V0H308Z"  />
<glyph unicode="s" horiz-adv-x="1234" d="M187 44V222Q416 123 583 123Q703 123 781 171T860 294Q860 389 673 449L462 518Q215 598 215 800Q215 948 326 1029T642 1110Q795 1110 997 1063V903Q802 962 641 962Q533 962 469 923T404 818Q404 737 551 686L800 599Q936 551 995 485T1055 312Q1055 158 928 67T587 -25Q400 -25 187 44Z"  />
<glyph unicode="t" horiz-adv-x="1234" d="M1102 1Q954 -25 816 -25Q575 -25 488 61T401 389V913H130V1061H401V1295H599V1061H1080V913H599V357Q599 264 610 229T660 168Q728 123 858 123Q981 123 1102 151V1Z"  />
<glyph unicode="u" horiz-adv-x="1234" d="M1052 1086V0H855V204Q719 -25 484 -25Q176 -25 176 343V1086H373V397Q373 269 412 216T545 162Q693 162 855 376V1086H1052Z"  />
<glyph unicode="v" horiz-adv-x="1234" d="M512 0L62 1086H264L625 216L997 1086H1172L710 0H512Z"  />
<glyph unicode="w" horiz-adv-x="1234" d="M210 0L12 1086H194L338 236H340L533 987H724L907 207H910L1070 1086H1221L1004 0H810L619 812H617L406 0H210Z"  />
<glyph unicode="x" horiz-adv-x="1234" d="M93 0L497 549L95 1086H342L642 685L917 1086H1112L743 550L1154 0H908L597 415L292 0H93Z"  />
<glyph unicode="y" horiz-adv-x="1234" d="M142 -395V-247H222Q334 -247 385 -211T492 -56L541 48L85 1086H289L644 273L1002 1086H1179L632 -139Q568 -282 479 -338T226 -395H142Z"  />
<glyph unicode="z" horiz-adv-x="1234" d="M136 0V148L847 938H161V1086H1080V938L368 148H1098V0H136Z"  />
<glyph unicode="{" horiz-adv-x="1234" d="M1024 1579V1431H945Q796 1431 735 1395T674 1268Q674 1235 684 1176L707 1037Q719 967 719 921Q719 706 521 642Q718 577 718 359Q718 314 707 246L684 108Q674 48 674 15Q674 -75 735 -111T945 -148H1024V-296H915Q711 -296 603 -222T494 -8Q494 52 508 127L542 305Q549 345 549 384Q549 568 325 568H234V716H325Q549 716 549 899Q549 938 542 978L508 1156Q494 1231 494 1291Q494 1579 915 1579H1024Z"  />
<glyph unicode="|" horiz-adv-x="1234" d="M543 -296V1579H691V-296H543Z"  />
<glyph unicode="}" horiz-adv-x="1234" d="M210 -296V-148H288Q438 -148 499 -112T560 15Q560 48 550 108L527 246Q515 316 515 362Q515 577 712 642Q515 706 515 922Q515 967 527 1037L550 1176Q560 1235 560 1268Q560 1358 499 1394T288 1431H210V1579H318Q523 1579 631 1505T739 1291Q739 1231 725 1156L692 978Q684 938 684 899Q684 716 909 716H1000V568H909Q684 568 684 384Q684 345 692 305L725 127Q739 53 739 -8Q739 -296 318 -296H210Z"  />
<glyph unicode="~" horiz-adv-x="1234" d="M86 382Q86 529 161 620T358 712Q452 712 568 647L715 565Q827 501 888 501Q1003 501 1011 679H1147Q1147 532 1072 441T875 349Q781 349 665 414L518 496Q406 560 345 560Q230 560 222 382H86Z"  />
<glyph unicode="&#xA0;" horiz-adv-x="1234" />
<glyph unicode="&#xA4;" horiz-adv-x="1234" d="M385 423L200 236H200L111 326L298 511Q232 620 232 742Q232 864 298 973L111 1159L200 1248L385 1061Q507 1139 617 1139Q728 1139 849 1061L1035 1248L1124 1159L936 973Q1002 864 1002 742Q1002 620 936 511L1124 326L1035 236H1035L849 423Q728 345 617 345Q507 345 385 423ZM617 493Q715 493 785 566T855 742Q855 845 785 918T617 991Q520 991 450 918T380 742Q380 640 450 567T617 493Z"  />
<glyph unicode="&#xA6;" horiz-adv-x="1234" d="M543 -296V444H691V-296H543ZM543 839V1579H691V839H543Z"  />
<glyph unicode="&#xA7;" horiz-adv-x="1234" d="M217 -255V-74Q449 -185 612 -185Q712 -185 779 -134T847 -8Q847 61 795 115T614 234L497 293Q232 427 232 616Q232 689 260 748T374 918Q232 1026 232 1166Q232 1320 357 1418T680 1517Q823 1517 973 1476V1309Q814 1369 670 1369Q554 1369 482 1321T409 1195Q409 1141 442 1105T569 1022L699 957Q1007 804 1007 606Q1007 460 860 299Q1027 177 1027 16Q1027 -132 905 -229T597 -327Q435 -327 217 -255ZM767 361Q839 473 839 545Q839 618 793 670T632 782L557 820L511 842Q501 847 478 859Q409 759 409 676Q409 605 451 555T599 449L677 408L727 383Q739 377 767 361Z"  />
<glyph unicode="&#xA8;" horiz-adv-x="1234" d="M284 1443V1616H457V1443H284ZM777 1443V1616H950V1443H777Z"  />
<glyph unicode="&#xA9;" horiz-adv-x="1234" d="M617 -37Q62 -37 62 739Q62 1517 617 1517Q890 1517 1031 1324T1172 756Q1172 355 1035 159T617 -37ZM617 74Q1049 74 1049 739Q1049 1406 617 1406Q185 1406 185 739Q185 74 617 74ZM890 360Q767 300 655 300Q484 300 381 421T278 742Q278 950 381 1067T665 1184Q769 1184 889 1144V1000Q781 1064 662 1064Q550 1064 489 982T427 751Q427 603 497 518T689 432Q772 432 890 490V360Z"  />
<glyph unicode="&#xAB;" horiz-adv-x="1234" d="M560 993L656 911L341 537L654 166L563 86L117 537L560 993ZM998 993L1094 911L779 537L1092 166L1001 86L555 537L998 993Z"  />
<glyph unicode="&#xAC;" horiz-adv-x="1234" d="M86 642V790H1147V296H999V642H86Z"  />
<glyph unicode="&#xAD;" horiz-adv-x="1234" d="M210 543V691H1024V543H210Z"  />
<glyph unicode="&#xAE;" horiz-adv-x="1234" d="M617 629Q433 629 303 759T173 1073Q173 1258 303 1387T617 1517Q801 1517 931 1388T1061 1073Q1061 889 931 759T617 629ZM617 728Q759 728 861 829T963 1073Q963 1215 861 1317T617 1419Q475 1419 374 1317T272 1073Q272 931 373 830T617 728ZM444 814V1345H591Q790 1345 790 1202Q790 1102 689 1049L813 814H702L588 1029H543V814H444ZM543 1104H577Q687 1104 687 1190Q687 1268 588 1268H543V1104Z"  />
<glyph unicode="&#xB0;" horiz-adv-x="1234" d="M614 1073Q521 1073 457 1138T392 1296Q392 1389 456 1453T614 1517Q707 1517 771 1453T836 1296Q836 1203 772 1138T614 1073ZM614 1172Q664 1172 700 1209T737 1295Q737 1345 701 1382T614 1419Q565 1419 528 1382T491 1295Q491 1246 528 1209T614 1172Z"  />
<glyph unicode="&#xB1;" horiz-adv-x="1234" d="M86 0V148H1147V0H86ZM542 296V605H86V753H542V1061H691V753H1147V605H691V296H542Z"  />
<glyph unicode="&#xB4;" horiz-adv-x="1234" d="M370 1394L592 1616H863L530 1394H370Z"  />
<glyph unicode="&#xB5;" horiz-adv-x="1234" d="M182 -419V1086H379V533Q379 401 397 340T469 231Q540 166 632 166Q758 166 867 380V1086H1064V335Q1064 118 1124 0H908Q887 58 871 173Q870 183 867 203Q816 77 761 26T622 -25Q548 -25 495 6T379 119V105V-419H182Z"  />
<glyph unicode="&#xB6;" horiz-adv-x="1234" d="M507 -296V740Q125 826 125 1154Q125 1313 210 1397Q293 1480 532 1480H1001V-296H878V1357H631V-296H507Z"  />
<glyph unicode="&#xB7;" horiz-adv-x="1234" d="M493 419V666H740V419H493Z"  />
<glyph unicode="&#xBB;" horiz-adv-x="1234" d="M236 86L140 168L455 543L142 914L233 993L679 543L236 86ZM674 86L578 168L893 543L580 914L671 993L1117 543L674 86Z"  />
<glyph unicode="&#x127;" horiz-adv-x="1234" d="M182 1258H34V1382H182V1579H379V1382H676V1258H379V1086V882Q515 1110 749 1110Q1058 1110 1058 743V0H861V689Q861 816 822 869T689 923Q541 923 379 710V0H182V1258Z"  />
<glyph unicode="&#x131;" horiz-adv-x="1234" d="M568 0V938H173V1086H765V0H568Z"  />
<glyph unicode="&#x192;" horiz-adv-x="396" d="M33 423H139L164 596Q172 654 201 685Q228 714 271 723T375 724V648Q314 653 288 640T255 584L232 423H350V353H222L168 -32Q159 -95 128 -126Q105 -149 70 -155T-15 -155V-81Q22 -84 45 -75T74 -25L129 353H33V423Z"  />
<glyph unicode="&#x2D8;" horiz-adv-x="1234" d="M284 1616H407Q467 1518 617 1518Q767 1518 827 1616H950Q877 1394 617 1394Q357 1394 284 1616Z"  />
<glyph unicode="&#x393;" horiz-adv-x="1234" d="M247 0V1283H1160V1135H444V0H247Z"  />
<glyph unicode="&#x3A0;" horiz-adv-x="1234" d="M148 0V1283H1086V0H888V1135H345V0H148Z"  />
<glyph unicode="&#x3A6;" horiz-adv-x="1234" d="M519 0V200Q294 200 158 320T22 642Q22 842 157 962T519 1083V1283H716V1083Q942 1083 1077 963T1213 641Q1213 441 1078 321T716 200V0H519ZM519 349V935Q220 935 220 642Q220 349 519 349ZM716 349Q1016 349 1016 642Q1016 935 716 935V349Z"  />
<glyph unicode="&#x3BC;" horiz-adv-x="1234" d="M182 -419V1086H379V533Q379 401 397 340T469 231Q540 166 632 166Q758 166 867 380V1086H1064V335Q1064 118 1124 0H908Q887 58 871 173Q870 183 867 203Q816 77 761 26T622 -25Q548 -25 495 6T379 119V105V-419H182Z"  />
<glyph unicode="&#x401;" horiz-adv-x="1234" d="M216 0V1283H1083V1135H413V746H981V598H413V148H1129V0H216ZM339 1443V1616H512V1443H339ZM832 1443V1616H1005V1443H832Z"  />
<glyph unicode="&#x402;" horiz-adv-x="1234" d="M531 713Q668 846 839 846Q1000 846 1098 733T1197 433Q1197 235 1090 112T812 -12Q753 -12 703 0V144Q733 136 777 136Q988 136 988 410Q988 667 790 667Q648 667 531 536V0H333V1135H12V1283H864V1135H531V713Z"  />
<glyph unicode="&#x403;" horiz-adv-x="1234" d="M247 0V1283H1160V1135H444V0H247ZM537 1394L759 1616H1030L697 1394H537Z"  />
<glyph unicode="&#x404;" horiz-adv-x="1234" d="M1148 26Q973 -31 790 -31Q453 -31 279 145T105 662Q105 973 280 1143T777 1314Q955 1314 1129 1256V1094Q934 1166 796 1166Q598 1166 470 1054T323 749H888V601H323Q323 387 454 255T798 123Q975 123 1148 208V26Z"  />
<glyph unicode="&#x405;" horiz-adv-x="1234" d="M1010 1253V1082Q793 1166 624 1166Q357 1166 357 986Q357 913 407 869T592 777L718 733L838 692Q1117 594 1117 360Q1117 182 975 76T593 -31Q427 -31 164 40V235Q426 117 599 117Q745 117 832 174T919 329Q919 403 868 446T655 548L523 596Q326 669 250 746T173 951Q173 1124 290 1219T621 1314Q794 1314 1010 1253Z"  />
<glyph unicode="&#x406;" horiz-adv-x="1234" d="M173 0V148H518V1135H173V1283H1061V1135H716V148H1061V0H173Z"  />
<glyph unicode="&#x407;" horiz-adv-x="1234" d="M173 0V148H518V1135H173V1283H1061V1135H716V148H1061V0H173ZM284 1443V1616H457V1443H284ZM777 1443V1616H950V1443H777Z"  />
<glyph unicode="&#x408;" horiz-adv-x="1234" d="M197 17V184L263 162Q400 117 480 117Q621 117 677 190T734 448V1135H290V1283H931V553Q931 358 908 263T820 96Q706 -31 494 -31Q379 -31 197 17Z"  />
<glyph unicode="&#x409;" horiz-adv-x="1234" d="M0 0V148H22Q112 148 140 193T168 386L169 537V776V1283H762V765H776Q1209 765 1209 407Q1209 219 1089 110T762 0H577V1135H354V877Q354 421 343 288T286 95Q214 0 0 0ZM762 148H773Q1029 148 1029 380Q1029 617 775 617H762V148Z"  />
<glyph unicode="&#x40A;" horiz-adv-x="1234" d="M749 1283V765H764Q1197 765 1197 407Q1197 219 1077 110T749 0H552V617H309V0H111V1283H309V765H552V1283H749ZM749 148H761Q1016 148 1016 380Q1016 617 762 617H749V148Z"  />
<glyph unicode="&#x40B;" horiz-adv-x="1234" d="M506 0H308V1135H6V1283H808V1135H506V708Q706 851 872 851Q1172 851 1172 508V0H974V455Q974 575 935 626T803 677Q672 677 506 537V0Z"  />
<glyph unicode="&#x40C;" horiz-adv-x="1234" d="M402 586V0H205V1283H402V734Q510 734 553 758T661 880L706 947L763 1042Q858 1199 915 1241T1089 1283H1112V1135Q1049 1135 1016 1110T934 1003Q908 958 897 940L866 891L828 828Q758 717 643 676Q735 649 784 608T892 468L950 370L1013 266L1069 170L1148 40Q1155 28 1172 0H949Q935 21 928 31L857 150L770 293Q663 467 628 508T523 586H402ZM468 1394L690 1616H961L628 1394H468Z"  />
<glyph unicode="&#x40E;" horiz-adv-x="1234" d="M492 371L37 1283H272L622 580L1044 1283H1234L626 257Q527 90 437 45T114 0H100V148H116Q270 148 336 178T455 305L492 371ZM322 1616H445Q505 1518 655 1518Q805 1518 865 1616H988Q915 1394 655 1394Q395 1394 322 1616Z"  />
<glyph unicode="&#x40F;" horiz-adv-x="1234" d="M123 0V1283H321V148H913V1283H1110V0H715V-296H518V0H123Z"  />
<glyph unicode="&#x410;" horiz-adv-x="1234" d="M12 0L518 1283H715L1221 0H1012L891 321H305L182 0H12ZM364 469H832L597 1082L364 469Z"  />
<glyph unicode="&#x411;" horiz-adv-x="1234" d="M210 0V1283H1043V1135H407V746H539Q839 746 954 681Q1117 588 1117 391Q1117 182 924 69Q806 0 485 0H210ZM407 148H500Q718 148 812 201T907 375Q907 496 820 547T529 598H407V148Z"  />
<glyph unicode="&#x412;" horiz-adv-x="1234" d="M185 0V1283H599Q1049 1283 1049 985Q1049 871 972 789T755 671Q1112 598 1112 332Q1112 180 1007 94Q939 37 852 19T572 0H185ZM382 728H451Q849 728 849 950Q849 1059 772 1097T474 1135H382V728ZM382 148H560Q755 148 828 188T902 335Q902 459 782 532T454 605H382V148Z"  />
<glyph unicode="&#x413;" horiz-adv-x="1234" d="M247 0V1283H1160V1135H444V0H247Z"  />
<glyph unicode="&#x414;" horiz-adv-x="1234" d="M28 -296V148H127Q243 334 290 558T337 1146V1283H1031V148H1179V-296H981V0H226V-296H28ZM833 148V1135H534V1104Q534 490 347 148H833Z"  />
<glyph unicode="&#x415;" horiz-adv-x="1234" d="M216 0V1283H1083V1135H413V746H981V598H413V148H1129V0H216Z"  />
<glyph unicode="&#x416;" horiz-adv-x="1234" d="M531 0V598H505Q430 469 349 294L269 123L221 25Q217 17 210 0H6Q59 100 91 167L136 261L180 353L236 470Q306 613 433 676Q359 698 325 735T233 891L195 970L163 1035Q130 1103 110 1119T36 1135H19V1283H34H46Q164 1283 217 1240T348 1035L381 965L412 901Q489 741 531 731V1283H703V731Q744 741 822 901L853 965L886 1035Q964 1196 1016 1239T1188 1283H1197H1215V1135H1198Q1145 1135 1125 1119T1071 1035L1038 970L1000 891Q944 773 910 736T801 676Q928 613 998 470L1054 353L1098 261L1143 167Q1175 101 1228 0H1024Q1017 17 1013 25L965 123L885 294Q804 467 729 598H703V0H531Z"  />
<glyph unicode="&#x417;" horiz-adv-x="1234" d="M96 17V194Q300 117 469 117Q647 117 745 179T843 356Q843 608 386 608H312V756H385Q611 756 708 805T806 967Q806 1166 490 1166Q281 1166 121 1098V1256Q309 1314 534 1314Q1009 1314 1009 994Q1009 791 766 699Q903 665 978 576T1053 358Q1053 174 906 72T494 -31Q282 -31 96 17Z"  />
<glyph unicode="&#x418;" horiz-adv-x="1234" d="M1086 0H913V926L324 0H148V1283H321V358L908 1283H1086V0Z"  />
<glyph unicode="&#x419;" horiz-adv-x="1234" d="M1086 0H913V926L324 0H148V1283H321V358L908 1283H1086V0ZM298 1616H421Q481 1518 631 1518Q781 1518 841 1616H964Q891 1394 631 1394Q371 1394 298 1616Z"  />
<glyph unicode="&#x41A;" horiz-adv-x="1234" d="M402 586V0H205V1283H402V734Q510 734 553 758T661 880L706 947L763 1042Q858 1199 915 1241T1089 1283H1112V1135Q1049 1135 1016 1110T934 1003Q908 958 897 940L866 891L828 828Q758 717 643 676Q735 649 784 608T892 468L950 370L1013 266L1069 170L1148 40Q1155 28 1172 0H949Q935 21 928 31L857 150L770 293Q663 467 628 508T523 586H402Z"  />
<glyph unicode="&#x41B;" horiz-adv-x="1234" d="M25 0V148Q194 148 259 237T325 557L331 751L333 911V1283H1095V0H897V1135H530V1013Q530 637 508 444T432 169Q320 0 25 0Z"  />
<glyph unicode="&#x41C;" horiz-adv-x="1234" d="M94 0V1283H331L613 493H615L892 1283H1139V0H978V1101H976L687 271H521L233 1078H231V0H94Z"  />
<glyph unicode="&#x41D;" horiz-adv-x="1234" d="M148 0V1283H345V722H888V1283H1086V0H888V574H345V0H148Z"  />
<glyph unicode="&#x41E;" horiz-adv-x="1234" d="M62 642Q62 949 212 1131T617 1314Q871 1314 1021 1132T1172 642Q1172 334 1022 152T617 -31Q363 -31 213 151T62 642ZM272 642Q272 390 361 254T617 117Q783 117 873 253T963 642Q963 893 873 1029T617 1166Q451 1166 362 1030T272 642Z"  />
<glyph unicode="&#x41F;" horiz-adv-x="1234" d="M148 0V1283H1086V0H888V1135H345V0H148Z"  />
<glyph unicode="&#x420;" horiz-adv-x="1234" d="M228 0V1283H645Q868 1283 963 1243Q1157 1159 1157 919Q1157 717 1001 602T569 487H425V0H228ZM425 635H548Q948 635 948 915Q948 1033 873 1084T621 1135H425V635Z"  />
<glyph unicode="&#x421;" horiz-adv-x="1234" d="M1155 40Q957 -31 782 -31Q476 -31 289 152T102 635Q102 938 288 1126T774 1314Q944 1314 1138 1256V1075Q940 1166 768 1166Q569 1166 441 1020T312 648Q312 420 457 275T830 130Q968 130 1155 202V40Z"  />
<glyph unicode="&#x422;" horiz-adv-x="1234" d="M518 0V1135H25V1283H1209V1135H716V0H518Z"  />
<glyph unicode="&#x423;" horiz-adv-x="1234" d="M492 371L37 1283H272L622 580L1044 1283H1234L626 257Q527 90 437 45T114 0H100V148H116Q270 148 336 178T455 305L492 371Z"  />
<glyph unicode="&#x424;" horiz-adv-x="1234" d="M519 0V200Q294 200 158 320T22 642Q22 842 157 962T519 1083V1283H716V1083Q942 1083 1077 963T1213 641Q1213 441 1078 321T716 200V0H519ZM519 349V935Q220 935 220 642Q220 349 519 349ZM716 349Q1016 349 1016 642Q1016 935 716 935V349Z"  />
<glyph unicode="&#x425;" horiz-adv-x="1234" d="M11 0L514 653L54 1283H287L634 808L1001 1283H1193L727 681L1219 0H985L606 522L203 0H11Z"  />
<glyph unicode="&#x426;" horiz-adv-x="1234" d="M120 0V1283H318V148H854V1283H1052V148H1200V-296H1002V0H120Z"  />
<glyph unicode="&#x427;" horiz-adv-x="1234" d="M835 0V551Q635 408 458 408Q308 408 227 504T145 776V1283H342V829Q342 689 379 638T520 587Q609 587 673 617T835 735V1283H1033V0H835Z"  />
<glyph unicode="&#x428;" horiz-adv-x="1234" d="M1160 0H74V1283H253V148H530V1283H703V148H981V1283H1160V0Z"  />
<glyph unicode="&#x429;" horiz-adv-x="1234" d="M74 0V1283H253V148H530V1283H703V148H981V1283H1160V148H1234V-296H1036V0H74Z"  />
<glyph unicode="&#x42A;" horiz-adv-x="1234" d="M352 0V1135H19V1283H550V746H620Q920 746 1036 682Q1197 594 1197 398Q1197 170 1012 65Q898 0 565 0H352ZM550 148H581Q820 148 904 195T988 379Q988 503 906 550T609 598H550V148Z"  />
<glyph unicode="&#x42B;" horiz-adv-x="1234" d="M296 148H354Q609 148 609 386Q609 623 355 623H296V148ZM1135 0H938V1283H1135V0ZM99 1283H296V771H357L393 772Q573 772 681 674T790 414Q790 217 660 109T296 0H99V1283Z"  />
<glyph unicode="&#x42C;" horiz-adv-x="1234" d="M228 0V1283H425V746H594Q886 746 1007 680Q1172 589 1172 390Q1172 186 982 75Q854 0 540 0H228ZM425 148H555Q962 148 962 381Q962 498 875 548T584 598H425V148Z"  />
<glyph unicode="&#x42D;" horiz-adv-x="1234" d="M86 26V208Q258 123 424 123Q718 123 839 346Q911 478 911 601H345V749H911Q891 941 763 1053T438 1166Q300 1166 105 1094V1256Q278 1314 455 1314Q779 1314 954 1147T1129 670Q1129 337 948 153T440 -31Q261 -31 86 26Z"  />
<glyph unicode="&#x42E;" horiz-adv-x="1234" d="M376 605H228V0H43V1283H228V753H379Q422 1314 802 1314Q1008 1314 1117 1141T1227 642Q1227 316 1118 143T802 -31Q406 -31 376 605ZM802 117Q1018 117 1018 642Q1018 914 966 1040T802 1166Q690 1166 638 1040T586 642Q586 369 638 243T802 117Z"  />
<glyph unicode="&#x42F;" horiz-adv-x="1234" d="M863 531H722Q674 482 601 396L496 271Q439 203 387 136L312 36Q307 29 284 0H12Q72 66 112 114L178 195L219 244L249 282L306 353Q404 476 438 508T534 569Q372 592 281 682T190 914Q190 1101 334 1200Q453 1283 730 1283H1060V0H863V531ZM863 1135H732Q549 1135 475 1085T400 911Q400 679 785 679H863V1135Z"  />
<glyph unicode="&#x430;" horiz-adv-x="1234" d="M835 131Q656 -19 478 -19Q329 -19 233 66T136 281Q136 450 286 553T682 656H804V749Q804 864 753 913T584 962Q413 962 230 866V1035Q440 1110 624 1110Q831 1110 916 1028T1002 745V290Q1002 192 1023 157T1102 121Q1121 121 1164 131L1182 13Q1083 -19 1032 -19Q886 -19 835 131ZM804 259V533H745Q340 533 340 314Q340 235 392 187T530 139Q659 139 804 259Z"  />
<glyph unicode="&#x431;" horiz-adv-x="1234" d="M320 847Q472 1086 716 1086Q903 1086 1016 940T1129 552Q1129 293 990 134T622 -25Q123 -25 123 705Q123 1164 261 1371T706 1579H748Q904 1579 1012 1616V1457Q878 1431 771 1431H747Q529 1431 437 1305T320 847ZM322 710L321 676Q321 123 633 123Q765 123 842 236T920 540Q920 907 663 907Q482 907 322 710Z"  />
<glyph unicode="&#x432;" horiz-adv-x="1234" d="M187 0V1086H664Q859 1086 946 1028T1033 839Q1033 644 803 567Q1077 494 1077 279Q1077 0 703 0H187ZM385 148H564Q745 148 807 177T870 290Q870 496 576 496H385V148ZM385 626H582Q692 626 761 674T831 800Q831 877 779 907T593 938H385V626Z"  />
<glyph unicode="&#x433;" horiz-adv-x="1234" d="M247 0V1086H1135V938H444V0H247Z"  />
<glyph unicode="&#x434;" horiz-adv-x="1234" d="M52 -247V148H153Q270 323 318 516T366 1000V1086H983V148H1181V-247H996V0H237V-247H52ZM786 148V938H548V914Q548 494 364 148H786Z"  />
<glyph unicode="&#x435;" horiz-adv-x="1234" d="M1098 43Q893 -25 722 -25Q442 -25 292 119T141 531Q141 784 285 947T653 1110Q878 1110 984 975T1091 555V492H351Q373 123 749 123Q908 123 1098 199V43ZM357 640H881V668Q881 962 636 962Q518 962 445 877T357 640Z"  />
<glyph unicode="&#x436;" horiz-adv-x="1234" d="M525 1086H710V598Q744 598 761 615T801 688L828 749L852 807L874 862Q930 996 978 1041T1118 1086H1129V938H1119Q1064 938 1016 819Q1005 791 996 770L977 725Q942 640 917 610T830 550Q927 523 989 405L1029 329L1081 230Q1104 188 1127 144Q1172 58 1208 0H1005L991 27Q951 104 945 115L884 237Q877 251 817 361Q784 422 750 487H710V0H525V487H484Q453 426 418 361Q360 256 351 237L289 115Q284 104 243 27L229 0H26Q61 55 108 144L153 230L205 329L245 405Q308 523 404 550Q343 580 318 610T257 725L239 770Q231 788 219 819Q171 938 115 938H105V1086H116Q207 1086 256 1041T361 862L383 807L406 749L433 688Q457 632 474 615T525 598V1086Z"  />
<glyph unicode="&#x437;" horiz-adv-x="1234" d="M188 30V196Q352 123 581 123Q842 123 842 328Q842 435 765 479T505 524H404V672H505Q642 672 688 681T769 724Q811 765 811 827Q811 902 753 932T549 962Q380 962 225 900V1054Q403 1110 593 1110Q808 1110 908 1053T1009 873Q1009 703 828 606Q1046 521 1046 314Q1046 153 920 64T568 -25Q336 -25 188 30Z"  />
<glyph unicode="&#x438;" horiz-adv-x="1234" d="M163 0V1086H354V282L885 1086H1070V0H885V793L362 0H163Z"  />
<glyph unicode="&#x439;" horiz-adv-x="1234" d="M163 0V1086H354V282L885 1086H1070V0H885V793L362 0H163ZM284 1579H407Q439 1431 617 1431Q795 1431 827 1579H950Q935 1444 844 1364T617 1283Q481 1283 391 1363T284 1579Z"  />
<glyph unicode="&#x43A;" horiz-adv-x="1234" d="M442 463V0H245V1086H442V611L485 612Q580 612 618 642T716 799L738 845Q810 996 867 1041T1047 1086V938Q988 938 959 911T882 783L863 743L838 688Q794 597 695 546Q777 518 819 473T933 290L973 214Q1043 81 1098 0H880Q852 56 817 119L763 214Q659 400 590 463H442Z"  />
<glyph unicode="&#x43B;" horiz-adv-x="1234" d="M43 0V148Q123 153 164 192T236 329Q308 570 308 979V1086H1036V0H839V938H499V919Q499 461 391 229Q284 0 43 0Z"  />
<glyph unicode="&#x43C;" horiz-adv-x="1234" d="M120 0V1086H337L619 237L884 1086H1113V0H928V865L679 74H508L274 779V0H120Z"  />
<glyph unicode="&#x43D;" horiz-adv-x="1234" d="M179 0V1086H376V645H857V1086H1055V0H857V497H376V0H179Z"  />
<glyph unicode="&#x43E;" horiz-adv-x="1234" d="M617 -25Q378 -25 242 126T105 543Q105 807 242 958T617 1110Q856 1110 992 959T1129 543Q1129 278 993 127T617 -25ZM617 123Q759 123 839 234T919 543Q919 740 839 851T617 962Q475 962 395 851T315 543Q315 345 395 234T617 123Z"  />
<glyph unicode="&#x43F;" horiz-adv-x="1234" d="M197 0V1086H1036V0H838V938H394V0H197Z"  />
<glyph unicode="&#x440;" horiz-adv-x="1234" d="M179 -395V1086H376V882Q519 1110 731 1110Q916 1110 1022 968T1129 579Q1129 309 1003 142T673 -25Q498 -25 376 123V-395H179ZM376 271Q513 123 646 123Q776 123 847 237T919 558Q919 942 690 942Q523 942 376 734V271Z"  />
<glyph unicode="&#x441;" horiz-adv-x="1234" d="M1103 35Q928 -25 754 -25Q470 -25 317 123T163 543Q163 810 314 960T736 1110Q908 1110 1083 1058V893Q890 962 754 962Q576 962 475 850T373 543Q373 346 481 235T781 123Q924 123 1103 190V35Z"  />
<glyph unicode="&#x442;" horiz-adv-x="1234" d="M519 0V938H74V1086H1160V938H716V0H519Z"  />
<glyph unicode="&#x443;" horiz-adv-x="1234" d="M142 -395V-247H222Q334 -247 385 -211T492 -56L541 48L85 1086H289L644 273L1002 1086H1179L632 -139Q568 -282 479 -338T226 -395H142Z"  />
<glyph unicode="&#x444;" horiz-adv-x="1234" d="M531 -395V62Q460 -25 354 -25Q217 -25 140 126T62 543Q62 809 139 959T354 1110Q452 1110 511 1046L531 1024V1480H704V1024L723 1046Q782 1110 880 1110Q1017 1110 1094 960T1172 543Q1172 277 1095 126T881 -25Q773 -25 704 62V-395H531ZM531 208V885Q462 968 394 968Q235 968 235 550Q235 333 275 230T403 127Q467 127 531 208ZM704 208Q767 127 831 127Q918 127 959 229T1000 549Q1000 764 961 866T840 968Q773 968 704 885V208Z"  />
<glyph unicode="&#x445;" horiz-adv-x="1234" d="M93 0L497 549L95 1086H342L642 685L917 1086H1112L743 550L1154 0H908L597 415L292 0H93Z"  />
<glyph unicode="&#x446;" horiz-adv-x="1234" d="M160 0V1086H357V148H789V1086H987V148H1184V-247H999V0H160Z"  />
<glyph unicode="&#x447;" horiz-adv-x="1234" d="M795 0V456Q621 376 501 376Q314 376 211 484Q159 539 141 611T123 840V1086H320V802Q320 694 329 658T373 587Q436 524 543 524Q645 524 795 611V1086H993V0H795Z"  />
<glyph unicode="&#x448;" horiz-adv-x="1234" d="M1160 0H74V1086H253V148H530V1086H703V148H981V1086H1160V0Z"  />
<glyph unicode="&#x449;" horiz-adv-x="1234" d="M74 0V1086H253V148H530V1086H703V148H981V1086H1160V148H1234V-296H1049V0H74Z"  />
<glyph unicode="&#x44A;" horiz-adv-x="1234" d="M339 0V938H43V1086H536V648H643Q890 648 1003 572T1117 332Q1117 162 994 81T614 0H339ZM536 148H627Q907 148 907 328Q907 421 847 457T631 493H536V148Z"  />
<glyph unicode="&#x44B;" horiz-adv-x="1234" d="M99 0V1086H284V672H354Q803 672 803 345Q803 148 648 60Q544 0 288 0H99ZM284 148H346Q593 148 593 340Q593 435 535 476T346 518H284V148ZM938 0V1086H1136V0H938Z"  />
<glyph unicode="&#x44C;" horiz-adv-x="1234" d="M259 0V1086H456V672H600Q863 672 974 597T1086 343Q1086 163 964 82T571 0H259ZM456 148H584Q746 148 811 189T877 330Q877 428 818 478Q787 504 747 511T587 518H456V148Z"  />
<glyph unicode="&#x44D;" horiz-adv-x="1234" d="M148 34V211Q306 135 516 135Q680 135 763 215T874 481H407V629H874Q874 962 540 962Q368 962 185 884V1047Q353 1110 548 1110Q838 1110 962 951Q1080 801 1080 566Q1080 289 931 132T520 -25Q327 -25 148 34Z"  />
<glyph unicode="&#x44E;" horiz-adv-x="1234" d="M434 469H259V0H74V1086H259V617H435Q451 860 550 985T827 1110Q1016 1110 1118 963T1221 543Q1221 271 1119 123T827 -25Q471 -25 434 469ZM629 543Q629 123 824 123Q1024 123 1024 543Q1024 962 829 962Q629 962 629 543Z"  />
<glyph unicode="&#x44F;" horiz-adv-x="1234" d="M824 438H613Q542 369 467 238L404 128Q362 55 333 0H111Q169 86 238 212L264 261L309 343Q367 445 448 492Q200 560 200 779Q200 964 367 1045Q453 1086 680 1086H1021V0H824V438ZM824 938H645Q410 938 410 767Q410 586 656 586H824V938Z"  />
<glyph unicode="&#x451;" horiz-adv-x="1234" d="M1098 43Q893 -25 722 -25Q442 -25 292 119T141 531Q141 784 285 947T653 1110Q878 1110 984 975T1091 555V492H351Q373 123 749 123Q908 123 1098 199V43ZM357 640H881V668Q881 962 636 962Q518 962 445 877T357 640ZM411 1283V1456H584V1283H411ZM806 1283V1456H979V1283H806Z"  />
<glyph unicode="&#x452;" horiz-adv-x="1234" d="M380 882Q516 1110 750 1110Q1058 1110 1058 743V0V-92Q1058 -237 968 -328T733 -419Q665 -419 589 -399V-244Q651 -271 714 -271Q794 -271 827 -222T861 -54V689Q861 817 822 870T689 923Q541 923 380 710V0H182V1258H34V1382H182V1579H380V1382H700V1258H380V1086V882Z"  />
<glyph unicode="&#x453;" horiz-adv-x="1234" d="M247 0V1086H1135V938H444V0H247ZM554 1283L795 1604H1023L702 1283H554Z"  />
<glyph unicode="&#x454;" horiz-adv-x="1234" d="M1086 195V42Q903 -25 713 -25Q442 -25 298 122T154 547Q154 824 298 967T723 1110Q899 1110 1074 1068V907Q867 962 722 962Q388 962 362 642H827V493H362Q387 123 738 123Q921 123 1086 195Z"  />
<glyph unicode="&#x455;" horiz-adv-x="1234" d="M187 44V222Q416 123 583 123Q703 123 781 171T860 294Q860 389 673 449L462 518Q215 598 215 800Q215 948 326 1029T642 1110Q795 1110 997 1063V903Q802 962 641 962Q533 962 469 923T404 818Q404 737 551 686L800 599Q936 551 995 485T1055 312Q1055 158 928 67T587 -25Q400 -25 187 44Z"  />
<glyph unicode="&#x456;" horiz-adv-x="1234" d="M568 0V938H173V1086H765V0H568ZM543 1332V1579H790V1332H543Z"  />
<glyph unicode="&#x457;" horiz-adv-x="1234" d="M568 0V938H173V1086H765V0H568ZM370 1283V1456H543V1283H370ZM765 1283V1456H938V1283H765Z"  />
<glyph unicode="&#x458;" horiz-adv-x="1234" d="M148 -367V-202Q302 -272 453 -272Q579 -272 625 -209T672 27V938H228V1086H869V67Q869 -186 770 -302T453 -419Q311 -419 148 -367ZM647 1332V1579H894V1332H647Z"  />
<glyph unicode="&#x459;" horiz-adv-x="1234" d="M12 0V173Q113 185 158 296T204 646L211 851L216 979V1086H765V672H822Q1209 672 1209 356Q1209 160 1110 80T768 0H580V938H401V919Q401 900 397 821L383 526Q371 258 284 134T12 0ZM765 148H814Q1012 148 1012 332Q1012 518 814 518H765V148Z"  />
<glyph unicode="&#x45A;" horiz-adv-x="1234" d="M580 497H277V0H92V1086H277V645H580V1086H765V672H823Q1209 672 1209 357Q1209 160 1110 80T769 0H580V497ZM765 148H815Q1012 148 1012 333Q1012 518 815 518H765V148Z"  />
<glyph unicode="&#x45B;" horiz-adv-x="1234" d="M182 1258H34V1382H182V1579H379V1382H676V1258H379V1086V882Q515 1110 749 1110Q1058 1110 1058 743V0H861V689Q861 816 822 869T689 923Q541 923 379 710V0H182V1258Z"  />
<glyph unicode="&#x45C;" horiz-adv-x="1234" d="M442 463V0H245V1086H442V611L485 612Q580 612 618 642T716 799L738 845Q810 996 867 1041T1047 1086V938Q988 938 959 911T882 783L863 743L838 688Q794 597 695 546Q777 518 819 473T933 290L973 214Q1043 81 1098 0H880Q852 56 817 119L763 214Q659 400 590 463H442ZM491 1283L732 1604H960L639 1283H491Z"  />
<glyph unicode="&#x45E;" horiz-adv-x="1234" d="M142 -395V-247H222Q334 -247 385 -211T492 -56L541 48L85 1086H289L644 273L1002 1086H1179L632 -139Q568 -282 479 -338T226 -395H142ZM311 1579H434Q466 1431 644 1431Q822 1431 854 1579H977Q962 1444 871 1364T644 1283Q508 1283 418 1363T311 1579Z"  />
<glyph unicode="&#x45F;" horiz-adv-x="1234" d="M197 0V1086H395V148H839V1086H1036V0H709V-247H524V0H197Z"  />
<glyph unicode="&#x490;" horiz-adv-x="1234" d="M247 0V1283H963V1579H1160V1283V1135H444V0H247Z"  />
<glyph unicode="&#x491;" horiz-adv-x="1234" d="M247 0V1086H950V1332H1135V1086V938H444V0H247Z"  />
<glyph unicode="&#x2013;" horiz-adv-x="1234" d="M136 543V666H1098V543H136Z"  />
<glyph unicode="&#x2014;" horiz-adv-x="1234" d="M62 543V666H1172V543H62Z"  />
<glyph unicode="&#x2018;" horiz-adv-x="1234" d="M765 1579V1480Q654 1467 642 1258H765V962H469V1142Q469 1563 765 1579Z"  />
<glyph unicode="&#x2019;" horiz-adv-x="1234" d="M469 962V1061Q580 1075 592 1283H469V1579H765V1400Q765 979 469 962Z"  />
<glyph unicode="&#x201A;" horiz-adv-x="1234" d="M469 -321V-222Q580 -209 592 0H469V296H765V117Q765 -305 469 -321Z"  />
<glyph unicode="&#x201C;" horiz-adv-x="1234" d="M247 1036V1258Q247 1579 494 1579V1480Q389 1480 389 1335V1283H494V1036H247ZM740 1036V1258Q740 1579 987 1579V1480Q882 1480 882 1335V1283H987V1036H740Z"  />
<glyph unicode="&#x201D;" horiz-adv-x="1234" d="M494 1579V1357Q494 1036 247 1036V1135Q352 1135 352 1280V1332H247V1579H494ZM987 1579V1357Q987 1036 740 1036V1135Q845 1135 845 1280V1332H740V1579H987Z"  />
<glyph unicode="&#x201E;" horiz-adv-x="1234" d="M494 247V25Q494 -296 247 -296V-197Q352 -197 352 -52V0H247V247H494ZM987 247V25Q987 -296 740 -296V-197Q845 -197 845 -52V0H740V247H987Z"  />
<glyph unicode="&#x2020;" horiz-adv-x="1234" d="M518 -296L542 839L197 814V962L542 938L518 1480H715L690 938L1036 962V814L690 839L715 -296H518Z"  />
<glyph unicode="&#x2021;" horiz-adv-x="1234" d="M518 -296L542 247L197 222V370L542 345V839L197 814V962L542 938L518 1480H715L690 938L1036 962V814L690 839V345L1036 370V222L690 247L715 -296H518Z"  />
<glyph unicode="&#x2022;" horiz-adv-x="1234" d="M617 290Q494 290 408 376T321 586Q321 709 407 795T617 882Q740 882 826 796T913 586Q913 463 827 377T617 290Z"  />
<glyph unicode="&#x2026;" horiz-adv-x="1234" d="M107 0V197H304V0H107ZM518 0V197H716V0H518ZM929 0V197H1127V0H929Z"  />
<glyph unicode="&#x2030;" horiz-adv-x="1234" d="M0 -37L670 1517H804L134 -37H0ZM207 839Q16 839 16 1160Q16 1480 207 1480Q399 1480 399 1160Q399 839 207 839ZM207 938Q275 938 275 1160Q275 1382 207 1382Q140 1382 140 1160Q140 938 207 938ZM598 0Q407 0 407 321Q407 642 598 642Q790 642 790 321Q790 0 598 0ZM598 99Q666 99 666 321Q666 543 597 543Q530 543 530 321Q530 99 598 99ZM1042 0Q851 0 851 321Q851 642 1042 642Q1234 642 1234 321Q1234 0 1042 0ZM1042 99Q1110 99 1110 321Q1110 543 1042 543Q975 543 975 321Q975 99 1042 99Z"  />
<glyph unicode="&#x2039;" horiz-adv-x="1234" d="M790 993L886 911L571 537L884 166L793 86L347 537L790 993Z"  />
<glyph unicode="&#x203A;" horiz-adv-x="1234" d="M443 86L347 168L662 543L349 914L440 993L886 543L443 86Z"  />
<glyph unicode="&#x20AC;" horiz-adv-x="1235" d="M375 543L377 537Q418 353 541 238T819 123Q949 123 1112 244L1130 76Q955 -37 774 -37Q696 -37 624 -19T488 34T370 119T274 233T196 392T160 537V543H18L49 690H145V791H18L49 938H162L164 944Q211 1205 375 1361T764 1518Q926 1518 1096 1413V1233Q926 1368 768 1368Q711 1368 658 1349T559 1293T476 1204T405 1069T371 944V938H940L909 791H354V690H891L858 543H375Z"  />
<glyph unicode="&#x2116;" horiz-adv-x="1234" d="M759 691Q759 1086 981 1086Q1203 1086 1203 691Q1203 296 981 296Q759 296 759 691ZM894 690Q894 534 914 471T982 407Q1067 407 1067 691Q1067 848 1048 911T980 975Q894 975 894 690ZM746 0V148H1203V0H746ZM648 0H500L186 1120V0H62V1480H210L524 364V1480H648V0Z"  />
<glyph unicode="&#x2122;" horiz-adv-x="1234" d="M255 740V1357H96V1480H732L859 1087L982 1480H1138V740H990V1219L879 864H784L683 1176V740H572V1357H403V740H255Z"  />


</font>
</defs>
</svg>
