<?xml  version="1.0" encoding="UTF-8"?>
<!DOCTYPE svg PUBLIC "-//W3C//DTD SVG 1.0//EN" "http://www.w3.org/TR/2001/REC-SVG-20010904/DTD/svg10.dtd" >
<svg xmlns="http://www.w3.org/2000/svg" >
<metadata>
<version>1.0</version>
<id><![CDATA[Chips W26 Normal]]></id>
<vendor>Monotype Imaging Inc.</vendor>
<credits>
<name>Fonts.com WebFonts</name>
<URL>http://webfonts.fonts.com</URL>
<role>Home of the Web fonts</role>
</credits>
<license>
<URL>http://webfonts.fonts.com/Legal</URL>
</license>
<copyright><![CDATA[MasterfontÇ Studio Rosenberg Version 5.0]]></copyright>
<trademark></trademark>
<licensee>
<name></name>
</licensee>
</metadata>
<defs >
<font horiz-adv-x="471" id="b21a0ec6-8efb-40de-99f1-20a11d482401">
<font-face font-family="" panose-1="0 0 0 0 0 0 0 0 0 0" ascent="800" descent="-308" units-per-em="1000" alphabetic="0">
</font-face>
<missing-glyph horiz-adv-x="500" d="M63 0V800H438V0H63ZM125 63H375V738H125V63Z"  />

<glyph unicode="&#xA;" />
<glyph unicode="&#xD;" />
<glyph unicode=" " horiz-adv-x="300" />
<glyph unicode="!" horiz-adv-x="253" d="M227 595Q220 561 218 501Q215 486 211 457L207 416Q198 326 200 289L203 227Q204 214 181 204T158 181Q149 174 132 174Q119 174 111 175Q79 179 76 179L53 176Q47 186 48 205L50 251V265L51 301Q52 324 49 366Q46 412 46 431V454Q46 472 55 511L53 569Q52 599 61 619Q96 638 105 660Q131 654 157 654Q183 654 207 660Q227 657 226 633L225 609Q225 600 227 595ZM197 50Q197 33 189 22Q180 22 157 12Q143 6 137 6L126 9L114 8Q99 7 50 16Q43 28 43 39Q43 49 47 68T52 97L51 105Q54 116 70 131T91 154L103 155Q111 156 132 152T162 147Q177 147 187 152L195 148Q189 139 189 129Q189 121 193 105T197 82V50ZM195 641L185 640Q176 640 158 642T131 644Q97 644 83 619Q89 617 101 617Q108 617 122 619T144 621Q158 621 170 615Q183 624 195 641ZM213 622V639Q178 622 179 576L180 538Q180 538 180 518Q177 510 176 507V502Q176 498 174 490T172 477Q172 450 169 397T166 317Q166 304 163 279T160 241V229Q160 224 164 211L187 225Q185 253 185 265V279Q185 336 199 450T213 622ZM166 589L154 591V595Q155 602 156 603H75Q64 584 65 566L67 517Q68 498 61 483L59 335Q59 317 61 252L63 190L140 186Q147 194 146 206L144 231Q143 244 148 266L152 346Q152 394 155 473Q157 520 166 589ZM168 137L156 134Q149 134 136 138T116 142Q101 142 73 117L87 118L126 116Q153 115 168 137ZM184 82Q186 109 174 123Q157 112 154 76Q152 32 148 24Q157 26 167 29T181 38L184 82ZM140 95Q130 101 108 101H90Q74 101 67 103L63 99Q63 93 57 39V28L114 20H121Q135 31 137 55Q138 68 140 95Z"  />
<glyph unicode="&quot;" horiz-adv-x="500" d="M487 618Q476 586 456 550L420 484Q388 435 367 435Q343 413 304 413Q301 420 278 438T254 467Q254 477 265 488Q292 552 320 616L387 663Q409 648 450 633Q480 622 487 618ZM257 618Q246 586 226 550L190 484Q158 435 137 435Q113 413 74 413Q71 420 45 439Q23 456 23 467Q23 477 34 488Q61 552 89 616L156 663Q169 654 197 643L257 618ZM458 612Q449 619 433 626Q390 645 387 647L353 626L429 598Q445 598 458 612ZM466 600L442 588Q423 547 394 509L338 435Q362 448 387 462Q405 481 421 512L466 600ZM416 585L342 612L334 606L279 490Q270 479 270 471Q270 462 287 450Q310 434 312 431Q322 441 351 480Q365 499 375 510Q396 538 401 546Q414 567 416 585ZM227 612Q218 619 202 626Q159 645 156 647L123 626Q132 624 160 610Q185 598 198 598Q214 598 227 612ZM235 600L211 588Q192 547 163 509L107 435Q131 448 156 462Q174 481 190 512L235 600ZM186 585L111 612L103 606L48 490Q39 479 39 471Q39 462 56 450Q79 434 81 431Q91 441 120 480Q134 499 144 510Q167 541 170 545Q184 566 186 585Z"  />
<glyph unicode="#" horiz-adv-x="620" d="M605 459Q592 434 583 402Q578 385 568 339Q552 336 523 331Q514 320 501 320Q494 320 482 324T463 328Q448 328 448 299Q455 297 511 291Q516 289 522 289L539 290Q551 291 554 280Q552 280 551 275L554 270Q549 242 531 200Q505 141 503 134Q498 138 490 138Q486 138 469 132Q461 129 455 129L450 130Q448 117 434 117L411 120H409Q400 126 395 126H391Q391 110 383 88Q365 39 365 25L359 18Q341 15 323 12Q301 7 296 -8Q284 -2 261 -2H243Q223 -2 214 2L216 31Q208 29 184 12Q164 -2 153 -2Q123 8 101 8Q84 8 64 2L58 12Q67 29 77 76Q85 118 99 138L101 152L47 155L31 154L21 157Q21 170 32 193T43 230L42 238Q44 240 52 258Q58 272 65 272H70Q70 272 105 298Q134 319 149 319L162 317Q164 325 168 335Q146 341 103 341Q103 354 124 394Q135 415 135 428V435L129 442L131 447Q153 459 176 472Q202 490 202 514V520Q206 524 208 544Q210 561 221 567L220 574Q252 596 294 610Q297 620 306 620Q310 620 319 618T332 615T365 611Q386 609 393 598Q388 586 373 573L375 571Q407 585 440 600Q443 587 465 587H469L485 585Q492 582 504 580L521 577Q521 556 514 538Q492 481 491 478Q513 475 554 467H565Q593 467 605 459ZM493 567Q483 573 465 574Q441 576 436 577L424 580Q414 580 400 571Q381 559 377 557H442Q449 547 457 547Q463 547 475 556T493 567ZM505 555L458 528Q453 505 432 455L434 451Q468 457 481 493Q502 551 505 555ZM566 453H562Q550 453 527 456T491 459H477L430 431L455 434Q465 434 484 432T514 430Q550 430 566 453ZM582 441L536 419Q522 380 509 341Q516 345 533 346T554 352L582 441ZM369 594L365 593Q357 593 340 598T317 604Q306 604 300 598Q286 595 268 588Q258 584 237 573H275Q278 568 284 568L293 569Q305 565 310 551Q312 553 344 568Q365 578 369 594ZM357 549L342 555Q341 554 321 543Q307 535 307 527L310 518Q305 507 303 485T296 451Q298 444 308 444H312Q320 444 324 441Q336 459 344 493Q351 521 357 549ZM519 274Q483 280 463 280Q423 280 395 262Q437 254 461 254Q499 254 519 274ZM442 327L418 325Q405 324 398 306Q393 292 387 278L390 277Q404 277 426 289Q438 308 442 327ZM540 268Q503 261 485 217Q457 148 454 144Q462 144 495 155Q523 194 540 268ZM183 461L182 465L164 453Q169 448 172 448Q183 448 183 461ZM511 411Q502 415 490 415Q481 415 464 412T437 409Q416 409 403 423Q421 480 440 537L422 539L389 536L371 539Q363 504 360 489Q353 460 342 439Q342 423 331 423Q327 423 315 426T296 430Q286 430 281 425Q278 426 277 431L273 441Q286 470 292 524Q285 535 285 541Q289 547 292 547Q274 555 235 555Q228 549 223 534Q217 514 214 510L215 500Q215 492 205 470Q200 459 200 452Q200 444 204 439Q201 429 193 429Q189 429 180 431T165 433Q156 433 151 429Q148 408 138 383Q128 364 125 356L133 355L145 356Q169 358 186 344L182 316L184 307Q173 302 168 281T155 254H140L105 253L68 256Q59 240 53 217L40 171Q55 167 75 167H87Q93 167 107 169Q121 168 121 161Q121 159 117 149T112 133L113 128Q98 111 91 77Q81 31 78 22L135 19L147 20Q155 38 164 62Q170 78 190 138Q194 158 211 158Q218 158 231 155T251 151L263 154Q267 153 272 146Q267 133 267 128L261 120L231 13L288 14Q305 74 332 144Q355 143 379 141Q408 139 424 132Q437 139 437 147L436 152Q444 163 475 238L430 236Q417 243 400 242L375 241L365 242Q359 246 359 250Q366 267 366 273T373 291T379 309L395 342L407 341L458 344L487 341Q511 384 511 411ZM375 126H344Q326 87 310 24Q330 29 351 35Q353 42 365 80Q375 108 375 126ZM157 301V305L145 307Q132 307 108 286Q94 274 84 272H102L126 271Q157 270 157 301ZM249 138L241 140L224 138Q216 140 214 142Q211 141 209 134T202 126Q200 116 183 67T166 16Q193 31 220 47Q239 94 249 138ZM334 356Q324 341 315 317Q292 256 290 252Q284 245 277 245Q274 245 264 249T247 254H241L235 260L257 337Q255 337 253 343L255 350Q262 354 270 354H281Q290 355 292 356Q300 360 313 360Q326 360 334 356ZM312 344L305 345Q300 345 289 342T273 339Q268 315 255 268L277 264Q280 269 312 344Z"  />
<glyph unicode="$" horiz-adv-x="500" d="M492 514Q488 507 475 501Q456 492 455 492Q425 473 417 468Q394 451 386 437L360 439Q349 454 323 467L321 431Q327 426 379 404Q400 395 413 382Q418 372 432 352Q453 322 453 301L459 261Q462 240 462 224Q462 167 419 130Q373 90 321 71V63Q321 34 329 20L327 14Q308 14 273 -7T221 -29L205 -27Q200 -27 190 -32T176 -37Q169 -37 165 -29Q175 9 175 25Q175 38 173 44Q143 55 94 77L16 112Q16 124 22 136L34 160Q40 190 71 220Q73 223 126 268Q142 247 177 233Q189 266 189 286Q161 294 116 325Q104 336 85 365T55 406Q37 446 36 449Q27 469 27 496Q27 516 35 534Q80 597 94 613Q130 655 171 670Q171 688 181 719V727Q193 731 209 743L238 766Q256 760 289 761L321 762L333 748V708Q333 686 339 673Q367 673 402 648Q429 627 457 605Q465 593 478 549Q484 529 492 514ZM307 746H296Q268 746 242 752L195 717Q205 722 219 722Q227 722 246 720L265 718Q295 718 307 746ZM325 658Q319 670 319 705Q319 724 317 733Q312 731 297 716Q290 709 284 707L283 695Q282 683 287 648L284 626Q296 631 325 658ZM473 520L447 591Q436 596 399 629Q369 656 345 656L305 618L370 612Q400 584 413 566Q432 540 439 508Q449 509 459 510T473 520ZM175 629Q175 633 173 641T171 654Q147 640 141 635Q126 624 116 610Q128 614 133 615Q153 621 163 621L173 620Q174 622 175 629ZM309 475L270 496L266 425Q268 423 270 417Q270 414 267 407T264 397L305 421V426L309 475ZM446 238Q446 269 435 317Q407 396 317 412Q302 403 280 382H314Q322 379 325 378Q371 355 401 314Q435 269 435 221V215L423 160Q446 187 446 238ZM418 511Q418 529 400 553Q387 601 314 601H285Q278 601 266 603L265 618L268 667Q269 686 260 703L237 705Q230 706 212 704T187 701L185 675Q191 675 191 667Q184 656 185 645L187 617Q187 610 185 605H181L162 607Q82 599 53 532Q46 507 46 489Q46 457 65 431Q80 387 140 327Q151 327 167 315T193 303Q193 294 194 289Q199 265 199 263Q199 254 197 250L194 241Q194 237 196 230T199 221Q199 216 193 211L196 182L193 164H189Q185 164 182 159T173 152Q165 168 125 178Q81 189 69 201Q56 174 29 122L30 118Q72 105 118 77Q136 77 187 53V44L185 -19Q222 -10 234 -10Q237 -3 244 61Q262 77 293 77Q297 78 304 85T316 92L323 89Q351 104 380 120Q398 133 402 150Q415 205 415 222V227L416 230Q416 234 412 238T407 245L411 250Q397 316 325 359Q308 364 291 363L250 360Q244 366 244 380V402Q250 423 250 451V468Q250 500 256 518Q280 516 311 497Q337 480 362 463L417 506L418 511ZM181 198Q181 215 158 227Q125 244 122 248Q109 237 97 227Q90 220 87 209Q131 187 179 187L181 198ZM309 28Q309 43 301 63Q298 58 291 58L284 59Q264 59 258 36Q258 34 254 -4L309 28ZM191 532Q189 524 189 515V475Q189 440 181 421Q179 420 170 419Q159 419 152 431L130 469Q130 494 144 516Q148 517 160 527T179 537Q184 537 191 532ZM348 221Q342 200 340 193Q334 177 319 171Q312 171 298 164T277 156L268 158L265 171L268 193V269Q268 277 272 297L280 301Q335 256 348 221ZM173 520Q148 508 148 486L147 480Q147 458 171 439L173 520ZM319 226L317 244Q313 249 303 265Q295 278 284 280L282 173L313 187Q319 208 319 226Z"  />
<glyph unicode="%" horiz-adv-x="585" d="M213 604Q213 592 208 565T204 525L205 509Q188 507 146 462V452L18 446L14 456Q19 511 34 566L33 570Q33 572 40 573T48 578L95 621L151 611Q165 611 179 617Q192 617 213 609V604ZM570 230Q570 218 565 191T561 151L562 135Q545 133 503 88V78L375 72L371 82Q376 137 391 192L390 197Q390 199 396 200T404 204L452 247L508 237Q522 237 536 243Q549 243 570 235V230ZM462 643Q462 635 451 628L414 539Q365 420 295 172Q274 98 251 33Q239 31 215 16T175 0H168Q160 4 146 4H131Q112 4 105 12Q130 69 178 183Q185 200 205 275Q220 330 239 419Q245 427 248 439Q257 468 260 474Q288 552 292 566Q308 619 308 663Q308 663 313 668Q318 666 323 663Q333 672 363 674T402 681L408 679Q411 679 418 682T428 685L434 683Q434 676 452 658Q462 648 462 643ZM446 646L424 667Q377 657 337 657Q360 649 384 642Q391 632 401 632Q408 632 422 639T442 646H446ZM183 602Q170 598 152 598Q122 598 99 613L59 574H85Q97 578 110 578L140 577Q172 576 183 602ZM196 579L195 590L191 586Q152 579 153 540L154 514Q155 499 150 485L187 517Q191 548 196 579ZM540 228Q527 224 509 224Q479 224 456 239L416 200H442Q454 204 467 204L497 203Q529 202 540 228ZM553 205L552 216L548 212Q509 205 510 166L511 140Q512 125 507 111L544 143Q548 174 553 205ZM436 626Q417 622 399 619L392 620Q365 540 339 461Q317 436 308 377Q297 308 288 289Q267 246 245 161Q221 69 205 31L239 43Q251 68 286 193Q304 267 349 415Q381 505 436 626ZM140 550L128 564L46 556Q30 498 30 463L46 460Q86 460 130 466L140 550ZM379 626Q359 630 351 633Q336 638 325 646Q316 601 297 543L260 431Q242 399 231 327Q222 265 200 209L127 20L163 14Q173 14 182 18L218 118Q236 169 243 215Q298 338 298 406Q326 460 352 541L379 626ZM497 176L485 190L403 182Q387 124 387 89L403 86Q443 86 487 92L497 176Z"  />
<glyph unicode="&amp;" horiz-adv-x="640" d="M620 84Q555 -12 483 -12Q417 -12 355 65Q276 -7 163 -7Q99 -7 62 25T25 120V129Q25 207 115 270Q139 285 187 317Q159 390 159 440Q159 479 175 503Q219 569 295 569Q342 569 371 539T400 462V452Q400 372 278 317L381 148L445 245Q460 275 460 294Q460 335 407 342V355H581V342Q568 338 543 328Q524 320 510 297L406 125Q406 99 453 75Q496 53 525 53Q573 53 600 97L620 84ZM357 477Q357 535 301 535Q268 535 247 512T226 456V452Q226 419 237 391Q252 361 258 348Q306 377 319 389Q351 419 355 458L357 477ZM330 90L200 284Q111 228 111 150Q111 130 116 116Q123 81 151 60T216 39Q274 39 330 90Z"  />
<glyph unicode="&apos;" horiz-adv-x="303" d="M271 624Q262 597 239 556Q209 502 204 490Q172 441 151 441Q125 419 88 419Q85 426 62 444T38 473Q38 483 49 494Q76 558 104 622L171 669Q193 654 234 639Q264 628 271 624ZM241 618Q230 625 216 632Q173 651 171 653L137 632Q144 630 174 616Q198 604 212 604Q228 604 241 618ZM249 606L226 594Q207 553 178 515Q156 486 121 441Q139 452 171 468Q193 492 214 536Q241 593 249 606ZM200 590L125 618L117 612L62 496Q53 487 53 477Q53 468 71 456Q94 440 96 437Q104 445 134 485Q146 501 159 515Q180 543 185 551Q198 572 200 590Z"  />
<glyph unicode="(" horiz-adv-x="344" d="M329 664Q302 654 301 654Q284 646 280 635Q266 630 242 613Q225 490 221 436Q220 418 220 380T217 322L209 214L211 201L208 169L209 160L210 143Q211 131 208 107T204 73L205 62L160 15Q172 8 192 -31Q202 -50 215 -58Q218 -54 225 -48Q240 -36 240 -27L238 -19Q224 2 217 15Q205 36 205 49Q221 34 235 11Q243 -2 258 -32Q245 -41 245 -54L246 -62L233 -60Q226 -62 225 -64Q220 -69 207 -76Q189 -85 126 -125Q110 -135 101 -147Q92 -146 88 -135L79 -113V-107Q79 -82 53 -52Q21 -15 16 -3L15 11Q14 29 27 71T40 133V141Q56 181 56 230Q56 252 52 296T48 362Q48 406 59 441Q68 469 69 522Q70 579 75 603Q71 607 71 614L74 633L73 639L187 733Q187 738 197 741Q211 758 248 773Q254 757 288 726Q306 710 313 696Q314 693 319 691T325 685L324 680Q329 672 329 664ZM311 672H307L303 674L305 676Q298 693 240 751Q239 750 222 745Q209 740 209 731V727Q243 691 278 655L311 672ZM225 601Q214 596 204 592Q179 587 179 562Q179 556 181 544T183 526L152 31Q174 49 180 57Q193 74 193 93V101Q193 152 205 321Q211 406 211 454Q216 479 218 528T225 601ZM258 647L199 716Q173 711 134 674Q106 647 95 639Q86 625 86 617Q87 609 89 607V599Q89 585 83 553T78 509L79 495V491Q79 482 74 466T69 441L71 430Q59 399 59 352Q59 330 63 287T67 222Q67 172 51 137L52 124Q53 110 45 84Q28 29 29 18L30 5L81 -66Q83 -71 89 -98Q93 -119 103 -129Q112 -111 127 -111Q136 -100 168 -80Q181 -72 193 -62Q181 -40 174 -29Q156 -1 132 21Q142 69 147 116Q149 136 156 212L153 286Q152 316 156 382Q165 529 165 541L164 582Q211 614 258 647Z"  />
<glyph unicode=")" horiz-adv-x="338" d="M301 476Q301 385 283 230Q269 106 267 83Q260 69 261 51L264 3L263 -12Q257 -17 231 -40Q198 -69 185 -94L176 -93Q166 -93 152 -105T128 -118L118 -116L37 -65Q37 -58 49 -46T63 -27L110 48Q117 83 116 129L114 227Q113 282 124 323Q118 350 118 398Q118 420 120 473L122 532Q126 548 131 564L130 571Q123 585 85 618Q68 633 59 648H47Q47 659 71 676Q118 710 135 739Q152 739 168 748L200 766Q224 723 285 646Q301 563 301 476ZM286 492L283 585Q283 618 262 649Q198 743 197 746H191Q157 746 157 729Q157 703 212 660Q240 634 240 579V549Q240 527 242 516Q255 490 255 454Q255 427 237 346Q226 297 227 278L228 258Q223 225 223 200Q223 181 225 143T228 85Q228 43 218 10Q222 -3 222 -8Q213 -11 190 -42Q176 -72 169 -78H179Q188 -65 203 -48Q216 -34 250 0Q248 16 248 35Q248 76 259 124Q259 182 267 259Q287 455 286 492ZM239 454Q239 498 226 540L227 550Q227 566 218 603L222 607Q222 630 201 653Q145 714 143 721Q121 700 106 687Q98 680 67 654L94 628Q107 621 149 575Q131 527 133 473L135 422Q133 411 133 400V383L135 308Q136 279 128 248V149Q128 133 129 100T130 51L59 -59Q81 -74 128 -102Q137 -96 153 -70Q160 -57 169 -51Q169 -37 190 -14Q201 -2 201 5L200 12Q212 58 212 118Q212 158 208 187V196Q208 231 229 357Q239 417 239 454Z"  />
<glyph unicode="*" horiz-adv-x="429" d="M420 481Q420 474 409 464T397 448V444L316 389Q335 351 355 313Q364 308 364 297L362 291Q335 281 284 222L281 221Q269 221 255 254Q243 279 240 298L236 303L206 258Q178 250 170 246Q151 237 139 223L126 228Q120 230 106 247T78 264L72 274Q72 286 105 319L138 363Q90 398 42 434L27 454L52 477Q66 493 66 509Q82 515 106 533L113 535L120 533Q126 521 174 485L177 539L176 560L170 569Q188 583 219 616Q251 598 289 598H293L296 589Q296 584 293 574T290 559V542Q290 513 299 500Q299 500 324 514Q339 523 344 533L353 537Q362 537 364 527Q370 519 383 509Q415 486 420 481ZM397 472Q394 483 379 495Q373 500 353 512L344 497Q348 494 360 485L388 463L397 472ZM272 585L224 595Q202 595 192 571H207Q225 571 255 566Q262 572 265 574Q272 580 272 585ZM332 508L305 485L281 457Q319 487 332 508ZM280 507Q280 514 278 533L276 553V565L264 556Q264 541 262 512T260 468V452Q261 455 270 464T279 480L276 488Q280 496 280 507ZM344 302Q344 307 337 316Q333 329 327 341Q326 344 304 380Q298 378 294 370T286 359Q296 320 325 286Q344 288 344 302ZM173 456L172 464L173 467Q167 470 141 494Q119 514 108 514Q97 514 88 503L93 499Q120 472 170 447L173 456ZM374 447Q359 471 335 482Q330 475 328 472Q314 468 299 455Q297 453 273 432Q257 411 248 411Q234 418 234 423Q234 430 238 444T243 464L247 496Q249 516 249 538L246 551Q226 556 211 556Q199 556 191 551L188 476L185 465L182 437L185 410L180 405Q169 405 169 422L170 425L76 491Q67 477 63 471Q55 459 46 454Q48 443 55 437L127 387Q133 387 137 379T148 369T155 359Q122 322 90 285V276Q96 275 116 256Q125 247 133 247Q162 279 213 348L219 350Q225 350 232 343T243 335Q246 328 257 287Q264 258 278 243Q288 251 298 258Q310 269 310 278Q298 289 290 308Q278 336 275 341Q267 352 260 363V366Q264 375 278 386Q301 401 325 416Q343 424 374 447ZM228 318Q228 318 216 324L161 255Q177 259 183 265Q199 267 209 285L228 318Z"  />
<glyph unicode="+" horiz-adv-x="580" d="M556 271L554 218L555 201Q534 180 502 162Q437 178 361 178L360 150Q367 129 367 106Q367 47 321 -25L303 -21Q280 -32 254 -30L203 -27L200 -12Q200 -3 203 8Q211 37 211 42L210 57Q209 69 220 130Q225 158 225 175Q207 175 168 167T108 159L93 160Q86 160 60 153Q46 149 39 149L24 152L21 203Q20 228 30 252L26 270Q99 316 157 316Q180 316 201 309L229 311Q229 386 213 451Q231 483 252 504L269 503L322 505Q357 506 376 491L377 441Q377 420 375 380T372 321Q400 321 417 322L492 326L542 325Q557 306 556 271ZM532 309L470 312Q453 313 428 311L357 306Q357 322 361 363Q364 399 363 419L360 481Q325 461 327 398L329 326Q330 304 325 278Q327 276 340 276H354L371 275L382 276L410 279L467 276Q512 274 532 309ZM543 234Q543 242 541 263L539 284L540 293L510 274Q504 220 504 221Q504 199 512 185Q543 195 543 234ZM344 489H335L285 492Q247 494 236 461Q251 453 272 453Q285 453 299 455L325 459L344 489ZM494 183Q487 194 488 210L490 248Q491 258 488 266H418Q390 261 367 262L317 264L314 263L315 266L313 316Q313 316 313 347Q316 361 317 367V437Q309 440 299 439L261 437Q245 436 234 443V436Q234 418 242 410L239 348L241 255L210 254Q197 254 127 256L47 258Q36 232 36 185L38 179L37 171Q40 164 43 164Q65 169 102 173L238 187L234 154Q222 55 215 -8Q216 -14 222 -14L230 -13L236 -15Q287 -15 309 -4V13Q309 39 307 98L305 159V190L399 188L461 191Q469 183 487 183H494ZM227 295H211Q184 303 157 303Q99 303 55 274Q75 274 113 271T172 267Q203 267 226 271L227 295ZM354 115Q354 145 346 172Q343 174 335 174L321 172L323 148Q319 126 319 97Q319 81 322 51T325 4Q354 50 354 115Z"  />
<glyph unicode="&#x2c;" horiz-adv-x="277" d="M264 72Q255 45 232 4Q202 -50 197 -62Q165 -111 144 -111Q118 -133 81 -133Q78 -126 55 -108T31 -79Q31 -69 42 -58Q69 6 97 70L164 117Q186 102 227 87Q257 76 264 72ZM234 66Q222 75 200 85Q171 98 164 102L130 80Q137 78 167 64Q191 52 205 52Q221 52 234 66ZM242 54L219 43Q200 0 157 -55Q143 -74 114 -111L146 -92Q157 -85 164 -83Q186 -59 207 -15Q235 44 242 54ZM193 39L118 66L110 60L55 -56Q46 -65 46 -75Q46 -84 64 -96Q87 -112 89 -115Q97 -107 112 -87Q142 -47 152 -36Q173 -8 178 0Q191 21 193 39Z"  />
<glyph unicode="-" horiz-adv-x="1000" />
<glyph unicode="." horiz-adv-x="261" d="M231 87L229 56Q219 34 191 23Q153 8 145 1L136 3Q128 3 102 -9Q89 -15 82 -15Q70 -15 62 5Q41 26 41 59Q41 100 74 121L73 124Q73 125 81 127T89 135Q103 135 132 149T175 163Q194 163 209 145Q234 128 231 87ZM213 64V76Q213 134 178 147L169 149Q162 149 147 140T124 131L143 127Q176 120 181 79Q182 65 186 37Q204 44 213 64ZM168 52Q163 61 164 69L165 84Q166 97 152 106Q116 115 117 115Q108 115 103 111Q102 113 98 115Q89 111 84 111Q56 97 56 64Q56 38 74 17Q82 2 86 2L91 3Q96 7 136 21Q165 31 168 52Z"  />
<glyph unicode="/" horiz-adv-x="416" d="M384 631Q384 623 373 616Q364 594 335 527Q314 477 300 437Q278 380 254 300Q251 289 215 160Q193 82 172 21Q160 19 136 4T96 -12H89Q81 -8 67 -8H52Q33 -8 26 0Q51 57 99 171Q106 188 126 263Q141 318 160 407Q165 413 169 427Q178 456 182 462Q211 543 214 554Q229 605 229 651Q230 653 235 656Q240 654 245 651Q255 660 285 662T324 669L330 667Q333 667 339 670T349 673L355 671Q355 664 369 651T384 631ZM367 633L345 655Q298 645 259 645Q282 637 306 630Q314 620 323 620Q329 620 338 624Q358 633 363 633H367ZM357 614Q339 610 321 607L314 608Q287 528 261 448Q242 427 234 388Q212 282 209 277Q190 238 175 182Q135 37 127 19L160 31Q172 56 207 181Q225 255 270 403Q302 493 357 614ZM300 614Q274 620 272 620Q261 624 247 633Q237 580 182 419Q162 382 152 315Q143 254 121 197L48 7L84 1Q94 1 103 5L139 105Q157 156 164 202Q219 325 219 393Q246 447 273 529Q279 548 286 570L300 614Z"  />
<glyph unicode="0" horiz-adv-x="515" d="M485 228Q485 179 471 131Q453 70 389 32Q334 1 263 -7Q218 -1 174 4Q120 16 99 52Q88 61 84 92Q79 131 76 137L74 220L76 302Q86 342 96 388Q108 439 127 470Q149 496 185 516Q212 530 253 552Q360 552 404 495Q426 466 429 461Q442 441 444 422Q485 313 485 228ZM468 209Q470 281 450 361Q439 407 433 421Q420 454 399 474Q394 486 349 521L266 537Q240 537 221 519Q225 519 232 516T242 513L247 515Q290 501 311 491Q386 456 412 386Q420 365 438 253Q445 233 445 210Q445 173 426 128Q415 103 393 52Q422 68 441 104Q453 127 467 170L468 209ZM428 198Q428 221 416 294Q410 331 410 350Q380 439 330 466Q319 469 271 490Q232 507 209 507Q176 507 152 483T119 425Q113 397 103 355L89 304L86 206Q84 133 105 64Q136 39 168 15Q224 7 256 7Q284 7 308 13Q360 18 404 115Q428 148 428 198ZM341 252Q341 235 331 202T320 155L314 147L318 143Q293 107 250 110L235 111Q234 112 201 129Q180 140 180 158L183 189Q183 202 180 227T176 266Q176 284 193 345Q207 395 239 395Q247 395 264 390T286 385Q311 373 317 333Q324 288 337 275Q341 265 341 252ZM328 252Q328 263 326 269Q310 279 304 326Q298 368 275 373Q255 281 255 257V247L251 207Q251 173 269 157Q282 149 292 149Q301 149 304 159Q304 175 316 205T328 252ZM275 133Q238 144 231 196Q231 260 259 375L256 376L245 374Q239 379 239 383L225 375Q206 349 198 310Q193 286 194 265L197 184L196 161Q199 146 237 127L251 125Q267 125 275 133Z"  />
<glyph unicode="1" horiz-adv-x="356" d="M296 517Q296 458 294 322L292 175L294 40Q255 17 237 -7Q218 2 208 5Q191 11 177 11Q160 11 148 3Q124 3 124 26L125 34Q129 66 129 133V193Q129 277 137 322L135 375Q127 375 110 371T85 367Q70 367 60 377Q73 437 87 497Q101 506 147 554Q203 536 249 536Q268 536 288 540L296 517ZM257 523Q199 523 152 538Q140 531 129 520Q116 504 111 499L124 497Q130 497 143 499T162 501Q175 501 182 495L200 492Q230 492 257 523ZM284 503L278 521Q262 507 247 493Q247 489 251 481Q249 476 247 475Q253 409 253 354V330Q251 316 251 301V283Q251 258 247 245Q241 208 241 143Q241 122 243 73L245 23L260 35Q269 42 276 46L278 54V59Q275 66 274 68Q278 112 278 162L275 182L276 204Q276 215 274 221Q274 268 279 362T284 503ZM240 383Q240 433 233 475H227Q212 475 175 479Q142 483 123 482L103 481Q96 466 90 434T78 387Q85 383 94 383Q103 383 120 388T147 393L152 389L148 341L149 318Q150 304 147 277T144 237L147 206L143 202L144 123Q144 75 139 38L140 33V25Q140 17 148 17Q165 23 178 23Q171 23 227 15L229 46Q224 86 224 119Q224 163 232 251T240 383Z"  />
<glyph unicode="2" horiz-adv-x="486" d="M449 422Q449 320 404 232Q395 220 375 206Q352 189 345 182L428 180L436 173Q431 168 430 157T428 135Q428 120 419 81Q414 59 414 46V37Q406 35 374 11Q359 0 348 0Q338 0 327 7Q280 1 235 1Q209 1 174 4Q91 11 71 11Q62 17 62 36L64 53Q85 229 186 301Q205 309 234 321T270 358Q269 368 268 379T258 395Q250 393 241 377T222 361L211 364Q180 360 175 359Q155 355 144 344Q130 349 110 359Q64 382 52 387Q52 401 66 401Q85 498 180 539L185 538Q191 538 198 542T207 547Q231 554 250 553L311 550L329 551L394 526Q430 508 444 478Q449 445 449 422ZM432 422Q432 462 416 490Q351 538 270 538Q226 538 184 523L231 507H278Q340 507 369 490Q398 461 398 413Q398 395 392 360T386 306L387 300Q387 294 382 283T377 265Q350 239 301 210Q236 172 223 161L213 141Q240 154 290 173L294 168L359 214Q398 242 408 275L432 422ZM237 401L211 411Q181 405 164 369Q167 372 204 378Q233 383 237 401ZM379 442L370 460Q358 483 309 488Q272 490 236 491Q196 494 170 509Q114 494 83 421Q74 407 74 400Q74 389 101 379T134 362Q147 379 161 397T192 425Q198 427 211 427Q241 427 270 407Q286 389 286 361V350Q281 329 261 317Q228 302 196 287Q134 225 134 225Q106 191 97 146Q91 109 75 37Q75 30 79 25Q141 14 214 14Q256 14 321 19L333 17Q348 17 351 48Q354 84 359 90L358 96Q358 101 360 109T363 120Q363 126 359 131Q301 131 241 116L232 117Q226 117 214 114T195 111L182 114Q190 163 235 188Q263 203 296 226Q353 265 357 267Q379 325 379 442ZM418 153Q401 146 398 135L395 136Q388 131 384 131Q377 122 378 107L379 94Q368 52 368 35L369 25Q376 32 398 45L418 153ZM400 163L328 168Q324 163 309 161Q287 157 287 157H283Q271 157 261 149Q249 138 245 137Q254 141 273 141H302Q317 141 326 144T348 147L364 146Q391 144 400 163Z"  />
<glyph unicode="3" horiz-adv-x="472" d="M442 420Q442 385 432 356L433 348Q433 336 418 313T402 279Q402 269 410 260Q430 210 430 172Q430 124 404 88Q358 43 339 29Q297 -2 256 -2L236 -6Q230 -7 217 -7Q186 -7 99 17Q72 34 55 69Q54 71 30 134Q30 155 59 180T91 222Q92 225 99 228L111 226Q116 227 117 228L174 242Q176 241 177 234V229Q180 221 182 220Q198 201 229 163H234Q247 163 252 171Q248 192 244 201Q236 218 221 222L195 226Q195 241 197 272L199 303Q199 321 197 330Q208 346 234 375T270 417Q251 429 239 429Q232 429 225 425Q214 425 193 404Q182 393 176 393Q166 393 158 415Q157 420 155 424Q147 432 144 437Q140 453 138 457Q132 468 122 468Q149 513 197 549L243 566Q270 575 292 575H294Q352 560 368 552Q406 534 422 498Q428 495 430 485T434 472Q442 452 442 420ZM426 418Q426 493 371 535Q367 536 331 549Q304 559 290 558L276 557Q254 553 232 550Q207 544 197 529L195 531L156 494Q173 508 205 514L252 523H259Q274 523 301 511T343 498Q363 483 374 457Q387 427 385 404L384 391Q381 383 374 339Q368 306 351 293Q357 293 367 297T380 302L388 299Q410 319 422 374Q426 395 426 418ZM270 391L248 381Q241 371 235 362L257 372Q268 379 270 391ZM415 170Q415 224 380 285Q373 284 333 267Q338 261 367 218Q382 169 380 123L378 82L394 100Q415 129 415 170ZM369 415Q369 434 361 449Q354 475 324 488Q297 497 270 506H258Q188 506 148 468Q160 432 180 415Q209 435 217 439Q232 446 242 446Q248 446 262 441Q291 430 291 403L288 390Q286 367 259 352Q220 330 215 325Q215 314 213 288L211 260Q211 244 213 236H217Q236 236 250 219Q257 211 268 185V165Q268 120 243 102Q222 94 201 87L187 90Q155 111 126 169L97 163Q90 158 72 153T46 141Q53 59 111 25Q165 13 219 2Q262 10 282 15Q348 31 358 89Q361 108 365 136Q355 213 331 242Q319 253 304 279Q325 293 332 299Q349 313 355 325Q355 341 364 381Q369 403 369 415ZM248 147H234Q217 147 205 164Q169 214 164 216Q143 188 142 179Q146 167 147 164Q151 155 158 153Q165 135 193 108H206Q227 108 238 123Q248 134 248 147ZM150 222Q130 220 97 210Q88 187 69 171Q75 176 103 183Q126 188 130 199Q135 200 141 208Q142 209 150 222Z"  />
<glyph unicode="4" horiz-adv-x="500" d="M475 303Q471 287 470 254Q469 218 466 203Q450 201 433 189Q423 182 405 165L397 166Q376 166 372 139Q370 118 367 96L359 22H354Q346 22 336 16Q313 2 308 2H304Q288 -6 266 -6Q241 -6 198 4L194 16Q208 75 223 135Q223 153 218 167Q202 175 175 175H158Q135 175 119 181H111Q90 181 32 173L25 179Q40 215 43 282Q46 359 52 386Q52 444 57 501Q59 519 64 569Q66 590 82 605Q89 611 143 642Q167 637 206 620Q223 619 253 612Q253 494 243 421L246 411Q246 405 244 395T241 379Q241 371 245 366Q260 386 260 389L259 394L288 420Q306 436 320 441Q327 439 345 439H360Q379 439 387 437H406Q417 437 422 431L415 369Q412 341 412 321Q420 316 443 313T475 303ZM229 602Q214 602 187 615T144 628H139Q128 628 118 618Q102 602 99 600Q129 587 194 571Q197 574 212 583T229 602ZM391 421Q382 426 373 425L346 423Q334 422 326 429Q310 429 277 396L288 390Q300 394 314 394Q334 394 349 388Q367 398 372 402Q384 410 391 421ZM406 411Q389 396 349 374Q344 329 340 285L363 303Q390 312 399 348Q402 380 406 411ZM454 297H449Q436 297 401 313Q381 300 347 270Q363 266 384 266Q433 266 454 297ZM460 279Q445 268 406 248L403 236Q403 231 406 221T409 205L406 193L452 214L460 279ZM237 564Q237 576 235 581L200 559Q200 549 199 543Q195 517 195 513L196 502Q190 474 188 424L182 313L227 344L223 354Q225 358 227 358L226 382Q225 402 230 441T234 501L233 522Q233 529 235 543T237 564ZM231 331L188 297L223 299L231 331ZM391 200Q391 210 389 225L385 246Q360 248 320 258Q320 274 327 321Q331 351 331 359L330 378Q325 380 316 380L284 377L275 378Q259 367 247 307Q247 278 219 278L186 281Q176 281 166 276Q158 280 158 289Q158 293 161 302T164 317L162 325Q170 370 170 440V464Q178 492 178 540V559L141 567Q132 567 122 572Q97 584 94 584Q85 584 80 571Q72 535 69 466L64 386Q56 356 57 321L58 295Q60 255 48 222L44 206Q42 198 42 196Q42 188 48 187Q70 194 102 193L156 191Q163 189 195 187Q221 185 233 175L236 146Q236 126 212 16Q234 8 259 8Q275 8 286 12Q300 108 300 155Q306 177 330 175L368 172L387 175Q391 186 391 200ZM369 155L344 157Q333 158 318 153L316 127L318 102Q314 92 312 72Q307 21 306 16L345 37Q353 101 369 155Z"  />
<glyph unicode="5" horiz-adv-x="500" d="M463 234Q463 213 453 148Q448 115 448 98Q398 19 335 8Q307 5 253 -6Q173 4 112 3L68 2Q46 7 37 45Q49 82 49 157Q60 163 76 180Q97 203 102 206L97 207L78 205Q64 205 60 219Q59 222 58 244T56 280L59 409Q57 419 57 423Q67 429 67 442L65 463L66 470Q54 524 56 554L57 572Q59 576 67 576H72Q79 577 80 578Q104 622 146 622Q159 622 176 619Q221 611 232 611L257 614Q271 619 276 619H284Q297 619 315 615Q359 605 369 605L389 608L399 600Q411 528 411 470Q375 452 367 447Q345 434 328 417L322 423L326 427Q320 437 298 439Q271 441 267 443L246 445Q229 445 226 435L228 370Q249 367 318 365Q374 363 407 352Q463 316 463 234ZM397 478Q397 530 389 576L356 553H352L348 555L349 539Q350 524 346 495T342 453V448L397 478ZM374 590L370 591Q366 591 359 593T349 596L342 594Q320 601 289 600L217 598Q174 597 139 612Q128 607 116 596Q97 578 94 576H111Q135 576 182 578T253 581Q313 581 352 569Q374 584 374 590ZM218 358Q212 376 213 391L216 444L177 456V448Q177 423 180 388L183 352V341Q183 334 181 322L218 358ZM447 242Q448 276 435 301Q409 348 353 348H352Q333 355 313 354L263 352Q248 351 236 354L200 320Q217 322 251 328H275Q331 328 362 315Q403 308 412 255Q415 212 419 169L415 165V146Q415 86 399 59Q424 76 434 109Q436 115 444 171L447 242ZM400 175Q400 228 383 287Q378 293 360 297T336 307Q303 312 269 312Q207 312 167 291Q160 298 159 301Q165 328 165 356Q165 372 162 410Q159 444 160 463L161 492L165 493Q169 493 172 485T177 474Q205 461 217 461L226 462L324 450Q332 519 332 553L326 559Q290 567 234 567Q209 567 151 565L90 563H70L69 549Q68 531 75 493Q83 452 83 435L80 407L72 395Q67 348 67 307Q67 258 74 220Q108 224 159 224H255Q274 215 280 212Q293 203 299 193T305 172Q305 155 287 133Q270 128 255 128Q241 128 214 132T173 136L147 133Q133 141 109 141H85Q70 141 62 143L63 126Q64 109 51 41Q56 20 80 9Q107 14 127 14Q143 14 185 9Q223 5 241 6L279 9Q317 12 337 21Q364 32 379 55Q400 112 400 175ZM285 174L283 189Q264 208 235 208Q226 208 209 206T184 204H177L173 203Q169 203 160 206T146 210Q138 210 137 196L128 197Q117 197 74 161Q83 156 94 157L124 159Q139 160 149 151Q162 156 177 156Q189 156 206 152Q245 143 254 143Q266 143 277 147Q285 161 285 174Z"  />
<glyph unicode="6" horiz-adv-x="500" d="M481 231Q481 177 436 105L353 24Q342 24 330 16L306 1Q286 -5 270 -5Q254 -5 210 4Q182 10 172 9L160 8Q42 59 19 136Q19 183 32 240L71 414Q73 424 83 439Q87 445 101 467Q118 479 159 516Q225 575 265 593Q272 593 285 601T305 610L312 609Q318 605 331 582Q342 563 355 560Q356 555 360 551Q370 541 370 539L367 532L366 529Q366 521 372 518L369 514Q324 480 302 438Q314 432 342 427T383 414Q427 385 454 337T481 237V231ZM349 542Q333 552 304 593L255 573L314 516Q341 524 349 542ZM466 247Q466 261 462 270Q460 295 435 339Q393 412 322 412H316L310 418L302 421Q297 421 293 418Q280 408 277 408Q273 411 273 418L275 426Q289 451 321 486Q342 509 351 518L334 504Q290 495 249 448L247 445Q232 428 208 400Q224 404 244 404Q280 404 338 386Q409 342 432 264Q433 262 443 227Q446 216 446 199Q446 162 426 119Q451 152 455 174L462 210Q466 234 466 247ZM434 197Q434 269 373 341Q333 388 248 388Q226 388 182 384Q173 387 173 393L174 396Q188 408 261 485Q277 493 296 510Q280 530 268 542Q249 562 233 562Q218 546 172 510Q101 456 86 412Q83 373 73 336L38 207L39 199Q38 195 36 195Q32 171 32 146V142Q58 57 168 22L181 23Q193 24 220 17T257 8L269 7Q285 6 303 16T357 46Q362 56 392 84Q416 106 416 128Q434 158 434 197ZM338 216Q338 170 304 136Q259 111 241 111Q227 111 214 119Q143 164 143 214V221Q145 226 153 264Q159 292 170 304Q189 308 211 308Q294 308 334 243Q338 231 338 216ZM325 217L324 227Q293 290 241 290H237Q233 268 233 246Q233 207 259 184Q263 183 279 174Q291 167 300 167L312 170Q313 174 320 193Q325 206 325 217ZM292 148Q264 156 237 180Q215 206 215 249Q215 274 221 294H217Q210 294 197 291T176 288Q168 276 164 249Q161 228 158 207Q158 172 217 134Q228 127 240 127Q251 127 267 135Q279 141 292 148Z"  />
<glyph unicode="7" horiz-adv-x="428" d="M404 431Q396 402 361 348Q332 303 317 264Q291 214 272 114Q262 80 262 64L264 44Q255 40 233 16T196 -9Q186 -9 178 -2T152 7T128 14Q113 15 105 17Q92 21 85 28L174 321Q183 341 203 369Q212 381 237 416L241 423Q236 425 226 425Q219 425 206 423T186 421Q157 413 139 413L130 414L118 415L79 413Q53 412 42 429V435Q42 445 44 464T46 493Q46 512 38 530Q38 544 56 544L95 577L177 575Q220 574 254 581Q324 569 347 570L365 571Q382 572 384 561L382 556Q382 554 387 549T392 540L404 431ZM386 425Q385 454 385 483Q383 519 377 540L349 494L350 479Q350 473 348 445L346 420L349 396Q361 400 386 425ZM363 553H353Q329 553 306 556Q236 565 227 565Q212 558 191 558Q176 558 166 559Q128 563 124 563Q86 563 67 536Q82 532 109 528L148 522Q214 534 273 532L341 530L347 524Q358 535 363 553ZM375 398Q357 390 344 371T306 313Q243 207 231 81L219 20Q243 31 247 56T254 105Q254 180 297 260Q297 260 375 398ZM333 390Q326 404 326 420Q326 428 331 458Q333 470 333 481Q333 499 325 514Q311 516 296 516Q283 516 257 514T217 512Q199 508 173 508Q135 508 54 522Q59 506 58 494L55 448L56 435L60 429L102 426Q123 424 173 432Q211 437 247 443Q264 441 264 428Q196 356 156 250Q142 160 99 38L103 32L199 10Q204 21 207 40Q214 82 217 91V97Q217 188 273 287Q297 327 333 390Z"  />
<glyph unicode="8" horiz-adv-x="514" d="M497 175Q497 128 454 85L409 40L403 42Q398 42 387 33T371 22Q355 11 327 5Q303 -1 275 -1Q241 -1 196 8Q90 8 64 75Q32 154 32 195Q32 218 42 243Q55 305 84 347Q104 372 145 418Q131 435 121 506Q131 543 167 566Q190 579 235 605L294 621L318 623Q352 626 396 607Q461 578 477 518Q483 495 483 471Q483 425 464 384Q446 373 446 358Q446 345 465 314T485 271V270L491 262L490 250Q489 244 495 202Q497 187 497 175ZM481 180Q481 190 479 210T476 241Q474 265 456 304Q441 335 426 365Q444 375 464 434L467 471Q470 504 452 539Q437 568 403 589Q365 606 319 606Q283 606 257 593L314 579Q384 579 434 520V501Q434 462 428 412Q425 405 411 393T393 373Q377 364 377 354Q377 347 399 329T421 299L420 292Q454 253 454 180Q454 166 451 140T448 99L464 121Q481 144 481 180ZM438 177Q438 220 422 256Q415 268 410 280T401 304Q398 308 375 328Q356 343 355 353L413 422L418 506Q412 527 378 544Q352 557 346 562Q311 562 247 581Q151 563 135 503Q137 480 140 458Q146 433 165 424Q163 411 157 404Q132 385 105 351Q97 342 94 339Q57 299 46 168Q69 88 70 87Q90 42 129 30Q224 10 270 10Q368 10 418 79Q438 134 438 177ZM328 462Q328 422 303 413Q287 407 273 407Q254 407 245 418T235 445Q235 459 243 487Q254 492 266 497Q276 507 287 507Q295 507 300 503Q316 501 328 477V462ZM348 188Q348 128 306 105Q297 105 259 100Q244 98 230 98Q170 98 149 144Q147 162 147 180Q147 289 212 323L241 325Q280 328 308 298Q348 242 348 188ZM314 465L312 477Q306 490 294 490L291 489Q290 485 283 481L268 484L263 483Q250 470 250 449L251 441L250 437Q250 429 273 420Q288 424 292 425Q304 429 308 436Q314 460 314 465ZM336 197L316 263Q300 299 267 308Q236 268 236 206L239 176Q245 160 262 153Q269 150 296 144L313 148Q320 146 322 144Q330 153 336 197ZM318 138L310 130L295 129Q263 127 233 150Q219 176 219 210Q219 264 249 310L229 312Q210 312 198 298Q170 264 170 233Q160 207 162 175L163 154Q169 136 188 124T226 111Q236 117 258 117H271Q309 117 318 138Z"  />
<glyph unicode="9" horiz-adv-x="486" d="M462 317Q458 304 450 235Q439 146 395 111Q381 88 342 61Q298 31 285 14L270 17Q261 17 234 10Q219 6 213 6Q202 4 187 -7L156 39Q137 67 118 79L112 87Q201 152 250 258Q255 261 261 273T271 290L267 291Q263 291 258 283Q250 272 250 272Q229 256 216 249Q195 238 176 238L165 239Q134 245 126 248Q107 255 92 270Q38 336 38 409Q38 434 45 455Q73 491 82 500Q119 540 182 574Q215 591 246 607L256 608Q272 608 292 600Q340 581 350 582L362 583Q378 575 396 555Q421 527 427 522Q427 515 431 505T436 493L435 487Q445 481 449 464Q453 442 456 438Q462 417 462 381V317ZM447 375Q448 390 445 412T437 447Q420 520 354 567H348Q334 567 312 575Q263 593 250 593L161 546Q188 550 242 556L255 557Q322 562 372 503Q419 407 419 328Q419 287 405 256Q398 180 349 116Q302 56 230 22Q247 30 271 30H279Q286 37 357 89Q386 110 399 132Q421 156 429 209Q441 283 444 292L447 375ZM400 340Q400 374 393 398Q384 428 373 460T338 514Q305 538 256 538Q236 538 137 522Q106 509 68 467Q48 445 48 410Q48 388 55 363L81 304Q99 271 128 258L138 255Q142 255 150 258T163 261Q170 261 171 251H175Q194 251 212 266Q229 273 255 301L279 327V336Q281 343 283 343Q298 340 298 330Q298 323 293 309T287 288V284Q241 207 221 179Q183 127 133 85Q150 75 163 54T187 12Q294 80 312 97Q352 134 364 172Q400 283 400 340ZM260 393Q256 387 254 386Q214 354 195 354L179 357Q157 369 147 402Q151 423 154 429Q160 442 174 447T199 452Q210 452 243 432Q254 423 255 414L254 410Q260 398 260 393ZM240 398V404Q240 419 232 424Q219 438 197 438Q184 438 175 434Q163 423 163 408V402Q172 386 175 381Q184 370 194 367Q198 370 219 380Q234 388 240 398Z"  />
<glyph unicode=":" horiz-adv-x="500" d="M293 442Q293 431 291 409T289 376Q289 360 291 352L234 295H176Q149 295 128 291Q120 294 120 302Q120 307 126 326L125 341Q124 356 128 385T132 427V431Q130 432 128 437Q134 447 134 453Q159 484 172 484Q181 484 189 476Q201 476 224 482T260 488Q279 488 288 476Q293 458 293 442ZM299 174Q299 161 294 132T290 94L291 78Q274 76 232 31V21L104 15L101 25Q108 88 120 135L119 139Q119 141 126 142T134 147L181 191L238 181Q252 181 266 187Q279 187 299 179V174ZM262 476H257Q245 476 216 468Q198 463 191 463L173 466L169 467Q159 467 146 441Q154 443 171 443H199Q246 443 262 476ZM278 441Q279 456 276 468Q268 465 260 457Q256 453 246 441Q238 419 239 394L242 327Q243 329 264 347Q273 355 276 362L275 378L278 441ZM227 423L221 429Q211 427 198 427H180Q158 427 144 421V403Q144 356 138 311L150 312L200 309Q212 308 223 311L227 423ZM270 171Q258 167 241 167Q206 167 185 183L146 143H171Q183 147 196 147L227 146Q259 145 270 171ZM283 148L282 159L278 155Q240 149 240 107V86Q240 68 236 55L274 86Q278 117 283 148ZM227 120L215 133L132 126Q116 66 116 32L133 29Q173 29 217 35L227 120Z"  />
<glyph unicode=";" horiz-adv-x="319" d="M276 286L229 248H212L116 250Q114 252 112 258Q112 261 117 268T122 280L121 291Q121 300 124 317T128 342Q128 353 124 361Q152 407 221 404L270 402L274 396L273 361L276 286ZM272 69Q263 42 240 1Q210 -53 205 -65Q189 -87 183 -95Q167 -114 151 -114Q127 -136 89 -136Q86 -129 60 -110Q38 -93 38 -82Q38 -73 50 -61Q77 3 105 67Q128 82 172 114Q197 98 272 69ZM250 386Q241 386 223 388T196 391Q156 391 146 362L154 359Q161 363 172 363Q179 363 193 361T215 359Q243 359 250 386ZM260 331Q260 337 258 350T256 369Q233 348 233 305Q233 285 235 276Q242 276 248 282T258 290L259 297Q259 304 254 309Q260 318 260 331ZM219 347L203 350Q196 350 182 348T161 345Q150 345 142 349L138 315Q136 307 136 290V264H217L219 347ZM242 63Q230 72 207 82Q181 93 172 99L138 77L212 49Q228 49 242 63ZM250 51L227 40Q208 -3 165 -58Q151 -77 122 -114L154 -95Q165 -88 172 -86Q194 -62 215 -18Q243 41 250 51ZM201 36L126 63L118 57L63 -59Q53 -69 53 -78Q53 -89 78 -104Q93 -113 97 -118Q105 -110 120 -90Q150 -50 160 -39L185 -3Q198 18 201 36Z"  />
<glyph unicode="&lt;" horiz-adv-x="580" d="M497 393Q494 387 476 359Q461 337 461 323V318Q395 291 387 288Q340 267 320 248Q336 229 362 218Q378 211 413 203L443 196Q465 185 465 161Q465 152 462 138Q455 106 455 98L457 83Q455 71 432 63Q418 58 414 53L411 48L408 44Q398 36 385 15Q381 9 376 9Q372 9 364 16T354 24L283 60Q250 77 198 104Q148 128 108 141Q95 157 92 193Q89 235 83 248Q104 287 135 318Q140 323 155 351Q166 373 181 378L325 423Q404 473 419 473Q428 473 436 461Q448 442 450 441Q473 417 497 393ZM472 392V393Q432 440 427 440Q422 440 418 430T414 414Q414 397 432 370L448 346Q472 380 472 392ZM408 450Q387 442 342 414Q336 410 331 407Q320 399 304 395T280 385Q165 368 137 293Q186 310 233 332Q240 335 387 412Q387 420 397 431T408 450ZM430 177L361 201Q319 216 296 235L269 223Q276 218 355 172Q388 153 403 136Q411 140 430 177ZM443 151V163Q441 158 416 112Q399 80 396 58L434 87Q443 123 443 151ZM434 327Q430 332 413 364Q400 389 388 396Q355 375 296 346L201 299Q159 284 147 278Q115 262 103 243Q103 182 123 154Q160 142 276 81Q332 52 369 38Q369 40 376 61T384 88L387 103Q388 108 395 117L392 121Q365 146 323 168L283 189Q262 199 244 203Q233 211 233 219Q233 226 258 239Q271 246 271 253L269 261Q274 266 279 266Q287 266 296 259L434 327Z"  />
<glyph unicode="=" horiz-adv-x="580" d="M556 390L554 337L555 320Q534 299 502 281Q429 299 340 297L234 295Q211 295 187 290Q119 277 107 278L93 279Q86 279 60 272Q46 268 39 268L24 271L21 322Q20 347 30 371L26 389Q99 435 157 435Q180 435 201 428Q249 428 310 433Q464 446 492 445L542 444Q557 425 556 390ZM556 160L554 107L555 90Q534 69 502 51Q431 69 347 67L234 64Q216 64 170 55Q128 47 108 48L93 49Q86 49 60 42Q46 38 39 38L24 41L21 92Q20 117 30 141L26 159Q99 205 157 205Q180 205 201 198Q249 198 310 203Q464 216 492 215L542 214Q557 195 556 160ZM543 354Q543 362 541 383L539 404L540 413L510 393Q504 339 504 340Q504 318 512 304Q543 313 543 354ZM532 428L467 431Q421 433 339 424Q249 415 211 415Q184 423 159 423Q101 423 55 393Q73 393 102 391Q138 388 148 387Q148 387 172 387Q190 390 199 391Q212 385 232 385Q247 385 263 388Q310 397 315 397H323L371 394L382 395L410 398L467 395Q512 393 532 428ZM543 123Q543 131 541 152L539 173L540 182L510 163Q504 109 504 110Q504 88 512 74Q543 84 543 123ZM494 302Q487 313 488 329L490 367Q491 377 488 385H418Q390 380 367 381L317 383Q274 373 210 373Q185 373 127 375L47 377Q36 351 36 304L38 298L37 290Q40 283 43 283Q65 288 102 292L205 302Q254 310 299 309L399 307L461 310Q469 302 487 302H494ZM532 198L470 201Q443 202 374 196Q243 184 211 184Q184 192 157 192Q99 192 55 163Q73 163 102 161Q138 158 148 157Q148 157 172 157Q190 160 199 161Q212 155 232 155Q247 155 263 158Q310 167 315 167H323L371 164L382 165L410 168L467 165Q512 163 532 198ZM494 72Q487 83 488 99L490 137Q491 147 488 155H418Q390 150 367 151L317 153Q274 143 210 143Q185 143 127 145L47 147Q36 121 36 74L38 68L37 60Q40 53 43 53Q65 58 102 62L205 72Q254 80 299 79L399 77L461 80Q469 72 487 72H494Z"  />
<glyph unicode="&gt;" horiz-adv-x="580" d="M473 226Q473 216 468 210Q418 181 405 152L275 89Q200 52 152 15L139 18Q139 68 107 141Q109 155 126 172Q152 197 154 201Q164 218 188 228Q224 243 229 246Q226 252 191 271Q184 275 156 298Q135 316 121 316L112 315L107 320Q127 376 127 410L126 416Q149 429 160 437Q178 450 188 467Q202 461 222 454Q257 442 266 439Q282 432 305 416T331 398L402 355Q425 341 444 327Q466 325 466 270V267Q466 260 469 247T473 226ZM455 233L454 241Q454 262 443 302Q409 284 412 232L414 192Q455 216 455 233ZM428 313Q341 379 320 392Q256 432 197 445Q194 439 180 432T163 416Q217 391 323 338Q335 336 373 309Q391 296 402 296Q417 296 428 313ZM399 273Q266 360 152 405Q145 393 132 331Q149 327 169 310Q186 296 202 282L230 269Q257 251 265 246Q285 233 302 226L304 217Q304 211 298 208L279 203Q269 200 255 195Q239 187 232 184L184 154L132 138Q134 130 139 111Q148 76 148 65Q148 47 155 40Q204 68 307 120Q323 126 354 140Q380 152 394 170L396 208V250Q396 260 399 273ZM267 223L257 230H247Q218 230 188 209Q178 202 139 167L135 156Q152 156 177 171Q207 189 217 192Q224 200 241 208Q262 219 267 223Z"  />
<glyph unicode="?" horiz-adv-x="413" d="M381 449L380 420Q376 414 376 396Q370 377 357 338Q345 304 322 282Q314 264 258 224Q232 205 224 186H220Q203 186 183 172Q153 151 151 150L149 148Q156 146 171 146H189Q210 146 220 140Q220 123 216 89T212 37L135 10L128 2Q122 11 115 11Q109 11 96 6T77 0H72Q53 -8 44 -8L37 -5Q37 0 40 4Q48 15 49 18L52 50L51 109Q65 110 78 123Q99 144 102 146L143 150Q137 162 120 169Q73 188 71 191T63 203T56 217Q59 225 61 227L124 335Q128 342 175 389Q209 423 209 451Q209 465 202 479Q192 476 187 458T173 440L167 441H163Q152 441 132 432T100 423L90 424Q80 439 54 460T19 493L35 502L37 500Q80 578 139 585Q139 597 158 606Q187 619 189 621Q221 630 253 630Q286 630 311 619Q385 561 381 449ZM364 451Q364 553 307 603Q283 617 255 617Q230 617 199 607Q196 606 167 595L214 597Q230 591 255 583Q316 562 324 504Q326 458 328 436Q328 324 210 245L183 189Q211 200 244 228Q294 270 301 274Q325 310 333 323Q364 374 364 451ZM189 489L183 495Q151 495 118 443Q140 455 169 455L168 459Q168 468 189 489ZM311 471Q311 479 308 493T305 516Q294 549 252 566Q238 571 210 583Q179 583 143 571Q90 571 45 489Q72 460 98 441Q118 490 159 510L172 513Q181 513 192 507Q205 498 210 495Q226 479 226 453L224 437Q221 410 194 384Q159 350 153 341Q140 331 100 266Q100 259 92 247Q74 221 74 214Q74 196 125 181Q140 176 155 176Q166 203 193 250L250 300Q311 354 311 471ZM187 132L175 131Q167 130 149 133T122 137L104 134L82 113Q90 111 105 111Q115 111 138 113L161 115Q172 118 187 132ZM205 109L204 121L193 113Q172 110 164 80Q162 74 157 32L198 44V49Q198 58 202 80Q206 99 205 109ZM149 91Q146 90 139 87Q121 101 92 99L61 97Q61 73 65 37L63 14L70 13Q76 13 88 18T106 24Q108 25 115 26L127 25L137 28L149 91Z"  />
<glyph unicode="@" horiz-adv-x="755" d="M722 268L720 239Q717 195 675 130Q616 39 542 39H533Q474 39 439 97Q396 37 324 37Q284 37 259 57Q227 82 225 123L223 159Q220 214 249 272Q264 303 297 342Q339 393 404 393Q457 393 490 342L497 381H568L503 103Q521 75 548 75Q606 75 645 157Q678 226 678 290Q664 394 589 458T425 519L402 518Q300 514 222 443Q150 378 122 258Q113 220 113 186Q113 66 203 -11Q288 -83 411 -83Q510 -83 594 -32L607 -65Q493 -122 384 -122Q229 -122 122 -7Q40 81 40 204Q40 323 116 413Q171 478 234 517Q323 571 413 568L439 567Q586 561 660 460Q729 366 722 268ZM471 283Q471 347 426 355Q396 355 360 313Q329 277 318 244Q302 199 302 161Q302 77 348 77Q440 93 465 226Q471 258 471 283Z"  />
<glyph unicode="A" horiz-adv-x="681" d="M669 0H358V24H462L399 198H198L136 24H256V0H18V24H108L334 654H352L578 24H669V0ZM390 222L298 475L207 222H390Z"  />
<glyph unicode="B" horiz-adv-x="616" d="M568 176Q568 94 507 47T338 0H25V24H114V621H25V645H330Q417 645 479 606Q545 563 545 493Q545 383 406 350Q470 336 514 296Q568 246 568 176ZM437 485V501Q437 621 330 621H223V360H330Q437 360 437 485ZM457 164V187Q457 336 330 336H223V24H330Q399 24 428 59T457 164Z"  />
<glyph unicode="C" horiz-adv-x="631" d="M598 4Q598 -7 587 -7Q581 -7 575 -1L523 51Q453 -18 351 -18Q231 -18 135 81Q35 184 35 323Q35 451 126 551Q222 656 356 656Q450 656 518 607L555 642Q564 651 572 651Q584 651 584 632V478Q584 462 575 462Q568 462 565 470L563 475Q538 545 487 586Q431 630 356 630Q171 630 171 374V268Q171 8 351 8Q490 8 574 188Q580 201 588 201Q598 201 598 187V4Z"  />
<glyph unicode="D" horiz-adv-x="682" d="M664 330Q664 180 574 90T337 0H28V24H119V621H28V645H337Q481 645 572 558T664 330ZM541 306V354Q541 495 479 563Q426 621 335 621H228V24H335Q541 24 541 306Z"  />
<glyph unicode="E" horiz-adv-x="591" d="M553 35Q553 0 519 0H31V24H118V621H29V645H494Q525 645 525 618V474Q525 457 513 457Q501 457 500 475Q498 528 472 569Q439 621 379 621H227V352H304Q343 352 359 376Q366 389 377 435Q380 452 389 452Q400 452 400 436V244Q400 227 389 227Q380 227 377 244Q372 267 357 306Q342 328 304 328H227V24H388Q453 24 484 66Q507 98 525 181Q530 204 541 204Q553 204 553 177V35Z"  />
<glyph unicode="F" horiz-adv-x="564" d="M529 474Q529 457 517 457Q505 457 504 475Q502 528 476 569Q443 621 383 621H231V352H308Q347 352 363 376Q371 389 381 435Q385 452 393 452Q404 452 404 436V244Q404 227 393 227Q385 227 381 244Q376 267 361 306Q346 328 308 328H231V24H320V0H36V24H122V621H34V645H499Q529 645 529 618V474Z"  />
<glyph unicode="G" horiz-adv-x="689" d="M686 217H597V189Q597 85 523 31Q458 -18 350 -18Q224 -18 129 82T33 319Q33 456 127 556T353 656Q452 656 517 604L558 642Q568 651 576 651Q589 651 589 636V457Q589 444 578 444Q568 444 564 456Q504 630 353 630Q268 630 220 571Q168 507 168 379V263Q168 138 216 73T352 8Q482 8 482 132V217H371V241H686V217Z"  />
<glyph unicode="H" horiz-adv-x="706" d="M688 0H402V24H491V330H227V24H316V0H29V24H118V621H29V645H316V621H227V355H491V621H402V645H688V621H600V24H688V0Z"  />
<glyph unicode="I" horiz-adv-x="366" d="M326 0H40V24H128V621H40V645H326V621H237V24H326V0Z"  />
<glyph unicode="J" horiz-adv-x="381" d="M371 621H294V56Q294 -97 126 -97Q73 -97 39 -66Q8 -40 8 -8Q8 46 59 46Q81 46 94 33T107 -1Q107 -47 64 -53Q85 -71 119 -71Q156 -71 170 -51T185 20V621H90V645H371V621Z"  />
<glyph unicode="K" horiz-adv-x="692" d="M685 0H385V24H470L219 353L510 621H428V645H640V621H550L313 403L601 24H685V0ZM304 0H31V24H113V621H31V645H304V621H222V24H304V0Z"  />
<glyph unicode="L" horiz-adv-x="617" d="M596 35Q596 0 561 0H26V24H115V621H26V645H322V621H224V24H431Q495 24 526 66Q549 98 567 181Q572 204 583 204Q596 204 596 177V35Z"  />
<glyph unicode="M" horiz-adv-x="821" d="M793 0H520V24H602V589L380 0H360L138 585V24H221V0H31V24H113V621H31V645H229L415 167L595 645H793V621H711V24H793V0Z"  />
<glyph unicode="N" horiz-adv-x="677" d="M660 621H571V-8H529L137 583V24H226V0H23V24H112V621H23V645H233L546 175V621H457V645H660V621Z"  />
<glyph unicode="O" horiz-adv-x="712" d="M684 320Q684 187 588 85T360 -18Q229 -18 133 84T37 320Q37 452 133 554T360 656Q492 656 588 554T684 320ZM549 272V367Q549 512 500 574Q455 630 360 630Q267 630 221 571Q172 508 172 367V272Q172 8 360 8Q549 8 549 272Z"  />
<glyph unicode="P" horiz-adv-x="558" d="M534 469Q534 390 476 342T325 293H223V24H311V0H25V24H114V621H25V645H315Q415 645 474 597T534 469ZM433 452V486Q433 621 315 621H223V317H325Q433 317 433 452Z"  />
<glyph unicode="Q" horiz-adv-x="701" d="M684 319Q684 205 611 110T429 -12V-29Q429 -197 589 -197Q603 -197 603 -208Q603 -218 589 -218Q446 -218 386 -188Q304 -148 294 -33L292 -12Q183 14 110 109T37 319Q37 452 133 554T360 656Q492 656 588 554T684 319ZM549 271V366Q549 511 500 574Q455 630 360 630Q267 630 221 571Q172 508 172 366V271Q172 6 360 6Q549 6 549 271Z"  />
<glyph unicode="R" horiz-adv-x="647" d="M645 34Q645 29 641 25Q629 14 597 4Q561 -8 528 -8Q477 -8 452 20Q430 44 424 97Q422 130 417 196Q402 325 307 325H226V24H315V0H28V24H117V621H28V645H323Q418 645 478 603Q543 559 543 484Q543 365 393 332Q489 308 519 251Q539 213 542 109Q543 60 548 47Q556 26 585 26Q609 26 629 39Q635 41 638 41Q645 41 645 34ZM436 467V501Q436 621 323 621H226V349H323Q436 349 436 467Z"  />
<glyph unicode="S" horiz-adv-x="558" d="M524 205Q524 110 456 46T287 -18Q195 -18 118 44L84 -1Q75 -13 67 -13Q53 -13 53 4V174Q53 191 65 191Q76 191 81 176Q102 98 160 53T293 8Q359 8 408 48T458 152Q458 220 401 245Q356 264 311 277Q260 292 209 307Q68 351 68 467Q68 545 127 600T286 656Q363 656 434 618L461 650Q469 660 476 660Q487 660 487 646V477Q487 463 475 463Q463 463 461 476Q452 542 411 583Q364 630 286 630Q226 630 185 602Q139 571 139 518Q139 454 201 432Q228 422 385 380Q524 343 524 205Z"  />
<glyph unicode="T" horiz-adv-x="638" d="M617 455H586Q575 533 541 577T460 621H376V24H465V0H179V24H267V621H183Q138 621 104 577T57 455H27L43 625Q45 645 68 645H576Q599 645 601 625L617 455Z"  />
<glyph unicode="U" horiz-adv-x="657" d="M643 621H555V162Q555 74 499 28T343 -18Q248 -18 185 20Q107 68 107 162V621H18V645H304V621H216V162Q216 88 256 48T367 8Q437 8 483 49T529 162V621H440V645H643V621Z"  />
<glyph unicode="V" horiz-adv-x="651" d="M649 621H574L353 -10H329L97 621H7V645H294V621H203L378 149L543 621H456V645H649V621Z"  />
<glyph unicode="W" horiz-adv-x="926" d="M915 621H843L602 -10H582L470 277L361 -10H341L101 621H23V645H680V621H616L532 402L630 141L814 621H728V645H915V621ZM588 621H448L518 439L588 621ZM456 315L341 621H208L390 143L456 315Z"  />
<glyph unicode="X" horiz-adv-x="706" d="M689 0H404V24H484L324 283L148 24H247V0H22V24H114L308 309L115 621H24V645H329V621H239L375 401L523 621H427V645H652V621H558L392 375L608 24H689V0Z"  />
<glyph unicode="Y" horiz-adv-x="682" d="M673 621H588L420 340V24H518V0H212V24H311V316L113 621H28V645H325V621H234L398 367L550 621H454V645H673V621Z"  />
<glyph unicode="Z" horiz-adv-x="524" d="M502 0H31V30L383 621H192Q64 621 59 472H36V645H495V617L139 24H328Q398 24 433 62Q472 104 477 199H502V0Z"  />
<glyph unicode="[" horiz-adv-x="300" d="M247 60Q240 51 240 46Q240 35 235 14T229 -18L231 -34Q227 -42 214 -47Q187 -57 183 -70Q165 -64 129 -64H88Q81 -64 67 -62L59 -58Q62 -41 63 -15L64 15Q64 51 59 122T53 229V252Q53 381 77 513V531L74 632L67 635L68 639Q94 657 121 675L234 657L244 653Q242 629 241 604Q237 573 229 558H225Q221 558 214 553T203 548L199 549Q195 542 194 523T189 496L188 270Q188 223 187 195L183 76Q193 70 215 68T247 60ZM234 639Q225 631 207 620L208 611Q208 601 199 560Q207 563 216 567T226 580V581Q234 605 234 639ZM223 648L218 647Q206 647 187 651Q143 660 132 660Q104 660 85 641Q140 633 195 626L223 648ZM183 543L165 541L157 544V517Q157 478 149 402T141 286Q141 260 143 200L145 135Q145 84 140 51L142 49Q152 57 163 66T174 88Q174 128 177 189L179 258L178 371Q178 401 180 458T183 543ZM194 601L193 609Q172 618 140 622Q113 625 86 627L88 624L85 621V612L88 536Q89 506 80 480Q80 450 68 356Q61 300 62 283L65 237V218Q65 186 68 144Q75 45 75 21Q75 -21 70 -49Q84 -50 113 -52H145L175 -53Q178 -46 178 -34L177 -8Q176 7 184 19L128 25L130 87Q136 114 136 160Q136 192 135 212L131 301Q131 346 137 373V383Q137 402 141 439T145 494V504L146 511L144 542Q143 552 148 561Q156 561 160 557H165L178 556Q188 555 189 566V570Q189 576 191 586T194 601ZM225 55Q213 58 189 63L183 64Q174 64 164 52Q153 37 149 35L162 33H171Q182 33 187 31Q192 38 206 44T225 55ZM231 44L205 32Q193 17 191 -4L187 -46Q216 -46 221 -9Q229 41 231 44Z"  />
<glyph unicode="\" horiz-adv-x="276" d="M264 0H193L0 583H78L264 0Z"  />
<glyph unicode="]" horiz-adv-x="300" d="M265 629Q266 616 261 589Q252 533 252 520L255 417Q257 363 243 194Q231 45 231 -28Q217 -43 180 -68L177 -69Q171 -62 166 -61Q147 -52 121 -52Q110 -52 84 -54L56 -56L41 -55L42 -35Q43 -13 35 29L65 66L83 87L107 77Q108 91 114 189Q118 257 118 301V341Q118 375 124 419Q137 514 137 549Q132 553 122 553L101 551Q90 551 88 563Q97 598 107 633Q114 634 123 641Q148 661 151 663Q164 663 188 659T225 654L241 656Q245 652 254 652L264 651L265 629ZM243 644L239 643L228 642Q213 643 184 648L168 651Q158 651 145 644Q141 642 124 629Q175 620 219 620L243 644ZM256 636L226 614Q211 515 211 337Q194 258 195 166L196 59Q196 9 190 -41L192 -46L217 -29Q217 33 226 130Q246 347 246 404V446Q246 497 241 532Q256 630 256 636ZM210 585Q210 596 201 600L205 608Q203 608 113 620Q107 607 104 591Q104 587 101 579T98 568L101 561Q106 563 116 563Q134 563 149 553V543Q148 537 146 537Q146 490 139 437L128 362L129 327Q130 285 124 200T118 71L119 38Q115 24 103 25L85 26L76 25Q72 23 64 23H60L47 20Q52 -7 51 -24L50 -43L69 -46Q79 -46 98 -43T127 -40L149 -43Q160 -52 177 -52Q184 13 184 110V192L182 211Q182 228 187 251Q198 300 199 319Q201 330 201 351V377L200 467Q200 483 207 555L210 585ZM106 66Q97 75 91 75Q83 75 72 59Q58 39 55 37L62 36Q68 36 79 38T97 40H104L106 66Z"  />
<glyph unicode="^" horiz-adv-x="385" d="M375 213H317L194 490L71 213H13L168 555H220L375 213Z"  />
<glyph unicode="_" horiz-adv-x="504" d="M504 -126H0V-71H504V-126Z"  />
<glyph unicode="`" horiz-adv-x="266" d="M233 457L219 450L44 604H147L233 457Z"  />
<glyph unicode="a" horiz-adv-x="456" d="M453 54Q453 34 430 13Q402 -13 353 -13Q287 -13 274 34Q230 -13 158 -13Q42 -13 42 75Q42 138 108 176Q171 211 268 212V319Q268 369 204 369Q143 369 143 352Q147 349 152 344Q166 332 166 314Q166 277 123 277Q81 277 81 316Q81 346 116 367Q156 390 228 390Q366 390 366 301V74Q366 43 370 33Q375 20 390 20Q416 20 434 53Q439 63 445 63Q453 63 453 54ZM268 68V194Q203 190 173 173Q132 151 132 99Q132 20 193 20Q212 20 240 37T268 68Z"  />
<glyph unicode="b" horiz-adv-x="534" d="M510 192Q510 116 452 52T315 -12Q250 -12 204 40V0H28V24H107V621H28V645H204V346Q247 393 312 393Q383 393 444 336Q510 275 510 192ZM394 171V214Q394 309 369 343Q351 369 308 369Q246 369 204 303V83Q247 12 312 12Q394 12 394 171Z"  />
<glyph unicode="c" horiz-adv-x="422" d="M411 105Q411 103 410 100L409 96Q396 55 360 26Q312 -13 242 -13Q159 -13 97 41Q29 99 29 187Q29 275 98 334Q162 390 247 390Q296 390 339 369Q388 345 388 308Q388 289 374 277T338 264Q318 264 304 275T289 306Q289 324 298 336T307 349Q307 354 293 359Q275 366 245 366Q193 366 170 333Q146 297 146 208V167Q146 77 165 45Q186 10 245 10Q298 10 338 40Q372 66 385 105Q389 117 399 117Q411 117 411 105Z"  />
<glyph unicode="d" horiz-adv-x="534" d="M513 0H337V41Q292 -13 227 -13Q159 -13 97 48Q32 112 32 191Q32 266 93 329T230 393Q298 393 337 350V621H259V645H435V24H513V0ZM337 82V301Q296 369 234 369Q187 369 168 335T148 215V168Q148 79 169 43Q188 11 231 11Q291 11 337 82Z"  />
<glyph unicode="e" horiz-adv-x="447" d="M414 117Q414 111 411 102Q391 52 347 21Q298 -13 230 -13Q143 -13 84 49Q28 108 28 185Q28 263 86 326T226 390Q314 390 367 327Q406 281 409 233Q410 216 388 216H145V124Q145 10 232 10Q342 10 390 116Q396 128 404 128Q414 128 414 117ZM303 279Q303 366 227 366Q145 366 145 273V240H293Q303 240 303 279Z"  />
<glyph unicode="f" horiz-adv-x="352" d="M340 585Q340 547 303 547Q263 547 263 583Q263 607 286 617Q286 628 244 628Q195 628 195 561V380H278V356H195V24H272V0H20V24H97V356H21V380H97V416Q97 524 118 569Q157 652 242 652Q284 652 312 632T340 585Z"  />
<glyph unicode="g" horiz-adv-x="439" d="M433 371Q433 339 398 339Q360 339 360 370Q360 374 361 377Q347 368 331 352Q377 311 377 255Q377 208 340 169Q292 119 207 119Q173 119 148 126Q68 106 68 66Q68 30 129 30H295Q354 30 388 1Q424 -31 424 -90Q424 -166 364 -211Q308 -253 220 -253Q134 -253 84 -227Q31 -198 31 -144Q31 -75 109 -43Q33 -24 33 49Q33 114 114 139Q37 180 37 255Q37 310 81 348Q128 390 207 390Q276 390 312 366Q351 405 390 405Q433 405 433 371ZM275 238V270Q275 325 258 347Q243 366 207 366Q171 366 156 347Q139 325 139 270V238Q139 187 153 165T207 143Q246 143 260 165T275 238ZM377 -129Q377 -95 351 -71T278 -47H147Q130 -47 111 -69Q89 -94 89 -126Q89 -229 224 -229Q283 -229 326 -205Q377 -178 377 -129Z"  />
<glyph unicode="h" horiz-adv-x="555" d="M539 0H298V24H369V291Q369 360 312 360Q265 360 229 322Q196 288 196 256V24H268V0H26V24H99V621H26V645H196V325Q244 393 344 393Q467 393 467 302V24H539V0Z"  />
<glyph unicode="i" horiz-adv-x="303" d="M216 550Q216 528 199 513T158 497Q133 497 117 512T100 550Q100 573 116 588T158 604Q182 604 199 589T216 550ZM285 0H33V24H110V356H33V380H207V24H285V0Z"  />
<glyph unicode="j" horiz-adv-x="282" d="M228 550Q228 527 211 512T170 496Q146 496 129 511T112 550Q112 573 129 588T170 604Q194 604 211 589T228 550ZM225 -28Q225 -133 184 -192T70 -252Q33 -252 6 -234T-21 -187Q-21 -167 -8 -153T28 -138Q50 -138 62 -152T75 -184Q75 -212 53 -226Q59 -228 69 -228Q92 -228 109 -213T127 -164V355H44V379H225V-28Z"  />
<glyph unicode="k" horiz-adv-x="556" d="M549 0H291V24H359L223 202H207V24H280V0H27V24H110V621H27V645H207V226H230L373 356H292V380H494V356H410L294 249L475 24H549V0Z"  />
<glyph unicode="l" horiz-adv-x="294" d="M273 0H32V24H104V621H32V645H201V24H273V0Z"  />
<glyph unicode="m" horiz-adv-x="785" d="M766 0H536V24H601V287Q601 353 553 353Q510 353 477 314Q446 280 446 248V24H513V0H282V24H349V287Q349 317 344 328Q334 353 300 353Q261 353 226 315Q194 281 194 256V24H260V0H29V24H96V353H29V377H194V316Q244 385 344 385Q432 385 445 314Q493 385 596 385Q699 385 699 297V24H766V0Z"  />
<glyph unicode="n" horiz-adv-x="547" d="M528 0H286V24H358V287Q358 353 305 353Q268 353 235 319T202 252V24H274V0H33V24H105V353H33V376H202V316Q250 384 343 384Q456 384 456 293V24H528V0Z"  />
<glyph unicode="o" horiz-adv-x="460" d="M441 188Q441 117 385 55Q323 -13 234 -13Q145 -13 82 55Q25 117 25 188Q25 259 82 321Q145 390 234 390Q323 390 385 321Q441 259 441 188ZM325 168V209Q325 294 309 327Q289 366 234 366Q178 366 159 327Q141 294 141 209V168Q141 80 159 47Q178 10 234 10Q290 10 309 47Q325 79 325 168Z"  />
<glyph unicode="p" horiz-adv-x="515" d="M494 187Q494 105 433 44T295 -17Q227 -17 187 29V-233H254V-257H22V-233H89V352H22V377H187V336Q232 390 297 390Q370 390 430 330Q494 269 494 187ZM378 167V210Q378 305 351 340Q333 366 296 366Q258 366 223 336T187 275V91Q187 64 220 37T293 9Q337 9 354 36Q378 70 378 167Z"  />
<glyph unicode="q" horiz-adv-x="524" d="M507 -257H276V-233H343V30Q300 -17 233 -17Q158 -17 96 46T34 187Q34 265 95 326T231 387Q298 387 343 335V376H507V352H440V-233H507V-257ZM343 106V266Q343 303 307 334T232 366Q150 366 150 245V141Q150 62 173 32Q192 8 235 8Q282 8 312 37T343 106Z"  />
<glyph unicode="r" horiz-adv-x="412" d="M402 313Q402 289 386 275T346 261Q321 261 305 274T289 310Q289 340 314 354Q317 356 317 357Q317 361 293 361Q256 361 222 333T188 276V24H260V0H18V24H90V353H18V377H188V332Q231 385 304 385Q344 385 370 369Q402 350 402 313Z"  />
<glyph unicode="s" horiz-adv-x="367" d="M343 119Q343 61 306 25Q266 -13 199 -13Q127 -13 83 24L64 -1Q60 -8 54 -8Q43 -8 43 4V105Q43 117 54 117Q63 117 66 105Q93 10 196 10Q234 10 264 27Q299 47 299 81Q299 113 266 131Q238 145 142 165Q50 184 50 266Q50 317 87 353T191 390Q237 390 269 365L292 386Q296 390 300 390Q307 390 307 379V278Q307 268 299 268Q291 268 288 277Q282 313 258 337Q230 366 185 366Q148 366 124 348T99 306Q99 277 134 267Q179 257 246 239Q343 210 343 119Z"  />
<glyph unicode="t" horiz-adv-x="348" d="M338 83Q338 79 337 73Q321 -13 214 -13Q154 -13 122 18T89 104V355H19V379H89V485L187 530V379H287V355H187V102Q187 16 249 16Q303 16 314 81Q316 95 328 95Q338 95 338 83Z"  />
<glyph unicode="u" horiz-adv-x="556" d="M529 0H359V60Q307 -11 204 -11Q95 -11 95 95V353H23V376H193V89Q193 54 201 42Q212 25 245 25Q287 25 323 59T359 123V353H287V376H457V24H529V0Z"  />
<glyph unicode="v" horiz-adv-x="505" d="M488 353H425L269 -4H255L90 353H21V376H264V353H194L297 123L397 353H326V376H488V353Z"  />
<glyph unicode="w" horiz-adv-x="668" d="M654 353H582L457 -11H443L338 230L251 -11H236L92 353H23V376H257V353H191L278 135L363 376H377L482 134L556 353H472V376H654V353Z"  />
<glyph unicode="x" horiz-adv-x="518" d="M505 0H263V24H336L239 152L134 24H205V0H31V24H102L223 173L86 353H26V376H253V353H190L279 236L374 353H313V376H476V353H408L295 215L441 24H505V0Z"  />
<glyph unicode="y" horiz-adv-x="521" d="M511 352H442L231 -154Q191 -251 111 -251Q54 -251 54 -206Q54 -167 95 -167Q125 -167 139 -194Q145 -205 151 -205Q183 -205 207 -146L266 -3L96 352H26V376H277V352H201L313 110L414 352H340V376H511V352Z"  />
<glyph unicode="z" horiz-adv-x="414" d="M388 0H49V26L275 353H179Q99 353 89 255H68V376H377V348L155 24H267Q359 24 367 132H388V0Z"  />
<glyph unicode="{" horiz-adv-x="300" d="M289 -77Q274 -86 247 -140L246 -148Q220 -156 215 -158Q194 -166 189 -176L183 -177Q174 -177 174 -166L130 -128Q107 -108 83 -96L82 -93Q82 -90 85 -84T88 -74L90 -35Q91 -8 87 31Q83 64 79 98Q76 123 74 154Q71 172 48 206Q37 222 11 255V261Q32 275 74 329L75 353Q76 385 68 454T61 556L63 590Q94 616 113 650L112 660Q112 668 119 668H129Q137 668 152 672T175 676H179Q214 624 237 619L240 613Q240 608 235 603Q228 595 227 594Q211 566 211 502Q211 483 214 445T218 388Q218 347 228 299Q216 284 211 277Q201 263 201 251Q226 234 226 173V165L223 117Q223 102 221 60L219 17L220 -12Q254 -36 288 -61L287 -68L289 -77ZM212 619Q205 622 188 645Q173 665 160 665L149 662L133 652Q147 638 161 625Q179 610 195 606Q198 607 202 609Q211 613 212 619ZM218 605L187 592Q185 583 179 583L176 584Q160 568 160 545Q160 533 166 507T172 468L171 456Q170 449 173 386L176 312L175 299Q170 292 166 286L167 283L140 250H144Q157 250 175 261Q187 262 207 294L210 349Q212 385 207 447Q202 519 202 546Q202 556 210 575T218 605ZM238 -94L226 -80Q214 -76 191 -59T155 -36L156 8L155 94Q154 161 161 181Q161 213 119 235L118 240Q118 245 123 250Q135 263 135 268L147 283Q151 288 156 291Q165 322 165 365Q165 388 160 433T155 502Q148 518 148 547V568Q167 587 174 599Q167 610 143 629Q129 640 124 640Q116 640 102 622Q82 596 80 594Q69 583 70 560L71 530L70 519Q77 490 77 457L80 434L90 339Q90 327 80 315L62 293L43 274Q31 262 31 251L68 197Q73 189 85 172V161Q85 128 93 63Q102 -13 101 -35L98 -82Q102 -92 143 -126L166 -145Q178 -155 187 -155Q192 -136 207 -120Q211 -116 238 -94ZM268 -61Q254 -48 203 -15Q215 100 215 176Q215 229 187 241L182 250Q161 243 141 237Q143 234 161 217Q174 205 176 194Q165 141 167 82L170 -26Q191 -43 209 -56Q234 -74 251 -82Q264 -69 268 -61ZM266 -84Q258 -94 256 -100Q220 -113 201 -155Q225 -155 242 -130Q247 -123 266 -84Z"  />
<glyph unicode="|" horiz-adv-x="130" d="M87 -125H53V660H87V-125Z"  />
<glyph unicode="}" horiz-adv-x="300" d="M243 251Q235 230 219 187Q215 175 215 140V109Q215 92 212 72L213 53L212 10Q212 -9 215 -21L214 -37V-57Q202 -84 134 -147L112 -173L107 -174H102Q87 -142 57 -110Q57 -104 62 -102L72 -98Q108 -72 108 -29V9L110 111L107 178Q126 194 126 215L105 246Q95 254 95 260L93 305Q91 351 99 418Q108 474 116 530L117 551L116 572L80 610Q111 647 111 666V667L146 685Q147 691 157 695Q161 694 162 685T166 674Q173 662 183 649Q194 633 205 629Q206 610 208 573V546L211 455L209 343Q209 308 213 291Q215 280 228 268T243 251ZM226 246Q224 255 210 269T195 291L198 302L201 448L198 607Q193 609 193 618V622Q181 632 171 649Q156 675 152 679Q139 676 128 662L134 658Q153 626 174 613Q174 604 176 586T178 559L175 526L173 462Q172 428 175 369Q179 303 179 276Q193 249 213 237L226 246ZM203 218Q198 221 198 227Q188 243 163 268L162 272L164 280L165 295L164 327V500Q164 510 166 536L168 563Q168 580 164 595Q159 600 159 605T152 613L128 649Q121 644 114 644Q105 632 95 608Q97 603 115 590Q130 580 130 562Q130 551 123 532Q123 504 110 426Q102 379 103 363L104 343L103 302Q102 262 125 244Q126 239 135 228T144 212Q144 210 132 192T120 158L119 102L120 -42Q120 -61 77 -107V-112Q83 -117 95 -140Q102 -153 107 -158Q120 -146 147 -122T179 -86V-51L180 141L178 156Q178 169 193 194Q201 208 203 218ZM214 204Q204 194 193 163L191 66L192 20Q194 -72 194 -71Q203 -58 202 -41L200 22Q205 64 207 146L205 179Q205 184 209 192T214 204Z"  />
<glyph unicode="~" horiz-adv-x="543" d="M528 315Q463 199 376 199Q325 199 260 236Q200 270 161 270Q128 270 99 245Q78 227 47 181L10 230Q70 336 159 336Q192 336 219 325Q238 316 276 299Q349 270 378 270Q435 270 480 346L528 315Z"  />
<glyph unicode="&#xA0;" horiz-adv-x="207" />
<glyph unicode="&#xA1;" horiz-adv-x="277" d="M206 453Q206 430 189 414T146 398Q121 398 104 414T86 453Q86 476 103 492T146 509Q171 509 188 493T206 453ZM208 -48Q208 -138 145 -138Q80 -138 80 -48Q80 -11 91 41Q101 85 111 128Q122 185 134 347H155Q159 276 177 128Q187 85 197 41Q208 -11 208 -48Z"  />
<glyph unicode="&#xA2;" horiz-adv-x="354" d="M331 213Q331 210 330 206Q307 126 211 118L210 70H185V119Q123 124 79 166T35 271Q35 332 75 372T185 424V461H210L211 424Q250 423 281 405T312 361Q312 324 274 324Q258 324 248 334T237 359Q237 373 242 378T248 389Q248 403 211 405V140Q247 142 274 163T309 215Q311 224 320 224Q331 224 331 213ZM185 140V404Q150 398 138 375T125 291V250Q125 200 132 180Q145 146 185 140Z"  />
<glyph unicode="&#xA3;" horiz-adv-x="559" d="M535 187Q535 127 484 61Q428 -11 363 -11Q272 -11 217 48Q184 -5 107 -5Q63 -5 39 20T14 80Q14 129 59 160Q98 186 144 186Q161 186 182 182L131 324H35V350H120Q86 449 86 491Q86 581 169 624Q235 658 340 658Q402 658 448 628Q498 595 498 546Q498 465 426 465Q399 465 381 478T362 517Q362 573 430 573Q445 573 445 580Q445 598 412 616T340 634Q285 634 259 608Q228 578 228 506V350H309V324H228V170Q344 103 405 103Q442 103 468 127Q489 147 511 193Q515 201 523 201Q535 201 535 187ZM194 68Q137 132 89 132Q72 132 58 120Q42 105 42 80Q42 57 59 39T107 21Q171 21 194 68Z"  />
<glyph unicode="&#xA4;" horiz-adv-x="600" d="M499 118Q499 97 478 97Q470 97 459 108L403 164Q356 129 300 129Q244 129 197 164L141 108Q130 97 122 97Q101 97 101 118Q101 127 111 137L168 193Q132 241 132 297Q132 353 167 400L111 456Q101 466 101 475Q101 496 122 496Q130 496 141 485L196 429Q241 465 300 465Q359 465 403 429L459 485Q470 496 479 496Q499 496 499 475Q499 466 488 456L433 400Q468 354 468 297Q468 239 432 193L488 137Q499 126 499 118ZM427 297Q427 350 390 387T300 424Q247 424 210 387T173 297Q173 244 210 207T300 170Q353 170 390 207T427 297Z"  />
<glyph unicode="&#xA5;" horiz-adv-x="674" d="M665 621H579L411 340V324H511V300H411V261H511V237H411V24H510V0H204V24H302V237H201V261H302V300H201V324H297L105 621H20V645H317V621H226L390 367L542 621H446V645H665V621Z"  />
<glyph unicode="&#xA6;" horiz-adv-x="118" d="M80 357H43V647H80V357ZM80 0H43V265H80V0Z"  />
<glyph unicode="&#xA7;" horiz-adv-x="387" d="M367 335Q367 245 292 214Q364 182 364 93Q364 20 317 -24T190 -69Q129 -69 89 -37T48 37Q48 85 91 85Q130 85 130 46Q130 9 88 9Q83 9 83 8Q83 -2 112 -22Q147 -45 190 -45Q245 -45 277 -20T309 43Q309 96 238 119Q173 140 107 161Q37 197 37 279Q37 372 119 401Q36 429 36 518Q36 578 78 621Q124 667 195 667Q271 667 312 638Q345 614 345 581Q345 542 307 542Q264 542 264 577Q264 611 297 616Q260 643 195 643Q153 643 121 622T89 569Q89 513 190 499Q367 475 367 335ZM329 300Q329 332 268 360Q220 381 163 390Q90 375 90 323Q90 289 124 268Q163 244 259 225Q329 250 329 300Z"  />
<glyph unicode="&#xA8;" horiz-adv-x="432" d="M353 554Q353 535 338 522T300 509Q278 509 263 522T247 554Q247 573 262 586T300 599Q322 599 337 586T353 554ZM196 554Q196 535 181 522T143 509Q121 509 106 522T90 554Q90 573 105 586T143 599Q165 599 180 586T196 554Z"  />
<glyph unicode="&#xA9;" horiz-adv-x="637" d="M616 357Q616 247 531 169T327 91Q207 91 122 169T37 357Q37 467 122 545T327 623Q446 623 531 545T616 357ZM586 358Q586 456 511 525T328 594Q220 594 145 525T69 358Q69 260 144 191T328 122Q435 122 510 191T586 358ZM428 241Q428 234 420 234Q417 234 414 237L393 257Q364 230 324 230Q275 230 234 272T192 370Q192 423 231 466T327 510Q363 510 392 489L405 503Q409 507 415 507H416H417Q423 506 423 498V434Q423 424 415 424Q410 424 407 431Q386 491 327 491Q254 491 254 391V349Q254 248 324 248Q377 248 411 317Q413 325 421 325Q428 325 428 317V241Z"  />
<glyph unicode="&#xAA;" horiz-adv-x="354" d="M323 398Q323 385 309 372Q291 356 262 356Q222 356 213 383Q186 356 144 356Q73 356 73 411Q73 449 112 471T209 494V555Q209 582 172 582Q140 582 137 577L139 575Q140 574 142 573Q151 563 151 553Q151 529 123 529Q96 529 96 555Q96 573 118 586T186 600Q271 600 271 545V410Q271 380 283 380Q295 380 304 392T316 405Q323 405 323 398ZM323 284H44V322H323V284ZM209 480Q130 474 130 425Q130 380 165 380Q177 380 193 390T209 408V480Z"  />
<glyph unicode="&#xAB;" horiz-adv-x="438" d="M382 108H354L174 258L354 408H382L254 258L382 108ZM232 108H203L24 258L203 408H232L104 258L232 108Z"  />
<glyph unicode="&#xAC;" horiz-adv-x="564" d="M545 230H506V389H18V429H545V230Z"  />
<glyph unicode="&#xAD;" horiz-adv-x="277" d="M277 231H4V262H277V231Z"  />
<glyph unicode="&#xAE;" horiz-adv-x="448" d="M413 475Q413 402 357 351T219 299Q139 299 82 350T25 475Q25 549 82 600T219 652Q300 652 356 601T413 475ZM383 475Q383 536 336 579T220 622Q153 622 105 579T57 475Q57 414 105 371T220 328Q288 328 335 371T383 475ZM331 388Q331 381 329 378Q317 368 290 368Q272 368 265 376T254 404Q253 419 252 434Q248 473 218 473H197V388H225V370H127V388H156V562H127V580H225Q256 580 277 566T298 526Q298 491 258 478Q283 470 291 450Q296 438 298 407Q299 384 309 384Q316 384 322 388H331ZM258 520V531Q258 562 225 562H197V491H225Q258 491 258 520Z"  />
<glyph unicode="&#xAF;" horiz-adv-x="454" d="M360 516H107V543H360V516Z"  />
<glyph unicode="&#xB0;" horiz-adv-x="231" d="M202 582Q202 552 178 531T121 510Q87 510 63 531T39 582Q39 611 63 632T121 654Q154 654 178 633T202 582ZM177 582Q177 602 161 616T121 631Q97 631 81 617T64 582Q64 561 80 547T121 533Q144 533 160 547T177 582Z"  />
<glyph unicode="&#xB1;" horiz-adv-x="410" d="M374 344H235V217H171V344H32V403H171V530H235V403H374V344ZM358 126H48V185H358V126Z"  />
<glyph unicode="&#xB2;" horiz-adv-x="360" d="M304 462Q304 460 304 458L299 376H85V404L200 502Q243 539 243 590Q243 647 185 647Q163 647 145 639T126 622H127Q130 622 134 622Q146 622 155 614T164 595Q164 564 128 564Q92 564 92 598Q92 629 123 647T198 665Q238 665 265 650Q299 632 299 596Q299 553 216 488L128 419H245Q273 419 282 447T297 476Q304 476 304 462Z"  />
<glyph unicode="&#xB3;" horiz-adv-x="335" d="M277 466Q277 430 246 404T169 378Q134 378 108 393Q77 410 77 439Q77 472 111 472Q145 472 145 439Q145 421 120 410Q119 410 119 410Q119 409 120 407Q136 396 164 396Q224 396 224 466Q224 529 159 529Q154 529 142 529Q131 528 127 528Q112 528 112 538Q112 549 127 549Q131 549 142 548T159 547Q219 547 219 607Q219 658 170 658Q127 658 127 648Q126 649 128 649Q150 643 150 621Q150 594 117 594Q86 594 86 625Q86 643 106 658Q131 676 173 676Q214 676 242 659Q274 639 274 603Q274 557 216 537Q277 518 277 466Z"  />
<glyph unicode="&#xB4;" horiz-adv-x="404" d="M371 622L196 468L183 477L268 622H371Z"  />
<glyph unicode="&#xB5;" horiz-adv-x="576" d="M534 100Q526 -14 438 -14Q369 -14 360 79Q281 -14 207 -14Q162 -14 131 28Q131 13 131 5Q131 -33 147 -111Q154 -141 154 -162Q154 -183 141 -199T108 -216Q65 -216 65 -163Q65 -140 80 -82Q89 -44 90 -31Q96 22 96 56V66Q96 70 96 79T96 93V447H176V187Q176 117 185 90Q199 46 245 46Q303 46 360 112V447H441V128Q441 78 445 64Q452 39 474 39Q504 39 514 100H534Z"  />
<glyph unicode="&#xB6;" horiz-adv-x="664" d="M625 621H536V-104H471V621H392V-104H328V291H263Q163 291 101 334Q34 381 34 468Q34 555 101 602Q163 645 263 645H625V621Z"  />
<glyph unicode="&#xB7;" horiz-adv-x="231" d="M172 309Q172 287 155 272T112 257Q87 257 70 272T52 309Q52 331 69 346T112 361Q137 361 154 346T172 309Z"  />
<glyph unicode="&#xB8;" horiz-adv-x="359" d="M266 -101Q266 -126 246 -141T194 -156Q152 -156 123 -117Q118 -110 118 -104Q118 -96 126 -96Q130 -96 146 -108T179 -121Q215 -121 215 -93Q215 -69 180 -56L194 0H228L217 -45Q266 -61 266 -101Z"  />
<glyph unicode="&#xB9;" horiz-adv-x="288" d="M234 385H85V403H131V650L83 645V662L180 673L188 668V403H234V385Z"  />
<glyph unicode="&#xBA;" horiz-adv-x="327" d="M293 477Q293 434 259 396Q221 354 167 354Q113 354 74 396Q40 434 40 477Q40 520 74 557Q113 598 167 598Q221 598 259 557Q293 520 293 477ZM304 284H26V322H304V284ZM219 464V488Q219 534 214 549Q203 580 167 580Q131 580 119 550Q113 532 113 488V464Q113 419 119 402Q130 372 167 372Q203 372 213 403Q219 419 219 464Z"  />
<glyph unicode="&#xBB;" horiz-adv-x="426" d="M422 258L243 108H214L343 258L214 408H243L422 258ZM266 258L87 108H58L187 258L58 408H87L266 258Z"  />
<glyph unicode="&#xBC;" horiz-adv-x="815" d="M763 197L757 132Q741 130 718 107L712 108Q698 108 695 87Q694 74 693 62L688 14L685 15Q678 15 665 6Q658 1 654 1Q637 -4 628 -4Q632 -4 583 3L580 10L600 88Q600 100 596 109Q586 114 568 114H557Q540 114 532 118H526Q515 118 499 116L475 112L471 116Q479 135 481 165L490 278Q491 304 496 370Q497 382 508 393Q512 397 547 417Q562 414 588 403Q603 400 619 398V382Q619 327 612 274Q613 273 614 267L611 246L614 238Q618 245 623 253Q636 268 662 287L679 285H688L706 284H718Q726 284 729 280Q725 244 722 209Q737 207 763 197ZM515 631Q515 623 504 616L431 437Q409 382 385 300Q381 287 346 161Q322 74 303 21Q291 19 267 4T227 -12H220Q212 -8 198 -8H183Q164 -8 157 0Q182 57 230 171Q244 205 264 287Q273 323 291 407Q296 413 300 427Q309 456 313 462Q342 543 345 554Q360 605 360 651Q361 653 366 656Q369 655 376 651Q386 660 416 662T455 669L462 667Q474 673 480 673L486 671Q487 665 501 651T515 631ZM205 653L204 343Q196 338 185 331T167 312Q145 324 128 324Q119 324 109 319Q94 319 94 334V339L97 403V442Q97 496 102 526L101 561Q95 561 84 559T68 556Q58 556 52 562Q53 565 62 601Q69 626 69 640Q80 647 108 677Q149 665 175 665L200 668L205 653ZM495 633L476 655Q431 645 390 645Q413 637 437 630Q445 620 455 620Q460 620 469 624Q489 633 495 633ZM603 391Q593 391 569 402Q556 408 548 408Q537 408 519 390Q540 384 580 371Q591 375 603 391ZM708 274Q704 276 697 276L679 275Q672 275 666 279Q656 279 634 257L642 253L659 256Q669 256 674 254T681 252Q689 256 692 258Q703 264 708 274ZM718 267Q707 257 681 243L675 185L690 197Q708 202 713 226Q716 247 718 267ZM749 193Q735 193 715 203Q702 195 680 175L704 173Q735 170 749 193ZM753 181L718 161L717 153L720 133L718 125L748 139L753 181ZM608 367L607 378L584 363L581 333L582 326Q577 304 575 265Q574 234 573 203L602 224L599 230L602 233L601 248Q600 262 603 286Q606 314 606 325V339L608 367ZM604 215L577 193L599 194L604 215ZM708 130L705 160Q688 161 662 168Q662 178 666 200T670 234L669 246L660 247L639 245L633 246Q621 238 615 200Q615 180 596 181L575 182Q567 182 562 179Q557 182 557 188Q557 190 559 196T561 206L560 211Q565 236 565 286V302Q570 319 570 351V363L546 369Q540 368 530 374T516 380Q510 380 506 371Q501 350 500 310T496 252T492 208V192Q492 162 486 144L482 127L486 122Q501 127 521 126L556 124Q560 122 580 122Q597 122 606 114L608 95Q608 76 602 52Q592 12 592 10Q607 5 623 5L640 8Q646 36 649 101Q653 114 669 113L694 112Q701 112 706 114Q708 119 708 130ZM180 657Q143 657 112 667Q104 663 98 656L85 641L94 640L118 643Q124 643 130 640T143 637Q164 637 180 657ZM694 101L678 102Q668 103 661 99L660 82L661 66Q659 47 653 10L679 24Q684 65 694 101ZM488 614Q470 610 452 607L445 608Q418 528 392 448Q371 423 361 365Q350 297 340 277Q322 241 306 182Q266 37 258 19L291 31Q304 60 316 105Q326 138 338 181Q356 253 402 403Q434 492 488 614ZM198 644L194 656Q187 650 173 637L176 629L173 626Q179 570 178 547L176 513V501Q176 484 173 476Q168 439 169 410L172 332L192 347L194 352L191 361L194 422Q192 426 192 435V449L191 461Q190 476 195 560Q198 622 198 644ZM431 614Q413 618 378 633Q368 579 341 500Q330 469 313 419Q293 383 283 315Q274 254 252 197L179 7L215 1Q226 1 234 5Q243 29 261 77Q286 143 295 202Q350 320 350 393Q377 447 404 529Q410 548 417 570L431 614ZM169 566Q169 601 164 626H160Q149 626 127 628T93 630H80Q76 620 72 599T64 568Q67 566 74 566Q80 566 91 569T108 572L112 570L109 539L110 524L107 471L108 451L106 448V389Q106 366 103 342L104 338V333Q107 328 109 328Q118 332 129 332Q140 332 148 330L160 327L162 347L159 394Q158 409 162 458Q169 544 169 566Z"  />
<glyph unicode="&#xBD;" horiz-adv-x="815" d="M723 86Q723 76 719 57T714 28V22Q709 21 688 5Q679 -2 671 -2Q664 -2 657 2L598 -1Q585 -2 547 1L491 5Q485 10 485 21L486 32Q490 78 508 120Q528 167 566 193Q588 202 598 207Q616 216 620 231Q620 240 613 255Q607 253 603 247Q594 233 589 233L582 234Q570 233 559 231Q545 228 538 221Q508 235 479 249Q479 258 488 258Q500 320 562 348Q576 353 579 353Q595 358 607 357L647 355L659 356L723 86ZM543 631Q543 623 532 616Q523 594 494 527Q473 477 459 437Q434 372 413 300Q409 287 374 161Q350 74 331 21Q319 19 295 4T255 -12H248Q240 -8 226 -8H211Q192 -8 185 0Q210 57 258 171Q265 188 285 263Q300 318 319 407Q324 413 328 427Q337 456 341 462Q370 543 373 554Q388 605 388 651Q389 653 394 656Q399 654 404 651Q414 660 444 662T483 669L489 667Q492 667 498 670T508 673L514 671Q514 664 528 651T543 631ZM243 653L240 431L242 343Q233 338 227 334Q212 324 205 312Q183 324 166 324Q157 324 147 319Q131 319 131 334L132 339Q134 371 134 403V442Q134 496 140 526L138 561Q132 561 121 559T105 556Q95 556 89 562L107 640Q118 647 132 662L146 677Q187 665 212 665L238 668L243 653ZM526 633L504 655Q457 645 418 645Q441 637 465 630Q473 620 482 620Q488 620 497 624Q517 633 522 633H526ZM726 272Q726 298 715 316Q672 348 621 348Q596 348 564 338L595 327H625Q665 327 685 316Q703 298 703 266Q703 254 701 240Q696 205 696 197V193Q696 190 693 182T690 169Q640 135 590 102L583 89L633 110L636 106Q678 136 679 137Q704 157 710 177Q711 184 720 224Q726 251 726 272ZM723 115L707 149Q688 132 669 116L723 115ZM599 258L582 265Q564 262 551 238Q555 241 578 244Q596 246 599 258ZM218 657Q182 657 149 667Q149 667 123 641L131 640L156 643Q164 643 169 639Q171 638 180 637Q200 637 218 657ZM691 285Q686 296 673 310Q658 315 613 316Q575 318 555 329Q513 317 499 271Q493 265 493 258Q493 252 511 245T532 233Q545 252 549 256Q559 268 570 274L582 276Q601 276 620 262Q631 251 631 232V225Q625 208 572 184L550 164Q539 154 531 143Q515 125 508 92Q505 74 498 37L496 30Q494 25 494 22L496 14Q546 5 584 7L654 10L661 9Q671 9 673 29Q675 53 678 56L677 60Q677 66 681 76L678 83Q638 83 602 73L596 74Q592 74 584 72T571 70L563 72Q570 103 598 120Q607 126 677 171Q691 208 691 285ZM717 97Q711 95 702 86L694 83Q690 73 690 67L691 59L686 37Q684 28 684 21L685 14Q688 18 697 23Q701 25 704 27L717 97ZM705 104L658 107Q655 103 646 102T629 101T614 94T604 87L622 90L641 89L656 91Q661 93 671 93H681Q699 93 705 104ZM516 614Q498 610 480 607L473 608Q446 528 420 448Q401 427 393 388Q371 282 368 277Q349 238 334 182Q294 37 286 19L319 31Q331 56 366 181Q384 255 429 403Q461 493 516 614ZM235 644L231 656Q221 646 211 637L214 629L211 626Q215 587 215 547V531L214 513V501L211 476Q206 435 207 410L210 332L230 347L231 352L229 361Q229 381 231 422L229 435L230 449L229 461Q228 473 232 551Q235 610 235 644ZM459 614Q433 620 431 620Q420 624 406 633Q396 580 341 419Q321 382 311 315Q302 254 280 197L207 7L243 1Q253 1 262 5L298 105Q316 156 323 202Q378 325 378 393Q405 447 432 529Q438 548 445 570L459 614ZM207 566Q207 588 202 626H198Q186 626 159 628L130 630H117Q113 620 109 599T101 568Q105 566 111 566Q117 566 128 569T146 572L149 570Q147 538 147 539V524L144 471L146 451L143 448L144 405L141 333Q144 328 147 328Q156 332 166 332Q173 332 198 327L199 347L196 394Q195 408 203 500Q207 546 207 566Z"  />
<glyph unicode="&#xBE;" horiz-adv-x="815" d="M798 197L792 132Q776 130 753 107L747 108Q733 108 730 87Q729 74 728 62L723 14L720 15Q713 15 700 6Q693 1 689 1Q672 -4 663 -4Q667 -4 618 3L615 10L635 88Q635 100 631 109Q621 114 603 114H592Q575 114 567 118H561Q550 118 534 116L510 112L506 116Q514 135 516 165L525 278Q526 304 531 370Q532 382 543 393Q547 397 582 417Q597 414 623 403Q634 402 654 398V382Q654 327 647 274Q648 273 649 267L646 246L649 238Q653 245 658 253Q671 268 697 287L714 285H723L741 284H753Q761 284 764 280Q760 244 757 209Q772 207 798 197ZM570 631Q570 623 559 616L486 437Q464 382 440 300Q436 287 401 161Q377 74 358 21Q346 19 322 4T282 -12H275Q267 -8 253 -8H238Q219 -8 212 0Q237 57 285 171Q299 205 319 287Q328 323 346 407Q351 413 355 427Q364 456 368 462Q397 543 400 554Q415 605 415 651Q416 653 421 656Q424 655 431 651Q441 660 471 662T510 669L517 667Q529 673 535 673L541 671Q542 665 556 651T570 631ZM285 563Q285 540 278 522L279 517Q279 509 266 489Q259 478 259 472Q259 465 264 459Q277 430 277 402Q277 371 260 347Q221 311 206 302Q184 289 164 289L139 286Q120 286 101 291L62 301Q42 314 29 345Q27 351 17 377Q17 391 42 412Q54 422 57 435Q58 437 61 438L70 437L73 438L111 448L113 443L112 439Q114 434 116 433L146 396Q157 396 161 401Q157 418 156 421Q152 431 141 435L124 437L127 487L125 505L173 561Q161 569 153 569L144 567Q138 567 127 557T112 546Q105 546 100 560Q99 563 91 574Q87 593 77 594Q94 623 125 647Q153 657 155 658Q173 664 187 664H189Q225 655 236 650Q261 638 272 614Q276 612 277 606T280 597Q285 580 285 563ZM550 633L531 655Q486 645 445 645Q468 637 492 630Q500 620 510 620Q515 620 524 624Q544 633 550 633ZM638 391Q628 391 604 402Q591 408 583 408Q572 408 554 390Q575 384 615 371Q626 375 638 391ZM743 274Q739 276 732 276L714 275Q707 275 701 279Q691 279 669 257L677 253L694 256Q704 256 709 254T716 252Q724 256 727 258Q738 264 743 274ZM753 267Q742 257 716 243L710 185L725 197Q743 202 748 226Q751 247 753 267ZM784 193Q770 193 750 203Q737 195 715 175L739 173Q770 170 784 193ZM788 181Q781 175 753 161L752 153L755 133L753 125L783 139L788 181ZM643 367L642 378L619 363L616 333L617 326Q612 304 610 265Q609 234 608 203L637 224L634 230L637 233L636 248Q635 262 638 286Q641 314 641 325V339L643 367ZM639 215L612 193L634 194L639 215ZM743 130L740 160Q723 161 697 168Q697 178 701 200T705 234L704 246L695 247L674 245L668 246Q656 238 650 200Q650 180 631 181L610 182Q602 182 597 179Q592 182 592 188Q592 190 594 196T596 206L595 211Q600 236 600 286V302Q605 319 605 351V363L581 369Q575 368 565 374T551 380Q545 380 541 371Q536 350 535 310T531 252T527 208V192Q527 162 521 144L517 127L521 122Q536 127 556 126L591 124Q595 122 615 122Q632 122 641 114L643 95Q643 76 637 52Q627 12 627 10Q642 5 658 5L675 8Q681 36 684 101Q688 114 704 113L729 112Q736 112 741 114Q743 119 743 130ZM729 101L713 102Q703 103 696 99L695 82L696 66Q694 47 688 10L714 24Q719 65 729 101ZM274 562Q278 610 239 638Q236 639 213 647Q196 653 186 653L177 652Q151 649 148 648Q132 645 125 634L99 611Q111 621 161 630H166Q175 630 199 620Q213 614 220 614Q247 595 247 553V544Q244 538 240 511Q238 491 226 481Q230 481 235 483L245 486L250 485Q265 500 272 536L274 562ZM543 614Q525 610 507 607L500 608Q473 528 447 448Q426 423 416 365Q405 297 395 277Q377 241 361 182Q321 37 313 19L346 31Q359 60 371 105Q381 138 393 181Q411 253 457 403Q489 492 543 614ZM173 544L159 538Q154 532 150 526Q162 531 164 532Q172 536 173 544ZM486 614Q468 618 433 633Q423 579 396 500Q385 469 368 419Q348 383 338 315Q329 254 307 197L234 7L270 1Q281 1 289 5Q298 29 316 77Q341 143 350 202Q405 320 405 393Q432 447 459 529Q465 548 472 570L486 614ZM267 401Q267 438 244 476Q241 475 214 464Q222 455 228 446L236 432Q247 396 245 370L243 344L254 355Q267 375 267 401ZM237 560Q237 573 232 582Q228 597 208 607Q190 613 173 619H165Q119 619 94 594Q101 572 114 560Q130 571 133 573Q145 580 155 580L168 577Q186 571 186 552L185 544Q183 529 166 519Q145 507 137 502L135 459L136 444Q156 444 172 411V397Q172 369 155 357Q133 347 128 347Q121 348 119 349Q98 362 79 400L60 396Q49 393 27 382Q31 328 70 307Q105 299 140 292Q172 298 181 301Q207 308 216 318T235 379Q230 410 229 415Q225 432 215 446L195 472Q209 481 228 502Q228 513 232 532T237 560ZM159 386H149Q138 386 126 405Q111 427 104 431Q99 425 95 419T90 407Q98 391 99 390T123 360H131Q140 360 145 364Q159 374 159 386ZM95 435Q77 431 60 427Q56 413 42 401Q46 405 64 409Q79 413 82 420Q86 421 95 435Z"  />
<glyph unicode="&#xBF;" horiz-adv-x="415" d="M292 448Q292 425 275 409T232 393Q207 393 190 409T172 448Q172 472 189 488T232 504Q257 504 274 488T292 448ZM369 -38Q369 -77 325 -105Q277 -134 202 -134Q125 -134 82 -99T38 2Q38 46 64 85Q81 111 124 148Q153 174 182 199Q221 237 221 256Q221 282 220 290Q218 306 218 310Q218 321 231 321Q241 321 243 311Q256 252 256 212Q256 173 246 152Q230 118 197 85Q143 33 138 28Q101 -15 101 -46Q101 -72 124 -90Q151 -110 200 -110Q247 -110 275 -99Q295 -90 295 -85Q295 -85 294 -87Q247 -78 247 -37Q247 -14 264 1T309 16Q335 16 352 1T369 -38Z"  />
<glyph unicode="&#xD7;" horiz-adv-x="558" d="M463 128L400 88L273 215L143 86L92 123L231 262L92 401L157 438L281 313L406 438L462 405L324 267L463 128Z"  />
<glyph unicode="&#xF7;" horiz-adv-x="554" d="M336 428L285 367H279Q247 381 216 415V419L270 480H275Q298 449 336 428ZM487 303L460 238H67L94 303H487ZM338 122L287 61H281Q246 74 218 109V113L272 174H277Q295 144 338 122Z"  />
<glyph unicode="&#x192;" horiz-adv-x="500" d="M488 623Q488 585 455 585Q443 585 434 593T424 612Q424 619 429 629T435 642Q435 655 417 655Q376 655 354 558Q345 493 335 427H422L414 395H329Q303 261 245 49Q200 -116 145 -170Q104 -210 61 -210Q36 -210 19 -197T1 -159Q1 -142 11 -129T39 -116Q50 -116 60 -124T70 -143Q70 -151 65 -160T59 -171Q59 -181 71 -181Q95 -181 118 -145Q131 -123 147 -59Q151 -41 189 144Q192 159 249 395H163L170 427L214 431Q244 436 259 462Q266 473 281 516Q306 590 327 621Q365 677 421 677Q448 677 467 664Q488 648 488 623Z"  />
<glyph unicode="&#x2C9;" horiz-adv-x="454" d="M360 516H107V543H360V516Z"  />
<glyph unicode="&#x3BC;" horiz-adv-x="576" d="M534 100Q526 -14 438 -14Q369 -14 360 79Q281 -14 207 -14Q162 -14 131 28Q131 13 131 5Q131 -33 147 -111Q154 -141 154 -162Q154 -183 141 -199T108 -216Q65 -216 65 -163Q65 -140 80 -82Q89 -44 90 -31Q96 22 96 56V66Q96 70 96 79T96 93V447H176V187Q176 117 185 90Q199 46 245 46Q303 46 360 112V447H441V128Q441 78 445 64Q452 39 474 39Q504 39 514 100H534Z"  />
<glyph unicode="&#x5B0;" horiz-adv-x="84" d="M84 -124Q84 -142 72 -154T42 -166Q24 -166 12 -154T0 -124Q0 -106 12 -94T42 -82Q60 -82 72 -94T84 -124ZM84 -251Q84 -269 72 -281T42 -293Q24 -293 12 -281T0 -251Q0 -233 12 -221T42 -209Q60 -209 72 -221T84 -251Z"  />
<glyph unicode="&#x5B1;" horiz-adv-x="342" d="M342 -124Q342 -142 330 -154T300 -166Q282 -166 271 -154T259 -124Q259 -106 270 -94T300 -82Q318 -82 330 -94T342 -124ZM342 -249Q342 -267 330 -279T300 -291Q282 -291 271 -279T259 -249Q259 -232 271 -220T300 -208Q318 -208 330 -219T342 -249ZM213 -124Q213 -142 201 -154T171 -166Q153 -166 141 -154T129 -124Q129 -106 141 -94T171 -82Q189 -82 201 -94T213 -124ZM84 -124Q84 -142 72 -154T41 -166Q23 -166 12 -154T0 -124Q0 -82 41 -82Q59 -82 71 -94T84 -124ZM148 -249Q148 -267 137 -279T107 -291Q89 -291 77 -279T65 -249Q65 -231 77 -220T107 -208Q124 -208 136 -220T148 -249Z"  />
<glyph unicode="&#x5B2;" horiz-adv-x="329" d="M329 -124Q329 -142 317 -154T287 -166Q269 -166 257 -154T245 -124Q245 -106 257 -94T287 -82Q305 -82 317 -94T329 -124ZM329 -249Q329 -267 317 -279T287 -291Q269 -291 257 -279T245 -249Q245 -231 257 -220T287 -208Q305 -208 317 -219T329 -249ZM193 -151H0V-97H193V-151Z"  />
<glyph unicode="&#x5B3;" horiz-adv-x="328" d="M328 -124Q328 -142 316 -154T286 -166Q268 -166 256 -154T244 -124Q244 -106 256 -94T286 -82Q304 -82 316 -94T328 -124ZM328 -249Q328 -267 316 -279T286 -291Q268 -291 256 -279T244 -249Q244 -231 256 -220T286 -208Q304 -208 316 -219T328 -249ZM193 -151H116L124 -227V-284H69V-227Q69 -202 77 -151H0V-97H193V-151Z"  />
<glyph unicode="&#x5B4;" horiz-adv-x="84" d="M84 -124Q84 -142 72 -154T42 -166Q24 -166 12 -154T0 -124Q0 -106 12 -94T42 -82Q60 -82 72 -94T84 -124Z"  />
<glyph unicode="&#x5B5;" horiz-adv-x="213" d="M213 -124Q213 -142 201 -154T171 -166Q153 -166 141 -154T129 -124Q129 -106 141 -94T171 -82Q189 -82 201 -94T213 -124ZM84 -124Q84 -142 72 -154T41 -166Q23 -166 12 -154T0 -124Q0 -82 41 -82Q59 -82 71 -94T84 -124Z"  />
<glyph unicode="&#x5B6;" horiz-adv-x="213" d="M213 -124Q213 -142 201 -154T171 -166Q153 -166 141 -154T129 -124Q129 -106 141 -94T171 -82Q189 -82 201 -94T213 -124ZM84 -124Q84 -142 72 -154T41 -166Q23 -166 12 -154T0 -124Q0 -82 41 -82Q59 -82 71 -94T84 -124ZM148 -249Q148 -267 137 -279T107 -291Q89 -291 77 -279T65 -249Q65 -231 77 -220T107 -208Q124 -208 136 -220T148 -249Z"  />
<glyph unicode="&#x5B7;" horiz-adv-x="193" d="M193 -151H0V-97H193V-151Z"  />
<glyph unicode="&#x5B8;" horiz-adv-x="193" d="M193 -151H116L124 -227V-284H69V-227Q69 -202 77 -151H0V-97H193V-151Z"  />
<glyph unicode="&#x5B9;" horiz-adv-x="84" d="M84 609Q84 591 72 579T42 567Q24 567 12 579T0 609Q0 627 12 639T42 651Q60 651 72 639T84 609Z"  />
<glyph unicode="&#x5BB;" horiz-adv-x="237" d="M237 -269Q237 -308 199 -308Q160 -308 160 -270Q160 -254 171 -243T198 -231Q237 -231 237 -269ZM157 -194Q157 -210 147 -221T120 -233Q104 -233 93 -222T81 -195Q81 -179 91 -168T118 -156Q157 -156 157 -194ZM76 -120Q76 -136 66 -147T39 -158Q23 -158 12 -148T0 -121Q0 -82 38 -82Q54 -82 65 -93T76 -120Z"  />
<glyph unicode="&#x5BC;" horiz-adv-x="0" d="M231 297L229 266Q219 244 191 233Q153 218 145 211L136 213Q128 213 102 201Q89 195 82 195Q70 195 62 215Q41 236 41 269Q41 310 74 331L73 334Q73 335 81 337T89 345Q103 345 132 359T175 373Q194 373 209 355Q234 338 231 297ZM213 274V286Q213 344 178 357L169 359Q162 359 147 350T124 341L143 337Q176 330 181 289Q182 275 186 247Q204 254 213 274ZM168 262Q163 271 164 279L165 294Q166 307 152 316Q116 325 117 325Q108 325 103 321Q102 323 98 325Q89 321 84 321Q56 307 56 274Q56 248 74 227Q82 212 86 212L91 213Q96 217 136 231Q165 241 168 262Z"  />
<glyph unicode="&#x5BD;" horiz-adv-x="45" d="M45 -193H0V-66H45V-193Z"  />
<glyph unicode="&#x5BE;" horiz-adv-x="580" d="M424 471L421 448Q406 448 380 433T338 417L189 415Q177 411 166 407H161L159 426Q159 439 165 465T171 506L163 515Q163 524 179 535Q196 540 219 557L242 574Q271 574 295 576L384 583L411 582Q417 572 417 554V540Q417 524 421 515L424 471ZM409 488Q410 499 408 524T405 559L376 533L372 523Q379 510 378 497L375 458L376 446Q379 448 388 453L407 462L409 488ZM389 570L356 568Q331 563 311 564L291 565Q230 568 200 531L281 538L334 535Q349 534 364 539Q365 547 376 556T389 570ZM363 504L360 519L357 520Q356 520 346 515Q323 521 285 521Q253 521 187 513L171 423Q201 431 263 431T356 440L355 449Q355 458 359 476T363 504Z"  />
<glyph unicode="&#x5BF;" horiz-adv-x="194" d="M194 596H0V691H194V596Z"  />
<glyph unicode="&#x5C0;" horiz-adv-x="264" d="M148 -82H108V622H148V-82Z"  />
<glyph unicode="&#x5C1;" horiz-adv-x="550" d="M544 609Q544 591 532 579T502 567Q484 567 472 579T460 609Q460 627 472 639T502 651Q520 651 532 639T544 609Z"  />
<glyph unicode="&#x5C2;" horiz-adv-x="550" d="M84 609Q84 591 72 579T42 567Q24 567 12 579T0 609Q0 627 12 639T42 651Q60 651 72 639T84 609Z"  />
<glyph unicode="&#x5C3;" horiz-adv-x="332" d="M207 300L126 219L46 300L126 381L207 300ZM207 58L126 -23L46 58L126 140L207 58Z"  />
<glyph unicode="&#x5D0;" horiz-adv-x="500" d="M479 486Q462 437 426 373L365 265Q374 241 393 202Q415 156 422 139Q446 117 446 98Q439 93 418 63Q402 39 383 37Q381 36 346 22Q321 12 316 -6Q303 -6 301 8Q297 27 296 29Q288 40 269 82Q254 115 235 128Q223 91 212 35Q184 27 172 22Q147 12 141 -4Q99 2 103 2Q92 13 70 21L42 32Q35 34 33 39Q41 49 41 56L40 59Q43 67 49 90Q54 109 66 118Q95 206 125 295Q106 331 64 433L65 436Q65 443 54 460Q48 469 48 473Q48 480 58 486Q65 495 84 523Q95 538 103 545L114 544Q129 544 170 562Q193 572 206 572L220 555L219 547Q219 535 228 513T238 482T254 451T269 417Q287 425 312 480Q334 529 369 533Q379 547 397 549Q408 543 435 518Q458 496 476 492L479 486ZM440 490Q437 501 422 510Q401 523 397 527H392Q383 527 348 506Q378 488 409 470L440 490ZM460 476L440 472Q428 470 417 449T399 423Q399 414 393 406Q384 394 383 391Q351 331 320 271Q320 271 335 277T359 291Q422 386 460 476ZM265 391Q259 396 255 411T247 431Q232 448 221 479Q214 506 206 533L180 504L186 498Q194 477 212 424Q227 380 249 356Q256 368 265 391ZM196 553H192Q182 553 155 541T112 529L84 498Q152 513 166 513L196 553ZM426 108Q409 127 381 195L361 226Q358 237 354 249T340 262L334 261L318 250Q347 156 405 76Q426 97 426 108ZM399 452Q384 464 353 486Q341 494 335 494Q330 490 330 486Q326 466 299 425T271 360Q262 343 259 339Q251 328 241 324Q235 325 235 334L236 345L235 348Q210 371 195 424Q178 484 166 502Q156 496 117 490Q84 484 68 470Q74 465 80 441Q87 412 110 365Q141 302 145 291L80 114Q66 99 52 43Q77 40 111 15L124 13Q137 13 142 36Q148 64 155 69Q179 136 204 204Q223 189 226 185Q235 175 239 159Q247 143 250 136Q257 124 269 120Q278 91 318 25Q326 36 353 42T389 59Q375 98 346 137L302 264Q302 295 324 321L323 326Q323 329 332 334T342 344Q370 398 399 452ZM226 143Q226 164 208 179Q198 136 155 31Q164 31 177 40T198 51L226 143Z"  />
<glyph unicode="&#x5D1;" horiz-adv-x="457" d="M444 118Q444 82 430 35Q412 35 392 14Q378 -1 373 -4Q349 4 313 6Q215 12 209 13L198 17Q182 17 151 10T104 3L79 6L72 5Q67 5 56 8T38 11L36 21V36Q36 89 26 110Q28 111 30 117L26 130Q47 157 68 185H72Q76 185 93 179Q101 176 107 175L225 185Q230 200 230 213Q230 223 227 244T223 275Q223 288 227 299Q225 313 225 331V363Q225 380 221 391Q201 381 178 381Q165 381 140 386T103 391Q83 381 66 381Q58 381 50 387Q52 395 52 404V416Q52 428 50 452T48 488Q53 492 71 524Q84 547 100 547L111 545Q137 545 188 551T265 557H276Q285 551 321 547T367 535L372 536Q389 536 389 523Q389 476 386 384T383 244Q382 238 378 221T373 198Q373 184 385 177Q393 177 401 171T412 163H438Q444 140 444 118ZM353 525L349 533L336 532Q327 531 305 536Q263 545 253 545L235 543Q215 535 174 535H144Q117 535 97 531L74 494Q97 488 117 488Q140 488 212 504Q248 512 268 512Q294 512 318 502L353 525ZM373 480Q373 480 373 497Q370 509 369 515L335 492L334 471Q333 451 337 413T341 358V324Q324 283 326 240L329 149L359 185Q355 190 355 197Q355 201 359 213T365 230V251Q365 288 367 330Q371 414 371 400V429L373 480ZM404 149Q397 150 389 158T374 167Q361 167 353 154Q342 135 337 132L345 131Q361 131 381 141L388 139Q397 139 404 149ZM429 127L428 141Q412 131 396 122Q391 75 387 29Q395 35 402 41T418 47Q430 109 429 127ZM378 112L375 118Q370 114 360 114H339Q328 108 318 102Q312 106 310 108V263Q324 303 324 355Q324 362 318 482Q311 495 288 495H275L261 496H257Q235 496 163 480Q127 472 107 472Q88 472 68 478L62 474Q65 462 67 436L70 399L85 401Q95 406 109 406Q120 406 142 402T174 397Q192 397 205 405L211 404L233 406Q245 406 245 392Q240 372 241 354L243 296Q243 296 243 277Q240 265 239 259Q245 246 245 222Q245 204 243 188Q236 132 236 129L237 114Q235 110 228 106Q216 110 209 110Q171 105 139 105Q104 105 76 112L44 120V112Q44 102 49 79T53 48L52 33L55 28L50 21Q68 16 93 16Q117 16 149 22L198 31Q222 20 254 21L309 23Q343 24 365 13L375 106L378 112ZM221 167L218 168L209 165Q205 167 205 169Q181 161 143 161H108Q99 163 87 165L82 166Q71 166 52 135Q103 122 145 122Q178 122 219 128L221 167Z"  />
<glyph unicode="&#x5D2;" horiz-adv-x="373" d="M349 122Q349 106 324 78T298 32L288 30Q281 30 264 27T239 24L227 25Q220 15 210 15L205 16Q205 31 193 59L182 57Q164 44 148 30Q139 22 115 -2Q69 16 24 35L23 41Q23 50 35 65T50 86L127 163L136 184Q143 197 154 199Q154 206 149 219T144 237Q144 245 148 250L146 405Q141 406 124 415T95 425Q84 425 77 419H62Q65 455 75 525L132 579L274 551Q299 546 299 500V493L300 472Q296 452 296 428Q296 407 309 320Q316 273 315 253L314 234V229Q314 211 326 178T339 131V126L349 122ZM262 539L138 563Q129 551 107 529Q125 520 191 508Q199 504 208 504Q223 504 239 517Q256 534 262 539ZM337 118L325 124Q312 157 305 190Q295 231 297 254L300 289Q281 329 281 379Q281 395 283 432L285 470Q285 500 278 527L241 496Q246 458 245 424L244 371L247 307Q249 267 267 187Q279 136 298 71L324 97Q335 108 337 118ZM280 59V64Q280 84 270 104Q248 178 237 250Q224 336 226 401L229 488Q175 500 161 500H156Q146 500 126 506T98 513L85 510V498Q85 486 83 467Q81 443 81 437Q91 444 101 444Q114 444 125 437L164 413L165 383L162 285Q161 240 172 208L174 200Q174 193 160 183T144 169Q135 148 89 102Q73 97 42 47Q66 35 111 18Q120 42 150 86Q160 92 160 98Q171 120 184 120Q197 94 219 41Q224 43 233 43L256 42Q275 41 280 59ZM184 75Q183 81 180 92Q178 86 159 67Q149 57 148 49L184 75Z"  />
<glyph unicode="&#x5D3;" horiz-adv-x="500" d="M472 433Q444 417 438 413Q419 399 416 383Q414 379 405 375Q403 375 397 380T386 385L377 381L380 316Q380 306 378 235L376 174Q376 114 385 66Q344 30 318 -4H314Q306 -4 306 1Q289 12 267 11L220 8L206 9L205 16Q205 23 208 36T212 56Q214 72 214 79V98Q214 113 212 151L210 190L209 219Q207 278 222 372L216 377Q182 379 165 379H57Q46 381 42 381Q37 422 38 453L40 501L46 505L52 503H56Q60 505 88 529Q98 538 109 541L107 545V549Q121 555 144 555Q155 555 176 553T208 551L214 547L269 545Q311 543 381 553Q383 552 428 542Q456 536 464 517V505Q464 459 472 433ZM452 451Q452 459 449 473T446 496Q446 505 448 509Q436 502 430 499Q419 492 418 484L420 474Q416 458 416 446V417L428 425Q452 432 452 451ZM436 521L409 531Q395 536 390 536H382Q370 536 347 532T312 528L290 531L263 530Q244 529 214 532Q136 539 130 539H115L117 527Q106 524 95 516L60 492V488H104Q131 488 147 496L189 498L229 497L269 499Q306 489 334 489Q360 489 387 498L398 495Q406 495 418 507T436 521ZM368 84Q368 92 359 106V121Q359 154 362 221T365 321V363Q363 375 363 381H344L326 383V249Q324 243 324 229Q324 220 326 201T328 173Q326 155 326 137Q326 120 328 85T330 33Q331 35 353 57Q368 74 368 84ZM401 465V476L397 478Q391 471 386 471L383 472L368 473L325 471Q308 470 288 478Q274 478 247 480T205 483Q159 483 125 470Q117 475 109 475Q101 475 86 471T64 466L52 468L50 432Q50 432 50 416Q50 409 54 393H212Q236 386 239 374Q224 335 224 262V173Q224 158 227 128T230 82Q230 48 222 25L247 23Q253 29 263 29Q269 29 289 22Q300 18 305 18L312 19Q312 72 310 196L308 377L310 382L308 394Q311 400 314 401L391 399L397 403Q397 413 399 434T401 465Z"  />
<glyph unicode="&#x5D4;" horiz-adv-x="522" d="M492 496Q492 468 487 439L479 389Q473 358 473 322Q473 292 480 202Q484 151 484 129Q484 87 479 59Q465 50 452 37Q446 31 414 -8L409 -10Q402 -4 402 -2Q389 -2 363 3T323 9Q303 9 292 3Q286 15 286 35Q286 50 290 78T295 121V125Q300 138 300 153Q300 165 296 188T292 224V243Q292 265 294 308T297 372V377Q292 383 281 383Q274 383 262 379Q202 387 173 387Q138 387 110 377H106L80 375Q65 374 63 387Q66 397 65 412L63 460Q62 483 71 501H77Q85 504 118 534Q131 546 143 546Q155 546 169 535Q201 533 234 533H314Q414 533 465 515Q467 510 479 507T492 496ZM223 55Q218 43 208 31Q181 -1 177 -6Q171 -15 166 -15Q162 -15 153 -10T139 -5L134 -6Q119 -6 101 -4Q57 1 48 1H45L48 78Q49 108 40 143V186Q40 223 36 259L79 305H106Q122 305 130 307Q130 307 176 294Q205 286 213 267V213Q213 111 223 55ZM457 503L451 507Q361 521 241 521H197L185 520Q178 519 161 523T137 527Q118 527 108 505Q186 505 286 488L354 498Q369 498 386 492Q395 480 407 480Q417 480 432 489Q453 502 457 503ZM475 494Q423 494 426 432L428 384L425 356Q419 332 419 307Q419 276 425 249Q430 226 430 193Q430 166 424 114T418 34V19Q425 28 434 37Q456 59 461 66Q467 104 467 137Q467 160 464 205T461 274V293L459 326Q457 355 466 409Q475 469 475 494ZM416 462L383 477Q366 484 350 484Q314 476 278 476Q248 476 218 479Q129 488 118 488Q94 488 81 486L82 479L79 449Q79 440 80 436T83 420T85 404L83 393H116Q153 403 180 403Q202 403 223 397Q228 395 238 395Q246 395 263 398T288 401H294Q296 397 306 394T316 389Q313 383 311 381Q311 360 308 318T304 254Q304 190 315 145Q308 122 307 84Q304 33 303 23L318 24Q324 24 398 13Q402 30 402 51V74Q402 106 410 123L411 190Q411 238 404 277L403 305Q402 322 407 363Q416 442 416 462ZM177 275Q167 277 148 285H143L102 287Q69 289 61 261Q65 257 76 257H82Q93 257 97 254T109 251L128 252Q142 253 148 242L152 246Q161 246 168 257Q172 266 177 275ZM205 56Q205 63 202 76T199 97L201 108Q195 131 195 153Q195 166 197 193T200 233L197 265L179 242L164 222L161 189Q161 166 177 88Q185 49 185 27Q205 37 205 56ZM164 43Q165 59 158 101Q143 188 144 205L146 232L144 230Q135 232 134 234L51 244V239Q51 230 53 226L50 194Q50 171 57 126T64 57Q64 31 59 13L162 7V13L158 15L162 19L164 43Z"  />
<glyph unicode="&#x5D5;" horiz-adv-x="258" d="M224 535Q217 521 217 514V477Q217 433 214 345T211 213Q211 149 217 84Q215 84 213 80L217 73Q213 59 202 45Q187 22 165 -2Q160 -2 150 3T134 8Q123 8 101 6T68 4H48Q38 7 34 8Q45 37 44 79L43 131Q43 131 43 154Q43 162 45 176T48 199V257Q48 290 55 313Q42 358 42 439V486Q36 491 36 498Q50 510 63 523Q94 555 114 555Q128 555 142 545L177 543L215 545Q224 541 224 535ZM180 527L171 526Q159 526 148 529L126 535Q116 540 110 540Q98 540 87 531Q85 529 69 512L80 513Q87 513 108 511L130 509L140 510Q146 505 151 505Q159 505 168 514T180 527ZM205 525L170 496L172 425L168 390Q175 335 174 267L171 85L172 31Q201 50 201 87Q201 97 198 118T195 149Q195 166 196 199T197 249V351Q197 461 205 525ZM154 153Q154 190 152 278L150 375Q150 394 152 439L154 486Q129 496 94 494L55 492L59 481Q57 474 55 472L53 445Q52 431 63 355Q68 320 68 300Q68 274 61 250L60 194V113Q60 66 52 21L152 19L154 153Z"  />
<glyph unicode="&#x5D6;" horiz-adv-x="366" d="M344 506Q345 486 341 450Q336 411 336 394Q334 392 306 384Q286 378 282 364L255 360L257 329Q258 317 254 282Q247 217 247 198Q247 172 253 145V43Q238 37 192 -2L177 -3Q164 -4 139 1T101 5L84 4L74 10Q88 68 88 138Q88 193 82 250Q84 294 97 380Q91 382 81 384Q64 388 54 388Q38 388 29 380Q28 381 27 388L30 407L29 413L28 431Q27 446 31 476T36 519Q44 522 61 543T88 565Q98 565 109 549Q126 543 152 541L180 539L252 541Q252 541 282 541Q296 538 302 537L308 538Q314 538 325 534Q340 530 343 529L344 506ZM328 497L327 500Q324 500 324 497T322 492Q299 479 295 449L286 392L320 401Q320 417 324 449T328 497ZM320 516Q314 522 310 523Q299 519 285 519Q273 519 237 525Q217 521 191 521Q135 521 84 543L58 519Q109 511 210 492L220 490Q227 490 240 494T260 498Q269 498 275 492L288 489Q299 489 306 497Q315 510 320 516ZM280 470Q275 470 267 475T255 480Q249 478 247 476Q193 476 126 488Q97 493 52 504Q44 484 44 442V429L47 416L44 403Q62 401 81 399T113 386Q106 350 100 314L103 295Q97 266 97 241Q97 223 100 187T103 133V109Q103 94 98 64T92 18L105 20Q115 20 135 16T165 11L182 14Q182 30 183 61T184 108V166Q184 247 188 291Q191 299 190 311L188 354Q187 373 196 386L265 378Q273 392 273 416V435Q273 457 280 470ZM241 324L239 364H208L207 361L209 351Q208 347 206 346Q208 339 208 331V316Q208 314 200 230Q200 213 201 180T202 130V31L235 53V102L232 153Q231 172 234 216L241 324Z"  />
<glyph unicode="&#x5D7;" horiz-adv-x="472" d="M439 86Q439 69 393 29Q392 23 383 15T373 2Q356 9 328 8L281 7L261 8Q259 36 259 48V62L262 184L261 216Q263 228 263 249Q263 263 261 290T259 332Q264 335 264 344T265 354L218 352L219 331Q220 312 212 272Q196 192 196 171Q198 164 198 156Q198 141 198 141L196 77Q195 60 198 47Q193 38 167 27Q145 18 143 2L135 -2L66 4Q65 2 59 0L45 3L41 2L35 8Q60 107 57 202L55 271Q48 302 43 356L31 470L35 490Q55 503 90 547L111 548Q125 549 152 546T191 543Q213 543 234 549L250 550Q266 551 298 543Q363 527 381 527L401 529Q409 529 432 516L431 507Q434 502 437 502L438 495Q438 472 435 448Q426 373 426 366L427 348L428 307V255Q428 208 434 181L433 170L436 124Q437 113 434 104Q439 92 439 86ZM405 516Q347 516 306 523Q289 533 247 533H228Q216 529 199 529Q187 529 163 532T127 535Q83 535 68 496H74Q84 496 104 500T136 504Q158 499 190 499Q210 499 232 501Q288 506 301 506Q337 506 368 494Q381 501 387 504Q399 510 405 516ZM427 504Q394 493 383 482Q385 476 385 463Q385 475 381 407Q376 393 377 381L379 347Q380 336 373 319Q380 295 379 260L377 180Q377 180 377 161Q377 152 379 140Q386 127 386 115Q386 106 383 93Q376 63 376 55L379 37Q380 41 388 47T397 59Q413 63 416 79Q421 106 421 106Q421 145 416 221T411 337Q411 420 427 504ZM368 116Q360 142 361 185L362 250Q362 274 358 305Q358 333 363 388T368 472L364 468Q362 468 354 484Q338 484 320 486Q270 491 261 491L242 490Q222 482 198 482Q187 482 165 484T132 486Q108 486 92 480L84 479L64 480Q49 481 47 468Q52 433 57 379L62 315Q66 311 66 304L65 288Q65 280 70 275L72 175Q73 130 64 69Q64 62 59 49T54 29Q54 22 56 18L123 14L129 30L127 39Q131 57 131 93V139Q131 149 133 162L136 182Q137 188 141 193L140 197Q140 201 151 212Q153 222 153 233V250Q153 279 152 293L147 376Q150 384 156 384L176 380H182Q191 380 204 376Q233 367 240 367L257 370Q261 370 267 373T275 376Q280 375 281 374L282 367Q282 358 277 340T272 313L275 299L278 240Q279 213 275 160T272 79L275 19H289Q298 22 309 21L344 19L360 21Q358 31 358 44Q358 66 368 116ZM200 331L198 358L165 364Q168 358 167 349L165 319Q164 309 169 299L171 250Q172 216 155 187V183Q155 159 151 112T147 41V37L157 39Q182 44 181 66L180 88Q180 98 182 104Q177 129 177 149Q177 177 184 217Q201 315 200 331Z"  />
<glyph unicode="&#x5D8;" horiz-adv-x="557" d="M546 415Q546 304 518 176Q510 138 483 107T418 64Q405 52 379 37L337 13Q330 15 321 15H307Q282 15 249 10Q170 -2 150 -2Q121 -2 97 5L46 9Q48 66 51 124Q54 191 66 237Q66 306 50 407L34 507Q24 517 24 532Q33 538 59 571Q80 598 99 598Q109 598 121 592L136 593Q142 593 186 588Q202 586 217 586H221Q234 559 233 526L230 460L233 428Q233 404 230 356T227 284Q227 224 239 184Q250 176 265 176L280 178Q309 182 341 210Q349 228 352 277Q355 323 367 342L366 352Q366 362 374 385Q378 396 379 405Q367 411 319 425Q295 432 282 438Q282 455 299 484T318 529Q326 537 354 547Q379 556 386 570Q404 563 480 548Q512 542 536 533Q546 477 546 415ZM520 521Q468 545 416 545Q407 553 397 553Q389 553 369 540Q358 533 351 531L483 487Q486 493 502 501T520 521ZM529 392L528 499L522 493Q513 493 506 482T491 470Q487 432 487 378V301Q487 209 473 153Q467 131 457 102Q467 110 495 147Q530 243 529 392ZM194 574Q153 574 103 582Q80 575 50 543H58Q72 552 92 552Q96 552 147 546Q179 546 194 574ZM222 495L219 562L213 570Q206 563 193 554Q168 537 166 523V505Q166 460 182 315Q190 242 190 200V166Q188 154 188 149L219 174L221 212Q215 246 215 301Q215 328 220 398Q224 460 222 495ZM475 432Q475 457 472 465Q468 480 449 486Q415 497 334 517H327Q327 502 309 474Q298 457 296 448Q313 437 367 426Q395 426 395 406Q395 398 386 372Q381 357 381 351L383 342Q368 324 368 287V274L365 243Q354 195 347 173Q334 132 302 119H298Q285 119 267 116Q224 109 213 109Q186 109 166 123Q174 157 174 206Q174 243 158 377Q149 454 150 483L152 529Q135 535 115 535Q90 535 54 527V523L50 521L42 525Q41 522 46 511Q46 478 67 348Q77 286 77 245V237Q64 194 58 33L52 23Q109 15 167 8L182 9Q202 10 260 18Q310 25 337 25L438 102Q471 166 471 275Q471 293 469 335L467 377Q475 401 475 432ZM329 178H323Q305 162 269 162H255Q209 162 192 131L203 125Q253 133 296 133Q321 138 329 178Z"  />
<glyph unicode="&#x5D9;" horiz-adv-x="246" d="M211 473Q211 448 209 399T206 325Q189 325 174 310Q140 277 130 277Q124 277 110 283T82 289Q67 289 46 282L34 286Q34 307 40 332Q54 390 54 406Q54 469 44 506L50 516L107 557Q129 547 156 548L184 549L202 548Q204 536 211 514V473ZM182 534L165 531Q156 531 138 534T110 538Q84 538 74 512Q113 500 152 500Q164 506 182 534ZM196 457L194 518Q188 515 178 500T159 484L154 485Q148 426 148 331V309Q160 319 188 333Q198 407 196 457ZM139 483Q127 483 104 489T70 496H64Q68 473 68 445Q68 426 54 303L66 304Q64 304 127 296Q139 397 139 483Z"  />
<glyph unicode="&#x5DA;" horiz-adv-x="450" d="M416 489Q417 459 413 390Q406 255 406 214Q394 172 394 114Q394 82 398 33Q408 -86 407 -103L406 -128Q387 -155 352 -155Q338 -155 320 -152Q273 -144 264 -144Q251 -144 244 -146V-139Q244 -49 260 122Q252 164 248 188Q240 235 241 258L242 283L238 289L248 411L250 415L244 423L231 424Q221 425 203 422T177 419Q165 419 159 421H153Q141 421 118 423T82 425Q53 425 34 417Q26 420 26 427Q26 430 28 437T30 448L29 465Q28 479 35 504L43 537L48 536Q60 536 71 551Q86 572 89 574Q107 568 134 568Q146 568 169 570T204 572Q232 572 256 563L269 564Q280 565 306 559T344 552L364 555L375 552L401 555Q415 555 415 539L416 489ZM380 537L357 539Q338 539 311 541Q297 542 272 551L260 547Q232 558 198 557L145 555Q125 554 98 561Q93 560 87 552T75 537Q99 531 123 531Q143 531 159 535Q216 535 284 524Q308 520 360 509Q380 529 380 537ZM402 467L400 529L360 488V383Q348 337 349 283L351 178L350 143Q356 105 356 41V-16Q356 -92 366 -136Q367 -135 380 -126T394 -107L392 -97Q382 -47 382 37Q382 83 390 192Q398 291 396 346L394 407Q403 432 402 467ZM348 -136Q340 -94 340 -26V49Q340 71 337 111T333 169T332 198Q332 239 336 298Q345 431 345 470V474Q341 475 337 482Q337 490 347 500L343 501H339L335 503H330Q305 503 256 512T181 521H166Q159 521 144 517L125 515Q116 515 99 517T73 520L53 517Q43 497 43 459V439Q43 437 47 435L57 439L82 440Q102 441 138 438Q178 435 194 435H220Q239 438 248 439Q260 436 260 427Q258 419 256 417L264 413Q260 404 260 391V366Q254 328 254 289Q254 218 274 122Q258 -30 258 -132H263Q274 -132 294 -135T326 -138Q340 -138 348 -136Z"  />
<glyph unicode="&#x5DB;" horiz-adv-x="457" d="M419 496Q420 454 410 358Q389 168 390 126L391 76Q385 52 385 38V31Q376 29 346 13Q331 5 322 3H318V11L297 14Q288 14 270 12T243 9Q221 9 208 19L190 20Q167 21 118 11Q66 1 44 1L43 17L46 60Q47 75 40 88L42 121Q57 121 88 144T135 168L143 167L185 170Q209 172 226 161H231Q245 161 247 169V203Q247 296 259 383L245 382Q232 381 208 384Q150 391 146 391H132Q126 391 111 387Q103 389 93 389H40L37 397Q37 399 40 405T43 415L44 515Q47 517 90 560H138Q211 560 267 553Q284 558 296 558Q307 558 329 554T363 550Q381 550 393 556H398Q407 556 412 543Q417 526 418 525L419 496ZM389 535L357 537Q355 538 348 539H339Q331 539 326 543L287 540Q268 539 235 541Q196 545 182 545H170L155 544L112 547Q82 549 70 519Q85 513 103 513H109Q134 504 163 505L220 507L247 505Q274 511 312 511H326L346 504Q352 501 363 501Q363 501 377 518Q387 530 389 535ZM404 491L403 523Q382 501 361 480Q338 215 338 25Q371 28 377 80L376 126Q375 186 390 309Q406 429 404 491ZM346 490Q334 499 315 499Q304 499 283 496T251 493H243Q223 489 195 489Q172 489 128 494T60 499L58 405Q67 408 78 407L120 405Q137 404 149 411Q170 400 205 401L252 402L271 401L277 395Q263 334 265 261L266 217L265 198Q265 193 263 183T261 166Q261 156 265 151Q255 138 255 117V104Q254 94 247 94L229 98H216Q193 98 147 105T76 112L56 104Q63 86 63 61Q63 39 58 17L198 35H212Q232 25 243 25L261 28L298 26Q326 24 326 47L324 60Q324 132 335 275T346 490ZM239 147Q237 146 230 145Q225 145 214 149L200 153L189 152L147 154Q102 156 88 125L192 116L196 119L235 114L239 147Z"  />
<glyph unicode="&#x5DC;" horiz-adv-x="465" d="M458 454Q421 328 360 156Q353 135 308 15L300 16Q278 16 253 -9Q240 -7 208 6Q180 17 162 17Q150 17 150 25L153 44Q183 132 185 139Q202 194 208 237Q215 258 231 290Q231 290 247 322Q247 328 255 342T263 363Q245 370 203 391Q137 424 97 424H93Q51 434 27 452Q27 458 42 464Q34 475 34 491Q34 499 36 514T38 538V543Q34 566 34 593Q34 618 35 630Q38 646 38 653Q34 658 33 676T28 702L80 761Q100 756 142 755T202 749L206 744Q213 716 213 698Q213 679 206 649L205 636L208 586Q209 575 206 566Q275 536 345 507Q351 502 376 496Q388 493 395 489Q413 483 431 478Q452 470 458 454ZM178 737L155 736Q127 735 91 745L50 706L64 705Q72 704 85 706Q117 710 121 710Q135 710 147 706L178 737ZM199 701L196 728L174 712L154 688L152 638L153 539Q173 545 188 556L194 594L191 619Q191 633 195 660T199 701ZM426 460Q411 470 372 482T316 503Q289 508 273 521Q267 523 238 536Q216 546 202 546L162 523L253 487L264 488Q279 488 294 482L324 470Q360 460 363 459Q386 451 399 442L426 460ZM442 448Q430 445 416 435Q401 422 395 417Q389 385 356 303Q328 233 328 188Q308 132 273 25Q299 25 308 53Q321 93 326 98L385 272Q414 360 442 448ZM379 430Q370 431 357 444Q338 444 315 454Q281 469 275 470L265 469Q250 469 228 478Q198 489 192 491Q187 501 164 504T135 517L134 543Q134 554 136 610L138 660L137 688Q128 692 114 692Q108 692 78 687Q66 685 55 685L44 686L48 663L50 637L47 577Q46 564 52 539L46 489Q46 472 52 462L50 456Q72 440 121 434Q149 434 183 419Q212 405 241 391Q254 382 264 382Q275 382 280 391L286 381Q249 317 224 227Q209 173 180 64Q166 42 166 32Q210 22 243 7Q274 77 308 182Q308 231 333 297L375 407Q376 409 377 413L375 424Q377 429 379 430Z"  />
<glyph unicode="&#x5DD;" horiz-adv-x="486" d="M456 429Q457 393 446 213Q440 118 441 82L442 33Q441 32 419 18Q405 9 400 -1Q366 4 334 3L232 1Q162 0 107 19L81 21L56 19Q43 3 36 3Q28 20 28 43Q28 58 32 89T36 135Q51 191 63 279L77 381Q78 383 85 415Q80 419 61 421T36 432L64 498Q87 537 121 537Q127 537 137 545T153 554L160 552Q206 531 298 528Q397 525 438 511L436 505L437 503Q446 503 449 492T455 470L456 429ZM416 505Q393 510 354 511Q302 513 292 514Q225 519 220 520Q177 526 152 539Q148 533 117 519Q141 507 165 496L170 497Q183 487 203 487Q213 487 234 490T266 494Q281 494 290 489Q309 483 327 483L369 484Q387 466 394 466L416 505ZM442 415Q442 427 441 450T440 485L432 497L416 466Q410 455 402 448L400 430Q400 422 405 384Q407 369 407 356L404 334Q406 324 406 315V295Q406 270 403 236Q396 156 396 134Q396 94 402 70L403 61L400 32L402 21L426 39L425 72Q424 113 430 202Q442 373 442 415ZM392 347L390 383Q384 391 384 405L387 438Q387 459 365 466H356Q337 466 299 472T241 478Q223 473 208 473Q155 473 107 507L105 515L93 507Q74 482 69 474Q57 454 54 438L89 430Q103 427 103 416Q103 411 97 399T91 381L67 204Q54 178 48 119V110Q48 98 44 76T39 43L42 23L52 33Q60 35 75 35Q94 35 156 17Q191 7 207 8L221 9Q248 16 278 15L358 12L382 13L386 62Q378 94 378 144Q378 174 386 246Q394 312 392 347ZM318 357Q319 324 307 261Q294 194 294 163V158Q294 149 296 133T298 107L296 86L125 92Q122 86 120 86Q111 93 107 94Q127 127 131 191Q135 268 142 291Q147 306 149 334Q152 366 154 377Q147 382 141 387L142 391L209 389Q209 389 240 389Q254 392 260 393H275Q303 393 317 383L318 357ZM302 375Q294 377 279 377Q269 377 245 375L219 373H213Q213 341 201 235Q195 182 195 151Q207 147 240 144Q270 141 282 135V140Q282 137 278 169L302 375ZM197 373L174 377Q164 367 165 346L166 332Q167 320 162 310Q144 273 145 226L146 189Q147 151 136 123L178 153Q178 181 191 291Q197 342 197 373ZM280 100V117H268Q254 127 222 128T178 135L138 106Q164 100 191 101L243 102Q264 102 280 100Z"  />
<glyph unicode="&#x5DE;" horiz-adv-x="529" d="M497 217Q497 184 486 155Q482 138 482 113V70Q480 63 480 60Q456 43 450 38Q439 28 427 11Q417 10 405 1Q387 14 359 14Q345 14 326 11Q278 4 270 4L254 5L230 1Q230 -3 216 -9L219 -4Q219 1 215 7L218 13V19Q218 45 232 104Q253 110 307 159Q312 177 312 191Q312 204 307 222Q311 267 317 356Q318 377 295 389Q277 391 271 395Q260 374 248 337Q232 289 228 277L218 161Q214 118 205 68Q178 49 166 39Q145 21 134 3Q127 5 113 7Q91 11 76 11Q56 11 39 5Q31 6 31 15Q31 18 33 25T35 37Q49 116 75 273Q79 300 97 351T119 427L114 424Q59 424 21 442Q17 447 17 455Q17 463 22 475Q31 494 31 495L33 548Q71 558 98 592L132 595Q155 595 177 592Q245 583 250 583L269 584L360 556L429 548Q456 513 465 499Q484 469 484 443Q495 410 494 374L492 298Q492 284 494 257T497 217ZM483 219Q483 232 479 262Q475 289 476 304L479 361Q481 407 467 457Q455 499 423 535Q388 535 341 547L252 570L238 569Q228 568 202 572Q152 579 139 579Q91 579 65 546L163 544L167 540L173 541L177 539H182Q231 539 331 523Q340 521 395 493Q432 462 429 404L427 367V356Q427 348 429 346L426 282L427 255Q432 242 432 215Q432 191 423 144T413 72Q413 50 419 29L464 68Q466 76 466 86V118Q466 137 471 156Q479 185 480 191Q483 207 483 219ZM417 216Q410 245 411 287L413 376Q414 417 405 456Q396 479 372 490Q354 497 327 509L180 527H165Q149 536 129 535L84 532L63 535L56 537Q42 537 43 527L44 514Q45 504 31 456Q37 446 55 444Q77 441 82 438Q86 438 94 440T108 442Q117 442 120 435V440Q132 440 132 434L90 279Q84 264 84 233V222Q78 209 74 179T63 135Q63 115 57 81L47 25L58 26Q66 26 83 23T108 20Q138 20 138 50V68Q138 116 154 191Q174 285 177 312Q185 329 191 362Q201 404 203 413L234 415Q261 417 285 403L293 404Q313 404 331 371V366Q331 343 326 296T321 226V207Q321 199 325 178Q315 118 315 111L317 90Q290 96 268 96L248 94Q232 70 232 41Q232 31 236 13Q253 17 276 17H300Q335 17 352 25Q364 24 378 23T399 15L403 21L401 67Q399 109 417 216ZM252 397Q248 399 237 399H229Q219 399 214 401Q208 357 189 304Q189 276 179 236Q164 176 163 167Q163 167 149 41Q190 59 196 103Q199 130 205 184Q205 247 252 397ZM301 137L268 109L299 107L301 137Z"  />
<glyph unicode="&#x5DF;" horiz-adv-x="310" d="M265 546Q245 396 245 179Q245 144 247 63L249 -21Q254 -37 253 -53L250 -107L251 -121Q245 -129 223 -145T194 -174L112 -160Q91 -160 72 -170Q60 -170 60 -164Q60 -104 78 15T97 194Q97 230 92 273Q90 281 90 291V305Q90 333 91 347L96 430Q88 438 79 438Q72 438 58 432T39 426Q28 426 23 440V449Q23 461 26 485T29 521Q23 521 23 528L25 532Q28 535 49 558Q64 575 76 578Q93 566 118 566Q132 566 141 567Q178 571 181 571Q198 571 206 568Q212 568 223 570T240 572Q252 572 259 564L257 560Q265 551 265 546ZM237 558Q224 556 195 556H175Q139 556 119 552H115Q110 552 98 556T80 561L74 560Q66 559 57 551T48 534Q61 528 84 528H125L137 529Q147 530 166 527T193 524Q230 524 237 558ZM251 544L222 513Q215 489 212 447Q206 363 198 336V330Q198 278 205 116Q210 8 209 -13L206 -103Q204 -109 204 -121Q204 -134 206 -141Q213 -137 224 -128Q232 -122 239 -111Q239 -58 235 49T231 209Q231 237 234 292T237 375Q237 400 246 477Q251 520 251 544ZM202 511H156Q97 511 46 519Q37 496 37 465Q37 448 39 440Q58 447 74 447Q92 447 109 438Q101 390 101 322Q101 292 103 222L105 129L87 -15L88 -29Q82 -46 80 -76Q75 -141 72 -155L78 -156Q85 -156 89 -155Q108 -150 110 -150L117 -151L129 -149Q136 -149 152 -154T177 -159L188 -157Q194 -94 194 -33Q194 17 191 96Q187 205 186 225L184 299Q183 336 190 359L202 511Z"  />
<glyph unicode="&#x5E0;" horiz-adv-x="338" d="M309 501Q309 482 305 444T301 387Q301 336 286 171Q279 94 279 35Q276 32 252 18Q236 9 230 -3Q196 11 146 11Q128 11 93 9T39 7H23L21 35Q20 51 23 81Q27 115 27 128V135Q31 137 53 162Q69 180 85 180L100 177H112Q122 177 126 179Q133 196 132 210L130 249Q129 268 137 283Q137 333 149 401Q140 413 123 413L112 411L108 409H103Q100 417 100 434Q100 461 114 525L140 548Q158 563 172 563L187 560Q193 554 201 554L224 557Q232 557 238 551L245 552Q253 552 269 549T294 546L303 547Q309 526 309 501ZM279 531L274 533L266 532L261 535Q248 535 230 539Q185 549 178 549Q152 549 137 529Q154 518 193 516T250 505L279 531ZM295 500V525Q292 520 276 507T259 485L261 476Q252 442 252 384V362Q240 267 240 165V127L236 119L240 27Q267 35 267 61V66L264 128Q262 163 285 358Q295 444 295 500ZM240 485V490Q184 501 128 513Q119 481 117 472Q112 448 112 430Q136 426 142 424Q160 418 167 405Q159 382 156 339Q152 286 149 271Q145 251 145 224V182Q151 182 151 174L146 167L145 164Q145 159 147 150T149 135Q149 126 143 121H135Q129 122 128 123Q99 115 73 115Q54 115 41 119L42 105Q43 92 39 65T35 27V23L52 21Q64 21 69 25Q88 21 108 21Q127 21 138 22Q183 26 187 26L218 23Q224 83 224 200Q224 248 232 342T240 485ZM130 144L127 157L128 161H123L85 164Q59 166 51 139Q64 132 79 133L110 135Q121 141 123 141L128 139L130 144Z"  />
<glyph unicode="&#x5E1;" horiz-adv-x="529" d="M504 306Q504 267 498 228Q488 162 480 139Q464 92 429 67Q418 53 374 39Q353 32 341 19L338 18Q336 19 331 27Q291 2 214 2H179Q159 9 91 41Q57 75 42 139Q36 165 24 252Q32 334 36 365Q46 434 79 470L87 490H91Q107 490 124 501Q146 519 169 537Q192 550 290 578Q339 578 384 559T454 503T492 410Q504 359 504 306ZM490 350Q474 405 459 460Q434 521 382 543Q350 563 306 563Q235 563 168 519L227 523Q254 534 285 534Q316 534 343 523Q447 439 447 287V252Q444 237 443 230Q427 120 378 51Q411 67 437 94Q473 133 479 219L484 295Q489 304 489 314L488 337Q488 345 490 350ZM430 287Q430 434 343 506Q319 518 291 518Q275 518 218 508Q185 502 171 503L152 504Q114 482 111 480Q87 463 83 445Q53 420 44 349Q44 348 38 240Q52 144 55 132Q70 76 112 44T211 12Q268 12 338 41Q369 53 386 90Q391 101 414 155Q430 230 430 287ZM340 279Q340 221 311 187Q311 136 272 121Q253 114 237 114Q215 114 190 124Q181 128 164 138Q138 166 134 220L135 228Q131 248 131 258L134 273V293Q134 345 142 370Q163 435 235 435Q248 435 256 433Q313 419 335 362Q335 348 337 321T340 279ZM327 299Q327 338 315 374Q289 417 248 417Q213 364 213 279Q213 240 221 202Q237 167 276 159H280Q293 159 295 187Q327 234 327 299ZM274 141L271 140Q262 144 257 144L254 143Q204 166 195 230Q198 278 201 326Q207 383 229 417H221Q198 417 185 409Q148 372 148 310V292Q148 284 152 265L146 262Q146 178 175 147Q205 129 235 129Q259 129 274 141Z"  />
<glyph unicode="&#x5E2;" horiz-adv-x="486" d="M452 392Q452 307 440 244Q440 213 409 175Q407 171 355 116L348 120Q343 120 328 102Q318 99 299 83T268 62L135 -3Q107 -9 50 -40L46 -41Q41 -41 34 -30V6Q34 60 22 84L32 90Q39 109 63 143Q77 163 83 173Q87 176 115 183Q136 189 142 200Q135 220 128 244T111 289L112 292Q105 302 103 307Q101 335 101 347V361Q101 386 103 444L105 509L115 537Q122 540 156 560Q183 576 200 576Q211 576 225 570Q231 567 254 560Q272 554 280 545Q282 537 282 519V489Q282 458 292 444L294 459Q294 467 292 476L288 494L355 555L368 554Q376 553 389 555L422 559L438 557Q441 556 444 550L442 540Q446 534 448 533Q448 509 450 453L452 392ZM420 539Q413 540 388 542L361 543Q342 531 312 499L357 507Q366 498 375 498Q388 498 420 539ZM436 413Q436 427 434 480L432 527Q425 522 414 507T391 486Q401 420 401 349Q401 266 387 177Q413 193 420 230Q425 261 430 293L434 301L436 413ZM249 547L247 545Q239 552 235 555Q228 555 216 557T196 559Q186 559 180 557Q175 552 156 544T131 529H141Q171 529 190 521L198 519H202Q209 519 211 513Q225 513 235 525Q237 527 249 547ZM292 391V421L290 406L292 391ZM283 334Q283 346 276 356V362Q276 375 275 382L270 418Q270 431 274 440Q263 457 265 484L268 531L263 537Q257 531 244 516T227 490V479Q227 464 223 436T219 392Q219 375 224 347Q230 311 231 301Q236 249 255 226Q266 235 278 257Q273 267 273 280Q273 289 278 307T283 334ZM385 350Q385 421 375 480Q367 489 354 489Q346 489 330 485T308 480L310 424Q312 358 294 295Q298 286 298 274Q298 255 284 233Q279 225 255 196H249Q239 210 230 235Q217 271 215 275L212 300L213 323Q213 323 213 339Q210 347 209 350Q203 368 203 389Q203 403 206 430T209 472V482L206 480Q202 480 198 485Q198 486 204 498L173 510Q155 516 139 516L121 513Q116 461 117 420L119 320Q123 307 146 241Q164 189 168 155Q168 142 153 131Q134 121 127 116Q107 114 91 107Q87 105 40 76Q48 50 48 -6V-24L89 -8Q117 8 176 37Q215 54 255 71Q279 84 298 102Q321 111 343 140Q352 152 365 171Q385 254 385 350ZM150 153L146 181Q141 178 114 170Q94 164 89 151Q78 144 54 104Q66 116 89 123Q137 138 150 153Z"  />
<glyph unicode="&#x5E3;" horiz-adv-x="486" d="M445 356L443 308Q437 282 437 237V160Q434 147 433 142Q433 117 427 57Q421 2 422 -24L423 -51L417 -106L388 -129Q372 -142 366 -157Q349 -161 329 -161H298Q264 -161 244 -173Q236 -169 236 -163Q236 -160 239 -152T242 -139V-114Q242 -16 279 54Q279 91 282 147L284 210Q284 288 273 357Q268 372 266 376Q257 392 240 398L181 406Q175 384 175 343V317Q175 306 179 280Q134 243 69 246L43 247Q31 241 22 241L15 243Q8 250 9 263L11 286Q27 323 31 397Q36 477 47 510Q71 530 122 566Q137 562 230 550Q387 529 415 455Q448 420 445 356ZM165 389Q165 396 163 408L135 412Q135 394 132 369Q125 310 125 296L128 264Q142 270 163 288L162 307L165 389ZM430 327Q430 377 423 422L409 442Q395 479 360 501T283 524Q256 536 203 540Q145 544 122 552Q103 541 78 516Q110 515 173 501Q210 497 247 493Q291 487 317 473Q362 454 379 411T395 320L393 278Q392 210 388 85Q382 -1 366 -94Q358 -106 359 -121L360 -135Q383 -128 405 -94L415 101Q417 136 425 242Q430 296 430 327ZM380 284Q380 335 374 386Q340 485 195 485L139 497L124 494Q116 494 100 498T76 502L59 499Q41 461 41 369L28 314Q21 284 22 269L23 253Q37 262 50 261L86 258Q97 257 108 262Q108 283 115 344Q119 383 119 394L118 418L124 428Q187 420 208 417Q258 409 277 379Q295 299 295 196Q295 172 293 115L291 52Q273 18 263 -24Q251 -75 253 -108L256 -155Q268 -149 293 -149H312Q342 -149 342 -138V-123Q368 -19 368 52Q368 95 371 139Q380 270 380 284Z"  />
<glyph unicode="&#x5E4;" horiz-adv-x="464" d="M446 328Q446 286 436 216V210Q436 107 367 70Q358 70 344 58T324 46L318 47Q273 24 252 15Q212 -3 179 -3Q156 5 130 5Q113 5 80 1T30 -3L24 1L46 111Q70 128 77 135Q96 150 103 163Q113 162 142 157Q167 153 182 153Q207 153 227 161H232Q260 161 259 191L258 218Q258 230 262 239Q266 255 266 276Q266 302 257 326Q249 341 223 356Q225 350 225 344Q225 333 225 333L222 280L223 267Q195 253 187 248Q166 234 160 220L135 217Q113 217 61 225Q50 226 36 230Q36 256 40 308T44 387V424Q42 433 40 446L39 457Q39 475 63 488Q97 506 101 511Q112 516 131 541Q147 562 164 562Q165 564 169 566L177 564Q192 568 210 568Q250 568 300 545Q309 532 365 507Q446 457 446 328ZM430 321V358Q427 374 426 381V385Q426 412 400 446Q376 471 353 497Q332 505 280 537Q259 553 227 553Q228 553 158 543Q149 543 137 525Q130 514 123 511L142 517Q241 517 280 468Q292 465 304 455Q338 426 343 424Q366 391 373 317Q376 260 379 202Q369 184 369 145T361 86Q379 90 410 143Q430 274 430 321ZM210 319Q210 347 203 365Q179 377 160 377Q160 373 169 316Q173 290 173 278L170 251L205 275Q210 297 210 319ZM361 248Q361 300 345 391Q343 405 316 421Q302 429 298 440Q295 441 241 480Q220 495 203 495Q182 501 163 501Q113 501 54 464Q54 447 56 413T59 361Q59 301 52 245Q86 238 120 232Q136 232 150 239Q156 257 156 277Q156 274 146 354Q146 359 144 368T142 382Q142 390 146 395L157 396Q170 396 229 373Q284 342 284 287Q278 234 273 181Q263 120 221 90Q192 85 151 85Q105 85 58 92L44 13Q55 13 79 16T116 18L135 17Q153 9 178 9Q213 9 261 32Q284 43 307 53Q332 68 342 88T353 159V171Q361 209 361 248ZM249 151Q240 149 239 147L200 141Q179 137 166 137Q135 137 111 153V145L66 109Q108 98 144 98Q179 98 221 109Q238 118 249 151Z"  />
<glyph unicode="&#x5E5;" horiz-adv-x="557" d="M531 493Q504 446 455 374Q392 282 376 256L374 243Q374 233 382 207Q387 191 387 184L386 174Q392 126 392 79Q392 38 391 12L387 -104L388 -155Q378 -162 367 -179T350 -202H322Q305 -202 297 -196Q278 -196 250 -200Q235 -200 224 -194Q224 -162 229 -98T234 -1V21Q234 62 228 87L201 199L55 359L26 416Q11 450 11 476L14 500Q49 536 84 573Q161 556 201 556L200 538Q199 511 230 426Q236 414 245 396T268 367Q285 376 302 406Q313 431 324 456T356 518Q376 528 407 556Q424 550 454 537Q481 525 531 502V493ZM508 498Q489 508 457 522L409 542Q405 533 390 528T372 516Q438 480 465 480Q490 480 508 498ZM510 483L462 457Q442 425 423 392Q399 355 378 331Q348 297 336 268Q340 270 351 270H366L510 483ZM175 544L124 556Q113 563 101 563Q82 563 65 543L33 504L53 505L99 504Q158 503 175 544ZM255 354L254 359Q231 386 191 504L185 532Q182 525 164 510T145 484Q146 475 147 473Q159 448 185 398Q208 356 242 337Q255 344 255 354ZM446 463L443 473Q430 475 405 487T366 500Q349 483 315 418Q309 391 246 313Q239 313 234 319Q152 392 132 489Q125 489 101 493Q82 495 70 495Q40 495 23 485L22 473Q20 449 59 374Q61 369 181 244Q224 199 224 150Q247 92 247 7Q247 -32 245 -63L238 -177L242 -185L329 -191L334 -187Q328 -119 328 -47Q328 -14 331 38L333 97L299 258Q313 270 351 321Q369 345 384 359Q390 367 403 393Q414 415 427 426Q428 429 437 443T446 463ZM379 85Q381 169 362 235L360 240L362 250Q360 255 358 256Q345 255 319 248Q325 210 338 134Q348 119 348 92Q348 79 344 53T340 14Q340 0 342 -7V-97Q342 -152 350 -179Q380 -159 378 -119L376 -76V-62L379 85Z"  />
<glyph unicode="&#x5E6;" horiz-adv-x="528" d="M493 62Q463 47 457 44Q437 32 424 16L410 17Q399 18 333 3Q311 -2 292 -1L218 2Q178 4 149 -11Q128 -13 119 -15L66 -27Q68 -20 68 -11V3Q68 15 54 103L117 154L113 160Q170 172 271 172Q262 191 222 213Q210 225 158 248Q112 269 96 294Q55 336 37 415Q37 415 19 497L70 554Q72 556 81 558Q85 558 95 554T112 549L117 550L132 548Q144 548 166 552T201 556L218 554Q227 537 228 500Q230 457 234 442Q243 413 271 400Q275 405 307 485Q319 515 338 530L371 566Q390 560 430 552T489 538L490 534L487 524Q490 520 493 520Q467 436 442 353Q481 277 481 201Q481 169 485 133L493 62ZM464 526Q453 526 426 537T385 548Q362 548 351 522L373 516Q386 514 400 511T420 499L444 509Q457 515 464 526ZM477 514Q464 504 436 487Q435 479 426 477Q426 449 406 401Q381 342 377 325L426 355Q439 384 454 433Q464 466 477 514ZM259 380Q259 389 247 394Q212 419 212 492V538L208 534Q176 518 176 479Q176 468 179 446T182 413V408Q182 386 205 371Q217 363 247 353Q248 357 253 366T259 380ZM188 540Q161 535 134 535Q103 535 78 542Q69 526 44 506L110 508L151 506L158 504Q165 504 174 520T188 540ZM479 81L477 91Q476 96 464 217Q457 293 430 337Q411 327 373 300Q374 299 418 229Q442 158 439 79L438 50Q441 54 462 63Q479 70 479 81ZM422 105Q413 182 408 201Q395 251 363 284Q354 293 354 304Q354 310 356 321T359 337V341Q397 404 412 491L336 510L288 400Q280 381 273 362Q262 340 249 331Q216 348 184 365Q166 394 157 491L92 493Q85 491 72 491H60Q45 491 38 489V461Q55 392 72 355Q100 297 145 270Q152 264 182 256Q208 250 214 235Q257 212 278 194Q312 164 312 127Q309 121 299 117Q270 106 269 105Q255 107 241 107Q224 107 192 104T142 100L109 103Q73 103 73 78Q73 70 77 54Q86 19 86 9Q86 -2 82 -9Q135 2 188 14H260Q341 14 385 28H390Q420 28 420 63V86Q420 99 422 105ZM290 135Q282 145 282 152L283 156L272 157Q265 157 250 154T228 151L214 154H146Q135 154 121 152L123 150Q123 148 118 144T113 137Q106 137 99 127T88 115Q122 116 190 119L224 122H242Q267 122 288 130L290 135Z"  />
<glyph unicode="&#x5E7;" horiz-adv-x="542" d="M521 217Q521 196 509 180Q501 156 479 123Q446 73 444 69Q437 56 408 44Q403 35 380 25T351 0Q328 4 306 20Q299 25 245 81V89Q291 124 331 201Q326 262 308 313Q291 306 280 307L242 310L225 308Q204 308 161 304T97 300H66Q52 303 46 304Q30 304 30 323Q30 331 34 339Q38 352 44 375T64 412L68 428L139 495L175 498Q193 499 225 494Q254 488 284 481Q323 472 370 473L455 475Q457 475 459 470L457 461L459 457Q499 376 507 319Q505 318 503 314Q507 307 507 304Q507 287 516 248Q521 226 521 217ZM229 259L227 250Q227 190 211 -9Q203 -109 203 -161L173 -173Q154 -181 150 -196Q143 -194 122 -179Q110 -171 103 -169L20 -163L19 -152Q19 -137 28 -112Q38 -82 40 -72V-55Q40 -12 43 45Q50 179 50 210V221L40 227Q50 240 61 251Q79 270 103 290Q121 277 161 274Q215 270 223 268Q226 266 229 259ZM432 457L392 454Q371 452 311 462Q192 481 168 480L146 479L97 435L105 439Q138 429 193 428Q265 426 282 424L306 421Q318 421 343 425T380 429L402 426Q413 429 420 438Q428 451 432 457ZM503 224Q503 239 497 256Q497 353 448 449L442 441Q430 421 420 414L452 276Q464 224 464 201Q464 168 450 146Q448 129 420 96T389 46Q399 54 401 56Q410 63 424 65Q429 75 472 142Q503 190 503 224ZM447 194L446 209Q435 274 428 311Q417 367 400 410L373 411Q350 412 327 406Q300 406 246 410T164 414H160Q153 414 138 417T116 420Q107 420 103 418Q93 418 91 426Q85 417 84 417L81 418Q61 386 44 321Q78 313 128 313Q159 313 221 320T314 327Q327 318 332 293Q335 272 337 252Q348 237 348 217Q348 190 322 153Q313 141 296 117Q282 107 263 83Q306 27 345 16Q350 18 355 29T365 44Q373 66 413 117Q449 163 447 194ZM198 252H190Q168 252 105 270L68 241Q89 233 140 233H164Q181 252 198 252ZM211 231V241L178 225Q170 209 170 185V178Q164 145 164 88Q164 63 166 4L168 -59Q168 -125 158 -165Q188 -165 193 -131Q194 -100 196 -70L195 -36Q194 11 202 97Q211 190 211 231ZM154 215L64 223Q64 179 61 121Q54 -14 54 -43L57 -60Q57 -73 47 -98T36 -134Q36 -143 40 -151Q82 -152 93 -154Q124 -159 140 -175Q151 -116 151 -41Q151 11 144 99Q150 116 150 149V193Q150 201 154 215Z"  />
<glyph unicode="&#x5E8;" horiz-adv-x="415" d="M388 451L386 385L382 377Q377 326 373 280L370 239Q362 139 363 96L364 46Q355 40 342 31Q323 17 313 -3L307 -6Q304 -6 298 -1T287 5H261Q210 5 183 13Q186 31 186 72V79Q186 147 199 180Q199 210 203 252Q212 347 212 369Q190 369 140 367L89 365Q55 365 27 369L26 390Q25 405 29 433T33 475V483Q44 492 67 510Q87 525 105 525Q115 525 126 519H142Q173 519 270 503Q326 494 345 495L376 497Q389 478 388 451ZM354 483L344 481Q339 481 327 484T307 488L293 485Q259 495 193 499Q122 504 92 511Q65 504 47 475Q62 481 77 481Q92 481 121 473T165 465Q177 465 203 463L229 461H253Q265 464 270 465L303 468Q321 468 331 462Q338 466 346 471T354 483ZM374 417Q374 444 368 471L337 446L338 425Q339 407 325 319Q319 281 319 256V230Q322 218 323 213V207Q323 191 319 152Q315 117 316 97L317 78L318 67L316 36L317 23Q321 33 329 39Q332 41 346 50Q350 68 350 109V155Q350 166 354 188L353 218Q352 246 367 343Q374 389 374 417ZM321 433V438L309 440L313 452Q214 445 212 445L169 448L74 466H62Q57 466 45 462L39 383Q70 376 107 376Q154 376 222 387L230 379Q220 281 211 184Q199 148 199 71V24H211Q232 19 256 19H299V41Q299 76 301 106L308 217L305 272Q305 297 315 370Q321 414 321 433Z"  />
<glyph unicode="&#x5E9;" horiz-adv-x="579" d="M558 495L555 461V453L548 448Q548 393 509 309Q499 288 438 178Q424 154 385 106Q366 83 325 38Q279 22 239 -3L223 -1Q75 144 39 247L38 270Q42 296 43 346L40 381Q38 391 28 443L21 481L39 487Q85 533 108 533L118 532Q133 527 149 528L179 530Q187 528 187 520Q185 516 183 516Q196 486 196 436L200 422Q210 429 240 479Q251 482 272 501T305 522Q315 503 338 480Q371 447 377 440Q361 406 323 369Q289 340 255 310Q245 304 245 294Q245 287 250 279L258 264L283 239Q296 250 317 296Q327 317 340 329Q357 355 372 403Q384 442 395 481Q411 485 472 524Q483 524 511 507Q526 498 536 498L544 499L548 495L554 497L558 495ZM521 487Q506 493 497 501Q487 506 480 506Q472 506 425 481L454 467L464 464L483 467Q493 467 494 457L512 473Q518 479 521 487ZM358 436L296 505L261 477Q280 461 285 456Q300 442 307 430Q327 421 334 398Q345 413 358 436ZM536 473L493 438V430Q493 371 430 249Q391 173 327 89Q315 83 287 49Q274 33 263 28L281 36Q331 50 368 102Q393 140 433 196Q444 223 482 298Q536 405 536 473ZM187 408L176 505Q167 491 157 473Q163 457 162 441L161 422Q160 403 167 387Q176 395 187 408ZM165 516H132Q114 516 103 520Q76 509 59 489Q69 487 80 487H143Q151 490 157 500T165 516ZM477 446Q463 446 432 460Q416 467 406 467Q401 451 395 434L377 376Q360 322 333 294Q302 236 272 178L254 164L249 166Q206 203 179 257Q186 269 229 301Q249 316 256 331Q270 337 283 352Q291 361 316 402Q283 432 251 463L233 442Q225 423 203 398Q175 366 170 359T155 351L148 353V370Q148 386 145 418T142 467Q128 467 99 469T56 471H41V463L43 414Q54 387 53 352L51 283L53 245Q110 109 224 14Q337 112 419 263Q429 293 440 318Q445 329 466 371Q471 395 476 420Q476 433 470 440L477 446ZM274 215Q274 227 254 250T231 282Q208 274 198 255Q212 218 256 190Q274 202 274 215Z"  />
<glyph unicode="&#x5EA;" horiz-adv-x="575" d="M547 181Q547 107 539 54Q532 49 509 23Q497 10 488 7Q486 12 482 12L476 9Q466 14 452 14Q441 14 419 8T385 2L368 5Q369 61 376 172L374 385Q365 389 354 389Q348 389 334 386T313 384L301 385Q294 361 295 342L298 283L297 265Q297 256 299 195L301 143V3Q295 -6 256 -35Q251 -26 239 -26L218 -28L212 -27Q199 -30 159 -42Q101 -59 69 -59L41 -56Q33 -46 33 -27V-8Q33 4 31 9L28 49Q26 75 41 93Q53 105 77 127L110 131Q121 131 130 127Q134 135 134 144Q134 150 132 162T129 180L132 194Q129 297 114 503L112 519H102L100 525Q100 530 106 538Q119 543 136 557Q177 591 187 595Q203 590 239 589T291 584V578Q291 559 297 544Q329 544 358 541Q434 533 456 532L537 528Q539 527 541 521L539 508Q543 484 543 485Q543 469 543 469L541 406Q540 388 543 373V366Q543 336 545 263L547 181ZM512 515H498Q469 515 412 520T327 526L315 529Q300 529 284 515Q266 496 258 489Q271 485 288 485Q305 485 357 495Q387 501 399 500L417 499L432 501Q440 501 455 499T478 496Q502 496 512 515ZM281 541Q281 549 277 556Q268 556 253 542Q244 534 238 532L236 491Q239 495 262 514Q281 530 281 541ZM532 205Q532 261 530 357L527 503L488 479Q498 444 496 421L494 393Q482 345 483 287L484 225L482 172Q482 162 488 144T494 116L492 103Q498 86 500 62L502 36L525 62Q532 126 532 205ZM266 572L181 578L138 542L193 546Q204 539 215 539Q228 539 243 551Q254 562 266 572ZM484 72Q465 137 466 224L468 347Q468 362 474 391T480 436Q480 464 464 481L434 480L360 481Q345 471 318 471Q304 471 295 472Q258 476 255 476Q241 476 228 471Q218 477 218 485Q218 489 221 497T224 511L222 519L209 515Q204 517 204 519Q207 525 208 526Q198 531 189 531Q182 531 165 528T140 525L126 526Q136 435 136 347Q136 318 143 221Q147 166 147 143Q147 101 143 70Q126 66 103 66H55L43 62Q50 11 49 -7L47 -37Q65 -42 81 -42Q106 -42 138 -33Q217 -11 238 -11L240 32L241 87Q241 112 239 157Q236 206 236 227Q236 253 233 287Q226 367 226 383V403Q226 410 234 410H245Q268 398 291 398Q302 398 323 401T356 404Q381 404 397 393Q397 386 403 383L401 379Q388 375 388 361L391 337L390 332V280Q390 236 387 148T384 15Q397 15 425 26L447 28Q465 28 480 24L484 72ZM287 13L285 130L287 249Q282 283 283 315L285 385Q267 389 249 394L242 393Q242 262 256 182Q256 166 257 134T258 85V-11Q266 -6 275 -1T287 13ZM135 100L132 113H125Q119 114 118 115L104 117Q78 117 47 82H82Q135 82 135 100Z"  />
<glyph unicode="&#x5F0;" horiz-adv-x="498" d="M464 535Q457 521 457 514V477Q457 433 454 345T451 213Q451 149 457 84Q455 84 453 80L457 73Q453 59 442 45Q427 22 405 -2Q400 -2 390 3T374 8Q363 8 341 6T308 4H288Q278 7 274 8Q285 37 284 79L283 131Q283 131 283 154Q283 162 285 176T288 199V257Q288 290 295 313Q282 358 282 439V486Q276 491 276 498Q290 510 303 523Q334 555 354 555Q368 555 382 545L417 543L455 545Q464 541 464 535ZM224 535Q217 521 217 514V477Q217 433 214 345T211 213Q211 149 217 84Q215 84 213 80L217 73Q213 59 202 45Q187 22 165 -2Q160 -2 150 3T134 8Q123 8 101 6T68 4H48Q38 7 34 8Q45 37 44 79L43 131Q43 131 43 154Q43 162 45 176T48 199V257Q48 290 55 313Q42 358 42 439V486Q36 491 36 498Q50 510 63 523Q94 555 114 555Q128 555 142 545L177 543L215 545Q224 541 224 535ZM420 527L411 526Q399 526 388 529L366 535Q356 540 350 540Q338 540 327 531Q325 529 309 512L320 513Q327 513 348 511L370 509L380 510Q386 505 391 505Q399 505 408 514T420 527ZM445 525L410 496L412 425L408 390Q415 335 414 267L411 85L412 31Q441 50 441 87Q441 97 438 118T435 149Q435 166 436 199T437 249V351Q437 461 445 525ZM180 527L171 526Q159 526 148 529L126 535Q116 540 110 540Q98 540 87 531Q85 529 69 512L80 513Q87 513 108 511L130 509L140 510Q146 505 151 505Q159 505 168 514T180 527ZM394 153Q394 190 392 278L390 375Q390 394 392 439L394 486Q369 496 334 494L295 492L299 481Q297 474 295 472L293 445Q292 431 303 355Q308 320 308 300Q308 274 301 250L300 194V113Q300 66 292 21L392 19L394 153ZM205 525L170 496L172 425L168 390Q175 335 174 267L171 85L172 31Q201 50 201 87Q201 97 198 118T195 149Q195 166 196 199T197 249V351Q197 461 205 525ZM154 153Q154 190 152 278L150 375Q150 394 152 439L154 486Q129 496 94 494L55 492L59 481Q57 474 55 472L53 445Q52 431 63 355Q68 320 68 300Q68 274 61 250L60 194V113Q60 66 52 21L152 19L154 153Z"  />
<glyph unicode="&#x5F1;" horiz-adv-x="488" d="M454 535Q447 521 447 514V477Q447 433 444 345T441 213Q441 149 447 84Q445 84 443 80L447 73Q443 59 432 45Q417 22 395 -2Q390 -2 380 3T364 8Q353 8 331 6T298 4H278Q268 7 264 8Q275 37 274 79L273 131Q273 131 273 154Q273 162 275 176T278 199V257Q278 290 285 313Q272 358 272 439V486Q266 491 266 498Q280 510 293 523Q324 555 344 555Q358 555 372 545L407 543L445 545Q454 541 454 535ZM211 473Q211 448 209 399T206 325Q189 325 174 310Q140 277 130 277Q124 277 110 283T82 289Q67 289 46 282L34 286Q34 307 40 332Q54 390 54 406Q54 469 44 506L50 516L107 557Q129 547 156 548L184 549L202 548Q204 536 211 514V473ZM410 527L401 526Q389 526 378 529L356 535Q346 540 340 540Q328 540 317 531Q315 529 299 512L310 513Q317 513 338 511L360 509L370 510Q376 505 381 505Q389 505 398 514T410 527ZM435 525L400 496L402 425L398 390Q405 335 404 267L401 85L402 31Q431 50 431 87Q431 97 428 118T425 149Q425 166 426 199T427 249V351Q427 461 435 525ZM182 534L165 531Q156 531 138 534T110 538Q84 538 74 512Q113 500 152 500Q164 506 182 534ZM384 153Q384 190 382 278L380 375Q380 394 382 439L384 486Q359 496 324 494L285 492L289 481Q287 474 285 472L283 445Q282 431 293 355Q298 320 298 300Q298 274 291 250L290 194V113Q290 66 282 21L382 19L384 153ZM196 457L194 518Q188 515 178 500T159 484L154 485Q148 426 148 331V309Q160 319 188 333Q198 407 196 457ZM139 483Q127 483 104 489T70 496H64Q68 473 68 445Q68 426 54 303L66 304Q64 304 127 296Q139 397 139 483Z"  />
<glyph unicode="&#x5F2;" horiz-adv-x="466" d="M431 473Q431 448 429 399T426 325Q409 325 394 310Q360 277 350 277Q344 277 330 283T302 289Q287 289 266 282L254 286Q254 307 260 332Q274 390 274 406Q274 469 264 506L270 516L327 557Q349 547 376 548L404 549L422 548Q424 536 431 514V473ZM211 473Q211 448 209 399T206 325Q189 325 174 310Q140 277 130 277Q124 277 110 283T82 289Q67 289 46 282L34 286Q34 307 40 332Q54 390 54 406Q54 469 44 506L50 516L107 557Q129 547 156 548L184 549L202 548Q204 536 211 514V473ZM402 534L385 531Q376 531 358 534T330 538Q304 538 294 512Q333 500 372 500Q384 506 402 534ZM416 457L414 518Q408 515 398 500T379 484L374 485Q368 426 368 331V309Q380 319 408 333Q418 407 416 457ZM359 483Q347 483 324 489T290 496H284Q288 473 288 445Q288 426 274 303L286 304Q284 304 347 296Q359 397 359 483ZM182 534L165 531Q156 531 138 534T110 538Q84 538 74 512Q113 500 152 500Q164 506 182 534ZM196 457L194 518Q188 515 178 500T159 484L154 485Q148 426 148 331V309Q160 319 188 333Q198 407 196 457ZM139 483Q127 483 104 489T70 496H64Q68 473 68 445Q68 426 54 303L66 304Q64 304 127 296Q139 397 139 483Z"  />
<glyph unicode="&#x5F3;" horiz-adv-x="221" d="M176 449Q176 437 161 409L84 298Q60 263 49 263Q40 263 40 273Q40 280 51 314L91 441Q104 482 137 482Q176 482 176 449Z"  />
<glyph unicode="&#x5F4;" horiz-adv-x="387" d="M326 449Q326 437 311 409L234 298Q210 263 199 263Q190 263 190 273Q190 278 201 314L241 441Q254 482 287 482Q326 482 326 449ZM176 449Q176 437 161 409L84 298Q60 263 49 263Q40 263 40 273Q40 280 51 314L91 441Q104 482 137 482Q176 482 176 449Z"  />
<glyph unicode="&#x200E;" horiz-adv-x="406" d="M375 448L211 296V404H141V0H55V490H211V600L375 448Z"  />
<glyph unicode="&#x200F;" horiz-adv-x="406" d="M351 0H265V404H195V296L31 448L195 600V490H351V0Z"  />
<glyph unicode="&#x2010;" horiz-adv-x="1000" />
<glyph unicode="&#x2013;" horiz-adv-x="337" d="M300 204L297 181Q282 181 256 166T214 150L65 148Q53 143 42 139L37 140L35 159Q35 172 41 198T47 239L39 248Q39 257 55 268Q72 273 95 290L118 307Q147 307 171 309L260 316L287 315Q293 305 293 287V272Q293 257 297 248L300 204ZM285 221Q285 233 283 256T281 292L252 266L248 256Q255 243 254 230L251 191L252 179L283 195Q285 203 285 221ZM265 303L232 301Q214 297 188 297H167Q133 297 117 292Q95 286 76 264L147 270H157L210 268Q226 267 240 272Q241 280 252 289T265 303ZM239 236L236 252Q226 249 222 248Q192 254 161 254Q129 254 63 246L47 156Q75 164 140 165T232 173L231 182Q231 191 235 209T239 236Z"  />
<glyph unicode="&#x2015;" horiz-adv-x="580" d="M556 271L554 218L555 201Q534 180 502 162Q431 180 347 178L234 175Q216 175 170 166Q128 158 108 159L93 160Q86 160 60 153Q46 149 39 149L24 152L21 203Q20 228 30 252L26 270Q99 316 157 316Q180 316 201 309Q249 309 310 314Q464 327 492 326L542 325Q557 306 556 271ZM543 234Q543 242 541 263L539 284L540 293L510 274Q504 220 504 221Q504 199 512 185Q543 195 543 234ZM532 309L470 312Q443 313 374 307Q243 295 211 295Q184 303 157 303Q99 303 55 274Q73 274 102 272Q138 269 148 268Q148 268 172 268Q190 271 199 272Q212 266 232 266Q247 266 263 269Q310 278 315 278H323L371 275L382 276L410 279L467 276Q512 274 532 309ZM494 183Q487 194 488 210L490 248Q491 258 488 266H418Q390 261 367 262L317 264Q274 254 210 254Q185 254 127 256L47 258Q36 232 36 185L38 179L37 171Q40 164 43 164Q65 169 102 173L205 183Q254 191 299 190L399 188L461 191Q469 183 487 183H494Z"  />
<glyph unicode="&#x2018;" horiz-adv-x="283" d="M263 473Q263 462 241 445Q216 426 213 419Q176 419 150 441Q129 441 97 490Q92 502 62 556Q39 597 30 624Q37 628 67 639Q108 654 130 669L197 622Q225 558 252 494Q263 483 263 473ZM164 632L130 653Q128 651 85 632Q71 625 60 618Q73 604 89 604Q103 604 127 616Q157 630 164 632ZM248 477Q248 487 239 496L184 612L176 618L101 590Q103 572 116 551Q121 543 142 515Q155 501 167 485Q197 445 205 437Q207 440 230 456Q248 468 248 477ZM180 441Q164 461 123 515Q94 553 75 594L52 606Q60 593 87 536Q108 492 130 468Q139 465 156 455L180 441Z"  />
<glyph unicode="&#x2019;" horiz-adv-x="283" d="M253 624Q244 597 221 556Q191 502 186 490Q154 441 133 441Q107 419 70 419Q67 426 44 444T20 473Q20 483 31 494Q58 558 86 622L153 669Q175 654 216 639Q246 628 253 624ZM223 618Q212 625 198 632Q155 651 153 653L119 632Q126 630 156 616Q180 604 194 604Q210 604 223 618ZM231 606L208 594Q189 553 160 515Q138 486 103 441Q121 452 153 468Q175 492 196 536Q223 593 231 606ZM182 590L107 618L99 612L44 496Q35 487 35 477Q35 468 53 456Q76 440 78 437Q86 445 116 485Q128 501 141 515Q162 543 167 551Q180 572 182 590Z"  />
<glyph unicode="&#x201A;" horiz-adv-x="283" d="M253 104Q244 77 221 36Q191 -18 186 -30Q154 -79 133 -79Q107 -101 70 -101Q67 -94 44 -76T20 -47Q20 -37 31 -26Q58 38 86 102L153 149Q175 134 216 119Q246 108 253 104ZM223 98Q212 105 198 112Q155 131 153 133L119 112Q126 110 156 96Q180 84 194 84Q210 84 223 98ZM231 86L208 74Q189 33 160 -5Q138 -34 103 -79Q121 -68 153 -52Q175 -28 196 16Q223 73 231 86ZM182 70L107 98L99 92L44 -24Q35 -33 35 -43Q35 -52 53 -64Q76 -80 78 -83Q86 -75 116 -35Q128 -19 141 -5Q162 23 167 31Q180 52 182 70Z"  />
<glyph unicode="&#x201C;" horiz-adv-x="504" d="M484 467Q484 456 462 439Q437 420 433 413Q394 413 370 435Q349 435 317 484Q316 485 281 550Q261 586 250 618L310 643Q338 654 351 663L418 616Q446 552 473 488Q484 477 484 467ZM253 467Q253 456 231 439Q206 420 203 413Q164 413 140 435Q119 435 87 484Q86 485 51 550Q31 586 20 618Q27 622 57 633Q98 648 120 663L187 616Q215 552 242 488Q253 477 253 467ZM384 626L351 647Q348 645 305 626Q289 619 280 612Q293 598 309 598Q322 598 348 611T384 626ZM468 471Q468 479 459 490L404 606L396 612L321 585Q324 562 363 510Q373 499 387 480Q416 441 426 431Q428 434 451 450Q468 462 468 471ZM400 435Q384 455 344 509Q315 547 296 588L272 600Q290 564 307 528Q330 484 351 462Q376 448 400 435ZM154 626L120 647Q117 645 74 626Q58 619 49 612Q62 598 78 598L154 626ZM237 471Q237 479 228 490L173 606L165 612L91 585Q93 567 106 546Q111 538 132 510Q142 499 156 480Q185 441 195 431Q197 434 220 450Q237 462 237 471ZM169 435Q153 455 113 509Q84 547 65 588L41 600Q59 564 76 528Q99 484 120 462Q145 448 169 435Z"  />
<glyph unicode="&#x201D;" horiz-adv-x="504" d="M484 618Q473 586 453 550L417 484Q385 435 364 435Q340 413 301 413Q298 420 275 438T251 467Q251 477 262 488Q289 552 317 616L384 663Q406 648 447 633Q477 622 484 618ZM254 618Q243 586 223 550L187 484Q155 435 134 435Q110 413 71 413Q68 420 42 439Q20 456 20 467Q20 477 31 488Q58 552 86 616L153 663Q166 654 194 643L254 618ZM455 612Q446 619 430 626Q387 645 384 647L350 626L426 598Q442 598 455 612ZM463 600L439 588Q420 547 391 509L335 435Q359 448 384 462Q402 481 418 512L463 600ZM413 585L339 612L331 606L276 490Q267 479 267 471Q267 462 284 450Q307 434 309 431Q319 441 348 480Q362 499 372 510Q393 538 398 546Q411 567 413 585ZM224 612Q215 619 199 626Q156 645 153 647L120 626Q129 624 157 610Q182 598 195 598Q211 598 224 612ZM232 600L208 588Q189 547 160 509L104 435Q128 448 153 462Q171 481 187 512L232 600ZM183 585L108 612L100 606L45 490Q36 479 36 471Q36 462 53 450Q76 434 78 431Q88 441 117 480Q131 499 141 510Q164 541 167 545Q181 566 183 585Z"  />
<glyph unicode="&#x201E;" horiz-adv-x="504" d="M484 98Q473 66 453 30L417 -36Q385 -85 364 -85Q340 -107 301 -107Q298 -100 275 -82T251 -53Q251 -43 262 -32Q289 32 317 96L384 143Q406 128 447 113Q477 102 484 98ZM254 98Q243 66 223 30L187 -36Q155 -85 134 -85Q110 -107 71 -107Q68 -100 42 -81Q20 -64 20 -53Q20 -43 31 -32Q58 32 86 96L153 143Q166 134 194 123L254 98ZM455 92Q446 99 430 106Q387 125 384 127L350 106L426 78Q442 78 455 92ZM463 80L439 68Q420 27 391 -11L335 -85Q359 -72 384 -58Q402 -39 418 -8L463 80ZM413 65L339 92L331 86L276 -30Q267 -41 267 -49Q267 -58 284 -70Q307 -86 309 -89Q319 -79 348 -40Q362 -21 372 -10Q393 18 398 26Q411 47 413 65ZM224 92Q215 99 199 106Q156 125 153 127L120 106Q129 104 157 90Q182 78 195 78Q211 78 224 92ZM232 80L208 68Q189 27 160 -11L104 -85Q128 -72 153 -58Q171 -39 187 -8L232 80ZM183 65L108 92L100 86L45 -30Q36 -41 36 -49Q36 -58 53 -70Q76 -86 78 -89Q88 -79 117 -40Q131 -21 141 -10Q164 21 167 25Q181 46 183 65Z"  />
<glyph unicode="&#x2020;" horiz-adv-x="271" d="M222 423H155V66H119V423H53V456H119V520Q119 531 110 551T101 585Q101 596 108 618T120 663Q126 689 137 689Q148 689 154 663Q158 641 165 619T173 585Q173 572 164 552T155 520V456H222V423Z"  />
<glyph unicode="&#x2021;" horiz-adv-x="271" d="M221 174H154V110Q154 99 163 79T172 45Q172 34 165 12T153 -33Q147 -60 136 -60Q125 -60 119 -33Q115 -11 108 11T100 45Q100 58 109 78T118 110V174H52V207H118V422H52V456H118V520Q118 530 109 551T100 584Q100 596 107 618T119 663Q125 689 136 689Q147 689 153 663Q157 641 164 619T172 584Q172 572 163 551T154 520V456H221V422H154V207H221V174Z"  />
<glyph unicode="&#x2022;" d="M405 227Q405 162 355 117T234 71Q163 71 113 116T62 227Q62 291 112 336T234 382Q304 382 354 337T405 227Z"  />
<glyph unicode="&#x2026;" horiz-adv-x="710" d="M671 87L669 56Q659 34 631 23Q593 8 585 1L576 3Q568 3 542 -9Q529 -15 522 -15Q510 -15 502 5Q481 26 481 59Q481 100 514 121L513 124Q513 125 521 127T529 135Q543 135 572 149T615 163Q634 163 649 145Q674 128 671 87ZM451 87L449 56Q439 34 411 23Q373 8 365 1L356 3Q348 3 322 -9Q309 -15 302 -15Q290 -15 282 5Q261 26 261 59Q261 100 294 121L293 124Q293 125 301 127T309 135Q323 135 352 149T395 163Q414 163 429 145Q454 128 451 87ZM231 87L229 56Q219 34 191 23Q153 8 145 1L136 3Q128 3 102 -9Q89 -15 82 -15Q70 -15 62 5Q41 26 41 59Q41 100 74 121L73 124Q73 125 81 127T89 135Q103 135 132 149T175 163Q194 163 209 145Q234 128 231 87ZM653 64V76Q653 134 618 147L609 149Q602 149 587 140T564 131L583 127Q616 120 621 79Q622 65 626 37Q644 44 653 64ZM608 52Q603 61 604 69L605 84Q606 97 592 106Q556 115 557 115Q548 115 543 111Q542 113 538 115Q529 111 524 111Q496 97 496 64Q496 38 514 17Q522 2 526 2L531 3Q536 7 576 21Q605 31 608 52ZM433 64V76Q433 134 398 147L389 149Q382 149 367 140T344 131L363 127Q396 120 401 79Q402 65 406 37Q424 44 433 64ZM388 52Q383 61 384 69L385 84Q386 97 372 106Q336 115 337 115Q328 115 323 111Q322 113 318 115Q309 111 304 111Q276 97 276 64Q276 38 294 17Q302 2 306 2L311 3Q316 7 356 21Q385 31 388 52ZM213 64V76Q213 134 178 147L169 149Q162 149 147 140T124 131L143 127Q176 120 181 79Q182 65 186 37Q204 44 213 64ZM168 52Q163 61 164 69L165 84Q166 97 152 106Q116 115 117 115Q108 115 103 111Q102 113 98 115Q89 111 84 111Q56 97 56 64Q56 38 74 17Q82 2 86 2L91 3Q96 7 136 21Q165 31 168 52Z"  />
<glyph unicode="&#x2030;" horiz-adv-x="1138" d="M1096 179Q1096 101 1055 48Q1010 -11 930 -11Q847 -11 798 49Q755 102 755 179Q755 254 797 306Q845 365 926 365Q1007 365 1055 306Q1096 254 1096 179ZM736 179Q736 101 695 48Q649 -11 570 -11Q486 -11 438 49Q394 102 394 179Q394 254 437 306Q484 365 565 365Q647 365 694 306Q736 254 736 179ZM638 656L173 -4H126L591 656H638ZM372 469Q372 392 331 339Q286 280 206 280Q123 280 74 340Q31 393 31 469Q31 545 73 597Q121 656 202 656Q283 656 330 597Q372 545 372 469ZM1001 167V190Q1001 270 990 299Q975 344 926 344Q877 344 861 298Q850 269 850 190V167Q850 85 861 56Q877 11 930 11Q976 11 990 54Q1001 84 1001 167ZM640 167V190Q640 270 630 299Q614 344 565 344Q516 344 500 298Q490 269 490 190V167Q490 85 500 56Q517 11 570 11Q615 11 630 54Q640 84 640 167ZM277 458V481Q277 560 266 590Q251 634 202 634Q153 634 137 589Q126 559 126 481V458Q126 376 137 347Q153 301 206 301Q252 301 266 345Q277 375 277 458Z"  />
<glyph unicode="&#x2039;" horiz-adv-x="271" d="M238 108H208L29 258L208 408H238L109 258L238 108Z"  />
<glyph unicode="&#x203A;" horiz-adv-x="271" d="M243 258L63 108H35L164 258L35 408H63L243 258Z"  />
<glyph unicode="&#x20AA;" horiz-adv-x="664" d="M603 269Q603 210 576 168L563 148L515 93Q497 81 484 71L454 48Q434 33 401 20Q391 16 307 -8L255 127Q255 133 249 143T241 159Q235 163 235 168Q235 173 245 183L255 194Q255 194 265 216Q272 231 280 235L306 232Q322 232 341 237Q339 252 336 267Q332 286 321 292Q300 296 271 296Q236 296 212 288Q202 266 203 237L206 165L203 103Q208 100 208 94L190 84Q175 73 170 57Q159 51 156 51L150 53L131 55L101 54Q75 53 61 64Q75 112 85 179Q88 203 103 377Q108 379 121 396Q133 410 139 410H142L146 406L174 408Q180 408 219 406L252 404L291 407Q297 407 312 405T334 403L354 406Q358 402 365 402H371Q378 401 380 400Q422 400 447 357Q453 346 460 278Q464 270 464 268Q457 266 446 251T427 235L418 237Q402 231 377 216L401 158Q423 165 476 224Q491 323 491 358Q483 358 483 367L484 371Q504 386 519 410L527 413L531 412Q536 408 573 394Q582 390 592 390L599 391Q603 385 603 380Q599 368 599 362Q599 347 601 310L603 269ZM578 381L526 397Q516 390 503 372L518 369L526 370Q527 372 535 375L537 370L539 369H549Q569 369 578 381ZM590 276Q590 292 588 330L586 371Q565 366 565 346Q565 339 567 325T570 304L568 290Q572 280 572 275Q572 267 564 267Q559 274 556 276L558 313Q559 335 553 357L502 358Q502 349 500 335Q498 318 498 312L497 292L491 258Q486 230 477 187Q464 145 437 128L426 123Q392 101 367 89Q357 89 357 101L359 106Q353 114 343 148Q334 177 319 187Q315 186 283 173Q268 167 260 167L252 168L253 157Q266 133 290 71Q292 64 299 37Q305 16 314 5Q402 23 459 62Q507 95 533 134Q567 185 565 233L564 253L565 256L561 264L565 268L570 266L571 234Q572 200 565 175Q590 214 590 276ZM447 271V287Q447 368 403 382T280 396H221L162 398L152 396Q124 396 121 378L129 377L148 379L154 378Q185 373 199 373L254 374L309 377Q371 380 411 353Q416 338 424 288Q429 261 432 247L447 271ZM467 194L415 146H412Q402 146 383 111Q425 135 435 143Q462 164 467 194ZM388 144Q388 155 373 197Q367 208 361 208L356 206Q352 206 346 219Q330 209 330 197L332 189Q338 180 346 165Q357 138 368 112Q388 132 388 144ZM331 223H299Q285 223 274 208Q273 206 260 180Q286 183 323 205Q323 212 331 223ZM417 253Q417 264 413 286T408 317Q400 331 400 340V344Q376 366 317 366H305L280 368Q269 366 252 364L196 362L152 363L144 366Q140 366 133 364T123 361L115 364L78 65L115 64L152 65V83Q152 109 158 122L161 274L158 285Q158 292 165 297Q185 297 205 298Q229 299 244 305H249L290 306Q329 307 348 284V278L350 251Q352 243 355 236Q359 225 364 225L371 227Q377 233 394 240T417 253ZM196 286L191 287L177 284Q170 221 170 176L172 156Q172 146 168 123T165 89L166 74L190 97Q194 125 194 166V256Q194 269 196 286Z"  />
<glyph unicode="&#x2122;" horiz-adv-x="510" d="M467 464H371V480H399V596L351 464H339L286 589V480H315V464H238V480H266V628H238V645H301L353 522L399 645H467V628H440V480H467V464ZM216 600H199Q197 610 194 616Q188 628 169 628H147V480H175V464H78V480H105V628H82Q57 628 52 600H35L40 645H212L216 600Z"  />
<glyph unicode="&#x2153;" horiz-adv-x="815" d="M740 273Q740 249 733 231L734 226Q734 219 724 204T714 182Q714 176 719 169Q732 140 732 112Q732 81 715 57Q683 26 673 19Q645 -1 619 -1Q610 -4 594 -4Q574 -4 517 11Q500 23 489 45Q486 52 472 87Q472 101 490 117T512 144Q513 146 517 148L525 147L529 148L566 157L568 152Q569 144 571 143Q581 130 602 106Q613 106 617 111Q613 129 612 131Q607 141 596 144L579 147L582 197L581 214Q591 228 604 243L628 271Q618 279 608 279L599 276Q592 276 578 263Q570 256 567 256Q560 256 555 270Q555 273 546 284Q541 303 532 304Q551 335 581 357L610 368Q627 374 643 374H644Q684 363 693 359Q716 348 727 324Q731 322 732 316T735 307Q740 293 740 273ZM564 631Q564 623 553 616Q544 594 515 527Q494 478 480 437Q450 360 428 283L352 21Q339 19 315 4T275 -12H269Q260 -8 246 -8H232Q213 -8 206 0Q231 57 279 171Q286 188 306 263Q321 318 340 407Q345 415 349 427Q359 457 362 462L393 554Q409 608 409 651Q411 652 415 656L425 651Q435 660 465 662T504 669L510 667Q522 673 529 673L535 671Q535 664 549 651T564 631ZM244 653L242 343Q234 338 223 331T205 312Q183 324 166 324Q157 324 147 319Q132 319 132 334V339Q135 356 135 403V442Q135 493 140 526L139 561Q133 561 122 559T106 556Q96 556 90 562L108 640Q119 647 133 662L147 677Q189 665 213 665L238 668L244 653ZM547 633L525 655Q478 645 439 645Q454 638 486 630Q492 620 503 620Q509 620 518 624Q538 633 543 633H547ZM730 272Q730 321 694 348Q651 363 641 363L632 362Q606 359 604 359Q587 355 581 344L554 321Q568 331 617 340H621Q631 340 655 330Q669 324 676 324Q703 303 703 263L702 254Q700 250 696 220Q692 199 681 190Q685 190 691 193T700 196L705 194Q715 203 720 217Q722 222 727 246L730 272ZM628 254Q621 250 614 247Q609 241 605 235Q615 239 619 242Q627 248 628 254ZM218 657Q183 657 150 667Q142 663 136 656L123 641L132 640L157 643Q163 643 169 640T181 637Q202 637 218 657ZM722 111Q722 147 700 185Q692 184 684 181L669 174Q676 165 691 142Q702 107 700 80L698 53L709 65Q722 85 722 111ZM693 270Q693 280 687 292Q683 309 665 316T628 329H621Q574 329 549 304Q558 279 570 270Q600 290 610 290L623 287Q642 283 642 262L640 253Q639 240 592 211L590 169L591 153L594 154Q607 154 615 143Q618 139 627 120V107Q627 78 611 66Q597 61 583 57L574 58Q551 74 535 110L516 106Q505 104 483 92Q483 41 525 16Q560 8 595 1Q615 5 637 10T672 28Q681 37 690 88Q685 121 684 125Q680 141 670 155L650 181Q664 190 683 211Q683 220 686 233Q693 263 693 270ZM537 614Q519 610 501 607L494 608Q467 528 441 448Q422 427 414 388Q391 282 389 277Q371 241 355 182Q316 39 307 19L340 31Q350 55 359 87Q384 173 387 181Q410 289 450 403Q482 493 537 614ZM236 644L232 656Q222 646 212 637L214 629L212 626Q212 613 214 587T216 547V531L214 513V501Q214 487 211 457T208 410L210 332Q220 339 231 347L232 352Q230 360 229 361Q229 381 232 422L230 435L231 449L229 461Q229 492 232 553T236 644ZM614 96L605 95Q594 95 586 106Q562 139 559 140L545 116Q553 100 578 70H587Q595 70 600 74Q614 82 614 96ZM480 614Q454 620 452 620Q439 624 427 633Q417 580 362 419Q342 383 332 315Q323 257 300 197Q230 17 228 7Q245 4 263 1Q274 1 283 5L326 125Q337 159 344 202Q399 325 399 393Q426 447 453 529Q459 548 466 570L480 614ZM550 144Q537 143 516 136Q512 123 498 111Q502 115 520 119Q534 122 537 128T550 144ZM207 566V603Q204 619 203 626H199Q187 626 160 628L131 630H118Q114 620 110 599T102 568Q106 566 112 566Q118 566 129 569T147 572L150 570Q148 554 147 539L148 524L145 471Q144 460 147 451L144 448L145 405L142 333Q145 328 148 328Q156 332 167 332Q174 332 199 327L200 347L197 394Q196 409 200 458Q207 544 207 566Z"  />
<glyph unicode="&#x2154;" horiz-adv-x="815" d="M763 273Q763 254 756 231V226Q756 219 746 204T736 182Q736 176 741 169Q755 141 755 112Q755 81 738 57Q699 21 696 19Q668 -1 641 -1Q632 -4 616 -4Q596 -4 539 11Q518 25 494 87Q494 101 512 117T534 144Q535 146 539 148L547 147L551 148L588 157L590 152Q591 144 593 143Q603 131 624 106Q635 106 639 111Q635 128 634 131Q630 141 619 144L602 147L604 197L603 214Q613 228 626 243L650 271Q640 279 631 279L621 276Q614 276 600 263Q592 256 589 256Q582 256 578 270Q572 279 569 284Q564 303 554 304Q573 335 603 357Q631 367 633 368Q651 374 665 374H666Q705 363 714 359Q739 347 749 324Q751 318 757 307Q763 290 763 273ZM606 631Q606 623 595 616Q586 594 557 527Q536 477 522 437Q497 372 476 300Q472 287 437 161Q413 74 394 21Q382 19 358 4T318 -12H311Q303 -8 289 -8H274Q255 -8 248 0Q273 57 321 171Q328 188 348 263Q363 318 382 407Q387 413 391 427Q400 456 404 462Q433 543 436 554Q451 605 451 651Q452 653 457 656Q462 654 467 651Q477 660 507 662T546 669L552 667Q555 667 561 670T571 673L577 671Q578 665 592 651T606 631ZM316 579Q321 520 287 455Q279 445 248 423L302 421L308 417Q306 408 302 392Q302 382 298 363T293 335V328Q287 327 277 319Q258 304 250 304Q243 304 237 309Q213 305 177 305Q161 305 70 312Q64 317 64 328L66 339Q72 371 87 426Q107 473 145 500Q158 505 176 513T200 537Q199 546 192 561Q186 560 182 553Q173 539 168 539L161 541L136 538Q125 536 118 528Q108 531 88 542T58 556Q58 565 67 565Q80 627 141 655L145 654Q169 665 186 664L226 662H238Q285 644 290 641Q305 632 313 615L316 579ZM589 633L567 655Q520 645 481 645Q504 637 528 630Q536 620 545 620Q551 620 560 624Q580 633 585 633H589ZM752 272Q752 321 716 348Q686 363 664 363L654 362Q634 360 626 358Q609 354 603 344L576 321Q590 331 639 340H643Q653 340 677 330Q691 324 698 324Q725 303 725 263V254Q722 248 718 221Q714 200 703 190Q707 190 713 193T722 196L727 194Q737 203 742 217Q744 222 749 246L752 272ZM650 254Q643 250 637 247Q632 241 628 235Q638 240 641 242Q649 248 650 254ZM744 111Q744 151 722 185Q714 184 706 181L691 174Q696 168 704 157L714 142Q723 108 722 80L721 53L731 65Q744 81 744 111ZM579 614Q561 610 543 607L536 608Q509 528 483 448Q464 427 456 388Q434 282 431 277Q412 238 397 182Q357 37 349 19L382 31Q392 53 429 181Q447 253 493 403Q525 492 579 614ZM715 270Q715 282 710 292Q706 308 685 317Q668 323 650 329H643Q598 329 571 304Q580 279 592 270Q622 290 632 290L645 287Q664 283 664 262L662 253Q661 241 647 232L615 211L612 169L613 153L616 154Q629 154 637 143Q641 137 649 120V107Q649 78 633 66Q619 61 606 57L597 58Q573 73 557 110L538 106Q527 104 505 92Q512 36 547 16Q582 8 617 1Q667 11 675 15Q703 27 708 60Q711 80 712 88Q706 136 690 157Q682 166 673 181Q686 190 706 211Q706 222 710 242T715 270ZM305 579Q305 603 295 623Q254 654 200 654Q170 654 144 644L174 634H205Q246 634 264 623Q283 602 283 573Q283 561 279 538T275 503Q275 498 272 490T269 477Q252 460 220 441Q178 416 169 409L163 396L213 417L215 414Q243 433 257 443Q282 462 289 483L305 579ZM522 614Q496 620 494 620Q483 624 469 633Q459 580 404 419Q384 382 374 315Q365 254 343 197L270 7L306 1Q316 1 325 5L361 105Q379 156 386 202Q441 325 441 393Q468 447 495 529Q501 548 508 570L522 614ZM178 565L161 571Q141 568 131 544Q134 546 157 550Q175 553 178 565ZM636 96L627 95Q616 95 603 116T582 140Q574 128 567 116Q572 107 578 99Q585 83 600 70H609Q636 70 636 96ZM572 144L538 136Q534 123 520 111Q525 115 542 119Q556 123 559 128T572 144ZM270 592Q266 602 252 616Q238 621 193 622Q154 624 135 635Q96 623 78 578Q76 574 72 565Q72 558 90 552T111 540L129 562Q138 574 149 581L161 582Q177 583 200 569Q210 558 210 539V532Q206 516 186 507Q155 494 152 491Q112 451 111 450Q93 428 87 399Q83 375 73 328L75 321Q111 313 163 313Q175 313 198 315T233 317L241 315Q251 315 253 335Q255 360 257 363V367L260 383L257 390Q231 388 181 380L175 381Q159 377 151 377L142 378Q148 404 170 422Q192 436 214 450T256 478Q270 512 270 592ZM296 404Q284 399 283 392L274 389L270 374V365Q266 346 263 327L264 321L283 334L296 404ZM284 410L238 414Q229 411 211 406L208 407Q200 407 194 402Q184 394 183 393Q189 396 201 396H220L236 397L250 400L260 399Q278 399 284 410Z"  />
<glyph unicode="&#x2212;" horiz-adv-x="277" d="M277 231H4V262H277V231Z"  />
<glyph unicode="&#x2219;" horiz-adv-x="231" d="M172 309Q172 287 155 272T112 257Q87 257 70 272T52 309Q52 331 69 346T112 361Q137 361 154 346T172 309Z"  />
<glyph unicode="&#x2421;" horiz-adv-x="781" d="M742 0H563V286H602V34H742V0ZM527 0H313V286H521V252H352V165H510V131H352V34H527V0ZM279 145Q279 26 192 5Q172 0 146 0H42V286H141Q175 286 192 282Q279 262 279 145ZM240 146Q240 227 189 247Q174 252 141 252H80V34H142Q191 34 211 54Q240 83 240 146Z"  />
<glyph unicode="&#xE802;" horiz-adv-x="497" d="M447 489Q449 439 443 352Q436 253 436 214Q425 171 425 114Q425 82 432 5Q439 -64 437 -103L436 -128Q417 -155 382 -155Q367 -155 339 -150T295 -144Q281 -144 274 -146V-139Q274 -49 290 122L281 171Q270 231 271 258L272 283L268 289Q269 330 278 411L281 415L274 423L262 424Q252 425 235 422Q215 419 208 419Q195 419 189 421H183Q171 421 148 423T112 425Q85 425 64 417Q56 420 56 427Q56 436 61 448L59 465Q59 482 65 504L73 537L79 536Q90 536 101 551Q116 572 119 574Q137 568 165 568Q177 568 200 570T235 572Q262 572 286 563L300 564Q311 565 337 559T375 552L394 555L406 552L432 555Q444 555 445 539L447 489ZM231 290L230 259Q222 242 193 226Q169 215 146 204L136 206Q127 206 109 197T83 188Q71 188 63 208Q42 228 42 262Q42 303 75 324L74 327Q74 328 82 330T90 338Q104 338 132 352T175 366Q193 366 210 348Q232 331 231 290ZM220 85L219 54Q211 37 182 21Q158 10 135 -1L125 1Q116 1 98 -8T72 -17Q60 -17 52 3Q31 23 31 57Q31 98 64 119L63 122Q63 123 71 125T79 133Q93 133 121 147T164 161Q182 161 199 143Q221 126 220 85ZM411 537L387 539Q368 539 338 542Q321 544 302 551L290 547Q262 558 229 557L176 555Q157 554 128 561Q123 560 117 552T105 537Q129 531 154 531Q174 531 189 535Q266 535 390 509Q411 530 411 537ZM433 467L430 529L390 488V383Q378 337 379 283L381 178L380 143Q386 103 386 41V-16Q386 -91 396 -136Q425 -115 425 -107L422 -97Q412 -34 412 37Q412 89 419 191T426 346V388Q424 401 424 407Q434 438 433 467ZM214 267V279Q214 337 179 350L169 352Q162 352 147 343T124 334L144 330Q177 323 182 282Q183 268 187 240Q205 248 214 267ZM378 -136Q369 -82 370 -26L371 30Q371 30 371 67Q369 87 367 106Q363 151 363 198Q363 248 366 298Q375 448 375 470V474Q368 477 368 482Q368 491 377 500L374 501H370L365 503H361Q337 503 266 515Q230 521 211 521H189Q178 518 174 517L156 515Q147 515 130 517T103 520L83 517Q74 499 74 459V448L73 439Q74 437 78 435L87 439L113 440Q133 441 170 438T224 435H257Q272 438 278 439Q290 436 290 427Q288 419 286 417Q293 414 294 413Q289 402 290 391L291 374L290 366Q285 326 285 289Q285 213 304 122Q288 -30 288 -132H294Q305 -132 325 -135T357 -138Q371 -138 378 -136ZM169 255Q165 261 165 272V287Q165 301 153 309Q126 318 118 318Q109 318 104 314Q103 316 99 318Q90 314 85 314Q56 299 56 267Q56 241 75 220Q81 205 86 205L92 206Q96 210 135 224Q166 234 169 255ZM203 62V74Q203 132 168 145L158 147Q151 147 136 138T113 129L133 125Q166 118 171 77Q172 63 176 35Q194 43 203 62ZM158 50Q154 56 154 67V82Q154 96 142 104Q115 113 107 113Q98 113 93 109Q92 111 88 113Q84 113 73 109Q45 94 45 62Q45 36 64 15L68 5Q70 0 75 0L81 1Q86 6 124 19Q155 31 158 50Z"  />
<glyph unicode="&#xE803;" horiz-adv-x="563" d="M546 489Q547 459 543 390Q536 255 536 214Q524 172 524 114Q524 82 528 33Q538 -86 537 -103L536 -128Q517 -155 482 -155Q468 -155 450 -152Q403 -144 394 -144Q381 -144 374 -146V-139Q374 -49 390 122Q382 164 378 188Q370 235 371 258L372 283L368 289L378 411L380 415L374 423L361 424Q351 425 333 422T307 419Q295 419 289 421H283Q271 421 248 423T212 425Q183 425 164 417Q156 420 156 427Q156 430 158 437T160 448L159 465Q158 479 165 504L173 537L178 536Q190 536 201 551Q216 572 219 574Q237 568 264 568Q276 568 299 570T334 572Q362 572 386 563L399 564Q410 565 436 559T474 552L494 555L505 552L531 555Q545 555 545 539L546 489ZM346 296L345 240Q329 224 303 209Q254 222 247 222L245 199Q251 182 251 171Q251 156 240 142Q218 114 214 107L200 111Q182 103 161 104L120 106Q118 110 118 118Q118 125 122 139T126 161V171Q126 179 132 193T138 219Q124 219 118 213T106 207H96Q89 207 75 203T53 199L41 201L39 242Q38 265 45 281L42 295Q55 303 71 321Q81 332 92 332Q103 332 118 327L140 328L255 336Q317 340 307 341L335 339Q347 323 346 296ZM510 537L487 539Q468 539 441 541Q427 542 402 551L390 547Q362 558 328 557L275 555Q255 554 228 561Q223 560 217 552T205 537Q229 531 253 531Q273 531 289 535Q346 535 414 524Q438 520 490 509Q510 529 510 537ZM532 467L530 529L490 488V383Q478 337 479 283L481 178L480 143Q486 105 486 41V-16Q486 -92 496 -136Q497 -135 510 -126T524 -107L522 -97Q512 -47 512 37Q512 83 520 192Q528 291 526 346L524 407Q533 432 532 467ZM336 267L333 307V314L309 299Q309 292 307 278T305 256Q305 238 311 227Q338 237 336 267ZM478 -136Q470 -94 470 -26V49Q470 71 467 111T463 169T462 198Q462 239 466 298Q475 431 475 470V474Q471 475 467 482Q467 490 477 500L473 501H469L465 503H460Q435 503 386 512T311 521H296Q289 521 274 517L255 515Q246 515 229 517T203 520L183 517Q173 497 173 459V439Q173 437 177 435L187 439L212 440Q232 441 268 438Q308 435 324 435H350Q369 438 378 439Q390 436 390 427Q388 419 386 417L394 413Q390 404 390 391V366Q384 328 384 289Q384 218 404 122Q388 -30 388 -132H393Q404 -132 424 -135T456 -138Q470 -138 478 -136ZM327 327L302 328Q274 329 126 315Q106 322 100 322Q94 322 82 313Q74 306 65 299Q74 299 89 296T111 293L138 296L201 301L216 299L241 300H263L281 303Q296 300 301 300Q312 300 327 327ZM241 184Q241 197 234 217L225 219L214 217L216 198Q213 183 213 170Q213 164 215 151T217 131Q223 140 232 154T241 184ZM297 226Q291 236 292 248L294 278L292 292H276L243 289L211 291L209 292L150 283H130Q120 283 101 284T71 286H59Q50 268 50 227L52 223L51 216Q54 211 56 211Q99 224 121 226L148 229L145 203Q140 159 129 121Q131 116 135 116L142 117L146 115Q185 115 205 124V137Q205 148 203 174Q200 197 201 210L202 231L240 230L270 232Q277 226 291 226H297Z"  />
<glyph unicode="&#xE804;" horiz-adv-x="465" d="M458 454Q396 248 308 15L300 16Q278 16 253 -9Q240 -7 208 6Q180 17 162 17Q150 17 150 25L153 44Q175 106 185 138Q202 194 208 237Q222 274 247 322Q247 328 255 342T263 363Q243 371 203 391Q138 424 98 424H93Q51 434 27 452Q27 458 42 464Q34 475 34 491Q34 499 36 514T38 538V543Q34 566 34 593Q34 618 35 630Q38 646 38 653Q34 658 33 676T28 702L80 761Q100 756 142 755T202 749L207 744Q213 721 213 698Q213 671 206 649V636L208 586Q208 575 206 566Q275 536 345 507Q353 501 371 497T395 489Q413 483 431 478Q452 470 458 454ZM8 681L6 650Q-4 628 -32 617Q-72 601 -79 595L-88 597Q-97 597 -115 588T-141 579Q-153 579 -161 599Q-182 620 -182 654Q-182 694 -150 715L-151 718Q-151 719 -143 721T-134 729Q-120 729 -91 743T-48 757Q-29 757 -14 739Q11 722 8 681ZM178 737L156 736Q128 735 91 745L50 706L65 705Q75 704 94 707T121 710Q135 710 147 706L178 737ZM199 701Q199 719 196 728L174 712L154 688L153 638L154 559L153 539Q175 546 188 556L194 594L191 619Q191 633 195 660T199 701ZM426 460Q411 469 372 481T316 503Q288 509 273 521Q267 523 238 536Q216 546 202 546L162 523Q207 505 253 487L264 488Q279 488 294 482L324 470Q357 461 363 459Q385 452 399 442L426 460ZM-10 658V670Q-10 729 -45 741L-54 743Q-61 743 -76 734T-99 725L-81 721Q-46 713 -41 672Q-40 660 -37 630Q-19 638 -10 658ZM442 448Q429 446 395 417Q391 404 345 276Q328 228 328 188Q322 172 306 124L273 25Q299 25 308 53Q321 93 326 98L385 272Q414 360 442 448ZM379 430Q370 432 357 444Q338 444 315 454Q281 469 275 470L265 469Q249 469 220 481Q201 489 192 491Q187 501 164 504T135 517V543L138 660L137 688Q128 692 115 692Q107 692 77 687Q65 685 55 685L44 686L48 663Q50 649 50 637L48 577Q47 558 52 539Q52 531 49 514T46 489Q46 472 52 462L50 456Q72 440 121 434Q148 434 183 419Q212 405 241 391Q254 382 265 382Q275 382 280 391L286 381Q253 323 224 227Q202 145 180 64Q166 42 166 32Q213 21 243 7Q274 77 308 182Q308 235 344 324Q369 386 375 407L378 413L375 424Q377 429 379 430ZM-55 646Q-60 655 -59 663L-58 677Q-57 690 -71 699Q-96 709 -106 709Q-113 709 -120 705Q-121 707 -124 709Q-133 705 -138 705Q-167 690 -167 657Q-167 630 -150 611Q-140 596 -137 596L-132 597Q-127 601 -87 615Q-58 625 -55 646Z"  />
<glyph unicode="&#xE805;" horiz-adv-x="465" d="M458 454Q396 248 308 15L300 16Q278 16 253 -9Q240 -7 208 6Q180 17 162 17Q150 17 150 25L153 44Q175 106 185 138Q202 194 208 237Q222 274 247 322Q247 328 255 342T263 363Q243 371 203 391Q138 424 98 424H93Q51 434 27 452Q27 458 42 464Q34 475 34 491Q34 499 36 514T38 538V543Q34 566 34 593Q34 618 35 630Q38 646 38 653Q34 658 33 676T28 702L80 761Q100 756 142 755T202 749L207 744Q213 721 213 698Q213 671 206 649V636L208 586Q208 575 206 566Q275 536 345 507Q353 501 371 497T395 489Q413 483 431 478Q452 470 458 454ZM-2 681L-4 650Q-14 628 -42 617Q-82 601 -89 595L-98 597Q-107 597 -125 588T-151 579Q-163 579 -171 599Q-192 620 -192 654Q-192 694 -160 715L-161 718Q-161 719 -153 721T-144 729Q-130 729 -101 743T-58 757Q-39 757 -24 739Q1 722 -2 681ZM197 272L195 241Q185 219 157 208Q119 193 111 186L102 188Q94 188 68 176Q55 170 48 170Q36 170 28 190Q7 211 7 244Q7 285 40 306L39 309Q39 310 47 312T55 320Q69 320 98 334T141 348Q160 348 175 330Q200 313 197 272ZM178 737L156 736Q128 735 91 745L50 706L65 705Q75 704 94 707T121 710Q135 710 147 706L178 737ZM199 701Q199 719 196 728L174 712L154 688L153 638L154 559L153 539Q175 546 188 556L194 594L191 619Q191 633 195 660T199 701ZM426 460Q411 469 372 481T316 503Q288 509 273 521Q267 523 238 536Q216 546 202 546L162 523Q207 505 253 487L264 488Q279 488 294 482L324 470Q357 461 363 459Q385 452 399 442L426 460ZM-20 658V670Q-20 729 -55 741L-64 743Q-71 743 -86 734T-109 725L-91 721Q-56 713 -51 672Q-50 660 -47 630Q-29 638 -20 658ZM442 448Q429 446 395 417Q391 404 345 276Q328 228 328 188Q322 172 306 124L273 25Q299 25 308 53Q321 93 326 98L385 272Q414 360 442 448ZM379 430Q370 432 357 444Q338 444 315 454Q281 469 275 470L265 469Q249 469 220 481Q201 489 192 491Q187 501 164 504T135 517V543L138 660L137 688Q128 692 115 692Q107 692 77 687Q65 685 55 685L44 686L48 663Q50 649 50 637L48 577Q47 558 52 539Q52 531 49 514T46 489Q46 472 52 462L50 456Q72 440 121 434Q148 434 183 419Q212 405 241 391Q254 382 265 382Q275 382 280 391L286 381Q253 323 224 227Q202 145 180 64Q166 42 166 32Q213 21 243 7Q274 77 308 182Q308 235 344 324Q369 386 375 407L378 413L375 424Q377 429 379 430ZM-65 646Q-70 655 -69 663L-68 677Q-67 690 -81 699Q-106 709 -116 709Q-123 709 -130 705Q-131 707 -134 709Q-143 705 -148 705Q-177 690 -177 657Q-177 630 -160 611Q-150 596 -147 596L-142 597Q-137 601 -97 615Q-68 625 -65 646ZM179 249Q179 284 175 298Q168 323 144 332L135 334Q127 334 112 325T89 316L109 312Q137 306 145 276Q148 249 152 222Q171 230 179 249ZM134 237Q129 246 130 254L131 269Q132 282 118 291L100 297Q91 300 83 300Q74 300 69 296Q69 298 64 300Q60 300 49 296Q22 282 22 249Q22 223 40 202Q50 187 52 187L57 188Q62 192 101 207Q131 218 134 237Z"  />
<glyph unicode="&#xFB20;" horiz-adv-x="486" d="M452 392Q452 307 440 244Q440 213 409 175Q407 171 355 116L348 120Q343 120 328 102Q318 99 299 83T268 62L135 -3Q107 -9 50 -40L46 -41Q41 -41 34 -30V6Q34 60 22 84L32 90Q39 109 63 143Q77 163 83 173Q87 176 115 183Q136 189 142 200Q135 220 128 244T111 289L112 292Q105 302 103 307Q101 335 101 347V361Q101 386 103 444L105 509L115 537Q122 540 156 560Q183 576 200 576Q211 576 225 570Q231 567 254 560Q272 554 280 545Q282 537 282 519V489Q282 458 292 444L294 459Q294 467 292 476L288 494L355 555L368 554Q376 553 389 555L422 559L438 557Q441 556 444 550L442 540Q446 534 448 533Q448 509 450 453L452 392ZM420 539Q413 540 388 542L361 543Q342 531 312 499L357 507Q366 498 375 498Q388 498 420 539ZM436 413Q436 427 434 480L432 527Q425 522 414 507T391 486Q401 420 401 349Q401 266 387 177Q413 193 420 230Q425 261 430 293L434 301L436 413ZM249 547L247 545Q239 552 235 555Q228 555 216 557T196 559Q186 559 180 557Q175 552 156 544T131 529H141Q171 529 190 521L198 519H202Q209 519 211 513Q225 513 235 525Q237 527 249 547ZM292 391V421L290 406L292 391ZM283 334Q283 346 276 356V362Q276 375 275 382L270 418Q270 431 274 440Q263 457 265 484L268 531L263 537Q257 531 244 516T227 490V479Q227 464 223 436T219 392Q219 375 224 347Q230 311 231 301Q236 249 255 226Q266 235 278 257Q273 267 273 280Q273 289 278 307T283 334ZM385 350Q385 421 375 480Q367 489 354 489Q346 489 330 485T308 480L310 424Q312 358 294 295Q298 286 298 274Q298 255 284 233Q279 225 255 196H249Q239 210 230 235Q217 271 215 275L212 300L213 323Q213 323 213 339Q210 347 209 350Q203 368 203 389Q203 403 206 430T209 472V482L206 480Q202 480 198 485Q198 486 204 498L173 510Q155 516 139 516L121 513Q116 461 117 420L119 320Q123 307 146 241Q164 189 168 155Q168 142 153 131Q134 121 127 116Q107 114 91 107Q87 105 40 76Q48 50 48 -6V-24L89 -8Q117 8 176 37Q215 54 255 71Q279 84 298 102Q321 111 343 140Q352 152 365 171Q385 254 385 350ZM150 153L146 181Q141 178 114 170Q94 164 89 151Q78 144 54 104Q66 116 89 123Q137 138 150 153Z"  />
<glyph unicode="&#xFB2A;" horiz-adv-x="579" d="M568 658L566 627Q556 605 528 594Q488 578 481 572L472 574Q464 574 438 562Q425 556 418 556Q406 556 398 576Q377 597 377 630Q377 671 410 692L409 695Q409 696 417 698T426 706Q440 706 469 720T512 734Q531 734 546 716Q571 699 568 658ZM546 495L544 461V453L536 448Q536 386 495 308L426 178Q410 149 374 106Q363 93 313 38Q270 23 227 -3L211 -1Q62 144 28 247L27 270Q26 284 29 309T32 346V363Q29 374 28 381L10 481L28 487Q74 533 97 533L107 532Q122 527 137 528L168 530Q176 528 176 520Q174 516 172 516Q185 484 185 436L189 422Q199 429 229 479Q235 481 267 508Q282 520 294 522Q305 500 365 440Q350 407 311 369Q277 340 243 310Q233 301 233 293Q233 286 238 277T246 264L272 239Q285 250 306 296Q316 317 329 329Q348 358 366 422Q377 460 384 481Q400 485 461 524Q472 524 500 507Q515 498 525 498L532 499Q532 497 536 495L543 497L546 495ZM550 635V647Q550 705 515 718L506 720Q499 720 483 711T460 702L479 698Q507 692 515 662L522 607Q541 614 550 635ZM505 623Q500 632 501 640L502 654Q503 667 489 676Q461 686 454 686Q445 686 440 682Q439 684 435 686Q426 682 421 682Q392 666 392 634Q392 608 410 588Q420 573 423 573L428 574Q433 578 473 592Q502 602 505 623ZM510 487Q496 493 485 501Q475 506 468 506Q458 506 414 481L443 467L452 464L472 467Q480 467 483 457Q495 467 510 487ZM347 436L284 505L250 477Q269 461 274 456Q288 443 296 430Q315 422 323 398Q334 410 347 436ZM524 473L481 438V430Q481 376 418 249Q402 216 371 168T315 89L252 28L270 36Q320 50 357 102Q382 140 422 196Q432 219 471 298Q524 405 524 473ZM176 408L164 505Q156 493 146 473Q150 462 150 441V422Q150 401 156 387Q166 397 176 408ZM154 516H120Q103 516 91 520Q65 508 48 489Q66 487 90 487H132Q138 489 154 516ZM465 420Q465 431 459 440L465 446Q451 446 420 460Q404 467 394 467L366 376Q350 324 321 294Q290 236 260 178L242 164L237 166Q200 197 168 257Q176 271 208 293Q236 313 244 331Q263 340 279 361Q285 369 304 402Q271 432 239 463L221 442Q212 421 192 398Q162 363 157 357T144 351L136 353V370Q136 404 130 467Q117 467 82 469L44 471H30V463L32 414Q43 385 42 352L39 283L42 245Q96 111 213 14Q325 111 408 263Q418 293 429 318Q434 329 455 371Q460 395 465 420ZM262 216Q262 227 242 250T219 282Q195 272 187 255Q203 216 244 190Q262 202 262 216Z"  />
<glyph unicode="&#xFB2B;" horiz-adv-x="579" d="M200 671L198 638Q188 616 160 605Q122 590 114 583L105 585Q97 585 71 573Q58 567 51 567Q39 567 31 587Q10 608 10 641Q10 682 43 703L42 706Q42 707 50 709T58 717Q72 717 101 731T144 745Q164 745 179 727Q202 711 200 671ZM562 495L560 461V453Q556 453 552 448Q552 386 511 308L442 178Q428 152 390 106Q371 83 330 38Q282 21 243 -3L227 -1Q78 144 44 247L43 270Q43 278 45 315L47 346V363Q46 370 44 381Q39 405 36 428L27 481L44 487Q90 533 113 533L123 532Q138 527 153 528L184 530Q192 528 192 520Q190 516 188 516Q202 483 202 436L206 422Q215 429 245 479Q251 481 283 508Q298 520 310 522Q321 500 381 440Q366 407 327 370Q293 340 259 310Q249 303 249 294Q249 284 263 264L288 239L346 329Q364 358 383 422Q394 460 401 481Q418 486 477 524Q488 524 516 507Q531 498 540 498L548 499Q548 497 552 495L559 497L562 495ZM527 487Q511 494 501 500T484 506Q474 506 430 481L460 467L469 464L488 467Q496 467 499 457Q505 462 514 470T527 487ZM182 646V658Q182 716 147 729L138 731Q131 731 116 722T93 713L112 709Q140 703 148 673L155 618Q173 626 182 646ZM363 436L300 505L267 477Q284 463 312 430Q330 424 340 398Q350 410 363 436ZM137 634Q132 643 133 651L134 665Q135 678 121 687Q93 697 86 697Q77 697 72 693Q71 695 67 697Q61 693 54 693Q25 677 25 645Q25 619 43 599Q51 584 55 584L60 585Q65 589 105 603Q134 613 137 634ZM540 473L497 438V430Q497 373 434 249Q388 159 332 89L269 28L287 36Q336 50 373 102Q398 140 438 196Q448 219 487 298Q540 405 540 473ZM192 408L180 505Q172 493 162 473Q166 458 166 441V422Q166 401 172 387Q182 397 192 408ZM170 516H136Q119 516 107 520Q81 508 64 489Q82 487 107 487H149Q159 491 170 516ZM481 419Q481 431 475 440L481 446Q468 446 445 456T411 467L383 376Q367 324 338 294Q307 236 277 178Q274 177 268 171T258 164L253 166Q216 197 184 257Q191 269 234 301Q254 316 261 331Q279 340 295 361Q302 370 320 402Q287 432 255 463L237 442Q228 421 208 398Q178 363 173 357T161 351L153 353V370Q153 404 147 467Q134 467 99 469L60 471H46V463L48 414Q59 385 58 352L55 283L58 245Q112 111 229 14Q341 111 424 263Q436 302 472 371Q481 419 481 419ZM279 215Q279 227 258 250T235 282Q210 271 204 255Q220 216 261 190Q279 202 279 215Z"  />
<glyph unicode="&#xFB2C;" horiz-adv-x="579" d="M568 658L566 627Q556 605 528 594Q488 578 481 572L472 574Q464 574 438 562Q425 556 418 556Q406 556 398 576Q377 597 377 630Q377 671 410 692L409 695Q409 696 417 698T426 706Q440 706 469 720T512 734Q531 734 546 716Q571 699 568 658ZM546 495L544 461V453L536 448Q536 386 495 308L426 178Q410 149 374 106Q363 93 313 38Q270 23 227 -3L211 -1Q62 144 28 247L27 270Q26 284 29 309T32 346V363Q29 374 28 381L10 481L28 487Q74 533 97 533L107 532Q122 527 137 528L168 530Q176 528 176 520Q174 516 172 516Q185 484 185 436L189 422Q199 429 229 479Q235 481 267 508Q282 520 294 522Q305 500 365 440Q350 407 311 369Q277 340 243 310Q233 301 233 293Q233 286 238 277T246 264L272 239Q285 250 306 296Q316 317 329 329Q348 358 366 422Q377 460 384 481Q400 485 461 524Q472 524 500 507Q515 498 525 498L532 499Q532 497 536 495L543 497L546 495ZM550 635V647Q550 705 515 718L506 720Q499 720 483 711T460 702L479 698Q507 692 515 662L522 607Q541 614 550 635ZM505 623Q500 632 501 640L502 654Q503 667 489 676Q461 686 454 686Q445 686 440 682Q439 684 435 686Q426 682 421 682Q392 666 392 634Q392 608 410 588Q420 573 423 573L428 574Q433 578 473 592Q502 602 505 623ZM510 487Q496 493 485 501Q475 506 468 506Q458 506 414 481L443 467L452 464L472 467Q480 467 483 457Q495 467 510 487ZM347 436L284 505L250 477Q269 461 274 456Q288 443 296 430Q315 422 323 398Q334 410 347 436ZM524 473L481 438V430Q481 376 418 249Q402 216 371 168T315 89L252 28L270 36Q320 50 357 102Q382 140 422 196Q432 219 471 298Q524 405 524 473ZM176 408L164 505Q156 493 146 473Q150 462 150 441V422Q150 401 156 387Q166 397 176 408ZM154 516H120Q103 516 91 520Q65 508 48 489Q66 487 90 487H132Q138 489 154 516ZM465 420Q465 431 459 440L465 446Q451 446 420 460Q404 467 394 467L366 376Q350 324 321 294Q290 236 260 178L242 164L237 166Q200 197 168 257Q176 271 208 293Q236 313 244 331Q263 340 279 361Q285 369 304 402Q271 432 239 463L221 442Q212 421 192 398Q162 363 157 357T144 351L136 353V370Q136 404 130 467Q117 467 82 469L44 471H30V463L32 414Q43 385 42 352L39 283L42 245Q96 111 213 14Q325 111 408 263Q418 293 429 318Q434 329 455 371Q460 395 465 420ZM262 216Q262 227 242 250T219 282Q195 272 187 255Q203 216 244 190Q262 202 262 216Z"  />
<glyph unicode="&#xFB2D;" horiz-adv-x="579" d="M200 671L198 638Q188 616 160 605Q122 590 114 583L105 585Q97 585 71 573Q58 567 51 567Q39 567 31 587Q10 608 10 641Q10 682 43 703L42 706Q42 707 50 709T58 717Q72 717 101 731T144 745Q164 745 179 727Q202 711 200 671ZM562 495L560 461V453Q556 453 552 448Q552 386 511 308L442 178Q428 152 390 106Q371 83 330 38Q282 21 243 -3L227 -1Q78 144 44 247L43 270Q43 278 45 315L47 346V363Q46 370 44 381Q39 405 36 428L27 481L44 487Q90 533 113 533L123 532Q138 527 153 528L184 530Q192 528 192 520Q190 516 188 516Q202 483 202 436L206 422Q215 429 245 479Q251 481 283 508Q298 520 310 522Q321 500 381 440Q366 407 327 370Q293 340 259 310Q249 303 249 294Q249 284 263 264L288 239L346 329Q364 358 383 422Q394 460 401 481Q418 486 477 524Q488 524 516 507Q531 498 540 498L548 499Q548 497 552 495L559 497L562 495ZM527 487Q511 494 501 500T484 506Q474 506 430 481L460 467L469 464L488 467Q496 467 499 457Q505 462 514 470T527 487ZM182 646V658Q182 716 147 729L138 731Q131 731 116 722T93 713L112 709Q140 703 148 673L155 618Q173 626 182 646ZM363 436L300 505L267 477Q284 463 312 430Q330 424 340 398Q350 410 363 436ZM137 634Q132 643 133 651L134 665Q135 678 121 687Q93 697 86 697Q77 697 72 693Q71 695 67 697Q61 693 54 693Q25 677 25 645Q25 619 43 599Q51 584 55 584L60 585Q65 589 105 603Q134 613 137 634ZM540 473L497 438V430Q497 373 434 249Q388 159 332 89L269 28L287 36Q336 50 373 102Q398 140 438 196Q448 219 487 298Q540 405 540 473ZM192 408L180 505Q172 493 162 473Q166 458 166 441V422Q166 401 172 387Q182 397 192 408ZM170 516H136Q119 516 107 520Q81 508 64 489Q82 487 107 487H149Q159 491 170 516ZM481 419Q481 431 475 440L481 446Q468 446 445 456T411 467L383 376Q367 324 338 294Q307 236 277 178Q274 177 268 171T258 164L253 166Q216 197 184 257Q191 269 234 301Q254 316 261 331Q279 340 295 361Q302 370 320 402Q287 432 255 463L237 442Q228 421 208 398Q178 363 173 357T161 351L153 353V370Q153 404 147 467Q134 467 99 469L60 471H46V463L48 414Q59 385 58 352L55 283L58 245Q112 111 229 14Q341 111 424 263Q436 302 472 371Q481 419 481 419ZM279 215Q279 227 258 250T235 282Q210 271 204 255Q220 216 261 190Q279 202 279 215Z"  />
<glyph unicode="&#xFB2E;" horiz-adv-x="500" d="M479 486Q462 437 426 373L365 265Q374 241 393 202Q415 156 422 139Q446 117 446 98Q439 93 418 63Q402 39 383 37Q381 36 346 22Q321 12 316 -6Q303 -6 301 8Q297 27 296 29Q288 40 269 82Q254 115 235 128Q223 91 212 35Q184 27 172 22Q147 12 141 -4Q99 2 103 2Q92 13 70 21L42 32Q35 34 33 39Q41 49 41 56L40 59Q43 67 49 90Q54 109 66 118Q95 206 125 295Q106 331 64 433L65 436Q65 443 54 460Q48 469 48 473Q48 480 58 486Q65 495 84 523Q95 538 103 545L114 544Q129 544 170 562Q193 572 206 572L220 555L219 547Q219 535 228 513T238 482T254 451T269 417Q287 425 312 480Q334 529 369 533Q379 547 397 549Q408 543 435 518Q458 496 476 492L479 486ZM347 -151H270L278 -227V-284H223V-227Q223 -202 231 -151H154V-97H347V-151ZM440 490Q437 501 422 510Q401 523 397 527H392Q383 527 348 506Q378 488 409 470L440 490ZM460 476L440 472Q428 470 417 449T399 423Q399 414 393 406Q384 394 383 391Q351 331 320 271Q320 271 335 277T359 291Q422 386 460 476ZM265 391Q259 396 255 411T247 431Q232 448 221 479Q214 506 206 533L180 504L186 498Q194 477 212 424Q227 380 249 356Q256 368 265 391ZM196 553H192Q182 553 155 541T112 529L84 498Q152 513 166 513L196 553ZM426 108Q409 127 381 195L361 226Q358 237 354 249T340 262L334 261L318 250Q347 156 405 76Q426 97 426 108ZM399 452Q384 464 353 486Q341 494 335 494Q330 490 330 486Q326 466 299 425T271 360Q262 343 259 339Q251 328 241 324Q235 325 235 334L236 345L235 348Q210 371 195 424Q178 484 166 502Q156 496 117 490Q84 484 68 470Q74 465 80 441Q87 412 110 365Q141 302 145 291L80 114Q66 99 52 43Q77 40 111 15L124 13Q137 13 142 36Q148 64 155 69Q179 136 204 204Q223 189 226 185Q235 175 239 159Q247 143 250 136Q257 124 269 120Q278 91 318 25Q326 36 353 42T389 59Q375 98 346 137L302 264Q302 295 324 321L323 326Q323 329 332 334T342 344Q370 398 399 452ZM226 143Q226 164 208 179Q198 136 155 31Q164 31 177 40T198 51L226 143Z"  />
<glyph unicode="&#xFB2F;" horiz-adv-x="500" d="M479 486Q462 437 426 373L365 265Q374 241 393 202Q415 156 422 139Q446 117 446 98Q439 93 418 63Q402 39 383 37Q381 36 346 22Q321 12 316 -6Q303 -6 301 8Q297 27 296 29Q288 40 269 82Q254 115 235 128Q223 91 212 35Q184 27 172 22Q147 12 141 -4Q99 2 103 2Q92 13 70 21L42 32Q35 34 33 39Q41 49 41 56L40 59Q43 67 49 90Q54 109 66 118Q95 206 125 295Q106 331 64 433L65 436Q65 443 54 460Q48 469 48 473Q48 480 58 486Q65 495 84 523Q95 538 103 545L114 544Q129 544 170 562Q193 572 206 572L220 555L219 547Q219 535 228 513T238 482T254 451T269 417Q287 425 312 480Q334 529 369 533Q379 547 397 549Q408 543 435 518Q458 496 476 492L479 486ZM347 -151H154V-97H347V-151ZM440 490Q437 501 422 510Q401 523 397 527H392Q383 527 348 506Q378 488 409 470L440 490ZM460 476L440 472Q428 470 417 449T399 423Q399 414 393 406Q384 394 383 391Q351 331 320 271Q320 271 335 277T359 291Q422 386 460 476ZM265 391Q259 396 255 411T247 431Q232 448 221 479Q214 506 206 533L180 504L186 498Q194 477 212 424Q227 380 249 356Q256 368 265 391ZM196 553H192Q182 553 155 541T112 529L84 498Q152 513 166 513L196 553ZM426 108Q409 127 381 195L361 226Q358 237 354 249T340 262L334 261L318 250Q347 156 405 76Q426 97 426 108ZM399 452Q384 464 353 486Q341 494 335 494Q330 490 330 486Q326 466 299 425T271 360Q262 343 259 339Q251 328 241 324Q235 325 235 334L236 345L235 348Q210 371 195 424Q178 484 166 502Q156 496 117 490Q84 484 68 470Q74 465 80 441Q87 412 110 365Q141 302 145 291L80 114Q66 99 52 43Q77 40 111 15L124 13Q137 13 142 36Q148 64 155 69Q179 136 204 204Q223 189 226 185Q235 175 239 159Q247 143 250 136Q257 124 269 120Q278 91 318 25Q326 36 353 42T389 59Q375 98 346 137L302 264Q302 295 324 321L323 326Q323 329 332 334T342 344Q370 398 399 452ZM226 143Q226 164 208 179Q198 136 155 31Q164 31 177 40T198 51L226 143Z"  />
<glyph unicode="&#xFB30;" horiz-adv-x="500" d="M479 486Q462 437 426 373L365 265Q374 241 393 202Q415 156 422 139Q446 117 446 98Q439 93 418 63Q402 39 383 37Q381 36 346 22Q321 12 316 -6Q303 -6 301 8Q297 27 296 29Q288 40 269 82Q254 115 235 128Q223 91 212 35Q184 27 172 22Q147 12 141 -4Q99 2 103 2Q92 13 70 21L42 32Q35 34 33 39Q41 49 41 56L40 59Q43 67 49 90Q54 109 66 118Q95 206 125 295Q106 331 64 433L65 436Q65 443 54 460Q48 469 48 473Q48 480 58 486Q65 495 84 523Q95 538 103 545L114 544Q129 544 170 562Q193 572 206 572L220 555L219 547Q219 535 228 513T238 482T254 451T269 417Q287 425 312 480Q334 529 369 533Q379 547 397 549Q408 543 435 518Q458 496 476 492L479 486ZM292 -124Q292 -142 280 -154T250 -166Q232 -166 220 -154T208 -124Q208 -106 220 -94T250 -82Q268 -82 280 -94T292 -124ZM440 490Q437 501 422 510Q401 523 397 527H392Q383 527 348 506Q378 488 409 470L440 490ZM460 476L440 472Q428 470 417 449T399 423Q399 414 393 406Q384 394 383 391Q351 331 320 271Q320 271 335 277T359 291Q422 386 460 476ZM265 391Q259 396 255 411T247 431Q232 448 221 479Q214 506 206 533L180 504L186 498Q194 477 212 424Q227 380 249 356Q256 368 265 391ZM196 553H192Q182 553 155 541T112 529L84 498Q152 513 166 513L196 553ZM426 108Q409 127 381 195L361 226Q358 237 354 249T340 262L334 261L318 250Q347 156 405 76Q426 97 426 108ZM399 452Q384 464 353 486Q341 494 335 494Q330 490 330 486Q326 466 299 425T271 360Q262 343 259 339Q251 328 241 324Q235 325 235 334L236 345L235 348Q210 371 195 424Q178 484 166 502Q156 496 117 490Q84 484 68 470Q74 465 80 441Q87 412 110 365Q141 302 145 291L80 114Q66 99 52 43Q77 40 111 15L124 13Q137 13 142 36Q148 64 155 69Q179 136 204 204Q223 189 226 185Q235 175 239 159Q247 143 250 136Q257 124 269 120Q278 91 318 25Q326 36 353 42T389 59Q375 98 346 137L302 264Q302 295 324 321L323 326Q323 329 332 334T342 344Q370 398 399 452ZM226 143Q226 164 208 179Q198 136 155 31Q164 31 177 40T198 51L226 143Z"  />
<glyph unicode="&#xFB31;" horiz-adv-x="457" d="M444 118Q444 82 430 35Q412 35 392 14Q378 -1 373 -4Q349 4 313 6Q215 12 209 13L198 17Q182 17 151 10T104 3L79 6L72 5Q67 5 56 8T38 11L36 21V36Q36 89 26 110Q28 111 30 117L26 130Q47 157 68 185H72Q76 185 93 179Q101 176 107 175L225 185Q230 200 230 213Q230 223 227 244T223 275Q223 288 227 299Q225 313 225 331V363Q225 380 221 391Q201 381 178 381Q165 381 140 386T103 391Q83 381 66 381Q58 381 50 387Q52 395 52 404V416Q52 428 50 452T48 488Q53 492 71 524Q84 547 100 547L111 545Q137 545 188 551T265 557H276Q285 551 321 547T367 535L372 536Q389 536 389 523Q389 476 386 384T383 244Q382 238 378 221T373 198Q373 184 385 177Q393 177 401 171T412 163H438Q444 140 444 118ZM200 291L198 260Q188 238 160 227Q122 212 114 205L105 207Q97 207 71 195Q58 189 51 189Q39 189 31 209Q10 230 10 263Q10 304 43 325L42 328Q42 329 50 331T58 339Q72 339 101 353T144 367Q163 367 178 349Q203 332 200 291ZM353 525L349 533L336 532Q327 531 305 536Q263 545 253 545L235 543Q215 535 174 535H144Q117 535 97 531L74 494Q97 488 117 488Q140 488 212 504Q248 512 268 512Q294 512 318 502L353 525ZM373 480Q373 480 373 497Q370 509 369 515L335 492L334 471Q333 451 337 413T341 358V324Q324 283 326 240L329 149L359 185Q355 190 355 197Q355 201 359 213T365 230V251Q365 288 367 330Q371 414 371 400V429L373 480ZM404 149Q397 150 389 158T374 167Q361 167 353 154Q342 135 337 132L345 131Q361 131 381 141L388 139Q397 139 404 149ZM429 127L428 141Q412 131 396 122Q391 75 387 29Q395 35 402 41T418 47Q430 109 429 127ZM378 112L375 118Q370 114 360 114H339Q328 108 318 102Q312 106 310 108V263Q324 303 324 355Q324 362 318 482Q311 495 288 495H275L261 496H257Q235 496 163 480Q127 472 107 472Q88 472 68 478L62 474Q65 462 67 436L70 399L85 401Q95 406 109 406Q120 406 142 402T174 397Q192 397 205 405L211 404L233 406Q245 406 245 392Q240 372 241 354L243 296Q243 296 243 277Q240 265 239 259Q245 246 245 222Q245 204 243 188Q236 132 236 129L237 114Q235 110 228 106Q216 110 209 110Q171 105 139 105Q104 105 76 112L44 120V112Q44 102 49 79T53 48L52 33L55 28L50 21Q68 16 93 16Q117 16 149 22L198 31Q222 20 254 21L309 23Q343 24 365 13L375 106L378 112ZM182 268V280Q182 338 147 351L138 353Q131 353 116 344T93 335L112 331Q145 324 150 283Q151 269 155 241Q173 248 182 268ZM137 256Q132 265 133 273L134 288Q135 301 121 310L103 316Q94 319 86 319Q77 319 72 315Q72 317 67 319Q63 319 52 315Q25 301 25 268Q25 242 43 221Q53 206 55 206L60 207Q65 211 104 226Q134 237 137 256ZM221 167L218 168L209 165Q205 167 205 169Q181 161 143 161H108Q102 162 95 163T87 165L82 166Q71 166 52 135Q103 122 145 122Q178 122 219 128L221 167Z"  />
<glyph unicode="&#xFB32;" horiz-adv-x="450" d="M423 122Q423 107 397 78T371 32L372 29L362 30Q354 30 337 27T312 24L301 25Q293 15 283 15L279 16Q275 22 274 37T267 59L256 57Q233 42 189 -2Q143 16 98 35L96 41Q96 51 107 64Q122 82 124 86L201 163Q208 180 211 185Q218 197 228 199Q228 206 223 219T217 237Q217 245 222 250L220 405Q215 406 198 415T169 425Q158 425 151 419H136Q138 455 149 525L206 579L348 551Q372 546 372 500V493Q372 479 374 472Q369 445 369 428Q369 407 382 320Q388 280 388 253V234L387 229Q387 214 395 192Q413 143 413 131V126L423 122ZM196 279L194 248Q185 228 155 216Q118 200 110 193L101 195Q92 195 74 186T48 177Q35 177 27 197Q7 219 7 251Q7 290 39 316Q39 318 46 320T54 327Q68 327 97 341T140 355Q159 355 174 337Q199 320 196 279ZM336 539L212 563Q202 550 181 529Q199 520 265 508Q273 504 282 504Q297 504 313 517Q330 534 336 539ZM411 118L399 124Q371 195 371 254Q371 278 374 289Q354 327 354 379Q354 395 356 432L358 470Q358 506 352 527L315 496L318 424V341Q318 332 321 307Q334 194 372 71L398 97Q408 107 411 118ZM354 59V64Q354 84 344 104Q299 250 299 401V437Q299 451 303 488L230 500Q221 500 208 504Q178 513 172 513L159 510V498Q159 486 157 467Q155 443 155 437Q163 444 174 444Q186 444 238 413L239 383L236 285Q235 240 246 208L248 200Q248 193 234 184T218 169Q208 147 163 102Q144 95 116 47Q140 35 185 18Q198 51 224 86Q233 91 234 98Q246 120 258 120Q278 84 293 41Q298 43 307 43L329 42Q349 41 354 59ZM178 256Q178 294 175 305Q168 330 143 339L134 341Q127 341 117 335Q96 323 88 323L108 319Q137 313 145 283L151 229Q171 237 178 256ZM133 244Q128 253 129 261L130 276Q131 289 117 298Q106 301 104 302Q90 307 83 307Q75 307 68 303Q68 305 64 307Q60 307 48 303Q21 288 21 256Q21 230 39 209Q39 209 43 202T51 194L56 195Q61 199 101 214Q131 225 133 244ZM258 75Q257 81 254 92Q251 85 238 72T222 49L258 75Z"  />
<glyph unicode="&#xFB33;" horiz-adv-x="500" d="M472 433Q444 417 438 413Q419 399 416 383Q414 379 405 375Q403 375 397 380T386 385L377 381L380 316Q380 306 378 235L376 174Q376 114 385 66Q344 30 318 -4H314Q306 -4 306 1Q289 12 267 11L220 8L206 9L205 16Q205 23 208 36T212 56Q214 72 214 79V98Q214 113 212 151L210 190L209 219Q207 278 222 372L216 377Q182 379 165 379H57Q46 381 42 381Q37 422 38 453L40 501L46 505L52 503H56Q60 505 88 529Q98 538 109 541L107 545V549Q121 555 144 555Q155 555 176 553T208 551L214 547L269 545Q311 543 381 553Q383 552 428 542Q456 536 464 517V505Q464 459 472 433ZM187 248L185 217Q175 195 147 184Q109 169 101 162L92 164Q84 164 58 152Q45 146 38 146Q26 146 18 166Q-3 187 -3 220Q-3 261 30 282L29 285Q29 286 37 288T45 296Q59 296 88 310T131 324Q150 324 165 306Q190 289 187 248ZM452 451Q452 459 449 473T446 496Q446 505 448 509Q436 502 430 499Q419 492 418 484L420 474Q416 458 416 446V417L428 425Q452 432 452 451ZM436 521L409 531Q395 536 390 536H382Q370 536 347 532T312 528L290 531L263 530Q244 529 214 532Q136 539 130 539H115L117 527Q106 524 95 516L60 492V488H104Q131 488 147 496L189 498L229 497L269 499Q306 489 334 489Q360 489 387 498L398 495Q406 495 418 507T436 521ZM368 84Q368 92 359 106V121Q359 154 362 221T365 321V363Q363 375 363 381H344L326 383V249Q324 243 324 229Q324 220 326 201T328 173Q326 155 326 137Q326 120 328 85T330 33Q331 35 353 57Q368 74 368 84ZM401 465V476L397 478Q391 471 386 471L383 472L368 473L325 471Q308 470 288 478Q274 478 247 480T205 483Q159 483 125 470Q117 475 109 475Q101 475 86 471T64 466L52 468L50 432Q50 432 50 416Q50 409 54 393H212Q236 386 239 374Q224 335 224 262V173Q224 158 227 128T230 82Q230 48 222 25L247 23Q253 29 263 29Q269 29 289 22Q300 18 305 18L312 19Q312 72 310 196L308 377L310 382L308 394Q311 400 314 401L391 399L397 403Q397 413 399 434T401 465ZM169 225V237Q169 295 134 308L125 310Q118 310 103 301T80 292L99 288Q132 281 137 240Q138 226 142 198Q160 205 169 225ZM124 213Q119 222 120 230L121 245Q122 258 108 267L90 273Q81 276 73 276Q64 276 59 272Q59 274 54 276Q50 276 39 272Q12 258 12 225Q12 199 30 178Q40 163 42 163L47 164Q52 168 91 183Q121 194 124 213Z"  />
<glyph unicode="&#xFB34;" horiz-adv-x="522" d="M492 496Q492 468 487 439L479 389Q473 358 473 322Q473 292 480 202Q484 151 484 129Q484 87 479 59Q465 50 452 37Q446 31 414 -8L409 -10Q402 -4 402 -2Q389 -2 363 3T323 9Q303 9 292 3Q286 15 286 35Q286 50 290 78T295 121V125Q300 138 300 153Q300 165 296 188T292 224V243Q292 265 294 308T297 372V377Q292 383 281 383Q274 383 262 379Q202 387 173 387Q138 387 110 377H106L80 375Q65 374 63 387Q66 397 65 412L63 460Q62 483 71 501H77Q85 504 118 534Q131 546 143 546Q155 546 169 535Q201 533 234 533H314Q414 533 465 515Q467 510 479 507T492 496ZM223 55Q218 43 208 31Q181 -1 177 -6Q171 -15 166 -15Q162 -15 153 -10T139 -5L134 -6Q119 -6 101 -4Q57 1 48 1H45L48 78Q49 108 40 143V186Q40 223 36 259L79 305H106Q122 305 130 307Q130 307 176 294Q205 286 213 267V213Q213 111 223 55ZM457 503L451 507Q361 521 241 521H197L185 520Q178 519 161 523T137 527Q118 527 108 505Q186 505 286 488L354 498Q369 498 386 492Q395 480 407 480Q417 480 432 489Q453 502 457 503ZM475 494Q423 494 426 432L428 384L425 356Q419 332 419 307Q419 276 425 249Q430 226 430 193Q430 166 424 114T418 34V19Q425 28 434 37Q456 59 461 66Q467 104 467 137Q467 160 464 205T461 274V293L459 326Q457 355 466 409Q475 469 475 494ZM416 462L383 477Q366 484 350 484Q314 476 278 476Q248 476 218 479Q129 488 118 488Q94 488 81 486L82 479L79 449Q79 440 80 436T83 420T85 404L83 393H116Q153 403 180 403Q202 403 223 397Q228 395 238 395Q246 395 263 398T288 401H294Q296 397 306 394T316 389Q313 383 311 381Q311 360 308 318T304 254Q304 190 315 145Q308 122 307 84Q304 33 303 23L318 24Q324 24 398 13Q402 30 402 51V74Q402 106 410 123L411 190Q411 238 404 277L403 305Q402 322 407 363Q416 442 416 462ZM177 275Q167 277 148 285H143L102 287Q69 289 61 261Q65 257 76 257H82Q93 257 97 254T109 251L128 252Q142 253 148 242L152 246Q161 246 168 257Q172 266 177 275ZM205 56Q205 63 202 76T199 97L201 108Q195 131 195 153Q195 166 197 193T200 233L197 265L179 242L164 222L161 189Q161 166 177 88Q185 49 185 27Q205 37 205 56ZM164 43Q165 59 158 101Q143 188 144 205L146 232L144 230Q135 232 134 234L51 244V239Q51 230 53 226L50 194Q50 171 57 126T64 57Q64 31 59 13L162 7V13L158 15L162 19L164 43Z"  />
<glyph unicode="&#xFB35;" horiz-adv-x="447" d="M419 535Q411 521 411 514L412 477Q413 450 410 378Q405 246 405 213Q405 149 411 84L408 80L411 73Q407 59 396 45Q381 22 359 -2Q355 -2 345 3T329 8Q318 8 296 6T262 4H242Q232 7 228 8Q239 37 238 79L237 131L240 179Q241 185 242 203L243 222V251Q243 289 250 313Q236 359 236 449V486Q230 492 230 498Q240 505 257 523Q288 555 309 555Q323 555 337 545L371 543L409 545Q419 541 419 535ZM222 302L220 271Q210 249 182 238Q142 222 135 216L126 218Q117 218 99 209T73 200Q59 200 52 220Q31 241 31 274Q31 315 64 336L63 339Q63 340 71 342T80 350Q94 350 123 364T166 378Q185 378 200 360Q225 343 222 302ZM374 527L365 526Q356 526 340 530T321 535Q313 540 305 540Q294 540 283 531Q277 527 264 512L275 513Q283 513 300 511T325 509L335 510Q342 505 347 505Q352 505 374 527ZM400 525L364 496L366 425L362 390Q369 335 368 267L365 85L366 31Q396 52 396 89Q396 99 393 119T390 149Q390 166 391 199T392 249V351Q392 461 400 525ZM349 153Q349 169 347 278L345 375L348 486Q324 496 289 494L250 492Q252 490 254 481Q252 474 250 472L249 445Q248 420 255 373Q263 323 263 300Q263 274 256 250L255 184V138Q255 66 246 21L346 19L349 153ZM204 279V291Q204 349 168 362L159 364Q152 364 137 355T114 346L133 342Q167 335 172 293Q173 279 176 251Q195 258 204 279ZM159 267Q154 276 155 284L156 298Q157 311 143 320Q118 330 108 330Q101 330 94 326Q93 328 90 330Q81 326 76 326Q47 311 47 278Q47 251 64 232Q74 217 77 217L82 218Q87 222 127 236Q156 246 159 267Z"  />
<glyph unicode="&#xFB36;" horiz-adv-x="530" d="M501 506Q502 486 498 450Q493 411 493 394Q491 392 463 384Q443 378 439 364L412 360L414 329Q415 317 411 282Q404 217 404 198Q404 172 410 145V43Q395 37 349 -2L334 -3Q321 -4 296 1T258 5L241 4L231 10Q245 68 245 138Q245 193 239 250Q241 294 254 380Q248 382 238 384Q221 388 211 388Q195 388 186 380Q185 381 184 388L187 407L186 413L185 431Q184 446 188 476T193 519Q201 522 218 543T245 565Q255 565 266 549Q283 543 309 541L337 539L409 541Q409 541 439 541Q453 538 459 537L465 538Q471 538 482 534Q497 530 500 529L501 506ZM226 244L224 213Q214 191 186 180Q148 165 140 158L131 160Q123 160 97 148Q84 142 77 142Q65 142 57 162Q36 183 36 216Q36 257 69 278L68 281Q68 282 76 284T84 292Q98 292 127 306T170 320Q189 320 204 302Q229 285 226 244ZM485 497L484 500Q481 500 481 497T479 492Q456 479 452 449L443 392L477 401Q477 417 481 449T485 497ZM477 516Q471 522 467 523Q456 519 442 519Q430 519 394 525Q374 521 348 521Q292 521 241 543L215 519Q266 511 367 492L377 490Q384 490 397 494T417 498Q426 498 432 492L445 489Q456 489 463 497Q472 510 477 516ZM437 470Q432 470 424 475T412 480Q406 478 404 476Q350 476 283 488Q254 493 209 504Q201 484 201 442V429L204 416L201 403Q219 401 238 399T270 386Q263 350 257 314L260 295Q254 266 254 241Q254 223 257 187T260 133V109Q260 94 255 64T249 18L262 20Q272 20 292 16T322 11L339 14Q339 30 340 61T341 108V166Q341 247 345 291Q348 299 347 311L345 354Q344 373 353 386L422 378Q430 392 430 416V435Q430 457 437 470ZM398 324L396 364H365L364 361L366 351Q365 347 363 346Q365 339 365 331V316Q365 314 357 230Q357 213 358 180T359 130V31L392 53V102L389 153Q388 172 391 216L398 324ZM208 221V233Q208 291 173 304L164 306Q157 306 142 297T119 288L138 284Q171 277 176 236Q177 222 181 194Q199 201 208 221ZM163 209Q158 218 159 226L160 241Q161 254 147 263L129 269Q120 272 112 272Q103 272 98 268Q98 270 93 272Q89 272 78 268Q51 254 51 221Q51 195 69 174Q79 159 81 159L86 160Q91 164 130 179Q160 190 163 209Z"  />
<glyph unicode="&#xFB38;" horiz-adv-x="557" d="M341 315L340 284Q335 264 319 252Q298 236 293 229L288 231Q284 231 273 222T258 213Q250 213 246 233Q235 251 235 287Q235 328 253 349Q253 352 257 355T262 363Q270 363 292 381Q304 391 310 391Q321 391 329 373Q342 356 341 315ZM546 415Q546 304 518 176Q510 138 483 107T418 64Q405 52 379 37L337 13Q330 15 321 15H307Q282 15 249 10Q170 -2 150 -2Q121 -2 97 5L46 9Q48 66 51 124Q54 191 66 237Q66 306 50 407L34 507Q24 517 24 532Q33 538 59 571Q80 598 99 598Q109 598 121 592L136 593Q142 593 186 588Q202 586 217 586H221Q234 559 233 526L230 460L233 428Q233 404 230 356T227 284Q227 224 239 184Q250 176 265 176L280 178Q309 182 341 210Q349 228 352 277Q355 323 367 342L366 352Q366 362 374 385Q378 396 379 405Q367 411 319 425Q295 432 282 438Q282 455 299 484T318 529Q326 537 354 547Q379 556 386 570Q404 563 480 548Q512 542 536 533Q546 477 546 415ZM520 521Q468 545 416 545Q407 553 397 553Q389 553 369 540Q358 533 351 531L483 487Q486 493 502 501T520 521ZM529 392L528 499L522 493Q513 493 506 482T491 470Q487 432 487 378V301Q487 209 473 153Q467 131 457 102Q467 110 495 147Q530 243 529 392ZM194 574Q153 574 103 582Q80 575 50 543H58Q72 552 92 552Q96 552 147 546Q179 546 194 574ZM331 292V304Q331 364 312 375L307 377Q303 377 294 368T281 359L292 355Q309 349 312 320Q314 303 316 265Q327 273 331 292ZM306 280Q304 286 304 297V312Q304 326 297 334Q295 335 288 339T278 343Q271 341 269 339L267 343L259 339Q243 324 243 292Q243 260 260 230L263 231Q265 234 289 249Q306 260 306 280ZM222 495L219 562L213 570Q206 563 193 554Q168 537 166 523V505Q166 460 182 315Q190 242 190 200V166Q188 154 188 149L219 174L221 212Q215 246 215 301Q215 328 220 398Q224 460 222 495ZM475 432Q475 457 472 465Q468 480 449 486Q415 497 334 517H327Q327 502 309 474Q298 457 296 448Q313 437 367 426Q395 426 395 406Q395 398 386 372Q381 357 381 351L383 342Q368 324 368 287V274L365 243Q354 195 347 173Q334 132 302 119H298Q285 119 267 116Q224 109 213 109Q186 109 166 123Q174 157 174 206Q174 243 158 377Q149 454 150 483L152 529Q135 535 115 535Q90 535 54 527V523L50 521L42 525Q41 522 46 511Q46 478 67 348Q77 286 77 245V237Q64 194 58 33L52 23Q109 15 167 8L182 9Q202 10 260 18Q310 25 337 25L438 102Q471 166 471 275Q471 293 469 335L467 377Q475 401 475 432ZM329 178H323Q305 162 269 162H255Q209 162 192 131L203 125Q253 133 296 133Q321 138 329 178Z"  />
</font>
</defs>
</svg>
