<?xml  version="1.0" encoding="UTF-8"?>
<!DOCTYPE svg PUBLIC "-//W3C//DTD SVG 1.0//EN" "http://www.w3.org/TR/2001/REC-SVG-20010904/DTD/svg10.dtd" >
<svg xmlns="http://www.w3.org/2000/svg" >
<metadata>
<version>1.0</version>
<id><![CDATA[Ahmed LT]]></id>
<vendor>Monotype Imaging Inc.</vendor>
<credits>
<name>Fonts.com WebFonts</name>
<URL>http://webfonts.fonts.com</URL>
<role>Home of the Web fonts</role>
</credits>
<license>
<URL>http://webfonts.fonts.com/Legal</URL>
</license>
<copyright><![CDATA[Copyright © 2005 - 2006 Linotype GmbH, www.linotype.com. All rights reserved. This font software may not be reproduced, modified, disclosed or transferred without the express written approval of Linotype GmbH. Ahmed is a trademark of Esselte Letraset Limited. This typeface is original artwork of Ahmed Ali. The design may be protected in certain jurisdictions.]]></copyright>
<trademark><![CDATA[Ahmed is a trademark of Esselte Letraset Limited.]]></trademark>
<licensee>
<name></name>
</licensee>
</metadata>
<defs >
<font horiz-adv-x="912" id="b5000ada-6fa4-4aae-8c7e-6e6abda2be56">
<font-face font-family="" panose-1="1 0 4 0 0 0 0 0 0 0" ascent="2195" descent="-1552" units-per-em="2048" alphabetic="0">
</font-face>
<missing-glyph horiz-adv-x="866" d="M866 1216V0H0V1216H866ZM782 85V1131H85V85H782ZM380 395L378 425Q378 540 414 587Q432 610 447 628T477 660Q532 716 546 743T561 807Q561 871 523 909T434 948Q381 948 342 910T293 787L209 800Q224 918 286 975T437 1033Q528 1033 588 975T648 814Q648 756 627 714T544 610Q479 551 469 517Q458 479 458 401L380 395ZM362 253Q362 278 380 296T422 314Q445 314 464 295T483 253Q483 228 465 211T422 193Q397 193 380 209T362 253Z"  />

<glyph unicode="&#xA;" />
<glyph unicode="&#xD;" horiz-adv-x="342" />
<glyph unicode=" " horiz-adv-x="342" />
<glyph unicode="!" horiz-adv-x="534" d="M446 569Q446 461 374 380Q298 295 190 295Q155 295 155 338V1024Q155 1065 185 1065H413Q446 1065 446 1030V569ZM429 102Q429 41 386 -2Q344 -45 284 -45Q222 -45 179 -2Q136 41 136 102Q136 164 179 207Q222 250 284 250Q344 250 386 207Q429 164 429 102ZM394 578V1014H206V346Q285 354 337 415Q394 479 394 578ZM378 102Q378 122 371 139T350 170T320 191T284 199Q264 199 247 192T216 171T195 140T187 102Q187 82 194 65T215 34T246 14T284 6Q303 6 320 13T350 34T370 65T378 102Z"  />
<glyph unicode="&quot;" horiz-adv-x="883" d="M181 1221Q181 1242 195 1256T231 1271H363Q383 1271 397 1257T411 1221V775Q411 755 397 741T363 726H231Q210 726 196 740T181 775V1221ZM471 1221Q471 1242 485 1256T520 1271H651Q672 1271 686 1257T701 1221V775Q701 755 687 741T651 726H520Q499 726 485 740T471 775V1221ZM520 775H651V1221H520V775ZM231 775H363V1221H231V775Z"  />
<glyph unicode="#" horiz-adv-x="949" d="M47 0Q20 0 7 20T1 66L87 313H-7Q-34 313 -48 332T-54 376L-13 507Q-8 522 5 532T34 542H161Q167 559 172 572T182 600T192 632T207 672H114Q87 672 73 691T67 736L108 867Q112 881 126 891T155 901H282Q306 972 330 1041T379 1180Q384 1192 397 1202T426 1213H577Q604 1213 618 1193T623 1147L536 901H606L699 1179Q703 1192 716 1202T745 1213H900Q927 1213 941 1193T947 1148L862 901H958Q985 901 998 882T1004 836L959 706Q954 692 940 682T913 672H785Q779 653 774 639L764 612Q760 598 755 582T741 542H834Q862 542 876 523T882 478L840 347Q834 333 821 323T792 313H666Q642 242 619 173T571 34Q567 20 554 10T525 0H372Q344 0 331 20T325 66L412 313H342Q318 242 293 173T244 33Q238 20 225 10T197 0H47ZM197 49L306 361H480L372 49H525L630 361H792L834 493H672L750 721H913L958 852H794L900 1164H745L640 852H469L577 1164H426L318 852H155L114 721H277L195 493H34L-7 361H155L47 49H197ZM348 493L427 721H601L523 493H348ZM488 542Q494 561 498 574T508 601T519 631T533 672H462Q456 653 451 639T441 612T430 583T417 542H488Z"  />
<glyph unicode="$" horiz-adv-x="1025" d="M907 341Q907 185 808 92Q726 15 598 -4V-152H443V-4H385Q277 -4 205 58Q125 129 118 263Q153 262 194 260T284 255Q358 252 395 252Q434 252 443 254V480Q290 567 225 640Q144 728 144 843Q144 967 226 1058Q308 1150 443 1172V1296H598V1172H849Q849 1060 789 977Q734 904 675 905L598 909V727Q677 687 733 646T826 563Q907 466 907 341ZM853 341Q853 551 547 694V966Q580 964 665 959Q706 959 750 1010Q795 1062 795 1118H552V1247H489V1118Q355 1118 271 1025Q198 943 198 843Q198 671 493 516V201Q490 201 481 201T457 199T427 198T395 197Q392 197 337 200T172 209Q205 122 255 87Q312 50 426 50H489V-102H552V50Q691 50 774 132Q853 213 853 341ZM493 710Q453 728 425 744T381 775Q326 819 326 864Q326 977 493 970V710ZM708 334Q708 280 655 245T547 205V497Q622 466 660 430Q708 384 708 334ZM447 783V920Q419 920 400 912Q376 893 376 872Q376 823 447 783ZM658 343Q658 388 593 425V267Q631 279 641 293Q658 310 658 343Z"  />
<glyph unicode="%" horiz-adv-x="1474" d="M937 1204Q942 1215 955 1223T980 1231H1081Q1111 1231 1124 1209T1124 1160L531 6Q526 -3 513 -11T488 -20H389Q358 -20 345 2T346 51L937 1204ZM1134 837Q1189 837 1242 813T1336 736T1403 603T1429 412Q1429 302 1404 222T1337 89T1242 12T1134 -13Q1078 -13 1025 12T930 89T863 221T837 412Q837 523 862 603T930 735T1025 812T1134 837ZM1134 647Q1123 647 1113 635T1097 595T1088 522T1084 412Q1084 347 1087 301T1097 228T1113 188T1134 176Q1146 176 1155 188T1170 227T1180 301T1183 412Q1183 477 1180 522T1171 594T1155 634T1134 647ZM338 1030Q326 1030 317 1019T302 980T292 908T288 796Q288 730 292 685T302 613T317 574T338 562Q351 562 360 573T376 612T386 685T389 796Q389 863 386 907T377 979T361 1018T338 1030ZM338 1221Q393 1221 446 1196T541 1119T608 987T634 796Q634 685 609 605T541 473T446 397T338 372Q283 372 230 396T136 473T69 605T43 796Q43 906 68 986T135 1119T230 1196T338 1221ZM338 1172Q293 1172 249 1151T170 1083T114 966T92 796Q92 697 113 627T170 510T249 443T338 421Q385 421 429 442T508 510T564 626T585 796Q585 895 564 966T509 1083T430 1150T338 1172ZM338 1080Q363 1080 381 1065T412 1017T431 930T438 796Q438 717 432 663T413 575T382 528T338 513Q315 513 297 527T266 575T247 662T240 796Q240 876 246 930T266 1017T297 1065T338 1080ZM1134 696Q1158 696 1176 682T1206 634T1225 546T1232 412Q1232 333 1226 279T1207 191T1176 142T1134 127Q1110 127 1092 142T1061 190T1042 278T1036 412Q1036 492 1042 546T1060 633T1091 681T1134 696ZM1134 789Q1088 789 1044 767T965 698T909 581T887 412Q887 315 908 244T965 127T1044 59T1134 37Q1180 37 1224 59T1302 127T1358 244T1379 412Q1379 510 1358 581T1303 698T1224 766T1134 789ZM389 29H488L1081 1182H980L389 29Z"  />
<glyph unicode="&amp;" horiz-adv-x="1142" d="M217 1070V1202Q217 1223 231 1237T266 1251H830Q851 1251 865 1237T880 1202V1042Q880 1020 864 1006T827 993Q777 997 741 1000T674 1004T620 1006T568 1007L621 900Q647 850 672 800T724 697L782 581Q807 636 817 680T829 743Q832 763 848 775T884 784L1052 760Q1073 757 1085 740T1094 703Q1077 597 1034 502T926 323Q965 260 1004 198T1082 75Q1091 63 1091 46Q1091 26 1077 13T1041 0H813Q802 0 789 8T771 24L731 90Q706 69 677 49T611 12T531 -13T432 -23Q351 -23 281 4T158 83T77 206T47 368Q47 485 93 569Q117 609 143 642T200 701Q229 725 259 744T320 777L337 785Q341 788 342 788T344 788L352 792L217 1070ZM420 765Q406 760 386 752T338 731Q283 708 231 664Q177 617 137 546Q95 474 95 368Q95 289 121 226T192 119T298 50T432 26Q488 26 535 40T620 75T689 120T743 166L813 49H1041L868 325Q935 411 982 507T1045 710L878 736Q876 722 870 694T853 630T824 553T779 474L488 1058Q514 1058 552 1057T636 1055T731 1050T830 1042V1202H266V1081L420 765ZM668 305Q628 257 580 227T478 197Q391 197 343 255Q296 314 296 399Q296 463 322 505T381 572Q413 598 445 610T494 630L668 305ZM472 567Q453 559 431 546T390 512T359 465T346 399Q346 331 382 285Q413 246 478 246Q512 246 547 265T609 313L472 567Z"  />
<glyph unicode="&apos;" horiz-adv-x="600" d="M184 1221Q184 1242 198 1256T233 1271H365Q385 1271 399 1257T413 1221V775Q413 755 399 741T365 726H233Q213 726 199 740T184 775V1221ZM233 775H365V1221H233V775Z"  />
<glyph unicode="(" horiz-adv-x="834" d="M739 -57Q739 -90 707 -90H526Q343 -4 222 170Q90 360 90 588Q90 832 228 1021Q345 1180 526 1262H705Q739 1262 739 1237Q739 1224 692 1186Q565 1085 489 940Q403 776 403 592Q403 421 480 259Q557 97 690 -6Q739 -45 739 -57ZM649 -39V-35Q520 70 440 228Q352 400 352 586Q352 967 649 1206V1210H539Q360 1128 250 959Q141 792 141 590Q141 391 247 222Q353 54 541 -39H649Z"  />
<glyph unicode=")" horiz-adv-x="834" d="M743 584Q743 338 605 151Q491 -7 307 -90H129Q94 -90 94 -66Q94 -52 141 -14Q205 36 255 97T344 231Q430 395 430 580Q430 750 353 912Q276 1075 143 1178Q94 1215 94 1229Q94 1262 127 1262H307Q400 1217 475 1153T611 1002Q743 811 743 584ZM692 582Q692 782 586 949Q479 1118 293 1210H184V1206Q313 1103 393 944Q481 771 481 586Q481 203 184 -35V-39H295Q475 45 583 211Q692 380 692 582Z"  />
<glyph unicode="*" horiz-adv-x="655" d="M69 1132Q77 1150 97 1157T135 1155L225 1113V1221Q225 1242 239 1256T273 1271H379Q401 1271 415 1257T429 1221V1113Q453 1125 475 1135T519 1155Q538 1164 557 1157T585 1132L631 1035Q639 1014 632 996T604 969L503 926L541 888Q560 870 579 852Q594 837 594 818Q594 798 578 782L500 708Q485 693 466 693Q446 693 430 709L328 816Q304 791 280 764T233 710Q218 694 197 694Q177 694 163 708L85 782Q69 798 69 818Q69 837 84 852L154 926Q127 938 103 947T51 969Q32 977 25 995T25 1035L69 1132ZM69 1014L240 943L119 817L196 743L326 888L466 743L544 817L414 943L586 1014L541 1112L379 1037V1221H273V1037L113 1112L69 1014Z"  />
<glyph unicode="+" horiz-adv-x="1061" d="M946 386V521H604V863H457V521H118V386H457V44H604V386H946ZM648 343V0H413V343H74V565H413V907H648V565H990V343H648Z"  />
<glyph unicode="&#x2c;" horiz-adv-x="510" d="M87 -179Q75 -164 75 -147Q75 -136 80 -125T95 -107Q103 -102 116 -90T145 -63T175 -29T195 10Q151 31 127 69T103 155Q103 187 114 215T147 263T198 296T261 308Q299 308 330 294T383 254T418 194T430 120Q430 77 418 32T378 -61T306 -154T200 -244Q185 -254 166 -252T136 -235L87 -179ZM173 -204Q229 -164 268 -123T333 -39T370 43T382 120Q382 148 374 173T349 218T311 248T261 260Q236 260 217 252T182 229T160 195T152 155Q152 114 178 83T249 43Q251 12 236 -19T199 -77T157 -122T125 -147L173 -204Z"  />
<glyph unicode="-" horiz-adv-x="1196" d="M1107 471Q1107 439 1075 439H251Q183 439 135 478Q87 517 87 582V696Q87 729 120 729H947Q1017 729 1063 682Q1107 636 1107 576V471ZM1053 493V571Q1053 594 1045 612T1022 645T990 667T951 675H141V573Q141 544 174 518Q207 493 245 493H1053Z"  />
<glyph unicode="." horiz-adv-x="570" d="M439 102Q439 41 396 -2Q354 -45 294 -45Q232 -45 189 -2Q146 41 146 102Q146 164 189 207Q232 250 294 250Q354 250 396 207Q439 164 439 102ZM388 102Q388 122 381 139T361 170T331 191T294 199Q274 199 257 192T226 171T206 140T198 102Q198 62 226 34T294 6Q313 6 330 13T360 34T380 65T388 102Z"  />
<glyph unicode="/" horiz-adv-x="1127" d="M1029 1261Q1029 1251 1019 1226L430 -124Q422 -152 391 -152H211Q174 -152 174 -133Q174 -126 187 -95L777 1244Q794 1280 827 1280H1005Q1029 1280 1029 1261ZM959 1226H827L245 -98H379L959 1226Z"  />
<glyph unicode="0" horiz-adv-x="790" d="M734 421Q734 -15 395 -15Q56 -15 56 421V714Q56 1168 395 1168Q734 1168 734 714V421ZM679 402V717Q679 930 608 1023Q540 1114 395 1114Q251 1114 182 1023Q110 929 110 717V402Q110 39 395 39Q679 39 679 402ZM522 404Q522 141 395 141Q269 141 269 404V764Q269 1011 395 1011Q522 1011 522 764V404ZM471 402V779Q471 961 395 961Q319 961 319 779V402Q319 191 395 191Q471 191 471 402Z"  />
<glyph unicode="1" horiz-adv-x="709" d="M567 37Q567 0 533 0H314Q277 0 277 41V803L207 756Q176 734 166 734Q138 734 138 775V938Q138 984 177 1003Q249 1040 357 1155V1152H529Q567 1152 567 1107V37ZM513 54V1098H370Q283 1001 192 953V812Q250 858 272 858Q331 858 331 793V54H513Z"  />
<glyph unicode="2" horiz-adv-x="851" d="M776 33Q776 0 739 0H101Q66 0 66 31V226Q166 338 250 449T404 673Q489 809 489 877Q489 953 428 953Q365 953 365 877V835Q365 797 329 797H120Q83 797 83 827V870Q83 939 106 994T173 1088T284 1147T435 1168Q588 1168 675 1086Q762 1006 762 866Q762 734 692 606Q613 462 391 219H725Q776 219 776 178V33ZM721 54V165H395Q337 165 337 217Q337 240 416 328Q708 655 708 864Q708 1114 418 1114Q137 1114 137 851H311V879Q311 934 343 970T430 1007Q543 1007 543 874Q543 774 430 613Q338 480 261 379T120 205V54H721Z"  />
<glyph unicode="3" horiz-adv-x="867" d="M760 330Q760 -15 400 -15Q226 -15 138 66Q56 141 56 265V313Q56 358 93 358H299Q340 358 340 319V278Q340 199 400 199Q420 199 434 205T456 227T469 269T473 336Q473 409 463 438Q445 491 388 491H319Q278 491 278 528V679Q278 719 311 719H377Q469 719 469 843Q469 961 410 961Q351 961 351 890V862Q351 827 323 827H117Q73 827 73 866V912Q73 1022 146 1089Q233 1168 406 1168Q746 1168 746 855Q746 677 644 603Q760 548 760 330ZM705 341Q705 487 628 553Q590 585 590 609Q590 633 617 656Q651 687 666 715Q692 767 692 860Q692 1114 410 1114Q128 1114 128 909V881H297Q297 940 331 977Q364 1015 410 1015Q523 1015 523 847Q523 665 388 665H332V545H404Q527 545 527 336Q527 233 499 189T400 145Q286 145 286 261V304H110V278Q110 39 406 39Q705 39 705 341Z"  />
<glyph unicode="4" horiz-adv-x="790" d="M755 290Q755 252 724 252H664V37Q664 0 631 0H431Q394 0 394 33V252H86Q45 252 45 286V499L310 1114Q320 1152 357 1152H633Q664 1152 664 1116V476H718Q755 476 755 441V290ZM701 306V421H661Q609 421 609 482V1098H357L99 491V306H392Q448 306 448 234V54H609V250Q609 306 666 306H701ZM467 458Q467 421 436 421H240Q218 421 218 435Q218 447 229 464L364 793Q383 825 399 825H438Q467 825 467 790V458ZM413 471V775H405L289 471H413Z"  />
<glyph unicode="5" horiz-adv-x="833" d="M763 400Q763 172 665 72Q578 -15 403 -15Q254 -15 164 59Q79 128 79 232V269Q79 313 125 313H316Q364 313 359 271Q356 238 374 215T419 191Q483 191 483 319V449Q483 578 423 578Q357 578 357 495Q357 458 314 458H123Q90 458 90 495L102 1105Q102 1152 143 1152H690Q722 1152 722 1116V968Q722 934 681 934H364V742Q425 777 506 777Q763 777 763 400ZM709 397Q709 723 508 723Q448 723 410 705Q375 688 371 688Q310 688 310 752V914Q310 988 382 988H668V1098H156L145 512H310Q310 563 342 597T425 632Q537 632 537 449V300Q537 231 508 188Q474 137 414 137Q370 137 337 173Q303 210 303 259H134V228Q134 143 202 93Q273 39 405 39Q561 39 632 117Q709 200 709 397Z"  />
<glyph unicode="6" horiz-adv-x="803" d="M756 387Q756 -15 405 -15Q211 -15 131 120Q66 233 66 466V642Q66 917 144 1037Q230 1168 435 1168Q582 1168 662 1094Q741 1024 741 905Q741 860 706 860H500Q463 860 463 893Q463 916 449 936Q434 961 409 961Q333 961 333 788V721Q405 764 484 764Q756 764 756 387ZM702 387Q702 710 484 710Q432 710 393 688Q353 667 341 667Q279 667 279 771Q279 1015 411 1015Q443 1015 476 988Q509 958 517 914H687Q674 1015 621 1062Q562 1114 432 1114Q260 1114 192 1012Q120 905 120 634V466Q120 231 190 131Q254 39 402 39Q702 39 702 387ZM530 375Q530 145 413 145Q344 145 316 195Q287 246 287 379Q287 512 319 565Q348 613 413 613Q476 613 501 566Q530 513 530 375ZM480 387Q480 487 465 525Q450 562 413 562Q337 562 337 387Q337 272 356 231Q373 195 413 195Q480 195 480 387Z"  />
<glyph unicode="7" horiz-adv-x="806" d="M702 955L441 26Q437 0 404 0H174Q143 0 143 26Q143 46 151 65L414 924H95Q56 924 56 961V1112Q56 1152 89 1152H665Q702 1152 702 1116V955ZM648 957V1098H111V979H408Q436 979 455 956Q470 938 470 922Q470 895 454 862L205 54H391L648 957Z"  />
<glyph unicode="8" horiz-adv-x="779" d="M727 330Q727 -15 385 -15Q41 -15 41 330Q41 530 157 601Q43 687 43 851Q43 994 128 1079Q218 1168 385 1168Q549 1168 640 1079Q725 994 725 851Q725 687 613 601Q727 529 727 330ZM673 328Q673 423 643 481Q625 515 588 551Q559 578 559 597Q559 623 587 651Q630 692 641 713Q671 762 671 847Q671 1114 385 1114Q98 1114 98 847Q98 762 127 713Q135 702 148 687T181 651Q211 624 211 597Q211 578 181 551Q143 516 125 481Q95 423 95 328Q95 39 385 39Q673 39 673 328ZM497 833Q497 658 385 658Q271 658 271 833Q271 1009 385 1009Q497 1009 497 833ZM506 336Q506 147 385 147Q263 147 263 336Q263 543 385 543Q506 543 506 336ZM447 825Q447 959 385 959Q321 959 321 825Q321 708 385 708Q447 708 447 825ZM456 341Q456 493 385 493Q313 493 313 341Q313 197 385 197Q456 197 456 341Z"  />
<glyph unicode="9" horiz-adv-x="805" d="M735 536Q735 260 656 128Q568 -15 366 -15Q65 -15 65 278Q65 321 99 321H301Q338 321 338 288Q338 195 394 195Q459 195 459 404V471Q387 427 316 427Q45 427 45 797Q45 1168 396 1168Q591 1168 669 1046Q735 942 735 712V536ZM681 543V712Q681 942 612 1033Q550 1114 399 1114Q246 1114 177 1048Q99 973 99 793Q99 628 153 553Q204 482 316 482Q368 482 404 503Q440 526 450 526Q514 526 514 439Q514 297 503 253Q480 141 392 141Q340 141 311 176Q283 207 283 247V267H117L119 250Q119 162 173 107Q237 39 368 39Q537 39 609 153Q681 266 681 543ZM507 797Q507 580 390 580Q272 580 272 797Q272 1009 390 1009Q507 1009 507 797ZM457 793Q457 959 390 959Q322 959 322 793Q322 630 390 630Q457 630 457 793Z"  />
<glyph unicode=":" horiz-adv-x="570" d="M439 467Q439 405 396 362Q354 319 294 319Q232 319 189 362Q146 405 146 467Q146 528 189 571Q232 614 294 614Q354 614 396 571Q439 528 439 467ZM439 102Q439 41 396 -2Q354 -45 294 -45Q232 -45 189 -2Q146 41 146 102Q146 164 189 207Q232 250 294 250Q354 250 396 207Q439 164 439 102ZM388 467Q388 487 381 504T361 535T331 555T294 563Q254 563 226 535T198 467Q198 427 226 399T294 371Q313 371 330 378T360 399T380 429T388 467ZM388 102Q388 122 381 139T361 170T331 191T294 199Q274 199 257 192T226 171T206 140T198 102Q198 62 226 34T294 6Q313 6 330 13T360 34T380 65T388 102Z"  />
<glyph unicode=";" horiz-adv-x="510" d="M103 770Q103 838 149 885Q196 932 264 932Q299 932 328 920T380 886T414 835T427 770Q427 703 379 655Q333 608 264 608Q196 608 149 655Q103 702 103 770ZM89 -179Q77 -166 77 -146Q77 -123 95 -109Q102 -104 115 -93T145 -65T175 -30T195 10Q151 31 127 69T103 155Q103 187 114 215T147 263T198 296T261 308Q299 308 330 294T383 254T418 194T430 120Q430 77 418 32T378 -61T306 -154T200 -244Q185 -255 166 -253T136 -235L89 -179ZM173 -204Q229 -164 268 -123T333 -39T370 43T382 120Q382 148 374 173T349 218T311 248T261 260Q236 260 217 252T182 229T160 195T152 155Q152 114 178 83T249 43Q251 12 236 -19T199 -77T157 -122T126 -147L173 -204ZM152 770Q152 722 184 690T264 657Q287 657 308 666T345 690T369 725T378 770Q378 793 369 814T345 850T309 874T264 883Q241 883 220 874T185 850T161 814T152 770Z"  />
<glyph unicode="&lt;" horiz-adv-x="1061" d="M946 58V211L298 453L946 697V847L118 524V382L946 58ZM74 352V554L990 912V666L424 453Q564 400 709 346T990 241V-6L74 352Z"  />
<glyph unicode="=" horiz-adv-x="1061" d="M943 218V352H116V218H943ZM943 553V687H116V553H943ZM72 509V731H987V509H72ZM72 174V396H987V174H72Z"  />
<glyph unicode="&gt;" horiz-adv-x="1061" d="M946 382V524L118 847V697L763 453L118 211V58L946 382ZM74 -6V241L637 453Q497 506 353 560T74 666V912L990 554V352L74 -6Z"  />
<glyph unicode="?" horiz-adv-x="643" d="M126 145Q126 180 139 210T173 262T225 296T290 308Q356 308 404 261Q453 212 453 145Q453 79 403 30Q356 -16 290 -16Q255 -16 225 -3T174 31T139 82T126 145ZM114 1221Q114 1236 124 1249T147 1268Q172 1276 205 1280T264 1284Q354 1284 423 1252T540 1167T611 1046T636 906Q636 840 618 786T572 689T509 616T440 565L441 566Q431 560 426 556T415 549T404 542T390 533Q388 496 387 461T383 388Q382 369 368 355T334 341H238Q217 341 204 355T190 390V718Q190 727 197 741T214 760Q250 780 282 802T337 848T373 898T387 955Q387 993 365 1024T300 1055Q268 1055 242 1040T198 1007Q182 991 161 991Q143 991 129 1004T114 1042V1221ZM163 1042Q187 1065 221 1084T300 1103Q334 1103 359 1091T402 1059T427 1011T436 955Q436 917 421 884T379 821T316 766T238 718V390H334L340 560L414 607Q444 625 475 652T530 716T570 800T586 906Q586 968 565 1027T503 1132T402 1207T264 1235Q242 1235 212 1232T163 1221V1042ZM176 145Q176 122 185 102T209 67T245 43T290 34Q338 34 370 66T403 145Q403 170 394 190T370 226T335 251T290 260Q242 260 209 227T176 145Z"  />
<glyph unicode="@" horiz-adv-x="1420" d="M1282 229Q1293 213 1290 194T1270 162Q1208 117 1147 84T1025 25Q898 -23 739 -23Q573 -23 446 31T231 175T99 380T54 619Q54 762 108 885T259 1098T485 1241T767 1293Q894 1293 1003 1256T1193 1148T1320 979T1366 757Q1366 653 1333 565T1245 413T1122 312T983 276Q919 276 882 300T824 358Q790 324 741 300T622 276Q502 276 424 360Q350 444 350 578Q350 654 378 733T456 876T576 980T728 1021Q746 1021 768 1018T813 1007T858 988T900 957V958Q904 973 918 984T948 995H1068Q1095 995 1109 976T1116 932L1023 619Q1008 575 999 542T990 484Q990 474 987 471L990 470Q995 467 1001 465T1013 463Q1046 463 1078 487T1136 552T1178 648T1194 762Q1194 843 1162 909T1073 1022T938 1095T767 1120Q643 1120 543 1079T373 967T266 806T228 616Q228 530 260 447T357 298T517 192T743 152Q781 152 827 156T926 176T1041 221T1169 299Q1182 308 1199 308Q1222 308 1238 288L1282 229ZM1198 260Q1126 208 1061 177T939 129T833 107T743 102Q601 102 496 146T320 263T214 428T179 616Q179 724 220 824T337 1000T522 1123T767 1169Q870 1169 957 1141T1107 1059T1206 931T1242 762Q1242 692 1222 629T1170 519T1097 442T1013 413Q1001 413 988 416T965 428T948 449T941 484Q941 513 950 549T975 633L1068 946H948L911 817H908Q904 865 885 894T838 941T782 965T728 972Q656 971 596 935T492 843T424 717T399 578Q399 464 461 393Q524 324 622 324Q677 324 717 344T785 391T828 445T850 487L853 483Q851 480 849 468T845 444Q845 428 852 408T875 369T917 337T983 324Q1044 324 1104 357T1211 448T1288 585T1318 757Q1318 868 1276 958T1159 1112T984 1210T767 1244Q625 1243 504 1196T294 1064T155 866T103 619Q103 506 145 400T268 210T467 77T739 26Q813 26 879 38T1007 72T1125 127T1240 201L1198 260ZM533 569Q533 619 549 674T595 776T666 853T757 883Q771 883 790 878T826 860T856 821T868 757Q868 738 865 713T856 659T839 601T815 545Q788 491 748 452T656 413Q605 413 569 450T533 569ZM582 569Q582 512 603 488T656 463Q691 463 720 493T771 567Q795 618 807 669T819 757Q819 780 813 795T796 819T775 831T757 834Q719 834 687 808T631 743T595 658T582 569Z"  />
<glyph unicode="A" horiz-adv-x="1052" d="M607 1304Q622 1304 636 1294T656 1269L1032 66Q1041 39 1027 20T985 0H750Q735 0 720 11T702 38Q699 51 689 89T667 172Q660 194 656 209T649 237T643 260T635 283Q618 284 592 285T543 286H456Q436 286 412 285T373 283Q365 259 359 235T349 189Q342 157 335 121T320 41Q317 24 303 12T270 0H68Q40 0 26 19T19 66Q52 171 84 272T151 476Q202 639 255 802T361 1146L331 1238Q322 1265 336 1284T378 1304H607ZM378 1254L414 1146Q371 1000 327 862T240 589T153 321T68 51H270Q278 92 284 128T299 198T315 265T336 334Q387 335 424 335T500 336Q537 336 577 336T670 334Q679 310 691 270T714 184Q721 162 726 141T737 102T745 71T750 51H985L607 1254H378ZM508 489Q482 489 455 490T382 493Q384 498 388 513T400 553Q414 604 433 666T474 800T498 882T505 901H508Q511 893 514 883T536 813T581 667T629 493Q586 491 559 490T508 489ZM508 540Q544 540 565 541Q550 596 536 645T508 739L495 694Q489 672 481 651Q476 635 472 619T463 588V589Q459 577 457 566T449 544Q448 543 448 541Q466 540 479 540H508Z"  />
<glyph unicode="B" horiz-adv-x="1050" d="M591 1304Q666 1302 731 1281T846 1219T924 1117T953 975Q953 889 916 821T814 708Q901 657 948 578T996 381Q996 273 957 201T853 84T709 20T549 0H163Q142 0 127 15T112 51Q112 118 112 183T114 316Q116 383 117 448T118 580V673Q118 721 118 779T117 897T115 1015T112 1120T110 1202T108 1250Q106 1272 121 1288T159 1304H591ZM159 1254Q160 1241 161 1207T162 1124T163 1017T164 898T165 779T167 673V580Q167 445 165 315T163 51H549Q620 51 690 68T817 123T910 225T946 381Q946 445 929 496T879 588T800 657T695 707V710Q791 735 846 806Q902 878 902 975Q902 1044 877 1095T810 1181T712 1234T591 1254H159ZM490 611Q540 612 583 598T658 555T708 486T727 394Q727 192 483 192H426Q411 192 399 193T376 196V611H490ZM458 1112Q582 1112 634 1070T687 943Q687 853 626 810T437 767Q417 767 404 768T376 772Q373 807 372 851T370 943Q370 994 371 1037T376 1112H458ZM427 560V243H483Q676 243 676 394Q676 434 662 465T623 517T563 549T490 560H427ZM423 1062Q420 1008 420 943V881Q420 866 420 852T423 818H437Q538 818 587 848T637 943Q637 1004 596 1033T458 1062H423Z"  />
<glyph unicode="C" horiz-adv-x="947" d="M905 1004Q905 979 891 966T856 952Q835 952 818 969Q801 986 780 1003T734 1035T682 1058T624 1067Q555 1067 509 1028T434 927T394 790T382 643Q382 545 401 470T454 343T533 265T632 238Q658 238 683 245T730 265T768 290T794 317Q810 336 833 336Q853 336 869 320L946 246Q957 234 959 215T952 181Q936 158 902 123T819 56T710 0T580 -23Q484 -23 390 16T221 133T98 325T51 588Q51 653 61 718T90 848T139 970T207 1080V1079Q246 1132 294 1176T400 1251T524 1300T666 1318Q736 1318 788 1308T874 1283Q886 1277 895 1263T905 1236V1004ZM854 1236Q825 1249 778 1258T666 1268Q575 1268 498 1240T358 1164T247 1050T167 909T118 752T102 588Q101 453 143 348T253 172T408 63T580 26Q641 26 695 47T792 97T865 157T911 210L834 285Q821 269 801 252T754 221T697 198T632 188Q568 188 514 217T419 305T355 448T332 643Q332 723 346 806T394 959T485 1073T624 1118Q659 1118 692 1108T755 1081T810 1044T854 1004V1236Z"  />
<glyph unicode="D" horiz-adv-x="1081" d="M478 1304Q625 1301 728 1251T897 1113T992 909T1022 653Q1022 513 992 393T896 186T725 50T467 0H156Q135 0 120 15T106 52Q109 201 110 345T112 639Q112 794 111 945T107 1253Q106 1274 121 1289T157 1304H478ZM157 1254Q163 946 163 639Q163 490 162 345T156 51H467Q605 51 701 96T857 222T945 413T972 653Q972 779 945 887T859 1076T706 1203T478 1254H157ZM749 659Q749 520 729 431T670 290T573 219T440 199Q416 199 402 200T377 202Q377 321 374 433T371 662Q371 775 373 882T378 1102Q392 1102 404 1104T435 1106Q512 1106 571 1086T669 1015T729 878T749 659ZM700 659Q700 776 683 852T633 974T549 1037T435 1055H427Q424 955 423 860T422 662Q422 604 422 549T424 436Q425 391 425 344T427 249H440Q503 249 552 267T633 331T683 456T700 659Z"  />
<glyph unicode="E" horiz-adv-x="955" d="M858 1304Q879 1304 893 1290T908 1254V1074Q908 1049 891 1035T850 1024Q763 1038 679 1043T503 1049Q490 1049 481 1049T458 1047Q453 1046 453 1046H446V848Q446 840 446 838T445 832T445 822T447 797Q514 799 576 802T706 808Q727 809 742 794T758 757V575Q758 553 743 539T706 525L443 533Q441 489 441 446T440 363Q440 342 440 331T439 307Q439 298 439 287T442 258Q464 259 485 259T528 260Q615 262 699 264T874 275Q897 276 913 261T929 224V51Q929 30 915 15T879 0H181Q160 0 145 15T130 51V105Q130 141 131 188T134 286Q135 335 135 380T136 459V510Q136 552 136 593T137 677V832Q137 938 136 1041T125 1250Q123 1272 138 1288T176 1304H858ZM176 1254Q183 1154 185 1056T188 858Q188 771 187 684T185 510V459Q185 425 185 379T183 284T182 187T181 105V51H879V224Q757 214 637 212T395 206Q391 246 391 285T390 363Q390 413 390 472T395 585L707 575V757L399 746Q395 814 395 848V1000Q395 1026 395 1051T399 1095Q435 1096 456 1097T503 1099Q594 1099 680 1094T858 1074V1254H176Z"  />
<glyph unicode="F" horiz-adv-x="859" d="M802 1304Q824 1304 838 1290T853 1254V1080Q853 1057 837 1042T798 1029Q773 1031 733 1033T652 1038T574 1041T514 1042H462Q453 1042 430 1040V785Q491 788 550 789T670 793Q691 794 706 779T721 742V554Q721 532 705 517T668 503L427 518Q426 495 426 467V336Q426 302 427 265T430 170Q431 145 431 114T434 52Q435 30 420 15T383 0H144Q120 0 106 16T94 57Q104 122 112 278T120 693Q120 763 119 841T116 996Q113 1063 112 1133T111 1254Q111 1275 126 1289T162 1304H802ZM162 1254Q162 1198 163 1129T165 985T168 836T170 693Q170 435 163 277T144 51H383Q381 106 380 149T378 225T377 285T376 336V496Q377 514 377 532T379 571L671 554V742L379 735V1088Q417 1091 450 1092T514 1093Q536 1093 574 1092T654 1088T736 1083T802 1080V1254H162Z"  />
<glyph unicode="G" horiz-adv-x="1081" d="M924 990Q924 967 910 953T876 939Q865 939 855 944T835 959Q788 1017 744 1042T654 1067Q590 1067 541 1031T458 933T407 792T389 626Q389 563 401 491T446 356V357Q476 300 521 263T637 226Q654 226 677 231Q679 244 679 254V334Q679 352 679 395T676 487Q675 533 674 575T673 633Q673 654 688 668T724 683H944Q966 683 981 668T995 632Q994 603 994 570T992 502Q990 429 988 351T986 204V158Q986 138 987 120Q988 109 980 95T964 75Q922 50 887 32T813 1T729 -17T625 -23Q489 -23 385 28T210 166T103 367T66 607Q66 712 89 806T156 981T259 1125T390 1234T542 1303T708 1328Q753 1328 797 1321T887 1303Q902 1297 913 1283T924 1254V990ZM873 1254Q793 1277 708 1277Q590 1277 483 1228T295 1089T165 877T117 607Q117 492 149 387T247 201T406 74T625 26Q679 26 720 32T797 49T866 77T937 118Q936 139 936 162V213Q936 263 937 318T939 429T942 537T944 633H724Q724 617 725 575T727 485T729 394T730 334V281Q730 252 729 236T724 196Q706 185 682 180T637 175Q580 175 536 196T459 252T402 333T364 429T344 530T338 626Q338 722 358 811T419 968T519 1077T654 1118Q708 1118 763 1088T873 990V1254Z"  />
<glyph unicode="H" horiz-adv-x="1090" d="M392 1304Q416 1304 430 1288T443 1250Q439 1205 437 1141T435 1004V803Q455 802 480 801T532 800Q555 800 592 801T650 803Q650 816 650 829T651 855V1022Q651 1080 649 1141T643 1251Q641 1273 656 1288T694 1304H925Q949 1304 963 1288T976 1249Q972 1211 969 1143T964 993T962 828T961 673V387Q961 325 962 264T965 147T970 54Q972 32 957 16T920 0H694Q672 0 657 16T643 54Q648 108 649 176T651 320Q651 365 651 397T652 459Q652 480 652 501T650 544Q638 545 626 545H503Q465 545 431 544Q430 519 429 492T428 439T427 392V363Q427 286 431 211T443 55Q445 32 431 16T392 0H169Q147 0 133 15T118 51Q118 171 121 290Q123 351 124 410T125 529V785Q125 855 125 927T123 1063T119 1175T113 1247Q110 1271 124 1287T163 1304H392ZM163 1254Q166 1232 168 1182T172 1068T175 930T176 785V529Q176 407 173 290T169 51H392Q385 130 381 207T376 363Q376 375 376 403T378 465T381 532T385 588Q421 594 446 595T503 596H599Q629 596 650 595T697 588Q700 537 700 467T701 320Q701 246 699 175T694 51H920Q917 89 915 144T913 261T912 385T911 499V673Q911 720 911 774T912 885T914 996T917 1100T921 1189T925 1254H694Q697 1205 699 1143T701 1022V913Q701 886 701 855T700 794V755Q665 753 640 753T596 751T561 750H532Q481 750 442 752T385 755V1004Q385 1077 386 1143T392 1254H163Z"  />
<glyph unicode="I" horiz-adv-x="555" d="M395 1304Q419 1304 433 1288T445 1249Q443 1227 442 1198T440 1131Q439 1092 439 1052T437 967Q436 924 436 884T434 803V603Q434 540 434 463T436 310T440 167T447 55Q449 32 435 16T397 0H162Q140 0 125 16T111 54Q116 108 118 187T120 360Q120 383 120 405T121 449V495Q121 518 122 540Q122 546 122 553T123 566Q124 600 124 628V720Q124 741 123 768Q123 777 123 786T122 803Q121 841 121 885T119 967Q118 1011 118 1051T117 1131Q116 1158 115 1183T113 1227Q113 1234 113 1241T112 1254Q112 1275 126 1289T162 1304H395ZM162 1254Q163 1233 164 1202T166 1132Q167 1093 168 1052T170 968Q171 925 171 885T173 805Q174 765 174 735T175 681Q174 642 174 590T173 480T172 361T169 242T166 135T162 51H397Q393 85 391 134T388 241T386 360T385 481T385 591T384 681V805Q385 844 385 884T386 968Q387 1011 387 1052T389 1132Q391 1212 395 1254H162Z"  />
<glyph unicode="J" horiz-adv-x="609" d="M432 1304Q455 1304 469 1289T482 1251Q477 1158 476 1072T475 891Q475 883 475 872T476 844Q477 820 477 787V664Q477 635 478 604Q479 573 479 544T480 487Q480 453 480 424T482 370V323Q482 247 465 184T412 74T317 3T175 -23Q138 -23 105 -16T39 2Q25 6 15 21T5 51V213Q5 236 19 250T53 265Q70 265 84 254Q89 250 104 250T139 249Q159 249 165 270T172 339Q172 366 172 415T170 529T168 671T165 830Q163 941 162 1050T159 1253Q159 1274 174 1289T210 1304H432ZM210 1254Q211 1177 212 1088T215 907T217 726T220 561T222 427T223 339Q223 266 206 233T139 199Q113 199 91 200T55 213V51Q85 40 115 33T175 26Q244 26 292 48T372 110T418 204T432 323Q432 343 431 387T429 487Q429 544 428 604T426 722Q426 779 425 824T424 891Q424 984 425 1073T432 1254H210Z"  />
<glyph unicode="K" horiz-adv-x="1022" d="M386 1304Q407 1304 422 1290T437 1254Q437 1220 436 1179T432 1097Q429 1022 429 960L430 904Q460 957 486 999T535 1076T581 1138T626 1189V1188Q660 1223 692 1247T756 1285T822 1305T894 1311Q915 1311 929 1297T944 1260V1066Q944 1050 938 1039T920 1021T896 1014T868 1023Q869 1022 864 1022H851Q816 1022 779 980T688 842Q728 746 768 653T846 462Q885 366 933 269T1033 75Q1048 47 1035 24T989 0H740Q726 0 711 10T692 33Q664 107 636 177T579 318Q565 353 557 374T540 415T522 460T496 525Q479 496 463 468T429 409Q429 319 430 233T441 54Q443 31 428 16T390 0H161Q140 0 125 15T111 52Q113 139 116 237T119 467V850Q119 914 118 963T116 1066Q116 1103 115 1152T113 1253Q113 1274 127 1289T163 1304H386ZM163 1254Q164 1187 165 1137T167 1041T169 950T170 850V467Q170 334 167 236T161 51H390Q383 144 381 236T379 421L503 637Q536 556 567 482T625 338Q654 268 682 197T740 51H989Q935 146 889 243T800 443Q718 647 632 844Q697 961 747 1017T851 1073Q864 1073 877 1071T894 1066V1260Q851 1260 813 1251T739 1218T664 1155T584 1053T492 908T383 710H379V960Q379 991 380 1028T383 1103L385 1181Q386 1220 386 1254H163Z"  />
<glyph unicode="L" horiz-adv-x="922" d="M394 1304Q416 1304 431 1289T445 1252Q444 1218 443 1173T440 1079T438 987T437 913V568Q437 531 437 495T438 422V361Q438 337 438 319T439 285V257Q530 257 590 258T691 262T763 267T827 276Q851 279 867 265T884 226V51Q884 30 870 15T834 0H167Q146 0 132 15T118 52Q123 185 124 312T126 573Q126 659 125 747T121 923T115 1093T107 1251Q106 1273 121 1288T158 1304H394ZM158 1254Q162 1180 166 1096T172 925T175 748T177 573Q177 440 176 312T167 51H834V226Q798 220 765 217T686 211T569 207T390 206Q389 235 389 293T388 422Q388 493 388 568T387 713V913Q387 943 387 987T389 1080T391 1174T394 1254H158Z"  />
<glyph unicode="M" horiz-adv-x="1306" d="M465 1304Q480 1304 494 1294T513 1268Q550 1143 585 1024T656 782Q691 904 724 1022T789 1266Q793 1282 807 1293T837 1304H1136Q1158 1304 1172 1289T1186 1252Q1185 1234 1185 1218T1183 1184Q1182 1146 1181 1107T1178 1021T1177 917T1176 782V599Q1176 526 1177 450T1179 303T1183 167T1189 54Q1191 32 1176 16T1138 0H924Q903 0 888 15T873 52Q876 148 876 241T878 431Q879 489 879 544T880 657Q848 551 816 446T752 232Q747 218 733 207T704 196H577Q562 196 548 206T528 232Q510 297 500 337T482 405T468 455T453 504T432 571T397 674Q399 644 399 616T400 559Q402 441 403 326T407 91V66Q407 61 407 57T408 51Q408 30 394 15T358 0H162Q140 0 125 15T111 53Q116 123 119 193T125 348T128 542T130 798V913Q130 966 129 1019T127 1128T124 1253Q124 1274 139 1289T175 1304H465ZM175 1254Q177 1185 178 1129T180 1019T181 913V798Q181 651 180 542T176 347T170 191T162 51H358Q358 53 357 67T356 91Q353 322 350 548T343 1004H347Q408 813 465 627T577 246H704Q761 440 817 627T931 1004H936Q930 764 930 528T924 51H1138Q1135 99 1133 163T1129 300T1126 449T1125 599V782Q1125 876 1126 942T1128 1061T1132 1159T1136 1254H837Q796 1090 751 931T657 608H653Q605 773 559 931T465 1254H175Z"  />
<glyph unicode="N" horiz-adv-x="1088" d="M394 1304Q406 1304 420 1296T439 1278Q477 1207 513 1134T581 988Q605 934 632 874T687 756Q685 810 684 863T681 970Q678 1038 677 1111T673 1252Q672 1273 687 1288T724 1304H917Q938 1304 953 1289T967 1253Q966 1211 965 1135T963 961T961 754T960 535V390Q960 322 961 255Q962 195 963 141T966 52Q967 31 952 16T916 0H764Q752 0 738 9T718 31Q712 45 708 55T698 75T687 98T672 129Q665 145 656 165T633 213Q576 332 518 450T403 690Q405 529 407 372T417 52Q418 31 403 16T367 0H169Q147 0 132 15T118 52Q120 122 120 197T122 359Q123 445 123 526T124 688V819Q124 873 123 931T121 1047T118 1157T113 1251Q112 1273 127 1288T164 1304H394ZM164 1254Q166 1213 168 1160T172 1049T173 932T174 819V527Q174 445 173 359Q172 273 172 197T169 51H367Q357 276 355 495T352 940H355Q363 915 370 886T402 810L678 234Q699 190 712 163T733 118T749 85T764 51H916Q914 88 913 139T911 254Q909 320 909 389V535Q909 644 910 754T912 962T914 1136T917 1254H724Q730 1063 734 876T748 499L743 496Q739 513 734 528T719 564T698 614T665 688Q630 758 598 828T534 968T468 1110T394 1254H164Z"  />
<glyph unicode="O" horiz-adv-x="1107" d="M553 1079Q476 1079 432 972T388 652Q388 440 432 333T553 226Q631 226 674 333T718 652Q718 864 675 971T553 1079ZM553 1328Q658 1328 747 1280T902 1142T1005 928T1042 652Q1042 500 1005 376T903 163T748 26T553 -23Q448 -23 359 25T205 163T103 376T66 652Q66 803 103 928T205 1142T359 1279T553 1328ZM553 1277Q459 1277 379 1232T241 1105T150 908T117 652Q117 512 149 397T240 200T379 72T553 26Q647 26 727 71T866 199T958 397T992 652Q992 792 959 907T867 1105T728 1232T553 1277ZM553 1129Q655 1129 711 1009T768 652Q768 416 712 296T553 175Q452 175 395 295T338 652Q338 888 395 1008T553 1129Z"  />
<glyph unicode="P" horiz-adv-x="951" d="M530 1304Q625 1301 706 1278T845 1208T936 1085T969 904Q969 781 928 702T817 576T655 511T457 492H440Q432 492 426 493V277Q428 248 429 207T432 108V109Q434 96 434 82T435 53Q436 31 421 16T384 0H158Q136 0 121 16T108 54Q114 146 116 233T119 412Q119 447 119 482T118 552Q118 590 118 628T117 705Q117 743 117 782T118 861Q118 898 118 935T119 1009Q119 1071 118 1130T113 1252Q112 1273 127 1288T164 1304H530ZM164 1254Q167 1195 168 1137T170 1019Q170 939 169 861T167 705Q167 629 168 553T170 400Q170 312 168 225T158 51H384Q382 94 381 127T379 187T378 235T376 275V439Q376 472 377 501T381 547Q396 547 406 547T424 545T439 544T457 543Q551 543 635 559T782 616T881 727T918 904Q918 997 889 1062T809 1169T686 1231T529 1254H164ZM700 904Q700 846 680 806T625 740T545 704T447 693Q429 693 416 694T383 696Q382 714 382 747T380 815T378 879T376 918Q377 927 377 952T379 1006T381 1062T383 1105Q417 1108 428 1108T448 1109Q500 1109 546 1100T626 1067T680 1004T700 904ZM649 904Q649 950 633 979T590 1026T527 1051T448 1058H430Q429 1039 428 1017T427 976T426 940V891Q426 872 426 848T428 795T430 744H447Q489 744 526 752T590 779T633 829T649 904Z"  />
<glyph unicode="Q" horiz-adv-x="1107" d="M1012 -172Q1010 -190 995 -203T962 -216Q815 -216 725 -155Q654 -106 599 -21Q581 -23 553 -23Q448 -23 359 25T205 163T103 376T66 652Q66 803 103 928T205 1142T359 1279T553 1328Q658 1328 747 1280T902 1142T1005 928T1042 652Q1042 473 992 336T855 108Q880 81 911 67T987 51Q1010 50 1024 33T1036 -7L1012 -172ZM985 0Q914 3 868 31T789 114Q884 192 938 329T992 652Q992 792 959 907T867 1105T728 1232T553 1277Q459 1277 379 1232T241 1105T150 908T117 652Q117 512 149 397T240 200T379 72T553 26Q576 26 591 28T624 36Q676 -60 754 -113Q829 -165 962 -165L985 0ZM553 1129Q655 1129 711 1009T768 652Q768 416 712 296T553 175Q452 175 395 295T338 652Q338 888 395 1008T553 1129ZM553 1079Q476 1079 432 972T388 652Q388 440 432 333T553 226Q631 226 674 333T718 652Q718 864 675 971T553 1079Z"  />
<glyph unicode="R" horiz-adv-x="1022" d="M164 0Q142 0 127 16T113 54Q117 90 118 142T120 251V455Q120 724 119 920T110 1251Q109 1273 124 1288T161 1304H544Q635 1304 712 1282T846 1214T934 1099T966 935Q966 860 948 807T899 715T832 651T758 607Q771 576 790 532T830 439T875 338T920 242Q949 177 970 131T999 67Q1007 40 993 20T951 0H699Q684 0 670 10T650 36Q628 107 606 170T561 295T514 418T463 547H452Q445 547 430 546V470Q430 416 430 358T431 243T433 137T434 52Q435 30 420 15T384 0H164ZM384 51Q383 86 383 135T382 241T380 357T379 470V596L495 599Q550 463 602 328T699 51H951Q947 63 928 104T882 204T825 328T768 454T721 564T694 634Q729 649 768 670T840 725T893 811T915 935Q915 1017 888 1077T811 1176T693 1235T544 1254H161Q167 1119 168 922T170 455V251Q170 194 168 140T164 51H384ZM379 1110Q401 1112 417 1113T445 1115Q494 1115 539 1109T619 1082T675 1026T696 930Q696 882 679 848T631 793T559 762T471 752Q430 752 412 753T379 754V1110ZM430 802H471Q507 802 539 809T594 831T632 871T646 930Q646 973 629 999T584 1041T520 1060T445 1065H440Q440 1065 442 1066Q441 1066 439 1066T430 1065V802Z"  />
<glyph unicode="S" horiz-adv-x="952" d="M84 347Q84 371 98 385T132 399Q152 399 169 384Q206 351 244 324T314 276Q343 259 375 250T443 241Q515 241 552 276Q590 314 590 363Q590 407 560 438T483 495Q458 510 430 524T367 553Q313 579 262 607T171 675T107 768T83 895Q83 983 119 1062T220 1200T372 1293T562 1328Q609 1328 655 1320T746 1291Q757 1286 766 1272T775 1245V1014Q775 990 760 977T726 964Q704 964 687 980Q655 1015 609 1038T506 1062Q448 1062 415 1038T382 972Q382 938 403 919Q421 904 441 891T484 865L483 866Q537 838 602 815Q676 787 737 740T844 621Q865 585 876 537T888 432Q888 326 850 242T746 99T595 9T411 -23Q378 -23 337 -18T253 -4T173 19T109 48Q101 53 93 67T84 91V347ZM135 91Q158 78 193 66T266 46T343 32T411 26Q497 26 574 55T711 136T804 264T838 432Q838 532 800 596Q762 659 707 700T584 767Q536 789 491 808T410 849T353 900T331 972Q331 1036 378 1074T506 1112Q576 1112 631 1085T724 1014V1245Q686 1265 646 1271T562 1277Q471 1277 393 1247T256 1164T165 1042T132 895Q132 832 154 787T212 708T293 648T387 600Q455 570 509 538Q536 523 560 505T602 466T630 419T640 363Q640 290 587 240Q534 190 443 190Q359 190 288 231Q218 275 135 347V91Z"  />
<glyph unicode="T" horiz-adv-x="881" d="M881 1079Q881 1055 865 1041T824 1029Q779 1035 721 1041T604 1049Q604 986 604 925T602 800Q601 726 601 653T600 502Q600 394 602 279T611 52Q612 31 597 16T560 0H329Q307 0 293 15T278 51Q279 134 281 203T285 336Q287 406 289 475T291 621Q291 639 291 657T290 693Q290 725 290 756T291 817Q291 844 292 869T293 921Q293 954 292 985T290 1049Q255 1048 228 1047T177 1043T127 1037T68 1029Q43 1025 27 1040T10 1079V1254Q10 1275 24 1289T60 1304H831Q852 1304 866 1290T881 1254V1079ZM831 1254H60V1079Q102 1085 132 1089T192 1095T256 1098T340 1102Q342 1061 342 1020V939Q342 878 342 818T341 693Q341 604 340 530T336 381T332 227T329 51H560Q554 163 552 278T550 502Q550 654 551 801T553 1102Q585 1101 622 1099T695 1093T767 1086T831 1079V1254Z"  />
<glyph unicode="U" horiz-adv-x="1052" d="M369 1304Q391 1304 405 1289T419 1251Q416 1191 416 1133V1073Q416 1042 414 1011V381Q414 349 420 321T440 271T477 237T535 225Q565 225 589 234T630 272T657 350T667 481V1147Q667 1174 666 1191T664 1221T660 1248Q657 1271 672 1287T711 1304H896Q917 1304 932 1289T947 1252Q946 1229 945 1188T942 1094T941 980T940 854T939 725T938 603Q938 543 938 494T937 414V379Q932 275 905 199T825 73T694 0T510 -23Q408 -23 332 -2T205 74T128 226T102 472V567Q102 616 103 664Q103 711 103 758T104 854Q104 943 104 999T103 1095Q103 1103 103 1110T102 1125Q102 1149 101 1166L99 1200Q98 1212 97 1226T96 1254Q96 1275 111 1289T147 1304H369ZM147 1254Q147 1237 148 1222T150 1193T151 1162T152 1124Q153 1082 154 1021T155 854Q155 758 154 663T152 472Q151 337 173 251T241 115T354 47T510 26Q697 26 787 111T886 381Q886 388 886 407T887 457T887 524T888 603Q888 660 888 725L889 854Q890 919 890 981T892 1096T894 1190T896 1254H711Q713 1239 714 1227T716 1197T717 1150V481Q717 384 704 324T666 231T609 186T535 174Q485 174 453 190T400 235T372 300T364 381V1012Q365 1043 365 1073T366 1133Q366 1195 369 1254H147Z"  />
<glyph unicode="V" horiz-adv-x="955" d="M289 1304Q306 1304 320 1292T338 1262Q361 1137 392 1010T456 747Q465 707 476 666T496 584Q519 668 545 763T594 949T633 1121T655 1258Q657 1277 671 1290T706 1304H902Q930 1304 944 1285T951 1239Q907 1102 866 968T785 701T707 433T630 159Q638 136 646 113T661 67Q671 40 657 20T615 0H394Q379 0 365 10T347 36Q325 104 312 157Q306 176 301 194T290 229Q275 295 253 378T204 554T151 743T98 930T47 1100T5 1239Q-3 1265 11 1284T53 1304H289ZM53 1254Q71 1195 95 1115T145 944T200 757T254 569T302 392T340 242Q351 202 364 157T394 51H615L577 159Q653 437 734 708T902 1254H706Q701 1203 688 1134T655 985T614 822T569 659T527 510T493 389H489Q465 497 438 607T383 826T332 1043T289 1254H53Z"  />
<glyph unicode="W" horiz-adv-x="1393" d="M302 1304Q319 1304 333 1292T352 1264Q385 1101 414 948T469 657Q484 723 500 784T529 898T554 990T571 1056Q563 1095 555 1132T538 1211Q535 1229 545 1246T573 1269L761 1326Q782 1332 801 1321T826 1289Q866 1124 896 962T956 635Q959 649 963 662T970 690Q1002 834 1032 974T1085 1261Q1088 1279 1102 1291T1134 1304H1322Q1348 1304 1362 1286T1371 1242Q1293 938 1218 639T1064 37Q1060 22 1046 11T1015 0H856Q841 0 826 11T807 38Q778 163 750 289T696 528Q695 529 695 531Q681 474 665 414T633 299Q615 232 599 169T566 38Q562 23 547 12T516 0H358Q341 0 327 11T308 38Q261 236 219 428T135 817Q112 922 89 1029T42 1243Q37 1268 52 1286T91 1304H302ZM91 1254Q159 950 222 652T358 51H516Q538 140 562 228T609 404T654 580T694 757H697Q710 703 728 623T767 448T811 251T856 51H1015Q1094 354 1169 652T1322 1254H1134Q1117 1144 1096 1035T1050 818T1002 602T955 386H952Q911 613 871 833T776 1277L588 1220L623 1054Q614 1020 596 951T555 793T508 605T462 412H458Q446 494 430 591T394 795T351 1018T302 1254H91Z"  />
<glyph unicode="X" horiz-adv-x="976" d="M322 1304Q337 1304 352 1293T370 1267Q375 1248 388 1215T417 1142T452 1061T488 983Q497 1003 507 1023T529 1065Q544 1098 557 1128T583 1187Q597 1217 604 1236T615 1268Q619 1283 633 1293T664 1304H873Q905 1304 919 1281T918 1229Q880 1159 845 1094T776 963T708 832T639 695Q745 475 829 320T968 76Q976 63 976 49T970 25T952 7T924 0H673Q661 0 647 9T628 30Q602 85 584 125T548 202T511 280T465 377Q444 331 420 277T375 174T337 86T315 34Q310 20 296 10T267 0H52Q36 0 25 7T7 24T0 49T8 76Q67 178 114 266T202 435Q223 475 239 507T269 567T295 617T318 662Q291 717 257 785T183 927T102 1079T20 1230Q5 1257 19 1280T65 1304H322ZM65 1254Q106 1178 149 1096T234 935T312 786T373 662Q352 618 320 555L249 412Q209 332 160 242T52 51H267Q271 63 285 95T318 171T359 265T402 360T440 441T465 494Q519 382 570 272T673 51H924Q870 141 781 303T583 696Q653 838 725 975T873 1254H664Q659 1240 651 1219T630 1168Q617 1138 603 1108T575 1045Q560 1014 546 986T519 931Q507 905 499 890T488 869Q477 887 463 918T431 985T398 1061T366 1136T339 1204T322 1254H65Z"  />
<glyph unicode="Y" horiz-adv-x="990" d="M307 1304Q322 1304 336 1294T356 1269Q367 1233 383 1191T417 1105T455 1015T495 924Q502 906 514 876Q518 884 522 892T530 909Q549 952 569 998T609 1091T647 1184T678 1271Q684 1284 697 1294T726 1304H938Q970 1304 983 1281T982 1229Q971 1211 946 1163T888 1051T818 914T747 773T687 651T648 567V386Q648 312 649 259T653 159Q654 142 655 123T657 82V69Q657 64 658 55Q660 32 646 16T607 0H394Q373 0 359 15T344 52Q346 116 346 177V542Q316 602 288 664T230 788Q178 900 127 1009T15 1230Q0 1257 14 1280T59 1304H307ZM59 1254Q153 1081 232 905T396 553V302Q396 240 396 177T394 51H607Q605 96 603 132T600 206T599 285T598 386V576Q605 594 621 629T660 710T710 810T765 920Q794 976 821 1030T871 1130T912 1208T938 1254H726Q681 1124 625 1000T515 748Q494 800 466 865T407 998T351 1132T307 1254H59Z"  />
<glyph unicode="Z" horiz-adv-x="918" d="M51 174L479 1045H459Q379 1045 297 1041T145 1024Q122 1021 105 1035T87 1074V1254Q87 1275 102 1289T138 1304H814Q835 1304 849 1290T864 1254V1136L429 261Q529 261 623 263T816 271Q837 272 853 257T869 220V51Q869 30 855 15T818 0H101Q79 0 65 15T51 51V174ZM101 51H818V220Q700 216 584 213T349 210L814 1149V1254H138V1074Q211 1085 295 1090T459 1095H561L101 162V51Z"  />
<glyph unicode="[" horiz-adv-x="845" d="M768 -306Q768 -356 727 -356H247Q211 -356 211 -315V1543Q211 1587 250 1587H723Q768 1587 768 1537Q768 1462 720 1413Q672 1363 609 1363H514V-133H615Q673 -133 721 -186Q768 -239 768 -306ZM714 -302Q714 -259 686 -222Q657 -187 613 -187H506Q460 -187 460 -152V1378Q460 1417 497 1417H605Q629 1417 649 1426T683 1451T705 1488T714 1533H265V-302H714Z"  />
<glyph unicode="\" horiz-adv-x="1114" d="M994 -133Q994 -152 957 -152H777Q746 -152 738 -124L149 1226Q139 1251 139 1261Q139 1280 162 1280H340Q374 1280 390 1244L980 -95Q994 -124 994 -133ZM922 -98L340 1226H208L788 -98H922Z"  />
<glyph unicode="]" horiz-adv-x="845" d="M634 -315Q634 -356 597 -356H118Q76 -356 76 -306Q76 -239 123 -186Q171 -133 230 -133H330V1363H234Q172 1363 124 1413Q76 1462 76 1537Q76 1587 122 1587H595Q634 1587 634 1543V-315ZM580 -302V1533H130Q130 1487 161 1451Q193 1417 238 1417H348Q384 1417 384 1378V-152Q384 -187 338 -187H232Q188 -187 159 -222Q130 -259 130 -302H580Z"  />
<glyph unicode="^" horiz-adv-x="1103" d="M152 434Q129 434 116 447T102 480Q102 493 108 506L444 1186Q449 1196 463 1204T489 1213H613Q624 1213 638 1205T657 1186L997 506Q1003 495 1003 481Q1003 461 989 448T953 434H814Q802 434 789 443T770 462L550 908Q496 796 442 686T334 462Q329 452 315 443T289 434H152ZM289 483L549 1021L814 483H953L613 1164H489L152 483H289Z"  />
<glyph unicode="_" horiz-adv-x="902" d="M-37 -137H939V-226H-37V-137Z"  />
<glyph unicode="`" horiz-adv-x="499" d="M409 1019Q419 1004 419 990Q419 971 405 957T368 943H231Q226 943 214 948T196 958L-38 1194Q-54 1209 -54 1231Q-54 1249 -41 1263T-3 1277H218Q228 1277 241 1270T260 1254L409 1019ZM218 1229H-3L231 993H368L218 1229Z"  />
<glyph unicode="a" horiz-adv-x="841" d="M537 0Q523 13 515 22T501 37Q492 31 481 24L460 12Q403 -23 322 -23Q253 -23 201 3T113 70T61 163T43 267Q43 320 56 363T94 442T149 506T217 558Q253 579 289 596T364 625Q382 631 392 634T410 640L426 646Q435 649 449 653Q425 709 353 709Q329 709 306 703T262 689T226 672T198 656Q184 648 171 648T148 654T131 672T124 699V894Q124 912 136 926T167 942Q193 946 226 947T285 949Q372 949 454 933T601 875T703 765T742 591V300Q742 238 750 180T775 61Q781 37 767 19T727 0H537ZM727 49Q711 112 702 173T693 300V591Q693 683 659 742T568 836T438 885T285 899Q261 899 230 898T173 894V699Q185 706 204 716T246 735T296 751T353 759Q426 759 462 723T508 619Q480 611 448 601T379 579Q306 554 244 515Q212 496 185 471T137 416T104 349T92 267Q92 224 107 181T150 103T222 48T322 26Q355 26 382 33T434 53T479 80T522 113Q525 96 534 79T555 49H727ZM512 229Q494 205 465 190T400 175Q376 175 355 182T318 204T293 241T283 293Q283 366 343 416T512 481V229ZM462 421Q399 404 366 371T332 293Q332 259 352 242T400 224Q438 224 462 246V421Z"  />
<glyph unicode="b" horiz-adv-x="903" d="M349 1271Q370 1271 385 1256T397 1218Q396 1204 396 1190V915Q427 927 458 934T518 942Q589 942 650 912T755 823T825 682T851 495Q851 397 825 304T752 139T637 22T485 -23Q444 -23 409 -15T344 11L326 20Q321 23 318 25T310 31L297 40Q285 28 275 17T252 -7Q241 -19 224 -21T192 -16L129 19Q118 24 111 39T104 68Q114 151 116 229T119 388V469Q119 573 118 669T115 856T110 1037T104 1219Q104 1240 118 1255T154 1271H349ZM154 1221Q157 1129 159 1040T163 858T166 669T167 469V358Q167 284 165 211T154 61L216 26L290 105Q324 79 369 53Q414 26 485 26Q558 26 616 66T715 172T779 322T802 495Q802 587 781 661T721 787T631 866T518 894Q479 894 435 877T348 831V1191Q348 1207 349 1221H154ZM349 701Q368 723 394 733T438 744Q466 744 496 728T552 677T592 586T608 447Q608 375 595 322T560 235T509 183T448 166Q436 166 422 169T394 178T370 192T353 210Q351 231 350 257T349 314V701ZM397 314Q397 284 398 267T401 229Q409 224 423 220T448 216Q471 216 491 230T526 272T551 344T560 447Q560 515 548 563T519 640T480 682T438 695Q429 695 419 692T397 681V314Z"  />
<glyph unicode="c" horiz-adv-x="741" d="M688 682Q688 658 673 645T639 631Q630 631 621 635T602 649Q581 672 552 682T496 692Q476 692 451 682T405 647T368 578T353 466Q354 393 372 346T417 270T472 231T524 219Q551 219 578 232T628 267Q641 281 662 281Q674 281 684 276T702 261L762 178Q771 166 771 148T760 119Q741 96 709 71T636 25T549 -9T454 -23Q363 -23 290 14T167 114T89 257T61 422Q61 517 98 610T203 777T365 896T572 942Q604 942 621 941T657 931Q669 925 678 912T688 886V682ZM638 886Q626 890 613 892T572 894Q470 894 385 853T239 744T145 593T111 422Q111 347 135 276T203 149T310 60T454 26Q496 26 537 38T614 68T677 107T721 149L661 231Q633 205 598 188T525 171Q496 171 459 184T387 230T328 320T304 465Q304 548 323 601T372 686T435 729T496 741Q530 741 570 727T638 682V886Z"  />
<glyph unicode="d" horiz-adv-x="874" d="M740 1271Q762 1271 776 1255T790 1218Q788 1197 788 1173T787 1117V291Q787 231 789 173T807 64Q815 38 801 19T759 0H575Q561 0 548 8T529 29Q494 5 456 -9T367 -23Q298 -23 241 7T142 93T78 224T54 390Q54 430 60 477T78 569Q92 618 110 662T153 745Q201 828 283 884Q363 942 479 942H491Q497 942 503 941V1021Q503 1036 503 1058T501 1106T497 1161T492 1217Q490 1239 504 1255T541 1271H740ZM541 1221Q546 1166 549 1110T553 1021V880Q536 886 516 890T479 894Q431 894 389 881T312 844T246 789T194 720Q172 683 155 642T126 558T109 472T103 390Q103 311 122 244T177 129T260 54T367 26Q396 26 421 33T470 52T515 79T561 114L575 49H759Q742 106 740 167T738 291V1117Q738 1148 738 1174T740 1221H541ZM553 243Q530 215 501 199T439 183Q399 183 371 204T324 259T298 336T290 425Q290 487 303 547T343 655T407 732T495 762Q533 762 551 741Q552 736 552 727T553 703V243ZM503 261V713H495Q458 713 429 688T380 622T350 529T339 425Q339 388 344 354T362 292T392 249T439 232Q473 232 503 261Z"  />
<glyph unicode="e" horiz-adv-x="805" d="M424 589Q461 601 474 609T488 633Q488 670 472 696T432 723Q421 723 408 716T384 690T364 642T350 566L424 589ZM373 321Q378 305 387 288T411 256T446 233T493 224Q530 224 565 244T628 285Q641 298 659 298Q682 298 696 281L764 204Q777 191 777 171Q777 155 766 141Q755 126 730 99T665 44T571 -3T448 -23Q369 -23 298 10T174 104T89 250T58 440Q58 534 85 624T162 785T281 899T435 942Q533 942 596 901T697 795T749 650T766 495Q767 480 757 466T734 446L373 321ZM718 493Q714 561 702 632T658 761T573 856T435 894Q361 894 302 855T199 752T131 607T107 440Q107 347 134 271T207 140T316 56T448 26Q508 26 555 43T638 85T696 133T728 171L659 248Q629 222 585 199T493 175Q443 175 410 196T357 246T327 306T315 354L718 493ZM297 496Q299 580 312 633T345 717T387 760T432 772Q454 772 473 761T506 731T528 687T537 633Q537 615 533 602T517 579T488 561T440 543L297 496Z"  />
<glyph unicode="f" horiz-adv-x="522" d="M549 1090Q549 1061 528 1047T479 1044Q467 1049 457 1049T442 1050Q425 1050 415 1022T404 934V919H490Q511 919 525 905T540 869V741Q540 721 526 707T490 692H404V439Q404 399 405 361Q406 316 407 270T409 182T411 107T414 54Q417 32 402 16T365 0H161Q140 0 125 16T112 53Q118 132 122 212T126 366V692H58Q38 692 24 706T10 741V869Q10 890 24 904T58 919H127Q131 991 150 1057T209 1172T309 1252T458 1282Q489 1282 517 1271Q529 1266 539 1252T549 1224V1090ZM499 1224Q481 1232 458 1232Q376 1232 322 1202T234 1123T188 1007T175 869H58V741H175V366Q175 293 171 211T161 49H365Q363 76 361 134T358 259T356 393T354 507V741H490V869H354V934Q354 1017 379 1058T442 1100Q448 1100 464 1099T499 1090V1224Z"  />
<glyph unicode="g" horiz-adv-x="871" d="M675 931Q689 942 707 942Q725 942 739 931L791 885Q800 877 804 860T803 831Q795 806 790 754T782 629V544Q782 497 782 445T781 338V100Q781 83 782 68Q782 58 782 50T783 37Q783 -58 753 -123T671 -229T546 -286T390 -304Q323 -304 259 -294T130 -270Q110 -265 99 -248T92 -211L138 -17Q142 1 155 11T185 22Q202 22 217 11Q228 2 247 -11T291 -38T345 -60T408 -69Q454 -69 473 -44T497 21Q496 21 495 20Q447 0 388 0Q335 0 277 23T170 97T90 225T58 412Q58 529 90 626T177 794T302 903T454 942Q505 942 546 929T624 887L675 931ZM624 823Q587 856 546 875T454 894Q385 894 323 859T212 759T136 607T108 412Q108 316 135 247T203 134T294 70T388 49Q435 49 478 66Q501 74 517 82T546 96Q547 87 547 76T548 51Q548 15 542 -16T519 -70T476 -106T408 -119Q369 -119 334 -109T271 -84T220 -53T185 -28L141 -222Q202 -235 264 -245T390 -255Q463 -255 526 -240T635 -191T708 -101T735 37Q735 49 734 77T732 135Q732 165 732 191T731 229V348Q731 541 735 668T758 848L707 894L624 823ZM301 462Q301 543 314 600T349 693T397 747T453 765Q477 765 495 757T526 721T544 637T550 487Q550 377 549 309T545 215Q505 187 461 187Q384 187 343 259T301 462ZM350 462Q350 353 378 295T461 236Q477 236 497 245Q499 279 500 340T501 487Q501 565 498 610T489 680T473 710T453 717Q434 717 415 703T382 657T359 578T350 462Z"  />
<glyph unicode="h" horiz-adv-x="878" d="M338 1271Q360 1271 374 1255T387 1216Q385 1196 385 1174T384 1125V909Q416 925 445 933T512 942Q565 942 613 919T700 853T760 751T782 622V474Q782 363 786 254T798 54Q800 32 786 16T748 0H552Q531 0 516 15T502 51Q508 187 509 316T510 581Q510 692 428 692Q421 692 410 692T387 686V535Q387 500 388 461T390 382Q391 354 391 320T392 261Q393 245 393 228T394 195Q395 147 396 111T401 57Q405 34 391 17T352 0H153Q130 0 116 16T104 54Q106 74 107 105T110 176T112 260T113 354V527Q113 587 113 655T111 792T107 927T103 1049T96 1148T88 1214Q85 1237 98 1254T137 1271H338ZM137 1221Q140 1199 143 1158T150 1062T155 945T158 814T161 681T162 554V354Q162 254 160 173T153 49H352Q348 79 346 135T342 259Q341 325 340 399T338 535V647Q338 696 341 715Q364 732 388 736T428 741Q559 741 559 581Q559 447 558 315T552 49H748Q740 140 737 250T734 474V622Q734 682 715 731T666 817T595 873T512 894Q490 894 469 889T428 875T384 853T335 823V1125Q335 1154 335 1178T338 1221H137Z"  />
<glyph unicode="i" horiz-adv-x="511" d="M355 919Q378 919 392 903T405 865Q400 813 398 763T395 665V462Q395 399 396 336T399 219T404 122T408 52Q410 31 396 16T359 0H158Q136 0 122 16T109 54Q114 111 116 164T119 271V326Q119 354 118 382Q118 409 118 437T117 494Q117 563 115 624T111 734T107 817T104 866Q102 887 116 903T153 919H208Q180 927 160 944T125 985T105 1035T98 1089Q98 1127 109 1159T142 1217T194 1256T260 1271Q291 1271 319 1258T369 1222T403 1166T416 1093Q416 1025 376 973Q347 932 301 919H355ZM153 869Q154 854 156 820T160 736T163 625T165 494Q165 437 166 380T167 265Q167 211 165 157T158 49H359Q357 76 355 119T351 217T347 334T346 462V665Q346 765 355 869H153ZM260 1221Q234 1221 214 1211T178 1182T155 1140T146 1089Q146 1065 152 1043T172 1003T205 974T253 962Q281 962 301 973T336 1002T358 1044T366 1093Q366 1151 335 1186T260 1221Z"  />
<glyph unicode="j" horiz-adv-x="469" d="M-11 -110Q-11 -90 3 -76T38 -60Q60 -59 73 -55T94 -37T104 -2T107 58Q107 119 107 194T104 349L101 509Q100 589 97 658T91 780T83 862Q79 885 93 902T131 919H185Q157 927 137 944T102 985T81 1035T74 1089Q74 1127 86 1159T120 1217T172 1256T238 1271Q270 1271 298 1258T347 1222T381 1166T393 1093Q393 1025 355 973Q326 932 280 919H328Q349 919 363 904T376 867Q375 852 375 839T374 809V718Q374 635 375 555T378 391Q381 308 382 226T383 58Q383 -17 370 -82T324 -197T233 -275T86 -304Q71 -304 54 -304T23 -299Q11 -294 0 -281T-11 -252V-110ZM39 -252Q46 -254 59 -254T86 -255Q160 -255 208 -231T285 -163T323 -63T334 58Q334 227 330 389T325 718V809Q325 825 325 839T328 869H131Q136 841 139 787T145 663T150 512T154 351T156 195T157 58Q157 6 152 -26T135 -76T99 -102T39 -110V-252ZM238 1221Q189 1221 156 1182Q124 1144 124 1089Q124 1065 130 1043T150 1003T183 974T231 962Q259 962 280 973T315 1002T337 1044T344 1093Q344 1151 314 1186T238 1221Z"  />
<glyph unicode="k" horiz-adv-x="843" d="M337 1271Q359 1271 373 1256T387 1218Q385 1194 385 1170T384 1116V705Q400 725 414 746T443 789Q473 828 506 857T571 905T631 933T679 942Q692 942 701 942T719 941Q722 941 724 941T729 940Q750 940 764 926T779 890V726Q779 705 765 691T729 676H696Q679 676 661 668T624 639Q620 633 618 629T612 623T607 617T599 606Q640 513 682 422T765 237Q778 206 789 182T810 139T828 105T846 73Q861 46 848 23T803 0H583Q570 0 556 10T536 32Q530 50 524 68T513 103Q506 128 497 153T473 208L412 346Q405 335 399 325L384 303V137Q384 98 387 52Q388 31 374 16T337 0H146Q125 0 111 14T98 50Q100 117 100 188T102 337Q105 494 105 640V699Q105 832 104 958T91 1218Q90 1239 104 1255T141 1271H337ZM141 1221Q149 1116 151 1014T154 807V640Q154 567 154 492T152 338Q151 260 150 188T146 49H337Q336 72 336 94T335 137V319L422 448L517 229Q536 192 550 146T583 49H803Q795 65 787 81T768 117T747 160T720 217L542 614L587 670Q614 703 642 714T696 726H729V890Q718 891 707 892T679 894Q664 894 641 886T592 862T538 820T483 761L337 548H335V1116Q335 1145 335 1171T337 1221H141Z"  />
<glyph unicode="l" horiz-adv-x="485" d="M338 1271Q361 1271 375 1255T388 1218Q386 1197 385 1156T383 1062T382 951V321Q382 261 383 208T385 115T390 58Q395 34 381 17T342 0H142Q120 0 105 16T92 54Q94 77 96 125T99 234T101 361T103 487V652Q103 781 102 872T100 1029T96 1138T92 1218Q91 1240 106 1255T142 1271H338ZM142 1221Q143 1186 145 1141T149 1031T152 873T153 652V570Q153 530 153 481T151 381T148 279T146 184T144 104T142 49H342Q339 70 338 116T335 222T334 349T333 478V841Q333 895 333 953T334 1063T336 1158T338 1221H142Z"  />
<glyph unicode="m" horiz-adv-x="1303" d="M307 919Q319 919 332 911T351 893Q355 885 358 878Q397 911 440 926T534 942Q593 942 642 919T728 854Q745 870 767 886T816 914T876 934T947 942Q1026 942 1077 914T1157 838T1197 732T1208 611V464Q1208 410 1208 355T1211 247T1214 144T1218 52Q1219 31 1205 16T1169 0H972Q951 0 936 16T923 53Q927 103 928 150T930 246V616Q930 650 921 669T888 689Q873 689 860 683T836 669T815 650T797 632V348Q797 294 798 251T800 172T804 107T808 53Q809 32 794 16T758 0H561Q540 0 526 14T511 49Q511 69 512 88T514 129Q516 164 517 213T519 344V584Q519 644 510 666T480 689Q443 689 421 672T387 637V354Q387 278 389 204T393 51Q394 30 380 15T344 0H147Q124 0 110 16T99 55Q105 109 107 171T109 288V375Q109 500 106 622T85 863Q82 886 96 902T134 919H307ZM134 869Q151 758 154 647T158 422V288Q158 231 157 167T147 49H344Q338 202 338 354V651Q344 664 356 679T385 707T426 730T480 739Q503 739 520 732T548 706T563 659T568 584V344Q568 278 567 234T565 156T562 99T561 49H758Q754 101 751 170T748 348V649Q758 659 770 674T800 704T839 729T888 739Q939 739 958 706T978 616V266Q978 212 977 158T972 49H1169Q1164 136 1162 245T1159 464V611Q1159 664 1151 714T1118 805T1053 869T947 894Q902 894 866 881T801 848T753 809T721 775Q693 832 645 863T534 894Q474 894 426 866T330 778H328Q328 796 325 819T307 869H134Z"  />
<glyph unicode="n" horiz-adv-x="881" d="M312 919Q326 919 339 909T358 884Q395 912 436 927T522 942Q659 942 722 852T785 599V474Q785 394 786 311T790 153Q792 117 793 93T797 57Q800 34 786 17T748 0H549Q525 0 511 17T501 58Q502 65 503 87T506 140T507 201T508 258Q508 272 508 282T509 298Q509 303 509 310T508 330Q507 347 507 370V416Q507 437 507 459T506 500V545Q506 618 495 647T458 676Q435 676 422 664Q412 655 405 646T390 629V363Q390 283 392 208T400 53Q402 32 387 16T351 0H156Q136 0 122 14T107 49Q107 76 107 117T109 206Q110 266 111 328T112 444Q112 501 110 566T105 691Q102 752 100 797T92 856Q85 881 99 900T140 919H312ZM140 869Q143 858 145 832T151 771T156 695T159 610T161 524T162 444Q162 395 161 339T159 229T157 127T156 49H351Q344 128 343 205T341 363V644Q351 658 362 673T388 699T420 718T458 726Q510 726 532 685T555 545Q555 526 555 490T556 416Q556 377 557 345T558 298V271Q558 252 557 227T555 173T553 119T551 74T549 49H748Q746 64 745 89T741 152Q739 226 738 311T737 474V599Q737 740 686 817T522 894Q467 894 417 864T331 787L312 869H140Z"  />
<glyph unicode="o" horiz-adv-x="867" d="M520 460Q520 510 515 556T499 637T472 692T432 713Q411 713 395 693T368 637T352 556T346 460Q346 410 351 364T368 283T395 228T432 207Q455 207 471 227T499 283T515 364T520 460ZM816 460Q816 372 791 286T717 130T597 19T432 -23Q340 -23 269 19T149 130T76 285T51 460Q51 549 76 635T149 790T268 900T432 942Q525 942 596 901T716 791T790 636T816 460ZM767 460Q767 540 745 617T680 756T575 855T432 894Q353 894 291 856T187 756T122 618T100 460Q100 381 122 304T186 165T291 65T432 26Q513 26 575 64T680 164T745 303T767 460ZM569 460Q569 401 560 346T534 249T491 182T432 157Q401 157 376 182T333 248T306 345T297 460Q297 520 306 575T332 671T375 737T432 762Q465 762 491 737T534 671T560 575T569 460Z"  />
<glyph unicode="p" horiz-adv-x="871" d="M307 919Q321 919 334 910T352 888Q384 911 424 926T519 942Q587 942 645 912T745 827T810 696T834 530Q834 489 827 443T808 351T776 259T732 173Q706 131 673 96T599 34T512 -8T413 -23Q405 -23 398 -23T384 -21Q385 -86 386 -148T393 -250Q396 -272 382 -288T344 -304H152Q130 -304 116 -289T103 -251Q104 -233 104 -212T105 -164V553Q105 639 99 716T83 863Q79 886 93 902T131 919H307ZM131 869Q142 796 148 718T155 553V-164Q155 -219 152 -255H344Q341 -231 339 -196T337 -122T336 -41T335 39Q349 37 370 32T413 26Q459 26 500 39T576 75T640 130T692 198Q738 272 762 363Q785 452 785 530Q785 609 765 676T710 791T626 867T519 894Q487 894 458 885T405 863T361 835T328 807L307 869H131ZM335 675Q344 687 355 698T379 718T408 733T445 739Q518 739 557 674T597 488Q597 427 585 368T549 262T486 186T392 157Q368 157 356 161T335 176V675ZM384 207H392Q434 207 463 231T511 295T539 385T548 488Q548 584 521 636T445 689Q425 689 410 680T384 657V207Z"  />
<glyph unicode="q" horiz-adv-x="871" d="M777 908Q790 900 796 884T798 852Q783 798 780 760T777 709V149Q777 64 778 4T780 -102T785 -181T791 -251Q793 -273 778 -288T742 -304H546Q528 -304 514 -292T497 -261Q496 -252 496 -244V-227Q496 -210 497 -193L499 -159Q500 -142 500 -125T501 -90V-8Q501 0 500 8Q474 -4 442 -13T375 -23Q297 -23 237 11T135 105T72 243T51 412Q51 523 81 620T163 788T283 901T428 942Q476 942 520 927T602 885Q618 900 632 915T650 934Q660 949 678 951T713 946L777 908ZM688 903Q684 900 675 891T654 869T630 844T606 823Q568 852 524 873T428 894Q363 894 303 856T198 753T127 600T100 412Q100 333 118 263T171 140T257 57T375 26Q405 26 432 34T482 53T521 76T547 95Q547 65 549 37T551 -28V-90Q551 -128 548 -159T545 -225V-240Q545 -247 546 -255H742Q739 -220 737 -186T732 -106T728 0T727 149V709Q727 723 731 766T752 866L688 903ZM549 223Q542 214 530 206T505 192T476 181T448 177Q361 177 324 250T287 463Q287 553 303 611T344 703T396 749T446 762Q472 762 499 753T546 721Q547 697 548 668T549 607V223ZM500 607Q500 632 500 654T498 697V699Q474 713 446 713Q431 713 412 703T376 664T348 588T336 463Q336 349 362 288T448 227Q477 227 500 244V607Z"  />
<glyph unicode="r" horiz-adv-x="655" d="M315 919Q328 919 342 909T361 887Q364 881 365 876T369 863Q384 877 400 889T428 909Q490 949 549 949Q562 949 580 947T611 940Q624 935 634 921T644 894V727Q644 703 628 689T586 678Q573 681 561 682T534 684Q455 684 424 606T393 361Q393 313 393 276T395 209T398 156T401 112Q402 96 402 82T404 51Q405 30 390 15T354 0H152Q130 0 116 15T103 52Q104 64 104 74T106 95Q107 116 108 143T111 210T113 308T114 448V483Q114 577 109 671T75 855Q71 868 73 879T81 899T98 913T123 919H315ZM123 869Q152 777 157 680T163 487V448Q163 342 162 275T159 165Q158 124 155 99T152 49H354Q353 77 351 104T348 165T345 247T343 361Q343 457 353 527T385 642T443 710T534 732Q549 732 565 731T596 727V894Q586 897 573 898T549 899Q503 899 454 868Q405 837 334 754Q334 761 333 775T330 806T324 839T315 869H123Z"  />
<glyph unicode="s" horiz-adv-x="713" d="M56 300Q56 323 71 337T105 351Q125 351 141 334Q155 318 178 297T232 255T295 221T358 207Q388 207 405 220T422 254Q422 267 413 278T387 300T348 322T303 344Q262 365 220 387T144 440T89 513T68 616Q68 674 94 732T173 837T305 913T489 942H501Q510 942 518 941H530Q565 939 585 932Q598 927 608 914T619 888L631 715Q632 700 627 688T611 670T588 663T561 668Q518 689 479 696T400 703Q365 703 351 689Q339 679 339 672Q339 658 369 642T439 608Q481 588 526 565T608 507T670 424T694 307Q694 244 668 184T592 78T474 5T318 -23Q258 -23 210 -10T114 21L90 31Q76 36 66 49T56 77V300ZM105 77Q156 58 206 42T318 26Q392 26 452 50T556 113T622 202T646 307Q646 371 620 415T554 489T468 540T383 581T317 621T290 672Q290 685 297 699T317 725T351 744T400 752Q444 752 488 744T582 712L570 886Q564 888 554 889T529 891Q515 893 505 893T489 894Q395 894 326 869T210 804T140 715T117 616Q117 559 143 520T208 452T293 404T379 362T445 315T471 254Q471 210 442 184T358 157Q320 157 282 173T210 211T149 257T105 300V77Z"  />
<glyph unicode="t" horiz-adv-x="589" d="M567 741Q567 721 554 707T518 692H427Q425 665 425 626T424 533V303Q424 255 432 236T456 216Q462 216 479 217T509 222Q533 228 551 214T570 175V60Q570 49 562 35T543 16Q495 -7 457 -15T389 -23Q269 -23 206 54Q148 125 148 231V293Q148 311 148 332T147 376Q146 401 146 432V661Q146 678 144 692H88Q67 692 53 706T38 741V869Q38 890 52 904T88 919H145Q146 929 146 940V965Q146 1001 146 1040T141 1120Q139 1143 154 1158T191 1174H379Q401 1174 414 1160T428 1125V1102Q428 1091 427 1079Q426 1060 425 1032T424 961L426 940Q427 933 428 932L429 931V929Q429 927 428 919H518Q540 919 553 905T567 869V741ZM518 869H378Q382 895 379 921T375 961V1022Q375 1062 377 1082T379 1125H191Q193 1105 194 1085T195 1043V869H88V741H191Q193 724 194 686T195 597V491Q195 434 196 384T197 293V231Q197 144 244 85Q291 26 389 26Q413 26 446 33T522 60V175Q508 171 486 169T456 166Q418 166 397 197T375 303V533Q375 619 376 668T379 741H518V869Z"  />
<glyph unicode="u" horiz-adv-x="882" d="M580 0Q565 0 551 10T533 35Q496 7 455 -8T370 -23Q301 -23 251 0T170 67T123 174T108 320V443Q108 526 107 609T102 765Q101 801 100 824T95 860Q90 884 104 901T143 919H343Q368 919 382 900T390 856Q389 851 388 834T387 794T386 743T385 691T384 648V589Q384 571 384 550T385 505V460Q385 439 386 421Q386 406 386 395T387 375Q387 302 397 273T435 243Q458 243 471 255Q480 264 487 273T502 290V556Q502 634 500 710T492 866Q490 887 504 903T541 919H737Q757 919 771 905T785 869Q785 842 785 802T783 714Q783 687 783 655T782 592T782 530T781 474Q781 420 782 355T786 230T792 125T800 61Q807 37 793 19T753 0H580ZM753 49Q748 68 745 116T739 225T734 352T732 474Q732 524 733 580T735 690T736 791T737 869H541Q547 792 549 714T551 556V273Q542 260 530 246T504 220T473 202T435 194Q382 194 360 235T337 375Q337 394 336 429T335 505Q335 542 335 574T334 621V649Q334 669 334 694T336 748T338 801T340 844T343 869H143Q151 838 152 767Q154 694 155 610T157 443V320Q157 180 208 103T370 26Q425 26 476 55T563 132L580 49H753Z"  />
<glyph unicode="v" horiz-adv-x="777" d="M275 919Q291 919 305 907T323 879Q336 813 348 756T372 649T397 554T422 467Q424 482 428 497T436 528Q447 572 456 616T475 708Q483 753 489 794T498 874Q500 893 515 906T548 919H721Q745 919 760 902T770 860Q748 756 722 657T666 458T600 253T526 34Q520 20 507 10T479 0H331Q319 0 305 9T285 30Q199 234 136 440T22 858Q17 882 31 900T71 919H275ZM71 869Q122 659 185 454T331 49H479Q518 162 553 265T618 468T675 666T721 869H548Q540 793 523 699Q505 604 484 517Q474 473 465 436T447 366Q429 301 428 291H424Q406 351 388 411T352 539T314 687T275 869H71Z"  />
<glyph unicode="w" horiz-adv-x="1113" d="M644 919Q661 919 675 907T693 878Q708 792 726 707T767 536Q787 626 802 713T817 869Q817 890 831 904T866 919H1038Q1062 919 1076 902T1086 861Q1071 770 1057 696T1028 559T998 436T964 316T924 187T873 34Q868 20 854 10T826 0H685Q671 0 657 10T639 33Q631 56 620 88T598 158T575 237T552 320Q546 298 540 276T529 233V234Q519 197 510 164T492 103T478 57T469 31Q463 19 450 10T423 0H290Q276 0 262 10T244 35Q210 143 185 225T141 373T108 491T82 588T62 678T41 773Q36 794 32 814T22 859Q17 883 32 901T71 919H268Q286 919 300 907T317 877Q328 806 335 754T348 663T361 596T377 542Q389 594 401 648T422 748T438 827T445 869Q445 890 459 904T494 919H644ZM494 869Q494 858 487 818T468 724T443 608T417 491T394 392T378 332H375Q370 348 362 381T345 458T325 555T304 661T285 769T268 869H71Q85 803 96 751T118 649T144 544T178 420T225 261T290 49H423Q426 58 435 87T456 157T482 247T509 347T533 445T551 533H554Q561 489 577 423T612 287T650 153T685 49H826Q853 134 876 202T917 332T951 451T981 573T1009 708T1038 869H866Q866 813 856 744T832 603T801 462T773 336H770Q732 470 700 602T644 869H494Z"  />
<glyph unicode="x" horiz-adv-x="767" d="M699 919Q714 919 725 913T742 896T748 872T741 846Q713 798 684 750T623 651Q597 611 573 567T530 482Q541 461 560 427T602 352T651 269T700 188T742 120T770 77Q780 64 780 48Q780 29 766 15T729 0H518Q503 0 490 10T471 35Q469 39 464 50T448 79Q438 99 427 120T404 165Q395 181 387 196T372 227Q347 183 322 138T267 28Q262 17 248 9T223 0H37Q14 0 0 14T-14 48Q-14 64 -3 77Q3 86 18 112T52 172V171Q70 201 89 235T129 303Q172 373 199 419T230 475Q211 510 183 556T124 653T62 753T4 843Q-5 856 -5 872Q-5 891 8 905T45 919H257Q268 919 281 911T300 891Q323 847 345 806T386 729Q403 761 422 799T463 889Q469 901 482 910T509 919H699ZM509 869Q469 780 438 721T386 622Q361 668 328 732T257 869H45Q74 825 109 770T179 659T241 556T285 476Q282 469 265 439T224 368T172 278T117 184T69 103T37 49H223Q245 94 263 130T300 199T335 262T372 325Q383 311 404 271T447 187Q459 164 470 143T491 104T508 71T518 49H729L699 99Q678 134 652 177T596 268T542 359T499 434T477 481Q520 582 582 677Q614 727 643 774T699 869H509Z"  />
<glyph unicode="y" horiz-adv-x="777" d="M272 919Q289 919 303 907T321 879Q325 858 331 830T347 764Q366 691 388 612L427 476Q440 525 451 579T472 686T489 787T501 874Q503 893 517 906T550 919H721Q745 919 760 901T770 859Q747 754 719 644T657 423T585 204T507 -4Q471 -86 430 -142T343 -235T247 -287T143 -304Q127 -304 106 -303T58 -293Q43 -289 32 -275T21 -246V-82Q21 -66 27 -55T44 -38T68 -32T94 -39Q113 -51 131 -55T164 -59Q183 -59 198 -52T228 -29T257 12T289 74Q275 113 260 151T229 230Q200 304 171 382T114 539T62 699T19 859Q14 883 28 901T68 919H272ZM68 869Q92 767 124 667T192 467T267 270T342 72Q318 23 299 -11T261 -67T219 -99T164 -109Q144 -109 120 -103T70 -82V-246Q92 -251 110 -253T143 -255Q190 -255 233 -242T316 -197T392 -113T461 16Q550 224 611 436T721 869H550Q545 814 533 740T504 588T469 439T430 322Q409 370 386 444T340 599Q329 638 319 677T300 752T284 817T272 869H68Z"  />
<glyph unicode="z" horiz-adv-x="710" d="M29 183Q45 211 69 252T124 342T185 441T244 539T296 627T332 692Q277 691 222 689T110 679Q88 676 72 690T55 729V869Q55 890 69 904T105 919H638Q659 919 673 905T688 869V761L381 231H417Q430 231 443 231T469 232Q496 233 522 233T572 235Q597 236 615 236H642Q662 236 676 222T691 187V49Q691 29 677 15T642 0H77Q57 0 43 14T29 49V183ZM77 49H642V187H615Q597 187 574 186T523 185T469 183Q441 183 415 183T365 182T323 181T294 180L638 775V869H105V729Q172 738 237 739T370 741H414Q402 715 377 671T319 572T252 458T184 344T123 243T77 170V49Z"  />
<glyph unicode="{" horiz-adv-x="689" d="M86 671Q86 691 100 705T135 720Q151 720 166 729T194 755T213 794T220 846V1341Q220 1401 241 1448T296 1526T369 1573T447 1589H566Q586 1589 600 1575T615 1539V1444Q615 1424 601 1410T566 1395H484Q466 1395 460 1370T454 1317V821Q454 748 427 700T364 622Q381 608 397 589T426 545T446 487T454 413V-80Q454 -108 460 -133T484 -159H566Q586 -159 600 -173T615 -208V-303Q615 -323 601 -337T566 -352H447Q409 -352 369 -336T296 -289T242 -211T220 -104V388Q220 456 191 489Q164 522 135 523Q114 524 100 538T86 571V671ZM135 571Q188 569 229 520Q270 471 270 388V-104Q270 -154 286 -191T329 -253T386 -290T447 -303H566V-208H484Q460 -208 445 -197T421 -168T409 -127T405 -80V413Q405 472 388 509T348 570T301 604T264 619V623Q277 624 300 636T347 671T388 732T405 821V1317Q405 1340 408 1362T420 1403T444 1432T484 1444H566V1539H447Q418 1539 387 1527T329 1489T287 1427T270 1341V846Q270 807 259 775T228 719T185 684T135 671V571Z"  />
<glyph unicode="|" horiz-adv-x="617" d="M439 1568Q439 1563 435 1553T430 1533V-325Q422 -354 391 -354H211Q174 -354 174 -334Q174 -331 180 -319T187 -298V1550Q187 1587 236 1587H414Q439 1587 439 1568ZM379 -300V1533H236V-300H379Z"  />
<glyph unicode="}" horiz-adv-x="689" d="M603 571Q603 552 589 538T554 523Q525 522 498 489Q469 456 469 388V-104Q469 -164 448 -211T393 -289T320 -336T242 -352H123Q103 -352 89 -338T74 -303V-208Q74 -188 88 -174T123 -159H205Q223 -159 229 -134T235 -80V413Q235 455 242 487T263 544T292 589T325 622Q290 652 263 700T235 821V1317Q235 1345 229 1370T205 1395H123Q103 1395 89 1409T74 1444V1539Q74 1560 88 1574T123 1589H242Q280 1589 320 1573T393 1526T447 1448T469 1341V846Q469 817 476 795T495 755T522 729T554 720Q575 720 589 706T603 671V571ZM554 671Q529 671 505 683T461 719T431 774T419 846V1341Q419 1390 403 1427T360 1489T303 1526T242 1539H123V1444H205Q229 1444 244 1433T268 1403T280 1363T284 1317V821Q284 770 301 733T341 672T388 636T425 623V619Q411 615 388 605T342 571T301 510T284 413V-80Q284 -104 281 -126T269 -167T245 -197T205 -208H123V-303H242Q271 -303 302 -291T360 -253T402 -191T419 -104V388Q419 471 460 520Q501 569 554 571V671Z"  />
<glyph unicode="~" horiz-adv-x="1105" d="M973 507Q979 498 979 482T972 456Q952 424 929 395T876 343T811 307T726 293Q671 293 627 309T534 354Q498 373 459 388T370 404Q353 404 339 396T314 376T294 347T278 315Q271 300 259 292T232 284Q220 284 209 290T190 311L130 412Q126 421 126 436T130 460Q146 492 168 522T219 575T288 612T378 626Q429 626 478 610T581 569Q588 566 616 554T676 528T727 515Q755 516 777 542T824 600L826 602Q829 605 831 609Q838 622 849 628T872 635Q899 635 916 608L973 507ZM873 584Q858 563 843 542T810 504T773 477T727 465Q711 465 692 471T651 485T607 505T561 526Q513 547 467 562T378 578Q337 578 305 566T248 534T206 489T173 437L232 335Q242 356 254 377T284 415T322 442T370 453Q427 453 472 436T559 396Q600 372 640 357T726 342Q764 342 794 354T849 385T893 430T931 483L873 584Z"  />
<glyph unicode="&#xA0;" horiz-adv-x="342" />
<glyph unicode="&#xA1;" horiz-adv-x="577" d="M465 776Q465 709 418 661Q370 614 302 614Q268 614 239 626T188 661T153 713T140 776Q140 811 152 841T187 893T239 927T302 940Q337 940 366 928T418 893T453 841T465 776ZM351 588Q371 588 385 575T400 540Q402 431 408 337T422 165T438 24T454 -82Q459 -117 462 -140T465 -176Q465 -217 453 -250T419 -306T367 -342T302 -354Q268 -354 239 -342T188 -307T153 -250T140 -176Q140 -164 143 -141T152 -83Q159 -40 169 21T188 160T204 333T213 540Q214 561 228 574T262 588H351ZM262 538Q259 387 247 264T222 49T199 -100T189 -176Q189 -236 221 -270T302 -304Q351 -304 384 -270T417 -176Q417 -157 408 -100T387 48T365 263T351 538H262ZM417 776Q417 825 384 857T302 890Q254 890 222 858Q189 825 189 776Q189 753 198 732T222 697T258 673T302 664Q326 664 347 673T383 696T408 732T417 776Z"  />
<glyph unicode="&#xA2;" horiz-adv-x="972" d="M659 233Q686 244 709 267Q723 281 743 281Q767 281 783 261L844 179Q853 167 853 149T842 119Q815 87 768 54T659 -1V-82Q659 -103 645 -117T611 -131H526Q505 -131 491 -117T477 -82V-16Q399 -4 338 36T233 137T167 270T144 422Q144 495 168 568T237 707T343 826T477 912V972Q477 992 491 1006T526 1021H611Q631 1021 645 1007T659 972V942Q689 942 706 941T740 931Q750 925 760 912T770 886V682Q770 658 755 645T721 631Q699 631 683 650Q677 656 672 661T659 671V233ZM611 739Q639 736 669 722T721 682V886Q709 890 695 892T655 894H632Q626 894 621 894T611 891V972H526V878Q450 852 389 805T285 697T217 565T193 422Q193 348 216 278T282 154T386 65T526 29V-82H611V37Q642 43 671 56T726 84T772 117T805 149L743 231Q717 206 682 190T611 171V739ZM526 192Q500 205 475 226T431 279T400 357T388 465Q388 530 400 576T431 655T475 705T526 732V192ZM477 633Q459 607 448 567T437 465Q437 408 448 369T477 301V633Z"  />
<glyph unicode="&#xA3;" horiz-adv-x="957" d="M66 666Q66 687 80 701T114 715H176Q170 738 164 761T155 807T148 849T145 881Q145 968 187 1033T295 1142T438 1208T589 1231Q629 1231 680 1226T780 1212Q797 1208 809 1195T821 1164V977Q821 949 799 935T750 933Q684 965 627 982T525 999Q489 999 465 983T440 931Q440 895 453 844T482 743Q484 735 484 732T486 728T488 725T491 715H731Q753 715 766 701T780 666V561Q780 541 767 527T731 512H535V505Q535 417 485 335Q476 319 473 312T465 300T455 286T436 257H498Q545 257 584 257T662 259T745 263T845 269Q851 270 858 270T872 271Q895 273 910 259T926 222V49Q926 29 912 15T877 0H157Q137 0 123 14T108 49V152Q127 172 153 202T204 269T245 347T262 431Q262 477 248 512H114Q94 512 80 526T66 561V666ZM114 561H281Q294 533 303 501T312 431Q312 383 295 338T254 254T203 184T157 132V49H877V222Q818 218 773 216T689 212T611 209T531 208H342Q372 250 397 288T443 360Q485 429 485 505Q485 527 482 541T476 561H731V666H453Q445 694 435 729T415 799T398 869T391 931Q391 962 401 984T429 1021T471 1042T525 1048Q573 1048 637 1030T772 977V1164Q726 1172 676 1177T589 1182Q526 1182 456 1163T328 1106T233 1012T195 881Q195 863 199 836T211 778T227 718T248 666H114V561Z"  />
<glyph unicode="&#xA4;" horiz-adv-x="955" d="M45 265Q29 281 29 301Q29 320 43 335L123 419Q100 461 89 507T78 605Q78 657 90 705T126 798Q105 818 86 838T45 879Q30 893 30 914Q30 935 45 950L136 1041Q151 1056 171 1056Q189 1056 206 1042L289 959Q332 982 379 994T478 1006Q532 1006 577 995T668 959L749 1041Q764 1056 783 1056Q801 1056 818 1042L911 951Q926 935 926 915Q926 895 912 880L830 797Q879 710 879 605Q879 554 866 506T832 417L872 375Q893 356 913 335Q926 321 926 301Q926 280 911 264L818 172Q803 159 783 159Q763 159 749 174L670 254Q583 206 478 206Q427 206 379 218T285 255Q264 234 246 215T207 174Q192 159 171 159Q149 159 136 174L45 265ZM171 208L278 319Q367 254 478 254Q586 254 676 317L784 208L878 300L770 410Q830 494 830 605Q830 712 767 803L878 915L784 1006L675 898Q587 957 478 957Q424 957 374 941T282 898L171 1006L79 915L189 806Q159 763 143 713T127 605Q127 495 185 410L79 300L171 208ZM264 605Q264 650 281 689T327 756T395 802T478 819Q523 819 562 802T629 757T675 689T692 605Q692 561 675 522T630 455T562 409T478 392Q434 392 395 409T327 454T281 522T264 605ZM314 605Q314 571 327 542T362 490T414 455T478 442Q512 442 542 454T594 489T630 541T643 605Q643 640 630 670T595 723T542 758T478 771Q444 771 415 758T363 723T327 671T314 605Z"  />
<glyph unicode="&#xA5;" horiz-adv-x="969" d="M308 1213Q323 1213 337 1202T355 1177Q366 1142 381 1101T415 1015T454 925T500 820Q506 834 511 846T523 872Q556 949 589 1024T650 1180Q655 1192 669 1202T696 1213H891Q921 1213 935 1190T935 1141Q927 1127 913 1097T878 1027Q860 992 845 963T814 906T785 848T753 782H851Q871 782 885 768T900 732V626Q900 606 886 592T851 578H650Q646 569 643 563T638 551H851Q871 551 885 537T900 502V397Q900 376 886 362T851 348H628V222Q628 193 629 166T631 112T636 54Q638 32 624 16T586 0H389Q368 0 354 15T340 51Q341 95 341 137T342 222V348H119Q99 348 85 362T70 397V502Q70 523 84 537T119 551H319L306 578H119Q99 578 85 592T70 626V732Q70 754 84 768T119 782H212Q158 896 120 977T36 1141Q22 1167 36 1190T79 1213H308ZM79 1164Q137 1058 187 950T289 732H119V626H338Q352 598 365 570T392 515V502H119V397H392V222Q392 136 389 49H586Q584 79 583 107T580 163T579 220T578 284V397H851V502H578V535Q583 548 593 569T620 626H851V732H673Q701 790 734 857T800 986T857 1096T891 1164H696Q654 1042 602 928T501 695Q480 743 453 803T398 925T347 1050T308 1164H79Z"  />
<glyph unicode="&#xA6;" horiz-adv-x="487" d="M126 1156Q126 1178 140 1192T176 1206H310Q331 1206 345 1192T359 1156V583Q359 563 345 549T310 534H176Q155 534 141 548T126 583V1156ZM126 336Q126 357 140 371T176 386H310Q331 386 345 372T359 336V-239Q359 -259 345 -273T310 -287H176Q155 -287 141 -273T126 -239V336ZM176 -239H310V336H176V-239ZM176 583H310V1156H176V583Z"  />
<glyph unicode="&#xA7;" horiz-adv-x="966" d="M160 0Q160 23 174 36T207 50Q225 50 241 37Q287 -1 345 -29T462 -57Q510 -57 531 -36T553 6Q553 25 539 46T499 88T441 131T373 176Q321 209 269 245T176 323T109 416T83 530Q83 577 96 615T130 683T176 738T226 782Q197 816 181 857T165 946Q165 1007 193 1069T276 1180T409 1260T590 1291Q609 1291 634 1290T687 1287T740 1279T787 1267Q798 1261 807 1248T817 1221V1042Q817 1027 811 1016T795 999T771 992T745 999Q691 1028 639 1047T526 1067Q483 1067 464 1052T444 1014Q444 1002 455 988T487 957T534 924T588 888Q635 859 683 826T770 752T833 664T858 555Q858 473 823 410T727 290Q746 272 765 249T801 197T827 132T837 55Q837 -17 805 -80T716 -191T586 -266T429 -293Q410 -293 379 -291T314 -284T246 -273T190 -255Q178 -250 169 -237T160 -210V0ZM209 -210Q229 -218 259 -224T322 -235T382 -242T429 -244Q502 -244 567 -221T682 -157T760 -62T789 55Q789 104 772 143T732 212T685 261T650 288Q688 317 717 346T767 408T798 477T809 555Q809 615 778 662T701 748T602 821T502 885T426 948T395 1014Q395 1035 403 1053T427 1085T467 1107T526 1116Q594 1116 652 1095T768 1042V1221Q750 1229 728 1232T681 1238T632 1240T590 1241Q500 1241 430 1215T313 1147T240 1052T215 946Q215 895 238 851T302 776Q283 762 254 741T198 689T151 619T131 530Q131 465 166 414T253 320T366 238T480 163T567 89T602 6Q602 -13 594 -33T568 -69T524 -95T462 -106Q395 -106 328 -76T209 0V-210ZM305 595Q305 633 330 666T386 718Q400 708 426 694T482 661T542 621T598 575T639 525T654 474Q654 453 645 432T621 394T594 363T572 346Q499 390 448 426T366 490Q305 547 305 595ZM354 595Q354 583 366 565T399 526Q423 502 466 472T567 405Q581 418 593 437T605 474Q605 498 578 525T513 581Q496 596 473 609T428 635Q418 641 412 644T403 649L396 652Q393 654 388 657Q374 644 364 628T354 595Z"  />
<glyph unicode="&#xA8;" horiz-adv-x="483" d="M-56 1100Q-56 1163 -12 1207Q34 1253 96 1253Q159 1253 204 1207Q229 1182 240 1150Q251 1182 277 1207Q322 1253 385 1253Q448 1253 493 1207Q537 1163 537 1100Q537 1068 526 1041T494 993T445 960T385 948Q322 948 277 992Q251 1018 240 1049Q229 1018 204 992Q159 948 96 948Q34 948 -12 992Q-56 1037 -56 1100ZM-7 1100Q-7 1079 0 1061T22 1028T55 1005T96 996Q118 996 136 1004T169 1027T191 1060T200 1100Q200 1121 192 1140T169 1173T137 1195T96 1204Q74 1204 56 1196T23 1173T1 1140T-7 1100ZM282 1100Q282 1079 290 1061T312 1028T345 1005T385 996Q407 996 425 1004T458 1027T480 1060T488 1100Q488 1121 480 1140T458 1173T426 1195T385 1204Q364 1204 345 1196T312 1173T290 1140T282 1100Z"  />
<glyph unicode="&#xA9;" horiz-adv-x="1418" d="M1031 577Q1056 577 1070 560T1079 517Q1066 448 1035 393T957 300T853 240T730 219Q638 219 565 251T439 340T358 474T330 640Q330 729 357 806T435 938T560 1026T727 1058Q795 1058 854 1039T959 982T1035 890T1078 765Q1083 742 1069 725T1030 708H913Q896 708 882 719T865 747Q856 795 820 821T727 847Q643 847 603 794Q558 739 558 642Q558 599 570 561T605 494T659 448T730 431Q788 431 823 459T864 532Q865 550 880 563T913 577H1031ZM714 149Q810 149 894 186T1042 288T1140 443T1176 638Q1176 741 1141 830T1042 987T895 1090T714 1126Q615 1126 530 1090T381 987T282 831T247 638Q247 532 282 443T380 289T529 186T714 149ZM711 -23Q577 -23 456 25T244 161T98 370T43 636Q43 780 97 901T243 1109T456 1244T711 1293Q843 1293 963 1245T1174 1110Q1219 1066 1255 1013T1319 900T1361 773T1376 636Q1376 491 1322 370T1177 162T965 26T711 -23ZM711 26Q833 26 945 71T1141 197T1276 390T1327 636Q1327 770 1277 881T1142 1073T945 1199T711 1244Q587 1244 475 1199T278 1074T142 882T92 636Q92 502 142 390T277 198T475 72T711 26ZM714 95Q604 95 508 137T342 250T233 422T193 638Q193 754 232 853T342 1023T508 1137T714 1179Q823 1179 917 1137T1080 1024T1189 853T1229 638Q1229 522 1190 422T1081 251T917 137T714 95ZM913 527Q909 495 895 468T856 422T800 393T730 382Q679 382 639 402T570 459T525 542T509 642Q509 752 565 824Q620 897 727 897Q801 897 850 859T913 757H1030Q1020 817 993 864T927 943T836 991T727 1008Q646 1008 581 981T471 904T402 787T378 640Q378 562 403 494T474 376T585 298T730 269Q785 269 835 286T925 337T992 418T1031 527H913Z"  />
<glyph unicode="&#xAA;" horiz-adv-x="581" d="M301 874Q252 858 252 823Q252 812 259 807T277 801Q291 801 301 806V874ZM378 626Q372 626 360 632T342 643Q340 643 340 644Q317 632 291 623T228 614Q178 614 141 631T79 675T42 737T29 807Q29 862 51 902T110 972T189 1019T273 1049Q263 1055 248 1055Q224 1055 202 1046T162 1028Q159 1027 153 1025T144 1021Q119 1012 99 1026T79 1067V1182Q79 1200 91 1213T121 1230Q166 1238 204 1238Q265 1238 321 1227T421 1188T491 1116T517 1002V828Q517 792 523 757T537 687Q544 662 530 644T491 626H378ZM491 675Q481 713 475 751T469 828V1002Q469 1056 447 1091T388 1148T303 1179T204 1188Q165 1188 129 1182V1067Q147 1076 178 1089T248 1103Q294 1103 318 1081T348 1017Q311 1008 264 994T176 957T106 897T77 807Q77 780 86 755T115 709T163 677T228 664Q269 664 299 680T355 713Q359 707 365 697T378 675H491ZM351 782Q323 752 277 752Q248 752 226 770T204 823Q204 867 241 898T351 936V782Z"  />
<glyph unicode="&#xAB;" horiz-adv-x="771" d="M683 31Q683 0 648 0H554Q349 103 349 311Q349 415 406 501Q462 584 552 627H648Q683 627 683 600Q683 592 645 552Q597 502 574 461Q535 393 535 313Q535 236 574 167Q587 144 604 121T645 75Q683 35 683 31ZM430 31Q430 0 395 0H301Q96 103 96 311Q96 415 153 501Q209 584 299 627H395Q430 627 430 600Q430 591 391 552Q343 502 320 461Q282 393 282 313Q282 237 320 167Q333 144 350 121T391 75Q430 36 430 31ZM611 580H550Q397 472 397 313Q397 143 550 47H607Q488 166 488 313Q488 457 611 580ZM358 580H297Q143 472 143 313Q143 143 297 47H354Q235 166 235 313Q235 457 358 580Z"  />
<glyph unicode="&#xAC;" horiz-adv-x="1061" d="M946 218V687H118V553H806V218H946ZM762 174V509H74V731H990V174H762Z"  />
<glyph unicode="&#xAD;" horiz-adv-x="1196" d="M1107 471Q1107 439 1075 439H251Q183 439 135 478Q87 517 87 582V696Q87 729 120 729H947Q1017 729 1063 682Q1107 636 1107 576V471ZM1053 493V571Q1053 594 1045 612T1022 645T990 667T951 675H141V573Q141 544 174 518Q207 493 245 493H1053Z"  />
<glyph unicode="&#xAE;" horiz-adv-x="1418" d="M711 -23Q577 -23 456 25T244 161T98 370T43 636Q43 780 97 901T243 1109T456 1244T711 1293Q843 1293 963 1245T1174 1110Q1219 1066 1255 1013T1319 900T1361 773T1376 636Q1376 491 1322 370T1177 162T965 26T711 -23ZM711 26Q833 26 945 71T1141 197T1276 390T1327 636Q1327 770 1277 881T1142 1073T945 1199T711 1244Q587 1244 475 1199T278 1074T142 882T92 636Q92 502 142 390T277 198T475 72T711 26ZM711 135Q609 135 522 173T369 277T267 436T230 636Q230 743 267 834T369 993T521 1098T711 1136Q812 1136 899 1098T1051 993T1151 835T1188 636Q1188 529 1151 437Q1119 355 1065 294Q1070 272 1056 256T1017 240H1010Q962 199 899 172Q810 135 711 135ZM601 587H713L893 288H990Q994 291 997 295L1006 303L821 595Q900 602 953 646Q1005 688 1005 785Q1005 891 942 938T750 985H487V288H601V587ZM280 636Q280 524 322 433T438 281V990Q365 929 323 838T280 636ZM1139 636Q1139 731 1106 814T1015 959T879 1054T711 1088Q654 1088 602 1074T502 1035H750Q903 1035 979 977T1055 785Q1055 667 985 608Q949 576 900 561Q935 503 970 451T1040 341Q1088 402 1113 476T1139 636ZM601 684V890H739Q765 890 792 887T840 873T875 844T889 793Q889 755 876 733T841 700T790 687T729 684H601ZM651 288Q651 267 637 254T601 240H498Q593 184 711 184Q825 183 922 240H893Q882 240 869 247T850 263L685 537H651V288ZM729 732Q752 732 772 734T807 741T832 759T841 793Q841 809 831 818T807 833T775 840T739 842H651V732H729Z"  />
<glyph unicode="&#xAF;" horiz-adv-x="485" d="M-43 1153Q-43 1173 -29 1187T5 1202H479Q500 1202 514 1188T529 1153V1045Q529 1024 515 1010T479 995H5Q-15 995 -29 1009T-43 1045V1153ZM5 1045H479V1153H5V1045Z"  />
<glyph unicode="&#xB0;" horiz-adv-x="919" d="M677 922Q677 814 601 740Q526 665 420 665Q312 665 236 740Q161 815 161 922Q161 1028 236 1103Q314 1179 420 1179Q526 1179 601 1103Q677 1028 677 922ZM628 922Q628 1010 566 1068Q506 1129 420 1129Q333 1129 271 1068Q211 1009 211 922Q211 836 271 775Q333 714 420 714Q506 714 566 775Q628 836 628 922ZM561 922Q561 863 519 820Q478 779 420 779Q360 779 318 820Q277 863 277 922Q277 982 318 1023Q360 1064 420 1064Q478 1064 519 1023Q561 982 561 922ZM511 922Q511 941 504 957T484 986T456 1006T420 1013Q384 1013 354 986Q326 958 326 922Q326 903 333 886T354 857T384 837T420 829Q439 829 455 836T484 856T503 886T511 922Z"  />
<glyph unicode="&#xB1;" horiz-adv-x="1061" d="M74 -23V199H413V427H74V649H413V930H648V649H990V427H648V199H990V-23H74ZM946 471V605H604V886H457V605H118V471H457V199H604V471H946ZM946 21V155H118V21H946Z"  />
<glyph unicode="&#xB2;" horiz-adv-x="658" d="M47 622Q71 651 96 678T148 732Q176 760 201 786T252 841Q304 899 338 950Q368 992 368 1017Q368 1031 354 1043T315 1055Q290 1055 270 1046T232 1022T202 992T177 964Q169 952 159 947T137 942Q120 942 107 953T90 986L71 1118Q69 1130 76 1145T94 1166Q139 1194 199 1212T325 1231Q394 1231 447 1213T538 1163T593 1091T612 1008Q612 974 600 940T567 874T519 810T462 750Q435 726 407 702T351 654H456Q480 654 498 655T540 659Q562 662 578 648T595 611V502Q595 481 581 467T546 453H95Q75 453 61 467T47 502V622ZM95 502H546V611Q523 607 503 606T456 604H220Q245 629 280 658T353 719T428 786T496 858T544 933T562 1008Q562 1041 547 1072T502 1127T428 1167T325 1182Q267 1182 213 1166T121 1125L139 993Q152 1009 168 1028T207 1064T256 1092T316 1103Q338 1103 357 1096T389 1077T410 1049T418 1017Q418 976 379 921Q341 867 289 809Q264 780 237 752T183 697T134 647T95 604V502Z"  />
<glyph unicode="&#xB3;" horiz-adv-x="659" d="M54 664Q54 687 69 700T102 713Q122 713 138 697Q177 659 211 640T287 620Q319 620 343 637T367 692Q367 707 363 720T347 744T317 759T265 765H215Q194 765 180 779T165 814V902Q165 923 179 937T215 952H223Q228 952 236 951T251 950T262 949Q283 950 302 954T338 967Q353 974 353 1006Q353 1030 337 1042T297 1055Q273 1055 237 1042T157 991Q142 977 123 977Q104 977 90 991T75 1027V1144Q75 1155 83 1169T102 1188Q135 1205 185 1218T297 1231Q349 1231 400 1219T492 1181T557 1114T582 1011Q582 976 568 935T516 862Q533 849 548 833T575 796T594 749T602 689Q602 575 508 506Q423 443 281 443Q233 443 188 450T84 482Q72 488 63 501T54 527V664ZM103 527Q154 506 195 500T281 493Q404 493 479 546Q553 598 553 689Q553 734 536 765T495 816T447 846T408 860V864Q444 871 468 888T507 926T527 969T533 1011Q533 1058 513 1091T460 1144T384 1173T297 1182Q243 1182 199 1171T124 1144V1027Q175 1073 221 1088T297 1103Q341 1103 371 1079T402 1006Q402 942 360 922Q322 902 262 899Q248 899 236 900T215 902V814H265Q312 814 341 805T387 778T410 740T416 692Q416 661 405 639T377 601T336 578T287 570Q233 570 192 594T103 664V527Z"  />
<glyph unicode="&#xB4;" horiz-adv-x="499" d="M502 1277Q526 1277 539 1263T553 1230Q553 1209 537 1194L301 958Q297 954 285 949T267 943H132Q110 943 96 957T82 990Q82 1004 91 1019L238 1254Q244 1262 257 1269T280 1277H502ZM280 1229L132 993H267L502 1229H280Z"  />
<glyph unicode="&#xB5;" horiz-adv-x="1012" d="M818 49V772H652V450Q652 407 648 359T628 270T580 202T490 175Q429 175 398 202T352 270T335 359T333 453V772H163V-265H332V111Q364 71 401 54T490 36Q553 36 595 63T673 143V49H818ZM673 0Q658 0 647 7T630 26Q600 6 566 -4T490 -14Q461 -14 432 -7T381 8V-265Q381 -286 367 -300T332 -314H163Q143 -314 129 -300T114 -265V772Q114 793 128 807T163 821H333Q353 821 367 807T382 772V453Q382 417 383 377T394 302T426 246T490 224Q529 224 552 246T586 301T599 375T602 450V772Q602 793 616 807T652 821H818Q838 821 852 807T867 772V49Q867 29 853 15T818 0H673Z"  />
<glyph unicode="&#xB6;" horiz-adv-x="949" d="M869 1055V-246Q869 -266 855 -280T820 -295H705Q684 -295 670 -281T655 -246V1055H561V-246Q561 -266 547 -280T512 -295H397Q376 -295 362 -281T348 -246V416Q278 425 217 457T109 542T35 666T6 825Q6 907 32 987T117 1131T267 1232T488 1271H904Q924 1271 938 1257T953 1221V1103Q953 1083 939 1069T904 1055H869ZM904 1103V1221H488Q371 1221 289 1187T156 1097T80 970T56 826Q56 739 83 672T156 558T264 487T397 462V-246H512V1103H705V-246H820V1103H904Z"  />
<glyph unicode="&#xB7;" horiz-adv-x="537" d="M269 648Q308 648 342 634T402 594T441 535T456 460Q456 423 442 389T402 329T343 288T269 272Q229 272 196 286T136 325Q82 381 82 460Q82 542 137 594Q192 648 269 648ZM269 599Q213 599 171 559Q130 518 130 460Q130 402 171 361Q210 322 269 322Q299 322 324 333T367 363T396 407T407 460Q407 490 397 515T368 559T324 588T269 599Z"  />
<glyph unicode="&#xB8;" horiz-adv-x="496" d="M43 -197Q57 -169 87 -169Q98 -169 106 -173Q130 -184 156 -191T202 -198Q220 -198 232 -191T244 -176Q244 -171 234 -166T208 -161Q181 -161 171 -167Q162 -172 149 -172Q128 -172 114 -160L86 -135Q77 -127 74 -117T70 -96Q70 -89 71 -82T78 -69L188 78Q193 85 205 92T227 99H306Q330 99 343 85T357 52Q357 38 346 20L329 -3Q357 -10 384 -24T432 -59T465 -109T477 -173Q477 -226 454 -264T394 -326T314 -363T227 -375Q193 -375 165 -371T113 -359T70 -343T37 -328Q23 -321 17 -310T10 -284Q10 -271 14 -263L43 -197ZM58 -283Q84 -296 125 -310T227 -325Q261 -325 297 -316T362 -289T409 -242T428 -173Q428 -141 415 -117T379 -78T329 -55T273 -47Q267 -47 258 -48T236 -53L233 -50L306 49H227L119 -99L147 -124Q174 -112 209 -112Q241 -112 267 -126T293 -176Q293 -209 269 -228T202 -247Q179 -247 148 -239T88 -218L58 -283Z"  />
<glyph unicode="&#xB9;" horiz-adv-x="666" d="M94 1130Q94 1146 105 1160T132 1178L394 1237Q419 1242 437 1228T455 1188V626H524Q545 626 558 612T572 578V502Q572 481 559 467T524 453H153Q132 453 118 467T104 502V578Q104 598 118 612T153 626H228V1018H143Q122 1018 108 1032T94 1067V1130ZM143 1067H277V578H153V502H524V578H405V1188L143 1130V1067Z"  />
<glyph unicode="&#xBA;" horiz-adv-x="597" d="M339 922Q339 949 337 972T329 1014T315 1044T298 1055Q289 1055 282 1044T270 1015T263 973T260 922Q260 897 262 873T270 831T282 802T298 791Q307 791 315 801T328 830T336 873T339 922ZM565 922Q565 866 548 811T496 712T413 641T298 614Q234 614 185 641T101 712T50 811T32 922Q32 978 49 1033T101 1133T184 1204T298 1231Q363 1231 412 1204T496 1133T547 1034T565 922ZM516 922Q516 970 502 1016T460 1099T391 1159T298 1182Q246 1182 206 1159T138 1100T96 1017T82 922Q82 876 96 829T137 746T205 687T298 664Q350 664 390 686T459 745T502 829T516 922ZM388 922Q388 887 382 854T365 796T336 756T298 741Q277 741 261 756T234 796T217 854T211 922Q211 958 217 991T234 1049T261 1088T298 1103Q319 1103 336 1089T364 1050T382 992T388 922Z"  />
<glyph unicode="&#xBB;" horiz-adv-x="767" d="M671 315Q671 212 615 126Q559 42 468 0H372Q337 0 337 27Q337 34 376 75Q424 125 447 166Q485 234 485 313Q485 390 447 460Q434 483 417 506T376 552Q337 591 337 596Q337 627 372 627H466Q671 524 671 315ZM422 315Q422 212 366 126Q310 42 219 0H123Q88 0 88 27Q88 34 126 75Q174 125 197 166Q236 233 236 313Q236 391 197 460Q184 483 167 506T126 552Q88 592 88 596Q88 627 123 627H217Q422 524 422 315ZM624 313Q624 484 470 580H413Q532 461 532 313Q532 170 409 47H470Q624 155 624 313ZM374 313Q374 484 221 580H164Q283 461 283 313Q283 170 160 47H221Q374 155 374 313Z"  />
<glyph unicode="&#xBC;" horiz-adv-x="1388" d="M94 1130Q94 1146 105 1160T132 1178L394 1237Q419 1242 437 1228T455 1188V626H524Q545 626 559 612T573 578V497L1015 1207Q1021 1216 1034 1223T1057 1231H1162Q1184 1231 1198 1218T1212 1185Q1212 1168 1203 1155L487 3Q481 -5 468 -12T445 -20H339Q317 -20 303 -7T289 25Q289 42 298 55L550 460Q540 453 524 453H153Q132 453 118 467T104 502V578Q104 598 118 612T153 626H228V1018H143Q122 1018 108 1032T94 1067V1130ZM1021 74Q1022 89 1022 109T1023 152H787Q765 152 751 166T737 200V307Q807 417 871 528T995 758Q1001 768 1014 776T1040 784H1174Q1203 784 1217 764T1221 719Q1231 712 1237 701T1244 675V607Q1244 573 1243 540Q1242 506 1242 473V383Q1242 372 1243 359V352L1244 351V337H1292Q1312 337 1326 323T1341 288V200Q1341 180 1327 166T1292 152H1244V69Q1244 61 1245 55Q1248 33 1234 17T1197 0H1070Q1048 0 1035 14T1021 49V74ZM1073 200V155Q1073 123 1072 91T1070 49H1197Q1196 55 1196 65V200H1292V288H1196Q1196 325 1194 351T1192 406Q1192 474 1194 540T1196 675L1070 494V288H882Q914 332 954 390T1035 511T1112 632T1174 736H1040Q983 620 919 512T787 294V200H1073ZM339 29H445L1162 1182H1057L339 29ZM143 1067H277V578H153V502H524V578H405V1188L143 1130V1067ZM1021 337V401Q1009 384 998 368T977 337H1021Z"  />
<glyph unicode="&#xBD;" horiz-adv-x="1388" d="M776 170Q800 198 826 225T879 280Q939 335 984 388Q1007 414 1027 439T1064 488T1089 530T1098 565Q1098 579 1084 590T1045 601Q1021 601 1000 592T962 568T931 538T905 508Q887 489 865 489Q848 489 834 500T818 532L809 601L437 3Q431 -5 418 -12T395 -20H290Q268 -20 255 -7T241 25Q241 42 249 55L496 453H153Q132 453 118 467T104 502V578Q104 598 118 612T153 626H228V1018H143Q122 1018 108 1032T94 1067V1130Q94 1146 105 1160T132 1178L394 1237Q419 1242 437 1228T455 1188V626H524Q545 626 559 612T573 578V576L967 1207Q972 1216 985 1223T1008 1231H1113Q1135 1231 1149 1218T1163 1185Q1163 1168 1154 1155L902 750Q937 763 976 770T1056 778Q1125 778 1178 759T1268 708T1322 637T1341 555Q1341 522 1330 488T1298 422T1250 358T1191 298Q1164 270 1137 246T1081 200H1185Q1209 200 1228 202T1270 207Q1292 209 1308 195T1325 157V49Q1325 29 1311 15T1276 0H826Q805 0 791 14T776 49V170ZM826 49H1276V157Q1253 155 1233 154T1185 152H951Q969 170 991 190T1044 234Q1074 259 1102 283T1158 334Q1185 359 1209 386T1252 442T1281 499T1292 555Q1292 587 1277 618T1231 675T1157 714T1056 729Q997 729 943 712Q917 705 895 696T855 675L850 668L868 538Q882 555 898 575T936 612T984 640T1045 651Q1093 651 1120 625T1148 565Q1148 537 1131 504T1085 432T1021 355T950 280T881 210T826 152V49ZM290 29H395L805 686Q807 692 810 698T819 709L1113 1182H1008L290 29ZM143 1067H277V578H153V502H524V578H405V1188L143 1130V1067Z"  />
<glyph unicode="&#xBE;" horiz-adv-x="1385" d="M54 664Q54 687 69 700T102 713Q122 713 138 697Q177 659 211 640T287 620Q319 620 343 637T367 692Q367 707 363 720T347 744T317 759T265 765H215Q195 765 181 779T166 814V902Q166 923 180 937T215 952H224Q228 952 236 951T251 950T263 949Q306 951 338 967Q353 974 353 1006Q353 1030 337 1042T297 1055Q273 1055 237 1042T157 991Q142 977 123 977Q104 977 90 991T75 1027V1144Q75 1155 83 1169T103 1188Q136 1205 186 1218T297 1231Q350 1231 401 1219T493 1181T558 1114T583 1011Q583 976 569 935T517 862Q534 849 549 833T576 796T595 749T603 689Q603 573 508 506Q423 443 281 443Q233 443 188 450T84 482Q73 488 64 501T54 527V664ZM1019 74Q1019 89 1019 109T1020 152H783Q762 152 748 166T734 200V307Q803 417 867 528T992 758Q997 768 1011 776T1037 784H1171Q1200 784 1213 764T1218 719Q1229 712 1235 701T1242 675Q1242 641 1242 607T1240 540Q1239 506 1239 473V383Q1239 372 1240 359V352L1241 351V337H1289Q1310 337 1324 323T1339 288V200Q1339 180 1325 166T1289 152H1242V55Q1244 33 1230 17T1194 0H1066Q1046 0 1032 14T1018 49Q1018 53 1018 59T1019 74ZM997 1207Q1003 1216 1016 1223T1039 1231H1144Q1166 1231 1180 1218T1194 1185Q1194 1168 1185 1155L467 3Q462 -5 449 -12T426 -20H320Q298 -20 284 -7T270 25Q270 42 279 55L997 1207ZM1070 200V155Q1070 123 1068 91T1066 49H1194Q1192 55 1192 65V200H1289V288H1192Q1192 325 1191 351T1189 406Q1189 474 1190 540T1192 675L1066 494V288H879Q909 333 949 391T1031 510T1110 631T1171 736H1037Q979 620 915 512T783 294V200H1070ZM104 527Q155 506 195 500T281 493Q404 493 479 546Q553 598 553 689Q553 734 536 765T495 816T447 846T408 860V864Q444 871 468 888T507 926T527 969T533 1011Q533 1058 513 1091T460 1144T384 1173T297 1182Q243 1182 199 1171T125 1144V1027Q176 1073 221 1088T297 1103Q341 1103 371 1079T402 1006Q402 942 360 922Q322 902 263 899Q248 899 236 900T215 902V814H265Q312 814 341 805T387 778T410 740T416 692Q416 661 405 639T377 601T336 578T287 570Q233 570 191 594T104 664V527ZM320 29H426L1144 1182H1039L320 29ZM1018 337V401Q1006 384 995 368T974 337H1018Z"  />
<glyph unicode="&#xBF;" horiz-adv-x="643" d="M527 776Q527 709 479 661Q431 614 364 614Q330 614 301 626T249 661T214 713T201 776Q201 811 214 841T249 893T300 927T364 940Q431 940 479 893Q527 845 527 776ZM541 -299Q541 -314 530 -327T505 -346Q493 -349 478 -351T447 -356T416 -360T390 -361Q300 -361 231 -329T114 -244T42 -123T17 16Q17 84 35 138T81 233T143 305T210 356L265 390Q267 425 267 462T270 534Q271 553 285 567T320 581H416Q436 581 450 567T464 532V206Q464 195 456 181T439 162Q403 142 372 120T317 74T281 24T267 -33Q267 -71 288 -102T354 -133Q385 -133 412 -118T457 -85Q473 -69 493 -69Q511 -69 526 -82T541 -120V-299ZM491 -120Q467 -144 432 -162T354 -181Q319 -181 294 -169T251 -135T226 -88T218 -33Q218 4 233 37T274 100T337 156T416 206V532H320L313 363L236 315Q208 296 178 270T123 207T82 123T66 16Q66 -47 87 -105T150 -210T252 -285T390 -313Q400 -313 413 -312T441 -309T468 -304T491 -299V-120ZM478 776Q478 824 444 858Q411 890 364 890Q316 890 283 858Q250 825 250 776Q250 753 259 732T283 697T319 673T364 664Q411 664 444 696Q478 730 478 776Z"  />
<glyph unicode="&#xC0;" horiz-adv-x="1052" d="M607 1304Q622 1304 636 1294T656 1269L1032 66Q1041 39 1027 20T985 0H750Q735 0 720 11T702 38Q699 51 689 89T667 172Q660 194 656 209T649 237T643 260T635 283Q618 284 592 285T543 286H456Q436 286 412 285T373 283Q365 259 359 235T349 189Q342 157 335 121T320 41Q317 24 303 12T270 0H68Q40 0 26 19T19 66Q52 171 84 272T151 476Q202 639 255 802T361 1146L331 1238Q322 1265 336 1284T378 1304H607ZM378 1254L414 1146Q371 1000 327 862T240 589T153 321T68 51H270Q278 92 284 128T299 198T315 265T336 334Q387 335 424 335T500 336Q537 336 577 336T670 334Q679 310 691 270T714 184Q721 162 726 141T737 102T745 71T750 51H985L607 1254H378ZM696 1407Q705 1394 705 1377Q705 1357 691 1343T654 1329H513Q508 1329 495 1334T478 1344L236 1586Q220 1602 220 1623Q220 1642 234 1657T271 1673H500Q510 1673 523 1665T543 1648L696 1407ZM508 489Q482 489 455 490T382 493Q384 498 388 513T400 553Q414 604 433 666T474 800T498 882T505 901H508Q511 893 514 883T536 813T581 667T629 493Q586 491 559 490T508 489ZM500 1622H271L513 1379H654L500 1622ZM508 540Q544 540 565 541Q550 596 536 645T508 739L495 694Q489 672 481 651Q476 635 472 619T463 588V589Q459 577 457 566T449 544Q448 543 448 541Q466 540 479 540H508Z"  />
<glyph unicode="&#xC1;" horiz-adv-x="1052" d="M607 1304Q622 1304 636 1294T656 1269L1032 66Q1041 39 1027 20T985 0H750Q735 0 720 11T702 38Q699 51 689 89T667 172Q660 194 656 209T649 237T643 260T635 283Q618 284 592 285T543 286H456Q436 286 412 285T373 283Q365 259 359 235T349 189Q342 157 335 121T320 41Q317 24 303 12T270 0H68Q40 0 26 19T19 66Q52 171 84 272T151 476Q202 639 255 802T361 1146L331 1238Q322 1265 336 1284T378 1304H607ZM378 1254L414 1146Q371 1000 327 862T240 589T153 321T68 51H270Q278 92 284 128T299 198T315 265T336 334Q387 335 424 335T500 336Q537 336 577 336T670 334Q679 310 691 270T714 184Q721 162 726 141T737 102T745 71T750 51H985L607 1254H378ZM779 1673Q803 1673 817 1658T831 1623Q831 1602 815 1586L572 1344Q568 1339 556 1334T537 1329H400Q376 1329 363 1343T349 1377Q349 1394 357 1407L508 1648Q513 1657 527 1665T550 1673H779ZM508 489Q482 489 455 490T382 493Q384 498 388 513T400 553Q414 604 433 666T474 800T498 882T505 901H508Q511 893 514 883T536 813T581 667T629 493Q586 491 559 490T508 489ZM550 1622L400 1379H537L779 1622H550ZM508 540Q544 540 565 541Q550 596 536 645T508 739L495 694Q489 672 481 651Q476 635 472 619T463 588V589Q459 577 457 566T449 544Q448 543 448 541Q466 540 479 540H508Z"  />
<glyph unicode="&#xC2;" horiz-adv-x="1052" d="M607 1304Q622 1304 636 1294T656 1269L1032 66Q1041 39 1027 20T985 0H750Q735 0 720 11T702 38Q699 51 689 89T667 172Q660 194 656 209T649 237T643 260T635 283Q618 284 592 285T543 286H456Q436 286 412 285T373 283Q365 259 359 235T349 189Q342 157 335 121T320 41Q317 24 303 12T270 0H68Q40 0 26 19T19 66Q52 171 84 272T151 476Q202 639 255 802T361 1146L331 1238Q322 1265 336 1284T378 1304H607ZM378 1254L414 1146Q371 1000 327 862T240 589T153 321T68 51H270Q278 92 284 128T299 198T315 265T336 334Q387 335 424 335T500 336Q537 336 577 336T670 334Q679 310 691 270T714 184Q721 162 726 141T737 102T745 71T750 51H985L607 1254H378ZM249 1329Q226 1329 212 1344T197 1378Q197 1386 199 1394T209 1410L391 1653Q396 1659 410 1666T432 1673H619Q628 1673 641 1666T659 1653L841 1410Q852 1393 852 1377Q852 1358 839 1344T800 1329H644Q636 1329 624 1335T605 1347L525 1448Q503 1421 485 1398T446 1347Q441 1342 428 1336T406 1329H249ZM406 1379L525 1529L644 1379H800L619 1622H432L249 1379H406ZM508 489Q482 489 455 490T382 493Q384 498 388 513T400 553Q414 604 433 666T474 800T498 882T505 901H508Q511 893 514 883T536 813T581 667T629 493Q586 491 559 490T508 489ZM508 540Q544 540 565 541Q550 596 536 645T508 739L495 694Q489 672 481 651Q476 635 472 619T463 588V589Q459 577 457 566T449 544Q448 543 448 541Q466 540 479 540H508Z"  />
<glyph unicode="&#xC3;" horiz-adv-x="1052" d="M607 1304Q622 1304 636 1294T656 1269L1032 66Q1041 39 1027 20T985 0H750Q735 0 720 11T702 38Q699 51 689 89T667 172Q660 194 656 209T649 237T643 260T635 283Q618 284 592 285T543 286H456Q436 286 412 285T373 283Q365 259 359 235T349 189Q342 157 335 121T320 41Q317 24 303 12T270 0H68Q40 0 26 19T19 66Q52 171 84 272T151 476Q202 639 255 802T361 1146L331 1238Q322 1265 336 1284T378 1304H607ZM378 1254L414 1146Q371 1000 327 862T240 589T153 321T68 51H270Q278 92 284 128T299 198T315 265T336 334Q387 335 424 335T500 336Q537 336 577 336T670 334Q679 310 691 270T714 184Q721 162 726 141T737 102T745 71T750 51H985L607 1254H378ZM821 1646Q846 1646 861 1630T872 1589Q866 1544 849 1502T804 1426T736 1371T642 1350Q600 1350 564 1361T492 1388Q465 1399 440 1406T393 1414Q385 1414 379 1405T371 1380Q368 1364 354 1352T321 1340H225Q200 1340 186 1356T175 1397Q182 1446 200 1490T248 1567T318 1619T412 1638Q447 1638 482 1627T555 1602Q584 1590 607 1581T644 1572Q660 1572 666 1585T676 1610Q677 1612 677 1614T679 1619Q685 1629 699 1637T725 1646H821ZM725 1596Q722 1586 718 1573T707 1549T684 1530T644 1522Q624 1522 596 1531T537 1556Q505 1568 473 1577T412 1587Q371 1587 338 1572T282 1529T245 1467T225 1391H321Q329 1424 346 1444T393 1465Q421 1465 451 1456T511 1434Q543 1421 575 1411T642 1401Q684 1401 715 1418T768 1462T804 1525T821 1596H725ZM508 489Q482 489 455 490T382 493Q384 498 388 513T400 553Q414 604 433 666T474 800T498 882T505 901H508Q511 893 514 883T536 813T581 667T629 493Q586 491 559 490T508 489ZM508 540Q544 540 565 541Q550 596 536 645T508 739L495 694Q489 672 481 651Q476 635 472 619T463 588V589Q459 577 457 566T449 544Q448 543 448 541Q466 540 479 540H508Z"  />
<glyph unicode="&#xC4;" horiz-adv-x="1052" d="M607 1304Q622 1304 636 1294T656 1269L1032 66Q1041 39 1027 20T985 0H750Q735 0 720 11T702 38Q699 51 689 89T667 172Q660 194 656 209T649 237T643 260T635 283Q618 284 592 285T543 286H456Q436 286 412 285T373 283Q365 259 359 235T349 189Q342 157 335 121T320 41Q317 24 303 12T270 0H68Q40 0 26 19T19 66Q52 171 84 272T151 476Q202 639 255 802T361 1146L331 1238Q322 1265 336 1284T378 1304H607ZM378 1254L414 1146Q371 1000 327 862T240 589T153 321T68 51H270Q278 92 284 128T299 198T315 265T336 334Q387 335 424 335T500 336Q537 336 577 336T670 334Q679 310 691 270T714 184Q721 162 726 141T737 102T745 71T750 51H985L607 1254H378ZM220 1490Q220 1555 266 1601Q313 1646 376 1646Q440 1646 487 1601Q511 1574 525 1542Q535 1574 562 1601Q608 1646 673 1646Q737 1646 783 1601Q830 1554 830 1490Q830 1426 783 1379Q737 1332 673 1332Q608 1332 562 1379Q548 1392 539 1406T525 1437Q510 1402 487 1379Q440 1332 376 1332Q313 1332 266 1379Q220 1425 220 1490ZM508 489Q482 489 455 490T382 493Q384 498 388 513T400 553Q414 604 433 666T474 800T498 882T505 901H508Q511 893 514 883T536 813T581 667T629 493Q586 491 559 490T508 489ZM567 1490Q567 1468 575 1449T597 1415T631 1392T673 1383Q695 1383 714 1391T748 1415T770 1449T779 1490Q779 1535 749 1565T673 1596Q651 1596 632 1588T598 1565T575 1532T567 1490ZM270 1490Q270 1468 278 1449T301 1415T335 1392T376 1383Q399 1383 418 1391T451 1415T473 1449T482 1490Q482 1535 452 1565T376 1596Q332 1596 301 1566T270 1490ZM508 540Q544 540 565 541Q550 596 536 645T508 739L495 694Q489 672 481 651Q476 635 472 619T463 588V589Q459 577 457 566T449 544Q448 543 448 541Q466 540 479 540H508Z"  />
<glyph unicode="&#xC5;" horiz-adv-x="1052" d="M607 1304Q622 1304 636 1294T656 1269L1032 66Q1041 39 1027 20T985 0H750Q735 0 720 11T702 38Q699 51 689 89T667 172Q660 194 656 209T649 237T643 260T635 283Q618 284 592 285T543 286H456Q436 286 412 285T373 283Q365 259 359 235T349 189Q342 157 335 121T320 41Q317 24 303 12T270 0H68Q40 0 26 19T19 66Q52 171 84 272T151 476Q202 639 255 802T361 1146L331 1238Q322 1265 336 1284T378 1304H482Q410 1315 360 1366Q297 1433 297 1530Q297 1627 360 1693Q427 1760 525 1760Q620 1760 687 1693Q754 1626 754 1530Q754 1433 687 1366Q636 1315 566 1304H607ZM378 1254L414 1146Q371 1000 327 862T240 589T153 321T68 51H270Q278 92 284 128T299 198T315 265T336 334Q387 335 424 335T500 336Q537 336 577 336T670 334Q679 310 691 270T714 184Q721 162 726 141T737 102T745 71T750 51H985L607 1254H378ZM347 1530Q347 1454 397 1402Q448 1350 525 1350Q600 1350 651 1402Q703 1454 703 1530Q703 1606 651 1657Q600 1709 525 1709Q448 1709 397 1657Q347 1606 347 1530ZM508 489Q482 489 455 490T382 493Q384 498 388 513T400 553Q414 604 433 666T474 800T498 882T505 901H508Q511 893 514 883T536 813T581 667T629 493Q586 491 559 490T508 489ZM437 1530Q437 1568 462 1593T525 1618Q562 1618 587 1593T613 1530Q613 1494 588 1469T525 1443Q488 1443 463 1468T437 1530ZM508 540Q544 540 565 541Q550 596 536 645T508 739L495 694Q489 672 481 651Q476 635 472 619T463 588V589Q459 577 457 566T449 544Q448 543 448 541Q466 540 479 540H508ZM488 1530Q488 1515 498 1505T525 1494Q541 1494 552 1504T563 1530Q563 1547 552 1557T525 1568Q509 1568 499 1558T488 1530Z"  />
<glyph unicode="&#xC6;" horiz-adv-x="1442" d="M397 286Q358 195 336 136T297 33Q291 20 277 10T249 0H14Q-10 0 -23 14T-37 48Q-37 65 -29 77Q-11 107 20 162T91 290T175 447T263 618Q305 701 344 780T417 928T475 1051T513 1137Q509 1164 505 1191T495 1244Q491 1269 505 1286T545 1304H1340Q1361 1304 1375 1290T1390 1254V1074Q1390 1049 1373 1035T1331 1024Q1245 1038 1161 1043T986 1049Q972 1049 962 1049T940 1047Q938 1047 935 1047T927 1046V848Q927 840 927 838T926 832T926 822T929 797Q995 799 1060 802T1191 808Q1213 809 1227 794T1242 757V575Q1242 553 1228 539T1191 525L925 533Q923 507 923 480V363Q923 342 923 331T922 307Q922 298 922 287T925 258Q948 259 968 259T1010 260Q1099 262 1183 264T1357 275Q1379 276 1395 261T1411 224V51Q1411 30 1396 15T1360 0H671Q650 0 635 16T620 53Q624 126 626 182T628 286H397ZM678 336Q678 314 678 280T677 206T675 127T671 51H1360V224Q1238 214 1119 212T878 206Q874 246 873 285T872 363Q872 413 873 472T878 585L1192 575V757L881 746Q878 814 878 848V1000Q878 1026 879 1051T881 1095Q900 1095 913 1096T939 1097T962 1098T986 1099Q1076 1099 1163 1094T1340 1074V1254H545L566 1133Q555 1103 531 1048T472 922T395 767T308 596Q265 510 221 425T136 268T65 139T14 51H249Q267 99 293 165T364 336H678ZM434 489L679 988L682 983Q681 977 680 927T677 754Q677 700 677 638T678 489H434ZM628 540V775Q626 774 626 773V774Q582 679 569 655L544 604Q531 578 513 540H628Z"  />
<glyph unicode="&#xC7;" horiz-adv-x="947" d="M905 1004Q905 979 891 966T856 952Q835 952 818 969Q801 986 780 1003T734 1035T682 1058T624 1067Q555 1067 509 1028T434 927T394 790T382 643Q382 545 401 470T454 343T533 265T632 238Q658 238 683 245T730 265T768 290T794 317Q810 336 833 336Q853 336 869 320L946 246Q957 234 959 215T952 181Q937 159 906 127T831 64T732 9T614 -22Q655 -43 683 -81T711 -177Q711 -231 688 -270T628 -335T545 -372T455 -385Q388 -385 338 -368T259 -335Q241 -326 235 -307T236 -270L266 -202Q275 -184 293 -177T331 -177Q355 -188 382 -196T428 -205Q447 -205 459 -199T472 -184Q472 -174 460 -169T434 -164Q424 -164 414 -165T395 -172Q384 -177 367 -175T339 -164L311 -139Q293 -124 293 -101Q293 -85 303 -71L375 24Q308 55 250 106T147 229T77 391T51 588Q51 653 61 718T90 848T139 970T207 1080V1079Q246 1132 294 1176T400 1251T524 1300T666 1318Q736 1318 788 1308T874 1283Q886 1277 895 1263T905 1236V1004ZM854 1236Q825 1249 778 1258T666 1268Q576 1268 499 1241T358 1164T247 1050T166 909T118 751T102 588Q102 477 130 387T208 228T321 114T455 49L344 -101L373 -126Q394 -114 431 -114Q447 -114 463 -117T493 -129T515 -149T523 -180Q523 -215 497 -234T428 -254Q405 -254 373 -245T312 -224L282 -290Q306 -304 350 -319T455 -335Q491 -335 527 -326T593 -297T641 -247T660 -177Q660 -145 647 -122T613 -82T564 -57T510 -48Q503 -48 492 -48T466 -54L463 -52L523 35Q553 26 580 26Q641 26 695 47T792 97T865 157T911 210L834 285Q821 269 801 252T754 221T697 198T632 188Q568 188 514 217T419 305T355 448T332 643Q332 723 346 806T394 959T485 1073T624 1118Q659 1118 692 1108T755 1081T810 1044T854 1004V1236Z"  />
<glyph unicode="&#xC8;" horiz-adv-x="955" d="M858 1304Q879 1304 893 1290T908 1254V1074Q908 1049 891 1035T850 1024Q763 1038 679 1043T503 1049Q490 1049 481 1049T458 1047Q453 1046 452 1046H446V848Q446 840 446 838T445 832T445 822T447 797Q514 799 576 802T706 808Q727 809 742 794T758 757V575Q758 553 743 539T706 525L443 533Q441 489 441 446T440 363Q440 342 440 331T439 307Q439 298 439 287T442 258Q464 259 485 259T528 260Q615 262 699 264T874 275Q897 276 913 261T929 224V51Q929 30 915 15T879 0H181Q160 0 145 15T130 51V105Q130 141 131 188T134 286Q135 335 135 380T136 459V510Q136 552 136 593T137 677V832Q137 938 136 1041T125 1250Q123 1272 138 1288T176 1304H858ZM176 1254Q183 1154 185 1056T188 858Q188 771 187 684T185 510V459Q185 425 185 379T183 284T182 187T181 105V51H879V224Q757 214 637 212T395 206Q391 246 391 285T390 363Q390 413 390 472T395 585L707 575V757L399 746Q395 814 395 848V1000Q395 1026 395 1051T399 1095Q435 1096 456 1097T503 1099Q594 1099 680 1094T858 1074V1254H176ZM653 1407Q661 1394 661 1377Q661 1357 648 1343T611 1329H471Q465 1329 453 1334T435 1344L195 1586Q179 1602 179 1623Q179 1642 193 1657T230 1673H457Q466 1673 480 1665T499 1648L653 1407ZM457 1622H230L471 1379H611L457 1622Z"  />
<glyph unicode="&#xC9;" horiz-adv-x="955" d="M858 1304Q879 1304 893 1290T908 1254V1074Q908 1049 891 1035T850 1024Q763 1038 679 1043T503 1049Q490 1049 481 1049T458 1047Q453 1046 452 1046H446V848Q446 840 446 838T445 832T445 822T447 797Q514 799 576 802T706 808Q727 809 742 794T758 757V575Q758 553 743 539T706 525L443 533Q441 489 441 446T440 363Q440 342 440 331T439 307Q439 298 439 287T442 258Q464 259 485 259T528 260Q615 262 699 264T874 275Q897 276 913 261T929 224V51Q929 30 915 15T879 0H181Q160 0 145 15T130 51V105Q130 141 131 188T134 286Q135 335 135 380T136 459V510Q136 552 136 593T137 677V832Q137 938 136 1041T125 1250Q123 1272 138 1288T176 1304H858ZM176 1254Q183 1154 185 1056T188 858Q188 771 187 684T185 510V459Q185 425 185 379T183 284T182 187T181 105V51H879V224Q757 214 637 212T395 206Q391 246 391 285T390 363Q390 413 390 472T395 585L707 575V757L399 746Q395 814 395 848V1000Q395 1026 395 1051T399 1095Q435 1096 456 1097T503 1099Q594 1099 680 1094T858 1074V1254H176ZM737 1673Q761 1673 775 1658T789 1623Q789 1602 773 1586L529 1344Q525 1339 512 1334T494 1329H356Q333 1329 319 1343T305 1377Q305 1394 314 1407L465 1648Q471 1657 484 1665T508 1673H737ZM508 1622L356 1379H494L737 1622H508Z"  />
<glyph unicode="&#xCA;" horiz-adv-x="955" d="M858 1304Q879 1304 893 1290T908 1254V1074Q908 1049 891 1035T850 1024Q763 1038 679 1043T503 1049Q490 1049 481 1049T458 1047Q453 1046 452 1046H446V848Q446 840 446 838T445 832T445 822T447 797Q514 799 576 802T706 808Q727 809 742 794T758 757V575Q758 553 743 539T706 525L443 533Q441 489 441 446T440 363Q440 342 440 331T439 307Q439 298 439 287T442 258Q464 259 485 259T528 260Q615 262 699 264T874 275Q897 276 913 261T929 224V51Q929 30 915 15T879 0H181Q160 0 145 15T130 51V105Q130 141 131 188T134 286Q135 335 135 380T136 459V510Q136 552 136 593T137 677V832Q137 938 136 1041T125 1250Q123 1272 138 1288T176 1304H858ZM176 1254Q183 1154 185 1056T188 858Q188 771 187 684T185 510V459Q185 425 185 379T183 284T182 187T181 105V51H879V224Q757 214 637 212T395 206Q391 246 391 285T390 363Q390 413 390 472T395 585L707 575V757L399 746Q395 814 395 848V1000Q395 1026 395 1051T399 1095Q435 1096 456 1097T503 1099Q594 1099 680 1094T858 1074V1254H176ZM208 1329Q184 1329 170 1344T156 1378Q156 1386 158 1394T167 1410L349 1653Q354 1659 368 1666T390 1673H578Q586 1673 599 1666T618 1651L797 1409Q809 1392 809 1376Q809 1357 795 1343T757 1329H602Q594 1329 581 1335T563 1347L482 1448Q462 1423 443 1399T405 1348Q400 1342 387 1336T365 1329H208ZM365 1379L482 1529L602 1379H757L578 1622H390L208 1379H365Z"  />
<glyph unicode="&#xCB;" horiz-adv-x="955" d="M858 1304Q879 1304 893 1290T908 1254V1074Q908 1049 891 1035T850 1024Q763 1038 679 1043T503 1049Q490 1049 481 1049T458 1047Q453 1046 453 1046H446V848Q446 840 446 838T445 832T445 822T447 797Q514 799 576 802T706 808Q727 809 742 794T758 757V575Q758 553 743 539T706 525L443 533Q441 489 441 446T440 363Q440 342 440 331T439 307Q439 298 439 287T442 258Q464 259 485 259T528 260Q615 262 699 264T874 275Q897 276 913 261T929 224V51Q929 30 915 15T879 0H181Q160 0 145 15T130 51V105Q130 141 131 188T134 286Q135 335 135 380T136 459V510Q136 552 136 593T137 677V832Q137 938 136 1041T125 1250Q123 1272 138 1288T176 1304H858ZM176 1254Q183 1154 185 1056T188 858Q188 771 187 684T185 510V459Q185 425 185 379T183 284T182 187T181 105V51H879V224Q757 214 637 212T395 206Q391 246 391 285T390 363Q390 413 390 472T395 585L707 575V757L399 746Q395 814 395 848V1000Q395 1026 395 1051T399 1095Q435 1096 456 1097T503 1099Q594 1099 680 1094T858 1074V1254H176ZM177 1490Q177 1554 224 1601Q270 1646 334 1646Q397 1646 444 1601Q471 1573 482 1540Q497 1588 537 1617T631 1646Q694 1646 741 1601Q788 1554 788 1490Q788 1426 741 1379Q694 1332 631 1332Q567 1332 520 1379Q493 1406 482 1439Q471 1406 444 1379Q397 1332 334 1332Q270 1332 224 1379Q177 1426 177 1490ZM227 1490Q227 1447 259 1415Q290 1383 334 1383Q356 1383 375 1391T408 1415T431 1449T440 1490Q440 1535 409 1565T334 1596Q312 1596 293 1588T259 1565T236 1532T227 1490ZM525 1490Q525 1468 533 1449T555 1415T588 1392T631 1383Q653 1383 672 1391T705 1415T728 1449T737 1490Q737 1535 706 1565T631 1596Q608 1596 589 1588T555 1565T533 1532T525 1490Z"  />
<glyph unicode="&#xCC;" horiz-adv-x="543" d="M385 1304Q408 1304 422 1288T435 1249Q432 1227 431 1198T429 1131Q428 1092 428 1052T426 967Q425 924 425 884T423 803V603Q423 540 423 463T425 310T429 167T437 55Q439 32 424 16T387 0H151Q128 0 114 16T101 54Q104 108 106 187T109 360Q109 383 109 405T110 449V495Q110 518 111 540Q111 546 111 553T112 566Q113 600 113 628V720Q113 741 112 768Q112 777 112 786T111 803Q110 841 110 885T108 967Q107 1011 107 1051T105 1131Q104 1158 104 1183T103 1227Q103 1234 103 1241T102 1254Q102 1275 116 1289T152 1304H385ZM152 1254Q153 1233 154 1202T156 1132Q157 1093 157 1052T159 968Q160 925 160 885T162 805Q163 765 163 735V681Q162 642 162 590T162 480T161 361T159 242T156 135T151 51H387Q383 85 381 134T377 241T374 360T373 481T373 591T372 681V805Q373 844 373 884T375 968Q376 1011 376 1052T378 1132Q381 1212 385 1254H152ZM437 1408Q445 1395 445 1378Q445 1358 432 1344T394 1329H254Q249 1329 237 1334T219 1344L-22 1586Q-38 1602 -38 1623Q-38 1642 -25 1657T14 1673H240Q249 1673 263 1665T283 1648L437 1408ZM240 1622H14L254 1379H394L240 1622Z"  />
<glyph unicode="&#xCD;" horiz-adv-x="543" d="M393 1304Q417 1304 431 1288T444 1249Q439 1205 438 1131Q437 1092 437 1052T435 967Q434 924 433 884T431 803V603Q431 540 431 463T434 310T438 167T445 55Q447 32 433 16T395 0H160Q138 0 123 16T109 54Q113 108 115 187T118 360Q118 383 118 405T119 449V495Q119 518 120 540Q120 546 120 553T121 566Q122 600 122 628V720Q122 741 121 768Q121 777 121 786T120 803Q119 841 119 885T117 967Q117 1011 117 1051T114 1131Q113 1158 113 1183T111 1227Q111 1234 111 1241T110 1254Q110 1275 125 1289T161 1304H393ZM161 1254Q162 1213 164 1132Q165 1093 165 1052T167 968Q169 925 169 885T171 805Q172 765 172 735T173 681Q172 642 172 590T171 480T170 361T167 242T164 135T160 51H395Q391 85 389 134T386 241T384 360T383 480V590Q383 642 382 681V805Q383 844 383 884T384 968Q385 1011 385 1052T387 1132Q389 1212 393 1254H161ZM529 1673Q552 1673 566 1658T580 1623Q580 1602 564 1586L323 1344Q318 1339 306 1334T287 1329H148Q125 1329 112 1343T98 1377Q98 1394 106 1407L258 1648Q263 1657 276 1665T300 1673H529ZM300 1622L148 1379H287L529 1622H300Z"  />
<glyph unicode="&#xCE;" horiz-adv-x="533" d="M384 1304Q407 1304 421 1288T434 1249Q431 1227 430 1198T428 1131Q427 1092 427 1052T425 967Q424 924 424 884T422 803V603Q422 540 422 463T424 310T428 167T436 55Q438 32 424 16T386 0H149Q127 0 113 16T100 54Q103 108 105 187T108 360Q108 383 108 405T109 449V495Q109 518 110 540Q110 546 110 553T111 566Q112 600 112 628V720Q112 741 111 768Q111 777 111 786T110 803Q109 841 109 885T107 967Q106 1011 106 1051T104 1131Q104 1158 104 1183T102 1227Q102 1234 102 1241T101 1254Q101 1275 115 1289T151 1304H384ZM151 1254Q152 1233 153 1202T155 1132Q156 1093 156 1052T158 968Q159 925 159 885T161 805Q162 765 162 735T163 681Q162 642 162 590T161 480T160 361T158 242T155 135T149 51H386Q382 90 379 147T375 271T373 406T372 537V805Q372 844 372 884T374 968Q375 1011 375 1052T377 1132Q379 1212 384 1254H151ZM-10 1329Q-34 1329 -47 1343T-61 1377Q-61 1393 -50 1410L132 1653Q138 1659 151 1666T173 1673H359Q368 1673 381 1666T401 1651L581 1409Q593 1392 593 1377Q593 1358 579 1344T540 1329H386Q377 1329 364 1335T346 1347L265 1448Q245 1423 226 1399T187 1348Q181 1342 169 1336T147 1329H-10ZM147 1379L265 1529L386 1379H540L359 1622H173L-10 1379H147Z"  />
<glyph unicode="&#xCF;" horiz-adv-x="532" d="M384 1304Q407 1304 421 1288T434 1249Q431 1227 430 1198T428 1131Q427 1092 427 1052T425 967Q424 924 424 884T422 803V603Q422 540 422 463T424 310T428 167T436 55Q438 32 424 16T386 0H149Q127 0 113 16T100 54Q103 108 105 187T108 360Q108 383 108 405T109 449V495Q109 518 110 540Q110 546 110 553T111 566Q112 600 112 628V720Q112 741 111 768Q111 777 111 786T110 803Q109 841 109 885T107 967Q106 1011 106 1051T104 1131Q104 1158 104 1183T102 1227Q102 1234 102 1241T101 1254Q101 1275 115 1289T151 1304H384ZM151 1254Q152 1233 153 1202T155 1132Q156 1093 156 1052T158 968Q159 925 159 885T161 805Q162 765 162 735T163 681Q162 642 162 590T161 480T160 361T158 242T155 135T149 51H386Q382 90 379 147T375 271T373 406T372 537V805Q372 844 372 884T374 968Q375 1011 375 1052T377 1132Q379 1212 384 1254H151ZM-40 1490Q-40 1554 6 1601Q53 1646 118 1646Q180 1646 227 1601Q251 1574 265 1542Q276 1574 302 1601Q349 1646 413 1646Q446 1646 474 1634T524 1601T557 1551T569 1490Q569 1425 524 1379Q477 1332 413 1332Q349 1332 302 1379Q288 1392 279 1406T265 1437Q250 1402 227 1379Q180 1332 118 1332Q53 1332 6 1379Q-40 1426 -40 1490ZM11 1490Q11 1447 42 1415Q74 1383 118 1383Q160 1383 192 1415Q224 1447 224 1490Q224 1534 192 1565Q160 1596 118 1596Q95 1596 76 1588T43 1565T20 1532T11 1490ZM307 1490Q307 1468 315 1449T338 1415T372 1392T413 1383Q436 1383 455 1391T488 1415T510 1449T519 1490Q519 1513 511 1532T488 1565T455 1587T413 1596Q369 1596 338 1566T307 1490Z"  />
<glyph unicode="&#xD0;" horiz-adv-x="1075" d="M22 755Q22 776 36 791T72 806H106Q105 1025 100 1253Q99 1274 114 1289T151 1304H472Q619 1301 722 1251T891 1113T985 909T1015 653Q1015 513 986 393T890 186T719 50T460 0H149Q128 0 114 15T99 52Q102 177 103 296T106 540Q96 538 87 538H72Q51 538 37 552T22 588V755ZM72 588Q87 588 112 590T157 593Q157 455 156 322T149 51H460Q599 51 695 96T851 222T938 413T965 653Q965 779 938 887T852 1076T699 1203T472 1254H151Q157 1003 157 754Q146 755 136 755H72V588ZM589 755Q532 754 495 753T432 750Q373 748 367 748Q366 774 366 798V847Q366 912 367 974T372 1102Q386 1102 397 1104T427 1106Q505 1106 564 1086T663 1015T723 878T743 659Q743 520 723 431T664 290T567 219T434 199Q409 199 395 200T370 202Q370 304 369 400T367 597L424 596Q439 596 454 596T488 595T530 592T587 588L589 755ZM637 588Q637 566 622 552T585 538Q554 541 532 541T492 543Q469 544 453 544T418 545V473Q418 438 419 401Q420 363 420 325T421 249H434Q497 249 546 267T627 331T676 456T693 659Q693 776 676 852T625 974T542 1037T427 1055H421Q419 1004 418 953T416 851V799Q441 800 481 801T588 806Q609 807 624 791T639 754L637 588Z"  />
<glyph unicode="&#xD1;" horiz-adv-x="1088" d="M394 1304Q406 1304 420 1296T439 1278Q477 1207 513 1134T581 988Q605 934 632 874T687 756Q685 810 684 863T681 970Q678 1038 677 1111T673 1252Q672 1273 687 1288T724 1304H917Q938 1304 953 1289T967 1253Q966 1211 965 1135T963 961T961 754T960 535V390Q960 322 961 255Q962 195 963 141T966 52Q967 31 952 16T916 0H764Q752 0 738 9T718 31Q712 45 708 55T698 75T687 98T672 129Q665 145 656 165T633 213Q576 332 518 450T403 690Q405 529 407 372T417 52Q418 31 403 16T367 0H169Q147 0 132 15T118 52Q120 122 120 197T122 359Q123 445 123 526T124 688V819Q124 873 123 931T121 1047T118 1157T113 1251Q112 1273 127 1288T164 1304H394ZM164 1254Q166 1213 168 1160T172 1049T173 932T174 819V527Q174 445 173 359Q172 273 172 197T169 51H367Q357 276 355 495T352 914H355Q378 856 402 810L678 234Q699 190 712 163T733 118T749 85T764 51H916Q914 88 913 139T911 254Q909 320 909 389V535Q909 644 910 754T912 962T914 1136T917 1254H724Q730 1063 734 876T748 499L743 497Q739 513 734 528T719 564T698 614T665 688Q630 758 598 828T534 968T468 1110T394 1254H164ZM840 1646Q864 1646 878 1630T889 1589Q883 1544 866 1502T821 1426T753 1371T659 1350Q618 1350 583 1361T511 1386Q483 1398 459 1406T411 1414Q396 1414 389 1381Q386 1364 372 1352T339 1340H244Q220 1340 206 1356T193 1395Q198 1444 216 1488T264 1565T336 1618T430 1638Q463 1638 500 1627T575 1602Q602 1590 626 1581T662 1572Q678 1572 684 1583T693 1604Q693 1605 695 1613Q696 1615 696 1616T697 1619Q703 1629 717 1637T743 1646H840ZM743 1596Q740 1586 736 1573T725 1549T703 1530T662 1522Q643 1522 616 1531T555 1556Q524 1568 491 1577T430 1587Q389 1587 356 1572T300 1529T263 1467T244 1391H339Q346 1424 364 1444T411 1465Q441 1465 470 1456T530 1434Q562 1421 593 1411T659 1401Q701 1401 732 1418T786 1462T821 1525T840 1596H743Z"  />
<glyph unicode="&#xD2;" horiz-adv-x="1107" d="M725 1408Q734 1395 734 1378Q734 1358 720 1344T683 1329H543Q537 1329 525 1334T507 1344L265 1586Q249 1602 249 1623Q249 1642 263 1657T300 1673H528Q537 1673 551 1665T570 1648L725 1408ZM553 1079Q476 1079 432 972T388 652Q388 440 432 333T553 226Q631 226 674 333T718 652Q718 864 675 971T553 1079ZM553 1328Q658 1328 747 1280T902 1142T1005 928T1042 652Q1042 500 1005 376T903 163T748 26T553 -23Q448 -23 359 25T205 163T103 376T66 652Q66 803 103 928T205 1142T359 1279T553 1328ZM553 1277Q459 1277 379 1232T241 1105T150 908T117 652Q117 512 149 397T240 200T379 72T553 26Q647 26 727 71T866 199T958 397T992 652Q992 792 959 907T867 1105T728 1232T553 1277ZM553 1129Q655 1129 711 1009T768 652Q768 416 712 296T553 175Q452 175 395 295T338 652Q338 888 395 1008T553 1129ZM528 1622H300L543 1379H683L528 1622Z"  />
<glyph unicode="&#xD3;" horiz-adv-x="1107" d="M808 1673Q832 1673 846 1658T860 1623Q860 1602 844 1586L601 1344Q596 1339 584 1334T565 1329H428Q405 1329 391 1343T377 1377Q377 1394 386 1407L536 1648Q542 1657 555 1665T580 1673H808ZM553 1079Q476 1079 432 972T388 652Q388 440 432 333T553 226Q631 226 674 333T718 652Q718 864 675 971T553 1079ZM553 1328Q658 1328 747 1280T902 1142T1005 928T1042 652Q1042 500 1005 376T903 163T748 26T553 -23Q448 -23 359 25T205 163T103 376T66 652Q66 803 103 928T205 1142T359 1279T553 1328ZM553 1277Q459 1277 379 1232T241 1105T150 908T117 652Q117 512 149 397T240 200T379 72T553 26Q647 26 727 71T866 199T958 397T992 652Q992 792 959 907T867 1105T728 1232T553 1277ZM553 1129Q655 1129 711 1009T768 652Q768 416 712 296T553 175Q452 175 395 295T338 652Q338 888 395 1008T553 1129ZM580 1622L428 1379H565L808 1622H580Z"  />
<glyph unicode="&#xD4;" horiz-adv-x="1107" d="M279 1329Q254 1329 240 1344T226 1378Q226 1393 237 1410L420 1653Q425 1659 439 1666T461 1673H648Q656 1673 669 1666T688 1653L869 1410Q881 1393 881 1377Q881 1358 867 1344T829 1329H673Q665 1329 652 1335T634 1347L553 1447Q534 1421 515 1398T476 1348Q471 1342 458 1336T437 1329H279ZM553 1079Q476 1079 432 972T388 652Q388 440 432 333T553 226Q631 226 674 333T718 652Q718 864 675 971T553 1079ZM553 1328Q658 1328 747 1280T902 1142T1005 928T1042 652Q1042 500 1005 376T903 163T748 26T553 -23Q448 -23 359 25T205 163T103 376T66 652Q66 803 103 928T205 1142T359 1279T553 1328ZM553 1277Q459 1277 379 1232T241 1105T150 908T117 652Q117 512 149 397T240 200T379 72T553 26Q647 26 727 71T866 199T958 397T992 652Q992 792 959 907T867 1105T728 1232T553 1277ZM553 1129Q655 1129 711 1009T768 652Q768 416 712 296T553 175Q452 175 395 295T338 652Q338 888 395 1008T553 1129ZM437 1379L553 1529L673 1379H829L648 1622H461L279 1379H437Z"  />
<glyph unicode="&#xD5;" horiz-adv-x="1107" d="M851 1646Q876 1646 890 1629T901 1588Q895 1544 878 1502T832 1426T763 1371T670 1350Q629 1350 593 1361T520 1386Q494 1398 469 1406T421 1414Q406 1414 400 1378Q395 1363 381 1352T350 1340H253Q230 1340 215 1356T204 1396Q210 1445 228 1489T275 1565T346 1618T441 1638Q476 1638 511 1627T584 1602Q613 1590 635 1581T673 1572Q691 1572 697 1586T706 1609Q710 1624 724 1635T755 1646H851ZM553 1079Q476 1079 432 972T388 652Q388 440 432 333T553 226Q631 226 674 333T718 652Q718 864 675 971T553 1079ZM553 1328Q658 1328 747 1280T902 1142T1005 928T1042 652Q1042 500 1005 376T903 163T748 26T553 -23Q448 -23 359 25T205 163T103 376T66 652Q66 803 103 928T205 1142T359 1279T553 1328ZM553 1277Q459 1277 379 1232T241 1105T150 908T117 652Q117 512 149 397T240 200T379 72T553 26Q647 26 727 71T866 199T958 397T992 652Q992 792 959 907T867 1105T728 1232T553 1277ZM553 1129Q655 1129 711 1009T768 652Q768 416 712 296T553 175Q452 175 395 295T338 652Q338 888 395 1008T553 1129ZM755 1596Q750 1586 747 1573T735 1549T713 1530T673 1522Q654 1522 626 1531T565 1556Q534 1568 502 1577T441 1587Q400 1587 368 1572T312 1529T274 1467T253 1391H350Q357 1424 374 1444T421 1465Q450 1465 480 1456T540 1434Q572 1421 604 1411T670 1401Q711 1401 742 1418T796 1462T832 1525T851 1596H755Z"  />
<glyph unicode="&#xD6;" horiz-adv-x="1107" d="M553 1328Q658 1328 747 1280T902 1142T1005 928T1042 652Q1042 500 1005 376T903 163T748 26T553 -23Q448 -23 359 25T205 163T103 376T66 652Q66 803 103 928T205 1142T359 1279T553 1328ZM553 1277Q459 1277 379 1232T241 1105T150 908T117 652Q117 512 149 397T240 200T379 72T553 26Q647 26 727 71T866 199T958 397T992 652Q992 792 959 907T867 1105T728 1232T553 1277ZM553 1129Q655 1129 711 1009T768 652Q768 416 712 296T553 175Q452 175 395 295T338 652Q338 888 395 1008T553 1129ZM553 1079Q476 1079 432 972T388 652Q388 440 432 333T553 226Q631 226 674 333T718 652Q718 864 675 971T553 1079ZM249 1490Q249 1555 295 1601Q341 1646 405 1646Q459 1646 498 1617T553 1539Q568 1587 608 1616T701 1646Q766 1646 813 1601Q859 1555 859 1490Q859 1425 813 1379Q766 1332 701 1332Q638 1332 591 1379Q578 1392 569 1407T553 1438Q542 1404 516 1379Q470 1332 405 1332Q341 1332 295 1379Q249 1425 249 1490ZM596 1490Q596 1468 604 1449T626 1415T659 1392T701 1383Q723 1383 742 1391T776 1415T799 1449T808 1490Q808 1513 800 1532T777 1565T743 1587T701 1596Q656 1596 626 1566T596 1490ZM299 1490Q299 1468 307 1449T330 1415T363 1392T405 1383Q427 1383 446 1391T479 1415T502 1449T511 1490Q511 1513 503 1532T480 1565T446 1587T405 1596Q360 1596 330 1566T299 1490Z"  />
<glyph unicode="&#xD7;" horiz-adv-x="1103" d="M947 157L649 453L947 751L846 850L550 553L254 850L153 751L451 453L153 157L254 56L550 352L846 56L947 157ZM846 -6L550 290Q515 254 477 216T400 140T324 64T254 -6L90 157L388 453L90 751L254 913L550 616L846 913L1010 751L712 453Q747 418 785 380T863 303T939 228T1010 157L846 -6Z"  />
<glyph unicode="&#xD8;" horiz-adv-x="1110" d="M220 -51Q209 -69 190 -73T152 -67L72 -19Q54 -7 50 13T56 51L167 228Q120 312 95 421T69 652Q69 803 106 928T208 1142T362 1279T556 1328Q626 1328 686 1307T801 1248Q818 1273 834 1298T865 1348Q877 1366 897 1371T935 1364L1008 1320Q1026 1308 1031 1289T1024 1251L933 1102Q987 1017 1016 902T1045 652Q1045 500 1008 376T906 163T751 26T556 -23Q408 -23 295 68L220 -51ZM445 315Q488 226 556 226Q634 226 677 333T721 652Q721 703 718 754L445 315ZM654 1012Q634 1048 610 1063T556 1079Q479 1079 435 972T391 652Q391 619 392 588L654 1012ZM358 439Q340 526 340 652Q340 888 397 1008T556 1129Q655 1129 711 1009L358 439ZM749 901Q772 796 772 652Q772 416 715 296T556 175Q444 175 389 319L749 901ZM285 148Q339 88 408 57T556 26Q651 26 731 71T870 199T961 397T994 652Q994 791 963 905T872 1101L980 1277L907 1322L814 1171Q760 1222 696 1249T556 1277Q462 1277 382 1232T244 1105T152 908T119 652Q119 524 147 418T227 228L100 23L178 -23L285 148Z"  />
<glyph unicode="&#xD9;" horiz-adv-x="1052" d="M369 1304Q391 1304 405 1289T419 1251Q416 1191 416 1133V1073Q416 1042 414 1011V381Q414 349 420 321T440 271T477 237T535 225Q565 225 589 234T630 272T657 350T667 481V1147Q667 1174 666 1191T664 1221T660 1248Q657 1271 672 1287T711 1304H896Q917 1304 932 1289T947 1252Q946 1229 945 1188T942 1094T941 980T940 854T939 725T938 603Q938 543 938 494T937 414V379Q932 275 905 199T825 73T694 0T510 -23Q408 -23 332 -2T205 74T128 226T102 472V567Q102 616 103 664Q103 711 103 758T104 854Q104 943 104 999T103 1095Q103 1103 103 1110T102 1125Q102 1149 101 1166L99 1200Q98 1212 97 1226T96 1254Q96 1275 111 1289T147 1304H369ZM147 1254Q147 1237 148 1222T150 1193T151 1162T152 1124Q153 1082 154 1021T155 854Q155 758 154 663T152 472Q151 337 173 251T241 115T354 47T510 26Q697 26 787 111T886 381Q886 388 886 407T887 457T887 524T888 603Q888 660 888 725L889 854Q890 919 890 981T892 1096T894 1190T896 1254H711Q713 1239 714 1227T716 1197T717 1150V481Q717 384 704 324T666 231T609 186T535 174Q485 174 453 190T400 235T372 300T364 381V1012Q365 1043 365 1073T366 1133Q366 1195 369 1254H147ZM695 1407Q704 1394 704 1377Q704 1357 690 1343T653 1329H512Q507 1329 494 1334T476 1344L235 1586Q219 1602 219 1623Q219 1642 233 1657T270 1673H499Q509 1673 522 1665T542 1648L695 1407ZM499 1622H270L512 1379H653L499 1622Z"  />
<glyph unicode="&#xDA;" horiz-adv-x="1052" d="M369 1304Q391 1304 405 1289T419 1251Q416 1191 416 1133V1073Q416 1042 414 1011V381Q414 349 420 321T440 271T477 237T535 225Q565 225 589 234T630 272T657 350T667 481V1147Q667 1174 666 1191T664 1221T660 1248Q657 1271 672 1287T711 1304H896Q917 1304 932 1289T947 1252Q946 1229 945 1188T942 1094T941 980T940 854T939 725T938 603Q938 543 938 494T937 414V379Q932 275 905 199T825 73T694 0T510 -23Q408 -23 332 -2T205 74T128 226T102 472V567Q102 616 103 664Q103 711 103 758T104 854Q104 943 104 999T103 1095Q103 1103 103 1110T102 1125Q102 1149 101 1166L99 1200Q98 1212 97 1226T96 1254Q96 1275 111 1289T147 1304H369ZM147 1254Q147 1237 148 1222T150 1193T151 1162T152 1124Q153 1082 154 1021T155 854Q155 758 154 663T152 472Q151 337 173 251T241 115T354 47T510 26Q697 26 787 111T886 381Q886 388 886 407T887 457T887 524T888 603Q888 660 888 725L889 854Q890 919 890 981T892 1096T894 1190T896 1254H711Q713 1239 714 1227T716 1197T717 1150V481Q717 384 704 324T666 231T609 186T535 174Q485 174 453 190T400 235T372 300T364 381V1012Q365 1043 365 1073T366 1133Q366 1195 369 1254H147ZM778 1673Q802 1673 816 1658T830 1623Q830 1602 814 1586L571 1344Q566 1339 554 1334T535 1329H399Q375 1329 362 1343T348 1377Q348 1394 356 1407L506 1648Q511 1657 524 1665T549 1673H778ZM549 1622L399 1379H535L778 1622H549Z"  />
<glyph unicode="&#xDB;" horiz-adv-x="1052" d="M369 1304Q391 1304 405 1289T419 1251Q416 1191 416 1133V1073Q416 1042 414 1011V381Q414 349 420 321T440 271T477 237T535 225Q565 225 589 234T630 272T657 350T667 481V1147Q667 1174 666 1191T664 1221T660 1248Q657 1271 672 1287T711 1304H896Q917 1304 932 1289T947 1252Q946 1229 945 1188T942 1094T941 980T940 854T939 725T938 603Q938 543 938 494T937 414V379Q932 275 905 199T825 73T694 0T510 -23Q408 -23 332 -2T205 74T128 226T102 472V567Q102 616 103 664Q103 711 103 758T104 854Q104 943 104 999T103 1095Q103 1103 103 1110T102 1125Q102 1149 101 1166L99 1200Q98 1212 97 1226T96 1254Q96 1275 111 1289T147 1304H369ZM147 1254Q147 1237 148 1222T150 1193T151 1162T152 1124Q153 1082 154 1021T155 854Q155 758 154 663T152 472Q151 337 173 251T241 115T354 47T510 26Q697 26 787 111T886 381Q886 388 886 407T887 457T887 524T888 603Q888 660 888 725L889 854Q890 919 890 981T892 1096T894 1190T896 1254H711Q713 1239 714 1227T716 1197T717 1150V481Q717 384 704 324T666 231T609 186T535 174Q485 174 453 190T400 235T372 300T364 381V1012Q365 1043 365 1073T366 1133Q366 1195 369 1254H147ZM248 1329Q225 1329 211 1344T196 1378Q196 1386 198 1394T208 1410L390 1653Q395 1659 408 1666T430 1673H618Q626 1673 639 1666T658 1653L840 1410Q851 1393 851 1377Q851 1358 838 1344T799 1329H643Q635 1329 622 1335T604 1347L524 1448Q502 1421 484 1398T445 1347Q440 1342 427 1336T405 1329H248ZM405 1379L524 1529L643 1379H799L618 1622H430L248 1379H405Z"  />
<glyph unicode="&#xDC;" horiz-adv-x="1052" d="M369 1304Q391 1304 405 1289T419 1251Q416 1191 416 1133V1073Q416 1042 414 1011V381Q414 349 420 321T440 271T477 237T535 225Q565 225 589 234T630 272T657 350T667 481V1147Q667 1174 666 1191T664 1221T660 1248Q657 1271 672 1287T711 1304H896Q917 1304 932 1289T947 1252Q946 1229 945 1188T942 1094T941 980T940 854T939 725T938 603Q938 543 938 494T937 414V379Q932 275 905 199T825 73T694 0T510 -23Q408 -23 332 -2T205 74T128 226T102 472V567Q102 616 103 664Q103 711 103 758T104 854Q104 943 104 999T103 1095Q103 1103 103 1110T102 1125Q102 1149 101 1166L99 1200Q98 1212 97 1226T96 1254Q96 1275 111 1289T147 1304H369ZM147 1254Q147 1237 148 1222T150 1193T151 1162T152 1124Q153 1082 154 1021T155 854Q155 758 154 663T152 472Q151 337 173 251T241 115T354 47T510 26Q697 26 787 111T886 381Q886 388 886 407T887 457T887 524T888 603Q888 660 888 725L889 854Q890 919 890 981T892 1096T894 1190T896 1254H711Q713 1239 714 1227T716 1197T717 1150V481Q717 384 704 324T666 231T609 186T535 174Q485 174 453 190T400 235T372 300T364 381V1012Q365 1043 365 1073T366 1133Q366 1195 369 1254H147ZM219 1490Q219 1555 265 1601Q312 1646 375 1646Q439 1646 485 1601Q510 1574 524 1542Q534 1574 561 1601Q607 1646 672 1646Q736 1646 782 1601Q829 1554 829 1490Q829 1426 782 1379Q736 1332 672 1332Q607 1332 561 1379Q547 1392 538 1406T524 1437Q509 1402 485 1379Q439 1332 375 1332Q312 1332 265 1379Q219 1425 219 1490ZM565 1490Q565 1468 573 1449T596 1415T630 1392T672 1383Q694 1383 713 1391T746 1415T769 1449T778 1490Q778 1535 748 1565T672 1596Q650 1596 631 1588T597 1565T574 1532T565 1490ZM269 1490Q269 1468 277 1449T300 1415T334 1392T375 1383Q397 1383 416 1391T450 1415T472 1449T481 1490Q481 1535 451 1565T375 1596Q331 1596 300 1566T269 1490Z"  />
<glyph unicode="&#xDD;" horiz-adv-x="990" d="M307 1304Q322 1304 336 1294T356 1269Q367 1233 383 1191T417 1105T455 1015T495 924Q502 906 514 876Q518 884 522 892T530 909Q549 952 569 998T609 1091T647 1184T678 1271Q684 1284 697 1294T726 1304H938Q970 1304 983 1281T982 1229Q971 1211 946 1163T888 1051T818 914T747 773T687 651T648 567V386Q648 312 649 259T653 159Q654 142 655 123T657 82V69Q657 64 658 55Q660 32 646 16T607 0H394Q373 0 359 15T344 52Q346 116 346 177V542Q316 602 288 664T230 788Q178 900 127 1009T15 1230Q0 1257 14 1280T59 1304H307ZM59 1254Q153 1081 232 905T396 553V302Q396 240 396 177T394 51H607Q605 96 603 132T600 206T599 285T598 386V576Q605 594 621 629T660 710T710 810T765 920Q794 976 821 1030T871 1130T912 1208T938 1254H726Q681 1124 625 1000T515 748Q494 800 466 865T407 998T351 1132T307 1254H59ZM750 1673Q775 1673 788 1658T802 1623Q802 1602 787 1586L544 1344Q540 1339 527 1334T509 1329H369Q346 1329 332 1343T318 1377Q318 1394 326 1407L479 1648Q484 1657 498 1665T522 1673H750ZM522 1622L369 1379H509L750 1622H522Z"  />
<glyph unicode="&#xDE;" horiz-adv-x="951" d="M161 0Q139 0 124 16T111 54Q114 108 117 187T120 360Q120 383 120 405T121 449V495Q121 518 122 540Q122 546 122 553T123 566Q124 600 124 628V720Q124 741 123 768Q123 777 123 786T122 803Q121 841 121 885T119 967Q118 1011 118 1051T116 1131Q114 1158 114 1183T113 1227Q113 1234 113 1241T112 1254Q112 1275 126 1289T162 1304H395Q419 1304 433 1288T445 1249Q443 1225 442 1195T441 1125V1109Q441 1106 441 1103T440 1095V1077H530Q625 1074 706 1051T845 980T936 858T969 677Q969 554 928 474T817 348T655 283T457 265Q452 265 454 264H455Q452 264 438 265Q440 198 442 146T447 53Q449 31 434 16T396 0H161ZM396 51Q394 99 391 169T387 319Q417 317 432 317T457 316Q551 316 635 332T782 388T881 499T918 677Q918 770 889 835T809 941T686 1003T530 1026H388Q390 1102 390 1160T395 1254H162Q163 1233 164 1202T166 1132Q167 1093 168 1052T170 968Q171 925 171 885T173 805Q174 765 174 735V681Q173 642 173 590T173 480T172 361T169 242T166 135T161 51H396ZM700 677Q700 618 680 578T625 514T545 478T447 467Q429 467 417 468T384 470Q383 505 383 534V761Q383 785 384 814T387 877Q419 880 429 881T448 882Q500 882 546 873T626 839T680 776T700 677ZM650 677Q650 722 634 751T591 798T527 823T448 831H443Q440 831 435 830Q434 811 434 794V517H447Q490 517 526 525T590 552T634 602T650 677Z"  />
<glyph unicode="&#xDF;" horiz-adv-x="869" d="M368 0Q354 5 351 12Q337 0 320 0H125Q104 0 90 15T76 52Q79 110 81 177T84 311T85 445T86 570V828Q86 956 113 1045T191 1189T313 1268T473 1293Q528 1293 586 1278T691 1229T768 1142T798 1014Q798 932 772 876T691 780Q760 734 794 651T829 435Q829 357 812 276T753 128T647 19T485 -23Q467 -23 433 -17T368 0ZM384 47Q409 37 440 32T485 26Q568 26 624 64T715 162T764 294T780 435Q780 587 731 667T581 775V778Q666 812 707 866T749 1014Q749 1076 724 1119T659 1191T569 1231T473 1244Q396 1244 334 1222T227 1151T159 1022T135 828V570Q135 513 135 446T133 311T130 176T125 49H320Q320 64 319 96T318 171Q318 211 317 258T315 347Q315 388 314 422T313 474V846Q317 997 346 1059Q375 1123 452 1123Q493 1123 530 1092Q566 1062 566 993Q566 965 558 935T531 880T482 840T407 824Q400 824 393 824T376 826V697Q438 695 478 678T544 623T579 528T589 385Q589 325 578 284T549 216T511 177T473 164Q449 164 423 176T384 205V47ZM366 251Q397 263 422 235Q428 227 443 220T473 213Q483 213 495 222T517 252T533 305T540 385Q540 456 533 505T506 586T455 632T374 649Q371 649 363 651V474Q363 466 363 458T364 438Q365 420 365 394V347Q365 325 365 305T366 261V251ZM390 1038Q366 988 365 874Q368 876 372 876H381Q389 874 396 874T407 873Q437 873 458 884T492 913T510 952T516 993Q516 1040 498 1055Q476 1074 452 1074Q407 1074 390 1038Z"  />
<glyph unicode="&#xE0;" horiz-adv-x="841" d="M537 0Q523 13 515 22T501 37Q492 31 481 24L460 12Q403 -23 322 -23Q253 -23 201 3T113 70T61 163T43 267Q43 320 56 363T94 442T149 506T217 558Q253 579 289 596T364 625Q382 631 392 634T410 640L426 646Q435 649 449 653Q425 709 353 709Q329 709 306 703T262 689T226 672T198 656Q184 648 171 648T148 654T131 672T124 699V894Q124 912 136 926T167 942Q193 946 226 947T285 949Q372 949 454 933T601 875T703 765T742 591V300Q742 238 750 180T775 61Q781 37 767 19T727 0H537ZM727 49Q711 112 702 173T693 300V591Q693 683 659 742T568 836T438 885T285 899Q261 899 230 898T173 894V699Q185 706 204 716T246 735T296 751T353 759Q426 759 462 723T508 619Q480 611 448 601T379 579Q306 554 244 515Q212 496 185 471T137 416T104 349T92 267Q92 224 107 181T150 103T222 48T322 26Q355 26 382 33T434 53T479 80T522 113Q525 96 534 79T555 49H727ZM584 1020Q594 1005 594 991Q594 972 580 958T543 943H406Q400 943 388 948T371 958L136 1194Q120 1209 120 1231Q120 1249 133 1263T171 1277H392Q402 1277 415 1270T434 1254L584 1020ZM512 229Q494 205 465 190T400 175Q376 175 355 182T318 204T293 241T283 293Q283 366 343 416T512 481V229ZM392 1229H171L406 993H543L392 1229ZM462 421Q399 404 366 371T332 293Q332 259 352 242T400 224Q438 224 462 246V421Z"  />
<glyph unicode="&#xE1;" horiz-adv-x="841" d="M537 0Q523 13 515 22T501 37Q492 31 481 24L460 12Q403 -23 322 -23Q253 -23 201 3T113 70T61 163T43 267Q43 320 56 363T94 442T149 506T217 558Q253 579 289 596T364 625Q382 631 392 634T410 640L426 646Q435 649 449 653Q425 709 353 709Q329 709 306 703T262 689T226 672T198 656Q184 648 171 648T148 654T131 672T124 699V894Q124 912 136 926T167 942Q189 944 217 946T270 949Q259 954 252 964T244 989Q244 1004 253 1019L400 1254Q405 1262 418 1269T441 1277H665Q688 1277 701 1263T715 1230Q715 1209 700 1194L463 958Q459 954 447 949T428 943H385Q458 935 522 913T636 849T713 745T742 591V300Q742 238 750 180T775 61Q781 37 767 19T727 0H537ZM727 49Q711 112 702 173T693 300V591Q693 683 659 742T568 836T438 885T285 899Q261 899 230 898T173 894V699Q185 706 204 716T246 735T296 751T353 759Q426 759 462 723T508 619Q480 611 448 601T379 579Q306 554 244 515Q212 496 185 471T137 416T104 349T92 267Q92 224 107 181T150 103T222 48T322 26Q355 26 382 33T434 53T479 80T522 113Q525 96 534 79T555 49H727ZM512 229Q494 205 465 190T400 175Q376 175 355 182T318 204T293 241T283 293Q283 366 343 416T512 481V229ZM441 1229L295 993H428L665 1229H441ZM462 421Q399 404 366 371T332 293Q332 259 352 242T400 224Q438 224 462 246V421Z"  />
<glyph unicode="&#xE2;" horiz-adv-x="841" d="M537 0Q523 13 515 22T501 37Q492 31 481 24L460 12Q403 -23 322 -23Q253 -23 201 3T113 70T61 163T43 267Q43 320 56 363T94 442T149 506T217 558Q253 579 289 596T364 625Q382 631 392 634T410 640L426 646Q435 649 449 653Q425 709 353 709Q329 709 306 703T262 689T226 672T198 656Q184 648 171 648T148 654T131 672T124 699V894Q124 912 136 926T167 942Q174 942 175 943H149Q126 943 112 957T98 991Q98 1006 109 1023L287 1258Q293 1265 305 1271T326 1277H509Q517 1277 530 1271T548 1258L725 1023Q737 1006 737 991Q737 972 723 958T685 943H534Q526 943 513 949T495 962L418 1059Q396 1035 378 1011T340 962Q335 956 318 948Q401 944 477 926T613 867T707 759T742 591V300Q742 238 750 180T775 61Q781 37 767 19T727 0H537ZM727 49Q711 112 702 173T693 300V591Q693 683 659 742T568 836T438 885T285 899Q261 899 230 898T173 894V699Q185 706 204 716T246 735T296 751T353 759Q426 759 462 723T508 619Q480 611 448 601T379 579Q306 554 244 515Q212 496 185 471T137 416T104 349T92 267Q92 224 107 181T150 103T222 48T322 26Q355 26 382 33T434 53T479 80T522 113Q525 96 534 79T555 49H727ZM301 993L418 1138L534 993H685L509 1229H326L149 993H301ZM512 229Q494 205 465 190T400 175Q376 175 355 182T318 204T293 241T283 293Q283 366 343 416T512 481V229ZM462 421Q399 404 366 371T332 293Q332 259 352 242T400 224Q438 224 462 246V421Z"  />
<glyph unicode="&#xE3;" horiz-adv-x="841" d="M537 0Q523 13 515 22T501 37Q492 31 481 24L460 12Q403 -23 322 -23Q253 -23 201 3T113 70T61 163T43 267Q43 320 56 363T94 442T149 506T217 558Q253 579 289 596T364 625Q382 631 392 634T410 640L426 646Q435 649 449 653Q425 709 353 709Q329 709 306 703T262 689T226 672T198 656Q184 648 171 648T148 654T131 672T124 699V894Q124 912 136 926T167 942Q193 946 226 947T285 949Q372 949 454 933T601 875T703 765T742 591V300Q742 238 750 180T775 61Q781 37 767 19T727 0H537ZM727 49Q711 112 702 173T693 300V591Q693 683 659 742T568 836T438 885T285 899Q261 899 230 898T173 894V699Q185 706 204 716T246 735T296 751T353 759Q426 759 462 723T508 619Q480 611 448 601T379 579Q306 554 244 515Q212 496 185 471T137 416T104 349T92 267Q92 224 107 181T150 103T222 48T322 26Q355 26 382 33T434 53T479 80T522 113Q525 96 534 79T555 49H727ZM706 1253Q729 1253 743 1237T756 1197Q749 1153 733 1112T690 1037T623 985T531 965Q491 965 456 976T386 1001Q360 1011 336 1019T289 1027Q272 1027 267 993Q264 977 250 965T218 953H125Q102 953 88 969T76 1008Q82 1056 99 1099T146 1174T216 1225T307 1244Q341 1244 376 1234T447 1209Q475 1198 497 1190T534 1181Q547 1181 553 1190T563 1208V1211L564 1214Q567 1231 580 1242T612 1253H706ZM612 1204Q608 1194 605 1181T593 1158T572 1140T534 1132Q513 1132 487 1141T428 1165Q397 1176 366 1186T307 1196Q267 1196 236 1181T181 1139T144 1077T125 1003H218Q226 1037 243 1056T289 1076Q317 1076 346 1067T404 1046Q435 1033 466 1024T531 1014Q570 1014 601 1030T654 1073T689 1134T706 1204H612ZM512 229Q494 205 465 190T400 175Q376 175 355 182T318 204T293 241T283 293Q283 366 343 416T512 481V229ZM462 421Q399 404 366 371T332 293Q332 259 352 242T400 224Q438 224 462 246V421Z"  />
<glyph unicode="&#xE4;" horiz-adv-x="841" d="M537 0Q523 13 515 22T501 37Q492 31 481 24L460 12Q403 -23 322 -23Q253 -23 201 3T113 70T61 163T43 267Q43 320 56 363T94 442T149 506T217 558Q253 579 289 596T364 625Q382 631 392 634T410 640L426 646Q435 649 449 653Q425 709 353 709Q329 709 306 703T262 689T226 672T198 656Q184 648 171 648T148 654T131 672T124 699V894Q124 912 136 926T167 942Q185 944 208 946T254 949Q204 953 164 992Q120 1037 120 1100Q120 1163 164 1207Q209 1253 272 1253Q336 1253 381 1207Q406 1182 417 1150Q428 1182 454 1207Q498 1253 562 1253Q624 1253 669 1207Q714 1162 714 1100Q714 1038 669 992Q624 948 562 948Q498 948 454 992Q428 1018 417 1049Q403 1009 369 982Q337 954 294 949Q379 948 459 931Q541 914 604 873T704 764T742 591V300Q742 238 750 180T775 61Q781 37 767 19T727 0H537ZM727 49Q711 112 702 173T693 300V591Q693 683 659 742T568 836T438 885T285 899Q261 899 230 898T173 894V699Q185 706 204 716T246 735T296 751T353 759Q426 759 462 723T508 619Q480 611 448 601T379 579Q306 554 244 515Q212 496 185 471T137 416T104 349T92 267Q92 224 107 181T150 103T222 48T322 26Q355 26 382 33T434 53T479 80T522 113Q525 96 534 79T555 49H727ZM512 229Q494 205 465 190T400 175Q376 175 355 182T318 204T293 241T283 293Q283 366 343 416T512 481V229ZM170 1100Q170 1079 177 1061T199 1028T232 1005T272 996Q295 996 313 1004T345 1027T367 1060T375 1100Q375 1121 367 1140T346 1173T314 1195T272 1204Q251 1204 233 1196T200 1173T178 1140T170 1100ZM459 1100Q459 1079 467 1061T489 1028T522 1005T562 996Q583 996 601 1004T634 1027T657 1060T665 1100Q665 1121 657 1140T635 1173T602 1195T562 1204Q541 1204 522 1196T489 1173T467 1140T459 1100ZM462 421Q399 404 366 371T332 293Q332 259 352 242T400 224Q438 224 462 246V421Z"  />
<glyph unicode="&#xE5;" horiz-adv-x="841" d="M537 0Q523 13 515 22T501 37Q492 31 481 24L460 12Q403 -23 322 -23Q253 -23 201 3T113 70T61 163T43 267Q43 320 56 363T94 442T149 506T217 558Q253 579 289 596T364 625Q382 631 392 634T410 640L426 646Q435 649 449 653Q425 709 353 709Q329 709 306 703T262 689T226 672T198 656Q184 648 171 648T148 654T131 672T124 699V894Q124 912 136 926T167 942Q193 946 226 947T285 949H296Q275 961 258 980Q194 1045 194 1139Q194 1234 258 1297Q322 1362 418 1362Q512 1362 576 1298Q640 1235 640 1139Q640 1045 576 980Q537 940 484 924Q540 909 587 883T668 816T722 721T742 591V300Q742 238 750 180T775 61Q781 37 767 19T727 0H537ZM727 49Q711 112 702 173T693 300V591Q693 683 659 742T568 836T438 885T285 899Q261 899 230 898T173 894V699Q185 706 204 716T246 735T296 751T353 759Q426 759 462 723T508 619Q480 611 448 601T379 579Q306 554 244 515Q212 496 185 471T137 416T104 349T92 267Q92 224 107 181T150 103T222 48T322 26Q355 26 382 33T434 53T479 80T522 113Q525 96 534 79T555 49H727ZM244 1139Q244 1064 293 1014Q342 965 418 965Q491 965 541 1014Q590 1066 590 1139Q590 1214 541 1264Q491 1313 418 1313Q342 1313 293 1264Q244 1215 244 1139ZM512 229Q494 205 465 190T400 175Q376 175 355 182T318 204T293 241T283 293Q283 366 343 416T512 481V229ZM332 1139Q332 1176 357 1200T418 1224Q454 1224 478 1200T502 1139Q502 1103 478 1079T418 1054Q382 1054 357 1078T332 1139ZM462 421Q399 404 366 371T332 293Q332 259 352 242T400 224Q438 224 462 246V421ZM381 1139Q381 1125 391 1114T418 1102Q434 1102 444 1113T454 1139Q454 1154 444 1165T418 1176Q402 1176 392 1165T381 1139Z"  />
<glyph unicode="&#xE6;" horiz-adv-x="1165" d="M757 321Q763 305 773 288T798 257T832 234T878 224Q916 224 951 243T1010 284Q1027 298 1045 298Q1064 298 1079 282L1148 205Q1162 189 1162 169Q1162 152 1151 140Q1139 125 1114 98T1050 44T956 -3T833 -23Q760 -23 696 4T579 83Q509 29 439 3T307 -23Q238 -23 187 3T100 70T47 163T29 267Q29 320 42 363T79 442T134 506T202 558Q260 591 319 614T434 653Q406 709 339 709Q317 709 296 704T255 691T218 674L189 659Q187 657 182 656T173 653Q147 644 128 658T108 699V894Q108 912 121 926T153 942Q180 946 212 947T269 949Q371 949 456 928T604 850Q649 895 702 918T819 942Q918 942 981 901T1082 795T1134 650T1151 495Q1152 480 1143 466T1118 446L757 321ZM1102 493Q1099 561 1087 632T1043 761T958 856T819 894Q756 894 702 863T605 778Q579 811 543 834T463 872T371 892T269 899Q247 899 216 898T158 894V699Q171 706 190 716T232 736T283 752T339 759Q409 759 447 723T493 619Q456 607 411 594T320 561T229 516T152 455T98 373T77 267Q77 224 92 181T136 103T208 48T307 26Q368 26 441 58T585 152Q633 90 696 58T833 26Q893 26 940 43T1023 85T1080 133T1113 171L1043 248Q1013 222 970 199T878 175Q830 175 797 196T742 246T711 306T701 354L1102 493ZM268 293Q268 366 328 416Q374 454 454 473Q463 475 473 476T495 480Q494 469 494 458V438Q495 412 496 394T499 359Q508 301 518 260L498 229Q480 205 451 190T385 175Q363 175 342 182T304 204T278 241T268 293ZM681 496Q684 580 697 633T729 717T772 760T818 772Q838 772 857 761T890 731T912 687T921 633Q921 615 917 602T902 579T872 561T825 543L681 496ZM318 293Q318 259 338 242T385 224Q409 224 428 233T458 258Q462 263 461 262T465 268Q457 301 452 338T445 420Q318 383 318 293ZM809 589Q846 601 858 609T871 633Q871 670 856 696T818 723Q807 723 794 716T770 691T749 643T735 566L809 589Z"  />
<glyph unicode="&#xE7;" horiz-adv-x="741" d="M688 682Q688 658 673 645T639 631Q619 631 602 649Q581 672 552 682T496 692Q476 692 451 682T405 647T368 578T353 466Q353 393 371 346T416 270T471 231T524 219Q551 219 578 232T628 267Q641 281 662 281Q688 281 702 261L762 178Q771 166 771 151Q771 132 760 119Q744 99 718 77T657 36T584 2T505 -19Q546 -40 574 -79T603 -173Q603 -226 581 -264T523 -326T442 -363T354 -375Q285 -375 239 -358T164 -328Q151 -321 144 -310T137 -284Q137 -271 141 -263L170 -197Q183 -167 213 -167Q223 -167 233 -173Q257 -184 282 -192T328 -201Q347 -201 358 -193T370 -176Q370 -171 361 -165T333 -158Q321 -158 312 -160T297 -166Q289 -171 277 -171Q255 -171 242 -159L213 -135Q200 -123 198 -104T207 -69L275 24Q222 51 182 94T115 189T75 301T61 422Q61 517 98 610T203 777T365 896T572 942Q604 942 621 941T657 931Q669 925 678 912T688 886V682ZM638 886Q626 890 613 892T572 894Q470 894 385 853T239 744T145 593T111 422Q111 359 127 300T173 190T249 102T351 47L246 -99L275 -123Q286 -116 302 -113T333 -109Q343 -109 358 -112T387 -123T410 -144T420 -176Q420 -209 394 -229T328 -250Q304 -250 273 -240T214 -218L185 -283Q210 -296 252 -310T354 -325Q389 -325 424 -316T488 -289T535 -242T554 -173Q554 -141 541 -117T505 -78T455 -55T400 -47Q393 -47 384 -48T364 -53L359 -50L420 31Q427 26 437 26H454Q496 26 537 38T614 68T677 107T721 149L661 231Q633 205 598 188T525 171Q496 171 459 184T387 230T328 320T304 465Q304 548 323 601T372 686T435 729T496 741Q530 741 570 727T638 682V886Z"  />
<glyph unicode="&#xE8;" horiz-adv-x="805" d="M591 1019Q601 1004 601 990Q601 971 587 957T550 943H413Q408 943 396 948T378 958L144 1194Q128 1209 128 1230Q128 1248 141 1262T178 1277H401Q410 1277 424 1270T443 1254L591 1019ZM424 589Q461 601 474 609T488 633Q488 670 472 696T432 723Q421 723 408 716T384 690T364 642T350 566L424 589ZM373 321Q378 305 387 288T411 256T446 233T493 224Q530 224 565 244T628 285Q641 298 659 298Q682 298 696 281L764 204Q777 191 777 171Q777 155 766 141Q755 126 730 99T665 44T571 -3T448 -23Q369 -23 298 10T174 104T89 250T58 440Q58 534 85 624T162 785T281 899T435 942Q533 942 596 901T697 795T749 650T766 495Q767 480 757 466T734 446L373 321ZM718 493Q714 561 702 632T658 761T573 856T435 894Q361 894 302 855T199 752T131 607T107 440Q107 347 134 271T207 140T316 56T448 26Q508 26 555 43T638 85T696 133T728 171L659 248Q629 222 585 199T493 175Q443 175 410 196T357 246T327 306T315 354L718 493ZM297 496Q299 580 312 633T345 717T387 760T432 772Q454 772 473 761T506 731T528 687T537 633Q537 615 533 602T517 579T488 561T440 543L297 496ZM401 1229H178L413 993H550L401 1229Z"  />
<glyph unicode="&#xE9;" horiz-adv-x="805" d="M673 1277Q696 1277 710 1263T724 1230Q724 1209 708 1194L472 958Q466 954 454 949T437 943H302Q280 943 266 957T251 990Q251 1004 261 1019L409 1254Q414 1262 427 1269T450 1277H673ZM424 589Q461 601 474 609T488 633Q488 670 472 696T432 723Q421 723 408 716T384 690T364 642T350 566L424 589ZM373 321Q378 305 387 288T411 256T446 233T493 224Q530 224 565 244T628 285Q641 298 659 298Q682 298 696 281L764 204Q777 191 777 171Q777 155 766 141Q755 126 730 99T665 44T571 -3T448 -23Q369 -23 298 10T174 104T89 250T58 440Q58 534 85 624T162 785T281 899T435 942Q533 942 596 901T697 795T749 650T766 495Q767 480 757 466T734 446L373 321ZM718 493Q714 561 702 632T658 761T573 856T435 894Q361 894 302 855T199 752T131 607T107 440Q107 347 134 271T207 140T316 56T448 26Q508 26 555 43T638 85T696 133T728 171L659 248Q629 222 585 199T493 175Q443 175 410 196T357 246T327 306T315 354L718 493ZM297 496Q299 580 312 633T345 717T387 760T432 772Q454 772 473 761T506 731T528 687T537 633Q537 615 533 602T517 579T488 561T440 543L297 496ZM450 1229L302 993H437L673 1229H450Z"  />
<glyph unicode="&#xEA;" horiz-adv-x="805" d="M373 321Q378 305 387 288T411 256T446 233T493 224Q530 224 565 244T628 285Q641 298 659 298Q682 298 696 281L764 204Q777 191 777 171Q777 155 766 141Q755 126 730 99T665 44T571 -3T448 -23Q369 -23 298 10T174 104T89 250T58 440Q58 534 85 624T162 785T281 899T435 942Q533 942 596 901T697 795T749 650T766 495Q767 480 757 466T734 446L373 321ZM718 493Q714 561 702 632T658 761T573 856T435 894Q361 894 302 855T199 752T131 607T107 440Q107 347 134 271T207 140T316 56T448 26Q508 26 555 43T638 85T696 133T728 171L659 248Q629 222 585 199T493 175Q443 175 410 196T357 246T327 306T315 354L718 493ZM157 943Q134 943 120 957T106 991Q106 1006 118 1023L295 1258Q300 1265 313 1271T335 1277H517Q526 1277 538 1271T556 1257L731 1022Q743 1005 743 990Q743 971 729 957T692 943H542Q533 943 521 949T503 962L425 1059L349 964Q343 956 331 950T311 943H157ZM311 993L425 1138L542 993H692L517 1229H335L157 993H311ZM297 496Q299 580 312 633T345 717T387 760T432 772Q454 772 473 761T506 731T528 687T537 633Q537 615 533 602T517 579T488 561T440 543L297 496ZM424 589Q461 601 474 609T488 633Q488 670 472 696T432 723Q421 723 408 716T384 690T364 642T350 566L424 589Z"  />
<glyph unicode="&#xEB;" horiz-adv-x="805" d="M373 321Q378 305 387 288T411 256T446 233T493 224Q530 224 565 244T628 285Q641 298 659 298Q682 298 696 281L764 204Q777 191 777 171Q777 155 766 141Q755 126 730 99T665 44T571 -3T448 -23Q369 -23 298 10T174 104T89 250T58 440Q58 534 85 624T162 785T281 899T435 942Q533 942 596 901T697 795T749 650T766 495Q767 480 757 466T734 446L373 321ZM718 493Q714 561 702 632T658 761T573 856T435 894Q361 894 302 855T199 752T131 607T107 440Q107 347 134 271T207 140T316 56T448 26Q508 26 555 43T638 85T696 133T728 171L659 248Q629 222 585 199T493 175Q443 175 410 196T357 246T327 306T315 354L718 493ZM128 1100Q128 1163 173 1207Q217 1253 281 1253Q342 1253 388 1207Q413 1180 425 1149Q436 1181 462 1207Q507 1253 569 1253Q632 1253 677 1207Q722 1163 722 1100Q722 1037 677 992Q631 948 569 948Q507 948 462 992Q435 1018 424 1050Q412 1017 388 992Q341 948 281 948Q249 948 221 960T173 992T140 1040T128 1100ZM297 496Q299 580 312 633T345 717T387 760T432 772Q454 772 473 761T506 731T528 687T537 633Q537 615 533 602T517 579T488 561T440 543L297 496ZM465 1100Q465 1058 496 1027Q529 996 569 996Q591 996 610 1004T643 1027T665 1060T673 1100Q673 1121 665 1140T643 1173T610 1195T569 1204Q529 1204 496 1173Q465 1143 465 1100ZM177 1100Q177 1079 185 1061T207 1028T240 1005T281 996Q302 996 320 1004T353 1027T376 1060T384 1100Q384 1121 376 1140T354 1173T321 1195T281 1204Q259 1204 241 1196T208 1173T185 1140T177 1100ZM424 589Q461 601 474 609T488 633Q488 670 472 696T432 723Q421 723 408 716T384 690T364 642T350 566L424 589Z"  />
<glyph unicode="&#xEC;" horiz-adv-x="499" d="M343 919Q367 919 381 903T393 865Q388 813 386 763T384 665V462Q384 399 385 336T388 219T392 122T396 52Q399 31 384 16T348 0H146Q124 0 110 16T98 54Q103 111 105 164T107 271V326Q107 354 106 382Q106 409 106 437T105 494Q105 563 104 624T100 734T96 817T92 866Q90 887 105 903T141 919H343ZM141 869Q142 854 144 820T148 736T152 625T154 494Q154 437 155 380T156 265Q156 211 154 157T146 49H348Q346 76 344 119T339 217T335 334T334 462V665Q334 765 343 869H141ZM409 1019Q419 1004 419 990Q419 971 405 957T368 943H231Q226 943 214 948T196 958L-38 1194Q-54 1209 -54 1231Q-54 1249 -41 1263T-3 1277H218Q228 1277 241 1270T260 1254L409 1019ZM218 1229H-3L231 993H368L218 1229Z"  />
<glyph unicode="&#xED;" horiz-adv-x="499" d="M356 919Q378 919 393 903T406 865Q401 813 398 763T395 665V462Q395 399 397 336T401 219T405 122T409 52Q411 31 397 16T360 0H159Q137 0 122 16T109 54Q116 111 117 164T119 271V382Q119 409 119 437T118 494Q118 563 116 624T112 734T108 817T105 866Q103 887 117 903T154 919H356ZM154 869Q155 854 157 820T161 736T164 625T166 494Q166 437 167 380T169 265Q169 211 167 157T159 49H360Q357 75 355 119T351 217T348 334T347 462V665Q347 765 356 869H154ZM502 1277Q526 1277 539 1263T553 1230Q553 1209 537 1194L301 958Q297 954 285 949T267 943H132Q110 943 96 957T82 990Q82 1004 91 1019L238 1254Q244 1262 257 1269T280 1277H502ZM280 1229L132 993H267L502 1229H280Z"  />
<glyph unicode="&#xEE;" horiz-adv-x="482" d="M341 919Q364 919 378 903T391 865Q386 813 384 763T382 665V462Q382 399 383 336T386 219T390 122T394 52Q396 31 382 16T346 0H144Q122 0 107 16T94 54Q101 111 103 164T105 271V326Q105 354 104 382Q104 409 104 437T103 494Q103 563 102 624T98 734T93 817T90 866Q88 887 103 903T139 919H341ZM139 869Q140 854 142 820T146 736T150 625T152 494Q152 437 153 380T154 265Q154 211 152 157T144 49H346Q342 75 340 119T336 217T333 334T332 462V665Q332 765 341 869H139ZM-27 943Q-50 943 -63 957T-77 991Q-77 1006 -66 1023L110 1258Q116 1265 128 1271T149 1277H332Q340 1277 353 1271T371 1258L549 1023Q560 1008 560 991Q560 972 546 958T510 943H357Q349 943 336 949T318 962L241 1059Q220 1035 202 1012T164 964Q159 956 147 950T126 943H-27ZM126 993L241 1138L357 993H510L332 1229H149L-27 993H126Z"  />
<glyph unicode="&#xEF;" horiz-adv-x="483" d="M341 919Q364 919 378 903T391 865Q386 813 384 763T382 665V462Q382 399 383 336T386 219T390 122T394 52Q396 31 382 16T346 0H144Q122 0 107 16T94 54Q101 111 103 164T105 271V326Q105 354 104 382Q104 409 104 437T103 494Q103 563 102 624T98 734T93 817T90 866Q88 887 103 903T139 919H341ZM139 869Q140 854 142 820T146 736T150 625T152 494Q152 437 153 380T154 265Q154 211 152 157T144 49H346Q342 75 340 119T336 217T333 334T332 462V665Q332 765 341 869H139ZM-56 1100Q-56 1163 -12 1207Q34 1253 96 1253Q159 1253 204 1207Q229 1182 240 1150Q251 1182 277 1207Q322 1253 385 1253Q448 1253 493 1207Q537 1163 537 1100Q537 1068 526 1041T494 993T445 960T385 948Q322 948 277 992Q251 1018 240 1049Q229 1018 204 992Q159 948 96 948Q34 948 -12 992Q-56 1037 -56 1100ZM-7 1100Q-7 1079 0 1061T22 1028T55 1005T96 996Q118 996 136 1004T169 1027T191 1060T200 1100Q200 1121 192 1140T169 1173T137 1195T96 1204Q74 1204 56 1196T23 1173T1 1140T-7 1100ZM282 1100Q282 1079 290 1061T312 1028T345 1005T385 996Q407 996 425 1004T458 1027T480 1060T488 1100Q488 1121 480 1140T458 1173T426 1195T385 1204Q364 1204 345 1196T312 1173T290 1140T282 1100Z"  />
<glyph unicode="&#xF0;" horiz-adv-x="867" d="M51 460Q51 518 62 576T94 688T147 787T220 867Q199 871 188 893L144 976Q135 995 141 1015T167 1044L288 1097Q269 1120 249 1141T206 1186Q190 1202 190 1223Q190 1242 203 1256T240 1271H461Q493 1271 536 1211Q568 1225 597 1238T657 1266Q676 1274 695 1267T723 1241L762 1156Q771 1138 764 1119T738 1091L644 1048Q682 985 713 917T768 782T803 648T816 522Q816 408 791 309T717 137T597 20T432 -23Q340 -23 269 19T149 130T76 285T51 460ZM416 999Q448 950 466 891Q456 894 449 894H432Q353 894 291 856T187 756T122 618T100 460Q100 381 122 304T186 165T291 65T432 26Q513 26 575 65T680 171T745 328T767 522Q767 584 753 653T712 794T650 935T575 1071L718 1136L677 1221L520 1149Q507 1169 494 1186T461 1221H240Q313 1151 365 1077L188 999L231 915L416 999ZM569 460Q569 401 560 346T534 249T491 182T432 157Q401 157 376 182T333 248T306 345T297 460Q297 520 306 575T332 671T375 737T432 762Q465 762 491 737T534 671T560 575T569 460ZM520 460Q520 510 515 556T499 637T472 692T432 713Q411 713 395 693T368 637T352 556T346 460Q346 410 351 364T368 283T395 228T432 207Q455 207 471 227T499 283T515 364T520 460Z"  />
<glyph unicode="&#xF1;" horiz-adv-x="881" d="M312 919Q326 919 339 909T358 884Q395 912 436 927T522 942Q659 942 722 852T785 599V474Q785 394 786 311T790 153Q792 117 793 93T797 57Q800 34 786 17T748 0H549Q525 0 511 17T501 58Q502 65 503 87T506 140T507 201T508 258Q508 272 508 282T509 298Q509 303 509 310T508 330Q507 347 507 370V416Q507 437 507 459T506 500V545Q506 618 495 647T458 676Q435 676 422 664Q412 655 405 646T390 629V363Q390 283 392 208T400 53Q402 32 387 16T351 0H156Q136 0 122 14T107 49Q107 76 107 117T109 206Q110 266 111 328T112 444Q112 501 110 566T105 691Q102 752 100 797T92 856Q85 881 99 900T140 919H312ZM140 869Q143 858 145 832T151 771T156 695T159 610T161 524T162 444Q162 395 161 339T159 229T157 127T156 49H351Q344 128 343 205T341 363V644Q351 658 362 673T388 699T420 718T458 726Q510 726 532 685T555 545Q555 526 555 490T556 416Q556 377 557 345T558 298V271Q558 252 557 227T555 173T553 119T551 74T549 49H748Q746 64 745 89T741 152Q739 226 738 311T737 474V599Q737 740 686 817T522 894Q467 894 417 864T331 787L312 869H140ZM730 1253Q754 1253 768 1237T779 1197Q774 1153 758 1112T715 1037T647 985T555 965Q513 965 479 975T410 1000Q384 1011 359 1019T313 1027Q298 1027 290 994Q288 977 274 965T243 953H151Q127 953 113 969T101 1008Q107 1056 124 1099T170 1174T239 1225T333 1244Q367 1244 403 1234T472 1209Q499 1198 522 1190T558 1181Q576 1181 581 1193T589 1218Q594 1233 608 1243T637 1253H730ZM637 1204Q634 1194 630 1181T618 1158T595 1140T558 1132Q538 1132 511 1141T453 1165Q423 1176 392 1186T333 1196Q291 1196 260 1181T205 1139T169 1077T151 1003H243Q248 1037 266 1056T313 1076Q341 1076 370 1067T428 1046Q460 1033 491 1024T555 1014Q596 1014 626 1030T679 1073T713 1134T730 1204H637Z"  />
<glyph unicode="&#xF2;" horiz-adv-x="867" d="M600 1020Q607 1007 607 993T603 968T585 950T558 943H421Q416 943 404 948T387 958L153 1194Q137 1209 137 1230Q137 1248 150 1262T187 1277H408Q417 1277 430 1270T449 1254L600 1020ZM520 460Q520 510 515 556T499 637T472 692T432 713Q411 713 395 693T368 637T352 556T346 460Q346 410 351 364T368 283T395 228T432 207Q455 207 471 227T499 283T515 364T520 460ZM816 460Q816 372 791 286T717 130T597 19T432 -23Q340 -23 269 19T149 130T76 285T51 460Q51 549 76 635T149 790T268 900T432 942Q525 942 596 901T716 791T790 636T816 460ZM767 460Q767 540 745 617T680 756T575 855T432 894Q353 894 291 856T187 756T122 618T100 460Q100 381 122 304T186 165T291 65T432 26Q513 26 575 64T680 164T745 303T767 460ZM569 460Q569 401 560 346T534 249T491 182T432 157Q401 157 376 182T333 248T306 345T297 460Q297 520 306 575T332 671T375 737T432 762Q465 762 491 737T534 671T560 575T569 460ZM408 1229H187L421 993H558L408 1229Z"  />
<glyph unicode="&#xF3;" horiz-adv-x="867" d="M681 1277Q704 1277 717 1263T731 1230Q731 1209 715 1194L479 958Q474 954 462 949T444 943H311Q288 943 274 957T260 990Q260 1004 269 1019L417 1254Q422 1262 435 1269T458 1277H681ZM520 460Q520 510 515 556T499 637T472 692T432 713Q411 713 395 693T368 637T352 556T346 460Q346 410 351 364T368 283T395 228T432 207Q455 207 471 227T499 283T515 364T520 460ZM816 460Q816 372 791 286T717 130T597 19T432 -23Q340 -23 269 19T149 130T76 285T51 460Q51 549 76 635T149 790T268 900T432 942Q525 942 596 901T716 791T790 636T816 460ZM767 460Q767 540 745 617T680 756T575 855T432 894Q353 894 291 856T187 756T122 618T100 460Q100 381 122 304T186 165T291 65T432 26Q513 26 575 64T680 164T745 303T767 460ZM569 460Q569 401 560 346T534 249T491 182T432 157Q401 157 376 182T333 248T306 345T297 460Q297 520 306 575T332 671T375 737T432 762Q465 762 491 737T534 671T560 575T569 460ZM458 1229L311 993H444L681 1229H458Z"  />
<glyph unicode="&#xF4;" horiz-adv-x="867" d="M816 460Q816 372 791 286T717 130T597 19T432 -23Q340 -23 269 19T149 130T76 285T51 460Q51 549 76 635T149 790T268 900T432 942Q525 942 596 901T716 791T790 636T816 460ZM767 460Q767 540 745 617T680 756T575 855T432 894Q353 894 291 856T187 756T122 618T100 460Q100 381 122 304T186 165T291 65T432 26Q513 26 575 64T680 164T745 303T767 460ZM165 943Q142 943 128 957T114 991Q114 1006 126 1023L302 1258Q307 1265 320 1271T342 1277H526Q534 1277 547 1271T565 1257L740 1022Q752 1005 752 990Q752 971 738 957T701 943H549Q541 943 529 949T511 962L432 1059L356 964Q351 956 339 950T318 943H165ZM569 460Q569 401 560 346T534 249T491 182T432 157Q401 157 376 182T333 248T306 345T297 460Q297 520 306 575T332 671T375 737T432 762Q465 762 491 737T534 671T560 575T569 460ZM520 460Q520 510 515 556T499 637T472 692T432 713Q411 713 395 693T368 637T352 556T346 460Q346 410 351 364T368 283T395 228T432 207Q455 207 471 227T499 283T515 364T520 460ZM318 993L432 1138L549 993H701L526 1229H342L165 993H318Z"  />
<glyph unicode="&#xF5;" horiz-adv-x="867" d="M722 1253Q745 1253 759 1237T771 1197Q765 1153 750 1112T706 1037T639 985T547 965Q505 965 471 975T402 1000Q374 1011 350 1019T304 1027Q289 1027 282 994Q280 977 266 965T234 953H142Q119 953 105 969T92 1008Q99 1056 116 1099T162 1174T231 1225T323 1244Q358 1244 394 1234T463 1209Q491 1198 513 1190T549 1181Q567 1181 573 1193T581 1218Q585 1233 599 1243T629 1253H722ZM520 460Q520 510 515 556T499 637T472 692T432 713Q411 713 395 693T368 637T352 556T346 460Q346 410 351 364T368 283T395 228T432 207Q455 207 471 227T499 283T515 364T520 460ZM816 460Q816 372 791 286T717 130T597 19T432 -23Q340 -23 269 19T149 130T76 285T51 460Q51 549 76 635T149 790T268 900T432 942Q525 942 596 901T716 791T790 636T816 460ZM767 460Q767 540 745 617T680 756T575 855T432 894Q353 894 291 856T187 756T122 618T100 460Q100 381 122 304T186 165T291 65T432 26Q513 26 575 64T680 164T745 303T767 460ZM569 460Q569 401 560 346T534 249T491 182T432 157Q401 157 376 182T333 248T306 345T297 460Q297 520 306 575T332 671T375 737T432 762Q465 762 491 737T534 671T560 575T569 460ZM629 1204Q625 1194 621 1181T609 1158T587 1140T549 1132Q530 1132 503 1141T444 1165Q414 1176 383 1186T323 1196Q283 1196 251 1181T197 1139T160 1077T142 1003H234Q240 1037 258 1056T304 1076Q333 1076 361 1067T420 1046Q452 1033 482 1024T547 1014Q587 1014 618 1030T670 1073T705 1134T722 1204H629Z"  />
<glyph unicode="&#xF6;" horiz-adv-x="867" d="M816 460Q816 372 791 286T717 130T597 19T432 -23Q340 -23 269 19T149 130T76 285T51 460Q51 549 76 635T149 790T268 900T432 942Q525 942 596 901T716 791T790 636T816 460ZM767 460Q767 540 745 617T680 756T575 855T432 894Q353 894 291 856T187 756T122 618T100 460Q100 381 122 304T186 165T291 65T432 26Q513 26 575 64T680 164T745 303T767 460ZM136 1100Q136 1162 181 1207Q226 1253 289 1253Q351 1253 396 1207Q422 1182 432 1150Q444 1182 470 1207Q514 1253 578 1253Q640 1253 686 1207Q729 1164 729 1100Q729 1068 718 1041T686 993T638 960T578 948Q514 948 470 992Q444 1018 432 1049Q422 1018 396 992Q350 948 289 948Q226 948 181 992Q136 1038 136 1100ZM569 460Q569 401 560 346T534 249T491 182T432 157Q401 157 376 182T333 248T306 345T297 460Q297 520 306 575T332 671T375 737T432 762Q465 762 491 737T534 671T560 575T569 460ZM520 460Q520 510 515 556T499 637T472 692T432 713Q411 713 395 693T368 637T352 556T346 460Q346 410 351 364T368 283T395 228T432 207Q455 207 471 227T499 283T515 364T520 460ZM473 1100Q473 1079 481 1061T504 1028T537 1005T578 996Q600 996 618 1004T651 1027T673 1060T681 1100Q681 1121 673 1140T651 1173T619 1195T578 1204Q556 1204 537 1196T504 1173T482 1140T473 1100ZM185 1100Q185 1079 193 1061T216 1028T249 1005T289 996Q310 996 329 1004T361 1027T383 1060T392 1100Q392 1121 384 1140T362 1173T329 1195T289 1204Q268 1204 250 1196T217 1173T194 1140T185 1100Z"  />
<glyph unicode="&#xF7;" horiz-adv-x="1061" d="M635 157Q635 179 627 198T604 231T571 252T530 260Q485 260 455 231T425 157Q425 136 433 117T455 83T489 61T530 52Q552 52 571 60T605 82T627 116T635 157ZM946 385V519H118V385H946ZM635 751Q635 795 605 824T530 854Q485 854 455 825T425 751Q425 728 433 709T455 676T489 654T530 646Q552 646 571 654T604 676T626 709T635 751ZM678 751Q678 719 667 692T635 645T588 614T530 602Q499 602 472 613T425 645T393 692T381 751Q381 782 392 809T424 855T472 886T530 898Q561 898 588 887T635 856T666 809T678 751ZM74 341V563H990V341H74ZM678 157Q678 125 667 98T636 51T589 20T530 8Q499 8 472 19T425 51T393 99T381 157Q381 188 392 215T424 261T472 292T530 304Q561 304 588 293T635 263T666 216T678 157Z"  />
<glyph unicode="&#xF8;" horiz-adv-x="867" d="M222 -69Q211 -87 192 -92T154 -86L94 -50Q76 -40 72 -21T77 16L146 135Q95 202 73 285T51 460Q51 549 76 635T149 790T268 900T432 942Q475 942 516 932T591 902Q603 923 614 944T638 985Q649 1003 669 1008T707 1003L768 964Q785 954 790 935T784 899L719 785Q770 719 793 635T816 460Q816 372 791 286T717 130T597 19T432 -23Q388 -23 348 -12T272 18L222 -69ZM257 89Q328 26 432 26Q513 26 575 64T680 164T745 303T767 460Q767 549 740 634T660 781L742 922L681 961L607 832Q533 894 432 894Q353 894 291 856T187 756T122 618T100 460Q100 370 127 286T206 140L120 -7L179 -43L257 89ZM555 601Q569 533 569 460Q569 401 560 346T534 249T491 182T432 157Q404 157 380 177T341 234L555 601ZM313 322Q297 382 297 460Q297 520 306 575T332 671T375 737T432 762Q492 762 524 688L313 322ZM432 207Q453 207 468 226T495 277T514 354T519 449L394 233Q411 207 432 207ZM432 713Q412 713 397 694T371 643T352 567T347 471L471 686Q460 700 451 706T432 713Z"  />
<glyph unicode="&#xF9;" horiz-adv-x="882" d="M580 0Q565 0 551 10T533 35Q496 7 455 -8T370 -23Q301 -23 251 0T170 67T123 174T108 320V443Q108 526 107 609T102 765Q101 801 100 824T95 860Q90 884 104 901T143 919H343Q368 919 382 900T390 856Q389 851 388 834T387 794T386 743T385 691T384 648V589Q384 571 384 550T385 505V460Q385 439 386 421Q386 406 386 395T387 375Q387 302 397 273T435 243Q458 243 471 255Q480 264 487 273T502 290V556Q502 634 500 710T492 866Q490 887 504 903T541 919H737Q757 919 771 905T785 869Q785 842 785 802T783 714Q783 687 783 655T782 592T782 530T781 474Q781 420 782 355T786 230T792 125T800 61Q807 37 793 19T753 0H580ZM753 49Q748 68 745 116T739 225T734 352T732 474Q732 524 733 580T735 690T736 791T737 869H541Q547 792 549 714T551 556V273Q542 260 530 246T504 220T473 202T435 194Q382 194 360 235T337 375Q337 394 336 429T335 505Q335 542 335 574T334 621V649Q334 669 334 694T336 748T338 801T340 844T343 869H143Q151 838 152 767Q154 694 155 610T157 443V320Q157 180 208 103T370 26Q425 26 476 55T563 132L580 49H753ZM607 1020Q617 1005 617 991Q617 972 603 958T566 943H429Q423 943 411 948T394 958L160 1194Q144 1209 144 1231Q144 1249 157 1263T195 1277H416Q425 1277 438 1270T457 1254L607 1020ZM416 1229H195L429 993H566L416 1229Z"  />
<glyph unicode="&#xFA;" horiz-adv-x="882" d="M580 0Q565 0 551 10T533 35Q496 7 455 -8T370 -23Q301 -23 251 0T170 67T123 174T108 320V443Q108 526 107 609T102 765Q101 801 100 824T95 860Q90 884 104 901T143 919H343Q368 919 382 900T390 856Q389 851 388 834T387 794T386 743T385 691T384 648V589Q384 571 384 550T385 505V460Q385 439 386 421Q386 406 386 395T387 375Q387 302 397 273T435 243Q458 243 471 255Q480 264 487 273T502 290V556Q502 634 500 710T492 866Q490 887 504 903T541 919H737Q757 919 771 905T785 869Q785 842 785 802T783 714Q783 687 783 655T782 592T782 530T781 474Q781 420 782 355T786 230T792 125T800 61Q807 37 793 19T753 0H580ZM753 49Q748 68 745 116T739 225T734 352T732 474Q732 524 733 580T735 690T736 791T737 869H541Q547 792 549 714T551 556V273Q542 260 530 246T504 220T473 202T435 194Q382 194 360 235T337 375Q337 394 336 429T335 505Q335 542 335 574T334 621V649Q334 669 334 694T336 748T338 801T340 844T343 869H143Q151 838 152 767Q154 694 155 610T157 443V320Q157 180 208 103T370 26Q425 26 476 55T563 132L580 49H753ZM688 1277Q711 1277 725 1263T739 1230Q739 1209 723 1194L487 958Q482 954 470 949T452 943H318Q296 943 282 957T267 990Q267 1004 277 1019L424 1254Q429 1262 442 1269T465 1277H688ZM465 1229L318 993H452L688 1229H465Z"  />
<glyph unicode="&#xFB;" horiz-adv-x="882" d="M580 0Q565 0 551 10T533 35Q496 7 455 -8T370 -23Q301 -23 251 0T170 67T123 174T108 320V443Q108 526 107 609T102 765Q101 801 100 824T95 860Q90 884 104 901T143 919H343Q368 919 382 900T390 856Q389 851 388 834T387 794T386 743T385 691T384 648V589Q384 571 384 550T385 505V460Q385 439 386 421Q386 406 386 395T387 375Q387 302 397 273T435 243Q458 243 471 255Q480 264 487 273T502 290V556Q502 634 500 710T492 866Q490 887 504 903T541 919H737Q757 919 771 905T785 869Q785 842 785 802T783 714Q783 687 783 655T782 592T782 530T781 474Q781 420 782 355T786 230T792 125T800 61Q807 37 793 19T753 0H580ZM753 49Q748 68 745 116T739 225T734 352T732 474Q732 524 733 580T735 690T736 791T737 869H541Q547 792 549 714T551 556V273Q542 260 530 246T504 220T473 202T435 194Q382 194 360 235T337 375Q337 394 336 429T335 505Q335 542 335 574T334 621V649Q334 669 334 694T336 748T338 801T340 844T343 869H143Q151 838 152 767Q154 694 155 610T157 443V320Q157 180 208 103T370 26Q425 26 476 55T563 132L580 49H753ZM174 943Q151 943 137 957T122 991Q122 1006 134 1023L311 1258Q316 1265 328 1271T350 1277H533Q542 1277 554 1271T572 1257L748 1022Q759 1008 759 991Q759 972 745 958T708 943H558Q549 943 537 949T518 962L441 1059Q401 1011 365 964Q359 956 347 950T325 943H174ZM325 993L441 1138L558 993H708L533 1229H350L174 993H325Z"  />
<glyph unicode="&#xFC;" horiz-adv-x="882" d="M580 0Q565 0 551 10T533 35Q496 7 455 -8T370 -23Q301 -23 251 0T170 67T123 174T108 320V443Q108 526 107 609T102 765Q101 801 100 824T95 860Q90 884 104 901T143 919H343Q368 919 382 900T390 856Q389 851 388 834T387 794T386 743T385 691T384 648V589Q384 571 384 550T385 505V460Q385 439 386 421Q386 406 386 395T387 375Q387 302 397 273T435 243Q458 243 471 255Q480 264 487 273T502 290V556Q502 634 500 710T492 866Q490 887 504 903T541 919H737Q757 919 771 905T785 869Q785 842 785 802T783 714Q783 687 783 655T782 592T782 530T781 474Q781 420 782 355T786 230T792 125T800 61Q807 37 793 19T753 0H580ZM753 49Q748 68 745 116T739 225T734 352T732 474Q732 524 733 580T735 690T736 791T737 869H541Q547 792 549 714T551 556V273Q542 260 530 246T504 220T473 202T435 194Q382 194 360 235T337 375Q337 394 336 429T335 505Q335 542 335 574T334 621V649Q334 669 334 694T336 748T338 801T340 844T343 869H143Q151 838 152 767Q154 694 155 610T157 443V320Q157 180 208 103T370 26Q425 26 476 55T563 132L580 49H753ZM143 1100Q143 1162 189 1207Q233 1253 297 1253Q359 1253 404 1207Q429 1182 440 1151Q450 1181 477 1207Q522 1253 585 1253Q649 1253 693 1207Q738 1163 738 1100Q738 1068 726 1041T694 993T645 960T585 948Q522 948 477 992Q452 1017 440 1048Q428 1017 404 992Q359 948 297 948Q233 948 189 992Q143 1038 143 1100ZM481 1100Q481 1079 489 1061T512 1028T545 1005T585 996Q607 996 625 1004T658 1027T680 1060T688 1100Q688 1121 680 1140T658 1173T626 1195T585 1204Q564 1204 546 1196T513 1173T490 1140T481 1100ZM193 1100Q193 1079 201 1061T224 1028T257 1005T297 996Q317 996 336 1004T369 1027T391 1060T400 1100Q400 1121 392 1140T369 1173T336 1195T297 1204Q276 1204 257 1196T224 1173T202 1140T193 1100Z"  />
<glyph unicode="&#xFD;" horiz-adv-x="777" d="M657 1277Q681 1277 694 1263T708 1230Q708 1209 692 1194L456 958Q452 954 440 949T422 943H286Q264 943 250 957T235 990Q235 1004 245 1019L391 1254Q396 1262 410 1269T432 1277H657ZM272 919Q289 919 303 907T321 879Q325 858 331 830T347 764Q366 691 388 612Q399 573 402 556T408 528T413 509T427 476Q440 525 451 579T472 686T489 787T501 874Q503 893 517 906T550 919H721Q745 919 760 901T770 859Q747 754 719 644T657 423T585 204T507 -4Q471 -86 430 -142T343 -235T247 -287T143 -304Q127 -304 106 -303T58 -293Q43 -289 32 -275T21 -246V-82Q21 -66 27 -55T44 -38T68 -32T94 -39Q113 -51 131 -55T164 -59Q183 -59 198 -52T228 -29T257 12T289 74Q275 113 260 151T229 230Q200 304 171 382T114 539T62 699T19 859Q14 883 28 901T68 919H272ZM68 869Q92 767 124 667T192 467T267 270T342 72Q318 23 299 -11T261 -67T219 -99T164 -109Q144 -109 120 -103T70 -82V-246Q92 -251 110 -253T143 -255Q190 -255 233 -242T316 -197T392 -113T461 16Q550 224 611 436T721 869H550Q545 814 533 740T504 588T469 439T430 322Q409 370 386 444T340 599Q329 638 319 677T300 752T284 817T272 869H68ZM432 1229L286 993H422L657 1229H432Z"  />
<glyph unicode="&#xFE;" horiz-adv-x="869" d="M325 1271Q346 1271 360 1257T374 1221V904Q403 921 438 931T517 942Q585 942 643 912T742 827T808 696T832 530Q832 489 825 443T806 351T774 259T730 173Q704 131 671 96T596 34T509 -8T410 -23Q402 -23 395 -23T382 -21Q383 -86 384 -148T391 -250Q394 -272 380 -288T342 -304H149Q128 -304 114 -289T101 -251Q102 -233 102 -212T103 -164V715Q103 776 101 835T96 948T90 1051T85 1139Q83 1164 82 1184T81 1219Q79 1240 93 1255T129 1271H325ZM129 1221Q130 1187 133 1134T141 1014T148 871T153 715V-164Q153 -219 149 -255H342Q339 -231 337 -196T335 -122T334 -41T333 39Q347 37 368 32T410 26Q457 26 497 39T573 75T637 130T690 198Q737 275 759 363Q782 452 782 530Q782 609 763 676T708 791T625 867T517 894Q484 894 455 885T402 863T359 835T325 807V1221H129ZM333 675Q342 687 353 698T376 718T405 733T442 739Q516 739 555 674T595 488Q595 427 583 368T547 262T484 186T390 157Q366 157 354 161T333 176V675ZM382 207H390Q431 207 461 231T509 295T537 385T546 488Q546 584 520 636T442 689Q423 689 408 680T382 657V207Z"  />
<glyph unicode="&#xFF;" horiz-adv-x="777" d="M272 919Q289 919 303 907T321 879Q325 858 331 830T347 764Q366 691 388 612L427 476Q440 525 451 579T472 686T489 787T501 874Q503 893 517 906T550 919H721Q745 919 760 901T770 859Q747 754 719 644T657 423T585 204T507 -4Q471 -86 430 -142T343 -235T247 -287T143 -304Q127 -304 106 -303T58 -293Q43 -289 32 -275T21 -246V-82Q21 -66 27 -55T44 -38T68 -32T94 -39Q113 -51 131 -55T164 -59Q183 -59 198 -52T228 -29T257 12T289 74Q275 113 260 151T229 230Q200 304 171 382T114 539T62 699T19 859Q14 883 28 901T68 919H272ZM68 869Q92 767 124 667T192 467T267 270T342 72Q318 23 299 -11T261 -67T219 -99T164 -109Q144 -109 120 -103T70 -82V-246Q92 -251 110 -253T143 -255Q190 -255 233 -242T316 -197T392 -113T461 16Q550 224 611 436T721 869H550Q545 814 533 740T504 588T469 439T430 322Q409 370 386 444T340 599Q329 638 319 677T300 752T284 817T272 869H68ZM113 1100Q113 1164 157 1207Q202 1253 266 1253Q329 1253 373 1207Q399 1182 410 1150Q421 1182 446 1207Q491 1253 554 1253Q617 1253 661 1207Q707 1162 707 1100Q707 1038 661 992Q617 948 554 948Q503 948 464 976T410 1049Q399 1018 373 992Q329 948 266 948Q202 948 157 992Q113 1036 113 1100ZM162 1100Q162 1079 170 1061T192 1028T225 1005T266 996Q287 996 305 1004T338 1027T361 1060T369 1100Q369 1121 361 1140T339 1173T306 1195T266 1204Q244 1204 225 1196T192 1173T170 1140T162 1100ZM452 1100Q452 1079 459 1061T481 1028T513 1005T554 996Q576 996 594 1004T627 1027T649 1060T657 1100Q657 1121 649 1140T627 1173T595 1195T554 1204Q532 1204 514 1196T481 1173T460 1140T452 1100Z"  />
<glyph unicode="&#x131;" horiz-adv-x="516" d="M358 919Q382 919 396 903T408 865Q403 813 401 763T399 665V462Q399 399 400 336T403 219T407 122T411 52Q413 31 399 16T363 0H161Q139 0 125 16T112 54Q118 111 120 164T122 271V326Q122 354 121 382Q121 409 121 437T120 494Q120 563 119 624T115 734T110 817T107 866Q105 887 120 903T156 919H358ZM156 869Q157 854 159 820T163 736T167 625T169 494Q169 437 170 380T171 265Q171 211 169 157T161 49H363Q360 76 358 119T354 217T350 334T349 462V665Q349 765 358 869H156Z"  />
<glyph unicode="&#x141;" horiz-adv-x="915" d="M661 761Q661 752 655 738T639 719L429 582V495Q429 464 429 436T430 379V313Q430 282 431 257Q522 257 581 258T682 262T754 267T819 276Q843 279 860 265T877 226V51Q877 30 862 15T826 0H160Q139 0 124 15T109 52Q110 71 110 89T111 126Q112 166 114 195T117 250T118 306T119 378Q109 372 101 367T84 355Q71 347 54 347Q34 347 20 360T5 397V506Q5 515 12 529T29 548L119 607Q119 689 118 774T114 941T108 1103T100 1251Q98 1273 112 1288T149 1304H387Q408 1304 423 1289T437 1252Q436 1218 434 1173T431 1079T430 987T429 913V810Q470 836 506 860T583 912Q596 920 613 920Q633 920 647 907T661 869V761ZM611 869L378 717V913Q378 943 379 987T382 1080T384 1174T387 1254H149Q154 1182 157 1100T163 930T167 753T169 580L56 506V397L169 472Q169 366 166 262T160 51H826V226Q791 220 758 217T678 211T562 207T383 206Q382 231 381 276T379 379Q379 437 379 495T378 611L611 761V869Z"  />
<glyph unicode="&#x142;" horiz-adv-x="463" d="M76 407Q61 397 47 397Q28 397 14 411T0 448V553Q0 563 7 576T22 595L92 643V652Q92 781 91 872T89 1029T86 1138T82 1218Q81 1240 95 1255T131 1271H328Q351 1271 365 1255T377 1217Q375 1202 375 1181T373 1128Q372 1112 372 1096V1062Q372 1045 372 1029T371 995V831L386 841Q400 851 416 851Q435 851 449 837T463 800V696Q463 687 456 674T442 655L371 607V323Q371 263 372 210T374 116T379 58Q385 34 371 17T332 0H131Q110 0 96 14T82 49V67Q82 78 83 90Q85 122 86 165T88 255Q88 286 89 317T91 379V401Q91 404 91 403L92 402V418L76 407ZM142 510Q142 476 142 434T140 346T138 255T136 170T134 99T131 49H332Q329 65 327 97T324 171T323 263T322 364V633L413 696V800L322 738V994Q322 1030 322 1065T323 1130T325 1184T328 1221H131Q132 1186 134 1141T138 1031T141 873T142 652V616L50 553V448L142 510Z"  />
<glyph unicode="&#x152;" horiz-adv-x="1510" d="M544 1328Q591 1326 637 1311T723 1268Q728 1283 741 1293T772 1303L1401 1304Q1423 1304 1437 1290T1452 1254V1074Q1452 1047 1434 1033T1390 1024Q1335 1038 1255 1043T1089 1049Q1077 1049 1068 1049T1046 1047Q1043 1046 1031 1046Q1030 1035 1030 1023V848Q1030 840 1030 838T1029 832T1029 822T1031 797Q1098 799 1162 802T1293 808Q1314 809 1329 794T1344 757V575Q1344 553 1329 539T1293 525L1028 533Q1026 507 1026 480V363Q1026 342 1026 331T1025 307Q1025 298 1025 287T1028 258Q1048 259 1068 259T1107 260Q1146 261 1189 262T1273 265T1353 269T1425 275Q1448 277 1464 262T1480 224V51Q1480 30 1466 15T1430 0H777Q744 0 730 30Q696 5 650 -9T543 -23Q438 -23 349 25T194 163T91 376T54 652Q54 803 91 928T194 1142T349 1279T544 1328ZM774 1151L771 1147Q753 1177 728 1200T672 1240T609 1266T543 1277Q448 1277 368 1232T230 1105T138 908T105 652Q105 512 138 397T229 200T368 72T543 26Q590 26 628 37T696 66T744 106T775 149L778 146L777 51H1430V224Q1333 214 1218 212T980 206Q977 246 976 285T975 363Q975 413 976 472T980 585L1294 575V757L984 746Q980 814 980 848V1000Q980 1026 982 1051T984 1095Q1003 1095 1017 1096T1043 1097T1065 1098T1089 1099Q1178 1099 1261 1094T1401 1074V1254L772 1252L774 1151ZM543 1129Q650 1129 712 1008T775 652Q775 416 713 296T543 175Q441 175 385 295T328 652Q328 888 384 1008T543 1129ZM543 1079Q465 1079 421 972T377 652Q377 440 421 333T543 226Q629 226 677 333T725 652Q725 864 677 971T543 1079Z"  />
<glyph unicode="&#x153;" horiz-adv-x="1224" d="M492 460Q492 510 486 556T469 637T442 692T404 713Q383 713 367 693T340 637T323 556T317 460Q317 410 323 364T340 283T367 228T404 207Q425 207 441 227T469 283T486 364T492 460ZM823 322Q829 306 838 289T862 257T896 234T942 224Q980 224 1016 243T1076 284Q1092 298 1110 298Q1129 298 1144 282L1214 205Q1224 193 1225 174T1218 142Q1208 127 1182 100T1116 45T1021 -3T898 -23Q825 -23 761 4T646 82Q598 33 539 5T404 -23Q312 -23 241 19T121 130T47 285T22 460Q22 549 47 635T120 790T240 900T404 942Q481 942 542 914T652 835Q697 886 756 914T885 942Q984 942 1047 901T1146 795T1198 650T1217 495Q1218 480 1209 466T1184 446L823 322ZM874 590Q911 601 924 609T938 633Q938 670 921 696T883 723Q871 723 859 716T835 691T814 643T800 566L874 590ZM746 496Q748 580 761 633T794 717T837 760T883 772Q903 772 922 761T955 731T978 687T987 633Q987 598 967 580T890 543L746 496ZM1168 493Q1165 561 1152 632T1108 761T1024 856T885 894Q812 894 753 856T652 755Q607 818 547 856T404 894Q323 894 261 856T157 756T93 618T71 460Q71 381 92 304T156 165T261 65T404 26Q483 26 542 62T646 157Q693 95 758 61T898 26Q958 26 1006 43T1089 85T1147 133T1178 171L1109 248Q1078 222 1036 199T942 175Q894 175 861 196T808 246T777 306T765 354L1168 493ZM541 460Q541 401 532 346T506 249T463 182T404 157Q371 157 346 182T304 248T277 345T268 460Q268 520 277 575T303 671T346 737T404 762Q437 762 463 737T506 671T532 575T541 460Z"  />
<glyph unicode="&#x160;" horiz-adv-x="952" d="M384 1329Q375 1329 362 1335T343 1348L161 1591Q151 1606 151 1624Q151 1644 164 1658T202 1673H359Q368 1673 381 1666T400 1653L477 1553Q497 1577 517 1602T558 1653Q563 1658 575 1665T597 1673H752Q776 1673 789 1659T803 1626Q803 1609 792 1592L613 1349Q607 1343 594 1336T572 1329H384ZM84 347Q84 371 98 385T132 399Q152 399 169 384Q206 351 244 324T314 276Q343 259 375 250T443 241Q515 241 552 276Q590 314 590 363Q590 407 560 438T483 495Q458 510 430 524T367 553Q313 579 262 607T171 675T107 768T83 895Q83 983 119 1062T220 1200T372 1293T562 1328Q609 1328 655 1320T746 1291Q757 1286 766 1272T775 1245V1014Q775 990 760 977T726 964Q704 964 687 980Q655 1015 609 1038T506 1062Q448 1062 415 1038T382 972Q382 938 403 919Q421 904 441 891T484 865L483 866Q537 838 602 815Q676 787 737 740T844 621Q865 585 876 537T888 432Q888 326 850 242T746 99T595 9T411 -23Q378 -23 337 -18T253 -4T173 19T109 48Q101 53 93 67T84 91V347ZM135 91Q158 78 193 66T266 46T343 32T411 26Q497 26 574 55T711 136T804 264T838 432Q838 532 800 596Q762 659 707 700T584 767Q536 789 491 808T410 849T353 900T331 972Q331 1036 378 1074T506 1112Q576 1112 631 1085T724 1014V1245Q686 1265 646 1271T562 1277Q471 1277 393 1247T256 1164T165 1042T132 895Q132 832 154 787T212 708T293 648T387 600Q455 570 509 538Q536 523 560 505T602 466T630 419T640 363Q640 290 587 240Q534 190 443 190Q359 190 288 231Q218 275 135 347V91ZM572 1379L752 1622H597L477 1470L359 1622H202L384 1379H572Z"  />
<glyph unicode="&#x161;" horiz-adv-x="702" d="M40 300Q40 323 55 337T90 351Q110 351 126 334Q140 318 164 297T217 255T280 221T343 207Q372 207 389 220T406 254Q406 267 397 278T371 300T333 322T287 344Q246 365 204 387T128 441T73 514T52 616Q52 674 78 732T157 837T289 913T474 942H487Q495 942 503 941H515Q550 939 570 932Q582 927 592 914T604 888L616 715Q617 701 611 689T595 671T572 663T545 668Q502 689 463 696T384 703Q350 703 336 689Q324 681 324 672Q324 658 354 642T424 608Q466 588 511 565T593 507T655 424T679 307Q679 244 653 184T577 78T459 5T303 -23Q243 -23 195 -10T100 21H101Q94 23 88 26T74 31Q61 36 51 49T40 77V300ZM90 77Q141 58 191 42T303 26Q377 26 437 50T541 113T607 202T630 307Q630 371 604 415T538 489T452 540T367 581T302 621T275 672Q275 685 281 699T301 725T335 744T384 752Q429 752 473 744T566 712L554 886Q548 888 538 889T514 891Q500 893 490 893T474 894Q381 894 312 869T195 804T125 715T102 616Q102 559 128 520T193 452T278 404T364 362T430 315T456 254Q456 210 426 184T343 157Q305 157 267 173T194 211T133 257T90 300V77ZM273 943Q265 943 252 949T233 964L57 1198Q46 1215 46 1230Q46 1249 59 1263T96 1277H250Q259 1277 271 1271T288 1258L364 1161Q384 1186 402 1210T441 1259Q446 1265 458 1271T479 1277H632Q655 1277 669 1263T683 1230Q683 1215 671 1198L495 964Q490 956 477 950T456 943H273ZM456 993L632 1229H479L364 1081L250 1229H96L273 993H456Z"  />
<glyph unicode="&#x178;" horiz-adv-x="990" d="M307 1304Q322 1304 336 1294T356 1269Q367 1233 383 1191T417 1105T455 1015T495 924Q502 906 514 876Q518 884 522 892T530 909Q549 952 569 998T609 1091T647 1184T678 1271Q684 1284 697 1294T726 1304H938Q970 1304 983 1281T982 1229Q971 1211 946 1163T888 1051T818 914T747 773T687 651T648 567V386Q648 312 649 259T653 159Q654 142 655 123T657 82V69Q657 64 658 55Q660 32 646 16T607 0H394Q373 0 359 15T344 52Q346 116 346 177V542Q316 602 288 664T230 788Q178 900 127 1009T15 1230Q0 1257 14 1280T59 1304H307ZM59 1254Q153 1081 232 905T396 553V302Q396 240 396 177T394 51H607Q605 96 603 132T600 206T599 285T598 386V576Q605 594 621 629T660 710T710 810T765 920Q794 976 821 1030T871 1130T912 1208T938 1254H726Q681 1124 625 1000T515 748Q494 800 466 865T407 998T351 1132T307 1254H59ZM191 1490Q191 1555 236 1601Q283 1646 348 1646Q411 1646 458 1601Q482 1574 496 1542Q507 1574 533 1601Q580 1646 643 1646Q708 1646 755 1601Q801 1554 801 1490Q801 1426 755 1379Q708 1332 643 1332Q580 1332 533 1379Q519 1392 510 1406T496 1437Q481 1402 458 1379Q411 1332 348 1332Q283 1332 236 1379Q191 1425 191 1490ZM538 1490Q538 1468 546 1449T568 1415T602 1392T643 1383Q666 1383 685 1391T719 1415T742 1449T750 1490Q750 1513 742 1532T720 1565T686 1587T643 1596Q599 1596 569 1566T538 1490ZM242 1490Q242 1468 250 1449T272 1415T305 1392T348 1383Q390 1383 422 1415Q454 1447 454 1490Q454 1534 422 1565Q390 1596 348 1596Q325 1596 306 1588T272 1565T250 1532T242 1490Z"  />
<glyph unicode="&#x17D;" horiz-adv-x="918" d="M51 174L479 1045H459Q379 1045 297 1041T145 1024Q122 1021 105 1035T87 1074V1254Q87 1275 102 1289T138 1304H814Q835 1304 849 1290T864 1254V1136L429 261Q529 261 623 263T816 271Q837 272 853 257T869 220V51Q869 30 855 15T818 0H101Q79 0 65 15T51 51V174ZM101 51H818V220Q700 216 584 213T349 210L814 1149V1254H138V1074Q211 1085 295 1090T459 1095H561L101 162V51ZM366 1329Q357 1329 344 1335T324 1348L144 1591Q132 1606 132 1624Q132 1643 146 1658T184 1673H339Q348 1673 361 1666T379 1653L458 1552Q499 1602 538 1653Q544 1658 556 1665T578 1673H732Q757 1673 771 1659T785 1625Q785 1608 773 1592L593 1349Q587 1343 574 1336T552 1329H366ZM552 1379L732 1622H578L458 1470L339 1622H184L366 1379H552Z"  />
<glyph unicode="&#x17E;" horiz-adv-x="714" d="M29 183Q45 211 69 252T124 342T185 441T244 539T296 627T332 692Q277 691 222 689T110 679Q88 676 72 690T55 729V869Q55 890 69 904T105 919H638Q659 919 673 905T688 869V761L381 231H417Q430 231 443 231T469 232Q496 233 522 233T572 235Q597 236 615 236H642Q662 236 676 222T691 187V49Q691 29 677 15T642 0H77Q57 0 43 14T29 49V183ZM77 49H642V187H615Q597 187 574 186T523 185T469 183Q441 183 415 183T365 182T323 181T294 180L638 775V869H105V729Q172 738 237 739T370 741H414Q402 715 377 671T319 572T252 458T184 344T123 243T77 170V49ZM285 943Q277 943 264 949T246 964L70 1198Q58 1215 58 1230Q58 1249 72 1263T109 1277H263Q271 1277 283 1271T301 1258L376 1161Q396 1186 415 1210T454 1259Q459 1265 471 1271T492 1277H644Q668 1277 681 1263T695 1230Q695 1215 684 1198L508 964Q502 956 489 950T467 943H285ZM467 993L644 1229H492L376 1081L263 1229H109L285 993H467Z"  />
<glyph unicode="&#x192;" horiz-adv-x="970" d="M128 -87Q130 -66 143 -54T175 -41Q193 -41 208 -54Q219 -63 240 -63Q248 -63 255 -58T269 -39T281 -3T290 57L355 509H257Q234 509 220 525T208 563L219 671Q222 689 236 702T269 715H377Q382 745 385 773T392 831Q402 908 424 982T490 1112T599 1203T760 1238Q778 1238 802 1235T844 1225Q859 1220 868 1204T874 1171L854 1039Q850 1014 832 1003T790 1001Q784 1003 774 1005T755 1008Q734 1008 720 996T696 965T681 923T675 879L654 715H755Q778 715 792 699T803 659L790 549Q788 532 773 520T740 507H628Q615 401 602 296T576 85Q564 5 542 -64T480 -184T378 -266T222 -296Q184 -296 165 -290T138 -280Q126 -273 118 -259T111 -229L128 -87ZM160 -235Q165 -239 179 -243T222 -247Q301 -247 355 -221T443 -148T497 -41T527 91L584 556H740L755 666H598L625 884Q628 913 635 943T657 999T697 1041T755 1058Q772 1058 786 1053T808 1046L826 1179Q813 1184 794 1186T760 1188Q678 1188 621 1158T527 1078T470 962T442 825L422 666H269L257 559H411L339 51Q334 1 325 -31T302 -81T274 -105T240 -111Q202 -111 177 -92L160 -235Z"  />
<glyph unicode="&#x2C6;" horiz-adv-x="482" d="M-27 943Q-50 943 -63 957T-77 991Q-77 1006 -66 1023L110 1258Q116 1265 128 1271T149 1277H332Q340 1277 353 1271T371 1258L549 1023Q560 1008 560 991Q560 972 546 958T510 943H357Q349 943 336 949T318 962L241 1059Q220 1035 202 1012T164 964Q159 956 147 950T126 943H-27ZM126 993L241 1138L357 993H510L332 1229H149L-27 993H126Z"  />
<glyph unicode="&#x2C7;" horiz-adv-x="482" d="M149 943Q141 943 129 949T110 964L-66 1198Q-77 1215 -77 1230Q-77 1249 -64 1263T-27 1277H126Q135 1277 147 1271T164 1258L241 1161Q261 1186 280 1211L318 1259Q323 1265 336 1271T357 1277H510Q532 1277 546 1263T560 1230Q560 1213 549 1198L371 964Q366 956 353 950T332 943H149ZM332 993L510 1229H357L241 1081L126 1229H-27L149 993H332Z"  />
<glyph unicode="&#x2C9;" horiz-adv-x="485" d="M-43 1153Q-43 1173 -29 1187T5 1202H479Q500 1202 514 1188T529 1153V1045Q529 1024 515 1010T479 995H5Q-15 995 -29 1009T-43 1045V1153ZM5 1045H479V1153H5V1045Z"  />
<glyph unicode="&#x2D8;" horiz-adv-x="485" d="M78 1282Q96 1282 110 1269T127 1239Q132 1199 167 1180T250 1160Q297 1160 333 1178Q360 1192 373 1244Q376 1259 390 1270T420 1282H513Q537 1282 551 1266T562 1225Q560 1212 556 1186T540 1130T507 1067T451 1009T364 967T238 950Q-42 950 -67 1229Q-69 1250 -54 1266T-18 1282H78ZM-18 1232Q-8 1116 57 1058T238 999Q331 999 385 1028T467 1097T503 1175T513 1232H420Q403 1159 355 1134Q310 1111 250 1111Q184 1111 136 1141T78 1232H-18Z"  />
<glyph unicode="&#x2D9;" horiz-adv-x="512" d="M105 1100Q105 1163 149 1207Q194 1253 258 1253Q320 1253 366 1207Q409 1164 409 1100Q409 1068 398 1041T366 993T318 960T258 948Q194 948 149 992Q105 1037 105 1100ZM154 1100Q154 1079 162 1061T185 1028T217 1005T258 996Q280 996 298 1004T330 1027T352 1060T360 1100Q360 1121 352 1140T331 1173T299 1195T258 1204Q236 1204 218 1196T185 1173T163 1140T154 1100Z"  />
<glyph unicode="&#x2DA;" horiz-adv-x="498" d="M25 1139Q25 1235 90 1298Q155 1362 248 1362Q342 1362 407 1297Q473 1235 473 1139Q473 1046 407 980Q342 916 248 916Q155 916 90 980Q25 1045 25 1139ZM212 1139Q212 1125 222 1114T248 1102Q264 1102 274 1113T284 1139Q284 1154 274 1165T248 1176Q233 1176 223 1165T212 1139ZM163 1139Q163 1176 187 1200T248 1224Q284 1224 309 1200T334 1139Q334 1103 309 1079T248 1054Q212 1054 188 1078T163 1139ZM74 1139Q74 1065 125 1014Q177 965 248 965Q322 965 372 1014Q423 1065 423 1139Q423 1214 372 1264Q322 1313 248 1313Q177 1313 125 1264Q74 1214 74 1139Z"  />
<glyph unicode="&#x2DB;" horiz-adv-x="496" d="M527 65Q527 51 517 37T493 18Q469 10 433 -5T363 -40T305 -84T280 -134Q280 -151 288 -161T312 -172Q349 -172 384 -154T453 -112Q472 -100 493 -105T525 -131L553 -183Q562 -199 556 -217T535 -246Q473 -288 406 -319T261 -351Q220 -351 182 -337T113 -298T65 -237T47 -158Q47 -77 107 -21Q156 28 226 58Q257 71 290 82T360 103Q392 111 420 117T470 128Q493 132 510 118T527 79V65ZM478 79Q436 72 373 56T246 12Q215 -2 188 -19T141 -57T108 -103T96 -158Q96 -190 110 -216T147 -262T200 -291T261 -302Q330 -302 391 -273T509 -206L481 -154Q442 -179 401 -199T312 -220Q273 -220 252 -197T231 -134Q231 -98 259 -66T326 -8T407 36T478 65V79Z"  />
<glyph unicode="&#x2DC;" horiz-adv-x="481" d="M528 1253Q552 1253 566 1237T578 1197Q571 1153 555 1112T511 1037T445 985T353 965Q313 965 278 976T208 1001Q183 1011 159 1019T111 1027Q94 1027 89 993Q86 977 72 965T40 953H-53Q-76 953 -90 969T-102 1008Q-96 1056 -78 1099T-31 1174T38 1225T130 1244Q163 1244 198 1234T269 1209Q297 1198 320 1190T356 1181Q371 1181 376 1190T385 1209L389 1219Q393 1233 407 1243T435 1253H528ZM435 1204Q431 1194 428 1181T416 1158T394 1140T356 1132Q337 1132 310 1141T251 1165Q219 1176 188 1186T130 1196Q90 1196 58 1181T3 1139T-34 1077T-53 1003H40Q48 1037 65 1056T111 1076Q139 1076 168 1067T226 1046Q257 1033 288 1024T353 1014Q392 1014 423 1030T476 1073T511 1134T528 1204H435Z"  />
<glyph unicode="&#x2DD;" horiz-adv-x="466" d="M323 1277Q344 1277 357 1265T373 1234L386 1254Q391 1262 404 1269T427 1277H651Q674 1277 688 1263T702 1230Q702 1209 686 1194L449 958Q444 954 432 949T414 943H280Q258 943 244 957T229 990Q229 1004 238 1019L333 1169L120 958Q114 954 102 949T85 943H-49Q-71 943 -85 957T-100 990Q-100 1004 -90 1019L57 1254Q63 1262 76 1269T99 1277H323ZM427 1229L280 993H414L651 1229H427ZM99 1229L-49 993H85L323 1229H99Z"  />
<glyph unicode="&#x3C0;" horiz-adv-x="992" d="M926 26Q888 8 853 -2T773 -12Q707 -12 666 6T603 58T573 137T565 235V565H371V49Q371 29 357 15T322 0H155Q135 0 121 14T106 49V565H51Q31 565 17 579T2 614V772Q2 793 16 807T51 821H900Q921 821 935 807T950 772V614Q950 594 936 580T900 565H832V273Q832 259 832 244T838 228Q860 228 885 240Q911 251 932 238T954 196V70L926 26ZM905 196Q889 189 873 184T838 178Q817 178 806 187T789 210T783 241T782 273V614H900V772H51V614H155V49H322V614H614V235Q614 192 619 156T642 94T691 52T773 37Q810 37 840 45T905 70V196Z"  />
<glyph unicode="&#x60C;" horiz-adv-x="570" d="M435 358Q435 339 417 309Q369 229 366 207Q427 161 427 90Q427 36 388 -4Q349 -45 294 -45Q225 -45 186 -3Q151 35 151 94Q151 189 265 305Q362 401 390 401Q435 401 435 358ZM376 96Q376 127 345 158Q314 189 314 199Q314 243 374 332L370 336Q314 293 261 225Q202 146 202 96Q202 6 294 6Q331 6 355 37Q376 62 376 96Z"  />
<glyph unicode="&#x61B;" horiz-adv-x="570" d="M435 723Q435 704 417 674Q369 594 366 571Q427 525 427 455Q427 399 388 359Q349 319 294 319Q225 319 186 361Q151 401 151 459Q151 554 265 670Q362 766 390 766Q435 766 435 723ZM439 102Q439 41 396 -2Q354 -45 294 -45Q232 -45 189 -2Q146 41 146 102Q146 164 189 207Q232 250 294 250Q354 250 396 207Q439 164 439 102ZM376 461Q376 492 345 522Q314 553 314 563Q314 607 374 696L370 700Q341 679 314 652T261 590Q202 511 202 461Q202 371 294 371Q331 371 355 401Q376 428 376 461ZM388 102Q388 122 381 139T361 170T331 191T294 199Q274 199 257 192T226 171T206 140T198 102Q198 62 226 34T294 6Q313 6 330 13T360 34T380 65T388 102Z"  />
<glyph unicode="&#x61F;" horiz-adv-x="722" d="M626 569Q626 460 558 380Q486 295 378 295Q343 295 343 338V553Q343 608 282 621Q114 657 114 831Q114 939 190 1003Q264 1065 380 1065H452Q534 1065 581 1018Q620 979 620 924Q620 889 587 889H470Q384 889 384 834Q384 783 454 774Q626 753 626 569ZM618 102Q618 41 575 -2Q532 -45 472 -45Q411 -45 368 -2Q325 41 325 102Q325 164 368 207Q411 250 472 250Q532 250 575 207Q618 164 618 102ZM575 578Q575 706 450 723Q333 739 333 834Q333 940 476 940H568Q548 1009 456 1012L374 1014Q273 1016 216 959Q165 908 165 834Q165 696 296 670Q394 650 394 539V346Q472 354 521 415Q575 479 575 578ZM566 102Q566 122 559 139T539 170T509 191T472 199Q452 199 435 192T404 171T384 140T376 102Q376 62 404 34T472 6Q491 6 508 13T538 34T558 65T566 102Z"  />
<glyph unicode="&#x621;" horiz-adv-x="563" d="M475 31Q475 0 444 0H115Q86 0 86 31V147Q86 176 115 176H162Q147 219 147 246Q147 424 373 424H446Q475 424 475 395V270Q475 244 446 244H375Q332 244 332 209Q332 176 379 176H440Q475 176 475 143V31ZM424 51V125H385Q341 125 311 150T280 211Q280 295 387 295H424V373H358Q281 373 238 337Q199 305 199 254Q199 238 206 215T213 178Q213 125 156 125H137V51H424Z"  />
<glyph unicode="&#x622;" arabic-form="terminal" horiz-adv-x="379" d="M395 0H238Q170 0 128 40T86 145V1300Q86 1333 115 1333Q131 1333 152 1309Q177 1278 233 1264Q375 1228 375 1087V274H395V223H367Q324 223 324 305V1055Q324 1181 236 1206Q174 1224 137 1257V145Q137 51 233 51H395V0ZM444 1468Q444 1458 427 1447T391 1428Q369 1419 349 1416T307 1413Q283 1413 258 1419T210 1431T165 1444T125 1450Q106 1450 90 1445T60 1434T35 1423T17 1418Q-10 1418 -10 1445V1536Q-10 1546 7 1557T43 1576Q65 1585 84 1586T125 1588Q149 1588 174 1582T222 1569T267 1556T307 1550Q326 1550 342 1555T373 1566T399 1578T417 1583Q444 1583 444 1556V1468ZM407 1540Q381 1526 357 1520T307 1513Q282 1513 260 1519T217 1531T174 1544T125 1550Q99 1550 75 1545T27 1524V1461Q53 1475 76 1481T125 1487Q150 1487 172 1481T215 1469T258 1456T307 1450Q333 1450 358 1456T407 1477V1540Z"  />
<glyph unicode="&#x622;" arabic-form="isolated" horiz-adv-x="463" d="M375 31Q375 0 342 0H121Q86 0 86 31V1087Q86 1228 227 1264Q284 1278 309 1309Q329 1333 346 1333Q375 1333 375 1300V31ZM324 51V1260Q287 1226 225 1208Q137 1183 137 1057V51H324ZM460 1468Q460 1458 443 1447T407 1428Q385 1419 365 1416T323 1413Q299 1413 274 1419T226 1431T181 1444T141 1450Q122 1450 106 1445T76 1434T51 1423T33 1418Q6 1418 6 1445V1536Q6 1546 23 1557T59 1576Q81 1585 100 1586T141 1588Q165 1588 190 1582T238 1569T283 1556T323 1550Q342 1550 358 1555T389 1566T415 1578T433 1583Q460 1583 460 1556V1468ZM423 1540Q397 1526 373 1520T323 1513Q298 1513 276 1519T233 1531T190 1544T141 1550Q115 1550 91 1545T43 1524V1461Q69 1475 92 1481T141 1487Q166 1487 188 1481T231 1469T274 1456T323 1450Q349 1450 374 1456T423 1477V1540Z"  />
<glyph unicode="&#x623;" arabic-form="terminal" horiz-adv-x="379" d="M369 1442Q369 1413 338 1413H115Q88 1413 88 1442V1511Q88 1540 113 1540H141Q141 1544 137 1563T133 1599Q133 1652 172 1686Q208 1718 262 1718H340Q369 1718 369 1688V1616Q369 1589 340 1589H293Q264 1589 264 1563Q264 1542 293 1542H342Q369 1542 369 1511V1442ZM395 0H238Q170 0 128 40T86 145V1300Q86 1333 115 1333Q131 1333 152 1309Q177 1278 233 1264Q375 1228 375 1087V274H395V223H367Q324 223 324 305V1055Q324 1181 236 1206Q174 1224 137 1257V145Q137 51 233 51H395V0ZM334 1448V1507H295Q229 1507 229 1563Q229 1624 293 1624H334V1683H279Q168 1683 168 1589Q168 1576 172 1562T176 1540Q185 1507 150 1507H123V1448H334Z"  />
<glyph unicode="&#x623;" arabic-form="isolated" horiz-adv-x="463" d="M369 1442Q369 1413 338 1413H115Q88 1413 88 1442V1511Q88 1540 113 1540H141Q141 1544 137 1563T133 1599Q133 1652 172 1686Q208 1718 262 1718H340Q369 1718 369 1688V1616Q369 1589 340 1589H293Q264 1589 264 1563Q264 1542 293 1542H342Q369 1542 369 1511V1442ZM375 31Q375 0 342 0H121Q86 0 86 31V1087Q86 1228 227 1264Q284 1278 309 1309Q329 1333 346 1333Q375 1333 375 1300V31ZM334 1448V1507H295Q229 1507 229 1563Q229 1624 293 1624H334V1683H279Q168 1683 168 1589Q168 1576 172 1562T176 1540Q185 1507 150 1507H123V1448H334ZM324 51V1260Q287 1226 225 1208Q137 1183 137 1057V51H324Z"  />
</font>
</defs>
</svg>
