<?xml  version="1.0" encoding="UTF-8"?>
<!DOCTYPE svg PUBLIC "-//W3C//DTD SVG 1.0//EN" "http://www.w3.org/TR/2001/REC-SVG-20010904/DTD/svg10.dtd" >
<svg xmlns="http://www.w3.org/2000/svg" >
<metadata>
<version>1.0</version>
<id><![CDATA[Arian LT Light]]></id>
<vendor>Monotype Imaging Inc.</vendor>
<credits>
<name>Fonts.com WebFonts</name>
<URL>http://webfonts.fonts.com</URL>
<role>Home of the Web fonts</role>
</credits>
<license>
<URL>http://webfonts.fonts.com/Legal</URL>
</license>
<copyright><![CDATA[Copyright © 2009 -2010 Linotype GmbH, www.linotype.com. All rights reserved. This font software may not be reproduced, modified, disclosed or transferred without the express written approval of Linotype GmbH. Arian is a trademark of Linotype GmbH and may be registered in certain jurisdictions. This typeface is original artwork of Naghi Naghashian. The design may be protected in certain jurisdictions.]]></copyright>
<trademark><![CDATA[Arian is a trademark of Linotype GmbH and may be registered in certain jurisdictions.]]></trademark>
<licensee>
<name></name>
</licensee>
</metadata>
<defs >
<font horiz-adv-x="625" id="da80aad9-b3bc-417c-963f-b9033a872ec1">
<font-face font-family="" panose-1="2 11 3 5 2 2 2 5 2 4" ascent="924" descent="-300" units-per-em="1000" alphabetic="0">
</font-face>
<missing-glyph horiz-adv-x="403" d="M174 92V144H218V92H174ZM175 184V198Q175 219 177 233T184 260T198 283T222 306Q247 331 254 345T261 373Q261 401 243 420T201 439Q177 439 160 422T137 364L97 371Q103 428 132 453T203 479Q247 479 274 451T301 376Q301 350 291 330T251 282Q237 269 230 261T218 244T214 225T213 198V184H175ZM364 39V525H39V39H364ZM403 564V0H0V564H403Z"  />

<glyph unicode="&#xA;" />
<glyph unicode="&#xD;" horiz-adv-x="0" />
<glyph unicode=" " horiz-adv-x="281" />
<glyph unicode="!" horiz-adv-x="202" d="M124 0H77V74H124V0ZM120 138H81L78 564H123L120 138Z"  />
<glyph unicode="&quot;" horiz-adv-x="293" d="M100 392H66V588H100V392ZM227 392H193V588H227V392Z"  />
<glyph unicode="#" horiz-adv-x="623" d="M378 0H344L381 179H203L164 0H129L167 179H56V212H174L211 386H85V419H218L249 564H284L253 419H432L463 564H498L466 419H585V386H460L422 212H554V179H416L378 0ZM388 212L425 386H246L208 212H388Z"  />
<glyph unicode="$" horiz-adv-x="700" d="M339 622H369V571Q454 570 505 563T585 538T623 488T633 408V395H589V406Q589 445 582 469T553 507T486 526T369 531V309Q460 309 516 302T602 277T642 232T652 161V149Q652 101 640 71T598 23T515 -1T380 -7H369V-67H339V-7Q240 -7 183 -1T97 23T59 73T51 159V173H95V160Q95 118 101 93T132 55T206 37T339 33V269Q247 269 194 276T112 300T75 345T67 416V427Q67 469 78 496T120 540T203 564T339 571V622ZM377 33Q449 33 494 37T564 54T598 89T607 149V160Q607 191 600 211T567 244T495 262T369 269V33H377ZM112 417Q112 386 117 366T145 333T213 315T339 309V531Q266 531 222 527T153 511T120 479T112 427V417Z"  />
<glyph unicode="%" horiz-adv-x="718" d="M178 321Q142 321 119 325T82 343T63 379T58 439V447Q58 483 63 506T81 542T118 560T178 565H187Q224 565 247 560T283 542T302 506T307 447V439Q307 402 302 379T284 343T247 326T187 321H178ZM186 349Q216 349 233 352T260 364T273 392T276 439V447Q276 476 273 494T261 521T234 534T186 538H179Q149 538 132 535T105 522T93 494T90 447V439Q90 410 93 392T105 365T131 352T179 349H186ZM225 0H193L481 564H513L225 0ZM531 -1Q495 -1 472 3T435 21T417 57T412 117V124Q412 161 417 184T435 220T471 238T531 243H540Q577 243 600 238T637 220T656 184T661 124V117Q661 80 656 57T638 21T601 4T540 -1H531ZM539 27Q569 27 586 30T613 42T626 70T629 117V124Q629 154 626 172T614 199T587 212T539 216H533Q503 216 486 213T459 200T446 172T443 124V117Q443 88 446 70T458 43T485 30T533 27H539Z"  />
<glyph unicode="&amp;" horiz-adv-x="804" d="M784 33L766 -1L654 60Q643 40 627 28T581 7T502 -4T373 -7H358Q255 -7 195 -1T103 23T63 75T54 164V175Q54 209 58 235T75 280T111 310T173 324Q158 332 147 341T129 362T117 391T113 431V442Q113 482 121 507T154 546T228 566T358 571H373Q454 571 502 567T574 547T606 505T614 431V425H571V431Q571 464 566 484T542 514T483 528T373 531H358Q288 531 248 528T188 516T163 488T158 439V429Q158 412 160 400T172 378T198 356T245 328L628 119Q633 138 633 165T634 225V278H677V230Q677 182 676 149T668 97L784 33ZM369 33Q438 33 482 35T553 42T594 57T616 81L203 304Q166 301 145 292T114 266T102 228T99 178V169Q99 123 105 96T136 55T213 37T355 33H369Z"  />
<glyph unicode="&apos;" horiz-adv-x="166" d="M100 392H66V588H100V392Z"  />
<glyph unicode="(" horiz-adv-x="286" d="M237 -7H223Q170 -7 137 0T85 35T60 119T53 274V290Q53 389 59 445T85 529T137 564T223 571H237V537H224Q181 537 156 532T117 501T99 426T95 287V277Q95 188 99 138T116 64T155 33T224 27H237V-7Z"  />
<glyph unicode=")" horiz-adv-x="286" d="M50 -7V27H62Q105 27 130 33T169 63T187 138T192 277V287Q192 376 188 426T170 501T131 531T62 537H50V571H63Q116 571 149 564T201 530T226 446T233 290V274Q233 175 227 119T201 35T149 0T63 -7H50Z"  />
<glyph unicode="*" horiz-adv-x="403" d="M218 569L214 464H188L184 569H218ZM344 490L246 437L236 455L330 515L344 490ZM330 335L236 396L246 413L344 361L330 335ZM184 282L188 387H214L218 282H184ZM58 361L157 413L167 396L73 335L58 361ZM73 515L167 455L157 437L58 490L73 515Z"  />
<glyph unicode="+" horiz-adv-x="542" d="M288 51H254V237H66V269H254V452H288V269H476V237H288V51Z"  />
<glyph unicode="&#x2c;" horiz-adv-x="183" d="M115 -29Q115 -68 101 -81T54 -94V-67Q71 -67 78 -59T85 -27V0H68V74H115V-29Z"  />
<glyph unicode="-" horiz-adv-x="383" d="M325 192H58V227H325V192Z"  />
<glyph unicode="." horiz-adv-x="183" d="M115 0H68V74H115V0Z"  />
<glyph unicode="/" horiz-adv-x="430" d="M336 571H373L92 -7H56L336 571Z"  />
<glyph unicode="0" horiz-adv-x="717" d="M368 32Q452 32 502 39T578 71T611 145T619 277V287Q619 370 612 418T578 492T502 525T368 533H349Q265 533 215 526T139 493T106 419T98 287V277Q98 194 105 146T139 72T215 39T349 32H368ZM348 -7Q253 -7 196 2T107 41T65 126T54 274V290Q54 382 64 437T106 522T195 561T348 571H369Q464 571 521 562T610 523T652 438T663 290V274Q663 182 653 127T611 42T522 3T369 -7H348Z"  />
<glyph unicode="1" horiz-adv-x="413" d="M288 0H245V521H242L34 344L8 375L229 564H288V0Z"  />
<glyph unicode="2" horiz-adv-x="687" d="M645 0H48Q47 13 47 35T47 69Q47 132 58 170T102 228T196 256T357 267Q430 270 476 275T548 294T583 333T593 402V414Q593 452 584 475T549 511T478 528T361 533H346Q268 533 222 529T153 511T122 471T115 402V390H72V402Q72 456 82 489T122 541T205 565T344 571H359Q443 571 497 565T582 542T625 496T637 418V402Q637 348 624 315T579 264T497 239T373 229Q274 226 218 221T133 200T98 156T91 75V37H645V0Z"  />
<glyph unicode="3" horiz-adv-x="701" d="M655 151Q655 101 645 71T602 23T511 -1T354 -7H328Q240 -7 186 -2T103 21T64 71T54 160V174H97V161Q97 119 103 94T132 55T202 37T329 32H353Q442 32 493 36T571 53T604 90T611 155V167Q611 198 605 218T582 250T533 266T452 271H263V308H452Q494 308 522 313T566 331T590 362T597 411V424Q597 458 590 479T559 512T487 528T358 533H343Q270 533 226 530T157 514T124 476T115 405V392H72V406Q72 460 83 493T124 543T206 565T342 571H359Q448 571 503 566T589 545T630 501T641 429V414Q641 357 621 329T544 292V290Q570 287 590 282T625 263T647 226T655 164V151Z"  />
<glyph unicode="4" horiz-adv-x="714" d="M567 0H525V135H49V188L505 564H567V173H670V135H567V0ZM525 173V525H519L96 177V173H525Z"  />
<glyph unicode="5" horiz-adv-x="711" d="M334 -7Q245 -7 191 -2T107 20T68 70T58 157V169H100V158Q100 114 108 89T141 52T213 36T338 32H361Q448 32 499 37T578 56T612 97T620 168V187Q620 232 614 259T585 301T517 321T392 326H363Q299 326 256 325T184 318T139 301T113 270H69V564H647V528H112V307H113Q122 324 137 335T182 353T256 362T371 365H399Q488 365 540 358T620 331T656 277T664 190V167Q664 113 654 80T611 27T518 0T359 -7H334Z"  />
<glyph unicode="6" horiz-adv-x="710" d="M348 -7Q249 -7 192 0T104 32T66 105T57 238V289Q57 385 68 441T111 526T203 563T359 571H376Q458 571 510 566T591 543T632 494T643 409V397H601V408Q601 450 593 475T559 512T490 529T375 533H360Q274 533 223 527T145 496T110 425T101 295V266H102Q110 282 124 294T166 315T237 328T349 333H367Q461 333 518 327T606 303T647 253T657 170V155Q657 105 647 74T606 24T518 0T367 -7H348ZM366 32Q451 32 500 36T575 54T606 92T613 157V172Q613 211 605 235T572 273T497 290T366 295H349Q278 295 231 291T154 277T113 249T101 204V198Q101 141 109 108T142 58T217 37T349 32H366Z"  />
<glyph unicode="7" horiz-adv-x="687" d="M209 0H155L598 525V526H35V564H652V524L209 0Z"  />
<glyph unicode="8" horiz-adv-x="702" d="M360 310Q440 310 486 313T556 327T586 360T593 420V428Q593 462 586 483T553 515T482 530T360 534H342Q265 534 220 531T149 516T117 483T109 428V420Q109 383 115 361T145 328T215 314T342 310H360ZM360 32Q445 32 494 36T569 52T600 87T607 148V157Q607 199 597 222T560 257T485 270T360 272H342Q266 272 218 270T143 257T105 223T95 157V148Q95 110 101 87T133 52T207 36T342 32H360ZM342 -7Q246 -7 189 -2T101 20T61 65T51 142V150Q51 191 58 216T82 257T122 280T178 290V292Q146 296 125 303T91 324T72 361T66 424V432Q66 475 75 502T114 545T198 565T342 571H360Q450 571 504 566T588 545T627 503T637 432V424Q637 386 631 362T612 324T577 303T523 292V290Q555 287 579 280T619 258T643 217T651 150V142Q651 94 642 65T603 20T515 -1T360 -7H342Z"  />
<glyph unicode="9" horiz-adv-x="710" d="M333 -7Q250 -7 197 -2T114 21T73 70T61 155V168H104V156Q104 115 111 91T143 54T213 36T334 32H348Q436 32 488 38T567 68T601 139T609 269V298H608Q600 283 587 271T546 250T476 237T363 232H345Q251 232 194 237T106 260T65 309T55 394V409Q55 459 65 490T107 540T195 564T345 571H364Q463 571 520 564T607 532T645 459T654 326V276Q654 180 644 124T601 39T508 1T349 -7H333ZM364 270Q434 270 481 274T557 288T598 315T610 361V368Q610 423 603 456T571 506T496 528T364 533H345Q264 533 215 528T141 510T107 472T99 408V393Q99 350 108 326T143 289T217 273T345 270H364Z"  />
<glyph unicode=":" horiz-adv-x="193" d="M120 325H73V398H120V325ZM120 0H73V74H120V0Z"  />
<glyph unicode=";" horiz-adv-x="193" d="M120 325H73V398H120V325ZM120 -29Q120 -68 106 -81T59 -94V-67Q76 -67 83 -59T90 -27V0H73V74H120V-29Z"  />
<glyph unicode="&lt;" horiz-adv-x="542" d="M476 53L66 237V268L476 452V417L109 252V251L476 89V53Z"  />
<glyph unicode="=" horiz-adv-x="542" d="M476 307H66V339H476V307ZM476 159H66V192H476V159Z"  />
<glyph unicode="&gt;" horiz-adv-x="542" d="M476 237L66 53V89L433 251V252L66 417V452L476 268V237Z"  />
<glyph unicode="?" horiz-adv-x="627" d="M294 166H251V173Q251 199 255 217T271 246T308 265T372 276Q431 282 465 290T516 313T537 349T542 405V417Q542 452 536 474T507 510T441 528T325 533H310Q240 533 198 529T133 510T103 471T96 405V392H54V405Q54 456 64 488T102 538T180 564T310 571H325Q409 571 460 564T538 540T575 493T584 419V404Q584 363 578 336T552 289T495 259T394 242Q360 238 340 234T310 222T297 205T294 178V166ZM296 0H250V74H296V0Z"  />
<glyph unicode="@" horiz-adv-x="850" d="M430 90Q480 90 510 95T557 114T578 154T583 222V232Q583 276 577 301T553 340T507 358T430 362H416Q371 362 343 357T298 337T277 298T271 232V222Q271 181 276 156T298 116T342 96T416 90H430ZM774 5Q774 -24 762 -42T714 -71T612 -86T439 -90H415Q336 -90 279 -87T182 -74T118 -45T80 5T62 82T57 191V241Q57 303 61 348T79 425T117 476T182 505T279 519T415 523H437Q555 523 625 515T733 479T781 396T793 249V207Q793 162 788 133T770 88T736 65T684 59Q639 59 619 73T590 120H588Q580 101 569 88T540 67T494 56T426 52H411Q358 52 323 59T267 84T238 136T229 221V232Q229 282 237 314T267 365T323 391T411 399H426Q465 399 491 397T535 388T564 368T585 333H587V393H626V154Q626 119 640 106T687 92Q707 92 721 95T744 110T757 146T761 212V246Q761 304 758 345T744 413T712 457T655 481T566 491T438 494H415Q304 494 239 487T141 454T99 377T89 237V194Q89 106 98 55T140 -21T239 -54T415 -61H438Q542 -61 603 -58T695 -47T736 -26T745 6V11H774V5Z"  />
<glyph unicode="A" horiz-adv-x="713" d="M713 0H664L590 132H124L48 0H0L329 564H391L713 0ZM570 168L364 530H355L145 168H570Z"  />
<glyph unicode="B" horiz-adv-x="730" d="M72 0V564H463Q518 564 555 559T616 538T649 495T659 425Q659 390 652 366T631 327T600 305T561 295Q622 291 651 261T681 158Q681 112 672 82T639 33T576 8T476 0H72ZM471 40Q524 40 556 45T607 63T631 98T637 157Q637 193 630 215T606 251T563 269T498 274H117V40H471ZM490 313Q525 313 549 318T587 335T608 368T615 420Q615 453 609 473T585 505T539 521T462 525H117V313H490Z"  />
<glyph unicode="C" horiz-adv-x="785" d="M387 -7Q281 -7 217 2T117 42T69 127T57 274V290Q57 380 69 435T116 520T216 560T387 571H410Q510 571 571 565T665 541T709 491T720 408V397H676V406Q676 445 669 469T634 507T553 526T409 531H388Q293 531 237 524T150 491T111 417T102 287V277Q102 196 110 148T149 75T235 41T388 33H409Q503 33 558 38T641 57T677 95T685 160V168H728V156Q728 105 716 73T669 24T572 0T411 -7H387Z"  />
<glyph unicode="D" horiz-adv-x="806" d="M747 274Q747 185 737 131T692 48T591 10T412 0H72V564H412Q485 564 538 561T629 548T690 520T725 472T742 397T747 290V274ZM410 40Q512 40 570 46T657 77T694 149T702 277V287Q702 369 694 416T657 488T569 518T410 525H117V40H410Z"  />
<glyph unicode="E" horiz-adv-x="637" d="M608 0H72V564H606V525H117V312H586V273H117V40H608V0Z"  />
<glyph unicode="F" horiz-adv-x="621" d="M117 0H72V564H601V525H117V301H581V261H117V0Z"  />
<glyph unicode="G" horiz-adv-x="788" d="M387 -7Q281 -7 216 3T116 43T69 128T57 274V290Q57 380 69 435T116 520T216 561T387 571H410Q510 571 571 564T665 539T709 490T720 409V398H676V407Q676 444 668 468T633 506T552 525T409 531H388Q293 531 237 524T150 491T111 417T102 287V277Q102 196 111 148T150 74T236 41T388 33H409Q502 33 556 39T639 61T676 106T684 180V234H357V273H728V180Q728 121 716 85T669 28T572 1T411 -7H387Z"  />
<glyph unicode="H" horiz-adv-x="789" d="M717 0H672V276H117V0H72V564H117V315H672V564H717V0Z"  />
<glyph unicode="I" horiz-adv-x="189" d="M117 0H72V564H117V0Z"  />
<glyph unicode="J" horiz-adv-x="604" d="M248 -7Q175 -7 132 -2T65 21T34 72T27 159V175H71V164Q71 120 75 94T98 55T151 37T248 33H270Q346 33 390 38T456 61T484 118T490 222V564H535V220Q535 146 526 101T490 32T410 1T271 -7H248Z"  />
<glyph unicode="K" horiz-adv-x="715" d="M712 0H637L222 268H117V0H72V564H117V305H223L619 564H688L262 288L712 0Z"  />
<glyph unicode="L" horiz-adv-x="582" d="M572 0H72V564H117V40H572V0Z"  />
<glyph unicode="M" horiz-adv-x="989" d="M917 0H872V525H871L516 0H476L120 525H117V0H72V564H147L497 47H500L846 564H917V0Z"  />
<glyph unicode="N" horiz-adv-x="812" d="M740 0H666L121 526H117V0H72V564H147L691 38H695V564H740V0Z"  />
<glyph unicode="O" horiz-adv-x="811" d="M394 -7Q287 -7 221 3T119 43T70 128T57 274V290Q57 381 69 436T118 521T221 561T394 571H417Q524 571 590 561T692 521T741 436T754 290V274Q754 183 742 128T693 43T590 3T417 -7H394ZM417 33Q514 33 572 41T660 74T700 148T709 277V287Q709 368 700 416T661 489T572 523T417 531H395Q297 531 240 523T151 490T111 416T102 287V277Q102 196 111 148T151 75T239 41T395 33H417Z"  />
<glyph unicode="P" horiz-adv-x="724" d="M420 270Q497 270 541 274T608 291T636 328T642 392V404Q642 444 637 467T609 504T542 521T420 525H117V270H420ZM117 0H72V564H431Q512 564 562 559T639 536T676 488T686 404V393Q686 340 676 308T638 259T560 236T431 230H117V0Z"  />
<glyph unicode="Q" horiz-adv-x="814" d="M394 -7Q287 -7 221 3T119 43T70 128T57 274V290Q57 381 69 436T118 521T221 561T394 571H417Q524 571 590 561T692 521T741 436T754 290V274Q754 210 748 165T726 88L808 34L788 2L705 56Q687 37 662 25T602 5T521 -4T417 -7H394ZM460 262L689 112Q701 140 705 180T709 277V287Q709 368 700 416T661 489T572 523T417 531H395Q297 531 240 523T151 490T111 416T102 287V277Q102 196 111 148T151 75T239 41T395 33H417Q468 33 508 35T578 42T629 56T666 80L437 228L460 262Z"  />
<glyph unicode="R" horiz-adv-x="745" d="M481 274Q527 274 557 280T604 299T629 336T636 393V412Q636 448 630 470T605 504T552 520T461 525H117V274H481ZM680 0H635V69Q635 120 630 152T607 203T554 227T459 234H117V0H72V564H471Q534 564 575 557T639 534T672 489T681 419V398Q681 357 674 332T654 291T620 268T575 256V255Q605 250 625 241T658 215T675 171T680 104V0Z"  />
<glyph unicode="S" horiz-adv-x="723" d="M665 149Q665 101 653 71T611 23T527 -1T392 -7H366Q261 -7 201 -1T109 22T69 72T60 159V173H104V160Q104 118 111 93T144 54T222 37T364 33H388Q461 33 506 37T576 54T611 89T620 149V160Q620 192 612 213T578 246T502 264T366 269Q268 269 211 275T123 299T85 344T76 416V427Q76 469 87 496T128 540T209 564T339 571H357Q450 571 507 565T595 540T636 491T647 408V395H603V406Q603 446 596 470T564 508T491 526T362 531H344Q273 531 229 527T161 511T129 479T121 427V417Q121 385 127 364T157 331T232 314T369 309Q465 309 523 302T613 278T655 233T665 161V149Z"  />
<glyph unicode="T" horiz-adv-x="646" d="M345 0H300V525H10V564H636V525H345V0Z"  />
<glyph unicode="U" horiz-adv-x="784" d="M382 -7Q281 -7 220 1T125 31T81 92T70 194V564H115V199Q115 147 122 115T157 64T236 40T377 33H403Q491 33 544 39T625 63T661 113T670 199V564H715V194Q715 132 704 93T658 31T562 1T398 -7H382Z"  />
<glyph unicode="V" horiz-adv-x="708" d="M384 0H329L2 564H53L355 41H359L657 564H706L384 0Z"  />
<glyph unicode="W" horiz-adv-x="1072" d="M815 0H762L538 518H536L312 0H257L16 564H62L285 40H286L513 564H562L788 40H791L1010 564H1057L815 0Z"  />
<glyph unicode="X" horiz-adv-x="728" d="M715 0H657L364 273L71 0H13L330 295L45 564H103L364 318L628 564H684L398 295L715 0Z"  />
<glyph unicode="Y" horiz-adv-x="710" d="M378 0H333V219L2 564H61L356 257H358L651 564H709L378 219V0Z"  />
<glyph unicode="Z" horiz-adv-x="706" d="M668 0H37V37L605 525V526H59V564H664V523L102 39V38H668V0Z"  />
<glyph unicode="[" horiz-adv-x="286" d="M227 -7H66V571H227V538H108V27H227V-7Z"  />
<glyph unicode="\" horiz-adv-x="432" d="M373 -7H337L56 571H93L373 -7Z"  />
<glyph unicode="]" horiz-adv-x="286" d="M220 -7H60V27H178V538H60V571H220V-7Z"  />
<glyph unicode="^" horiz-adv-x="559" d="M532 251H487L279 533H278L71 251H26L259 564H299L532 251Z"  />
<glyph unicode="_" horiz-adv-x="511" d="M511 -102H0V-75H511V-102Z"  />
<glyph unicode="`" horiz-adv-x="415" d="M247 454L111 553L135 583L262 473L247 454Z"  />
<glyph unicode="a" horiz-adv-x="568" d="M505 0H463V47H461Q450 32 436 22T399 5T346 -4T270 -7H255Q191 -7 151 -1T89 18T58 55T50 112V120Q50 154 59 177T91 214T152 233T247 239H262Q309 239 342 237T398 230T435 215T460 192H462V222Q462 270 457 299T433 343T377 363T277 368H264Q214 368 184 364T136 351T113 326T107 289V281H66V290Q66 326 76 348T111 383T172 400T264 405H279Q352 405 396 399T465 373T497 316T505 216V0ZM271 31Q334 31 372 35T430 48T456 74T463 115V120Q463 146 455 162T425 187T366 199T271 202H256Q203 202 171 199T121 186T97 161T91 119V115Q91 88 97 72T122 46T173 34T257 31H271Z"  />
<glyph unicode="b" horiz-adv-x="610" d="M320 -7Q268 -7 233 -3T173 10T135 33T112 69H110V0H69V564H111V332H113Q122 354 137 368T176 390T234 401T318 405H334Q403 405 447 398T516 368T550 308T559 206V195Q559 133 550 94T516 33T448 2T334 -7H320ZM328 31Q390 31 427 37T484 60T510 110T517 195V206Q517 258 511 289T484 338T427 362T328 368H310Q246 368 207 363T147 341T118 292T110 206V195Q110 142 117 110T145 61T206 37T310 31H328Z"  />
<glyph unicode="c" horiz-adv-x="589" d="M295 -7Q220 -7 173 1T98 30T61 91T51 193V206Q51 269 61 308T98 368T172 397T295 405H314Q380 405 423 400T491 379T526 338T536 271V261H496V267Q496 298 489 317T461 348T406 363T313 368H295Q229 368 189 362T128 339T100 290T93 206V193Q93 142 100 110T128 61T189 37T295 31H313Q371 31 407 35T463 52T491 84T499 135V143H539V132Q539 91 529 64T492 21T423 -1T314 -7H295Z"  />
<glyph unicode="d" horiz-adv-x="610" d="M541 0H500V69H498Q489 48 475 34T437 10T378 -3T290 -7H276Q206 -7 162 1T94 32T60 94T51 195V206Q51 269 60 307T94 368T163 397T276 405H291Q340 405 375 402T434 390T473 368T497 332H499V564H541V0ZM300 31Q364 31 403 37T463 60T492 110T499 195V206Q499 260 492 292T464 341T403 363T300 368H283Q220 368 183 362T125 339T99 290T93 206V195Q93 142 99 110T126 61T183 37T283 31H300Z"  />
<glyph unicode="e" horiz-adv-x="587" d="M295 -7Q219 -7 172 1T97 32T61 94T51 195V205Q51 268 61 307T97 368T170 397T288 405H305Q375 405 419 398T489 373T524 322T534 241V197H93V188Q93 139 100 109T129 61T190 37T295 31H310Q369 31 405 35T462 51T489 81T496 129V136H537V128Q537 88 526 62T490 21T421 -1T313 -7H295ZM492 233V247Q492 283 486 306T459 343T402 362T304 368H290Q227 368 189 363T130 343T102 302T94 233H492Z"  />
<glyph unicode="f" horiz-adv-x="268" d="M134 0H92V363H12V398H92V441Q92 470 98 494T118 535T157 561T218 570Q239 570 256 569T291 566V530Q272 533 257 534T227 535Q198 535 180 530T151 514T138 485T134 439V398H269V363H134V0Z"  />
<glyph unicode="g" horiz-adv-x="608" d="M271 -148Q210 -148 169 -144T103 -126T68 -89T57 -27V-17H99V-25Q99 -49 105 -65T129 -92T181 -106T271 -110H294Q362 -110 402 -106T464 -85T491 -37T497 47V103H496Q488 82 474 68T437 44T378 31T290 27H276Q207 27 163 35T95 63T61 119T51 211V222Q51 278 60 313T94 369T163 397T276 405H290Q338 405 373 402T432 390T471 367T496 330H498V398H539V51Q539 -15 529 -54T492 -114T418 -141T294 -148H271ZM299 64Q363 64 402 70T462 92T490 138T497 212V222Q497 266 490 294T461 339T401 362T299 368H282Q220 368 183 363T126 341T100 297T93 222V212Q93 165 99 137T126 92T183 70T282 64H299Z"  />
<glyph unicode="h" horiz-adv-x="606" d="M541 0H499V221Q499 267 493 295T468 340T415 362T324 368H310Q260 368 223 362T160 340T123 295T111 222V0H69V564H111V316H112Q122 338 135 354T172 382T230 399T318 405H332Q394 405 434 398T498 373T531 322T541 238V0Z"  />
<glyph unicode="i" horiz-adv-x="180" d="M111 0H69V398H111V0ZM111 500H69V564H111V500Z"  />
<glyph unicode="j" horiz-adv-x="180" d="M111 -22Q111 -91 93 -117T29 -144Q21 -144 12 -144T-8 -143V-105Q2 -107 8 -107T21 -107Q34 -107 43 -104T58 -93T66 -70T69 -30V398H111V-22ZM111 500H69V564H111V500Z"  />
<glyph unicode="k" horiz-adv-x="506" d="M506 0H440L144 198H111V0H69V564H111V231H149L405 398H467L183 213L506 0Z"  />
<glyph unicode="l" horiz-adv-x="180" d="M111 0H69V564H111V0Z"  />
<glyph unicode="m" horiz-adv-x="940" d="M876 0H834V221Q834 267 828 296T806 341T759 362T681 368H667Q625 368 593 361T538 336T505 289T494 214V0H452V222Q452 270 446 299T422 343T376 363T300 368H287Q244 368 212 361T157 338T123 293T111 222V0H69V398H111V316H112Q128 356 169 380T295 405H308Q359 405 391 399T443 381T472 349T487 304H488Q494 323 506 341T540 374T595 396T676 405H691Q746 405 781 398T838 373T867 323T876 242V0Z"  />
<glyph unicode="n" horiz-adv-x="606" d="M541 0H499V221Q499 267 493 295T468 340T415 362T324 368H310Q260 368 223 362T160 340T123 295T111 222V0H69V398H111V316H112Q122 338 135 354T172 382T230 399T318 405H332Q394 405 434 398T498 373T531 322T541 238V0Z"  />
<glyph unicode="o" horiz-adv-x="608" d="M313 31Q380 31 420 36T481 59T508 108T515 193V206Q515 259 509 291T481 340T420 362T313 368H295Q228 368 188 363T127 340T100 291T93 206V193Q93 140 99 108T127 59T188 37T295 31H313ZM295 -7Q218 -7 171 0T97 29T61 90T51 193V206Q51 269 60 308T96 368T170 397T295 405H314Q391 405 438 398T512 369T548 308T557 206V193Q557 130 548 91T513 30T439 1T314 -7H295Z"  />
<glyph unicode="p" horiz-adv-x="610" d="M111 -141H69V398H110V331H112Q121 352 135 366T173 389T232 401T320 405H334Q404 405 447 397T516 368T550 307T559 205V194Q559 132 550 93T516 32T447 2T334 -7H318Q269 -7 235 -4T176 9T137 32T113 68H111V-141ZM328 31Q390 31 427 37T484 60T510 110T517 195V206Q517 258 511 290T484 339T427 362T328 368H310Q246 368 207 363T146 341T117 292T110 206V195Q110 142 117 110T146 61T207 37T310 31H328Z"  />
<glyph unicode="q" horiz-adv-x="610" d="M541 -141H499V68H497Q488 47 473 33T434 9T375 -3T291 -7H276Q207 -7 163 1T94 31T60 92T51 194V205Q51 267 60 306T93 367T162 397T276 405H290Q341 405 376 402T436 390T474 367T498 331H500V398H541V-141ZM300 31Q364 31 403 36T463 59T492 109T499 195V206Q499 259 492 291T464 340T403 362T300 368H283Q220 368 183 362T125 339T99 290T93 206V195Q93 142 99 110T125 61T182 37T283 31H300Z"  />
<glyph unicode="r" horiz-adv-x="510" d="M111 0H69V398H110V313H112Q121 337 135 354T171 382T223 399T296 405H306Q364 405 399 399T453 379T478 340T484 280Q484 275 484 270T483 258H443V273Q443 303 439 322T418 351T373 364T293 368H284Q243 368 211 361T157 338T123 294T111 224V0Z"  />
<glyph unicode="s" horiz-adv-x="575" d="M281 -7Q206 -7 161 -3T91 15T58 51T49 111V120H90V114Q90 88 95 72T119 47T176 35T281 31H312Q369 31 403 34T455 47T478 70T484 108V115Q484 137 479 151T453 173T394 185T288 188Q214 188 170 192T101 209T70 241T62 292V302Q62 331 71 351T103 383T166 400T268 405H292Q357 405 399 401T465 385T499 349T509 289V281H468V287Q468 311 463 326T439 351T386 364T294 368H271Q215 368 182 365T131 354T109 333T104 300V291Q104 271 110 258T135 238T192 228T293 225Q367 225 412 221T483 204T516 171T525 116V108Q525 76 517 54T485 19T420 -1T313 -7H281Z"  />
<glyph unicode="t" horiz-adv-x="461" d="M240 -7Q195 -7 166 0T121 26T98 79T92 168V363H12V398H92V502H134V398H425V363H134V173Q134 126 138 98T154 55T188 36T246 31H263Q303 31 327 36T364 53T380 88T384 143V181H423V137Q423 94 416 66T389 22T339 0T259 -7H240Z"  />
<glyph unicode="u" horiz-adv-x="602" d="M533 0H491V83H490Q481 61 467 44T430 16T371 -1T284 -7H270Q208 -7 168 0T104 27T71 80T61 164V398H103V184Q103 137 109 108T134 61T187 38T279 31H293Q343 31 380 37T442 59T479 104T491 178V398H533V0Z"  />
<glyph unicode="v" horiz-adv-x="527" d="M286 0H237L5 398H53L261 36H264L476 398H522L286 0Z"  />
<glyph unicode="w" horiz-adv-x="803" d="M614 0H563L403 354H400L239 0H188L7 398H52L212 37H216L379 398H422L587 37H589L749 398H795L614 0Z"  />
<glyph unicode="x" horiz-adv-x="535" d="M525 0H469L268 185L64 0H10L238 207L27 398H81L268 227L454 398H508L297 207L525 0Z"  />
<glyph unicode="y" horiz-adv-x="515" d="M54 -108Q63 -109 76 -109T100 -109Q130 -109 150 -105T186 -89T217 -54T255 6H239L5 398H53L269 35H271L465 398H510L325 55Q289 -11 265 -50T217 -110T169 -137T106 -144Q94 -144 80 -144T54 -143V-108Z"  />
<glyph unicode="z" horiz-adv-x="475" d="M450 0H26V36L393 362V363H39V398H449V362L83 37V36H450V0Z"  />
<glyph unicode="{" horiz-adv-x="286" d="M187 -7Q130 -7 108 14T86 92V190Q86 229 76 250T33 272V297Q66 297 76 318T86 379V472Q86 501 91 520T108 550T139 566T187 571H220V538H193Q173 538 160 535T140 522T130 499T127 464V382Q127 337 117 314T70 286V284Q107 279 117 256T127 188V100Q127 79 129 65T139 43T160 31T193 27H220V-7H187Z"  />
<glyph unicode="|" horiz-adv-x="264" d="M149 -58H115V622H149V-58Z"  />
<glyph unicode="}" horiz-adv-x="286" d="M66 -7V27H93Q134 27 146 42T159 100V188Q159 233 169 256T217 284V286Q180 291 170 314T159 382V464Q159 506 147 522T93 538H66V571H100Q128 571 147 567T178 551T195 520T200 472V379Q200 340 210 319T253 297V272Q220 272 210 251T200 190V92Q200 35 178 14T100 -7H66Z"  />
<glyph unicode="~" horiz-adv-x="542" d="M475 285Q453 242 427 221T362 200Q332 200 309 211T265 236Q245 250 226 259T180 269Q149 269 129 251T91 202L66 217Q90 262 117 281T180 301Q211 301 234 291T277 266Q297 252 317 242T362 232Q394 232 413 251T450 300L475 285Z"  />
<glyph unicode="&#xA1;" horiz-adv-x="202" d="M124 325H78V398H124V325ZM124 -166H79L81 261H121L124 -166Z"  />
<glyph unicode="&#xA2;" horiz-adv-x="603" d="M318 -33H288V66Q217 66 172 74T101 104T66 165T56 266V279Q56 340 66 378T101 439T172 469T288 478V564H318V478Q385 478 428 473T497 452T532 411T542 344V334H501V340Q501 371 494 390T467 421T411 436T318 441V104Q376 104 412 108T469 125T497 157T505 208V216H545V205Q545 164 535 137T498 94T428 72T318 66V-33ZM99 266Q99 216 105 185T132 136T189 111T288 104V441Q226 440 189 434T132 410T106 361T99 279V266Z"  />
<glyph unicode="&#xA3;" horiz-adv-x="717" d="M677 0H61V41Q87 48 102 61T127 99T139 159T142 251H47V286H142Q142 383 150 439T185 525T262 562T395 571H410Q479 571 524 566T595 544T631 494T642 408V397H600V408Q600 450 593 474T565 511T507 527T410 531H395Q323 531 282 525T219 495T193 421T187 286H474V251H187Q187 192 183 156T171 97T149 63T115 42V40H677V0Z"  />
<glyph unicode="&#xA4;" horiz-adv-x="627" d="M483 256Q483 292 472 323T438 378T386 414T316 428Q277 428 247 415T194 378T161 324T149 256Q149 220 160 189T194 135T246 99T316 85Q355 85 385 98T438 135T471 189T483 256ZM520 256Q520 178 477 124L554 48L530 25L453 101Q427 77 393 64T316 51Q274 51 240 64T179 101L103 25L79 48L155 124Q135 150 124 183T112 256Q112 296 123 329T155 389L79 465L103 488L179 412Q205 436 239 449T316 462Q358 462 392 449T453 412L530 488L554 465L477 389Q520 335 520 256Z"  />
<glyph unicode="&#xA5;" horiz-adv-x="704" d="M374 0H330V184H64V212H330V228L258 308H64V336H232L26 564H81L353 262H354L622 564H677L471 336H639V308H447L374 228V212H639V184H374V0Z"  />
<glyph unicode="&#xA6;" horiz-adv-x="264" d="M149 354H115V622H149V354ZM149 -58H115V215H149V-58Z"  />
<glyph unicode="&#xA7;" horiz-adv-x="698" d="M636 -37Q636 -73 625 -97T584 -134T499 -153T360 -159H334Q244 -159 190 -153T106 -132T67 -91T57 -24V-10H100V-22Q100 -52 107 -71T138 -101T209 -116T335 -121H357Q436 -121 483 -117T554 -104T585 -77T592 -33V-23Q592 7 586 25T556 54T489 68T370 72H321Q243 72 195 78T120 99T84 139T74 202V217Q74 245 80 264T100 295T139 315T198 325V326Q158 328 134 335T97 356T79 389T74 437V446Q74 485 84 509T124 547T206 566T341 571H360Q450 571 504 566T589 545T629 501T639 426V413H597V424Q597 460 590 481T559 514T488 529T362 533H344Q271 533 227 530T158 517T126 490T118 444V437Q118 409 124 392T151 365T214 352T325 349H370Q454 349 506 344T587 324T626 284T636 218V207Q636 179 632 159T614 125T578 104T518 94V93Q555 89 578 81T614 59T631 24T636 -27V-37ZM358 110Q437 110 483 113T554 126T585 154T592 203V214Q592 244 586 263T556 292T489 306T370 310H351Q274 310 228 306T158 291T126 263T118 219V206Q118 179 124 161T151 131T214 115T325 110H358Z"  />
<glyph unicode="&#xA8;" horiz-adv-x="415" d="M158 500H115V564H158V500ZM304 500H261V564H304V500Z"  />
<glyph unicode="&#xA9;" horiz-adv-x="810" d="M404 117Q339 117 301 123T241 148T214 198T207 281V290Q207 341 213 373T241 422T300 446T404 452H416Q470 452 504 448T559 431T588 398T596 342V333H559V339Q559 366 554 382T533 407T489 418T415 421H405Q351 421 319 417T270 400T248 360T243 290V281Q243 237 248 211T270 171T319 153T405 149H415Q461 149 489 152T534 165T557 190T563 232V241H598V228Q598 195 590 174T561 140T505 122T416 117H404ZM417 17Q518 17 578 23T670 54T711 132T721 277V287Q721 349 717 392T702 464T670 510T616 535T533 546T417 548H393Q292 548 232 542T141 510T100 432T90 287V277Q90 185 99 133T140 55T232 23T393 17H417ZM393 -7Q287 -7 223 0T123 36T77 121T65 274V290Q65 387 76 443T123 527T222 563T393 571H417Q523 571 588 564T688 528T734 443T746 290V274Q746 177 735 121T688 37T588 1T417 -7H393Z"  />
<glyph unicode="&#xAA;" horiz-adv-x="376" d="M186 336Q218 336 239 338T272 346T289 361T294 386V390Q294 406 289 415T271 429T236 435T181 437H172Q141 437 122 435T93 428T79 413T75 388V385Q75 370 78 361T93 346T125 338T178 336H186ZM324 315H294V343H293Q287 334 279 328T259 319T227 313T180 311H171Q132 311 108 314T69 326T50 348T45 385V391Q45 435 72 448T165 462H176Q207 462 227 461T260 456T280 448T293 434H294V452Q294 481 291 498T277 525T245 536T185 539H177Q150 539 132 538T104 531T89 516T85 492V486H56V493Q56 515 62 528T83 550T121 561T179 564H188Q233 564 260 560T301 544T319 509T324 448V315Z"  />
<glyph unicode="&#xAB;" horiz-adv-x="360" d="M171 73L141 59L47 225L141 392L171 378L85 225L171 73ZM309 73L279 59L185 225L279 392L309 378L223 225L309 73Z"  />
<glyph unicode="&#xAC;" horiz-adv-x="542" d="M476 111H442V305H66V338H476V111Z"  />
<glyph unicode="&#xAE;" horiz-adv-x="575" d="M320 393Q355 393 366 400T378 428V434Q378 448 376 456T368 468T349 474T318 476H205V393H320ZM403 290H378V316Q378 335 376 346T366 362T342 369T297 371H205V290H179V496H326Q372 496 388 485T404 437V430Q404 406 394 397T366 383Q386 379 394 369T403 329V290ZM295 242Q359 242 397 246T456 266T483 311T489 390V398Q489 447 483 476T457 520T398 539T295 544H281Q216 544 177 540T118 520T92 476T86 398V390Q86 340 92 311T118 267T177 247T281 242H295ZM281 221Q213 221 171 226T105 250T73 301T64 390V398Q64 454 72 487T104 537T170 560T281 565H295Q363 565 405 560T470 538T502 487T511 398V390Q511 334 503 301T471 250T405 227T295 221H281Z"  />
<glyph unicode="&#xAF;" horiz-adv-x="415" d="M316 514H104V545H316V514Z"  />
<glyph unicode="&#xB0;" horiz-adv-x="337" d="M168 349Q142 349 119 358T80 383T54 422T44 472Q44 499 53 521T79 560T119 586T168 595Q195 595 217 586T257 561T283 522T293 472Q293 445 284 423T257 384T218 358T168 349ZM168 373Q211 373 238 401T266 472Q266 514 239 542T168 570Q126 570 99 542T71 472Q71 451 78 433T99 402T129 381T168 373Z"  />
<glyph unicode="&#xB1;" horiz-adv-x="542" d="M476 0H66V32H476V0ZM476 265H288V110H254V265H66V297H254V455H288V297H476V265Z"  />
<glyph unicode="&#xB2;" horiz-adv-x="431" d="M401 376H37V415Q37 447 44 467T71 500T128 517T225 525Q271 526 299 529T341 540T359 560T364 593V601Q364 619 360 630T341 648T300 657T226 660H217Q171 660 145 658T105 648T87 628T83 594V585H51V595Q51 625 57 643T81 671T131 684T216 688H226Q280 688 313 685T365 672T389 645T396 602V593Q396 567 390 550T366 521T316 504T229 496Q173 494 141 491T94 480T75 456T71 416V403H401V376Z"  />
<glyph unicode="&#xB3;" horiz-adv-x="437" d="M212 373Q155 373 121 376T68 388T43 416T37 466V476H68V466Q68 443 72 430T91 411T135 403T213 401H227Q275 401 303 403T346 411T365 430T369 461V467Q369 483 366 493T353 510T325 519T279 522H162V549H279Q305 549 321 552T345 561T356 577T359 601V609Q359 625 355 635T336 650T295 658T227 660H218Q173 660 146 659T104 651T85 631T80 595V586H48V595Q48 625 54 643T79 672T131 685T218 688H228Q279 688 311 685T361 672T386 649T393 613V604Q393 574 383 558T342 537V536Q373 532 388 518T403 466V458Q403 432 396 416T370 390T317 377T228 373H212Z"  />
<glyph unicode="&#xB4;" horiz-adv-x="415" d="M172 454L157 473L284 583L308 553L172 454Z"  />
<glyph unicode="&#xB5;" horiz-adv-x="614" d="M545 0H503V83H502Q493 62 480 46T445 17T389 -1T307 -7H294Q211 -7 171 12T112 73H111V-181H69V398H111V183Q111 138 122 109T156 62T214 38T300 31H315Q364 31 399 38T458 62T492 107T503 177V398H545V0Z"  />
<glyph unicode="&#xB6;" horiz-adv-x="562" d="M493 -136H458V534H389V-136H354V230H286Q209 230 164 237T94 263T63 313T56 393V404Q56 455 64 486T98 534T170 558T293 564H493V-136Z"  />
<glyph unicode="&#xB7;" horiz-adv-x="183" d="M115 184H68V258H115V184Z"  />
<glyph unicode="&#xB8;" horiz-adv-x="295" d="M60 -134L43 -117L169 -7L196 -36L60 -134Z"  />
<glyph unicode="&#xB9;" horiz-adv-x="259" d="M207 376H174V651H172L58 559L39 583L166 685H207V376Z"  />
<glyph unicode="&#xBA;" horiz-adv-x="394" d="M203 339Q242 339 265 342T301 355T317 383T321 432V443Q321 473 317 491T301 520T266 533T203 537H193Q154 537 131 534T95 520T78 492T74 443V432Q74 402 78 384T94 356T130 343T193 339H203ZM193 311Q146 311 117 315T72 333T49 370T43 432V443Q43 481 49 505T71 542T117 559T193 564H203Q249 564 278 560T324 542T346 505T352 443V432Q352 394 346 370T324 333T279 316T203 311H193Z"  />
<glyph unicode="&#xBB;" horiz-adv-x="360" d="M219 59L189 73L275 225L189 378L219 392L313 225L219 59ZM81 59L51 73L137 225L51 378L81 392L175 225L81 59Z"  />
<glyph unicode="&#xBC;" horiz-adv-x="810" d="M238 0H207L495 564H527L238 0ZM222 256H188V530H186L72 439L53 463L180 564H222V256ZM718 0H686V72H394V109L673 309H718V99H769V72H718V0ZM686 99V281H683L433 101V99H686Z"  />
<glyph unicode="&#xBD;" horiz-adv-x="864" d="M238 0H207L495 564H527L238 0ZM222 256H188V530H186L72 439L53 463L180 564H222V256ZM811 0H447V39Q447 71 454 91T481 124T538 141T635 149Q681 150 709 153T751 164T769 184T774 217V225Q774 243 770 254T751 272T710 281T636 284H627Q581 284 555 282T515 272T497 252T493 218V209H461V219Q461 249 467 267T491 295T541 308T626 312H636Q690 312 723 309T775 296T799 269T806 226V217Q806 191 800 174T776 145T726 128T639 120Q583 118 551 115T504 104T485 80T481 40V27H811V0Z"  />
<glyph unicode="&#xBE;" horiz-adv-x="982" d="M410 0H378L666 564H699L410 0ZM241 252Q184 252 149 255T96 267T71 295T65 345V355H96V345Q96 322 100 309T119 290T163 283T242 281H256Q304 281 332 283T375 291T394 309T398 340V347Q398 363 395 373T381 390T353 399T307 402H190V429H307Q334 429 350 432T374 441T385 457T388 481V489Q388 504 384 514T365 529T324 537T256 539H247Q202 539 175 538T132 530T113 511T108 475V466H76V475Q76 505 82 523T108 552T160 565T247 568H256Q307 568 339 564T389 551T414 528T421 492V484Q421 454 411 438T370 417V416Q401 412 416 398T431 346V338Q431 311 424 295T398 269T345 256T256 252H241ZM890 0H857V72H566V109L845 309H890V99H941V72H890V0ZM857 99V281H855L605 101V99H857Z"  />
<glyph unicode="&#xBF;" horiz-adv-x="622" d="M301 -173Q217 -173 167 -166T88 -142T51 -95T42 -21V-6Q42 34 48 62T75 109T132 139T232 157Q266 160 286 164T317 176T330 194T333 221V232H375V225Q375 199 371 181T355 152T318 133T255 122Q196 116 162 108T111 86T90 50T85 -7V-19Q85 -54 91 -76T120 -112T185 -129T301 -134H316Q386 -134 428 -130T493 -111T523 -73T530 -7V7H573V-7Q573 -58 563 -90T525 -140T446 -166T316 -173H301ZM377 325H330V398H377V325Z"  />
<glyph unicode="&#xC0;" horiz-adv-x="716" d="M373 614L217 676L236 708L385 633L373 614ZM715 0H666L592 132H126L50 0H2L331 564H393L715 0ZM572 168L366 530H357L147 168H572Z"  />
<glyph unicode="&#xC1;" horiz-adv-x="716" d="M509 676L354 613L342 632L489 707L509 676ZM715 0H666L592 132H126L50 0H2L331 564H393L715 0ZM572 168L366 530H357L147 168H572Z"  />
<glyph unicode="&#xC2;" horiz-adv-x="716" d="M471 618L367 677L263 618L247 638L367 715L487 638L471 618ZM715 0H666L592 132H126L50 0H2L331 564H393L715 0ZM572 168L366 530H357L147 168H572Z"  />
<glyph unicode="&#xC3;" horiz-adv-x="716" d="M487 698Q481 660 463 644T421 628Q407 628 393 633T362 650Q342 662 330 666T309 671Q295 671 284 662T265 627L243 634Q249 671 268 687T310 704Q324 704 337 699T368 683Q388 670 400 666T422 661Q455 661 464 705L487 698ZM715 0H666L592 132H126L50 0H2L331 564H393L715 0ZM572 168L366 530H357L147 168H572Z"  />
<glyph unicode="&#xC4;" horiz-adv-x="716" d="M315 628H272V693H315V628ZM461 628H418V693H461V628ZM715 0H666L592 132H126L50 0H2L331 564H393L715 0ZM572 168L366 530H357L147 168H572Z"  />
<glyph unicode="&#xC5;" horiz-adv-x="716" d="M363 600Q305 600 285 613T264 659V664Q264 697 284 710T363 723H368Q426 723 446 710T467 664V659Q467 626 447 613T368 600H363ZM368 621Q411 621 426 628T441 659V664Q441 687 426 694T368 701H363Q320 701 305 694T290 664V659Q290 636 305 629T363 621H368ZM715 0H666L592 132H126L50 0H2L331 564H393L715 0ZM572 168L366 530H357L147 168H572Z"  />
<glyph unicode="&#xC6;" horiz-adv-x="1120" d="M1091 0H555V132H160L53 0H2L459 564H1089V525H600V312H1069V273H600V40H1091V0ZM555 168V525H481L190 168H555Z"  />
<glyph unicode="&#xC7;" horiz-adv-x="785" d="M387 -7Q281 -7 217 2T117 42T69 127T57 274V290Q57 380 69 435T116 520T216 560T387 571H410Q510 571 571 565T665 541T709 491T720 408V397H676V406Q676 445 669 469T634 507T553 526T409 531H388Q293 531 237 524T150 491T111 417T102 287V277Q102 196 110 148T149 75T235 41T388 33H409Q503 33 558 38T641 57T677 95T685 160V168H728V156Q728 105 716 73T669 24T572 0T411 -7H387ZM316 -134L299 -117L425 -7L452 -36L316 -134Z"  />
<glyph unicode="&#xC8;" horiz-adv-x="637" d="M407 614L251 676L270 708L419 633L407 614ZM608 0H72V564H606V525H117V312H586V273H117V40H608V0Z"  />
<glyph unicode="&#xC9;" horiz-adv-x="637" d="M435 676L280 613L268 632L415 707L435 676ZM608 0H72V564H606V525H117V312H586V273H117V40H608V0Z"  />
<glyph unicode="&#xCA;" horiz-adv-x="637" d="M447 618L343 677L239 618L223 638L343 715L463 638L447 618ZM608 0H72V564H606V525H117V312H586V273H117V40H608V0Z"  />
<glyph unicode="&#xCB;" horiz-adv-x="637" d="M287 628H244V693H287V628ZM433 628H390V693H433V628ZM608 0H72V564H606V525H117V312H586V273H117V40H608V0Z"  />
<glyph unicode="&#xCC;" horiz-adv-x="189" d="M109 614L-47 676L-28 708L121 633L109 614ZM117 0H72V564H117V0Z"  />
<glyph unicode="&#xCD;" horiz-adv-x="189" d="M243 676L88 613L76 632L223 707L243 676ZM117 0H72V564H117V0Z"  />
<glyph unicode="&#xCE;" horiz-adv-x="189" d="M199 618L95 677L-9 618L-25 638L95 715L215 638L199 618ZM117 0H72V564H117V0Z"  />
<glyph unicode="&#xCF;" horiz-adv-x="189" d="M43 628H0V693H43V628ZM189 628H146V693H189V628ZM117 0H72V564H117V0Z"  />
<glyph unicode="&#xD0;" horiz-adv-x="806" d="M747 274Q747 185 737 131T692 48T591 10T412 0H72V276H20V310H72V564H412Q485 564 538 561T629 548T690 520T725 472T742 397T747 290V274ZM410 40Q512 40 570 46T657 77T694 149T702 277V287Q702 369 694 416T657 488T569 518T410 525H117V310H356V276H117V40H410Z"  />
<glyph unicode="&#xD1;" horiz-adv-x="812" d="M530 698Q524 660 506 644T464 628Q450 628 436 633T405 650Q385 662 373 666T352 671Q338 671 327 662T308 627L286 634Q292 671 311 687T353 704Q367 704 380 699T411 683Q431 670 443 666T465 661Q498 661 507 705L530 698ZM740 0H666L121 526H117V0H72V564H147L691 38H695V564H740V0Z"  />
<glyph unicode="&#xD2;" horiz-adv-x="811" d="M476 614L320 676L339 708L488 633L476 614ZM394 -7Q287 -7 221 3T119 43T70 128T57 274V290Q57 381 69 436T118 521T221 561T394 571H417Q524 571 590 561T692 521T741 436T754 290V274Q754 183 742 128T693 43T590 3T417 -7H394ZM417 33Q514 33 572 41T660 74T700 148T709 277V287Q709 368 700 416T661 489T572 523T417 531H395Q297 531 240 523T151 490T111 416T102 287V277Q102 196 111 148T151 75T239 41T395 33H417Z"  />
<glyph unicode="&#xD3;" horiz-adv-x="811" d="M497 676L342 613L330 632L477 707L497 676ZM394 -7Q287 -7 221 3T119 43T70 128T57 274V290Q57 381 69 436T118 521T221 561T394 571H417Q524 571 590 561T692 521T741 436T754 290V274Q754 183 742 128T693 43T590 3T417 -7H394ZM417 33Q514 33 572 41T660 74T700 148T709 277V287Q709 368 700 416T661 489T572 523T417 531H395Q297 531 240 523T151 490T111 416T102 287V277Q102 196 111 148T151 75T239 41T395 33H417Z"  />
<glyph unicode="&#xD4;" horiz-adv-x="811" d="M512 618L408 677L304 618L288 638L408 715L528 638L512 618ZM394 -7Q287 -7 221 3T119 43T70 128T57 274V290Q57 381 69 436T118 521T221 561T394 571H417Q524 571 590 561T692 521T741 436T754 290V274Q754 183 742 128T693 43T590 3T417 -7H394ZM417 33Q514 33 572 41T660 74T700 148T709 277V287Q709 368 700 416T661 489T572 523T417 531H395Q297 531 240 523T151 490T111 416T102 287V277Q102 196 111 148T151 75T239 41T395 33H417Z"  />
<glyph unicode="&#xD5;" horiz-adv-x="811" d="M528 698Q522 660 504 644T462 628Q448 628 434 633T403 650Q383 662 371 666T350 671Q336 671 325 662T306 627L284 634Q290 671 309 687T351 704Q365 704 378 699T409 683Q429 670 441 666T463 661Q496 661 505 705L528 698ZM394 -7Q287 -7 221 3T119 43T70 128T57 274V290Q57 381 69 436T118 521T221 561T394 571H417Q524 571 590 561T692 521T741 436T754 290V274Q754 183 742 128T693 43T590 3T417 -7H394ZM417 33Q514 33 572 41T660 74T700 148T709 277V287Q709 368 700 416T661 489T572 523T417 531H395Q297 531 240 523T151 490T111 416T102 287V277Q102 196 111 148T151 75T239 41T395 33H417Z"  />
<glyph unicode="&#xD6;" horiz-adv-x="811" d="M356 628H313V693H356V628ZM502 628H459V693H502V628ZM394 -7Q287 -7 221 3T119 43T70 128T57 274V290Q57 381 69 436T118 521T221 561T394 571H417Q524 571 590 561T692 521T741 436T754 290V274Q754 183 742 128T693 43T590 3T417 -7H394ZM417 33Q514 33 572 41T660 74T700 148T709 277V287Q709 368 700 416T661 489T572 523T417 531H395Q297 531 240 523T151 490T111 416T102 287V277Q102 196 111 148T151 75T239 41T395 33H417Z"  />
<glyph unicode="&#xD7;" horiz-adv-x="542" d="M442 106L418 83L270 231L122 83L99 105L247 254L99 403L121 425L270 276L418 424L441 403L292 255L442 106Z"  />
<glyph unicode="&#xD8;" horiz-adv-x="811" d="M763 561L782 537L720 491Q740 459 747 411T754 290V274Q754 183 742 128T693 43T590 3T417 -7H394Q286 -7 220 3T117 44L50 -4L31 20L96 67Q73 99 65 149T57 274V290Q57 381 69 436T118 521T221 561T394 571H417Q530 571 597 560T701 515L763 561ZM395 531Q297 531 240 523T151 490T111 416T102 287V277Q102 210 108 166T133 95L663 486Q633 514 575 522T417 531H395ZM417 33Q514 33 572 41T660 74T700 148T709 277V287Q709 350 704 393T682 463L154 72Q186 48 243 41T395 33H417Z"  />
<glyph unicode="&#xD9;" horiz-adv-x="784" d="M455 614L299 676L318 708L467 633L455 614ZM382 -7Q281 -7 220 1T125 31T81 92T70 194V564H115V199Q115 147 122 115T157 64T236 40T377 33H403Q491 33 544 39T625 63T661 113T670 199V564H715V194Q715 132 704 93T658 31T562 1T398 -7H382Z"  />
<glyph unicode="&#xDA;" horiz-adv-x="784" d="M486 676L331 613L319 632L466 707L486 676ZM382 -7Q281 -7 220 1T125 31T81 92T70 194V564H115V199Q115 147 122 115T157 64T236 40T377 33H403Q491 33 544 39T625 63T661 113T670 199V564H715V194Q715 132 704 93T658 31T562 1T398 -7H382Z"  />
<glyph unicode="&#xDB;" horiz-adv-x="784" d="M496 618L392 677L288 618L272 638L392 715L512 638L496 618ZM382 -7Q281 -7 220 1T125 31T81 92T70 194V564H115V199Q115 147 122 115T157 64T236 40T377 33H403Q491 33 544 39T625 63T661 113T670 199V564H715V194Q715 132 704 93T658 31T562 1T398 -7H382Z"  />
<glyph unicode="&#xDC;" horiz-adv-x="784" d="M341 628H298V693H341V628ZM487 628H444V693H487V628ZM382 -7Q281 -7 220 1T125 31T81 92T70 194V564H115V199Q115 147 122 115T157 64T236 40T377 33H403Q491 33 544 39T625 63T661 113T670 199V564H715V194Q715 132 704 93T658 31T562 1T398 -7H382Z"  />
<glyph unicode="&#xDD;" horiz-adv-x="710" d="M469 676L314 613L302 632L449 707L469 676ZM378 0H333V219L2 564H61L356 257H358L651 564H709L378 219V0Z"  />
<glyph unicode="&#xDE;" horiz-adv-x="725" d="M117 0H72V564H117V463H431Q512 463 562 458T639 435T676 387T686 303V291Q686 238 676 207T638 158T560 135T431 129H117V0ZM420 168Q497 168 541 172T608 189T636 226T642 290V303Q642 343 637 366T609 402T542 419T420 423H117V168H420Z"  />
<glyph unicode="&#xDF;" horiz-adv-x="616" d="M351 -7Q295 -7 261 -1T207 20T180 62T173 128V141H213V132Q213 100 218 80T238 49T280 35T351 31H366Q415 31 445 37T493 60T516 109T522 193V206Q522 254 516 283T491 329T437 350T342 356H246V393H332Q378 393 406 396T449 408T470 428T475 458V466Q475 484 470 497T447 518T396 529T309 533H291Q234 533 199 527T144 506T118 464T111 395V0H69V393Q69 448 80 482T116 536T184 563T289 570H312Q375 570 415 564T477 546T508 515T517 470V462Q517 421 499 403T438 379V378Q475 376 499 367T538 339T558 286T564 202V190Q564 127 554 89T520 29T459 0T370 -7H351Z"  />
<glyph unicode="&#xE0;" horiz-adv-x="568" d="M505 0H463V47H461Q450 32 436 22T399 5T346 -4T270 -7H255Q191 -7 151 -1T89 18T58 55T50 112V120Q50 154 59 177T91 214T152 233T247 239H262Q309 239 342 237T398 230T435 215T460 192H462V222Q462 270 457 299T433 343T377 363T277 368H264Q214 368 184 364T136 351T113 326T107 289V281H66V290Q66 326 76 348T111 383T172 400T264 405H279Q352 405 396 399T465 373T497 316T505 216V0ZM271 31Q334 31 372 35T430 48T456 74T463 115V120Q463 146 455 162T425 187T366 199T271 202H256Q203 202 171 199T121 186T97 161T91 119V115Q91 88 97 72T122 46T173 34T257 31H271ZM355 454L219 553L243 583L370 473L355 454Z"  />
<glyph unicode="&#xE1;" horiz-adv-x="568" d="M505 0H463V47H461Q450 32 436 22T399 5T346 -4T270 -7H255Q191 -7 151 -1T89 18T58 55T50 112V120Q50 154 59 177T91 214T152 233T247 239H262Q309 239 342 237T398 230T435 215T460 192H462V222Q462 270 457 299T433 343T377 363T277 368H264Q214 368 184 364T136 351T113 326T107 289V281H66V290Q66 326 76 348T111 383T172 400T264 405H279Q352 405 396 399T465 373T497 316T505 216V0ZM271 31Q334 31 372 35T430 48T456 74T463 115V120Q463 146 455 162T425 187T366 199T271 202H256Q203 202 171 199T121 186T97 161T91 119V115Q91 88 97 72T122 46T173 34T257 31H271ZM225 454L210 473L337 583L361 553L225 454Z"  />
<glyph unicode="&#xE2;" horiz-adv-x="568" d="M505 0H463V47H461Q450 32 436 22T399 5T346 -4T270 -7H255Q191 -7 151 -1T89 18T58 55T50 112V120Q50 154 59 177T91 214T152 233T247 239H262Q309 239 342 237T398 230T435 215T460 192H462V222Q462 270 457 299T433 343T377 363T277 368H264Q214 368 184 364T136 351T113 326T107 289V281H66V290Q66 326 76 348T111 383T172 400T264 405H279Q352 405 396 399T465 373T497 316T505 216V0ZM271 31Q334 31 372 35T430 48T456 74T463 115V120Q463 146 455 162T425 187T366 199T271 202H256Q203 202 171 199T121 186T97 161T91 119V115Q91 88 97 72T122 46T173 34T257 31H271ZM389 470L285 540L181 470L165 490L285 579L405 490L389 470Z"  />
<glyph unicode="&#xE3;" horiz-adv-x="568" d="M505 0H463V47H461Q450 32 436 22T399 5T346 -4T270 -7H255Q191 -7 151 -1T89 18T58 55T50 112V120Q50 154 59 177T91 214T152 233T247 239H262Q309 239 342 237T398 230T435 215T460 192H462V222Q462 270 457 299T433 343T377 363T277 368H264Q214 368 184 364T136 351T113 326T107 289V281H66V290Q66 326 76 348T111 383T172 400T264 405H279Q352 405 396 399T465 373T497 316T505 216V0ZM271 31Q334 31 372 35T430 48T456 74T463 115V120Q463 146 455 162T425 187T366 199T271 202H256Q203 202 171 199T121 186T97 161T91 119V115Q91 88 97 72T122 46T173 34T257 31H271ZM403 554Q397 516 379 501T337 485Q310 485 278 507Q258 520 246 524T225 528Q211 528 200 520T181 484L159 491Q165 528 184 544T226 560Q251 560 284 540Q304 527 316 522T338 517Q371 517 380 561L403 554Z"  />
<glyph unicode="&#xE4;" horiz-adv-x="568" d="M505 0H463V47H461Q450 32 436 22T399 5T346 -4T270 -7H255Q191 -7 151 -1T89 18T58 55T50 112V120Q50 154 59 177T91 214T152 233T247 239H262Q309 239 342 237T398 230T435 215T460 192H462V222Q462 270 457 299T433 343T377 363T277 368H264Q214 368 184 364T136 351T113 326T107 289V281H66V290Q66 326 76 348T111 383T172 400T264 405H279Q352 405 396 399T465 373T497 316T505 216V0ZM271 31Q334 31 372 35T430 48T456 74T463 115V120Q463 146 455 162T425 187T366 199T271 202H256Q203 202 171 199T121 186T97 161T91 119V115Q91 88 97 72T122 46T173 34T257 31H271ZM233 500H190V564H233V500ZM379 500H336V564H379V500Z"  />
<glyph unicode="&#xE5;" horiz-adv-x="568" d="M505 0H463V47H461Q450 32 436 22T399 5T346 -4T270 -7H255Q191 -7 151 -1T89 18T58 55T50 112V120Q50 154 59 177T91 214T152 233T247 239H262Q309 239 342 237T398 230T435 215T460 192H462V222Q462 270 457 299T433 343T377 363T277 368H264Q214 368 184 364T136 351T113 326T107 289V281H66V290Q66 326 76 348T111 383T172 400T264 405H279Q352 405 396 399T465 373T497 316T505 216V0ZM271 31Q334 31 372 35T430 48T456 74T463 115V120Q463 146 455 162T425 187T366 199T271 202H256Q203 202 171 199T121 186T97 161T91 119V115Q91 88 97 72T122 46T173 34T257 31H271ZM282 463Q224 463 204 476T183 523V528Q183 561 203 574T282 587H287Q345 587 365 574T386 528V523Q386 490 366 477T287 463H282ZM287 485Q330 485 345 492T360 523V528Q360 551 345 558T287 565H282Q239 565 224 558T209 528V523Q209 500 224 493T282 485H287Z"  />
<glyph unicode="&#xE6;" horiz-adv-x="986" d="M279 405Q337 405 375 401T436 387T470 361T487 320H488Q494 344 508 360T546 386T608 400T697 405H715Q781 405 823 398T890 371T923 321T933 241V197H505V169Q505 125 513 98T544 56T604 36T701 31H716Q771 31 806 35T861 51T888 81T896 129V136H936V128Q936 88 925 62T889 21T821 -1T718 -7H701Q650 -7 613 -4T550 7T506 31T480 73H478Q464 23 413 8T270 -7H255Q191 -7 151 -1T89 18T58 55T50 113V120Q50 155 60 178T93 214T153 233T247 239H262Q311 239 345 237T401 230T438 216T461 192H462V222Q462 269 457 297T434 342T378 363T278 368H264Q214 368 184 364T136 351T113 326T107 289V281H66V290Q66 326 76 348T111 383T172 400T264 405H279ZM276 31Q334 31 370 35T428 50T456 76T464 115V120Q464 145 456 161T426 186T367 198T271 202H256Q203 202 171 199T121 186T97 160T91 119V115Q91 89 96 73T120 47T171 35T261 31H276ZM891 233V245Q891 281 885 304T861 342T807 362T714 368H700Q638 368 600 363T542 342T514 301T505 233H891Z"  />
<glyph unicode="&#xE7;" horiz-adv-x="589" d="M295 -7Q220 -7 173 1T98 30T61 91T51 193V206Q51 269 61 308T98 368T172 397T295 405H314Q380 405 423 400T491 379T526 338T536 271V261H496V267Q496 298 489 317T461 348T406 363T313 368H295Q229 368 189 362T128 339T100 290T93 206V193Q93 142 100 110T128 61T189 37T295 31H313Q371 31 407 35T463 52T491 84T499 135V143H539V132Q539 91 529 64T492 21T423 -1T314 -7H295ZM218 -134L201 -117L327 -7L354 -36L218 -134Z"  />
<glyph unicode="&#xE8;" horiz-adv-x="587" d="M295 -7Q219 -7 172 1T97 32T61 94T51 195V205Q51 268 61 307T97 368T170 397T288 405H305Q375 405 419 398T489 373T524 322T534 241V197H93V188Q93 139 100 109T129 61T190 37T295 31H310Q369 31 405 35T462 51T489 81T496 129V136H537V128Q537 88 526 62T490 21T421 -1T313 -7H295ZM492 233V247Q492 283 486 306T459 343T402 362T304 368H290Q227 368 189 363T130 343T102 302T94 233H492ZM363 454L227 553L251 583L378 473L363 454Z"  />
<glyph unicode="&#xE9;" horiz-adv-x="587" d="M295 -7Q219 -7 172 1T97 32T61 94T51 195V205Q51 268 61 307T97 368T170 397T288 405H305Q375 405 419 398T489 373T524 322T534 241V197H93V188Q93 139 100 109T129 61T190 37T295 31H310Q369 31 405 35T462 51T489 81T496 129V136H537V128Q537 88 526 62T490 21T421 -1T313 -7H295ZM492 233V247Q492 283 486 306T459 343T402 362T304 368H290Q227 368 189 363T130 343T102 302T94 233H492ZM230 454L215 473L342 583L366 553L230 454Z"  />
<glyph unicode="&#xEA;" horiz-adv-x="587" d="M295 -7Q219 -7 172 1T97 32T61 94T51 195V205Q51 268 61 307T97 368T170 397T288 405H305Q375 405 419 398T489 373T524 322T534 241V197H93V188Q93 139 100 109T129 61T190 37T295 31H310Q369 31 405 35T462 51T489 81T496 129V136H537V128Q537 88 526 62T490 21T421 -1T313 -7H295ZM492 233V247Q492 283 486 306T459 343T402 362T304 368H290Q227 368 189 363T130 343T102 302T94 233H492ZM399 470L295 540L191 470L175 490L295 579L415 490L399 470Z"  />
<glyph unicode="&#xEB;" horiz-adv-x="587" d="M295 -7Q219 -7 172 1T97 32T61 94T51 195V205Q51 268 61 307T97 368T170 397T288 405H305Q375 405 419 398T489 373T524 322T534 241V197H93V188Q93 139 100 109T129 61T190 37T295 31H310Q369 31 405 35T462 51T489 81T496 129V136H537V128Q537 88 526 62T490 21T421 -1T313 -7H295ZM492 233V247Q492 283 486 306T459 343T402 362T304 368H290Q227 368 189 363T130 343T102 302T94 233H492ZM243 500H200V564H243V500ZM389 500H346V564H389V500Z"  />
<glyph unicode="&#xEC;" horiz-adv-x="180" d="M104 454L-32 553L-8 583L119 473L104 454ZM111 0H69V398H111V0Z"  />
<glyph unicode="&#xED;" horiz-adv-x="180" d="M86 454L71 473L198 583L222 553L86 454ZM111 0H69V398H111V0Z"  />
<glyph unicode="&#xEE;" horiz-adv-x="180" d="M111 0H69V398H111V0ZM195 470L91 540L-13 470L-29 490L91 579L211 490L195 470Z"  />
<glyph unicode="&#xEF;" horiz-adv-x="180" d="M111 0H69V398H111V0ZM44 500H2V564H44V500ZM178 500H136V564H178V500Z"  />
<glyph unicode="&#xF0;" horiz-adv-x="608" d="M295 -7Q218 -7 171 0T97 29T61 88T51 189V200Q51 260 61 297T95 356T162 385T268 393H287Q333 393 371 390T437 376T485 348T514 302H515Q508 344 498 376T471 433T429 474T365 505L257 450L245 475L325 515Q280 526 228 530T118 535L124 570Q203 570 264 563T371 541L474 593L486 569L407 529Q453 509 482 480T528 412T551 322T557 211V190Q557 131 548 93T512 33T438 2T315 -7H295ZM314 31Q381 31 420 37T481 60T508 108T515 189V200Q515 246 503 276T465 323T399 348T300 355H283Q222 355 185 349T128 326T100 279T93 200V189Q93 136 100 105T128 58T190 36T296 31H314Z"  />
<glyph unicode="&#xF1;" horiz-adv-x="606" d="M541 0H499V221Q499 267 493 295T468 340T415 362T324 368H310Q260 368 223 362T160 340T123 295T111 222V0H69V398H111V316H112Q122 338 135 354T172 382T230 399T318 405H332Q394 405 434 398T498 373T531 322T541 238V0ZM433 554Q427 516 409 501T367 485Q340 485 308 507Q288 520 276 524T255 528Q241 528 230 520T211 484L189 491Q195 528 214 544T256 560Q281 560 314 540Q334 527 346 522T368 517Q401 517 410 561L433 554Z"  />
<glyph unicode="&#xF2;" horiz-adv-x="608" d="M313 31Q380 31 420 36T481 59T508 108T515 193V206Q515 259 509 291T481 340T420 362T313 368H295Q228 368 188 363T127 340T100 291T93 206V193Q93 140 99 108T127 59T188 37T295 31H313ZM295 -7Q218 -7 171 0T97 29T61 90T51 193V206Q51 269 60 308T96 368T170 397T295 405H314Q391 405 438 398T512 369T548 308T557 206V193Q557 130 548 91T513 30T439 1T314 -7H295ZM371 454L235 553L259 583L386 473L371 454Z"  />
<glyph unicode="&#xF3;" horiz-adv-x="608" d="M313 31Q380 31 420 36T481 59T508 108T515 193V206Q515 259 509 291T481 340T420 362T313 368H295Q228 368 188 363T127 340T100 291T93 206V193Q93 140 99 108T127 59T188 37T295 31H313ZM295 -7Q218 -7 171 0T97 29T61 90T51 193V206Q51 269 60 308T96 368T170 397T295 405H314Q391 405 438 398T512 369T548 308T557 206V193Q557 130 548 91T513 30T439 1T314 -7H295ZM248 454L233 473L360 583L384 553L248 454Z"  />
<glyph unicode="&#xF4;" horiz-adv-x="608" d="M313 31Q380 31 420 36T481 59T508 108T515 193V206Q515 259 509 291T481 340T420 362T313 368H295Q228 368 188 363T127 340T100 291T93 206V193Q93 140 99 108T127 59T188 37T295 31H313ZM295 -7Q218 -7 171 0T97 29T61 90T51 193V206Q51 269 60 308T96 368T170 397T295 405H314Q391 405 438 398T512 369T548 308T557 206V193Q557 130 548 91T513 30T439 1T314 -7H295ZM409 470L305 540L201 470L185 490L305 579L425 490L409 470Z"  />
<glyph unicode="&#xF5;" horiz-adv-x="608" d="M313 31Q380 31 420 36T481 59T508 108T515 193V206Q515 259 509 291T481 340T420 362T313 368H295Q228 368 188 363T127 340T100 291T93 206V193Q93 140 99 108T127 59T188 37T295 31H313ZM295 -7Q218 -7 171 0T97 29T61 90T51 193V206Q51 269 60 308T96 368T170 397T295 405H314Q391 405 438 398T512 369T548 308T557 206V193Q557 130 548 91T513 30T439 1T314 -7H295ZM425 554Q419 516 401 501T359 485Q332 485 300 507Q280 520 268 524T247 528Q233 528 222 520T203 484L181 491Q187 528 206 544T248 560Q273 560 306 540Q326 527 338 522T360 517Q393 517 402 561L425 554Z"  />
<glyph unicode="&#xF6;" horiz-adv-x="608" d="M313 31Q380 31 420 36T481 59T508 108T515 193V206Q515 259 509 291T481 340T420 362T313 368H295Q228 368 188 363T127 340T100 291T93 206V193Q93 140 99 108T127 59T188 37T295 31H313ZM295 -7Q218 -7 171 0T97 29T61 90T51 193V206Q51 269 60 308T96 368T170 397T295 405H314Q391 405 438 398T512 369T548 308T557 206V193Q557 130 548 91T513 30T439 1T314 -7H295ZM253 500H210V564H253V500ZM399 500H356V564H399V500Z"  />
<glyph unicode="&#xF7;" horiz-adv-x="542" d="M308 397Q308 380 297 369T271 358Q256 358 245 369T233 397Q233 412 244 423T271 435Q285 435 296 424T308 397ZM308 109Q308 93 297 82T271 71Q256 71 245 82T233 109Q233 125 244 136T271 148Q285 148 296 137T308 109ZM476 237H66V269H476V237Z"  />
<glyph unicode="&#xF8;" horiz-adv-x="608" d="M564 396L582 373L535 340Q548 317 552 285T557 206V193Q557 130 548 91T513 30T439 1T314 -7H295Q217 -7 169 0T95 31L45 -4L29 18L76 51Q61 74 56 108T51 193V206Q51 269 60 308T96 368T170 397T295 405H314Q395 405 443 397T518 364L564 396ZM295 368Q228 368 188 363T127 340T100 291T93 206V193Q93 151 96 123T111 76L482 338Q462 356 422 362T313 368H295ZM313 31Q380 31 420 36T481 59T508 108T515 193V206Q515 244 512 270T500 315L130 56Q152 41 191 36T295 31H313Z"  />
<glyph unicode="&#xF9;" horiz-adv-x="602" d="M533 0H491V83H490Q481 61 467 44T430 16T371 -1T284 -7H270Q208 -7 168 0T104 27T71 80T61 164V398H103V184Q103 137 109 108T134 61T187 38T279 31H293Q343 31 380 37T442 59T479 104T491 178V398H533V0ZM367 454L231 553L255 583L382 473L367 454Z"  />
<glyph unicode="&#xFA;" horiz-adv-x="602" d="M533 0H491V83H490Q481 61 467 44T430 16T371 -1T284 -7H270Q208 -7 168 0T104 27T71 80T61 164V398H103V184Q103 137 109 108T134 61T187 38T279 31H293Q343 31 380 37T442 59T479 104T491 178V398H533V0ZM248 454L233 473L360 583L384 553L248 454Z"  />
<glyph unicode="&#xFB;" horiz-adv-x="602" d="M533 0H491V83H490Q481 61 467 44T430 16T371 -1T284 -7H270Q208 -7 168 0T104 27T71 80T61 164V398H103V184Q103 137 109 108T134 61T187 38T279 31H293Q343 31 380 37T442 59T479 104T491 178V398H533V0ZM404 470L300 540L196 470L180 490L300 579L420 490L404 470Z"  />
<glyph unicode="&#xFC;" horiz-adv-x="602" d="M533 0H491V83H490Q481 61 467 44T430 16T371 -1T284 -7H270Q208 -7 168 0T104 27T71 80T61 164V398H103V184Q103 137 109 108T134 61T187 38T279 31H293Q343 31 380 37T442 59T479 104T491 178V398H533V0ZM250 500H207V564H250V500ZM396 500H353V564H396V500Z"  />
<glyph unicode="&#xFD;" horiz-adv-x="515" d="M54 -108Q63 -109 76 -109T100 -109Q130 -109 150 -105T186 -89T217 -54T255 6H239L5 398H53L269 35H271L465 398H510L325 55Q289 -11 265 -50T217 -110T169 -137T106 -144Q94 -144 80 -144T54 -143V-108ZM224 454L209 473L336 583L360 553L224 454Z"  />
<glyph unicode="&#xFE;" horiz-adv-x="610" d="M111 -141H69V564H110V331H112Q121 352 135 366T174 389T233 401T320 405H334Q404 405 447 397T516 368T550 307T559 205V194Q559 132 550 93T516 32T447 2T334 -7H318Q269 -7 235 -4T176 9T137 32T113 68H111V-141ZM328 31Q390 31 427 37T484 60T510 110T517 195V206Q517 258 511 290T484 339T427 362T328 368H310Q246 368 207 363T146 341T117 292T110 206V195Q110 142 117 110T146 61T207 37T310 31H328Z"  />
<glyph unicode="&#xFF;" horiz-adv-x="515" d="M54 -108Q63 -109 76 -109T100 -109Q130 -109 150 -105T186 -89T217 -54T255 6H239L5 398H53L269 35H271L465 398H510L325 55Q289 -11 265 -50T217 -110T169 -137T106 -144Q94 -144 80 -144T54 -143V-108ZM217 500H174V564H217V500ZM363 500H320V564H363V500Z"  />
<glyph unicode="&#x131;" horiz-adv-x="180" d="M111 0H69V398H111V0Z"  />
<glyph unicode="&#x141;" horiz-adv-x="582" d="M572 0H72V239L14 217V249L72 271V564H117V287L306 357V325L117 256V40H572V0Z"  />
<glyph unicode="&#x142;" horiz-adv-x="180" d="M111 0H69V259L15 228V258L69 289V564H111V310L163 339V310L111 279V0Z"  />
<glyph unicode="&#x152;" horiz-adv-x="1273" d="M1244 0H710V87H709Q696 59 679 41T631 13T549 -2T417 -7H394Q285 -7 219 3T117 44T69 130T57 274V290Q57 380 69 435T117 520T219 560T394 571H417Q501 571 552 567T634 551T680 522T708 477H710V564H1243V525H754V312H1223V273H754V40H1244V0ZM417 33Q511 33 568 40T656 72T698 139T709 255V308Q709 378 700 422T659 490T571 522T417 531H395Q330 531 283 528T204 516T151 490T120 446T106 380T102 287V277Q102 197 111 149T151 75T239 41T395 33H417Z"  />
<glyph unicode="&#x153;" horiz-adv-x="1042" d="M993 128Q993 88 982 62T946 21T878 -1T774 -7H755Q700 -7 662 -3T598 11T558 39T537 84H536Q530 55 515 37T472 10T406 -3T314 -7H295Q218 -7 171 0T97 29T61 90T51 193V206Q51 270 60 309T97 369T171 398T295 405H314Q372 405 411 401T476 387T516 359T536 315H537Q543 342 557 359T596 386T659 401T752 405H769Q834 405 876 398T944 373T980 323T990 241V197H558V188Q558 139 564 109T590 61T650 37T756 31H771Q828 31 863 36T918 52T945 82T952 129V136H993V128ZM313 31Q380 31 420 36T481 59T508 108T515 195V206Q515 260 508 292T480 341T419 363T313 368H295Q227 368 187 363T126 340T99 290T93 206V193Q93 140 99 108T126 59T187 37T295 31H313ZM949 233V245Q949 282 943 306T917 343T862 362T769 368H754Q691 368 653 363T594 342T566 301T558 233H949Z"  />
<glyph unicode="&#x160;" horiz-adv-x="723" d="M364 608L244 684L260 705L364 644L468 705L484 684L364 608ZM665 149Q665 101 653 71T611 23T527 -1T392 -7H366Q261 -7 201 -1T109 22T69 72T60 159V173H104V160Q104 118 111 93T144 54T222 37T364 33H388Q461 33 506 37T576 54T611 89T620 149V160Q620 192 612 213T578 246T502 264T366 269Q268 269 211 275T123 299T85 344T76 416V427Q76 469 87 496T128 540T209 564T339 571H357Q450 571 507 565T595 540T636 491T647 408V395H603V406Q603 446 596 470T564 508T491 526T362 531H344Q273 531 229 527T161 511T129 479T121 427V417Q121 385 127 364T157 331T232 314T369 309Q465 309 523 302T613 278T655 233T665 161V149Z"  />
<glyph unicode="&#x161;" horiz-adv-x="575" d="M281 -7Q206 -7 161 -3T91 15T58 51T49 111V120H90V114Q90 88 95 72T119 47T176 35T281 31H312Q369 31 403 34T455 47T478 70T484 108V115Q484 137 479 151T453 173T394 185T288 188Q214 188 170 192T101 209T70 241T62 292V302Q62 331 71 351T103 383T166 400T268 405H292Q357 405 399 401T465 385T499 349T509 289V281H468V287Q468 311 463 326T439 351T386 364T294 368H271Q215 368 182 365T131 354T109 333T104 300V291Q104 271 110 258T135 238T192 228T293 225Q367 225 412 221T483 204T516 171T525 116V108Q525 76 517 54T485 19T420 -1T313 -7H281ZM284 460L164 549L180 569L284 497L388 569L404 549L284 460Z"  />
<glyph unicode="&#x178;" horiz-adv-x="710" d="M305 628H262V693H305V628ZM451 628H408V693H451V628ZM378 0H333V219L2 564H61L356 257H358L651 564H709L378 219V0Z"  />
<glyph unicode="&#x17D;" horiz-adv-x="706" d="M348 608L228 684L244 705L348 644L452 705L468 684L348 608ZM668 0H37V37L605 525V526H59V564H664V523L102 39V38H668V0Z"  />
<glyph unicode="&#x17E;" horiz-adv-x="475" d="M450 0H26V36L393 362V363H39V398H449V362L83 37V36H450V0ZM240 460L120 549L136 569L240 497L344 569L360 549L240 460Z"  />
<glyph unicode="&#x192;" horiz-adv-x="637" d="M145 283V319H309L337 435Q347 477 362 503T399 545T450 565T516 570Q538 570 558 569T602 564V527Q582 530 561 531T522 533Q486 533 462 530T422 515T396 482T377 425L351 319H520V283H342L285 45Q276 5 262 -21T227 -62T180 -84T117 -90Q97 -90 76 -89T34 -83V-46Q53 -49 74 -51T111 -54Q138 -54 159 -50T196 -35T224 -2T244 54L300 283H145Z"  />
<glyph unicode="&#x2C6;" horiz-adv-x="415" d="M314 470L210 540L106 470L90 490L210 579L330 490L314 470Z"  />
<glyph unicode="&#x2C7;" horiz-adv-x="415" d="M210 460L90 549L106 569L210 497L314 569L330 549L210 460Z"  />
<glyph unicode="&#x2D8;" horiz-adv-x="415" d="M330 564Q324 516 292 495T212 474Q165 474 132 495T93 564H124Q131 530 155 518T212 505Q247 505 269 516T300 564H330Z"  />
<glyph unicode="&#x2D9;" horiz-adv-x="415" d="M228 500H186V564H228V500Z"  />
<glyph unicode="&#x2DA;" horiz-adv-x="415" d="M206 463Q148 463 128 476T107 523V528Q107 561 127 574T206 587H211Q269 587 289 574T310 528V523Q310 490 290 477T211 463H206ZM211 485Q254 485 269 492T284 523V528Q284 551 269 558T211 565H206Q163 565 148 558T133 528V523Q133 500 148 493T206 485H211Z"  />
<glyph unicode="&#x2DB;" horiz-adv-x="295" d="M203 0Q170 -17 149 -30T116 -56T100 -78T95 -98Q95 -115 106 -121T144 -128Q161 -128 180 -126T219 -117V-142Q177 -156 133 -156Q61 -156 61 -105Q61 -76 86 -51T159 0H203Z"  />
<glyph unicode="&#x2DC;" horiz-adv-x="415" d="M330 554Q324 516 306 501T264 485Q237 485 205 507Q185 520 173 524T152 528Q138 528 127 520T108 484L86 491Q92 528 111 544T153 560Q178 560 211 540Q231 527 243 522T265 517Q298 517 307 561L330 554Z"  />
<glyph unicode="&#x2DD;" horiz-adv-x="415" d="M250 561L124 461L107 478L226 585L250 561ZM376 561L247 461L231 478L352 585L376 561Z"  />
<glyph unicode="&#x3C0;" horiz-adv-x="635" d="M585 3Q577 -1 568 -3T545 -5Q512 -5 499 18T486 90V361H145V0H103V361H45V398H591V361H528V93Q528 55 536 43T563 31Q576 31 585 37V3Z"  />
<glyph unicode="&#x60C;" horiz-adv-x="347" d="M194 244H236L164 0H109L194 244Z"  />
<glyph unicode="&#x615;" horiz-adv-x="0" d="M-95 706V717V720H-94Q-93 720 -92 719T-89 718H53Q70 718 79 727T90 751Q90 767 80 774T57 783Q45 783 32 777T16 768L6 762Q-2 757 -17 748T-61 722Q-65 720 -65 720Q-66 720 -66 725V822Q-66 832 -58 832H-45V756Q-39 760 -31 765T-15 774T1 783T11 789Q19 794 30 798T55 803Q81 803 96 790T112 752Q112 726 97 712T62 698H-85Q-92 698 -93 700T-95 706Z"  />
<glyph unicode="&#x61B;" horiz-adv-x="346" d="M117 57Q117 80 133 97T173 114Q197 114 214 97T231 57Q231 33 214 17T173 0Q150 0 134 16T117 57ZM229 456H272L199 212H145L229 456Z"  />
<glyph unicode="&#x61F;" horiz-adv-x="422" d="M245 702Q262 702 279 698T310 687T334 673T348 660L340 617Q333 622 323 628T300 641T275 651T250 655H242Q231 655 208 652T162 635T122 593T104 515Q104 490 112 469T133 428T161 392T191 359Q209 338 222 322T244 288T257 253T262 210V189H212V208Q212 228 208 245T191 280Q171 311 147 337T103 392T68 451T54 521Q54 565 68 598T107 655T165 690T238 702H245ZM240 104Q263 104 279 88T296 47Q296 23 280 7T240 -10Q216 -10 199 6T182 47Q182 71 199 87T240 104Z"  />
<glyph unicode="&#x621;" horiz-adv-x="451" d="M153 42Q138 45 127 55T107 78T95 106T91 136Q91 161 102 181T130 214T170 235T216 242H323Q326 242 331 242T343 243T353 248T357 257Q357 258 362 253T385 231Q392 226 394 225T396 222Q396 216 391 212T380 204T366 200T352 199H215Q183 199 162 182T139 129Q142 98 160 81T204 55T260 44T317 42H407V0H45Q43 0 40 -3Q37 -6 37 -2V25Q37 33 43 37T59 42H153Z"  />
<glyph unicode="&#x622;" arabic-form="terminal" horiz-adv-x="307" d="M355 42V0H192Q148 0 132 19T116 89Q116 96 116 120T116 178T115 255T115 340Q114 440 114 563Q114 578 123 583Q127 586 133 585H160V89Q160 71 161 62T166 48T178 43T200 42H355ZM263 692Q265 692 265 690V678Q265 671 261 669Q257 667 251 667H90Q65 667 54 659Q41 649 41 635Q41 627 44 621T53 607H35Q27 607 25 613Q23 618 21 624T19 639Q19 652 26 664T48 684Q63 691 95 691H250Q261 691 263 692Z"  />
<glyph unicode="&#x622;" arabic-form="isolated" horiz-adv-x="258" d="M153 0H107V563Q107 571 110 576T117 583Q121 586 127 585H153V0ZM249 693Q251 693 251 691V679Q251 672 247 670Q243 668 237 668H76Q51 668 40 660Q27 650 27 636Q27 628 30 622T39 608H21Q13 608 11 614Q9 619 7 625T5 640Q5 653 12 665T34 685Q49 692 81 692H236Q247 692 249 693Z"  />
<glyph unicode="&#x623;" arabic-form="terminal" horiz-adv-x="293" d="M342 42V0H179Q135 0 119 19T103 89Q103 96 103 120T103 178T102 255T102 340Q101 440 101 563Q101 578 110 583Q114 586 120 585H147V89Q147 71 148 62T153 48T165 43T187 42H342ZM83 688Q69 693 60 710T51 743Q51 769 73 784T119 800H178Q188 800 193 803L196 806L197 807L220 788Q220 782 212 779T197 776Q196 776 194 776T185 776T162 776T118 777Q93 775 85 762T77 734Q79 711 104 700T186 689H224V667H20V689L83 688Z"  />
<glyph unicode="&#x623;" arabic-form="isolated" horiz-adv-x="253" d="M151 0H105V563Q105 571 108 576T115 583Q119 586 125 585H151V0ZM89 688Q75 693 66 710T57 743Q57 769 79 784T125 800H184Q194 800 199 803L202 806L203 807L226 788Q226 782 218 779T203 776Q202 776 200 776T191 776T168 776T124 777Q99 775 91 762T83 734Q85 711 110 700T192 689H230V667H26V689L89 688Z"  />
<glyph unicode="&#x624;" arabic-form="terminal" horiz-adv-x="572" d="M240 0Q179 0 143 7T87 34T61 91T55 188Q55 231 64 270T95 340T150 389T234 407Q325 407 371 356T418 205V43H631V0H418V-8Q418 -86 400 -136T347 -215T260 -255T142 -266H133Q123 -266 119 -263Q115 -260 115 -252V-219Q138 -221 154 -222T186 -223Q239 -223 275 -209T332 -167T363 -100T372 -13V0H278H240ZM370 42V175Q370 215 365 250T346 310T306 350T239 365Q198 365 171 352T129 314T107 258T100 190Q100 142 103 113T118 68T156 47T224 42H370ZM198 537Q184 542 175 558T166 591Q166 616 185 633T234 650H293Q303 650 308 653L311 656L312 657L335 638Q335 634 330 630T317 626H233Q210 626 201 613T192 584Q194 561 219 550T301 538H339V516H135V538L198 537Z"  />
<glyph unicode="&#x624;" arabic-form="isolated" horiz-adv-x="521" d="M418 -8Q418 -86 400 -136T347 -215T260 -255T142 -266H133Q123 -266 119 -263Q115 -260 115 -252V-219Q138 -221 154 -222T186 -223Q239 -223 275 -209T332 -167T363 -100T372 -13V25Q364 16 357 11T337 4T301 1T240 0Q179 0 143 7T87 34T61 91T55 188Q55 231 64 270T95 340T150 389T234 407Q325 407 371 356T418 205V-8ZM241 42Q277 42 302 44T342 52T363 70T370 101V175Q370 215 365 250T346 310T306 350T239 365Q198 365 171 352T129 314T107 258T100 190Q100 142 103 113T118 68T156 47T224 42H241ZM203 535Q189 540 180 556T171 589Q171 614 190 631T239 648H298Q308 648 313 651L316 654L317 655L340 636Q340 632 335 628T322 624H238Q215 624 206 611T197 582Q199 559 224 548T306 536H344V514H140V536L203 535Z"  />
<glyph unicode="&#x625;" arabic-form="terminal" horiz-adv-x="298" d="M336 42V0H173Q129 0 113 19T97 89Q97 96 97 120T97 178T96 255T96 340Q95 440 95 563Q95 578 104 583Q108 586 114 585H141V89Q141 71 142 62T147 48T159 43T181 42H336ZM160 -233Q146 -228 137 -211T128 -178Q128 -152 150 -137T196 -121H255Q265 -121 270 -118L273 -115L274 -114L297 -133Q297 -139 289 -142T274 -145Q273 -145 271 -145T262 -145T239 -145T195 -144Q170 -146 162 -159T154 -187Q156 -210 181 -221T263 -232H301V-254H97V-232L160 -233Z"  />
<glyph unicode="&#x625;" arabic-form="isolated" horiz-adv-x="251" d="M156 0H110V563Q110 571 113 576T120 583Q124 586 130 585H156V0ZM89 -230Q75 -225 66 -208T57 -175Q57 -149 79 -134T125 -118H184Q194 -118 199 -115L202 -112L203 -111L226 -130Q226 -136 218 -139T203 -142Q202 -142 200 -142T191 -142T168 -142T124 -141Q99 -143 91 -156T83 -184Q85 -207 110 -218T192 -229H230V-251H26V-229L89 -230Z"  />
<glyph unicode="&#x626;" arabic-form="initial" horiz-adv-x="367" d="M269 97Q264 46 228 23T131 0H-35V42H130Q176 42 199 62T223 120V356Q223 371 232 376Q236 379 241 379H269V97ZM130 540Q116 545 107 561T98 594Q98 619 117 636T166 653H225Q235 653 240 656L243 659L244 660L267 641Q267 637 262 633T249 629H165Q142 629 133 616T124 587Q126 564 151 553T233 541H271V519H67V541L130 540Z"  />
<glyph unicode="&#x626;" arabic-form="medial" horiz-adv-x="411" d="M451 43V1H347Q321 1 303 6T272 20Q264 25 259 30T250 41Q246 46 244 51Q241 45 237 40Q233 35 227 30T209 19Q195 12 175 8T126 1H-33V43H127Q172 43 195 57T218 108V240Q218 293 219 358Q219 372 228 377Q232 380 237 380H264V106Q264 93 270 82T286 62T308 48T334 43H451ZM204 540Q190 545 181 561T172 594Q172 619 191 636T240 653H299Q309 653 314 656L317 659L318 660L341 641Q341 637 336 633T323 629H239Q216 629 207 616T198 587Q200 564 225 553T307 541H345V519H141V541L204 540Z"  />
<glyph unicode="&#x626;" arabic-form="terminal" horiz-adv-x="772" d="M550 -199Q586 -189 611 -177T652 -149T678 -115T691 -71Q690 -39 665 -20T587 0H515Q504 0 499 -1T491 -4T487 -7T484 -9Q480 -9 480 -2V21Q480 32 487 36T506 42H837V0H697Q698 0 704 -4T717 -16T730 -38T736 -72Q736 -106 723 -133T686 -180T632 -216T565 -242Q487 -266 379 -266Q311 -266 246 -254T129 -210T44 -125T5 12Q5 48 10 88T32 158Q36 163 39 165T51 167H74Q83 167 83 164Q83 163 83 162T79 155Q65 123 57 87T49 13Q50 -52 78 -97T150 -170T249 -210T358 -223Q370 -223 391 -223T437 -220T492 -212T550 -199ZM81 333Q67 338 58 354T49 387Q49 412 68 429T117 446H176Q186 446 191 449L194 452L195 453L218 434Q218 430 213 426T200 422H116Q93 422 84 409T75 380Q77 357 102 346T184 334H222V312H18V334L81 333Z"  />
<glyph unicode="&#x626;" arabic-form="isolated" horiz-adv-x="814" d="M722 42Q730 42 737 38T744 20Q744 -3 743 -26T736 -75Q725 -138 681 -179T564 -242Q486 -266 378 -266Q309 -266 244 -254T127 -209T42 -123T4 16Q4 49 9 88T31 158Q35 163 38 165T50 167H73Q82 167 82 164Q82 163 82 162T78 155Q64 123 56 87T48 13Q49 -52 76 -97T148 -170T247 -210T357 -223Q369 -223 390 -223T436 -220T491 -213T549 -199Q626 -177 661 -131T697 0H483Q456 0 430 6T382 27T348 63T335 115Q335 157 358 194T417 265Q446 293 479 317T543 359T595 389T627 405Q646 413 665 418T699 424Q704 424 711 423T725 419T737 411T742 399Q742 393 742 384T741 365Q741 362 739 362Q739 362 736 365Q731 370 724 373T702 377Q690 377 673 373T632 357Q575 331 526 297T441 228Q412 199 396 172T380 123Q380 86 409 64T495 42H722H722ZM69 337Q55 342 46 358T37 391Q37 416 56 433T105 450H164Q174 450 179 453L182 456L183 457L206 438Q206 434 201 430T188 426H104Q81 426 72 413T63 384Q65 361 90 350T172 338H210V316H6V338L69 337Z"  />
<glyph unicode="&#x627;" arabic-form="terminal" horiz-adv-x="298" d="M342 42V0H179Q135 0 119 19T103 89Q103 96 103 120T103 178T102 255T102 340Q101 440 101 563Q101 578 110 583Q114 586 120 585H147V89Q147 71 148 62T153 48T165 43T187 42H342Z"  />
<glyph unicode="&#x627;" arabic-form="isolated" horiz-adv-x="237" d="M143 0H97V563Q97 571 100 576T107 583Q111 586 117 585H143V0Z"  />
<glyph unicode="&#x628;" arabic-form="initial" horiz-adv-x="362" d="M265 97Q260 46 224 23T127 0H-39V42H126Q172 42 195 62T219 120V356Q219 371 228 376Q232 379 237 379H265V97ZM260 -183Q260 -203 246 -217T212 -231Q192 -231 178 -217T164 -183Q164 -163 178 -150T212 -136Q232 -136 246 -149T260 -183Z"  />
<glyph unicode="&#x628;" arabic-form="medial" horiz-adv-x="411" d="M451 42V0H347Q321 0 303 5T272 19Q264 24 259 29T250 40Q246 45 244 50Q241 44 237 39Q233 34 227 29T209 18Q195 11 175 7T126 0H-33V42H127Q172 42 195 56T218 107V239Q218 292 219 357Q219 371 228 376Q232 379 237 379H264V105Q264 92 270 81T286 61T308 47T334 42H451ZM268 -183Q268 -203 254 -217T220 -231Q200 -231 186 -217T172 -183Q172 -163 186 -150T220 -136Q240 -136 254 -149T268 -183Z"  />
<glyph unicode="&#x628;" arabic-form="terminal" horiz-adv-x="1086" d="M939 97Q941 72 962 57T1008 42H1130V0H1021Q987 0 959 12T919 47Q901 24 870 12T800 0H149Q75 0 40 30T4 115Q4 123 4 133T6 153Q7 164 8 176Q10 196 15 209T40 223H62Q67 223 68 222T68 214Q62 192 58 171T53 127Q53 100 61 83T83 57T115 45T153 42H800Q843 42 868 63T893 120V356Q893 364 896 369T903 376Q907 379 913 379H939V97H939ZM517 -180Q517 -200 503 -214T469 -228Q449 -228 435 -214T421 -180Q421 -160 435 -147T469 -133Q489 -133 503 -146T517 -180Z"  />
<glyph unicode="&#x628;" arabic-form="isolated" horiz-adv-x="984" d="M939 97Q932 48 895 24T800 0H149Q75 0 40 30T4 115Q4 123 4 133T6 153Q7 164 8 176Q10 196 15 209T40 223H62Q67 223 68 222T68 214Q62 192 58 171T53 127Q53 100 61 83T83 57T115 45T153 42H800Q843 42 868 63T893 120V356Q893 364 896 369T903 376Q907 379 913 379H939V97H939ZM517 -184Q517 -204 503 -218T469 -232Q449 -232 435 -218T421 -184Q421 -164 435 -151T469 -137Q489 -137 503 -150T517 -184Z"  />
<glyph unicode="&#x629;" arabic-form="terminal" horiz-adv-x="646" d="M698 42V0H587Q548 0 520 13T478 50Q439 0 352 0H235Q133 0 71 45T3 187Q4 282 57 322T209 363Q239 363 258 362T295 358T334 355T388 353Q425 353 436 358T452 379H499V96Q500 83 507 73T524 56T548 46T573 42H698ZM453 329Q448 317 426 313T382 308Q352 308 331 309T292 313T254 316T206 318Q134 318 91 286T48 190Q48 150 64 122T108 76T170 50T243 42H353Q401 42 427 62T453 121V329ZM241 562Q241 542 227 528T193 514Q173 514 159 528T145 562Q145 582 159 596T193 610Q213 610 227 596T241 562ZM373 562Q373 542 359 528T325 514Q305 514 292 528T278 562Q278 582 291 596T325 610Q345 610 359 596T373 562Z"  />
<glyph unicode="&#x629;" arabic-form="isolated" horiz-adv-x="705" d="M341 374Q341 367 347 358Q352 352 365 348T393 343Q438 343 479 336T550 309T599 253T618 158Q618 125 605 96T568 46T508 12T428 0H200Q156 0 121 12T61 45T23 96T10 158Q10 217 28 253T77 309T149 336T235 343Q249 343 262 347T281 358Q287 367 287 374Q287 378 286 379H342Q341 378 341 374ZM434 42Q465 42 490 51T534 78T561 118T571 168Q571 225 535 261T430 298Q374 298 352 306T321 325L314 335L307 325Q299 314 277 306T198 298Q129 298 93 262T57 168Q57 141 66 118T94 78T137 52T194 42H434ZM295 562Q295 542 281 528T247 514Q227 514 213 528T199 562Q199 582 213 596T247 610Q267 610 281 596T295 562ZM427 562Q427 542 413 528T379 514Q359 514 346 528T332 562Q332 582 345 596T379 610Q399 610 413 596T427 562Z"  />
<glyph unicode="&#x62A;" arabic-form="initial" horiz-adv-x="362" d="M264 97Q259 46 223 23T126 0H-40V42H125Q171 42 194 62T218 120V356Q218 371 227 376Q231 379 236 379H264V97ZM139 562Q139 542 125 528T91 514Q71 514 57 528T43 562Q43 582 57 596T91 610Q111 610 125 596T139 562ZM271 562Q271 542 257 528T223 514Q203 514 190 528T176 562Q176 582 189 596T223 610Q243 610 257 596T271 562Z"  />
<glyph unicode="&#x62A;" arabic-form="medial" horiz-adv-x="412" d="M451 42V0H347Q321 0 303 5T272 19Q264 24 259 29T250 40Q246 45 244 50Q241 44 237 39Q233 34 227 29T209 18Q195 11 175 7T126 0H-33V42H127Q172 42 195 56T218 107V239Q218 292 219 357Q219 371 228 376Q232 379 237 379H264V105Q264 92 270 81T286 61T308 47T334 42H451ZM223 562Q223 542 209 528T175 514Q155 514 141 528T127 562Q127 582 141 596T175 610Q195 610 209 596T223 562ZM355 562Q355 542 341 528T307 514Q287 514 274 528T260 562Q260 582 273 596T307 610Q327 610 341 596T355 562Z"  />
<glyph unicode="&#x62A;" arabic-form="terminal" horiz-adv-x="1086" d="M939 97Q941 72 962 57T1008 42H1130V0H1021Q987 0 959 12T919 47Q901 24 870 12T800 0H149Q75 0 40 30T4 115Q4 123 4 133T6 153Q7 164 8 176Q10 196 15 209T40 223H62Q67 223 68 222T68 214Q62 192 58 171T53 127Q53 100 61 83T83 57T115 45T153 42H800Q843 42 868 63T893 120V356Q893 364 896 369T903 376Q907 379 913 379H939V97H939ZM453 331Q453 311 439 297T405 283Q385 283 371 297T357 331Q357 351 371 365T405 379Q425 379 439 365T453 331ZM585 331Q585 311 571 297T537 283Q517 283 504 297T490 331Q490 351 503 365T537 379Q557 379 571 365T585 331Z"  />
<glyph unicode="&#x62A;" arabic-form="isolated" horiz-adv-x="1040" d="M940 97Q933 48 896 24T801 0H150Q76 0 41 30T5 115Q5 123 5 133T7 153Q8 164 9 176Q11 196 16 209T41 223H63Q68 223 69 222T69 214Q63 192 59 171T54 127Q54 100 62 83T84 57T116 45T154 42H801Q844 42 869 63T894 120V356Q894 364 897 369T904 376Q908 379 914 379H940V97H940ZM451 331Q451 311 437 297T403 283Q383 283 369 297T355 331Q355 351 369 365T403 379Q423 379 437 365T451 331ZM583 331Q583 311 569 297T535 283Q515 283 502 297T488 331Q488 351 501 365T535 379Q555 379 569 365T583 331Z"  />
<glyph unicode="&#x62B;" arabic-form="initial" horiz-adv-x="362" d="M264 97Q259 46 223 23T126 0H-40V42H125Q171 42 194 62T218 120V356Q218 371 227 376Q231 379 236 379H264V97ZM288 673Q288 653 274 639T240 625Q220 625 207 639T193 673Q193 693 206 707T240 721Q260 721 274 707T288 673ZM222 562Q222 542 208 528T174 514Q154 514 140 528T126 562Q126 582 140 596T174 610Q194 610 208 596T222 562ZM354 562Q354 542 341 528T307 514Q287 514 273 528T259 562Q259 582 273 596T307 610Q327 610 340 596T354 562Z"  />
<glyph unicode="&#x62B;" arabic-form="medial" horiz-adv-x="411" d="M451 42V0H347Q321 0 303 5T272 19Q264 24 259 29T250 40Q246 45 244 50Q241 44 237 39Q233 34 227 29T209 18Q195 11 175 7T126 0H-33V42H127Q172 42 195 56T218 107V239Q218 292 219 357Q219 371 228 376Q232 379 237 379H264V105Q264 92 270 81T286 61T308 47T334 42H451ZM290 673Q290 653 276 639T242 625Q222 625 209 639T195 673Q195 693 208 707T242 721Q262 721 276 707T290 673ZM224 562Q224 542 210 528T176 514Q156 514 142 528T128 562Q128 582 142 596T176 610Q196 610 210 596T224 562ZM356 562Q356 542 343 528T309 514Q289 514 275 528T261 562Q261 582 275 596T309 610Q329 610 342 596T356 562Z"  />
<glyph unicode="&#x62B;" arabic-form="terminal" horiz-adv-x="1086" d="M939 97Q941 72 962 57T1008 42H1130V0H1021Q987 0 959 12T919 47Q901 24 870 12T800 0H149Q75 0 40 30T4 115Q4 123 4 133T6 153Q7 164 8 176Q10 196 15 209T40 223H62Q67 223 68 222T68 214Q62 192 58 171T53 127Q53 100 61 83T83 57T115 45T153 42H800Q843 42 868 63T893 120V356Q893 364 896 369T903 376Q907 379 913 379H939V97H939ZM517 443Q517 423 503 409T469 395Q449 395 436 409T422 443Q422 463 435 477T469 491Q489 491 503 477T517 443ZM451 332Q451 312 437 298T403 284Q383 284 369 298T355 332Q355 352 369 366T403 380Q423 380 437 366T451 332ZM583 332Q583 312 570 298T536 284Q516 284 502 298T488 332Q488 352 502 366T536 380Q556 380 569 366T583 332Z"  />
<glyph unicode="&#x62B;" arabic-form="isolated" horiz-adv-x="1035" d="M939 97Q932 48 895 24T800 0H149Q75 0 40 30T4 115Q4 123 4 133T6 153Q7 164 8 176Q10 196 15 209T40 223H62Q67 223 68 222T68 214Q62 192 58 171T53 127Q53 100 61 83T83 57T115 45T153 42H800Q843 42 868 63T893 120V356Q893 364 896 369T903 376Q907 379 913 379H939V97H939ZM517 443Q517 423 503 409T469 395Q449 395 436 409T422 443Q422 463 435 477T469 491Q489 491 503 477T517 443ZM451 332Q451 312 437 298T403 284Q383 284 369 298T355 332Q355 352 369 366T403 380Q423 380 437 366T451 332ZM583 332Q583 312 570 298T536 284Q516 284 502 298T488 332Q488 352 502 366T536 380Q556 380 569 366T583 332Z"  />
<glyph unicode="&#x62C;" arabic-form="initial" horiz-adv-x="1006" d="M839 337Q878 315 894 272T911 184Q911 145 899 111T865 53T809 14T732 0H-46V42H732Q763 42 787 53T828 83T854 127T863 182Q863 210 854 238T828 288T786 323T729 337H320Q254 337 225 315T193 242Q193 219 198 211T209 197Q211 195 211 193Q211 191 208 191H184Q164 191 156 207T147 243Q147 312 190 345T303 379H895Q901 379 902 380Q903 380 903 381Q906 384 906 381V376V349Q906 345 903 341T892 337H839H839ZM556 -188Q556 -208 542 -222T508 -236Q488 -236 474 -222T460 -188Q460 -168 474 -155T508 -141Q528 -141 542 -154T556 -188Z"  />
<glyph unicode="&#x62C;" arabic-form="medial" horiz-adv-x="1058" d="M1108 42V0H1006Q986 0 968 3T935 14T906 36T883 74Q873 57 861 43T832 20T792 5T735 0H-45V42H740Q770 42 793 52T832 82T856 125T865 179Q865 208 857 236T831 286T789 323T731 337H323Q260 337 229 314T196 234Q196 220 201 211T212 197Q215 194 215 193Q215 191 211 191H187Q174 191 166 197T154 212T148 234T146 258Q149 299 167 323T212 359T271 375T336 379H888Q898 379 901 380Q904 381 905 383T908 385Q909 385 909 383V350Q909 344 904 341Q897 337 880 337H841Q860 328 873 312T895 277T908 236T913 194Q913 178 913 162T912 132Q912 90 940 66T1011 42H1108ZM572 -187Q572 -207 558 -221T524 -235Q504 -235 490 -221T476 -187Q476 -167 490 -154T524 -140Q544 -140 558 -153T572 -187Z"  />
<glyph unicode="&#x62C;" arabic-form="terminal" horiz-adv-x="969" d="M1022 42V0H922Q899 0 878 7T839 25T809 51T792 82Q778 45 740 23T650 0H145Q100 0 76 -28T52 -102Q52 -149 76 -188T139 -256Q143 -259 147 -261T149 -265Q148 -266 144 -266H80Q63 -257 50 -241T26 -204T11 -159T5 -109Q5 -40 40 1T150 42H647Q678 42 702 53T744 83T769 128T778 183Q778 211 769 239T743 288T701 323T643 337H234Q168 337 138 314T107 234Q107 220 112 210T123 196Q126 194 126 193Q126 191 123 191H87Q78 191 72 192T63 200T58 217T57 248Q57 307 98 343T236 379H800Q811 379 814 381Q816 382 817 383T819 385Q820 385 820 382V351Q820 341 810 339T787 337H753Q788 307 804 271T821 183Q821 175 821 166T820 148Q820 120 829 100T854 67T891 48T935 42H1022ZM476 -182Q476 -200 464 -212T433 -225Q415 -225 402 -213T389 -182Q389 -164 402 -152T433 -140Q451 -140 463 -152T476 -182Z"  />
<glyph unicode="&#x62C;" arabic-form="isolated" horiz-adv-x="917" d="M467 -182Q467 -200 455 -212T424 -225Q406 -225 393 -213T380 -182Q380 -164 393 -152T424 -140Q442 -140 454 -152T467 -182ZM752 337Q785 321 804 278T824 183Q824 101 778 51T646 0H145Q119 0 101 -8T72 -30T56 -61T50 -98Q50 -147 74 -185T136 -254Q148 -263 148 -264Q148 -266 143 -266H79Q40 -240 23 -194T5 -99Q5 -72 12 -47T37 -2T81 30T150 42H646Q675 42 699 53T740 82T767 126T777 182Q777 209 768 237T742 287T699 323T643 337H233Q167 337 138 314T106 237Q106 213 123 196Q126 193 126 193Q126 191 122 191H98Q78 191 69 204T59 239Q59 283 74 310T116 353T176 373T247 379H808Q815 379 816 381Q816 383 818 383H819V382Q819 381 820 380V349Q820 338 793 337H752Z"  />
<glyph unicode="&#x62D;" arabic-form="initial" horiz-adv-x="1004" d="M839 337Q878 315 894 272T911 184Q911 145 899 111T865 53T809 14T732 0H-46V42H732Q763 42 787 53T828 83T854 127T863 182Q863 210 854 238T828 288T786 323T729 337H320Q254 337 225 315T193 242Q193 219 198 211T209 197Q211 195 211 193Q211 191 208 191H184Q164 191 156 207T147 243Q147 312 190 345T303 379H895Q901 379 902 380Q903 380 903 381Q906 384 906 381V376V349Q906 345 903 341T892 337H839H839Z"  />
<glyph unicode="&#x62D;" arabic-form="medial" horiz-adv-x="1056" d="M1106 42V0H1004Q984 0 966 3T933 14T904 36T881 74Q871 57 859 43T830 20T790 5T733 0H-47V42H738Q768 42 791 52T830 82T854 125T863 179Q863 208 855 236T829 286T787 323T729 337H321Q258 337 227 314T194 234Q194 220 199 211T210 197Q213 194 213 193Q213 191 209 191H185Q172 191 164 197T152 212T146 234T144 258Q147 299 165 323T210 359T269 375T334 379H886Q896 379 899 380Q902 381 903 383T906 385Q907 385 907 383V350Q907 344 902 341Q895 337 878 337H839Q858 328 871 312T893 277T906 236T911 194Q911 178 911 162T910 132Q910 90 938 66T1009 42H1106Z"  />
<glyph unicode="&#x62D;" arabic-form="terminal" horiz-adv-x="970" d="M1023 42V0H923Q900 0 879 7T840 25T810 51T793 82Q779 45 741 23T651 0H146Q101 0 77 -28T53 -102Q53 -149 77 -188T140 -256Q144 -259 148 -261T150 -265Q149 -266 145 -266H81Q64 -257 51 -241T27 -204T12 -159T6 -109Q6 -40 41 1T151 42H648Q679 42 703 53T745 83T770 128T779 183Q779 211 770 239T744 288T702 323T644 337H235Q169 337 139 314T108 234Q108 220 113 210T124 196Q127 194 127 193Q127 191 124 191H88Q79 191 73 192T64 200T59 217T58 248Q58 307 99 343T237 379H801Q812 379 815 381Q817 382 818 383T820 385Q821 385 821 382V351Q821 341 811 339T788 337H754Q789 307 805 271T822 183Q822 175 822 166T821 148Q821 120 830 100T855 67T892 48T936 42H1023Z"  />
<glyph unicode="&#x62D;" arabic-form="isolated" horiz-adv-x="916" d="M752 337Q785 321 804 278T824 183Q824 101 778 51T646 0H145Q119 0 101 -8T72 -30T56 -61T50 -98Q50 -147 74 -185T136 -254Q148 -263 148 -264Q148 -266 143 -266H79Q40 -240 23 -194T5 -99Q5 -72 12 -47T37 -2T81 30T150 42H646Q675 42 699 53T740 82T767 126T777 182Q777 209 768 237T742 287T699 323T643 337H233Q167 337 138 314T106 237Q106 213 123 196Q126 193 126 193Q126 191 122 191H98Q78 191 69 204T59 239Q59 283 74 310T116 353T176 373T247 379H808Q815 379 816 381Q816 383 818 383H819V382Q819 381 820 380V349Q820 338 793 337H752Z"  />
<glyph unicode="&#x62E;" arabic-form="initial" horiz-adv-x="1006" d="M839 337Q878 315 894 272T911 184Q911 145 899 111T865 53T809 14T732 0H-46V42H732Q763 42 787 53T828 83T854 127T863 182Q863 210 854 238T828 288T786 323T729 337H320Q254 337 225 315T193 242Q193 219 198 211T209 197Q211 195 211 193Q211 191 208 191H184Q164 191 156 207T147 243Q147 312 190 345T303 379H895Q901 379 902 380Q903 380 903 381Q906 384 906 381V376V349Q906 345 903 341T892 337H839H839ZM551 562Q551 542 537 528T503 514Q483 514 470 528T456 562Q456 582 469 596T503 610Q523 610 537 596T551 562Z"  />
<glyph unicode="&#x62E;" arabic-form="medial" horiz-adv-x="1056" d="M1106 42V0H1004Q984 0 966 3T933 14T904 36T881 74Q871 57 859 43T830 20T790 5T733 0H-47V42H738Q768 42 791 52T830 82T854 125T863 179Q863 208 855 236T829 286T787 323T729 337H321Q258 337 227 314T194 234Q194 220 199 211T210 197Q213 194 213 193Q213 191 209 191H185Q172 191 164 197T152 212T146 234T144 258Q147 299 165 323T210 359T269 375T334 379H886Q896 379 899 380Q902 381 903 383T906 385Q907 385 907 383V350Q907 344 902 341Q895 337 878 337H839Q858 328 871 312T893 277T906 236T911 194Q911 178 911 162T910 132Q910 90 938 66T1009 42H1106ZM551 562Q551 542 537 528T503 514Q483 514 470 528T456 562Q456 582 469 596T503 610Q523 610 537 596T551 562Z"  />
<glyph unicode="&#x62E;" arabic-form="terminal" horiz-adv-x="969" d="M1022 42V0H922Q899 0 878 7T839 25T809 51T792 82Q778 45 740 23T650 0H145Q100 0 76 -28T52 -102Q52 -149 76 -188T139 -256Q143 -259 147 -261T149 -265Q148 -266 144 -266H80Q63 -257 50 -241T26 -204T11 -159T5 -109Q5 -40 40 1T150 42H647Q678 42 702 53T744 83T769 128T778 183Q778 211 769 239T743 288T701 323T643 337H234Q168 337 138 314T107 234Q107 220 112 210T123 196Q126 194 126 193Q126 191 123 191H87Q78 191 72 192T63 200T58 217T57 248Q57 307 98 343T236 379H800Q811 379 814 381Q816 382 817 383T819 385Q820 385 820 382V351Q820 341 810 339T787 337H753Q788 307 804 271T821 183Q821 175 821 166T820 148Q820 120 829 100T854 67T891 48T935 42H1022ZM485 562Q485 542 471 528T437 514Q417 514 404 528T390 562Q390 582 403 596T437 610Q457 610 471 596T485 562Z"  />
<glyph unicode="&#x62E;" arabic-form="isolated" horiz-adv-x="916" d="M487 562Q487 542 473 528T439 514Q419 514 406 528T392 562Q392 582 405 596T439 610Q459 610 473 596T487 562ZM752 337Q785 321 804 278T824 183Q824 101 778 51T646 0H145Q119 0 101 -8T72 -30T56 -61T50 -98Q50 -147 74 -185T136 -254Q148 -263 148 -264Q148 -266 143 -266H79Q40 -240 23 -194T5 -99Q5 -72 12 -47T37 -2T81 30T150 42H646Q675 42 699 53T740 82T767 126T777 182Q777 209 768 237T742 287T699 323T643 337H233Q167 337 138 314T106 237Q106 213 123 196Q126 193 126 193Q126 191 122 191H98Q78 191 69 204T59 239Q59 283 74 310T116 353T176 373T247 379H808Q815 379 816 381Q816 383 818 383H819V382Q819 381 820 380V349Q820 338 793 337H752Z"  />
<glyph unicode="&#x62F;" arabic-form="terminal" horiz-adv-x="676" d="M733 42V0H647Q605 0 569 12T513 66Q492 36 453 18T363 0H85Q70 0 65 4Q61 6 61 10T60 18V45Q60 52 62 52Q64 52 65 48Q67 43 71 43T86 42H360Q387 42 412 51T458 78T490 123T503 189Q503 222 491 249T458 295T412 326T360 337H167Q152 337 147 341Q143 343 143 347T142 355V385Q142 389 144 389Q145 389 147 386Q149 381 153 380T168 379H360Q405 379 440 364T500 324T536 264T550 190Q550 181 549 168T547 143T545 123T544 113Q544 94 554 81T578 59T609 46T638 42H733Z"  />
<glyph unicode="&#x62F;" arabic-form="isolated" horiz-adv-x="618" d="M360 379Q401 379 435 365T495 327T534 267T549 190Q549 151 536 117T500 56T444 15T372 0H85Q72 0 66 3Q61 5 61 9T60 18V46Q60 50 61 50Q62 50 65 47Q68 43 72 43T86 42H361Q388 42 413 52T458 82T490 129T502 188Q502 219 493 246T466 293T421 325T359 337H167Q153 337 147 340Q143 342 143 346T142 355V383Q142 388 143 388Q145 388 146 384Q148 380 150 380T160 379H360Z"  />
<glyph unicode="&#x630;" arabic-form="terminal" horiz-adv-x="652" d="M733 42V0H647Q605 0 569 12T513 66Q492 36 453 18T363 0H85Q70 0 65 4Q61 6 61 10T60 18V45Q60 52 62 52Q64 52 65 48Q67 43 71 43T86 42H360Q387 42 412 51T458 78T490 123T503 189Q503 222 491 249T458 295T412 326T360 337H167Q152 337 147 341Q143 343 143 347T142 355V385Q142 389 144 389Q145 389 147 386Q149 381 153 380T168 379H360Q405 379 440 364T500 324T536 264T550 190Q550 181 549 168T547 143T545 123T544 113Q544 94 554 81T578 59T609 46T638 42H733ZM316 562Q316 542 302 528T268 514Q248 514 235 528T221 562Q221 582 234 596T268 610Q288 610 302 596T316 562Z"  />
<glyph unicode="&#x630;" arabic-form="isolated" horiz-adv-x="595" d="M360 379Q401 379 435 365T495 327T534 267T549 190Q549 151 536 117T500 56T444 15T372 0H85Q72 0 66 3Q61 5 61 9T60 18V46Q60 50 61 50Q62 50 65 47Q68 43 72 43T86 42H361Q388 42 413 52T458 82T490 129T502 188Q502 219 493 246T466 293T421 325T359 337H167Q153 337 147 340Q143 342 143 346T142 355V383Q142 388 143 388Q145 388 146 384Q148 380 150 380T160 379H360ZM312 562Q312 542 298 528T264 514Q244 514 231 528T217 562Q217 582 230 596T264 610Q284 610 298 596T312 562Z"  />
<glyph unicode="&#x631;" arabic-form="terminal" horiz-adv-x="392" d="M433 42V0H325Q294 0 273 7T244 23Q244 -54 237 -108T208 -198T143 -249T31 -266Q24 -266 20 -266T13 -264Q5 -262 5 -252V-217L17 -218Q28 -219 38 -219T57 -220Q100 -220 127 -208T169 -171T191 -105T197 -7V356Q197 370 205 376Q209 379 214 379H244V95Q244 65 265 54T312 42H433Z"  />
<glyph unicode="&#x631;" arabic-form="isolated" horiz-adv-x="339" d="M247 0Q247 -72 238 -126T196 -215Q172 -240 134 -253T36 -266Q17 -266 13 -262T9 -252V-217L22 -219Q33 -220 42 -220T60 -221Q140 -221 171 -177Q189 -151 195 -110T202 -7V357Q202 371 210 377Q214 380 219 379H247V0Z"  />
<glyph unicode="&#x632;" arabic-form="terminal" horiz-adv-x="392" d="M433 42V0H325Q294 0 273 7T244 23Q244 -54 237 -108T208 -198T143 -249T31 -266Q24 -266 20 -266T13 -264Q5 -262 5 -252V-217L17 -218Q28 -219 38 -219T57 -220Q100 -220 127 -208T169 -171T191 -105T197 -7V356Q197 370 205 376Q209 379 214 379H244V95Q244 65 265 54T312 42H433ZM269 562Q269 542 255 528T221 514Q201 514 188 528T174 562Q174 582 187 596T221 610Q241 610 255 596T269 562Z"  />
<glyph unicode="&#x632;" arabic-form="isolated" horiz-adv-x="318" d="M247 0Q247 -72 238 -126T196 -215Q172 -240 134 -253T36 -266Q17 -266 13 -262T9 -252V-217L22 -219Q33 -220 42 -220T60 -221Q140 -221 171 -177Q189 -151 195 -110T202 -7V357Q202 371 210 377Q214 380 219 379H247V0ZM272 562Q272 542 258 528T224 514Q204 514 191 528T177 562Q177 582 190 596T224 610Q244 610 258 596T272 562Z"  />
<glyph unicode="&#x633;" arabic-form="initial" horiz-adv-x="882" d="M786 379V138Q786 61 747 29T636 -4Q587 -4 554 13T508 64Q496 32 460 14T376 -4Q355 -4 332 0T289 13T256 35T240 65Q237 53 228 42T207 21T178 6T145 0H-31V42H138Q157 42 172 50T198 71T215 100T222 133V379H268V136Q268 97 295 68T375 38Q428 38 457 65T487 128V379H533V128Q533 113 539 97T558 68T590 47T636 38Q693 38 716 63T740 140V350Q740 365 743 371Q748 379 763 379H786Z"  />
<glyph unicode="&#x633;" arabic-form="medial" horiz-adv-x="932" d="M973 42V0H856Q827 0 799 13T760 57Q755 40 741 28T709 9T671 -1T635 -4Q603 -4 581 3T544 20Q534 26 528 33T517 45Q513 51 510 58Q502 40 488 29T455 10T418 -1T380 -4Q338 -4 303 9T244 62Q232 33 204 17T144 0H-38V42H136Q169 42 194 65T220 125V379H267V124Q267 102 276 86T301 60T337 44T379 38Q399 38 418 43T452 60T476 88T485 128V379H531V128Q531 107 540 91T565 63T600 45T640 39Q659 39 676 45T707 62T729 90T738 128V351Q738 368 742 373Q747 379 763 379H784V128Q784 93 803 68T863 42H973Z"  />
<glyph unicode="&#x633;" arabic-form="terminal" horiz-adv-x="1376" d="M1229 121Q1229 79 1245 61T1296 42H1416V0H1300Q1256 0 1234 17T1204 47Q1187 25 1158 11T1079 -4Q1044 -4 1020 5T982 25T962 45T954 57Q954 56 948 47T928 26T889 5T825 -4Q788 -4 765 5T729 24T712 43T707 50Q707 -14 685 -71T617 -171T502 -240T340 -266Q269 -266 208 -249T102 -196T31 -108T4 18Q4 32 5 51T8 91T16 130T30 161Q35 166 41 167T56 170H65Q69 170 73 170T81 171Q84 171 84 170Q84 168 82 165Q65 136 57 101T49 30Q49 -26 68 -72T125 -152T216 -204T338 -223Q414 -223 474 -205T577 -147T641 -49T664 93V379H710V124Q710 116 713 102T727 74T761 49T823 38Q864 38 885 52T917 83Q928 102 930 128V379H976V127Q976 123 978 109T990 79T1020 51T1079 38Q1115 38 1136 49T1167 76T1180 107T1183 128V351Q1183 369 1187 374Q1190 378 1194 378T1207 379H1229V121Z"  />
<glyph unicode="&#x633;" arabic-form="isolated" horiz-adv-x="1330" d="M1231 130Q1231 107 1225 84T1201 41T1155 9T1081 -4Q1043 -4 1019 5T981 27Q964 40 956 58Q948 40 931 27Q917 15 892 6T827 -4Q788 -4 765 5T730 24T713 43T709 50Q709 -14 687 -71T619 -171T504 -240T342 -266Q271 -266 210 -249T104 -196T33 -108T6 18Q6 32 7 51T10 91T18 130T32 161Q37 166 43 167T58 170H67Q71 170 75 170T83 171Q86 171 86 170Q86 168 84 165Q67 136 59 101T51 30Q51 -26 70 -72T127 -152T218 -204T340 -223Q416 -223 476 -205T579 -147T643 -49T666 93V379H712V124Q712 116 715 102T729 74T763 49T825 38Q866 38 887 52T919 83Q930 102 932 128V379H978V127Q978 123 980 109T992 79T1022 51T1081 38Q1117 38 1138 49T1169 76T1182 107T1185 128V351Q1185 369 1189 374Q1192 378 1196 378T1209 379H1231V130Z"  />
<glyph unicode="&#x634;" arabic-form="initial" horiz-adv-x="884" d="M786 379V138Q786 61 747 29T636 -4Q587 -4 554 13T508 64Q496 32 460 14T376 -4Q355 -4 332 0T289 13T256 35T240 65Q237 53 228 42T207 21T178 6T145 0H-31V42H138Q157 42 172 50T198 71T215 100T222 133V379H268V136Q268 97 295 68T375 38Q428 38 457 65T487 128V379H533V128Q533 113 539 97T558 68T590 47T636 38Q693 38 716 63T740 140V350Q740 365 743 371Q748 379 763 379H786ZM559 673Q559 653 545 639T511 625Q491 625 478 639T464 673Q464 693 477 707T511 721Q531 721 545 707T559 673ZM493 562Q493 542 479 528T445 514Q425 514 411 528T397 562Q397 582 411 596T445 610Q465 610 479 596T493 562ZM625 562Q625 542 612 528T578 514Q558 514 544 528T530 562Q530 582 544 596T578 610Q598 610 611 596T625 562Z"  />
<glyph unicode="&#x634;" arabic-form="medial" horiz-adv-x="932" d="M973 42V0H856Q827 0 799 13T760 57Q755 40 741 28T709 9T671 -1T635 -4Q603 -4 581 3T544 20Q534 26 528 33T517 45Q513 51 510 58Q502 40 488 29T455 10T418 -1T380 -4Q338 -4 303 9T244 62Q232 33 204 17T144 0H-38V42H136Q169 42 194 65T220 125V379H267V124Q267 102 276 86T301 60T337 44T379 38Q399 38 418 43T452 60T476 88T485 128V379H531V128Q531 107 540 91T565 63T600 45T640 39Q659 39 676 45T707 62T729 90T738 128V351Q738 368 742 373Q747 379 763 379H784V128Q784 93 803 68T863 42H973ZM555 673Q555 653 541 639T507 625Q487 625 474 639T460 673Q460 693 473 707T507 721Q527 721 541 707T555 673ZM489 562Q489 542 475 528T441 514Q421 514 407 528T393 562Q393 582 407 596T441 610Q461 610 475 596T489 562ZM621 562Q621 542 608 528T574 514Q554 514 540 528T526 562Q526 582 540 596T574 610Q594 610 607 596T621 562Z"  />
<glyph unicode="&#x634;" arabic-form="terminal" horiz-adv-x="1377" d="M1229 121Q1229 79 1245 61T1296 42H1416V0H1300Q1256 0 1234 17T1204 47Q1187 25 1158 11T1079 -4Q1044 -4 1020 5T982 25T962 45T954 57Q954 56 948 47T928 26T889 5T825 -4Q788 -4 765 5T729 24T712 43T707 50Q707 -14 685 -71T617 -171T502 -240T340 -266Q269 -266 208 -249T102 -196T31 -108T4 18Q4 32 5 51T8 91T16 130T30 161Q35 166 41 167T56 170H65Q69 170 73 170T81 171Q84 171 84 170Q84 168 82 165Q65 136 57 101T49 30Q49 -26 68 -72T125 -152T216 -204T338 -223Q414 -223 474 -205T577 -147T641 -49T664 93V379H710V124Q710 116 713 102T727 74T761 49T823 38Q864 38 885 52T917 83Q928 102 930 128V379H976V127Q976 123 978 109T990 79T1020 51T1079 38Q1115 38 1136 49T1167 76T1180 107T1183 128V351Q1183 369 1187 374Q1190 378 1194 378T1207 379H1229V121ZM999 673Q999 653 985 639T951 625Q931 625 918 639T904 673Q904 693 917 707T951 721Q971 721 985 707T999 673ZM933 562Q933 542 919 528T885 514Q865 514 851 528T837 562Q837 582 851 596T885 610Q905 610 919 596T933 562ZM1065 562Q1065 542 1052 528T1018 514Q998 514 984 528T970 562Q970 582 984 596T1018 610Q1038 610 1051 596T1065 562Z"  />
<glyph unicode="&#x634;" arabic-form="isolated" horiz-adv-x="1330" d="M1231 130Q1231 107 1225 84T1201 41T1155 9T1081 -4Q1043 -4 1019 5T981 27Q964 40 956 58Q948 40 931 27Q917 15 892 6T827 -4Q788 -4 765 5T730 24T713 43T709 50Q709 -14 687 -71T619 -171T504 -240T342 -266Q271 -266 210 -249T104 -196T33 -108T6 18Q6 32 7 51T10 91T18 130T32 161Q37 166 43 167T58 170H67Q71 170 75 170T83 171Q86 171 86 170Q86 168 84 165Q67 136 59 101T51 30Q51 -26 70 -72T127 -152T218 -204T340 -223Q416 -223 476 -205T579 -147T643 -49T666 93V379H712V124Q712 116 715 102T729 74T763 49T825 38Q866 38 887 52T919 83Q930 102 932 128V379H978V127Q978 123 980 109T992 79T1022 51T1081 38Q1117 38 1138 49T1169 76T1182 107T1185 128V351Q1185 369 1189 374Q1192 378 1196 378T1209 379H1231V130ZM1003 673Q1003 653 989 639T955 625Q935 625 922 639T908 673Q908 693 921 707T955 721Q975 721 989 707T1003 673ZM937 562Q937 542 923 528T889 514Q869 514 855 528T841 562Q841 582 855 596T889 610Q909 610 923 596T937 562ZM1069 562Q1069 542 1056 528T1022 514Q1002 514 988 528T974 562Q974 582 988 596T1022 610Q1042 610 1055 596T1069 562Z"  />
<glyph unicode="&#x635;" arabic-form="initial" horiz-adv-x="1400" d="M1312 211Q1312 161 1297 122T1254 56T1190 15T1109 0H346Q330 0 314 3T283 14T258 30T244 50Q229 29 198 15T125 0H-47V42H127Q165 42 192 61T220 116V379H266V114Q266 75 286 59T345 42H1084Q1172 42 1217 87T1263 207Q1263 244 1250 273T1214 323T1162 354T1100 365Q1067 365 1034 354T972 328Q939 311 910 291L597 93V144Q671 192 734 232Q761 249 788 267T841 300T886 329T918 350Q952 371 996 388T1094 407H1099Q1143 407 1182 393T1250 352T1295 290T1312 211Z"  />
<glyph unicode="&#x635;" arabic-form="medial" horiz-adv-x="1444" d="M1497 0H346Q329 0 313 3T282 14T258 30T243 51Q238 41 226 32T197 16T161 5T125 0H-44V42H127Q171 42 195 63T220 121V379H266V118Q266 86 284 64T344 42H1095Q1133 42 1164 56T1216 93T1250 146T1262 208Q1262 242 1247 271T1209 321T1157 353T1100 365Q1074 365 1052 361T1009 348T967 326T918 296L597 93V145Q670 192 733 232Q760 249 788 267T840 301T885 329T918 350Q952 372 994 389T1099 407Q1142 407 1181 393T1249 354T1295 292T1312 211Q1312 164 1290 118T1229 42H1497V0Z"  />
<glyph unicode="&#x635;" arabic-form="terminal" horiz-adv-x="1893" d="M1045 144Q1072 161 1108 185T1187 236T1275 293T1367 349Q1425 382 1468 394T1556 407Q1595 407 1631 393T1696 354T1742 292T1760 211Q1760 169 1747 130T1701 58Q1697 54 1689 48L1681 42H1950V0H806Q772 1 747 10T710 36Q700 -28 667 -83T585 -179T475 -243T346 -266Q286 -266 225 -250T115 -198T35 -108T4 23Q4 46 7 70T17 121Q21 135 24 145T31 160Q36 168 41 169T56 171H75Q80 171 80 169Q80 168 80 167T78 162T74 150T67 128Q50 74 50 31Q50 -27 73 -74T136 -154T226 -205T335 -223Q373 -223 411 -214T487 -187T557 -142T617 -77Q635 -53 645 -24T660 32T667 83T668 120V379H714V104Q714 82 722 70T744 51T771 44T798 42H1522Q1612 42 1661 87T1711 208Q1711 245 1696 274T1658 323T1605 354T1548 365Q1516 365 1480 353T1393 312Q1336 278 1253 225T1046 93L1045 144Z"  />
<glyph unicode="&#x635;" arabic-form="isolated" horiz-adv-x="1845" d="M1045 144Q1072 161 1108 185T1187 236T1275 293T1367 349Q1425 382 1468 394T1556 407Q1593 407 1629 393T1695 354T1742 292T1760 211Q1759 108 1698 54T1523 0H806Q772 0 747 9T710 36Q700 -30 666 -85T580 -180T465 -243T332 -266Q270 -266 211 -248T106 -194T32 -104T4 23Q4 46 7 70T17 121Q21 138 26 154T56 171H75Q79 171 80 170Q82 168 80 165L67 128Q50 78 50 22Q50 -37 72 -83T133 -160T221 -207T326 -223Q365 -223 405 -215T483 -188T555 -143T617 -77Q635 -53 645 -24T660 32T667 83T668 120V379H713V242Q713 216 713 191T713 146T714 114T714 100Q714 80 723 69T744 51T771 44T798 42H1522Q1612 42 1661 87T1711 208Q1711 245 1696 274T1658 323T1605 354T1548 365Q1516 365 1480 353T1393 312Q1336 278 1253 225T1046 93L1045 144Z"  />
<glyph unicode="&#x636;" arabic-form="initial" horiz-adv-x="1397" d="M1312 211Q1312 161 1297 122T1254 56T1190 15T1109 0H346Q330 0 314 3T283 14T258 30T244 50Q229 29 198 15T125 0H-47V42H127Q165 42 192 61T220 116V379H266V114Q266 75 286 59T345 42H1084Q1172 42 1217 87T1263 207Q1263 244 1250 273T1214 323T1162 354T1100 365Q1067 365 1034 354T972 328Q939 311 910 291L597 93V144Q671 192 734 232Q761 249 788 267T841 300T886 329T918 350Q952 371 996 388T1094 407H1099Q1143 407 1182 393T1250 352T1295 290T1312 211ZM1148 562Q1148 542 1134 528T1100 514Q1080 514 1067 528T1053 562Q1053 582 1066 596T1100 610Q1120 610 1134 596T1148 562Z"  />
<glyph unicode="&#x636;" arabic-form="medial" horiz-adv-x="1446" d="M1497 0H346Q329 0 313 3T282 14T258 30T243 51Q238 41 226 32T197 16T161 5T125 0H-44V42H127Q171 42 195 63T220 121V379H266V118Q266 86 284 64T344 42H1095Q1133 42 1164 56T1216 93T1250 146T1262 208Q1262 242 1247 271T1209 321T1157 353T1100 365Q1074 365 1052 361T1009 348T967 326T918 296L597 93V145Q670 192 733 232Q760 249 788 267T840 301T885 329T918 350Q952 372 994 389T1099 407Q1142 407 1181 393T1249 354T1295 292T1312 211Q1312 164 1290 118T1229 42H1497V0ZM1131 562Q1131 542 1117 528T1083 514Q1063 514 1050 528T1036 562Q1036 582 1049 596T1083 610Q1103 610 1117 596T1131 562Z"  />
<glyph unicode="&#x636;" arabic-form="terminal" horiz-adv-x="1893" d="M1045 144Q1072 161 1108 185T1187 236T1275 293T1367 349Q1425 382 1468 394T1556 407Q1595 407 1631 393T1696 354T1742 292T1760 211Q1760 169 1747 130T1701 58Q1697 54 1689 48L1681 42H1950V0H806Q772 1 747 10T710 36Q700 -28 667 -83T585 -179T475 -243T346 -266Q286 -266 225 -250T115 -198T35 -108T4 23Q4 46 7 70T17 121Q21 135 24 145T31 160Q36 168 41 169T56 171H75Q80 171 80 169Q80 168 80 167T78 162T74 150T67 128Q50 74 50 31Q50 -27 73 -74T136 -154T226 -205T335 -223Q373 -223 411 -214T487 -187T557 -142T617 -77Q635 -53 645 -24T660 32T667 83T668 120V379H714V104Q714 82 722 70T744 51T771 44T798 42H1522Q1612 42 1661 87T1711 208Q1711 245 1696 274T1658 323T1605 354T1548 365Q1516 365 1480 353T1393 312Q1336 278 1253 225T1046 93L1045 144ZM1566 562Q1566 542 1552 528T1518 514Q1498 514 1485 528T1471 562Q1471 582 1484 596T1518 610Q1538 610 1552 596T1566 562Z"  />
<glyph unicode="&#x636;" arabic-form="isolated" horiz-adv-x="1849" d="M1045 144Q1072 161 1108 185T1187 236T1275 293T1367 349Q1425 382 1468 394T1556 407Q1593 407 1629 393T1695 354T1742 292T1760 211Q1759 108 1698 54T1523 0H806Q772 0 747 9T710 36Q700 -30 666 -85T580 -180T465 -243T332 -266Q270 -266 211 -248T106 -194T32 -104T4 23Q4 46 7 70T17 121Q21 138 26 154T56 171H75Q79 171 80 170Q82 168 80 165L67 128Q50 78 50 22Q50 -37 72 -83T133 -160T221 -207T326 -223Q365 -223 405 -215T483 -188T555 -143T617 -77Q635 -53 645 -24T660 32T667 83T668 120V379H713V242Q713 216 713 191T713 146T714 114T714 100Q714 80 723 69T744 51T771 44T798 42H1522Q1612 42 1661 87T1711 208Q1711 245 1696 274T1658 323T1605 354T1548 365Q1516 365 1480 353T1393 312Q1336 278 1253 225T1046 93L1045 144ZM1569 562Q1569 542 1555 528T1521 514Q1501 514 1488 528T1474 562Q1474 582 1487 596T1521 610Q1541 610 1555 596T1569 562Z"  />
<glyph unicode="&#x637;" arabic-form="initial" horiz-adv-x="1022" d="M716 407Q762 407 802 394T871 356T916 295T933 211Q933 168 919 130T881 63T822 17T745 0H-44V42H705Q747 42 780 54T836 89T871 141T884 207Q884 244 870 272T834 321T782 351T722 362Q687 362 653 351T592 326Q560 310 531 291L220 93V566Q220 579 229 583Q233 585 238 585H266V175Q330 216 385 251Q408 266 432 281T477 309T514 333T540 350Q574 371 618 389T716 407Z"  />
<glyph unicode="&#x637;" arabic-form="medial" horiz-adv-x="1071" d="M1126 42V0H-41V42H706Q749 42 782 55T838 91T872 144T884 208Q884 244 870 273T833 321T781 351T722 362Q687 362 653 351T592 327Q560 311 532 292L221 94V562Q221 576 229 582Q233 585 237 585H267V176Q331 217 386 252Q409 267 433 282T478 310T515 334T541 351Q574 373 619 390T721 407Q767 407 806 394T874 356T918 295T934 212Q934 187 929 163T915 116T891 74T858 42H1126Z"  />
<glyph unicode="&#x637;" arabic-form="terminal" horiz-adv-x="1095" d="M1148 42V0H24Q13 0 9 3Q4 7 4 12V45Q4 49 5 49Q6 49 8 47Q13 42 18 42H729Q771 42 804 54T860 89T895 141T907 207Q907 243 893 272T856 321T804 351T745 362Q710 362 676 351T615 326Q583 310 554 291L243 93V562Q243 577 252 582Q256 585 261 585H289V175Q353 216 408 251Q431 266 455 281T500 309T537 333T563 350Q597 371 641 389T746 407Q791 407 829 393T896 354T941 292T957 211Q957 155 939 114T880 42H1148Z"  />
<glyph unicode="&#x637;" arabic-form="isolated" horiz-adv-x="1049" d="M742 407Q788 407 828 394T897 356T942 295T959 211Q959 167 944 129T902 62T840 17T765 0H37Q26 0 23 2Q19 4 18 7T17 12V45Q17 49 18 49Q18 49 21 46Q25 42 30 42H731Q772 42 805 54T861 89T897 141T910 207Q910 244 896 272T860 321T808 351T748 362Q713 362 679 351T618 326Q586 310 557 291L246 93V566Q246 579 254 583Q258 585 263 585H292V175Q356 216 411 251Q434 266 458 281T503 309T540 333T566 350Q600 371 644 389T742 407Z"  />
<glyph unicode="&#x638;" arabic-form="initial" horiz-adv-x="1022" d="M716 407Q762 407 802 394T871 356T916 295T933 211Q933 168 919 130T881 63T822 17T745 0H-44V42H705Q747 42 780 54T836 89T871 141T884 207Q884 244 870 272T834 321T782 351T722 362Q687 362 653 351T592 326Q560 310 531 291L220 93V566Q220 579 229 583Q233 585 238 585H266V175Q330 216 385 251Q408 266 432 281T477 309T514 333T540 350Q574 371 618 389T716 407ZM755 562Q755 542 741 528T707 514Q687 514 674 528T660 562Q660 582 673 596T707 610Q727 610 741 596T755 562Z"  />
<glyph unicode="&#x638;" arabic-form="medial" horiz-adv-x="1073" d="M1126 42V0H-41V42H706Q749 42 782 55T838 91T872 144T884 208Q884 244 870 273T833 321T781 351T722 362Q687 362 653 351T592 327Q560 311 532 292L221 94V562Q221 576 229 582Q233 585 237 585H267V176Q331 217 386 252Q409 267 433 282T478 310T515 334T541 351Q574 373 619 390T721 407Q767 407 806 394T874 356T918 295T934 212Q934 187 929 163T915 116T891 74T858 42H1126ZM755 562Q755 542 741 528T707 514Q687 514 674 528T660 562Q660 582 673 596T707 610Q727 610 741 596T755 562Z"  />
<glyph unicode="&#x638;" arabic-form="terminal" horiz-adv-x="1095" d="M1148 42V0H24Q13 0 9 3Q4 7 4 12V45Q4 49 5 49Q6 49 8 47Q13 42 18 42H729Q771 42 804 54T860 89T895 141T907 207Q907 243 893 272T856 321T804 351T745 362Q710 362 676 351T615 326Q583 310 554 291L243 93V562Q243 577 252 582Q256 585 261 585H289V175Q353 216 408 251Q431 266 455 281T500 309T537 333T563 350Q597 371 641 389T746 407Q791 407 829 393T896 354T941 292T957 211Q957 155 939 114T880 42H1148ZM771 562Q771 542 757 528T723 514Q703 514 690 528T676 562Q676 582 689 596T723 610Q743 610 757 596T771 562Z"  />
<glyph unicode="&#x638;" arabic-form="isolated" horiz-adv-x="1044" d="M742 407Q788 407 828 394T897 356T942 295T959 211Q959 167 944 129T902 62T840 17T765 0H37Q26 0 23 2Q19 4 18 7T17 12V45Q17 49 18 49Q18 49 21 46Q25 42 30 42H731Q772 42 805 54T861 89T897 141T910 207Q910 244 896 272T860 321T808 351T748 362Q713 362 679 351T618 326Q586 310 557 291L246 93V566Q246 579 254 583Q258 585 263 585H292V175Q356 216 411 251Q434 266 458 281T503 309T540 333T566 350Q600 371 644 389T742 407ZM771 562Q771 542 757 528T723 514Q703 514 690 528T676 562Q676 582 689 596T723 610Q743 610 757 596T771 562Z"  />
<glyph unicode="&#x639;" arabic-form="initial" horiz-adv-x="728" d="M-45 42H305Q279 53 261 72T229 114T210 163T204 213Q204 259 220 295T266 356T334 394T421 407Q457 407 492 399T555 373T603 327T629 260Q630 255 630 250T631 240Q631 230 628 223T613 215H580Q575 215 575 217Q575 217 577 223Q579 228 579 235T579 250Q579 277 564 298T526 334T474 357T418 365Q382 365 351 355T296 326T260 279T246 213Q246 173 264 142T310 88T374 54T444 42H630V0H-45V42Z"  />
<glyph unicode="&#x639;" arabic-form="medial" horiz-adv-x="791" d="M835 42V0H720Q707 0 684 2T634 20L494 102Q439 73 403 54T341 22T295 5T250 0H-40V42H251Q268 42 286 47T319 58Q336 65 351 75L452 132L183 317Q181 318 178 320Q176 321 173 322T168 323Q159 323 153 314Q152 312 150 312Q149 312 149 316V353Q149 367 154 373T185 379H582Q607 379 631 374T674 357T705 325T717 275Q717 238 693 212T634 168L542 125L659 55Q664 52 678 47T722 42H835ZM499 155Q526 169 551 180Q572 190 593 199T625 214Q644 223 656 237T669 280Q669 295 661 306T641 323T613 333T583 337H231L499 155Z"  />
<glyph unicode="&#x639;" arabic-form="terminal" horiz-adv-x="652" d="M699 42V0H572Q559 -1 546 2Q535 4 522 8T496 20L356 102L187 24Q149 7 124 -10T85 -46T64 -83T58 -121Q58 -144 68 -166T92 -206T123 -236T151 -253Q154 -255 160 -257T167 -261Q167 -263 165 -265Q164 -266 162 -266H80Q48 -239 27 -202T5 -119Q5 -95 13 -72T41 -25T89 21T163 63L314 133L44 317L40 319Q36 321 31 321Q23 321 20 315T12 309Q11 309 11 310V312V352Q11 369 23 374T54 379H448Q471 379 494 373T535 355T565 323T577 278Q577 246 564 222T509 174Q507 173 491 166T455 149Q432 138 404 125L521 53Q525 51 536 47T576 42H699ZM92 337L360 156Q391 170 417 182Q440 193 461 202T491 216Q507 225 517 241T528 277Q528 300 509 318T447 337H92Z"  />
<glyph unicode="&#x639;" arabic-form="isolated" horiz-adv-x="542" d="M443 42V0H149Q129 0 114 -4Q80 -13 66 -41T51 -103Q51 -152 78 -193T146 -260Q149 -262 149 -264Q149 -266 143 -266H78Q64 -257 51 -242T26 -206T9 -161T2 -113Q2 -46 33 -7T121 41Q95 51 76 70T43 113T24 163T17 213Q17 259 33 295T79 356T147 394T234 407Q270 407 305 399T368 373T416 327T442 260Q443 255 443 250T444 240Q444 230 441 223T426 215H393Q388 215 388 217Q388 217 390 223Q392 228 392 235T392 250Q392 277 377 298T339 334T287 357T231 365Q195 365 164 355T109 326T73 279T59 213Q59 173 77 142T123 88T187 54T257 42H443Z"  />
<glyph unicode="&#x63A;" arabic-form="initial" horiz-adv-x="728" d="M-45 42H305Q279 53 261 72T229 114T210 163T204 213Q204 259 220 295T266 356T334 394T421 407Q457 407 492 399T555 373T603 327T629 260Q630 255 630 250T631 240Q631 230 628 223T613 215H580Q575 215 575 217Q575 217 577 223Q579 228 579 235T579 250Q579 277 564 298T526 334T474 357T418 365Q382 365 351 355T296 326T260 279T246 213Q246 173 264 142T310 88T374 54T444 42H630V0H-45V42ZM477 562Q477 542 463 528T429 514Q409 514 396 528T382 562Q382 582 395 596T429 610Q449 610 463 596T477 562Z"  />
<glyph unicode="&#x63A;" arabic-form="medial" horiz-adv-x="791" d="M835 42V0H720Q707 0 684 2T634 20L494 102Q439 73 403 54T341 22T295 5T250 0H-40V42H251Q268 42 286 47T319 58Q336 65 351 75L452 132L183 317Q181 318 178 320Q176 321 173 322T168 323Q159 323 153 314Q152 312 150 312Q149 312 149 316V353Q149 367 154 373T185 379H582Q607 379 631 374T674 357T705 325T717 275Q717 238 693 212T634 168L542 125L659 55Q664 52 678 47T722 42H835ZM499 155Q526 169 551 180Q572 190 593 199T625 214Q644 223 656 237T669 280Q669 295 661 306T641 323T613 333T583 337H231L499 155ZM520 562Q520 542 506 528T472 514Q452 514 439 528T425 562Q425 582 438 596T472 610Q492 610 506 596T520 562Z"  />
<glyph unicode="&#x63A;" arabic-form="terminal" horiz-adv-x="652" d="M699 42V0H572Q559 -1 546 2Q535 4 522 8T496 20L356 102L187 24Q149 7 124 -10T85 -46T64 -83T58 -121Q58 -144 68 -166T92 -206T123 -236T151 -253Q154 -255 160 -257T167 -261Q167 -263 165 -265Q164 -266 162 -266H80Q48 -239 27 -202T5 -119Q5 -95 13 -72T41 -25T89 21T163 63L314 133L44 317L40 319Q36 321 31 321Q23 321 20 315T12 309Q11 309 11 310V312V352Q11 369 23 374T54 379H448Q471 379 494 373T535 355T565 323T577 278Q577 246 564 222T509 174Q507 173 491 166T455 149Q432 138 404 125L521 53Q525 51 536 47T576 42H699ZM92 337L360 156Q391 170 417 182Q440 193 461 202T491 216Q507 225 517 241T528 277Q528 300 509 318T447 337H92ZM379 562Q379 542 365 528T331 514Q311 514 298 528T284 562Q284 582 297 596T331 610Q351 610 365 596T379 562Z"  />
<glyph unicode="&#x63A;" arabic-form="isolated" horiz-adv-x="540" d="M443 42V0H149Q129 0 114 -4Q80 -13 66 -41T51 -103Q51 -152 78 -193T146 -260Q149 -262 149 -264Q149 -266 143 -266H78Q64 -257 51 -242T26 -206T9 -161T2 -113Q2 -46 33 -7T121 41Q95 51 76 70T43 113T24 163T17 213Q17 259 33 295T79 356T147 394T234 407Q270 407 305 399T368 373T416 327T442 260Q443 255 443 250T444 240Q444 230 441 223T426 215H393Q388 215 388 217Q388 217 390 223Q392 228 392 235T392 250Q392 277 377 298T339 334T287 357T231 365Q195 365 164 355T109 326T73 279T59 213Q59 173 77 142T123 88T187 54T257 42H443ZM289 562Q289 542 275 528T241 514Q221 514 208 528T194 562Q194 582 207 596T241 610Q261 610 275 596T289 562Z"  />
<glyph unicode="&#x640;" horiz-adv-x="155" d="M176 0H-23V42H176V0Z"  />
<glyph unicode="&#x641;" arabic-form="initial" horiz-adv-x="743" d="M437 407Q482 407 521 393T589 353T635 289T652 204Q652 160 638 123T599 58T537 16T456 0H-42V42H282Q246 71 228 113T210 204Q210 253 228 291T277 355T349 394T437 407ZM436 42Q509 42 556 84T603 204Q603 241 590 269T554 318T501 348T438 359Q403 359 371 350T314 321T275 273T260 204Q260 124 307 83T436 42ZM483 562Q483 542 469 528T435 514Q415 514 402 528T388 562Q388 582 401 596T435 610Q455 610 469 596T483 562Z"  />
<glyph unicode="&#x641;" arabic-form="medial" horiz-adv-x="786" d="M480 562Q480 542 466 528T432 514Q412 514 399 528T385 562Q385 582 398 596T432 610Q452 610 466 596T480 562ZM833 42V0H-44V42H281Q243 71 226 113T209 204Q209 250 225 287T271 352T339 393T424 408H436Q482 408 521 394T589 352T634 288T650 204Q650 156 633 114T579 42H833ZM435 42Q471 42 501 53T554 85T588 136T601 204Q601 239 588 267T553 316T500 347T437 359H423Q390 358 360 347T308 316T272 268T259 204Q259 128 305 85T425 42H435Z"  />
<glyph unicode="&#x641;" arabic-form="terminal" horiz-adv-x="1095" d="M53 127Q53 100 61 83T83 57T115 45T153 42H582Q546 72 529 113T511 203Q511 252 527 289T574 353T645 393T737 407Q782 407 821 393T890 353T935 288T952 203Q952 152 934 111T882 42H1153V0H149Q75 0 40 30T4 115Q4 123 4 133T6 153Q7 164 8 176Q10 196 15 209T40 223H62Q67 223 68 222T68 214Q62 192 58 171T53 127ZM736 42Q810 42 856 85T902 204Q902 241 889 269T853 318T800 348T738 359Q703 359 671 350T615 321T576 273T561 204Q561 126 607 84T736 42ZM786 562Q786 542 772 528T738 514Q718 514 705 528T691 562Q691 582 704 596T738 610Q758 610 772 596T786 562Z"  />
<glyph unicode="&#x641;" arabic-form="isolated" horiz-adv-x="1042" d="M53 127Q53 100 61 83T83 57T115 45T153 42H582Q546 72 529 113T511 203Q511 252 527 289T574 353T645 393T737 407Q782 407 821 393T890 353T935 288T952 203Q952 159 938 122T899 58T837 16T755 0H149Q75 0 40 30T4 115Q4 123 4 133T6 153Q7 164 8 176Q10 196 15 209T40 223H62Q67 223 68 222T68 214Q62 192 58 171T53 127ZM736 42Q810 42 856 85T902 204Q902 241 889 269T853 318T800 348T738 359Q703 359 671 350T615 321T576 273T561 204Q561 126 607 84T736 42ZM782 562Q782 542 768 528T734 514Q714 514 701 528T687 562Q687 582 700 596T734 610Q754 610 768 596T782 562Z"  />
<glyph unicode="&#x642;" arabic-form="initial" horiz-adv-x="743" d="M437 407Q482 407 521 393T589 353T635 289T652 204Q652 160 638 123T599 58T537 16T456 0H-42V42H282Q246 71 228 113T210 204Q210 253 228 291T277 355T349 394T437 407ZM436 42Q509 42 556 84T603 204Q603 241 590 269T554 318T501 348T438 359Q403 359 371 350T314 321T275 273T260 204Q260 124 307 83T436 42ZM416 562Q416 542 402 528T368 514Q348 514 334 528T320 562Q320 582 334 596T368 610Q388 610 402 596T416 562ZM548 562Q548 542 534 528T500 514Q480 514 467 528T453 562Q453 582 466 596T500 610Q520 610 534 596T548 562Z"  />
<glyph unicode="&#x642;" arabic-form="medial" horiz-adv-x="786" d="M413 562Q413 542 399 528T365 514Q345 514 331 528T317 562Q317 582 331 596T365 610Q385 610 399 596T413 562ZM545 562Q545 542 531 528T497 514Q477 514 464 528T450 562Q450 582 463 596T497 610Q517 610 531 596T545 562ZM833 42V0H-44V42H281Q243 71 226 113T209 204Q209 250 225 287T271 352T339 393T424 408H436Q482 408 521 394T589 352T634 288T650 204Q650 156 633 114T579 42H833ZM435 42Q471 42 501 53T554 85T588 136T601 204Q601 239 588 267T553 316T500 347T437 359H423Q390 358 360 347T308 316T272 268T259 204Q259 128 305 85T425 42H435Z"  />
<glyph unicode="&#x642;" arabic-form="terminal" horiz-adv-x="860" d="M522 0Q459 0 419 11T356 47T323 113T314 214Q314 255 327 290T364 351T424 392T505 407Q560 407 598 391T661 342T696 262T707 152Q707 134 707 115T707 79T707 53T705 42H914V0H703Q690 -60 655 -109T568 -193T456 -247T330 -266Q265 -266 207 -246T103 -189T32 -98T5 26Q5 67 16 119Q21 141 25 154Q31 171 50 172Q51 172 63 172T78 173Q79 172 80 172Q82 170 82 169Q82 167 81 165Q74 149 69 129T60 90T54 54T52 27Q52 -30 75 -76T136 -154T226 -204T335 -223Q382 -221 432 -207T526 -166T604 -97T653 0H522ZM660 180Q658 221 650 255T624 313T577 350T505 364Q478 364 452 354T406 324T373 277T361 215Q361 177 364 145T381 90T421 55T494 42H660V180ZM487 562Q487 542 473 528T439 514Q419 514 405 528T391 562Q391 582 405 596T439 610Q459 610 473 596T487 562ZM619 562Q619 542 605 528T571 514Q551 514 538 528T524 562Q524 582 537 596T571 610Q591 610 605 596T619 562Z"  />
<glyph unicode="&#x642;" arabic-form="isolated" horiz-adv-x="805" d="M712 152Q712 93 709 58T700 1Q687 -59 652 -108T567 -193T456 -247T330 -266Q265 -266 207 -246T103 -189T32 -98T5 26Q5 67 16 119Q21 141 25 154Q31 171 50 172Q51 172 63 172T78 173Q79 172 80 172Q82 170 82 169Q82 167 81 165Q74 149 69 129T60 90T54 54T52 27Q52 -30 75 -76T136 -154T226 -204T335 -223Q382 -221 431 -206T523 -164T600 -99T649 -13Q653 -3 655 10T659 27Q656 19 648 13Q641 8 629 4T598 0H522Q459 0 419 11T356 47T323 113T314 214Q314 255 327 290T364 351T424 392T505 407Q615 407 663 342T712 152ZM665 180Q663 221 654 255T626 313T578 350T505 364Q478 364 452 354T406 324T373 277T361 215Q361 177 364 145T381 91T421 55T494 42H606Q626 42 644 54T665 99V180ZM487 562Q487 542 473 528T439 514Q419 514 405 528T391 562Q391 582 405 596T439 610Q459 610 473 596T487 562ZM619 562Q619 542 605 528T571 514Q551 514 538 528T524 562Q524 582 537 596T571 610Q591 610 605 596T619 562Z"  />
<glyph unicode="&#x643;" arabic-form="initial" horiz-adv-x="483" d="M433 556Q433 553 431 551Q429 551 428 552Q426 554 424 554Q420 554 416 551T405 544L148 375Q210 316 260 268Q281 248 302 228T339 192T367 166T380 153Q399 136 409 117T419 72Q419 43 398 22T340 0H-49V42H328Q351 42 360 52T369 73Q369 89 364 100T344 125L76 381Q164 438 234 484Q264 503 293 522T345 556T384 581T402 593Q415 602 420 602Q424 602 427 599Q430 596 431 591T433 575V556Z"  />
<glyph unicode="&#x643;" arabic-form="medial" horiz-adv-x="535" d="M576 42V0H456Q440 0 426 6T401 26Q394 12 375 6T338 0H-40V42H326Q340 42 354 49T368 76Q368 88 362 99T342 125L74 381Q161 438 231 484Q261 503 289 522T341 556T380 580T397 591Q404 595 409 597T420 600Q425 600 428 597Q430 594 430 587T431 559Q431 553 428 550Q425 549 423 551Q421 553 419 553Q417 553 403 544L146 375Q210 314 261 266Q283 245 304 225T342 189T371 161T384 148Q395 137 401 126T411 105Q416 87 416 74T420 52Q423 47 430 45T451 42H576Z"  />
<glyph unicode="&#x643;" arabic-form="terminal" horiz-adv-x="1086" d="M427 267Q413 272 404 285T395 321Q395 346 414 363T463 380H522Q535 380 541 387L564 368Q564 364 559 360T546 356H462Q439 356 430 343T421 314Q423 291 448 280T530 268H568V246H364V268L427 267ZM1132 42V0H1021Q1008 0 993 2T963 9T937 24T919 47Q899 22 867 11T800 0H149Q88 0 47 26T4 115Q4 123 4 133T5 153Q6 164 7 176Q7 183 8 191T12 206T21 218T39 223H66Q69 223 69 221Q69 218 67 214Q60 195 57 173T53 127Q53 42 153 42H800Q840 42 865 54T893 108V562Q893 570 896 575T903 582Q907 585 913 585H939V99Q939 73 961 59T1008 42H1132Z"  />
<glyph unicode="&#x643;" arabic-form="isolated" horiz-adv-x="1037" d="M939 97Q936 71 923 53T891 23T849 6T800 0H149Q88 0 47 26T4 115Q4 123 4 133T5 153Q6 164 7 176Q7 183 8 191T12 206T21 218T39 223H66Q69 223 69 221Q69 218 67 214Q60 195 57 173T53 127Q53 42 153 42H800Q840 42 865 54T893 108V562Q893 570 896 575T903 582Q907 585 913 585H939V97ZM427 267Q413 272 404 285T395 321Q395 346 414 363T463 380H522Q535 380 541 387L564 368Q564 364 559 360T546 356H462Q439 356 430 343T421 314Q423 291 448 280T530 268H568V246H364V268L427 267Z"  />
<glyph unicode="&#x644;" arabic-form="initial" horiz-adv-x="359" d="M263 97Q263 86 259 70T240 38T198 11T124 0H-49V42H125Q158 42 176 50T203 71T214 95T216 116V563Q216 571 218 575T224 582Q228 585 233 585H263V97H263Z"  />
<glyph unicode="&#x644;" arabic-form="medial" horiz-adv-x="409" d="M454 42V0H344Q312 0 292 7T261 25Q248 36 242 50Q234 36 217 25Q203 15 179 8T117 0H-45V42H125Q158 42 176 50T203 71T214 95T216 116V561Q216 576 224 582Q228 585 232 585H262V96Q262 74 282 58T332 42H454Z"  />
<glyph unicode="&#x644;" arabic-form="terminal" horiz-adv-x="857" d="M885 42V0H801Q769 0 743 8T706 34Q700 -24 676 -78T607 -174T494 -241T330 -266Q269 -266 211 -249T107 -195T33 -105T5 24Q5 56 10 90T27 155Q30 163 34 165T49 168Q69 169 73 169T79 169Q85 169 82 163Q80 158 76 149T66 125Q58 101 54 79T50 35Q50 -31 72 -80T133 -160T219 -207T321 -223Q388 -223 450 -208T559 -156T635 -54T664 108V563Q664 578 673 583Q677 586 682 585H710V107Q710 83 719 70T740 50T767 43T792 42H885Z"  />
<glyph unicode="&#x644;" arabic-form="isolated" horiz-adv-x="808" d="M710 155Q710 109 709 82T706 34Q700 -24 676 -78T607 -174T494 -241T330 -266Q269 -266 211 -249T107 -195T33 -105T5 24Q5 56 9 90T27 155Q32 169 49 169H81Q84 169 84 168V166Q84 165 83 164Q69 135 60 103T50 35Q50 -31 72 -80T133 -160T219 -207T321 -223Q388 -223 450 -208T559 -156T635 -54T664 108V563Q664 578 673 583Q677 586 682 585H710V155H710Z"  />
<glyph unicode="&#x645;" arabic-form="initial" horiz-adv-x="711" d="M550 272Q582 252 599 221T616 160Q616 120 599 90T554 40T490 10T417 0Q382 0 355 3T306 13T269 34T240 68Q220 35 188 18T120 0H-46V42H110Q170 42 190 70T210 164Q210 184 221 208T247 247Q256 257 267 266T290 283Q302 292 315 299L371 337L321 374Q319 376 319 377Q319 379 322 379H393L550 272ZM410 42Q435 42 463 49T514 71T552 108T567 160Q567 186 554 205T518 240Q516 241 499 252T462 277Q438 293 408 312Q398 306 385 297Q362 282 316 252Q311 249 301 242T281 222T263 192T255 151Q255 90 296 66T410 42Z"  />
<glyph unicode="&#x645;" arabic-form="medial" horiz-adv-x="763" d="M805 42V0H705Q664 0 640 9T603 31T587 55T582 70Q553 34 508 17T417 0Q348 0 307 14T240 68Q221 35 188 18T120 0H-46V42H110Q166 42 188 69T210 161Q210 190 224 214T256 256Q276 276 302 292L370 337L322 374Q320 376 320 377Q320 379 324 379H392L548 274Q569 260 582 246T602 218T613 192T616 169Q615 156 615 149T615 135Q615 91 636 67T714 42H805ZM410 42Q437 42 465 50T515 73T552 110T567 160Q567 183 555 203T518 240Q483 262 461 276T427 298Q413 308 406 312Q397 306 384 297Q373 289 356 278T316 252Q311 249 301 241T281 221T263 193T255 155Q255 125 266 104T299 69T348 49T410 42Z"  />
<glyph unicode="&#x645;" arabic-form="terminal" horiz-adv-x="753" d="M800 42V0H697Q659 0 625 16T576 70Q548 34 505 17T415 0H103Q81 0 67 -15T53 -53V-266H6V-49Q6 -4 37 19T113 42H260Q202 85 202 152Q202 197 229 233T293 292L362 337L313 374Q310 377 311 378Q312 379 317 379H386L542 273Q571 254 589 227T607 167Q607 157 606 147T605 128Q605 111 610 98T625 74Q642 57 664 50T706 42H800ZM402 42Q430 42 458 50T509 73T545 111T559 164Q559 185 547 204T510 240Q475 261 454 275T420 297Q405 307 398 312L308 252Q303 249 293 241T273 221T255 192T247 154Q247 125 260 104T294 69T344 49T402 42Z"  />
<glyph unicode="&#x645;" arabic-form="isolated" horiz-adv-x="702" d="M609 155Q606 116 590 87T547 39T487 11T414 0H113Q82 0 68 -15T53 -53V-266H7V-51Q7 -29 16 -12T40 18T74 36T115 42H262Q234 62 219 89T203 152Q203 197 230 232T295 292L365 337L315 374Q313 376 313 377Q313 379 316 379H387L543 272Q561 261 574 247T594 217T605 185T609 155ZM404 42Q433 42 461 50T512 73T547 110T561 161Q561 183 550 203T512 240Q477 261 456 275T421 297Q406 307 399 312Q391 306 379 298Q368 290 352 280T310 252Q304 248 294 240T274 219T257 189T249 151Q252 122 265 102T298 68T346 48T404 42Z"  />
<glyph unicode="&#x646;" arabic-form="initial" horiz-adv-x="362" d="M288 562Q288 542 274 528T240 514Q220 514 207 528T193 562Q193 582 206 596T240 610Q260 610 274 596T288 562ZM264 97Q259 46 223 23T126 0H-40V42H125Q171 42 194 62T218 120V356Q218 371 227 376Q231 379 236 379H264V97Z"  />
<glyph unicode="&#x646;" arabic-form="medial" horiz-adv-x="411" d="M451 42V0H347Q321 0 303 5T272 19Q264 24 259 29T250 40Q246 45 244 50Q241 44 237 39Q233 34 227 29T209 18Q195 11 175 7T126 0H-33V42H127Q172 42 195 56T218 107V239Q218 292 219 357Q219 371 228 376Q232 379 237 379H264V105Q264 92 270 81T286 61T308 47T334 42H451ZM291 562Q291 542 277 528T243 514Q223 514 210 528T196 562Q196 582 209 596T243 610Q263 610 277 596T291 562Z"  />
<glyph unicode="&#x646;" arabic-form="terminal" horiz-adv-x="857" d="M662 357Q662 365 665 372T680 379H710V103Q710 84 718 72T738 54T765 45T794 42H897V0H803Q773 0 749 7T707 35Q696 -34 661 -89T575 -184T459 -244T328 -266Q271 -266 214 -249T110 -197T35 -113T5 2Q5 28 6 57T14 118Q22 153 29 162Q32 167 37 168T58 169H74Q80 169 80 166Q80 165 80 165T79 164V163Q75 156 73 149T68 137Q65 131 64 125Q56 101 53 79T49 35Q51 -26 65 -66T112 -138Q153 -177 212 -200T334 -223Q410 -223 484 -188T613 -78Q631 -53 641 -25T657 32Q659 46 660 82T662 179V357ZM395 125Q395 105 381 91T347 77Q327 77 314 91T300 125Q300 145 313 159T347 173Q367 173 381 159T395 125Z"  />
<glyph unicode="&#x646;" arabic-form="isolated" horiz-adv-x="808" d="M711 125Q711 96 711 73T709 35Q703 -25 669 -79T583 -175T466 -240T331 -265Q270 -265 212 -248T108 -194T34 -103T6 27Q6 39 7 57T12 95T21 133T34 164Q37 171 53 171H82Q86 171 86 169Q86 168 84 164Q62 131 56 93T50 19Q50 -35 73 -79T136 -156T228 -205T339 -223Q375 -223 412 -214T486 -186T556 -140T616 -78Q634 -53 644 -27T658 24T664 71T665 108V357Q665 372 674 377Q678 380 683 379H711V125H711ZM395 136Q395 116 381 102T347 88Q327 88 314 102T300 136Q300 156 313 170T347 184Q367 184 381 170T395 136Z"  />
<glyph unicode="&#x647;" arabic-form="initial" horiz-adv-x="907" d="M-52 42H250Q221 68 211 99T201 158Q201 215 219 251T268 307T340 335T426 343Q440 343 453 347T472 358Q478 367 478 374Q478 378 477 379H535Q534 378 534 374Q534 367 540 358Q545 352 558 348T586 343Q631 343 672 336T743 308T792 251T811 158Q811 125 798 96T761 45T705 10T636 -3Q596 -3 561 12T506 64Q489 31 458 16T391 0H-52V42ZM506 335L498 323Q490 312 465 304T389 296Q320 296 284 261T248 168Q248 107 282 75T382 42Q436 42 458 69T480 145V177H532V145Q532 97 557 69T638 40Q669 40 692 50T732 77T756 118T764 168Q764 225 728 260T623 296Q572 296 547 304T514 323L506 335Z"  />
<glyph unicode="&#x647;" arabic-form="medial" horiz-adv-x="958" d="M-52 42H250Q225 66 213 98T201 158Q201 214 219 250T268 306T340 335T426 343Q440 343 453 347T472 358Q478 367 478 374Q478 378 477 379H535Q534 378 534 374Q534 367 540 358Q545 352 558 348T586 343Q631 343 672 336T743 308T792 251T811 158Q811 144 808 131T805 101Q805 85 816 74T843 55T876 45T905 42H1004V0H895Q860 0 829 14T779 61Q751 29 719 14T632 -2Q595 -2 561 13T506 64Q489 32 459 18T391 0H-52V42ZM506 335L498 323Q490 312 468 305T389 296Q320 294 284 260T248 168Q248 111 279 77T382 42Q434 42 457 70T480 141V177H532V151Q532 124 537 104T553 70T584 49T634 40Q697 42 730 77T764 168Q764 225 728 259T623 296Q567 297 545 304T514 323L506 335Z"  />
<glyph unicode="&#x647;" arabic-form="terminal" horiz-adv-x="646" d="M698 42V0H587Q548 0 520 13T478 50Q439 0 352 0H235Q133 0 71 45T3 187Q4 282 57 322T209 363Q239 363 258 362T295 358T334 355T388 353Q425 353 436 358T452 379H499V96Q500 83 507 73T524 56T548 46T573 42H698ZM453 329Q448 317 426 313T382 308Q352 308 331 309T292 313T254 316T206 318Q134 318 91 286T48 190Q48 150 64 122T108 76T170 50T243 42H353Q401 42 427 62T453 121V329Z"  />
<glyph unicode="&#x647;" arabic-form="isolated" horiz-adv-x="705" d="M341 374Q341 367 347 358Q352 352 365 348T393 343Q438 343 479 336T550 309T599 253T618 158Q618 125 605 96T568 46T508 12T428 0H200Q156 0 121 12T61 45T23 96T10 158Q10 217 28 253T77 309T149 336T235 343Q249 343 262 347T281 358Q287 367 287 374Q287 378 286 379H342Q341 378 341 374ZM434 42Q465 42 490 51T534 78T561 118T571 168Q571 225 535 261T430 298Q374 298 352 306T321 325L314 335L307 325Q299 314 277 306T198 298Q129 298 93 262T57 168Q57 141 66 118T94 78T137 52T194 42H434Z"  />
<glyph unicode="&#x648;" arabic-form="terminal" horiz-adv-x="570" d="M240 0Q179 0 143 7T87 34T61 91T55 188Q55 231 64 270T95 340T150 389T234 407Q325 407 371 356T418 205V43H631V0H418V-8Q418 -86 400 -136T347 -215T260 -255T142 -266H133Q123 -266 119 -263Q115 -260 115 -252V-219Q138 -221 154 -222T186 -223Q239 -223 275 -209T332 -167T363 -100T372 -13V0H278H240ZM370 42V175Q370 215 365 250T346 310T306 350T239 365Q198 365 171 352T129 314T107 258T100 190Q100 142 103 113T118 68T156 47T224 42H370Z"  />
<glyph unicode="&#x648;" arabic-form="isolated" horiz-adv-x="518" d="M418 -8Q418 -86 400 -136T347 -215T260 -255T142 -266H133Q123 -266 119 -263Q115 -260 115 -252V-219Q138 -221 154 -222T186 -223Q239 -223 275 -209T332 -167T363 -100T372 -13V25Q364 16 357 11T337 4T301 1T240 0Q179 0 143 7T87 34T61 91T55 188Q55 231 64 270T95 340T150 389T234 407Q325 407 371 356T418 205V-8ZM241 42Q277 42 302 44T342 52T363 70T370 101V175Q370 215 365 250T346 310T306 350T239 365Q198 365 171 352T129 314T107 258T100 190Q100 142 103 113T118 68T156 47T224 42H241Z"  />
<glyph unicode="&#x649;" arabic-form="initial" horiz-adv-x="362" d="M264 97Q259 46 223 23T126 0H-40V42H125Q171 42 194 62T218 120V356Q218 371 227 376Q231 379 236 379H264V97Z"  />
<glyph unicode="&#x649;" arabic-form="medial" horiz-adv-x="411" d="M451 42V0H347Q321 0 303 5T272 19Q264 24 259 29T250 40Q246 45 244 50Q241 44 237 39Q233 34 227 29T209 18Q195 11 175 7T126 0H-33V42H127Q172 42 195 56T218 107V239Q218 292 219 357Q219 371 228 376Q232 379 237 379H264V105Q264 92 270 81T286 61T308 47T334 42H451Z"  />
<glyph unicode="&#x649;" arabic-form="terminal" horiz-adv-x="765" d="M550 -199Q586 -189 611 -177T652 -149T678 -115T691 -71Q690 -39 665 -20T587 0H515Q504 0 499 -1T491 -4T487 -7T484 -9Q480 -9 480 -2V21Q480 32 487 36T506 42H837V0H697Q698 0 704 -4T717 -16T730 -38T736 -72Q736 -106 723 -133T686 -180T632 -216T565 -242Q487 -266 379 -266Q311 -266 246 -254T129 -210T44 -125T5 12Q5 48 10 88T32 158Q36 163 39 165T51 167H74Q83 167 83 164Q83 163 83 162T79 155Q65 123 57 87T49 13Q50 -52 78 -97T150 -170T249 -210T358 -223Q370 -223 391 -223T437 -220T492 -212T550 -199Z"  />
<glyph unicode="&#x649;" arabic-form="isolated" horiz-adv-x="809" d="M723 42Q731 42 738 38T745 20Q745 -3 744 -26T737 -75Q726 -138 682 -179T565 -242Q487 -266 379 -266Q310 -266 245 -254T128 -209T43 -123T5 16Q5 49 10 88T32 158Q36 163 39 165T51 167H74Q83 167 83 164Q83 163 83 162T79 155Q65 123 57 87T49 13Q50 -52 77 -97T149 -170T248 -210T358 -223Q370 -223 391 -223T437 -220T492 -213T550 -199Q627 -177 662 -131T698 0H484Q457 0 431 6T383 27T349 63T336 115Q336 157 359 194T418 265Q447 293 480 317T544 359T596 389T628 405Q647 413 666 418T700 424Q705 424 712 423T726 419T738 411T743 399Q743 393 743 384T742 365Q742 362 740 362Q740 362 737 365Q732 370 725 373T703 377Q691 377 674 373T633 357Q576 331 527 297T442 228Q413 199 397 172T381 123Q381 86 410 64T496 42H723H723Z"  />
<glyph unicode="&#x64A;" arabic-form="initial" horiz-adv-x="362" d="M264 97Q259 46 223 23T126 0H-40V42H125Q171 42 194 62T218 120V356Q218 371 227 376Q231 379 236 379H264V97ZM134 -181Q134 -201 120 -215T86 -229Q66 -229 52 -215T38 -181Q38 -161 52 -147T86 -133Q106 -133 120 -147T134 -181ZM266 -181Q266 -201 253 -215T219 -229Q199 -229 185 -215T171 -181Q171 -161 185 -147T219 -133Q239 -133 252 -147T266 -181Z"  />
<glyph unicode="&#x64A;" arabic-form="medial" horiz-adv-x="411" d="M451 42V0H347Q321 0 303 5T272 19Q264 24 259 29T250 40Q246 45 244 50Q241 44 237 39Q233 34 227 29T209 18Q195 11 175 7T126 0H-33V42H127Q172 42 195 56T218 107V239Q218 292 219 357Q219 371 228 376Q232 379 237 379H264V105Q264 92 270 81T286 61T308 47T334 42H451ZM142 -182Q142 -202 128 -216T94 -230Q74 -230 60 -216T46 -182Q46 -162 60 -148T94 -134Q114 -134 128 -148T142 -182ZM274 -182Q274 -202 261 -216T227 -230Q207 -230 193 -216T179 -182Q179 -162 193 -148T227 -134Q247 -134 260 -148T274 -182Z"  />
<glyph unicode="&#x64A;" arabic-form="terminal" horiz-adv-x="761" d="M550 -199Q586 -189 611 -177T652 -149T678 -115T691 -71Q690 -39 665 -20T587 0H515Q504 0 499 -1T491 -4T487 -7T484 -9Q480 -9 480 -2V21Q480 32 487 36T506 42H837V0H697Q698 0 704 -4T717 -16T730 -38T736 -72Q736 -106 723 -133T686 -180T632 -216T565 -242Q487 -266 379 -266Q311 -266 246 -254T129 -210T44 -125T5 12Q5 48 10 88T32 158Q36 163 39 165T51 167H74Q83 167 83 164Q83 163 83 162T79 155Q65 123 57 87T49 13Q50 -52 78 -97T150 -170T249 -210T358 -223Q370 -223 391 -223T437 -220T492 -212T550 -199ZM334 -380Q334 -400 320 -414T286 -428Q266 -428 252 -414T238 -380Q238 -360 252 -346T286 -332Q306 -332 320 -346T334 -380ZM466 -380Q466 -400 453 -414T419 -428Q399 -428 385 -414T371 -380Q371 -360 385 -346T419 -332Q439 -332 452 -346T466 -380Z"  />
<glyph unicode="&#x64A;" arabic-form="isolated" horiz-adv-x="812" d="M720 42Q728 42 735 38T742 20Q742 -3 741 -26T734 -75Q723 -138 679 -179T562 -242Q484 -266 376 -266Q307 -266 242 -254T125 -209T40 -123T2 16Q2 49 7 88T29 158Q33 163 36 165T48 167H71Q80 167 80 164Q80 163 80 162T76 155Q62 123 54 87T46 13Q47 -52 74 -97T146 -170T245 -210T355 -223Q367 -223 388 -223T434 -220T489 -213T547 -199Q624 -177 659 -131T695 0H481Q454 0 428 6T380 27T346 63T333 115Q333 157 356 194T415 265Q444 293 477 317T541 359T593 389T625 405Q644 413 663 418T697 424Q702 424 709 423T723 419T735 411T740 399Q740 393 740 384T739 365Q739 362 737 362Q737 362 734 365Q729 370 722 373T700 377Q688 377 671 373T630 357Q573 331 524 297T439 228Q410 199 394 172T378 123Q378 86 407 64T493 42H720H720ZM332 -389Q332 -409 318 -423T284 -437Q264 -437 250 -423T236 -389Q236 -369 250 -355T284 -341Q304 -341 318 -355T332 -389ZM464 -389Q464 -409 451 -423T417 -437Q397 -437 383 -423T369 -389Q369 -369 383 -355T417 -341Q437 -341 450 -355T464 -389Z"  />
<glyph unicode="&#x64B;" horiz-adv-x="0" d="M99 720V699L-105 698V720H99ZM99 789V767H-105V789H99Z"  />
<glyph unicode="&#x64C;" horiz-adv-x="0" d="M65 854Q88 837 88 812Q88 796 77 779T28 730L6 712Q-11 701 -28 701Q-43 701 -57 709T-80 729Q-82 730 -89 723T-100 703H-106Q-109 703 -112 703T-119 705Q-120 705 -122 706T-124 709V713Q-124 714 -123 715Q-122 717 -118 725T-105 741Q-99 747 -92 752T-73 759Q-73 757 -71 754Q-69 752 -67 749T-59 740Q-52 735 -44 731T-25 726Q-12 726 -3 733Q1 737 5 741Q-14 743 -29 758T-45 796Q-45 811 -39 823T-24 844Q-3 867 27 867Q48 867 65 854ZM40 769Q54 781 60 790T66 811Q66 825 54 835T27 845Q16 843 7 840T-11 826Q-16 821 -19 813T-23 795Q-23 784 -17 776Q-12 770 -5 765T13 760Q31 760 40 769Z"  />
<glyph unicode="&#x64D;" horiz-adv-x="0" d="M99 -299V-321H-105V-299H99ZM99 -231V-252L-105 -253V-231H99Z"  />
<glyph unicode="&#x64E;" horiz-adv-x="0" d="M102 720V698H-103V720H102Z"  />
<glyph unicode="&#x64F;" horiz-adv-x="0" d="M89 862Q102 852 107 841T112 818Q112 801 100 785T74 756L25 717Q12 709 1 706T-23 701Q-39 701 -53 706T-81 721Q-86 724 -86 727Q-86 729 -83 732Q-75 738 -72 740Q-69 742 -67 743Q-56 732 -46 728T-20 724Q-12 724 -4 728T13 737Q22 742 30 750Q19 752 9 756T-10 771Q-22 788 -22 806Q-22 827 -4 849Q4 860 18 867T53 874Q74 874 89 862ZM64 777Q73 784 81 794T90 818Q90 827 86 834T77 845Q69 853 53 853Q33 853 18 838T2 802Q2 794 11 781T38 768Q55 768 64 777Z"  />
<glyph unicode="&#x650;" horiz-adv-x="0" d="M102 -231V-253H-103V-231H102Z"  />
<glyph unicode="&#x651;" horiz-adv-x="0" d="M149 816Q153 790 153 784T154 773Q154 763 150 746T128 716Q117 708 101 703T62 698Q40 698 20 708Q8 714 0 725Q-6 716 -19 709Q-30 703 -41 701T-63 698Q-85 698 -99 702T-125 714Q-144 727 -149 744T-154 772Q-154 776 -154 783T-150 816L-128 815Q-130 802 -131 792T-132 773Q-132 755 -128 746T-115 730Q-107 724 -95 720T-63 716Q-41 716 -30 724Q-12 734 -12 762V815H12V760Q12 755 14 744T29 725Q34 721 42 719T62 716Q79 716 91 719T112 728Q125 737 128 749T132 772Q132 774 132 780T128 815L149 816H149Z"  />
<glyph unicode="&#x652;" horiz-adv-x="0" d="M-71 771Q-71 785 -66 798T-50 820T-28 836T0 842Q28 842 49 822T70 771Q70 742 50 722T0 701Q-29 701 -50 721T-71 771ZM0 820Q-19 820 -33 806T-48 771Q-48 753 -34 738T0 723Q19 723 33 737T48 771Q48 791 35 805T0 820Z"  />
<glyph unicode="&#x653;" horiz-adv-x="0" d="M121 721Q123 721 123 719V707Q123 700 119 698Q115 696 109 696H-52Q-77 696 -88 688Q-101 678 -101 664Q-101 656 -98 650T-89 636H-107Q-115 636 -117 642Q-119 647 -121 653T-123 668Q-123 681 -116 693T-94 713Q-79 720 -47 720H108Q119 720 121 721Z"  />
<glyph unicode="&#x654;" horiz-adv-x="0" d="M-43 720Q-57 725 -66 742T-75 775Q-75 801 -53 816T-7 832H52Q62 832 67 835L70 838L71 839L94 820Q94 814 86 811T71 808Q70 808 68 808T59 808T36 808T-8 809Q-33 807 -41 794T-49 766Q-47 743 -22 732T60 721H98V699H-106V721L-43 720Z"  />
<glyph unicode="&#x655;" horiz-adv-x="0" d="M-53 -346Q-67 -341 -76 -324T-85 -291Q-85 -265 -63 -250T-17 -234H42Q52 -234 57 -231L60 -228L61 -227L84 -246Q84 -252 76 -255T61 -258Q60 -258 58 -258T49 -258T26 -258T-18 -257Q-43 -259 -51 -272T-59 -300Q-57 -323 -32 -334T50 -345H88V-367H-116V-345L-53 -346Z"  />
<glyph unicode="&#x656;" horiz-adv-x="0" d="M12 -378H-9V-229H12V-378Z"  />
<glyph unicode="&#x658;" horiz-adv-x="2" d="M-69 768Q-69 797 -48 818L-33 802Q-47 788 -47 768Q-47 750 -34 735T0 720Q19 720 33 734T48 768Q48 778 44 786T34 802L48 818Q70 798 70 768Q70 740 50 720T0 699Q-27 699 -48 718T-69 768Z"  />
<glyph unicode="&#x660;" horiz-adv-x="550" d="M150 124Q150 150 160 173T187 213T227 240T276 250Q302 250 324 240T364 213T391 173T401 124Q401 98 391 75T364 35T325 8T276 -2Q250 -2 227 8T187 35T160 75T150 124ZM198 124Q198 107 204 92T220 65T245 47T276 40Q292 40 306 46T330 64T347 91T353 124Q353 141 347 156T331 183T306 201T276 208Q260 208 246 202T221 184T204 157T198 124Z"  />
<glyph unicode="&#x661;" horiz-adv-x="550" d="M253 0V585H299V0H253Z"  />
<glyph unicode="&#x662;" horiz-adv-x="550" d="M449 346Q449 316 443 293T418 255T366 231T281 223H276Q236 223 212 232T174 252V0H128V585H174V356Q174 334 178 318T194 291T225 275T275 270Q319 270 344 274T383 289T399 315T403 355Q402 414 400 467T396 585H423Q434 585 438 581T444 554Q444 539 445 517T447 470T448 418T449 367V346Z"  />
<glyph unicode="&#x663;" horiz-adv-x="550" d="M513 336Q512 309 510 288T497 253T462 231T392 223H388Q340 223 316 234T284 269Q278 252 268 243T243 229T208 224T160 223Q122 223 105 229T79 252V0H33V585H79V355Q79 333 80 317T89 291T113 275T160 270Q192 270 210 271T239 281T252 307T255 355Q255 378 255 416T256 493V585H304Q303 534 303 488V350Q303 330 305 315T315 290T339 275T384 270Q415 270 431 274T455 289T464 316T466 355Q466 387 465 427T462 502Q460 543 459 585H487Q493 585 500 582T507 568L513 336Z"  />
<glyph unicode="&#x664;" horiz-adv-x="550" d="M362 600Q362 604 363 604Q364 604 366 602L386 583Q395 574 395 569Q395 560 378 549Q351 529 328 511Q308 496 290 482T263 460Q236 437 222 426T207 407Q207 402 211 399T220 391Q222 389 235 379T275 350Q303 330 354 301Q362 296 362 292Q362 289 358 286Q355 283 332 265T281 225Q249 200 210 169Q202 162 196 157T188 146Q188 142 191 139T200 132Q237 101 284 73Q301 62 319 53T355 36Q372 28 388 23T417 13Q431 9 444 6Q432 -15 414 -21Q406 -24 397 -24Q391 -24 386 -23T375 -20Q350 -12 310 7T229 55Q209 69 191 83T158 113L145 126Q135 138 135 146Q135 155 146 169Q152 177 163 186Q169 191 189 208T232 243Q258 264 289 289Q289 288 274 298T240 323T201 353T175 376L164 389Q157 399 157 411Q157 427 172 440L337 573Q344 578 351 584T361 595Q362 597 362 600Z"  />
<glyph unicode="&#x665;" horiz-adv-x="550" d="M469 278Q491 241 501 210T511 150Q511 128 506 110T491 74Q470 36 434 16T362 -7Q337 -9 316 -9T274 -9Q254 -9 233 -9T186 -7Q164 -6 141 3T98 27T62 65T41 116Q39 124 38 132T37 148Q37 176 46 208T79 278L251 556Q249 560 246 564Q244 568 241 571T235 578Q232 582 232 583Q232 585 235 585H263Q269 585 274 585T283 580Q285 578 287 575T292 567L469 278ZM343 35Q390 39 417 58T455 104Q463 123 463 148Q463 173 456 196T440 236Q435 244 423 264T395 312T361 369T325 428T295 479T274 514Q267 502 253 479T222 428T187 370T152 312T124 265T107 236Q98 219 91 197T83 150Q83 144 83 138T85 126Q92 92 120 66T205 35Q216 34 235 34T274 33Q294 33 313 33T343 35Z"  />
<glyph unicode="&#x666;" horiz-adv-x="550" d="M475 585V0H431V270Q428 265 423 260T413 251T402 243T395 239Q383 233 372 230T350 225Q339 223 328 223H163Q151 224 139 228Q128 232 117 239T95 261Q85 275 78 296T71 349Q71 400 72 442Q72 460 72 478T73 511T74 539T74 556Q74 572 73 577Q72 580 70 581T67 584Q67 585 70 585H101Q106 585 111 584T118 578Q121 572 121 556Q121 556 121 541T120 504T119 455T118 405T118 366T117 346Q117 327 120 315T130 293Q138 281 151 274T181 266H325Q349 268 368 272T406 291Q421 302 425 318T429 354V585H475Z"  />
<glyph unicode="&#x667;" horiz-adv-x="550" d="M540 585Q474 431 422 308Q400 255 379 205T340 114T312 47T299 17Q293 4 289 2Q286 0 273 0H245Q238 0 238 2Q238 2 244 10Q247 14 249 17T252 23Q252 27 248 36Q245 42 234 69T206 135T169 224T127 323Q78 440 16 585H66L278 89L491 585H540Z"  />
<glyph unicode="&#x668;" horiz-adv-x="550" d="M484 0L271 496L59 0H9Q71 145 120 262Q141 312 161 360T199 449T227 516T241 549Q245 558 245 562Q245 565 243 568T237 575Q231 583 231 583Q231 585 238 585H266Q279 585 282 583Q286 580 292 568Q293 565 304 539T333 472T371 380T415 277Q467 154 533 0H484Z"  />
<glyph unicode="&#x669;" horiz-adv-x="550" d="M474 0H428V280Q425 274 419 267Q414 261 406 254T383 241Q368 234 347 230T296 223Q288 223 282 223T268 222Q157 222 104 268Q81 288 69 319T57 384Q57 445 82 493Q104 533 139 556Q162 571 190 580T253 589Q316 589 362 583T437 552Q454 536 464 511T474 438V0ZM260 265Q295 265 321 268T367 282Q384 290 394 305T413 343Q420 364 423 381T427 429Q427 461 423 479T409 509Q392 531 359 537T271 544Q237 544 213 540T172 526T143 504T122 475Q111 457 106 431T101 378Q101 355 107 338T134 303Q147 292 163 285T197 273T230 267T260 265Z"  />
<glyph unicode="&#x66A;" horiz-adv-x="439" d="M194 532Q194 508 178 491T138 474Q114 474 97 491T80 532Q80 555 97 571T138 588Q161 588 177 572T194 532ZM354 49Q354 25 338 8T298 -9Q274 -9 257 8T240 49Q240 73 257 89T298 105Q322 105 338 89T354 49ZM423 602L67 -33L31 -13L387 623L423 602Z"  />
<glyph unicode="&#x66B;" horiz-adv-x="262" d="M22 -134L95 110H149L64 -134H22Z"  />
<glyph unicode="&#x66C;" horiz-adv-x="262" d="M22 128L95 372H149L64 128H22Z"  />
<glyph unicode="&#x66D;" horiz-adv-x="466" d="M118 359L180 487L56 556Q57 557 57 560Q59 562 59 564L199 545L226 685H234L260 544L402 562L405 555L278 487L339 357L333 352L229 452L125 354L118 359Z"  />
<glyph unicode="&#x670;" horiz-adv-x="0" d="M11 698H-10V847H11V698Z"  />
<glyph unicode="&#x671;" arabic-form="terminal" horiz-adv-x="260" d="M333 42V0H170Q126 0 110 19T94 89Q94 96 94 120T94 178T93 255T93 340Q92 440 92 563Q92 578 101 583Q105 586 111 585H138V89Q138 71 139 62T144 48T156 43T178 42H333ZM18 663V674V677H19Q20 677 21 676T24 675H166Q183 675 192 684T203 708Q203 724 193 731T170 740Q158 740 145 734T129 725L119 719Q111 714 96 705T52 679Q48 677 48 677Q47 677 47 682V779Q47 789 55 789H68V713Q74 717 82 722T98 731T114 740T124 746Q132 751 143 755T168 760Q194 760 209 746T225 709Q225 683 210 669T175 655H28Q21 655 20 657T18 663Z"  />
<glyph unicode="&#x671;" arabic-form="isolated" horiz-adv-x="249" d="M150 0H104V563Q104 571 107 576T114 583Q118 586 124 585H150V0ZM24 663V674V677H25Q26 677 27 676T30 675H172Q189 675 198 684T209 708Q209 724 199 731T176 740Q164 740 151 734T135 725L125 719Q117 714 102 705T58 679Q54 677 54 677Q53 677 53 682V779Q53 789 61 789H74V713Q80 717 88 722T104 731T120 740T130 746Q138 751 149 755T174 760Q200 760 215 746T231 709Q231 683 216 669T181 655H34Q27 655 26 657T24 663Z"  />
<glyph unicode="&#x679;" arabic-form="initial" horiz-adv-x="360" d="M264 97Q259 46 223 23T126 0H-40V42H125Q171 42 194 62T218 120V356Q218 371 227 376Q231 379 236 379H264V97ZM136 531V542V545H137Q138 545 139 544T142 543H284Q301 543 310 552T321 576Q321 592 311 599T288 608Q276 608 263 602T247 593L237 587Q229 582 214 573T170 547Q166 545 166 545Q165 545 165 550V647Q165 657 173 657H186V581Q192 585 200 590T216 599T232 608T242 614Q250 619 261 623T286 628Q312 628 327 615T343 577Q343 551 328 537T293 523H146Q139 523 138 525T136 531Z"  />
<glyph unicode="&#x679;" arabic-form="medial" horiz-adv-x="414" d="M453 42V0H349Q323 0 305 5T274 19Q266 24 261 29T252 40Q248 45 246 50Q243 44 239 39Q235 34 229 29T211 18Q197 11 177 7T128 0H-31V42H129Q174 42 197 56T220 107V239Q220 292 221 357Q221 371 230 376Q234 379 239 379H266V105Q266 92 272 81T288 61T310 47T336 42H453ZM143 531V542V545H144Q145 545 146 544T149 543H291Q308 543 317 552T328 576Q328 592 318 599T295 608Q283 608 270 602T254 593L244 587Q236 582 221 573T177 547Q173 545 173 545Q172 545 172 550V647Q172 657 180 657H193V581Q199 585 207 590T223 599T239 608T249 614Q257 619 268 623T293 628Q319 628 334 615T350 577Q350 551 335 537T300 523H153Q146 523 145 525T143 531Z"  />
<glyph unicode="&#x679;" arabic-form="terminal" horiz-adv-x="1086" d="M939 97Q941 72 962 57T1008 42H1130V0H1021Q987 0 959 12T919 47Q901 24 870 12T800 0H149Q75 0 40 30T4 115Q4 123 4 133T6 153Q7 164 8 176Q10 196 15 209T40 223H62Q67 223 68 222T68 214Q62 192 58 171T53 127Q53 100 61 83T83 57T115 45T153 42H800Q843 42 868 63T893 120V356Q893 364 896 369T903 376Q907 379 913 379H939V97H939ZM374 285V296V299H375Q376 299 377 298T380 297H522Q539 297 548 306T559 330Q559 346 549 353T526 362Q514 362 501 356T485 347L475 341Q467 336 452 327T408 301Q404 299 404 299Q403 299 403 304V401Q403 411 411 411H424V335Q430 339 438 344T454 353T470 362T480 368Q488 373 499 377T524 382Q550 382 565 369T581 331Q581 305 566 291T531 277H384Q377 277 376 279T374 285Z"  />
<glyph unicode="&#x679;" arabic-form="isolated" horiz-adv-x="1037" d="M939 97Q932 48 895 24T800 0H149Q75 0 40 30T4 115Q4 123 4 133T6 153Q7 164 8 176Q10 196 15 209T40 223H62Q67 223 68 222T68 214Q62 192 58 171T53 127Q53 100 61 83T83 57T115 45T153 42H800Q843 42 868 63T893 120V356Q893 364 896 369T903 376Q907 379 913 379H939V97H939ZM374 285V296V299H375Q376 299 377 298T380 297H522Q539 297 548 306T559 330Q559 346 549 353T526 362Q514 362 501 356T485 347L475 341Q467 336 452 327T408 301Q404 299 404 299Q403 299 403 304V401Q403 411 411 411H424V335Q430 339 438 344T454 353T470 362T480 368Q488 373 499 377T524 382Q550 382 565 369T581 331Q581 305 566 291T531 277H384Q377 277 376 279T374 285Z"  />
<glyph unicode="&#x67E;" arabic-form="initial" horiz-adv-x="362" d="M264 97Q259 46 223 23T126 0H-40V42H125Q171 42 194 62T218 120V356Q218 371 227 376Q231 379 236 379H264V97ZM106 -294Q106 -274 120 -261T154 -247Q174 -247 187 -260T201 -294Q201 -314 188 -328T154 -342Q134 -342 120 -328T106 -294ZM172 -183Q172 -163 186 -149T220 -135Q240 -135 253 -149T267 -183Q267 -203 254 -217T220 -231Q200 -231 186 -217T172 -183ZM39 -183Q39 -163 53 -149T87 -135Q107 -135 121 -149T135 -183Q135 -203 121 -217T87 -231Q67 -231 53 -217T39 -183Z"  />
<glyph unicode="&#x67E;" arabic-form="medial" horiz-adv-x="411" d="M451 42V0H347Q321 0 303 5T272 19Q264 24 259 29T250 40Q246 45 244 50Q241 44 237 39Q233 34 227 29T209 18Q195 11 175 7T126 0H-33V42H127Q172 42 195 56T218 107V239Q218 292 219 357Q219 371 228 376Q232 379 237 379H264V105Q264 92 270 81T286 61T308 47T334 42H451ZM109 -294Q109 -274 123 -261T157 -247Q177 -247 190 -260T204 -294Q204 -314 191 -328T157 -342Q137 -342 123 -328T109 -294ZM175 -183Q175 -163 189 -149T223 -135Q243 -135 256 -149T270 -183Q270 -203 257 -217T223 -231Q203 -231 189 -217T175 -183ZM42 -183Q42 -163 56 -149T90 -135Q110 -135 124 -149T138 -183Q138 -203 124 -217T90 -231Q70 -231 56 -217T42 -183Z"  />
<glyph unicode="&#x67E;" arabic-form="terminal" horiz-adv-x="1028" d="M939 97Q941 72 962 57T1008 42H1130V0H1021Q987 0 959 12T919 47Q901 24 870 12T800 0H149Q75 0 40 30T4 115Q4 123 4 133T6 153Q7 164 8 176Q10 196 15 209T40 223H62Q67 223 68 222T68 214Q62 192 58 171T53 127Q53 100 61 83T83 57T115 45T153 42H800Q843 42 868 63T893 120V356Q893 364 896 369T903 376Q907 379 913 379H939V97H939ZM418 -294Q418 -274 432 -261T466 -247Q486 -247 499 -260T513 -294Q513 -314 500 -328T466 -342Q446 -342 432 -328T418 -294ZM484 -183Q484 -163 498 -149T532 -135Q552 -135 565 -149T579 -183Q579 -203 566 -217T532 -231Q512 -231 498 -217T484 -183ZM351 -183Q351 -163 365 -149T399 -135Q419 -135 433 -149T447 -183Q447 -203 433 -217T399 -231Q379 -231 365 -217T351 -183Z"  />
<glyph unicode="&#x67E;" arabic-form="isolated" horiz-adv-x="1035" d="M939 97Q932 48 895 24T800 0H149Q75 0 40 30T4 115Q4 123 4 133T6 153Q7 164 8 176Q10 196 15 209T40 223H62Q67 223 68 222T68 214Q62 192 58 171T53 127Q53 100 61 83T83 57T115 45T153 42H800Q843 42 868 63T893 120V356Q893 364 896 369T903 376Q907 379 913 379H939V97H939ZM418 -293Q418 -273 432 -260T466 -246Q486 -246 499 -259T513 -293Q513 -313 500 -327T466 -341Q446 -341 432 -327T418 -293ZM484 -182Q484 -162 498 -148T532 -134Q552 -134 565 -148T579 -182Q579 -202 566 -216T532 -230Q512 -230 498 -216T484 -182ZM351 -182Q351 -162 365 -148T399 -134Q419 -134 433 -148T447 -182Q447 -202 433 -216T399 -230Q379 -230 365 -216T351 -182Z"  />
<glyph unicode="&#x686;" arabic-form="initial" horiz-adv-x="1006" d="M839 337Q878 315 894 272T911 184Q911 145 899 111T865 53T809 14T732 0H-46V42H732Q763 42 787 53T828 83T854 127T863 182Q863 210 854 238T828 288T786 323T729 337H320Q254 337 225 315T193 242Q193 219 198 211T209 197Q211 195 211 193Q211 191 208 191H184Q164 191 156 207T147 243Q147 312 190 345T303 379H895Q901 379 902 380Q903 380 903 381Q906 384 906 381V376V349Q906 345 903 341T892 337H839H839ZM469 -293Q469 -273 483 -260T517 -246Q537 -246 550 -259T564 -293Q564 -313 551 -327T517 -341Q497 -341 483 -327T469 -293ZM535 -182Q535 -162 549 -148T583 -134Q603 -134 616 -148T630 -182Q630 -202 617 -216T583 -230Q563 -230 549 -216T535 -182ZM402 -182Q402 -162 416 -148T450 -134Q470 -134 484 -148T498 -182Q498 -202 484 -216T450 -230Q430 -230 416 -216T402 -182Z"  />
<glyph unicode="&#x686;" arabic-form="medial" horiz-adv-x="1060" d="M1106 42V0H1004Q984 0 966 3T933 14T904 36T881 74Q871 57 859 43T830 20T790 5T733 0H-47V42H738Q768 42 791 52T830 82T854 125T863 179Q863 208 855 236T829 286T787 323T729 337H321Q258 337 227 314T194 234Q194 220 199 211T210 197Q213 194 213 193Q213 191 209 191H185Q172 191 164 197T152 212T146 234T144 258Q147 299 165 323T210 359T269 375T334 379H886Q896 379 899 380Q902 381 903 383T906 385Q907 385 907 383V350Q907 344 902 341Q895 337 878 337H839Q858 328 871 312T893 277T906 236T911 194Q911 178 911 162T910 132Q910 90 938 66T1009 42H1106ZM470 -296Q470 -276 484 -263T518 -249Q538 -249 551 -262T565 -296Q565 -316 552 -330T518 -344Q498 -344 484 -330T470 -296ZM536 -185Q536 -165 550 -151T584 -137Q604 -137 617 -151T631 -185Q631 -205 618 -219T584 -233Q564 -233 550 -219T536 -185ZM403 -185Q403 -165 417 -151T451 -137Q471 -137 485 -151T499 -185Q499 -205 485 -219T451 -233Q431 -233 417 -219T403 -185Z"  />
<glyph unicode="&#x686;" arabic-form="terminal" horiz-adv-x="969" d="M1022 42V0H922Q899 0 878 7T839 25T809 51T792 82Q778 45 740 23T650 0H145Q100 0 76 -28T52 -102Q52 -149 76 -188T139 -256Q143 -259 147 -261T149 -265Q148 -266 144 -266H80Q63 -257 50 -241T26 -204T11 -159T5 -109Q5 -40 40 1T150 42H647Q678 42 702 53T744 83T769 128T778 183Q778 211 769 239T743 288T701 323T643 337H234Q168 337 138 314T107 234Q107 220 112 210T123 196Q126 194 126 193Q126 191 123 191H87Q78 191 72 192T63 200T58 217T57 248Q57 307 98 343T236 379H800Q811 379 814 381Q816 382 817 383T819 385Q820 385 820 382V351Q820 341 810 339T787 337H753Q788 307 804 271T821 183Q821 175 821 166T820 148Q820 120 829 100T854 67T891 48T935 42H1022ZM393 -275Q393 -258 405 -246T436 -233Q454 -233 466 -245T479 -275Q479 -293 467 -305T436 -318Q418 -318 406 -306T393 -275ZM452 -176Q452 -158 465 -146T496 -133Q514 -133 526 -145T538 -176Q538 -194 526 -206T496 -219Q478 -219 465 -207T452 -176ZM333 -176Q333 -158 345 -146T376 -133Q394 -133 406 -145T419 -176Q419 -194 407 -206T376 -219Q358 -219 346 -207T333 -176Z"  />
<glyph unicode="&#x686;" arabic-form="isolated" horiz-adv-x="919" d="M390 -280Q390 -263 402 -251T433 -238Q451 -238 463 -250T476 -280Q476 -298 464 -310T433 -323Q415 -323 403 -311T390 -280ZM449 -181Q449 -163 462 -151T493 -138Q511 -138 523 -150T535 -181Q535 -199 523 -211T493 -224Q475 -224 462 -212T449 -181ZM330 -181Q330 -163 342 -151T373 -138Q391 -138 403 -150T416 -181Q416 -199 404 -211T373 -224Q355 -224 343 -212T330 -181ZM752 337Q785 321 804 278T824 183Q824 101 778 51T646 0H145Q119 0 101 -8T72 -30T56 -61T50 -98Q50 -147 74 -185T136 -254Q148 -263 148 -264Q148 -266 143 -266H79Q40 -240 23 -194T5 -99Q5 -72 12 -47T37 -2T81 30T150 42H646Q675 42 699 53T740 82T767 126T777 182Q777 209 768 237T742 287T699 323T643 337H233Q167 337 138 314T106 237Q106 213 123 196Q126 193 126 193Q126 191 122 191H98Q78 191 69 204T59 239Q59 283 74 310T116 353T176 373T247 379H808Q815 379 816 381Q816 383 818 383H819V382Q819 381 820 380V349Q820 338 793 337H752Z"  />
<glyph unicode="&#x688;" arabic-form="terminal" horiz-adv-x="655" d="M744 42V0H658Q616 0 580 12T524 66Q503 36 464 18T374 0H96Q81 0 76 4Q72 6 72 10T71 18V45Q71 52 73 52Q75 52 76 48Q78 43 82 43T97 42H371Q398 42 423 51T469 78T501 123T514 189Q514 222 502 249T469 295T423 326T371 337H178Q163 337 158 341Q154 343 154 347T153 355V385Q153 389 155 389Q156 389 158 386Q160 381 164 380T179 379H371Q416 379 451 364T511 324T547 264T561 190Q561 181 560 168T558 143T556 123T555 113Q555 94 565 81T589 59T620 46T649 42H744ZM183 529V540V543H184Q185 543 186 542T189 541H331Q348 541 357 550T368 574Q368 590 358 597T335 606Q323 606 310 600T294 591L284 585Q276 580 261 571T217 545Q213 543 213 543Q212 543 212 548V645Q212 655 220 655H233V579Q239 583 247 588T263 597T279 606T289 612Q297 617 308 621T333 626Q359 626 374 613T390 575Q390 549 375 535T340 521H193Q186 521 185 523T183 529Z"  />
<glyph unicode="&#x688;" arabic-form="isolated" horiz-adv-x="598" d="M360 379Q401 379 435 365T495 327T534 267T549 190Q549 151 536 117T500 56T444 15T372 0H85Q72 0 66 3Q61 5 61 9T60 18V46Q60 50 61 50Q62 50 65 47Q68 43 72 43T86 42H361Q388 42 413 52T458 82T490 129T502 188Q502 219 493 246T466 293T421 325T359 337H167Q153 337 147 340Q143 342 143 346T142 355V383Q142 388 143 388Q145 388 146 384Q148 380 150 380T160 379H360ZM171 528V539V542H172Q173 542 174 541T177 540H319Q336 540 345 549T356 573Q356 589 346 596T323 605Q311 605 298 599T282 590L272 584Q264 579 249 570T205 544Q201 542 201 542Q200 542 200 547V644Q200 654 208 654H221V578Q227 582 235 587T251 596T267 605T277 611Q285 616 296 620T321 625Q347 625 362 612T378 574Q378 548 363 534T328 520H181Q174 520 173 522T171 528Z"  />
<glyph unicode="&#x691;" arabic-form="terminal" horiz-adv-x="392" d="M433 42V0H325Q294 0 273 7T244 23Q244 -54 237 -108T208 -198T143 -249T31 -266Q24 -266 20 -266T13 -264Q5 -262 5 -252V-217L17 -218Q28 -219 38 -219T57 -220Q100 -220 127 -208T169 -171T191 -105T197 -7V356Q197 370 205 376Q209 379 214 379H244V95Q244 65 265 54T312 42H433ZM116 530V541V544H117Q118 544 119 543T122 542H264Q281 542 290 551T301 575Q301 591 291 598T268 607Q256 607 243 601T227 592L217 586Q209 581 194 572T150 546Q146 544 146 544Q145 544 145 549V646Q145 656 153 656H166V580Q172 584 180 589T196 598T212 607T222 613Q230 618 241 622T266 627Q292 627 307 614T323 576Q323 550 308 536T273 522H126Q119 522 118 524T116 530Z"  />
<glyph unicode="&#x691;" arabic-form="isolated" horiz-adv-x="339" d="M247 0Q247 -72 238 -126T196 -215Q172 -240 134 -253T36 -266Q17 -266 13 -262T9 -252V-217L22 -219Q33 -220 42 -220T60 -221Q140 -221 171 -177Q189 -151 195 -110T202 -7V357Q202 371 210 377Q214 380 219 379H247V0ZM113 532V543V546H114Q115 546 116 545T119 544H261Q278 544 287 553T298 577Q298 593 288 600T265 609Q253 609 240 603T224 594L214 588Q206 583 191 574T147 548Q143 546 143 546Q142 546 142 551V648Q142 658 150 658H163V582Q169 586 177 591T193 600T209 609T219 615Q227 620 238 624T263 629Q289 629 304 616T320 578Q320 552 305 538T270 524H123Q116 524 115 526T113 532Z"  />
<glyph unicode="&#x698;" arabic-form="terminal" horiz-adv-x="392" d="M433 42V0H325Q294 0 273 7T244 23Q244 -54 237 -108T208 -198T143 -249T31 -266Q24 -266 20 -266T13 -264Q5 -262 5 -252V-217L17 -218Q28 -219 38 -219T57 -220Q100 -220 127 -208T169 -171T191 -105T197 -7V356Q197 370 205 376Q209 379 214 379H244V95Q244 65 265 54T312 42H433ZM268 673Q268 653 254 639T220 625Q200 625 187 639T173 673Q173 693 186 707T220 721Q240 721 254 707T268 673ZM202 562Q202 542 188 528T154 514Q134 514 120 528T106 562Q106 582 120 596T154 610Q174 610 188 596T202 562ZM334 562Q334 542 321 528T287 514Q267 514 253 528T239 562Q239 582 253 596T287 610Q307 610 320 596T334 562Z"  />
<glyph unicode="&#x698;" arabic-form="isolated" horiz-adv-x="342" d="M241 0Q241 -72 232 -126T190 -215Q166 -240 128 -253T30 -266Q11 -266 7 -262T3 -252V-217L16 -219Q27 -220 36 -220T54 -221Q134 -221 165 -177Q183 -151 189 -110T196 -7V357Q196 371 204 377Q208 380 213 379H241V0ZM265 673Q265 653 251 639T217 625Q197 625 184 639T170 673Q170 693 183 707T217 721Q237 721 251 707T265 673ZM199 562Q199 542 185 528T151 514Q131 514 117 528T103 562Q103 582 117 596T151 610Q171 610 185 596T199 562ZM331 562Q331 542 318 528T284 514Q264 514 250 528T236 562Q236 582 250 596T284 610Q304 610 317 596T331 562Z"  />
<glyph unicode="&#x6A4;" arabic-form="initial" horiz-adv-x="741" d="M437 407Q482 407 521 393T589 353T635 289T652 204Q652 160 638 123T599 58T537 16T456 0H-42V42H282Q246 71 228 113T210 204Q210 253 228 291T277 355T349 394T437 407ZM436 42Q509 42 556 84T603 204Q603 241 590 269T554 318T501 348T438 359Q403 359 371 350T314 321T275 273T260 204Q260 124 307 83T436 42ZM483 673Q483 653 469 639T435 625Q415 625 402 639T388 673Q388 693 401 707T435 721Q455 721 469 707T483 673ZM417 562Q417 542 403 528T369 514Q349 514 335 528T321 562Q321 582 335 596T369 610Q389 610 403 596T417 562ZM549 562Q549 542 536 528T502 514Q482 514 468 528T454 562Q454 582 468 596T502 610Q522 610 535 596T549 562Z"  />
<glyph unicode="&#x6A4;" arabic-form="medial" horiz-adv-x="743" d="M833 42V0H-44V42H281Q243 71 226 113T209 204Q209 250 225 287T271 352T339 393T424 408H436Q482 408 521 394T589 352T634 288T650 204Q650 156 633 114T579 42H833ZM435 42Q471 42 501 53T554 85T588 136T601 204Q601 239 588 267T553 316T500 347T437 359H423Q390 358 360 347T308 316T272 268T259 204Q259 128 305 85T425 42H435ZM479 673Q479 653 465 639T431 625Q411 625 398 639T384 673Q384 693 397 707T431 721Q451 721 465 707T479 673ZM413 562Q413 542 399 528T365 514Q345 514 331 528T317 562Q317 582 331 596T365 610Q385 610 399 596T413 562ZM545 562Q545 542 532 528T498 514Q478 514 464 528T450 562Q450 582 464 596T498 610Q518 610 531 596T545 562Z"  />
<glyph unicode="&#x6A4;" arabic-form="terminal" horiz-adv-x="1095" d="M53 127Q53 100 61 83T83 57T115 45T153 42H582Q546 72 529 113T511 203Q511 252 527 289T574 353T645 393T737 407Q782 407 821 393T890 353T935 288T952 203Q952 152 934 111T882 42H1153V0H149Q75 0 40 30T4 115Q4 123 4 133T6 153Q7 164 8 176Q10 196 15 209T40 223H62Q67 223 68 222T68 214Q62 192 58 171T53 127ZM736 42Q810 42 856 85T902 204Q902 241 889 269T853 318T800 348T738 359Q703 359 671 350T615 321T576 273T561 204Q561 126 607 84T736 42ZM785 673Q785 653 771 639T737 625Q717 625 704 639T690 673Q690 693 703 707T737 721Q757 721 771 707T785 673ZM719 562Q719 542 705 528T671 514Q651 514 637 528T623 562Q623 582 637 596T671 610Q691 610 705 596T719 562ZM851 562Q851 542 838 528T804 514Q784 514 770 528T756 562Q756 582 770 596T804 610Q824 610 837 596T851 562Z"  />
<glyph unicode="&#x6A4;" arabic-form="isolated" horiz-adv-x="1042" d="M53 127Q53 100 61 83T83 57T115 45T153 42H582Q546 72 529 113T511 203Q511 252 527 289T574 353T645 393T737 407Q782 407 821 393T890 353T935 288T952 203Q952 159 938 122T899 58T837 16T755 0H149Q75 0 40 30T4 115Q4 123 4 133T6 153Q7 164 8 176Q10 196 15 209T40 223H62Q67 223 68 222T68 214Q62 192 58 171T53 127ZM736 42Q810 42 856 85T902 204Q902 241 889 269T853 318T800 348T738 359Q703 359 671 350T615 321T576 273T561 204Q561 126 607 84T736 42ZM779 673Q779 653 765 639T731 625Q711 625 698 639T684 673Q684 693 697 707T731 721Q751 721 765 707T779 673ZM713 562Q713 542 699 528T665 514Q645 514 631 528T617 562Q617 582 631 596T665 610Q685 610 699 596T713 562ZM845 562Q845 542 832 528T798 514Q778 514 764 528T750 562Q750 582 764 596T798 610Q818 610 831 596T845 562Z"  />
<glyph unicode="&#x6A9;" arabic-form="initial" horiz-adv-x="483" d="M435 556Q435 553 433 551Q431 551 430 552Q428 554 426 554Q422 554 418 551T407 544L150 375Q212 316 262 268Q283 248 304 228T341 192T369 166T382 153Q421 117 421 70Q418 41 398 21T342 0H-56V42H330Q366 42 371 74Q371 88 366 99T346 125L78 381Q166 438 236 484Q266 503 295 522T347 556T386 581T404 593Q417 602 423 602Q425 602 427 602T431 600Q435 596 435 575V556Z"  />
<glyph unicode="&#x6A9;" arabic-form="medial" horiz-adv-x="509" d="M434 556Q434 553 432 551Q430 551 429 552Q427 554 425 554Q421 554 417 551T406 544L149 375Q211 316 261 268Q282 248 303 228T340 192T368 166T381 153Q413 122 419 84Q420 74 420 66T423 53T432 45T454 42H557V0H459Q443 0 427 7T403 27Q393 15 378 8T341 0H-51V42H329Q365 42 370 72Q370 86 365 98T345 125L77 381Q165 438 235 484Q265 503 294 522T346 556T385 581T403 593Q416 602 421 602Q423 602 425 602T429 600Q434 595 434 575V556Z"  />
<glyph unicode="&#x6A9;" arabic-form="terminal" horiz-adv-x="1031" d="M980 0Q965 0 948 8T922 27Q911 15 896 8T861 0H151Q78 0 42 35T6 123Q6 128 6 137T7 155Q8 166 9 177Q9 184 10 192T15 207T25 218T42 223H63Q72 223 72 220Q72 217 70 214Q63 197 59 177T55 136Q55 86 77 64T155 42H850Q872 42 881 50T891 73Q891 99 865 125L598 379Q690 440 763 488Q794 509 824 529T879 565T919 591T938 603Q944 607 949 607Q955 607 955 598V553Q955 549 952 549Q951 549 948 552Q947 553 944 553Q941 553 937 551T927 544L667 373Q731 313 782 265Q804 245 825 226T862 190T890 164T902 153Q916 141 927 123T940 84Q941 74 941 66T944 53T953 45T975 42H1078V0H980H980Z"  />
<glyph unicode="&#x6A9;" arabic-form="isolated" horiz-adv-x="1006" d="M902 153Q919 138 929 118T940 76Q940 44 917 22T861 0H151Q78 0 42 35T6 123Q6 128 6 137T7 155Q8 166 9 177Q9 184 10 192T15 207T25 218T42 223H63Q72 223 72 220Q72 217 70 214Q63 197 59 177T55 136Q55 86 77 64T155 42H850Q872 42 881 50T891 73Q891 99 865 125L598 379Q690 440 763 488Q794 509 824 529T879 565T919 591T938 603Q944 607 949 607Q955 607 955 598V553Q955 549 952 549Q951 549 948 552Q947 553 944 553Q941 553 937 551T927 544L667 373Q731 313 782 265Q804 245 825 226T862 190T890 164T902 153Z"  />
<glyph unicode="&#x6AF;" arabic-form="initial" horiz-adv-x="483" d="M68 383Q155 441 224 488Q253 508 281 527T332 561T369 586T386 597Q392 601 398 604T410 608Q420 608 420 593V561Q420 556 417 556Q415 556 413 557Q411 558 408 558Q405 558 402 556T393 550L99 355L68 383ZM413 71Q413 43 392 22T335 0H-48V42H324Q346 42 355 50T365 73Q365 99 339 125L146 313Q215 358 270 394Q294 409 316 424T357 452T388 472T403 482Q409 486 414 486Q420 486 420 477V432Q420 428 417 428Q416 428 413 431Q412 432 409 432Q406 432 402 430T392 423L215 307Q258 265 293 232Q308 218 322 204T348 179T367 161T376 153Q388 142 399 125Q407 114 410 100T413 71Z"  />
<glyph unicode="&#x6AF;" arabic-form="medial" horiz-adv-x="517" d="M81 383Q168 441 237 488Q266 508 294 527T345 561T382 586T399 597Q405 601 411 604T423 608Q433 608 433 593V561Q433 556 430 556Q428 556 426 557Q424 558 421 558Q418 558 415 556T406 550L112 355L81 383ZM569 42V0H465Q447 0 433 7T410 26Q398 12 382 6T348 0H-56V42H337Q359 42 368 50T378 73Q378 99 352 125L159 313Q228 358 283 394Q307 409 329 424T370 452T401 472T416 482Q422 486 427 486Q433 486 433 477V432Q433 428 430 428Q429 428 426 431Q425 432 422 432Q419 432 415 430T405 423L228 307Q271 265 306 232Q321 218 335 204T361 179T380 161T389 153Q401 142 412 125Q420 114 423 100T426 71V63Q427 49 434 46T460 42H569Z"  />
<glyph unicode="&#x6AF;" arabic-form="terminal" horiz-adv-x="1026" d="M592 383Q679 441 748 488Q777 508 805 527T856 561T893 586T910 597Q916 601 922 604T934 608Q944 608 944 593V561Q944 556 941 556Q939 556 937 557Q935 558 932 558Q929 558 926 556T917 550L623 355L592 383ZM1080 42V0H976Q958 0 944 7T921 26Q909 12 893 6T859 0H149Q76 0 40 35T4 123Q4 128 4 137T5 155Q6 166 7 177Q7 184 8 192T13 207T23 218T40 223H61Q70 223 70 220Q70 217 68 214Q63 203 61 194T57 175Q55 164 54 154T53 136Q53 86 75 64T153 42H848Q870 42 879 50T889 73Q889 99 863 125L670 313Q739 358 794 394Q818 409 840 424T881 452T912 472T927 482Q933 486 938 486Q944 486 944 477V432Q944 428 941 428Q940 428 937 431Q936 432 933 432Q930 432 926 430T916 423L739 307Q782 265 817 232Q832 218 846 204T872 179T891 161T900 153Q912 142 923 125Q931 114 934 100T937 71V63Q938 49 945 46T971 42H1080Z"  />
<glyph unicode="&#x6AF;" arabic-form="isolated" horiz-adv-x="1002" d="M600 383Q687 441 756 488Q785 508 813 527T864 561T901 586T918 597Q924 601 930 604T942 608Q952 608 952 593V561Q952 556 949 556Q947 556 945 557Q943 558 940 558Q937 558 934 556T925 550L631 355L600 383ZM945 71Q945 43 924 22T867 0H157Q84 0 48 35T12 123Q12 128 12 137T13 155Q14 166 15 177Q15 184 16 192T21 207T31 218T48 223H69Q78 223 78 220Q78 217 76 214Q69 197 65 177T61 136Q61 86 83 64T161 42H856Q878 42 887 50T897 73Q897 99 871 125L678 313Q747 358 802 394Q826 409 848 424T889 452T920 472T935 482Q941 486 946 486Q952 486 952 477V432Q952 428 949 428Q948 428 945 431Q944 432 941 432Q938 432 934 430T924 423L747 307Q790 265 825 232Q840 218 854 204T880 179T899 161T908 153Q920 142 931 125Q939 114 942 100T945 71Z"  />
<glyph unicode="&#x6BA;" arabic-form="terminal" horiz-adv-x="856" d="M662 357Q662 365 665 372T680 379H710V103Q710 84 718 72T738 54T765 45T794 42H897V0H803Q773 0 749 7T707 35Q696 -34 661 -89T575 -184T459 -244T328 -266Q271 -266 214 -249T110 -197T35 -113T5 2Q5 28 6 57T14 118Q22 153 29 162Q32 167 37 168T58 169H74Q80 169 80 166Q80 165 80 165T79 164V163Q75 156 73 149T68 137Q65 131 64 125Q56 101 53 79T49 35Q51 -26 65 -66T112 -138Q153 -177 212 -200T334 -223Q410 -223 484 -188T613 -78Q631 -53 641 -25T657 32Q659 46 660 82T662 179V357Z"  />
<glyph unicode="&#x6BA;" arabic-form="isolated" horiz-adv-x="810" d="M711 125Q711 96 711 73T709 35Q703 -25 669 -79T583 -175T466 -240T331 -265Q270 -265 212 -248T108 -194T34 -103T6 27Q6 39 7 57T12 95T21 133T34 164Q37 171 53 171H82Q86 171 86 169Q86 168 84 164Q62 131 56 93T50 19Q50 -35 73 -79T136 -156T228 -205T339 -223Q375 -223 412 -214T486 -186T556 -140T616 -78Q634 -53 644 -27T658 24T664 71T665 108V357Q665 372 674 377Q678 380 683 379H711V125H711Z"  />
<glyph unicode="&#x6BE;" arabic-form="initial" horiz-adv-x="905" d="M-52 42H250Q221 68 211 99T201 158Q201 215 219 251T268 307T340 335T426 343Q440 343 453 347T472 358Q478 367 478 374Q478 378 477 379H535Q534 378 534 374Q534 367 540 358Q545 352 558 348T586 343Q631 343 672 336T743 308T792 251T811 158Q811 125 798 96T761 45T705 10T636 -3Q596 -3 561 12T506 64Q489 31 458 16T391 0H-52V42ZM506 335L498 323Q490 312 465 304T389 296Q320 296 284 261T248 168Q248 107 282 75T382 42Q436 42 458 69T480 145V177H532V145Q532 97 557 69T638 40Q669 40 692 50T732 77T756 118T764 168Q764 225 728 260T623 296Q572 296 547 304T514 323L506 335Z"  />
<glyph unicode="&#x6BE;" arabic-form="medial" horiz-adv-x="956" d="M-52 42H250Q225 66 213 98T201 158Q201 214 219 250T268 306T340 335T426 343Q440 343 453 347T472 358Q478 367 478 374Q478 378 477 379H535Q534 378 534 374Q534 367 540 358Q545 352 558 348T586 343Q631 343 672 336T743 308T792 251T811 158Q811 144 808 131T805 101Q805 85 816 74T843 55T876 45T905 42H1004V0H895Q860 0 829 14T779 61Q751 29 719 14T632 -2Q595 -2 561 13T506 64Q489 32 459 18T391 0H-52V42ZM506 335L498 323Q490 312 468 305T389 296Q320 294 284 260T248 168Q248 111 279 77T382 42Q434 42 457 70T480 141V177H532V151Q532 124 537 104T553 70T584 49T634 40Q697 42 730 77T764 168Q764 225 728 259T623 296Q567 297 545 304T514 323L506 335Z"  />
<glyph unicode="&#x6BE;" arabic-form="terminal" horiz-adv-x="830" d="M56 0Q47 0 47 -14Q47 -22 49 -32Q50 -36 52 -41H27Q15 -41 11 -34T7 -12Q7 11 17 26T56 42H123Q94 68 84 99T74 158Q74 217 92 253T141 309T213 336T299 343Q313 343 326 347T345 358Q351 367 351 374Q351 375 351 375T350 377V379H408Q407 378 407 377V374Q407 367 413 358Q418 352 431 348T459 343Q504 343 545 336T616 309T665 253T684 158Q684 138 681 128T677 104Q677 87 688 76T716 57T749 46T778 42H877V0H768Q733 0 702 14T652 61Q637 43 622 32T588 13T548 2T495 -2Q462 -2 429 15T379 64Q362 31 331 16T264 0H56ZM379 335L371 323Q367 317 360 313T341 304T309 298T261 296Q192 296 157 261T121 168Q121 144 129 122T152 81T191 53T245 42H258Q310 44 331 69T353 150V177H405V148Q405 127 410 108T426 73T455 49T500 40Q566 40 601 74T637 168Q637 225 601 260T496 296Q440 296 417 304T387 323L379 335Z"  />
<glyph unicode="&#x6BE;" arabic-form="isolated" horiz-adv-x="773" d="M51 0Q46 0 44 -4T42 -15Q42 -23 44 -33Q45 -37 47 -42H23Q10 -42 6 -35T1 -15Q1 8 12 25T51 42H116Q87 68 77 99T67 158Q67 214 85 250T134 306T206 335T292 343Q311 343 327 350T344 374Q344 378 343 379H401Q400 378 400 374Q400 357 416 350T452 343Q497 343 537 337T609 311T658 256T676 165Q676 127 664 97T628 44T574 10T503 -2Q465 -2 429 12T372 64Q355 32 325 18T257 0H51ZM372 335L364 323Q356 312 332 304T255 296Q186 296 150 261T114 168Q114 112 147 78T238 42H251Q306 42 326 72T346 150V177H398V148Q398 130 403 111T419 76T448 50T493 40H504Q535 40 558 51T598 80T622 121T630 168Q630 225 594 260T489 296Q434 296 411 304T380 323L372 335Z"  />
<glyph unicode="&#x6C0;" arabic-form="terminal" horiz-adv-x="646" d="M240 542Q222 549 216 564T209 594V602Q209 625 229 640T276 655H335Q345 655 350 658L353 661L354 662L377 643Q373 634 366 633T346 631Q337 631 321 631T275 632Q252 631 243 620T234 594V589Q236 566 261 555T343 543H381V521H177V543L240 542ZM698 42V0H587Q558 0 539 5T507 19Q498 24 493 29T484 40Q480 45 478 50Q476 46 472 42Q469 38 464 34T450 24Q436 16 413 8T352 0H235Q178 0 135 15T63 56Q36 81 21 117T3 192V205Q3 252 18 284T67 341Q88 357 117 364T180 372Q220 372 265 363Q297 357 322 355T367 353H388Q425 354 436 359T452 379H499V96Q499 84 506 74T525 56Q535 50 547 46T573 42H698ZM452 121Q452 124 452 134T452 160T453 193T453 231V329Q448 316 424 312T372 308Q350 308 331 310T304 314Q271 319 241 323T185 327H177Q150 326 128 320T90 301Q67 283 58 260T48 199V192Q49 165 60 137T91 91Q115 69 152 56T239 42H353Q383 42 401 48T431 65Q447 79 449 96T452 121Z"  />
<glyph unicode="&#x6C0;" arabic-form="isolated" horiz-adv-x="696" d="M275 542Q257 549 251 564T244 594V602Q244 625 264 640T311 655H370Q380 655 385 658L388 661L389 662L412 643Q408 634 401 633T381 631Q372 631 356 631T310 632Q287 631 278 620T269 594V589Q271 566 296 555T378 543H416V521H212V543L275 542ZM200 0H193Q151 0 121 8T70 33Q35 61 23 95T10 158Q10 217 28 253T77 309T149 336T235 343Q249 343 262 347T281 358Q287 367 287 374V379H343V374Q343 367 349 358Q354 352 367 348T395 343Q440 343 481 336T552 309T601 253T620 158Q620 129 608 95T560 33Q538 16 508 9T430 0H200ZM315 335L307 323Q299 312 277 304T198 296Q129 296 93 261T57 168Q57 141 65 115T100 66Q116 52 139 47T194 42H436Q468 42 491 47T530 66Q556 88 564 114T573 168Q573 225 537 260T432 296Q376 296 354 304T323 323L315 335Z"  />
<glyph unicode="&#x6C1;" arabic-form="initial" horiz-adv-x="907" d="M-52 42H250Q221 68 211 99T201 158Q201 215 219 251T268 307T340 335T426 343Q440 343 453 347T472 358Q478 367 478 374Q478 378 477 379H535Q534 378 534 374Q534 367 540 358Q545 352 558 348T586 343Q631 343 672 336T743 308T792 251T811 158Q811 125 798 96T761 45T705 10T636 -3Q596 -3 561 12T506 64Q489 31 458 16T391 0H-52V42ZM506 335L498 323Q490 312 465 304T389 296Q320 296 284 261T248 168Q248 107 282 75T382 42Q436 42 458 69T480 145V177H532V145Q532 97 557 69T638 40Q669 40 692 50T732 77T756 118T764 168Q764 225 728 260T623 296Q572 296 547 304T514 323L506 335Z"  />
<glyph unicode="&#x6C1;" arabic-form="medial" horiz-adv-x="954" d="M-52 42H250Q225 66 213 98T201 158Q201 214 219 250T268 306T340 335T426 343Q440 343 453 347T472 358Q478 367 478 374Q478 378 477 379H535Q534 378 534 374Q534 367 540 358Q545 352 558 348T586 343Q631 343 672 336T743 308T792 251T811 158Q811 144 808 131T805 101Q805 85 816 74T843 55T876 45T905 42H1004V0H895Q860 0 829 14T779 61Q751 29 719 14T632 -2Q595 -2 561 13T506 64Q489 32 459 18T391 0H-52V42ZM506 335L498 323Q490 312 468 305T389 296Q320 294 284 260T248 168Q248 111 279 77T382 42Q434 42 457 70T480 141V177H532V151Q532 124 537 104T553 70T584 49T634 40Q697 42 730 77T764 168Q764 225 728 259T623 296Q567 297 545 304T514 323L506 335Z"  />
<glyph unicode="&#x6C1;" arabic-form="terminal" horiz-adv-x="766" d="M193 0Q152 0 119 13T61 47T24 97T10 158Q10 217 28 253T77 309T149 336T235 343Q254 343 270 350T287 374Q287 378 286 379H344Q343 378 343 374Q343 357 359 350T395 343Q440 343 481 336T552 309T601 253T620 158Q620 150 620 143T619 128Q619 90 645 66T716 42H822V0H706Q662 0 637 15T589 63Q574 44 559 33T526 14T484 4T430 0H193ZM315 335L307 323Q299 312 277 304T198 296Q129 296 93 261T57 168Q57 114 93 78T194 42H436Q502 42 537 74T573 168Q573 225 537 260T432 296Q376 296 354 304T323 323L315 335Z"  />
<glyph unicode="&#x6C1;" arabic-form="isolated" horiz-adv-x="705" d="M341 374Q341 367 347 358Q352 352 365 348T393 343Q438 343 479 336T550 309T599 253T618 158Q618 125 605 96T568 46T508 12T428 0H200Q156 0 121 12T61 45T23 96T10 158Q10 217 28 253T77 309T149 336T235 343Q249 343 262 347T281 358Q287 367 287 374Q287 378 286 379H342Q341 378 341 374ZM434 42Q465 42 490 51T534 78T561 118T571 168Q571 225 535 261T430 298Q374 298 352 306T321 325L314 335L307 325Q299 314 277 306T198 298Q129 298 93 262T57 168Q57 141 66 118T94 78T137 52T194 42H434Z"  />
<glyph unicode="&#x6C2;" arabic-form="terminal" horiz-adv-x="763" d="M275 543Q261 548 252 564T243 597Q243 622 262 639T311 656H370Q380 656 385 659L388 662L389 663L412 644Q412 640 407 636T394 632H310Q287 632 278 619T269 590Q271 567 296 556T378 544H416V522H212V544L275 543ZM196 0Q155 0 122 13T64 47T27 97T13 158Q13 217 31 253T80 309T152 336T238 343Q257 343 273 350T290 374Q290 378 289 379H347Q346 378 346 374Q346 357 362 350T398 343Q443 343 484 336T555 309T604 253T623 158Q623 150 623 143T622 128Q622 90 648 66T719 42H825V0H709Q665 0 640 15T592 63Q577 44 562 33T529 14T487 4T433 0H196ZM318 335L310 323Q302 312 280 304T201 296Q132 296 96 261T60 168Q60 114 96 78T197 42H439Q505 42 540 74T576 168Q576 225 540 260T435 296Q379 296 357 304T326 323L318 335Z"  />
<glyph unicode="&#x6C2;" arabic-form="isolated" horiz-adv-x="705" d="M341 374Q341 367 347 358Q352 352 365 348T393 343Q438 343 479 336T550 309T599 253T618 158Q618 125 605 96T568 46T508 12T428 0H200Q156 0 121 12T61 45T23 96T10 158Q10 217 28 253T77 309T149 336T235 343Q249 343 262 347T281 358Q287 367 287 374Q287 378 286 379H342Q341 378 341 374ZM434 42Q465 42 490 51T534 78T561 118T571 168Q571 225 535 261T430 298Q374 298 352 306T321 325L314 335L307 325Q299 314 277 306T198 298Q129 298 93 262T57 168Q57 141 66 118T94 78T137 52T194 42H434ZM270 542Q256 547 247 563T238 596Q238 621 257 638T306 655H365Q375 655 380 658L383 661L384 662L407 643Q407 639 402 635T389 631H305Q282 631 273 618T264 589Q266 566 291 555T373 543H411V521H207V543L270 542Z"  />
<glyph unicode="&#x6C3;" arabic-form="terminal" horiz-adv-x="646" d="M698 42V0H587Q548 0 520 13T478 50Q439 0 352 0H235Q133 0 71 45T3 187Q4 282 57 322T209 363Q239 363 258 362T295 358T334 355T388 353Q425 353 436 358T452 379H499V96Q500 83 507 73T524 56T548 46T573 42H698ZM453 329Q448 317 426 313T382 308Q352 308 331 309T292 313T254 316T206 318Q134 318 91 286T48 190Q48 150 64 122T108 76T170 50T243 42H353Q401 42 427 62T453 121V329ZM248 562Q248 542 234 528T200 514Q180 514 166 528T152 562Q152 582 166 596T200 610Q220 610 234 596T248 562ZM380 562Q380 542 366 528T332 514Q312 514 299 528T285 562Q285 582 298 596T332 610Q352 610 366 596T380 562Z"  />
<glyph unicode="&#x6C3;" arabic-form="isolated" horiz-adv-x="705" d="M341 374Q341 367 347 358Q352 352 365 348T393 343Q438 343 479 336T550 309T599 253T618 158Q618 125 605 96T568 46T508 12T428 0H200Q156 0 121 12T61 45T23 96T10 158Q10 217 28 253T77 309T149 336T235 343Q249 343 262 347T281 358Q287 367 287 374Q287 378 286 379H342Q341 378 341 374ZM434 42Q465 42 490 51T534 78T561 118T571 168Q571 225 535 261T430 298Q374 298 352 306T321 325L314 335L307 325Q299 314 277 306T198 298Q129 298 93 262T57 168Q57 141 66 118T94 78T137 52T194 42H434ZM297 562Q297 542 283 528T249 514Q229 514 215 528T201 562Q201 582 215 596T249 610Q269 610 283 596T297 562ZM429 562Q429 542 415 528T381 514Q361 514 348 528T334 562Q334 582 347 596T381 610Q401 610 415 596T429 562Z"  />
<glyph unicode="&#x6CC;" arabic-form="initial" horiz-adv-x="360" d="M264 97Q259 46 223 23T126 0H-40V42H125Q171 42 194 62T218 120V356Q218 371 227 376Q231 379 236 379H264V97ZM139 -191Q139 -211 125 -225T91 -239Q71 -239 57 -225T43 -191Q43 -171 57 -157T91 -143Q111 -143 125 -157T139 -191ZM271 -191Q271 -211 258 -225T224 -239Q204 -239 190 -225T176 -191Q176 -171 190 -157T224 -143Q244 -143 257 -157T271 -191Z"  />
<glyph unicode="&#x6CC;" arabic-form="medial" horiz-adv-x="409" d="M451 42V0H347Q321 0 303 5T272 19Q264 24 259 29T250 40Q246 45 244 50Q241 44 237 39Q233 34 227 29T209 18Q195 11 175 7T126 0H-33V42H127Q172 42 195 56T218 107V239Q218 292 219 357Q219 371 228 376Q232 379 237 379H264V105Q264 92 270 81T286 61T308 47T334 42H451ZM133 -191Q133 -211 119 -225T85 -239Q65 -239 51 -225T37 -191Q37 -171 51 -157T85 -143Q105 -143 119 -157T133 -191ZM265 -191Q265 -211 252 -225T218 -239Q198 -239 184 -225T170 -191Q170 -171 184 -157T218 -143Q238 -143 251 -157T265 -191Z"  />
<glyph unicode="&#x6CC;" arabic-form="terminal" horiz-adv-x="765" d="M550 -199Q586 -189 611 -177T652 -149T678 -115T691 -71Q690 -39 665 -20T587 0H515Q504 0 499 -1T491 -4T487 -7T484 -9Q480 -9 480 -2V21Q480 32 487 36T506 42H837V0H697Q698 0 704 -4T717 -16T730 -38T736 -72Q736 -106 723 -133T686 -180T632 -216T565 -242Q487 -266 379 -266Q311 -266 246 -254T129 -210T44 -125T5 12Q5 48 10 88T32 158Q36 163 39 165T51 167H74Q83 167 83 164Q83 163 83 162T79 155Q65 123 57 87T49 13Q50 -52 78 -97T150 -170T249 -210T358 -223Q370 -223 391 -223T437 -220T492 -212T550 -199Z"  />
<glyph unicode="&#x6CC;" arabic-form="isolated" horiz-adv-x="816" d="M723 42Q731 42 738 38T745 20Q745 -3 744 -26T737 -75Q726 -138 682 -179T565 -242Q487 -266 379 -266Q310 -266 245 -254T128 -209T43 -123T5 16Q5 49 10 88T32 158Q36 163 39 165T51 167H74Q83 167 83 164Q83 163 83 162T79 155Q65 123 57 87T49 13Q50 -52 77 -97T149 -170T248 -210T358 -223Q370 -223 391 -223T437 -220T492 -213T550 -199Q627 -177 662 -131T698 0H484Q457 0 431 6T383 27T349 63T336 115Q336 157 359 194T418 265Q447 293 480 317T544 359T596 389T628 405Q647 413 666 418T700 424Q705 424 712 423T726 419T738 411T743 399Q743 393 743 384T742 365Q742 362 740 362Q740 362 737 365Q732 370 725 373T703 377Q691 377 674 373T633 357Q576 331 527 297T442 228Q413 199 397 172T381 123Q381 86 410 64T496 42H723H723Z"  />
<glyph unicode="&#x6D2;" arabic-form="terminal" horiz-adv-x="449" d="M161 0Q132 0 111 -9T76 -33T56 -68T49 -112Q49 -135 58 -154T82 -189T118 -213T161 -223H715H742Q746 -223 747 -222T750 -220Q751 -220 751 -225V-259Q751 -266 744 -266H739H728H161Q129 -266 101 -254T52 -221T19 -172T7 -112Q7 -80 17 -52T48 -3T96 30T161 42H488V0H161H161Z"  />
<glyph unicode="&#x6D2;" arabic-form="isolated" horiz-adv-x="751" d="M46 -113Q46 -134 55 -154T79 -189T115 -214T158 -223H725Q729 -223 730 -222T733 -220Q734 -220 734 -225V-259Q734 -266 727 -266H158Q126 -266 98 -254T49 -222T16 -173T4 -113Q4 -86 10 -59T33 -9T77 28T148 42H218Q245 42 266 43T306 46T339 53T368 66Q411 89 439 124T480 201Q481 207 484 207Q492 205 500 201T516 194Q518 193 520 192T522 186Q521 178 517 169Q501 129 477 100T424 49Q379 15 324 8T207 0H146Q95 0 71 -25T46 -113Z"  />
<glyph unicode="&#x6D3;" arabic-form="terminal" horiz-adv-x="449" d="M161 0Q132 0 111 -9T76 -33T56 -68T49 -112Q49 -135 58 -154T82 -189T118 -213T161 -223H715H742Q746 -223 747 -222T750 -220Q751 -220 751 -225V-259Q751 -266 744 -266H739H728H161Q129 -266 101 -254T52 -221T19 -172T7 -112Q7 -80 17 -52T48 -3T96 30T161 42H488V0H161H161ZM134 252Q120 257 111 273T102 306Q102 331 121 348T170 365H229Q239 365 244 368L247 371L248 372L271 353Q271 349 266 345T253 341H169Q146 341 137 328T128 299Q130 276 155 265T237 253H275V231H71V253L134 252Z"  />
<glyph unicode="&#x6D3;" arabic-form="isolated" horiz-adv-x="745" d="M46 -113Q46 -134 55 -154T79 -189T115 -214T158 -223H725Q729 -223 730 -222T733 -220Q734 -220 734 -225V-259Q734 -266 727 -266H158Q126 -266 98 -254T49 -222T16 -173T4 -113Q4 -86 10 -59T33 -9T77 28T148 42H218Q245 42 266 43T306 46T339 53T368 66Q411 89 439 124T480 201Q481 207 484 207Q492 205 500 201T516 194Q518 193 520 192T522 186Q521 178 517 169Q501 129 477 100T424 49Q379 15 324 8T207 0H146Q95 0 71 -25T46 -113ZM82 254Q68 259 59 275T50 308Q50 333 69 350T118 367H177Q187 367 192 370L195 373L196 374L219 355Q219 351 214 347T201 343H117Q94 343 85 330T76 301Q78 278 103 267T185 255H223V233H19V255L82 254Z"  />
<glyph unicode="&#x6D4;" horiz-adv-x="310" d="M246 42V0H196Q161 0 132 10T85 40Q76 49 70 57Q67 61 65 63Q61 69 61 73Q61 77 65 80Q64 79 67 81T76 88T87 96T97 104Q99 106 101 106Q104 106 106 100Q110 91 114 82T126 65Q138 54 156 49T197 42H246Z"  />
<glyph unicode="&#x6D5;" arabic-form="terminal" horiz-adv-x="646" d="M698 42V0H587Q548 0 520 13T478 50Q439 0 352 0H235Q133 0 71 45T3 187Q4 282 57 322T209 363Q239 363 258 362T295 358T334 355T388 353Q425 353 436 358T452 379H499V96Q500 83 507 73T524 56T548 46T573 42H698ZM453 329Q448 317 426 313T382 308Q352 308 331 309T292 313T254 316T206 318Q134 318 91 286T48 190Q48 150 64 122T108 76T170 50T243 42H353Q401 42 427 62T453 121V329Z"  />
<glyph unicode="&#x6D5;" arabic-form="isolated" horiz-adv-x="705" d="M341 374Q341 367 347 358Q352 352 365 348T393 343Q438 343 479 336T550 309T599 253T618 158Q618 125 605 96T568 46T508 12T428 0H200Q156 0 121 12T61 45T23 96T10 158Q10 217 28 253T77 309T149 336T235 343Q249 343 262 347T281 358Q287 367 287 374Q287 378 286 379H342Q341 378 341 374ZM434 42Q465 42 490 51T534 78T561 118T571 168Q571 225 535 261T430 298Q374 298 352 306T321 325L314 335L307 325Q299 314 277 306T198 298Q129 298 93 262T57 168Q57 141 66 118T94 78T137 52T194 42H434Z"  />
<glyph unicode="&#x6F0;" horiz-adv-x="550" d="M149 124Q149 150 159 173T186 213T226 240T275 250Q301 250 323 240T363 213T390 173T400 124Q400 98 390 75T363 35T324 8T275 -2Q249 -2 226 8T186 35T159 75T149 124ZM197 124Q197 107 203 92T219 65T244 47T275 40Q291 40 305 46T329 64T346 91T352 124Q352 141 346 156T330 183T305 201T275 208Q259 208 245 202T220 184T203 157T197 124Z"  />
<glyph unicode="&#x6F1;" horiz-adv-x="550" d="M252 0V585H298V0H252Z"  />
<glyph unicode="&#x6F2;" horiz-adv-x="550" d="M449 346Q449 316 443 293T418 255T366 231T281 223H276Q236 223 212 232T174 252V0H128V585H174V356Q174 334 178 318T194 291T225 275T275 270Q319 270 344 274T383 289T399 315T403 355Q402 414 400 467T396 585H423Q434 585 438 581T444 554Q444 539 445 517T447 470T448 418T449 367V346Z"  />
<glyph unicode="&#x6F3;" horiz-adv-x="550" d="M513 336Q512 309 510 288T497 253T462 231T392 223H388Q340 223 316 234T284 269Q278 252 268 243T243 229T208 224T160 223Q122 223 105 229T79 252V0H33V585H79V355Q79 333 80 317T89 291T113 275T160 270Q192 270 210 271T239 281T252 307T255 355Q255 378 255 416T256 493V585H304Q303 534 303 488V350Q303 330 305 315T315 290T339 275T384 270Q415 270 431 274T455 289T464 316T466 355Q466 387 465 427T462 502Q460 543 459 585H487Q493 585 500 582T507 568L513 336Z"  />
<glyph unicode="&#x6F4;" horiz-adv-x="550" d="M493 265V223H189Q169 223 159 225T142 230T131 238T119 249V0H73V585H119V345Q119 329 121 315T130 290T151 273T189 267Q193 267 205 267T232 266H266Q255 280 246 304T236 367Q236 396 238 423T245 475T257 518T273 549Q299 582 344 584Q346 584 352 584T388 585H461Q472 585 477 583T485 579Q489 576 489 564V538Q489 531 487 531Q485 531 485 532T482 535Q479 537 474 540T461 544Q456 543 446 543H383H368Q327 543 307 517Q294 500 289 458T283 367Q283 314 300 291Q311 277 327 272T368 266L493 265Z"  />
<glyph unicode="&#x6F5;" horiz-adv-x="550" d="M470 293Q496 253 505 219T514 154Q514 121 503 92T472 40T427 5T373 -8Q351 -8 333 -4T302 6Q287 12 275 21Q267 12 253 5Q241 -1 222 -5T177 -10Q149 -10 124 3T79 38T49 90T37 153Q37 184 46 219T81 292L252 557L237 576L235 578Q234 579 234 583Q234 585 242 585H264Q270 585 274 585T282 581Q285 579 288 575T293 567L470 293ZM199 41Q220 41 239 52T275 83Q285 71 296 62Q306 54 320 48T351 42Q405 42 436 73T468 161Q468 179 465 196T447 242L275 509Q268 497 255 475T224 427T189 374T154 321T126 277T109 250Q98 232 91 206T84 152Q84 41 199 41Z"  />
<glyph unicode="&#x6F6;" horiz-adv-x="550" d="M139 224Q121 225 104 229Q90 233 75 241T50 267Q41 282 41 305Q41 321 47 344Q62 399 74 442Q85 479 93 510T104 546Q111 567 111 572Q111 577 109 578T106 582Q107 585 118 585H143Q151 585 155 584T161 578Q161 572 157 560L98 354Q94 341 92 330T89 310Q89 294 96 284Q107 266 140 266H314H320Q328 266 344 270T374 292Q389 312 395 350L428 585H474L435 273V0H385V243Q373 232 358 228T324 224H139Z"  />
<glyph unicode="&#x6F7;" horiz-adv-x="550" d="M536 585Q470 431 418 308Q396 255 375 205T336 114T308 47T295 17Q289 4 285 2Q282 0 269 0H241Q234 0 234 2Q234 2 240 10Q243 14 245 17T248 23Q248 27 244 36Q241 42 230 69T202 135T165 224T123 323Q74 440 12 585H62L274 89L487 585H536Z"  />
<glyph unicode="&#x6F8;" horiz-adv-x="550" d="M484 0L271 496L59 0H9Q71 145 120 262Q141 312 161 360T199 449T227 516T241 549Q245 558 245 562Q245 565 243 568T237 575Q231 583 231 583Q231 585 238 585H266Q279 585 282 583Q286 580 292 568Q293 565 304 539T333 472T371 380T415 277Q467 154 533 0H484Z"  />
<glyph unicode="&#x6F9;" horiz-adv-x="550" d="M474 0H428V280Q425 274 419 267Q414 261 406 254T383 241Q368 234 347 230T296 223Q288 223 282 223T268 222Q157 222 104 268Q81 288 69 319T57 384Q57 445 82 493Q104 533 139 556Q162 571 190 580T253 589Q316 589 362 583T437 552Q454 536 464 511T474 438V0ZM260 265Q295 265 321 268T367 282Q384 290 394 305T413 343Q420 364 423 381T427 429Q427 461 423 479T409 509Q392 531 359 537T271 544Q237 544 213 540T172 526T143 504T122 475Q111 457 106 431T101 378Q101 355 107 338T134 303Q147 292 163 285T197 273T230 267T260 265Z"  />
<glyph unicode="&#x2002;" horiz-adv-x="500" />
<glyph unicode="&#x2003;" horiz-adv-x="1000" />
<glyph unicode="&#x2009;" horiz-adv-x="100" />
<glyph unicode="&#x200A;" horiz-adv-x="20" />
<glyph unicode="&#x200C;" horiz-adv-x="0" d="M-53 924L0 871L52 923L68 907L16 855L68 803L52 787L0 838L-53 786L-69 803L-17 855L-69 907L-53 924Z"  />
<glyph unicode="&#x200D;" horiz-adv-x="0" d="M77 798V844H-76V798H-99V867H100V798H77Z"  />
<glyph unicode="&#x200E;" horiz-adv-x="0" d="M10 907L26 924L95 855L26 786L10 803L51 844H-75V867H51L10 907Z"  />
<glyph unicode="&#x200F;" horiz-adv-x="0" d="M-10 803L-26 787L-95 855L-26 924L-10 908L-51 867H76V844H-50L-10 803Z"  />
<glyph unicode="&#x2013;" horiz-adv-x="692" d="M692 195H0V225H692V195Z"  />
<glyph unicode="&#x2014;" horiz-adv-x="999" d="M970 195H29V225H970V195Z"  />
<glyph unicode="&#x2018;" horiz-adv-x="180" d="M112 395H67V470Q67 511 77 534T122 564V538Q106 533 101 520T96 473V467H112V395Z"  />
<glyph unicode="&#x2019;" horiz-adv-x="180" d="M113 490Q113 449 103 426T58 395V422Q74 426 79 439T84 486V492H68V564H113V490Z"  />
<glyph unicode="&#x201A;" horiz-adv-x="181" d="M113 -2Q113 -43 103 -66T58 -97V-71Q74 -66 79 -53T84 -6V0H68V72H113V-2Z"  />
<glyph unicode="&#x201C;" horiz-adv-x="287" d="M112 395H67V470Q67 511 77 534T122 564V538Q106 533 101 520T96 473V467H112V395ZM219 395H174V470Q174 511 184 534T229 564V538Q213 533 208 520T203 473V467H219V395Z"  />
<glyph unicode="&#x201D;" horiz-adv-x="288" d="M221 490Q221 449 211 426T166 395V422Q182 426 187 439T192 486V492H176V564H221V490ZM114 490Q114 449 104 426T59 395V422Q75 426 80 439T85 486V492H69V564H114V490Z"  />
<glyph unicode="&#x201E;" horiz-adv-x="287" d="M220 -2Q220 -43 210 -66T165 -97V-71Q181 -66 186 -53T191 -6V0H175V72H220V-2ZM113 -2Q113 -43 103 -66T58 -97V-71Q74 -66 79 -53T84 -6V0H68V72H113V-2Z"  />
<glyph unicode="&#x2020;" horiz-adv-x="630" d="M333 -75H296V344H80V378H296V564H333V378H549V344H333V-75Z"  />
<glyph unicode="&#x2021;" horiz-adv-x="622" d="M330 -75H293V100H80V134H293V369H80V402H293V564H330V402H543V369H330V134H543V100H330V-75Z"  />
<glyph unicode="&#x2022;" horiz-adv-x="397" d="M294 281Q294 240 266 213T198 185Q157 185 130 212T103 281Q103 321 130 348T198 375Q238 375 266 348T294 281Z"  />
<glyph unicode="&#x2026;" horiz-adv-x="548" d="M115 0H68V74H115V0ZM297 0H251V74H297V0ZM480 0H433V74H480V0Z"  />
<glyph unicode="&#x202A;" horiz-adv-x="0" d="M-28 844H-85V867H-28V844ZM1 867H51L10 907L26 924L95 855L26 786L10 803L51 844H1V867Z"  />
<glyph unicode="&#x202B;" horiz-adv-x="0" d="M28 867H85V844H28V867ZM-1 844H-50L-10 803L-26 787L-95 855L-26 924L-10 908L-51 867H-1V844Z"  />
<glyph unicode="&#x202C;" horiz-adv-x="0" d="M-52 846L-69 862L0 931L69 862L52 846L11 887V785H-12V886L-52 846Z"  />
<glyph unicode="&#x202D;" horiz-adv-x="0" d="M-37 907L-21 924L48 855L-21 786L-37 803L4 844H-103V867H3L-37 907ZM28 907L44 924L113 855L44 786L28 803L81 855L28 907Z"  />
<glyph unicode="&#x202E;" horiz-adv-x="0" d="M38 827L21 810L-47 879L21 948L38 931L-3 890H104V867H-3L38 827ZM-28 827L-44 810L-113 879L-44 948L-28 931L-80 879L-28 827Z"  />
<glyph unicode="&#x2030;" horiz-adv-x="1033" d="M178 321Q142 321 119 325T82 343T63 379T58 439V447Q58 483 63 506T81 542T118 560T178 565H187Q224 565 247 560T283 542T302 506T307 447V439Q307 402 302 379T284 343T247 326T187 321H178ZM186 349Q216 349 233 352T260 364T273 392T276 439V447Q276 476 273 494T261 521T234 534T186 538H179Q149 538 132 535T105 522T93 494T90 447V439Q90 410 93 392T105 365T131 352T179 349H186ZM225 0H193L481 564H513L225 0ZM531 -1Q495 -1 472 3T435 21T417 57T412 117V124Q412 161 417 184T435 220T471 238T531 243H540Q577 243 600 238T637 220T656 184T661 124V117Q661 80 656 57T638 21T601 4T540 -1H531ZM539 27Q569 27 586 30T613 42T626 70T629 117V124Q629 154 626 172T614 199T587 212T539 216H533Q503 216 486 213T459 200T446 172T443 124V117Q443 88 446 70T458 43T485 30T533 27H539ZM847 -1Q810 -1 787 3T751 21T732 57T727 117V124Q727 161 732 184T750 220T787 238T847 243H856Q893 243 916 238T952 220T971 184T976 124V117Q976 80 971 57T953 21T916 4T856 -1H847ZM855 27Q885 27 902 30T929 42T942 70T945 117V124Q945 154 942 172T930 199T903 212T855 216H848Q818 216 801 213T774 200T762 172T759 124V117Q759 88 762 70T774 43T800 30T848 27H855Z"  />
<glyph unicode="&#x2039;" horiz-adv-x="221" d="M169 73L139 59L46 225L139 392L169 378L84 225L169 73Z"  />
<glyph unicode="&#x203A;" horiz-adv-x="221" d="M81 59L51 73L137 225L51 378L81 392L175 225L81 59Z"  />
<glyph unicode="&#x2044;" horiz-adv-x="115" d="M-71 0H-103L185 564H217L-71 0Z"  />
<glyph unicode="&#x20AC;" horiz-adv-x="745" d="M691 143Q691 98 679 69T637 23T553 0T416 -7H398Q304 -7 247 1T157 35T113 105T99 225H38V254H99V324H38V352H100Q101 419 114 461T160 528T247 562T387 571H403Q492 571 546 565T631 541T671 496T682 422V412H639V419Q639 452 632 473T601 508T529 526T403 531H388Q311 531 264 525T191 501T155 447T144 352H569V324H144V254H569V225H144Q146 160 155 122T191 65T267 39T399 33H413Q491 33 537 38T608 55T641 89T649 144V153H691V143Z"  />
<glyph unicode="&#x2113;" horiz-adv-x="364" d="M316 51Q292 23 265 8T205 -7Q154 -7 132 25T110 134V192Q99 178 88 167T66 144L49 167Q66 183 80 199T110 232V414Q110 512 138 555T216 598Q256 598 278 572T300 500Q300 427 259 362T149 224V140Q149 107 152 85T163 50T184 32T215 26Q239 26 260 38T298 71L316 51ZM149 265Q202 323 234 379T267 497Q267 529 256 549T218 569Q186 569 168 535T149 422V265Z"  />
<glyph unicode="&#x2122;" horiz-adv-x="832" d="M198 290H166V537H34V564H330V537H198V290ZM777 290H745V532H741L592 290H568L417 532H413V290H381V564H432L579 325H582L728 564H777V290Z"  />
<glyph unicode="&#x2126;" horiz-adv-x="663" d="M610 0H397V143Q439 149 473 166T530 209T566 266T579 334Q579 381 562 417T512 479T435 518T332 532Q275 532 230 519T152 480T103 418T85 334Q85 298 97 267T133 210T190 167T266 143V0H53V37H232V116Q144 137 93 195T41 335Q41 390 62 433T121 507T213 554T332 571Q397 571 450 555T542 508T601 434T622 335Q622 253 571 195T432 116V37H610V0Z"  />
<glyph unicode="&#x212E;" horiz-adv-x="637" d="M552 136Q529 100 505 74T452 31T391 6T316 -2Q256 -2 207 20T124 81T70 172T51 284Q51 344 70 395T123 485T207 545T316 567Q376 567 425 547T510 489T565 399T585 284H168V96Q197 66 234 52T316 37Q382 37 430 65T516 159L552 136ZM468 320V469Q402 533 316 533Q227 533 168 469V320H468Z"  />
<glyph unicode="&#x2202;" horiz-adv-x="491" d="M67 535Q96 567 136 582T226 598Q280 598 320 576T388 514T429 422T443 306Q443 158 389 76T233 -7Q189 -7 155 6T98 43T63 100T50 174Q50 215 63 248T99 306T156 343T231 356Q287 356 333 330T403 255H404Q405 271 405 282T405 309Q405 372 391 419T352 498T295 546T226 562Q186 562 152 551T87 507L67 535ZM401 217Q375 270 330 295T235 320Q170 320 130 281T90 174Q90 144 99 118T127 72T171 41T233 29Q273 29 302 44T351 84T383 144T401 217Z"  />
<glyph unicode="&#x2206;" horiz-adv-x="674" d="M663 0H11L315 564H362L663 0ZM596 40L339 522H338L79 40H596Z"  />
<glyph unicode="&#x220F;" horiz-adv-x="749" d="M647 -178H604V613H144V-178H102V613H55V652H694V613H647V-178Z"  />
<glyph unicode="&#x2211;" horiz-adv-x="592" d="M544 -178H45V-141L343 264L56 617V652H535V613H115V611L395 265L100 -136V-138H544V-178Z"  />
<glyph unicode="&#x2212;" horiz-adv-x="542" d="M476 237H66V269H476V237Z"  />
<glyph unicode="&#x221A;" horiz-adv-x="486" d="M279 -178H234L81 117L32 93L18 121L99 161L252 -138H253L430 652H468L279 -178Z"  />
<glyph unicode="&#x221E;" horiz-adv-x="643" d="M321 232Q368 284 403 307T479 330Q504 330 526 322T564 299T590 262T600 212Q600 184 591 162T565 125T526 101T479 93Q440 93 403 115T321 189Q279 144 243 119T162 93Q138 93 117 101T79 124T53 162T43 212Q43 240 52 262T78 299T116 322T162 330Q207 330 243 305T321 232ZM299 211Q276 235 258 251T224 278T194 294T163 299Q126 299 102 274T78 211Q78 173 102 149T164 124Q179 124 193 128T223 142T257 169T299 211ZM343 211Q366 186 384 170T417 143T447 129T477 124Q517 124 541 148T565 211Q565 249 541 274T477 300Q446 300 418 280T343 211Z"  />
<glyph unicode="&#x222B;" horiz-adv-x="306" d="M51 -140Q57 -142 65 -143T81 -144Q94 -144 103 -139T119 -117T129 -71T132 7V462Q132 519 137 556T153 616T180 646T221 655Q228 655 239 654T255 651V615Q249 617 241 617T225 618Q212 618 203 613T187 591T177 545T174 468V12Q174 -45 169 -82T154 -141T126 -171T85 -180Q78 -180 67 -179T51 -176V-140Z"  />
<glyph unicode="&#x2248;" horiz-adv-x="542" d="M482 362Q474 313 452 287T380 261Q352 261 324 271T267 293Q241 305 214 314T163 324Q129 324 114 308T90 257H60Q68 307 92 332T164 358Q192 358 221 347T280 324Q306 313 332 304T381 295Q414 295 429 311T453 362H482ZM482 215Q474 165 452 140T380 115Q352 115 324 124T267 146Q241 158 214 168T163 178Q129 178 114 162T90 110H60Q68 160 92 186T164 212Q192 212 221 201T280 177Q306 166 332 157T381 147Q414 147 429 163T453 215H482Z"  />
<glyph unicode="&#x2260;" horiz-adv-x="542" d="M476 159H237L168 21L141 35L203 159H66V192H219L276 307H66V339H293L359 471L385 458L326 339H476V307H310L253 192H476V159Z"  />
<glyph unicode="&#x2264;" horiz-adv-x="542" d="M476 70L66 253V285L476 468V433L109 270V268L476 105V70ZM476 0H66V32H476V0Z"  />
<glyph unicode="&#x2265;" horiz-adv-x="542" d="M66 105L433 268V270L66 433V468L476 285V253L66 70V105ZM66 32H476V0H66V32Z"  />
<glyph unicode="&#x25CA;" horiz-adv-x="456" d="M230 33L359 287L229 530H228L98 287L229 33H230ZM247 0H211L58 287L211 564H247L398 287L247 0Z"  />
<glyph unicode="&#x25CC;" horiz-adv-x="421" d="M28 167Q28 191 51 191Q76 191 76 167Q76 144 51 144Q28 144 28 167ZM327 167Q327 191 350 191Q374 191 374 167Q374 144 350 144Q327 144 327 167ZM177 317Q177 341 201 341Q225 341 225 317Q225 292 201 292Q177 292 177 317ZM177 18Q177 42 201 42Q225 42 225 18Q225 -6 201 -6Q177 -6 177 18ZM308 243Q308 266 332 266Q355 266 355 243Q355 218 332 218Q308 218 308 243ZM308 92Q308 116 332 116Q355 116 355 92Q355 69 332 69Q308 69 308 92ZM47 243Q47 266 70 266Q95 266 95 243Q95 218 70 218Q47 218 47 243ZM47 92Q47 116 70 116Q95 116 95 92Q95 69 70 69Q47 69 47 92ZM103 298Q103 322 125 322Q150 322 150 298Q150 274 125 274Q103 274 103 298ZM251 298Q251 322 276 322Q299 322 299 298Q299 274 276 274Q251 274 251 298ZM103 36Q103 61 125 61Q150 61 150 36Q150 13 125 13Q103 13 103 36ZM251 36Q251 61 276 61Q299 61 299 36Q299 13 276 13Q251 13 251 36Z"  />
<glyph unicode="&#x274A;" horiz-adv-x="380" d="M194 565L135 486L120 496L175 574L84 604L91 624L182 593V692H201V592L294 623L300 605L210 573L266 497L251 485L194 565Z"  />
<glyph unicode="&#xFB01;" horiz-adv-x="448" d="M134 0H92V363H12V398H92V441Q92 470 98 494T118 535T157 561T218 570Q239 570 256 569T291 566V530Q272 533 257 534T227 535Q198 535 180 530T151 514T138 485T134 439V398H269V363H134V0ZM379 0H337V398H379V0ZM379 500H337V564H379V500Z"  />
<glyph unicode="&#xFB02;" horiz-adv-x="448" d="M134 0H92V363H12V398H92V441Q92 470 98 494T118 535T157 561T218 570Q239 570 256 569T291 566V530Q272 533 257 534T227 535Q198 535 180 530T151 514T138 485T134 439V398H269V363H134V0ZM379 0H337V564H379V0Z"  />
<glyph unicode="&#xFB50;" arabic-form="terminal" horiz-adv-x="260" d="M333 42V0H170Q126 0 110 19T94 89Q94 96 94 120T94 178T93 255T93 340Q92 440 92 563Q92 578 101 583Q105 586 111 585H138V89Q138 71 139 62T144 48T156 43T178 42H333ZM18 663V674V677H19Q20 677 21 676T24 675H166Q183 675 192 684T203 708Q203 724 193 731T170 740Q158 740 145 734T129 725L119 719Q111 714 96 705T52 679Q48 677 48 677Q47 677 47 682V779Q47 789 55 789H68V713Q74 717 82 722T98 731T114 740T124 746Q132 751 143 755T168 760Q194 760 209 746T225 709Q225 683 210 669T175 655H28Q21 655 20 657T18 663Z"  />
<glyph unicode="&#xFB50;" arabic-form="isolated" horiz-adv-x="249" d="M150 0H104V563Q104 571 107 576T114 583Q118 586 124 585H150V0ZM24 663V674V677H25Q26 677 27 676T30 675H172Q189 675 198 684T209 708Q209 724 199 731T176 740Q164 740 151 734T135 725L125 719Q117 714 102 705T58 679Q54 677 54 677Q53 677 53 682V779Q53 789 61 789H74V713Q80 717 88 722T104 731T120 740T130 746Q138 751 149 755T174 760Q200 760 215 746T231 709Q231 683 216 669T181 655H34Q27 655 26 657T24 663Z"  />
<glyph unicode="&#xFB51;" horiz-adv-x="260" d="M333 42V0H170Q126 0 110 19T94 89Q94 96 94 120T94 178T93 255T93 340Q92 440 92 563Q92 578 101 583Q105 586 111 585H138V89Q138 71 139 62T144 48T156 43T178 42H333ZM18 663V674V677H19Q20 677 21 676T24 675H166Q183 675 192 684T203 708Q203 724 193 731T170 740Q158 740 145 734T129 725L119 719Q111 714 96 705T52 679Q48 677 48 677Q47 677 47 682V779Q47 789 55 789H68V713Q74 717 82 722T98 731T114 740T124 746Q132 751 143 755T168 760Q194 760 209 746T225 709Q225 683 210 669T175 655H28Q21 655 20 657T18 663Z"  />
<glyph unicode="&#xFB56;" arabic-form="initial" horiz-adv-x="362" d="M264 97Q259 46 223 23T126 0H-40V42H125Q171 42 194 62T218 120V356Q218 371 227 376Q231 379 236 379H264V97ZM106 -294Q106 -274 120 -261T154 -247Q174 -247 187 -260T201 -294Q201 -314 188 -328T154 -342Q134 -342 120 -328T106 -294ZM172 -183Q172 -163 186 -149T220 -135Q240 -135 253 -149T267 -183Q267 -203 254 -217T220 -231Q200 -231 186 -217T172 -183ZM39 -183Q39 -163 53 -149T87 -135Q107 -135 121 -149T135 -183Q135 -203 121 -217T87 -231Q67 -231 53 -217T39 -183Z"  />
<glyph unicode="&#xFB56;" arabic-form="medial" horiz-adv-x="411" d="M451 42V0H347Q321 0 303 5T272 19Q264 24 259 29T250 40Q246 45 244 50Q241 44 237 39Q233 34 227 29T209 18Q195 11 175 7T126 0H-33V42H127Q172 42 195 56T218 107V239Q218 292 219 357Q219 371 228 376Q232 379 237 379H264V105Q264 92 270 81T286 61T308 47T334 42H451ZM109 -294Q109 -274 123 -261T157 -247Q177 -247 190 -260T204 -294Q204 -314 191 -328T157 -342Q137 -342 123 -328T109 -294ZM175 -183Q175 -163 189 -149T223 -135Q243 -135 256 -149T270 -183Q270 -203 257 -217T223 -231Q203 -231 189 -217T175 -183ZM42 -183Q42 -163 56 -149T90 -135Q110 -135 124 -149T138 -183Q138 -203 124 -217T90 -231Q70 -231 56 -217T42 -183Z"  />
<glyph unicode="&#xFB56;" arabic-form="terminal" horiz-adv-x="1028" d="M939 97Q941 72 962 57T1008 42H1130V0H1021Q987 0 959 12T919 47Q901 24 870 12T800 0H149Q75 0 40 30T4 115Q4 123 4 133T6 153Q7 164 8 176Q10 196 15 209T40 223H62Q67 223 68 222T68 214Q62 192 58 171T53 127Q53 100 61 83T83 57T115 45T153 42H800Q843 42 868 63T893 120V356Q893 364 896 369T903 376Q907 379 913 379H939V97H939ZM418 -294Q418 -274 432 -261T466 -247Q486 -247 499 -260T513 -294Q513 -314 500 -328T466 -342Q446 -342 432 -328T418 -294ZM484 -183Q484 -163 498 -149T532 -135Q552 -135 565 -149T579 -183Q579 -203 566 -217T532 -231Q512 -231 498 -217T484 -183ZM351 -183Q351 -163 365 -149T399 -135Q419 -135 433 -149T447 -183Q447 -203 433 -217T399 -231Q379 -231 365 -217T351 -183Z"  />
<glyph unicode="&#xFB56;" arabic-form="isolated" horiz-adv-x="1035" d="M939 97Q932 48 895 24T800 0H149Q75 0 40 30T4 115Q4 123 4 133T6 153Q7 164 8 176Q10 196 15 209T40 223H62Q67 223 68 222T68 214Q62 192 58 171T53 127Q53 100 61 83T83 57T115 45T153 42H800Q843 42 868 63T893 120V356Q893 364 896 369T903 376Q907 379 913 379H939V97H939ZM418 -293Q418 -273 432 -260T466 -246Q486 -246 499 -259T513 -293Q513 -313 500 -327T466 -341Q446 -341 432 -327T418 -293ZM484 -182Q484 -162 498 -148T532 -134Q552 -134 565 -148T579 -182Q579 -202 566 -216T532 -230Q512 -230 498 -216T484 -182ZM351 -182Q351 -162 365 -148T399 -134Q419 -134 433 -148T447 -182Q447 -202 433 -216T399 -230Q379 -230 365 -216T351 -182Z"  />
<glyph unicode="&#xFB57;" horiz-adv-x="1028" d="M939 97Q941 72 962 57T1008 42H1130V0H1021Q987 0 959 12T919 47Q901 24 870 12T800 0H149Q75 0 40 30T4 115Q4 123 4 133T6 153Q7 164 8 176Q10 196 15 209T40 223H62Q67 223 68 222T68 214Q62 192 58 171T53 127Q53 100 61 83T83 57T115 45T153 42H800Q843 42 868 63T893 120V356Q893 364 896 369T903 376Q907 379 913 379H939V97H939ZM418 -294Q418 -274 432 -261T466 -247Q486 -247 499 -260T513 -294Q513 -314 500 -328T466 -342Q446 -342 432 -328T418 -294ZM484 -183Q484 -163 498 -149T532 -135Q552 -135 565 -149T579 -183Q579 -203 566 -217T532 -231Q512 -231 498 -217T484 -183ZM351 -183Q351 -163 365 -149T399 -135Q419 -135 433 -149T447 -183Q447 -203 433 -217T399 -231Q379 -231 365 -217T351 -183Z"  />
</font>
</defs>
</svg>
