<?xml  version="1.0" encoding="UTF-8"?>
<!DOCTYPE svg PUBLIC "-//W3C//DTD SVG 1.0//EN" "http://www.w3.org/TR/2001/REC-SVG-20010904/DTD/svg10.dtd" >
<svg xmlns="http://www.w3.org/2000/svg" >
<metadata>
<version>1.0</version>
<id><![CDATA[Miriam W26 Medium]]></id>
<vendor>Monotype Imaging Inc.</vendor>
<credits>
<name>Fonts.com WebFonts</name>
<URL>http://webfonts.fonts.com</URL>
<role>Home of the Web fonts</role>
</credits>
<license>
<URL>http://webfonts.fonts.com/Legal</URL>
</license>
<copyright><![CDATA[Masterfont Studio Rosenberg 2003 (C) version 1.0]]></copyright>
<trademark></trademark>
<licensee>
<name></name>
</licensee>
</metadata>
<defs >
<font horiz-adv-x="467" id="dd50d8fb-6769-469f-8bfa-9caed8e6df18">
<font-face font-family="" panose-1="0 0 5 0 0 0 0 0 0 0" ascent="904" descent="-326" units-per-em="1000" alphabetic="0">
</font-face>
<missing-glyph horiz-adv-x="500" d="M63 0V800H438V0H63ZM125 63H375V738H125V63Z"  />

<glyph unicode="&#xA;" />
<glyph unicode="&#xD;" />
<glyph unicode=" " horiz-adv-x="265" />
<glyph unicode="!" horiz-adv-x="194" d="M125 210Q125 190 106 190H81Q60 190 60 210V555Q60 575 80 575H105Q125 575 125 555V210ZM135 40Q135 23 122 12T92 0Q75 0 63 11T50 40V75Q50 92 62 103T92 115Q109 115 122 104T135 75V40Z"  />
<glyph unicode="&quot;" horiz-adv-x="373" d="M338 566Q338 562 337 560L249 400Q238 380 227 380H202Q186 380 186 395Q186 398 187 400L254 560Q260 575 278 575H322Q338 575 338 566ZM193 566Q193 562 192 560L104 400Q93 380 82 380H57Q41 380 41 395Q41 398 42 400L109 560Q115 575 133 575H177Q193 575 193 566Z"  />
<glyph unicode="#" horiz-adv-x="728" d="M658 382L640 347H491L440 234H591L574 197H422L361 58H320L383 197H258L197 62H157L218 197H66L83 232H232L285 347H138L156 382H302L363 519H404L343 385H469L529 519H570L509 382H658ZM451 347H327L275 233H399L451 347Z"  />
<glyph unicode="$" horiz-adv-x="488" d="M403 155Q403 4 261 -3V-48H229V-4Q129 1 85 76Q73 97 70 113L102 124Q111 83 149 56Q184 31 228 27V298Q156 335 141 347Q99 381 99 433Q99 488 136 523T229 562V604H261V562Q340 556 374 481L342 469Q319 520 261 529V318Q403 239 403 155ZM228 334V530Q187 526 159 498T131 430Q131 397 165 370Q173 364 228 334ZM371 152Q371 216 261 280V27Q371 36 371 152Z"  />
<glyph unicode="%" horiz-adv-x="654" d="M620 128Q620 71 584 35T490 -2Q433 -2 397 34T360 128Q360 185 396 221T490 258Q547 258 583 222T620 128ZM302 442Q302 385 266 349T172 312Q115 312 79 348T42 442Q42 499 78 535T172 572Q229 572 265 536T302 442ZM484 561L212 -17Q207 -28 196 -28Q175 -28 175 -9Q175 -7 177 -1L448 575Q455 589 466 589Q463 589 478 584Q484 581 484 563V561ZM584 127Q584 168 558 194T490 221Q449 221 423 195T396 128Q396 87 422 61T490 34Q531 34 557 60T584 127ZM266 441Q266 482 240 508T172 535Q131 535 105 509T78 442Q78 401 104 375T172 348Q213 348 239 374T266 441Z"  />
<glyph unicode="&apos;" horiz-adv-x="255" d="M203 566Q203 562 202 560L114 400Q103 380 92 380H67Q51 380 51 395Q51 397 93 500Q96 508 119 560Q126 575 143 575H187Q203 575 203 566Z"  />
<glyph unicode="(" horiz-adv-x="285" d="M253 -131Q253 -140 243 -140H210Q199 -140 186 -127Q32 27 32 232Q32 348 67 428T186 591Q199 604 210 604H243Q253 604 253 595Q253 591 246 582Q230 565 201 529Q98 393 98 246Q98 232 98 232Q103 138 123 75Q146 3 200 -65Q215 -82 246 -118Q253 -126 253 -131Z"  />
<glyph unicode=")" horiz-adv-x="285" d="M255 228Q255 26 101 -127Q88 -140 77 -140H44Q34 -140 34 -131Q34 -126 41 -118Q57 -100 87 -65Q141 3 164 75Q184 138 189 232Q189 232 189 246Q189 391 86 529Q71 546 41 582Q34 591 34 595Q34 604 44 604H77Q88 604 101 591Q186 507 220 427T255 228Z"  />
<glyph unicode="*" horiz-adv-x="620" d="M494 273L467 225L317 327L330 145H276L290 327L139 224L112 271L275 351L111 429L138 476L288 374L275 557H329L316 374L466 477L493 430L330 351L494 273Z"  />
<glyph unicode="+" horiz-adv-x="327" d="M286 302Q286 282 266 282H196V212Q196 192 176 192H151Q131 192 131 212V282H61Q41 282 41 302V327Q41 347 61 347H131V417Q131 437 151 437H176Q196 437 196 417V347H266Q286 347 286 327V302Z"  />
<glyph unicode="&#x2c;" horiz-adv-x="247" d="M200 91Q200 87 199 85L111 -75Q100 -95 89 -95H64Q48 -95 48 -80Q48 -78 90 25Q93 33 116 85Q123 100 140 100H184Q200 100 200 91Z"  />
<glyph unicode="-" horiz-adv-x="348" d="M297 302Q297 282 277 282H72Q52 282 52 302V327Q52 347 72 347H277Q284 347 290 341T297 327V302Z"  />
<glyph unicode="." horiz-adv-x="192" d="M140 40Q140 23 127 12T97 0Q80 0 68 11T55 40V75Q55 92 67 103T97 115Q114 115 127 104T140 75V40Z"  />
<glyph unicode="/" horiz-adv-x="400" d="M351 604Q351 596 347 585L116 -49Q110 -66 94 -66Q53 -66 53 -39Q53 -31 56 -25L285 607Q294 633 312 633Q317 633 322 631Q340 624 343 623Q351 617 351 604Z"  />
<glyph unicode="0" horiz-adv-x="450" d="M423 290Q423 180 381 98Q328 -5 228 -5Q128 -5 75 98Q33 180 33 290Q33 398 76 479Q129 580 228 580Q327 580 380 479Q423 398 423 290ZM357 289Q357 374 333 433Q300 515 228 515Q156 515 122 434Q98 375 98 290Q98 202 121 144Q154 60 228 60Q301 60 334 143Q357 202 357 289Z"  />
<glyph unicode="1" horiz-adv-x="450" d="M311 20Q311 0 291 0H266Q246 0 246 20V477L182 415Q176 409 168 409Q160 409 154 415Q130 439 130 448Q130 457 136 461L251 565Q263 576 283 576Q311 576 311 553V20Z"  />
<glyph unicode="2" horiz-adv-x="450" d="M402 20Q402 0 382 0H67Q55 0 55 15Q55 76 122 157Q156 198 221 256Q259 290 267 298Q293 323 308 345Q329 376 329 409Q329 453 297 480T221 508Q152 508 116 440Q112 429 102 407Q97 397 89 397Q83 397 44 415Q39 417 39 425Q39 430 41 435Q100 575 230 575Q299 575 349 530T399 415Q399 358 361 306Q336 272 276 219Q212 162 190 135Q148 83 148 67Q148 66 149 65H382Q397 65 401 48Q402 43 402 20Z"  />
<glyph unicode="3" horiz-adv-x="450" d="M422 213Q422 132 375 75Q313 0 220 0Q148 0 62 63Q41 78 37 85T33 100Q33 109 38 112Q70 133 75 133Q85 133 98 118Q116 96 155 80T224 64Q278 64 317 107T356 205Q356 216 355 225Q350 269 319 297T243 325Q224 325 207 302T178 279Q178 279 145 299Q138 303 138 313Q138 318 140 320L272 510H82Q67 510 63 527Q62 532 62 555Q62 562 68 568T82 575H360Q376 575 376 561Q376 558 372 550Q363 537 346 512L293 432Q283 419 267 392Q266 391 266 388Q266 384 269 381Q291 378 319 367Q417 328 422 230Q422 230 422 213Z"  />
<glyph unicode="4" horiz-adv-x="450" d="M434 185Q434 165 401 165Q397 165 390 165T379 165Q365 165 362 161T359 148V20Q359 4 343 1Q339 0 314 0Q294 0 294 20Q294 157 291 161T277 165H36Q19 165 19 189V215Q19 222 42 245T69 276T124 411Q156 494 198 534T319 575Q359 575 359 550V247Q359 230 376 230H414Q429 230 433 213Q434 208 434 185ZM294 247V496Q294 505 287 505H282Q218 505 190 425Q148 306 118 248Q111 235 111 236Q111 230 124 230H277Q294 230 294 247Z"  />
<glyph unicode="5" horiz-adv-x="450" d="M417 188Q417 107 356 51T213 -6Q173 -6 127 14T48 64Q30 80 28 90Q24 93 24 99Q24 110 37 117Q48 121 59 125Q67 128 69 128Q70 128 72 128Q73 127 74 127Q78 124 86 117Q161 56 215 56Q271 56 313 94T355 188Q355 241 318 280T228 320Q151 320 117 266Q114 261 111 255T99 249Q93 250 94 250Q49 256 53 277L98 545Q103 575 140 575H333Q348 575 352 559Q353 554 353 530Q353 510 333 510H168Q161 510 158 500L131 350Q128 350 163 366T226 382Q307 382 362 326T417 188Z"  />
<glyph unicode="6" horiz-adv-x="450" d="M414 188Q414 104 365 46Q314 -15 231 -15Q148 -15 96 42Q47 95 38 180Q34 219 34 262Q34 414 129 502Q221 587 334 587Q359 587 364 574Q366 570 366 540Q366 522 328 522Q237 522 171 455Q111 395 110 323L116 319Q128 329 144 341Q184 370 231 370Q309 370 361 318T414 188ZM349 180Q349 231 315 269T231 307Q180 307 146 269T111 180Q111 128 145 89T231 50Q282 50 315 89T349 180Z"  />
<glyph unicode="7" horiz-adv-x="450" d="M421 556Q421 530 367 428Q332 361 296 295Q274 249 254 177Q237 117 221 56Q217 37 209 15Q205 2 190 0Q190 0 164 0Q143 0 143 20Q143 21 144 23Q144 24 144 25Q144 26 145 36T147 48Q166 151 195 221Q234 316 276 402Q292 433 324 495Q326 499 326 503Q326 510 309 510H64Q48 510 45 527Q44 530 44 555Q44 575 64 575H389Q421 575 421 556Z"  />
<glyph unicode="8" horiz-adv-x="450" d="M418 163Q418 88 360 39T225 -10Q149 -10 92 38Q32 88 32 163V170Q39 247 79 286Q97 304 127 317Q135 319 139 321Q139 322 140 322Q139 323 136 325Q123 334 100 354Q60 396 60 450Q60 511 113 550Q161 585 225 585Q289 585 337 550Q390 511 390 450Q390 375 319 328L310 322Q312 321 315 320T329 314Q355 302 371 286Q411 247 418 170V163ZM321 448Q321 487 294 508T226 529Q185 529 157 508T129 448Q129 408 157 382T225 355Q265 355 293 382T321 448ZM347 172Q347 226 313 260T225 295Q171 295 137 261T103 173Q103 119 137 85T225 50Q279 50 313 84T347 172Z"  />
<glyph unicode="9" horiz-adv-x="450" d="M415 322Q415 170 322 84T115 -3Q90 -3 85 10Q83 14 83 44Q83 62 121 62Q212 62 278 129Q338 189 339 261L333 265Q322 256 305 243Q265 214 218 214Q140 214 88 266T35 396Q35 480 85 539T218 599Q301 599 353 542Q402 489 411 404Q415 365 415 322ZM338 404Q338 456 304 495T218 534Q167 534 134 495T100 404Q100 353 134 315T218 277Q269 277 303 315T338 404Z"  />
<glyph unicode=":" horiz-adv-x="194" d="M140 376Q140 359 127 348T97 336Q80 336 68 347T55 376V411Q55 428 67 439T97 451Q114 451 127 440T140 411V376ZM140 40Q140 23 127 12T97 0Q80 0 68 11T55 40V75Q55 92 67 103T97 115Q114 115 127 104T140 75V40Z"  />
<glyph unicode=";" horiz-adv-x="256" d="M195 376Q195 359 182 348T152 336Q135 336 123 347T110 376V411Q110 428 122 439T152 451Q169 451 182 440T195 411V376ZM190 91Q190 87 189 85L101 -75Q90 -95 79 -95H54Q38 -95 38 -80Q38 -77 39 -75L106 85Q112 100 130 100H174Q190 100 190 91Z"  />
<glyph unicode="&lt;" horiz-adv-x="430" d="M345 11L58 294L345 578V516L122 294L345 72V11Z"  />
<glyph unicode="=" horiz-adv-x="348" d="M310 342Q310 322 290 322H85Q65 322 65 342V367Q65 387 85 387H290Q297 387 303 381T310 367V342ZM310 227Q310 207 290 207H85Q65 207 65 227V252Q65 272 85 272H290Q297 272 303 266T310 252V227Z"  />
<glyph unicode="&gt;" horiz-adv-x="430" d="M375 294L87 11V72L310 294L87 516V578L375 294Z"  />
<glyph unicode="?" horiz-adv-x="395" d="M338 454Q338 397 294 321T249 215V185Q249 170 233 166Q229 165 205 165Q188 165 185 184Q185 186 185 215Q185 266 231 337T277 448Q277 478 259 497T211 516Q183 516 163 498T143 452V422Q143 402 123 402H99Q82 402 79 421Q79 423 79 452Q79 507 120 543T217 580Q271 580 304 545T338 454ZM261 39Q261 22 248 11T218 -1Q201 -1 189 10T176 39V74Q176 91 188 102T218 114Q235 114 248 103T261 74V39Z"  />
<glyph unicode="@" horiz-adv-x="759" d="M699 350Q699 258 647 201Q591 140 495 140Q404 140 390 195Q332 146 282 146Q242 146 217 172Q187 202 187 262Q187 349 234 419Q287 496 366 496Q422 496 450 462L456 484H533L470 229Q468 221 468 216Q468 178 517 178Q567 178 608 216Q661 265 661 351Q661 449 587 517Q508 590 383 590Q254 590 168 512T81 315Q81 200 167 123T382 45Q486 45 568 99Q577 103 581 103Q598 103 598 87Q598 77 589 70Q511 10 382 10Q235 10 139 96T43 315Q43 452 138 538T383 625Q524 625 613 543Q699 464 699 350ZM440 426Q425 462 377 462Q334 462 299 391Q265 324 265 250Q265 184 303 184Q354 184 388 234L440 426Z"  />
<glyph unicode="A" horiz-adv-x="681" d="M669 0H358V24H462L399 198H198L136 24H256V0H18V24H108L334 654H352L578 24H669V0ZM390 222L298 475L207 222H390Z"  />
<glyph unicode="B" horiz-adv-x="616" d="M568 176Q568 94 507 47T338 0H25V24H114V621H25V645H330Q418 645 479 606Q545 563 545 493Q545 383 406 350Q470 336 514 295Q568 246 568 176ZM437 485V501Q437 621 330 621H223V360H330Q382 360 408 385Q437 415 437 485ZM457 164V187Q457 336 330 336H223V24H330Q399 24 429 60Q457 93 457 164Z"  />
<glyph unicode="C" horiz-adv-x="631" d="M598 4Q598 -7 587 -7Q581 -7 575 -1L523 51Q453 -18 351 -18Q231 -18 135 82Q35 185 35 323Q35 451 126 551Q221 656 356 656Q450 656 518 607L555 642Q565 651 572 651Q584 651 584 632V478Q584 462 575 462Q568 462 565 470L563 475Q537 546 486 586Q431 630 356 630Q171 630 171 374V268Q171 8 351 8Q490 8 574 188Q580 201 588 201Q598 201 598 187V4Z"  />
<glyph unicode="D" horiz-adv-x="682" d="M664 330Q664 180 575 90T337 0H28V24H119V621H28V645H337Q481 645 572 558T664 330ZM541 306V354Q541 496 479 563Q426 621 335 621H228V24H335Q541 24 541 306Z"  />
<glyph unicode="E" horiz-adv-x="591" d="M553 35Q553 0 519 0H31V24H118V621H29V645H494Q525 645 525 618V474Q525 457 513 457Q501 457 500 475Q497 528 472 569Q439 621 379 621H227V352H304Q342 352 358 377Q367 390 377 435Q381 452 389 452Q400 452 400 436V244Q400 227 389 227Q381 227 377 244Q373 267 357 306Q342 328 304 328H227V24H388Q452 24 484 67Q507 99 525 181Q530 204 541 204Q553 204 553 177V35Z"  />
<glyph unicode="F" horiz-adv-x="564" d="M529 474Q529 457 517 457Q505 457 504 475Q501 528 476 569Q443 621 383 621H231V352H308Q346 352 362 377Q371 390 381 435Q385 452 393 452Q404 452 404 436V244Q404 227 393 227Q385 227 381 244Q377 267 361 306Q346 328 308 328H231V24H320V0H36V24H122V621H34V645H499Q529 645 529 618V474Z"  />
<glyph unicode="G" horiz-adv-x="689" d="M686 217H597V189Q597 86 523 31Q458 -18 350 -18Q224 -18 129 82T33 319Q33 456 127 556T353 656Q451 656 517 604L558 642Q568 651 576 651Q589 651 589 636V457Q589 444 578 444Q568 444 564 456Q504 630 353 630Q268 630 220 571Q168 507 168 379V263Q168 138 216 73T352 8Q482 8 482 132V217H371V241H686V217Z"  />
<glyph unicode="H" horiz-adv-x="706" d="M688 0H402V24H491V330H227V24H316V0H29V24H118V621H29V645H316V621H227V355H491V621H402V645H688V621H600V24H688V0Z"  />
<glyph unicode="I" horiz-adv-x="366" d="M326 0H40V24H128V621H40V645H326V621H237V24H326V0Z"  />
<glyph unicode="J" horiz-adv-x="381" d="M371 621H294V56Q294 -97 126 -97Q74 -97 39 -66Q8 -39 8 -8Q8 46 59 46Q81 46 94 32T107 -1Q107 -47 64 -53Q85 -71 119 -71Q156 -71 170 -51T185 20V621H90V645H371V621Z"  />
<glyph unicode="K" horiz-adv-x="692" d="M685 0H385V24H470L219 353L510 621H428V645H640V621H550L313 403L601 24H685V0ZM304 0H31V24H113V621H31V645H304V621H222V24H304V0Z"  />
<glyph unicode="L" horiz-adv-x="617" d="M596 35Q596 0 561 0H26V24H115V621H26V645H322V621H224V24H431Q495 24 526 67Q549 98 567 181Q572 204 583 204Q596 204 596 177V35Z"  />
<glyph unicode="M" horiz-adv-x="821" d="M793 0H520V24H602V589L380 0H360L138 585V24H221V0H31V24H113V621H31V645H229L415 167L595 645H793V621H711V24H793V0Z"  />
<glyph unicode="N" horiz-adv-x="677" d="M660 621H571V-8H529L137 583V24H226V0H23V24H112V621H23V645H233L546 175V621H457V645H660V621Z"  />
<glyph unicode="O" horiz-adv-x="712" d="M684 320Q684 187 589 86Q492 -18 360 -18Q228 -18 132 86Q37 187 37 320Q37 453 132 554T360 656Q492 656 588 555T684 320ZM549 272V367Q549 512 500 574Q455 630 360 630Q266 630 221 572Q172 508 172 367V272Q172 8 360 8Q549 8 549 272Z"  />
<glyph unicode="P" horiz-adv-x="558" d="M534 469Q534 390 476 342T325 293H223V24H311V0H25V24H114V621H25V645H315Q415 645 474 597T534 469ZM433 452V486Q433 621 315 621H223V317H325Q433 317 433 452Z"  />
<glyph unicode="Q" horiz-adv-x="701" d="M684 319Q684 205 611 110T429 -12V-29Q429 -197 589 -197Q603 -197 603 -208Q603 -218 589 -218Q446 -218 385 -188Q304 -148 294 -33L292 -12Q183 14 110 109T37 319Q37 452 132 554T360 656Q492 656 588 554T684 319ZM549 271V366Q549 511 500 574Q455 630 360 630Q266 630 221 571Q172 508 172 366V271Q172 6 360 6Q549 6 549 271Z"  />
<glyph unicode="R" horiz-adv-x="647" d="M645 34Q645 29 641 25Q630 14 597 3Q561 -8 528 -8Q476 -8 452 20Q430 44 424 97Q422 130 417 196Q402 325 307 325H226V24H315V0H28V24H117V621H28V645H323Q417 645 478 603Q543 559 543 484Q543 365 393 332Q489 307 519 251Q539 213 542 109Q543 60 548 47Q556 26 585 26Q609 26 629 39Q633 41 638 41Q645 41 645 34ZM436 467V501Q436 621 323 621H226V349H323Q436 349 436 467Z"  />
<glyph unicode="S" horiz-adv-x="558" d="M524 205Q524 110 456 46T287 -18Q194 -18 118 44L84 -1Q75 -13 67 -13Q53 -13 53 4V174Q53 191 65 191Q77 191 81 176Q102 98 162 53Q219 8 293 8Q360 8 407 47Q458 88 458 152Q458 220 401 245Q357 264 311 277Q214 305 209 307Q68 351 68 467Q68 546 126 599Q187 656 286 656Q362 656 434 618L461 650Q470 660 476 660Q487 660 487 646V477Q487 463 475 463Q463 463 461 476Q452 542 411 583Q364 630 286 630Q226 630 185 602Q139 571 139 518Q139 454 201 432Q228 422 385 380Q524 342 524 205Z"  />
<glyph unicode="T" horiz-adv-x="638" d="M617 455H586Q574 533 540 577T460 621H376V24H465V0H179V24H267V621H183Q138 621 104 577T57 455H27L43 625Q45 645 68 645H576Q599 645 601 625L617 455Z"  />
<glyph unicode="U" horiz-adv-x="657" d="M643 621H555V162Q555 74 499 28T343 -18Q248 -18 185 20Q107 68 107 162V621H18V645H304V621H216V162Q216 88 256 48T367 8Q437 8 483 49T529 162V621H440V645H643V621Z"  />
<glyph unicode="V" horiz-adv-x="651" d="M649 621H574L353 -10H329L97 621H7V645H294V621H203L378 149L543 621H456V645H649V621Z"  />
<glyph unicode="W" horiz-adv-x="926" d="M915 621H843L602 -10H582L470 277L361 -10H341L101 621H23V645H680V621H616L532 402L630 141L814 621H728V645H915V621ZM588 621H448L518 439L588 621ZM456 315L341 621H208L390 143L456 315Z"  />
<glyph unicode="X" horiz-adv-x="706" d="M689 0H404V24H484L324 283L148 24H247V0H22V24H114L308 309L115 621H24V645H329V621H239L375 401L523 621H427V645H652V621H558L392 375L608 24H689V0Z"  />
<glyph unicode="Y" horiz-adv-x="682" d="M673 621H588L420 340V24H518V0H212V24H311V316L113 621H28V645H325V621H234L398 367L550 621H454V645H673V621Z"  />
<glyph unicode="Z" horiz-adv-x="524" d="M502 0H31V30L383 621H192Q64 621 59 472H36V645H495V617L139 24H328Q398 24 434 62Q472 104 477 199H502V0Z"  />
<glyph unicode="[" horiz-adv-x="240" d="M184 -111L81 -112V675H183V641H117L116 -77L184 -78V-111Z"  />
<glyph unicode="\" horiz-adv-x="255" d="M208 -10H153L67 519H123L208 -10Z"  />
<glyph unicode="]" horiz-adv-x="240" d="M161 -112L58 -111V-78L126 -77L125 641H59V675H161V-112Z"  />
<glyph unicode="^" horiz-adv-x="381" d="M325 325L303 314L195 521L87 314L64 325L178 606H211L325 325Z"  />
<glyph unicode="_" horiz-adv-x="300" d="M311 -31H-4V-11H311V-31Z"  />
<glyph unicode="`" horiz-adv-x="266" d="M233 457L219 450L44 604H147L233 457Z"  />
<glyph unicode="a" horiz-adv-x="456" d="M453 54Q453 34 430 14Q401 -13 353 -13Q288 -13 274 34Q231 -13 158 -13Q42 -13 42 75Q42 138 108 176Q171 211 268 212V319Q268 369 204 369Q182 369 163 364T143 352Q145 350 152 344Q166 331 166 314Q166 277 123 277Q104 277 93 288T81 316Q81 347 116 367Q156 390 228 390Q366 390 366 301V74Q366 43 370 33Q375 20 390 20Q417 20 434 53Q439 63 445 63Q453 63 453 54ZM268 68V194Q203 190 172 173Q132 151 132 99Q132 20 193 20Q213 20 240 37T268 68Z"  />
<glyph unicode="b" horiz-adv-x="534" d="M510 192Q510 116 451 52T315 -12Q250 -12 204 40V0H28V24H107V621H28V645H204V346Q246 393 312 393Q383 393 444 336Q510 275 510 192ZM394 171V214Q394 309 369 343Q351 369 308 369Q246 369 204 303V83Q246 12 312 12Q394 12 394 171Z"  />
<glyph unicode="c" horiz-adv-x="422" d="M411 105Q411 103 410 100L409 96Q396 56 360 26Q312 -13 242 -13Q159 -13 97 41Q29 99 29 187Q29 274 97 334Q162 390 247 390Q296 390 339 369Q388 344 388 308Q388 264 338 264Q289 264 289 306Q289 324 298 336T307 349Q307 354 293 359Q275 366 245 366Q193 366 170 333Q146 297 146 208V167Q146 77 165 45Q186 10 245 10Q298 10 338 40Q372 66 385 105Q389 117 399 117Q411 117 411 105Z"  />
<glyph unicode="d" horiz-adv-x="534" d="M513 0H337V41Q291 -13 227 -13Q159 -13 97 48Q32 112 32 191Q32 266 93 329T230 393Q298 393 337 350V621H259V645H435V24H513V0ZM337 82V301Q295 369 234 369Q187 369 168 336T148 215V168Q148 79 169 43Q188 11 231 11Q291 11 337 82Z"  />
<glyph unicode="e" horiz-adv-x="447" d="M414 117Q414 110 411 102Q391 52 348 21Q298 -13 230 -13Q144 -13 84 49Q28 108 28 185Q28 262 85 324Q144 390 226 390Q315 390 367 327Q406 281 409 233Q410 216 388 216H145V124Q145 10 232 10Q341 10 390 116Q396 128 404 128Q414 128 414 117ZM303 279Q303 366 227 366Q145 366 145 273V240H293Q303 240 303 279Z"  />
<glyph unicode="f" horiz-adv-x="352" d="M340 585Q340 547 303 547Q263 547 263 583Q263 607 286 617Q286 628 244 628Q195 628 195 561V380H278V356H195V24H272V0H20V24H97V356H21V380H97V416Q97 524 118 569Q157 652 242 652Q284 652 312 632T340 585Z"  />
<glyph unicode="g" horiz-adv-x="439" d="M433 371Q433 339 398 339Q360 339 360 370Q360 372 361 377Q347 369 331 352Q377 312 377 255Q377 208 340 169Q292 119 207 119Q172 119 148 126Q68 106 68 66Q68 30 129 30H295Q354 30 388 1Q424 -31 424 -90Q424 -166 366 -209T220 -253Q31 -253 31 -144Q31 -75 109 -43Q33 -24 33 49Q33 114 114 139Q37 180 37 255Q37 310 81 348Q128 390 207 390Q277 390 312 366Q351 405 390 405Q433 405 433 371ZM275 238V270Q275 325 258 347Q243 366 207 366Q171 366 156 347Q139 325 139 270V238Q139 188 153 167Q168 143 207 143Q246 143 261 167Q275 188 275 238ZM377 -129Q377 -96 351 -72T278 -47H147Q130 -47 111 -69Q89 -94 89 -126Q89 -229 224 -229Q284 -229 327 -205Q377 -178 377 -129Z"  />
<glyph unicode="h" horiz-adv-x="555" d="M539 0H298V24H369V291Q369 360 312 360Q265 360 229 322Q196 288 196 256V24H268V0H26V24H99V621H26V645H196V325Q244 393 344 393Q467 393 467 302V24H539V0Z"  />
<glyph unicode="i" horiz-adv-x="303" d="M216 550Q216 528 199 513T158 497Q134 497 117 512T100 550Q100 573 117 588T158 604Q182 604 199 589T216 550ZM285 0H33V24H110V356H33V380H207V24H285V0Z"  />
<glyph unicode="j" horiz-adv-x="282" d="M228 550Q228 527 211 512T170 496Q146 496 129 511T112 550Q112 573 129 588T170 604Q194 604 211 589T228 550ZM225 -28Q225 -133 184 -192T70 -252Q33 -252 6 -234T-21 -187Q-21 -167 -8 -153T28 -138Q50 -138 62 -152T75 -184Q75 -212 53 -226Q57 -228 69 -228Q92 -228 109 -212T127 -164V355H44V379H225V-28Z"  />
<glyph unicode="k" horiz-adv-x="556" d="M549 0H291V24H359L223 202H207V24H280V0H27V24H110V621H27V645H207V226H230L373 356H292V380H494V356H410L294 249L475 24H549V0Z"  />
<glyph unicode="l" horiz-adv-x="294" d="M273 0H32V24H104V621H32V645H201V24H273V0Z"  />
<glyph unicode="m" horiz-adv-x="785" d="M766 0H536V24H601V287Q601 353 553 353Q510 353 476 314Q446 280 446 248V24H513V0H282V24H349V287Q349 316 344 328Q334 353 300 353Q262 353 226 315Q194 281 194 256V24H260V0H29V24H96V353H29V377H194V316Q244 385 344 385Q432 385 445 314Q493 385 596 385Q699 385 699 297V24H766V0Z"  />
<glyph unicode="n" horiz-adv-x="547" d="M528 0H286V24H358V287Q358 353 305 353Q268 353 235 319T202 252V24H274V0H33V24H105V353H33V376H202V316Q250 384 343 384Q456 384 456 293V24H528V0Z"  />
<glyph unicode="o" horiz-adv-x="460" d="M441 188Q441 117 385 55Q323 -13 234 -13Q145 -13 82 55Q25 117 25 188Q25 259 82 321Q145 390 234 390Q323 390 385 321Q441 259 441 188ZM325 168V209Q325 295 309 327Q289 366 234 366Q179 366 158 327Q141 294 141 209V168Q141 80 158 47Q178 10 234 10Q290 10 309 47Q325 79 325 168Z"  />
<glyph unicode="p" horiz-adv-x="515" d="M494 187Q494 105 433 44T295 -17Q228 -17 187 29V-233H254V-257H22V-233H89V352H22V377H187V336Q233 390 297 390Q370 390 432 329T494 187ZM378 167V210Q378 304 352 341Q333 366 296 366Q258 366 223 337T187 275V91Q187 64 220 37T293 9Q337 9 355 36Q378 70 378 167Z"  />
<glyph unicode="q" horiz-adv-x="524" d="M507 -257H276V-233H343V30Q300 -17 233 -17Q158 -17 96 45T34 187Q34 265 95 326T231 387Q299 387 343 335V376H507V352H440V-233H507V-257ZM343 106V266Q343 303 307 334T232 366Q150 366 150 245V141Q150 61 173 32Q192 8 235 8Q283 8 313 37T343 106Z"  />
<glyph unicode="r" horiz-adv-x="412" d="M402 313Q402 289 386 275T346 261Q321 261 305 274T289 310Q289 340 314 354Q317 355 317 357Q317 361 293 361Q257 361 223 333T188 276V24H260V0H18V24H90V353H18V377H188V332Q231 385 304 385Q344 385 370 369Q402 350 402 313Z"  />
<glyph unicode="s" horiz-adv-x="367" d="M343 119Q343 62 306 25Q266 -13 199 -13Q125 -13 83 24L64 -1Q59 -8 54 -8Q43 -8 43 4V105Q43 117 54 117Q63 117 66 105Q93 10 196 10Q234 10 264 27Q299 47 299 81Q299 122 238 144Q227 147 142 165Q50 184 50 266Q50 317 86 352Q126 390 191 390Q237 390 269 365L289 384L292 386Q296 390 300 390Q307 390 307 379V278Q307 268 299 268Q290 268 288 277Q282 312 258 337Q229 366 185 366Q148 366 124 348T99 306Q99 277 134 267Q178 257 246 239Q343 210 343 119Z"  />
<glyph unicode="t" horiz-adv-x="348" d="M338 83Q338 79 337 73Q321 -13 214 -13Q154 -13 122 18T89 104V355H19V379H89V485L187 530V379H287V355H187V102Q187 16 249 16Q303 16 314 81Q316 95 328 95Q338 95 338 83Z"  />
<glyph unicode="u" horiz-adv-x="556" d="M529 0H359V60Q306 -11 204 -11Q95 -11 95 95V353H23V376H193V89Q193 55 201 42Q212 25 245 25Q287 25 323 59T359 123V353H287V376H457V24H529V0Z"  />
<glyph unicode="v" horiz-adv-x="505" d="M488 353H425L269 -4H255L90 353H21V376H264V353H194L297 123L397 353H326V376H488V353Z"  />
<glyph unicode="w" horiz-adv-x="668" d="M654 353H582L457 -11H443L338 230L251 -11H236L92 353H23V376H257V353H191L278 135L363 376H377L482 134L556 353H472V376H654V353Z"  />
<glyph unicode="x" horiz-adv-x="518" d="M505 0H263V24H336L239 152L134 24H205V0H31V24H102L223 173L86 353H26V376H253V353H190L279 236L374 353H313V376H476V353H408L295 215L441 24H505V0Z"  />
<glyph unicode="y" horiz-adv-x="521" d="M511 352H442L231 -154Q191 -251 111 -251Q54 -251 54 -206Q54 -167 95 -167Q125 -167 139 -194Q145 -205 151 -205Q183 -205 207 -146L266 -3L96 352H26V376H277V352H201L313 110L414 352H340V376H511V352Z"  />
<glyph unicode="z" horiz-adv-x="414" d="M388 0H49V26L275 353H179Q100 353 89 255H68V376H377V348L155 24H267Q359 24 367 132H388V0Z"  />
<glyph unicode="{" horiz-adv-x="259" d="M207 -95H198Q136 -95 111 -69T85 18V200Q85 250 41 288Q41 292 49 296Q85 334 85 376V555Q85 620 112 647T206 675Q207 673 207 666Q207 650 206 642Q155 642 138 624T121 555V376Q121 338 99 308Q93 300 82 289L81 288Q81 293 101 261T121 200V18Q121 -31 138 -48T206 -65Q207 -68 207 -80V-95Z"  />
<glyph unicode="|" horiz-adv-x="194" d="M120 -110H86V675H120V-110Z"  />
<glyph unicode="}" horiz-adv-x="259" d="M216 288Q172 250 172 200V18Q172 -43 147 -69T59 -95H50V-80Q50 -70 51 -65Q101 -65 118 -48T136 18V200Q136 229 156 261T176 288L175 289Q164 300 158 308Q136 338 136 376V555Q136 605 119 623T51 642Q50 650 50 666Q50 672 51 675Q117 675 144 648T172 555V376Q172 334 208 296Q216 292 216 288Z"  />
<glyph unicode="&#xA0;" horiz-adv-x="250" />
<glyph unicode="&#xA1;" horiz-adv-x="277" d="M206 453Q206 430 189 414T146 398Q121 398 104 414T86 453Q86 476 103 492T146 509Q171 509 188 493T206 453ZM208 -48Q208 -138 145 -138Q80 -138 80 -48Q80 -11 91 41Q101 84 111 128Q122 185 134 347H155Q159 296 162 244Q168 176 177 128Q183 105 195 50T208 -48Z"  />
<glyph unicode="&#xA2;" horiz-adv-x="354" d="M331 213Q331 210 330 206Q307 125 211 118L210 70H185V119Q123 124 79 167T35 271Q35 333 75 373T185 424V461H210L211 424Q250 423 281 405T312 361Q312 324 274 324Q258 324 248 334T237 359Q237 373 242 379T248 389Q248 403 211 405V140Q248 142 275 163T309 215Q311 224 320 224Q331 224 331 213ZM185 140V404Q150 397 138 374T125 291V250Q125 200 132 180Q145 145 185 140Z"  />
<glyph unicode="&#xA3;" horiz-adv-x="559" d="M535 187Q535 126 484 60Q429 -11 363 -11Q273 -11 217 48Q184 -5 107 -5Q63 -5 39 20T14 80Q14 129 59 160Q98 186 144 186Q162 186 182 182L131 324H35V350H120Q86 448 86 491Q86 581 169 624Q235 658 340 658Q402 658 448 628Q498 595 498 546Q498 465 426 465Q399 465 381 479T362 517Q362 573 430 573Q445 573 445 580Q445 598 412 616T340 634Q285 634 259 608Q228 578 228 506V350H309V324H228V170Q344 103 405 103Q443 103 468 127Q489 147 511 193Q515 201 523 201Q535 201 535 187ZM194 68Q138 132 89 132Q73 132 59 120Q42 105 42 80Q42 57 59 39T107 21Q171 21 194 68Z"  />
<glyph unicode="&#xA5;" horiz-adv-x="674" d="M665 621H579L411 340V324H511V300H411V261H511V237H411V24H510V0H204V24H302V237H201V261H302V300H201V324H297L105 621H20V645H317V621H226L390 367L542 621H446V645H665V621Z"  />
<glyph unicode="&#xA6;" horiz-adv-x="118" d="M80 357H43V647H80V357ZM80 0H43V265H80V0Z"  />
<glyph unicode="&#xA7;" horiz-adv-x="387" d="M367 335Q367 246 292 214Q364 181 364 93Q364 20 317 -24T190 -69Q130 -69 89 -37T48 37Q48 85 91 85Q130 85 130 46Q130 9 88 9Q83 9 83 8Q83 -3 112 -22Q148 -45 190 -45Q245 -45 277 -20T309 43Q309 95 238 119Q173 140 108 161Q37 197 37 279Q37 372 119 401Q36 429 36 518Q36 579 79 621Q124 667 195 667Q271 667 312 637Q345 614 345 581Q345 542 307 542Q264 542 264 577Q264 610 297 616Q260 643 195 643Q153 643 121 622T89 569Q89 513 190 499Q367 474 367 335ZM329 300Q329 332 268 359Q220 381 163 390Q90 375 90 323Q90 289 124 268Q163 243 259 225Q329 250 329 300Z"  />
<glyph unicode="&#xA8;" horiz-adv-x="432" d="M353 554Q353 535 338 522T300 509Q278 509 263 522T247 554Q247 573 262 586T300 599Q322 599 337 586T353 554ZM196 554Q196 535 181 522T143 509Q121 509 106 522T90 554Q90 573 105 586T143 599Q165 599 180 586T196 554Z"  />
<glyph unicode="&#xA9;" horiz-adv-x="637" d="M616 357Q616 247 532 169T327 91Q207 91 122 169T37 357Q37 467 122 545T327 623Q447 623 531 545T616 357ZM586 358Q586 456 511 525T328 594Q221 594 145 525T69 358Q69 260 145 191T328 122Q435 122 510 191T586 358ZM428 241Q428 234 420 234Q417 234 414 237L393 257Q363 230 324 230Q274 230 233 272T192 370Q192 423 231 466T327 510Q362 510 392 489L405 503Q408 507 415 507H417Q423 506 423 498V434Q423 424 415 424Q411 424 407 431Q386 491 327 491Q254 491 254 391V349Q254 248 324 248Q377 248 411 317Q413 325 421 325Q428 325 428 317V241Z"  />
<glyph unicode="&#xAA;" horiz-adv-x="354" d="M323 398Q323 385 309 373Q291 356 262 356Q223 356 213 383Q186 356 144 356Q73 356 73 411Q73 449 112 471T209 494V555Q209 582 172 582Q141 582 137 577L139 575Q140 575 142 573Q151 563 151 553Q151 529 123 529Q96 529 96 555Q96 573 119 586T186 600Q271 600 271 545V410Q271 380 283 380Q295 380 304 392T316 405Q323 405 323 398ZM323 284H44V322H323V284ZM209 408V480Q130 474 130 425Q130 380 165 380Q177 380 193 390T209 408Z"  />
<glyph unicode="&#xAB;" horiz-adv-x="438" d="M382 108H354L174 258L354 408H382L254 258L382 108ZM232 108H203L24 258L203 408H232L104 258L232 108Z"  />
<glyph unicode="&#xAC;" horiz-adv-x="564" d="M545 230H506V389H18V429H545V230Z"  />
<glyph unicode="&#xAE;" horiz-adv-x="448" d="M413 475Q413 402 357 351T219 299Q138 299 82 350T25 475Q25 549 82 600T219 652Q299 652 356 601T413 475ZM383 475Q383 536 335 579T220 622Q152 622 105 579T57 475Q57 414 104 371T220 328Q287 328 335 371T383 475ZM331 388Q331 380 329 378Q318 368 290 368Q271 368 265 376Q256 385 254 404Q253 419 252 434Q248 473 218 473H197V388H225V370H127V388H156V562H127V580H225Q257 580 277 566T298 526Q298 491 258 478Q283 470 291 450Q297 437 298 407Q299 384 309 384Q316 384 322 388H331ZM258 520V531Q258 562 225 562H197V491H225Q258 491 258 520Z"  />
<glyph unicode="&#xAF;" horiz-adv-x="454" d="M360 516H107V543H360V516Z"  />
<glyph unicode="&#xB0;" horiz-adv-x="231" d="M202 582Q202 552 178 531T121 510Q88 510 64 531T39 582Q39 612 63 633T121 654Q154 654 178 633T202 582ZM177 582Q177 603 161 617T121 631Q97 631 81 617T64 582Q64 562 80 548T121 533Q145 533 161 547T177 582Z"  />
<glyph unicode="&#xB1;" horiz-adv-x="410" d="M374 344H235V217H171V344H32V403H171V530H235V403H374V344ZM358 126H48V185H358V126Z"  />
<glyph unicode="&#xB2;" horiz-adv-x="306" d="M263 217Q263 205 251 205H62Q55 205 55 214Q55 251 95 300Q115 324 154 359Q188 389 196 399Q219 426 219 451Q219 477 200 493T154 510Q113 510 91 469Q89 463 83 450Q80 444 75 444Q71 444 48 454Q45 456 45 460Q45 463 46 466Q81 550 160 550Q201 550 231 523T261 454Q261 408 214 362Q175 324 136 286Q110 255 110 246Q110 245 111 244H251Q263 244 263 217Z"  />
<glyph unicode="&#xB3;" horiz-adv-x="306" d="M273 335Q273 287 244 253Q207 208 151 208Q108 208 57 245Q44 255 42 259T39 268Q39 273 42 275Q61 287 64 287Q71 287 78 278Q89 265 112 256T154 246Q186 246 209 272T233 331Q233 337 232 343Q230 369 211 386T165 403Q154 403 144 389T126 375Q126 375 106 387Q102 390 102 395Q102 397 103 400L183 514H69Q57 514 57 541Q57 553 69 553H235Q245 553 245 544Q245 542 227 515L195 467Q189 459 180 443Q179 442 179 440Q179 438 181 436Q194 435 211 428Q269 404 273 346Q273 346 273 335Z"  />
<glyph unicode="&#xB4;" horiz-adv-x="404" d="M371 622L196 468L183 477L268 622H371Z"  />
<glyph unicode="&#xB6;" horiz-adv-x="664" d="M625 621H536V-104H471V621H392V-104H328V291H263Q163 291 101 334Q34 381 34 468Q34 555 101 602Q163 645 263 645H625V621Z"  />
<glyph unicode="&#xB8;" horiz-adv-x="359" d="M266 -101Q266 -125 246 -140T194 -156Q151 -156 123 -117Q118 -110 118 -104Q118 -96 126 -96Q131 -96 146 -108T179 -121Q215 -121 215 -93Q215 -69 180 -56L194 0H228L217 -45Q266 -61 266 -101Z"  />
<glyph unicode="&#xB9;" horiz-adv-x="306" d="M202 218Q202 206 190 206H175Q163 206 163 218V493L125 456Q121 452 116 452Q112 452 108 456Q94 470 94 475Q94 480 97 483L166 546Q173 552 185 552Q202 552 202 538V218Z"  />
<glyph unicode="&#xBA;" horiz-adv-x="327" d="M293 477Q293 434 259 396Q221 354 167 354Q113 354 75 396Q40 434 40 477Q40 520 75 557Q113 598 167 598Q221 598 259 557Q293 520 293 477ZM304 284H26V322H304V284ZM219 464V488Q219 533 214 549Q203 580 167 580Q131 580 120 549Q113 532 113 488V464Q113 419 119 402Q130 372 167 372Q203 372 214 403Q219 419 219 464Z"  />
<glyph unicode="&#xBB;" horiz-adv-x="426" d="M422 258L243 108H214L343 258L214 408H243L422 258ZM266 258L87 108H58L187 258L58 408H87L266 258Z"  />
<glyph unicode="&#xBC;" horiz-adv-x="642" d="M563 111Q563 99 544 99Q522 99 520 97T518 89V12Q518 0 491 0Q479 0 479 12Q479 94 478 96T469 99H325Q314 99 314 113V129Q314 133 328 147T344 166T377 247Q397 296 422 320T494 345Q518 345 518 330V148Q518 138 529 138H551Q563 138 563 111ZM479 148V298Q479 303 475 303H472Q434 303 417 255Q392 183 374 149Q370 141 370 142Q370 138 377 138H469Q479 138 479 148ZM187 218Q187 206 175 206H160Q148 206 148 218V493L110 456Q106 452 101 452Q97 452 93 456Q79 470 79 475Q79 480 82 483L151 546Q158 552 170 552Q187 552 187 538V218ZM437 604Q437 596 433 585L202 -49Q195 -66 180 -66Q139 -66 139 -39Q139 -31 142 -25L371 607Q380 633 398 633Q402 633 408 631Q426 624 428 623Q437 617 437 604Z"  />
<glyph unicode="&#xBD;" horiz-adv-x="642" d="M180 218Q180 206 168 206H153Q141 206 141 218V493L102 456Q98 452 94 452Q89 452 85 456Q71 470 71 475Q71 480 75 483L144 546Q151 552 163 552Q180 552 180 538V218ZM571 12Q571 0 559 0H370Q363 0 363 9Q363 46 403 94Q424 119 462 154Q496 183 505 194Q527 220 527 245Q527 272 508 288T462 305Q421 305 399 264Q397 257 391 244Q388 238 383 238Q380 238 356 249Q353 250 353 255Q353 258 354 261Q390 345 468 345Q509 345 539 318T569 249Q569 203 522 156Q483 119 444 81Q419 50 419 40Q419 40 419 39H559Q571 39 571 12ZM432 604Q432 596 428 585L197 -49Q191 -66 175 -66Q134 -66 134 -39Q134 -31 137 -25L366 607Q375 633 393 633Q397 633 403 631Q421 624 423 623Q432 617 432 604Z"  />
<glyph unicode="&#xBE;" horiz-adv-x="642" d="M269 335Q269 287 241 253Q203 208 148 208Q105 208 53 245Q40 255 38 259T35 268Q35 273 38 275Q57 287 61 287Q67 287 74 278Q85 265 108 256T150 246Q183 246 206 272T229 331Q229 337 229 343Q226 369 207 386T161 403Q150 403 140 389T122 375Q123 375 103 387Q98 390 98 395Q98 397 100 400L179 514H65Q53 514 53 541Q53 553 65 553H232Q241 553 241 544Q241 542 223 515L191 467Q185 459 176 443Q175 442 175 440Q175 438 177 436Q190 435 207 428Q266 404 269 346Q269 346 269 335ZM607 111Q607 99 586 99T564 97T562 89V12Q562 0 535 0Q523 0 523 12Q523 94 521 96T512 99H368Q358 99 358 113V129Q358 133 372 147T388 166T420 247Q440 296 465 320T538 345Q562 345 562 330V148Q562 138 572 138H595Q607 138 607 111ZM523 148V298Q523 303 518 303H515Q477 303 460 255Q435 183 417 149Q413 141 413 142Q413 138 421 138H512Q523 138 523 148ZM480 604Q480 596 476 585L245 -49Q238 -66 223 -66Q182 -66 182 -39Q182 -31 185 -25L414 607Q423 633 441 633Q445 633 451 631Q469 624 471 623Q480 617 480 604Z"  />
<glyph unicode="&#xBF;" horiz-adv-x="415" d="M292 448Q292 425 275 409T232 393Q207 393 190 409T172 448Q172 471 189 487T232 504Q257 504 274 488T292 448ZM369 -38Q369 -77 325 -105Q277 -134 202 -134Q125 -134 82 -99T38 2Q38 47 64 85Q81 110 124 148L170 189Q221 235 221 256Q221 282 220 290Q218 306 218 310Q218 321 231 321Q241 321 243 311Q256 249 256 212Q256 174 246 152Q230 117 196 85Q143 34 138 28Q101 -15 101 -46Q101 -72 124 -90Q151 -110 200 -110Q247 -110 275 -98Q295 -90 295 -85Q295 -85 294 -87Q247 -78 247 -37Q247 -14 264 1T309 16Q335 16 352 1T369 -38Z"  />
<glyph unicode="&#xD7;" horiz-adv-x="581" d="M549 57L493 6L290 192L89 6L33 57L234 243L33 427L89 479L290 293L493 479L549 427L347 243L549 57Z"  />
<glyph unicode="&#xF7;" horiz-adv-x="382" d="M255 385Q255 362 238 346T195 330Q170 330 153 346T135 385Q135 408 152 424T195 440Q220 440 237 424T255 385ZM336 225H53V283H336V225ZM255 116Q255 93 238 77T195 61Q170 61 153 77T135 116Q135 139 152 155T195 171Q220 171 237 155T255 116Z"  />
<glyph unicode="&#x192;" horiz-adv-x="500" d="M488 623Q488 585 455 585Q424 585 424 612Q424 619 429 629T435 642Q435 655 417 655Q379 655 367 602Q351 530 335 427H422L414 395H329Q303 260 245 49Q200 -116 145 -170Q104 -210 61 -210Q36 -210 19 -197T1 -159Q1 -116 39 -116Q50 -116 60 -124T70 -143Q70 -148 61 -164Q59 -168 59 -171Q59 -181 71 -181Q96 -181 118 -145Q131 -124 147 -59Q151 -43 189 144Q192 161 249 395H163L170 427Q206 430 214 431Q240 436 251 450Q264 468 281 516Q306 590 327 621Q365 677 421 677Q448 677 468 663T488 623Z"  />
<glyph unicode="&#x3BC;" horiz-adv-x="576" d="M534 100Q526 -14 438 -14Q368 -14 360 79Q281 -14 207 -14Q182 -14 162 -3Q148 5 131 28Q131 28 131 5Q131 -36 147 -111Q154 -144 154 -162Q154 -184 142 -200T108 -216Q65 -216 65 -163Q65 -144 82 -74Q88 -47 90 -31Q96 23 96 56V447H176V187Q176 117 185 90Q200 46 245 46Q302 46 360 112V447H441V128Q441 79 445 64Q452 39 474 39Q505 39 514 100H534Z"  />
<glyph unicode="&#x5B0;" horiz-adv-x="0" d="M257 -137Q257 -169 225 -169Q193 -169 193 -137Q193 -105 225 -105Q257 -105 257 -137ZM257 -243Q257 -275 225 -275Q193 -275 193 -243Q193 -211 225 -211Q257 -211 257 -243Z"  />
<glyph unicode="&#x5B1;" horiz-adv-x="0" d="M378 -137Q378 -169 346 -169Q314 -169 314 -137Q314 -105 346 -105Q378 -105 378 -137ZM378 -243Q378 -275 346 -275Q314 -275 314 -243Q314 -211 346 -211Q378 -211 378 -243ZM268 -137Q268 -169 236 -169Q204 -169 204 -137Q204 -105 236 -105Q268 -105 268 -137ZM142 -137Q142 -169 110 -169Q78 -169 78 -137Q78 -105 110 -105Q142 -105 142 -137ZM206 -245Q206 -277 174 -277Q142 -277 142 -245Q142 -213 174 -213Q206 -213 206 -245Z"  />
<glyph unicode="&#x5B2;" horiz-adv-x="0" d="M415 -137Q415 -169 383 -169Q351 -169 351 -137Q351 -105 383 -105Q415 -105 415 -137ZM415 -243Q415 -275 383 -275Q351 -275 351 -243Q351 -211 383 -211Q415 -211 415 -243ZM297 -163H58V-105H297V-163Z"  />
<glyph unicode="&#x5B3;" horiz-adv-x="0" d="M414 -137Q414 -169 382 -169Q350 -169 350 -137Q350 -105 382 -105Q414 -105 414 -137ZM414 -243Q414 -275 382 -275Q350 -275 350 -243Q350 -211 382 -211Q414 -211 414 -243ZM297 -163H206V-277H148V-163H58V-105H297V-163Z"  />
<glyph unicode="&#x5B4;" horiz-adv-x="0" d="M257 -137Q257 -169 225 -169Q193 -169 193 -137Q193 -105 225 -105Q257 -105 257 -137Z"  />
<glyph unicode="&#x5B5;" horiz-adv-x="0" d="M324 -137Q324 -169 292 -169Q260 -169 260 -137Q260 -105 292 -105Q324 -105 324 -137ZM198 -137Q198 -169 166 -169Q134 -169 134 -137Q134 -105 166 -105Q198 -105 198 -137Z"  />
<glyph unicode="&#x5B6;" horiz-adv-x="0" d="M320 -137Q320 -169 288 -169Q256 -169 256 -137Q256 -105 288 -105Q320 -105 320 -137ZM194 -137Q194 -169 162 -169Q130 -169 130 -137Q130 -105 162 -105Q194 -105 194 -137ZM258 -245Q258 -277 226 -277Q194 -277 194 -245Q194 -213 226 -213Q258 -213 258 -245Z"  />
<glyph unicode="&#x5B7;" horiz-adv-x="0" d="M335 -163H120V-105H335V-163Z"  />
<glyph unicode="&#x5B8;" horiz-adv-x="0" d="M336 -163H255V-277H197V-163H117V-105H336V-163Z"  />
<glyph unicode="&#x5B9;" horiz-adv-x="0" d="M30 659Q30 628 -1 628Q-32 628 -32 658Q-32 689 -1 689Q30 689 30 659Z"  />
<glyph unicode="&#x5BB;" horiz-adv-x="0" d="M255 -136Q255 -168 224 -168Q192 -168 192 -137Q192 -105 223 -105Q255 -105 255 -136ZM315 -218Q315 -250 284 -250Q270 -250 260 -241T250 -218Q250 -185 282 -185Q296 -185 305 -195T315 -218ZM376 -294Q376 -326 345 -326Q313 -326 313 -295Q313 -263 344 -263Q376 -263 376 -294Z"  />
<glyph unicode="&#x5BC;" horiz-adv-x="0" d="M204 296Q204 264 172 264Q140 264 140 296Q140 328 172 328Q204 328 204 296Z"  />
<glyph unicode="&#x5BD;" horiz-adv-x="0" d="M28 -229H0V-102H28V-229Z"  />
<glyph unicode="&#x5BE;" horiz-adv-x="348" d="M297 530Q297 510 277 510H72Q52 510 52 530V555Q52 575 72 575H277Q284 575 290 569T297 555V530Z"  />
<glyph unicode="&#x5BF;" horiz-adv-x="0" d="M359 696Q359 676 339 676H134Q114 676 114 696V721Q114 741 134 741H339Q346 741 352 735T359 721V696Z"  />
<glyph unicode="&#x5C0;" horiz-adv-x="168" d="M108 -130H60V617H108V-130Z"  />
<glyph unicode="&#x5C1;" horiz-adv-x="0" d="M637 659Q637 628 606 628Q575 628 575 658Q575 689 606 689Q637 689 637 659Z"  />
<glyph unicode="&#x5C2;" horiz-adv-x="0" d="M153 659Q153 628 122 628Q91 628 91 658Q91 689 122 689Q153 689 153 659Z"  />
<glyph unicode="&#x5C3;" horiz-adv-x="275" d="M140 376Q140 359 127 348T97 336Q80 336 68 347T55 376V411Q55 428 67 439T97 451Q114 451 127 440T140 411V376ZM140 40Q140 23 127 12T97 0Q80 0 68 11T55 40V75Q55 92 67 103T97 115Q114 115 127 104T140 75V40Z"  />
<glyph unicode="&#x5D0;" horiz-adv-x="546" d="M510 10Q510 0 502 0H455Q442 0 432 15L215 333H214Q202 333 179 321T147 300Q117 267 117 225V75Q117 65 127 65H207Q222 65 226 48Q227 43 227 20Q227 0 207 0H87Q52 0 52 38V245Q52 285 82 325Q100 348 145 369Q159 375 177 384Q62 549 62 558Q62 573 82 576Q77 575 111 575Q125 575 137 558L317 300H318Q325 300 352 315Q389 335 403 348Q427 370 427 400V495Q427 510 412 510H362Q346 510 343 527Q342 530 342 555Q342 575 362 575H452Q492 575 492 535V425Q492 353 456 310Q424 272 352 245L507 20Q510 16 510 10Z"  />
<glyph unicode="&#x5D1;" horiz-adv-x="524" d="M501 20Q501 0 481 0H56Q40 0 37 17Q36 20 36 45Q36 65 56 65H361Q371 65 371 75V435Q371 468 336 493Q313 510 261 510H106Q90 510 87 527Q86 530 86 555Q86 575 106 575H291Q350 575 393 532T436 430V75Q436 64 454 64Q457 64 464 65Q471 65 474 65Q501 65 501 45V20Z"  />
<glyph unicode="&#x5D2;" horiz-adv-x="384" d="M333 19Q333 4 317 0Q312 -1 288 -1Q268 -1 268 19V166Q268 174 262 174Q259 174 257 170Q251 161 239 143Q204 91 173 65Q117 17 73 4Q56 -1 56 -1Q43 -1 43 15V50Q43 62 53 66T75 75Q153 113 201 173Q217 192 240 230Q268 276 268 290V494Q268 510 249 510H143Q127 510 124 527Q123 530 123 555Q123 575 143 575H283Q333 575 333 525V19Z"  />
<glyph unicode="&#x5D3;" horiz-adv-x="478" d="M453 530Q453 510 433 510H353Q343 510 343 500V19Q343 4 326 0Q321 -1 298 -1Q278 -1 278 19V500Q278 510 268 510H58Q42 510 39 527Q38 530 38 555Q38 575 58 575H433Q448 575 452 558Q453 553 453 530Z"  />
<glyph unicode="&#x5D4;" horiz-adv-x="547" d="M492 20Q492 4 476 1Q472 0 447 0Q427 0 427 20V475Q427 489 417 499T392 510H77Q61 510 58 527Q57 530 57 555Q57 575 77 575H417Q446 575 469 552T492 500V20ZM147 19Q147 -1 127 -1H102Q82 -1 82 19V356Q82 376 102 376H127Q147 376 147 356V19Z"  />
<glyph unicode="&#x5D5;" horiz-adv-x="297" d="M244 19Q244 -1 224 -1H199Q179 -1 179 19V500Q179 510 169 510H59Q43 510 40 527Q39 530 39 555Q39 575 59 575H199Q216 575 230 561T244 530V19Z"  />
<glyph unicode="&#x5D6;" horiz-adv-x="304" d="M283 530Q283 509 251 509Q244 509 232 510T213 511Q193 511 193 500V20Q193 0 173 0H148Q128 0 128 20V500Q128 510 118 510H58Q42 510 39 527Q38 530 38 555Q38 575 58 575H263Q278 575 282 558Q283 553 283 530Z"  />
<glyph unicode="&#x5D7;" horiz-adv-x="549" d="M513 530Q513 510 483 510Q478 510 470 510T457 510Q438 510 438 500V20Q438 4 422 1Q418 0 393 0Q373 0 373 20V500Q373 510 363 510H193Q183 510 183 500V20Q183 4 167 1Q163 0 138 0Q118 0 118 20V500Q118 510 108 510H63Q47 510 44 527Q43 530 43 555Q43 575 63 575H493Q508 575 512 558Q513 553 513 530Z"  />
<glyph unicode="&#x5D8;" horiz-adv-x="529" d="M497 104Q497 44 429 16Q380 -3 309 -3Q238 -3 190 16Q122 44 122 104V497Q122 511 100 511Q95 511 85 510Q76 510 71 510Q42 510 42 530V555Q42 575 62 575H152Q166 575 176 562T187 535V115Q187 79 234 68Q256 62 309 62Q362 62 385 68Q432 79 432 115V475Q432 497 410 509Q392 519 369 519Q345 519 328 509Q307 497 307 475V400Q307 380 287 380H262Q242 380 242 400V500Q242 543 286 565Q321 582 369 582Q416 582 452 565Q497 542 497 500V104Z"  />
<glyph unicode="&#x5D9;" horiz-adv-x="297" d="M253 335Q253 315 233 315H208Q188 315 188 335V500Q188 510 178 510H58Q42 510 39 527Q38 530 38 555Q38 575 58 575H208Q225 575 239 561T253 530V335Z"  />
<glyph unicode="&#x5DA;" horiz-adv-x="471" d="M455 530Q455 509 424 509Q418 509 407 510T390 511Q370 511 370 500V-55Q370 -65 380 -65H433Q448 -65 452 -82Q453 -87 453 -110Q453 -130 433 -130H335Q305 -130 305 -100V500Q305 510 295 510H55Q39 510 36 527Q35 530 35 555Q35 575 55 575H435Q450 575 454 558Q455 553 455 530Z"  />
<glyph unicode="&#x5DB;" horiz-adv-x="487" d="M458 265Q458 170 423 100Q400 55 356 28T261 0H58Q42 0 39 17Q38 20 38 45Q38 65 58 65H233Q297 65 338 100T389 197Q393 222 393 310Q393 368 385 400Q373 445 338 475Q298 510 233 510H58Q42 510 39 527Q38 530 38 555Q38 575 58 575H261Q312 575 356 548T423 475Q458 405 458 310V265Z"  />
<glyph unicode="&#x5DC;" horiz-adv-x="490" d="M455 340Q455 310 435 290L260 115Q241 96 241 82Q241 65 260 65H325Q340 65 344 48Q345 43 345 20Q345 0 325 0H213Q182 0 176 27Q175 32 175 80Q175 120 201 146L370 315Q390 335 390 357V490Q390 510 375 510H85Q40 510 40 550V660Q40 675 57 679Q62 680 85 680Q105 680 105 660V585Q105 575 115 575H395Q419 575 437 555T455 510V340Z"  />
<glyph unicode="&#x5DD;" horiz-adv-x="550" d="M509 65Q509 41 489 21T444 0H204Q176 0 158 18T139 65V490Q139 510 119 510H69Q53 510 50 527Q49 530 49 555Q49 575 69 575H434Q463 575 486 552T509 500V65ZM444 85V475Q444 489 434 499T410 510H224Q204 510 204 490V85Q204 65 224 65H424Q444 65 444 85Z"  />
<glyph unicode="&#x5DE;" horiz-adv-x="502" d="M474 45Q474 28 460 14T429 0H289Q273 0 270 17Q269 20 269 45Q269 65 289 65H399Q409 65 409 75V428Q409 519 334 519Q295 519 257 496Q227 478 202 444Q174 406 174 375V20Q174 4 158 1Q154 0 129 0Q109 0 109 20V495Q109 510 94 510H49Q33 510 30 527Q29 530 29 555Q29 575 49 575H144Q156 575 165 566T174 545V480Q182 491 192 503Q254 583 338 583Q406 583 442 537Q474 495 474 425V45Z"  />
<glyph unicode="&#x5DF;" horiz-adv-x="266" d="M262 -110Q262 -130 242 -130H144Q114 -130 114 -100V490Q114 510 94 510H34Q18 510 15 527Q14 530 14 555Q14 575 34 575H114Q142 575 160 557T179 510V-55Q179 -66 199 -66Q203 -66 214 -65T232 -64Q262 -64 262 -85V-110Z"  />
<glyph unicode="&#x5E0;" horiz-adv-x="315" d="M261 45Q261 28 247 14T216 0H76Q60 0 57 17Q56 20 56 45Q56 65 76 65H186Q196 65 196 75V500Q196 510 186 510H106Q90 510 87 527Q86 530 86 555Q86 575 106 575H216Q233 575 247 561T261 530V45Z"  />
<glyph unicode="&#x5E1;" horiz-adv-x="497" d="M456 150Q456 82 399 37Q346 -5 276 -5Q206 -5 153 37Q96 82 96 150V490Q96 510 61 510Q45 510 42 527Q41 530 41 555Q41 575 61 575H381Q410 575 433 552T456 500V150ZM391 150V475Q391 489 381 499T356 510H181Q161 510 161 490V150Q161 108 199 83Q232 61 276 61Q320 61 353 83Q391 108 391 150Z"  />
<glyph unicode="&#x5E2;" horiz-adv-x="530" d="M488 220Q488 134 420 67T260 0H63Q47 0 44 17Q43 20 43 45Q43 65 63 65H138Q148 65 148 75V500Q148 510 138 510H63Q47 510 44 527Q43 530 43 555Q43 575 63 575H168Q185 575 199 561T213 530V75Q213 65 260 65Q322 65 374 120Q423 172 423 250V500Q423 510 413 510H338Q322 510 319 527Q318 530 318 555Q318 575 338 575H443Q460 575 474 561T488 530V220Z"  />
<glyph unicode="&#x5E3;" horiz-adv-x="482" d="M480 -110Q480 -130 460 -130H362Q332 -130 332 -100V475Q332 489 322 499T297 510H107Q93 510 83 500T72 475V325Q72 311 82 301T107 290H217Q232 290 236 273Q237 268 237 245Q237 225 217 225H82Q53 225 30 248T7 300V500Q7 529 30 552T82 575H322Q351 575 374 552T397 500V-55Q397 -65 407 -65H460Q475 -65 479 -82Q480 -87 480 -110Z"  />
<glyph unicode="&#x5E4;" horiz-adv-x="503" d="M445 75Q445 46 422 23T370 0H75Q59 0 56 17Q55 20 55 45Q55 65 75 65H345Q359 65 369 75T380 100V475Q380 489 370 499T345 510H155Q141 510 131 500T120 475V325Q120 311 130 301T155 290H265Q280 290 284 273Q285 268 285 245Q285 225 265 225H130Q101 225 78 248T55 300V500Q55 529 78 552T130 575H370Q399 575 422 552T445 500V75Z"  />
<glyph unicode="&#x5E5;" horiz-adv-x="498" d="M473 491Q473 429 429 366Q389 308 331 275Q280 246 211 235Q196 233 196 228V-55Q196 -65 206 -65H259Q274 -65 278 -82Q279 -86 279 -110Q279 -130 259 -130H161Q131 -130 131 -100V490Q131 510 111 510H51Q35 510 32 527Q31 530 31 555Q31 575 51 575H131Q159 575 177 557T196 510V370Q196 307 200 304T208 300H211Q215 299 232 304Q315 329 353 372Q371 392 389 427Q410 467 410 488Q410 510 388 510H328Q312 510 309 527Q308 530 308 555Q308 575 328 575H408Q436 575 454 557T473 510V491Z"  />
<glyph unicode="&#x5E6;" horiz-adv-x="520" d="M484 491Q484 449 476 424T442 359Q420 325 352 279Q351 279 349 277L350 275Q379 248 435 192Q475 148 475 103V65Q475 39 455 20T409 0H59Q43 0 40 17Q39 20 39 45Q39 65 59 65H370Q414 65 414 91Q414 126 366 172Q322 211 236 290Q183 340 169 360Q139 401 139 449T133 504T107 511Q101 511 89 510T70 509Q39 509 39 530V555Q39 575 59 575H139Q166 575 184 557T204 511Q204 514 204 460Q204 424 234 384Q259 349 294 325Q333 353 383 393Q422 439 422 480Q422 484 420 490V492Q420 510 399 510H339Q323 510 320 527Q319 530 319 555Q319 575 339 575H419Q447 575 465 557T484 510V491Z"  />
<glyph unicode="&#x5E7;" horiz-adv-x="498" d="M454 355Q454 298 412 245L309 115Q302 106 302 91V80Q304 65 335 65H364Q379 65 383 48Q384 43 384 20Q384 0 364 0H304Q277 0 259 18T239 64Q239 61 239 115Q239 132 254 150L362 280Q380 302 385 317Q389 329 389 359V475Q389 489 379 499T354 510H74Q58 510 55 527Q54 530 54 555Q54 575 74 575H379Q408 575 431 552T454 500V355ZM154 -91Q154 -111 134 -111H109Q89 -111 89 -91V360Q89 380 109 380H134Q154 380 154 360V-91Z"  />
<glyph unicode="&#x5E8;" horiz-adv-x="441" d="M404 20Q404 4 388 1Q384 0 359 0Q339 0 339 20V475Q339 489 329 499T304 510H59Q43 510 40 527Q39 530 39 555Q39 575 59 575H329Q358 575 381 552T404 500V20Z"  />
<glyph unicode="&#x5E9;" horiz-adv-x="616" d="M549 150Q549 89 505 45T399 0H214Q153 0 109 44T64 150V530Q64 546 79 560T110 575H174Q189 575 193 558Q194 553 194 530Q194 513 174 510Q157 510 140 510Q129 508 129 500V150Q129 116 154 91T214 65H256Q274 65 274 80V555Q274 570 291 574Q295 575 319 575Q339 575 339 555V80Q339 65 354 65H399Q433 65 458 90T484 150V500Q484 510 465 511Q485 510 439 510Q433 510 426 517T419 530V555Q419 561 426 568T439 575H504Q521 575 535 561T549 530V150Z"  />
<glyph unicode="&#x5EA;" horiz-adv-x="574" d="M541 20Q541 4 525 1Q521 0 496 0Q476 0 476 20V475Q476 489 466 499T441 510H236Q229 510 223 504T216 490V65Q216 37 198 19T151 0H76Q60 0 57 17Q56 20 56 45Q56 65 88 65Q93 65 104 65Q115 64 121 64Q151 64 151 83V490Q151 510 126 510H76Q60 510 57 527Q56 530 56 555Q56 575 76 575H466Q495 575 518 552T541 500V20Z"  />
<glyph unicode="&#x5F0;" horiz-adv-x="567" d="M514 19Q514 -1 494 -1H469Q449 -1 449 19V500Q449 510 439 510H329Q313 510 310 527Q309 530 309 555Q309 575 329 575H469Q486 575 500 561T514 530V19ZM244 19Q244 -1 224 -1H199Q179 -1 179 19V500Q179 510 169 510H59Q43 510 40 527Q39 530 39 555Q39 575 59 575H199Q216 575 230 561T244 530V19Z"  />
<glyph unicode="&#x5F1;" horiz-adv-x="567" d="M514 19Q514 -1 494 -1H469Q449 -1 449 19V500Q449 510 439 510H329Q313 510 310 527Q309 530 309 555Q309 575 329 575H469Q486 575 500 561T514 530V19ZM253 335Q253 315 233 315H208Q188 315 188 335V500Q188 510 178 510H58Q42 510 39 527Q38 530 38 555Q38 575 58 575H208Q225 575 239 561T253 530V335Z"  />
<glyph unicode="&#x5F2;" horiz-adv-x="577" d="M533 335Q533 315 513 315H488Q468 315 468 335V500Q468 510 458 510H338Q322 510 319 527Q318 530 318 555Q318 575 338 575H488Q505 575 519 561T533 530V335ZM253 335Q253 315 233 315H208Q188 315 188 335V500Q188 510 178 510H58Q42 510 39 527Q38 530 38 555Q38 575 58 575H208Q225 575 239 561T253 530V335Z"  />
<glyph unicode="&#x5F3;" horiz-adv-x="283" d="M203 566Q203 562 202 560L114 400Q103 380 92 380H67Q51 380 51 395Q51 397 93 500Q96 508 119 560Q126 575 143 575H187Q203 575 203 566Z"  />
<glyph unicode="&#x5F4;" horiz-adv-x="425" d="M338 566Q338 562 337 560L249 400Q238 380 227 380H202Q186 380 186 395Q186 398 187 400L254 560Q260 575 278 575H322Q338 575 338 566ZM193 566Q193 562 192 560L104 400Q93 380 82 380H57Q41 380 41 395Q41 398 42 400L109 560Q115 575 133 575H177Q193 575 193 566Z"  />
<glyph unicode="&#xF25;" horiz-adv-x="690" d="M655 340Q655 310 635 290L460 115Q441 96 441 82Q441 65 460 65H525Q540 65 544 48Q545 43 545 20Q545 0 525 0H413Q382 0 376 27Q375 32 375 80Q375 120 401 146L570 315Q590 335 590 357V490Q590 510 575 510H85Q40 510 40 550V660Q40 675 57 679Q62 680 85 680Q105 680 105 660V585Q105 575 115 575H595Q619 575 637 555T655 510V340Z"  />
<glyph unicode="&#x200E;" horiz-adv-x="406" d="M375 448L211 296V404H141V0H55V490H211V600L375 448Z"  />
<glyph unicode="&#x200F;" horiz-adv-x="406" d="M351 0H265V404H195V296L31 448L195 600V490H351V0Z"  />
<glyph unicode="&#x2013;" horiz-adv-x="348" d="M297 530Q297 510 277 510H72Q52 510 52 530V555Q52 575 72 575H277Q284 575 290 569T297 555V530Z"  />
<glyph unicode="&#x2014;" horiz-adv-x="466" d="M399 302Q399 282 379 282H88Q68 282 68 302V327Q68 347 88 347H379Q399 347 399 327V302Z"  />
<glyph unicode="&#x2018;" horiz-adv-x="255" d="M204 395Q204 380 188 380H163Q152 380 141 400L53 560Q52 562 52 566Q52 575 68 575H112Q129 575 136 560Q145 540 162 500Q204 397 204 395Z"  />
<glyph unicode="&#x2019;" horiz-adv-x="255" d="M203 566Q203 562 202 560L114 400Q103 380 92 380H67Q51 380 51 395Q51 397 93 500Q96 508 119 560Q126 575 143 575H187Q203 575 203 566Z"  />
<glyph unicode="&#x201A;" horiz-adv-x="283" d="M191 107Q191 103 190 101L102 -59Q91 -79 80 -79H55Q39 -79 39 -64Q39 -62 81 41Q84 49 107 101Q114 116 131 116H175Q191 116 191 107Z"  />
<glyph unicode="&#x201C;" horiz-adv-x="373" d="M338 395Q338 380 322 380H297Q286 380 275 400L187 560Q186 562 186 566Q186 575 202 575H246Q264 575 270 560L337 400Q338 398 338 395ZM193 395Q193 380 177 380H152Q141 380 130 400L42 560Q41 562 41 566Q41 575 57 575H101Q119 575 125 560L192 400Q193 398 193 395Z"  />
<glyph unicode="&#x201D;" horiz-adv-x="373" d="M338 566Q338 562 337 560L249 400Q238 380 227 380H202Q186 380 186 395Q186 398 187 400L254 560Q260 575 278 575H322Q338 575 338 566ZM193 566Q193 562 192 560L104 400Q93 380 82 380H57Q41 380 41 395Q41 398 42 400L109 560Q115 575 133 575H177Q193 575 193 566Z"  />
<glyph unicode="&#x201E;" horiz-adv-x="373" d="M338 136Q338 132 337 130L249 -30Q238 -50 227 -50H202Q186 -50 186 -35Q186 -32 187 -30L254 130Q260 145 278 145H322Q338 145 338 136ZM193 136Q193 132 192 130L104 -30Q93 -50 82 -50H57Q41 -50 41 -35Q41 -32 42 -30L109 130Q115 145 133 145H177Q193 145 193 136Z"  />
<glyph unicode="&#x2020;" horiz-adv-x="271" d="M222 423H155V66H119V423H53V456H119V520Q119 531 110 552T101 585Q101 597 108 618T120 664T137 689Q149 689 154 664T166 618T173 585Q173 573 164 552T155 520V456H222V423Z"  />
<glyph unicode="&#x2021;" horiz-adv-x="271" d="M221 174H154V110Q154 99 163 78T172 45Q172 33 165 12T153 -33Q147 -60 136 -60Q125 -60 119 -33Q114 -9 107 12T100 45Q100 57 109 78T118 110V174H52V207H118V422H52V456H118V520Q118 531 109 551T100 584Q100 597 107 618T119 664T136 689Q148 689 153 664T165 618T172 584Q172 572 163 552T154 520V456H221V422H154V207H221V174Z"  />
<glyph unicode="&#x2022;" horiz-adv-x="471" d="M405 227Q405 163 355 117T234 71Q163 71 113 117T62 227Q62 291 112 336T234 382Q305 382 355 337T405 227Z"  />
<glyph unicode="&#x2026;" horiz-adv-x="592" d="M540 40Q540 23 527 12T497 0Q480 0 468 11T455 40V75Q455 92 467 103T497 115Q514 115 527 104T540 75V40ZM340 40Q340 23 327 12T297 0Q280 0 268 11T255 40V75Q255 92 267 103T297 115Q314 115 327 104T340 75V40ZM140 40Q140 23 127 12T97 0Q80 0 68 11T55 40V75Q55 92 67 103T97 115Q114 115 127 104T140 75V40Z"  />
<glyph unicode="&#x2030;" horiz-adv-x="1138" d="M1096 179Q1096 101 1055 48Q1010 -11 930 -11Q847 -11 798 49Q755 102 755 179Q755 254 798 307Q845 365 926 365Q1007 365 1054 306Q1096 254 1096 179ZM736 179Q736 101 695 48Q650 -11 570 -11Q487 -11 438 49Q394 103 394 179Q394 254 437 307Q484 365 565 365Q647 365 694 306Q736 254 736 179ZM638 656L173 -4H126L591 656H638ZM372 469Q372 391 331 339Q286 280 206 280Q123 280 74 339Q31 393 31 469Q31 545 74 597Q121 656 202 656Q283 656 330 597Q372 544 372 469ZM1001 167V190Q1001 269 990 299Q975 344 926 344Q877 344 861 299Q850 269 850 190V167Q850 85 861 56Q877 11 930 11Q976 11 991 54Q1001 85 1001 167ZM640 167V190Q640 269 629 299Q614 344 565 344Q516 344 500 299Q490 269 490 190V167Q490 85 501 56Q517 11 570 11Q616 11 630 54Q640 84 640 167ZM277 458V481Q277 560 266 590Q251 634 202 634Q153 634 137 589Q126 559 126 481V458Q126 376 137 346Q153 301 206 301Q252 301 267 345Q277 375 277 458Z"  />
<glyph unicode="&#x2039;" horiz-adv-x="271" d="M238 108H208L29 258L208 408H238L109 258L238 108Z"  />
<glyph unicode="&#x203A;" horiz-adv-x="271" d="M243 258L63 108H35L164 258L35 408H63L243 258Z"  />
<glyph unicode="&#x20AA;" horiz-adv-x="742" d="M656 57Q656 0 588 0H264V320H311V46H577Q609 46 609 78V432H656V57ZM476 112H429V386H163Q131 386 131 354V0H84V375Q84 432 152 432H476V112Z"  />
<glyph unicode="&#x20AC;" horiz-adv-x="615" d="M589 52Q509 -16 403 -16Q307 -16 231 41T127 191H29L63 251H117Q116 271 116 271Q116 278 117 294H29L63 354H128Q157 445 232 501T403 558Q509 558 589 490L558 437Q493 498 403 498Q334 498 278 459T192 354H512L476 294H177Q176 282 176 271Q176 266 177 251H452L417 191H190Q218 124 275 84T403 44Q493 44 558 105L572 79Q575 74 589 52Z"  />
<glyph unicode="&#x2122;" horiz-adv-x="510" d="M467 464H371V480H399V596L351 464H339L286 589V480H315V464H238V480H266V628H238V645H301L353 522L399 645H467V628H440V480H467V464ZM216 600H199Q198 607 196 612Q190 628 169 628H147V480H175V464H78V480H105V628H82Q56 628 52 600H35L40 645H212L216 600Z"  />
<glyph unicode="&#x2153;" horiz-adv-x="642" d="M168 218Q168 206 156 206H141Q129 206 129 218V493L91 456Q87 452 83 452Q78 452 74 456Q60 470 60 475Q60 480 63 483L132 546Q140 552 152 552Q168 552 168 538V218ZM582 128Q582 79 554 45Q517 0 461 0Q418 0 366 38Q354 47 352 51T349 60Q349 65 352 67Q371 80 374 80Q380 80 388 71Q399 58 422 48T463 38Q496 38 519 64T543 123Q543 129 542 135Q539 161 520 178T475 195Q463 195 453 181T436 167Q436 167 416 179Q412 182 412 188Q412 189 413 192L492 306H378Q366 306 366 333Q366 345 378 345H545Q555 345 555 337Q555 334 537 307L505 259Q499 251 489 235Q489 234 489 233Q489 230 490 229Q503 227 520 220Q579 197 582 138Q582 138 582 128ZM421 604Q421 596 417 585L186 -49Q179 -66 164 -66Q123 -66 123 -39Q123 -31 126 -25L355 607Q364 633 382 633Q386 633 392 631Q410 624 412 623Q421 617 421 604Z"  />
<glyph unicode="&#x2154;" horiz-adv-x="642" d="M227 217Q227 205 215 205H26Q19 205 19 214Q19 251 59 300Q80 324 119 359Q152 389 161 399Q184 426 184 451Q184 477 165 493T119 510Q77 510 56 469Q53 463 47 450Q44 444 40 444Q36 444 13 454Q10 456 10 460Q10 463 11 466Q46 550 124 550Q166 550 196 523T226 454Q226 408 179 362Q139 324 100 286Q75 255 75 246Q75 245 76 244H215Q227 244 227 217ZM632 128Q632 79 604 45Q567 0 511 0Q468 0 416 38Q404 47 402 51T399 60Q399 65 402 67Q421 80 424 80Q431 80 438 71Q449 58 472 48T514 38Q546 38 569 64T593 123Q593 129 592 135Q589 161 571 178T525 195Q513 195 503 181T486 167Q486 167 466 179Q462 182 462 188Q462 189 463 192L542 306H428Q416 306 416 333Q416 345 428 345H595Q605 345 605 337Q605 334 587 307L555 259Q549 251 539 235Q539 234 539 233Q539 230 541 229Q554 227 571 220Q629 197 632 138Q632 138 632 128ZM472 604Q472 596 468 585L237 -49Q231 -66 215 -66Q174 -66 174 -39Q174 -31 177 -25L406 607Q416 633 433 633Q438 633 443 631Q461 624 464 623Q472 617 472 604Z"  />
<glyph unicode="&#x2212;" horiz-adv-x="277" d="M277 231H4V262H277V231Z"  />
<glyph unicode="&#x2219;" horiz-adv-x="231" d="M172 309Q172 287 155 272T112 257Q87 257 70 272T52 309Q52 331 69 346T112 361Q137 361 154 346T172 309Z"  />
<glyph unicode="&#xE802;" horiz-adv-x="471" d="M455 530Q455 509 424 509Q418 509 407 510T390 511Q370 511 370 500V-55Q370 -65 380 -65H433Q448 -65 452 -82Q453 -87 453 -110Q453 -130 433 -130H335Q305 -130 305 -100V500Q305 510 295 510H55Q39 510 36 527Q35 530 35 555Q35 575 55 575H435Q450 575 454 558Q455 553 455 530ZM181 312Q181 280 149 280Q117 280 117 312Q117 344 149 344Q181 344 181 312ZM181 206Q181 174 149 174Q117 174 117 206Q117 238 149 238Q181 238 181 206Z"  />
<glyph unicode="&#xE803;" horiz-adv-x="471" d="M455 530Q455 509 424 509Q418 509 407 510T390 511Q370 511 370 500V-55Q370 -65 380 -65H433Q448 -65 452 -82Q453 -87 453 -110Q453 -130 433 -130H335Q305 -130 305 -100V500Q305 510 295 510H55Q39 510 36 527Q35 530 35 555Q35 575 55 575H435Q450 575 454 558Q455 553 455 530ZM263 259H182V145H124V259H44V317H263V259Z"  />
<glyph unicode="&#xE804;" horiz-adv-x="490" d="M455 340Q455 310 435 290L260 115Q241 96 241 82Q241 65 260 65H325Q340 65 344 48Q345 43 345 20Q345 0 325 0H213Q182 0 176 27Q175 32 175 80Q175 120 201 146L370 315Q390 335 390 357V490Q390 510 375 510H85Q40 510 40 550V660Q40 675 57 679Q62 680 85 680Q105 680 105 660V585Q105 575 115 575H395Q419 575 437 555T455 510V340ZM1 659Q1 628 -30 628Q-61 628 -61 658Q-61 689 -30 689Q1 689 1 659Z"  />
<glyph unicode="&#xE805;" horiz-adv-x="490" d="M455 340Q455 310 435 290L260 115Q241 96 241 82Q241 65 260 65H325Q340 65 344 48Q345 43 345 20Q345 0 325 0H213Q182 0 176 27Q175 32 175 80Q175 120 201 146L370 315Q390 335 390 357V490Q390 510 375 510H85Q40 510 40 550V660Q40 675 57 679Q62 680 85 680Q105 680 105 660V585Q105 575 115 575H395Q419 575 437 555T455 510V340ZM1 659Q1 628 -30 628Q-61 628 -61 658Q-61 689 -30 689Q1 689 1 659ZM234 296Q234 264 202 264Q170 264 170 296Q170 328 202 328Q234 328 234 296Z"  />
<glyph unicode="&#xFB1F;" horiz-adv-x="557" d="M513 335Q513 315 493 315H468Q448 315 448 335V500Q448 510 438 510H318Q302 510 299 527Q298 530 298 555Q298 575 318 575H468Q485 575 499 561T513 530V335ZM253 335Q253 315 233 315H208Q188 315 188 335V500Q188 510 178 510H58Q42 510 39 527Q38 530 38 555Q38 575 58 575H208Q225 575 239 561T253 530V335ZM502 1H163V59H502V1Z"  />
<glyph unicode="&#xFB20;" horiz-adv-x="530" d="M488 220Q488 134 420 67T260 0H63Q47 0 44 17Q43 20 43 45Q43 65 63 65H138Q148 65 148 75V500Q148 510 138 510H63Q47 510 44 527Q43 530 43 555Q43 575 63 575H168Q185 575 199 561T213 530V75Q213 65 260 65Q322 65 374 120Q423 172 423 250V500Q423 510 413 510H338Q322 510 319 527Q318 530 318 555Q318 575 338 575H443Q460 575 474 561T488 530V220Z"  />
<glyph unicode="&#xFB21;" horiz-adv-x="747" d="M692 20Q692 4 676 1Q672 0 647 0Q627 0 627 20V475Q627 489 617 499T592 510H77Q61 510 58 527Q57 530 57 555Q57 575 77 575H617Q646 575 669 552T692 500V20ZM147 19Q147 -1 127 -1H102Q82 -1 82 19V356Q82 376 102 376H127Q147 376 147 356V19Z"  />
<glyph unicode="&#xFB22;" horiz-adv-x="678" d="M653 530Q653 510 633 510H553Q543 510 543 500V19Q543 4 526 0Q521 -1 498 -1Q478 -1 478 19V500Q478 510 468 510H58Q42 510 39 527Q38 530 38 555Q38 575 58 575H633Q648 575 652 558Q653 553 653 530Z"  />
<glyph unicode="&#xFB24;" horiz-adv-x="687" d="M658 265Q658 170 623 100Q600 55 556 28T461 0H58Q42 0 39 17Q38 20 38 45Q38 65 58 65H433Q497 65 538 100T589 197Q593 222 593 310Q593 368 585 400Q573 445 538 475Q498 510 433 510H58Q42 510 39 527Q38 530 38 555Q38 575 58 575H461Q512 575 556 548T623 475Q658 405 658 310V265Z"  />
<glyph unicode="&#xFB26;" horiz-adv-x="750" d="M709 65Q709 41 689 21T644 0H204Q176 0 158 18T139 65V490Q139 510 119 510H69Q53 510 50 527Q49 530 49 555Q49 575 69 575H634Q663 575 686 552T709 500V65ZM644 85V475Q644 489 634 499T610 510H224Q204 510 204 490V85Q204 65 224 65H624Q644 65 644 85Z"  />
<glyph unicode="&#xFB27;" horiz-adv-x="641" d="M604 20Q604 4 588 1Q584 0 559 0Q539 0 539 20V475Q539 489 529 499T504 510H59Q43 510 40 527Q39 530 39 555Q39 575 59 575H529Q558 575 581 552T604 500V20Z"  />
<glyph unicode="&#xFB28;" horiz-adv-x="774" d="M741 20Q741 4 725 1Q721 0 696 0Q676 0 676 20V475Q676 489 666 499T641 510H236Q229 510 223 504T216 490V65Q216 37 198 19T151 0H76Q60 0 57 17Q56 20 56 45Q56 65 88 65Q93 65 104 65Q115 64 121 64Q151 64 151 83V490Q151 510 126 510H76Q60 510 57 527Q56 530 56 555Q56 575 76 575H666Q695 575 718 552T741 500V20Z"  />
<glyph unicode="&#xFB2A;" horiz-adv-x="616" d="M510 659Q510 628 479 628Q448 628 448 658Q448 689 479 689Q510 689 510 659ZM549 150Q549 89 505 45T399 0H214Q153 0 109 44T64 150V530Q64 546 79 560T110 575H174Q189 575 193 558Q194 553 194 530Q194 513 174 510Q157 510 140 510Q129 508 129 500V150Q129 116 154 91T214 65H256Q274 65 274 80V555Q274 570 291 574Q295 575 319 575Q339 575 339 555V80Q339 65 354 65H399Q433 65 458 90T484 150V500Q484 510 465 511Q485 510 439 510Q433 510 426 517T419 530V555Q419 561 426 568T439 575H504Q521 575 535 561T549 530V150Z"  />
<glyph unicode="&#xFB2B;" horiz-adv-x="616" d="M170 659Q170 628 139 628Q108 628 108 658Q108 689 139 689Q170 689 170 659ZM549 150Q549 89 505 45T399 0H214Q153 0 109 44T64 150V530Q64 546 79 560T110 575H174Q189 575 193 558Q194 553 194 530Q194 513 174 510Q157 510 140 510Q129 508 129 500V150Q129 116 154 91T214 65H256Q274 65 274 80V555Q274 570 291 574Q295 575 319 575Q339 575 339 555V80Q339 65 354 65H399Q433 65 458 90T484 150V500Q484 510 465 511Q485 510 439 510Q433 510 426 517T419 530V555Q419 561 426 568T439 575H504Q521 575 535 561T549 530V150Z"  />
<glyph unicode="&#xFB2C;" horiz-adv-x="616" d="M510 659Q510 628 479 628Q448 628 448 658Q448 689 479 689Q510 689 510 659ZM549 150Q549 89 505 45T399 0H214Q153 0 109 44T64 150V530Q64 546 79 560T110 575H174Q189 575 193 558Q194 553 194 530Q194 513 174 510Q157 510 140 510Q129 508 129 500V150Q129 116 154 91T214 65H256Q274 65 274 80V555Q274 570 291 574Q295 575 319 575Q339 575 339 555V80Q339 65 354 65H399Q433 65 458 90T484 150V500Q484 510 465 511Q485 510 439 510Q433 510 426 517T419 530V555Q419 561 426 568T439 575H504Q521 575 535 561T549 530V150ZM444 296Q444 264 412 264Q380 264 380 296Q380 328 412 328Q444 328 444 296Z"  />
<glyph unicode="&#xFB2D;" horiz-adv-x="616" d="M170 659Q170 628 139 628Q108 628 108 658Q108 689 139 689Q170 689 170 659ZM549 150Q549 89 505 45T399 0H214Q153 0 109 44T64 150V530Q64 546 79 560T110 575H174Q189 575 193 558Q194 553 194 530Q194 513 174 510Q157 510 140 510Q129 508 129 500V150Q129 116 154 91T214 65H256Q274 65 274 80V555Q274 570 291 574Q295 575 319 575Q339 575 339 555V80Q339 65 354 65H399Q433 65 458 90T484 150V500Q484 510 465 511Q485 510 439 510Q433 510 426 517T419 530V555Q419 561 426 568T439 575H504Q521 575 535 561T549 530V150ZM444 296Q444 264 412 264Q380 264 380 296Q380 328 412 328Q444 328 444 296Z"  />
<glyph unicode="&#xFB2E;" horiz-adv-x="546" d="M510 10Q510 0 502 0H455Q442 0 432 15L215 333H214Q202 333 179 321T147 300Q117 267 117 225V75Q117 65 127 65H207Q222 65 226 48Q227 43 227 20Q227 0 207 0H87Q52 0 52 38V245Q52 285 82 325Q100 348 145 369Q159 375 177 384Q62 549 62 558Q62 573 82 576Q77 575 111 575Q125 575 137 558L317 300H318Q325 300 352 315Q389 335 403 348Q427 370 427 400V495Q427 510 412 510H362Q346 510 343 527Q342 530 342 555Q342 575 362 575H452Q492 575 492 535V425Q492 353 456 310Q424 272 352 245L507 20Q510 16 510 10ZM375 -163H160V-105H375V-163Z"  />
<glyph unicode="&#xFB2F;" horiz-adv-x="546" d="M510 10Q510 0 502 0H455Q442 0 432 15L215 333H214Q202 333 179 321T147 300Q117 267 117 225V75Q117 65 127 65H207Q222 65 226 48Q227 43 227 20Q227 0 207 0H87Q52 0 52 38V245Q52 285 82 325Q100 348 145 369Q159 375 177 384Q62 549 62 558Q62 573 82 576Q77 575 111 575Q125 575 137 558L317 300H318Q325 300 352 315Q389 335 403 348Q427 370 427 400V495Q427 510 412 510H362Q346 510 343 527Q342 530 342 555Q342 575 362 575H452Q492 575 492 535V425Q492 353 456 310Q424 272 352 245L507 20Q510 16 510 10ZM376 -163H295V-277H237V-163H157V-105H376V-163Z"  />
<glyph unicode="&#xFB30;" horiz-adv-x="546" d="M510 10Q510 0 502 0H455Q442 0 432 15L215 333H214Q202 333 179 321T147 300Q117 267 117 225V75Q117 65 127 65H207Q222 65 226 48Q227 43 227 20Q227 0 207 0H87Q52 0 52 38V245Q52 285 82 325Q100 348 145 369Q159 375 177 384Q62 549 62 558Q62 573 82 576Q77 575 111 575Q125 575 137 558L317 300H318Q325 300 352 315Q389 335 403 348Q427 370 427 400V495Q427 510 412 510H362Q346 510 343 527Q342 530 342 555Q342 575 362 575H452Q492 575 492 535V425Q492 353 456 310Q424 272 352 245L507 20Q510 16 510 10ZM287 -137Q287 -169 255 -169Q223 -169 223 -137Q223 -105 255 -105Q287 -105 287 -137Z"  />
<glyph unicode="&#xFB31;" horiz-adv-x="524" d="M254 296Q254 264 222 264Q190 264 190 296Q190 328 222 328Q254 328 254 296ZM501 20Q501 0 481 0H56Q40 0 37 17Q36 20 36 45Q36 65 56 65H361Q371 65 371 75V435Q371 468 336 493Q313 510 261 510H106Q90 510 87 527Q86 530 86 555Q86 575 106 575H291Q350 575 393 532T436 430V75Q436 64 454 64Q457 64 464 65Q471 65 474 65Q501 65 501 45V20Z"  />
<glyph unicode="&#xFB32;" horiz-adv-x="384" d="M204 296Q204 264 172 264Q140 264 140 296Q140 328 172 328Q204 328 204 296ZM333 19Q333 4 317 0Q312 -1 288 -1Q268 -1 268 19V166Q268 174 262 174Q259 174 257 170Q251 161 239 143Q204 91 173 65Q117 17 73 4Q56 -1 56 -1Q43 -1 43 15V50Q43 62 53 66T75 75Q153 113 201 173Q217 192 240 230Q268 276 268 290V494Q268 510 249 510H143Q127 510 124 527Q123 530 123 555Q123 575 143 575H283Q333 575 333 525V19Z"  />
<glyph unicode="&#xFB33;" horiz-adv-x="478" d="M453 530Q453 510 433 510H353Q343 510 343 500V19Q343 4 326 0Q321 -1 298 -1Q278 -1 278 19V500Q278 510 268 510H58Q42 510 39 527Q38 530 38 555Q38 575 58 575H433Q448 575 452 558Q453 553 453 530ZM204 296Q204 264 172 264Q140 264 140 296Q140 328 172 328Q204 328 204 296Z"  />
<glyph unicode="&#xFB34;" horiz-adv-x="547" d="M314 296Q314 264 282 264Q250 264 250 296Q250 328 282 328Q314 328 314 296ZM492 20Q492 4 476 1Q472 0 447 0Q427 0 427 20V475Q427 489 417 499T392 510H77Q61 510 58 527Q57 530 57 555Q57 575 77 575H417Q446 575 469 552T492 500V20ZM147 19Q147 -1 127 -1H102Q82 -1 82 19V356Q82 376 102 376H127Q147 376 147 356V19Z"  />
<glyph unicode="&#xFB35;" horiz-adv-x="297" d="M244 19Q244 -1 224 -1H199Q179 -1 179 19V500Q179 510 169 510H59Q43 510 40 527Q39 530 39 555Q39 575 59 575H199Q216 575 230 561T244 530V19ZM145 296Q145 264 113 264Q81 264 81 296Q81 328 113 328Q145 328 145 296Z"  />
<glyph unicode="&#xFB36;" horiz-adv-x="304" d="M105 296Q105 264 73 264Q41 264 41 296Q41 328 73 328Q105 328 105 296ZM283 530Q283 509 251 509Q244 509 232 510T213 511Q193 511 193 500V20Q193 0 173 0H148Q128 0 128 20V500Q128 510 118 510H58Q42 510 39 527Q38 530 38 555Q38 575 58 575H263Q278 575 282 558Q283 553 283 530Z"  />
<glyph unicode="&#xFB38;" horiz-adv-x="529" d="M344 296Q344 264 312 264Q280 264 280 296Q280 328 312 328Q344 328 344 296ZM497 104Q497 44 429 16Q380 -3 309 -3Q238 -3 190 16Q122 44 122 104V497Q122 511 100 511Q95 511 85 510Q76 510 71 510Q42 510 42 530V555Q42 575 62 575H152Q166 575 176 562T187 535V115Q187 79 234 68Q256 62 309 62Q362 62 385 68Q432 79 432 115V475Q432 497 410 509Q392 519 369 519Q345 519 328 509Q307 497 307 475V400Q307 380 287 380H262Q242 380 242 400V500Q242 543 286 565Q321 582 369 582Q416 582 452 565Q497 542 497 500V104Z"  />
<glyph unicode="&#xFB39;" horiz-adv-x="297" d="M153 423Q153 391 121 391Q89 391 89 423Q89 455 121 455Q153 455 153 423ZM253 335Q253 315 233 315H208Q188 315 188 335V500Q188 510 178 510H58Q42 510 39 527Q38 530 38 555Q38 575 58 575H208Q225 575 239 561T253 530V335Z"  />
<glyph unicode="&#xFB3A;" horiz-adv-x="471" d="M214 296Q214 264 182 264Q150 264 150 296Q150 328 182 328Q214 328 214 296ZM455 530Q455 509 424 509Q418 509 407 510T390 511Q370 511 370 500V-55Q370 -65 380 -65H433Q448 -65 452 -82Q453 -87 453 -110Q453 -130 433 -130H335Q305 -130 305 -100V500Q305 510 295 510H55Q39 510 36 527Q35 530 35 555Q35 575 55 575H435Q450 575 454 558Q455 553 455 530Z"  />
<glyph unicode="&#xFB3B;" horiz-adv-x="487" d="M234 296Q234 264 202 264Q170 264 170 296Q170 328 202 328Q234 328 234 296ZM458 265Q458 170 423 100Q400 55 356 28T261 0H58Q42 0 39 17Q38 20 38 45Q38 65 58 65H233Q297 65 338 100T389 197Q393 222 393 310Q393 368 385 400Q373 445 338 475Q298 510 233 510H58Q42 510 39 527Q38 530 38 555Q38 575 58 575H261Q312 575 356 548T423 475Q458 405 458 310V265Z"  />
<glyph unicode="&#xFB3C;" horiz-adv-x="490" d="M455 340Q455 310 435 290L260 115Q241 96 241 82Q241 65 260 65H325Q340 65 344 48Q345 43 345 20Q345 0 325 0H213Q182 0 176 27Q175 32 175 80Q175 120 201 146L370 315Q390 335 390 357V490Q390 510 375 510H85Q40 510 40 550V660Q40 675 57 679Q62 680 85 680Q105 680 105 660V585Q105 575 115 575H395Q419 575 437 555T455 510V340ZM244 296Q244 264 212 264Q180 264 180 296Q180 328 212 328Q244 328 244 296Z"  />
<glyph unicode="&#xFB3E;" horiz-adv-x="502" d="M324 296Q324 264 292 264Q260 264 260 296Q260 328 292 328Q324 328 324 296ZM474 45Q474 28 460 14T429 0H289Q273 0 270 17Q269 20 269 45Q269 65 289 65H399Q409 65 409 75V428Q409 519 334 519Q295 519 257 496Q227 478 202 444Q174 406 174 375V20Q174 4 158 1Q154 0 129 0Q109 0 109 20V495Q109 510 94 510H49Q33 510 30 527Q29 530 29 555Q29 575 49 575H144Q156 575 165 566T174 545V480Q182 491 192 503Q254 583 338 583Q406 583 442 537Q474 495 474 425V45Z"  />
<glyph unicode="&#xFB40;" horiz-adv-x="315" d="M165 296Q165 264 133 264Q101 264 101 296Q101 328 133 328Q165 328 165 296ZM261 45Q261 28 247 14T216 0H76Q60 0 57 17Q56 20 56 45Q56 65 76 65H186Q196 65 196 75V500Q196 510 186 510H106Q90 510 87 527Q86 530 86 555Q86 575 106 575H216Q233 575 247 561T261 530V45Z"  />
<glyph unicode="&#xFB41;" horiz-adv-x="497" d="M314 296Q314 264 282 264Q250 264 250 296Q250 328 282 328Q314 328 314 296ZM456 150Q456 82 399 37Q346 -5 276 -5Q206 -5 153 37Q96 82 96 150V490Q96 510 61 510Q45 510 42 527Q41 530 41 555Q41 575 61 575H381Q410 575 433 552T456 500V150ZM391 150V475Q391 489 381 499T356 510H181Q161 510 161 490V150Q161 108 199 83Q232 61 276 61Q320 61 353 83Q391 108 391 150Z"  />
<glyph unicode="&#xFB44;" horiz-adv-x="503" d="M285 382Q285 350 253 350Q221 350 221 382Q221 414 253 414Q285 414 285 382ZM445 75Q445 46 422 23T370 0H75Q59 0 56 17Q55 20 55 45Q55 65 75 65H345Q359 65 369 75T380 100V475Q380 489 370 499T345 510H155Q141 510 131 500T120 475V325Q120 311 130 301T155 290H265Q280 290 284 273Q285 268 285 245Q285 225 265 225H130Q101 225 78 248T55 300V500Q55 529 78 552T130 575H370Q399 575 422 552T445 500V75Z"  />
<glyph unicode="&#xFB46;" horiz-adv-x="520" d="M204 227Q204 195 172 195Q140 195 140 227Q140 259 172 259Q204 259 204 227ZM484 491Q484 449 476 424T442 359Q420 325 352 279Q351 279 349 277L350 275Q379 248 435 192Q475 148 475 103V65Q475 39 455 20T409 0H59Q43 0 40 17Q39 20 39 45Q39 65 59 65H370Q414 65 414 91Q414 126 366 172Q322 211 236 290Q183 340 169 360Q139 401 139 449T133 504T107 511Q101 511 89 510T70 509Q39 509 39 530V555Q39 575 59 575H139Q166 575 184 557T204 511Q204 514 204 460Q204 424 234 384Q259 349 294 325Q333 353 383 393Q422 439 422 480Q422 484 420 490V492Q420 510 399 510H339Q323 510 320 527Q319 530 319 555Q319 575 339 575H419Q447 575 465 557T484 510V491Z"  />
<glyph unicode="&#xFB47;" horiz-adv-x="498" d="M454 355Q454 298 412 245L309 115Q302 106 302 91V80Q304 65 335 65H364Q379 65 383 48Q384 43 384 20Q384 0 364 0H304Q277 0 259 18T239 64Q239 61 239 115Q239 132 254 150L362 280Q380 302 385 317Q389 329 389 359V475Q389 489 379 499T354 510H74Q58 510 55 527Q54 530 54 555Q54 575 74 575H379Q408 575 431 552T454 500V355ZM154 -91Q154 -111 134 -111H109Q89 -111 89 -91V360Q89 380 109 380H134Q154 380 154 360V-91ZM284 296Q284 264 252 264Q220 264 220 296Q220 328 252 328Q284 328 284 296Z"  />
<glyph unicode="&#xFB48;" horiz-adv-x="441" d="M404 20Q404 4 388 1Q384 0 359 0Q339 0 339 20V475Q339 489 329 499T304 510H59Q43 510 40 527Q39 530 39 555Q39 575 59 575H329Q358 575 381 552T404 500V20ZM234 296Q234 264 202 264Q170 264 170 296Q170 328 202 328Q234 328 234 296Z"  />
<glyph unicode="&#xFB49;" horiz-adv-x="616" d="M549 150Q549 89 505 45T399 0H214Q153 0 109 44T64 150V530Q64 546 79 560T110 575H174Q189 575 193 558Q194 553 194 530Q194 513 174 510Q157 510 140 510Q129 508 129 500V150Q129 116 154 91T214 65H256Q274 65 274 80V555Q274 570 291 574Q295 575 319 575Q339 575 339 555V80Q339 65 354 65H399Q433 65 458 90T484 150V500Q484 510 465 511Q485 510 439 510Q433 510 426 517T419 530V555Q419 561 426 568T439 575H504Q521 575 535 561T549 530V150ZM444 296Q444 264 412 264Q380 264 380 296Q380 328 412 328Q444 328 444 296Z"  />
<glyph unicode="&#xFB4A;" horiz-adv-x="574" d="M374 296Q374 264 342 264Q310 264 310 296Q310 328 342 328Q374 328 374 296ZM541 20Q541 4 525 1Q521 0 496 0Q476 0 476 20V475Q476 489 466 499T441 510H236Q229 510 223 504T216 490V65Q216 37 198 19T151 0H76Q60 0 57 17Q56 20 56 45Q56 65 88 65Q93 65 104 65Q115 64 121 64Q151 64 151 83V490Q151 510 126 510H76Q60 510 57 527Q56 530 56 555Q56 575 76 575H466Q495 575 518 552T541 500V20Z"  />
<glyph unicode="&#xFB4B;" horiz-adv-x="297" d="M244 19Q244 -1 224 -1H199Q179 -1 179 19V500Q179 510 169 510H59Q43 510 40 527Q39 530 39 555Q39 575 59 575H199Q216 575 230 561T244 530V19ZM170 659Q170 628 139 628Q108 628 108 658Q108 689 139 689Q170 689 170 659Z"  />
<glyph unicode="&#xFB4C;" horiz-adv-x="524" d="M501 20Q501 0 481 0H56Q40 0 37 17Q36 20 36 45Q36 65 56 65H361Q371 65 371 75V435Q371 468 336 493Q313 510 261 510H106Q90 510 87 527Q86 530 86 555Q86 575 106 575H291Q350 575 393 532T436 430V75Q436 64 454 64Q457 64 464 65Q471 65 474 65Q501 65 501 45V20ZM369 696Q369 676 349 676H144Q124 676 124 696V721Q124 741 144 741H349Q356 741 362 735T369 721V696Z"  />
<glyph unicode="&#xFB4D;" horiz-adv-x="487" d="M458 265Q458 170 423 100Q400 55 356 28T261 0H58Q42 0 39 17Q38 20 38 45Q38 65 58 65H233Q297 65 338 100T389 197Q393 222 393 310Q393 368 385 400Q373 445 338 475Q298 510 233 510H58Q42 510 39 527Q38 530 38 555Q38 575 58 575H261Q312 575 356 548T423 475Q458 405 458 310V265ZM350 696Q350 676 330 676H125Q105 676 105 696V721Q105 741 125 741H330Q337 741 343 735T350 721V696Z"  />
<glyph unicode="&#xFB4E;" horiz-adv-x="503" d="M445 75Q445 46 422 23T370 0H75Q59 0 56 17Q55 20 55 45Q55 65 75 65H345Q359 65 369 75T380 100V475Q380 489 370 499T345 510H155Q141 510 131 500T120 475V325Q120 311 130 301T155 290H265Q280 290 284 273Q285 268 285 245Q285 225 265 225H130Q101 225 78 248T55 300V500Q55 529 78 552T130 575H370Q399 575 422 552T445 500V75ZM369 696Q369 676 349 676H144Q124 676 124 696V721Q124 741 144 741H349Q356 741 362 735T369 721V696Z"  />
<glyph unicode="&#xFB4F;" horiz-adv-x="519" d="M483 10Q483 0 475 0H428Q415 0 405 15L188 333H187Q134 408 46 538Q46 538 43 545T40 557V651Q40 666 57 670Q62 671 85 671Q105 671 105 651V576Q105 562 109 566Q104 567 290 300H291Q298 300 325 315Q362 335 376 348Q400 370 400 400V495Q400 510 385 510H335Q319 510 316 527Q315 530 315 555Q315 575 335 575H425Q465 575 465 535V425Q465 353 429 310Q397 272 325 245L480 20Q483 16 483 10Z"  />


</font>
</defs>
</svg>
