<?xml  version="1.0" encoding="UTF-8"?>
<!DOCTYPE svg PUBLIC "-//W3C//DTD SVG 1.0//EN" "http://www.w3.org/TR/2001/REC-SVG-20010904/DTD/svg10.dtd" >
<svg xmlns="http://www.w3.org/2000/svg" >
<metadata>
<version>1.0</version>
<id><![CDATA[Kufi LT]]></id>
<vendor>Monotype Imaging Inc.</vendor>
<credits>
<name>Fonts.com WebFonts</name>
<URL>http://webfonts.fonts.com</URL>
<role>Home of the Web fonts</role>
</credits>
<license>
<URL>http://webfonts.fonts.com/Legal</URL>
</license>
<copyright><![CDATA[Copyright © 2005 - 2006 Linotype GmbH, www.linotype.com. All rights reserved. This font software may not be reproduced, modified, disclosed or transferred without the express written approval of Linotype GmbH. Kufi is a trademark of Heidelberger Druckmaschinen AG, exclusively licensed through Linotype GmbH, and may be registered in certain jurisdictions. This typeface is original artwork of Georges Dib. The design may be protected in certain jurisdictions.]]></copyright>
<trademark><![CDATA[Kufi is a trademark of Heidelberger Druckmaschinen AG, exclusively licensed through Linotype GmbH, and may be registered in certain jurisdictions.]]></trademark>
<licensee>
<name></name>
</licensee>
</metadata>
<defs >
<font horiz-adv-x="839" id="e7b93a7e-e623-4628-809c-4ae5df08148b">
<font-face font-family="" panose-1="1 0 4 0 0 0 0 0 0 0" ascent="1986" descent="-1289" units-per-em="2048" alphabetic="0">
</font-face>
<missing-glyph horiz-adv-x="764" d="M764 1073V0H0V1073H764ZM690 75V998H75V75H690ZM335 348L333 375Q333 476 365 518Q381 538 394 554T421 582Q469 632 482 655T495 712Q495 768 461 802T383 836Q336 836 302 803T258 694L184 706Q198 810 253 860T386 911Q466 911 519 860T572 718Q572 667 553 630T480 538Q423 486 414 456Q404 423 404 354L335 348ZM319 223Q319 245 335 261T372 277Q393 277 409 260T426 223Q426 201 410 186T372 170Q350 170 335 184T319 223Z"  />

<glyph unicode="&#xA;" />
<glyph unicode="&#xD;" horiz-adv-x="342" />
<glyph unicode=" " horiz-adv-x="342" />
<glyph unicode="!" horiz-adv-x="379" d="M313 903Q313 895 303 895Q299 895 297 897T291 899Q252 899 252 803V227H125V1128Q125 1159 139 1159Q152 1159 158 1114Q162 1084 180 1067Q219 1031 219 969Q252 966 284 941Q313 918 313 903ZM270 68Q270 34 246 10T188 -14Q155 -14 131 10T106 68Q106 101 130 125T188 150Q222 150 246 126T270 68Z"  />
<glyph unicode="&quot;" horiz-adv-x="592" d="M116 1048H239V665H116V1048ZM353 1048H476V665H353V1048Z"  />
<glyph unicode="#" horiz-adv-x="756" d="M439 261H259L218 0H119L160 261H25V353H174L204 542H66V635H218L259 895H358L316 635H497L539 895H637L597 635H731V542H582L553 353H690V261H539L497 0H399L439 261ZM454 353L483 542H302L273 353H454Z"  />
<glyph unicode="$" horiz-adv-x="1024" d="M846 322Q846 186 756 91Q679 10 565 -14V-92H483V-14Q436 -14 361 23T266 61Q232 61 201 36T170 10Q156 10 156 47Q156 80 181 113T238 150Q195 200 195 281Q195 317 210 357Q224 393 231 393Q246 393 246 336Q246 267 328 194T483 121V535Q338 601 280 675T221 872Q221 981 294 1070Q371 1164 483 1171V1239H565V1171Q597 1171 634 1161T696 1151Q766 1151 809 1221Q827 1202 827 1165Q827 1089 758 1071Q838 1018 838 907Q838 825 813 825Q812 825 796 874Q777 932 745 967Q690 1027 565 1036V680Q713 614 776 538Q846 455 846 322ZM483 717V1036Q424 1035 380 999Q328 957 328 887Q328 786 483 717ZM739 301Q739 359 690 414T565 498V121Q630 121 681 166Q739 218 739 301Z"  />
<glyph unicode="%" horiz-adv-x="943" d="M693 910H792L250 -36H151L693 910ZM646 215Q646 140 668 103T729 66Q767 66 789 103T812 215Q812 289 790 326T729 363Q691 363 669 326T646 215ZM547 215Q547 329 600 390Q652 451 729 451Q805 451 857 390Q910 331 910 215Q910 158 896 115T857 41T799 -4T729 -20Q691 -20 658 -5T601 41T562 114T547 215ZM131 660Q131 585 153 548T214 511Q252 511 274 548T297 660Q297 732 275 770T214 808Q176 808 154 770T131 660ZM32 660Q32 771 85 833Q138 895 214 895Q290 895 342 833Q396 773 396 660Q396 603 382 559T342 484T284 439T214 423Q176 423 143 438T86 484T47 558T32 660Z"  />
<glyph unicode="&amp;" horiz-adv-x="809" d="M333 371Q289 340 262 317T218 274T195 239T189 209Q189 174 216 147Q243 119 281 119Q317 119 353 148Q373 162 397 186T451 244L333 371ZM666 486L751 379L638 253L805 78L698 -17L544 148Q508 103 475 72T407 21T339 -8T267 -17Q220 -17 180 0T111 48T64 118T47 206Q47 281 98 348T243 470Q199 512 177 565T154 669Q154 712 171 749T219 815T290 859T376 875Q424 875 464 859T533 815T579 752T595 678Q595 649 585 617T555 555T507 498T443 451L542 351L666 486ZM355 544Q387 565 407 583T438 618T454 647T458 672Q458 705 434 728T376 751Q343 751 318 730T292 666Q292 640 309 608T355 544Z"  />
<glyph unicode="&apos;" horiz-adv-x="350" d="M113 1048H236V665H113V1048Z"  />
<glyph unicode="(" horiz-adv-x="682" d="M588 -256Q588 -270 569 -270Q553 -270 455 -182Q135 103 135 440Q135 814 487 1153Q545 1208 563 1208Q584 1208 584 1194Q584 1186 555 1153Q285 844 285 440Q285 111 524 -170Q588 -244 588 -256Z"  />
<glyph unicode=")" horiz-adv-x="682" d="M547 440Q547 103 227 -182Q129 -270 111 -270Q94 -270 94 -256Q94 -244 158 -170Q397 111 397 440Q397 844 127 1153Q98 1186 98 1194Q98 1208 119 1208Q137 1208 195 1153Q547 814 547 440Z"  />
<glyph unicode="*" horiz-adv-x="404" d="M61 764L148 861L28 905L55 968L165 925V1048H239V925L351 968L376 905L255 861L343 764L286 716L202 826L118 716L61 764Z"  />
<glyph unicode="+" horiz-adv-x="873" d="M376 736H497V429H805V307H497V0H376V307H69V429H376V736Z"  />
<glyph unicode="&#x2c;" horiz-adv-x="379" d="M140 206H299L116 -176H-14L140 206Z"  />
<glyph unicode="-" horiz-adv-x="458" d="M69 369H390V239H69V369Z"  />
<glyph unicode="." horiz-adv-x="379" d="M270 68Q270 34 246 10T188 -14Q155 -14 131 10T106 68Q106 101 130 125T188 150Q222 150 246 126T270 68Z"  />
<glyph unicode="/" horiz-adv-x="1024" d="M825 1280L317 -350L227 -322L735 1309L825 1280Z"  />
<glyph unicode="0" horiz-adv-x="872" d="M795 551Q795 264 679 113Q582 -14 432 -14Q63 -14 63 602Q63 861 156 1014Q252 1171 422 1171Q589 1171 688 1018Q795 853 795 551ZM653 569Q653 784 599 916Q538 1061 426 1061Q315 1061 257 938Q205 827 205 635Q229 659 264 659Q330 659 330 602Q209 602 209 440Q209 298 270 199Q334 96 434 96Q653 96 653 569Z"  />
<glyph unicode="1" horiz-adv-x="872" d="M586 10Q586 0 565 0H295Q274 0 274 10Q274 26 317 31Q367 37 367 100V868Q367 969 295 969Q265 969 262 981Q259 994 286 1014T338 1034Q383 1034 399 1018Q395 1087 430 1118Q455 1140 459 1163Q465 1210 477 1210Q494 1210 494 1180V100Q494 37 543 31Q586 26 586 10Z"  />
<glyph unicode="2" horiz-adv-x="872" d="M840 119Q840 107 793 100Q778 98 749 73T678 47Q686 31 686 10Q686 -21 669 -43T633 -66Q621 -66 621 -49Q621 0 567 0H90Q63 0 63 59Q63 195 123 292Q185 393 348 518Q607 716 610 891Q612 970 555 1021T412 1073Q352 1073 296 1035T240 948Q240 866 313 866Q319 866 327 868T340 870Q352 870 352 852Q352 826 315 802T233 778Q171 778 130 818T88 915Q88 1013 175 1089Q270 1171 412 1171Q557 1171 646 1089T737 868Q740 646 440 426Q301 324 248 254Q205 196 205 135H809Q840 135 840 119Z"  />
<glyph unicode="3" horiz-adv-x="872" d="M791 338Q791 183 684 87Q573 -14 383 -14Q241 -14 147 68Q59 144 59 242Q59 298 101 338T205 379Q252 379 295 348T338 287Q338 272 315 272Q312 272 296 276T270 281Q201 281 201 207Q201 160 258 122T381 84Q517 84 592 152Q664 218 664 330Q664 429 586 501Q506 578 385 578Q346 578 332 575L289 676Q562 889 612 1012H90Q59 1012 59 1028Q59 1040 106 1047Q121 1049 152 1075Q180 1100 221 1100Q213 1116 213 1137Q213 1168 230 1190T266 1212Q279 1212 279 1196Q279 1147 332 1147H752Q776 1147 776 1108Q776 1043 709 937Q621 797 467 690Q610 669 698 579Q791 484 791 338Z"  />
<glyph unicode="4" horiz-adv-x="872" d="M834 537L768 401H680V100Q680 37 729 31Q772 26 772 10Q772 0 752 0H481Q461 0 461 10Q461 26 504 31Q553 37 553 100V401H100L20 537Q131 635 208 760T285 973Q285 1083 197 1083Q167 1083 162 1096Q154 1114 191 1142T279 1171Q339 1171 375 1122T412 997Q412 767 147 537H553V829Q553 930 481 930Q452 930 449 942Q445 955 472 975T524 995Q569 995 586 979Q581 1048 616 1079Q642 1101 645 1124Q652 1171 664 1171Q680 1171 680 1141V537H834Z"  />
<glyph unicode="5" horiz-adv-x="872" d="M829 1028Q829 1012 799 1012H256V690Q332 723 434 723Q582 723 683 619T784 365Q784 189 671 88T377 -14Q235 -14 141 68Q53 144 53 242Q53 298 95 338T199 379Q246 379 289 348T332 287Q332 272 309 272Q306 272 290 276T264 281Q195 281 195 207Q195 160 252 122T375 84Q494 84 575 152T657 326Q657 456 587 536Q519 612 418 612Q290 612 195 549L129 604V1122Q129 1147 152 1147H557Q610 1147 610 1196Q610 1212 623 1212Q641 1212 658 1190T676 1137Q676 1116 668 1100Q709 1100 737 1075Q753 1062 782 1047Q829 1040 829 1028Z"  />
<glyph unicode="6" horiz-adv-x="872" d="M768 360Q768 196 667 91T416 -14Q248 -14 154 150Q63 307 63 569Q63 825 142 980Q239 1171 442 1171Q584 1171 679 1089Q766 1013 766 915Q766 859 725 819T621 778Q577 778 540 802T502 852Q502 870 514 870Q518 870 526 868T541 866Q625 866 625 948Q625 986 577 1022Q526 1061 461 1061Q317 1061 252 888Q205 762 205 565Q205 508 207 496V498H211Q221 579 281 610Q272 631 272 655Q272 680 288 704T322 729Q330 729 330 705Q330 670 354 670Q355 670 401 681T473 692Q601 692 683 605Q768 514 768 360ZM627 346Q627 444 580 509Q527 582 434 582Q379 582 314 550Q245 516 205 465Q205 306 266 201T428 96Q519 96 575 173Q627 244 627 346Z"  />
<glyph unicode="7" horiz-adv-x="872" d="M838 1106Q387 431 387 223Q387 43 514 43Q543 43 543 25Q543 7 511 -8T438 -23Q347 -23 289 53Q236 122 236 217Q236 446 647 1012H27Q-4 1012 -4 1028Q-4 1040 43 1047Q57 1049 88 1075Q116 1100 158 1100Q150 1116 150 1137Q150 1168 167 1190T203 1212Q215 1212 215 1196Q215 1147 268 1147H815L838 1106Z"  />
<glyph unicode="8" horiz-adv-x="872" d="M778 299Q778 176 675 81T438 -14Q266 -14 160 99Q72 193 72 297Q72 507 309 645Q133 769 133 920Q133 1028 220 1103Q299 1171 395 1171Q463 1171 463 1198Q463 1205 460 1212T457 1223Q457 1237 473 1237Q487 1237 503 1212T520 1161Q520 1148 514 1139Q569 1119 580 1063Q583 1045 590 1036Q604 1018 604 1006Q604 997 594 997Q596 997 543 1035T426 1073Q352 1073 303 1026Q260 984 260 934Q260 818 422 717Q525 775 586 866Q645 952 645 1034Q645 1078 626 1122Q609 1162 608 1161Q608 1171 623 1171Q650 1171 688 1109Q729 1041 729 977Q729 797 539 645Q647 586 712 492T778 299ZM637 301Q637 467 424 573Q223 468 223 301Q223 213 283 155T424 96Q513 96 575 157T637 301Z"  />
<glyph unicode="9" horiz-adv-x="872" d="M768 588Q768 332 689 177Q592 -14 389 -14Q248 -14 153 68Q66 144 66 242Q66 298 107 338T211 379Q255 379 292 356T330 305Q330 287 317 287Q314 287 305 289T291 291Q207 291 207 209Q207 171 254 135Q305 96 371 96Q515 96 579 269Q627 395 627 592Q627 649 625 662V659H621Q610 578 551 547Q559 526 559 502Q559 477 543 453T510 428Q502 428 502 453Q502 487 477 487Q476 487 430 476T358 465Q230 465 149 552Q63 643 63 797Q63 961 164 1066T416 1171Q584 1171 678 1007Q768 850 768 588ZM627 692Q627 851 565 956T403 1061Q312 1061 257 984Q205 913 205 811Q205 713 252 648Q304 575 397 575Q452 575 517 607Q587 641 627 692Z"  />
<glyph unicode=":" horiz-adv-x="379" d="M270 317Q270 284 246 260T188 236Q155 236 131 260T106 317Q106 351 130 375T188 399Q222 399 246 375T270 317ZM270 68Q270 34 246 10T188 -14Q155 -14 131 10T106 68Q106 101 130 125T188 150Q222 150 246 126T270 68Z"  />
<glyph unicode=";" horiz-adv-x="379" d="M140 556H299V396H140V556ZM140 206H299L116 -176H-14L140 206Z"  />
<glyph unicode="&lt;" horiz-adv-x="873" d="M69 421L805 749V627L217 368L805 110V-13L69 313V421Z"  />
<glyph unicode="=" horiz-adv-x="873" d="M69 278H805V156H69V278ZM69 580H805V458H69V580Z"  />
<glyph unicode="&gt;" horiz-adv-x="873" d="M69 627V749L805 421V313L69 -13V110L656 368L69 627Z"  />
<glyph unicode="?" horiz-adv-x="756" d="M273 160H434V0H273V160ZM273 351Q273 385 275 406T285 444T305 478T340 521Q379 564 405 597T448 658T472 710T479 762Q479 838 437 877Q398 919 341 919Q279 919 242 876T190 731L60 782Q83 922 157 991T350 1061Q409 1061 460 1041T550 981T611 886T633 756Q633 690 597 619T501 481Q480 457 467 439T447 404T437 372T434 336V220H273V351Z"  />
<glyph unicode="@" horiz-adv-x="1163" d="M809 808H916L800 407Q794 390 790 372T786 336Q786 322 794 314T822 305Q854 305 888 329T952 395T999 490T1018 602Q1018 684 985 751T895 866T763 940T605 966Q503 966 419 930T274 832T180 689T146 519Q146 428 182 349T281 210T430 116T618 82Q669 82 719 93T815 123T897 168T959 223H1081Q1006 105 882 38Q760 -26 612 -26Q489 -26 383 16T199 132T77 307T32 525Q32 640 77 740T200 915T382 1031T605 1073Q711 1073 806 1040T974 948T1089 805T1132 621Q1132 552 1114 494T1065 388T996 306T917 246T838 210T768 198Q680 198 668 285H665Q633 247 587 223T481 198Q433 198 395 217T331 268T291 344T277 437Q277 509 300 579T367 706T471 797T605 832Q661 832 705 806T779 721L809 808ZM734 583Q734 611 725 636T698 681T658 712T609 724Q563 724 523 699T454 635T407 546T390 449Q390 419 398 393T423 347T464 316T521 305Q568 305 607 333T674 402T718 492T734 583Z"  />
<glyph unicode="A" horiz-adv-x="1078" d="M-29 22L553 1073L1107 6L948 -26L736 391H340L116 -26L-29 22ZM678 522L553 779L411 522H678Z"  />
<glyph unicode="B" horiz-adv-x="756" d="M241 588H346Q436 588 490 640Q544 691 544 774Q544 805 533 831T501 876T454 905T397 916H241V588ZM241 131H371Q464 131 508 177T553 297Q553 375 497 421T341 467H241V131ZM82 1048H371Q537 1048 620 976T704 779Q704 730 691 691T656 621T603 569T536 536V533Q623 508 668 446T713 295Q713 225 688 170T619 78T516 20T388 0H82V1048Z"  />
<glyph unicode="C" horiz-adv-x="782" d="M764 890Q691 925 605 925Q534 925 463 900T333 824T239 700T202 527Q202 441 234 368T323 239T458 153T628 122Q660 122 695 127T764 141L734 -20Q701 -23 672 -24T611 -26Q475 -26 369 17T190 134T79 307T41 521Q41 639 80 740T190 915T363 1031T588 1073Q629 1073 668 1069T734 1054L764 890Z"  />
<glyph unicode="D" horiz-adv-x="970" d="M241 131H333Q428 131 504 158T633 235T716 356T745 516Q745 600 718 671T642 794T530 875T391 905H241V131ZM82 1048H374Q479 1047 575 1010T744 903T861 738T905 524Q905 406 862 310T745 144T575 38T374 0H82V1048Z"  />
<glyph unicode="E" horiz-adv-x="673" d="M82 1048H597L635 905H241V605H557V467H241V143H686L625 0H82V1048Z"  />
<glyph unicode="F" horiz-adv-x="592" d="M82 1048H583L621 905H241V605H515V467H241V6L82 -6V1048Z"  />
<glyph unicode="G" horiz-adv-x="1078" d="M899 806Q835 863 762 894T600 925Q525 925 454 897T326 816T236 690T202 524Q202 432 236 358T326 231T453 150T600 122Q685 122 754 150Q829 179 872 212V453H644V588H1026V124Q978 91 930 63T829 16T719 -15T595 -26Q484 -26 384 14T207 126T86 300T41 524Q41 647 86 748T207 921T383 1033T595 1073Q845 1073 1003 910L899 806Z"  />
<glyph unicode="H" horiz-adv-x="1051" d="M809 467H241V6L82 -6V1041L241 1054V605H809V1041L968 1054V6L809 -6V467Z"  />
<glyph unicode="I" horiz-adv-x="323" d="M82 1041L241 1054V6L82 -6V1041Z"  />
<glyph unicode="J" horiz-adv-x="484" d="M243 1041L403 1054V301Q403 206 370 143T283 43T162 -10T29 -26Q13 -26 0 -25T-25 -17V125Q-13 123 -1 123T28 122Q73 122 112 133T180 168T226 231T243 327V1041Z"  />
<glyph unicode="K" horiz-adv-x="782" d="M661 -26L244 511H241V6L82 -6V1041L241 1054V537H244L672 1073L805 991L431 522L814 41L661 -26Z"  />
<glyph unicode="L" horiz-adv-x="699" d="M82 1041L241 1054V148H715L653 0H82V1041Z"  />
<glyph unicode="M" horiz-adv-x="1266" d="M1112 1073L1231 6L1070 -6L1011 609H1008L633 -6L257 609H255L195 -6L35 6L154 1073L633 285L1112 1073Z"  />
<glyph unicode="N" horiz-adv-x="1024" d="M243 6L89 -6V1073L782 360V1041L936 1054V-38L243 687V6Z"  />
<glyph unicode="O" horiz-adv-x="1213" d="M202 524Q202 439 235 366T323 238T452 153T607 122Q688 122 761 153T889 238T978 365T1011 524Q1011 609 978 682T890 809T761 894T607 925Q526 925 453 894T324 809T235 682T202 524ZM41 524Q42 643 89 744T215 918T396 1032T607 1073Q715 1073 817 1032T997 918T1123 744T1171 524Q1171 404 1124 304T998 130T817 15T607 -26Q498 -25 396 16T216 130T90 303T41 524Z"  />
<glyph unicode="P" horiz-adv-x="756" d="M241 566Q262 560 288 558T353 556Q458 556 517 603T577 737Q577 776 564 808T524 865T460 902T371 916H241V566ZM82 1048H382Q460 1048 525 1027T638 967T711 873T737 747Q737 678 712 619T636 515T507 445T322 419Q299 419 279 420T241 423V6L82 -6V1048Z"  />
<glyph unicode="Q" horiz-adv-x="1213" d="M764 297L870 394L948 313Q1011 407 1011 524Q1011 609 978 682T890 809T761 894T607 925Q526 925 453 894T324 809T235 682T202 524Q202 439 235 366T323 238T452 153T607 122Q676 122 738 143T851 206L764 297ZM957 94Q882 38 793 6T607 -26Q498 -25 396 16T216 130T90 303T41 524Q42 643 89 744T215 918T396 1032T607 1073Q715 1073 817 1032T997 918T1123 744T1171 524Q1171 428 1142 347T1059 198L1159 92L1054 -6L957 94Z"  />
<glyph unicode="R" horiz-adv-x="727" d="M82 1048H307Q401 1048 469 1025T583 960T650 865T672 749Q672 644 608 565Q543 489 428 470L751 41L605 -26L244 474H241V6L82 -6V1048ZM241 573H325Q369 573 404 584T465 621Q518 669 518 745Q518 785 503 817T461 871T399 904T325 916H241V573Z"  />
<glyph unicode="S" horiz-adv-x="727" d="M577 800Q533 860 486 895T382 931Q313 931 267 889Q220 848 220 776Q219 735 239 707T292 657T367 620T452 586Q513 566 564 530Q590 512 612 490T651 440T677 376T686 295Q686 229 661 171T592 69T488 0T358 -26Q255 -26 177 19T41 150L156 262Q198 196 250 156T363 116Q399 116 428 129T479 166T513 219T525 283Q525 328 505 357T452 408T377 444T292 476Q248 493 206 515T132 570T80 652T60 770Q60 836 85 891T154 987T257 1050T385 1073Q435 1073 477 1061T556 1027T622 975T679 907L577 800Z"  />
<glyph unicode="T" horiz-adv-x="698" d="M269 905H-29L17 1048H696V905H429V6L269 -6V905Z"  />
<glyph unicode="U" horiz-adv-x="916" d="M675 1041L835 1054V343Q834 241 801 171T715 57T594 -6T458 -26Q389 -26 322 -7T202 57T115 171T82 343V1041L241 1054V388Q241 311 258 259T305 175T374 130T458 116Q503 116 542 129T611 174T658 258T675 388V1041Z"  />
<glyph unicode="V" horiz-adv-x="863" d="M-38 1048H134L428 343L734 1048H901L428 -38L-38 1048Z"  />
<glyph unicode="W" horiz-adv-x="1295" d="M647 486L412 -38L-38 1048H128L421 332L570 660L393 1048H553L647 828L742 1048H902L724 660L873 332L1166 1048H1333L883 -38L647 486Z"  />
<glyph unicode="X" horiz-adv-x="835" d="M418 397L118 -26L-17 52L323 537L-5 991L129 1073L418 675L706 1073L840 991L512 537L852 52L718 -26L418 397Z"  />
<glyph unicode="Y" horiz-adv-x="756" d="M-38 1009L111 1073L415 573L633 1073L779 1009L313 -26L162 14L335 404L-38 1009Z"  />
<glyph unicode="Z" horiz-adv-x="889" d="M588 905H17L43 1048H870L289 143H882L855 0H8L588 905Z"  />
<glyph unicode="[" horiz-adv-x="758" d="M618 -270H160V1208H618V1098H295V-160H618V-270Z"  />
<glyph unicode="\" horiz-adv-x="1024" d="M825 -322L735 -350L227 1280L317 1309L825 -322Z"  />
<glyph unicode="]" horiz-adv-x="758" d="M598 -270H139V-160H463V1098H139V1208H598V-270Z"  />
<glyph unicode="^" horiz-adv-x="873" d="M437 751L206 272H83L380 875H493L790 272H668L437 751Z"  />
<glyph unicode="_" horiz-adv-x="727" d="M0 -110H727V-182H0V-110Z"  />
<glyph unicode="`" horiz-adv-x="267" d="M-50 829H131L215 649H108L-50 829Z"  />
<glyph unicode="a" horiz-adv-x="566" d="M181 183Q181 144 204 124T269 104Q311 104 334 124T358 183Q358 215 335 234T269 253Q228 253 205 234T181 183ZM358 376Q358 407 336 423T247 439Q215 439 182 434T111 421L150 551Q184 555 215 558T277 562Q391 562 443 531T495 421V6L363 -6V55H360Q346 16 310 0T223 -17Q134 -17 86 38T38 185Q38 231 53 268T95 331T156 371T227 385Q266 385 299 373T358 333V376Z"  />
<glyph unicode="b" horiz-adv-x="699" d="M206 278Q206 242 217 212T250 160T299 126T360 113Q429 113 474 160Q519 206 519 278Q519 349 474 396Q429 443 360 443Q327 443 299 431T250 396T218 344T206 278ZM63 1041L206 1054V492Q239 531 284 552T376 573Q433 573 485 555T576 499T639 407T663 278Q663 205 640 150T577 58T485 2T376 -17Q305 -17 248 2T149 59T86 155T63 289V1041Z"  />
<glyph unicode="c" horiz-adv-x="566" d="M467 393Q443 416 414 429T350 443Q269 443 225 398T181 281Q181 198 226 156Q272 113 336 113Q381 113 415 126T484 174L542 51Q521 34 494 21T439 0T383 -13T335 -17Q270 -17 216 4T122 64T60 160T38 289Q38 354 62 406T127 496T219 553T325 573Q392 573 441 554T537 504L467 393Z"  />
<glyph unicode="d" horiz-adv-x="727" d="M522 278Q522 350 475 396Q428 443 353 443Q275 443 228 396Q181 349 181 278Q181 207 228 160Q275 113 353 113Q428 113 475 160Q522 206 522 278ZM522 1041L665 1054V6L522 -6V50Q478 8 434 -5Q390 -17 336 -17Q275 -17 221 2T126 58T62 150T38 278Q38 351 61 406T125 499T220 554T336 573Q453 573 522 492V1041Z"  />
<glyph unicode="e" horiz-adv-x="592" d="M418 421Q373 451 316 451Q295 451 271 441T225 411T189 362T174 295Q174 289 176 280T181 264L418 421ZM220 162Q267 104 338 104Q385 104 421 124T501 192L553 69Q508 21 454 2T335 -17Q270 -17 216 4T122 64T60 160T38 289Q38 354 62 406T127 496T219 553T325 573Q421 573 484 530T594 401L220 162Z"  />
<glyph unicode="f" horiz-adv-x="323" d="M63 795Q63 915 131 988T344 1073V931Q273 923 240 890T206 784V556H330V424H206V6L63 -6V795Z"  />
<glyph unicode="g" horiz-adv-x="592" d="M169 338Q169 284 201 257T285 230Q336 230 368 257T400 338Q400 389 368 416T285 443Q234 443 202 416T169 338ZM128 -23Q156 -74 192 -99T270 -124Q296 -124 318 -115T355 -91T379 -55T388 -10Q388 17 376 39T345 76T302 100T252 108Q214 108 176 91T107 50L139 153Q88 179 60 228T32 332Q32 395 54 440T112 515T193 559T283 573Q306 573 327 570T368 565Q388 562 409 559T453 556Q481 556 507 557T560 562L542 467H492Q515 443 528 407T542 338Q542 286 522 243T449 162Q493 119 512 78T531 -8Q531 -63 510 -107T453 -182T367 -229T262 -246Q196 -246 141 -219T41 -129L128 -23Z"  />
<glyph unicode="h" horiz-adv-x="592" d="M63 1041L206 1054V490H209Q235 540 271 556T350 573Q387 573 420 562T477 528T516 475T530 403V6L388 -6V316Q388 372 364 401T297 431Q255 431 231 396T206 304V6L63 -6V1041Z"  />
<glyph unicode="i" horiz-adv-x="267" d="M63 829H206V681H63V829ZM63 550L206 562V6L63 -6V550Z"  />
<glyph unicode="j" horiz-adv-x="267" d="M63 829H206V681H63V829ZM63 550L206 562V-38Q206 -92 188 -130T142 -192T78 -229T8 -246V-92Q35 -83 49 -64T63 0V550Z"  />
<glyph unicode="k" horiz-adv-x="592" d="M63 1041L206 1054V298L493 591L605 504L382 279L605 41L477 -26L206 264V6L63 -6V1041Z"  />
<glyph unicode="l" horiz-adv-x="267" d="M63 1041L206 1054V6L63 -6V1041Z"  />
<glyph unicode="m" horiz-adv-x="887" d="M683 323Q683 384 660 407T600 431Q562 431 539 403T515 308V6L372 -6V323Q372 384 350 407T290 431Q252 431 229 403T206 308V6L63 -6V550L199 562V493H202Q210 510 224 524T258 550Q301 573 343 573Q391 573 424 552T486 486Q517 531 552 552T644 573Q727 573 776 525T825 390V6L683 -6V323Z"  />
<glyph unicode="n" horiz-adv-x="592" d="M63 550L206 562V490H209Q235 540 271 556T350 573Q387 573 420 562T477 528T516 475T530 403V6L388 -6V316Q388 372 364 401T297 431Q255 431 231 396T206 304V6L63 -6V550Z"  />
<glyph unicode="o" horiz-adv-x="672" d="M38 278Q38 336 61 389T124 483T218 548T336 573Q400 573 455 549T550 483T612 389T635 278Q635 221 613 168T550 73T455 8T336 -17Q273 -17 219 7T124 73T61 167T38 278ZM336 113Q403 113 447 160Q492 205 492 278Q492 350 447 397Q403 443 336 443Q303 443 275 431T226 396T193 344T181 278Q181 242 193 212T225 160T274 126T336 113Z"  />
<glyph unicode="p" horiz-adv-x="699" d="M206 278Q206 242 217 212T250 160T299 126T360 113Q429 113 474 160Q519 206 519 278Q519 349 474 396Q429 443 360 443Q327 443 299 431T250 396T218 344T206 278ZM63 550L206 562V492Q239 531 284 552T376 573Q433 573 485 555T576 499T639 407T663 278Q663 205 640 150T577 58T485 2T376 -17Q334 -17 292 -5T206 50V-234L63 -246V550Z"  />
<glyph unicode="q" horiz-adv-x="727" d="M522 278Q522 350 475 396Q428 443 353 443Q275 443 228 396Q181 349 181 278Q181 207 228 160Q275 113 353 113Q428 113 475 160Q522 206 522 278ZM522 550L665 562V-234L522 -246V50Q478 8 434 -5Q390 -17 336 -17Q275 -17 221 2T126 58T62 150T38 278Q38 351 61 406T125 499T220 554T336 573Q453 573 522 492V550Z"  />
<glyph unicode="r" horiz-adv-x="351" d="M206 562V504H209Q233 537 272 555T365 573V431H333Q261 431 234 398T206 295V6L63 -6V550L206 562Z"  />
<glyph unicode="s" horiz-adv-x="458" d="M327 383Q308 427 286 443T240 460Q217 460 200 448T183 412Q183 385 200 372T244 351T302 334T359 308T403 261T421 178Q421 135 404 100T359 38T291 -2T209 -17Q162 -17 120 -1T38 58L121 154Q138 132 163 114T220 96Q246 96 264 111T283 157Q283 183 266 198T222 223T165 243T108 269T65 314T47 388Q47 425 61 459T99 518T159 558T236 573Q264 573 290 564T338 540T380 504T414 461L327 383Z"  />
<glyph unicode="t" horiz-adv-x="376" d="M32 556H86V731L229 802V556H344V424H229V229Q229 172 254 149T325 125H344V-6H313Q212 -6 148 37Q86 81 86 179V424H32V556Z"  />
<glyph unicode="u" horiz-adv-x="592" d="M63 550L206 562V240Q206 183 229 154T295 125Q337 125 362 160T388 252V550L530 562V6L388 -6V66H385Q357 18 321 1T243 -17Q206 -17 173 -6T116 28T77 81T63 153V550Z"  />
<glyph unicode="v" horiz-adv-x="539" d="M-13 547L132 573L269 267L406 573L551 547L299 0H236L-13 547Z"  />
<glyph unicode="w" horiz-adv-x="809" d="M-3 556L140 573L244 270L372 562H437L565 277L669 573L812 556L612 0H548L404 302L261 0H197L-3 556Z"  />
<glyph unicode="x" horiz-adv-x="539" d="M8 508L134 573L269 388L403 573L531 508L362 277L542 38L406 -17L269 174L132 -17L-3 38L179 277L8 508Z"  />
<glyph unicode="y" horiz-adv-x="592" d="M-13 547L131 573L297 225L461 573L605 547L220 -246L69 -234L212 60L-13 547Z"  />
<glyph unicode="z" horiz-adv-x="458" d="M234 424H32L71 556H461L224 131H461V0H-3L234 424Z"  />
<glyph unicode="{" horiz-adv-x="637" d="M108 515Q131 516 152 528T191 561T218 612T228 681V1024Q228 1069 241 1103T277 1161T329 1196T390 1208H505V1085H442Q417 1085 402 1077T379 1053T369 1019T366 979V657Q366 608 351 574T315 518T273 485T239 470V467Q251 464 272 453T315 419T351 362T366 279V-42Q366 -64 368 -83T379 -117T402 -140T442 -149H505V-270H390Q358 -270 329 -259T278 -225T242 -168T228 -88V256Q228 293 218 323T191 374T153 408T108 421V515Z"  />
<glyph unicode="|" horiz-adv-x="457" d="M296 -270H161V1208H296V-270Z"  />
<glyph unicode="}" horiz-adv-x="637" d="M529 421Q506 420 485 408T446 375T419 323T409 256V-88Q409 -133 396 -167T360 -224T308 -258T247 -270H132V-149H195Q220 -149 235 -141T258 -118T268 -84T271 -42V279Q271 328 286 362T322 418T364 452T398 467V470Q386 473 365 484T322 518T286 574T271 657V979Q271 1000 269 1019T258 1053T235 1076T195 1085H132V1208H247Q279 1208 308 1196T359 1161T395 1104T409 1024V681Q409 643 419 613T446 561T484 528T529 515V421Z"  />
<glyph unicode="~" horiz-adv-x="873" d="M92 357Q136 426 182 453T282 481Q325 481 367 466T451 428Q490 404 528 392T592 379Q656 379 721 489L782 380Q737 310 691 283T591 255Q548 255 505 270T421 307Q379 330 343 344T281 358Q216 358 153 247L92 357Z"  />
<glyph unicode="&#xA0;" horiz-adv-x="342" />
<glyph unicode="&#xA1;" horiz-adv-x="379" d="M110 817H269V656H110V817ZM110 595H269V-234L110 -246V595Z"  />
<glyph unicode="&#xA2;" horiz-adv-x="756" d="M366 -20Q259 -2 193 78Q127 159 127 286Q127 347 146 396T199 482T275 542T366 573V633H460V573Q509 567 548 550T626 504L557 399Q514 440 460 451V111Q493 113 519 126T573 164L630 48Q599 20 550 3Q526 -5 504 -10T460 -20V-80H366V-20ZM366 443Q264 401 264 279Q264 210 291 171T366 116V443Z"  />
<glyph unicode="&#xA3;" horiz-adv-x="756" d="M160 414H78V556H186L234 811Q247 878 275 927T340 1008T424 1057T519 1073Q557 1073 593 1068T670 1049L684 889Q646 911 611 921T542 931Q488 931 441 890Q395 849 379 756L340 556H594V414H313L267 160H707L672 0H83L160 414Z"  />
<glyph unicode="&#xA4;" horiz-adv-x="756" d="M140 437Q140 381 157 336T205 258T281 207T379 189Q432 189 476 207T551 257T599 335T616 437Q616 492 599 538T551 616T476 666T379 684Q325 684 281 666T206 616T157 538T140 437ZM11 139L92 220Q57 265 37 320T17 437Q17 500 37 555T92 655L11 734L82 805L162 724Q207 759 261 778T379 797Q440 797 493 778T595 724L675 805L745 734L665 655Q699 610 719 555T739 437Q739 375 719 321T665 218L745 139L675 69L595 150Q500 76 379 76Q316 76 262 95T162 148L82 69L11 139Z"  />
<glyph unicode="&#xA5;" horiz-adv-x="756" d="M298 218H47V316H298V414H47V512H243L-17 1009L118 1073L379 573L640 1073L772 1009L502 512H710V414H458V316H710V218H458V6L298 -6V218Z"  />
<glyph unicode="&#xA6;" horiz-adv-x="323" d="M101 982H223V473H101V982ZM101 255H223V-255H101V255Z"  />
<glyph unicode="&#xA7;" horiz-adv-x="699" d="M267 511Q242 492 229 471T215 426Q215 412 219 400T234 375T264 346T313 308L441 220Q471 243 483 267T495 305Q495 318 490 331T466 363T415 406T325 470L267 511ZM168 31Q215 -5 260 -27T343 -50Q377 -50 400 -34T423 17Q423 29 416 42T389 73T336 116T250 176Q185 219 147 249T90 305T66 353T61 407Q61 508 176 583Q140 610 127 638T113 706Q113 746 131 780T182 840T256 880T346 895Q411 895 467 876T583 814L509 707Q461 744 422 758T340 772Q313 772 293 759T273 713Q273 689 300 665T367 615T455 560T543 497T611 421T638 330Q638 271 609 230Q594 210 576 188T534 141Q577 92 577 31Q577 -17 558 -55T506 -118T429 -157T336 -171Q286 -171 220 -148Q187 -136 156 -121T97 -85L168 31Z"  />
<glyph unicode="&#xA8;" horiz-adv-x="267" d="M183 829H332V681H183V829ZM-64 829H85V681H-64V829Z"  />
<glyph unicode="&#xA9;" horiz-adv-x="1163" d="M146 524Q146 428 179 347T271 207T409 115T582 82Q674 82 754 115T892 207T984 347T1018 524Q1018 619 985 700T893 840T754 932T582 966Q489 966 410 933T272 840T180 700T146 524ZM32 524Q32 638 75 738T193 913T368 1031T582 1073Q696 1074 796 1031T971 914T1089 739T1132 524Q1132 410 1089 310T972 135T797 17T582 -26Q468 -26 368 17T193 135T75 310T32 524ZM867 424Q858 369 834 326T775 253T695 208T602 192Q533 192 476 217T379 288T317 393T295 524Q295 594 316 655T376 760T471 829T598 855Q699 855 773 796Q848 736 867 628H745Q734 685 693 716T591 748Q545 748 511 732T453 687T419 616T407 524Q407 476 420 435T457 364T517 316T597 299Q658 299 697 330T745 424H867Z"  />
<glyph unicode="&#xAA;" horiz-adv-x="368" d="M128 663Q128 643 143 633T186 623Q209 623 224 633T240 663Q240 681 225 692T186 703Q128 703 128 663ZM240 779Q240 795 226 804T174 814Q146 814 123 810T69 803L94 889Q121 891 144 893T192 895Q278 895 313 877T348 811V562L244 550V583H241Q233 561 209 552T156 542Q86 542 53 574T20 663Q20 716 59 746T159 776Q211 776 240 751V779Z"  />
<glyph unicode="&#xAB;" horiz-adv-x="721" d="M614 616Q614 607 596 584L440 385L592 143Q608 117 608 111Q608 100 598 100Q583 100 569 115L307 385L573 612Q590 627 604 627Q614 627 614 616ZM430 616Q430 607 412 584L256 385L408 143Q424 117 424 111Q424 100 414 100Q399 100 385 115L123 385L389 612Q406 627 420 627Q430 627 430 616Z"  />
<glyph unicode="&#xAC;" horiz-adv-x="873" d="M805 429V0H684V307H69V429H805Z"  />
<glyph unicode="&#xAD;" horiz-adv-x="458" d="M69 369H390V239H69V369Z"  />
<glyph unicode="&#xAE;" horiz-adv-x="1163" d="M580 569Q611 569 638 571T685 583T717 612T729 665Q729 693 716 709T683 735T638 746T588 749H470V569H580ZM566 481H470V209H362V837H607Q724 837 783 795T842 658Q842 615 829 585T795 534T744 503T684 492L852 209H730L566 481ZM146 524Q146 428 179 347T271 207T409 115T582 82Q674 82 754 115T892 207T984 347T1018 524Q1018 619 985 700T893 840T754 932T582 966Q489 966 410 933T272 840T180 700T146 524ZM32 524Q32 638 75 738T193 913T367 1031T582 1073Q696 1074 796 1031T971 914T1089 739T1132 524Q1132 410 1089 310T972 135T797 17T582 -26Q468 -26 368 17T193 135T75 310T32 524Z"  />
<glyph unicode="&#xAF;" horiz-adv-x="267" d="M-41 794H310V681H-41V794Z"  />
<glyph unicode="&#xB0;" horiz-adv-x="582" d="M162 678Q162 624 199 586Q237 548 292 548Q344 548 382 586Q421 625 421 678Q421 731 382 770Q344 808 292 808Q237 808 199 770Q162 732 162 678ZM73 678Q73 723 90 762T137 831T207 878T292 895Q336 895 375 878T443 832T490 763T508 678Q508 633 491 594T444 525T375 478T292 461Q247 461 207 478T137 524T90 593T73 678Z"  />
<glyph unicode="&#xB1;" horiz-adv-x="873" d="M69 122H805V0H69V122ZM376 736H497V515H805V393H497V171H376V393H69V515H376V736Z"  />
<glyph unicode="&#xB2;" horiz-adv-x="490" d="M171 595Q112 612 77 646T41 734Q41 766 55 795T97 847T162 882T249 895Q336 895 388 849Q441 804 441 734Q441 696 420 650T339 542L253 457H449L419 358H55L286 635Q308 661 317 685T327 730Q327 759 303 777T241 795Q206 795 181 779T156 733Q156 708 176 689T241 658L171 595Z"  />
<glyph unicode="&#xB3;" horiz-adv-x="490" d="M45 806Q79 853 124 874T220 895Q260 895 294 884T352 854T390 806T404 745Q404 703 382 674T307 627V625Q363 608 388 577T414 504Q414 436 360 391Q309 346 220 346Q161 346 116 368T41 426L104 499Q126 474 152 460T206 446Q225 446 241 452T268 467T285 489T292 515Q292 542 269 562T198 583H153V670H193Q245 670 268 688T292 731Q292 761 267 778T209 795Q182 795 157 782T116 745L45 806Z"  />
<glyph unicode="&#xB4;" horiz-adv-x="267" d="M137 829H316L160 649H52L137 829Z"  />
<glyph unicode="&#xB5;" horiz-adv-x="792" d="M554 0V87Q522 39 481 13T380 -13Q331 -13 297 4T232 59V-282H95V647H232V363Q232 322 234 276T251 192T295 128T382 102Q437 102 468 127T514 191T534 276T538 363V647H674V0H554Z"  />
<glyph unicode="&#xB6;" horiz-adv-x="873" d="M548 802H453V-140L353 -151V446Q297 446 252 462T174 506T125 572T107 656Q107 714 126 756T180 824T264 862T376 875H718L686 802H647V-140L548 -151V802Z"  />
<glyph unicode="&#xB7;" horiz-adv-x="379" d="M86 432Q86 474 116 504Q146 536 189 536Q230 536 262 504Q292 474 292 432Q292 390 262 360Q232 330 189 330Q145 330 116 360Q86 390 86 432Z"  />
<glyph unicode="&#xB8;" horiz-adv-x="267" d="M29 -262Q78 -179 78 -127Q78 -108 76 -90T66 -55Q86 -58 103 -61T139 -64Q156 -64 174 -61T209 -55V-85Q209 -121 197 -169T151 -262H29Z"  />
<glyph unicode="&#xB9;" horiz-adv-x="490" d="M214 726L111 670L69 754Q132 792 198 827T327 901V363L214 353V726Z"  />
<glyph unicode="&#xBA;" horiz-adv-x="490" d="M36 719Q36 753 51 785T93 841T159 880T244 895Q292 895 330 881T396 842T439 785T454 719Q454 684 439 652T397 596T331 557T244 542Q198 542 160 556T94 595T51 652T36 719ZM144 719Q144 700 151 684T172 655T204 635T244 628Q289 628 317 654T346 719Q346 756 318 782T244 808Q223 808 205 801T173 782T152 754T144 719Z"  />
<glyph unicode="&#xBB;" horiz-adv-x="721" d="M598 385L336 115Q322 100 307 100Q297 100 297 111Q297 117 313 143L465 385L309 584Q291 607 291 616Q291 627 301 627Q315 627 332 612L598 385ZM414 385L152 115Q138 100 123 100Q113 100 113 111Q113 117 129 143L281 385L125 584Q106 607 106 616Q106 627 117 627Q131 627 147 612L414 385Z"  />
<glyph unicode="&#xBC;" horiz-adv-x="1132" d="M214 726L111 670L69 754Q132 792 198 827T327 901V363L214 353V726ZM759 910H858L316 -36H217L759 910ZM858 212V365H855L751 212H858ZM1036 113H966V6L858 -6V113H577L867 531H966V212H1036V113Z"  />
<glyph unicode="&#xBD;" horiz-adv-x="1132" d="M787 237Q727 254 693 288T658 376Q658 408 672 437T713 489T778 524T864 537Q950 537 1003 492Q1057 444 1057 376Q1057 338 1036 292T954 185L869 99H1064L1034 0H670L902 278Q922 303 932 327T943 372Q943 401 918 419T857 437Q822 437 796 421T770 376Q770 350 791 330T857 299L787 237ZM214 726L111 670L69 754Q132 792 198 827T327 901V363L214 353V726ZM733 910H832L290 -36H190L733 910Z"  />
<glyph unicode="&#xBE;" horiz-adv-x="1132" d="M45 806Q79 853 124 874T220 895Q260 895 294 884T352 854T390 806T404 745Q404 703 382 674T307 627V625Q363 608 388 577T414 504Q414 436 360 391Q309 346 220 346Q161 346 116 368T41 426L104 499Q126 474 152 460T206 446Q225 446 241 452T268 467T285 489T292 515Q292 542 269 562T198 583H153V670H193Q245 670 268 688T292 731Q292 761 267 778T209 795Q182 795 157 782T116 745L45 806ZM759 910H858L316 -36H217L759 910ZM858 212V365H855L751 212H858ZM1036 113H966V6L858 -6V113H577L867 531H966V212H1036V113Z"  />
<glyph unicode="&#xBF;" horiz-adv-x="756" d="M323 817H483V656H323V817ZM323 595H483V465Q483 431 481 410T471 371T451 337T416 295Q377 252 351 220T308 160T285 107T278 55Q278 -19 318 -62Q360 -104 415 -104Q476 -104 514 -61T566 85L696 35Q673 -105 600 -175T407 -246Q347 -246 296 -226T206 -166T146 -69T124 61Q124 127 160 198T255 336Q298 382 310 411Q323 443 323 481V595Z"  />
<glyph unicode="&#xC0;" horiz-adv-x="1078" d="M-29 22L553 1073L1107 6L948 -26L736 391H340L116 -26L-29 22ZM678 522L553 779L411 522H678ZM356 1290H537L621 1110H514L356 1290Z"  />
<glyph unicode="&#xC1;" horiz-adv-x="1078" d="M-29 22L553 1073L1107 6L948 -26L736 391H340L116 -26L-29 22ZM678 522L553 779L411 522H678ZM543 1290H722L566 1110H458L543 1290Z"  />
<glyph unicode="&#xC2;" horiz-adv-x="1078" d="M-29 22L553 1073L1107 6L948 -26L736 391H340L116 -26L-29 22ZM678 522L553 779L411 522H678ZM461 1290H620L739 1110H596L540 1195L484 1110H340L461 1290Z"  />
<glyph unicode="&#xC3;" horiz-adv-x="1078" d="M-29 22L553 1073L1107 6L948 -26L736 391H340L116 -26L-29 22ZM678 522L553 779L411 522H678ZM324 1148Q347 1223 384 1256T467 1290Q492 1290 513 1284T553 1269T590 1254T626 1247Q646 1247 662 1259T687 1290L756 1260Q722 1194 688 1159T607 1124Q580 1124 560 1131T524 1146T492 1161T461 1168Q419 1168 389 1124L324 1148Z"  />
<glyph unicode="&#xC4;" horiz-adv-x="1078" d="M-29 22L553 1073L1107 6L948 -26L736 391H340L116 -26L-29 22ZM678 522L553 779L411 522H678ZM589 1290H738V1142H589V1290ZM342 1290H491V1142H342V1290Z"  />
<glyph unicode="&#xC5;" horiz-adv-x="1078" d="M-29 22L553 1073L1107 6L948 -26L736 391H340L116 -26L-29 22ZM678 522L553 779L411 522H678ZM477 1220Q477 1194 495 1176T540 1157Q566 1157 584 1175T603 1220Q603 1247 585 1265T540 1283Q514 1283 496 1265T477 1220ZM404 1220Q404 1248 415 1272T445 1315T488 1345T540 1356Q568 1356 592 1345T635 1316T664 1273T675 1220Q675 1193 665 1169T636 1126T593 1097T540 1086Q513 1086 489 1096T445 1125T415 1168T404 1220Z"  />
<glyph unicode="&#xC6;" horiz-adv-x="1347" d="M729 925H726L472 537H729V925ZM628 1048H1243L1281 905H889V605H1205V467H889V143H1333L1271 0H729V400H388L113 -26L-29 41L628 1048Z"  />
<glyph unicode="&#xC7;" horiz-adv-x="782" d="M764 890Q691 925 605 925Q534 925 463 900T333 824T239 700T202 527Q202 441 234 368T323 239T458 153T628 122Q660 122 695 127T764 141L734 -20Q701 -23 672 -24T611 -26Q475 -26 369 17T190 134T79 307T41 521Q41 639 80 740T190 915T363 1031T588 1073Q629 1073 668 1069T734 1054L764 890ZM465 -262Q515 -177 515 -127Q515 -91 504 -55Q520 -58 538 -61T574 -64Q592 -64 610 -61T646 -55V-85Q646 -121 634 -169T588 -262H465Z"  />
<glyph unicode="&#xC8;" horiz-adv-x="673" d="M82 1048H597L635 905H241V605H557V467H241V143H686L625 0H82V1048ZM154 1290H335L419 1110H312L154 1290Z"  />
<glyph unicode="&#xC9;" horiz-adv-x="673" d="M82 1048H597L635 905H241V605H557V467H241V143H686L625 0H82V1048ZM341 1290H520L364 1110H256L341 1290Z"  />
<glyph unicode="&#xCA;" horiz-adv-x="673" d="M82 1048H597L635 905H241V605H557V467H241V143H686L625 0H82V1048ZM259 1290H418L537 1110H394L338 1195L282 1110H138L259 1290Z"  />
<glyph unicode="&#xCB;" horiz-adv-x="673" d="M82 1048H597L635 905H241V605H557V467H241V143H686L625 0H82V1048ZM387 1290H536V1142H387V1290ZM140 1290H289V1142H140V1290Z"  />
<glyph unicode="&#xCC;" horiz-adv-x="323" d="M82 1041L241 1054V6L82 -6V1041ZM-22 1290H159L243 1110H136L-22 1290Z"  />
<glyph unicode="&#xCD;" horiz-adv-x="323" d="M82 1041L241 1054V6L82 -6V1041ZM165 1290H344L188 1110H80L165 1290Z"  />
<glyph unicode="&#xCE;" horiz-adv-x="323" d="M82 1041L241 1054V6L82 -6V1041ZM83 1290H242L361 1110H218L162 1195L106 1110H-38L83 1290Z"  />
<glyph unicode="&#xCF;" horiz-adv-x="323" d="M82 1041L241 1054V6L82 -6V1041ZM211 1290H360V1142H211V1290ZM-36 1290H113V1142H-36V1290Z"  />
<glyph unicode="&#xD0;" horiz-adv-x="970" d="M460 573V474H241V131H333Q428 131 504 158T633 235T716 356T745 516Q745 600 718 671T642 794T530 875T391 905H241V573H460ZM82 474H-14V573H82V1048H374Q479 1047 575 1010T744 903T861 738T905 524Q905 406 862 310T745 144T575 38T374 0H82V474Z"  />
<glyph unicode="&#xD1;" horiz-adv-x="1024" d="M243 6L89 -6V1073L782 360V1041L936 1054V-38L243 687V6ZM297 1148Q320 1223 357 1256T440 1290Q465 1290 486 1284T526 1269T563 1254T599 1247Q619 1247 635 1259T660 1290L729 1260Q695 1194 661 1159T580 1124Q553 1124 533 1131T497 1146T465 1161T434 1168Q392 1168 362 1124L297 1148Z"  />
<glyph unicode="&#xD2;" horiz-adv-x="1213" d="M202 524Q202 439 235 366T323 238T452 153T607 122Q688 122 761 153T889 238T978 365T1011 524Q1011 609 978 682T890 809T761 894T607 925Q526 925 453 894T324 809T235 682T202 524ZM41 524Q42 643 89 744T215 918T396 1032T607 1073Q715 1073 817 1032T997 918T1123 744T1171 524Q1171 404 1124 304T998 130T817 15T607 -26Q498 -25 396 16T216 130T90 303T41 524ZM423 1290H604L688 1110H581L423 1290Z"  />
<glyph unicode="&#xD3;" horiz-adv-x="1213" d="M202 524Q202 439 235 366T323 238T452 153T607 122Q688 122 761 153T889 238T978 365T1011 524Q1011 609 978 682T890 809T761 894T607 925Q526 925 453 894T324 809T235 682T202 524ZM41 524Q42 643 89 744T215 918T396 1032T607 1073Q715 1073 817 1032T997 918T1123 744T1171 524Q1171 404 1124 304T998 130T817 15T607 -26Q498 -25 396 16T216 130T90 303T41 524ZM610 1290H789L633 1110H525L610 1290Z"  />
<glyph unicode="&#xD4;" horiz-adv-x="1213" d="M202 524Q202 439 235 366T323 238T452 153T607 122Q688 122 761 153T889 238T978 365T1011 524Q1011 609 978 682T890 809T761 894T607 925Q526 925 453 894T324 809T235 682T202 524ZM41 524Q42 643 89 744T215 918T396 1032T607 1073Q715 1073 817 1032T997 918T1123 744T1171 524Q1171 404 1124 304T998 130T817 15T607 -26Q498 -25 396 16T216 130T90 303T41 524ZM528 1290H687L806 1110H663L607 1195L551 1110H407L528 1290Z"  />
<glyph unicode="&#xD5;" horiz-adv-x="1213" d="M202 524Q202 439 235 366T323 238T452 153T607 122Q688 122 761 153T889 238T978 365T1011 524Q1011 609 978 682T890 809T761 894T607 925Q526 925 453 894T324 809T235 682T202 524ZM41 524Q42 643 89 744T215 918T396 1032T607 1073Q715 1073 817 1032T997 918T1123 744T1171 524Q1171 404 1124 304T998 130T817 15T607 -26Q498 -25 396 16T216 130T90 303T41 524ZM391 1148Q414 1223 451 1256T534 1290Q559 1290 580 1284T620 1269T657 1254T693 1247Q713 1247 729 1259T754 1290L823 1260Q789 1194 755 1159T674 1124Q647 1124 627 1131T591 1146T559 1161T528 1168Q486 1168 456 1124L391 1148Z"  />
<glyph unicode="&#xD6;" horiz-adv-x="1213" d="M202 524Q202 439 235 366T323 238T452 153T607 122Q688 122 761 153T889 238T978 365T1011 524Q1011 609 978 682T890 809T761 894T607 925Q526 925 453 894T324 809T235 682T202 524ZM41 524Q42 643 89 744T215 918T396 1032T607 1073Q715 1073 817 1032T997 918T1123 744T1171 524Q1171 404 1124 304T998 130T817 15T607 -26Q498 -25 396 16T216 130T90 303T41 524ZM656 1290H805V1142H656V1290ZM409 1290H558V1142H409V1290Z"  />
<glyph unicode="&#xD7;" horiz-adv-x="873" d="M101 621L183 703L437 449L690 703L770 621L516 368L770 115L690 33L437 289L183 33L101 115L357 368L101 621Z"  />
<glyph unicode="&#xD8;" horiz-adv-x="1213" d="M41 87L157 193Q103 262 72 344T41 524Q42 643 89 744T215 918T396 1032T607 1073Q707 1073 800 1040T968 944L1087 1054L1171 960L1057 854Q1111 787 1141 703T1171 524Q1171 404 1124 304T998 130T817 15T607 -26Q506 -26 414 7T246 104L127 -6L41 87ZM360 209Q413 167 475 145T607 122Q688 122 761 153T889 238T978 365T1011 524Q1011 588 993 643T941 748L360 209ZM855 840Q801 881 739 903T607 925Q526 925 453 894T324 809T235 682T202 524Q202 459 220 403T272 299L855 840Z"  />
<glyph unicode="&#xD9;" horiz-adv-x="916" d="M675 1041L835 1054V343Q834 241 801 171T715 57T594 -6T458 -26Q389 -26 322 -7T202 57T115 171T82 343V1041L241 1054V388Q241 311 258 259T305 175T374 130T458 116Q503 116 542 129T611 174T658 258T675 388V1041ZM275 1290H456L540 1110H433L275 1290Z"  />
<glyph unicode="&#xDA;" horiz-adv-x="916" d="M675 1041L835 1054V343Q834 241 801 171T715 57T594 -6T458 -26Q389 -26 322 -7T202 57T115 171T82 343V1041L241 1054V388Q241 311 258 259T305 175T374 130T458 116Q503 116 542 129T611 174T658 258T675 388V1041ZM462 1290H641L485 1110H377L462 1290Z"  />
<glyph unicode="&#xDB;" horiz-adv-x="916" d="M675 1041L835 1054V343Q834 241 801 171T715 57T594 -6T458 -26Q389 -26 322 -7T202 57T115 171T82 343V1041L241 1054V388Q241 311 258 259T305 175T374 130T458 116Q503 116 542 129T611 174T658 258T675 388V1041ZM380 1290H539L658 1110H515L459 1195L403 1110H259L380 1290Z"  />
<glyph unicode="&#xDC;" horiz-adv-x="916" d="M675 1041L835 1054V343Q834 241 801 171T715 57T594 -6T458 -26Q389 -26 322 -7T202 57T115 171T82 343V1041L241 1054V388Q241 311 258 259T305 175T374 130T458 116Q503 116 542 129T611 174T658 258T675 388V1041ZM508 1290H657V1142H508V1290ZM261 1290H410V1142H261V1290Z"  />
<glyph unicode="&#xDD;" horiz-adv-x="756" d="M-38 1009L111 1073L415 573L633 1073L779 1009L313 -26L162 14L335 404L-38 1009ZM381 1290H560L404 1110H296L381 1290Z"  />
<glyph unicode="&#xDE;" horiz-adv-x="756" d="M241 707V357Q262 350 288 348T353 346Q458 346 517 393T577 528Q577 567 564 599T524 656T460 693T371 707H241ZM82 1041L241 1054V838H382Q460 838 525 817T638 757T711 662T737 537Q737 469 712 409T636 305T507 235T322 209Q299 209 279 210T241 214V6L82 -6V1041Z"  />
<glyph unicode="&#xDF;" horiz-adv-x="756" d="M63 789Q63 859 85 912T146 1001T237 1055T351 1073Q413 1073 468 1052T565 993T631 900T656 779Q656 729 642 691T606 623T555 573T499 539V537Q553 530 592 506T658 448T697 370T710 282Q710 219 686 164T622 69T531 6T424 -17Q388 -17 350 -11T281 6V143Q305 126 331 120T385 113Q457 113 507 160Q556 207 556 286Q556 372 502 422T341 473Q312 473 281 470V600Q292 597 301 596T322 595Q366 595 401 608T462 644T500 699T514 770Q514 845 472 891T357 937Q285 937 246 892T206 745V6L63 -6V789Z"  />
<glyph unicode="&#xE0;" horiz-adv-x="566" d="M181 183Q181 144 204 124T269 104Q311 104 334 124T358 183Q358 215 335 234T269 253Q228 253 205 234T181 183ZM358 376Q358 407 336 423T247 439Q215 439 182 434T111 421L150 551Q184 555 215 558T277 562Q391 562 443 531T495 421V6L363 -6V55H360Q346 16 310 0T223 -17Q134 -17 86 38T38 185Q38 231 53 268T95 331T156 371T227 385Q266 385 299 373T358 333V376ZM100 829H281L365 649H258L100 829Z"  />
<glyph unicode="&#xE1;" horiz-adv-x="566" d="M181 183Q181 144 204 124T269 104Q311 104 334 124T358 183Q358 215 335 234T269 253Q228 253 205 234T181 183ZM358 376Q358 407 336 423T247 439Q215 439 182 434T111 421L150 551Q184 555 215 558T277 562Q391 562 443 531T495 421V6L363 -6V55H360Q346 16 310 0T223 -17Q134 -17 86 38T38 185Q38 231 53 268T95 331T156 371T227 385Q266 385 299 373T358 333V376ZM287 829H466L310 649H202L287 829Z"  />
<glyph unicode="&#xE2;" horiz-adv-x="566" d="M181 183Q181 144 204 124T269 104Q311 104 334 124T358 183Q358 215 335 234T269 253Q228 253 205 234T181 183ZM358 376Q358 407 336 423T247 439Q215 439 182 434T111 421L150 551Q184 555 215 558T277 562Q391 562 443 531T495 421V6L363 -6V55H360Q346 16 310 0T223 -17Q134 -17 86 38T38 185Q38 231 53 268T95 331T156 371T227 385Q266 385 299 373T358 333V376ZM205 829H364L483 649H340L284 734L228 649H84L205 829Z"  />
<glyph unicode="&#xE3;" horiz-adv-x="566" d="M181 183Q181 144 204 124T269 104Q311 104 334 124T358 183Q358 215 335 234T269 253Q228 253 205 234T181 183ZM358 376Q358 407 336 423T247 439Q215 439 182 434T111 421L150 551Q184 555 215 558T277 562Q391 562 443 531T495 421V6L363 -6V55H360Q346 16 310 0T223 -17Q134 -17 86 38T38 185Q38 231 53 268T95 331T156 371T227 385Q266 385 299 373T358 333V376ZM68 687Q91 762 128 795T211 829Q236 829 257 823T297 808T334 793T370 786Q390 786 406 798T431 829L500 799Q466 733 432 698T351 663Q324 663 304 670T268 685T236 700T205 707Q163 707 133 663L68 687Z"  />
<glyph unicode="&#xE4;" horiz-adv-x="566" d="M181 183Q181 144 204 124T269 104Q311 104 334 124T358 183Q358 215 335 234T269 253Q228 253 205 234T181 183ZM358 376Q358 407 336 423T247 439Q215 439 182 434T111 421L150 551Q184 555 215 558T277 562Q391 562 443 531T495 421V6L363 -6V55H360Q346 16 310 0T223 -17Q134 -17 86 38T38 185Q38 231 53 268T95 331T156 371T227 385Q266 385 299 373T358 333V376ZM333 829H482V681H333V829ZM86 829H235V681H86V829Z"  />
<glyph unicode="&#xE5;" horiz-adv-x="566" d="M181 183Q181 144 204 124T269 104Q311 104 334 124T358 183Q358 215 335 234T269 253Q228 253 205 234T181 183ZM358 376Q358 407 336 423T247 439Q215 439 182 434T111 421L150 551Q184 555 215 558T277 562Q391 562 443 531T495 421V6L363 -6V55H360Q346 16 310 0T223 -17Q134 -17 86 38T38 185Q38 231 53 268T95 331T156 371T227 385Q266 385 299 373T358 333V376ZM221 759Q221 733 239 715T284 696Q310 696 328 714T347 759Q347 786 329 804T284 822Q258 822 240 804T221 759ZM148 759Q148 787 159 811T189 854T232 884T284 895Q312 895 336 884T379 855T408 812T419 759Q419 732 409 708T380 665T337 636T284 625Q257 625 233 635T189 664T159 707T148 759Z"  />
<glyph unicode="&#xE6;" horiz-adv-x="889" d="M162 183Q162 144 185 124T250 104Q292 104 315 124T339 183Q339 215 316 234T250 253Q208 253 185 234T162 183ZM131 551Q164 555 196 558T257 562Q291 562 317 559T365 548T403 530T437 504Q472 537 522 555T621 573Q669 573 708 562T780 530T840 476T890 401L518 162Q564 104 635 104Q681 104 718 124T797 192L849 69Q804 21 750 2T632 -17Q537 -17 461 52V6L339 -6V55H336Q325 16 289 0T204 -17Q116 -17 68 38T20 185Q20 231 35 268T77 331T138 371T209 385Q247 385 280 373T339 333V376Q339 390 334 401T317 421T283 434T229 439Q196 439 163 434T92 421L131 551ZM713 421Q668 451 611 451Q590 451 566 441T520 411T485 362T470 295Q470 289 471 280T476 264L713 421Z"  />
<glyph unicode="&#xE7;" horiz-adv-x="566" d="M467 393Q443 416 414 429T350 443Q269 443 225 398T181 281Q181 198 226 156Q272 113 336 113Q381 113 415 126T484 174L542 51Q521 34 494 21T439 0T383 -13T335 -17Q270 -17 216 4T122 64T60 160T38 289Q38 354 62 406T127 496T219 553T325 573Q392 573 441 554T537 504L467 393ZM204 -262Q228 -220 240 -187T253 -127Q253 -90 241 -55Q258 -58 277 -61T313 -64Q330 -64 348 -61T385 -55V-85Q385 -121 373 -169T325 -262H204Z"  />
<glyph unicode="&#xE8;" horiz-adv-x="592" d="M418 421Q373 451 316 451Q295 451 271 441T225 411T189 362T174 295Q174 289 176 280T181 264L418 421ZM220 162Q267 104 338 104Q385 104 421 124T501 192L553 69Q508 21 454 2T335 -17Q270 -17 216 4T122 64T60 160T38 289Q38 354 62 406T127 496T219 553T325 573Q421 573 484 530T594 401L220 162ZM112 829H293L377 649H270L112 829Z"  />
<glyph unicode="&#xE9;" horiz-adv-x="592" d="M418 421Q373 451 316 451Q295 451 271 441T225 411T189 362T174 295Q174 289 176 280T181 264L418 421ZM220 162Q267 104 338 104Q385 104 421 124T501 192L553 69Q508 21 454 2T335 -17Q270 -17 216 4T122 64T60 160T38 289Q38 354 62 406T127 496T219 553T325 573Q421 573 484 530T594 401L220 162ZM299 829H478L322 649H214L299 829Z"  />
<glyph unicode="&#xEA;" horiz-adv-x="592" d="M418 421Q373 451 316 451Q295 451 271 441T225 411T189 362T174 295Q174 289 176 280T181 264L418 421ZM220 162Q267 104 338 104Q385 104 421 124T501 192L553 69Q508 21 454 2T335 -17Q270 -17 216 4T122 64T60 160T38 289Q38 354 62 406T127 496T219 553T325 573Q421 573 484 530T594 401L220 162ZM217 829H376L495 649H352L296 734L240 649H96L217 829Z"  />
<glyph unicode="&#xEB;" horiz-adv-x="592" d="M418 421Q373 451 316 451Q295 451 271 441T225 411T189 362T174 295Q174 289 176 280T181 264L418 421ZM220 162Q267 104 338 104Q385 104 421 124T501 192L553 69Q508 21 454 2T335 -17Q270 -17 216 4T122 64T60 160T38 289Q38 354 62 406T127 496T219 553T325 573Q421 573 484 530T594 401L220 162ZM345 829H494V681H345V829ZM98 829H247V681H98V829Z"  />
<glyph unicode="&#xEC;" horiz-adv-x="267" d="M63 550L206 562V6L63 -6V550ZM-50 829H131L215 649H108L-50 829Z"  />
<glyph unicode="&#xED;" horiz-adv-x="267" d="M63 550L206 562V6L63 -6V550ZM137 829H316L160 649H52L137 829Z"  />
<glyph unicode="&#xEE;" horiz-adv-x="267" d="M63 550L206 562V6L63 -6V550ZM55 829H214L333 649H190L134 734L78 649H-66L55 829Z"  />
<glyph unicode="&#xEF;" horiz-adv-x="267" d="M63 550L206 562V6L63 -6V550ZM183 829H332V681H183V829ZM-64 829H85V681H-64V829Z"  />
<glyph unicode="&#xF0;" horiz-adv-x="672" d="M295 844Q258 882 212 915T110 976L206 1048Q271 1018 321 979T412 898L564 968L635 887L481 817Q523 757 552 694T600 569T626 446T635 332Q635 241 611 175T545 67T449 4T336 -17Q273 -17 219 7T124 73T61 167T38 278Q38 336 61 389T124 483T218 548T336 573Q347 573 364 572T400 565T438 550T473 524L476 527Q464 576 438 637T363 762L202 688L131 768L295 844ZM181 278Q181 242 193 212T225 160T274 126T336 113Q403 113 447 160Q492 205 492 278Q492 350 447 397Q403 443 336 443Q303 443 275 431T226 396T193 344T181 278Z"  />
<glyph unicode="&#xF1;" horiz-adv-x="592" d="M63 550L206 562V490H209Q235 540 271 556T350 573Q387 573 420 562T477 528T516 475T530 403V6L388 -6V316Q388 372 364 401T297 431Q255 431 231 396T206 304V6L63 -6V550ZM80 687Q103 762 140 795T223 829Q248 829 269 823T309 808T346 793T382 786Q402 786 418 798T443 829L512 799Q478 733 444 698T363 663Q336 663 316 670T280 685T248 700T217 707Q175 707 145 663L80 687Z"  />
<glyph unicode="&#xF2;" horiz-adv-x="672" d="M38 278Q38 336 61 389T124 483T218 548T336 573Q400 573 455 549T550 483T612 389T635 278Q635 221 613 168T550 73T455 8T336 -17Q273 -17 219 7T124 73T61 167T38 278ZM336 113Q403 113 447 160Q492 205 492 278Q492 350 447 397Q403 443 336 443Q303 443 275 431T226 396T193 344T181 278Q181 242 193 212T225 160T274 126T336 113ZM152 829H333L417 649H310L152 829Z"  />
<glyph unicode="&#xF3;" horiz-adv-x="672" d="M38 278Q38 336 61 389T124 483T218 548T336 573Q400 573 455 549T550 483T612 389T635 278Q635 221 613 168T550 73T455 8T336 -17Q273 -17 219 7T124 73T61 167T38 278ZM336 113Q403 113 447 160Q492 205 492 278Q492 350 447 397Q403 443 336 443Q303 443 275 431T226 396T193 344T181 278Q181 242 193 212T225 160T274 126T336 113ZM339 829H518L362 649H254L339 829Z"  />
<glyph unicode="&#xF4;" horiz-adv-x="672" d="M38 278Q38 336 61 389T124 483T218 548T336 573Q400 573 455 549T550 483T612 389T635 278Q635 221 613 168T550 73T455 8T336 -17Q273 -17 219 7T124 73T61 167T38 278ZM336 113Q403 113 447 160Q492 205 492 278Q492 350 447 397Q403 443 336 443Q303 443 275 431T226 396T193 344T181 278Q181 242 193 212T225 160T274 126T336 113ZM257 829H416L535 649H392L336 734L280 649H136L257 829Z"  />
<glyph unicode="&#xF5;" horiz-adv-x="672" d="M38 278Q38 336 61 389T124 483T218 548T336 573Q400 573 455 549T550 483T612 389T635 278Q635 221 613 168T550 73T455 8T336 -17Q273 -17 219 7T124 73T61 167T38 278ZM336 113Q403 113 447 160Q492 205 492 278Q492 350 447 397Q403 443 336 443Q303 443 275 431T226 396T193 344T181 278Q181 242 193 212T225 160T274 126T336 113ZM120 687Q143 762 180 795T263 829Q288 829 309 823T349 808T386 793T422 786Q442 786 458 798T483 829L552 799Q518 733 484 698T403 663Q376 663 356 670T320 685T288 700T257 707Q215 707 185 663L120 687Z"  />
<glyph unicode="&#xF6;" horiz-adv-x="672" d="M38 278Q38 336 61 389T124 483T218 548T336 573Q400 573 455 549T550 483T612 389T635 278Q635 221 613 168T550 73T455 8T336 -17Q273 -17 219 7T124 73T61 167T38 278ZM336 113Q403 113 447 160Q492 205 492 278Q492 350 447 397Q403 443 336 443Q303 443 275 431T226 396T193 344T181 278Q181 242 193 212T225 160T274 126T336 113ZM385 829H534V681H385V829ZM138 829H287V681H138V829Z"  />
<glyph unicode="&#xF7;" horiz-adv-x="873" d="M333 669Q333 710 363 742Q393 772 437 772Q479 772 509 742Q539 712 539 669Q539 626 509 597Q478 566 437 566Q394 566 363 597Q333 627 333 669ZM333 66Q333 110 363 140Q394 171 437 171Q478 171 509 140Q539 111 539 66Q539 24 509 -6Q479 -36 437 -36Q393 -36 363 -6Q333 25 333 66ZM69 429H805V307H69V429Z"  />
<glyph unicode="&#xF8;" horiz-adv-x="672" d="M414 421Q381 443 336 443Q303 443 275 431T226 396T193 344T181 278Q181 243 192 212L414 421ZM17 48L89 116Q38 189 38 278Q38 336 61 389T124 483T218 548T336 573Q388 573 432 558T514 515L585 582L655 504L585 439Q635 365 635 278Q635 221 613 168T550 73T455 8T336 -17Q238 -17 162 41L90 -26L17 48ZM261 134Q294 113 336 113Q403 113 447 160Q492 205 492 278Q492 312 481 340L261 134Z"  />
<glyph unicode="&#xF9;" horiz-adv-x="592" d="M63 550L206 562V240Q206 183 229 154T295 125Q337 125 362 160T388 252V550L530 562V6L388 -6V66H385Q357 18 321 1T243 -17Q206 -17 173 -6T116 28T77 81T63 153V550ZM112 829H293L377 649H270L112 829Z"  />
<glyph unicode="&#xFA;" horiz-adv-x="592" d="M63 550L206 562V240Q206 183 229 154T295 125Q337 125 362 160T388 252V550L530 562V6L388 -6V66H385Q357 18 321 1T243 -17Q206 -17 173 -6T116 28T77 81T63 153V550ZM299 829H478L322 649H214L299 829Z"  />
<glyph unicode="&#xFB;" horiz-adv-x="592" d="M63 550L206 562V240Q206 183 229 154T295 125Q337 125 362 160T388 252V550L530 562V6L388 -6V66H385Q357 18 321 1T243 -17Q206 -17 173 -6T116 28T77 81T63 153V550ZM217 829H376L495 649H352L296 734L240 649H96L217 829Z"  />
<glyph unicode="&#xFC;" horiz-adv-x="592" d="M63 550L206 562V240Q206 183 229 154T295 125Q337 125 362 160T388 252V550L530 562V6L388 -6V66H385Q357 18 321 1T243 -17Q206 -17 173 -6T116 28T77 81T63 153V550ZM345 829H494V681H345V829ZM98 829H247V681H98V829Z"  />
<glyph unicode="&#xFD;" horiz-adv-x="592" d="M-13 547L131 573L297 225L461 573L605 547L220 -246L69 -234L212 60L-13 547ZM299 829H478L322 649H214L299 829Z"  />
<glyph unicode="&#xFE;" horiz-adv-x="699" d="M206 278Q206 242 217 212T250 160T299 126T360 113Q429 113 474 160Q519 206 519 278Q519 349 474 396Q429 443 360 443Q327 443 299 431T250 396T218 344T206 278ZM63 1041L206 1054V492Q239 531 284 552T376 573Q433 573 485 555T576 499T639 407T663 278Q663 205 640 150T577 58T485 2T376 -17Q334 -17 292 -5T206 50V-234L63 -246V1041Z"  />
<glyph unicode="&#xFF;" horiz-adv-x="592" d="M-13 547L131 573L297 225L461 573L605 547L220 -246L69 -234L212 60L-13 547ZM345 829H494V681H345V829ZM98 829H247V681H98V829Z"  />
<glyph unicode="&#x131;" horiz-adv-x="267" d="M63 550L206 562V6L63 -6V550Z"  />
<glyph unicode="&#x141;" horiz-adv-x="699" d="M82 379L-35 295V416L82 501V1041L241 1054V616L515 814V693L241 495V148H715L653 0H82V379Z"  />
<glyph unicode="&#x142;" horiz-adv-x="267" d="M63 404L-41 297V419L63 527V1041L206 1054V673L308 779V658L206 551V6L63 -6V404Z"  />
<glyph unicode="&#x152;" horiz-adv-x="1644" d="M202 524Q202 439 235 366T323 238T452 153T607 122Q688 122 761 153T889 238T978 365T1011 524Q1011 609 978 682T890 809T761 894T607 925Q526 925 453 894T324 809T235 682T202 524ZM1011 148Q933 65 834 20T607 -26Q498 -25 396 16T216 130T90 303T41 524Q42 643 89 744T215 918T396 1032T607 1073Q669 1073 725 1061T832 1026T928 973T1011 905V1048H1526L1565 905H1171V605H1487V467H1171V143H1614L1553 0H1011V148Z"  />
<glyph unicode="&#x153;" horiz-adv-x="1051" d="M181 278Q181 242 193 212T225 160T274 126T336 113Q403 113 447 160Q492 205 492 278Q492 350 447 397Q403 443 336 443Q303 443 275 431T226 396T193 344T181 278ZM679 162Q726 104 795 104Q819 104 839 109T878 124T917 152T959 192L1011 69Q966 21 912 2T792 -17Q717 -17 659 12T569 96Q531 49 475 16T336 -17Q273 -17 219 7T124 73T61 167T38 278Q38 336 61 389T124 483T218 548T336 573Q408 573 460 547T560 472Q610 522 661 547T783 573Q831 573 870 562T942 530T1002 476T1052 401L679 162ZM875 421Q830 451 774 451Q752 451 727 441T679 411T643 362T628 295Q628 289 630 280T635 264L875 421Z"  />
<glyph unicode="&#x160;" horiz-adv-x="727" d="M577 800Q533 860 486 895T382 931Q313 931 267 889Q220 848 220 776Q219 735 239 707T292 657T367 620T452 586Q513 566 564 530Q590 512 612 490T651 440T677 376T686 295Q686 229 661 171T592 69T488 0T358 -26Q255 -26 177 19T41 150L156 262Q198 196 250 156T363 116Q399 116 428 129T479 166T513 219T525 283Q525 328 505 357T452 408T377 444T292 476Q248 493 206 515T132 570T80 652T60 770Q60 836 85 891T154 987T257 1050T385 1073Q435 1073 477 1061T556 1027T622 975T679 907L577 800ZM164 1290H308L364 1205L420 1290H563L444 1110H285L164 1290Z"  />
<glyph unicode="&#x161;" horiz-adv-x="458" d="M327 383Q308 427 286 443T240 460Q217 460 200 448T183 412Q183 385 200 372T244 351T302 334T359 308T403 261T421 178Q421 135 404 100T359 38T291 -2T209 -17Q162 -17 120 -1T38 58L121 154Q138 132 163 114T220 96Q246 96 264 111T283 157Q283 183 266 198T222 223T165 243T108 269T65 314T47 388Q47 425 61 459T99 518T159 558T236 573Q264 573 290 564T338 540T380 504T414 461L327 383ZM30 829H174L230 744L286 829H429L310 649H151L30 829Z"  />
<glyph unicode="&#x178;" horiz-adv-x="756" d="M-38 1009L111 1073L415 573L633 1073L779 1009L313 -26L162 14L335 404L-38 1009ZM427 1290H576V1142H427V1290ZM180 1290H329V1142H180V1290Z"  />
<glyph unicode="&#x17D;" horiz-adv-x="889" d="M588 905H17L43 1048H870L289 143H882L855 0H8L588 905ZM245 1290H389L445 1205L501 1290H644L525 1110H366L245 1290Z"  />
<glyph unicode="&#x17E;" horiz-adv-x="458" d="M234 424H32L71 556H461L224 131H461V0H-3L234 424ZM30 829H174L230 744L286 829H429L310 649H151L30 829Z"  />
<glyph unicode="&#x192;" horiz-adv-x="756" d="M282 449H174L190 556H301L327 672Q337 718 360 759T419 830T498 877T595 895Q618 895 641 891T684 875L650 768Q639 770 628 771T607 772Q577 772 552 764T506 731T471 665T449 556H570L553 449H431L371 94Q358 15 332 -40T267 -129T181 -178T78 -193Q39 -193 -6 -181L28 -64Q49 -71 78 -71Q107 -71 130 -63T172 -33T204 25T227 116L282 449Z"  />
<glyph unicode="&#x2C6;" horiz-adv-x="267" d="M55 829H214L333 649H190L134 734L78 649H-66L55 829Z"  />
<glyph unicode="&#x2C7;" horiz-adv-x="267" d="M-66 829H78L134 744L190 829H333L214 649H55L-66 829Z"  />
<glyph unicode="&#x2C9;" horiz-adv-x="267" d="M-41 794H310V681H-41V794Z"  />
<glyph unicode="&#x2D8;" horiz-adv-x="267" d="M36 829Q48 795 70 776T134 756Q176 756 198 775T232 829H319Q294 649 134 649Q-24 649 -51 829H36Z"  />
<glyph unicode="&#x2D9;" horiz-adv-x="267" d="M60 829H209V681H60V829Z"  />
<glyph unicode="&#x2DA;" horiz-adv-x="267" d="M71 759Q71 733 89 715T134 696Q160 696 178 714T197 759Q197 786 179 804T134 822Q108 822 90 804T71 759ZM-2 759Q-2 787 9 811T39 854T82 884T134 895Q162 895 186 884T229 855T258 812T269 759Q269 732 259 708T230 665T187 636T134 625Q107 625 83 635T39 664T9 707T-2 759Z"  />
<glyph unicode="&#x2DB;" horiz-adv-x="267" d="M299 0Q292 -20 287 -44T281 -90Q281 -121 293 -144T313 -185L218 -206Q196 -178 182 -141T168 -73Q168 -59 170 -37T178 0H299Z"  />
<glyph unicode="&#x2DC;" horiz-adv-x="267" d="M-82 687Q-59 762 -22 795T61 829Q86 829 107 823T147 808T184 793T220 786Q240 786 256 798T281 829L350 799Q316 733 282 698T201 663Q174 663 154 670T118 685T86 700T55 707Q13 707 -17 663L-82 687Z"  />
<glyph unicode="&#x2DD;" horiz-adv-x="267" d="M282 829H462L305 649H198L282 829ZM-8 829H171L14 649H-93L-8 829Z"  />
<glyph unicode="&#x3C0;" horiz-adv-x="790" d="M759 18Q730 4 705 -2T647 -9Q603 -9 577 4T536 41T518 96T513 165V519H230V0H95V519H1V647H755V519H649V185Q649 170 650 156T656 131T671 113T700 106Q728 106 759 119V18Z"  />
<glyph unicode="&#x60C;" horiz-adv-x="379" d="M270 68Q270 34 246 10T188 -14Q147 -14 121 18T94 96Q94 159 141 229Q183 291 205 291Q217 291 217 279Q217 268 205 248Q164 203 160 141Q173 150 190 150Q223 150 246 126T270 68Z"  />
<glyph unicode="&#x61B;" horiz-adv-x="379" d="M270 317Q270 284 246 260T188 236Q147 236 121 267T94 346Q94 409 141 479Q183 541 205 541Q217 541 217 528Q217 518 205 498Q164 453 160 391Q173 399 190 399Q223 399 246 375T270 317ZM270 68Q270 34 246 10T188 -14Q155 -14 131 10T106 68Q106 101 130 125T188 150Q222 150 246 126T270 68Z"  />
<glyph unicode="&#x61F;" horiz-adv-x="606" d="M532 852Q532 845 508 830T469 815Q449 815 434 829L430 825Q442 801 442 782Q442 748 412 721T381 676Q381 629 367 629Q350 629 350 659V1004H233V641L365 510V227H238V481L106 612V1139H477V926Q477 901 492 883T526 864Q532 864 532 852ZM381 68Q381 34 357 10T299 -14Q265 -14 241 10T217 68Q217 101 241 125T299 150Q333 150 357 126T381 68Z"  />
<glyph unicode="&#x621;" horiz-adv-x="838" d="M788 6Q788 0 775 0H67Q50 0 50 10Q50 20 83 23Q120 26 136 53Q148 74 175 74Q192 74 198 66L202 70Q196 88 196 104Q196 119 207 135T225 152Q236 152 245 121Q252 98 304 98H323Q290 149 290 219Q290 300 346 357T481 416Q548 416 571 429Q598 443 605 487Q615 541 630 541Q651 541 655 485Q659 412 608 373Q648 332 648 293Q648 266 624 266Q621 266 596 285T528 305Q433 305 433 209Q433 166 463 137Q490 111 524 111Q557 111 591 141T634 172Q643 172 655 147Q682 89 759 39Q788 20 788 6Z"  />
<glyph unicode="&#x622;" arabic-form="terminal" horiz-adv-x="322" d="M312 883Q312 870 304 870Q298 870 282 877T259 885Q209 885 209 807V0H82V1141Q82 1171 99 1171Q111 1171 117 1124Q121 1101 146 1079Q181 1049 181 983Q229 983 268 958Q312 929 312 883ZM409 1373Q409 1363 356 1321Q318 1292 283 1279T203 1265Q183 1265 161 1269T105 1286Q72 1299 52 1301T24 1304Q13 1304 0 1298T-28 1276Q-59 1242 -65 1242Q-77 1242 -77 1251Q-77 1281 -40 1324Q4 1374 51 1374Q67 1374 136 1350Q171 1339 195 1334T243 1328Q270 1328 293 1334T344 1355Q371 1370 383 1376Q394 1382 393 1383Q409 1383 409 1373Z"  />
<glyph unicode="&#x622;" arabic-form="isolated" horiz-adv-x="315" d="M239 0H112V807Q112 885 63 885Q57 885 41 878T18 870Q10 870 10 883Q10 929 54 958Q93 983 141 983Q141 1049 176 1079Q201 1101 205 1124Q211 1171 223 1171Q239 1171 239 1141V0ZM409 1373Q409 1363 356 1321Q318 1292 283 1279T203 1265Q183 1265 161 1269T105 1286Q72 1299 52 1301T24 1304Q13 1304 0 1298T-28 1276Q-59 1242 -65 1242Q-77 1242 -77 1251Q-77 1281 -40 1324Q4 1374 51 1374Q67 1374 136 1350Q171 1339 195 1334T243 1328Q270 1328 293 1334T344 1355Q371 1370 383 1376Q394 1382 393 1383Q409 1383 409 1373Z"  />
<glyph unicode="&#x623;" arabic-form="terminal" horiz-adv-x="321" d="M82 1141Q82 1171 98 1171Q110 1171 116 1124Q120 1101 145 1079Q180 1049 180 983Q228 983 267 958Q311 929 311 883Q311 870 303 870Q297 870 281 877T258 885Q209 885 209 807V0H82V1141ZM283 1383L263 1314Q134 1280 52 1204Q52 1264 94 1298Q30 1323 30 1374Q30 1406 88 1457Q136 1500 182 1500Q228 1500 228 1469Q228 1451 213 1432T184 1412Q180 1412 168 1427T129 1443Q104 1443 90 1418Q106 1362 167 1343L283 1383Z"  />
<glyph unicode="&#x623;" arabic-form="isolated" horiz-adv-x="317" d="M239 0H112V807Q112 885 63 885Q57 885 41 878T18 870Q10 870 10 883Q10 929 54 958Q93 983 141 983Q141 1049 176 1079Q201 1101 205 1124Q211 1171 223 1171Q239 1171 239 1141V0ZM283 1363L263 1294Q134 1260 52 1184Q52 1244 94 1278Q30 1303 30 1354Q30 1386 88 1437Q136 1480 182 1480Q228 1480 228 1449Q228 1431 213 1412T184 1392Q180 1392 168 1407T129 1423Q104 1423 90 1398Q106 1342 167 1323L283 1363Z"  />
<glyph unicode="&#x624;" arabic-form="terminal" horiz-adv-x="695" d="M576 0Q576 -129 508 -220Q422 -332 259 -332Q179 -332 125 -316T71 -276Q71 -256 107 -252Q118 -251 137 -254T165 -258Q449 -258 449 0H85Q50 0 50 20Q50 40 91 61Q146 91 159 168Q169 229 206 270T294 315Q311 424 419 473Q515 517 535 571Q547 602 556 602Q576 602 576 571V0ZM605 680Q605 672 581 672H136Q120 672 120 682Q120 690 146 695T189 721Q202 733 222 733Q220 733 245 727Q236 752 236 764Q236 791 253 791Q262 791 265 778Q271 754 304 754H335Q320 782 320 821Q320 923 445 948Q497 959 497 1012Q497 1040 511 1040Q525 1040 525 991Q525 949 488 909Q519 879 519 854Q519 836 509 836L494 848Q480 860 456 860Q402 860 402 813Q402 789 421 773T464 756Q488 756 500 772T513 788Q524 788 531 766Q551 727 587 698Q605 688 605 680ZM449 135V324Q379 310 374 225Q289 212 275 135H449Z"  />
<glyph unicode="&#x624;" arabic-form="isolated" horiz-adv-x="658" d="M576 0Q576 -129 508 -220Q422 -332 259 -332Q179 -332 125 -316T71 -276Q71 -256 107 -252Q118 -251 137 -254T165 -258Q449 -258 449 0H85Q50 0 50 20Q50 40 91 61Q146 91 159 168Q169 229 206 270T294 315Q311 424 419 473Q515 517 535 571Q547 602 556 602Q576 602 576 571V0ZM605 680Q605 672 570 672H136Q120 672 120 682Q120 690 146 695T189 721Q202 733 222 733Q220 733 245 727Q236 752 236 764Q236 791 253 791Q262 791 265 778Q271 754 304 754H335Q320 782 320 821Q320 923 445 948Q497 959 497 1012Q497 1040 511 1040Q525 1040 525 991Q525 949 488 909Q519 879 519 854Q519 836 509 836L494 848Q480 860 456 860Q402 860 402 813Q402 789 421 773T464 756Q488 756 500 772T513 788Q524 788 531 766Q551 727 587 698Q605 688 605 680ZM449 135V324Q379 310 374 225Q289 212 275 135H449Z"  />
<glyph unicode="&#x625;" arabic-form="terminal" horiz-adv-x="321" d="M82 1141Q82 1171 98 1171Q110 1171 116 1124Q120 1101 145 1079Q180 1049 180 983Q228 983 267 958Q311 929 311 883Q311 870 303 870Q297 870 281 877T258 885Q209 885 209 807V0H82V1141ZM283 -244L263 -313Q134 -347 52 -423Q52 -363 94 -329Q30 -304 30 -253Q30 -221 88 -170Q136 -127 182 -127Q228 -127 228 -158Q228 -176 213 -195T184 -215Q180 -215 168 -200T129 -184Q104 -184 90 -209Q106 -265 167 -284L283 -244Z"  />
<glyph unicode="&#x625;" arabic-form="isolated" horiz-adv-x="317" d="M239 0H112V807Q112 885 63 885Q57 885 41 878T18 870Q10 870 10 883Q10 929 54 958Q93 983 141 983Q141 1049 176 1079Q201 1101 205 1124Q211 1171 223 1171Q239 1171 239 1141V0ZM283 -244L263 -313Q134 -347 52 -423Q52 -363 94 -329Q30 -304 30 -253Q30 -221 88 -170Q136 -127 182 -127Q228 -127 228 -158Q228 -176 213 -195T184 -215Q180 -215 168 -200T129 -184Q104 -184 90 -209Q106 -265 167 -284L283 -244Z"  />
<glyph unicode="&#x626;" arabic-form="initial" horiz-adv-x="494" d="M375 0H-188V135H248V313Q248 367 213 367Q207 367 195 363T178 358Q166 358 166 373Q166 396 207 429Q252 465 295 465Q281 496 281 518Q281 553 309 585T340 635Q347 682 358 682Q375 682 375 653V0ZM479 778Q479 770 455 770H10Q-6 770 -6 780Q-6 788 20 795Q47 798 63 819Q76 831 96 831Q94 831 119 825Q111 850 111 862Q111 889 127 889Q136 889 139 877Q145 852 178 852H209Q195 881 195 920Q195 1021 319 1047Q371 1057 371 1110Q371 1139 385 1139Q399 1139 399 1090Q399 1047 362 1008Q393 977 393 952Q393 934 383 934L368 946Q354 958 330 958Q276 958 276 911Q276 887 295 871T338 854Q362 854 374 870T387 887Q398 887 406 864Q425 825 461 797Q479 786 479 778Z"  />
<glyph unicode="&#x626;" arabic-form="medial" horiz-adv-x="494" d="M375 0H-188V135H248V313Q248 367 213 367Q207 367 195 363T178 358Q166 358 166 373Q166 396 207 429Q252 465 295 465Q281 496 281 518Q281 553 309 585T340 635Q347 682 358 682Q375 682 375 653V0ZM479 778Q479 770 455 770H10Q-6 770 -6 780Q-6 788 20 795Q47 798 63 819Q76 831 96 831Q94 831 119 825Q111 850 111 862Q111 889 127 889Q136 889 139 877Q145 852 178 852H209Q195 881 195 920Q195 1021 319 1047Q371 1057 371 1110Q371 1139 385 1139Q399 1139 399 1090Q399 1047 362 1008Q393 977 393 952Q393 934 383 934L368 946Q354 958 330 958Q276 958 276 911Q276 887 295 871T338 854Q362 854 374 870T387 887Q398 887 406 864Q425 825 461 797Q479 786 479 778Z"  />
<glyph unicode="&#x626;" arabic-form="terminal" horiz-adv-x="1729" d="M1745 0H1565L902 709L869 618Q863 602 863 588Q863 578 875 565L1405 0H80Q50 0 50 14Q50 27 95 33Q120 36 142 61Q173 98 248 98Q248 166 275 193Q295 213 312 213Q324 213 324 201Q324 198 322 192T320 182Q320 135 390 135H1094L764 487Q727 527 727 563Q727 588 775 716Q818 832 828 850Q836 874 836 899Q836 905 834 912T832 922Q832 938 842 938Q852 938 877 911L1606 135H1745V0ZM547 828Q547 820 522 820H78Q61 820 61 830Q61 838 87 843T131 869Q143 881 163 881Q162 880 186 875Q178 900 178 912Q178 939 194 939Q204 939 207 926Q212 902 245 902H276Q262 931 262 969Q262 1071 387 1096Q438 1107 438 1160Q438 1189 452 1189Q467 1189 467 1139Q467 1097 430 1057Q461 1027 461 1002Q461 984 450 984L436 996Q422 1008 397 1008Q344 1008 344 961Q344 937 362 921T405 904Q430 904 441 920T454 937Q465 937 473 914Q492 875 528 847Q547 836 547 828Z"  />
<glyph unicode="&#x626;" arabic-form="isolated" horiz-adv-x="2003" d="M1973 16Q1973 0 1942 0H1565L902 709L869 618Q863 602 863 588Q863 578 875 565L1405 0H80Q50 0 50 14Q50 27 95 33Q120 36 142 61Q173 98 248 98Q248 166 275 193Q295 213 312 213Q324 213 324 201Q324 198 322 192T320 182Q320 135 390 135H1094L764 487Q727 527 727 563Q727 588 775 716Q818 832 828 850Q836 874 836 899Q836 905 834 912T832 922Q832 938 842 938Q852 938 877 911L1606 135H1633Q1702 135 1702 184Q1702 186 1700 192T1698 201Q1698 215 1711 215Q1728 215 1747 195Q1774 166 1774 98Q1849 98 1880 61Q1902 36 1928 33Q1973 27 1973 16ZM547 828Q547 820 522 820H78Q61 820 61 830Q61 838 87 843T131 869Q143 881 163 881Q162 880 186 875Q178 900 178 912Q178 939 194 939Q204 939 207 926Q212 902 245 902H276Q262 931 262 969Q262 1071 387 1096Q438 1107 438 1160Q438 1189 452 1189Q467 1189 467 1139Q467 1097 430 1057Q461 1027 461 1002Q461 984 450 984L436 996Q422 1008 397 1008Q344 1008 344 961Q344 937 362 921T405 904Q430 904 441 920T454 937Q465 937 473 914Q492 875 528 847Q547 836 547 828Z"  />
<glyph unicode="&#x627;" arabic-form="terminal" horiz-adv-x="322" d="M312 883Q312 870 304 870Q298 870 282 877T259 885Q209 885 209 807V0H82V1141Q82 1171 99 1171Q111 1171 117 1124Q121 1101 146 1079Q181 1049 181 983Q229 983 268 958Q312 929 312 883Z"  />
<glyph unicode="&#x627;" arabic-form="isolated" horiz-adv-x="321" d="M239 0H112V807Q112 885 63 885Q57 885 41 878T18 870Q10 870 10 883Q10 929 54 958Q93 983 141 983Q141 1049 176 1079Q201 1101 205 1124Q211 1171 223 1171Q239 1171 239 1141V0Z"  />
<glyph unicode="&#x628;" arabic-form="initial" horiz-adv-x="457" d="M375 0H-188V135H248V313Q248 367 213 367Q207 367 195 363T178 358Q166 358 166 373Q166 396 207 429Q252 465 295 465Q281 496 281 518Q281 553 309 585T340 635Q347 682 358 682Q375 682 375 653V0ZM303 -195Q303 -225 281 -247T227 -270Q197 -270 175 -248T152 -195Q152 -164 174 -142T227 -119Q258 -119 280 -141T303 -195Z"  />
<glyph unicode="&#x628;" arabic-form="medial" horiz-adv-x="494" d="M375 0H-188V135H248V313Q248 367 213 367Q207 367 195 363T178 358Q166 358 166 373Q166 396 207 429Q252 465 295 465Q281 496 281 518Q281 553 309 585T340 635Q347 682 358 682Q375 682 375 653V0ZM303 -195Q303 -225 281 -247T227 -270Q197 -270 175 -248T152 -195Q152 -164 174 -142T227 -119Q258 -119 280 -141T303 -195Z"  />
<glyph unicode="&#x628;" arabic-form="terminal" horiz-adv-x="1619" d="M1500 0H80Q50 0 50 16Q50 27 95 33Q120 36 142 61Q173 98 248 98Q248 166 275 195Q294 215 312 215Q324 215 324 201Q324 199 322 193T320 184Q320 135 390 135H1373V313Q1373 367 1338 367Q1331 367 1320 363T1303 358Q1291 358 1291 373Q1291 396 1332 429Q1377 465 1420 465Q1405 496 1405 518Q1405 553 1433 585T1465 635Q1472 682 1483 682Q1500 682 1500 653V0ZM938 -195Q938 -225 916 -247T863 -270Q832 -270 810 -248T787 -195Q787 -164 809 -142T863 -119Q893 -119 915 -141T938 -195Z"  />
<glyph unicode="&#x628;" arabic-form="isolated" horiz-adv-x="1582" d="M1500 0H80Q50 0 50 16Q50 27 95 33Q120 36 142 61Q173 98 248 98Q248 166 275 195Q294 215 312 215Q324 215 324 201Q324 199 322 193T320 184Q320 135 390 135H1373V313Q1373 367 1338 367Q1331 367 1320 363T1303 358Q1291 358 1291 373Q1291 396 1332 429Q1377 465 1420 465Q1405 496 1405 518Q1405 553 1433 585T1465 635Q1472 682 1483 682Q1500 682 1500 653V0ZM938 -195Q938 -225 916 -247T863 -270Q832 -270 810 -248T787 -195Q787 -164 809 -142T863 -119Q893 -119 915 -141T938 -195Z"  />
<glyph unicode="&#x629;" arabic-form="terminal" horiz-adv-x="695" d="M515 879Q515 848 493 826T439 803Q409 803 386 825T363 879Q363 909 386 931T439 954Q470 954 492 932T515 879ZM306 879Q306 848 284 826T230 803Q200 803 178 825T155 879Q155 909 177 931T230 954Q261 954 283 932T306 879ZM576 0H449V123H85Q50 123 50 143Q50 162 91 184Q146 214 159 291Q169 352 206 393T294 438Q311 546 419 596Q515 640 535 694Q547 725 556 725Q576 725 576 694V0ZM449 258V446Q379 432 374 348Q289 335 275 258H449Z"  />
<glyph unicode="&#x629;" arabic-form="isolated" horiz-adv-x="658" d="M515 756Q515 725 493 703T439 680Q409 680 386 702T363 756Q363 786 386 808T439 831Q470 831 492 809T515 756ZM306 756Q306 725 284 703T230 680Q200 680 178 702T155 756Q155 786 177 808T230 831Q261 831 283 809T306 756ZM576 0H85Q50 0 50 20Q50 40 91 61Q146 91 159 168Q169 229 206 270T294 315Q311 424 419 473Q515 517 535 571Q547 602 556 602Q576 602 576 571V0ZM449 135V324Q379 310 374 225Q289 212 275 135H449Z"  />
<glyph unicode="&#x62A;" arabic-form="initial" horiz-adv-x="494" d="M375 0H-188V135H248V313Q248 367 213 367Q207 367 195 363T178 358Q166 358 166 373Q166 396 207 429Q252 465 295 465Q281 496 281 518Q281 553 309 585T340 635Q347 682 358 682Q375 682 375 653V0ZM426 862Q426 831 404 809T350 786Q319 786 297 808T274 862Q274 893 296 915T350 938Q381 938 403 916T426 862ZM217 862Q217 831 195 809T141 786Q111 786 89 808T66 862Q66 893 88 915T141 938Q172 938 194 916T217 862Z"  />
<glyph unicode="&#x62A;" arabic-form="medial" horiz-adv-x="494" d="M375 0H-188V135H248V313Q248 367 213 367Q207 367 195 363T178 358Q166 358 166 373Q166 396 207 429Q252 465 295 465Q281 496 281 518Q281 553 309 585T340 635Q347 682 358 682Q375 682 375 653V0ZM426 862Q426 831 404 809T350 786Q319 786 297 808T274 862Q274 893 296 915T350 938Q381 938 403 916T426 862ZM217 862Q217 831 195 809T141 786Q111 786 89 808T66 862Q66 893 88 915T141 938Q172 938 194 916T217 862Z"  />
<glyph unicode="&#x62A;" arabic-form="terminal" horiz-adv-x="1618" d="M1037 641Q1037 610 1015 588T961 565Q930 565 908 587T885 641Q885 672 907 694T961 717Q992 717 1014 695T1037 641ZM828 641Q828 610 806 588T752 565Q721 565 699 587T676 641Q676 672 698 694T752 717Q783 717 805 695T828 641ZM1500 0H80Q50 0 50 16Q50 27 95 33Q120 36 142 61Q173 98 248 98Q248 166 275 195Q294 215 312 215Q324 215 324 201Q324 199 322 193T320 184Q320 135 390 135H1373V313Q1373 367 1338 367Q1331 367 1320 363T1303 358Q1291 358 1291 373Q1291 396 1332 429Q1377 465 1420 465Q1405 496 1405 518Q1405 553 1433 585T1465 635Q1472 682 1483 682Q1500 682 1500 653V0Z"  />
<glyph unicode="&#x62A;" arabic-form="isolated" horiz-adv-x="1582" d="M1037 641Q1037 610 1015 588T961 565Q930 565 908 587T885 641Q885 672 907 694T961 717Q992 717 1014 695T1037 641ZM828 641Q828 610 806 588T752 565Q721 565 699 587T676 641Q676 672 698 694T752 717Q783 717 805 695T828 641ZM1500 0H80Q50 0 50 16Q50 27 95 33Q120 36 142 61Q173 98 248 98Q248 166 275 195Q294 215 312 215Q324 215 324 201Q324 199 322 193T320 184Q320 135 390 135H1373V313Q1373 367 1338 367Q1331 367 1320 363T1303 358Q1291 358 1291 373Q1291 396 1332 429Q1377 465 1420 465Q1405 496 1405 518Q1405 553 1433 585T1465 635Q1472 682 1483 682Q1500 682 1500 653V0Z"  />
<glyph unicode="&#x62B;" arabic-form="initial" horiz-adv-x="494" d="M375 0H-188V135H248V313Q248 367 213 367Q207 367 195 363T178 358Q166 358 166 373Q166 396 207 429Q252 465 295 465Q281 496 281 518Q281 553 309 585T340 635Q347 682 358 682Q375 682 375 653V0ZM426 866Q426 836 404 814T350 791Q319 791 297 813T274 866Q274 897 296 919T350 942Q381 942 403 920T426 866ZM322 1047Q322 1016 299 994T246 971Q215 971 193 993T170 1047Q170 1077 192 1099T246 1122Q276 1122 299 1100T322 1047ZM217 866Q217 836 195 814T141 791Q111 791 89 813T66 866Q66 897 88 919T141 942Q172 942 194 920T217 866Z"  />
<glyph unicode="&#x62B;" arabic-form="medial" horiz-adv-x="494" d="M375 0H-188V135H248V313Q248 367 213 367Q207 367 195 363T178 358Q166 358 166 373Q166 396 207 429Q252 465 295 465Q281 496 281 518Q281 553 309 585T340 635Q347 682 358 682Q375 682 375 653V0ZM426 866Q426 836 404 814T350 791Q319 791 297 813T274 866Q274 897 296 919T350 942Q381 942 403 920T426 866ZM322 1047Q322 1016 299 994T246 971Q215 971 193 993T170 1047Q170 1077 192 1099T246 1122Q276 1122 299 1100T322 1047ZM217 866Q217 836 195 814T141 791Q111 791 89 813T66 866Q66 897 88 919T141 942Q172 942 194 920T217 866Z"  />
<glyph unicode="&#x62B;" arabic-form="terminal" horiz-adv-x="1618" d="M932 821Q932 791 910 768T856 745Q826 745 804 768T781 821Q781 852 803 874T856 897Q887 897 909 875T932 821ZM1037 641Q1037 610 1015 588T961 565Q930 565 908 587T885 641Q885 672 907 694T961 717Q992 717 1014 695T1037 641ZM828 641Q828 610 806 588T752 565Q721 565 699 587T676 641Q676 672 698 694T752 717Q783 717 805 695T828 641ZM1500 0H80Q50 0 50 16Q50 27 95 33Q120 36 142 61Q173 98 248 98Q248 166 275 195Q294 215 312 215Q324 215 324 201Q324 199 322 193T320 184Q320 135 390 135H1373V313Q1373 367 1338 367Q1331 367 1320 363T1303 358Q1291 358 1291 373Q1291 396 1332 429Q1377 465 1420 465Q1405 496 1405 518Q1405 553 1433 585T1465 635Q1472 682 1483 682Q1500 682 1500 653V0Z"  />
<glyph unicode="&#x62B;" arabic-form="isolated" horiz-adv-x="1582" d="M932 821Q932 791 910 768T856 745Q826 745 804 768T781 821Q781 852 803 874T856 897Q887 897 909 875T932 821ZM1037 641Q1037 610 1015 588T961 565Q930 565 908 587T885 641Q885 672 907 694T961 717Q992 717 1014 695T1037 641ZM828 641Q828 610 806 588T752 565Q721 565 699 587T676 641Q676 672 698 694T752 717Q783 717 805 695T828 641ZM1500 0H80Q50 0 50 16Q50 27 95 33Q120 36 142 61Q173 98 248 98Q248 166 275 195Q294 215 312 215Q324 215 324 201Q324 199 322 193T320 184Q320 135 390 135H1373V313Q1373 367 1338 367Q1331 367 1320 363T1303 358Q1291 358 1291 373Q1291 396 1332 429Q1377 465 1420 465Q1405 496 1405 518Q1405 553 1433 585T1465 635Q1472 682 1483 682Q1500 682 1500 653V0Z"  />
<glyph unicode="&#x62C;" arabic-form="initial" horiz-adv-x="1292" d="M1262 16Q1262 0 1231 0H-188V135H641L453 297Q360 377 303 377Q233 377 233 315Q233 278 270 236T307 184Q307 168 285 168Q255 168 202 226Q141 292 141 358Q141 430 187 479T305 528Q357 528 408 496Q462 461 604 334Q743 210 818 168Q878 135 942 135Q1030 135 1030 199Q1030 223 1038 223Q1053 223 1068 201T1083 156Q1083 125 1069 98Q1138 98 1169 61Q1191 36 1214 33Q1262 26 1262 16ZM530 -195Q530 -225 508 -247T455 -270Q424 -270 402 -248T379 -195Q379 -164 401 -142T455 -119Q485 -119 507 -141T530 -195Z"  />
<glyph unicode="&#x62C;" arabic-form="medial" horiz-adv-x="872" d="M954 0H-188V135H641L453 297Q360 377 303 377Q233 377 233 315Q233 278 270 236T307 184Q307 168 285 168Q255 168 202 226Q141 292 141 358Q141 430 187 479T305 528Q357 528 408 496Q462 461 604 334Q815 145 897 139L954 135V0ZM530 -195Q530 -225 508 -247T455 -270Q424 -270 402 -248T379 -195Q379 -164 401 -142T455 -119Q485 -119 507 -141T530 -195Z"  />
<glyph unicode="&#x62C;" arabic-form="terminal" horiz-adv-x="1164" d="M1225 0H725L586 250H455Q359 250 303 190T246 27Q246 -93 346 -174Q449 -258 613 -258Q659 -258 727 -250Q774 -244 774 -266Q774 -332 514 -332Q304 -332 188 -202Q94 -98 94 31Q94 204 203 302Q294 385 418 385H549V391L402 504Q337 553 273 553Q222 553 192 527T162 463Q162 416 205 365Q217 352 217 340Q217 324 197 324Q167 324 125 387Q80 454 80 516Q80 591 130 646Q184 705 267 705Q368 705 523 571Q739 385 781 385Q869 385 869 449Q869 473 877 473Q891 473 906 451T922 406Q922 374 908 348Q977 348 1008 311Q1030 286 1053 283Q1100 276 1100 266Q1100 250 1069 250H731L795 135H1225V0ZM555 5Q555 -26 533 -48T479 -71Q449 -71 427 -49T404 5Q404 35 426 57T479 80Q510 80 532 58T555 5Z"  />
<glyph unicode="&#x62C;" arabic-form="isolated" horiz-adv-x="1131" d="M1101 16Q1101 0 1070 0H468Q377 0 328 -51Q286 -94 286 -160Q286 -278 378 -356T616 -434Q670 -434 738 -419T804 -403Q821 -403 821 -422Q821 -447 739 -476Q646 -508 534 -508Q350 -508 242 -388Q151 -287 151 -154Q151 -26 225 54T419 135H522L440 213Q334 313 255 313Q211 313 179 287T147 223Q147 185 178 142T210 94Q210 78 190 78Q156 78 116 134T75 244Q75 325 134 380T276 436Q394 436 575 262Q706 135 782 135Q870 135 870 199Q870 223 878 223Q892 223 907 201T923 156Q923 125 909 98Q978 98 1009 61Q1031 36 1054 33Q1101 26 1101 16ZM648 -211Q648 -242 626 -264T573 -287Q542 -287 520 -265T497 -211Q497 -180 519 -158T573 -135Q603 -135 625 -157T648 -211Z"  />
<glyph unicode="&#x62D;" arabic-form="initial" horiz-adv-x="1292" d="M1262 16Q1262 0 1231 0H-188V135H641L453 297Q360 377 303 377Q233 377 233 315Q233 278 270 236T307 184Q307 168 285 168Q255 168 202 226Q141 292 141 358Q141 430 187 479T305 528Q357 528 408 496Q462 461 604 334Q743 210 818 168Q878 135 942 135Q1030 135 1030 199Q1030 223 1038 223Q1053 223 1068 201T1083 156Q1083 125 1069 98Q1138 98 1169 61Q1191 36 1214 33Q1262 26 1262 16Z"  />
<glyph unicode="&#x62D;" arabic-form="medial" horiz-adv-x="872" d="M954 0H-188V135H641L453 297Q360 377 303 377Q233 377 233 315Q233 278 270 236T307 184Q307 168 285 168Q255 168 202 226Q141 292 141 358Q141 430 187 479T305 528Q357 528 408 496Q462 461 604 334Q815 145 897 139L954 135V0Z"  />
<glyph unicode="&#x62D;" arabic-form="terminal" horiz-adv-x="1164" d="M1225 0H725L586 250H455Q359 250 303 190T246 27Q246 -93 346 -174Q449 -258 613 -258Q659 -258 727 -250Q774 -244 774 -266Q774 -332 514 -332Q304 -332 188 -202Q94 -98 94 31Q94 204 203 302Q294 385 418 385H549V391L402 504Q337 553 273 553Q222 553 192 527T162 463Q162 416 205 365Q217 352 217 340Q217 324 197 324Q167 324 125 387Q80 454 80 516Q80 591 130 646Q184 705 267 705Q368 705 523 571Q739 385 781 385Q869 385 869 449Q869 473 877 473Q891 473 906 451T922 406Q922 374 908 348Q977 348 1008 311Q1030 286 1053 283Q1100 276 1100 266Q1100 250 1069 250H731L795 135H1225V0Z"  />
<glyph unicode="&#x62D;" arabic-form="isolated" horiz-adv-x="1131" d="M1101 16Q1101 0 1070 0H468Q377 0 328 -51Q286 -94 286 -160Q286 -278 378 -356T616 -434Q670 -434 738 -419T804 -403Q821 -403 821 -422Q821 -447 739 -476Q646 -508 534 -508Q350 -508 242 -388Q151 -287 151 -154Q151 -26 225 54T419 135H522L440 213Q334 313 255 313Q211 313 179 287T147 223Q147 185 178 142T210 94Q210 78 190 78Q156 78 116 134T75 244Q75 325 134 380T276 436Q394 436 575 262Q706 135 782 135Q870 135 870 199Q870 223 878 223Q892 223 907 201T923 156Q923 125 909 98Q978 98 1009 61Q1031 36 1054 33Q1101 26 1101 16Z"  />
<glyph unicode="&#x62E;" arabic-form="initial" horiz-adv-x="1292" d="M1262 16Q1262 0 1231 0H-188V135H641L453 297Q360 377 303 377Q233 377 233 315Q233 278 270 236T307 184Q307 168 285 168Q255 168 202 226Q141 292 141 358Q141 430 187 479T305 528Q357 528 408 496Q462 461 604 334Q743 210 818 168Q878 135 942 135Q1030 135 1030 199Q1030 223 1038 223Q1053 223 1068 201T1083 156Q1083 125 1069 98Q1138 98 1169 61Q1191 36 1214 33Q1262 26 1262 16ZM530 743Q530 713 508 691T455 668Q424 668 402 690T379 743Q379 774 401 796T455 819Q485 819 507 797T530 743Z"  />
<glyph unicode="&#x62E;" arabic-form="medial" horiz-adv-x="872" d="M954 0H-188V135H641L453 297Q360 377 303 377Q233 377 233 315Q233 278 270 236T307 184Q307 168 285 168Q255 168 202 226Q141 292 141 358Q141 430 187 479T305 528Q357 528 408 496Q462 461 604 334Q815 145 897 139L954 135V0ZM530 743Q530 713 508 691T455 668Q424 668 402 690T379 743Q379 774 401 796T455 819Q485 819 507 797T530 743Z"  />
<glyph unicode="&#x62E;" arabic-form="terminal" horiz-adv-x="1164" d="M632 896Q632 866 610 844T556 821Q526 821 504 843T481 896Q481 927 503 949T556 972Q587 972 609 950T632 896ZM1225 0H725L586 250H455Q359 250 303 190T246 27Q246 -93 346 -174Q449 -258 613 -258Q659 -258 727 -250Q774 -244 774 -266Q774 -332 514 -332Q304 -332 188 -202Q94 -98 94 31Q94 204 203 302Q294 385 418 385H549V391L402 504Q337 553 273 553Q222 553 192 527T162 463Q162 416 205 365Q217 352 217 340Q217 324 197 324Q167 324 125 387Q80 454 80 516Q80 591 130 646Q184 705 267 705Q367 704 523 571Q739 385 781 385Q869 385 869 449Q869 473 877 473Q891 473 906 451T922 406Q922 374 908 348Q977 348 1008 311Q1030 286 1053 283Q1100 276 1100 266Q1100 250 1069 250H731L795 135H1225V0Z"  />
<glyph unicode="&#x62E;" arabic-form="isolated" horiz-adv-x="1131" d="M628 641Q628 610 606 588T552 565Q522 565 499 587T476 641Q476 672 499 694T552 717Q583 717 605 695T628 641ZM1101 16Q1101 0 1070 0H468Q377 0 328 -51Q286 -94 286 -160Q286 -278 378 -356T616 -434Q670 -434 738 -419T804 -403Q821 -403 821 -422Q821 -447 739 -476Q646 -508 534 -508Q350 -508 242 -388Q151 -287 151 -154Q151 -26 225 54T419 135H522L440 213Q334 313 255 313Q211 313 179 287T147 223Q147 185 178 142T210 94Q210 78 190 78Q156 78 116 134T75 244Q75 325 134 380T276 436Q394 436 575 262Q706 135 782 135Q870 135 870 199Q870 223 878 223Q892 223 907 201T923 156Q923 125 909 98Q978 98 1009 61Q1031 36 1054 33Q1101 26 1101 16Z"  />
<glyph unicode="&#x62F;" arabic-form="terminal" horiz-adv-x="1266" d="M1148 0H50Q50 10 107 51Q143 77 162 128T193 180Q206 180 222 159Q241 135 291 135H1021V195Q1021 260 955 260H175V371Q175 424 140 424Q134 424 122 419T103 414Q93 414 93 428Q93 460 128 481Q154 498 208 498Q208 555 235 585T265 633Q272 682 283 682Q302 682 302 651V395H982Q1061 395 1100 354Q1148 306 1148 219V0Z"  />
<glyph unicode="&#x62F;" arabic-form="isolated" horiz-adv-x="1230" d="M1148 0H50Q50 10 107 51Q143 77 162 128T193 180Q206 180 222 159Q241 135 291 135H1021V195Q1021 260 955 260H175V371Q175 424 140 424Q134 424 122 419T103 414Q93 414 93 428Q93 460 128 481Q154 498 208 498Q208 555 235 585T265 633Q272 682 283 682Q302 682 302 651V395H982Q1061 395 1100 354Q1148 306 1148 219V0Z"  />
<glyph unicode="&#x630;" arabic-form="terminal" horiz-adv-x="1266" d="M763 588Q763 557 740 535T687 512Q656 512 634 534T611 588Q611 618 633 641T687 664Q717 664 740 641T763 588ZM1148 0H50Q50 10 107 51Q143 77 162 128T193 180Q206 180 222 159Q241 135 291 135H1021V195Q1021 260 955 260H175V371Q175 424 140 424Q134 424 122 419T103 414Q93 414 93 428Q93 460 128 481Q154 498 208 498Q208 555 235 585T265 633Q272 682 283 682Q302 682 302 651V395H982Q1061 395 1100 354Q1148 306 1148 219V0Z"  />
<glyph unicode="&#x630;" arabic-form="isolated" horiz-adv-x="1230" d="M763 588Q763 557 740 535T687 512Q656 512 634 534T611 588Q611 618 633 641T687 664Q717 664 740 641T763 588ZM1148 0H50Q50 10 107 51Q143 77 162 128T193 180Q206 180 222 159Q241 135 291 135H1021V195Q1021 260 955 260H175V371Q175 424 140 424Q134 424 122 419T103 414Q93 414 93 428Q93 460 128 481Q154 498 208 498Q208 555 235 585T265 633Q272 682 283 682Q302 682 302 651V395H982Q1061 395 1100 354Q1148 306 1148 219V0Z"  />
<glyph unicode="&#x631;" arabic-form="terminal" horiz-adv-x="637" d="M534 0Q534 -180 393 -281Q292 -352 153 -352Q0 -352 0 -315Q0 -291 55 -291Q231 -291 330 -194Q407 -118 407 -29Q407 44 356 98T241 152Q235 152 222 147T204 141Q192 141 192 158Q192 189 230 219T303 250Q294 283 294 313Q294 368 332 426Q365 477 385 477Q395 477 395 457Q395 452 392 434T389 410Q389 335 438 260Q534 113 534 0Z"  />
<glyph unicode="&#x631;" arabic-form="isolated" horiz-adv-x="614" d="M534 0Q534 -180 393 -281Q292 -352 153 -352Q0 -352 0 -315Q0 -291 55 -291Q231 -291 330 -194Q407 -118 407 -29Q407 44 356 98T241 152Q235 152 222 147T204 141Q192 141 192 158Q192 189 230 219T303 250Q294 283 294 313Q294 368 332 426Q365 477 385 477Q395 477 395 457Q395 452 392 434T389 410Q389 335 438 260Q534 113 534 0Z"  />
<glyph unicode="&#x632;" arabic-form="terminal" horiz-adv-x="637" d="M374 678Q374 647 352 625T299 602Q268 602 246 624T223 678Q223 709 245 731T299 754Q329 754 351 732T374 678ZM534 0Q534 -180 393 -281Q292 -352 153 -352Q0 -352 0 -315Q0 -291 55 -291Q231 -291 330 -194Q407 -118 407 -29Q407 44 356 98T241 152Q235 152 222 147T204 141Q192 141 192 158Q192 189 230 219T303 250Q294 283 294 313Q294 368 332 426Q365 477 385 477Q395 477 395 457Q395 452 392 434T389 410Q389 335 438 260Q534 113 534 0Z"  />
<glyph unicode="&#x632;" arabic-form="isolated" horiz-adv-x="614" d="M374 678Q374 647 352 625T299 602Q268 602 246 624T223 678Q223 709 245 731T299 754Q329 754 351 732T374 678ZM534 0Q534 -180 393 -281Q292 -352 153 -352Q0 -352 0 -315Q0 -291 55 -291Q231 -291 330 -194Q407 -118 407 -29Q407 44 356 98T241 152Q235 152 222 147T204 141Q192 141 192 158Q192 189 230 219T303 250Q294 283 294 313Q294 368 332 426Q365 477 385 477Q395 477 395 457Q395 452 392 434T389 410Q389 335 438 260Q534 113 534 0Z"  />
<glyph unicode="&#x633;" arabic-form="initial" horiz-adv-x="1063" d="M981 0H-188V135H215V231Q215 285 180 285Q174 285 162 281T145 276Q133 276 133 291Q133 314 176 348T262 383Q248 415 248 436Q248 471 276 503T307 553Q314 600 326 600Q342 600 342 571V135H535V276Q535 330 500 330Q493 330 482 326T465 322Q453 322 453 336Q453 359 494 392Q539 428 582 428Q567 460 567 481Q567 516 595 548T627 598Q634 645 645 645Q662 645 662 616V135H854V313Q854 367 819 367Q813 367 801 363T784 358Q772 358 772 373Q772 396 815 430T901 465Q887 496 887 518Q887 553 915 585T946 635Q953 682 965 682Q981 682 981 653V0Z"  />
<glyph unicode="&#x633;" arabic-form="medial" horiz-adv-x="1100" d="M981 0H-188V135H215V231Q215 285 180 285Q174 285 162 281T145 276Q133 276 133 291Q133 314 176 348T262 383Q248 415 248 436Q248 471 276 503T307 553Q314 600 326 600Q342 600 342 571V135H535V276Q535 330 500 330Q493 330 482 326T465 322Q453 322 453 336Q453 359 494 392Q539 428 582 428Q567 460 567 481Q567 516 595 548T627 598Q634 645 645 645Q662 645 662 616V135H854V313Q854 367 819 367Q813 367 801 363T784 358Q772 358 772 373Q772 396 815 430T901 465Q887 496 887 518Q887 553 915 585T946 635Q953 682 965 682Q981 682 981 653V0Z"  />
<glyph unicode="&#x633;" arabic-form="terminal" horiz-adv-x="1445" d="M1326 0H687V-33Q687 -150 593 -232T374 -315Q234 -315 149 -236Q60 -153 60 -14Q60 61 95 147Q139 256 171 256Q187 256 187 240Q187 235 160 163T132 29Q132 -51 188 -111Q253 -180 361 -180Q454 -180 507 -133T560 -2V231Q560 285 525 285Q519 285 507 281T490 276Q478 276 478 291Q478 314 521 348T607 383Q593 415 593 436Q593 471 621 503T652 553Q659 600 671 600Q687 600 687 571V135H880V276Q880 330 845 330Q838 330 827 326T810 322Q798 322 798 336Q798 359 839 392Q884 428 927 428Q912 460 912 481Q912 516 940 548T972 598Q979 645 990 645Q1007 645 1007 616V135H1199V313Q1199 367 1164 367Q1158 367 1146 363T1129 358Q1117 358 1117 373Q1117 396 1160 430T1246 465Q1232 496 1232 518Q1232 553 1260 585T1291 635Q1298 682 1310 682Q1326 682 1326 653V0Z"  />
<glyph unicode="&#x633;" arabic-form="isolated" horiz-adv-x="1408" d="M1326 0H687V-33Q687 -150 593 -232T374 -315Q234 -315 149 -236Q60 -153 60 -14Q60 61 95 147Q139 256 171 256Q187 256 187 240Q187 235 160 163T132 29Q132 -51 188 -111Q253 -180 361 -180Q454 -180 507 -133T560 -2V231Q560 285 525 285Q519 285 507 281T490 276Q478 276 478 291Q478 314 521 348T607 383Q593 415 593 436Q593 471 621 503T652 553Q659 600 671 600Q687 600 687 571V135H880V276Q880 330 845 330Q838 330 827 326T810 322Q798 322 798 336Q798 359 839 392Q884 428 927 428Q912 460 912 481Q912 516 940 548T972 598Q979 645 990 645Q1007 645 1007 616V135H1199V313Q1199 367 1164 367Q1158 367 1146 363T1129 358Q1117 358 1117 373Q1117 396 1160 430T1246 465Q1232 496 1232 518Q1232 553 1260 585T1291 635Q1298 682 1310 682Q1326 682 1326 653V0Z"  />
<glyph unicode="&#x634;" arabic-form="initial" horiz-adv-x="1063" d="M981 0H-188V135H215V231Q215 285 180 285Q174 285 162 281T145 276Q133 276 133 291Q133 314 176 348T262 383Q248 415 248 436Q248 471 276 503T307 553Q314 600 326 600Q342 600 342 571V135H535V276Q535 330 500 330Q493 330 482 326T465 322Q453 322 453 336Q453 359 494 392Q539 428 582 428Q567 460 567 481Q567 516 595 548T627 598Q634 645 645 645Q662 645 662 616V135H854V313Q854 367 819 367Q813 367 801 363T784 358Q772 358 772 373Q772 396 815 430T901 465Q887 496 887 518Q887 553 915 585T946 635Q953 682 965 682Q981 682 981 653V0ZM682 1014Q682 983 660 961T606 938Q575 938 553 960T530 1014Q530 1044 552 1067T606 1090Q637 1090 659 1067T682 1014ZM578 834Q578 803 555 781T502 758Q471 758 449 780T426 834Q426 864 448 886T502 909Q532 909 555 887T578 834ZM786 834Q786 803 764 781T711 758Q680 758 658 780T635 834Q635 864 657 886T711 909Q741 909 763 887T786 834Z"  />
<glyph unicode="&#x634;" arabic-form="medial" horiz-adv-x="1100" d="M981 0H-188V135H215V231Q215 285 180 285Q174 285 162 281T145 276Q133 276 133 291Q133 314 176 348T262 383Q248 415 248 436Q248 471 276 503T307 553Q314 600 326 600Q342 600 342 571V135H535V276Q535 330 500 330Q493 330 482 326T465 322Q453 322 453 336Q453 359 494 392Q539 428 582 428Q567 460 567 481Q567 516 595 548T627 598Q634 645 645 645Q662 645 662 616V135H854V313Q854 367 819 367Q813 367 801 363T784 358Q772 358 772 373Q772 396 815 430T901 465Q887 496 887 518Q887 553 915 585T946 635Q953 682 965 682Q981 682 981 653V0ZM682 1014Q682 983 660 961T606 938Q575 938 553 960T530 1014Q530 1044 552 1067T606 1090Q637 1090 659 1067T682 1014ZM578 834Q578 803 555 781T502 758Q471 758 449 780T426 834Q426 864 448 886T502 909Q532 909 555 887T578 834ZM786 834Q786 803 764 781T711 758Q680 758 658 780T635 834Q635 864 657 886T711 909Q741 909 763 887T786 834Z"  />
<glyph unicode="&#x634;" arabic-form="terminal" horiz-adv-x="1445" d="M1027 1014Q1027 983 1005 961T951 938Q921 938 898 960T875 1014Q875 1044 898 1067T951 1090Q982 1090 1004 1067T1027 1014ZM1131 834Q1131 803 1109 781T1056 758Q1025 758 1003 780T980 834Q980 864 1002 886T1056 909Q1086 909 1108 887T1131 834ZM923 834Q923 803 900 781T847 758Q816 758 794 780T771 834Q771 864 793 886T847 909Q877 909 900 887T923 834ZM1326 0H687V-33Q687 -150 593 -232T374 -315Q234 -315 149 -236Q60 -153 60 -14Q60 61 95 147Q139 256 171 256Q187 256 187 240Q187 235 160 163T132 29Q132 -51 188 -111Q253 -180 361 -180Q454 -180 507 -133T560 -2V231Q560 285 525 285Q519 285 507 281T490 276Q478 276 478 291Q478 314 521 348T607 383Q593 415 593 436Q593 471 621 503T652 553Q659 600 671 600Q687 600 687 571V135H880V276Q880 330 845 330Q838 330 827 326T810 322Q798 322 798 336Q798 359 839 392Q884 428 927 428Q912 460 912 481Q912 516 940 548T972 598Q979 645 990 645Q1007 645 1007 616V135H1199V313Q1199 367 1164 367Q1158 367 1146 363T1129 358Q1117 358 1117 373Q1117 396 1160 430T1246 465Q1232 496 1232 518Q1232 553 1260 585T1291 635Q1298 682 1310 682Q1326 682 1326 653V0Z"  />
<glyph unicode="&#x634;" arabic-form="isolated" horiz-adv-x="1408" d="M1027 1014Q1027 983 1005 961T951 938Q921 938 898 960T875 1014Q875 1044 898 1067T951 1090Q982 1090 1004 1067T1027 1014ZM1131 834Q1131 803 1109 781T1056 758Q1025 758 1003 780T980 834Q980 864 1002 886T1056 909Q1086 909 1108 887T1131 834ZM923 834Q923 803 900 781T847 758Q816 758 794 780T771 834Q771 864 793 886T847 909Q877 909 900 887T923 834ZM1326 0H687V-33Q687 -150 593 -232T374 -315Q234 -315 149 -236Q60 -153 60 -14Q60 61 95 147Q139 256 171 256Q187 256 187 240Q187 235 160 163T132 29Q132 -51 188 -111Q253 -180 361 -180Q454 -180 507 -133T560 -2V231Q560 285 525 285Q519 285 507 281T490 276Q478 276 478 291Q478 314 521 348T607 383Q593 415 593 436Q593 471 621 503T652 553Q659 600 671 600Q687 600 687 571V135H880V276Q880 330 845 330Q838 330 827 326T810 322Q798 322 798 336Q798 359 839 392Q884 428 927 428Q912 460 912 481Q912 516 940 548T972 598Q979 645 990 645Q1007 645 1007 616V135H1199V313Q1199 367 1164 367Q1158 367 1146 363T1129 358Q1117 358 1117 373Q1117 396 1160 430T1246 465Q1232 496 1232 518Q1232 553 1260 585T1291 635Q1298 682 1310 682Q1326 682 1326 653V0Z"  />
<glyph unicode="&#x635;" arabic-form="initial" horiz-adv-x="1329" d="M1247 0H-188V135H215V313Q215 367 180 367Q174 367 162 363T145 358Q133 358 133 373Q133 396 176 430T262 465Q248 496 248 518Q248 553 276 585T307 635Q314 682 326 682Q342 682 342 653V326L420 395H1081Q1160 395 1200 354Q1247 306 1247 219V0ZM1120 135V195Q1120 260 1057 260H416L342 199V135H1120Z"  />
<glyph unicode="&#x635;" arabic-form="medial" horiz-adv-x="1366" d="M1247 0H-188V135H215V313Q215 367 180 367Q174 367 162 363T145 358Q133 358 133 373Q133 396 176 430T262 465Q248 496 248 518Q248 553 276 585T307 635Q314 682 326 682Q342 682 342 653V326L420 395H1081Q1160 395 1200 354Q1247 306 1247 219V0ZM1120 135V195Q1120 260 1057 260H416L342 199V135H1120Z"  />
<glyph unicode="&#x635;" arabic-form="terminal" horiz-adv-x="1711" d="M1592 0H687V-33Q687 -150 593 -232T374 -315Q234 -315 149 -236Q60 -153 60 -14Q60 61 95 147Q139 256 171 256Q187 256 187 240Q187 235 160 163T132 29Q132 -51 188 -111Q253 -180 361 -180Q454 -180 507 -133T560 -2V313Q560 367 525 367Q519 367 507 363T490 358Q478 358 478 373Q478 396 521 430T607 465Q593 496 593 518Q593 553 621 585T652 635Q659 682 671 682Q687 682 687 653V326L765 395H1426Q1505 395 1545 354Q1592 306 1592 219V0ZM1465 135V195Q1465 260 1402 260H761L687 199V135H1465Z"  />
<glyph unicode="&#x635;" arabic-form="isolated" horiz-adv-x="1674" d="M1592 0H687V-33Q687 -150 593 -232T374 -315Q234 -315 149 -236Q60 -153 60 -14Q60 61 95 147Q139 256 171 256Q187 256 187 240Q187 235 160 163T132 29Q132 -51 188 -111Q253 -180 361 -180Q454 -180 507 -133T560 -2V313Q560 367 525 367Q519 367 507 363T490 358Q478 358 478 373Q478 396 521 430T607 465Q593 496 593 518Q593 553 621 585T652 635Q659 682 671 682Q687 682 687 653V326L765 395H1426Q1505 395 1545 354Q1592 306 1592 219V0ZM1465 135V195Q1465 260 1402 260H761L687 199V135H1465Z"  />
<glyph unicode="&#x636;" arabic-form="initial" horiz-adv-x="1329" d="M1247 0H-188V135H215V313Q215 367 180 367Q174 367 162 363T145 358Q133 358 133 373Q133 396 176 430T262 465Q248 496 248 518Q248 553 276 585T307 635Q314 682 326 682Q342 682 342 653V326L420 395H1081Q1160 395 1200 354Q1247 306 1247 219V0ZM1120 135V195Q1120 260 1057 260H416L342 199V135H1120ZM840 588Q840 557 818 535T764 512Q733 512 711 534T688 588Q688 618 710 641T764 664Q795 664 817 641T840 588Z"  />
<glyph unicode="&#x636;" arabic-form="medial" horiz-adv-x="1366" d="M1247 0H-188V135H215V313Q215 367 180 367Q174 367 162 363T145 358Q133 358 133 373Q133 396 176 430T262 465Q248 496 248 518Q248 553 276 585T307 635Q314 682 326 682Q342 682 342 653V326L420 395H1081Q1160 395 1200 354Q1247 306 1247 219V0ZM1120 135V195Q1120 260 1057 260H416L342 199V135H1120ZM840 588Q840 557 818 535T764 512Q733 512 711 534T688 588Q688 618 710 641T764 664Q795 664 817 641T840 588Z"  />
<glyph unicode="&#x636;" arabic-form="terminal" horiz-adv-x="1711" d="M1189 588Q1189 557 1167 535T1113 512Q1082 512 1060 534T1037 588Q1037 618 1059 641T1113 664Q1144 664 1166 641T1189 588ZM1592 0H687V-33Q687 -150 593 -232T374 -315Q234 -315 149 -236Q60 -153 60 -14Q60 61 95 147Q139 256 171 256Q187 256 187 240Q187 235 160 163T132 29Q132 -51 188 -111Q253 -180 361 -180Q454 -180 507 -133T560 -2V313Q560 367 525 367Q519 367 507 363T490 358Q478 358 478 373Q478 396 521 430T607 465Q593 496 593 518Q593 553 621 585T652 635Q659 682 671 682Q687 682 687 653V326L765 395H1426Q1505 395 1545 354Q1592 306 1592 219V0ZM1465 135V195Q1465 260 1402 260H761L687 199V135H1465Z"  />
<glyph unicode="&#x636;" arabic-form="isolated" horiz-adv-x="1674" d="M1189 588Q1189 557 1167 535T1113 512Q1082 512 1060 534T1037 588Q1037 618 1059 641T1113 664Q1144 664 1166 641T1189 588ZM1592 0H687V-33Q687 -150 593 -232T374 -315Q234 -315 149 -236Q60 -153 60 -14Q60 61 95 147Q139 256 171 256Q187 256 187 240Q187 235 160 163T132 29Q132 -51 188 -111Q253 -180 361 -180Q454 -180 507 -133T560 -2V313Q560 367 525 367Q519 367 507 363T490 358Q478 358 478 373Q478 396 521 430T607 465Q593 496 593 518Q593 553 621 585T652 635Q659 682 671 682Q687 682 687 653V326L765 395H1426Q1505 395 1545 354Q1592 306 1592 219V0ZM1465 135V195Q1465 260 1402 260H761L687 199V135H1465Z"  />
<glyph unicode="&#x637;" arabic-form="initial" horiz-adv-x="1366" d="M1284 0H-188V135H252V807Q252 885 203 885Q197 885 181 878T158 870Q150 870 150 883Q150 929 194 958Q232 983 281 983Q281 1049 315 1079Q341 1101 344 1124Q351 1171 362 1171Q379 1171 379 1141V326L457 395H1120Q1198 395 1239 354Q1284 309 1284 219V0ZM1157 135V195Q1157 260 1094 260H453L379 199V135H1157Z"  />
<glyph unicode="&#x637;" arabic-form="medial" horiz-adv-x="1403" d="M1284 0H-188V135H252V807Q252 885 203 885Q197 885 181 878T158 870Q150 870 150 883Q150 929 194 958Q232 983 281 983Q281 1049 315 1079Q341 1101 344 1124Q351 1171 362 1171Q379 1171 379 1141V326L457 395H1120Q1198 395 1239 354Q1284 309 1284 219V0ZM1157 135V195Q1157 260 1094 260H453L379 199V135H1157Z"  />
<glyph unicode="&#x637;" arabic-form="terminal" horiz-adv-x="1579" d="M1461 0H80Q50 0 50 16Q50 27 95 33Q120 36 142 61Q173 98 248 98Q248 166 275 195Q294 215 312 215Q324 215 324 201Q324 199 322 193T320 184Q320 135 390 135H428V807Q428 885 379 885Q373 885 357 878T334 870Q326 870 326 883Q326 929 370 958Q409 983 457 983Q457 1049 492 1079Q517 1101 521 1124Q527 1171 539 1171Q555 1171 555 1141V326L633 395H1297Q1375 395 1416 354Q1461 309 1461 219V0ZM1334 135V195Q1334 260 1270 260H629L555 199V135H1334Z"  />
<glyph unicode="&#x637;" arabic-form="isolated" horiz-adv-x="1543" d="M1461 0H80Q50 0 50 16Q50 27 95 33Q120 36 142 61Q173 98 248 98Q248 166 275 195Q294 215 312 215Q324 215 324 201Q324 199 322 193T320 184Q320 135 390 135H428V807Q428 885 379 885Q373 885 357 878T334 870Q326 870 326 883Q326 929 370 958Q409 983 457 983Q457 1049 492 1079Q517 1101 521 1124Q527 1171 539 1171Q555 1171 555 1141V326L633 395H1297Q1375 395 1416 354Q1461 309 1461 219V0ZM1334 135V195Q1334 260 1270 260H629L555 199V135H1334Z"  />
<glyph unicode="&#x638;" arabic-form="initial" horiz-adv-x="1366" d="M1284 0H-188V135H252V807Q252 885 203 885Q197 885 181 878T158 870Q150 870 150 883Q150 929 194 958Q232 983 281 983Q281 1049 315 1079Q341 1101 344 1124Q351 1171 362 1171Q379 1171 379 1141V326L457 395H1120Q1198 395 1239 354Q1284 309 1284 219V0ZM1157 135V195Q1157 260 1094 260H453L379 199V135H1157ZM866 588Q866 557 844 535T791 512Q760 512 738 534T715 588Q715 618 737 641T791 664Q821 664 843 641T866 588Z"  />
<glyph unicode="&#x638;" arabic-form="medial" horiz-adv-x="1403" d="M1284 0H-188V135H252V807Q252 885 203 885Q197 885 181 878T158 870Q150 870 150 883Q150 929 194 958Q232 983 281 983Q281 1049 315 1079Q341 1101 344 1124Q351 1171 362 1171Q379 1171 379 1141V326L457 395H1120Q1198 395 1239 354Q1284 309 1284 219V0ZM1157 135V195Q1157 260 1094 260H453L379 199V135H1157ZM866 588Q866 557 844 535T791 512Q760 512 738 534T715 588Q715 618 737 641T791 664Q821 664 843 641T866 588Z"  />
<glyph unicode="&#x638;" arabic-form="terminal" horiz-adv-x="1579" d="M1047 588Q1047 557 1025 535T971 512Q940 512 918 534T895 588Q895 618 917 641T971 664Q1002 664 1024 641T1047 588ZM1461 0H80Q50 0 50 16Q50 27 95 33Q120 36 142 61Q173 98 248 98Q248 166 275 195Q294 215 312 215Q324 215 324 201Q324 199 322 193T320 184Q320 135 390 135H428V807Q428 885 379 885Q373 885 357 878T334 870Q326 870 326 883Q326 929 370 958Q409 983 457 983Q457 1049 492 1079Q517 1101 521 1124Q527 1171 539 1171Q555 1171 555 1141V326L633 395H1297Q1375 395 1416 354Q1461 309 1461 219V0ZM1334 135V195Q1334 260 1270 260H629L555 199V135H1334Z"  />
<glyph unicode="&#x638;" arabic-form="isolated" horiz-adv-x="1543" d="M1047 588Q1047 557 1025 535T971 512Q940 512 918 534T895 588Q895 618 917 641T971 664Q1002 664 1024 641T1047 588ZM1461 0H80Q50 0 50 16Q50 27 95 33Q120 36 142 61Q173 98 248 98Q248 166 275 195Q294 215 312 215Q324 215 324 201Q324 199 322 193T320 184Q320 135 390 135H428V807Q428 885 379 885Q373 885 357 878T334 870Q326 870 326 883Q326 929 370 958Q409 983 457 983Q457 1049 492 1079Q517 1101 521 1124Q527 1171 539 1171Q555 1171 555 1141V326L633 395H1297Q1375 395 1416 354Q1461 309 1461 219V0ZM1334 135V195Q1334 260 1270 260H629L555 199V135H1334Z"  />
<glyph unicode="&#x639;" arabic-form="initial" horiz-adv-x="843" d="M793 16Q793 0 762 0H-188V135H195Q154 186 154 270Q154 380 228 452T422 524Q488 524 526 580Q555 623 555 666Q555 698 565 698Q588 698 588 618Q588 511 520 481Q584 432 584 365Q584 340 567 340Q569 341 527 370Q484 401 442 401Q387 401 346 361T305 266Q305 204 356 162Q404 123 467 123Q524 123 567 169Q609 212 604 215Q627 214 627 162Q627 109 600 102V98Q669 98 700 61Q722 36 745 33Q793 26 793 16Z"  />
<glyph unicode="&#x639;" arabic-form="medial" horiz-adv-x="797" d="M879 0H567Q506 108 457 150Q398 103 344 0H-188V135H281L350 213Q256 281 133 281Q120 281 102 278T78 274Q63 274 66 283Q66 291 89 328Q117 372 152 406Q233 485 317 504Q315 522 315 553Q315 636 385 698Q436 744 436 805Q436 846 457 846Q477 846 477 805Q477 744 528 698Q598 636 598 553Q598 522 596 504Q681 486 764 406Q798 372 827 328Q850 292 850 283Q850 276 834 276Q828 276 811 279T780 283Q655 283 561 215L631 135H879V0ZM608 362Q582 414 494 432Q506 454 506 487Q506 537 457 575Q408 537 408 487Q408 454 420 432Q331 414 305 362Q389 344 457 297Q524 344 608 362Z"  />
<glyph unicode="&#x639;" arabic-form="terminal" horiz-adv-x="797" d="M879 0H606Q560 70 457 154Q311 58 311 -66Q311 -150 376 -202Q448 -258 580 -258Q593 -258 631 -253T680 -248Q729 -248 729 -264Q729 -288 677 -307Q611 -332 494 -332Q324 -332 241 -237Q176 -163 176 -53Q176 71 330 229Q256 283 135 283Q122 283 104 280T80 276Q66 276 66 283Q66 291 89 328Q117 372 152 406Q233 485 317 504Q315 522 315 553Q315 636 385 698Q436 744 436 805Q436 846 457 846Q477 846 477 805Q477 744 528 698Q598 636 598 553Q598 522 596 504Q681 486 764 406Q798 372 827 328Q850 292 850 283Q850 276 834 276Q828 276 811 279T780 283Q655 283 561 215L647 135H879V0ZM608 362Q582 414 494 432Q506 454 506 487Q506 537 457 575Q408 537 408 487Q408 454 420 432Q331 414 305 362Q389 344 457 297Q524 344 608 362Z"  />
<glyph unicode="&#x639;" arabic-form="isolated" horiz-adv-x="843" d="M793 16Q793 0 762 0H379Q286 0 230 -65Q180 -122 180 -201Q180 -288 247 -350T418 -412Q454 -412 521 -399T586 -385Q610 -400 610 -408Q610 -419 592 -434Q505 -485 381 -485Q236 -485 142 -401Q45 -315 45 -180Q45 6 211 104Q154 158 154 270Q154 380 228 452T422 524Q488 524 526 580Q555 623 555 666Q555 698 565 698Q588 698 588 618Q588 511 520 481Q584 432 584 365Q584 340 567 340Q569 341 527 370Q484 401 442 401Q387 401 346 361T305 266Q305 204 356 162Q404 123 467 123Q524 123 567 169Q609 212 604 215Q627 214 627 162Q627 109 600 102V98Q669 98 700 61Q722 36 745 33Q793 26 793 16Z"  />
<glyph unicode="&#x63A;" arabic-form="initial" horiz-adv-x="843" d="M793 16Q793 0 762 0H-188V135H195Q154 186 154 270Q154 380 228 452T422 524Q488 524 526 580Q555 623 555 666Q555 698 565 698Q588 698 588 618Q588 511 520 481Q584 432 584 365Q584 340 567 340Q569 341 527 370Q484 401 442 401Q387 401 346 361T305 266Q305 204 356 162Q404 123 467 123Q524 123 567 169Q609 212 604 215Q627 214 627 162Q627 109 600 102V98Q669 98 700 61Q722 36 745 33Q793 26 793 16ZM412 756Q412 725 390 703T336 680Q305 680 283 702T260 756Q260 786 282 808T336 831Q367 831 389 809T412 756Z"  />
<glyph unicode="&#x63A;" arabic-form="medial" horiz-adv-x="797" d="M879 0H567Q506 108 457 150Q398 103 344 0H-188V135H281L350 213Q256 281 133 281Q120 281 102 278T78 274Q63 274 66 283Q66 291 89 328Q117 372 152 406Q233 485 317 504Q315 522 315 553Q315 636 385 698Q436 744 436 805Q436 846 457 846Q477 846 477 805Q477 744 528 698Q598 636 598 553Q598 522 596 504Q681 486 764 406Q798 372 827 328Q850 292 850 283Q850 276 834 276Q828 276 811 279T780 283Q655 283 561 215L631 135H879V0ZM608 362Q582 414 494 432Q506 454 506 487Q506 537 457 575Q408 537 408 487Q408 454 420 432Q331 414 305 362Q389 344 457 297Q524 344 608 362ZM532 993Q532 963 510 941T457 918Q426 918 404 940T381 993Q381 1024 403 1046T457 1069Q487 1069 509 1047T532 993Z"  />
<glyph unicode="&#x63A;" arabic-form="terminal" horiz-adv-x="797" d="M532 993Q532 963 510 941T457 918Q426 918 404 940T381 993Q381 1024 403 1046T457 1069Q487 1069 509 1047T532 993ZM879 0H606Q560 70 457 154Q311 58 311 -66Q311 -150 376 -202Q448 -258 580 -258Q593 -258 631 -253T680 -248Q729 -248 729 -264Q729 -288 677 -307Q611 -332 494 -332Q324 -332 241 -237Q176 -163 176 -53Q176 71 330 229Q256 283 135 283Q122 283 104 280T80 276Q66 276 66 283Q66 291 89 328Q117 372 152 406Q233 485 317 504Q315 522 315 553Q315 636 385 698Q436 744 436 805Q436 846 457 846Q477 846 477 805Q477 744 528 698Q598 636 598 553Q598 522 596 504Q681 486 764 406Q798 372 827 328Q850 292 850 283Q850 276 834 276Q828 276 811 279T780 283Q655 283 561 215L647 135H879V0ZM608 362Q582 414 494 432Q506 454 506 487Q506 537 457 575Q408 537 408 487Q408 454 420 432Q331 414 305 362Q389 344 457 297Q524 344 608 362Z"  />
<glyph unicode="&#x63A;" arabic-form="isolated" horiz-adv-x="843" d="M793 16Q793 0 762 0H379Q286 0 230 -65Q180 -122 180 -201Q180 -288 247 -350T418 -412Q454 -412 521 -399T586 -385Q610 -400 610 -408Q610 -419 592 -434Q505 -485 381 -485Q236 -485 142 -401Q45 -315 45 -180Q45 6 211 104Q154 158 154 270Q154 380 228 452T422 524Q488 524 526 580Q555 623 555 666Q555 698 565 698Q588 698 588 618Q588 511 520 481Q584 432 584 365Q584 340 567 340Q569 341 527 370Q484 401 442 401Q387 401 346 361T305 266Q305 204 356 162Q404 123 467 123Q524 123 567 169Q609 212 604 215Q627 214 627 162Q627 109 600 102V98Q669 98 700 61Q722 36 745 33Q793 26 793 16ZM416 756Q416 725 394 703T340 680Q309 680 287 702T264 756Q264 786 286 808T340 831Q371 831 393 809T416 756Z"  />
<glyph unicode="&#x640;" horiz-adv-x="475" d="M475 0H-188V135H475V0Z"  />
<glyph unicode="&#x641;" arabic-form="initial" horiz-adv-x="733" d="M651 0H-188V135H524V229H160Q125 229 125 250Q125 269 166 291Q221 320 233 397Q243 458 281 500T369 545Q386 653 494 702Q589 747 610 801Q622 831 631 831Q651 831 651 801V0ZM524 365V553Q454 539 449 455Q364 441 350 365H524ZM555 993Q555 963 533 941T479 918Q449 918 426 940T403 993Q403 1024 426 1046T479 1069Q510 1069 532 1047T555 993Z"  />
<glyph unicode="&#x641;" arabic-form="medial" horiz-adv-x="770" d="M651 0H-188V135H524V229H160Q125 229 125 250Q125 269 166 291Q221 320 233 397Q243 458 281 500T369 545Q386 653 494 702Q589 747 610 801Q622 831 631 831Q651 831 651 801V0ZM524 365V553Q454 539 449 455Q364 441 350 365H524ZM555 993Q555 963 533 941T479 918Q449 918 426 940T403 993Q403 1024 426 1046T479 1069Q510 1069 532 1047T555 993Z"  />
<glyph unicode="&#x641;" arabic-form="terminal" horiz-adv-x="1778" d="M1563 993Q1563 963 1541 941T1487 918Q1457 918 1434 940T1411 993Q1411 1024 1434 1046T1487 1069Q1518 1069 1540 1047T1563 993ZM1659 0H80Q50 0 50 16Q50 27 95 33Q120 36 142 61Q173 98 248 98Q248 166 275 195Q294 215 312 215Q324 215 324 201Q324 199 322 193T320 184Q320 135 390 135H1532V229H1168Q1133 229 1133 250Q1133 269 1174 291Q1229 320 1242 397Q1251 458 1289 500T1377 545Q1394 653 1502 702Q1597 747 1618 801Q1630 831 1639 831Q1659 831 1659 801V0ZM1532 365V553Q1462 539 1457 455Q1372 441 1358 365H1532Z"  />
<glyph unicode="&#x641;" arabic-form="isolated" horiz-adv-x="1741" d="M1563 993Q1563 963 1541 941T1487 918Q1457 918 1434 940T1411 993Q1411 1024 1434 1046T1487 1069Q1518 1069 1540 1047T1563 993ZM1659 0H80Q50 0 50 16Q50 27 95 33Q120 36 142 61Q173 98 248 98Q248 166 275 195Q294 215 312 215Q324 215 324 201Q324 199 322 193T320 184Q320 135 390 135H1532V229H1168Q1133 229 1133 250Q1133 269 1174 291Q1229 320 1242 397Q1251 458 1289 500T1377 545Q1394 653 1502 702Q1597 747 1618 801Q1630 831 1639 831Q1659 831 1659 801V0ZM1532 365V553Q1462 539 1457 455Q1372 441 1358 365H1532Z"  />
<glyph unicode="&#x642;" arabic-form="initial" horiz-adv-x="733" d="M651 0H-188V135H524V229H160Q125 229 125 250Q125 269 166 291Q221 320 233 397Q243 458 281 500T369 545Q386 653 494 702Q589 747 610 801Q622 831 631 831Q651 831 651 801V0ZM524 365V553Q454 539 449 455Q364 441 350 365H524ZM377 993Q377 963 355 941T301 918Q270 918 248 940T225 993Q225 1024 247 1046T301 1069Q332 1069 354 1047T377 993ZM586 993Q586 963 564 941T510 918Q479 918 457 940T434 993Q434 1024 456 1046T510 1069Q541 1069 563 1047T586 993Z"  />
<glyph unicode="&#x642;" arabic-form="medial" horiz-adv-x="770" d="M651 0H-188V135H524V229H160Q125 229 125 250Q125 269 166 291Q221 320 233 397Q243 458 281 500T369 545Q386 653 494 702Q589 747 610 801Q622 831 631 831Q651 831 651 801V0ZM524 365V553Q454 539 449 455Q364 441 350 365H524ZM377 993Q377 963 355 941T301 918Q270 918 248 940T225 993Q225 1024 247 1046T301 1069Q332 1069 354 1047T377 993ZM586 993Q586 963 564 941T510 918Q479 918 457 940T434 993Q434 1024 456 1046T510 1069Q541 1069 563 1047T586 993Z"  />
<glyph unicode="&#x642;" arabic-form="terminal" horiz-adv-x="868" d="M686 993Q686 963 664 941T610 918Q579 918 557 940T534 993Q534 1024 556 1046T610 1069Q641 1069 663 1047T686 993ZM477 993Q477 963 455 941T401 918Q370 918 348 940T325 993Q325 1024 347 1046T401 1069Q432 1069 454 1047T477 993ZM749 43Q749 -91 614 -167Q510 -225 395 -225Q272 -225 174 -144Q63 -51 61 96Q60 201 89 269Q112 322 131 322Q149 322 149 297Q149 284 141 244T133 162Q133 55 201 -15Q274 -90 397 -90Q502 -90 565 -41Q622 3 622 68V229H258Q223 229 223 250Q223 269 264 291Q319 320 331 397Q341 458 379 500T467 545Q484 653 592 702Q687 747 708 801Q720 831 729 831Q749 831 749 801V43ZM622 365V553Q552 539 547 455Q462 441 448 365H622Z"  />
<glyph unicode="&#x642;" arabic-form="isolated" horiz-adv-x="831" d="M686 993Q686 963 664 941T610 918Q579 918 557 940T534 993Q534 1024 556 1046T610 1069Q641 1069 663 1047T686 993ZM477 993Q477 963 455 941T401 918Q370 918 348 940T325 993Q325 1024 347 1046T401 1069Q432 1069 454 1047T477 993ZM749 43Q749 -91 614 -167Q510 -225 395 -225Q272 -225 174 -144Q63 -51 61 96Q60 201 89 269Q112 322 131 322Q149 322 149 297Q149 284 141 244T133 162Q133 55 201 -15Q274 -90 397 -90Q502 -90 565 -41Q622 3 622 68V229H258Q223 229 223 250Q223 269 264 291Q319 320 331 397Q341 458 379 500T467 545Q484 653 592 702Q687 747 708 801Q720 831 729 831Q749 831 749 801V43ZM622 365V553Q552 539 547 455Q462 441 448 365H622Z"  />
<glyph unicode="&#x643;" arabic-form="initial" horiz-adv-x="1534" d="M1452 0H-188V135H1325V195Q1325 260 1260 260H119V395L1008 1044Q1022 1055 1028 1055Q1038 1055 1038 1040Q1038 1034 1015 1007T991 954Q991 923 967 893T942 860Q942 855 954 829T967 784Q967 758 954 734T930 709Q927 709 912 741T868 774Q844 774 813 752L322 399V395H1286Q1363 395 1405 354Q1452 309 1452 219V0Z"  />
<glyph unicode="&#x643;" arabic-form="medial" horiz-adv-x="1554" d="M1452 0H-188V135H1325V195Q1325 260 1260 260H119V395L1008 1044Q1022 1055 1028 1055Q1038 1055 1038 1040Q1038 1034 1015 1007T991 954Q991 923 967 893T942 860Q942 855 954 829T967 784Q967 758 954 734T930 709Q927 709 912 741T868 774Q844 774 813 752L322 399V395H1286Q1363 395 1405 354Q1452 309 1452 219V0Z"  />
<glyph unicode="&#x643;" arabic-form="terminal" horiz-adv-x="1291" d="M1172 0H80Q50 0 50 16Q50 27 95 33Q120 36 142 61Q173 98 248 98Q248 166 275 195Q294 215 312 215Q324 215 324 201Q324 195 320 186Q310 177 333 156T390 135H1045V807Q1045 885 996 885Q990 885 974 878T951 870Q943 870 943 883Q943 929 987 958Q1025 983 1074 983Q1074 1049 1108 1079Q1134 1101 1137 1124Q1144 1171 1155 1171Q1172 1171 1172 1141V0ZM891 326Q891 319 877 319H392Q375 319 375 326Q375 339 402 342Q414 342 435 362Q448 379 469 379Q488 379 496 367L500 371Q494 377 494 401Q494 410 502 428T519 446Q527 446 527 432Q527 401 555 401H611Q588 439 588 479Q588 578 721 594Q746 597 774 628T803 683T811 707Q828 707 828 674Q828 652 809 615T766 565Q797 527 797 506Q797 485 795 485Q796 485 776 503T732 522Q670 522 670 461Q670 397 732 397Q766 397 783 424Q801 454 813 414Q817 403 843 374T880 340T891 326Z"  />
<glyph unicode="&#x643;" arabic-form="isolated" horiz-adv-x="1254" d="M1172 0H80Q50 0 50 16Q50 27 95 33Q120 36 142 61Q173 98 248 98Q248 166 275 195Q294 215 312 215Q324 215 324 201Q324 195 320 186Q310 177 333 156T390 135H1045V807Q1045 885 996 885Q990 885 974 878T951 870Q943 870 943 883Q943 929 987 958Q1025 983 1074 983Q1074 1049 1108 1079Q1134 1101 1137 1124Q1144 1171 1155 1171Q1172 1171 1172 1141V0ZM891 326Q891 319 877 319H392Q375 319 375 326Q375 339 402 342Q414 342 435 362Q448 379 469 379Q488 379 496 367L500 371Q494 377 494 401Q494 410 502 428T519 446Q527 446 527 432Q527 401 555 401H611Q588 439 588 479Q588 578 721 594Q746 597 774 628T803 683T811 707Q828 707 828 674Q828 652 809 615T766 565Q797 527 797 506Q797 485 795 485Q796 485 776 503T732 522Q670 522 670 461Q670 397 732 397Q766 397 783 424Q801 454 813 414Q817 403 843 374T880 340T891 326Z"  />
<glyph unicode="&#x644;" arabic-form="initial" horiz-adv-x="418" d="M336 0H-188V135H209V807Q209 885 160 885Q154 885 138 878T115 870Q106 870 106 883Q106 929 151 958Q189 983 238 983Q238 1049 272 1079Q298 1101 301 1124Q308 1171 319 1171Q336 1171 336 1141V0Z"  />
<glyph unicode="&#x644;" arabic-form="medial" horiz-adv-x="455" d="M336 0H-188V135H209V807Q209 885 160 885Q154 885 138 878T115 870Q106 870 106 883Q106 929 151 958Q189 983 238 983Q238 1049 272 1079Q298 1101 301 1124Q308 1171 319 1171Q336 1171 336 1141V0Z"  />
<glyph unicode="&#x644;" arabic-form="terminal" horiz-adv-x="806" d="M687 -33Q687 -150 593 -232T374 -315Q234 -315 149 -236Q60 -153 60 -14Q60 61 95 147Q139 256 171 256Q187 256 187 240Q187 235 160 163T132 29Q132 -51 188 -111Q253 -180 361 -180Q454 -180 507 -133T560 -2V807Q560 885 511 885Q505 885 489 878T466 870Q458 870 458 883Q458 929 502 958Q540 983 589 983Q589 1049 624 1079Q649 1101 652 1124Q659 1171 671 1171Q687 1171 687 1141V-33Z"  />
<glyph unicode="&#x644;" arabic-form="isolated" horiz-adv-x="769" d="M687 -33Q687 -150 593 -232T374 -315Q234 -315 149 -236Q60 -153 60 -14Q60 61 95 147Q139 256 171 256Q187 256 187 240Q187 235 160 163T132 29Q132 -51 188 -111Q253 -180 361 -180Q454 -180 507 -133T560 -2V807Q560 885 511 885Q505 885 489 878T466 870Q458 870 458 883Q458 929 502 958Q540 983 589 983Q589 1049 624 1079Q649 1101 652 1124Q659 1171 671 1171Q687 1171 687 1141V-33Z"  />
<glyph unicode="&#x645;" arabic-form="initial" horiz-adv-x="656" d="M596 84Q596 11 543 -53T410 -141Q410 -202 378 -240Q353 -270 332 -270Q319 -270 319 -256Q319 -251 323 -243T328 -231Q328 -159 254 -121Q228 -108 195 -72Q157 -31 152 0H-188V135H141Q156 197 205 249Q250 299 291 305Q291 357 313 398Q334 436 358 436Q375 436 375 426Q375 421 374 417T373 406Q373 343 459 291Q596 207 596 84ZM453 80Q453 118 426 145T360 172Q322 172 294 145T266 80Q266 41 294 14T360 -14Q399 -14 426 13T453 80Z"  />
<glyph unicode="&#x645;" arabic-form="medial" horiz-adv-x="645" d="M596 84Q596 11 543 -53T410 -141Q410 -202 378 -240Q353 -270 332 -270Q319 -270 319 -256Q319 -251 323 -243T328 -231Q328 -159 254 -121Q228 -108 195 -72Q157 -31 152 0H-188V135H141Q156 197 205 249Q250 299 291 305Q291 357 313 398Q334 436 358 436Q375 436 375 426Q375 421 374 417T373 406Q373 343 459 291Q596 207 596 84ZM453 80Q453 118 426 145T360 172Q322 172 294 145T266 80Q266 41 294 14T360 -14Q399 -14 426 13T453 80Z"  />
<glyph unicode="&#x645;" arabic-form="terminal" horiz-adv-x="759" d="M677 0H342Q342 -141 260 -223Q185 -299 71 -299Q0 -299 0 -276Q0 -262 59 -246Q227 -200 227 25Q227 300 393 313Q410 419 518 469Q612 512 634 571Q646 602 657 602Q677 602 677 571V0ZM550 135V322Q478 308 473 223Q388 212 374 135H550Z"  />
<glyph unicode="&#x645;" arabic-form="isolated" horiz-adv-x="759" d="M677 0H342Q342 -141 260 -223Q185 -299 71 -299Q0 -299 0 -276Q0 -262 59 -246Q227 -200 227 25Q227 300 393 313Q410 419 518 469Q612 512 634 571Q646 602 657 602Q677 602 677 571V0ZM550 135V322Q478 308 473 223Q388 212 374 135H550Z"  />
<glyph unicode="&#x646;" arabic-form="initial" horiz-adv-x="481" d="M375 0H-188V135H248V313Q248 367 213 367Q207 367 195 363T178 358Q166 358 166 373Q166 396 207 429Q252 465 295 465Q281 496 281 518Q281 553 309 585T340 635Q347 682 358 682Q375 682 375 653V0ZM391 862Q391 831 369 809T315 786Q285 786 263 808T240 862Q240 893 262 915T315 938Q346 938 368 916T391 862Z"  />
<glyph unicode="&#x646;" arabic-form="medial" horiz-adv-x="494" d="M375 0H-188V135H248V313Q248 367 213 367Q207 367 195 363T178 358Q166 358 166 373Q166 396 207 429Q252 465 295 465Q281 496 281 518Q281 553 309 585T340 635Q347 682 358 682Q375 682 375 653V0ZM391 862Q391 831 369 809T315 786Q285 786 263 808T240 862Q240 893 262 915T315 938Q346 938 368 916T391 862Z"  />
<glyph unicode="&#x646;" arabic-form="terminal" horiz-adv-x="847" d="M744 45Q744 -85 652 -188Q553 -299 410 -299Q261 -299 160 -181Q70 -75 70 53Q70 188 187 326Q296 454 296 530Q296 551 283 563Q253 530 212 530Q134 530 134 606Q134 682 214 682Q266 682 304 628Q337 580 337 530Q337 446 251 336Q152 210 152 88Q152 -20 218 -92T378 -164Q476 -164 540 -94Q601 -28 601 66Q601 147 551 213Q499 283 429 283Q423 283 406 279T378 274Q365 274 365 289Q365 313 396 342T459 371Q480 371 492 367Q486 387 486 426Q486 473 525 531T588 590Q604 590 607 578Q608 574 594 544Q578 510 578 483Q578 419 636 342Q744 197 744 45Z"  />
<glyph unicode="&#x646;" arabic-form="isolated" horiz-adv-x="814" d="M744 45Q744 -85 652 -188Q553 -299 410 -299H408Q267 -299 166 -189Q70 -84 70 53Q70 188 187 326Q296 454 296 530Q296 551 283 563Q253 530 212 530Q134 530 134 606Q134 682 214 682Q266 682 304 628Q337 580 337 530Q337 446 251 336Q152 210 152 88Q152 -20 218 -92T378 -164Q476 -164 540 -94Q601 -28 601 66Q601 147 551 213Q499 283 429 283Q423 283 406 279T378 274Q365 274 365 289Q365 313 396 342T459 371Q480 371 492 367Q486 387 486 426Q486 473 525 531T588 590Q604 590 607 578Q608 574 594 544Q578 510 578 483Q578 419 636 342Q744 197 744 45Z"  />
<glyph unicode="&#x647;" arabic-form="initial" horiz-adv-x="889" d="M829 0H-188V135H123Q106 156 106 203Q106 246 140 291T225 358Q217 391 217 412Q217 489 307 547Q342 569 342 606Q342 611 336 633T330 662Q330 690 344 690Q354 690 362 680L829 135V0ZM465 373L406 442Q319 421 319 342Q319 333 323 317T328 297Q328 283 291 270Q236 252 233 186Q233 164 250 135H346L465 373ZM670 135L541 285L465 135H670Z"  />
<glyph unicode="&#x647;" arabic-form="medial" horiz-adv-x="721" d="M754 0H455V-291Q442 -299 406 -299Q265 -299 162 -212T41 0H-188V135H41Q66 247 147 326Q234 408 328 418V449Q328 492 290 492Q285 492 281 489L256 483Q240 483 240 500Q240 522 272 542T334 563Q352 563 365 557Q360 569 360 588Q360 623 389 655T420 707Q425 754 436 754Q455 754 455 725V418Q555 404 635 330Q754 219 754 0ZM328 135V283Q277 277 233 232T180 135H328ZM328 -147V0H180Q188 -51 232 -96T328 -147ZM602 135Q594 186 550 231T455 283V135H602Z"  />
<glyph unicode="&#x647;" arabic-form="terminal" horiz-adv-x="695" d="M576 0H449V123H85Q50 123 50 143Q50 162 91 184Q146 214 159 291Q169 352 206 393T294 438Q311 546 419 596Q515 640 535 694Q547 725 556 725Q576 725 576 694V0ZM449 258V446Q379 432 374 348Q289 335 275 258H449Z"  />
<glyph unicode="&#x647;" arabic-form="isolated" horiz-adv-x="658" d="M576 0H85Q50 0 50 20Q50 40 91 61Q146 91 159 168Q169 229 206 270T294 315Q311 424 419 473Q515 517 535 571Q547 602 556 602Q576 602 576 571V0ZM449 135V324Q379 310 374 225Q289 212 275 135H449Z"  />
<glyph unicode="&#x648;" arabic-form="terminal" horiz-adv-x="695" d="M576 0Q576 -129 508 -220Q422 -332 259 -332Q179 -332 125 -316T71 -276Q71 -256 107 -252Q118 -251 137 -254T165 -258Q449 -258 449 0H85Q50 0 50 20Q50 40 91 61Q146 91 159 168Q169 229 206 270T294 315Q311 424 419 473Q515 517 535 571Q547 602 556 602Q576 602 576 571V0ZM449 135V324Q379 310 374 225Q289 212 275 135H449Z"  />
<glyph unicode="&#x648;" arabic-form="isolated" horiz-adv-x="658" d="M576 0Q576 -129 508 -220Q422 -332 259 -332Q179 -332 125 -316T71 -276Q71 -256 107 -252Q118 -251 137 -254T165 -258Q449 -258 449 0H85Q50 0 50 20Q50 40 91 61Q146 91 159 168Q169 229 206 270T294 315Q311 424 419 473Q515 517 535 571Q547 602 556 602Q576 602 576 571V0ZM449 135V324Q379 310 374 225Q289 212 275 135H449Z"  />
<glyph unicode="&#x649;" arabic-form="initial" horiz-adv-x="457" d="M375 0H-188V135H248V313Q248 367 213 367Q207 367 195 363T178 358Q166 358 166 373Q166 396 207 429Q252 465 295 465Q281 496 281 518Q281 553 309 585T340 635Q347 682 358 682Q375 682 375 653V0Z"  />
<glyph unicode="&#x649;" arabic-form="medial" horiz-adv-x="494" d="M375 0H-188V135H248V313Q248 367 213 367Q207 367 195 363T178 358Q166 358 166 373Q166 396 207 429Q252 465 295 465Q281 496 281 518Q281 553 309 585T340 635Q347 682 358 682Q375 682 375 653V0Z"  />
<glyph unicode="&#x649;" arabic-form="terminal" horiz-adv-x="1729" d="M1745 0H1565L902 709L869 618Q863 602 863 588Q863 578 875 565L1405 0H80Q50 0 50 14Q50 27 95 33Q120 36 142 61Q173 98 248 98Q248 166 275 193Q295 213 312 213Q324 213 324 201Q324 198 322 192T320 182Q320 135 390 135H1094L764 487Q727 527 727 563Q727 588 775 716Q818 832 828 850Q836 874 836 899Q836 905 834 912T832 922Q832 938 842 938Q852 938 877 911L1606 135H1745V0Z"  />
<glyph unicode="&#x649;" arabic-form="isolated" horiz-adv-x="2003" d="M1973 16Q1973 0 1942 0H1565L902 709L869 618Q863 602 863 588Q863 578 875 565L1405 0H80Q50 0 50 14Q50 27 95 33Q120 36 142 61Q173 98 248 98Q248 166 275 193Q295 213 312 213Q324 213 324 201Q324 198 322 192T320 182Q320 135 390 135H1094L764 487Q727 527 727 563Q727 588 775 716Q818 832 828 850Q836 874 836 899Q836 905 834 912T832 922Q832 938 842 938Q852 938 877 911L1606 135H1633Q1702 135 1702 184Q1702 186 1700 192T1698 201Q1698 215 1711 215Q1728 215 1747 195Q1774 166 1774 98Q1849 98 1880 61Q1902 36 1928 33Q1973 27 1973 16Z"  />
<glyph unicode="&#x64A;" arabic-form="initial" horiz-adv-x="457" d="M375 0H-188V135H248V313Q248 367 213 367Q207 367 195 363T178 358Q166 358 166 373Q166 396 207 429Q252 465 295 465Q281 496 281 518Q281 553 309 585T340 635Q347 682 358 682Q375 682 375 653V0ZM147 -195Q147 -225 125 -247T72 -270Q41 -270 19 -248T-4 -195Q-4 -164 18 -142T72 -119Q102 -119 124 -141T147 -195ZM356 -195Q356 -225 334 -247T281 -270Q250 -270 228 -248T205 -195Q205 -164 227 -142T281 -119Q311 -119 333 -141T356 -195Z"  />
<glyph unicode="&#x64A;" arabic-form="medial" horiz-adv-x="494" d="M375 0H-188V135H248V313Q248 367 213 367Q207 367 195 363T178 358Q166 358 166 373Q166 396 207 429Q252 465 295 465Q281 496 281 518Q281 553 309 585T340 635Q347 682 358 682Q375 682 375 653V0ZM147 -195Q147 -225 125 -247T72 -270Q41 -270 19 -248T-4 -195Q-4 -164 18 -142T72 -119Q102 -119 124 -141T147 -195ZM356 -195Q356 -225 334 -247T281 -270Q250 -270 228 -248T205 -195Q205 -164 227 -142T281 -119Q311 -119 333 -141T356 -195Z"  />
<glyph unicode="&#x64A;" arabic-form="terminal" horiz-adv-x="1729" d="M1745 0H1565L902 709L869 618Q863 602 863 588Q863 578 875 565L1405 0H80Q50 0 50 14Q50 27 95 33Q120 36 142 61Q173 98 248 98Q248 166 275 193Q295 213 312 213Q324 213 324 201Q324 198 322 192T320 182Q320 135 390 135H1094L764 487Q727 527 727 563Q727 588 775 716Q818 832 828 850Q836 874 836 899Q836 905 834 912T832 922Q832 938 842 938Q852 938 877 911L1606 135H1745V0ZM1022 -195Q1022 -225 1000 -247T947 -270Q916 -270 894 -248T871 -195Q871 -164 893 -142T947 -119Q977 -119 999 -141T1022 -195ZM813 -195Q813 -225 791 -247T738 -270Q707 -270 685 -248T662 -195Q662 -164 684 -142T738 -119Q768 -119 790 -141T813 -195Z"  />
<glyph unicode="&#x64A;" arabic-form="isolated" horiz-adv-x="2003" d="M1973 16Q1973 0 1942 0H1565L902 709L869 618Q863 602 863 588Q863 578 875 565L1405 0H80Q50 0 50 14Q50 27 95 33Q120 36 142 61Q173 98 248 98Q248 166 275 193Q295 213 312 213Q324 213 324 201Q324 198 322 192T320 182Q320 135 390 135H1094L764 487Q727 527 727 563Q727 588 775 716Q818 832 828 850Q836 874 836 899Q836 905 834 912T832 922Q832 938 842 938Q852 938 877 911L1606 135H1633Q1702 135 1702 184Q1702 186 1700 192T1698 201Q1698 215 1711 215Q1728 215 1747 195Q1774 166 1774 98Q1849 98 1880 61Q1902 36 1928 33Q1973 27 1973 16ZM1022 -195Q1022 -225 1000 -247T947 -270Q916 -270 894 -248T871 -195Q871 -164 893 -142T947 -119Q977 -119 999 -141T1022 -195ZM813 -195Q813 -225 791 -247T738 -270Q707 -270 685 -248T662 -195Q662 -164 684 -142T738 -119Q768 -119 790 -141T813 -195Z"  />
<glyph unicode="&#x64B;" horiz-adv-x="0" d="M346 1390L296 1314L-20 1224L29 1301L346 1390ZM346 1521L296 1446L-20 1355L29 1432L346 1521Z"  />
<glyph unicode="&#x64C;" horiz-adv-x="0" d="M381 1529Q381 1476 329 1419Q340 1408 340 1389Q340 1374 326 1355T305 1336Q302 1336 294 1343Q291 1352 287 1357Q206 1292 161 1269Q106 1241 77 1212Q68 1203 62 1203Q57 1204 57 1211Q57 1213 77 1245T97 1295Q97 1350 27 1350Q-20 1350 -106 1301T-191 1251Q-194 1251 -194 1255Q-194 1273 -150 1308Q-4 1424 77 1424Q145 1424 145 1362Q145 1350 136 1319Q215 1360 248 1397Q207 1436 206 1470Q205 1502 247 1542T331 1582Q381 1582 381 1529ZM322 1483Q322 1497 311 1510T285 1524Q257 1524 257 1500Q257 1471 305 1445Q322 1461 322 1483Z"  />
<glyph unicode="&#x64D;" horiz-adv-x="0" d="M346 -688L296 -764L-20 -854L29 -777L346 -688ZM346 -557L296 -632L-20 -723L29 -646L346 -557Z"  />
<glyph unicode="&#x64E;" horiz-adv-x="0" d="M346 1390L296 1314L-20 1224L29 1301L346 1390Z"  />
<glyph unicode="&#x64F;" horiz-adv-x="0" d="M216 1356Q175 1395 174 1429Q172 1461 216 1501Q256 1541 299 1541Q349 1541 349 1488Q349 1435 297 1377Q315 1360 315 1350Q315 1342 310 1337L284 1307Q280 1304 277 1301T269 1298Q265 1298 260 1307T244 1326Q215 1306 178 1288T101 1256Q72 1245 35 1233T-50 1206Q-46 1218 -37 1233T-11 1269Q12 1281 40 1291T101 1309Q136 1320 163 1331T216 1356ZM290 1442Q290 1456 279 1469T253 1483Q225 1483 225 1458Q225 1430 273 1404Q290 1418 290 1442Z"  />
<glyph unicode="&#x650;" horiz-adv-x="0" d="M346 -557L296 -633L-20 -723L29 -646L346 -557Z"  />
<glyph unicode="&#x651;" horiz-adv-x="0" d="M306 1392Q306 1346 281 1314Q252 1278 210 1278Q187 1278 175 1287T155 1314Q144 1283 118 1268T65 1253Q15 1253 15 1306Q15 1314 17 1329T19 1350Q19 1360 17 1373T14 1395Q14 1405 17 1415T28 1436Q43 1457 54 1457Q70 1457 70 1409V1348Q70 1311 102 1311Q122 1311 131 1327T141 1372Q141 1377 139 1391T136 1415Q136 1437 149 1459Q162 1480 174 1480Q180 1480 183 1471T187 1437V1363Q203 1350 217 1344T250 1337Q254 1348 254 1390Q254 1396 250 1413T245 1450Q245 1458 249 1471T264 1498Q275 1515 280 1515Q287 1515 293 1490Q306 1435 306 1392Z"  />
<glyph unicode="&#x652;" horiz-adv-x="0" d="M269 1404Q269 1359 233 1313Q191 1255 147 1255Q68 1255 68 1329Q68 1397 122 1451Q122 1501 160 1528Q177 1500 223 1467T269 1404ZM224 1344Q215 1397 152 1431Q120 1398 120 1360Q120 1325 176 1325Q201 1325 224 1344Z"  />
<glyph unicode="&#x653;" horiz-adv-x="0" d="M409 1383Q409 1373 356 1331Q318 1302 283 1289T203 1275Q183 1275 161 1279T105 1296Q72 1309 52 1311T24 1314Q13 1314 0 1308T-28 1286Q-59 1252 -65 1252Q-77 1252 -77 1261Q-77 1291 -40 1334Q4 1384 51 1384Q67 1384 136 1360Q171 1349 195 1344T243 1338Q270 1338 293 1344T344 1365Q371 1380 383 1386Q394 1392 393 1393Q409 1393 409 1383Z"  />
<glyph unicode="&#x654;" horiz-adv-x="0" d="M283 1393L263 1324Q134 1290 52 1214Q52 1274 94 1308Q30 1333 30 1384Q30 1416 88 1467Q136 1510 182 1510Q228 1510 228 1479Q228 1461 213 1442T184 1422Q180 1422 168 1437T129 1453Q104 1453 90 1428Q106 1372 167 1353L283 1393Z"  />
<glyph unicode="&#x655;" horiz-adv-x="0" d="M283 -704L263 -773Q134 -807 52 -883Q52 -823 94 -789Q30 -764 30 -713Q30 -681 88 -630Q136 -587 182 -587Q228 -587 228 -618Q228 -636 213 -655T184 -675Q180 -675 168 -660T129 -644Q104 -644 90 -669Q106 -725 167 -744L283 -704Z"  />
<glyph unicode="&#x656;" horiz-adv-x="0" d="M160 -862Q160 -810 149 -753T102 -639L157 -573Q196 -671 196 -798L160 -862Z"  />
<glyph unicode="&#x658;" horiz-adv-x="0" d="M286 1456Q286 1417 278 1388T253 1334Q227 1294 202 1278T154 1262Q126 1262 105 1278T70 1317T49 1364T42 1406Q42 1412 47 1424T61 1450T76 1472T89 1482Q94 1482 93 1469Q93 1461 93 1454T92 1440Q92 1424 99 1405T118 1370T145 1342T177 1330Q186 1330 196 1333T216 1343Q226 1348 230 1357T234 1371Q234 1379 234 1386T233 1400Q230 1408 230 1415T229 1428Q229 1431 233 1441T244 1463T256 1482T268 1491Q275 1491 280 1480T286 1456Z"  />
<glyph unicode="&#x660;" horiz-adv-x="800" d="M492 202H308V387H492V202Z"  />
<glyph unicode="&#x661;" horiz-adv-x="800" d="M475 0H348V801Q348 854 313 854Q307 854 295 850T278 846Q266 846 266 860Q266 883 309 917T395 952Q381 978 381 1014Q381 1052 411 1079Q437 1102 440 1124Q447 1171 459 1171Q475 1171 475 1141V0Z"  />
<glyph unicode="&#x662;" horiz-adv-x="800" d="M752 1143Q752 1132 715 1129T664 1104Q645 1075 605 1075Q600 1075 588 1077T568 1080Q582 1054 582 1024Q582 1004 562 978T527 951Q513 951 513 961Q513 962 515 966T517 975Q517 1014 478 1014H255V0H128V1149H734Q748 1149 752 1143Z"  />
<glyph unicode="&#x663;" horiz-adv-x="800" d="M728 674H265V0H138V864Q138 909 116 909Q108 909 102 904T93 899Q85 899 83 909Q83 928 110 951T159 975Q173 975 179 969L183 973Q175 984 175 999Q175 1053 208 1079Q231 1098 234 1124Q241 1171 253 1171Q265 1171 265 1141V809H370V864Q370 909 347 909Q339 909 334 904T325 899Q317 899 314 909Q314 928 341 951T390 975Q404 975 411 969L415 973Q406 984 406 999Q406 1053 439 1079Q462 1098 466 1124Q472 1171 484 1171Q497 1171 497 1141V809H601V864Q601 909 578 909Q571 909 565 904T556 899Q548 899 546 909Q546 928 573 951T621 975Q636 975 642 969L646 973Q638 984 638 999Q638 1053 671 1079Q694 1098 697 1124Q704 1171 716 1171Q728 1171 728 1141V674Z"  />
<glyph unicode="&#x664;" horiz-adv-x="800" d="M779 8Q779 0 763 0H17L460 578H72L505 1141Q528 1171 533 1171Q543 1171 543 1157Q543 1156 531 1127T519 1075Q519 1012 486 995V991Q510 991 532 965T554 911Q554 885 541 885Q538 885 525 894T503 903Q479 903 457 874L324 700H711L279 135H482Q519 135 519 162Q519 166 517 172T515 180Q515 190 523 190Q540 190 562 165T584 113Q584 88 572 63L576 59Q593 74 621 74Q649 74 687 49Q720 28 736 25Q779 16 779 8Z"  />
<glyph unicode="&#x665;" horiz-adv-x="800" d="M686 0H115V135L338 1159H473L686 135V0ZM579 29L405 887H401L242 135H336Q368 135 379 184Q432 184 432 100Q432 76 422 66L426 63Q446 84 469 84Q493 84 523 57T563 29H579Z"  />
<glyph unicode="&#x666;" horiz-adv-x="800" d="M673 0H546V1014H323Q284 1014 284 975Q284 970 286 966T288 961Q288 951 274 951Q258 951 238 977T218 1024Q218 1054 233 1080Q225 1080 213 1078T196 1075Q156 1075 137 1104Q123 1125 86 1128T48 1143Q54 1149 67 1149H673V0Z"  />
<glyph unicode="&#x667;" horiz-adv-x="800" d="M705 1147Q705 1140 693 1081L468 0H333L107 1081Q95 1140 95 1147Q95 1171 107 1171Q116 1171 130 1126Q134 1102 163 1085Q204 1061 204 1003Q228 1020 257 1020Q275 1020 300 1005T325 981Q325 970 304 970Q273 970 273 923Q273 900 282 860L398 289H402L519 860Q527 900 527 923Q527 970 497 970Q476 970 476 981Q476 990 501 1005T544 1020Q572 1020 597 1003Q597 1061 638 1085Q667 1102 671 1126Q685 1171 693 1171Q705 1171 705 1147Z"  />
<glyph unicode="&#x668;" horiz-adv-x="800" d="M705 13Q705 -12 693 -12Q685 -12 671 33Q667 57 638 74Q597 98 597 156Q572 140 544 140Q526 140 501 154T476 178Q476 189 497 189Q527 189 527 236Q527 259 519 299L402 870H398L282 299Q273 259 273 236Q273 189 304 189Q325 189 325 178Q325 169 300 155T257 140Q228 140 204 156Q204 98 163 74Q134 57 130 33Q116 -12 107 -12Q95 -12 95 13Q95 19 107 78L333 1159H468L693 78Q705 19 705 13Z"  />
<glyph unicode="&#x669;" horiz-adv-x="800" d="M668 0H541V637Q514 637 480 610T426 582Q397 582 388 594L386 590Q400 572 400 549Q400 530 379 504T345 477Q330 477 330 485Q330 488 332 491T334 498Q334 543 277 543H82V674L525 1159L668 1080V0ZM541 666V1004L234 666H541Z"  />
<glyph unicode="&#x66A;" horiz-adv-x="872" d="M395 989Q395 955 371 931T313 907Q280 907 256 931T231 989Q231 1023 255 1047T313 1071Q347 1071 371 1047T395 989ZM772 1104L176 -47H57L653 1104H772ZM604 68Q604 34 580 10T522 -14Q488 -14 464 10T440 68Q440 101 464 125T522 150Q556 150 580 126T604 68Z"  />
<glyph unicode="&#x66B;" horiz-adv-x="379" d="M270 39Q270 -24 223 -94Q182 -156 160 -156Q147 -156 147 -143Q147 -133 160 -113Q201 -68 205 -6Q191 -14 174 -14Q142 -14 118 10T94 68Q94 101 118 125T176 150Q217 150 243 118T270 39Z"  />
<glyph unicode="&#x66C;" horiz-adv-x="379" d="M252 25Q252 -22 216 -74Q184 -121 168 -121Q160 -121 160 -113Q160 -104 168 -88Q199 -53 203 -8Q195 -14 178 -14Q119 -14 119 47Q119 72 137 90T180 109Q211 109 231 85T252 25Z"  />
<glyph unicode="&#x66D;" horiz-adv-x="1518" d="M1415 643L991 385L1190 -47L1116 -111L745 215L373 -111L299 -47L498 385L74 643L102 739L594 670L702 1130H786L897 670L1386 739L1415 643Z"  />
<glyph unicode="&#x670;" horiz-adv-x="0" d="M155 1244Q155 1296 144 1353T97 1467L152 1533Q191 1435 191 1308L155 1244Z"  />
<glyph unicode="&#x671;" arabic-form="terminal" horiz-adv-x="321" d="M82 1141Q82 1171 98 1171Q110 1171 116 1124Q120 1101 145 1079Q180 1049 180 983Q228 983 267 958Q311 929 311 883Q311 870 303 870Q297 870 281 877T258 885Q209 885 209 807V0H82V1141ZM319 1431Q319 1406 307 1381T274 1331Q221 1272 139 1272Q116 1272 100 1278T71 1292T48 1306T25 1313Q10 1313 -12 1295Q-17 1290 -23 1290Q-26 1290 -26 1296Q-26 1297 -24 1304T-16 1319T-4 1337T14 1354Q39 1373 62 1373Q69 1373 79 1372T101 1362Q133 1423 171 1458T255 1493Q286 1493 302 1473T319 1431ZM278 1393Q278 1405 264 1418T230 1431Q199 1431 173 1410T122 1347Q135 1338 159 1338Q184 1338 205 1343T246 1358Q278 1376 278 1393Z"  />
<glyph unicode="&#x671;" arabic-form="isolated" horiz-adv-x="315" d="M239 0H112V807Q112 885 63 885Q57 885 41 878T18 870Q10 870 10 883Q10 929 54 958Q93 983 141 983Q141 1049 176 1079Q201 1101 205 1124Q211 1171 223 1171Q239 1171 239 1141V0ZM319 1431Q319 1406 307 1381T274 1331Q221 1272 139 1272Q116 1272 100 1278T71 1292T48 1306T25 1313Q10 1313 -12 1295Q-17 1290 -23 1290Q-26 1290 -26 1296Q-26 1297 -24 1304T-16 1319T-4 1337T14 1354Q39 1373 62 1373Q69 1373 79 1372T101 1362Q133 1423 171 1458T255 1493Q286 1493 302 1473T319 1431ZM278 1393Q278 1405 264 1418T230 1431Q199 1431 173 1410T122 1347Q135 1338 159 1338Q184 1338 205 1343T246 1358Q278 1376 278 1393Z"  />
<glyph unicode="&#x679;" arabic-form="initial" horiz-adv-x="494" d="M375 0H-188V135H248V313Q248 367 213 367Q207 367 195 363T178 358Q166 358 166 373Q166 396 207 429Q252 465 295 465Q281 496 281 518Q281 553 309 585T340 635Q347 682 358 682Q375 682 375 653V0ZM426 780H8Q-5 780 -5 789Q-5 796 15 798Q25 799 35 810Q48 827 80 827Q80 856 92 868Q100 877 107 877Q113 877 113 871Q113 870 113 867T112 863Q112 842 141 842H145V1017Q145 1039 124 1039Q121 1039 114 1036T105 1032Q101 1032 101 1038Q101 1057 120 1069Q137 1080 158 1080Q158 1109 173 1122Q183 1132 185 1141Q187 1161 193 1161Q199 1161 199 1149V948L233 977H356Q389 977 407 959Q426 940 426 902V780ZM368 842V887Q368 915 340 915H232L199 889V842H368Z"  />
<glyph unicode="&#x679;" arabic-form="medial" horiz-adv-x="494" d="M375 0H-188V135H248V313Q248 367 213 367Q207 367 195 363T178 358Q166 358 166 373Q166 396 207 429Q252 465 295 465Q281 496 281 518Q281 553 309 585T340 635Q347 682 358 682Q375 682 375 653V0ZM426 780H8Q-5 780 -5 789Q-5 796 15 798Q25 799 35 810Q48 827 80 827Q80 856 92 868Q100 877 107 877Q113 877 113 871Q113 870 113 867T112 863Q112 842 141 842H145V1017Q145 1039 124 1039Q121 1039 114 1036T105 1032Q101 1032 101 1038Q101 1057 120 1069Q137 1080 158 1080Q158 1109 173 1122Q183 1132 185 1141Q187 1161 193 1161Q199 1161 199 1149V948L233 977H356Q389 977 407 959Q426 940 426 902V780ZM368 842V887Q368 915 340 915H232L199 889V842H368Z"  />
<glyph unicode="&#x679;" arabic-form="terminal" horiz-adv-x="1618" d="M1500 0H80Q50 0 50 16Q50 27 95 33Q120 36 142 61Q173 98 248 98Q248 166 275 195Q294 215 312 215Q324 215 324 201Q324 199 322 193T320 184Q320 135 390 135H1373V313Q1373 367 1338 367Q1331 367 1320 363T1303 358Q1291 358 1291 373Q1291 396 1332 429Q1377 465 1420 465Q1405 496 1405 518Q1405 553 1433 585T1465 635Q1472 682 1483 682Q1500 682 1500 653V0ZM1057 565H639Q626 565 626 574Q626 581 646 583Q656 584 666 595Q679 612 711 612Q711 641 723 653Q731 662 738 662Q744 662 744 656Q744 655 744 652T743 648Q743 627 772 627H776V802Q776 824 755 824Q752 824 745 821T736 817Q732 817 732 823Q732 842 751 854Q768 865 789 865Q789 894 804 907Q814 917 816 926Q818 946 824 946Q830 946 830 934V733L864 762H987Q1020 762 1038 744Q1057 725 1057 687V565ZM999 627V672Q999 700 971 700H863L830 674V627H999Z"  />
<glyph unicode="&#x679;" arabic-form="isolated" horiz-adv-x="1582" d="M1500 0H80Q50 0 50 16Q50 27 95 33Q120 36 142 61Q173 98 248 98Q248 166 275 195Q294 215 312 215Q324 215 324 201Q324 199 322 193T320 184Q320 135 390 135H1373V313Q1373 367 1338 367Q1331 367 1320 363T1303 358Q1291 358 1291 373Q1291 396 1332 429Q1377 465 1420 465Q1405 496 1405 518Q1405 553 1433 585T1465 635Q1472 682 1483 682Q1500 682 1500 653V0ZM1057 565H639Q626 565 626 574Q626 581 646 583Q656 584 666 595Q679 612 711 612Q711 641 723 653Q731 662 738 662Q744 662 744 656Q744 655 744 652T743 648Q743 627 772 627H776V802Q776 824 755 824Q752 824 745 821T736 817Q732 817 732 823Q732 842 751 854Q768 865 789 865Q789 894 804 907Q814 917 816 926Q818 946 824 946Q830 946 830 934V733L864 762H987Q1020 762 1038 744Q1057 725 1057 687V565ZM999 627V672Q999 700 971 700H863L830 674V627H999Z"  />
<glyph unicode="&#x67E;" arabic-form="initial" horiz-adv-x="457" d="M375 0H-188V135H248V313Q248 367 213 367Q207 367 195 363T178 358Q166 358 166 373Q166 396 207 429Q252 465 295 465Q281 496 281 518Q281 553 309 585T340 635Q347 682 358 682Q375 682 375 653V0ZM148 -195Q148 -226 126 -248T72 -271Q41 -271 19 -249T-4 -195Q-4 -164 18 -142T72 -119Q103 -119 125 -141T148 -195ZM357 -195Q357 -226 335 -248T281 -271Q250 -271 228 -249T205 -195Q205 -164 227 -142T281 -119Q312 -119 334 -141T357 -195ZM252 -375Q252 -406 230 -428T176 -451Q146 -451 124 -429T101 -375Q101 -345 123 -322T176 -299Q207 -299 229 -322T252 -375Z"  />
<glyph unicode="&#x67E;" arabic-form="medial" horiz-adv-x="494" d="M375 0H-188V135H248V313Q248 367 213 367Q207 367 195 363T178 358Q166 358 166 373Q166 396 207 429Q252 465 295 465Q281 496 281 518Q281 553 309 585T340 635Q347 682 358 682Q375 682 375 653V0ZM148 -195Q148 -226 126 -248T72 -271Q41 -271 19 -249T-4 -195Q-4 -164 18 -142T72 -119Q103 -119 125 -141T148 -195ZM357 -195Q357 -226 335 -248T281 -271Q250 -271 228 -249T205 -195Q205 -164 227 -142T281 -119Q312 -119 334 -141T357 -195ZM252 -375Q252 -406 230 -428T176 -451Q146 -451 124 -429T101 -375Q101 -345 123 -322T176 -299Q207 -299 229 -322T252 -375Z"  />
<glyph unicode="&#x67E;" arabic-form="terminal" horiz-adv-x="1582" d="M1500 0H80Q50 0 50 16Q50 27 95 33Q120 36 142 61Q173 98 248 98Q248 166 275 195Q294 215 312 215Q324 215 324 201Q324 199 322 193T320 184Q320 135 390 135H1373V313Q1373 367 1338 367Q1331 367 1320 363T1303 358Q1291 358 1291 373Q1291 396 1332 429Q1377 465 1420 465Q1405 496 1405 518Q1405 553 1433 585T1465 635Q1472 682 1483 682Q1500 682 1500 653V0ZM938 -375Q938 -406 916 -428T862 -451Q832 -451 810 -429T787 -375Q787 -345 809 -322T862 -299Q893 -299 915 -322T938 -375ZM1043 -195Q1043 -226 1021 -248T967 -271Q936 -271 914 -249T891 -195Q891 -164 913 -142T967 -119Q998 -119 1020 -141T1043 -195ZM834 -195Q834 -226 812 -248T758 -271Q727 -271 705 -249T682 -195Q682 -164 704 -142T758 -119Q789 -119 811 -141T834 -195Z"  />
<glyph unicode="&#x67E;" arabic-form="isolated" horiz-adv-x="1582" d="M1500 0H80Q50 0 50 16Q50 27 95 33Q120 36 142 61Q173 98 248 98Q248 166 275 195Q294 215 312 215Q324 215 324 201Q324 199 322 193T320 184Q320 135 390 135H1373V313Q1373 367 1338 367Q1331 367 1320 363T1303 358Q1291 358 1291 373Q1291 396 1332 429Q1377 465 1420 465Q1405 496 1405 518Q1405 553 1433 585T1465 635Q1472 682 1483 682Q1500 682 1500 653V0ZM938 -375Q938 -406 916 -428T862 -451Q832 -451 810 -429T787 -375Q787 -345 809 -322T862 -299Q893 -299 915 -322T938 -375ZM1043 -195Q1043 -226 1021 -248T967 -271Q936 -271 914 -249T891 -195Q891 -164 913 -142T967 -119Q998 -119 1020 -141T1043 -195ZM834 -195Q834 -226 812 -248T758 -271Q727 -271 705 -249T682 -195Q682 -164 704 -142T758 -119Q789 -119 811 -141T834 -195Z"  />
<glyph unicode="&#x686;" arabic-form="initial" horiz-adv-x="1292" d="M1262 16Q1262 0 1231 0H-188V135H641L453 297Q360 377 303 377Q233 377 233 315Q233 278 270 236T307 184Q307 168 285 168Q255 168 202 226Q141 292 141 358Q141 430 187 479T305 528Q357 528 408 496Q462 461 604 334Q743 210 818 168Q878 135 942 135Q1030 135 1030 199Q1030 223 1038 223Q1053 223 1068 201T1083 156Q1083 125 1069 98Q1138 98 1169 61Q1191 36 1214 33Q1262 26 1262 16ZM426 -195Q426 -226 404 -248T350 -271Q319 -271 297 -249T274 -195Q274 -164 296 -142T350 -119Q381 -119 403 -141T426 -195ZM635 -195Q635 -226 613 -248T559 -271Q528 -271 506 -249T483 -195Q483 -164 505 -142T559 -119Q590 -119 612 -141T635 -195ZM530 -375Q530 -406 508 -428T454 -451Q424 -451 402 -429T379 -375Q379 -345 401 -322T454 -299Q485 -299 507 -322T530 -375Z"  />
<glyph unicode="&#x686;" arabic-form="medial" horiz-adv-x="872" d="M954 0H-188V135H641L453 297Q360 377 303 377Q233 377 233 315Q233 278 270 236T307 184Q307 168 285 168Q255 168 202 226Q141 292 141 358Q141 430 187 479T305 528Q357 528 408 496Q462 461 604 334Q815 145 897 139L954 135V0ZM635 -195Q635 -226 613 -248T559 -271Q528 -271 506 -249T483 -195Q483 -164 505 -142T559 -119Q590 -119 612 -141T635 -195ZM426 -195Q426 -226 404 -248T350 -271Q319 -271 297 -249T274 -195Q274 -164 296 -142T350 -119Q381 -119 403 -141T426 -195ZM530 -375Q530 -406 508 -428T454 -451Q424 -451 402 -429T379 -375Q379 -345 401 -322T454 -299Q485 -299 507 -322T530 -375Z"  />
<glyph unicode="&#x686;" arabic-form="terminal" horiz-adv-x="1164" d="M1225 0H865L726 250H455Q359 250 303 190T246 27Q246 -93 346 -174Q449 -258 613 -258Q659 -258 727 -250Q774 -244 774 -266Q774 -332 514 -332Q304 -332 188 -202Q94 -98 94 31Q94 204 203 302Q294 385 418 385H549V391L402 504Q337 553 273 553Q222 553 192 527T162 463Q162 416 205 365Q217 352 217 340Q217 324 197 324Q167 324 125 387Q80 454 80 516Q80 591 130 646Q184 705 267 705Q368 705 523 571Q739 385 781 385Q869 385 869 449Q869 473 877 473Q891 473 906 451T922 406Q922 374 908 348Q977 348 1008 311Q1030 286 1053 283Q1100 276 1100 266Q1100 250 1069 250H871L935 135H1225V0ZM622 -105Q622 -134 601 -155T551 -176Q523 -176 502 -155T480 -105Q480 -77 501 -56T551 -34Q580 -34 601 -55T622 -105ZM720 64Q720 35 699 14T649 -7Q620 -7 599 14T578 64Q578 93 599 114T649 135Q678 135 699 114T720 64ZM524 64Q524 35 503 14T453 -7Q424 -7 403 14T382 64Q382 93 403 114T453 135Q482 135 503 114T524 64Z"  />
<glyph unicode="&#x686;" arabic-form="isolated" horiz-adv-x="1131" d="M1101 16Q1101 0 1070 0H468Q377 0 328 -51Q286 -94 286 -160Q286 -278 378 -356T616 -434Q670 -434 738 -419T804 -403Q821 -403 821 -422Q821 -447 739 -476Q646 -508 534 -508Q350 -508 242 -388Q151 -287 151 -154Q151 -26 225 54T419 135H522L440 213Q334 313 255 313Q211 313 179 287T147 223Q147 185 178 142T210 94Q210 78 190 78Q156 78 116 134T75 244Q75 325 134 380T276 436Q394 436 575 262Q706 135 782 135Q870 135 870 199Q870 223 878 223Q892 223 907 201T923 156Q923 125 909 98Q978 98 1009 61Q1031 36 1054 33Q1101 26 1101 16ZM694 -305Q694 -334 673 -355T623 -376Q595 -376 574 -355T552 -305Q552 -277 573 -256T623 -234Q652 -234 673 -255T694 -305ZM792 -136Q792 -165 771 -186T721 -207Q692 -207 671 -186T650 -136Q650 -107 671 -86T721 -65Q750 -65 771 -86T792 -136ZM596 -136Q596 -165 575 -186T525 -207Q496 -207 475 -186T454 -136Q454 -107 475 -86T525 -65Q554 -65 575 -86T596 -136Z"  />
<glyph unicode="&#x688;" arabic-form="terminal" horiz-adv-x="1266" d="M1148 0H50Q50 10 107 51Q143 77 162 128T193 180Q206 180 222 159Q241 135 291 135H1021V195Q1021 260 955 260H175V371Q175 424 140 424Q134 424 122 419T103 414Q93 414 93 428Q93 460 128 481Q154 498 208 498Q208 555 235 585T265 633Q272 682 283 682Q302 682 302 651V395H982Q1061 395 1100 354Q1148 306 1148 219V0ZM841 550H423Q410 550 410 559Q410 566 430 568Q440 569 450 580Q463 597 495 597Q495 626 507 638Q515 647 522 647Q528 647 528 641Q528 640 528 637T527 633Q527 612 556 612H560V787Q560 809 539 809Q536 809 529 806T520 802Q516 802 516 808Q516 827 535 839Q552 850 573 850Q573 879 588 892Q598 902 600 911Q602 931 608 931Q614 931 614 919V718L648 747H771Q804 747 822 729Q841 710 841 672V550ZM783 612V657Q783 685 755 685H647L614 659V612H783Z"  />
<glyph unicode="&#x688;" arabic-form="isolated" horiz-adv-x="1230" d="M1148 0H50Q50 10 107 51Q143 77 162 128T193 180Q206 180 222 159Q241 135 291 135H1021V195Q1021 260 955 260H175V371Q175 424 140 424Q134 424 122 419T103 414Q93 414 93 428Q93 460 128 481Q154 498 208 498Q208 555 235 585T265 633Q272 682 283 682Q302 682 302 651V395H982Q1061 395 1100 354Q1148 306 1148 219V0ZM841 550H423Q410 550 410 559Q410 566 430 568Q440 569 450 580Q463 597 495 597Q495 626 507 638Q515 647 522 647Q528 647 528 641Q528 640 528 637T527 633Q527 612 556 612H560V787Q560 809 539 809Q536 809 529 806T520 802Q516 802 516 808Q516 827 535 839Q552 850 573 850Q573 879 588 892Q598 902 600 911Q602 931 608 931Q614 931 614 919V718L648 747H771Q804 747 822 729Q841 710 841 672V550ZM783 612V657Q783 685 755 685H647L614 659V612H783Z"  />
<glyph unicode="&#x691;" arabic-form="terminal" horiz-adv-x="637" d="M534 0Q534 -180 393 -281Q292 -352 153 -352Q0 -352 0 -315Q0 -291 55 -291Q231 -291 330 -194Q407 -118 407 -29Q407 44 356 98T241 152Q235 152 222 147T204 141Q192 141 192 158Q192 189 230 219T303 250Q294 283 294 313Q294 368 332 426Q365 477 385 477Q395 477 395 457Q395 452 392 434T389 410Q389 335 438 260Q534 113 534 0ZM479 602H61Q48 602 48 611Q48 618 68 620Q78 621 88 632Q101 649 133 649Q133 678 145 690Q153 699 160 699Q166 699 166 693Q166 692 166 689T165 685Q165 664 194 664H198V839Q198 861 177 861Q174 861 167 858T158 854Q154 854 154 860Q154 879 173 891Q190 902 211 902Q211 931 226 944Q236 954 238 963Q240 983 246 983Q252 983 252 971V770L286 799H409Q442 799 460 781Q479 762 479 724V602ZM421 664V709Q421 737 393 737H285L252 711V664H421Z"  />
<glyph unicode="&#x691;" arabic-form="isolated" horiz-adv-x="614" d="M534 0Q534 -180 393 -281Q292 -352 153 -352Q0 -352 0 -315Q0 -291 55 -291Q231 -291 330 -194Q407 -118 407 -29Q407 44 356 98T241 152Q235 152 222 147T204 141Q192 141 192 158Q192 189 230 219T303 250Q294 283 294 313Q294 368 332 426Q365 477 385 477Q395 477 395 457Q395 452 392 434T389 410Q389 335 438 260Q534 113 534 0ZM479 602H61Q48 602 48 611Q48 618 68 620Q78 621 88 632Q101 649 133 649Q133 678 145 690Q153 699 160 699Q166 699 166 693Q166 692 166 689T165 685Q165 664 194 664H198V839Q198 861 177 861Q174 861 167 858T158 854Q154 854 154 860Q154 879 173 891Q190 902 211 902Q211 931 226 944Q236 954 238 963Q240 983 246 983Q252 983 252 971V770L286 799H409Q442 799 460 781Q479 762 479 724V602ZM421 664V709Q421 737 393 737H285L252 711V664H421Z"  />
<glyph unicode="&#x698;" arabic-form="terminal" horiz-adv-x="637" d="M534 0Q534 -180 393 -281Q292 -352 153 -352Q0 -352 0 -315Q0 -291 55 -291Q231 -291 330 -194Q407 -118 407 -29Q407 44 356 98T241 152Q235 152 222 147T204 141Q192 141 192 158Q192 189 230 219T303 250Q294 283 294 313Q294 368 332 426Q365 477 385 477Q395 477 395 457Q395 452 392 434T389 410Q389 335 438 260Q534 113 534 0ZM375 858Q375 827 352 805T299 782Q268 782 246 804T223 858Q223 888 245 910T299 933Q329 933 352 911T375 858ZM479 677Q479 647 457 625T403 602Q372 602 350 624T327 677Q327 708 349 730T403 753Q434 753 456 731T479 677ZM270 677Q270 647 248 625T194 602Q164 602 142 624T119 677Q119 708 141 730T194 753Q225 753 247 731T270 677Z"  />
<glyph unicode="&#x698;" arabic-form="isolated" horiz-adv-x="614" d="M534 0Q534 -180 393 -281Q292 -352 153 -352Q0 -352 0 -315Q0 -291 55 -291Q231 -291 330 -194Q407 -118 407 -29Q407 44 356 98T241 152Q235 152 222 147T204 141Q192 141 192 158Q192 189 230 219T303 250Q294 283 294 313Q294 368 332 426Q365 477 385 477Q395 477 395 457Q395 452 392 434T389 410Q389 335 438 260Q534 113 534 0ZM375 858Q375 827 352 805T299 782Q268 782 246 804T223 858Q223 888 245 910T299 933Q329 933 352 911T375 858ZM479 677Q479 647 457 625T403 602Q372 602 350 624T327 677Q327 708 349 730T403 753Q434 753 456 731T479 677ZM270 677Q270 647 248 625T194 602Q164 602 142 624T119 677Q119 708 141 730T194 753Q225 753 247 731T270 677Z"  />
<glyph unicode="&#x6A4;" arabic-form="initial" horiz-adv-x="733" d="M651 0H-188V135H524V229H160Q125 229 125 250Q125 269 166 291Q221 320 233 397Q243 458 281 500T369 545Q386 653 494 702Q589 747 610 801Q622 831 631 831Q651 831 651 801V0ZM524 365V553Q454 539 449 455Q364 441 350 365H524ZM585 953Q585 923 563 901T509 878Q478 878 456 900T433 953Q433 984 455 1006T509 1029Q540 1029 562 1007T585 953ZM481 1134Q481 1103 458 1081T405 1058Q374 1058 352 1080T329 1134Q329 1164 351 1186T405 1209Q435 1209 458 1187T481 1134ZM376 953Q376 923 354 901T300 878Q270 878 248 900T225 953Q225 984 247 1006T300 1029Q331 1029 353 1007T376 953Z"  />
<glyph unicode="&#x6A4;" arabic-form="medial" horiz-adv-x="733" d="M651 0H-188V135H524V229H160Q125 229 125 250Q125 269 166 291Q221 320 233 397Q243 458 281 500T369 545Q386 653 494 702Q589 747 610 801Q622 831 631 831Q651 831 651 801V0ZM524 365V553Q454 539 449 455Q364 441 350 365H524ZM585 953Q585 923 563 901T509 878Q478 878 456 900T433 953Q433 984 455 1006T509 1029Q540 1029 562 1007T585 953ZM481 1134Q481 1103 458 1081T405 1058Q374 1058 352 1080T329 1134Q329 1164 351 1186T405 1209Q435 1209 458 1187T481 1134ZM376 953Q376 923 354 901T300 878Q270 878 248 900T225 953Q225 984 247 1006T300 1029Q331 1029 353 1007T376 953Z"  />
<glyph unicode="&#x6A4;" arabic-form="terminal" horiz-adv-x="1778" d="M1659 0H80Q50 0 50 16Q50 27 95 33Q120 36 142 61Q173 98 248 98Q248 166 275 195Q294 215 312 215Q324 215 324 201Q324 199 322 193T320 184Q320 135 390 135H1532V229H1168Q1133 229 1133 250Q1133 269 1174 291Q1229 320 1242 397Q1251 458 1289 500T1377 545Q1394 653 1502 702Q1597 747 1618 801Q1630 831 1639 831Q1659 831 1659 801V0ZM1532 365V553Q1462 539 1457 455Q1372 441 1358 365H1532ZM1469 1134Q1469 1103 1446 1081T1393 1058Q1362 1058 1340 1080T1317 1134Q1317 1164 1339 1186T1393 1209Q1423 1209 1446 1187T1469 1134ZM1573 953Q1573 923 1551 901T1497 878Q1466 878 1444 900T1421 953Q1421 984 1443 1006T1497 1029Q1528 1029 1550 1007T1573 953ZM1364 953Q1364 923 1342 901T1288 878Q1258 878 1236 900T1213 953Q1213 984 1235 1006T1288 1029Q1319 1029 1341 1007T1364 953Z"  />
<glyph unicode="&#x6A4;" arabic-form="isolated" horiz-adv-x="1741" d="M1659 0H80Q50 0 50 16Q50 27 95 33Q120 36 142 61Q173 98 248 98Q248 166 275 195Q294 215 312 215Q324 215 324 201Q324 199 322 193T320 184Q320 135 390 135H1532V229H1168Q1133 229 1133 250Q1133 269 1174 291Q1229 320 1242 397Q1251 458 1289 500T1377 545Q1394 653 1502 702Q1597 747 1618 801Q1630 831 1639 831Q1659 831 1659 801V0ZM1532 365V553Q1462 539 1457 455Q1372 441 1358 365H1532ZM1469 1134Q1469 1103 1446 1081T1393 1058Q1362 1058 1340 1080T1317 1134Q1317 1164 1339 1186T1393 1209Q1423 1209 1446 1187T1469 1134ZM1573 953Q1573 923 1551 901T1497 878Q1466 878 1444 900T1421 953Q1421 984 1443 1006T1497 1029Q1528 1029 1550 1007T1573 953ZM1364 953Q1364 923 1342 901T1288 878Q1258 878 1236 900T1213 953Q1213 984 1235 1006T1288 1029Q1319 1029 1341 1007T1364 953Z"  />
<glyph unicode="&#x6A9;" arabic-form="initial" horiz-adv-x="1534" d="M1452 0H-188V135H1325V195Q1325 260 1260 260H119V395L1008 1044Q1022 1055 1028 1055Q1038 1055 1038 1040Q1038 1034 1015 1007T991 954Q991 923 967 893T942 860Q942 855 954 829T967 784Q967 758 954 734T930 709Q927 709 912 741T868 774Q844 774 813 752L322 399V395H1286Q1363 395 1405 354Q1452 309 1452 219V0Z"  />
<glyph unicode="&#x6A9;" arabic-form="medial" horiz-adv-x="1554" d="M1452 0H-188V135H1325V195Q1325 260 1260 260H119V395L1008 1044Q1022 1055 1028 1055Q1038 1055 1038 1040Q1038 1034 1015 1007T991 954Q991 923 967 893T942 860Q942 855 954 829T967 784Q967 758 954 734T930 709Q927 709 912 741T868 774Q844 774 813 752L322 399V395H1286Q1363 395 1405 354Q1452 309 1452 219V0Z"  />
<glyph unicode="&#x6A9;" arabic-form="terminal" horiz-adv-x="1909" d="M80 0Q50 0 50 16Q50 27 95 33Q120 36 142 61Q173 98 248 98Q248 166 275 195Q295 215 312 215Q324 215 324 201Q324 194 320 186Q310 177 333 156Q357 135 390 135H1680V195Q1680 260 1615 260H474V395L1363 1044Q1377 1055 1383 1055Q1393 1055 1393 1040Q1393 1034 1369 1007Q1346 979 1346 954Q1346 923 1321 892Q1297 862 1297 860Q1297 854 1309 829Q1322 804 1322 784Q1322 759 1308 733Q1294 709 1285 709Q1282 709 1267 741Q1252 774 1223 774Q1199 774 1168 752L677 399V395H1641Q1717 395 1760 354Q1807 309 1807 219V0H80Z"  />
<glyph unicode="&#x6A9;" arabic-form="isolated" horiz-adv-x="1889" d="M80 0Q50 0 50 16Q50 27 95 33Q120 36 142 61Q173 98 248 98Q248 166 275 195Q295 215 312 215Q324 215 324 201Q324 194 320 186Q310 177 333 156Q357 135 390 135H1680V195Q1680 260 1615 260H474V395L1363 1044Q1377 1055 1383 1055Q1393 1055 1393 1040Q1393 1034 1369 1007Q1346 979 1346 954Q1346 923 1321 892Q1297 862 1297 860Q1297 854 1309 829Q1322 804 1322 784Q1322 759 1308 733Q1294 709 1285 709Q1282 709 1267 741Q1252 774 1223 774Q1199 774 1168 752L677 399V395H1641Q1717 395 1760 354Q1807 309 1807 219V0H80Z"  />
<glyph unicode="&#x6AF;" arabic-form="initial" horiz-adv-x="1534" d="M1452 0H-188V135H1325V195Q1325 260 1260 260H119V395L1008 1044Q1022 1055 1028 1055Q1038 1055 1038 1040Q1038 1034 1014 1007Q991 979 991 954Q991 923 966 892Q942 862 942 860Q942 854 954 829Q967 804 967 784Q967 759 953 733Q939 709 930 709Q927 709 912 741Q897 774 868 774Q844 774 813 752L322 399V395H1286Q1362 395 1405 354Q1452 309 1452 219V0ZM168 632L900 1171L851 1039L119 500L168 632Z"  />
<glyph unicode="&#x6AF;" arabic-form="medial" horiz-adv-x="1554" d="M1452 0H-188V135H1325V195Q1325 260 1260 260H119V395L1008 1044Q1022 1055 1028 1055Q1038 1055 1038 1040Q1038 1034 1014 1007Q991 979 991 954Q991 923 966 892Q942 862 942 860Q942 854 954 829Q967 804 967 784Q967 759 953 733Q939 709 930 709Q927 709 912 741Q897 774 868 774Q844 774 813 752L322 399V395H1286Q1362 395 1405 354Q1452 309 1452 219V0ZM168 632L900 1171L851 1039L119 500L168 632Z"  />
<glyph unicode="&#x6AF;" arabic-form="terminal" horiz-adv-x="1909" d="M80 0Q50 0 50 16Q50 27 95 33Q120 36 142 61Q173 98 248 98Q248 166 275 195Q295 215 312 215Q324 215 324 201Q324 194 320 186Q310 177 333 156Q357 135 390 135H1680V195Q1680 260 1615 260H474V395L1363 1044Q1377 1055 1383 1055Q1393 1055 1393 1040Q1393 1034 1369 1007Q1346 979 1346 954Q1346 923 1321 892Q1297 862 1297 860Q1297 854 1309 829Q1322 804 1322 784Q1322 759 1308 733Q1294 709 1285 709Q1282 709 1267 741Q1252 774 1223 774Q1199 774 1168 752L677 399V395H1641Q1717 395 1760 354Q1807 309 1807 219V0H80ZM523 632L1255 1171L1206 1039L474 500L523 632Z"  />
<glyph unicode="&#x6AF;" arabic-form="isolated" horiz-adv-x="1889" d="M80 0Q50 0 50 16Q50 27 95 33Q120 36 142 61Q173 98 248 98Q248 166 275 195Q295 215 312 215Q324 215 324 201Q324 194 320 186Q310 177 333 156Q357 135 390 135H1680V195Q1680 260 1615 260H474V395L1363 1044Q1377 1055 1383 1055Q1393 1055 1393 1040Q1393 1034 1369 1007Q1346 979 1346 954Q1346 923 1321 892Q1297 862 1297 860Q1297 854 1309 829Q1322 804 1322 784Q1322 759 1308 733Q1294 709 1285 709Q1282 709 1267 741Q1252 774 1223 774Q1199 774 1168 752L677 399V395H1641Q1717 395 1760 354Q1807 309 1807 219V0H80ZM523 632L1255 1171L1206 1039L474 500L523 632Z"  />
<glyph unicode="&#x6BA;" arabic-form="terminal" horiz-adv-x="847" d="M744 45Q744 -84 652 -188Q553 -299 410 -299H408Q267 -299 166 -189Q70 -84 70 53Q70 188 187 326Q206 349 217 359T243 369Q256 369 258 360T251 336Q152 210 152 88Q152 -20 218 -92Q284 -164 378 -164Q476 -164 540 -94Q601 -29 601 66Q601 146 551 213Q499 283 429 283Q423 283 406 279T378 274Q365 274 365 289Q365 314 396 342Q428 371 459 371Q481 371 492 367Q486 386 486 426Q486 472 525 531Q564 590 588 590Q604 590 607 578Q608 575 594 544Q578 511 578 483Q578 418 636 342Q744 196 744 45Z"  />
<glyph unicode="&#x6BA;" arabic-form="isolated" horiz-adv-x="814" d="M744 45Q744 -84 652 -188Q553 -299 410 -299H408Q267 -299 166 -189Q70 -84 70 53Q70 188 187 326Q206 349 217 359T243 369Q256 369 258 360T251 336Q152 210 152 88Q152 -20 218 -92Q284 -164 378 -164Q476 -164 540 -94Q601 -29 601 66Q601 146 551 213Q499 283 429 283Q423 283 406 279T378 274Q365 274 365 289Q365 314 396 342Q428 371 459 371Q481 371 492 367Q486 386 486 426Q486 472 525 531Q564 590 588 590Q604 590 607 578Q608 575 594 544Q578 511 578 483Q578 418 636 342Q744 196 744 45Z"  />
<glyph unicode="&#x6BE;" arabic-form="initial" horiz-adv-x="889" d="M829 0H-188V135H123Q106 156 106 203Q106 246 140 291T225 358Q217 391 217 412Q217 489 307 547Q342 569 342 606Q342 611 336 633T330 662Q330 690 344 690Q354 690 362 680L829 135V0ZM465 373L406 442Q319 421 319 342Q319 333 323 317T328 297Q328 283 291 270Q236 252 233 186Q233 164 250 135H346L465 373ZM670 135L541 285L465 135H670Z"  />
<glyph unicode="&#x6BE;" arabic-form="medial" horiz-adv-x="948" d="M829 0H-188V135H123Q106 156 106 203Q106 246 140 291T225 358Q217 391 217 412Q217 489 307 547Q342 569 342 606Q342 611 336 633T330 662Q330 690 344 690Q354 690 362 680L829 135V0ZM465 373L406 442Q319 421 319 342Q319 333 323 317T328 297Q328 283 291 270Q236 252 233 186Q233 164 250 135H346L465 373ZM670 135L541 285L465 135H670Z"  />
<glyph unicode="&#x6BE;" arabic-form="terminal" horiz-adv-x="1297" d="M80 0Q50 0 50 16Q50 27 95 33Q120 36 142 61Q173 98 248 98Q248 166 275 195Q295 215 312 215Q324 215 324 201Q324 199 322 193T320 184Q320 135 390 135H472Q455 157 455 203Q455 247 489 291Q523 337 574 358Q566 393 566 412Q566 488 656 547Q691 570 691 606Q691 610 685 633Q679 655 679 662Q679 690 693 690Q704 690 711 680L1178 135V0H80ZM1019 135L890 285L814 135H1019ZM814 373L755 442Q668 421 668 342Q668 337 669 330T672 317T675 304T677 297Q677 283 640 270Q585 252 582 186Q582 164 599 135H695L814 373Z"  />
<glyph unicode="&#x6BE;" arabic-form="isolated" horiz-adv-x="1238" d="M80 0Q50 0 50 16Q50 27 95 33Q120 36 142 61Q173 98 248 98Q248 166 275 195Q295 215 312 215Q324 215 324 201Q324 199 322 193T320 184Q320 135 390 135H472Q455 157 455 203Q455 247 489 291Q523 337 574 358Q566 393 566 412Q566 488 656 547Q691 570 691 606Q691 610 685 633Q679 655 679 662Q679 690 693 690Q704 690 711 680L1178 135V0H80ZM1019 135L890 285L814 135H1019ZM814 373L755 442Q668 421 668 342Q668 337 669 330T672 317T675 304T677 297Q677 283 640 270Q585 252 582 186Q582 164 599 135H695L814 373Z"  />
<glyph unicode="&#x6C0;" arabic-form="terminal" horiz-adv-x="695" d="M576 0H449V123H85Q50 123 50 143Q50 162 91 184Q146 214 159 291Q169 352 206 393T294 438Q311 546 419 596Q515 640 535 694Q547 725 556 725Q576 725 576 694V0ZM603 803Q603 795 579 795H134Q118 795 118 805Q118 813 144 818T187 844Q200 856 220 856Q218 856 243 850Q234 875 234 887Q234 914 251 914Q260 914 263 901Q269 877 302 877H333Q318 905 318 944Q318 1046 443 1071Q495 1082 495 1135Q495 1163 509 1163Q523 1163 523 1114Q523 1072 486 1032Q517 1002 517 977Q517 959 507 959L492 971Q478 983 454 983Q400 983 400 936Q400 912 419 896T462 879Q486 879 498 895T511 911Q522 911 529 889Q549 850 585 821Q603 811 603 803ZM449 258V446Q379 432 374 348Q289 335 275 258H449Z"  />
<glyph unicode="&#x6C0;" arabic-form="isolated" horiz-adv-x="658" d="M576 0H85Q50 0 50 20Q50 40 91 61Q146 91 159 168Q169 229 206 270T294 315Q311 424 419 473Q515 517 535 571Q547 602 556 602Q576 602 576 571V0ZM605 680Q605 672 581 672H136Q120 672 120 682Q120 690 146 695T189 721Q202 733 222 733Q220 733 245 727Q236 752 236 764Q236 791 253 791Q262 791 265 778Q271 754 304 754H335Q320 782 320 821Q320 923 445 948Q497 959 497 1012Q497 1040 511 1040Q525 1040 525 991Q525 949 488 909Q519 879 519 854Q519 836 509 836L494 848Q480 860 456 860Q402 860 402 813Q402 789 421 773T464 756Q488 756 500 772T513 788Q524 788 531 766Q551 727 587 698Q605 688 605 680ZM449 135V324Q379 310 374 225Q289 212 275 135H449Z"  />
<glyph unicode="&#x6C1;" arabic-form="initial" horiz-adv-x="457" d="M375 0H-188V135H248V313Q248 367 213 367Q207 367 195 363T178 358Q166 358 166 373Q166 396 207 429Q252 465 295 465Q281 496 281 518Q281 553 309 585T340 635Q347 682 358 682Q375 682 375 653V0ZM300 -282Q300 -316 276 -340T218 -364Q177 -364 151 -332T124 -254Q124 -191 171 -121Q213 -59 235 -59Q247 -59 247 -71Q247 -82 235 -102Q194 -147 190 -209Q203 -200 220 -200Q253 -200 276 -224T300 -282Z"  />
<glyph unicode="&#x6C1;" arabic-form="medial" horiz-adv-x="870" d="M870 0H745L292 -481Q266 -508 257 -508Q247 -508 247 -492Q247 -489 249 -481T251 -467Q251 -439 242 -415Q237 -403 228 -381T197 -314Q183 -287 175 -267T163 -232T157 -205T155 -182Q155 -162 164 -140T194 -97L288 0H-188V135H564L299 -156Q293 -163 289 -170T284 -187Q284 -197 288 -210T296 -231L320 -287L709 135H870V0Z"  />
<glyph unicode="&#x6C1;" arabic-form="terminal" horiz-adv-x="710" d="M591 0H464V446Q395 432 389 348Q343 340 320 317T290 258Q284 221 265 196T219 154T161 131T100 123Q65 123 65 143Q65 161 106 184Q160 213 174 291Q185 354 221 393Q258 435 309 438Q326 546 434 596Q530 640 550 694Q562 725 571 725Q591 725 591 694V0Z"  />
<glyph unicode="&#x6C1;" arabic-form="isolated" horiz-adv-x="658" d="M576 0H85Q50 0 50 20Q50 40 91 61Q146 91 159 168Q169 229 206 270T294 315Q311 424 419 473Q515 517 535 571Q547 602 556 602Q576 602 576 571V0ZM449 135V324Q379 310 374 225Q289 212 275 135H449Z"  />
<glyph unicode="&#x6C2;" arabic-form="terminal" horiz-adv-x="710" d="M591 0H464V446Q395 432 389 348Q343 340 320 317T290 258Q284 221 265 196T219 154T161 131T100 123Q65 123 65 143Q65 161 106 184Q160 213 174 291Q185 354 221 393Q258 435 309 438Q326 546 434 596Q530 640 550 694Q562 725 571 725Q591 725 591 694V0ZM618 803Q618 795 594 795H149Q133 795 133 805Q133 813 159 818T202 844Q215 856 235 856Q233 856 258 850Q249 875 249 887Q249 914 266 914Q275 914 278 901Q284 877 317 877H348Q333 905 333 944Q333 1046 458 1071Q510 1082 510 1135Q510 1163 524 1163Q538 1163 538 1114Q538 1072 501 1032Q532 1002 532 977Q532 959 522 959L507 971Q493 983 469 983Q415 983 415 936Q415 912 434 896T477 879Q501 879 513 895T526 911Q537 911 544 889Q564 850 600 821Q618 811 618 803Z"  />
<glyph unicode="&#x6C2;" arabic-form="isolated" horiz-adv-x="658" d="M576 0H85Q50 0 50 20Q50 40 91 61Q146 91 159 168Q169 229 206 270T294 315Q311 424 419 473Q515 517 535 571Q547 602 556 602Q576 602 576 571V0ZM605 680Q605 672 581 672H136Q120 672 120 682Q120 690 146 695T189 721Q202 733 222 733Q220 733 245 727Q236 752 236 764Q236 791 253 791Q262 791 265 778Q271 754 304 754H335Q320 782 320 821Q320 923 445 948Q497 959 497 1012Q497 1040 511 1040Q525 1040 525 991Q525 949 488 909Q519 879 519 854Q519 836 509 836L494 848Q480 860 456 860Q402 860 402 813Q402 789 421 773T464 756Q488 756 500 772T513 788Q524 788 531 766Q551 727 587 698Q605 688 605 680ZM449 135V324Q379 310 374 225Q289 212 275 135H449Z"  />
<glyph unicode="&#x6C3;" arabic-form="terminal" horiz-adv-x="710" d="M591 0H464V446Q395 432 389 348Q343 340 320 317T290 258Q284 221 265 196T219 154T161 131T100 123Q65 123 65 143Q65 161 106 184Q160 213 174 291Q185 354 221 393Q258 435 309 438Q326 546 434 596Q530 640 550 694Q562 725 571 725Q591 725 591 694V0ZM530 879Q530 848 508 826T454 803Q424 803 401 825T378 879Q378 909 401 931T454 954Q485 954 507 932T530 879ZM321 879Q321 848 299 826T245 803Q215 803 193 825T170 879Q170 909 192 931T245 954Q276 954 298 932T321 879Z"  />
<glyph unicode="&#x6C3;" arabic-form="isolated" horiz-adv-x="658" d="M515 756Q515 725 493 703T439 680Q409 680 386 702T363 756Q363 786 386 808T439 831Q470 831 492 809T515 756ZM306 756Q306 725 284 703T230 680Q200 680 178 702T155 756Q155 786 177 808T230 831Q261 831 283 809T306 756ZM576 0H85Q50 0 50 20Q50 40 91 61Q146 91 159 168Q169 229 206 270T294 315Q311 424 419 473Q515 517 535 571Q547 602 556 602Q576 602 576 571V0ZM449 135V324Q379 310 374 225Q289 212 275 135H449Z"  />
<glyph unicode="&#x6CC;" arabic-form="initial" horiz-adv-x="457" d="M375 0H-188V135H248V313Q248 367 213 367Q207 367 195 363T178 358Q166 358 166 373Q166 396 207 429Q252 465 295 465Q281 496 281 518Q281 553 309 585T340 635Q347 682 358 682Q375 682 375 653V0ZM147 -195Q147 -225 125 -247T72 -270Q41 -270 19 -248T-4 -195Q-4 -164 18 -142T72 -119Q102 -119 124 -141T147 -195ZM356 -195Q356 -225 334 -247T281 -270Q250 -270 228 -248T205 -195Q205 -164 227 -142T281 -119Q311 -119 333 -141T356 -195Z"  />
<glyph unicode="&#x6CC;" arabic-form="medial" horiz-adv-x="494" d="M375 0H-188V135H248V313Q248 367 213 367Q207 367 195 363T178 358Q166 358 166 373Q166 396 207 429Q252 465 295 465Q281 496 281 518Q281 553 309 585T340 635Q347 682 358 682Q375 682 375 653V0ZM147 -195Q147 -225 125 -247T72 -270Q41 -270 19 -248T-4 -195Q-4 -164 18 -142T72 -119Q102 -119 124 -141T147 -195ZM356 -195Q356 -225 334 -247T281 -270Q250 -270 228 -248T205 -195Q205 -164 227 -142T281 -119Q311 -119 333 -141T356 -195Z"  />
<glyph unicode="&#x6CC;" arabic-form="terminal" horiz-adv-x="1729" d="M1745 0H1565L902 709L869 618Q863 602 863 588Q863 578 875 565L1405 0H80Q50 0 50 14Q50 27 95 33Q120 36 142 61Q173 98 248 98Q248 166 275 193Q295 213 312 213Q324 213 324 201Q324 198 322 192T320 182Q320 135 390 135H1094L764 487Q727 527 727 563Q727 588 775 716Q818 832 828 850Q836 874 836 899Q836 905 834 912T832 922Q832 938 842 938Q852 938 877 911L1606 135H1745V0Z"  />
<glyph unicode="&#x6CC;" arabic-form="isolated" horiz-adv-x="2003" d="M1973 16Q1973 0 1942 0H1565L902 709L869 618Q863 602 863 588Q863 578 875 565L1405 0H80Q50 0 50 14Q50 27 95 33Q120 36 142 61Q173 98 248 98Q248 166 275 193Q295 213 312 213Q324 213 324 201Q324 198 322 192T320 182Q320 135 390 135H1094L764 487Q727 527 727 563Q727 588 775 716Q818 832 828 850Q836 874 836 899Q836 905 834 912T832 922Q832 938 842 938Q852 938 877 911L1606 135H1633Q1702 135 1702 184Q1702 186 1700 192T1698 201Q1698 215 1711 215Q1728 215 1747 195Q1774 166 1774 98Q1849 98 1880 61Q1902 36 1928 33Q1973 27 1973 16Z"  />
<glyph unicode="&#x6D2;" arabic-form="terminal" horiz-adv-x="1063" d="M60 -41Q60 46 108 94Q147 135 226 135H1063V0H253Q187 0 187 -65V-125H767Q817 -125 836 -101Q852 -80 865 -80Q877 -80 896 -131T951 -209Q1008 -250 1008 -260H60V-41Z"  />
<glyph unicode="&#x6D2;" arabic-form="isolated" horiz-adv-x="1799" d="M82 0V219Q82 306 130 354Q169 395 248 395H678V691Q678 722 697 722Q708 722 715 673Q718 655 745 625T772 538Q826 538 852 521Q887 500 887 468Q887 454 877 454Q871 454 859 459T840 464Q805 464 805 411V260H275Q209 260 209 195V135H1429Q1499 135 1499 184Q1499 186 1497 192T1495 201Q1495 215 1507 215Q1525 215 1544 195Q1571 166 1571 98Q1646 98 1677 61Q1699 36 1724 33Q1769 27 1769 16Q1769 0 1739 0H82Z"  />
<glyph unicode="&#x6D3;" arabic-form="terminal" horiz-adv-x="1063" d="M60 -41Q60 46 108 94Q147 135 226 135H1063V0H253Q187 0 187 -65V-125H767Q817 -125 836 -101Q852 -80 865 -80Q877 -80 896 -131T951 -209Q1008 -250 1008 -260H60V-41ZM552 368Q552 360 527 360H83Q66 360 66 370Q66 378 92 383T136 409Q148 421 168 421Q167 420 191 415Q183 440 183 452Q183 479 199 479Q209 479 212 466Q217 442 250 442H281Q267 471 267 509Q267 611 392 636Q443 647 443 700Q443 729 457 729Q472 729 472 679Q472 637 435 597Q466 567 466 542Q466 524 455 524L441 536Q427 548 402 548Q349 548 349 501Q349 477 367 461T410 444Q435 444 446 460T459 477Q470 477 478 454Q497 415 533 387Q552 376 552 368Z"  />
<glyph unicode="&#x6D3;" arabic-form="isolated" horiz-adv-x="1799" d="M82 0V219Q82 306 130 354Q169 395 248 395H678V691Q678 722 697 722Q708 722 715 673Q718 655 745 625T772 538Q826 538 852 521Q887 500 887 468Q887 454 877 454Q871 454 859 459T840 464Q805 464 805 411V260H275Q209 260 209 195V135H1429Q1499 135 1499 184Q1499 186 1497 192T1495 201Q1495 215 1507 215Q1525 215 1544 195Q1571 166 1571 98Q1646 98 1677 61Q1699 36 1724 33Q1769 27 1769 16Q1769 0 1739 0H82ZM574 738Q574 730 549 730H105Q88 730 88 740Q88 748 114 753T158 779Q170 791 190 791Q189 790 213 785Q205 810 205 822Q205 849 221 849Q231 849 234 836Q239 812 272 812H303Q289 841 289 879Q289 981 414 1006Q465 1017 465 1070Q465 1099 479 1099Q494 1099 494 1049Q494 1007 457 967Q488 937 488 912Q488 894 477 894L463 906Q449 918 424 918Q371 918 371 871Q371 847 389 831T432 814Q457 814 468 830T481 847Q492 847 500 824Q519 785 555 757Q574 746 574 738Z"  />
<glyph unicode="&#x6D4;" horiz-adv-x="836" d="M343 201Q352 201 352 190Q352 186 350 184T347 177Q347 135 450 135H734V0H103Q70 0 70 15Q70 29 118 35Q150 39 168 59Q207 100 273 100Q276 135 303 170Q327 201 343 201Z"  />
<glyph unicode="&#x6D5;" arabic-form="terminal" horiz-adv-x="692" d="M573 0H446V123H82Q47 123 47 143Q47 162 88 184Q143 214 156 291Q166 352 203 393T291 438Q308 546 416 596Q512 640 532 694Q544 725 553 725Q573 725 573 694V0ZM446 258V446Q376 432 371 348Q286 335 272 258H446Z"  />
<glyph unicode="&#x6D5;" arabic-form="isolated" horiz-adv-x="655" d="M573 0H82Q47 0 47 20Q47 40 88 61Q143 91 156 168Q166 229 203 270T291 315Q308 424 416 473Q512 517 532 571Q544 602 553 602Q573 602 573 571V0ZM446 135V324Q376 310 371 225Q286 212 272 135H446Z"  />
<glyph unicode="&#x6F0;" horiz-adv-x="800" d="M492 202H308V387H492V202Z"  />
<glyph unicode="&#x6F1;" horiz-adv-x="800" d="M475 0H348V801Q348 854 313 854Q307 854 295 850T278 846Q266 846 266 860Q266 883 309 917T395 952Q381 978 381 1014Q381 1052 411 1079Q437 1102 440 1124Q447 1171 459 1171Q475 1171 475 1141V0Z"  />
<glyph unicode="&#x6F2;" horiz-adv-x="800" d="M752 1143Q752 1132 715 1129T664 1104Q645 1075 605 1075Q600 1075 588 1077T568 1080Q582 1054 582 1024Q582 1004 562 978T527 951Q513 951 513 961Q513 962 515 966T517 975Q517 1014 478 1014H255V0H128V1149H734Q748 1149 752 1143Z"  />
<glyph unicode="&#x6F3;" horiz-adv-x="800" d="M728 674H265V0H138V864Q138 909 116 909Q108 909 102 904T93 899Q85 899 83 909Q83 928 110 951T159 975Q173 975 179 969L183 973Q175 984 175 999Q175 1053 208 1079Q231 1098 234 1124Q241 1171 253 1171Q265 1171 265 1141V809H370V864Q370 909 347 909Q339 909 334 904T325 899Q317 899 314 909Q314 928 341 951T390 975Q404 975 411 969L415 973Q406 984 406 999Q406 1053 439 1079Q462 1098 466 1124Q472 1171 484 1171Q497 1171 497 1141V809H601V864Q601 909 578 909Q571 909 565 904T556 899Q548 899 546 909Q546 928 573 951T621 975Q636 975 642 969L646 973Q638 984 638 999Q638 1053 671 1079Q694 1098 697 1124Q704 1171 716 1171Q728 1171 728 1141V674Z"  />
<glyph unicode="&#x6F4;" horiz-adv-x="800" d="M252 674V0H125V864Q125 909 103 909Q95 909 89 904T80 899Q71 899 70 909Q70 928 97 951Q124 975 146 975Q160 975 166 969L170 973Q162 984 162 999Q162 1053 195 1079Q218 1099 221 1124Q229 1171 240 1171Q252 1171 252 1141V792H342Q334 809 330 829T326 875Q326 912 337 943T375 1001Q426 1055 499 1056Q562 1056 581 1068Q594 1074 601 1088T613 1122Q622 1171 636 1171Q655 1171 658 1119Q662 1053 615 1016Q652 980 652 944Q652 918 629 918Q627 918 603 936Q579 954 542 954Q455 954 455 866Q455 824 482 800Q509 776 538 776Q567 776 600 804Q633 832 639 832Q646 832 658 809Q671 782 690 758T744 710Q770 693 770 679Q770 674 758 674H252Z"  />
<glyph unicode="&#x6F5;" horiz-adv-x="800" d="M686 0H115V135L338 1159H473L686 135V0ZM579 29L405 887H401L242 135H336Q368 135 379 184Q432 184 432 100Q432 76 422 66L426 63Q446 84 469 84Q493 84 523 57T563 29H579Z"  />
<glyph unicode="&#x6F6;" horiz-adv-x="800" d="M769 568Q769 553 741 553H498Q395 553 342 509T271 373L192 0H64L155 435Q163 473 173 500T198 548T232 584T277 613Q217 648 189 703T160 825Q160 931 233 1002Q304 1073 423 1073Q488 1073 525 1128Q539 1150 545 1166T552 1204Q552 1235 562 1235Q585 1235 585 1156Q585 1104 568 1075T518 1031Q581 983 581 918Q581 895 563 895Q565 897 524 926Q501 943 480 950T437 957Q410 957 385 947T340 916Q299 876 299 820Q299 758 349 715Q397 676 463 676Q519 676 564 722Q606 767 601 770Q624 767 624 718Q624 667 596 652V650Q631 650 655 639T695 609Q706 597 710 591T725 583Q769 577 769 568Z"  />
<glyph unicode="&#x6F7;" horiz-adv-x="800" d="M705 1147Q705 1140 693 1081L468 0H333L107 1081Q95 1140 95 1147Q95 1171 107 1171Q116 1171 130 1126Q134 1102 163 1085Q204 1061 204 1003Q228 1020 257 1020Q275 1020 300 1005T325 981Q325 970 304 970Q273 970 273 923Q273 900 282 860L398 289H402L519 860Q527 900 527 923Q527 970 497 970Q476 970 476 981Q476 990 501 1005T544 1020Q572 1020 597 1003Q597 1061 638 1085Q667 1102 671 1126Q685 1171 693 1171Q705 1171 705 1147Z"  />
<glyph unicode="&#x6F8;" horiz-adv-x="800" d="M705 13Q705 -12 693 -12Q685 -12 671 33Q667 57 638 74Q597 98 597 156Q572 140 544 140Q526 140 501 154T476 178Q476 189 497 189Q527 189 527 236Q527 259 519 299L402 870H398L282 299Q273 259 273 236Q273 189 304 189Q325 189 325 178Q325 169 300 155T257 140Q228 140 204 156Q204 98 163 74Q134 57 130 33Q116 -12 107 -12Q95 -12 95 13Q95 19 107 78L333 1159H468L693 78Q705 19 705 13Z"  />
<glyph unicode="&#x6F9;" horiz-adv-x="800" d="M668 0H541V637Q514 637 480 610T426 582Q397 582 388 594L386 590Q400 572 400 549Q400 530 379 504T345 477Q330 477 330 485Q330 488 332 491T334 498Q334 543 277 543H82V674L525 1159H668V0ZM541 666V1004L234 666H541Z"  />
<glyph unicode="&#x2002;" horiz-adv-x="1024" />
<glyph unicode="&#x2003;" horiz-adv-x="2048" />
<glyph unicode="&#x2009;" horiz-adv-x="205" />
<glyph unicode="&#x200A;" horiz-adv-x="41" />
<glyph unicode="&#x200C;" horiz-adv-x="0" d="M-109 1892L0 1783L106 1890L139 1857L33 1751L139 1644L106 1611L0 1716L-109 1609L-141 1644L-35 1751L-141 1857L-109 1892Z"  />
<glyph unicode="&#x200D;" horiz-adv-x="0" d="M158 1634V1728H-156V1634H-203V1775H205V1634H158Z"  />
<glyph unicode="&#x200E;" horiz-adv-x="0" d="M20 1857L53 1892L195 1751L53 1609L20 1644L104 1728H-154V1775H104L20 1857Z"  />
<glyph unicode="&#x200F;" horiz-adv-x="0" d="M-20 1644L-53 1611L-195 1751L-53 1892L-20 1859L-104 1775H156V1728H-102L-20 1644Z"  />
<glyph unicode="&#x2010;" horiz-adv-x="458" d="M69 369H390V239H69V369Z"  />
<glyph unicode="&#x2013;" horiz-adv-x="727" d="M0 365H727V243H0V365Z"  />
<glyph unicode="&#x2014;" horiz-adv-x="1455" d="M0 365H1455V243H0V365Z"  />
<glyph unicode="&#x2018;" horiz-adv-x="350" d="M201 1048H332L178 665H17L201 1048Z"  />
<glyph unicode="&#x2019;" horiz-adv-x="350" d="M171 1048H332L148 665H17L171 1048Z"  />
<glyph unicode="&#x201A;" horiz-adv-x="350" d="M171 206H332L148 -176H17L171 206Z"  />
<glyph unicode="&#x201C;" horiz-adv-x="592" d="M189 1048H320L165 665H6L189 1048ZM456 1048H586L432 665H272L456 1048Z"  />
<glyph unicode="&#x201D;" horiz-adv-x="592" d="M426 1048H586L403 665H272L426 1048ZM160 1048H320L137 665H6L160 1048Z"  />
<glyph unicode="&#x201E;" horiz-adv-x="592" d="M426 206H586L403 -176H272L426 206ZM160 206H320L137 -176H6L160 206Z"  />
<glyph unicode="&#x2020;" horiz-adv-x="698" d="M281 883L418 895V649H592V527H418V-140L281 -151V527H107V649H281V883Z"  />
<glyph unicode="&#x2021;" horiz-adv-x="698" d="M107 52V174H283V569H107V691H283V883L415 895V691H592V569H415V174H592V52H415V-140L283 -151V52H107Z"  />
<glyph unicode="&#x2022;" horiz-adv-x="727" d="M101 524Q101 578 122 626T178 709T261 765T363 786Q418 786 466 766T549 710T605 626T626 524Q626 470 606 422T550 339T466 283T363 262Q309 262 262 282T179 338T122 422T101 524Z"  />
<glyph unicode="&#x2026;" horiz-adv-x="1350" d="M1241 68Q1241 34 1217 10T1159 -14Q1125 -14 1101 10T1077 68Q1077 101 1101 125T1159 150Q1193 150 1217 126T1241 68ZM756 68Q756 34 732 10T674 -14Q640 -14 616 10T592 68Q592 101 616 125T674 150Q708 150 732 126T756 68ZM270 68Q270 34 246 10T188 -14Q155 -14 131 10T106 68Q106 101 130 125T188 150Q222 150 246 126T270 68Z"  />
<glyph unicode="&#x202A;" horiz-adv-x="0" d="M-57 1728H-174V1775H-57V1728ZM2 1775H104L20 1857L53 1892L195 1751L53 1609L20 1644L104 1728H2V1775Z"  />
<glyph unicode="&#x202B;" horiz-adv-x="0" d="M57 1775H174V1728H57V1775ZM-2 1728H-102L-20 1644L-53 1611L-195 1751L-53 1892L-20 1859L-104 1775H-2V1728Z"  />
<glyph unicode="&#x202C;" horiz-adv-x="0" d="M-106 1732L-141 1765L0 1906L141 1765L106 1732L23 1816V1607H-25V1814L-106 1732Z"  />
<glyph unicode="&#x202D;" horiz-adv-x="0" d="M-76 1857L-43 1892L98 1751L-43 1609L-76 1644L8 1728H-211V1775H6L-76 1857ZM57 1857L90 1892L231 1751L90 1609L57 1644L166 1751L57 1857Z"  />
<glyph unicode="&#x202E;" horiz-adv-x="0" d="M78 1694L43 1659L-96 1801L43 1942L78 1907L-6 1823H213V1776H-6L78 1694ZM-57 1694L-90 1659L-231 1801L-90 1942L-57 1907L-164 1801L-57 1694Z"  />
<glyph unicode="&#x2030;" horiz-adv-x="1400" d="M693 910H792L250 -36H151L693 910ZM646 215Q646 140 668 103T729 66Q767 66 789 103T812 215Q812 289 790 326T729 363Q691 363 669 326T646 215ZM547 215Q547 329 600 390Q652 451 729 451Q805 451 857 390Q910 331 910 215Q910 158 896 115T857 41T799 -4T729 -20Q691 -20 658 -5T601 41T562 114T547 215ZM131 660Q131 585 153 548T214 511Q252 511 274 548T297 660Q297 732 275 770T214 808Q176 808 154 770T131 660ZM32 660Q32 771 85 833Q138 895 214 895Q290 895 342 833Q396 773 396 660Q396 603 382 559T342 484T284 439T214 423Q176 423 143 438T86 484T47 558T32 660ZM1104 215Q1104 140 1126 103T1187 66Q1225 66 1247 103T1270 215Q1270 289 1248 326T1187 363Q1149 363 1127 326T1104 215ZM1005 215Q1005 329 1058 390Q1112 451 1187 451Q1263 451 1315 390Q1369 330 1369 215Q1369 158 1355 115T1315 41T1257 -4T1187 -20Q1149 -20 1116 -5T1059 41T1020 114T1005 215Z"  />
<glyph unicode="&#x2039;" horiz-adv-x="537" d="M430 616Q430 607 412 584L256 385L408 143Q424 117 424 111Q424 100 414 100Q399 100 385 115L123 385L389 612Q406 627 420 627Q430 627 430 616Z"  />
<glyph unicode="&#x203A;" horiz-adv-x="537" d="M414 385L152 115Q138 100 123 100Q113 100 113 111Q113 117 129 143L281 385L125 584Q106 607 106 616Q106 627 117 627Q131 627 147 612L414 385Z"  />
<glyph unicode="&#x2044;" horiz-adv-x="243" d="M343 910H443L-101 -36H-199L343 910Z"  />
<glyph unicode="&#x20AC;" horiz-adv-x="756" d="M696 834Q663 876 616 900T514 925Q462 925 424 904T358 849T315 771T290 683H663L640 583H277Q276 570 276 559T275 536V487H619L597 388H285Q294 338 310 291T354 206T423 145T524 122Q568 122 610 132T691 162V0Q646 -11 603 -18T514 -26Q422 -26 354 8T239 99T163 232T122 388H-10L11 487H113V558Q113 570 115 583H-10L11 683H127Q140 757 168 827T242 952T352 1040T502 1073Q568 1073 625 1055T733 994L696 834Z"  />
<glyph unicode="&#x2113;" horiz-adv-x="670" d="M582 62Q491 -19 382 -19Q293 -19 241 30T189 165V272L113 198H110L60 271L188 385V719Q188 774 203 820T246 898T311 949T393 967Q471 967 517 918T564 782Q564 680 504 577T323 362V187Q323 156 331 136T352 104T381 87T414 82Q440 82 470 94T532 133H535L582 62ZM454 773Q454 817 437 846T392 875Q365 875 344 842T323 743V479Q389 553 421 628T454 773Z"  />
<glyph unicode="&#x2122;" horiz-adv-x="1441" d="M1243 925H1240L1064 449H982L806 925H803V449H690V1048H860L1023 619L1185 1048H1356V449H1243V925ZM264 948H85V1048H567V948H388V449H264V948Z"  />
<glyph unicode="&#x2126;" horiz-adv-x="1015" d="M571 0V252Q623 262 663 288T730 352T772 437T786 536Q786 597 765 651T707 746T616 810T500 834Q436 834 384 811T293 746T234 651T213 534Q213 425 266 351T425 252V0H62V122H307V185Q245 204 200 239T123 321T77 424T62 544Q62 637 96 714T189 848T328 935T499 967Q590 967 669 937T808 851T902 719T936 549Q936 486 921 428T876 322T799 239T689 185V122H936V0H571Z"  />
<glyph unicode="&#x212E;" horiz-adv-x="1440" d="M1090 833Q964 1006 723 1006Q482 1006 359 833V562H1090V833ZM359 199Q500 37 731 37Q964 37 1096 200H1255Q1073 -28 719 -28Q462 -28 281 123T100 523Q100 771 281 921T730 1072Q999 1072 1169 913T1340 495H359V199Z"  />
<glyph unicode="&#x2202;" horiz-adv-x="735" d="M680 481Q680 425 675 366T655 252T616 148T554 63T464 5T342 -16Q276 -16 223 7T131 72T73 168T52 288Q52 351 72 405T130 498T219 559T337 582Q394 582 442 562T534 504L535 544Q536 593 526 648T492 749T426 826T325 856Q279 856 240 838T166 791L90 879Q117 900 143 916T196 944T254 961T319 967Q422 967 491 924T603 812T662 655T680 481ZM531 385Q496 427 456 451T358 475Q316 475 285 459T233 417T202 355T191 280Q191 244 200 210T228 149T277 107T347 91Q395 91 430 117T489 182T522 267T532 354L531 385Z"  />
<glyph unicode="&#x2206;" horiz-adv-x="916" d="M12 0L376 955H524L905 0H12ZM448 788L206 132H702L448 788Z"  />
<glyph unicode="&#x220F;" horiz-adv-x="988" d="M759 -287V922H228V-287H84V1054H903V-287H759Z"  />
<glyph unicode="&#x2211;" horiz-adv-x="862" d="M33 -287V-172L444 390L51 941V1054H811V922H243L617 392L219 -157H829V-287H33Z"  />
<glyph unicode="&#x2212;" horiz-adv-x="873" d="M69 429H805V307H69V429Z"  />
<glyph unicode="&#x2215;" horiz-adv-x="243" d="M343 910H443L-101 -36H-199L343 910Z"  />
<glyph unicode="&#x2219;" horiz-adv-x="379" d="M86 432Q86 474 116 504Q146 536 189 536Q230 536 262 504Q292 474 292 432Q292 390 262 360Q232 330 189 330Q145 330 116 360Q86 390 86 432Z"  />
<glyph unicode="&#x221A;" horiz-adv-x="712" d="M445 -287H310L105 141L37 110L-16 224L175 311L354 -65L582 1054H728L445 -287Z"  />
<glyph unicode="&#x221E;" horiz-adv-x="1081" d="M1021 352Q1021 301 1006 257T963 181T893 130T799 111Q758 111 722 124T655 158T595 206T540 261Q512 233 485 207T427 160T362 127T283 114Q232 114 191 132T120 181T75 255T59 348Q59 397 74 440T117 516T187 566T279 585Q322 585 358 572T426 536T486 486T540 426Q566 456 594 484T654 535T722 572T801 586Q852 586 893 568T962 519T1006 444T1021 352ZM905 347Q905 397 877 430T798 463Q771 463 746 452T697 422T652 383T614 344Q632 325 653 306T698 270T748 244T802 234Q851 234 878 266T905 347ZM467 346Q450 364 428 384T382 421T331 450T279 462Q255 462 236 453T203 428T182 391T174 347Q174 298 203 267T283 236Q309 236 335 246T384 273T429 308T467 346Z"  />
<glyph unicode="&#x222B;" horiz-adv-x="805" d="M636 956Q636 928 616 909T567 890Q538 890 524 903T503 933T490 963T472 977Q455 977 451 963T447 934Q447 889 448 845T449 756L450 54Q450 19 450 -20T445 -97T429 -169T397 -229T343 -271T261 -287Q240 -287 216 -282T171 -265T138 -235T124 -191Q124 -162 142 -143T189 -124Q218 -124 231 -138T252 -169T265 -201T283 -215Q295 -215 300 -208T307 -190T309 -168T308 -149Q308 -117 306 -84T304 -19V775Q304 815 308 854T322 930T354 993T409 1037T495 1054Q517 1054 541 1049T587 1031T622 1001T636 956Z"  />
<glyph unicode="&#x2248;" horiz-adv-x="795" d="M757 595Q753 552 741 512T705 441T647 390T563 371Q523 371 475 385T380 417T291 449T219 464Q200 464 185 456T159 435T142 405T132 371H40Q44 412 56 452T92 525T149 576T232 596Q274 596 319 582T409 552T499 521T582 507Q621 507 641 534T666 595H757ZM755 323Q750 280 738 240T703 169T644 119T560 100Q520 100 472 114T377 146T288 177T216 192Q197 192 182 184T156 163T139 134T129 100H37Q42 141 54 181T90 253T147 305T229 325Q272 325 317 311T407 280T495 248T579 234Q599 234 613 241T638 261T654 289T665 323H755Z"  />
<glyph unicode="&#x2260;" horiz-adv-x="795" d="M363 133L259 -71L139 -9L213 133H50V270H282L363 426H50V562H431L535 765L654 705L582 562H746V426H512L431 270H746V133H363Z"  />
<glyph unicode="&#x2264;" horiz-adv-x="795" d="M50 365V503L746 743V599L234 435L746 278V134L50 365ZM50 -47V88H746V-47H50Z"  />
<glyph unicode="&#x2265;" horiz-adv-x="795" d="M50 134V278L559 435L50 599V743L746 503V365L50 134ZM50 -47V88H746V-47H50Z"  />
<glyph unicode="&#x25CA;" horiz-adv-x="795" d="M460 -47H333L96 477L333 1002H460L697 477L460 -47ZM395 866L236 477L395 87L559 477L395 866Z"  />
<glyph unicode="&#x25CC;" horiz-adv-x="824" d="M58 343Q58 391 104 391Q128 391 141 380T155 343Q155 318 142 306T104 294Q58 294 58 343ZM669 343Q669 391 717 391Q766 391 766 343Q766 294 717 294Q669 294 669 343ZM363 649Q363 698 411 698Q461 698 461 649Q461 599 411 599Q363 599 363 649ZM363 36Q363 86 411 86Q461 86 461 36Q461 -12 411 -12Q363 -12 363 36ZM630 497Q630 545 679 545Q727 545 727 497Q727 447 679 447Q630 447 630 497ZM630 189Q630 238 679 238Q727 238 727 189Q727 141 679 141Q630 141 630 189ZM96 497Q96 545 143 545Q194 545 194 497Q194 447 143 447Q96 447 96 497ZM96 189Q96 238 143 238Q194 238 194 189Q194 141 143 141Q96 141 96 189ZM210 611Q210 659 257 659Q308 659 308 611Q308 561 257 561Q210 561 210 611ZM515 611Q515 635 528 647T565 659Q613 659 613 611Q613 561 565 561Q542 561 529 573T515 611ZM210 74Q210 124 257 124Q308 124 308 74Q308 26 257 26Q210 26 210 74ZM515 74Q515 98 528 111T565 124Q613 124 613 74Q613 26 565 26Q542 26 529 37T515 74Z"  />
<glyph unicode="&#x274A;" horiz-adv-x="1214" d="M975 803Q975 736 861 666T698 596Q682 596 682 608Q677 655 749 773T887 891Q923 891 949 864T975 803ZM690 905Q690 855 657 750Q621 637 596 637Q572 637 536 752Q502 859 502 905Q502 949 528 981T596 1014Q637 1014 665 980Q690 949 690 905ZM1100 510Q1100 469 1068 443T991 416Q945 416 838 450Q723 486 723 510Q723 535 836 571Q941 604 991 604Q1035 604 1066 579Q1100 551 1100 510ZM692 510Q692 472 663 443T596 414Q556 414 528 442T500 510Q500 550 528 578T596 606Q635 606 663 578T692 510ZM975 215Q975 181 948 154T885 127Q819 127 748 246Q672 371 682 410Q679 424 696 424Q749 424 860 354Q975 283 975 215ZM508 612Q508 596 496 596Q449 591 331 663T213 801Q213 837 239 863T301 889Q367 889 438 774Q508 663 508 612ZM469 510Q469 486 354 450Q246 416 201 416Q157 416 126 441Q92 469 92 510Q92 551 126 579Q157 604 201 604Q251 604 356 571Q469 535 469 510ZM690 115Q690 71 665 40Q637 6 596 6Q555 6 527 40Q502 71 502 115Q502 160 536 268Q572 383 596 383Q621 383 657 270Q690 165 690 115ZM510 408Q510 359 440 245T303 131Q269 131 242 157T215 219Q215 285 333 357T498 424Q510 424 510 408Z"  />
<glyph unicode="&#xFB01;" horiz-adv-x="592" d="M388 829H530V681H388V829ZM388 550L530 562V6L388 -6V550ZM63 795Q63 915 131 988T344 1073V931Q273 923 240 890T206 784V556H330V424H206V6L63 -6V795Z"  />
<glyph unicode="&#xFB02;" horiz-adv-x="592" d="M63 795Q63 915 131 988T344 1073V931Q273 923 240 890T206 784V556H330V424H206V6L63 -6V795ZM388 1041L530 1054V6L388 -6V1041Z"  />
<glyph unicode="&#xFB50;" arabic-form="terminal" horiz-adv-x="321" d="M82 1141Q82 1171 98 1171Q110 1171 116 1124Q120 1101 145 1079Q180 1049 180 983Q228 983 267 958Q311 929 311 883Q311 870 303 870Q297 870 281 877T258 885Q209 885 209 807V0H82V1141ZM319 1431Q319 1406 307 1381T274 1331Q221 1272 139 1272Q116 1272 100 1278T71 1292T48 1306T25 1313Q10 1313 -12 1295Q-17 1290 -23 1290Q-26 1290 -26 1296Q-26 1297 -24 1304T-16 1319T-4 1337T14 1354Q39 1373 62 1373Q69 1373 79 1372T101 1362Q133 1423 171 1458T255 1493Q286 1493 302 1473T319 1431ZM278 1393Q278 1405 264 1418T230 1431Q199 1431 173 1410T122 1347Q135 1338 159 1338Q184 1338 205 1343T246 1358Q278 1376 278 1393Z"  />
<glyph unicode="&#xFB50;" arabic-form="isolated" horiz-adv-x="315" d="M239 0H112V807Q112 885 63 885Q57 885 41 878T18 870Q10 870 10 883Q10 929 54 958Q93 983 141 983Q141 1049 176 1079Q201 1101 205 1124Q211 1171 223 1171Q239 1171 239 1141V0ZM319 1431Q319 1406 307 1381T274 1331Q221 1272 139 1272Q116 1272 100 1278T71 1292T48 1306T25 1313Q10 1313 -12 1295Q-17 1290 -23 1290Q-26 1290 -26 1296Q-26 1297 -24 1304T-16 1319T-4 1337T14 1354Q39 1373 62 1373Q69 1373 79 1372T101 1362Q133 1423 171 1458T255 1493Q286 1493 302 1473T319 1431ZM278 1393Q278 1405 264 1418T230 1431Q199 1431 173 1410T122 1347Q135 1338 159 1338Q184 1338 205 1343T246 1358Q278 1376 278 1393Z"  />
<glyph unicode="&#xFB51;" horiz-adv-x="321" d="M82 1141Q82 1171 98 1171Q110 1171 116 1124Q120 1101 145 1079Q180 1049 180 983Q228 983 267 958Q311 929 311 883Q311 870 303 870Q297 870 281 877T258 885Q209 885 209 807V0H82V1141ZM319 1431Q319 1406 307 1381T274 1331Q221 1272 139 1272Q116 1272 100 1278T71 1292T48 1306T25 1313Q10 1313 -12 1295Q-17 1290 -23 1290Q-26 1290 -26 1296Q-26 1297 -24 1304T-16 1319T-4 1337T14 1354Q39 1373 62 1373Q69 1373 79 1372T101 1362Q133 1423 171 1458T255 1493Q286 1493 302 1473T319 1431ZM278 1393Q278 1405 264 1418T230 1431Q199 1431 173 1410T122 1347Q135 1338 159 1338Q184 1338 205 1343T246 1358Q278 1376 278 1393Z"  />
<glyph unicode="&#xFB56;" arabic-form="initial" horiz-adv-x="457" d="M375 0H-188V135H248V313Q248 367 213 367Q207 367 195 363T178 358Q166 358 166 373Q166 396 207 429Q252 465 295 465Q281 496 281 518Q281 553 309 585T340 635Q347 682 358 682Q375 682 375 653V0ZM148 -195Q148 -226 126 -248T72 -271Q41 -271 19 -249T-4 -195Q-4 -164 18 -142T72 -119Q103 -119 125 -141T148 -195ZM357 -195Q357 -226 335 -248T281 -271Q250 -271 228 -249T205 -195Q205 -164 227 -142T281 -119Q312 -119 334 -141T357 -195ZM252 -375Q252 -406 230 -428T176 -451Q146 -451 124 -429T101 -375Q101 -345 123 -322T176 -299Q207 -299 229 -322T252 -375Z"  />
<glyph unicode="&#xFB56;" arabic-form="medial" horiz-adv-x="494" d="M375 0H-188V135H248V313Q248 367 213 367Q207 367 195 363T178 358Q166 358 166 373Q166 396 207 429Q252 465 295 465Q281 496 281 518Q281 553 309 585T340 635Q347 682 358 682Q375 682 375 653V0ZM148 -195Q148 -226 126 -248T72 -271Q41 -271 19 -249T-4 -195Q-4 -164 18 -142T72 -119Q103 -119 125 -141T148 -195ZM357 -195Q357 -226 335 -248T281 -271Q250 -271 228 -249T205 -195Q205 -164 227 -142T281 -119Q312 -119 334 -141T357 -195ZM252 -375Q252 -406 230 -428T176 -451Q146 -451 124 -429T101 -375Q101 -345 123 -322T176 -299Q207 -299 229 -322T252 -375Z"  />
<glyph unicode="&#xFB56;" arabic-form="terminal" horiz-adv-x="1582" d="M1500 0H80Q50 0 50 16Q50 27 95 33Q120 36 142 61Q173 98 248 98Q248 166 275 195Q294 215 312 215Q324 215 324 201Q324 199 322 193T320 184Q320 135 390 135H1373V313Q1373 367 1338 367Q1331 367 1320 363T1303 358Q1291 358 1291 373Q1291 396 1332 429Q1377 465 1420 465Q1405 496 1405 518Q1405 553 1433 585T1465 635Q1472 682 1483 682Q1500 682 1500 653V0ZM938 -375Q938 -406 916 -428T862 -451Q832 -451 810 -429T787 -375Q787 -345 809 -322T862 -299Q893 -299 915 -322T938 -375ZM1043 -195Q1043 -226 1021 -248T967 -271Q936 -271 914 -249T891 -195Q891 -164 913 -142T967 -119Q998 -119 1020 -141T1043 -195ZM834 -195Q834 -226 812 -248T758 -271Q727 -271 705 -249T682 -195Q682 -164 704 -142T758 -119Q789 -119 811 -141T834 -195Z"  />
<glyph unicode="&#xFB56;" arabic-form="isolated" horiz-adv-x="1582" d="M1500 0H80Q50 0 50 16Q50 27 95 33Q120 36 142 61Q173 98 248 98Q248 166 275 195Q294 215 312 215Q324 215 324 201Q324 199 322 193T320 184Q320 135 390 135H1373V313Q1373 367 1338 367Q1331 367 1320 363T1303 358Q1291 358 1291 373Q1291 396 1332 429Q1377 465 1420 465Q1405 496 1405 518Q1405 553 1433 585T1465 635Q1472 682 1483 682Q1500 682 1500 653V0ZM938 -375Q938 -406 916 -428T862 -451Q832 -451 810 -429T787 -375Q787 -345 809 -322T862 -299Q893 -299 915 -322T938 -375ZM1043 -195Q1043 -226 1021 -248T967 -271Q936 -271 914 -249T891 -195Q891 -164 913 -142T967 -119Q998 -119 1020 -141T1043 -195ZM834 -195Q834 -226 812 -248T758 -271Q727 -271 705 -249T682 -195Q682 -164 704 -142T758 -119Q789 -119 811 -141T834 -195Z"  />
<glyph unicode="&#xFB57;" horiz-adv-x="1582" d="M1500 0H80Q50 0 50 16Q50 27 95 33Q120 36 142 61Q173 98 248 98Q248 166 275 195Q294 215 312 215Q324 215 324 201Q324 199 322 193T320 184Q320 135 390 135H1373V313Q1373 367 1338 367Q1331 367 1320 363T1303 358Q1291 358 1291 373Q1291 396 1332 429Q1377 465 1420 465Q1405 496 1405 518Q1405 553 1433 585T1465 635Q1472 682 1483 682Q1500 682 1500 653V0ZM938 -375Q938 -406 916 -428T862 -451Q832 -451 810 -429T787 -375Q787 -345 809 -322T862 -299Q893 -299 915 -322T938 -375ZM1043 -195Q1043 -226 1021 -248T967 -271Q936 -271 914 -249T891 -195Q891 -164 913 -142T967 -119Q998 -119 1020 -141T1043 -195ZM834 -195Q834 -226 812 -248T758 -271Q727 -271 705 -249T682 -195Q682 -164 704 -142T758 -119Q789 -119 811 -141T834 -195Z"  />
<glyph unicode="&#xFB58;" horiz-adv-x="457" d="M375 0H-188V135H248V313Q248 367 213 367Q207 367 195 363T178 358Q166 358 166 373Q166 396 207 429Q252 465 295 465Q281 496 281 518Q281 553 309 585T340 635Q347 682 358 682Q375 682 375 653V0ZM148 -195Q148 -226 126 -248T72 -271Q41 -271 19 -249T-4 -195Q-4 -164 18 -142T72 -119Q103 -119 125 -141T148 -195ZM357 -195Q357 -226 335 -248T281 -271Q250 -271 228 -249T205 -195Q205 -164 227 -142T281 -119Q312 -119 334 -141T357 -195ZM252 -375Q252 -406 230 -428T176 -451Q146 -451 124 -429T101 -375Q101 -345 123 -322T176 -299Q207 -299 229 -322T252 -375Z"  />
<glyph unicode="&#xFB59;" horiz-adv-x="494" d="M375 0H-188V135H248V313Q248 367 213 367Q207 367 195 363T178 358Q166 358 166 373Q166 396 207 429Q252 465 295 465Q281 496 281 518Q281 553 309 585T340 635Q347 682 358 682Q375 682 375 653V0ZM148 -195Q148 -226 126 -248T72 -271Q41 -271 19 -249T-4 -195Q-4 -164 18 -142T72 -119Q103 -119 125 -141T148 -195ZM357 -195Q357 -226 335 -248T281 -271Q250 -271 228 -249T205 -195Q205 -164 227 -142T281 -119Q312 -119 334 -141T357 -195ZM252 -375Q252 -406 230 -428T176 -451Q146 -451 124 -429T101 -375Q101 -345 123 -322T176 -299Q207 -299 229 -322T252 -375Z"  />
<glyph unicode="&#xFB66;" arabic-form="initial" horiz-adv-x="494" d="M375 0H-188V135H248V313Q248 367 213 367Q207 367 195 363T178 358Q166 358 166 373Q166 396 207 429Q252 465 295 465Q281 496 281 518Q281 553 309 585T340 635Q347 682 358 682Q375 682 375 653V0ZM426 780H8Q-5 780 -5 789Q-5 796 15 798Q25 799 35 810Q48 827 80 827Q80 856 92 868Q100 877 107 877Q113 877 113 871Q113 870 113 867T112 863Q112 842 141 842H145V1017Q145 1039 124 1039Q121 1039 114 1036T105 1032Q101 1032 101 1038Q101 1057 120 1069Q137 1080 158 1080Q158 1109 173 1122Q183 1132 185 1141Q187 1161 193 1161Q199 1161 199 1149V948L233 977H356Q389 977 407 959Q426 940 426 902V780ZM368 842V887Q368 915 340 915H232L199 889V842H368Z"  />
<glyph unicode="&#xFB66;" arabic-form="medial" horiz-adv-x="494" d="M375 0H-188V135H248V313Q248 367 213 367Q207 367 195 363T178 358Q166 358 166 373Q166 396 207 429Q252 465 295 465Q281 496 281 518Q281 553 309 585T340 635Q347 682 358 682Q375 682 375 653V0ZM426 780H8Q-5 780 -5 789Q-5 796 15 798Q25 799 35 810Q48 827 80 827Q80 856 92 868Q100 877 107 877Q113 877 113 871Q113 870 113 867T112 863Q112 842 141 842H145V1017Q145 1039 124 1039Q121 1039 114 1036T105 1032Q101 1032 101 1038Q101 1057 120 1069Q137 1080 158 1080Q158 1109 173 1122Q183 1132 185 1141Q187 1161 193 1161Q199 1161 199 1149V948L233 977H356Q389 977 407 959Q426 940 426 902V780ZM368 842V887Q368 915 340 915H232L199 889V842H368Z"  />
<glyph unicode="&#xFB66;" arabic-form="terminal" horiz-adv-x="1618" d="M1500 0H80Q50 0 50 16Q50 27 95 33Q120 36 142 61Q173 98 248 98Q248 166 275 195Q294 215 312 215Q324 215 324 201Q324 199 322 193T320 184Q320 135 390 135H1373V313Q1373 367 1338 367Q1331 367 1320 363T1303 358Q1291 358 1291 373Q1291 396 1332 429Q1377 465 1420 465Q1405 496 1405 518Q1405 553 1433 585T1465 635Q1472 682 1483 682Q1500 682 1500 653V0ZM1057 565H639Q626 565 626 574Q626 581 646 583Q656 584 666 595Q679 612 711 612Q711 641 723 653Q731 662 738 662Q744 662 744 656Q744 655 744 652T743 648Q743 627 772 627H776V802Q776 824 755 824Q752 824 745 821T736 817Q732 817 732 823Q732 842 751 854Q768 865 789 865Q789 894 804 907Q814 917 816 926Q818 946 824 946Q830 946 830 934V733L864 762H987Q1020 762 1038 744Q1057 725 1057 687V565ZM999 627V672Q999 700 971 700H863L830 674V627H999Z"  />
<glyph unicode="&#xFB66;" arabic-form="isolated" horiz-adv-x="1582" d="M1500 0H80Q50 0 50 16Q50 27 95 33Q120 36 142 61Q173 98 248 98Q248 166 275 195Q294 215 312 215Q324 215 324 201Q324 199 322 193T320 184Q320 135 390 135H1373V313Q1373 367 1338 367Q1331 367 1320 363T1303 358Q1291 358 1291 373Q1291 396 1332 429Q1377 465 1420 465Q1405 496 1405 518Q1405 553 1433 585T1465 635Q1472 682 1483 682Q1500 682 1500 653V0ZM1057 565H639Q626 565 626 574Q626 581 646 583Q656 584 666 595Q679 612 711 612Q711 641 723 653Q731 662 738 662Q744 662 744 656Q744 655 744 652T743 648Q743 627 772 627H776V802Q776 824 755 824Q752 824 745 821T736 817Q732 817 732 823Q732 842 751 854Q768 865 789 865Q789 894 804 907Q814 917 816 926Q818 946 824 946Q830 946 830 934V733L864 762H987Q1020 762 1038 744Q1057 725 1057 687V565ZM999 627V672Q999 700 971 700H863L830 674V627H999Z"  />
<glyph unicode="&#xFB67;" horiz-adv-x="1618" d="M1500 0H80Q50 0 50 16Q50 27 95 33Q120 36 142 61Q173 98 248 98Q248 166 275 195Q294 215 312 215Q324 215 324 201Q324 199 322 193T320 184Q320 135 390 135H1373V313Q1373 367 1338 367Q1331 367 1320 363T1303 358Q1291 358 1291 373Q1291 396 1332 429Q1377 465 1420 465Q1405 496 1405 518Q1405 553 1433 585T1465 635Q1472 682 1483 682Q1500 682 1500 653V0ZM1057 565H639Q626 565 626 574Q626 581 646 583Q656 584 666 595Q679 612 711 612Q711 641 723 653Q731 662 738 662Q744 662 744 656Q744 655 744 652T743 648Q743 627 772 627H776V802Q776 824 755 824Q752 824 745 821T736 817Q732 817 732 823Q732 842 751 854Q768 865 789 865Q789 894 804 907Q814 917 816 926Q818 946 824 946Q830 946 830 934V733L864 762H987Q1020 762 1038 744Q1057 725 1057 687V565ZM999 627V672Q999 700 971 700H863L830 674V627H999Z"  />
<glyph unicode="&#xFB68;" horiz-adv-x="494" d="M375 0H-188V135H248V313Q248 367 213 367Q207 367 195 363T178 358Q166 358 166 373Q166 396 207 429Q252 465 295 465Q281 496 281 518Q281 553 309 585T340 635Q347 682 358 682Q375 682 375 653V0ZM426 780H8Q-5 780 -5 789Q-5 796 15 798Q25 799 35 810Q48 827 80 827Q80 856 92 868Q100 877 107 877Q113 877 113 871Q113 870 113 867T112 863Q112 842 141 842H145V1017Q145 1039 124 1039Q121 1039 114 1036T105 1032Q101 1032 101 1038Q101 1057 120 1069Q137 1080 158 1080Q158 1109 173 1122Q183 1132 185 1141Q187 1161 193 1161Q199 1161 199 1149V948L233 977H356Q389 977 407 959Q426 940 426 902V780ZM368 842V887Q368 915 340 915H232L199 889V842H368Z"  />
<glyph unicode="&#xFB69;" horiz-adv-x="494" d="M375 0H-188V135H248V313Q248 367 213 367Q207 367 195 363T178 358Q166 358 166 373Q166 396 207 429Q252 465 295 465Q281 496 281 518Q281 553 309 585T340 635Q347 682 358 682Q375 682 375 653V0ZM426 780H8Q-5 780 -5 789Q-5 796 15 798Q25 799 35 810Q48 827 80 827Q80 856 92 868Q100 877 107 877Q113 877 113 871Q113 870 113 867T112 863Q112 842 141 842H145V1017Q145 1039 124 1039Q121 1039 114 1036T105 1032Q101 1032 101 1038Q101 1057 120 1069Q137 1080 158 1080Q158 1109 173 1122Q183 1132 185 1141Q187 1161 193 1161Q199 1161 199 1149V948L233 977H356Q389 977 407 959Q426 940 426 902V780ZM368 842V887Q368 915 340 915H232L199 889V842H368Z"  />
<glyph unicode="&#xFB6A;" arabic-form="initial" horiz-adv-x="733" d="M651 0H-188V135H524V229H160Q125 229 125 250Q125 269 166 291Q221 320 233 397Q243 458 281 500T369 545Q386 653 494 702Q589 747 610 801Q622 831 631 831Q651 831 651 801V0ZM524 365V553Q454 539 449 455Q364 441 350 365H524ZM585 953Q585 923 563 901T509 878Q478 878 456 900T433 953Q433 984 455 1006T509 1029Q540 1029 562 1007T585 953ZM481 1134Q481 1103 458 1081T405 1058Q374 1058 352 1080T329 1134Q329 1164 351 1186T405 1209Q435 1209 458 1187T481 1134ZM376 953Q376 923 354 901T300 878Q270 878 248 900T225 953Q225 984 247 1006T300 1029Q331 1029 353 1007T376 953Z"  />
<glyph unicode="&#xFB6A;" arabic-form="medial" horiz-adv-x="733" d="M651 0H-188V135H524V229H160Q125 229 125 250Q125 269 166 291Q221 320 233 397Q243 458 281 500T369 545Q386 653 494 702Q589 747 610 801Q622 831 631 831Q651 831 651 801V0ZM524 365V553Q454 539 449 455Q364 441 350 365H524ZM585 953Q585 923 563 901T509 878Q478 878 456 900T433 953Q433 984 455 1006T509 1029Q540 1029 562 1007T585 953ZM481 1134Q481 1103 458 1081T405 1058Q374 1058 352 1080T329 1134Q329 1164 351 1186T405 1209Q435 1209 458 1187T481 1134ZM376 953Q376 923 354 901T300 878Q270 878 248 900T225 953Q225 984 247 1006T300 1029Q331 1029 353 1007T376 953Z"  />
<glyph unicode="&#xFB6A;" arabic-form="terminal" horiz-adv-x="1778" d="M1659 0H80Q50 0 50 16Q50 27 95 33Q120 36 142 61Q173 98 248 98Q248 166 275 195Q294 215 312 215Q324 215 324 201Q324 199 322 193T320 184Q320 135 390 135H1532V229H1168Q1133 229 1133 250Q1133 269 1174 291Q1229 320 1242 397Q1251 458 1289 500T1377 545Q1394 653 1502 702Q1597 747 1618 801Q1630 831 1639 831Q1659 831 1659 801V0ZM1532 365V553Q1462 539 1457 455Q1372 441 1358 365H1532ZM1469 1134Q1469 1103 1446 1081T1393 1058Q1362 1058 1340 1080T1317 1134Q1317 1164 1339 1186T1393 1209Q1423 1209 1446 1187T1469 1134ZM1573 953Q1573 923 1551 901T1497 878Q1466 878 1444 900T1421 953Q1421 984 1443 1006T1497 1029Q1528 1029 1550 1007T1573 953ZM1364 953Q1364 923 1342 901T1288 878Q1258 878 1236 900T1213 953Q1213 984 1235 1006T1288 1029Q1319 1029 1341 1007T1364 953Z"  />
</font>
</defs>
</svg>
