<?xml  version="1.0" encoding="UTF-8"?>
<!DOCTYPE svg PUBLIC "-//W3C//DTD SVG 1.0//EN" "http://www.w3.org/TR/2001/REC-SVG-20010904/DTD/svg10.dtd" >
<svg xmlns="http://www.w3.org/2000/svg" >
<metadata>
<version>1.0</version>
<id><![CDATA[Comic Sans W02 Regular]]></id>
<vendor>Monotype Imaging Inc.</vendor>
<credits>
<name>Fonts.com WebFonts</name>
<URL>http://webfonts.fonts.com</URL>
<role>Home of the Web fonts</role>
</credits>
<license>
<URL>http://webfonts.fonts.com/Legal</URL>
</license>
<copyright></copyright>
<trademark></trademark>
<licensee>
<name></name>
</licensee>
</metadata>
<defs >
<font horiz-adv-x="1178" id="ec680f09-6b07-442d-ab11-cea208cc138d">
<font-face font-family="" panose-1="3 15 7 2 3 3 2 2 2 4" ascent="1542" descent="-506" units-per-em="2048" alphabetic="0">
</font-face>
<missing-glyph horiz-adv-x="0" />

<glyph unicode="&#xA;" horiz-adv-x="0" />
<glyph unicode="&#xD;" horiz-adv-x="0" />
<glyph unicode=" " horiz-adv-x="612" />
<glyph unicode="!" horiz-adv-x="487" d="M332 403Q332 313 242 313Q154 313 154 403Q154 444 150 524Q145 639 149 1000T154 1516Q154 1606 242 1606Q332 1606 332 1516V403ZM240 -66Q201 -66 161 -16T121 76Q121 112 148 138T213 164Q255 164 293 115T332 23Q332 -10 305 -38T240 -66Z"  />
<glyph unicode="&quot;" horiz-adv-x="868" d="M117 1104V1185L123 1499Q123 1537 148 1562T211 1587Q249 1587 274 1562T299 1499V1419Q299 1372 297 1307L295 1196Q293 1112 302 1040Q308 984 279 958T213 932Q117 932 117 1104ZM686 1495L672 1018Q670 928 584 928Q504 928 504 1016V1413Q504 1480 512 1507L516 1524Q537 1583 598 1583Q636 1583 661 1558T686 1495Z"  />
<glyph unicode="#" horiz-adv-x="1726" d="M365 578L487 991H219Q125 991 125 1092Q125 1167 272 1167H537Q561 1246 578 1326Q615 1498 641 1537T733 1577Q764 1577 786 1551T809 1491Q809 1453 782 1360L731 1167H1217L1311 1491Q1336 1577 1407 1577Q1493 1577 1493 1497Q1493 1429 1409 1167H1604Q1706 1167 1706 1094Q1706 987 1593 987L1499 991H1354L1247 578H1452Q1608 578 1608 485Q1608 393 1520 393H1198L1108 70Q1080 -29 995 -29Q913 -29 913 51Q913 109 946 223L995 393H496Q462 250 423 137T361 2T293 -20Q213 -20 213 57Q213 98 305 393H115Q33 393 33 494Q33 533 65 555T135 578H365ZM553 578H1053L1165 991H678L553 578Z"  />
<glyph unicode="$" horiz-adv-x="1419" d="M766 1466H770Q886 1466 1018 1426T1151 1323Q1151 1237 1061 1237Q1013 1237 920 1257Q805 1282 766 1278V870Q976 853 1101 735T1227 446Q1227 258 1105 131T766 -41V-305Q766 -343 740 -369T676 -395Q588 -395 588 -307V-53Q100 -44 100 201Q100 291 182 291Q231 291 272 254Q350 186 413 163T588 135V702H580Q437 702 305 782T172 1018Q172 1151 293 1270T588 1438V1630Q588 1668 615 1694T680 1720Q766 1720 766 1636V1466ZM588 1245Q389 1172 389 1014Q389 917 588 887V1245ZM766 156Q876 193 949 269T1022 434Q1022 608 766 676V156Z"  />
<glyph unicode="%" horiz-adv-x="1679" d="M147 1370Q147 1463 245 1552T446 1642Q591 1642 675 1549T760 1307Q760 1192 665 1116T442 1040Q309 1040 228 1131T147 1370ZM313 1370Q313 1208 442 1208Q497 1208 544 1235T592 1307Q592 1475 442 1475Q395 1475 354 1442T313 1370ZM1155 1309L1083 1147L887 723L662 250L609 128Q548 -13 525 -22T485 -31Q451 -31 425 -7T399 51Q399 107 563 438Q679 667 731 786L1001 1386Q1059 1515 1093 1559T1165 1604Q1197 1604 1224 1579T1251 1518Q1251 1495 1235 1468Q1186 1384 1155 1309ZM940 283Q940 432 1027 532T1257 633Q1395 633 1502 550T1610 338Q1610 186 1513 84T1260 -18Q1117 -18 1029 66T940 283ZM1108 283Q1108 147 1282 147Q1442 147 1442 338Q1442 391 1386 428T1257 465Q1188 465 1148 415T1108 283Z"  />
<glyph unicode="&amp;" horiz-adv-x="1339" d="M750 909Q825 741 985 485Q1005 537 1016 598L1032 698Q1041 746 1064 777T1118 809Q1159 809 1181 771T1204 680Q1204 479 1102 303Q1268 41 1268 -6Q1268 -40 1241 -67T1176 -94Q1130 -94 1098 -43L983 156Q783 -41 532 -41Q344 -41 210 78T76 379Q76 508 148 637T532 975Q481 1110 481 1237Q481 1375 559 1470T750 1565Q857 1565 923 1488T989 1294Q989 1091 750 909ZM684 1083Q811 1192 811 1294Q811 1384 750 1384Q710 1384 685 1343T659 1237Q659 1175 684 1083ZM608 811Q387 667 321 571T254 379Q254 274 335 206T532 137Q734 137 883 309Q810 414 608 811Z"  />
<glyph unicode="&apos;" horiz-adv-x="795" d="M471 1268Q471 1141 383 1141Q327 1141 311 1168T295 1280Q295 1306 289 1362Q285 1418 285 1446Q285 1562 302 1611T381 1661Q418 1661 443 1636T469 1573Q469 1561 464 1474Q462 1432 470 1307Q471 1283 471 1268Z"  />
<glyph unicode="(" horiz-adv-x="750" d="M635 1411L543 1319Q452 1228 383 1006T313 557Q313 405 334 278T396 47T490 -122T637 -258Q694 -303 694 -350Q694 -382 668 -407T608 -432Q544 -432 414 -323T200 11T115 582Q115 839 211 1098T431 1481T606 1606Q640 1606 668 1578T696 1513Q696 1478 635 1411Z"  />
<glyph unicode=")" horiz-adv-x="750" d="M201 -432Q169 -432 142 -407T115 -350Q115 -303 172 -258Q233 -213 269 -184T354 -73T434 103T480 311T496 557Q496 757 447 935T347 1201T176 1411Q115 1478 115 1513Q115 1550 142 1578T203 1606Q255 1606 380 1480T600 1096T696 582Q696 253 618 29T405 -313T201 -432Z"  />
<glyph unicode="*" horiz-adv-x="1085" d="M406 1313Q397 1437 397 1505Q397 1543 423 1568T487 1593Q526 1593 552 1568T578 1505Q578 1449 584 1335Q818 1372 877 1372Q914 1372 938 1346T963 1280Q963 1219 921 1204T641 1159Q719 1088 787 999T856 870Q856 835 829 808T764 780Q719 780 685 829T496 1053Q289 819 217 819Q182 819 155 846T127 911Q127 951 170 987T344 1151Q115 1225 81 1246T47 1315Q47 1352 73 1380T135 1409Q158 1409 406 1313Z"  />
<glyph unicode="+" horiz-adv-x="983" d="M555 557V322Q555 231 465 231Q377 231 377 322L375 436V553Q255 547 203 547Q47 547 47 639Q47 691 76 708T203 725Q255 725 375 731L373 848Q371 966 395 1006T467 1047Q505 1047 531 1022T557 958L551 850L553 735L627 731Q633 731 723 736Q913 747 913 643Q913 606 889 579T827 551L754 559L653 557Q561 555 555 557Z"  />
<glyph unicode="&#x2c;" horiz-adv-x="567" d="M199 -256Q199 -226 256 -92T341 91T412 141Q447 141 473 114T500 51Q500 35 427 -132T338 -322T285 -344Q249 -344 224 -318T199 -256Z"  />
<glyph unicode="-" horiz-adv-x="854" d="M195 461Q111 461 111 539Q111 616 195 616Q296 616 432 623Q558 631 670 631Q758 631 758 553Q758 484 662 473T195 461Z"  />
<glyph unicode="." horiz-adv-x="510" d="M143 31Q143 79 179 117T266 156Q317 156 354 118T391 31Q391 -19 354 -55T266 -92Q215 -92 179 -55T143 31Z"  />
<glyph unicode="/" horiz-adv-x="1049" d="M961 1483L848 1210Q736 940 657 784L438 371L258 -31Q232 -90 176 -90Q138 -90 111 -64T84 -2Q84 86 385 649Q604 1062 680 1272Q812 1626 879 1626Q910 1626 940 1602T971 1538Q971 1517 961 1483Z"  />
<glyph unicode="0" horiz-adv-x="1249" d="M61 797Q61 1109 218 1331T641 1554Q892 1554 1036 1355T1180 858Q1180 -39 610 -39Q338 -39 200 182T61 797ZM256 811Q256 154 610 154Q794 154 886 331T979 821Q979 1362 641 1362Q467 1362 362 1199T256 811Z"  />
<glyph unicode="1" horiz-adv-x="922" d="M307 0Q224 0 191 16T158 86Q158 186 315 186L403 182Q403 249 395 326Q387 403 387 467Q387 580 410 852Q434 1129 430 1239Q299 1135 260 1135Q218 1135 190 1164T162 1235Q162 1281 248 1348Q333 1413 399 1470Q488 1559 567 1559Q635 1559 635 1483Q635 1468 625 1376L631 1145Q631 1020 606 805Q582 580 582 467Q582 391 590 324Q598 257 598 188L705 190Q745 191 773 164T801 94Q801 52 774 26T705 0H307Z"  />
<glyph unicode="2" horiz-adv-x="1249" d="M358 190L565 209Q696 221 868 221Q958 221 1030 188T1102 98Q1102 59 1075 29T1008 -2Q994 -2 938 14Q882 29 868 29Q815 29 715 23Q626 16 561 16Q522 16 444 6Q383 -2 330 -2L266 4Q219 4 192 38T164 193Q164 316 199 412T297 573T604 807Q789 933 835 1015T881 1186Q881 1247 805 1295T655 1343Q564 1343 479 1290L338 1180Q293 1145 268 1145Q166 1145 166 1227Q166 1305 336 1420T655 1536Q827 1536 956 1439T1085 1194Q1085 1031 1014 911T715 647Q513 521 434 431T358 190Z"  />
<glyph unicode="3" horiz-adv-x="1249" d="M797 815Q1063 721 1063 426Q1063 232 925 94T584 -45Q367 -45 246 61T125 256Q125 297 155 323T227 350Q267 350 295 313L342 244Q409 145 584 145Q697 145 779 216T862 389Q862 537 761 622T492 725Q381 737 381 815Q381 875 467 905L707 965Q751 976 798 1019T846 1144Q846 1230 774 1281T573 1333Q504 1333 442 1300L328 1231Q290 1208 276 1208Q237 1208 208 1238T178 1309Q178 1386 323 1456T551 1526Q774 1526 900 1425T1026 1141Q1026 885 818 823Q808 820 797 815Z"  />
<glyph unicode="4" horiz-adv-x="1249" d="M965 68Q965 -27 872 -27Q821 -27 794 9T768 138L770 215V442L330 453Q161 457 104 470T47 532Q47 576 102 647L188 750L682 1466Q748 1561 852 1561Q965 1561 965 1462V631L983 633Q1035 639 1112 621T1190 532Q1190 488 1154 459T965 436V68ZM770 1282Q515 873 352 645L770 635V1282Z"  />
<glyph unicode="5" horiz-adv-x="1249" d="M391 1331Q391 1279 354 999Q493 1108 719 1108Q923 1108 1038 960T1153 563Q1153 292 991 115T561 -63Q364 -63 246 34T127 203Q127 241 158 270T227 299Q269 299 305 256Q363 184 410 157T561 129Q734 129 846 256T958 563Q958 730 896 822T719 915Q624 915 560 893T434 809L326 688Q286 643 236 643Q195 643 167 672T139 741Q139 752 156 920Q190 1236 190 1333Q190 1361 162 1444Q156 1460 156 1470Q156 1532 260 1532Q272 1532 355 1527L729 1534L893 1530Q911 1530 948 1537Q984 1544 1001 1544Q1039 1544 1070 1515T1102 1448Q1102 1335 864 1335H829Q809 1335 786 1337L748 1339H729L559 1337L391 1331Z"  />
<glyph unicode="6" horiz-adv-x="1249" d="M397 874Q571 952 655 952Q886 952 1013 828T1141 475Q1141 229 999 79T629 -72Q387 -72 264 90T141 539Q141 1033 543 1395L637 1491Q701 1556 741 1556Q779 1556 810 1528T842 1458Q842 1421 739 1321L537 1122Q455 1041 397 874ZM342 641Q336 588 336 539Q336 336 413 219T633 102Q776 102 860 200T944 475Q944 750 629 750Q584 750 529 738T342 641Z"  />
<glyph unicode="7" horiz-adv-x="1249" d="M1063 1200Q930 1042 823 831L641 432Q617 380 557 203Q499 33 463 -16T381 -66Q342 -66 312 -38T281 29Q281 69 344 223L569 774Q598 845 686 1005T874 1280L895 1300L168 1317Q70 1320 70 1411Q70 1454 98 1480T168 1507Q344 1507 547 1499Q799 1493 926 1493H1108Q1214 1493 1214 1430Q1214 1383 1153 1307L1063 1200Z"  />
<glyph unicode="8" horiz-adv-x="1249" d="M345 782Q167 890 167 1090Q167 1283 303 1404T624 1526Q1044 1526 1044 1110Q1044 1007 1006 944T845 815Q1011 730 1067 633T1123 373Q1123 177 985 62T611 -53Q387 -53 254 50T120 350Q120 668 345 782ZM593 891Q849 959 849 1110Q849 1233 800 1290T620 1348Q498 1348 431 1283T364 1101Q364 949 593 891ZM601 715Q398 619 355 541T312 372Q312 241 402 181T611 121Q761 121 836 184T912 403Q912 620 601 715Z"  />
<glyph unicode="9" horiz-adv-x="1249" d="M895 614Q726 528 606 528Q405 528 259 652T113 997Q113 1258 261 1397T670 1536Q889 1536 1022 1384T1155 1001Q1155 719 1034 446T648 39T301 -94Q261 -94 234 -65T207 4Q207 64 274 94L442 152Q552 190 656 270T852 528L895 614ZM946 864Q961 951 961 1001Q961 1147 872 1256T641 1366Q303 1366 303 1016Q303 878 396 798T637 717Q810 717 946 864Z"  />
<glyph unicode=":" horiz-adv-x="612" d="M295 854Q250 854 222 882T193 956Q193 970 188 994Q182 1017 182 1030Q182 1073 212 1100T287 1128Q397 1128 397 956Q397 911 369 883T295 854ZM311 123Q266 123 238 151T209 225Q209 237 199 312Q191 373 224 403T301 434Q414 434 414 225Q414 180 385 152T311 123Z"  />
<glyph unicode=";" horiz-adv-x="612" d="M309 848Q264 848 236 876T207 950Q207 961 202 988Q197 1014 197 1024Q197 1067 227 1095T301 1124Q412 1124 412 950Q412 905 383 877T309 848ZM82 -100Q82 -35 169 94T313 223Q350 223 378 196T406 133Q406 99 336 16Q263 -73 258 -109Q249 -195 170 -195Q82 -195 82 -100Z"  />
<glyph unicode="&lt;" horiz-adv-x="780" d="M299 614Q347 580 436 487Q516 402 567 354Q604 324 604 287Q604 249 577 222T514 195Q484 195 449 223T289 381Q187 487 94 522Q18 550 18 604Q18 655 88 688Q180 734 293 850Q434 999 468 1030T537 1061Q572 1061 599 1033T627 969Q627 949 616 930T519 824T299 614Z"  />
<glyph unicode="=" horiz-adv-x="1044" d="M791 997Q881 997 881 909Q881 819 791 819L324 821Q307 821 216 816Q98 809 98 905Q98 962 141 980T324 999L791 997ZM578 459L694 457Q728 456 773 457T842 436T866 367Q866 279 776 279H694L381 285Q349 285 291 281Q219 276 203 276Q111 276 111 365Q111 423 153 443T381 463Q444 463 578 459Z"  />
<glyph unicode="&gt;" horiz-adv-x="780" d="M485 645Q380 714 242 847T104 1034Q104 1068 132 1096T197 1124Q235 1124 264 1092Q499 830 678 739Q735 711 735 664Q735 635 707 600T529 443T276 253T147 186Q113 186 85 213T57 279Q57 321 96 348L485 645Z"  />
<glyph unicode="?" horiz-adv-x="1073" d="M395 582L635 762Q673 791 718 850T764 965Q764 1077 658 1175T432 1274Q373 1274 270 1208Q176 1145 152 1145Q112 1145 82 1177T51 1251Q51 1328 198 1403T432 1479Q631 1479 796 1322T961 965Q961 859 908 764T659 528Q503 416 446 348Q411 307 371 307Q330 307 299 338T268 412Q268 479 395 582ZM201 29Q201 96 237 146T330 197Q426 197 426 80Q426 18 395 -27T315 -72Q272 -72 237 -42T201 29Z"  />
<glyph unicode="@" horiz-adv-x="1907" d="M999 535Q891 428 793 428Q683 428 584 518T485 717Q485 898 629 1053T961 1208Q1004 1208 1031 1178T1059 1102Q1059 1041 958 1014Q782 960 736 888T690 717Q690 688 718 661T787 633Q878 633 954 795Q1022 934 1073 934Q1116 934 1141 902T1167 825Q1167 812 1157 732Q1148 659 1183 638T1307 616Q1433 616 1490 675T1548 883Q1548 1121 1364 1273T922 1425Q643 1425 479 1223T315 713Q315 438 496 246T958 53Q1044 53 1143 86L1317 150Q1361 166 1374 166Q1415 166 1445 133T1475 57Q1475 -29 1302 -84T961 -139Q632 -139 372 103T111 713Q111 1107 333 1368T922 1630Q1267 1630 1510 1418T1753 883Q1753 653 1639 533T1307 412Q1095 412 999 535Z"  />
<glyph unicode="A" horiz-adv-x="1497" d="M1024 520Q916 507 758 471L492 416Q345 62 315 20T233 -23Q192 -23 162 7T131 78Q131 124 283 442Q264 470 264 504Q264 585 362 606Q483 837 688 1158T946 1479Q1023 1479 1055 1368L1116 1032L1266 338L1323 178Q1352 97 1352 72Q1352 28 1321 -1T1249 -31Q1117 -31 1024 520ZM897 1112L610 651Q700 676 979 727L897 1112Z"  />
<glyph unicode="B" horiz-adv-x="1290" d="M909 705Q1208 579 1208 393Q1208 236 991 95T311 -47Q268 -47 229 -7T190 76V367Q190 493 209 774Q231 1062 231 1190Q231 1341 237 1417T256 1514T375 1553T584 1571Q767 1571 938 1438T1110 1110Q1110 856 909 705ZM430 1360L428 1186L410 799L561 786Q680 786 795 871T911 1110Q911 1205 804 1285T584 1366Q476 1366 430 1360ZM590 584L510 580Q457 580 395 590Q389 464 389 365V158Q742 174 877 262T1012 393Q1012 434 915 484T696 565L590 584Z"  />
<glyph unicode="C" horiz-adv-x="1235" d="M1010 1473Q1043 1524 1100 1524Q1158 1524 1180 1462T1202 1233Q1202 1183 1175 1153T1104 1122Q1041 1122 1008 1196Q977 1267 955 1276T852 1286Q691 1286 491 1014T291 500Q291 365 376 273T578 180Q656 180 737 211T963 352Q1021 393 1049 393Q1091 393 1121 362T1151 289Q1151 261 1136 236T1015 132T799 15T578 -25Q376 -25 233 128T90 500Q90 816 342 1153T852 1491Q963 1491 1010 1473Z"  />
<glyph unicode="D" horiz-adv-x="1479" d="M295 -6H285Q241 -6 212 23T182 96Q182 179 193 412Q203 622 203 725L193 1425Q193 1466 233 1511T319 1556Q342 1556 479 1489Q632 1413 657 1407Q964 1300 1170 1078T1376 588Q1376 336 1202 119T631 -98Q548 -98 446 -71T295 -6ZM395 1294L403 721L387 174Q390 172 395 170L408 162Q501 102 631 102Q846 102 947 163T1111 340T1174 582Q1174 734 1086 860T860 1069T395 1294Z"  />
<glyph unicode="E" horiz-adv-x="1280" d="M371 1337Q379 1287 379 1235Q379 1111 362 852L801 895Q985 913 1036 913Q1081 913 1111 886T1141 811Q1141 721 1049 709L348 645Q340 539 340 393Q340 144 383 124T528 104L903 113Q915 113 995 123Q1126 139 1126 20Q1126 -51 1062 -74T635 -98Q316 -98 228 -8T139 393Q139 533 152 696Q139 721 139 745Q139 780 160 807Q178 1095 178 1235Q178 1271 168 1341Q160 1399 160 1450Q160 1571 258 1571Q301 1571 332 1540Q575 1606 758 1606Q913 1606 1028 1581T1177 1528T1212 1450Q1212 1405 1184 1376T1114 1346Q1102 1346 1083 1352Q909 1399 758 1399Q593 1399 371 1337Z"  />
<glyph unicode="F" horiz-adv-x="1243" d="M387 1329L385 897Q575 948 676 948Q907 948 997 930T1087 827Q1087 782 1059 754T987 725Q916 725 831 733Q748 741 676 741Q601 741 381 684L373 -4Q372 -48 344 -77T272 -106Q229 -106 201 -77T172 -4L188 1180V1233Q188 1266 186 1311L184 1389Q182 1475 205 1511T285 1548Q318 1548 342 1530Q576 1573 739 1573Q881 1573 1042 1530T1204 1419Q1204 1378 1175 1347T1106 1315Q1086 1315 1067 1323Q946 1368 739 1368Q605 1368 387 1329Z"  />
<glyph unicode="G" horiz-adv-x="1393" d="M1300 604Q1237 301 1039 116T571 -70Q80 -70 80 481Q80 852 308 1211T786 1571Q881 1571 1044 1504T1208 1352Q1208 1311 1179 1279T1108 1247Q1082 1247 1044 1272Q895 1366 786 1366Q657 1366 469 1085T281 481Q281 288 344 212T571 135Q756 135 891 257T1075 592Q797 577 600 485Q578 473 555 473Q515 473 486 504T457 580Q457 614 482 644T608 715T873 778T1253 801Q1297 801 1326 772T1356 698Q1356 633 1300 604Z"  />
<glyph unicode="H" horiz-adv-x="1573" d="M1223 659Q1036 654 801 608L381 526Q381 430 362 270Q344 108 344 14Q344 -28 317 -56T248 -84Q206 -84 179 -56T152 14Q152 118 168 332Q186 543 186 647Q186 701 182 813Q178 927 178 981Q178 1061 188 1219Q199 1391 199 1456Q199 1498 226 1526T295 1554Q337 1554 364 1526T391 1456Q391 1377 381 1217Q371 1055 371 977L377 725L805 805Q1067 854 1237 854Q1249 998 1249 1286Q1249 1375 1281 1460T1366 1546Q1406 1546 1435 1519T1464 1450Q1464 1432 1456 1409Q1442 1369 1442 1286L1446 1108Q1446 999 1427 809Q1409 612 1409 512Q1409 437 1419 283Q1432 118 1432 55Q1432 13 1405 -15T1335 -43Q1296 -43 1268 -14T1239 55Q1239 131 1229 283Q1219 437 1219 512Q1219 585 1223 659Z"  />
<glyph unicode="I" horiz-adv-x="1118" d="M635 1280Q612 973 612 725Q612 653 616 551Q621 424 621 379Q621 283 612 207L928 211Q970 212 998 183T1026 109Q1026 65 999 36T928 6Q874 6 760 2L661 0Q501 -3 393 -18Q268 -37 197 -37Q153 -37 125 -8T96 66Q96 109 124 139T197 170Q274 170 412 190Q422 272 422 375Q422 463 414 543Q408 643 408 711Q408 940 436 1288L176 1280Q136 1279 106 1308T76 1384Q76 1461 126 1477T471 1493Q597 1493 721 1481T931 1456T1039 1417T1061 1343Q1061 1300 1030 1273T956 1245Q887 1245 797 1260L635 1280Z"  />
<glyph unicode="J" horiz-adv-x="1362" d="M952 1307L958 1188Q961 1124 950 813T898 273T792 -38T629 -121Q449 -121 272 15T94 328Q94 451 195 451Q297 451 297 330Q297 245 412 166T629 86Q694 86 726 404T758 1188Q758 1214 752 1294H641Q612 1294 573 1296L505 1298Q430 1300 411 1305T371 1336T350 1403Q350 1505 489 1505Q526 1505 590 1501L648 1499Q739 1496 879 1507Q1005 1516 1067 1516Q1296 1516 1296 1399Q1296 1355 1267 1325T1196 1294L1067 1309H1015Q986 1309 952 1307Z"  />
<glyph unicode="K" horiz-adv-x="1251" d="M422 526V512L420 -10Q420 -111 334 -111Q280 -111 247 -66T213 29Q213 319 227 727Q242 1168 242 1427Q242 1472 272 1502T342 1532Q384 1532 412 1502T440 1427Q440 1333 428 1126Q418 926 418 823Q535 930 721 1143L1008 1475Q1041 1513 1083 1513Q1124 1513 1155 1484T1186 1411Q1186 1298 559 678Q657 574 936 315L1040 227Q1085 189 1163 162Q1243 134 1243 61Q1243 22 1218 -9T1153 -41Q999 -41 721 225L422 526Z"  />
<glyph unicode="L" horiz-adv-x="1128" d="M299 113Q560 110 961 236Q977 240 991 240Q1035 240 1062 209T1090 135Q1090 80 1026 41T717 -45T305 -92Q188 -92 144 -47T100 92L121 424Q147 835 147 1440Q147 1484 176 1513T246 1542Q289 1542 317 1513T346 1440Q346 861 319 412L305 258Q299 192 299 113Z"  />
<glyph unicode="M" horiz-adv-x="1808" d="M1317 1094L1116 408L1051 217Q996 57 959 7T868 -43Q825 -43 798 -7T741 127L637 547Q592 737 528 1077L483 897L354 289L328 126Q311 30 297 -4T263 -52T215 -66Q169 -66 144 -35T119 43Q119 214 186 455L285 856L348 1171Q384 1353 428 1436T541 1520Q597 1520 632 1447T717 1081Q759 813 887 289Q1015 679 1143 1171L1174 1319Q1219 1534 1327 1534Q1382 1534 1422 1459T1493 1133Q1546 712 1645 360L1694 188Q1731 58 1731 18Q1731 -24 1699 -54T1624 -84Q1525 -84 1483 133L1446 305Q1373 642 1317 1094Z"  />
<glyph unicode="N" horiz-adv-x="1632" d="M352 1145L344 688Q343 642 348 440Q352 274 352 190Q352 -80 248 -80Q196 -80 164 -46T131 31Q131 72 137 156Q145 225 145 285L154 655Q154 722 150 854Q147 949 147 1034T135 1241Q123 1367 123 1430Q123 1474 163 1512T252 1550Q305 1550 383 1436Q683 987 904 727T1352 256Q1355 300 1352 383L1342 802Q1339 946 1330 1065T1313 1218T1286 1313Q1268 1380 1268 1417Q1268 1534 1372 1534Q1546 1534 1546 885Q1546 775 1542 553L1540 361Q1537 101 1520 31T1417 -39Q1379 -39 1302 17T953 383T352 1145Z"  />
<glyph unicode="O" horiz-adv-x="1634" d="M117 571Q117 938 342 1227T893 1516Q1224 1516 1386 1361T1548 881Q1548 514 1339 227T803 -61Q514 -61 316 116T117 571ZM319 571Q319 381 458 262T803 143Q1036 143 1189 370T1343 881Q1343 1120 1239 1215T893 1311Q653 1311 486 1080T319 571Z"  />
<glyph unicode="P" horiz-adv-x="1067" d="M291 600Q283 494 283 72Q283 30 257 3T193 -25Q151 -25 126 2T100 72V365Q100 523 119 778Q133 1005 139 1194V1331Q139 1574 250 1550Q310 1571 485 1571Q679 1571 842 1436T1006 1114Q1006 878 835 733T414 588Q385 588 291 600ZM326 1372L324 1190L303 791L414 778Q459 773 561 797T742 904T821 1114Q821 1224 710 1302T463 1380Q361 1380 326 1372Z"  />
<glyph unicode="Q" horiz-adv-x="1794" d="M1169 -47Q1002 -117 836 -117Q535 -117 307 122T78 668Q78 1023 338 1269T958 1516Q1309 1516 1499 1270T1690 614Q1690 283 1366 57L1583 -143L1712 -254Q1749 -286 1749 -332Q1749 -375 1719 -406T1647 -438Q1602 -438 1409 -266L1169 -47ZM977 109Q784 277 784 373Q784 416 816 445T889 475Q938 475 975 426Q1077 294 1198 197Q1483 361 1483 614Q1483 927 1347 1118T958 1309Q684 1309 484 1123T283 668Q283 447 452 269T836 90Q905 90 977 109Z"  />
<glyph unicode="R" horiz-adv-x="1286" d="M319 461L328 264L332 68Q333 27 305 -4T231 -35Q188 -35 160 -6T131 68Q131 178 123 303Q117 460 117 539Q117 648 137 813Q158 987 158 1085Q158 1125 147 1237Q137 1339 137 1389Q137 1451 175 1495T274 1536L516 1518Q711 1503 931 1331T1151 926Q1151 785 1038 677T737 512Q897 429 1063 298T1229 92Q1229 49 1198 20T1126 -10Q1088 -10 1055 20Q731 346 319 461ZM342 1323L355 1145Q358 1116 358 1081Q358 988 344 883L324 682H412Q712 682 831 772T950 926Q950 1060 801 1177T489 1311L342 1323Z"  />
<glyph unicode="S" horiz-adv-x="1419" d="M236 344Q285 344 322 289Q384 198 448 164T659 129Q830 129 973 212T1116 434Q1116 552 995 623T676 702Q486 711 375 790T264 1004Q264 1180 461 1323T864 1466Q983 1466 1114 1425T1245 1323Q1245 1237 1155 1237Q1109 1237 1016 1257Q916 1279 875 1279Q711 1279 597 1202T483 1014Q483 951 558 921T846 872Q1063 857 1192 739T1321 446Q1321 222 1125 83T657 -57Q447 -57 290 29T133 250Q133 292 162 318T236 344Z"  />
<glyph unicode="T" horiz-adv-x="1393" d="M1272 1284H1224Q1122 1284 1044 1288L964 1290H852Q832 1290 815 1288L745 1286Q750 1217 753 1105Q756 993 768 838Q791 533 791 387Q791 351 797 281Q803 209 803 174Q803 -8 694 -8Q655 -8 623 20T590 92Q590 104 595 138Q600 171 600 182Q600 232 594 328Q588 425 588 477Q588 607 565 879Q554 1007 543 1274L400 1270Q221 1263 122 1288T23 1386Q23 1433 50 1464T121 1495Q138 1495 178 1492Q352 1476 409 1476Q522 1476 684 1488Q780 1495 854 1495Q924 1495 1034 1491L1167 1489Q1208 1488 1258 1489T1338 1465T1368 1391Q1368 1343 1342 1314T1272 1284Z"  />
<glyph unicode="U" horiz-adv-x="1509" d="M340 1329V741Q340 135 764 135Q1163 135 1163 1155V1333Q1163 1503 1268 1503Q1368 1503 1368 1366V1118Q1368 -41 770 -41Q569 -41 435 33T233 252T150 564T135 1071Q135 1379 163 1438T248 1497Q340 1497 340 1329Z"  />
<glyph unicode="V" horiz-adv-x="1331" d="M666 285L938 1026L1024 1272Q1043 1326 1100 1431T1223 1536Q1266 1536 1295 1505T1325 1432Q1325 1398 1307 1370Q1237 1260 1204 1176L1128 956L860 229Q801 69 759 -5T659 -80Q616 -80 583 -52T462 249T283 872L205 1149Q145 1362 145 1419Q145 1466 177 1494T248 1522Q323 1522 344 1440L383 1266L477 926Q626 387 666 285Z"  />
<glyph unicode="W" horiz-adv-x="2130" d="M1303 4Q1254 132 1243 201Q1229 304 1139 769Q1093 1003 1081 1120Q985 763 881 477Q769 173 754 90Q766 68 766 45Q766 2 729 -26T643 -55Q508 -55 508 66L477 193L369 682Q339 819 145 1393Q139 1414 139 1434Q139 1526 244 1526Q282 1526 314 1499T413 1262T535 811L641 350Q736 568 864 991Q951 1291 1006 1393T1118 1495Q1185 1495 1218 1428T1290 1016Q1303 919 1360 621L1438 209Q1573 542 1674 813L1786 1117Q1796 1150 1831 1288Q1887 1526 1995 1526Q2095 1526 2095 1425Q2095 1406 2064 1325L2023 1217L1968 1038L1671 317L1589 109Q1537 -22 1523 -44T1483 -81T1423 -96Q1371 -96 1337 -68T1303 4Z"  />
<glyph unicode="X" horiz-adv-x="1483" d="M911 723L1130 401Q1242 236 1364 88Q1391 55 1391 20Q1391 -20 1361 -52T1288 -84Q1208 -84 1063 137L930 342L772 567L428 170L244 -37Q215 -70 170 -70Q129 -70 99 -39T68 35Q68 73 94 102L274 303L649 739Q533 894 416 1034L299 1192Q239 1273 170 1335Q127 1369 127 1415Q127 1458 156 1490T227 1522Q309 1522 429 1358T786 895L1016 1212Q1241 1522 1303 1522Q1344 1522 1375 1490T1407 1417Q1407 1385 1378 1350Q1242 1186 1174 1081L1049 897Q988 807 911 723Z"  />
<glyph unicode="Y" horiz-adv-x="1300" d="M596 469Q415 699 362 834Q313 954 213 1104Q47 1355 38 1375T29 1419Q29 1460 60 1491T131 1522Q178 1522 213 1475L295 1350Q440 1129 481 1056T551 907Q584 827 692 682L922 1239L1002 1400Q1043 1483 1063 1501T1122 1520Q1163 1520 1194 1491T1225 1419Q1225 1379 1171 1280Q1129 1204 1108 1161L936 737Q846 514 748 319L623 96L569 -12Q540 -70 481 -70Q440 -70 410 -40T379 31Q379 65 471 244L596 469Z"  />
<glyph unicode="Z" horiz-adv-x="1419" d="M1130 1159Q975 1054 719 709L319 127L709 141Q1071 154 1098 154Q1262 154 1319 134T1376 51Q1376 6 1346 -18T1270 -43Q1240 -43 1182 -39L1131 -37L182 -51Q68 -51 68 49Q68 118 129 215L598 866Q798 1145 1014 1325L664 1305H258Q214 1305 172 1307T109 1335T88 1405Q88 1457 120 1483T252 1509Q338 1509 457 1495Q578 1481 664 1481Q770 1481 893 1489Q1047 1499 1124 1499Q1382 1499 1382 1403Q1382 1338 1266 1251L1130 1159Z"  />
<glyph unicode="[" horiz-adv-x="770" d="M377 1323Q383 1234 383 1120L352 -221L440 -217H475L614 -223Q653 -223 677 -250T702 -319Q702 -418 614 -418Q584 -418 526 -414L475 -412Q446 -411 335 -417Q176 -426 176 -299Q176 -54 190 403Q205 894 205 1108L188 1409V1423Q188 1469 215 1494T276 1520H315Q338 1520 367 1518L420 1516L571 1520Q664 1520 664 1423Q664 1356 621 1336T377 1323Z"  />
<glyph unicode="\" horiz-adv-x="1126" d="M723 160L432 905Q387 1021 193 1374Q176 1403 176 1427Q176 1466 206 1495T274 1524Q307 1524 332 1500T436 1333T598 989L803 475Q931 154 1004 2Q1016 -22 1016 -45Q1016 -83 987 -112T920 -141Q871 -141 839 -88T723 160Z"  />
<glyph unicode="]" horiz-adv-x="770" d="M438 -412H401L262 -418Q224 -418 200 -390T176 -319Q176 -280 200 -252T262 -223Q292 -223 350 -219L401 -217H438L524 -221L496 1120Q494 1230 504 1323Q308 1316 262 1334T215 1423Q215 1520 307 1520L420 1516H458Q481 1516 510 1518L564 1520Q695 1525 690 1423L674 1108Q669 1010 688 403Q702 -54 702 -299Q702 -418 573 -418L438 -412Z"  />
<glyph unicode="^" horiz-adv-x="1190" d="M614 1434Q358 1122 289 1122Q254 1122 227 1150T199 1214Q199 1251 229 1278Q278 1324 532 1616Q561 1647 594 1647Q635 1647 676 1618T836 1466L993 1296Q1022 1265 1022 1237Q1022 1201 995 1173T930 1145Q886 1145 849 1192T614 1434Z"  />
<glyph unicode="_" horiz-adv-x="1284" d="M973 -344Q902 -344 760 -340Q618 -336 547 -336H102L-35 -344V-160H90Q164 -160 264 -158H565Q638 -158 776 -162Q917 -168 987 -168L1323 -160V-344H973Z"  />
<glyph unicode="`" horiz-adv-x="1139" d="M412 1221L311 1368Q262 1440 188 1497Q150 1528 150 1569Q150 1606 177 1633T238 1661Q299 1661 438 1497T578 1268Q578 1233 550 1206T483 1178Q439 1178 412 1221Z"  />
<glyph unicode="a" horiz-adv-x="1049" d="M784 51Q586 -53 494 -53Q264 -53 158 71T51 459Q51 702 217 873T614 1044Q715 1044 830 991T946 864Q946 835 926 815Q903 737 903 469Q903 338 927 251T1008 43L1014 27Q1014 -12 987 -39T920 -66Q903 -66 856 -26T784 51ZM733 829Q665 866 629 866Q475 866 362 741T248 449Q248 121 479 121Q632 121 743 231Q713 499 713 629Q713 725 733 829Z"  />
<glyph unicode="b" horiz-adv-x="1214" d="M328 18Q296 -31 250 -31Q213 -31 187 -5T160 63L164 217Q164 321 158 535Q154 747 154 852V1128L156 1300Q158 1440 163 1474T199 1541T270 1575Q346 1575 346 1489Q346 1477 341 1447Q336 1417 336 1407L332 932Q503 1051 643 1051Q852 1051 985 895T1118 504Q1118 278 972 118T606 -43Q453 -43 328 18ZM332 717L330 543L332 387V223Q404 192 464 170T606 147Q748 147 843 248T938 504Q938 658 858 759T643 860Q515 860 332 717Z"  />
<glyph unicode="c" horiz-adv-x="1053" d="M719 158L836 219Q869 236 879 236Q913 236 941 207T969 137Q969 68 826 3T592 -63Q378 -63 241 68T104 403Q104 614 250 838T578 1063Q692 1063 821 1008T950 872Q950 835 924 806T862 776Q830 776 770 827Q711 874 578 874Q479 874 382 703T285 403Q285 277 370 201T592 125Q653 125 719 158Z"  />
<glyph unicode="d" horiz-adv-x="1202" d="M897 61Q754 -45 586 -45Q375 -45 239 97T102 455Q102 719 243 880T612 1042Q772 1042 885 938Q903 1458 921 1525T1010 1593Q1100 1593 1100 1497Q1100 1363 1061 883Q1049 735 1049 590Q1049 255 1079 86L1081 73Q1087 31 1058 1T987 -29Q924 -29 897 61ZM868 289L864 461L868 694Q792 856 616 856Q281 856 281 459Q281 327 371 235T586 143Q742 143 868 289Z"  />
<glyph unicode="e" horiz-adv-x="1122" d="M272 301Q388 135 606 135Q684 135 786 167T920 248Q953 301 993 301Q1029 301 1056 275T1083 213Q1083 109 924 32T606 -45Q368 -45 227 79T86 418Q86 687 221 865T580 1044Q769 1044 874 975T979 776Q979 696 914 636T653 483L272 301ZM256 485L561 633Q747 723 819 784Q735 864 580 864Q332 864 256 485Z"  />
<glyph unicode="f" horiz-adv-x="940" d="M537 1008Q705 1020 758 1020Q915 1020 915 920Q915 827 758 827Q661 827 528 815L520 588Q519 558 524 399Q528 275 528 215Q528 19 508 -70T414 -160Q371 -160 342 -133T313 -68V-58L329 56Q338 128 338 236L334 510V799Q195 788 176 788Q76 788 76 887Q76 986 250 989L346 993Q367 1345 472 1472T799 1599Q940 1599 940 1501Q940 1407 811 1407Q568 1407 541 1069L537 1008Z"  />
<glyph unicode="g" horiz-adv-x="1087" d="M963 430L926 -70Q919 -150 899 -227T842 -369T748 -475T605 -540T408 -563Q57 -563 57 -442Q57 -352 145 -352Q163 -352 194 -357Q347 -385 434 -385Q608 -385 686 -264T768 174Q656 -25 469 -25Q287 -25 173 97T59 420Q59 691 218 857T651 1024Q841 1024 903 928Q1010 925 1010 809Q1010 733 989 618Q967 478 963 430ZM641 864Q456 864 355 744T254 432Q254 141 473 141Q564 141 651 235T761 431T813 803Q731 864 641 864Z"  />
<glyph unicode="h" horiz-adv-x="1184" d="M367 492Q367 165 345 71T248 -23Q206 -23 176 7T145 74Q145 90 154 119Q163 143 166 264L170 1147L178 1315Q178 1365 169 1411Q160 1456 160 1505Q160 1547 188 1574T258 1602Q327 1602 349 1538T371 1339Q371 1234 365 1120Q358 1026 358 901L360 813Q520 1032 733 1032Q858 1032 931 966T1012 668L1020 477L1040 268Q1047 191 1073 63Q1077 45 1077 35Q1077 -7 1048 -34T977 -61Q933 -61 905 -32T850 186T823 485L827 643Q827 831 733 831Q650 831 569 776T367 492Z"  />
<glyph unicode="i" horiz-adv-x="573" d="M213 1382Q213 1428 247 1462T330 1497Q378 1497 412 1464T446 1382Q446 1333 413 1300T330 1266Q281 1266 247 1300T213 1382ZM383 94Q383 51 356 24T285 -4Q241 -4 214 23T186 94Q186 154 182 274Q178 394 178 455Q178 550 188 688Q199 844 199 924Q199 969 226 996T297 1024Q340 1024 367 997T395 924Q395 830 385 688Q375 550 375 455Q375 394 379 274Q383 154 383 94Z"  />
<glyph unicode="j" horiz-adv-x="678" d="M225 1380Q225 1427 259 1461T342 1495Q390 1495 425 1462T461 1380Q461 1333 425 1300T342 1266Q295 1266 260 1300T225 1380ZM301 367L266 918Q263 961 291 1004T367 1047Q403 1047 436 1022T471 971L504 393L530 -221Q535 -346 451 -472T229 -598Q83 -598 -20 -457T-123 -258Q-123 -219 -91 -191T-18 -162Q39 -162 121 -318Q161 -397 229 -397Q272 -397 303 -349T334 -207Q334 -110 301 367Z"  />
<glyph unicode="k" horiz-adv-x="1106" d="M553 498Q491 449 373 369Q362 195 362 66Q362 21 335 -7T264 -35Q164 -35 164 100Q164 186 174 348Q186 514 186 598L195 1290Q195 1316 188 1454Q183 1532 206 1568T285 1604Q328 1604 355 1576T383 1503L391 1286L385 965Q380 709 383 616Q519 722 643 844L864 1071Q898 1106 936 1106Q974 1106 1005 1074T1036 1001Q1036 980 1023 957T912 829T705 627L924 330Q1075 125 1075 57Q1075 16 1045 -12T973 -41Q916 -41 887 16Q831 125 729 256L553 498Z"  />
<glyph unicode="l" horiz-adv-x="561" d="M393 786L373 105Q369 16 346 -13T272 -43Q174 -43 174 59Q174 178 184 422Q197 649 197 786L207 1509Q207 1610 303 1610Q403 1610 403 1509Q403 1352 397 1147Q393 943 393 786Z"  />
<glyph unicode="m" horiz-adv-x="1638" d="M893 692Q893 597 899 506L928 238Q948 53 948 -23Q948 -68 921 -96T850 -125Q807 -125 780 -97T752 -23Q752 86 727 334Q702 582 702 692Q702 798 672 856Q606 828 530 754L412 621L362 557Q362 498 350 381Q340 263 340 209Q340 186 355 79Q365 7 331 -22T256 -51Q143 -51 143 207Q143 253 154 385Q166 505 166 563Q166 615 156 723Q147 831 147 883Q147 1110 248 1110Q286 1110 319 1076T352 1001Q352 986 347 943Q342 899 342 883L344 776Q397 885 498 971T670 1057Q827 1057 885 901Q994 1047 1190 1047Q1288 1047 1347 988T1422 851T1485 401T1532 8Q1532 -30 1503 -57T1432 -84Q1369 -84 1347 -34T1300 313L1266 625Q1260 683 1228 766T1157 850Q1122 850 1022 787T893 692Z"  />
<glyph unicode="n" horiz-adv-x="1100" d="M348 846Q517 1069 694 1069Q823 1069 891 975T965 649V549L963 457Q961 373 983 242Q1006 104 1006 29Q1006 -16 978 -44T905 -72Q818 -72 809 23L780 242Q768 333 768 461V499L774 651Q774 866 694 866Q563 866 452 693T333 384Q331 359 328 330Q322 280 322 233Q322 201 328 143Q334 84 334 53Q334 8 307 -19T236 -47Q137 -47 137 53Q137 84 131 143Q125 201 125 233Q125 359 139 518Q154 689 154 805Q154 837 147 955Q138 1092 246 1092Q337 1092 346 963L348 846Z"  />
<glyph unicode="o" horiz-adv-x="1077" d="M78 458Q78 694 214 865T582 1036Q759 1036 861 892T963 518Q963 262 836 102T508 -59Q327 -59 203 83T78 458ZM561 834Q431 834 353 718T275 436Q275 297 344 220T508 143Q610 143 693 224T777 496Q777 834 567 834H561Z"  />
<glyph unicode="p" horiz-adv-x="1096" d="M348 -2L346 -481Q346 -526 319 -554T248 -582Q204 -582 177 -554T149 -481L154 -82V317Q154 459 137 717L123 920Q119 977 147 1038T235 1100Q274 1100 301 1073T328 1004V991L317 913Q488 1032 637 1032Q821 1032 916 886T1012 469Q1012 246 890 106T567 -35Q464 -35 348 -2ZM338 684Q350 460 350 209Q456 166 567 166Q685 166 750 245T815 469Q815 831 637 831Q577 831 511 809T338 684Z"  />
<glyph unicode="q" horiz-adv-x="1065" d="M862 -70Q838 -267 838 -457Q838 -500 811 -527T739 -555Q640 -555 640 -432Q640 -395 647 -344L680 -12Q593 -35 557 -35Q332 -35 196 86T59 414Q59 706 226 884T672 1063Q742 1063 768 1020Q810 1059 844 1059Q883 1059 912 1028T942 952Q942 649 909 315L862 -70ZM756 891Q744 885 720 885L626 892Q578 892 484 845T325 682T260 410Q260 291 334 215T538 139Q654 139 695 257T741 623L756 891Z"  />
<glyph unicode="r" horiz-adv-x="983" d="M918 739Q918 696 894 655T817 614Q731 614 731 713Q731 730 727 782L725 866Q429 835 324 582L326 35Q326 -68 227 -68Q139 -68 139 35V777Q139 802 141 834L143 892Q146 966 150 984T175 1018T231 1034Q329 1034 332 868Q522 1055 758 1055Q918 1055 918 809V739Z"  />
<glyph unicode="s" horiz-adv-x="997" d="M711 915L524 860Q429 832 374 787T317 686Q349 676 377 672Q649 625 766 523T883 254Q883 104 764 23T444 -59Q292 -59 167 -4T41 139Q41 179 72 209T143 240Q172 240 223 193Q248 172 320 157T444 141Q544 141 615 169T686 254Q686 390 496 438L391 461Q211 500 167 561T123 698Q123 838 204 917T510 1061Q644 1098 700 1124Q738 1143 788 1143Q832 1143 859 1114T887 1040Q887 1012 899 954Q911 900 911 870Q911 825 884 798T813 770Q774 770 750 791T711 915Z"  />
<glyph unicode="t" horiz-adv-x="965" d="M565 842L586 207V156Q586 -63 481 -63Q438 -63 410 -37T381 27V75L387 256L369 840Q146 852 102 868T57 954Q57 999 83 1028T154 1057L362 1040Q362 1092 358 1176Q354 1262 354 1300Q354 1342 382 1369T455 1397Q544 1397 559 1249L561 1209V1161L559 1104V1040Q691 1057 700 1057Q822 1057 859 1037T897 952Q897 909 871 881T801 852L700 856Q665 856 565 842Z"  />
<glyph unicode="u" horiz-adv-x="1065" d="M954 584V367L956 240Q958 114 964 48Q970 -26 937 -53T864 -80Q787 -80 766 14Q642 -49 477 -49Q330 -49 239 23T128 325T109 668Q109 768 126 901T174 1050T233 1067Q277 1067 306 1040T336 969Q336 929 319 821Q305 732 305 668Q305 331 350 190Q414 154 477 154Q614 154 762 197L758 594Q755 863 774 962T874 1061Q919 1061 947 1032T973 963L954 584Z"  />
<glyph unicode="v" horiz-adv-x="995" d="M600 51Q597 -41 510 -41Q438 -41 403 45L250 453L72 911Q61 939 61 956Q61 998 92 1027T166 1057Q223 1057 252 995L506 297Q587 472 694 760Q768 972 794 1011T866 1051Q909 1051 940 1021T971 952Q971 916 805 524L600 51Z"  />
<glyph unicode="w" horiz-adv-x="1401" d="M700 647L618 457L467 43Q453 5 428 -14Q396 -76 332 -76Q210 -76 113 643L88 793Q76 865 76 944Q76 986 105 1013T176 1040Q240 1040 259 994T293 811L307 666L367 215Q484 546 596 926Q629 1036 711 1036Q790 1036 815 922T883 553Q918 334 954 160L1026 432L1155 977Q1169 1038 1241 1038Q1285 1038 1315 1009T1346 940L1335 895Q1285 687 1240 525T1153 225T1067 17T1000 -67T944 -82Q891 -82 837 5T733 424L700 647Z"  />
<glyph unicode="x" horiz-adv-x="1208" d="M911 721L733 545L1061 119Q1085 88 1085 55Q1085 17 1055 -13T987 -43Q951 -43 901 12T594 406L399 205L252 61Q192 2 158 2Q122 2 92 33T61 102Q61 154 172 254Q242 316 264 338L477 561L346 750Q269 861 209 915Q170 948 170 989Q170 1027 199 1059T264 1092Q321 1092 442 938L614 698L811 879Q926 984 977 1059Q1007 1106 1053 1106Q1092 1106 1121 1077T1151 1010Q1151 955 1059 858L911 721Z"  />
<glyph unicode="y" horiz-adv-x="1067" d="M686 143Q548 -156 489 -313L424 -508Q400 -580 334 -580Q290 -580 261 -553T231 -483Q231 -384 446 96L88 784L43 858Q16 902 16 936Q16 976 47 1007T119 1038Q151 1038 181 1015T326 790T555 332L702 676Q717 711 785 850T880 1015T940 1040Q981 1040 1012 1010T1044 942Q1044 920 1032 893L686 143Z"  />
<glyph unicode="z" horiz-adv-x="1102" d="M500 166Q604 170 682 170Q723 170 799 154Q870 139 915 139Q959 139 986 112T1014 39Q1014 -6 987 -33T915 -61Q866 -61 799 -47Q733 -33 682 -33Q465 -33 256 -74Q234 -78 219 -78Q123 -78 123 8Q123 59 172 104Q436 344 739 840Q607 831 547 831Q476 831 335 842T174 886T154 952Q154 997 181 1027T250 1057Q306 1057 397 1044Q496 1032 547 1032Q612 1032 750 1042Q902 1053 954 1053Q1040 1053 1040 981Q1040 899 965 809Q854 675 735 500Q567 250 500 166Z"  />
<glyph unicode="{" horiz-adv-x="750" d="M258 573Q383 422 383 328Q383 280 375 229Q367 178 367 129Q367 37 413 -80T522 -197Q614 -197 647 -212T680 -289Q680 -331 655 -358T522 -385Q373 -385 276 -223T178 129Q178 154 187 212Q195 270 195 295Q195 377 100 444Q6 511 6 555Q6 606 83 680T213 768V795L205 1194Q201 1411 298 1517T535 1624Q596 1624 646 1594T696 1513Q696 1445 567 1438Q466 1432 426 1381T385 1223Q385 1180 391 1018Q397 854 397 813Q397 754 355 677T258 573Z"  />
<glyph unicode="|" horiz-adv-x="862" d="M530 1626V-246Q530 -362 444 -362Q388 -362 370 -304T352 25V1626Q352 1664 379 1689T444 1714Q530 1714 530 1626Z"  />
<glyph unicode="}" horiz-adv-x="750" d="M444 573Q390 601 348 677T305 813Q305 854 311 1018Q317 1180 317 1223Q317 1329 277 1380T136 1438Q6 1445 6 1513Q6 1564 57 1594T168 1624Q304 1624 402 1523T500 1194L494 993L492 795V768Q544 751 620 679T696 555Q696 510 602 444Q508 377 508 295Q508 276 516 212Q524 148 524 129Q524 -58 429 -221T180 -385Q79 -385 52 -358T25 -289Q25 -232 55 -215T180 -197Q245 -197 291 -81T338 129Q338 178 330 229Q322 280 322 328Q322 372 363 449T444 573Z"  />
<glyph unicode="~" horiz-adv-x="1225" d="M625 862L735 729Q801 649 874 649Q915 649 950 770Q990 893 1053 893Q1090 893 1116 869T1143 807Q1143 672 1062 570T868 467Q790 467 716 507T543 682Q487 756 467 756Q382 756 270 567Q243 516 193 516Q157 516 129 542T100 602Q100 667 211 800T467 934Q553 934 625 862Z"  />
<glyph unicode="&#xA0;" horiz-adv-x="612" />
<glyph unicode="&#xA1;" horiz-adv-x="487" d="M213 1606Q252 1606 292 1556T332 1462Q332 1428 305 1401T240 1374Q202 1374 162 1425T121 1516Q121 1551 148 1578T213 1606ZM123 1135Q123 1225 211 1225Q299 1225 299 1135V1085Q299 1056 301 1014L303 942V712Q303 603 301 457L299 203V53Q299 -7 289 -26T260 -56T211 -66Q123 -66 123 23V1135Z"  />
<glyph unicode="&#xA2;" horiz-adv-x="1276" d="M657 274V217Q657 33 565 33Q481 33 481 121Q481 207 485 303Q317 357 221 475T125 872Q125 1058 244 1233T547 1460Q543 1645 555 1693T627 1741Q662 1741 688 1716T715 1655L713 1477Q819 1467 915 1407Q947 1475 1020 1475Q1083 1475 1083 1409Q1083 1345 1048 1247T977 1149Q958 1149 932 1174Q850 1249 807 1275T709 1309Q706 1177 688 874L659 442Q781 448 846 516L956 678Q988 725 1028 725Q1063 725 1088 703T1114 645Q1114 568 997 426T657 274ZM494 479L543 1280Q430 1224 361 1107T291 872Q291 706 325 622T494 479Z"  />
<glyph unicode="&#xA3;" horiz-adv-x="1624" d="M305 891L303 918Q284 1169 433 1389T883 1610Q1054 1610 1195 1530T1337 1313Q1337 1278 1309 1253T1243 1227Q1195 1227 1163 1286Q1122 1368 1056 1403T868 1438Q688 1438 585 1302T481 946V924Q481 914 483 903Q635 915 715 915Q773 915 887 909Q1004 903 1063 903Q1101 903 1126 878T1151 815Q1151 777 1126 751T1063 725Q1004 725 887 731Q773 737 715 737Q636 737 512 727Q571 461 571 377Q571 250 532 145H559Q655 145 791 88Q930 29 1024 29Q1112 29 1168 47T1245 95T1284 227Q1299 299 1368 299Q1458 299 1458 203Q1458 48 1352 -51T1024 -150Q931 -150 786 -90Q650 -33 551 -33Q479 -33 391 -74Q303 -117 291 -117Q255 -117 230 -91T205 -29Q205 1 254 53Q322 126 357 194T393 377Q393 469 336 715Q262 711 184 711Q37 711 37 805Q37 842 62 868T125 895L233 891H305Z"  />
<glyph unicode="&#xA4;" horiz-adv-x="1253" d="M473 1077Q551 1106 670 1106Q709 1106 799 1063L969 1167Q1100 1247 1133 1247Q1170 1247 1200 1216T1231 1145Q1231 1104 1205 1080T942 915Q975 847 975 743Q975 653 899 543Q979 481 1051 400T1124 281Q1124 241 1093 211T1022 180Q983 180 950 213L856 313Q812 360 754 403Q710 383 627 383Q538 383 412 463L233 256Q201 219 160 219Q119 219 87 248T55 319Q55 358 93 397T274 612Q236 685 236 774Q236 881 309 967L195 1087Q115 1171 115 1221Q115 1259 146 1289T219 1319Q256 1319 299 1277T473 1077ZM776 743Q776 907 635 907Q565 907 500 868T434 774Q434 690 488 638T631 586Q693 586 734 637T776 743Z"  />
<glyph unicode="&#xA5;" horiz-adv-x="1303" d="M575 608Q547 648 483 750Q461 750 378 757L259 768Q223 772 203 792T182 852Q182 930 266 930Q323 930 385 924Q133 1355 133 1374Q133 1407 159 1432T219 1458Q260 1458 302 1399T412 1210Q468 1093 530 995L653 788Q752 894 1010 1399Q1034 1452 1085 1452Q1119 1452 1145 1428T1171 1370Q1171 1342 1069 1155L938 924L1051 936Q1079 939 1106 921T1133 854Q1133 768 1051 768Q1016 768 946 758Q912 753 888 752Q863 750 846 748Q802 694 735 604V557L788 555Q849 553 945 565Q1001 572 1025 544T1049 481Q1049 431 1011 412T866 393Q812 393 735 397V195Q735 171 740 113Q745 56 745 31Q745 -53 664 -53Q580 -53 580 31Q580 45 575 125L573 180V399Q510 408 446 408Q274 412 274 500Q274 580 379 580L467 575H532Q560 575 575 573V608Z"  />
<glyph unicode="&#xA6;" horiz-adv-x="827" d="M481 1163L480 942Q480 877 403 877Q332 877 332 965V1101Q332 1183 334 1292L336 1484Q337 1569 336 1612T351 1676T410 1696Q483 1696 483 1620L481 1163ZM475 559Q475 436 483 295Q492 119 492 31Q492 -43 416 -43Q342 -43 342 31Q342 154 334 295Q328 470 328 559Q328 717 408 717Q479 717 479 641L475 559Z"  />
<glyph unicode="&#xA7;" horiz-adv-x="1300" d="M1006 516Q1098 415 1098 279Q1098 111 975 17T645 -78Q396 -78 257 31T117 338Q117 428 207 428Q264 428 289 373L319 268Q372 82 645 82Q770 82 845 135T920 279Q920 416 733 477L385 590Q331 607 264 691T197 909Q197 1041 311 1141Q262 1219 262 1321Q262 1464 379 1552T676 1640Q842 1640 967 1558T1092 1407Q1092 1370 1068 1344T1010 1317Q982 1317 874 1395Q767 1475 678 1475Q595 1475 522 1434T449 1323Q449 1214 631 1122L922 977Q1100 888 1100 674Q1100 627 1072 577T1006 516ZM915 590Q928 638 928 664Q928 781 731 874L440 1014Q417 1004 396 968T375 909Q375 843 422 782T702 662Q853 625 915 590Z"  />
<glyph unicode="&#xA8;" horiz-adv-x="1139" d="M975 1286Q975 1194 831 1194Q794 1194 759 1217T723 1280Q723 1341 754 1360T870 1380Q905 1380 940 1349T975 1286ZM463 1268Q463 1236 423 1210T344 1184Q221 1184 221 1286Q221 1315 257 1343T332 1372Q463 1372 463 1268Z"  />
<glyph unicode="&#xA9;" horiz-adv-x="1628" d="M1522 973Q1522 716 1308 484T817 252Q90 252 90 911Q90 1184 339 1402T903 1620Q1188 1620 1355 1442T1522 973ZM268 911Q268 661 398 545T817 428Q1020 428 1181 609T1343 993Q1343 1201 1239 1319T944 1438Q635 1438 452 1289T268 911ZM596 944Q596 889 657 851T778 813Q852 813 930 874Q1004 938 1028 938Q1065 938 1092 910T1120 844Q1120 775 1005 706T778 637Q631 637 525 727T418 944Q418 1096 568 1207T887 1319Q945 1319 987 1287T1030 1204Q1030 1128 952 1128Q940 1128 922 1134Q904 1139 893 1139Q776 1139 686 1082T596 944Z"  />
<glyph unicode="&#xAA;" horiz-adv-x="1024" d="M717 971Q680 946 600 927T463 907Q320 907 237 1003T154 1247Q154 1426 263 1546T584 1667Q685 1667 748 1646T829 1600T846 1534Q846 1507 827 1489Q813 1441 813 1319Q813 1180 834 1126L897 985Q897 951 864 925T786 899Q763 899 717 971ZM655 1513Q628 1528 553 1528Q458 1528 398 1450T338 1245Q338 1071 487 1071Q605 1071 655 1120Q641 1212 641 1308Q641 1464 655 1513Z"  />
<glyph unicode="&#xAB;" horiz-adv-x="1184" d="M299 614Q347 580 436 487Q516 402 567 354Q604 324 604 287Q604 249 577 222T514 195Q484 195 449 223T289 381Q187 487 94 522Q18 550 18 604Q18 655 88 688Q180 734 293 850Q434 999 468 1030T537 1061Q572 1061 599 1033T627 969Q627 949 616 930T519 824T299 614ZM752 592Q794 564 891 467Q997 354 1022 332Q1059 301 1059 264Q1059 228 1031 200T969 172Q939 172 901 202T741 360Q640 466 549 500Q473 527 473 584Q473 633 541 668Q632 708 745 827Q895 985 928 1012T989 1040Q1024 1040 1052 1013T1081 948Q1081 926 1070 906T952 782T752 592Z"  />
<glyph unicode="&#xAC;" horiz-adv-x="983" d="M905 338Q903 248 815 248Q727 248 727 338L725 453V567Q380 547 203 547Q47 547 47 639Q47 691 76 708T203 725H290L627 731Q638 731 723 736Q913 747 913 643Q913 564 909 489L905 338Z"  />
<glyph unicode="&#xAD;" horiz-adv-x="854" d="M195 461Q111 461 111 539Q111 616 195 616Q296 616 432 623Q558 631 670 631Q758 631 758 553Q758 484 662 473T195 461Z"  />
<glyph unicode="&#xAE;" horiz-adv-x="1628" d="M1538 956Q1538 639 1305 423T768 207Q466 207 278 377T90 844Q90 1215 306 1422T930 1630Q1184 1630 1361 1429T1538 956ZM768 385Q1002 385 1180 547T1358 954Q1358 1162 1230 1308T911 1454Q268 1454 268 844Q268 623 402 504T768 385ZM852 858Q946 741 1018 721Q1087 693 1087 635Q1087 597 1061 570T1001 543Q941 543 888 577T743 717Q681 791 631 827Q602 621 578 583T506 545Q469 545 442 569T414 631V640Q414 644 416 649L504 1151Q534 1323 610 1327Q619 1327 633 1331Q707 1352 733 1352Q983 1352 1076 1298T1169 1141Q1169 917 852 858ZM664 1012Q991 1042 991 1141Q946 1174 770 1174H731Q706 1174 684 1167Q680 1118 664 1012Z"  />
<glyph unicode="&#xAF;" horiz-adv-x="1139" d="M649 1335H699Q730 1335 772 1337L843 1339Q922 1341 946 1325T971 1264Q971 1204 905 1192L795 1186H580L350 1192Q279 1192 279 1268Q279 1313 308 1328T414 1343Q454 1343 530 1339Q612 1335 649 1335Z"  />
<glyph unicode="&#xB0;" horiz-adv-x="838" d="M766 1311Q766 1175 657 1075T395 975Q245 975 157 1077T68 1335Q68 1484 168 1581T414 1679Q568 1679 667 1575T766 1311ZM395 1122Q477 1122 546 1175T616 1311Q616 1408 562 1470T414 1532Q337 1532 277 1474T217 1335Q217 1246 266 1184T395 1122Z"  />
<glyph unicode="&#xB1;" horiz-adv-x="983" d="M555 557V479Q555 434 554 368T527 267T455 231Q377 231 377 322L375 438V553Q255 547 203 547Q47 547 47 639Q47 692 75 708T203 725Q255 725 375 731L373 883Q371 1047 467 1047Q504 1047 530 1022T557 958L551 850L553 735L627 731Q633 731 723 736Q913 747 913 643Q913 606 889 579T827 551L754 559L653 557Q561 555 555 557ZM553 61H651L708 63Q913 70 913 -31Q913 -68 889 -95T827 -123Q813 -123 772 -116Q745 -112 479 -121Q330 -129 203 -129Q47 -129 47 -37Q47 51 160 51Q224 51 356 55Q488 61 553 61Z"  />
<glyph unicode="&#xB2;" horiz-adv-x="860" d="M291 975L459 971Q498 970 555 979Q619 989 651 989Q682 989 702 967T723 913Q723 821 457 821H414Q388 821 354 823L296 825Q220 828 195 833T146 863T121 926Q121 1006 187 1073L231 1120Q313 1202 436 1284Q528 1346 528 1430Q528 1483 494 1516T406 1550Q321 1550 266 1432Q242 1391 205 1391Q173 1391 150 1411T127 1462Q127 1555 222 1621T426 1688Q535 1688 610 1612T686 1438Q686 1258 446 1118Q363 1067 291 975Z"  />
<glyph unicode="&#xB3;" horiz-adv-x="860" d="M532 1280Q711 1235 711 1075Q711 948 614 881T371 813Q255 813 190 840T125 911Q125 944 143 969T188 995Q193 995 212 989Q286 965 371 965Q462 965 503 991T545 1079Q545 1148 510 1164T360 1194Q305 1204 305 1257Q305 1287 324 1305T410 1341Q502 1366 502 1448Q502 1530 383 1530Q307 1530 232 1507Q219 1503 211 1503Q150 1503 150 1563Q150 1623 181 1642T281 1671T391 1681Q493 1681 577 1628T662 1462Q662 1336 532 1280Z"  />
<glyph unicode="&#xB4;" horiz-adv-x="1139" d="M213 1280Q213 1313 244 1343Q289 1390 375 1503Q417 1561 476 1613T575 1665Q609 1665 637 1637T666 1573Q666 1532 627 1501Q550 1439 492 1358Q368 1188 303 1188Q268 1188 241 1216T213 1280Z"  />
<glyph unicode="&#xB5;" horiz-adv-x="1065" d="M205 -342Q182 -406 121 -406Q82 -406 53 -380T23 -315Q23 -291 98 -76Q179 146 190 213L203 348Q227 593 282 789T373 1026T461 1067Q543 1067 543 989Q543 955 502 836Q389 497 389 229V190Q450 154 510 154Q644 154 803 197L881 586Q934 849 977 955T1100 1061Q1182 1061 1182 987Q1182 959 1137 797L1079 584L989 152L978 70Q965 -27 930 -53T848 -80Q771 -80 768 14Q632 -49 467 -49Q381 -49 317 -25L205 -342Z"  />
<glyph unicode="&#xB6;" horiz-adv-x="1421" d="M997 1380Q1002 1159 970 793T884 145T802 -166T735 -197Q698 -197 671 -173T643 -111Q643 -98 647 -82Q667 4 690 156L725 395Q690 389 662 389Q432 389 252 518T72 858Q72 1102 207 1282T592 1550L948 1651Q969 1657 983 1657Q1018 1657 1044 1629T1071 1563Q1071 1497 995 1477L997 1380ZM819 1427Q250 1301 250 858Q250 728 379 648T662 567Q709 567 764 588Q821 911 821 1276L819 1427ZM1012 -184Q976 -184 947 -159T918 -98Q918 -85 924 -63Q1001 176 1075 611T1149 1249Q1149 1299 1133 1401Q1116 1509 1116 1550Q1116 1636 1208 1636Q1274 1636 1299 1542T1325 1249Q1325 1088 1256 646T1146 44T1076 -149T1012 -184Z"  />
<glyph unicode="&#xB7;" horiz-adv-x="510" d="M143 715Q143 763 179 801T266 840Q317 840 354 802T391 715Q391 665 354 629T266 592Q215 592 179 629T143 715Z"  />
<glyph unicode="&#xB8;" horiz-adv-x="1139" d="M623 -444Q513 -444 440 -403T367 -299Q367 -244 434 -244Q457 -244 516 -268Q574 -293 612 -293Q709 -293 709 -201Q709 -147 651 -100T514 -35Q449 -20 449 39Q449 115 520 115Q643 115 753 19T864 -197Q864 -444 623 -444Z"  />
<glyph unicode="&#xB9;" horiz-adv-x="860" d="M365 973V1427Q291 1384 244 1384Q172 1384 172 1452Q172 1510 229 1528Q246 1535 346 1604Q431 1663 455 1663Q492 1663 503 1640T514 1542V973L559 975Q647 979 683 969T719 920Q719 889 697 866T643 842H236Q205 842 184 864T162 918Q162 962 203 971L227 973H365Z"  />
<glyph unicode="&#xBA;" horiz-adv-x="1024" d="M154 1260Q154 1446 262 1562T567 1679Q715 1679 798 1578T881 1317Q881 1138 782 1025T508 911Q349 911 252 1009T154 1260ZM340 1260Q340 1179 387 1122T512 1065Q598 1065 648 1133T698 1296Q698 1393 654 1459T549 1526Q451 1526 396 1452T340 1260Z"  />
<glyph unicode="&#xBB;" horiz-adv-x="1184" d="M803 614Q688 719 593 814T486 928T473 969Q473 1005 500 1033T563 1061Q591 1061 619 1040T809 850Q918 735 1012 688Q1081 656 1081 604Q1081 550 1006 522Q913 486 811 381Q724 288 674 242T586 195Q551 195 524 223T496 287Q496 323 530 354Q573 390 664 487Q753 580 803 614ZM348 592Q219 711 130 800T30 907T18 948Q18 984 46 1012T111 1040Q138 1040 171 1014T354 827Q470 707 559 668Q627 633 627 584Q627 527 553 500Q462 468 358 360Q224 219 190 196T131 172Q97 172 70 199T43 264Q43 300 78 332Q131 383 211 467Q310 566 348 592Z"  />
<glyph unicode="&#xBC;" horiz-adv-x="1333" d="M604 1034V1489Q534 1446 483 1446Q412 1446 412 1513Q412 1571 469 1589Q483 1595 586 1665Q669 1724 694 1724Q731 1724 742 1701T754 1604V1034L799 1036Q887 1040 922 1030T958 981Q958 950 937 927T883 903H475Q444 903 423 925T401 979Q401 1023 442 1032L466 1034H604ZM973 727Q1139 722 1174 708T1210 643Q1210 569 1133 569L928 580Q704 592 510 592Q465 592 373 588L294 586Q211 584 187 599T162 659Q162 735 238 735H294L510 741L973 727ZM817 14L874 16Q1001 20 1001 -57Q1001 -104 936 -104Q913 -104 877 -100L819 -94L821 -266Q822 -342 745 -342Q672 -342 672 -266V-96L348 -113Q270 -117 270 -35Q270 12 313 55Q381 123 492 258Q647 451 681 476T760 502Q791 502 814 481T838 428L813 305L817 14ZM674 18L676 244Q536 83 475 18Q515 23 547 23L674 18Z"  />
<glyph unicode="&#xBD;" horiz-adv-x="1333" d="M604 1034V1489Q534 1446 483 1446Q412 1446 412 1513Q412 1571 469 1589Q483 1595 586 1665Q669 1724 694 1724Q732 1724 743 1699T754 1597V1034L799 1036Q887 1040 922 1030T958 981Q958 950 937 927T883 903H475Q444 903 423 925T401 979Q401 1023 442 1032L466 1034H604ZM973 727Q1139 722 1174 708T1210 643Q1210 569 1133 569L928 580Q704 592 510 592Q465 592 373 588L294 586Q211 584 187 599T162 659Q162 735 238 735H294L510 741L973 727ZM551 -205L719 -209Q747 -210 815 -199Q885 -188 911 -188Q942 -188 962 -211T983 -266Q983 -358 717 -358H674Q648 -358 614 -356L556 -354Q479 -351 454 -346T405 -316T381 -254Q381 -121 487 -27L682 106Q788 178 788 250Q788 279 749 314T682 350Q616 350 575 309L526 233Q498 190 465 190Q433 190 410 210T387 262Q387 354 481 420T686 487Q782 487 860 413T938 250Q938 129 885 64T713 -72Q605 -136 551 -205Z"  />
<glyph unicode="&#xBE;" horiz-adv-x="1333" d="M852 1315Q946 1245 946 1083Q946 978 853 916T618 854Q414 854 414 952Q414 983 436 1006T487 1030Q497 1030 541 1018Q586 1006 618 1006Q694 1006 746 1027T799 1083Q799 1183 733 1208L616 1223Q553 1231 553 1292Q553 1349 657 1376Q762 1404 762 1466Q762 1550 608 1550Q599 1550 567 1542Q535 1534 522 1534Q461 1534 461 1593Q461 1642 505 1672T608 1702Q739 1702 824 1639T909 1466Q909 1372 852 1315ZM1133 569L928 580Q704 592 510 592Q465 592 373 588L294 586Q211 584 187 599T162 659Q162 735 238 735H294L510 741Q740 741 973 727Q1002 725 1044 724Q1156 719 1183 705T1210 643Q1210 569 1133 569ZM817 14L864 16Q1001 22 1001 -57Q1001 -104 936 -104Q913 -104 877 -100Q833 -94 819 -94L821 -266Q822 -342 745 -342Q672 -342 672 -266V-96L348 -113Q270 -117 270 -35Q270 15 313 55Q396 130 496 254L666 463Q698 502 760 502Q791 502 814 481T838 428Q838 421 834 407Q813 330 813 305L817 14ZM674 18L676 244Q536 83 475 18Q515 23 547 23L674 18Z"  />
<glyph unicode="&#xBF;" horiz-adv-x="1073" d="M811 1376Q811 1311 775 1260T684 1208Q588 1208 588 1325Q588 1387 619 1433T696 1479Q741 1479 776 1449T811 1376ZM616 825L379 643Q338 611 294 553T250 440Q250 328 355 230T582 131Q645 131 739 195Q839 260 860 260Q899 260 930 229T961 154Q961 78 819 3T582 -72Q381 -72 216 83T51 440Q51 569 115 660T354 877Q508 986 567 1057Q603 1098 641 1098Q682 1098 713 1066T745 993Q745 927 616 825Z"  />
<glyph unicode="&#xC0;" horiz-adv-x="1497" d="M1024 520Q916 507 758 471L492 416Q345 62 315 20T233 -23Q192 -23 162 7T131 78Q131 124 283 442Q264 470 264 504Q264 585 362 606Q483 837 688 1158T946 1479Q1023 1479 1055 1368L1116 1032L1266 338L1323 178Q1352 97 1352 72Q1352 28 1321 -1T1249 -31Q1117 -31 1024 520ZM897 1112L610 651Q700 676 979 727L897 1112ZM934 1682L833 1829Q784 1901 710 1958Q672 1989 672 2030Q672 2067 699 2094T760 2122Q821 2122 960 1958T1100 1729Q1100 1694 1072 1667T1005 1639Q961 1639 934 1682Z"  />
<glyph unicode="&#xC1;" horiz-adv-x="1497" d="M1024 520Q916 507 758 471L492 416Q345 62 315 20T233 -23Q192 -23 162 7T131 78Q131 124 283 442Q264 470 264 504Q264 585 362 606Q483 837 688 1158T946 1479Q1023 1479 1055 1368L1116 1032L1266 338L1323 178Q1352 97 1352 72Q1352 28 1321 -1T1249 -31Q1117 -31 1024 520ZM897 1112L610 651Q700 676 979 727L897 1112ZM840 1722Q840 1755 871 1785Q916 1832 1002 1945Q1044 2003 1103 2055T1202 2107Q1236 2107 1264 2079T1293 2015Q1293 1974 1254 1943Q1177 1881 1119 1800Q995 1630 930 1630Q895 1630 868 1658T840 1722Z"  />
<glyph unicode="&#xC2;" horiz-adv-x="1497" d="M1024 520Q916 507 758 471L492 416Q345 62 315 20T233 -23Q192 -23 162 7T131 78Q131 124 283 442Q264 470 264 504Q264 585 362 606Q483 837 688 1158T946 1479Q1023 1479 1055 1368L1116 1032L1266 338L1323 178Q1352 97 1352 72Q1352 28 1321 -1T1249 -31Q1117 -31 1024 520ZM897 1112L610 651Q700 676 979 727L897 1112ZM934 1878Q679 1564 609 1564Q575 1564 547 1592T519 1656Q519 1696 555 1730T704 1890L847 2053Q878 2089 914 2089Q955 2089 998 2059T1155 1910L1313 1740Q1340 1711 1340 1679Q1340 1644 1313 1617T1248 1589Q1206 1589 1167 1636T934 1878Z"  />
<glyph unicode="&#xC3;" horiz-adv-x="1497" d="M1024 520Q916 507 758 471L492 416Q345 62 315 20T233 -23Q192 -23 162 7T131 78Q131 124 283 442Q264 470 264 504Q264 585 362 606Q483 837 688 1158T946 1479Q1023 1479 1055 1368L1116 1032L1266 338L1323 178Q1352 97 1352 72Q1352 28 1321 -1T1249 -31Q1117 -31 1024 520ZM897 1112L610 651Q700 676 979 727L897 1112ZM964 1946L1048 1842Q1096 1782 1161 1782Q1218 1782 1245 1819L1290 1907L1311 1967Q1321 1995 1372 1995Q1446 1995 1446 1921Q1446 1885 1383 1760T1192 1635Q1078 1635 1021 1668T899 1799Q855 1856 805 1856Q744 1856 706 1809L661 1725Q637 1680 598 1680Q566 1680 543 1700T520 1751V1762Q520 1817 595 1911T805 2005Q905 2005 964 1946Z"  />
<glyph unicode="&#xC4;" horiz-adv-x="1497" d="M1024 520Q916 507 758 471L492 416Q345 62 315 20T233 -23Q192 -23 162 7T131 78Q131 124 283 442Q264 470 264 504Q264 585 362 606Q483 837 688 1158T946 1479Q1023 1479 1055 1368L1116 1032L1266 338L1323 178Q1352 97 1352 72Q1352 28 1321 -1T1249 -31Q1117 -31 1024 520ZM897 1112L610 651Q700 676 979 727L897 1112ZM1346 1737Q1346 1645 1202 1645Q1165 1645 1130 1668T1094 1731Q1094 1792 1125 1811T1241 1831Q1276 1831 1311 1800T1346 1737ZM834 1719Q834 1687 794 1661T715 1635Q592 1635 592 1737Q592 1766 628 1794T703 1823Q834 1823 834 1719Z"  />
<glyph unicode="&#xC5;" horiz-adv-x="1497" d="M998 2001Q1130 2001 1219 1925T1309 1733Q1309 1463 1026 1433Q1043 1408 1055 1368L1116 1032L1266 338L1323 178Q1352 97 1352 72Q1352 28 1321 -1T1249 -31Q1117 -31 1024 520Q916 507 758 471L492 416Q345 62 315 20T233 -23Q192 -23 162 7T131 78Q131 124 283 442Q264 470 264 504Q264 585 362 606Q483 837 688 1158Q817 1359 885 1434Q782 1448 717 1510Q633 1590 633 1694Q633 1833 732 1917T998 2001ZM1157 1733Q1157 1787 1108 1820T998 1854Q785 1854 785 1694Q785 1648 841 1613T965 1577Q1157 1577 1157 1733ZM897 1112L610 651Q700 676 979 727L897 1112Z"  />
<glyph unicode="&#xC6;" horiz-adv-x="2226" d="M1151 672Q1029 667 881 653L608 629Q519 510 350 244L229 57Q200 12 150 12Q110 12 78 42T45 111Q45 138 63 168T258 471T604 942L877 1288Q995 1438 1097 1511T1262 1585Q1306 1585 1333 1556Q1585 1622 1761 1622Q2216 1622 2216 1466Q2216 1424 2187 1393T2118 1362Q2105 1362 2087 1366Q1901 1415 1761 1415Q1594 1415 1372 1354Q1382 1290 1382 1249Q1382 1112 1366 868L1802 909Q2025 930 2040 930Q2085 930 2113 900T2142 825Q2142 740 2052 725L1352 662Q1343 516 1343 410Q1343 171 1378 146T1532 121H1609L1907 127Q1917 127 1997 137Q2130 154 2130 37Q2130 -25 2069 -55T1829 -86H1610Q1338 -86 1241 0T1143 410Q1143 555 1151 672ZM780 844Q991 865 1165 870Q1182 1129 1182 1249Q1182 1279 1178 1319Q1082 1234 971 1087L780 844Z"  />
<glyph unicode="&#xC7;" horiz-adv-x="1235" d="M550 -413Q440 -413 367 -372T294 -268Q294 -213 361 -213Q384 -213 443 -237Q501 -262 539 -262Q636 -262 636 -170Q636 -116 578 -69T441 -4Q376 11 376 70Q376 146 447 146Q570 146 680 49Q711 22 733 -5Q656 -25 578 -25Q376 -25 233 128T90 500Q90 816 342 1153T852 1491Q963 1491 1010 1473Q1043 1524 1100 1524Q1158 1524 1180 1462T1202 1233Q1202 1183 1175 1153T1104 1122Q1041 1122 1008 1196Q977 1267 955 1276T852 1286Q691 1286 491 1014T291 500Q291 365 376 273T578 180Q656 180 737 211T963 352Q1021 393 1049 393Q1091 393 1121 362T1151 289Q1151 261 1136 236T1015 132T799 14Q766 2 733 -5Q791 -80 791 -166Q791 -413 550 -413Z"  />
<glyph unicode="&#xC8;" horiz-adv-x="1280" d="M371 1337Q379 1287 379 1235Q379 1111 362 852L801 895Q985 913 1036 913Q1081 913 1111 886T1141 811Q1141 721 1049 709L348 645Q340 539 340 393Q340 144 383 124T528 104L903 113Q915 113 995 123Q1126 139 1126 20Q1126 -51 1062 -74T635 -98Q316 -98 228 -8T139 393Q139 533 152 696Q139 721 139 745Q139 780 160 807Q178 1095 178 1235Q178 1271 168 1341Q160 1399 160 1450Q160 1571 258 1571Q301 1571 332 1540Q575 1606 758 1606Q913 1606 1028 1581T1177 1528T1212 1450Q1212 1405 1184 1376T1114 1346Q1102 1346 1083 1352Q909 1399 758 1399Q593 1399 371 1337ZM791 1790L690 1937Q641 2009 567 2066Q529 2097 529 2138Q529 2175 556 2202T617 2230Q678 2230 817 2066T957 1837Q957 1802 929 1775T862 1747Q818 1747 791 1790Z"  />
<glyph unicode="&#xC9;" horiz-adv-x="1280" d="M371 1337Q379 1287 379 1235Q379 1111 362 852L801 895Q985 913 1036 913Q1081 913 1111 886T1141 811Q1141 721 1049 709L348 645Q340 539 340 393Q340 144 383 124T528 104L903 113Q915 113 995 123Q1126 139 1126 20Q1126 -51 1062 -74T635 -98Q316 -98 228 -8T139 393Q139 533 152 696Q139 721 139 745Q139 780 160 807Q178 1095 178 1235Q178 1271 168 1341Q160 1399 160 1450Q160 1571 258 1571Q301 1571 332 1540Q575 1606 758 1606Q913 1606 1028 1581T1177 1528T1212 1450Q1212 1405 1184 1376T1114 1346Q1102 1346 1083 1352Q909 1399 758 1399Q593 1399 371 1337ZM655 1858Q655 1891 686 1921Q731 1968 817 2081Q859 2139 918 2191T1017 2243Q1051 2243 1079 2215T1108 2151Q1108 2110 1069 2079Q992 2017 934 1936Q810 1766 745 1766Q710 1766 683 1794T655 1858Z"  />
<glyph unicode="&#xCA;" horiz-adv-x="1280" d="M371 1337Q379 1287 379 1235Q379 1111 362 852L801 895Q985 913 1036 913Q1081 913 1111 886T1141 811Q1141 721 1049 709L348 645Q340 539 340 393Q340 144 383 124T528 104L903 113Q915 113 995 123Q1126 139 1126 20Q1126 -51 1062 -74T635 -98Q316 -98 228 -8T139 393Q139 533 152 696Q139 721 139 745Q139 780 160 807Q178 1095 178 1235Q178 1271 168 1341Q160 1399 160 1450Q160 1571 258 1571Q301 1571 332 1540Q575 1606 758 1606Q913 1606 1028 1581T1177 1528T1212 1450Q1212 1405 1184 1376T1114 1346Q1102 1346 1083 1352Q909 1399 758 1399Q593 1399 371 1337ZM772 2046Q517 1732 447 1732Q413 1732 385 1760T357 1824Q357 1864 393 1898T542 2058L685 2221Q716 2257 752 2257Q793 2257 836 2227T993 2078L1151 1908Q1178 1879 1178 1847Q1178 1812 1151 1785T1086 1757Q1044 1757 1005 1804T772 2046Z"  />
<glyph unicode="&#xCB;" horiz-adv-x="1280" d="M371 1337Q379 1287 379 1235Q379 1111 362 852L801 895Q985 913 1036 913Q1081 913 1111 886T1141 811Q1141 721 1049 709L348 645Q340 539 340 393Q340 144 383 124T528 104L903 113Q915 113 995 123Q1126 139 1126 20Q1126 -51 1062 -74T635 -98Q316 -98 228 -8T139 393Q139 533 152 696Q139 721 139 745Q139 780 160 807Q178 1095 178 1235Q178 1271 168 1341Q160 1399 160 1450Q160 1571 258 1571Q301 1571 332 1540Q575 1606 758 1606Q913 1606 1028 1581T1177 1528T1212 1450Q1212 1405 1184 1376T1114 1346Q1102 1346 1083 1352Q909 1399 758 1399Q593 1399 371 1337ZM1165 1853Q1165 1761 1021 1761Q984 1761 949 1784T913 1847Q913 1908 944 1927T1060 1947Q1095 1947 1130 1916T1165 1853ZM653 1835Q653 1803 613 1777T534 1751Q411 1751 411 1853Q411 1882 447 1910T522 1939Q653 1939 653 1835Z"  />
<glyph unicode="&#xCC;" horiz-adv-x="1118" d="M635 1280Q612 973 612 725Q612 653 616 551Q621 424 621 379Q621 283 612 207L928 211Q970 212 998 183T1026 109Q1026 65 999 36T928 6Q874 6 760 2L661 0Q501 -3 393 -18Q268 -37 197 -37Q153 -37 125 -8T96 66Q96 109 124 139T197 170Q274 170 412 190Q422 272 422 375Q422 463 414 543Q408 643 408 711Q408 940 436 1288L176 1280Q136 1279 106 1308T76 1384Q76 1461 126 1477T471 1493Q597 1493 721 1481T931 1456T1039 1417T1061 1343Q1061 1300 1030 1273T956 1245Q887 1245 797 1260L635 1280ZM588 1721L487 1868Q438 1940 364 1997Q326 2028 326 2069Q326 2106 353 2133T414 2161Q475 2161 614 1997T754 1768Q754 1733 726 1706T659 1678Q615 1678 588 1721Z"  />
<glyph unicode="&#xCD;" horiz-adv-x="1118" d="M635 1280Q612 973 612 725Q612 653 616 551Q621 424 621 379Q621 283 612 207L928 211Q970 212 998 183T1026 109Q1026 65 999 36T928 6Q874 6 760 2L661 0Q501 -3 393 -18Q268 -37 197 -37Q153 -37 125 -8T96 66Q96 109 124 139T197 170Q274 170 412 190Q422 272 422 375Q422 463 414 543Q408 643 408 711Q408 940 436 1288L176 1280Q136 1279 106 1308T76 1384Q76 1461 126 1477T471 1493Q597 1493 721 1481T931 1456T1039 1417T1061 1343Q1061 1300 1030 1273T956 1245Q887 1245 797 1260L635 1280ZM432 1749Q432 1782 463 1812Q508 1859 594 1972Q636 2030 695 2082T794 2134Q828 2134 856 2106T885 2042Q885 2001 846 1970Q769 1908 711 1827Q587 1657 522 1657Q487 1657 460 1685T432 1749Z"  />
<glyph unicode="&#xCE;" horiz-adv-x="1118" d="M635 1280Q612 973 612 725Q612 653 616 551Q621 424 621 379Q621 283 612 207L928 211Q970 212 998 183T1026 109Q1026 65 999 36T928 6Q874 6 760 2L661 0Q501 -3 393 -18Q268 -37 197 -37Q153 -37 125 -8T96 66Q96 109 124 139T197 170Q274 170 412 190Q422 272 422 375Q422 463 414 543Q408 643 408 711Q408 940 436 1288L176 1280Q136 1279 106 1308T76 1384Q76 1461 126 1477T471 1493Q597 1493 721 1481T931 1456T1039 1417T1061 1343Q1061 1300 1030 1273T956 1245Q887 1245 797 1260L635 1280ZM595 1966Q340 1652 270 1652Q236 1652 208 1680T180 1744Q180 1784 216 1818T365 1978L508 2141Q539 2177 575 2177Q616 2177 659 2147T816 1998L974 1828Q1001 1799 1001 1767Q1001 1732 974 1705T909 1677Q867 1677 828 1724T595 1966Z"  />
<glyph unicode="&#xCF;" horiz-adv-x="1118" d="M635 1280Q612 973 612 725Q612 653 616 551Q621 424 621 379Q621 283 612 207L928 211Q970 212 998 183T1026 109Q1026 65 999 36T928 6Q874 6 760 2L661 0Q501 -3 393 -18Q268 -37 197 -37Q153 -37 125 -8T96 66Q96 109 124 139T197 170Q274 170 412 190Q422 272 422 375Q422 463 414 543Q408 643 408 711Q408 940 436 1288L176 1280Q136 1279 106 1308T76 1384Q76 1461 126 1477T471 1493Q597 1493 721 1481T931 1456T1039 1417T1061 1343Q1061 1300 1030 1273T956 1245Q887 1245 797 1260L635 1280ZM977 1755Q977 1663 833 1663Q796 1663 761 1686T725 1749Q725 1810 756 1829T872 1849Q907 1849 942 1818T977 1755ZM465 1737Q465 1705 425 1679T346 1653Q223 1653 223 1755Q223 1784 259 1812T334 1841Q465 1841 465 1737Z"  />
<glyph unicode="&#xD0;" horiz-adv-x="1479" d="M295 -6H285Q182 -6 182 96Q182 226 190 346L201 596L104 592Q-43 592 -43 694Q-43 742 -9 770T127 796L203 795L193 1425Q192 1465 233 1510T319 1556Q347 1556 602 1432Q646 1410 657 1407Q978 1287 1177 1070T1376 588Q1376 337 1203 120T631 -98Q543 -98 444 -71T295 -6ZM403 795Q437 795 532 784Q604 776 664 776Q709 776 737 750T766 678Q766 635 738 608T666 580Q604 580 532 588Q460 596 401 596L387 174Q523 102 631 102Q942 102 1058 258T1174 582Q1174 760 1040 922T395 1294L403 795Z"  />
<glyph unicode="&#xD1;" horiz-adv-x="1632" d="M352 1145L344 688Q343 642 348 440Q352 274 352 190Q352 -80 248 -80Q196 -80 164 -46T131 31Q131 72 137 156Q145 225 145 285L154 655Q154 722 150 854Q147 949 147 1034T135 1241Q123 1367 123 1430Q123 1474 163 1512T252 1550Q305 1550 383 1436Q683 987 904 727T1352 256Q1355 300 1352 383L1342 802Q1339 946 1330 1065T1313 1218T1286 1313Q1268 1380 1268 1417Q1268 1534 1372 1534Q1546 1534 1546 885Q1546 775 1542 553L1540 361Q1537 101 1520 31T1417 -39Q1379 -39 1302 17T953 383T352 1145ZM815 1964L899 1860Q947 1800 1012 1800Q1069 1800 1096 1837L1141 1925L1162 1985Q1172 2013 1223 2013Q1297 2013 1297 1939Q1297 1903 1234 1778T1043 1653Q929 1653 872 1686T750 1817Q706 1874 656 1874Q595 1874 557 1827L512 1743Q488 1698 449 1698Q417 1698 394 1718T371 1769V1780Q371 1835 446 1929T656 2023Q756 2023 815 1964Z"  />
<glyph unicode="&#xD2;" horiz-adv-x="1634" d="M117 571Q117 938 342 1227T893 1516Q1224 1516 1386 1361T1548 881Q1548 514 1339 227T803 -61Q514 -61 316 116T117 571ZM319 571Q319 381 458 262T803 143Q1036 143 1189 370T1343 881Q1343 1120 1239 1215T893 1311Q653 1311 486 1080T319 571ZM1055 1690L954 1837Q905 1909 831 1966Q793 1997 793 2038Q793 2075 820 2102T881 2130Q942 2130 1081 1966T1221 1737Q1221 1702 1193 1675T1126 1647Q1082 1647 1055 1690Z"  />
<glyph unicode="&#xD3;" horiz-adv-x="1634" d="M117 571Q117 938 342 1227T893 1516Q1224 1516 1386 1361T1548 881Q1548 514 1339 227T803 -61Q514 -61 316 116T117 571ZM319 571Q319 381 458 262T803 143Q1036 143 1189 370T1343 881Q1343 1120 1239 1215T893 1311Q653 1311 486 1080T319 571ZM879 1731Q879 1764 910 1794Q955 1841 1041 1954Q1083 2012 1142 2064T1241 2116Q1275 2116 1303 2088T1332 2024Q1332 1983 1293 1952Q1216 1890 1158 1809Q1034 1639 969 1639Q934 1639 907 1667T879 1731Z"  />
<glyph unicode="&#xD4;" horiz-adv-x="1634" d="M117 571Q117 938 342 1227T893 1516Q1224 1516 1386 1361T1548 881Q1548 514 1339 227T803 -61Q514 -61 316 116T117 571ZM319 571Q319 381 458 262T803 143Q1036 143 1189 370T1343 881Q1343 1120 1239 1215T893 1311Q653 1311 486 1080T319 571ZM999 1930Q744 1616 674 1616Q640 1616 612 1644T584 1708Q584 1748 620 1782T769 1942L912 2105Q943 2141 979 2141Q1020 2141 1063 2111T1220 1962L1378 1792Q1405 1763 1405 1731Q1405 1696 1378 1669T1313 1641Q1271 1641 1232 1688T999 1930Z"  />
<glyph unicode="&#xD5;" horiz-adv-x="1634" d="M117 571Q117 938 342 1227T893 1516Q1224 1516 1386 1361T1548 881Q1548 514 1339 227T803 -61Q514 -61 316 116T117 571ZM319 571Q319 381 458 262T803 143Q1036 143 1189 370T1343 881Q1343 1120 1239 1215T893 1311Q653 1311 486 1080T319 571ZM970 1948L1054 1844Q1102 1784 1167 1784Q1224 1784 1251 1821L1296 1909L1317 1969Q1327 1997 1378 1997Q1452 1997 1452 1923Q1452 1887 1389 1762T1198 1637Q1084 1637 1027 1670T905 1801Q861 1858 811 1858Q750 1858 712 1811L667 1727Q643 1682 604 1682Q572 1682 549 1702T526 1753V1764Q526 1819 601 1913T811 2007Q911 2007 970 1948Z"  />
<glyph unicode="&#xD6;" horiz-adv-x="1634" d="M117 571Q117 938 342 1227T893 1516Q1224 1516 1386 1361T1548 881Q1548 514 1339 227T803 -61Q514 -61 316 116T117 571ZM319 571Q319 381 458 262T803 143Q1036 143 1189 370T1343 881Q1343 1120 1239 1215T893 1311Q653 1311 486 1080T319 571ZM1325 1761Q1325 1669 1181 1669Q1144 1669 1109 1692T1073 1755Q1073 1816 1104 1835T1220 1855Q1255 1855 1290 1824T1325 1761ZM813 1743Q813 1711 773 1685T694 1659Q571 1659 571 1761Q571 1790 607 1818T682 1847Q813 1847 813 1743Z"  />
<glyph unicode="&#xD7;" horiz-adv-x="983" d="M600 639Q827 462 827 360Q827 319 802 288T741 256Q670 256 588 387Q557 436 492 481Q351 310 327 267T248 223Q206 223 177 249T147 317Q147 376 199 434Q293 540 334 612Q196 750 115 805Q68 835 68 885Q68 926 98 957T166 989Q236 989 453 772Q522 860 616 934Q645 955 674 981Q706 1020 748 1020Q788 1020 820 989T852 920Q852 869 782 811Q687 736 674 723T600 639Z"  />
<glyph unicode="&#xD8;" horiz-adv-x="1634" d="M248 207Q129 362 129 571Q129 936 356 1226T905 1516Q1203 1516 1364 1393Q1507 1542 1536 1542Q1574 1542 1602 1516T1630 1454Q1630 1413 1481 1257Q1563 1117 1563 881Q1563 510 1351 225T815 -61Q555 -61 365 86L272 -14Q201 -90 176 -90Q139 -90 112 -63T84 2Q84 30 154 104L248 207ZM803 805L1221 1241Q1117 1311 905 1311Q663 1311 499 1078T334 571Q334 459 387 362L803 805ZM1327 1100Q1205 984 1053 819L786 530L508 236Q640 143 815 143Q1053 143 1205 370T1358 881Q1358 1014 1327 1100Z"  />
<glyph unicode="&#xD9;" horiz-adv-x="1509" d="M340 1329V741Q340 135 764 135Q1163 135 1163 1155V1333Q1163 1503 1268 1503Q1368 1503 1368 1366V1118Q1368 -41 770 -41Q569 -41 435 33T233 252T150 564T135 1071Q135 1379 163 1438T248 1497Q340 1497 340 1329ZM742 1678L641 1825Q592 1897 518 1954Q480 1985 480 2026Q480 2063 507 2090T568 2118Q629 2118 768 1954T908 1725Q908 1690 880 1663T813 1635Q769 1635 742 1678Z"  />
<glyph unicode="&#xDA;" horiz-adv-x="1509" d="M340 1329V741Q340 135 764 135Q1163 135 1163 1155V1333Q1163 1503 1268 1503Q1368 1503 1368 1366V1118Q1368 -41 770 -41Q569 -41 435 33T233 252T150 564T135 1071Q135 1379 163 1438T248 1497Q340 1497 340 1329ZM655 1737Q655 1770 686 1800Q731 1847 817 1960Q859 2018 918 2070T1017 2122Q1051 2122 1079 2094T1108 2030Q1108 1989 1069 1958Q992 1896 934 1815Q810 1645 745 1645Q710 1645 683 1673T655 1737Z"  />
<glyph unicode="&#xDB;" horiz-adv-x="1509" d="M340 1329V741Q340 135 764 135Q1163 135 1163 1155V1333Q1163 1503 1268 1503Q1368 1503 1368 1366V1118Q1368 -41 770 -41Q569 -41 435 33T233 252T150 564T135 1071Q135 1379 163 1438T248 1497Q340 1497 340 1329ZM817 1936Q562 1622 492 1622Q458 1622 430 1650T402 1714Q402 1754 438 1788T587 1948L730 2111Q761 2147 797 2147Q838 2147 881 2117T1038 1968L1196 1798Q1223 1769 1223 1737Q1223 1702 1196 1675T1131 1647Q1089 1647 1050 1694T817 1936Z"  />
<glyph unicode="&#xDC;" horiz-adv-x="1509" d="M340 1329V741Q340 135 764 135Q1163 135 1163 1155V1333Q1163 1503 1268 1503Q1368 1503 1368 1366V1118Q1368 -41 770 -41Q569 -41 435 33T233 252T150 564T135 1071Q135 1379 163 1438T248 1497Q340 1497 340 1329ZM1194 1739Q1194 1647 1050 1647Q1013 1647 978 1670T942 1733Q942 1794 973 1813T1089 1833Q1124 1833 1159 1802T1194 1739ZM682 1721Q682 1689 642 1663T563 1637Q440 1637 440 1739Q440 1768 476 1796T551 1825Q682 1825 682 1721Z"  />
<glyph unicode="&#xDD;" horiz-adv-x="1300" d="M596 469Q415 699 362 834Q313 954 213 1104Q47 1355 38 1375T29 1419Q29 1460 60 1491T131 1522Q178 1522 213 1475L295 1350Q440 1129 481 1056T551 907Q584 827 692 682L922 1239L1002 1400Q1043 1483 1063 1501T1122 1520Q1163 1520 1194 1491T1225 1419Q1225 1379 1171 1280Q1129 1204 1108 1161L936 737Q846 514 748 319L623 96L569 -12Q540 -70 481 -70Q440 -70 410 -40T379 31Q379 65 471 244L596 469ZM575 1821Q575 1854 606 1884Q651 1931 737 2044Q779 2102 838 2154T937 2206Q971 2206 999 2178T1028 2114Q1028 2073 989 2042Q912 1980 854 1899Q730 1729 665 1729Q630 1729 603 1757T575 1821Z"  />
<glyph unicode="&#xDE;" horiz-adv-x="1067" d="M326 1350L492 1358Q669 1367 840 1240T1012 901Q1012 664 839 521T420 377Q371 377 285 391L283 72Q283 30 257 3T193 -25Q151 -25 126 2T100 72V365Q100 523 119 778Q133 1005 139 1194V1331Q139 1464 165 1507T244 1550Q330 1550 330 1425Q330 1398 326 1370V1350ZM324 1169L291 584Q389 565 420 565Q596 565 711 658T827 901Q827 1012 717 1090T469 1169H324Z"  />
<glyph unicode="&#xDF;" horiz-adv-x="907" d="M635 815Q885 642 885 274Q885 -74 545 -74Q448 -74 377 -23T305 111Q305 186 371 186Q399 186 449 150Q501 115 541 115Q630 115 663 150T696 262Q696 431 645 525T473 705Q395 763 395 813Q395 858 459 915L575 1026Q639 1087 639 1169Q639 1378 502 1378Q370 1378 310 1212T250 547V470L256 178Q256 -20 234 -89T143 -158Q103 -158 74 -131T45 -66V-57Q45 -55 56 25T68 217Q68 269 72 377Q78 485 78 537V585Q78 613 76 651V768Q76 1244 191 1407T506 1571Q659 1571 750 1457T842 1163Q842 1022 635 815Z"  />
<glyph unicode="&#xE0;" horiz-adv-x="1049" d="M784 51Q586 -53 494 -53Q264 -53 158 71T51 459Q51 702 217 873T614 1044Q715 1044 830 991T946 864Q946 835 926 815Q903 737 903 469Q903 338 927 251T1008 43L1014 27Q1014 -12 987 -39T920 -66Q903 -66 856 -26T784 51ZM733 829Q665 866 629 866Q475 866 362 741T248 449Q248 121 479 121Q632 121 743 231Q713 499 713 629Q713 725 733 829ZM562 1216L461 1363Q412 1435 338 1492Q300 1523 300 1564Q300 1601 327 1628T388 1656Q449 1656 588 1492T728 1263Q728 1228 700 1201T633 1173Q589 1173 562 1216Z"  />
<glyph unicode="&#xE1;" horiz-adv-x="1049" d="M784 51Q586 -53 494 -53Q264 -53 158 71T51 459Q51 702 217 873T614 1044Q715 1044 830 991T946 864Q946 835 926 815Q903 737 903 469Q903 338 927 251T1008 43L1014 27Q1014 -12 987 -39T920 -66Q903 -66 856 -26T784 51ZM733 829Q665 866 629 866Q475 866 362 741T248 449Q248 121 479 121Q632 121 743 231Q713 499 713 629Q713 725 733 829ZM492 1280Q492 1313 523 1343Q568 1390 654 1503Q696 1561 755 1613T854 1665Q888 1665 916 1637T945 1573Q945 1532 906 1501Q829 1439 771 1358Q647 1188 582 1188Q547 1188 520 1216T492 1280Z"  />
<glyph unicode="&#xE2;" horiz-adv-x="1049" d="M784 51Q586 -53 494 -53Q264 -53 158 71T51 459Q51 702 217 873T614 1044Q715 1044 830 991T946 864Q946 835 926 815Q903 737 903 469Q903 338 927 251T1008 43L1014 27Q1014 -12 987 -39T920 -66Q903 -66 856 -26T784 51ZM733 829Q665 866 629 866Q475 866 362 741T248 449Q248 121 479 121Q632 121 743 231Q713 499 713 629Q713 725 733 829ZM566 1487Q311 1173 241 1173Q207 1173 179 1201T151 1265Q151 1305 187 1339T336 1499L479 1662Q510 1698 546 1698Q587 1698 630 1668T787 1519L945 1349Q972 1320 972 1288Q972 1253 945 1226T880 1198Q838 1198 799 1245T566 1487Z"  />
<glyph unicode="&#xE3;" horiz-adv-x="1049" d="M784 51Q586 -53 494 -53Q264 -53 158 71T51 459Q51 702 217 873T614 1044Q715 1044 830 991T946 864Q946 835 926 815Q903 737 903 469Q903 338 927 251T1008 43L1014 27Q1014 -12 987 -39T920 -66Q903 -66 856 -26T784 51ZM733 829Q665 866 629 866Q475 866 362 741T248 449Q248 121 479 121Q632 121 743 231Q713 499 713 629Q713 725 733 829ZM566 1476L650 1372Q698 1312 763 1312Q820 1312 847 1349L892 1437L913 1497Q923 1525 974 1525Q1048 1525 1048 1451Q1048 1415 985 1290T794 1165Q680 1165 623 1198T501 1329Q457 1386 407 1386Q346 1386 308 1339L263 1255Q239 1210 200 1210Q168 1210 145 1230T122 1281V1292Q122 1347 197 1441T407 1535Q507 1535 566 1476Z"  />
<glyph unicode="&#xE4;" horiz-adv-x="1049" d="M784 51Q586 -53 494 -53Q264 -53 158 71T51 459Q51 702 217 873T614 1044Q715 1044 830 991T946 864Q946 835 926 815Q903 737 903 469Q903 338 927 251T1008 43L1014 27Q1014 -12 987 -39T920 -66Q903 -66 856 -26T784 51ZM733 829Q665 866 629 866Q475 866 362 741T248 449Q248 121 479 121Q632 121 743 231Q713 499 713 629Q713 725 733 829ZM975 1286Q975 1194 831 1194Q794 1194 759 1217T723 1280Q723 1341 754 1360T870 1380Q905 1380 940 1349T975 1286ZM463 1268Q463 1236 423 1210T344 1184Q221 1184 221 1286Q221 1315 257 1343T332 1372Q463 1372 463 1268Z"  />
<glyph unicode="&#xE5;" horiz-adv-x="1049" d="M784 51Q586 -53 494 -53Q264 -53 158 71T51 459Q51 702 217 873T614 1044Q715 1044 830 991T946 864Q946 835 926 815Q903 737 903 469Q903 338 927 251T1008 43L1014 27Q1014 -12 987 -39T920 -66Q903 -66 856 -26T784 51ZM733 829Q665 866 629 866Q475 866 362 741T248 449Q248 121 479 121Q632 121 743 231Q713 499 713 629Q713 725 733 829ZM627 1757Q759 1757 848 1681T938 1489Q938 1186 580 1186Q431 1186 347 1266T262 1450Q262 1589 361 1673T627 1757ZM786 1489Q786 1543 737 1576T627 1610Q414 1610 414 1450Q414 1404 470 1369T594 1333Q786 1333 786 1489Z"  />
<glyph unicode="&#xE6;" horiz-adv-x="1815" d="M791 53Q751 17 677 -16T539 -49Q322 -49 187 96T51 461Q51 693 227 862T641 1032Q706 1032 794 1011T898 977T922 870Q976 949 1073 996T1272 1044Q1458 1044 1565 975T1673 776Q1673 718 1636 668T1548 587T1348 483L965 301Q1077 135 1300 135Q1389 135 1481 166T1612 248Q1651 301 1688 301Q1724 301 1750 275T1776 213Q1776 103 1614 29T1300 -45Q1067 -45 961 68Q971 9 971 -3Q971 -43 893 -43Q866 -43 838 -31T791 53ZM705 862Q689 870 627 870Q471 870 359 740T246 449Q246 317 335 215T547 113Q678 113 774 215Q752 341 752 383Q752 665 774 827L705 862ZM948 485L1241 618Q1395 688 1513 784Q1429 864 1272 864Q1028 864 948 485Z"  />
<glyph unicode="&#xE7;" horiz-adv-x="1053" d="M770 -197Q770 -444 528 -444Q423 -444 347 -404T270 -299Q270 -244 340 -244Q363 -244 422 -268Q480 -293 516 -293Q614 -293 614 -201Q614 -109 463 -47Q302 -13 203 110T104 403Q104 614 250 838T578 1063Q692 1063 821 1008T950 872Q950 835 924 806T862 776Q830 776 770 827Q711 874 578 874Q479 874 382 703T285 403Q285 277 370 201T592 125Q653 125 719 158L836 219Q869 236 879 236Q913 236 941 207T969 137Q969 36 713 -41Q770 -113 770 -197Z"  />
<glyph unicode="&#xE8;" horiz-adv-x="1122" d="M272 301Q388 135 606 135Q684 135 786 167T920 248Q953 301 993 301Q1029 301 1056 275T1083 213Q1083 109 924 32T606 -45Q368 -45 227 79T86 418Q86 687 221 865T580 1044Q769 1044 874 975T979 776Q979 696 914 636T653 483L272 301ZM256 485L561 633Q747 723 819 784Q735 864 580 864Q332 864 256 485ZM570 1221L469 1368Q420 1440 346 1497Q308 1528 308 1569Q308 1606 335 1633T396 1661Q457 1661 596 1497T736 1268Q736 1233 708 1206T641 1178Q597 1178 570 1221Z"  />
<glyph unicode="&#xE9;" horiz-adv-x="1122" d="M272 301Q388 135 606 135Q684 135 786 167T920 248Q953 301 993 301Q1029 301 1056 275T1083 213Q1083 109 924 32T606 -45Q368 -45 227 79T86 418Q86 687 221 865T580 1044Q769 1044 874 975T979 776Q979 696 914 636T653 483L272 301ZM256 485L561 633Q747 723 819 784Q735 864 580 864Q332 864 256 485ZM504 1280Q504 1313 535 1343Q580 1390 666 1503Q708 1561 767 1613T866 1665Q900 1665 928 1637T957 1573Q957 1532 918 1501Q841 1439 783 1358Q659 1188 594 1188Q559 1188 532 1216T504 1280Z"  />
<glyph unicode="&#xEA;" horiz-adv-x="1122" d="M272 301Q388 135 606 135Q684 135 786 167T920 248Q953 301 993 301Q1029 301 1056 275T1083 213Q1083 109 924 32T606 -45Q368 -45 227 79T86 418Q86 687 221 865T580 1044Q769 1044 874 975T979 776Q979 696 914 636T653 483L272 301ZM256 485L561 633Q747 723 819 784Q735 864 580 864Q332 864 256 485ZM607 1479Q352 1165 282 1165Q248 1165 220 1193T192 1257Q192 1297 228 1331T377 1491L520 1654Q551 1690 587 1690Q628 1690 671 1660T828 1511L986 1341Q1013 1312 1013 1280Q1013 1245 986 1218T921 1190Q879 1190 840 1237T607 1479Z"  />
<glyph unicode="&#xEB;" horiz-adv-x="1122" d="M272 301Q388 135 606 135Q684 135 786 167T920 248Q953 301 993 301Q1029 301 1056 275T1083 213Q1083 109 924 32T606 -45Q368 -45 227 79T86 418Q86 687 221 865T580 1044Q769 1044 874 975T979 776Q979 696 914 636T653 483L272 301ZM256 485L561 633Q747 723 819 784Q735 864 580 864Q332 864 256 485ZM1020 1382Q1020 1290 876 1290Q839 1290 804 1313T768 1376Q768 1437 799 1456T915 1476Q950 1476 985 1445T1020 1382ZM508 1364Q508 1332 468 1306T389 1280Q266 1280 266 1382Q266 1411 302 1439T377 1468Q508 1468 508 1364Z"  />
<glyph unicode="&#xEC;" horiz-adv-x="573" d="M383 94Q383 51 356 24T285 -4Q241 -4 214 23T186 94Q186 154 182 274Q178 394 178 455Q178 550 188 688Q199 844 199 924Q199 969 226 996T297 1024Q340 1024 367 997T395 924Q395 830 385 688Q375 550 375 455Q375 394 379 274Q383 154 383 94ZM288 1221L187 1368Q138 1440 64 1497Q26 1528 26 1569Q26 1606 53 1633T114 1661Q175 1661 314 1497T454 1268Q454 1233 426 1206T359 1178Q315 1178 288 1221Z"  />
<glyph unicode="&#xED;" horiz-adv-x="573" d="M383 94Q383 51 356 24T285 -4Q241 -4 214 23T186 94Q186 154 182 274Q178 394 178 455Q178 550 188 688Q199 844 199 924Q199 969 226 996T297 1024Q340 1024 367 997T395 924Q395 830 385 688Q375 550 375 455Q375 394 379 274Q383 154 383 94ZM97 1280Q97 1313 128 1343Q173 1390 259 1503Q301 1561 360 1613T459 1665Q493 1665 521 1637T550 1573Q550 1532 511 1501Q434 1439 376 1358Q252 1188 187 1188Q152 1188 125 1216T97 1280Z"  />
<glyph unicode="&#xEE;" horiz-adv-x="573" d="M383 94Q383 51 356 24T285 -4Q241 -4 214 23T186 94Q186 154 182 274Q178 394 178 455Q178 550 188 688Q199 844 199 924Q199 969 226 996T297 1024Q340 1024 367 997T395 924Q395 830 385 688Q375 550 375 455Q375 394 379 274Q383 154 383 94ZM275 1431Q20 1117 -50 1117Q-84 1117 -112 1145T-140 1209Q-140 1249 -104 1283T45 1443L188 1606Q219 1642 255 1642Q296 1642 339 1612T496 1463L654 1293Q681 1264 681 1232Q681 1197 654 1170T589 1142Q547 1142 508 1189T275 1431Z"  />
<glyph unicode="&#xEF;" horiz-adv-x="573" d="M383 94Q383 51 356 24T285 -4Q241 -4 214 23T186 94Q186 154 182 274Q178 394 178 455Q178 550 188 688Q199 844 199 924Q199 969 226 996T297 1024Q340 1024 367 997T395 924Q395 830 385 688Q375 550 375 455Q375 394 379 274Q383 154 383 94ZM665 1286Q665 1194 521 1194Q484 1194 449 1217T413 1280Q413 1341 444 1360T560 1380Q595 1380 630 1349T665 1286ZM153 1268Q153 1236 113 1210T34 1184Q-89 1184 -89 1286Q-89 1315 -53 1343T22 1372Q153 1372 153 1268Z"  />
<glyph unicode="&#xF0;" horiz-adv-x="1042" d="M328 1356Q268 1407 268 1446Q268 1482 295 1510T358 1538Q421 1538 567 1364Q743 1454 805 1454Q899 1454 899 1362Q899 1326 870 1305L805 1268L684 1210Q950 821 950 545Q950 286 837 123T516 -41Q369 -41 256 82T143 358Q143 570 289 727T647 924Q599 1029 537 1128L420 1059Q327 1004 299 1004Q262 1004 235 1034T207 1104Q207 1134 226 1156T308 1214Q349 1238 418 1280L328 1356ZM715 764Q689 756 650 745Q472 695 398 603T324 358Q324 279 381 208T516 137Q644 137 708 246T772 545Q772 603 715 764Z"  />
<glyph unicode="&#xF1;" horiz-adv-x="1100" d="M348 846Q517 1069 694 1069Q823 1069 891 975T965 649V549L963 457Q961 373 983 242Q1006 104 1006 29Q1006 -16 978 -44T905 -72Q818 -72 809 23L780 242Q768 333 768 461V499L774 651Q774 866 694 866Q563 866 452 693T333 384Q331 359 328 330Q322 280 322 233Q322 201 328 143Q334 84 334 53Q334 8 307 -19T236 -47Q137 -47 137 53Q137 84 131 143Q125 201 125 233Q125 359 139 518Q154 689 154 805Q154 837 147 955Q138 1092 246 1092Q337 1092 346 963L348 846ZM556 1495L640 1391Q688 1331 753 1331Q810 1331 837 1368L882 1456L903 1516Q913 1544 964 1544Q1038 1544 1038 1470Q1038 1434 975 1309T784 1184Q670 1184 613 1217T491 1348Q447 1405 397 1405Q336 1405 298 1358L253 1274Q229 1229 190 1229Q158 1229 135 1249T112 1300V1311Q112 1366 187 1460T397 1554Q497 1554 556 1495Z"  />
<glyph unicode="&#xF2;" horiz-adv-x="1077" d="M78 458Q78 694 214 865T582 1036Q759 1036 861 892T963 518Q963 262 836 102T508 -59Q327 -59 203 83T78 458ZM561 834Q431 834 353 718T275 436Q275 297 344 220T508 143Q610 143 693 224T777 496Q777 834 567 834H561ZM635 1221L534 1368Q485 1440 411 1497Q373 1528 373 1569Q373 1606 400 1633T461 1661Q522 1661 661 1497T801 1268Q801 1233 773 1206T706 1178Q662 1178 635 1221Z"  />
<glyph unicode="&#xF3;" horiz-adv-x="1077" d="M78 458Q78 694 214 865T582 1036Q759 1036 861 892T963 518Q963 262 836 102T508 -59Q327 -59 203 83T78 458ZM561 834Q431 834 353 718T275 436Q275 297 344 220T508 143Q610 143 693 224T777 496Q777 834 567 834H561ZM496 1280Q496 1313 527 1343Q572 1390 658 1503Q700 1561 759 1613T858 1665Q892 1665 920 1637T949 1573Q949 1532 910 1501Q833 1439 775 1358Q651 1188 586 1188Q551 1188 524 1216T496 1280Z"  />
<glyph unicode="&#xF4;" horiz-adv-x="1077" d="M78 458Q78 694 214 865T582 1036Q759 1036 861 892T963 518Q963 262 836 102T508 -59Q327 -59 203 83T78 458ZM561 834Q431 834 353 718T275 436Q275 297 344 220T508 143Q610 143 693 224T777 496Q777 834 567 834H561ZM593 1479Q338 1165 268 1165Q234 1165 206 1193T178 1257Q178 1297 214 1331T363 1491L506 1654Q537 1690 573 1690Q614 1690 657 1660T814 1511L972 1341Q999 1312 999 1280Q999 1245 972 1218T907 1190Q865 1190 826 1237T593 1479Z"  />
<glyph unicode="&#xF5;" horiz-adv-x="1077" d="M78 458Q78 694 214 865T582 1036Q759 1036 861 892T963 518Q963 262 836 102T508 -59Q327 -59 203 83T78 458ZM561 834Q431 834 353 718T275 436Q275 297 344 220T508 143Q610 143 693 224T777 496Q777 834 567 834H561ZM607 1495L691 1391Q739 1331 804 1331Q861 1331 888 1368L933 1456L954 1516Q964 1544 1015 1544Q1089 1544 1089 1470Q1089 1434 1026 1309T835 1184Q721 1184 664 1217T542 1348Q498 1405 448 1405Q387 1405 349 1358L304 1274Q280 1229 241 1229Q209 1229 186 1249T163 1300V1311Q163 1366 238 1460T448 1554Q548 1554 607 1495Z"  />
<glyph unicode="&#xF6;" horiz-adv-x="1077" d="M78 458Q78 694 214 865T582 1036Q759 1036 861 892T963 518Q963 262 836 102T508 -59Q327 -59 203 83T78 458ZM561 834Q431 834 353 718T275 436Q275 297 344 220T508 143Q610 143 693 224T777 496Q777 834 567 834H561ZM1014 1286Q1014 1194 870 1194Q833 1194 798 1217T762 1280Q762 1341 793 1360T909 1380Q944 1380 979 1349T1014 1286ZM502 1268Q502 1236 462 1210T383 1184Q260 1184 260 1286Q260 1315 296 1343T371 1372Q502 1372 502 1268Z"  />
<glyph unicode="&#xF7;" horiz-adv-x="983" d="M543 1051Q543 963 451 963Q360 963 360 1051Q360 1141 453 1141Q543 1141 543 1051ZM750 737Q913 737 913 643Q913 607 888 579T827 551Q814 551 771 558Q743 562 477 553Q295 547 203 547Q47 547 47 639Q47 692 78 708T203 725Q260 725 377 731Q497 737 555 737L627 731Q638 731 723 736Q740 737 750 737ZM469 367Q506 367 531 341T557 276Q557 239 532 213T469 186Q432 186 407 212T381 276Q381 314 406 340T469 367Z"  />
<glyph unicode="&#xF8;" horiz-adv-x="1077" d="M160 152Q84 285 84 436Q84 697 221 866T588 1036Q743 1036 842 924L856 942Q938 1047 971 1047Q994 1047 1012 1028T1030 983Q1030 963 907 819Q969 686 969 498Q969 264 842 103T514 -59Q352 -59 231 57Q143 -51 125 -51Q96 -51 75 -35T53 4Q53 32 86 76T148 141Q154 145 160 152ZM301 303L713 774Q659 834 573 834Q436 834 359 715T281 436Q281 355 301 303ZM362 207Q427 143 514 143Q632 143 710 239T788 471Q788 582 768 662L362 207Z"  />
<glyph unicode="&#xF9;" horiz-adv-x="1065" d="M954 584V367L956 240Q958 114 964 48Q970 -26 937 -53T864 -80Q787 -80 766 14Q642 -49 477 -49Q330 -49 239 23T128 325T109 668Q109 768 126 901T174 1050T233 1067Q277 1067 306 1040T336 969Q336 929 319 821Q305 732 305 668Q305 331 350 190Q414 154 477 154Q614 154 762 197L758 594Q755 863 774 962T874 1061Q919 1061 947 1032T973 963L954 584ZM553 1229L452 1376Q403 1448 329 1505Q291 1536 291 1577Q291 1614 318 1641T379 1669Q440 1669 579 1505T719 1276Q719 1241 691 1214T624 1186Q580 1186 553 1229Z"  />
<glyph unicode="&#xFA;" horiz-adv-x="1065" d="M954 584V367L956 240Q958 114 964 48Q970 -26 937 -53T864 -80Q787 -80 766 14Q642 -49 477 -49Q330 -49 239 23T128 325T109 668Q109 768 126 901T174 1050T233 1067Q277 1067 306 1040T336 969Q336 929 319 821Q305 732 305 668Q305 331 350 190Q414 154 477 154Q614 154 762 197L758 594Q755 863 774 962T874 1061Q919 1061 947 1032T973 963L954 584ZM479 1280Q479 1313 510 1343Q555 1390 641 1503Q683 1561 742 1613T841 1665Q875 1665 903 1637T932 1573Q932 1532 893 1501Q816 1439 758 1358Q634 1188 569 1188Q534 1188 507 1216T479 1280Z"  />
<glyph unicode="&#xFB;" horiz-adv-x="1065" d="M954 584V367L956 240Q958 114 964 48Q970 -26 937 -53T864 -80Q787 -80 766 14Q642 -49 477 -49Q330 -49 239 23T128 325T109 668Q109 768 126 901T174 1050T233 1067Q277 1067 306 1040T336 969Q336 929 319 821Q305 732 305 668Q305 331 350 190Q414 154 477 154Q614 154 762 197L758 594Q755 863 774 962T874 1061Q919 1061 947 1032T973 963L954 584ZM541 1479Q286 1165 216 1165Q182 1165 154 1193T126 1257Q126 1297 162 1331T311 1491L454 1654Q485 1690 521 1690Q562 1690 605 1660T762 1511L920 1341Q947 1312 947 1280Q947 1245 920 1218T855 1190Q813 1190 774 1237T541 1479Z"  />
<glyph unicode="&#xFC;" horiz-adv-x="1065" d="M954 584V367L956 240Q958 114 964 48Q970 -26 937 -53T864 -80Q787 -80 766 14Q642 -49 477 -49Q330 -49 239 23T128 325T109 668Q109 768 126 901T174 1050T233 1067Q277 1067 306 1040T336 969Q336 929 319 821Q305 732 305 668Q305 331 350 190Q414 154 477 154Q614 154 762 197L758 594Q755 863 774 962T874 1061Q919 1061 947 1032T973 963L954 584ZM975 1378Q975 1286 831 1286Q794 1286 759 1309T723 1372Q723 1433 754 1452T870 1472Q905 1472 940 1441T975 1378ZM463 1360Q463 1328 423 1302T344 1276Q221 1276 221 1378Q221 1407 257 1435T332 1464Q463 1464 463 1360Z"  />
<glyph unicode="&#xFD;" horiz-adv-x="1067" d="M686 143Q548 -156 489 -313L424 -508Q400 -580 334 -580Q290 -580 261 -553T231 -483Q231 -384 446 96L88 784L43 858Q16 902 16 936Q16 976 47 1007T119 1038Q151 1038 181 1015T326 790T555 332L702 676Q717 711 785 850T880 1015T940 1040Q981 1040 1012 1010T1044 942Q1044 920 1032 893L686 143ZM336 1280Q336 1313 367 1343Q412 1390 498 1503Q540 1561 599 1613T698 1665Q732 1665 760 1637T789 1573Q789 1532 750 1501Q673 1439 615 1358Q491 1188 426 1188Q391 1188 364 1216T336 1280Z"  />
<glyph unicode="&#xFE;" horiz-adv-x="1096" d="M344 -2L342 -481Q342 -526 315 -554T244 -582Q200 -582 173 -554T145 -481L150 -82V317Q150 459 133 717Q113 1022 113 1315Q113 1493 225 1493Q262 1493 288 1467T315 1399L313 913Q484 1032 633 1032Q817 1032 912 886T1008 469Q1008 244 887 105T563 -35Q460 -35 344 -2ZM334 684Q346 460 346 209Q452 166 563 166Q681 166 746 245T811 469Q811 831 633 831Q573 831 507 809T334 684Z"  />
<glyph unicode="&#xFF;" horiz-adv-x="1067" d="M686 143Q548 -156 489 -313L424 -508Q400 -580 334 -580Q290 -580 261 -553T231 -483Q231 -384 446 96L88 784L43 858Q16 902 16 936Q16 976 47 1007T119 1038Q151 1038 181 1015T326 790T555 332L702 676Q717 711 785 850T880 1015T940 1040Q981 1040 1012 1010T1044 942Q1044 920 1032 893L686 143ZM890 1286Q890 1194 746 1194Q709 1194 674 1217T638 1280Q638 1341 669 1360T785 1380Q820 1380 855 1349T890 1286ZM378 1268Q378 1236 338 1210T259 1184Q136 1184 136 1286Q136 1315 172 1343T247 1372Q378 1372 378 1268Z"  />
<glyph unicode="&#x100;" horiz-adv-x="1497" d="M1024 520Q916 507 758 471L492 416Q345 62 315 20T233 -23Q192 -23 162 7T131 78Q131 124 283 442Q264 470 264 504Q264 585 362 606Q483 837 688 1158T946 1479Q1023 1479 1055 1368L1116 1032L1266 338L1323 178Q1352 97 1352 72Q1352 28 1321 -1T1249 -31Q1117 -31 1024 520ZM897 1112L610 651Q700 676 979 727L897 1112ZM989 1786H1039Q1070 1786 1112 1788L1183 1790Q1262 1792 1286 1776T1311 1715Q1311 1655 1245 1643L1135 1637H920L690 1643Q619 1643 619 1719Q619 1764 648 1779T754 1794Q794 1794 870 1790Q952 1786 989 1786Z"  />
<glyph unicode="&#x101;" horiz-adv-x="1049" d="M784 51Q586 -53 494 -53Q264 -53 158 71T51 459Q51 702 217 873T614 1044Q715 1044 830 991T946 864Q946 835 926 815Q903 737 903 469Q903 338 927 251T1008 43L1014 27Q1014 -12 987 -39T920 -66Q903 -66 856 -26T784 51ZM733 829Q665 866 629 866Q475 866 362 741T248 449Q248 121 479 121Q632 121 743 231Q713 499 713 629Q713 725 733 829ZM630 1335H680Q711 1335 753 1337L824 1339Q903 1341 927 1325T952 1264Q952 1204 886 1192L776 1186H561L331 1192Q260 1192 260 1268Q260 1313 289 1328T395 1343Q435 1343 511 1339Q593 1335 630 1335Z"  />
<glyph unicode="&#x102;" horiz-adv-x="1497" d="M1024 520Q916 507 758 471L492 416Q345 62 315 20T233 -23Q192 -23 162 7T131 78Q131 124 283 442Q264 470 264 504Q264 585 362 606Q483 837 688 1158T946 1479Q1023 1479 1055 1368L1116 1032L1266 338L1323 178Q1352 97 1352 72Q1352 28 1321 -1T1249 -31Q1117 -31 1024 520ZM897 1112L610 651Q700 676 979 727L897 1112ZM1260 2003Q1290 2003 1312 1984T1335 1930Q1335 1794 1203 1713T870 1631Q731 1631 622 1727T512 1964Q512 2040 586 2040Q661 2040 661 1964Q661 1889 724 1835T870 1780Q1142 1780 1186 1940Q1204 2003 1260 2003Z"  />
<glyph unicode="&#x103;" horiz-adv-x="1049" d="M784 51Q586 -53 494 -53Q264 -53 158 71T51 459Q51 702 217 873T614 1044Q715 1044 830 991T946 864Q946 835 926 815Q903 737 903 469Q903 338 927 251T1008 43L1014 27Q1014 -12 987 -39T920 -66Q903 -66 856 -26T784 51ZM733 829Q665 866 629 866Q475 866 362 741T248 449Q248 121 479 121Q632 121 743 231Q713 499 713 629Q713 725 733 829ZM892 1552Q922 1552 944 1533T967 1479Q967 1343 835 1262T502 1180Q363 1180 254 1276T144 1513Q144 1589 218 1589Q293 1589 293 1513Q293 1438 356 1384T502 1329Q774 1329 818 1489Q836 1552 892 1552Z"  />
<glyph unicode="&#x104;" horiz-adv-x="1497" d="M1325 -279Q1401 -279 1459 -254Q1485 -242 1498 -242Q1529 -242 1550 -267T1571 -322Q1571 -372 1501 -406T1313 -440Q1188 -440 1119 -374T1049 -182Q1049 -77 1133 14Q1146 28 1159 40Q1083 167 1024 520Q916 507 758 471L492 416Q345 62 315 20T233 -23Q192 -23 162 7T131 78Q131 124 283 442Q264 470 264 504Q264 585 362 606Q483 837 688 1158T946 1479Q1023 1479 1055 1368L1116 1032L1266 338L1323 178Q1351 98 1352 72Q1362 58 1362 37Q1362 10 1296 -52Q1229 -114 1229 -162Q1229 -211 1255 -245T1325 -279ZM897 1112L610 651Q700 676 979 727L897 1112Z"  />
<glyph unicode="&#x105;" horiz-adv-x="1049" d="M915 -331Q991 -331 1049 -306Q1075 -294 1088 -294Q1119 -294 1140 -319T1161 -374Q1161 -424 1091 -458T903 -492Q778 -492 709 -426T639 -234Q639 -129 723 -37Q763 6 799 29Q791 40 784 51Q586 -53 494 -53Q264 -53 158 71T51 459Q51 702 217 873T614 1044Q715 1044 830 991T946 864Q946 835 926 815Q903 737 903 469Q903 338 927 251T1008 43L1014 27Q1014 -12 986 -39Q960 -65 923 -66Q908 -83 886 -104Q819 -166 819 -214Q819 -263 845 -297T915 -331ZM733 829Q665 866 629 866Q475 866 362 741T248 449Q248 121 479 121Q632 121 743 231Q713 499 713 629Q713 725 733 829Z"  />
<glyph unicode="&#x106;" horiz-adv-x="1235" d="M1010 1473Q1043 1524 1100 1524Q1158 1524 1180 1462T1202 1233Q1202 1183 1175 1153T1104 1122Q1041 1122 1008 1196Q977 1267 955 1276T852 1286Q691 1286 491 1014T291 500Q291 365 376 273T578 180Q656 180 737 211T963 352Q1021 393 1049 393Q1091 393 1121 362T1151 289Q1151 261 1136 236T1015 132T799 15T578 -25Q376 -25 233 128T90 500Q90 816 342 1153T852 1491Q963 1491 1010 1473ZM643 1731Q643 1764 674 1794Q719 1841 805 1954Q847 2012 906 2064T1005 2116Q1039 2116 1067 2088T1096 2024Q1096 1983 1057 1952Q980 1890 922 1809Q798 1639 733 1639Q698 1639 671 1667T643 1731Z"  />
<glyph unicode="&#x107;" horiz-adv-x="1053" d="M719 158L836 219Q869 236 879 236Q913 236 941 207T969 137Q969 68 826 3T592 -63Q378 -63 241 68T104 403Q104 614 250 838T578 1063Q692 1063 821 1008T950 872Q950 835 924 806T862 776Q830 776 770 827Q711 874 578 874Q479 874 382 703T285 403Q285 277 370 201T592 125Q653 125 719 158ZM424 1280Q424 1313 455 1343Q500 1390 586 1503Q628 1561 687 1613T786 1665Q820 1665 848 1637T877 1573Q877 1532 838 1501Q761 1439 703 1358Q579 1188 514 1188Q479 1188 452 1216T424 1280Z"  />
<glyph unicode="&#x108;" horiz-adv-x="1235" d="M1010 1473Q1043 1524 1100 1524Q1158 1524 1180 1462T1202 1233Q1202 1183 1175 1153T1104 1122Q1041 1122 1008 1196Q977 1267 955 1276T852 1286Q691 1286 491 1014T291 500Q291 365 376 273T578 180Q656 180 737 211T963 352Q1021 393 1049 393Q1091 393 1121 362T1151 289Q1151 261 1136 236T1015 132T799 15T578 -25Q376 -25 233 128T90 500Q90 816 342 1153T852 1491Q963 1491 1010 1473ZM800 1930Q545 1616 475 1616Q441 1616 413 1644T385 1708Q385 1748 421 1782T570 1942L713 2105Q744 2141 780 2141Q821 2141 864 2111T1021 1962L1179 1792Q1206 1763 1206 1731Q1206 1696 1179 1669T1114 1641Q1072 1641 1033 1688T800 1930Z"  />
<glyph unicode="&#x109;" horiz-adv-x="1053" d="M719 158L836 219Q869 236 879 236Q913 236 941 207T969 137Q969 68 826 3T592 -63Q378 -63 241 68T104 403Q104 614 250 838T578 1063Q692 1063 821 1008T950 872Q950 835 924 806T862 776Q830 776 770 827Q711 874 578 874Q479 874 382 703T285 403Q285 277 370 201T592 125Q653 125 719 158ZM610 1380Q355 1066 285 1066Q251 1066 223 1094T195 1158Q195 1198 231 1232T380 1392L523 1555Q554 1591 590 1591Q631 1591 674 1561T831 1412L989 1242Q1016 1213 1016 1181Q1016 1146 989 1119T924 1091Q882 1091 843 1138T610 1380Z"  />
<glyph unicode="&#x10A;" horiz-adv-x="1235" d="M1010 1473Q1043 1524 1100 1524Q1158 1524 1180 1462T1202 1233Q1202 1183 1175 1153T1104 1122Q1041 1122 1008 1196Q977 1267 955 1276T852 1286Q691 1286 491 1014T291 500Q291 365 376 273T578 180Q656 180 737 211T963 352Q1021 393 1049 393Q1091 393 1121 362T1151 289Q1151 261 1136 236T1015 132T799 15T578 -25Q376 -25 233 128T90 500Q90 816 342 1153T852 1491Q963 1491 1010 1473ZM875 1635Q842 1635 789 1683T735 1762Q735 1798 771 1827T842 1856Q874 1856 926 1807T979 1729Q979 1694 946 1665T875 1635Z"  />
<glyph unicode="&#x10B;" horiz-adv-x="1053" d="M719 158L836 219Q869 236 879 236Q913 236 941 207T969 137Q969 68 826 3T592 -63Q378 -63 241 68T104 403Q104 614 250 838T578 1063Q692 1063 821 1008T950 872Q950 835 924 806T862 776Q830 776 770 827Q711 874 578 874Q479 874 382 703T285 403Q285 277 370 201T592 125Q653 125 719 158ZM625 1184Q592 1184 539 1232T485 1311Q485 1347 521 1376T592 1405Q624 1405 676 1356T729 1278Q729 1243 696 1214T625 1184Z"  />
<glyph unicode="&#x10C;" horiz-adv-x="1235" d="M1010 1473Q1043 1524 1100 1524Q1158 1524 1180 1462T1202 1233Q1202 1183 1175 1153T1104 1122Q1041 1122 1008 1196Q977 1267 955 1276T852 1286Q691 1286 491 1014T291 500Q291 365 376 273T578 180Q656 180 737 211T963 352Q1021 393 1049 393Q1091 393 1121 362T1151 289Q1151 261 1136 236T1015 132T799 15T578 -25Q376 -25 233 128T90 500Q90 816 342 1153T852 1491Q963 1491 1010 1473ZM1040 2007Q1064 2028 1090 2028Q1119 2028 1142 2005T1165 1950Q1165 1926 1152 1909T1030 1794T874 1662T811 1627Q779 1627 746 1663L694 1727L578 1860Q496 1954 496 2003Q496 2034 519 2055T573 2077Q614 2077 637 2038Q670 1984 819 1811L1040 2007Z"  />
<glyph unicode="&#x10D;" horiz-adv-x="1053" d="M719 158L836 219Q869 236 879 236Q913 236 941 207T969 137Q969 68 826 3T592 -63Q378 -63 241 68T104 403Q104 614 250 838T578 1063Q692 1063 821 1008T950 872Q950 835 924 806T862 776Q830 776 770 827Q711 874 578 874Q479 874 382 703T285 403Q285 277 370 201T592 125Q653 125 719 158ZM829 1556Q853 1577 879 1577Q908 1577 931 1554T954 1499Q954 1475 941 1458T819 1343T663 1211T600 1176Q568 1176 535 1212L483 1276L367 1409Q285 1503 285 1552Q285 1583 308 1604T362 1626Q403 1626 426 1587Q459 1533 608 1360L829 1556Z"  />
<glyph unicode="&#x10E;" horiz-adv-x="1479" d="M295 -6H285Q241 -6 212 23T182 96Q182 179 193 412Q203 622 203 725L193 1425Q193 1466 233 1511T319 1556Q342 1556 479 1489Q632 1413 657 1407Q964 1300 1170 1078T1376 588Q1376 336 1202 119T631 -98Q548 -98 446 -71T295 -6ZM395 1294L403 721L387 174Q390 172 395 170L408 162Q501 102 631 102Q846 102 947 163T1111 340T1174 582Q1174 734 1086 860T860 1069T395 1294ZM888 2007Q912 2028 938 2028Q967 2028 990 2005T1013 1950Q1013 1926 1000 1909T878 1794T722 1662T659 1627Q627 1627 594 1663L542 1727L426 1860Q344 1954 344 2003Q344 2034 367 2055T421 2077Q462 2077 485 2038Q518 1984 667 1811L888 2007Z"  />
<glyph unicode="&#x10F;" horiz-adv-x="1425" d="M1305 1350Q1217 1400 1217 1479Q1217 1533 1254 1568T1346 1604Q1477 1604 1477 1440Q1477 1340 1422 1222T1288 1104Q1217 1104 1217 1176Q1217 1216 1280 1296Q1294 1317 1305 1350ZM897 61Q754 -45 586 -45Q375 -45 239 97T102 455Q102 719 243 880T612 1042Q772 1042 885 938Q903 1458 921 1525T1010 1593Q1100 1593 1100 1497Q1100 1363 1061 883Q1049 735 1049 590Q1049 255 1079 86L1081 73Q1087 31 1058 1T987 -29Q924 -29 897 61ZM868 289L864 461L868 694Q792 856 616 856Q281 856 281 459Q281 327 371 235T586 143Q742 143 868 289Z"  />
<glyph unicode="&#x110;" horiz-adv-x="1479" d="M295 -6H285Q182 -6 182 96Q182 226 190 346L201 596L104 592Q-43 592 -43 694Q-43 742 -9 770T127 796L203 795L193 1425Q192 1465 233 1510T319 1556Q347 1556 602 1432Q646 1410 657 1407Q978 1287 1177 1070T1376 588Q1376 337 1203 120T631 -98Q543 -98 444 -71T295 -6ZM403 795Q437 795 532 784Q604 776 664 776Q709 776 737 750T766 678Q766 635 738 608T666 580Q604 580 532 588Q460 596 401 596L387 174Q523 102 631 102Q942 102 1058 258T1174 582Q1174 760 1040 922T395 1294L403 795Z"  />
<glyph unicode="&#x111;" horiz-adv-x="1235" d="M897 61Q754 -45 586 -45Q375 -45 239 97T102 455Q102 719 243 880T612 1042Q772 1042 885 938L893 1186H600Q570 1186 549 1211T528 1268Q528 1313 557 1328T664 1343Q702 1343 782 1339Q860 1335 901 1335Q912 1524 936 1558T1010 1593Q1100 1593 1100 1497Q1100 1441 1094 1339H1143Q1221 1339 1221 1264Q1221 1186 1085 1186H1083Q1049 744 1049 590Q1049 255 1079 86L1081 73Q1087 31 1058 1T987 -29Q924 -29 897 61ZM868 289L864 461L868 694Q792 856 616 856Q281 856 281 459Q281 327 371 235T586 143Q659 143 707 164T840 256L868 289Z"  />
<glyph unicode="&#x112;" horiz-adv-x="1280" d="M371 1337Q379 1287 379 1235Q379 1111 362 852L801 895Q985 913 1036 913Q1081 913 1111 886T1141 811Q1141 721 1049 709L348 645Q340 539 340 393Q340 144 383 124T528 104L903 113Q915 113 995 123Q1126 139 1126 20Q1126 -51 1062 -74T635 -98Q316 -98 228 -8T139 393Q139 533 152 696Q139 721 139 745Q139 780 160 807Q178 1095 178 1235Q178 1271 168 1341Q160 1399 160 1450Q160 1571 258 1571Q301 1571 332 1540Q575 1606 758 1606Q913 1606 1028 1581T1177 1528T1212 1450Q1212 1405 1184 1376T1114 1346Q1102 1346 1083 1352Q909 1399 758 1399Q593 1399 371 1337ZM799 1894H849Q880 1894 922 1896L993 1898Q1072 1900 1096 1884T1121 1823Q1121 1763 1055 1751L945 1745H730L500 1751Q429 1751 429 1827Q429 1872 458 1887T564 1902Q604 1902 680 1898Q762 1894 799 1894Z"  />
<glyph unicode="&#x113;" horiz-adv-x="1122" d="M272 301Q388 135 606 135Q684 135 786 167T920 248Q953 301 993 301Q1029 301 1056 275T1083 213Q1083 109 924 32T606 -45Q368 -45 227 79T86 418Q86 687 221 865T580 1044Q769 1044 874 975T979 776Q979 696 914 636T653 483L272 301ZM256 485L561 633Q747 723 819 784Q735 864 580 864Q332 864 256 485ZM630 1335H680Q711 1335 753 1337L824 1339Q903 1341 927 1325T952 1264Q952 1204 886 1192L776 1186H561L331 1192Q260 1192 260 1268Q260 1313 289 1328T395 1343Q435 1343 511 1339Q593 1335 630 1335Z"  />
<glyph unicode="&#x114;" horiz-adv-x="1280" d="M371 1337Q379 1287 379 1235Q379 1111 362 852L801 895Q985 913 1036 913Q1081 913 1111 886T1141 811Q1141 721 1049 709L348 645Q340 539 340 393Q340 144 383 124T528 104L903 113Q915 113 995 123Q1126 139 1126 20Q1126 -51 1062 -74T635 -98Q316 -98 228 -8T139 393Q139 533 152 696Q139 721 139 745Q139 780 160 807Q178 1095 178 1235Q178 1271 168 1341Q160 1399 160 1450Q160 1571 258 1571Q301 1571 332 1540Q575 1606 758 1606Q913 1606 1028 1581T1177 1528T1212 1450Q1212 1405 1184 1376T1114 1346Q1102 1346 1083 1352Q909 1399 758 1399Q593 1399 371 1337ZM1100 2052Q1130 2052 1152 2033T1175 1979Q1175 1843 1043 1762T710 1680Q571 1680 462 1776T352 2013Q352 2089 426 2089Q501 2089 501 2013Q501 1938 564 1884T710 1829Q982 1829 1026 1989Q1044 2052 1100 2052Z"  />
<glyph unicode="&#x115;" horiz-adv-x="1122" d="M272 301Q388 135 606 135Q684 135 786 167T920 248Q953 301 993 301Q1029 301 1056 275T1083 213Q1083 109 924 32T606 -45Q368 -45 227 79T86 418Q86 687 221 865T580 1044Q769 1044 874 975T979 776Q979 696 914 636T653 483L272 301ZM256 485L561 633Q747 723 819 784Q735 864 580 864Q332 864 256 485ZM913 1552Q943 1552 965 1533T988 1479Q988 1343 856 1262T523 1180Q384 1180 275 1276T165 1513Q165 1589 239 1589Q314 1589 314 1513Q314 1438 377 1384T523 1329Q795 1329 839 1489Q857 1552 913 1552Z"  />
<glyph unicode="&#x116;" horiz-adv-x="1280" d="M371 1337Q379 1287 379 1235Q379 1111 362 852L801 895Q985 913 1036 913Q1081 913 1111 886T1141 811Q1141 721 1049 709L348 645Q340 539 340 393Q340 144 383 124T528 104L903 113Q915 113 995 123Q1126 139 1126 20Q1126 -51 1062 -74T635 -98Q316 -98 228 -8T139 393Q139 533 152 696Q139 721 139 745Q139 780 160 807Q178 1095 178 1235Q178 1271 168 1341Q160 1399 160 1450Q160 1571 258 1571Q301 1571 332 1540Q575 1606 758 1606Q913 1606 1028 1581T1177 1528T1212 1450Q1212 1405 1184 1376T1114 1346Q1102 1346 1083 1352Q909 1399 758 1399Q593 1399 371 1337ZM756 1755Q723 1755 670 1803T616 1882Q616 1918 652 1947T723 1976Q755 1976 807 1927T860 1849Q860 1814 827 1785T756 1755Z"  />
<glyph unicode="&#x117;" horiz-adv-x="1122" d="M272 301Q388 135 606 135Q684 135 786 167T920 248Q953 301 993 301Q1029 301 1056 275T1083 213Q1083 109 924 32T606 -45Q368 -45 227 79T86 418Q86 687 221 865T580 1044Q769 1044 874 975T979 776Q979 696 914 636T653 483L272 301ZM256 485L561 633Q747 723 819 784Q735 864 580 864Q332 864 256 485ZM576 1184Q543 1184 490 1232T436 1311Q436 1347 472 1376T543 1405Q575 1405 627 1356T680 1278Q680 1243 647 1214T576 1184Z"  />
<glyph unicode="&#x118;" horiz-adv-x="1280" d="M946 -348Q1022 -348 1080 -323Q1106 -311 1119 -311Q1150 -311 1171 -336T1192 -391Q1192 -441 1122 -475T934 -509Q809 -509 740 -443T670 -251Q670 -170 719 -98H635Q316 -98 228 -8T139 393Q139 533 152 696Q139 721 139 745Q139 780 160 807Q178 1095 178 1235Q178 1271 168 1341Q160 1399 160 1450Q160 1571 258 1571Q301 1571 332 1540Q575 1606 758 1606Q913 1606 1028 1581T1177 1528T1212 1450Q1212 1405 1184 1376T1114 1346Q1102 1346 1083 1352Q909 1399 758 1399Q593 1399 371 1337Q379 1287 379 1235Q379 1111 362 852L801 895Q985 913 1036 913Q1081 913 1111 886T1141 811Q1141 721 1049 709L348 645Q340 539 340 393Q340 144 383 124T528 104L903 113Q915 113 995 123Q1126 139 1126 20Q1126 -51 1062 -74Q1034 -85 947 -90Q934 -104 917 -121Q850 -183 850 -231Q850 -280 876 -314T946 -348Z"  />
<glyph unicode="&#x119;" horiz-adv-x="1122" d="M825 -282Q901 -282 959 -257Q985 -245 998 -245Q1029 -245 1050 -270T1071 -325Q1071 -375 1001 -409T813 -443Q688 -443 619 -377T549 -185Q549 -112 590 -45Q363 -41 227 79Q86 203 86 418Q86 687 221 865T580 1044Q769 1044 874 975T979 776Q979 696 914 636T653 483L272 301Q388 135 606 135Q684 135 786 167T920 248Q953 301 993 301Q1029 301 1056 275T1083 213Q1083 109 923 32Q885 13 846 0Q830 -23 796 -55Q729 -117 729 -165Q729 -214 755 -248T825 -282ZM256 485L561 633Q747 723 819 784Q735 864 580 864Q332 864 256 485Z"  />
<glyph unicode="&#x11A;" horiz-adv-x="1280" d="M371 1337Q379 1287 379 1235Q379 1111 362 852L801 895Q985 913 1036 913Q1081 913 1111 886T1141 811Q1141 721 1049 709L348 645Q340 539 340 393Q340 144 383 124T528 104L903 113Q915 113 995 123Q1126 139 1126 20Q1126 -51 1062 -74T635 -98Q316 -98 228 -8T139 393Q139 533 152 696Q139 721 139 745Q139 780 160 807Q178 1095 178 1235Q178 1271 168 1341Q160 1399 160 1450Q160 1571 258 1571Q301 1571 332 1540Q575 1606 758 1606Q913 1606 1028 1581T1177 1528T1212 1450Q1212 1405 1184 1376T1114 1346Q1102 1346 1083 1352Q909 1399 758 1399Q593 1399 371 1337ZM968 2035Q992 2056 1018 2056Q1047 2056 1070 2033T1093 1978Q1093 1954 1080 1937T958 1822T802 1690T739 1655Q707 1655 674 1691L622 1755L506 1888Q424 1982 424 2031Q424 2062 447 2083T501 2105Q542 2105 565 2066Q598 2012 747 1839L968 2035Z"  />
<glyph unicode="&#x11B;" horiz-adv-x="1122" d="M272 301Q388 135 606 135Q684 135 786 167T920 248Q953 301 993 301Q1029 301 1056 275T1083 213Q1083 109 924 32T606 -45Q368 -45 227 79T86 418Q86 687 221 865T580 1044Q769 1044 874 975T979 776Q979 696 914 636T653 483L272 301ZM256 485L561 633Q747 723 819 784Q735 864 580 864Q332 864 256 485ZM829 1556Q853 1577 879 1577Q908 1577 931 1554T954 1499Q954 1475 941 1458T819 1343T663 1211T600 1176Q568 1176 535 1212L483 1276L367 1409Q285 1503 285 1552Q285 1583 308 1604T362 1626Q403 1626 426 1587Q459 1533 608 1360L829 1556Z"  />
<glyph unicode="&#x11C;" horiz-adv-x="1393" d="M1300 604Q1237 301 1039 116T571 -70Q80 -70 80 481Q80 852 308 1211T786 1571Q881 1571 1044 1504T1208 1352Q1208 1311 1179 1279T1108 1247Q1082 1247 1044 1272Q895 1366 786 1366Q657 1366 469 1085T281 481Q281 288 344 212T571 135Q756 135 891 257T1075 592Q797 577 600 485Q578 473 555 473Q515 473 486 504T457 580Q457 614 482 644T608 715T873 778T1253 801Q1297 801 1326 772T1356 698Q1356 633 1300 604ZM839 1930Q584 1616 514 1616Q480 1616 452 1644T424 1708Q424 1748 460 1782T609 1942L752 2105Q783 2141 819 2141Q860 2141 903 2111T1060 1962L1218 1792Q1245 1763 1245 1731Q1245 1696 1218 1669T1153 1641Q1111 1641 1072 1688T839 1930Z"  />
<glyph unicode="&#x11D;" horiz-adv-x="1087" d="M963 430L926 -70Q919 -150 899 -227T842 -369T748 -475T605 -540T408 -563Q57 -563 57 -442Q57 -352 145 -352Q163 -352 194 -357Q347 -385 434 -385Q608 -385 686 -264T768 174Q656 -25 469 -25Q287 -25 173 97T59 420Q59 691 218 857T651 1024Q841 1024 903 928Q1010 925 1010 809Q1010 733 989 618Q967 478 963 430ZM641 864Q456 864 355 744T254 432Q254 141 473 141Q564 141 651 235T761 431T813 803Q731 864 641 864ZM630 1479Q375 1165 305 1165Q271 1165 243 1193T215 1257Q215 1297 251 1331T400 1491L543 1654Q574 1690 610 1690Q651 1690 694 1660T851 1511L1009 1341Q1036 1312 1036 1280Q1036 1245 1009 1218T944 1190Q902 1190 863 1237T630 1479Z"  />
<glyph unicode="&#x11E;" horiz-adv-x="1393" d="M1300 604Q1237 301 1039 116T571 -70Q80 -70 80 481Q80 852 308 1211T786 1571Q881 1571 1044 1504T1208 1352Q1208 1311 1179 1279T1108 1247Q1082 1247 1044 1272Q895 1366 786 1366Q657 1366 469 1085T281 481Q281 288 344 212T571 135Q756 135 891 257T1075 592Q797 577 600 485Q578 473 555 473Q515 473 486 504T457 580Q457 614 482 644T608 715T873 778T1253 801Q1297 801 1326 772T1356 698Q1356 633 1300 604ZM1151 2003Q1181 2003 1203 1984T1226 1930Q1226 1794 1094 1713T761 1631Q622 1631 513 1727T403 1964Q403 2040 477 2040Q552 2040 552 1964Q552 1889 615 1835T761 1780Q1033 1780 1077 1940Q1095 2003 1151 2003Z"  />
<glyph unicode="&#x11F;" horiz-adv-x="1087" d="M963 430L926 -70Q919 -150 899 -227T842 -369T748 -475T605 -540T408 -563Q57 -563 57 -442Q57 -352 145 -352Q163 -352 194 -357Q347 -385 434 -385Q608 -385 686 -264T768 174Q656 -25 469 -25Q287 -25 173 97T59 420Q59 691 218 857T651 1024Q841 1024 903 928Q1010 925 1010 809Q1010 733 989 618Q967 478 963 430ZM641 864Q456 864 355 744T254 432Q254 141 473 141Q564 141 651 235T761 431T813 803Q731 864 641 864ZM961 1552Q991 1552 1013 1533T1036 1479Q1036 1343 904 1262T571 1180Q432 1180 323 1276T213 1513Q213 1589 287 1589Q362 1589 362 1513Q362 1438 425 1384T571 1329Q843 1329 887 1489Q905 1552 961 1552Z"  />
<glyph unicode="&#x120;" horiz-adv-x="1393" d="M1300 604Q1237 301 1039 116T571 -70Q80 -70 80 481Q80 852 308 1211T786 1571Q881 1571 1044 1504T1208 1352Q1208 1311 1179 1279T1108 1247Q1082 1247 1044 1272Q895 1366 786 1366Q657 1366 469 1085T281 481Q281 288 344 212T571 135Q756 135 891 257T1075 592Q797 577 600 485Q578 473 555 473Q515 473 486 504T457 580Q457 614 482 644T608 715T873 778T1253 801Q1297 801 1326 772T1356 698Q1356 633 1300 604ZM865 1635Q832 1635 779 1683T725 1762Q725 1798 761 1827T832 1856Q864 1856 916 1807T969 1729Q969 1694 936 1665T865 1635Z"  />
<glyph unicode="&#x121;" horiz-adv-x="1087" d="M963 430L926 -70Q919 -150 899 -227T842 -369T748 -475T605 -540T408 -563Q57 -563 57 -442Q57 -352 145 -352Q163 -352 194 -357Q347 -385 434 -385Q608 -385 686 -264T768 174Q656 -25 469 -25Q287 -25 173 97T59 420Q59 691 218 857T651 1024Q841 1024 903 928Q1010 925 1010 809Q1010 733 989 618Q967 478 963 430ZM641 864Q456 864 355 744T254 432Q254 141 473 141Q564 141 651 235T761 431T813 803Q731 864 641 864ZM705 1184Q672 1184 619 1232T565 1311Q565 1347 601 1376T672 1405Q704 1405 756 1356T809 1278Q809 1243 776 1214T705 1184Z"  />
<glyph unicode="&#x122;" horiz-adv-x="1393" d="M1300 604Q1237 301 1039 116T571 -70Q80 -70 80 481Q80 852 308 1211T786 1571Q881 1571 1044 1504T1208 1352Q1208 1311 1179 1279T1108 1247Q1082 1247 1044 1272Q895 1366 786 1366Q657 1366 469 1085T281 481Q281 288 344 212T571 135Q756 135 891 257T1075 592Q797 577 600 485Q578 473 555 473Q515 473 486 504T457 580Q457 614 482 644T608 715T873 778T1253 801Q1297 801 1326 772T1356 698Q1356 633 1300 604ZM546 -352Q438 -290 438 -223Q438 -169 475 -134T567 -98Q633 -98 675 -139T718 -262Q718 -327 648 -452T510 -578Q438 -578 438 -506Q438 -468 480 -427Q543 -367 546 -352Z"  />
<glyph unicode="&#x123;" horiz-adv-x="1087" d="M713 1317Q713 1261 677 1228T586 1194Q453 1194 453 1356Q453 1458 509 1576T643 1694Q713 1694 713 1620Q713 1591 690 1556Q679 1542 670 1528Q661 1513 651 1499Q640 1483 627 1448Q713 1395 713 1317ZM963 430L926 -70Q919 -150 899 -227T842 -369T748 -475T605 -540T408 -563Q57 -563 57 -442Q57 -352 145 -352Q163 -352 194 -357Q347 -385 434 -385Q608 -385 686 -264T768 174Q656 -25 469 -25Q287 -25 173 97T59 420Q59 691 218 857T651 1024Q841 1024 903 928Q1010 925 1010 809Q1010 733 989 618Q967 478 963 430ZM641 864Q456 864 355 744T254 432Q254 141 473 141Q564 141 651 235T761 431T813 803Q731 864 641 864Z"  />
<glyph unicode="&#x124;" horiz-adv-x="1573" d="M1223 659Q1036 654 801 608L381 526Q381 430 362 270Q344 108 344 14Q344 -28 317 -56T248 -84Q206 -84 179 -56T152 14Q152 118 168 332Q186 543 186 647Q186 701 182 813Q178 927 178 981Q178 1061 188 1219Q199 1391 199 1456Q199 1498 226 1526T295 1554Q337 1554 364 1526T391 1456Q391 1377 381 1217Q371 1055 371 977L377 725L805 805Q1067 854 1237 854Q1249 998 1249 1286Q1249 1375 1281 1460T1366 1546Q1406 1546 1435 1519T1464 1450Q1464 1432 1456 1409Q1442 1369 1442 1286L1446 1108Q1446 999 1427 809Q1409 612 1409 512Q1409 437 1419 283Q1432 118 1432 55Q1432 13 1405 -15T1335 -43Q1296 -43 1268 -14T1239 55Q1239 131 1229 283Q1219 437 1219 512Q1219 585 1223 659ZM839 1930Q584 1616 514 1616Q480 1616 452 1644T424 1708Q424 1748 460 1782T609 1942L752 2105Q783 2141 819 2141Q860 2141 903 2111T1060 1962L1218 1792Q1245 1763 1245 1731Q1245 1696 1218 1669T1153 1641Q1111 1641 1072 1688T839 1930Z"  />
<glyph unicode="&#x125;" horiz-adv-x="1184" d="M367 492Q367 165 345 71T248 -23Q206 -23 176 7T145 74Q145 90 154 119Q163 143 166 264L170 1147L178 1315Q178 1365 169 1411Q160 1456 160 1505Q160 1547 188 1574T258 1602Q327 1602 349 1538T371 1339Q371 1234 365 1120Q358 1026 358 901L360 813Q520 1032 733 1032Q858 1032 931 966T1012 668L1020 477L1040 268Q1047 191 1073 63Q1077 45 1077 35Q1077 -7 1048 -34T977 -61Q933 -61 905 -32T850 186T823 485L827 643Q827 831 733 831Q650 831 569 776T367 492ZM731 1930Q476 1616 406 1616Q372 1616 344 1644T316 1708Q316 1748 352 1782T501 1942L644 2105Q675 2141 711 2141Q752 2141 795 2111T952 1962L1110 1792Q1137 1763 1137 1731Q1137 1696 1110 1669T1045 1641Q1003 1641 964 1688T731 1930Z"  />
<glyph unicode="&#x126;" horiz-adv-x="1573" d="M1446 1100Q1440 955 1425 807Q1409 613 1409 512Q1409 437 1419 283Q1432 118 1432 55Q1432 13 1405 -15T1335 -43Q1296 -43 1268 -14T1239 55Q1239 131 1229 283Q1219 437 1219 512Q1219 585 1223 659Q1059 663 381 526Q381 430 362 270Q344 108 344 14Q344 -28 317 -56T248 -84Q206 -84 179 -56T152 14Q152 118 168 332Q186 543 186 647Q186 701 182 813Q178 927 178 981Q178 1034 182 1102H68Q-35 1102 -35 1200Q-35 1261 3 1282T195 1303Q199 1393 199 1456Q199 1498 226 1526T295 1554Q337 1554 364 1526T391 1456Q391 1390 385 1300L1024 1288Q1061 1288 1249 1294Q1254 1395 1285 1470T1366 1546Q1406 1546 1435 1519T1464 1450Q1464 1431 1456 1409Q1442 1371 1442 1303H1520Q1608 1303 1608 1210Q1608 1106 1446 1100ZM1247 1106L375 1102Q371 1032 371 977Q371 875 377 725L830 809Q1070 854 1237 854Q1242 893 1247 1106Z"  />
<glyph unicode="&#x127;" horiz-adv-x="1184" d="M367 492Q367 165 345 71T248 -23Q206 -23 176 7T145 74Q145 90 154 119Q163 143 166 264L170 1147V1161Q170 1168 172 1176H143Q-12 1176 -12 1268Q-12 1321 16 1337T143 1354H176Q173 1392 167 1429Q160 1465 160 1505Q160 1547 188 1574T258 1602Q309 1602 333 1571T371 1364L438 1366H598Q764 1366 764 1274Q764 1238 739 1210T678 1182L604 1190Q517 1190 367 1182L358 901L360 813Q520 1032 733 1032Q858 1032 931 966T1012 668L1020 477L1040 268Q1047 191 1073 63Q1077 45 1077 35Q1077 -7 1048 -34T977 -61Q933 -61 905 -32T850 186T823 485L827 643Q827 831 733 831Q650 831 569 776T367 492Z"  />
<glyph unicode="&#x128;" horiz-adv-x="1118" d="M635 1280Q612 973 612 725Q612 653 616 551Q621 424 621 379Q621 283 612 207L928 211Q970 212 998 183T1026 109Q1026 65 999 36T928 6Q874 6 760 2L661 0Q501 -3 393 -18Q268 -37 197 -37Q153 -37 125 -8T96 66Q96 109 124 139T197 170Q274 170 412 190Q422 272 422 375Q422 463 414 543Q408 643 408 711Q408 940 436 1288L176 1280Q136 1279 106 1308T76 1384Q76 1461 126 1477T471 1493Q597 1493 721 1481T931 1456T1039 1417T1061 1343Q1061 1300 1030 1273T956 1245Q887 1245 797 1260L635 1280ZM535 1946L619 1842Q667 1782 732 1782Q789 1782 816 1819L861 1907L882 1967Q892 1995 943 1995Q1017 1995 1017 1921Q1017 1885 954 1760T763 1635Q649 1635 592 1668T470 1799Q426 1856 376 1856Q315 1856 277 1809L232 1725Q208 1680 169 1680Q137 1680 114 1700T91 1751V1762Q91 1817 166 1911T376 2005Q476 2005 535 1946Z"  />
<glyph unicode="&#x129;" horiz-adv-x="573" d="M383 94Q383 51 356 24T285 -4Q241 -4 214 23T186 94Q186 154 182 274Q178 394 178 455Q178 550 188 688Q199 844 199 924Q199 969 226 996T297 1024Q340 1024 367 997T395 924Q395 830 385 688Q375 550 375 455Q375 394 379 274Q383 154 383 94ZM269 1495L353 1391Q401 1331 466 1331Q523 1331 550 1368L595 1456L616 1516Q626 1544 677 1544Q751 1544 751 1470Q751 1434 688 1309T497 1184Q383 1184 326 1217T204 1348Q160 1405 110 1405Q49 1405 11 1358L-34 1274Q-58 1229 -97 1229Q-129 1229 -152 1249T-175 1300V1311Q-175 1366 -100 1460T110 1554Q210 1554 269 1495Z"  />
<glyph unicode="&#x12A;" horiz-adv-x="1118" d="M635 1280Q612 973 612 725Q612 653 616 551Q621 424 621 379Q621 283 612 207L928 211Q970 212 998 183T1026 109Q1026 65 999 36T928 6Q874 6 760 2L661 0Q501 -3 393 -18Q268 -37 197 -37Q153 -37 125 -8T96 66Q96 109 124 139T197 170Q274 170 412 190Q422 272 422 375Q422 463 414 543Q408 643 408 711Q408 940 436 1288L176 1280Q136 1279 106 1308T76 1384Q76 1461 126 1477T471 1493Q597 1493 721 1481T931 1456T1039 1417T1061 1343Q1061 1300 1030 1273T956 1245Q887 1245 797 1260L635 1280ZM591 1786H641Q672 1786 714 1788L785 1790Q864 1792 888 1776T913 1715Q913 1655 847 1643L737 1637H522L292 1643Q221 1643 221 1719Q221 1764 250 1779T356 1794Q396 1794 472 1790Q554 1786 591 1786Z"  />
<glyph unicode="&#x12B;" horiz-adv-x="573" d="M383 94Q383 51 356 24T285 -4Q241 -4 214 23T186 94Q186 154 182 274Q178 394 178 455Q178 550 188 688Q199 844 199 924Q199 969 226 996T297 1024Q340 1024 367 997T395 924Q395 830 385 688Q375 550 375 455Q375 394 379 274Q383 154 383 94ZM312 1335H362Q393 1335 435 1337L506 1339Q585 1341 609 1325T634 1264Q634 1204 568 1192L458 1186H243L13 1192Q-58 1192 -58 1268Q-58 1313 -29 1328T77 1343Q117 1343 193 1339Q275 1335 312 1335Z"  />
<glyph unicode="&#x12E;" horiz-adv-x="1118" d="M624 -279Q700 -279 758 -254Q784 -242 797 -242Q828 -242 849 -267T870 -322Q870 -372 800 -406T612 -440Q487 -440 418 -374T348 -182Q348 -94 407 -16L393 -18Q268 -37 197 -37Q153 -37 125 -8T96 66Q96 109 124 139T197 170Q274 170 412 190Q422 272 422 375Q422 463 414 543Q408 643 408 711Q408 940 436 1288L176 1280Q136 1279 106 1308T76 1384Q76 1461 126 1477T471 1493Q597 1493 721 1481T931 1456T1039 1417T1061 1343Q1061 1300 1030 1273T956 1245Q887 1245 797 1260L635 1280Q612 973 612 725Q612 653 616 551Q621 424 621 379Q621 283 612 207L928 211Q970 212 998 183T1026 109Q1026 65 999 36T928 6Q874 6 760 2L661 0H643Q627 -22 595 -52Q528 -114 528 -162Q528 -211 554 -245T624 -279Z"  />
<glyph unicode="&#x12F;" horiz-adv-x="573" d="M326 -279Q402 -279 460 -254Q486 -242 499 -242Q530 -242 551 -267T572 -322Q572 -372 502 -406T314 -440Q189 -440 120 -374T50 -182Q50 -77 134 14Q163 45 189 66Q186 79 186 94Q186 154 182 274Q178 394 178 455Q178 550 188 688Q199 844 199 924Q199 969 226 996T297 1024Q340 1024 367 997T395 924Q395 830 385 688Q375 550 375 455Q375 394 379 274Q383 154 383 94Q383 57 362 31Q356 3 297 -52Q230 -114 230 -162Q230 -211 256 -245T326 -279ZM213 1382Q213 1428 247 1462T330 1497Q378 1497 412 1464T446 1382Q446 1333 413 1300T330 1266Q281 1266 247 1300T213 1382Z"  />
<glyph unicode="&#x130;" horiz-adv-x="1118" d="M635 1280Q612 973 612 725Q612 653 616 551Q621 424 621 379Q621 283 612 207L928 211Q970 212 998 183T1026 109Q1026 65 999 36T928 6Q874 6 760 2L661 0Q501 -3 393 -18Q268 -37 197 -37Q153 -37 125 -8T96 66Q96 109 124 139T197 170Q274 170 412 190Q422 272 422 375Q422 463 414 543Q408 643 408 711Q408 940 436 1288L176 1280Q136 1279 106 1308T76 1384Q76 1461 126 1477T471 1493Q597 1493 721 1481T931 1456T1039 1417T1061 1343Q1061 1300 1030 1273T956 1245Q887 1245 797 1260L635 1280ZM576 1635Q543 1635 490 1683T436 1762Q436 1798 472 1827T543 1856Q575 1856 627 1807T680 1729Q680 1694 647 1665T576 1635Z"  />
<glyph unicode="&#x131;" horiz-adv-x="573" d="M383 94Q383 51 356 24T285 -4Q241 -4 214 23T186 94Q186 154 182 274Q178 394 178 455Q178 550 188 688Q199 844 199 924Q199 969 226 996T297 1024Q340 1024 367 997T395 924Q395 830 385 688Q375 550 375 455Q375 394 379 274Q383 154 383 94Z"  />
<glyph unicode="&#x132;" horiz-adv-x="2306" d="M1896 1307L1903 1188Q1907 1128 1896 814T1842 271T1736 -39T1573 -121Q1393 -121 1216 15T1038 328Q1038 451 1139 451Q1241 451 1241 330Q1241 245 1356 166T1573 86Q1635 86 1668 383T1702 1188Q1702 1214 1696 1294H1585Q1556 1294 1518 1296L1449 1298Q1374 1300 1355 1305T1315 1336T1294 1403Q1294 1505 1434 1505Q1470 1505 1534 1501L1592 1499Q1683 1496 1823 1507Q1949 1516 2011 1516Q2241 1516 2241 1399Q2241 1357 2212 1326T2140 1294L2011 1309H1959Q1931 1309 1896 1307ZM635 1280Q612 973 612 725Q612 653 616 551Q621 424 621 379Q621 283 612 207L928 211Q970 212 998 183T1026 109Q1026 65 999 36T928 6Q874 6 760 2L661 0Q501 -3 393 -18Q268 -37 197 -37Q153 -37 125 -8T96 66Q96 109 124 139T197 170Q274 170 412 190Q422 272 422 375Q422 463 414 543Q408 643 408 711Q408 940 436 1288L176 1280Q136 1279 106 1308T76 1384Q76 1461 126 1477T471 1493Q597 1493 721 1481T931 1456T1039 1417T1061 1343Q1061 1300 1030 1273T956 1245Q887 1245 797 1260L635 1280Z"  />
<glyph unicode="&#x133;" horiz-adv-x="1085" d="M213 1382Q213 1428 247 1462T330 1497Q378 1497 412 1464T446 1382Q446 1333 413 1300T330 1266Q281 1266 247 1300T213 1382ZM610 1380Q610 1427 644 1461T727 1495Q775 1495 810 1462T846 1380Q846 1333 810 1300T727 1266Q680 1266 645 1300T610 1380ZM686 367L651 918Q648 961 676 1004T752 1047Q788 1047 821 1022T856 971L889 393L915 -221Q920 -346 836 -472T614 -598Q468 -598 365 -457T262 -258Q262 -219 294 -191T367 -162Q424 -162 506 -318Q546 -397 614 -397Q657 -397 688 -349T719 -207Q719 -110 686 367ZM383 94Q383 51 356 24T285 -4Q241 -4 214 23T186 94Q186 154 182 274Q178 394 178 455Q178 550 188 688Q199 844 199 924Q199 969 226 996T297 1024Q340 1024 367 997T395 924Q395 830 385 688Q375 550 375 455Q375 394 379 274Q383 154 383 94Z"  />
<glyph unicode="&#x134;" horiz-adv-x="1362" d="M952 1307L958 1188Q961 1124 950 813T898 273T792 -38T629 -121Q449 -121 272 15T94 328Q94 451 195 451Q297 451 297 330Q297 245 412 166T629 86Q694 86 726 404T758 1188Q758 1214 752 1294H641Q612 1294 573 1296L505 1298Q430 1300 411 1305T371 1336T350 1403Q350 1505 489 1505Q526 1505 590 1501L648 1499Q739 1496 879 1507Q1005 1516 1067 1516Q1296 1516 1296 1399Q1296 1355 1267 1325T1196 1294L1067 1309H1015Q986 1309 952 1307ZM792 1930Q537 1616 467 1616Q433 1616 405 1644T377 1708Q377 1748 413 1782T562 1942L705 2105Q736 2141 772 2141Q813 2141 856 2111T1013 1962L1171 1792Q1198 1763 1198 1731Q1198 1696 1171 1669T1106 1641Q1064 1641 1025 1688T792 1930Z"  />
<glyph unicode="&#x135;" horiz-adv-x="678" d="M301 367L266 918Q263 961 291 1004T367 1047Q403 1047 436 1022T471 971L504 393L530 -221Q535 -346 451 -472T229 -598Q83 -598 -20 -457T-123 -258Q-123 -219 -91 -191T-18 -162Q39 -162 121 -318Q161 -397 229 -397Q272 -397 303 -349T334 -207Q334 -110 301 367ZM345 1479Q90 1165 20 1165Q-14 1165 -42 1193T-70 1257Q-70 1297 -34 1331T115 1491L258 1654Q289 1690 325 1690Q366 1690 409 1660T566 1511L724 1341Q751 1312 751 1280Q751 1245 724 1218T659 1190Q617 1190 578 1237T345 1479Z"  />
<glyph unicode="&#x136;" horiz-adv-x="1251" d="M422 526V512L420 -10Q420 -111 334 -111Q280 -111 247 -66T213 29Q213 319 227 727Q242 1168 242 1427Q242 1472 272 1502T342 1532Q384 1532 412 1502T440 1427Q440 1333 428 1126Q418 926 418 823Q535 930 721 1143L1008 1475Q1041 1513 1083 1513Q1124 1513 1155 1484T1186 1411Q1186 1298 559 678Q657 574 936 315L1040 227Q1085 189 1163 162Q1243 134 1243 61Q1243 22 1218 -9T1153 -41Q999 -41 721 225L422 526ZM678 -352Q570 -290 570 -223Q570 -169 607 -134T699 -98Q765 -98 807 -139T850 -262Q850 -327 780 -452T642 -578Q570 -578 570 -506Q570 -468 612 -427Q675 -367 678 -352Z"  />
<glyph unicode="&#x137;" horiz-adv-x="1106" d="M553 498Q491 449 373 369Q362 195 362 66Q362 21 335 -7T264 -35Q164 -35 164 100Q164 186 174 348Q186 514 186 598L195 1290Q195 1316 188 1454Q183 1532 206 1568T285 1604Q328 1604 355 1576T383 1503L391 1286L385 965Q380 709 383 616Q519 722 643 844L864 1071Q898 1106 936 1106Q974 1106 1005 1074T1036 1001Q1036 980 1023 957T912 829T705 627L924 330Q1075 125 1075 57Q1075 16 1045 -12T973 -41Q916 -41 887 16Q831 125 729 256L553 498ZM573 -352Q465 -290 465 -223Q465 -169 502 -134T594 -98Q660 -98 702 -139T745 -262Q745 -327 675 -452T537 -578Q465 -578 465 -506Q465 -468 507 -427Q570 -367 573 -352Z"  />
<glyph unicode="&#x139;" horiz-adv-x="1128" d="M299 113Q560 110 961 236Q977 240 991 240Q1035 240 1062 209T1090 135Q1090 80 1026 41T717 -45T305 -92Q188 -92 144 -47T100 92L121 424Q147 835 147 1440Q147 1484 176 1513T246 1542Q289 1542 317 1513T346 1440Q346 861 319 412L305 258Q299 192 299 113ZM403 1731Q403 1764 434 1794Q479 1841 565 1954Q607 2012 666 2064T765 2116Q799 2116 827 2088T856 2024Q856 1983 817 1952Q740 1890 682 1809Q558 1639 493 1639Q458 1639 431 1667T403 1731Z"  />
<glyph unicode="&#x13A;" horiz-adv-x="561" d="M393 786L373 105Q369 16 346 -13T272 -43Q174 -43 174 59Q174 178 184 422Q197 649 197 786L207 1509Q207 1610 303 1610Q403 1610 403 1509Q403 1352 397 1147Q393 943 393 786ZM213 1780Q213 1813 244 1843Q289 1890 375 2003Q417 2061 476 2113T575 2165Q609 2165 637 2137T666 2073Q666 2032 627 2001Q550 1939 492 1858Q368 1688 303 1688Q268 1688 241 1716T213 1780Z"  />
<glyph unicode="&#x13B;" horiz-adv-x="1128" d="M299 113Q560 110 961 236Q977 240 991 240Q1035 240 1062 209T1090 135Q1090 80 1026 41T717 -45T305 -92Q188 -92 144 -47T100 92L121 424Q147 835 147 1440Q147 1484 176 1513T246 1542Q289 1542 317 1513T346 1440Q346 861 319 412L305 258Q299 192 299 113ZM546 -352Q438 -290 438 -223Q438 -169 475 -134T567 -98Q633 -98 675 -139T718 -262Q718 -327 648 -452T510 -578Q438 -578 438 -506Q438 -468 480 -427Q543 -367 546 -352Z"  />
<glyph unicode="&#x13C;" horiz-adv-x="561" d="M393 786L373 105Q369 16 346 -13T272 -43Q174 -43 174 59Q174 178 184 422Q197 649 197 786L207 1509Q207 1610 303 1610Q403 1610 403 1509Q403 1352 397 1147Q393 943 393 786ZM263 -352Q155 -290 155 -223Q155 -169 192 -134T284 -98Q350 -98 392 -139T435 -262Q435 -327 365 -452T227 -578Q155 -578 155 -506Q155 -468 197 -427Q260 -367 263 -352Z"  />
<glyph unicode="&#x13D;" horiz-adv-x="1128" d="M299 113Q560 110 961 236Q977 240 991 240Q1035 240 1062 209T1090 135Q1090 80 1026 41T717 -45T305 -92Q188 -92 144 -47T100 92L121 424Q147 835 147 1440Q147 1484 176 1513T246 1542Q289 1542 317 1513T346 1440Q346 861 319 412L305 258Q299 192 299 113ZM739 1280Q651 1332 651 1409Q651 1462 688 1498T780 1534Q911 1534 911 1370Q911 1264 855 1149T723 1034Q651 1034 651 1106Q651 1136 676 1169L695 1198Q704 1213 715 1227Q727 1243 739 1280Z"  />
<glyph unicode="&#x13E;" horiz-adv-x="721" d="M393 786L373 105Q369 16 346 -13T272 -43Q174 -43 174 59Q174 178 184 422Q197 649 197 786L207 1509Q207 1610 303 1610Q403 1610 403 1509Q403 1352 397 1147Q393 943 393 786ZM600 1350Q512 1401 512 1479Q512 1533 549 1568T641 1604Q772 1604 772 1440Q772 1334 716 1219T584 1104Q512 1104 512 1176Q512 1206 537 1239L555 1268Q564 1282 575 1296Q591 1317 600 1350Z"  />
<glyph unicode="&#x13F;" horiz-adv-x="1128" d="M299 113Q560 110 961 236Q977 240 991 240Q1035 240 1062 209T1090 135Q1090 80 1026 41T717 -45T305 -92Q188 -92 144 -47T100 92L121 424Q147 835 147 1440Q147 1484 176 1513T246 1542Q289 1542 317 1513T346 1440Q346 861 319 412L305 258Q299 192 299 113ZM817 592Q767 592 731 629T694 717Q694 767 730 803T817 840Q867 840 904 804T942 717Q942 666 905 629T817 592Z"  />
<glyph unicode="&#x140;" horiz-adv-x="809" d="M393 786L373 105Q369 16 346 -13T272 -43Q174 -43 174 59Q174 178 184 422Q197 649 197 786L207 1509Q207 1610 303 1610Q403 1610 403 1509Q403 1352 397 1147Q393 943 393 786ZM686 592Q636 592 600 628T563 717Q563 768 600 804T686 840Q736 840 773 804T811 717Q811 666 774 629T686 592Z"  />
<glyph unicode="&#x141;" horiz-adv-x="1196" d="M197 594Q72 504 37 504Q-2 504 -31 534T-61 606Q-61 654 -16 686L207 848Q215 1220 215 1440Q215 1483 244 1512T313 1542Q357 1542 385 1513T414 1440Q414 1203 410 985Q543 1063 582 1063Q622 1063 651 1032T680 958Q680 903 621 870Q489 808 403 745H401L387 412L373 258Q367 192 367 113Q629 110 1028 236Q1044 240 1059 240Q1102 240 1129 210T1157 135Q1157 79 1095 41T788 -44T373 -92Q256 -92 212 -48T168 92L197 594Z"  />
<glyph unicode="&#x142;" horiz-adv-x="561" d="M389 682L375 137Q372 51 364 23T332 -22T272 -39Q174 -39 174 63Q174 182 184 426Q188 476 188 522Q94 463 55 463Q19 463 -8 492T-35 559Q-35 614 16 641Q105 687 197 764V791L207 1513Q207 1614 303 1614Q403 1614 403 1513Q403 1356 397 1151L393 954L444 1018Q470 1051 514 1051Q552 1051 582 1022T612 954Q612 889 389 682Z"  />
<glyph unicode="&#x143;" horiz-adv-x="1632" d="M352 1145L344 688Q343 642 348 440Q352 274 352 190Q352 -80 248 -80Q196 -80 164 -46T131 31Q131 72 137 156Q145 225 145 285L154 655Q154 722 150 854Q147 949 147 1034T135 1241Q123 1367 123 1430Q123 1474 163 1512T252 1550Q305 1550 383 1436Q683 987 904 727T1352 256Q1355 300 1352 383L1342 802Q1339 946 1330 1065T1313 1218T1286 1313Q1268 1380 1268 1417Q1268 1534 1372 1534Q1546 1534 1546 885Q1546 775 1542 553L1540 361Q1537 101 1520 31T1417 -39Q1379 -39 1302 17T953 383T352 1145ZM633 1731Q633 1764 664 1794Q709 1841 795 1954Q837 2012 896 2064T995 2116Q1029 2116 1057 2088T1086 2024Q1086 1983 1047 1952Q970 1890 912 1809Q788 1639 723 1639Q688 1639 661 1667T633 1731Z"  />
<glyph unicode="&#x144;" horiz-adv-x="1100" d="M348 846Q517 1069 694 1069Q823 1069 891 975T965 649V549L963 457Q961 373 983 242Q1006 104 1006 29Q1006 -16 978 -44T905 -72Q818 -72 809 23L780 242Q768 333 768 461V499L774 651Q774 866 694 866Q563 866 452 693T333 384Q331 359 328 330Q322 280 322 233Q322 201 328 143Q334 84 334 53Q334 8 307 -19T236 -47Q137 -47 137 53Q137 84 131 143Q125 201 125 233Q125 359 139 518Q154 689 154 805Q154 837 147 955Q138 1092 246 1092Q337 1092 346 963L348 846ZM406 1280Q406 1313 437 1343Q482 1390 568 1503Q610 1561 669 1613T768 1665Q802 1665 830 1637T859 1573Q859 1532 820 1501Q743 1439 685 1358Q561 1188 496 1188Q461 1188 434 1216T406 1280Z"  />
<glyph unicode="&#x145;" horiz-adv-x="1632" d="M352 1145L344 688Q343 642 348 440Q352 274 352 190Q352 -80 248 -80Q196 -80 164 -46T131 31Q131 72 137 156Q145 225 145 285L154 655Q154 722 150 854Q147 949 147 1034T135 1241Q123 1367 123 1430Q123 1474 163 1512T252 1550Q305 1550 383 1436Q683 987 904 727T1352 256Q1355 300 1352 383L1342 802Q1339 946 1330 1065T1313 1218T1286 1313Q1268 1380 1268 1417Q1268 1534 1372 1534Q1546 1534 1546 885Q1546 775 1542 553L1540 361Q1537 101 1520 31T1417 -39Q1379 -39 1302 17T953 383T352 1145ZM784 -352Q676 -290 676 -223Q676 -169 713 -134T805 -98Q871 -98 913 -139T956 -262Q956 -327 886 -452T748 -578Q676 -578 676 -506Q676 -468 718 -427Q781 -367 784 -352Z"  />
<glyph unicode="&#x146;" horiz-adv-x="1100" d="M348 846Q517 1069 694 1069Q823 1069 891 975T965 649V549L963 457Q961 373 983 242Q1006 104 1006 29Q1006 -16 978 -44T905 -72Q818 -72 809 23L780 242Q768 333 768 461V499L774 651Q774 866 694 866Q563 866 452 693T333 384Q331 359 328 330Q322 280 322 233Q322 201 328 143Q334 84 334 53Q334 8 307 -19T236 -47Q137 -47 137 53Q137 84 131 143Q125 201 125 233Q125 359 139 518Q154 689 154 805Q154 837 147 955Q138 1092 246 1092Q337 1092 346 963L348 846ZM546 -352Q438 -290 438 -223Q438 -169 475 -134T567 -98Q633 -98 675 -139T718 -262Q718 -327 648 -452T510 -578Q438 -578 438 -506Q438 -468 480 -427Q543 -367 546 -352Z"  />
<glyph unicode="&#x147;" horiz-adv-x="1632" d="M352 1145L344 688Q343 642 348 440Q352 274 352 190Q352 -80 248 -80Q196 -80 164 -46T131 31Q131 72 137 156Q145 225 145 285L154 655Q154 722 150 854Q147 949 147 1034T135 1241Q123 1367 123 1430Q123 1474 163 1512T252 1550Q305 1550 383 1436Q683 987 904 727T1352 256Q1355 300 1352 383L1342 802Q1339 946 1330 1065T1313 1218T1286 1313Q1268 1380 1268 1417Q1268 1534 1372 1534Q1546 1534 1546 885Q1546 775 1542 553L1540 361Q1537 101 1520 31T1417 -39Q1379 -39 1302 17T953 383T352 1145ZM1058 2007Q1082 2028 1108 2028Q1137 2028 1160 2005T1183 1950Q1183 1926 1170 1909T1048 1794T892 1662T829 1627Q797 1627 764 1663L712 1727L596 1860Q514 1954 514 2003Q514 2034 537 2055T591 2077Q632 2077 655 2038Q688 1984 837 1811L1058 2007Z"  />
<glyph unicode="&#x148;" horiz-adv-x="1100" d="M348 846Q517 1069 694 1069Q823 1069 891 975T965 649V549L963 457Q961 373 983 242Q1006 104 1006 29Q1006 -16 978 -44T905 -72Q818 -72 809 23L780 242Q768 333 768 461V499L774 651Q774 866 694 866Q563 866 452 693T333 384Q331 359 328 330Q322 280 322 233Q322 201 328 143Q334 84 334 53Q334 8 307 -19T236 -47Q137 -47 137 53Q137 84 131 143Q125 201 125 233Q125 359 139 518Q154 689 154 805Q154 837 147 955Q138 1092 246 1092Q337 1092 346 963L348 846ZM841 1556Q865 1577 891 1577Q920 1577 943 1554T966 1499Q966 1475 953 1458T831 1343T675 1211T612 1176Q580 1176 547 1212L495 1276L379 1409Q297 1503 297 1552Q297 1583 320 1604T374 1626Q415 1626 438 1587Q471 1533 620 1360L841 1556Z"  />
<glyph unicode="&#x149;" horiz-adv-x="1300" d="M82 1329L119 1505Q135 1583 195 1583Q232 1583 254 1557T276 1493Q276 1427 247 1287T193 1121T137 1094Q57 1094 57 1186Q57 1217 82 1329ZM549 846Q718 1069 895 1069Q1026 1069 1093 972T1165 649V549L1163 457Q1161 378 1184 242Q1206 110 1206 29Q1206 -16 1178 -44T1106 -72Q1019 -72 1010 23L981 242Q969 333 969 461V499L975 651Q975 866 895 866Q766 866 656 697T533 384Q531 359 528 330Q522 280 522 233Q522 201 528 143Q535 75 535 53Q535 8 508 -19T436 -47Q338 -47 338 53Q338 84 332 143Q326 201 326 233Q326 359 340 518Q354 677 354 805Q354 835 350 899Q346 963 346 993Q346 1037 374 1064T446 1092Q538 1092 547 963L549 846Z"  />
<glyph unicode="&#x14C;" horiz-adv-x="1634" d="M117 571Q117 938 342 1227T893 1516Q1224 1516 1386 1361T1548 881Q1548 514 1339 227T803 -61Q514 -61 316 116T117 571ZM319 571Q319 381 458 262T803 143Q1036 143 1189 370T1343 881Q1343 1120 1239 1215T893 1311Q653 1311 486 1080T319 571ZM1009 1786H1059Q1090 1786 1132 1788L1203 1790Q1282 1792 1306 1776T1331 1715Q1331 1655 1265 1643L1155 1637H940L710 1643Q639 1643 639 1719Q639 1764 668 1779T774 1794Q814 1794 890 1790Q972 1786 1009 1786Z"  />
<glyph unicode="&#x14D;" horiz-adv-x="1077" d="M78 458Q78 694 214 865T582 1036Q759 1036 861 892T963 518Q963 262 836 102T508 -59Q327 -59 203 83T78 458ZM561 834Q431 834 353 718T275 436Q275 297 344 220T508 143Q610 143 693 224T777 496Q777 834 567 834H561ZM609 1335H659Q690 1335 732 1337L803 1339Q882 1341 906 1325T931 1264Q931 1204 865 1192L755 1186H540L310 1192Q239 1192 239 1268Q239 1313 268 1328T374 1343Q414 1343 490 1339Q572 1335 609 1335Z"  />
<glyph unicode="&#x14E;" horiz-adv-x="1634" d="M117 571Q117 938 342 1227T893 1516Q1224 1516 1386 1361T1548 881Q1548 514 1339 227T803 -61Q514 -61 316 116T117 571ZM319 571Q319 381 458 262T803 143Q1036 143 1189 370T1343 881Q1343 1120 1239 1215T893 1311Q653 1311 486 1080T319 571ZM1283 2003Q1313 2003 1335 1984T1358 1930Q1358 1794 1226 1713T893 1631Q754 1631 645 1727T535 1964Q535 2040 609 2040Q684 2040 684 1964Q684 1889 747 1835T893 1780Q1165 1780 1209 1940Q1227 2003 1283 2003Z"  />
<glyph unicode="&#x14F;" horiz-adv-x="1077" d="M78 458Q78 694 214 865T582 1036Q759 1036 861 892T963 518Q963 262 836 102T508 -59Q327 -59 203 83T78 458ZM561 834Q431 834 353 718T275 436Q275 297 344 220T508 143Q610 143 693 224T777 496Q777 834 567 834H561ZM942 1552Q972 1552 994 1533T1017 1479Q1017 1343 885 1262T552 1180Q413 1180 304 1276T194 1513Q194 1589 268 1589Q343 1589 343 1513Q343 1438 406 1384T552 1329Q824 1329 868 1489Q886 1552 942 1552Z"  />
<glyph unicode="&#x150;" horiz-adv-x="1634" d="M117 571Q117 938 342 1227T893 1516Q1224 1516 1386 1361T1548 881Q1548 514 1339 227T803 -61Q514 -61 316 116T117 571ZM319 571Q319 381 458 262T803 143Q1036 143 1189 370T1343 881Q1343 1120 1239 1215T893 1311Q653 1311 486 1080T319 571ZM779 1866L934 2020Q960 2046 990 2046Q1021 2046 1044 2023T1067 1971Q1067 1944 1037 1910T922 1792Q843 1719 795 1663Q770 1635 738 1635Q707 1635 685 1657T662 1711Q662 1746 779 1866ZM1362 1874L1215 1733Q1113 1635 1072 1635Q1044 1635 1021 1658T998 1713Q998 1746 1029 1770L1176 1911Q1285 2016 1325 2016Q1356 2016 1377 1993T1399 1938Q1399 1905 1362 1874Z"  />
<glyph unicode="&#x151;" horiz-adv-x="1077" d="M78 458Q78 694 214 865T582 1036Q759 1036 861 892T963 518Q963 262 836 102T508 -59Q327 -59 203 83T78 458ZM561 834Q431 834 353 718T275 436Q275 297 344 220T508 143Q610 143 693 224T777 496Q777 834 567 834H561ZM377 1415L532 1569Q558 1595 588 1595Q619 1595 642 1572T665 1520Q665 1493 635 1459T520 1341Q441 1268 393 1212Q368 1184 336 1184Q305 1184 283 1206T260 1260Q260 1295 377 1415ZM960 1423L813 1282Q711 1184 670 1184Q642 1184 619 1207T596 1262Q596 1295 627 1319L774 1460Q883 1565 923 1565Q954 1565 975 1542T997 1487Q997 1454 960 1423Z"  />
<glyph unicode="&#x152;" horiz-adv-x="2486" d="M1573 1362Q1583 1305 1583 1257Q1583 1118 1567 874L2005 915Q2229 936 2243 936Q2286 936 2315 909T2345 834Q2345 743 2253 731L1552 668Q1544 555 1544 416Q1544 166 1588 147T1733 127Q1793 127 1919 131Q2045 135 2107 135Q2119 135 2199 145Q2331 162 2331 43Q2331 -28 2266 -52T1839 -76Q1530 -76 1451 -5T1352 242Q1140 -61 803 -61Q517 -61 317 116T117 571Q117 930 340 1223T893 1516Q1210 1516 1372 1376Q1364 1424 1364 1473Q1364 1593 1462 1593Q1507 1593 1534 1563Q1782 1628 1962 1628Q2117 1628 2228 1605T2379 1553T2419 1475Q2419 1434 2391 1401T2320 1368Q2305 1368 2290 1374Q2119 1421 1962 1421Q1798 1421 1573 1362ZM322 571Q322 379 461 261T803 143Q1038 143 1192 370T1346 881Q1346 1115 1244 1213T893 1311Q656 1311 489 1081T322 571Z"  />
<glyph unicode="&#x153;" horiz-adv-x="1837" d="M877 154Q748 -59 514 -59Q328 -59 206 88T84 436Q84 688 218 862T588 1036Q808 1036 905 821Q1041 1044 1294 1044Q1470 1044 1582 976T1694 776Q1694 695 1628 635T1368 483L987 301Q1101 135 1321 135Q1406 135 1504 166T1634 248Q1669 301 1708 301Q1744 301 1771 275T1798 213Q1798 103 1634 29T1321 -45Q1011 -45 877 154ZM1536 784Q1452 864 1294 864Q1051 864 971 485L1278 633Q1462 722 1536 784ZM573 834Q441 834 361 716T281 436Q281 316 344 230T514 143Q626 143 704 234T782 446Q782 834 573 834Z"  />
<glyph unicode="&#x154;" horiz-adv-x="1286" d="M319 461L328 264L332 68Q333 27 305 -4T231 -35Q188 -35 160 -6T131 68Q131 178 123 303Q117 460 117 539Q117 648 137 813Q158 987 158 1085Q158 1125 147 1237Q137 1339 137 1389Q137 1451 175 1495T274 1536L516 1518Q711 1503 931 1331T1151 926Q1151 785 1038 677T737 512Q897 429 1063 298T1229 92Q1229 49 1198 20T1126 -10Q1088 -10 1055 20Q731 346 319 461ZM342 1323L355 1145Q358 1116 358 1081Q358 988 344 883L324 682H412Q712 682 831 772T950 926Q950 1060 801 1177T489 1311L342 1323ZM432 1780Q432 1813 463 1843Q508 1890 594 2003Q636 2061 695 2113T794 2165Q828 2165 856 2137T885 2073Q885 2032 846 2001Q769 1939 711 1858Q587 1688 522 1688Q487 1688 460 1716T432 1780Z"  />
<glyph unicode="&#x155;" horiz-adv-x="983" d="M918 739Q918 696 894 655T817 614Q731 614 731 713Q731 730 727 782L725 866Q429 835 324 582L326 35Q326 -68 227 -68Q139 -68 139 35V777Q139 802 141 834L143 892Q146 966 150 984T175 1018T231 1034Q329 1034 332 868Q522 1055 758 1055Q918 1055 918 809V739ZM363 1280Q363 1313 394 1343Q439 1390 525 1503Q567 1561 626 1613T725 1665Q759 1665 787 1637T816 1573Q816 1532 777 1501Q700 1439 642 1358Q518 1188 453 1188Q418 1188 391 1216T363 1280Z"  />
<glyph unicode="&#x156;" horiz-adv-x="1286" d="M319 461L328 264L332 68Q333 27 305 -4T231 -35Q188 -35 160 -6T131 68Q131 178 123 303Q117 460 117 539Q117 648 137 813Q158 987 158 1085Q158 1125 147 1237Q137 1339 137 1389Q137 1451 175 1495T274 1536L516 1518Q711 1503 931 1331T1151 926Q1151 785 1038 677T737 512Q897 429 1063 298T1229 92Q1229 49 1198 20T1126 -10Q1088 -10 1055 20Q731 346 319 461ZM342 1323L355 1145Q358 1116 358 1081Q358 988 344 883L324 682H412Q712 682 831 772T950 926Q950 1060 801 1177T489 1311L342 1323ZM628 -352Q520 -290 520 -223Q520 -169 557 -134T649 -98Q715 -98 757 -139T800 -262Q800 -327 730 -452T592 -578Q520 -578 520 -506Q520 -468 562 -427Q625 -367 628 -352Z"  />
<glyph unicode="&#x157;" horiz-adv-x="983" d="M918 739Q918 696 894 655T817 614Q731 614 731 713Q731 730 727 782L725 866Q429 835 324 582L326 35Q326 -68 227 -68Q139 -68 139 35V777Q139 802 141 834L143 892Q146 966 150 984T175 1018T231 1034Q329 1034 332 868Q522 1055 758 1055Q918 1055 918 809V739ZM246 -352Q138 -290 138 -223Q138 -169 175 -134T267 -98Q333 -98 375 -139T418 -262Q418 -327 348 -452T210 -578Q138 -578 138 -506Q138 -468 180 -427Q243 -367 246 -352Z"  />
<glyph unicode="&#x158;" horiz-adv-x="1286" d="M319 461L328 264L332 68Q333 27 305 -4T231 -35Q188 -35 160 -6T131 68Q131 178 123 303Q117 460 117 539Q117 648 137 813Q158 987 158 1085Q158 1125 147 1237Q137 1339 137 1389Q137 1451 175 1495T274 1536L516 1518Q711 1503 931 1331T1151 926Q1151 785 1038 677T737 512Q897 429 1063 298T1229 92Q1229 49 1198 20T1126 -10Q1088 -10 1055 20Q731 346 319 461ZM342 1323L355 1145Q358 1116 358 1081Q358 988 344 883L324 682H412Q712 682 831 772T950 926Q950 1060 801 1177T489 1311L342 1323ZM810 2007Q834 2028 860 2028Q889 2028 912 2005T935 1950Q935 1926 922 1909T800 1794T644 1662T581 1627Q549 1627 516 1663L464 1727L348 1860Q266 1954 266 2003Q266 2034 289 2055T343 2077Q384 2077 407 2038Q440 1984 589 1811L810 2007Z"  />
<glyph unicode="&#x159;" horiz-adv-x="983" d="M918 739Q918 696 894 655T817 614Q731 614 731 713Q731 730 727 782L725 866Q429 835 324 582L326 35Q326 -68 227 -68Q139 -68 139 35V777Q139 802 141 834L143 892Q146 966 150 984T175 1018T231 1034Q329 1034 332 868Q522 1055 758 1055Q918 1055 918 809V739ZM730 1556Q754 1577 780 1577Q809 1577 832 1554T855 1499Q855 1475 842 1458T720 1343T564 1211T501 1176Q469 1176 436 1212L384 1276L268 1409Q186 1503 186 1552Q186 1583 209 1604T263 1626Q304 1626 327 1587Q360 1533 509 1360L730 1556Z"  />
<glyph unicode="&#x15A;" horiz-adv-x="1419" d="M236 344Q285 344 322 289Q384 198 448 164T659 129Q830 129 973 212T1116 434Q1116 552 995 623T676 702Q486 711 375 790T264 1004Q264 1180 461 1323T864 1466Q983 1466 1114 1425T1245 1323Q1245 1237 1155 1237Q1109 1237 1016 1257Q916 1279 875 1279Q711 1279 597 1202T483 1014Q483 951 558 921T846 872Q1063 857 1192 739T1321 446Q1321 222 1125 83T657 -57Q447 -57 290 29T133 250Q133 292 162 318T236 344ZM612 1731Q612 1764 643 1794Q688 1841 774 1954Q816 2012 875 2064T974 2116Q1008 2116 1036 2088T1065 2024Q1065 1983 1026 1952Q949 1890 891 1809Q767 1639 702 1639Q667 1639 640 1667T612 1731Z"  />
<glyph unicode="&#x15B;" horiz-adv-x="997" d="M711 915L524 860Q429 832 374 787T317 686Q349 676 377 672Q649 625 766 523T883 254Q883 104 764 23T444 -59Q292 -59 167 -4T41 139Q41 179 72 209T143 240Q172 240 223 193Q248 172 320 157T444 141Q544 141 615 169T686 254Q686 390 496 438L391 461Q211 500 167 561T123 698Q123 838 204 917T510 1061Q644 1098 700 1124Q738 1143 788 1143Q832 1143 859 1114T887 1040Q887 1012 899 954Q911 900 911 870Q911 825 884 798T813 770Q774 770 750 791T711 915ZM414 1280Q414 1313 445 1343Q490 1390 576 1503Q618 1561 677 1613T776 1665Q810 1665 838 1637T867 1573Q867 1532 828 1501Q751 1439 693 1358Q569 1188 504 1188Q469 1188 442 1216T414 1280Z"  />
<glyph unicode="&#x15C;" horiz-adv-x="1419" d="M236 344Q285 344 322 289Q384 198 448 164T659 129Q830 129 973 212T1116 434Q1116 552 995 623T676 702Q486 711 375 790T264 1004Q264 1180 461 1323T864 1466Q983 1466 1114 1425T1245 1323Q1245 1237 1155 1237Q1109 1237 1016 1257Q916 1279 875 1279Q711 1279 597 1202T483 1014Q483 951 558 921T846 872Q1063 857 1192 739T1321 446Q1321 222 1125 83T657 -57Q447 -57 290 29T133 250Q133 292 162 318T236 344ZM780 1930Q525 1616 455 1616Q421 1616 393 1644T365 1708Q365 1748 401 1782T550 1942L693 2105Q724 2141 760 2141Q801 2141 844 2111T1001 1962L1159 1792Q1186 1763 1186 1731Q1186 1696 1159 1669T1094 1641Q1052 1641 1013 1688T780 1930Z"  />
<glyph unicode="&#x15D;" horiz-adv-x="997" d="M711 915L524 860Q429 832 374 787T317 686Q349 676 377 672Q649 625 766 523T883 254Q883 104 764 23T444 -59Q292 -59 167 -4T41 139Q41 179 72 209T143 240Q172 240 223 193Q248 172 320 157T444 141Q544 141 615 169T686 254Q686 390 496 438L391 461Q211 500 167 561T123 698Q123 838 204 917T510 1061Q644 1098 700 1124Q738 1143 788 1143Q832 1143 859 1114T887 1040Q887 1012 899 954Q911 900 911 870Q911 825 884 798T813 770Q774 770 750 791T711 915ZM738 1479Q483 1165 413 1165Q379 1165 351 1193T323 1257Q323 1297 359 1331T508 1491L651 1654Q682 1690 718 1690Q759 1690 802 1660T959 1511L1117 1341Q1144 1312 1144 1280Q1144 1245 1117 1218T1052 1190Q1010 1190 971 1237T738 1479Z"  />
<glyph unicode="&#x15E;" horiz-adv-x="1419" d="M623 -444Q513 -444 440 -403T367 -299Q367 -244 434 -244Q457 -244 516 -268Q574 -293 612 -293Q709 -293 709 -201Q709 -147 651 -99Q616 -71 574 -53Q415 -39 290 29Q133 116 133 250Q133 292 162 318T236 344Q285 344 322 289Q384 198 448 164T659 129Q830 129 973 212T1116 434Q1116 552 995 623T676 702Q486 711 375 790T264 1004Q264 1180 461 1323T864 1466Q983 1466 1114 1425T1245 1323Q1245 1237 1155 1237Q1109 1237 1016 1257Q916 1279 875 1279Q711 1279 597 1202T483 1014Q483 951 558 921T846 872Q1063 857 1192 739T1321 446Q1321 222 1125 82Q987 -15 812 -44Q864 -115 864 -197Q864 -444 623 -444Z"  />
<glyph unicode="&#x15F;" horiz-adv-x="997" d="M393 -444Q283 -444 210 -403T137 -299Q137 -244 204 -244Q227 -244 286 -268Q344 -293 382 -293Q479 -293 479 -201Q479 -147 421 -99Q385 -70 341 -52Q248 -40 166 -4Q41 51 41 139Q41 179 72 209T143 240Q172 240 223 193Q248 172 320 157T444 141Q544 141 615 169T686 254Q686 390 496 438L391 461Q211 500 167 561T123 698Q123 838 204 917T510 1061Q644 1098 700 1124Q738 1143 788 1143Q832 1143 859 1114T887 1040Q887 1012 899 954Q911 900 911 870Q911 825 884 798T813 770Q774 770 750 791T711 915L524 860Q429 832 374 787T317 686Q349 676 377 672Q649 625 766 523T883 254Q883 104 764 22Q690 -28 584 -47Q634 -117 634 -197Q634 -444 393 -444Z"  />
<glyph unicode="&#x160;" horiz-adv-x="1419" d="M236 344Q285 344 322 289Q384 198 448 164T659 129Q830 129 973 212T1116 434Q1116 552 995 623T676 702Q486 711 375 790T264 1004Q264 1180 461 1323T864 1466Q983 1466 1114 1425T1245 1323Q1245 1237 1155 1237Q1109 1237 1016 1257Q916 1279 875 1279Q711 1279 597 1202T483 1014Q483 951 558 921T846 872Q1063 857 1192 739T1321 446Q1321 222 1125 83T657 -57Q447 -57 290 29T133 250Q133 292 162 318T236 344ZM1101 2007Q1125 2028 1151 2028Q1180 2028 1203 2005T1226 1950Q1226 1926 1213 1909T1091 1794T935 1662T872 1627Q840 1627 807 1663L755 1727L639 1860Q557 1954 557 2003Q557 2034 580 2055T634 2077Q675 2077 698 2038Q731 1984 880 1811L1101 2007Z"  />
<glyph unicode="&#x161;" horiz-adv-x="997" d="M711 915L524 860Q429 832 374 787T317 686Q349 676 377 672Q649 625 766 523T883 254Q883 104 764 23T444 -59Q292 -59 167 -4T41 139Q41 179 72 209T143 240Q172 240 223 193Q248 172 320 157T444 141Q544 141 615 169T686 254Q686 390 496 438L391 461Q211 500 167 561T123 698Q123 838 204 917T510 1061Q644 1098 700 1124Q738 1143 788 1143Q832 1143 859 1114T887 1040Q887 1012 899 954Q911 900 911 870Q911 825 884 798T813 770Q774 770 750 791T711 915ZM736 1556Q760 1577 786 1577Q815 1577 838 1554T861 1499Q861 1475 848 1458T726 1343T570 1211T507 1176Q475 1176 442 1212L390 1276L274 1409Q192 1503 192 1552Q192 1583 215 1604T269 1626Q310 1626 333 1587Q366 1533 515 1360L736 1556Z"  />
<glyph unicode="&#x162;" horiz-adv-x="1393" d="M729 -444Q619 -444 546 -403T473 -299Q473 -244 540 -244Q563 -244 622 -268Q680 -293 718 -293Q815 -293 815 -201Q815 -147 757 -100T620 -35Q555 -20 555 39Q555 93 591 108Q592 120 595 138Q600 171 600 182Q600 232 594 328Q588 425 588 477Q588 607 565 879Q554 1007 543 1274L400 1270Q221 1263 122 1288T23 1386Q23 1433 50 1464T121 1495Q138 1495 178 1492Q352 1476 409 1476Q522 1476 684 1488Q780 1495 854 1495Q924 1495 1034 1491L1167 1489Q1208 1488 1258 1489T1338 1465T1368 1391Q1368 1343 1342 1314T1272 1284H1224Q1122 1284 1044 1288L964 1290H852Q832 1290 815 1288L745 1286Q750 1217 753 1105Q756 993 768 838Q791 533 791 387Q791 351 797 281Q803 209 803 174Q803 110 789 69Q825 48 859 18Q970 -78 970 -197Q970 -444 729 -444Z"  />
<glyph unicode="&#x163;" horiz-adv-x="965" d="M556 -444Q446 -444 373 -403T300 -299Q300 -244 367 -244Q390 -244 449 -268Q507 -293 545 -293Q642 -293 642 -201Q642 -147 584 -99Q552 -73 514 -56Q499 -63 481 -63Q438 -63 410 -37T381 27V75L387 256L369 840Q146 852 102 868T57 954Q57 999 83 1028T154 1057L362 1040Q362 1092 358 1176Q354 1262 354 1300Q354 1342 382 1369T455 1397Q544 1397 559 1249L561 1209V1161L559 1104V1040Q691 1057 700 1057Q822 1057 859 1037T897 952Q897 909 871 881T801 852L700 856Q665 856 565 842L586 207V156Q586 118 583 86Q636 62 686 18Q797 -78 797 -197Q797 -444 556 -444Z"  />
<glyph unicode="&#x164;" horiz-adv-x="1393" d="M1272 1284H1224Q1122 1284 1044 1288L964 1290H852Q832 1290 815 1288L745 1286Q750 1217 753 1105Q756 993 768 838Q791 533 791 387Q791 351 797 281Q803 209 803 174Q803 -8 694 -8Q655 -8 623 20T590 92Q590 104 595 138Q600 171 600 182Q600 232 594 328Q588 425 588 477Q588 607 565 879Q554 1007 543 1274L400 1270Q221 1263 122 1288T23 1386Q23 1433 50 1464T121 1495Q138 1495 178 1492Q352 1476 409 1476Q522 1476 684 1488Q780 1495 854 1495Q924 1495 1034 1491L1167 1489Q1208 1488 1258 1489T1338 1465T1368 1391Q1368 1343 1342 1314T1272 1284ZM864 2056Q888 2077 914 2077Q943 2077 966 2054T989 1999Q989 1975 976 1958T854 1843T698 1711T635 1676Q603 1676 570 1712L518 1776L402 1909Q320 2003 320 2052Q320 2083 343 2104T397 2126Q438 2126 461 2087Q494 2033 643 1860L864 2056Z"  />
<glyph unicode="&#x165;" horiz-adv-x="936" d="M778 1440Q690 1492 690 1569Q690 1623 727 1658T819 1694Q950 1694 950 1530Q950 1424 894 1309T762 1194Q690 1194 690 1266Q690 1305 754 1386Q769 1408 778 1440ZM565 842L586 207V156Q586 -63 481 -63Q438 -63 410 -37T381 27V75L387 256L369 840Q146 852 102 868T57 954Q57 999 83 1028T154 1057L362 1040Q362 1092 358 1176Q354 1262 354 1300Q354 1342 382 1369T455 1397Q544 1397 559 1249L561 1209V1161L559 1104V1040Q691 1057 700 1057Q822 1057 859 1037T897 952Q897 909 871 881T801 852L700 856Q665 856 565 842Z"  />
<glyph unicode="&#x166;" horiz-adv-x="1393" d="M1272 1284H1224Q1122 1284 1044 1288L964 1290H852Q832 1290 815 1288L745 1286Q750 1220 753 1116Q755 1012 766 870H772L946 862Q990 862 1018 835T1047 764Q1047 721 1019 693T946 664Q870 664 788 672H778Q791 484 791 387Q791 351 797 281Q803 209 803 174Q803 -8 694 -8Q655 -8 623 20T590 92Q590 104 595 138Q600 171 600 182Q600 232 594 328Q588 425 588 477Q588 587 580 680L381 664Q338 664 311 693T283 766Q283 818 334 848T565 879Q555 978 543 1274L400 1270Q221 1263 122 1288T23 1386Q23 1433 50 1464T121 1495Q138 1495 178 1492Q352 1476 409 1476Q522 1476 684 1488Q780 1495 854 1495Q924 1495 1034 1491L1167 1489Q1208 1488 1258 1489T1338 1465T1368 1391Q1368 1343 1342 1314T1272 1284Z"  />
<glyph unicode="&#x167;" horiz-adv-x="965" d="M565 842L569 680H571Q703 680 747 656T791 573Q791 530 763 502T690 473Q637 473 580 479H575L586 207V156Q586 -63 481 -63Q438 -63 410 -37T381 27V75L387 256L379 489Q281 473 254 473Q211 473 184 502T156 575Q156 685 373 688L369 840Q146 852 102 868T57 954Q57 999 83 1028T154 1057L362 1040Q362 1092 358 1176Q354 1262 354 1300Q354 1342 382 1369T455 1397Q544 1397 559 1249L561 1209V1161L559 1104V1040Q691 1057 700 1057Q822 1057 859 1037T897 952Q897 909 871 881T801 852L700 856Q665 856 565 842Z"  />
<glyph unicode="&#x168;" horiz-adv-x="1509" d="M340 1329V741Q340 135 764 135Q1163 135 1163 1155V1333Q1163 1503 1268 1503Q1368 1503 1368 1366V1118Q1368 -41 770 -41Q569 -41 435 33T233 252T150 564T135 1071Q135 1379 163 1438T248 1497Q340 1497 340 1329ZM764 1946L848 1842Q896 1782 961 1782Q1018 1782 1045 1819L1090 1907L1111 1967Q1121 1995 1172 1995Q1246 1995 1246 1921Q1246 1885 1183 1760T992 1635Q878 1635 821 1668T699 1799Q655 1856 605 1856Q544 1856 506 1809L461 1725Q437 1680 398 1680Q366 1680 343 1700T320 1751V1762Q320 1817 395 1911T605 2005Q705 2005 764 1946Z"  />
<glyph unicode="&#x169;" horiz-adv-x="1065" d="M954 584V367L956 240Q958 114 964 48Q970 -26 937 -53T864 -80Q787 -80 766 14Q642 -49 477 -49Q330 -49 239 23T128 325T109 668Q109 768 126 901T174 1050T233 1067Q277 1067 306 1040T336 969Q336 929 319 821Q305 732 305 668Q305 331 350 190Q414 154 477 154Q614 154 762 197L758 594Q755 863 774 962T874 1061Q919 1061 947 1032T973 963L954 584ZM535 1495L619 1391Q667 1331 732 1331Q789 1331 816 1368L861 1456L882 1516Q892 1544 943 1544Q1017 1544 1017 1470Q1017 1434 954 1309T763 1184Q649 1184 592 1217T470 1348Q426 1405 376 1405Q315 1405 277 1358L232 1274Q208 1229 169 1229Q137 1229 114 1249T91 1300V1311Q91 1366 166 1460T376 1554Q476 1554 535 1495Z"  />
<glyph unicode="&#x16A;" horiz-adv-x="1509" d="M340 1329V741Q340 135 764 135Q1163 135 1163 1155V1333Q1163 1503 1268 1503Q1368 1503 1368 1366V1118Q1368 -41 770 -41Q569 -41 435 33T233 252T150 564T135 1071Q135 1379 163 1438T248 1497Q340 1497 340 1329ZM788 1786H838Q869 1786 911 1788L982 1790Q1061 1792 1085 1776T1110 1715Q1110 1655 1044 1643L934 1637H719L489 1643Q418 1643 418 1719Q418 1764 447 1779T553 1794Q593 1794 669 1790Q751 1786 788 1786Z"  />
<glyph unicode="&#x16B;" horiz-adv-x="1065" d="M954 584V367L956 240Q958 114 964 48Q970 -26 937 -53T864 -80Q787 -80 766 14Q642 -49 477 -49Q330 -49 239 23T128 325T109 668Q109 768 126 901T174 1050T233 1067Q277 1067 306 1040T336 969Q336 929 319 821Q305 732 305 668Q305 331 350 190Q414 154 477 154Q614 154 762 197L758 594Q755 863 774 962T874 1061Q919 1061 947 1032T973 963L954 584ZM605 1335H655Q686 1335 728 1337L799 1339Q878 1341 902 1325T927 1264Q927 1204 861 1192L751 1186H536L306 1192Q235 1192 235 1268Q235 1313 264 1328T370 1343Q410 1343 486 1339Q568 1335 605 1335Z"  />
<glyph unicode="&#x16C;" horiz-adv-x="1509" d="M340 1329V741Q340 135 764 135Q1163 135 1163 1155V1333Q1163 1503 1268 1503Q1368 1503 1368 1366V1118Q1368 -41 770 -41Q569 -41 435 33T233 252T150 564T135 1071Q135 1379 163 1438T248 1497Q340 1497 340 1329ZM1131 2003Q1161 2003 1183 1984T1206 1930Q1206 1794 1074 1713T741 1631Q602 1631 493 1727T383 1964Q383 2040 457 2040Q532 2040 532 1964Q532 1889 595 1835T741 1780Q1013 1780 1057 1940Q1075 2003 1131 2003Z"  />
<glyph unicode="&#x16D;" horiz-adv-x="1065" d="M954 584V367L956 240Q958 114 964 48Q970 -26 937 -53T864 -80Q787 -80 766 14Q642 -49 477 -49Q330 -49 239 23T128 325T109 668Q109 768 126 901T174 1050T233 1067Q277 1067 306 1040T336 969Q336 929 319 821Q305 732 305 668Q305 331 350 190Q414 154 477 154Q614 154 762 197L758 594Q755 863 774 962T874 1061Q919 1061 947 1032T973 963L954 584ZM882 1552Q912 1552 934 1533T957 1479Q957 1343 825 1262T492 1180Q353 1180 244 1276T134 1513Q134 1589 208 1589Q283 1589 283 1513Q283 1438 346 1384T492 1329Q764 1329 808 1489Q826 1552 882 1552Z"  />
<glyph unicode="&#x16E;" horiz-adv-x="1509" d="M340 1329V741Q340 135 764 135Q1163 135 1163 1155V1333Q1163 1503 1268 1503Q1368 1503 1368 1366V1118Q1368 -41 770 -41Q569 -41 435 33T233 252T150 564T135 1071Q135 1379 163 1438T248 1497Q340 1497 340 1329ZM777 2208Q909 2208 998 2132T1088 1940Q1088 1637 730 1637Q581 1637 497 1717T412 1901Q412 2040 511 2124T777 2208ZM936 1940Q936 1994 887 2027T777 2061Q564 2061 564 1901Q564 1855 620 1820T744 1784Q936 1784 936 1940Z"  />
<glyph unicode="&#x16F;" horiz-adv-x="1065" d="M954 584V367L956 240Q958 114 964 48Q970 -26 937 -53T864 -80Q787 -80 766 14Q642 -49 477 -49Q330 -49 239 23T128 325T109 668Q109 768 126 901T174 1050T233 1067Q277 1067 306 1040T336 969Q336 929 319 821Q305 732 305 668Q305 331 350 190Q414 154 477 154Q614 154 762 197L758 594Q755 863 774 962T874 1061Q919 1061 947 1032T973 963L954 584ZM579 1757Q711 1757 800 1681T890 1489Q890 1186 532 1186Q383 1186 299 1266T214 1450Q214 1589 313 1673T579 1757ZM738 1489Q738 1543 689 1576T579 1610Q366 1610 366 1450Q366 1404 422 1369T546 1333Q738 1333 738 1489Z"  />
<glyph unicode="&#x170;" horiz-adv-x="1509" d="M340 1329V741Q340 135 764 135Q1163 135 1163 1155V1333Q1163 1503 1268 1503Q1368 1503 1368 1366V1118Q1368 -41 770 -41Q569 -41 435 33T233 252T150 564T135 1071Q135 1379 163 1438T248 1497Q340 1497 340 1329ZM617 1866L772 2020Q798 2046 828 2046Q859 2046 882 2023T905 1971Q905 1944 875 1910T760 1792Q681 1719 633 1663Q608 1635 576 1635Q545 1635 523 1657T500 1711Q500 1746 617 1866ZM1200 1874L1053 1733Q951 1635 910 1635Q882 1635 859 1658T836 1713Q836 1746 867 1770L1014 1911Q1123 2016 1163 2016Q1194 2016 1215 1993T1237 1938Q1237 1905 1200 1874Z"  />
<glyph unicode="&#x171;" horiz-adv-x="1065" d="M954 584V367L956 240Q958 114 964 48Q970 -26 937 -53T864 -80Q787 -80 766 14Q642 -49 477 -49Q330 -49 239 23T128 325T109 668Q109 768 126 901T174 1050T233 1067Q277 1067 306 1040T336 969Q336 929 319 821Q305 732 305 668Q305 331 350 190Q414 154 477 154Q614 154 762 197L758 594Q755 863 774 962T874 1061Q919 1061 947 1032T973 963L954 584ZM408 1415L563 1569Q589 1595 619 1595Q650 1595 673 1572T696 1520Q696 1493 666 1459T551 1341Q472 1268 424 1212Q399 1184 367 1184Q336 1184 314 1206T291 1260Q291 1295 408 1415ZM991 1423L844 1282Q742 1184 701 1184Q673 1184 650 1207T627 1262Q627 1295 658 1319L805 1460Q914 1565 954 1565Q985 1565 1006 1542T1028 1487Q1028 1454 991 1423Z"  />
<glyph unicode="&#x172;" horiz-adv-x="1509" d="M950 -271Q1026 -271 1084 -246Q1110 -234 1123 -234Q1154 -234 1175 -259T1196 -314Q1196 -364 1126 -398T938 -432Q813 -432 744 -366T674 -174Q674 -104 711 -39Q549 -30 435 33Q301 107 233 252T150 564T135 1071Q135 1379 163 1438T248 1497Q340 1497 340 1329V741Q340 135 764 135Q1163 135 1163 1155V1333Q1163 1503 1268 1503Q1368 1503 1368 1366V1118Q1368 157 957 -7Q943 -23 921 -44Q854 -106 854 -154Q854 -203 880 -237T950 -271Z"  />
<glyph unicode="&#x173;" horiz-adv-x="1065" d="M903 -341Q979 -341 1037 -316Q1063 -304 1076 -304Q1107 -304 1128 -329T1149 -384Q1149 -434 1079 -468T891 -502Q766 -502 697 -436T627 -244Q627 -139 711 -47Q741 -15 768 5Q767 9 766 14Q642 -49 477 -49Q330 -49 239 23T128 325T109 668Q109 768 126 901T174 1050T233 1067Q277 1067 306 1040T336 969Q336 929 319 821Q305 732 305 668Q305 331 350 190Q414 154 477 154Q614 154 762 197L758 594Q755 863 774 962T874 1061Q919 1061 947 1032T973 963L954 584V367L956 240Q958 114 964 48Q970 -26 936 -53Q929 -59 921 -64Q905 -85 874 -114Q807 -176 807 -224Q807 -273 833 -307T903 -341Z"  />
<glyph unicode="&#x174;" horiz-adv-x="2130" d="M1303 4Q1254 132 1243 201Q1229 304 1139 769Q1093 1003 1081 1120Q985 763 881 477Q769 173 754 90Q766 68 766 45Q766 2 729 -26T643 -55Q508 -55 508 66L477 193L369 682Q339 819 145 1393Q139 1414 139 1434Q139 1526 244 1526Q282 1526 314 1499T413 1262T535 811L641 350Q736 568 864 991Q951 1291 1006 1393T1118 1495Q1185 1495 1218 1428T1290 1016Q1303 919 1360 621L1438 209Q1573 542 1674 813L1786 1117Q1796 1150 1831 1288Q1887 1526 1995 1526Q2095 1526 2095 1425Q2095 1406 2064 1325L2023 1217L1968 1038L1671 317L1589 109Q1537 -22 1523 -44T1483 -81T1423 -96Q1371 -96 1337 -68T1303 4ZM1120 1930Q865 1616 795 1616Q761 1616 733 1644T705 1708Q705 1748 741 1782T890 1942L1033 2105Q1064 2141 1100 2141Q1141 2141 1184 2111T1341 1962L1499 1792Q1526 1763 1526 1731Q1526 1696 1499 1669T1434 1641Q1392 1641 1353 1688T1120 1930Z"  />
<glyph unicode="&#x175;" horiz-adv-x="1401" d="M700 647L618 457L467 43Q453 5 428 -14Q396 -76 332 -76Q210 -76 113 643L88 793Q76 865 76 944Q76 986 105 1013T176 1040Q240 1040 259 994T293 811L307 666L367 215Q484 546 596 926Q629 1036 711 1036Q790 1036 815 922T883 553Q918 334 954 160L1026 432L1155 977Q1169 1038 1241 1038Q1285 1038 1315 1009T1346 940L1335 895Q1285 687 1240 525T1153 225T1067 17T1000 -67T944 -82Q891 -82 837 5T733 424L700 647ZM721 1479Q466 1165 396 1165Q362 1165 334 1193T306 1257Q306 1297 342 1331T491 1491L634 1654Q665 1690 701 1690Q742 1690 785 1660T942 1511L1100 1341Q1127 1312 1127 1280Q1127 1245 1100 1218T1035 1190Q993 1190 954 1237T721 1479Z"  />
<glyph unicode="&#x176;" horiz-adv-x="1300" d="M596 469Q415 699 362 834Q313 954 213 1104Q47 1355 38 1375T29 1419Q29 1460 60 1491T131 1522Q178 1522 213 1475L295 1350Q440 1129 481 1056T551 907Q584 827 692 682L922 1239L1002 1400Q1043 1483 1063 1501T1122 1520Q1163 1520 1194 1491T1225 1419Q1225 1379 1171 1280Q1129 1204 1108 1161L936 737Q846 514 748 319L623 96L569 -12Q540 -70 481 -70Q440 -70 410 -40T379 31Q379 65 471 244L596 469ZM630 1930Q375 1616 305 1616Q271 1616 243 1644T215 1708Q215 1748 251 1782T400 1942L543 2105Q574 2141 610 2141Q651 2141 694 2111T851 1962L1009 1792Q1036 1763 1036 1731Q1036 1696 1009 1669T944 1641Q902 1641 863 1688T630 1930Z"  />
<glyph unicode="&#x177;" horiz-adv-x="1067" d="M686 143Q548 -156 489 -313L424 -508Q400 -580 334 -580Q290 -580 261 -553T231 -483Q231 -384 446 96L88 784L43 858Q16 902 16 936Q16 976 47 1007T119 1038Q151 1038 181 1015T326 790T555 332L702 676Q717 711 785 850T880 1015T940 1040Q981 1040 1012 1010T1044 942Q1044 920 1032 893L686 143ZM511 1479Q256 1165 186 1165Q152 1165 124 1193T96 1257Q96 1297 132 1331T281 1491L424 1654Q455 1690 491 1690Q532 1690 575 1660T732 1511L890 1341Q917 1312 917 1280Q917 1245 890 1218T825 1190Q783 1190 744 1237T511 1479Z"  />
<glyph unicode="&#x178;" horiz-adv-x="1300" d="M596 469Q415 699 362 834Q313 954 213 1104Q47 1355 38 1375T29 1419Q29 1460 60 1491T131 1522Q178 1522 213 1475L295 1350Q440 1129 481 1056T551 907Q584 827 692 682L922 1239L1002 1400Q1043 1483 1063 1501T1122 1520Q1163 1520 1194 1491T1225 1419Q1225 1379 1171 1280Q1129 1204 1108 1161L936 737Q846 514 748 319L623 96L569 -12Q540 -70 481 -70Q440 -70 410 -40T379 31Q379 65 471 244L596 469ZM1041 1741Q1041 1649 897 1649Q860 1649 825 1672T789 1735Q789 1796 820 1815T936 1835Q971 1835 1006 1804T1041 1741ZM529 1723Q529 1691 489 1665T410 1639Q287 1639 287 1741Q287 1770 323 1798T398 1827Q529 1827 529 1723Z"  />
<glyph unicode="&#x179;" horiz-adv-x="1419" d="M1130 1159Q975 1054 719 709L319 127L709 141Q1071 154 1098 154Q1262 154 1319 134T1376 51Q1376 6 1346 -18T1270 -43Q1240 -43 1182 -39L1131 -37L182 -51Q68 -51 68 49Q68 118 129 215L598 866Q798 1145 1014 1325L664 1305H258Q214 1305 172 1307T109 1335T88 1405Q88 1457 120 1483T252 1509Q338 1509 457 1495Q578 1481 664 1481Q770 1481 893 1489Q1047 1499 1124 1499Q1382 1499 1382 1403Q1382 1338 1266 1251L1130 1159ZM573 1780Q573 1813 604 1843Q649 1890 735 2003Q777 2061 836 2113T935 2165Q969 2165 997 2137T1026 2073Q1026 2032 987 2001Q910 1939 852 1858Q728 1688 663 1688Q628 1688 601 1716T573 1780Z"  />
<glyph unicode="&#x17A;" horiz-adv-x="1102" d="M500 166Q604 170 682 170Q723 170 799 154Q870 139 915 139Q959 139 986 112T1014 39Q1014 -6 987 -33T915 -61Q866 -61 799 -47Q733 -33 682 -33Q465 -33 256 -74Q234 -78 219 -78Q123 -78 123 8Q123 59 172 104Q436 344 739 840Q607 831 547 831Q476 831 335 842T174 886T154 952Q154 997 181 1027T250 1057Q306 1057 397 1044Q496 1032 547 1032Q612 1032 750 1042Q902 1053 954 1053Q1040 1053 1040 981Q1040 899 965 809Q854 675 735 500Q567 250 500 166ZM432 1280Q432 1313 463 1343Q508 1390 594 1503Q636 1561 695 1613T794 1665Q828 1665 856 1637T885 1573Q885 1532 846 1501Q769 1439 711 1358Q587 1188 522 1188Q487 1188 460 1216T432 1280Z"  />
<glyph unicode="&#x17B;" horiz-adv-x="1419" d="M1130 1159Q975 1054 719 709L319 127L709 141Q1071 154 1098 154Q1262 154 1319 134T1376 51Q1376 6 1346 -18T1270 -43Q1240 -43 1182 -39L1131 -37L182 -51Q68 -51 68 49Q68 118 129 215L598 866Q798 1145 1014 1325L664 1305H258Q214 1305 172 1307T109 1335T88 1405Q88 1457 120 1483T252 1509Q338 1509 457 1495Q578 1481 664 1481Q770 1481 893 1489Q1047 1499 1124 1499Q1382 1499 1382 1403Q1382 1338 1266 1251L1130 1159ZM764 1635Q731 1635 678 1683T624 1762Q624 1798 660 1827T731 1856Q763 1856 815 1807T868 1729Q868 1694 835 1665T764 1635Z"  />
<glyph unicode="&#x17C;" horiz-adv-x="1102" d="M500 166Q604 170 682 170Q723 170 799 154Q870 139 915 139Q959 139 986 112T1014 39Q1014 -6 987 -33T915 -61Q866 -61 799 -47Q733 -33 682 -33Q465 -33 256 -74Q234 -78 219 -78Q123 -78 123 8Q123 59 172 104Q436 344 739 840Q607 831 547 831Q476 831 335 842T174 886T154 952Q154 997 181 1027T250 1057Q306 1057 397 1044Q496 1032 547 1032Q612 1032 750 1042Q902 1053 954 1053Q1040 1053 1040 981Q1040 899 965 809Q854 675 735 500Q567 250 500 166ZM645 1184Q612 1184 559 1232T505 1311Q505 1347 541 1376T612 1405Q644 1405 696 1356T749 1278Q749 1243 716 1214T645 1184Z"  />
<glyph unicode="&#x17D;" horiz-adv-x="1419" d="M1130 1159Q975 1054 719 709L319 127L709 141Q1071 154 1098 154Q1262 154 1319 134T1376 51Q1376 6 1346 -18T1270 -43Q1240 -43 1182 -39L1131 -37L182 -51Q68 -51 68 49Q68 118 129 215L598 866Q798 1145 1014 1325L664 1305H258Q214 1305 172 1307T109 1335T88 1405Q88 1457 120 1483T252 1509Q338 1509 457 1495Q578 1481 664 1481Q770 1481 893 1489Q1047 1499 1124 1499Q1382 1499 1382 1403Q1382 1338 1266 1251L1130 1159ZM985 2105Q1009 2126 1035 2126Q1064 2126 1087 2103T1110 2048Q1110 2024 1097 2007T975 1892T819 1760T756 1725Q724 1725 691 1761L639 1825L523 1958Q441 2052 441 2101Q441 2132 464 2153T518 2175Q559 2175 582 2136Q615 2082 764 1909L985 2105Z"  />
<glyph unicode="&#x17E;" horiz-adv-x="1102" d="M500 166Q604 170 682 170Q723 170 799 154Q870 139 915 139Q959 139 986 112T1014 39Q1014 -6 987 -33T915 -61Q866 -61 799 -47Q733 -33 682 -33Q465 -33 256 -74Q234 -78 219 -78Q123 -78 123 8Q123 59 172 104Q436 344 739 840Q607 831 547 831Q476 831 335 842T174 886T154 952Q154 997 181 1027T250 1057Q306 1057 397 1044Q496 1032 547 1032Q612 1032 750 1042Q902 1053 954 1053Q1040 1053 1040 981Q1040 899 965 809Q854 675 735 500Q567 250 500 166ZM810 1556Q834 1577 860 1577Q889 1577 912 1554T935 1499Q935 1475 922 1458T800 1343T644 1211T581 1176Q549 1176 516 1212L464 1276L348 1409Q266 1503 266 1552Q266 1583 289 1604T343 1626Q384 1626 407 1587Q440 1533 589 1360L810 1556Z"  />
<glyph unicode="&#x192;" horiz-adv-x="946" d="M301 639Q205 631 156 631Q74 631 74 702Q74 796 176 817L352 829Q436 1136 506 1274T687 1486T942 1561Q1065 1561 1065 1491Q1065 1370 915 1370Q798 1370 710 1267T545 846Q707 856 750 856Q887 856 887 782Q887 732 858 703T796 670T637 666L496 655L424 287Q373 24 324 -77T171 -254T-70 -358L-82 -360Q-117 -366 -150 -339T-184 -264Q-184 -195 -111 -174Q34 -135 104 -58T219 223L301 639Z"  />
<glyph unicode="&#x218;" horiz-adv-x="1419" d="M236 344Q285 344 322 289Q384 198 448 164T659 129Q830 129 973 212T1116 434Q1116 552 995 623T676 702Q486 711 375 790T264 1004Q264 1180 461 1323T864 1466Q983 1466 1114 1425T1245 1323Q1245 1237 1155 1237Q1109 1237 1016 1257Q916 1279 875 1279Q711 1279 597 1202T483 1014Q483 951 558 921T846 872Q1063 857 1192 739T1321 446Q1321 222 1125 83T657 -57Q447 -57 290 29T133 250Q133 292 162 318T236 344ZM669 -352Q561 -290 561 -223Q561 -169 598 -134T690 -98Q756 -98 798 -139T841 -262Q841 -327 771 -452T633 -578Q561 -578 561 -506Q561 -468 603 -427Q666 -367 669 -352Z"  />
<glyph unicode="&#x219;" horiz-adv-x="997" d="M711 915L524 860Q429 832 374 787T317 686Q349 676 377 672Q649 625 766 523T883 254Q883 104 764 23T444 -59Q292 -59 167 -4T41 139Q41 179 72 209T143 240Q172 240 223 193Q248 172 320 157T444 141Q544 141 615 169T686 254Q686 390 496 438L391 461Q211 500 167 561T123 698Q123 838 204 917T510 1061Q644 1098 700 1124Q738 1143 788 1143Q832 1143 859 1114T887 1040Q887 1012 899 954Q911 900 911 870Q911 825 884 798T813 770Q774 770 750 791T711 915ZM450 -352Q342 -290 342 -223Q342 -169 379 -134T471 -98Q537 -98 579 -139T622 -262Q622 -327 552 -452T414 -578Q342 -578 342 -506Q342 -468 384 -427Q447 -367 450 -352Z"  />
<glyph unicode="&#x21A;" horiz-adv-x="1393" d="M1272 1284H1224Q1122 1284 1044 1288L964 1290H852Q832 1290 815 1288L745 1286Q750 1217 753 1105Q756 993 768 838Q791 533 791 387Q791 351 797 281Q803 209 803 174Q803 -8 694 -8Q655 -8 623 20T590 92Q590 104 595 138Q600 171 600 182Q600 232 594 328Q588 425 588 477Q588 607 565 879Q554 1007 543 1274L400 1270Q221 1263 122 1288T23 1386Q23 1433 50 1464T121 1495Q138 1495 178 1492Q352 1476 409 1476Q522 1476 684 1488Q780 1495 854 1495Q924 1495 1034 1491L1167 1489Q1208 1488 1258 1489T1338 1465T1368 1391Q1368 1343 1342 1314T1272 1284ZM664 -352Q556 -290 556 -223Q556 -169 593 -134T685 -98Q751 -98 793 -139T836 -262Q836 -327 766 -452T628 -578Q556 -578 556 -506Q556 -468 598 -427Q661 -367 664 -352Z"  />
<glyph unicode="&#x21B;" horiz-adv-x="965" d="M565 842L586 207V156Q586 -63 481 -63Q438 -63 410 -37T381 27V75L387 256L369 840Q146 852 102 868T57 954Q57 999 83 1028T154 1057L362 1040Q362 1092 358 1176Q354 1262 354 1300Q354 1342 382 1369T455 1397Q544 1397 559 1249L561 1209V1161L559 1104V1040Q691 1057 700 1057Q822 1057 859 1037T897 952Q897 909 871 881T801 852L700 856Q665 856 565 842ZM450 -352Q342 -290 342 -223Q342 -169 379 -134T471 -98Q537 -98 579 -139T622 -262Q622 -327 552 -452T414 -578Q342 -578 342 -506Q342 -468 384 -427Q447 -367 450 -352Z"  />
<glyph unicode="&#x2C6;" horiz-adv-x="1139" d="M610 1479Q355 1165 285 1165Q251 1165 223 1193T195 1257Q195 1297 231 1331T380 1491L523 1654Q554 1690 590 1690Q631 1690 674 1660T831 1511L989 1341Q1016 1312 1016 1280Q1016 1245 989 1218T924 1190Q882 1190 843 1237T610 1479Z"  />
<glyph unicode="&#x2C7;" horiz-adv-x="1139" d="M829 1556Q853 1577 879 1577Q908 1577 931 1554T954 1499Q954 1475 941 1458T819 1343T663 1211T600 1176Q568 1176 535 1212L483 1276L367 1409Q285 1503 285 1552Q285 1583 308 1604T362 1626Q403 1626 426 1587Q459 1533 608 1360L829 1556Z"  />
<glyph unicode="&#x2C9;" horiz-adv-x="1139" d="M649 1335H699Q730 1335 772 1337L843 1339Q922 1341 946 1325T971 1264Q971 1204 905 1192L795 1186H580L350 1192Q279 1192 279 1268Q279 1313 308 1328T414 1343Q454 1343 530 1339Q612 1335 649 1335Z"  />
<glyph unicode="&#x2D8;" horiz-adv-x="1139" d="M961 1552Q991 1552 1013 1533T1036 1479Q1036 1343 904 1262T571 1180Q432 1180 323 1276T213 1513Q213 1589 287 1589Q362 1589 362 1513Q362 1438 425 1384T571 1329Q843 1329 887 1489Q905 1552 961 1552Z"  />
<glyph unicode="&#x2D9;" horiz-adv-x="1139" d="M455 1184Q422 1184 369 1232T315 1311Q315 1347 351 1376T422 1405Q454 1405 506 1356T559 1278Q559 1243 526 1214T455 1184Z"  />
<glyph unicode="&#x2DA;" horiz-adv-x="1139" d="M627 1757Q759 1757 848 1681T938 1489Q938 1186 580 1186Q431 1186 347 1266T262 1450Q262 1589 361 1673T627 1757ZM786 1489Q786 1543 737 1576T627 1610Q414 1610 414 1450Q414 1404 470 1369T594 1333Q786 1333 786 1489Z"  />
<glyph unicode="&#x2DB;" horiz-adv-x="1139" d="M575 -279Q651 -279 709 -254Q735 -242 748 -242Q779 -242 800 -267T821 -322Q821 -372 751 -406T563 -440Q438 -440 369 -374T299 -182Q299 -77 383 14T535 106Q565 106 588 88T612 37Q612 10 546 -52Q479 -114 479 -162Q479 -211 505 -245T575 -279Z"  />
<glyph unicode="&#x2DC;" horiz-adv-x="1139" d="M614 1495L698 1391Q746 1331 811 1331Q868 1331 895 1368L940 1456L961 1516Q971 1544 1022 1544Q1096 1544 1096 1470Q1096 1434 1033 1309T842 1184Q728 1184 671 1217T549 1348Q505 1405 455 1405Q394 1405 356 1358L311 1274Q287 1229 248 1229Q216 1229 193 1249T170 1300V1311Q170 1366 245 1460T455 1554Q555 1554 614 1495Z"  />
<glyph unicode="&#x2DD;" horiz-adv-x="1139" d="M328 1415L483 1569Q509 1595 539 1595Q570 1595 593 1572T616 1520Q616 1493 586 1459T471 1341Q392 1268 344 1212Q319 1184 287 1184Q256 1184 234 1206T211 1260Q211 1295 328 1415ZM911 1423L764 1282Q662 1184 621 1184Q593 1184 570 1207T547 1262Q547 1295 578 1319L725 1460Q834 1565 874 1565Q905 1565 926 1542T948 1487Q948 1454 911 1423Z"  />
<glyph unicode="&#x394;" horiz-adv-x="1552" d="M901 1563L967 1405L1223 844Q1310 652 1419 382T1528 45Q1528 -72 1372 -72Q1317 -72 1200 -61L1028 -43Q952 -35 801 -35H709Q654 -35 580 -37L452 -39Q279 -42 231 -45Q164 -53 104 -53Q25 -53 25 18Q25 63 150 328L309 666L545 1251L629 1474Q671 1584 708 1623T788 1663Q849 1663 901 1563ZM1325 125Q1229 395 1071 731L791 1327Q637 921 528 666L420 410Q361 269 297 160L803 164Q981 165 1325 125Z"  />
<glyph unicode="&#x3A9;" horiz-adv-x="1966" d="M508 106Q378 394 341 529T303 840Q303 1162 598 1396T1245 1630Q1516 1630 1641 1485T1767 1012Q1767 754 1684 539T1407 94Q1769 94 1835 70T1901 -20Q1901 -62 1874 -91T1804 -121Q1726 -121 1632 -113Q1529 -104 1458 -104H1420L1276 -109Q1230 -109 1191 -59T1151 43Q1151 96 1249 217L1391 383Q1451 453 1510 640T1569 1098Q1569 1273 1492 1352T1245 1432Q986 1432 744 1257T502 840Q502 673 569 469T723 125Q752 77 752 51Q752 -1 733 -31T681 -71T451 -110T162 -139Q122 -139 94 -111T66 -39Q66 31 123 50T508 106Z"  />
<glyph unicode="&#x3BC;" horiz-adv-x="1065" d="M301 -14Q309 -101 315 -147Q328 -225 328 -279Q328 -401 225 -401Q124 -401 127 -236L139 258L124 406Q109 575 109 668Q109 753 124 886T168 1043T233 1067Q277 1067 306 1040T336 969Q336 925 319 817Q305 731 305 668Q305 331 350 190Q417 154 477 154Q614 154 762 197L758 594Q755 856 773 958T874 1061Q918 1061 946 1032T973 963L954 584V525Q954 472 956 369V152Q956 138 964 48Q974 -80 864 -80Q787 -80 766 14Q642 -49 477 -49Q379 -49 301 -14Z"  />
<glyph unicode="&#x3C0;" horiz-adv-x="1286" d="M987 434Q969 314 969 190Q977 173 1034 129Q1079 96 1079 61Q1079 -33 985 -33Q905 -33 841 24T776 162Q776 272 795 420L858 848L549 858L485 406L475 235Q461 44 452 16T422 -27T367 -43Q325 -43 297 -17T268 49L358 860Q270 857 215 811Q164 766 135 766Q97 766 67 794T37 860Q37 925 130 987T412 1049L961 1040H1001Q1025 1040 1057 1042L1113 1044Q1207 1047 1230 1020T1253 948Q1253 892 1210 870T1049 848L987 434Z"  />
<glyph unicode="&#x2013;" horiz-adv-x="903" d="M160 545H143Q100 545 72 572T43 645Q43 715 110 737T397 760Q451 760 563 750Q664 741 729 741Q772 741 799 714T827 643Q827 600 800 573T729 545Q674 545 563 551Q473 559 397 559Q251 559 160 545Z"  />
<glyph unicode="&#x2014;" horiz-adv-x="1808" d="M1124 733L1358 739L1563 748H1620Q1708 748 1708 655Q1708 545 1534 545H1498L1358 551H1109Q961 551 762 549L416 547H165Q114 548 91 574T68 645Q68 716 114 732T391 748Q513 748 756 739Q1002 733 1124 733Z"  />
<glyph unicode="&#x2018;" horiz-adv-x="369" d="M78 1485Q78 1587 160 1587Q197 1587 219 1565T247 1496L269 1338Q283 1228 283 1196Q283 1094 201 1094Q164 1094 142 1117T112 1190T91 1349T78 1485Z"  />
<glyph unicode="&#x2019;" horiz-adv-x="369" d="M82 1329L119 1505Q135 1583 195 1583Q276 1583 276 1482Q276 1420 245 1280T189 1117T137 1094Q57 1094 57 1186Q57 1217 82 1329Z"  />
<glyph unicode="&#x201A;" horiz-adv-x="612" d="M82 -100Q82 -35 169 94T313 223Q350 223 378 196T406 133Q406 99 336 16Q263 -73 258 -109Q249 -195 170 -195Q82 -195 82 -100Z"  />
<glyph unicode="&#x201C;" horiz-adv-x="807" d="M563 1540L623 1350Q668 1208 668 1180Q668 1142 641 1116T575 1090Q544 1090 523 1105T488 1152T428 1346T381 1526Q381 1564 409 1590T475 1616Q548 1616 563 1540ZM252 1522L348 1184Q354 1164 328 1128T254 1092Q210 1092 188 1121T119 1313T72 1499Q72 1536 99 1561T168 1587Q231 1587 252 1522Z"  />
<glyph unicode="&#x201D;" horiz-adv-x="807" d="M727 1491L668 1270Q645 1183 633 1083Q624 997 543 997Q449 997 449 1090Q449 1163 495 1341T564 1549T631 1579Q670 1579 698 1553T727 1491ZM383 1491L324 1270Q301 1183 289 1083Q280 997 199 997Q157 997 131 1022T104 1090Q104 1169 153 1347T223 1552T287 1579Q326 1579 354 1553T383 1491Z"  />
<glyph unicode="&#x201E;" horiz-adv-x="844" d="M82 -100Q82 -35 169 94T313 223Q350 223 378 196T406 133Q406 99 336 16Q263 -73 258 -109Q249 -195 170 -195Q82 -195 82 -100ZM436 -100Q436 -34 523 94T670 223Q708 223 735 195T762 133Q762 102 690 16Q618 -73 614 -109Q605 -195 526 -195Q436 -195 436 -100Z"  />
<glyph unicode="&#x2020;" horiz-adv-x="1223" d="M668 -109Q668 -147 641 -178T567 -209Q469 -209 469 -109V469L479 983L342 981Q143 978 97 1010T51 1090Q51 1132 78 1161T147 1190Q179 1190 244 1184Q308 1180 342 1180L489 1182L502 1597Q505 1698 600 1698Q643 1698 670 1670T698 1597L686 1178Q805 1171 842 1171Q878 1171 952 1180Q1026 1190 1061 1190Q1104 1190 1130 1161T1157 1090Q1157 1025 1093 1000T850 975L680 979L670 463L668 -109Z"  />
<glyph unicode="&#x2021;" horiz-adv-x="1223" d="M469 666L487 1133H350Q177 1133 117 1152T57 1239Q57 1282 84 1311T156 1341Q185 1341 250 1335Q314 1329 348 1329L496 1331L502 1597Q503 1642 530 1670T600 1698Q643 1698 670 1670T698 1597L694 1327Q796 1323 850 1323Q902 1323 958 1331Q1034 1341 1069 1341Q1111 1341 1138 1311T1165 1239Q1165 1186 1110 1155T856 1124L686 1128L668 659Q910 659 988 647T1067 553Q1067 510 1041 482T971 453Q921 453 819 457L668 463V-109Q668 -152 640 -180T567 -209Q524 -209 497 -181T469 -109V469H401Q307 469 242 455Q226 451 215 451Q174 451 148 481T121 553Q121 668 371 668L469 666Z"  />
<glyph unicode="&#x2022;" horiz-adv-x="793" d="M383 958Q467 958 525 900T584 758Q584 675 526 616T383 557Q299 557 241 616T182 758Q182 842 240 900T383 958Z"  />
<glyph unicode="&#x2026;" horiz-adv-x="1382" d="M1030 14Q1030 30 1039 56Q1048 83 1049 90Q1059 162 1145 162Q1241 162 1241 86Q1241 -59 1130 -59Q1090 -59 1060 -38T1030 14ZM598 18V84Q598 158 696 158Q793 158 793 84V18Q793 -55 696 -55Q598 -55 598 18ZM178 6V63Q178 137 274 137Q373 137 373 63V6Q373 -68 274 -68Q178 -68 178 6Z"  />
<glyph unicode="&#x2030;" horiz-adv-x="2542" d="M147 1370Q147 1466 245 1554T446 1642Q591 1642 675 1547T760 1307Q760 1191 666 1116T442 1040Q308 1040 228 1132T147 1370ZM313 1370Q313 1208 442 1208Q498 1208 545 1234T592 1307Q592 1475 442 1475Q395 1475 354 1443T313 1370ZM731 786L1001 1386Q1062 1522 1094 1563T1165 1604Q1197 1604 1224 1579T1251 1518Q1251 1498 1235 1468Q1203 1415 1155 1309L1083 1147L887 723L662 250L609 128Q548 -13 525 -22T485 -31Q453 -31 426 -6T399 51Q399 110 563 438Q710 735 731 786ZM1702 287Q1702 437 1789 536T2019 635Q2159 635 2264 553T2370 342Q2370 191 2273 88T2021 -16Q1878 -16 1790 69T1702 287ZM1870 287Q1870 152 2044 152Q2204 152 2204 342Q2204 394 2146 431T2019 469Q1947 469 1909 417T1870 287ZM940 283Q940 432 1027 532T1257 633Q1400 633 1505 549T1610 338Q1610 186 1513 84T1260 -18Q1118 -18 1029 65T940 283ZM1108 283Q1108 147 1282 147Q1442 147 1442 338Q1442 392 1385 428T1257 465Q1187 465 1148 413T1108 283Z"  />
<glyph unicode="&#x2039;" horiz-adv-x="780" d="M385 614Q433 580 522 487Q602 402 653 354Q690 324 690 287Q690 249 663 222T600 195Q572 195 533 226T375 381Q273 487 180 522Q106 551 106 604Q106 655 174 688Q269 734 379 850Q530 1009 561 1035T623 1061Q660 1061 687 1034T715 969Q715 947 704 931T601 821T385 614Z"  />
<glyph unicode="&#x203A;" horiz-adv-x="780" d="M434 614Q313 726 221 819T118 930T106 969Q106 1006 134 1033T197 1061Q227 1061 260 1033T440 850Q552 735 645 688Q715 655 715 604Q715 550 639 522Q545 485 444 381Q314 245 281 220T219 195Q184 195 157 222T129 287Q129 324 164 354Q200 386 297 487Q386 580 434 614Z"  />
<glyph unicode="&#x2044;" horiz-adv-x="102" d="M-692 100L-522 272L-217 610Q-134 702 -43 793Q61 886 225 1106Q489 1450 575 1532L631 1604Q661 1642 698 1642Q732 1642 757 1619T782 1565Q782 1515 700 1436Q655 1391 535 1241L285 924Q163 770 14 625L-174 419Q-288 295 -354 217Q-499 55 -556 7T-639 -41Q-673 -41 -697 -16T-721 43Q-721 73 -692 100Z"  />
<glyph unicode="&#x20AC;" horiz-adv-x="1249" d="M555 1028H1004Q1092 1028 1092 938Q1092 901 1067 876T1004 850H477Q439 736 434 680L788 676Q828 676 853 651T879 588Q879 550 853 524T788 498Q748 498 420 502Q426 318 492 244T696 170Q775 170 827 197T985 313Q1043 362 1083 362Q1125 362 1154 331T1184 258Q1184 191 1027 78T696 -35Q472 -35 346 114T219 504L154 500Q114 496 88 496Q-4 496 -4 586Q-4 628 31 655T231 682Q250 783 268 850L84 846Q46 846 21 872T-4 936Q-4 978 29 1000T110 1025T334 1028Q566 1550 938 1550Q1035 1550 1094 1532Q1126 1583 1186 1583Q1231 1583 1259 1531T1288 1296Q1288 1186 1190 1186Q1127 1186 1094 1260Q1065 1328 1039 1341T938 1354Q737 1354 555 1028Z"  />
<glyph unicode="&#x2113;" horiz-adv-x="1001" d="M233 610Q150 580 127 580Q85 580 53 603T20 657Q20 694 36 722T93 767T233 831V874Q233 1333 313 1486T541 1640Q670 1640 749 1534T829 1276Q829 937 430 705V545Q430 158 629 158Q642 158 687 174Q732 190 745 190Q783 190 807 162T831 96Q831 29 770 -6T629 -41Q433 -41 333 92T233 610ZM430 930Q631 1053 631 1276Q631 1335 605 1388T541 1442Q439 1442 430 930Z"  />
<glyph unicode="&#x2122;" horiz-adv-x="1808" d="M1473 1321Q1314 864 1214 864Q1177 864 1156 909T1110 1124Q1087 1267 1073 1319Q944 870 840 870Q809 870 787 893T764 946Q764 967 780 993Q855 1101 899 1262L983 1542Q999 1595 1053 1595Q1148 1595 1198 1401L1249 1128Q1264 1147 1307 1292Q1368 1493 1404 1551T1477 1610Q1533 1610 1548 1548L1616 1317L1661 1135Q1680 1057 1733 961Q1745 938 1745 920Q1745 892 1722 869T1667 846Q1596 846 1538 1049L1473 1321ZM549 1430Q544 1352 552 1242T561 1096Q561 1064 573 1004Q588 946 588 922Q588 891 565 871T510 850Q443 850 428 922L418 1110L403 1272Q394 1369 397 1430Q356 1430 272 1436Q208 1444 152 1444Q78 1444 78 1518Q78 1591 152 1591Q189 1591 260 1585Q330 1579 369 1579L694 1583L814 1591Q930 1597 930 1518Q930 1452 863 1444T549 1430Z"  />
<glyph unicode="&#x2126;" horiz-adv-x="1966" d="M508 106Q378 394 341 529T303 840Q303 1162 598 1396T1245 1630Q1516 1630 1641 1485T1767 1012Q1767 754 1684 539T1407 94Q1769 94 1835 70T1901 -20Q1901 -62 1874 -91T1804 -121Q1726 -121 1632 -113Q1529 -104 1458 -104H1420L1276 -109Q1230 -109 1191 -59T1151 43Q1151 96 1249 217L1391 383Q1451 453 1510 640T1569 1098Q1569 1273 1492 1352T1245 1432Q986 1432 744 1257T502 840Q502 673 569 469T723 125Q752 77 752 51Q752 -1 733 -31T681 -71T451 -110T162 -139Q122 -139 94 -111T66 -39Q66 31 123 50T508 106Z"  />
<glyph unicode="&#x212E;" horiz-adv-x="1124" d="M250 537V166Q400 43 557 43Q655 43 781 90T944 180L991 127Q829 -20 561 -20Q345 -20 203 129T61 522Q61 778 208 935T563 1092Q797 1092 930 924T1063 537H250ZM881 604V887Q761 1028 565 1028Q382 1028 250 887V604H881Z"  />
<glyph unicode="&#x2202;" horiz-adv-x="1042" d="M688 924Q566 1189 442 1296L358 1362Q309 1401 309 1446Q309 1484 336 1511T399 1538Q469 1538 629 1339T890 925T991 545Q991 285 877 122T557 -41Q410 -41 297 82T184 358Q184 572 331 728T688 924ZM756 764L606 719Q515 692 440 605T365 358Q365 271 426 204T557 137Q813 137 813 545Q813 603 756 764Z"  />
<glyph unicode="&#x2206;" horiz-adv-x="1552" d="M901 1563L967 1405L1223 844Q1310 652 1419 382T1528 45Q1528 -72 1372 -72Q1317 -72 1200 -61L1028 -43Q952 -35 801 -35H709Q654 -35 580 -37L452 -39Q279 -42 231 -45Q164 -53 104 -53Q25 -53 25 18Q25 63 150 328L309 666L545 1251L629 1474Q671 1584 708 1623T788 1663Q849 1663 901 1563ZM1325 125Q1229 395 1071 731L791 1327Q637 921 528 666L420 410Q361 269 297 160L803 164Q981 165 1325 125Z"  />
<glyph unicode="&#x220F;" horiz-adv-x="1538" d="M371 1362Q399 852 399 659Q399 611 393 524Q383 359 385 220T387 -18V-104Q387 -264 285 -264Q223 -264 204 -228T184 -82V175Q184 322 190 445Q191 478 195 526Q201 610 201 659Q201 755 172 1366L155 1400Q143 1421 143 1464Q143 1569 303 1569Q381 1569 495 1561Q609 1552 647 1552L1225 1550Q1370 1549 1370 1452Q1370 1421 1363 1322T1356 899Q1356 792 1366 580Q1376 366 1376 260V231Q1376 -24 1384 -68Q1395 -138 1395 -166Q1395 -208 1367 -236T1294 -264Q1212 -264 1195 -166T1178 260Q1178 345 1167 580Q1157 792 1157 899Q1157 998 1166 1190Q1169 1262 1169 1289Q1169 1327 1165 1341T1100 1356Q521 1356 371 1362Z"  />
<glyph unicode="&#x2211;" horiz-adv-x="1530" d="M692 631Q630 689 561 807Q496 915 342 1057Q187 1201 137 1267T86 1370Q86 1426 138 1456T258 1487Q492 1487 764 1479Q1101 1473 1270 1473Q1312 1473 1339 1443T1366 1370Q1366 1268 1184 1268Q1081 1268 963 1276Q846 1284 743 1284L399 1282L580 1104Q674 1011 733 905Q782 819 817 786L920 698Q954 669 954 627Q954 574 895 535Q759 438 621 242L387 -86Q637 -102 887 -102Q986 -102 1122 -109Q1279 -115 1356 -115Q1401 -115 1428 -142T1456 -213Q1456 -256 1429 -284T1356 -313Q1179 -313 813 -297Q447 -281 268 -281Q249 -281 207 -288Q165 -295 147 -295Q108 -295 77 -264T45 -193Q45 -165 145 -43L350 209L477 381Q621 573 692 631Z"  />
<glyph unicode="&#x2212;" horiz-adv-x="983" d="M750 737Q913 737 913 643Q913 606 889 579T827 551Q814 551 771 558Q743 562 477 553Q295 547 203 547Q47 547 47 639Q47 692 78 708T203 725Q260 725 377 731Q497 737 555 737L627 731Q638 731 723 736Q740 737 750 737Z"  />
<glyph unicode="&#x2215;" horiz-adv-x="1049" d="M961 1483L848 1210Q736 940 657 784L438 371L258 -31Q232 -90 176 -90Q138 -90 111 -64T84 -2Q84 86 385 649Q604 1062 680 1272Q812 1626 879 1626Q910 1626 940 1602T971 1538Q971 1517 961 1483Z"  />
<glyph unicode="&#x2219;" horiz-adv-x="793" d="M383 958Q467 958 525 900T584 758Q584 675 526 616T383 557Q299 557 241 616T182 758Q182 842 240 900T383 958Z"  />
<glyph unicode="&#x221A;" horiz-adv-x="1243" d="M332 258L451 616Q514 805 545 983L594 1272Q605 1338 633 1442T687 1583T762 1620Q816 1620 930 1624Q1044 1630 1100 1630Q1202 1630 1202 1530Q1202 1478 1170 1453T1030 1427Q1011 1427 936 1434Q862 1441 844 1438Q802 1297 741 948Q702 733 537 244L459 2Q436 -70 365 -70Q267 -70 158 143T49 442Q49 486 79 512T152 539Q222 539 248 459Q286 339 332 258Z"  />
<glyph unicode="&#x221E;" horiz-adv-x="1714" d="M854 770Q940 869 1021 909T1221 950Q1377 950 1471 864T1565 631Q1565 488 1475 399T1237 309Q1091 309 985 408L860 528Q718 305 498 305Q353 305 250 404T147 641Q147 781 245 872T487 963Q539 963 622 936T854 770ZM764 649Q612 811 487 811Q402 811 350 759T297 627Q297 555 355 511T502 467Q638 467 764 649ZM952 647Q1090 455 1237 455Q1407 455 1407 659Q1407 805 1208 805Q1158 805 1102 784T952 647Z"  />
<glyph unicode="&#x222B;" horiz-adv-x="1434" d="M475 -403Q317 -403 199 -296T80 -37Q80 78 178 78Q279 78 279 -37Q279 -111 333 -157T487 -203Q653 -203 653 817Q653 1151 679 1333T798 1618T1040 1720Q1128 1720 1220 1657T1313 1518Q1313 1479 1282 1449T1208 1419Q1164 1419 1124 1470Q1085 1522 1040 1522Q852 1522 852 1022Q852 953 858 815Q864 677 864 608Q864 514 831 183T716 -276T475 -403Z"  />
<glyph unicode="&#x2248;" horiz-adv-x="1270" d="M715 1133L817 1006Q878 930 948 930Q987 930 1024 1042Q1061 1159 1118 1159Q1155 1159 1179 1136T1204 1077Q1204 950 1128 853T944 756Q778 756 637 958Q584 1030 563 1030Q480 1030 377 850Q348 803 303 803Q266 803 241 826T215 885Q215 945 320 1071T563 1198Q644 1198 715 1133ZM621 623L725 496Q787 420 856 420Q895 420 932 535Q968 651 1026 651Q1063 651 1087 628T1112 567Q1112 442 1035 344T854 246Q689 246 545 449Q492 520 471 520Q388 520 285 342Q257 293 211 293Q177 293 150 317T123 375Q123 439 230 564T471 690Q558 690 621 623Z"  />
<glyph unicode="&#x2260;" horiz-adv-x="1044" d="M272 279Q166 269 139 293T111 365Q111 474 350 463L498 819L324 821Q309 821 216 816Q98 809 98 905Q98 999 256 999H561L612 1133Q621 1157 651 1190T719 1223Q801 1223 801 1141Q801 1105 754 997Q881 997 881 909Q881 866 855 845T800 821T682 819L541 461L776 457Q816 456 841 430T866 367Q866 329 840 304T776 279L469 283L418 160Q386 84 328 84Q291 84 264 107T236 168Q236 186 272 279Z"  />
<glyph unicode="&#x2264;" horiz-adv-x="780" d="M299 614Q347 580 436 487Q516 402 567 354Q604 324 604 287Q604 249 577 222T514 195Q484 195 449 223T289 381Q187 487 94 522Q18 550 18 604Q18 655 88 688Q180 734 293 850Q434 999 468 1030T537 1061Q572 1061 599 1033T627 969Q627 949 616 930T519 824T299 614ZM145 51H238Q293 51 369 53L501 55Q672 58 713 42T754 -27Q754 -60 717 -90T639 -121Q558 -121 414 -125Q268 -129 190 -129Q35 -129 35 -37Q35 51 145 51Z"  />
<glyph unicode="&#x2265;" horiz-adv-x="780" d="M485 645Q380 714 242 847T104 1034Q104 1068 132 1096T197 1124Q235 1124 264 1092Q499 830 678 739Q735 711 735 664Q735 635 707 600T529 443T276 253T147 186Q113 186 85 213T57 279Q57 321 96 348L485 645ZM145 51H238Q293 51 369 53L501 55Q672 58 713 42T754 -27Q754 -60 717 -90T639 -121Q558 -121 414 -125Q268 -129 190 -129Q35 -129 35 -37Q35 51 145 51Z"  />
<glyph unicode="&#x25CA;" horiz-adv-x="1479" d="M1094 1196L1294 977Q1430 828 1430 793Q1430 739 1384 696Q1234 555 915 61Q824 -82 772 -82Q725 -82 690 -35Q343 432 106 618Q59 654 59 705Q59 726 84 775T214 998T425 1332T580 1547T653 1618T707 1634Q742 1634 774 1598T915 1419Q1002 1301 1094 1196ZM977 516Q1098 692 1178 786Q990 968 807 1217L694 1370L598 1237L291 727Q508 540 764 207L977 516Z"  />
<glyph unicode="&#xFB01;" horiz-adv-x="1350" d="M1151 455V379L1157 94Q1157 51 1131 24T1059 -4Q1015 -4 988 23T961 94Q961 124 956 274L954 379Q951 522 961 653L973 838L897 840Q863 841 528 815L520 588Q519 558 524 399Q528 275 528 215Q528 19 508 -70T414 -160Q371 -160 342 -133T313 -68V-58L329 56Q338 128 338 236L334 510V799Q195 788 176 788Q76 788 76 887Q76 986 250 989L346 993Q367 1345 472 1472T799 1599Q940 1599 940 1501Q940 1407 811 1407Q568 1407 541 1069L537 1008Q895 1032 995 1032Q1169 1032 1169 924Q1169 830 1159 688Q1151 578 1151 455ZM987 1382Q987 1429 1021 1463T1106 1497Q1154 1497 1188 1463T1223 1382Q1223 1335 1189 1301T1106 1266Q1056 1266 1022 1300T987 1382Z"  />
<glyph unicode="&#xFB02;" horiz-adv-x="1343" d="M1040 1446Q994 1450 989 1450Q675 1450 609 1341T532 893Q701 905 752 905Q911 905 911 805Q911 709 770 709H762L522 700L520 641Q518 585 524 399Q528 275 528 215Q528 19 508 -70T414 -160Q371 -160 342 -133T313 -68V-58L329 55Q338 127 338 236V684Q212 674 170 674Q70 674 70 770Q70 868 246 874L342 879L360 1145Q377 1397 533 1506T985 1616H1019L1139 1610Q1237 1610 1237 1509L1229 786L1206 104Q1202 12 1180 -15T1108 -43Q1010 -43 1010 59Q1010 178 1020 422Q1030 666 1030 786L1040 1446Z"  />


</font>
</defs>
</svg>
