<?xml  version="1.0" encoding="UTF-8"?>
<!DOCTYPE svg PUBLIC "-//W3C//DTD SVG 1.0//EN" "http://www.w3.org/TR/2001/REC-SVG-20010904/DTD/svg10.dtd" >
<svg xmlns="http://www.w3.org/2000/svg" >
<metadata>
<version>1.0</version>
<id><![CDATA[Droid Serif W02 Regular]]></id>
<vendor>Monotype Imaging Inc.</vendor>
<credits>
<name>Fonts.com WebFonts</name>
<URL>http://webfonts.fonts.com</URL>
<role>Home of the Web fonts</role>
</credits>
<license>
<URL>http://webfonts.fonts.com/Legal</URL>
</license>
<copyright><![CDATA[Digitized data copyright © 2007, Google Corporation.]]></copyright>
<trademark><![CDATA[Droid is a trademark of Google and may be registered in certain jurisdictions.]]></trademark>
<licensee>
<name></name>
</licensee>
</metadata>
<defs >
<font horiz-adv-x="1164" id="f627e21b-c1a5-4e7a-b072-37391ee8dcef">
<font-face font-family="" panose-1="2 2 6 0 6 5 0 2 2 0" ascent="2005" descent="-492" units-per-em="2048" alphabetic="0">
</font-face>
<missing-glyph horiz-adv-x="0" />

<glyph unicode="&#xA;" />
<glyph unicode="&#xD;" horiz-adv-x="0" />
<glyph unicode=" " horiz-adv-x="532" />
<glyph unicode="!" horiz-adv-x="682" d="M211 125Q211 165 221 191T248 234T289 257T340 264Q366 264 389 257T430 234T458 192T469 125Q469 86 459 59T431 16T390 -7T340 -14Q313 -14 290 -7T249 16T221 59T211 125ZM221 1462H459L387 412H293L221 1462Z"  />
<glyph unicode="&quot;" horiz-adv-x="836" d="M117 1462H334L272 981H178L117 1462ZM502 1462H719L657 981H563L502 1462Z"  />
<glyph unicode="#" horiz-adv-x="1145" d="M1038 537V416H780L702 0H580L657 416H373L295 0H172L250 416H82V537H272L350 938H106V1059H373L446 1462H571L496 1059H780L856 1462H979L903 1059H1063V938H881L805 537H1038ZM397 537H682L758 938H473L397 537Z"  />
<glyph unicode="$" horiz-adv-x="1145" d="M354 1090Q354 1047 364 1015T396 957T447 912T518 874V1303Q478 1294 447 1275T396 1228T365 1165T354 1090ZM813 399Q813 440 803 472T770 533T711 585T621 633V178Q713 194 763 252T813 399ZM621 1401Q713 1399 777 1381T883 1332T942 1260T961 1171Q961 1105 917 1072T799 1038Q799 1083 792 1128T765 1211T710 1275T621 1307V829Q713 789 784 749T903 663T976 560T1001 430Q1001 276 902 191T621 86V-162H518V82Q467 82 415 86T314 101T219 128T135 166V481H221Q221 424 242 371T303 275T397 205T518 172V678Q422 721 356 763T248 851T189 952T170 1073Q170 1142 194 1198T264 1295T373 1362T518 1397V1556H621V1401Z"  />
<glyph unicode="%" horiz-adv-x="1835" d="M616 0H481L1212 1462H1346L616 0ZM1255 436Q1255 348 1263 279T1289 161T1336 88T1407 63Q1449 63 1478 88T1524 161T1548 278T1556 436Q1556 523 1549 591T1524 706T1479 778T1409 803Q1367 803 1338 779T1290 707T1263 591T1255 436ZM1743 436Q1743 333 1722 249T1659 105T1554 13T1407 -20Q1319 -20 1255 12T1151 105T1091 249T1071 436Q1071 539 1090 622T1151 765T1256 857T1409 889Q1493 889 1555 857T1659 766T1722 623T1743 436ZM276 1030Q276 942 284 873T310 755T357 682T428 657Q470 657 499 682T545 755T570 872T578 1030Q578 1117 571 1185T546 1300T500 1372T430 1397Q388 1397 359 1373T311 1301T284 1185T276 1030ZM764 1030Q764 927 743 843T680 699T575 606T428 573Q340 573 277 606T172 699T112 843T92 1030Q92 1133 111 1216T172 1359T277 1451T430 1483Q514 1483 576 1451T680 1360T743 1217T764 1030Z"  />
<glyph unicode="&amp;" horiz-adv-x="1520" d="M813 1190Q813 1231 803 1266T771 1326T712 1367T623 1382Q532 1382 483 1329T434 1188Q434 1149 442 1115T467 1048T512 978T578 899Q638 925 682 954T756 1017T799 1094T813 1190ZM580 94Q640 94 691 106T786 141T865 193T930 260L477 745Q430 719 393 688T329 615T288 521T274 403Q274 328 296 271T358 174T455 114T580 94ZM1174 0L1004 180Q967 138 923 102T824 38T705 -4T561 -20Q438 -20 347 11T195 98T104 234T74 410Q74 497 97 561T163 675T266 761T401 829Q362 875 333 917T284 1002T254 1088T244 1182Q244 1250 266 1305T335 1400T455 1461T631 1483Q729 1483 798 1460T910 1397T973 1304T993 1192Q993 1126 974 1075T914 981T807 900T647 821L1020 426Q1034 472 1043 519T1057 612T1065 701T1067 782V862H1436V776H1417Q1383 776 1350 772T1289 754T1238 712T1202 637Q1184 571 1161 494T1102 340L1292 137Q1307 122 1323 112T1360 96T1411 88T1483 86H1501V0H1174Z"  />
<glyph unicode="&apos;" horiz-adv-x="451" d="M117 1462H334L272 981H178L117 1462Z"  />
<glyph unicode="(" horiz-adv-x="709" d="M330 649Q330 527 339 408T381 183T475 -14T643 -168V-262Q502 -206 402 -126T239 64T146 319T117 649Q117 834 146 977T238 1231T402 1420T643 1556V1464Q538 1400 476 1311T381 1115T340 890T330 649Z"  />
<glyph unicode=")" horiz-adv-x="709" d="M379 649Q379 771 370 890T328 1115T233 1310T66 1464V1556Q207 1500 307 1421T470 1231T562 978T592 649Q592 464 563 320T470 65T307 -126T66 -262V-168Q171 -104 233 -14T327 182T369 408T379 649Z"  />
<glyph unicode="*" horiz-adv-x="1024" d="M84 1268L156 1430L471 1231L418 1556H596L539 1233L856 1425L928 1266L582 1165L928 1065L856 907L539 1098L596 774H418L469 1098L156 903L84 1063L428 1165L84 1268Z"  />
<glyph unicode="+" horiz-adv-x="1145" d="M633 672V293H510V672H133V793H510V1171H633V793H1012V672H633Z"  />
<glyph unicode="&#x2c;" horiz-adv-x="512" d="M397 86Q397 21 379 -40T321 -153T217 -246T61 -315V-229Q162 -197 209 -151T256 -45Q256 -25 245 -12T217 12T181 33T145 57T117 91T106 143Q106 202 144 233T240 264Q272 264 300 253T350 219T384 163T397 86Z"  />
<glyph unicode="-" horiz-adv-x="635" d="M51 481V635H584V481H51Z"  />
<glyph unicode="." horiz-adv-x="586" d="M164 125Q164 165 174 191T201 234T242 257T293 264Q319 264 342 257T383 234T411 192T422 125Q422 86 412 59T384 16T343 -7T293 -14Q266 -14 243 -7T202 16T174 59T164 125Z"  />
<glyph unicode="/" horiz-adv-x="590" d="M121 -248H0L471 1556H590L121 -248Z"  />
<glyph unicode="0" horiz-adv-x="1145" d="M305 733Q305 581 319 462T364 260T447 134T573 90Q648 90 699 133T781 259T826 461T840 733Q840 885 827 1004T782 1205T700 1329T575 1372Q500 1372 449 1330T365 1205T319 1004T305 733ZM1053 733Q1053 564 1024 425T934 187T784 34T573 -20Q447 -20 356 34T207 187T120 425T92 735Q92 905 120 1043T206 1279T356 1430T575 1483Q695 1483 784 1430T934 1279T1023 1043T1053 733Z"  />
<glyph unicode="1" horiz-adv-x="1145" d="M197 0V86H334Q369 86 399 91T452 111T488 156T502 233V1309Q463 1261 428 1222T361 1155T299 1112T238 1096Q193 1096 164 1126T135 1206Q166 1214 197 1225T264 1255T341 1300T434 1364L578 1470H709V233Q709 185 722 156T758 112T811 91T877 86H977V0H197Z"  />
<glyph unicode="2" horiz-adv-x="1145" d="M944 1141Q944 1069 921 1001T854 862T747 713T602 547L256 164H729Q775 164 805 177T854 211T883 259T901 317L909 354H995L985 0H104V150L446 545Q528 640 583 715T673 856T722 986T737 1120Q737 1179 725 1226T687 1308T622 1361T528 1380Q458 1380 415 1355T346 1288T312 1191T303 1075Q266 1075 234 1081T178 1102T141 1143T127 1208Q127 1267 152 1317T228 1405T354 1462T528 1483Q625 1483 702 1459T833 1390T915 1282T944 1141Z"  />
<glyph unicode="3" horiz-adv-x="1145" d="M508 90Q569 90 624 107T721 163T788 265T813 420Q813 485 788 537T714 627T597 684T442 705H377V809H442Q510 809 568 831T670 895T739 994T764 1126Q764 1186 752 1233T714 1313T646 1363T545 1380Q475 1380 431 1355T362 1288T328 1191T319 1075Q282 1075 250 1081T194 1102T157 1143T143 1208Q143 1267 168 1317T245 1405T371 1462T545 1483Q642 1483 721 1461T856 1398T944 1296T975 1157Q975 1088 951 1027T882 917T778 832T647 780Q685 776 728 767T813 739T893 694T961 628T1008 538T1026 418Q1026 336 1004 271T944 158T854 75T745 20T626 -10T506 -20Q405 -20 332 -2T212 48T142 120T119 207Q119 269 154 303T248 338Q248 284 265 239T316 160T397 109T508 90Z"  />
<glyph unicode="4" horiz-adv-x="1145" d="M666 895Q666 940 667 994T669 1104T673 1215T680 1319Q673 1305 660 1282T631 1229T596 1168T559 1106T524 1049T496 1004L182 516H666V895ZM862 401V233Q862 185 875 156T911 112T965 91T1030 86H1057V0H440V86H498Q533 86 563 91T616 111T652 156T666 233V401H35V485L668 1462H862V516H1116V401H862Z"  />
<glyph unicode="5" horiz-adv-x="1145" d="M489 100Q552 100 605 117T698 175T760 282T782 446Q782 527 760 587T697 687T599 746T471 766Q418 766 380 762T312 752T260 737T219 721L170 735L236 1460H920L930 1151H844L836 1212Q833 1234 828 1249T810 1275T778 1291T725 1296H328L289 846Q320 857 378 868T528 879Q627 879 712 852T861 771T959 636T995 446Q995 342 962 256T865 109T709 14T500 -20Q386 -20 312 -1T193 49T131 115T113 186Q113 243 144 275T242 307Q242 263 257 225T303 160T380 116T489 100Z"  />
<glyph unicode="6" horiz-adv-x="1145" d="M588 784Q548 784 511 774T442 747T382 709T334 666Q336 512 355 403T410 225T495 124T606 92Q716 92 773 177T831 449Q831 624 769 704T588 784ZM659 1384Q505 1384 426 1233T336 782Q361 803 391 822T458 856T536 880T629 889Q723 889 799 860T928 777T1011 645T1040 469Q1040 361 1011 271T925 117T787 16T600 -20Q498 -20 411 22T261 156T161 391T125 737Q125 834 139 927T183 1103T256 1256T359 1376T494 1455T659 1483Q745 1483 808 1465T914 1417T976 1348T997 1268Q997 1209 957 1177T840 1145Q840 1195 831 1238T799 1314T743 1365T659 1384Z"  />
<glyph unicode="7" horiz-adv-x="1145" d="M389 0L872 1296H334Q224 1296 215 1192L207 1090H121L131 1460H1047V1401L543 0H389Z"  />
<glyph unicode="8" horiz-adv-x="1145" d="M805 1135Q805 1182 793 1227T753 1307T681 1364T571 1386Q514 1386 470 1368T395 1317T350 1239T334 1141Q334 1086 351 1042T403 962T490 895T610 831Q668 860 705 890T765 957T796 1037T805 1135ZM569 74Q636 74 690 94T783 151T843 237T864 346Q864 398 845 442T783 528T672 609T504 692Q407 640 350 557T293 358Q293 294 310 242T362 153T449 95T569 74ZM94 367Q94 441 117 496T183 595T282 674T406 741Q348 774 299 812T215 897T161 997T141 1116Q141 1187 166 1253T244 1370T381 1452T584 1483Q680 1483 755 1457T881 1383T960 1272T987 1130Q987 1063 967 1012T911 921T824 848T711 784Q787 748 849 707T957 618T1026 514T1051 391Q1051 294 1016 218T917 88T762 8T559 -20Q444 -20 357 10T212 92T124 215T94 367Z"  />
<glyph unicode="9" horiz-adv-x="1145" d="M553 684Q603 685 644 698T718 734T773 787T811 850V854Q809 989 789 1086T734 1247T651 1340T543 1370Q434 1370 375 1275T315 999Q315 915 330 855T375 757T449 702T553 684ZM467 90Q637 90 718 242T809 702Q787 675 758 650T691 606T608 575T508 563Q419 563 345 589T217 667T134 797T104 979Q104 1090 134 1182T220 1341T358 1445T543 1483Q647 1483 734 1443T885 1319T984 1105T1020 795Q1020 688 1007 586T965 392T892 225T786 94T644 8T465 -23Q378 -23 321 -8T230 33T182 90T168 154Q168 192 187 218T229 252Q243 220 263 191T313 139T381 103T467 90Z"  />
<glyph unicode=":" horiz-adv-x="588" d="M166 969Q166 1009 176 1035T203 1078T244 1101T295 1108Q321 1108 344 1101T385 1078T413 1036T424 969Q424 930 414 903T386 860T345 836T295 829Q268 829 245 836T204 859T176 903T166 969ZM166 125Q166 165 176 191T203 234T244 257T295 264Q321 264 344 257T385 234T413 192T424 125Q424 86 414 59T386 16T345 -7T295 -14Q268 -14 245 -7T204 16T176 59T166 125Z"  />
<glyph unicode=";" horiz-adv-x="512" d="M129 969Q129 1009 139 1035T166 1078T207 1101T258 1108Q284 1108 307 1101T348 1078T376 1036T387 969Q387 930 377 903T349 860T308 836T258 829Q231 829 208 836T167 859T139 903T129 969ZM397 86Q397 21 379 -40T321 -153T217 -246T61 -315V-229Q162 -197 209 -151T256 -45Q256 -25 245 -12T217 12T181 33T145 57T117 91T106 143Q106 202 144 233T240 264Q272 264 300 253T350 219T384 163T397 86Z"  />
<glyph unicode="&lt;" horiz-adv-x="1145" d="M133 696V768L1012 1241V1104L324 731L1012 362V225L133 696Z"  />
<glyph unicode="=" horiz-adv-x="1145" d="M1012 993V872H133V993H1012ZM1012 590V469H133V590H1012Z"  />
<glyph unicode="&gt;" horiz-adv-x="1145" d="M133 225V362L821 731L133 1104V1241L1012 768V696L133 225Z"  />
<glyph unicode="?" horiz-adv-x="1024" d="M328 125Q328 165 338 191T365 234T406 257T457 264Q483 264 506 257T547 234T575 192T586 125Q586 86 576 59T548 16T507 -7T457 -14Q430 -14 407 -7T366 16T338 59T328 125ZM522 412H397V723Q486 759 546 806T643 909T695 1025T711 1147Q711 1200 698 1243T658 1317T589 1365T487 1382Q423 1382 380 1361T309 1304T270 1221T258 1120Q221 1120 190 1128T137 1153T101 1195T88 1253Q88 1302 110 1344T180 1417T300 1465T471 1483Q568 1483 650 1458T792 1386T886 1269T920 1112Q920 1028 894 959T816 833T691 729T522 643V412Z"  />
<glyph unicode="@" horiz-adv-x="1886" d="M727 479Q727 371 770 319T883 266Q935 266 973 288T1037 347T1079 429T1104 522L1182 938Q1169 967 1137 983T1067 999Q1006 999 957 973T870 903T805 805T761 691T735 578T727 479ZM1778 803Q1778 655 1742 536T1648 332T1519 203T1376 158Q1285 158 1225 207T1135 344H1124Q1103 304 1077 270T1017 211T942 172T848 158Q786 158 730 179T631 243T563 352T537 508Q537 563 549 627T588 754T656 877T756 982T889 1055T1059 1083Q1125 1083 1172 1065T1251 1022L1333 1065H1382L1278 543Q1275 519 1271 495Q1268 475 1266 451T1264 406Q1264 370 1274 344T1302 300T1341 274T1389 266Q1434 266 1481 302T1566 407T1628 578T1653 809Q1653 943 1610 1045T1491 1217T1308 1322T1073 1358Q973 1358 877 1330T694 1248T535 1115T408 936T325 713T295 451Q295 280 344 160T476 -37T670 -149T905 -184Q989 -184 1064 -170T1204 -131T1325 -77T1425 -14L1473 -88Q1422 -126 1359 -162T1223 -227T1065 -273T885 -291Q720 -291 582 -246T345 -108T189 122T133 446Q133 591 164 722T255 967T399 1171T590 1327T820 1427T1085 1462Q1257 1462 1387 1411T1604 1272T1734 1063T1778 803Z"  />
<glyph unicode="A" horiz-adv-x="1444" d="M788 950Q756 1041 730 1120T686 1274Q679 1237 670 1203T649 1132T624 1057T592 969L453 592H915L788 950ZM414 489L336 274Q327 250 322 227T317 186Q317 134 350 110T453 86H500V0H0V86H39Q69 86 90 92T128 117T160 166T195 246L649 1462H809L1272 195Q1284 163 1296 142T1326 109T1365 91T1417 86H1444V0H881V86H928Q1051 86 1051 184Q1051 201 1047 219T1034 260L952 489H414Z"  />
<glyph unicode="B" horiz-adv-x="1339" d="M479 817H621Q711 817 771 833T867 882T918 969T934 1096Q934 1171 917 1221T862 1303T764 1347T616 1360H479V817ZM479 102H678Q765 102 825 118T923 169T978 262T995 401Q995 481 980 540T929 638T832 696T682 715H479V102ZM1153 1096Q1153 1027 1134 975T1080 884T1000 819T899 774V766Q969 754 1027 725T1126 650T1191 540T1214 395Q1214 197 1084 99T688 0H78V86H104Q139 86 169 91T223 111T259 156T272 233V1237Q272 1282 259 1309T222 1352T169 1371T104 1376H78V1462H627Q893 1462 1023 1374T1153 1096Z"  />
<glyph unicode="C" horiz-adv-x="1257" d="M774 1483Q879 1483 956 1466T1085 1417T1162 1344T1188 1253Q1188 1220 1175 1194T1137 1149T1081 1120T1010 1110Q1010 1158 998 1205T957 1289T883 1350T770 1374Q654 1374 573 1332T441 1208T367 1007T344 733Q344 596 368 482T444 287T576 160T770 115Q845 115 902 129T1004 168T1081 223T1141 289Q1158 278 1169 259T1180 209Q1180 170 1154 130T1073 56T936 2T739 -20Q586 -20 470 34T276 187T157 425T117 733Q117 899 159 1037T283 1274T489 1428T774 1483Z"  />
<glyph unicode="D" horiz-adv-x="1489" d="M657 104Q779 104 870 145T1023 267T1114 464T1145 733Q1145 1038 1024 1199T659 1360H479V104H657ZM1372 733Q1372 565 1330 430T1205 199T997 52T705 0H78V86H104Q139 86 169 91T223 111T259 156T272 233V1237Q272 1282 259 1309T222 1352T169 1371T104 1376H78V1462H705Q863 1462 987 1414T1196 1272T1327 1043T1372 733Z"  />
<glyph unicode="E" horiz-adv-x="1276" d="M479 102H874Q923 102 957 115T1015 152T1051 205T1069 270L1083 358H1190L1176 0H78V86H104Q138 86 168 90T222 109T258 150T272 223V1229Q272 1277 259 1306T223 1350T170 1371T104 1376H78V1462H1110L1120 1104H1014L1004 1192Q1000 1226 989 1256T956 1310T902 1346T823 1360H479V815H973V715H479V102Z"  />
<glyph unicode="F" horiz-adv-x="1208" d="M479 1360V768H973V668H479V233Q479 185 492 156T528 112T582 91T647 86H715V0H78V86H104Q138 86 168 90T222 109T258 150T272 223V1237Q272 1282 259 1309T222 1352T169 1371T104 1376H78V1462H1110L1120 1104H1014L1004 1192Q1000 1227 988 1257T954 1310T897 1346T815 1360H479Z"  />
<glyph unicode="G" horiz-adv-x="1462" d="M821 -20Q643 -20 511 34T291 187T160 425T117 733Q117 899 162 1037T298 1274T523 1428T834 1483Q948 1483 1032 1466T1173 1417T1258 1344T1286 1253Q1286 1220 1271 1194T1231 1149T1171 1120T1096 1110Q1096 1158 1082 1205T1036 1289T952 1350T825 1374Q695 1374 604 1332T454 1208T370 1007T344 733Q344 580 371 461T459 261T617 138T854 96Q913 96 968 102T1067 121V451Q1067 496 1054 523T1017 565T964 585T899 590H891V676H1423V590H1415Q1386 590 1360 585T1315 565T1285 520T1274 442V74Q1171 26 1062 3T821 -20Z"  />
<glyph unicode="H" horiz-adv-x="1624" d="M950 0V86H977Q1012 86 1042 91T1095 111T1131 156T1145 233V713H479V233Q479 185 492 156T528 112T582 91T647 86H674V0H78V86H104Q139 86 169 91T223 111T259 156T272 233V1237Q272 1282 259 1309T222 1352T169 1371T104 1376H78V1462H674V1376H647Q613 1376 582 1371T529 1351T493 1306T479 1229V815H1145V1229Q1145 1277 1132 1306T1096 1350T1043 1371T977 1376H950V1462H1546V1376H1520Q1485 1376 1455 1371T1401 1351T1365 1306T1352 1229V223Q1352 178 1365 151T1402 109T1455 91T1520 86H1546V0H950Z"  />
<glyph unicode="I" horiz-adv-x="752" d="M78 0V86H104Q139 86 169 91T223 111T259 156T272 233V1229Q272 1277 259 1306T223 1350T170 1371T104 1376H78V1462H674V1376H647Q613 1376 582 1371T529 1351T493 1306T479 1229V233Q479 185 492 156T528 112T582 91T647 86H674V0H78Z"  />
<glyph unicode="J" horiz-adv-x="731" d="M-23 -395H-4Q62 -395 113 -377T200 -315T253 -199T272 -18V1237Q272 1282 259 1309T222 1352T169 1371T104 1376H78V1462H674V1376H647Q613 1376 582 1371T529 1351T493 1306T479 1229V-16Q479 -154 443 -245T344 -391T196 -469T12 -492H-23V-395Z"  />
<glyph unicode="K" horiz-adv-x="1434" d="M903 1137Q936 1175 958 1204T992 1258T1010 1300T1016 1333Q1016 1359 991 1368T915 1378V1462H1368V1378Q1333 1378 1301 1365T1236 1327T1169 1267T1094 1186L797 852L1229 250Q1288 169 1342 128T1454 86H1458V0H1436Q1333 0 1267 8T1156 37T1078 93T1006 184L653 690L479 549V233Q479 185 492 156T528 112T582 91T647 86H674V0H78V86H104Q138 86 168 90T222 109T258 150T272 223V1237Q272 1282 259 1309T222 1352T169 1371T104 1376H78V1462H674V1376H647Q613 1376 582 1371T529 1351T493 1306T479 1229V651L903 1137Z"  />
<glyph unicode="L" horiz-adv-x="1276" d="M78 0V86H104Q139 86 169 91T223 111T259 156T272 233V1229Q272 1277 259 1306T223 1350T170 1371T104 1376H78V1462H674V1376H647Q613 1376 583 1372T529 1352T493 1310T479 1237V102H883Q929 102 961 118T1015 161T1047 221T1063 287L1083 440H1190L1176 0H78Z"  />
<glyph unicode="M" horiz-adv-x="1921" d="M1298 0V86H1305Q1338 86 1364 90T1409 108T1439 147T1452 215V1309L983 0H872L397 1305V233Q397 185 407 156T436 112T483 91T545 86H551V0H78V86H104Q138 86 168 90T222 109T258 150T272 223V1237Q272 1282 259 1309T222 1352T169 1371T104 1376H78V1462H545L969 291L1389 1462H1843V1376H1817Q1782 1376 1752 1371T1698 1351T1662 1306T1649 1229V233Q1649 185 1662 156T1698 112T1751 91T1817 86H1843V0H1298Z"  />
<glyph unicode="N" horiz-adv-x="1563" d="M1165 0L397 1180V233Q397 185 410 156T446 112T500 91T565 86H592V0H78V86H104Q139 86 169 91T223 111T259 156T272 233V1237Q272 1282 259 1309T222 1352T169 1371T104 1376H78V1462H453L1186 330V1237Q1186 1282 1173 1309T1136 1352T1083 1371T1018 1376H991V1462H1505V1376H1479Q1444 1376 1414 1371T1360 1351T1324 1306T1311 1229V0H1165Z"  />
<glyph unicode="O" horiz-adv-x="1520" d="M342 733Q342 581 364 462T437 260T566 134T760 90Q874 90 953 133T1082 259T1154 461T1176 733Q1176 885 1154 1004T1083 1206T955 1331T762 1374Q648 1374 568 1331T438 1206T365 1005T342 733ZM1403 733Q1403 564 1361 425T1237 187T1035 34T760 -20Q597 -20 476 34T275 187T155 425T115 735Q115 905 155 1043T275 1280T477 1431T762 1485Q917 1485 1036 1432T1237 1280T1361 1043T1403 733Z"  />
<glyph unicode="P" horiz-adv-x="1237" d="M479 666H588Q681 666 747 685T855 748T916 860T936 1026Q936 1112 919 1175T864 1281T766 1343T618 1364H479V666ZM78 0V86H104Q139 86 169 91T223 111T259 156T272 233V1237Q272 1282 259 1309T222 1352T169 1371T104 1376H78V1462H653Q782 1462 877 1433T1034 1348T1126 1213T1157 1034Q1157 943 1129 859T1035 711T865 608T608 569H479V223Q479 178 492 151T529 109T582 91T647 86H715V0H78Z"  />
<glyph unicode="Q" horiz-adv-x="1520" d="M342 733Q342 581 364 462T437 260T566 134T760 90Q874 90 953 133T1082 259T1154 461T1176 733Q1176 885 1154 1004T1083 1206T955 1331T762 1374Q648 1374 568 1331T438 1206T365 1005T342 733ZM1403 733Q1403 583 1370 457T1273 235T1114 77T897 -8Q906 -113 931 -183T995 -296T1086 -357T1200 -375H1233V-471H1145Q1064 -471 984 -450T837 -376T727 -236T672 -16Q531 -1 427 58T253 215T150 444T115 735Q115 905 155 1043T275 1280T477 1431T762 1485Q917 1485 1036 1432T1237 1280T1361 1043T1403 733Z"  />
<glyph unicode="R" horiz-adv-x="1343" d="M479 741H623Q713 741 773 761T869 821T920 921T936 1061Q936 1143 919 1200T864 1294T766 1347T618 1364H479V741ZM1135 250Q1187 168 1236 127T1350 86H1356V0H1327Q1231 0 1170 7T1065 34T992 90T926 184L649 645H479V223Q479 178 492 151T529 109T582 91T647 86H674V0H78V86H104Q138 86 168 90T222 109T258 150T272 223V1237Q272 1282 259 1309T222 1352T169 1371T104 1376H78V1462H629Q895 1462 1025 1364T1155 1067Q1155 985 1129 924T1059 817T962 742T854 694L1135 250Z"  />
<glyph unicode="S" horiz-adv-x="1114" d="M506 -20Q406 -20 330 1T202 59T124 150T98 268Q98 330 136 368T246 406Q249 342 265 283T315 179T399 107T522 80Q660 80 737 146T815 338Q815 394 799 437T746 516T649 586T498 657Q403 696 332 740T214 839T144 961T121 1112Q121 1200 154 1269T248 1385T390 1458T569 1483Q661 1483 732 1464T852 1413T926 1340T952 1253Q952 1187 909 1154T791 1120Q791 1168 780 1214T741 1297T670 1357T561 1380Q502 1380 456 1364T377 1317T328 1243T311 1147Q311 1086 327 1040T380 956T479 885T629 815Q719 778 789 737T909 646T984 533T1010 391Q1010 294 975 218T873 88T714 8T506 -20Z"  />
<glyph unicode="T" horiz-adv-x="1255" d="M729 233Q729 185 742 156T778 112T832 91T897 86H944V0H307V86H354Q388 86 418 90T472 109T508 150T522 223V1360H326Q281 1360 251 1347T201 1310T172 1257T158 1192L147 1104H41L51 1462H1204L1214 1104H1108L1098 1192Q1094 1226 1084 1256T1055 1310T1005 1346T928 1360H729V233Z"  />
<glyph unicode="U" horiz-adv-x="1468" d="M741 -20Q620 -20 524 5T362 86T260 229T225 442V1237Q225 1282 212 1309T175 1352T122 1371T57 1376H31V1462H627V1376H600Q566 1376 535 1371T482 1351T446 1306T432 1229V430Q432 341 457 279T528 177T636 120T774 102Q863 102 927 126T1034 192T1097 293T1118 422V1237Q1118 1282 1105 1309T1068 1352T1015 1371T950 1376H924V1462H1438V1376H1411Q1377 1376 1346 1371T1293 1351T1257 1306T1243 1229V418Q1243 316 1211 235T1115 97T957 10T741 -20Z"  />
<glyph unicode="V" horiz-adv-x="1382" d="M614 0L172 1268Q161 1300 148 1321T118 1354T79 1371T27 1376H0V1462H563V1376H516Q454 1376 424 1353T393 1278Q393 1261 397 1243T410 1202L635 537Q666 446 688 361T727 201Q743 275 765 358T821 537L1047 1188Q1055 1213 1060 1236T1065 1276Q1065 1329 1032 1352T930 1376H883V1462H1382V1376H1343Q1313 1376 1292 1370T1253 1347T1220 1298T1188 1217L764 0H614Z"  />
<glyph unicode="W" horiz-adv-x="2144" d="M1180 1448L1436 561Q1465 459 1487 366T1524 201Q1539 275 1558 356T1606 537L1786 1169Q1789 1181 1793 1196T1800 1226T1805 1254T1808 1276Q1808 1329 1775 1352T1673 1376H1626V1462H2126V1376H2087Q2057 1376 2035 1370T1994 1347T1961 1299T1931 1217L1585 0H1401L1067 1147L754 0H565L190 1268Q180 1300 168 1321T138 1354T98 1371T45 1376H18V1462H582V1376H535Q473 1376 443 1353T412 1278Q412 1261 417 1243T428 1202L616 547Q642 454 665 365T705 201Q720 281 740 375T788 569L1032 1448H1180Z"  />
<glyph unicode="X" horiz-adv-x="1352" d="M954 1317Q954 1335 946 1346T923 1364T888 1373T844 1376H838V1462H1286V1376H1268Q1238 1376 1214 1369T1166 1345T1119 1299T1065 1229L768 801L1145 195Q1190 135 1230 111T1309 86H1335V0H782V86H793Q915 86 915 154Q915 165 913 176T903 202T883 239T848 295L645 621L418 285Q409 272 400 256T383 221T370 185T365 150Q365 115 397 101T498 86H504V0H16V86H29Q66 86 93 93T144 118T191 162T242 229L584 719L246 1268Q209 1327 163 1351T70 1376H43V1462H598V1376H592Q557 1376 534 1372T498 1359T480 1340T475 1317Q475 1306 476 1296T483 1273T497 1241T524 1196L709 897L903 1192Q926 1227 940 1258T954 1317Z"  />
<glyph unicode="Y" horiz-adv-x="1280" d="M326 0V86H373Q407 86 437 90T491 109T527 150T541 223V610L162 1268Q145 1297 130 1317T99 1351T62 1370T16 1376H-10V1462H553V1376H477Q449 1376 432 1371T404 1357T391 1336T387 1311Q387 1282 399 1253T424 1202L575 928Q611 865 636 804T678 694Q687 716 700 743T730 800T765 863T801 928L932 1163Q952 1198 960 1229T969 1286Q969 1331 937 1353T846 1376H786V1462H1286V1376H1262Q1240 1376 1221 1369T1181 1343T1140 1294T1092 1217L748 610V233Q748 185 761 156T797 112T850 91T915 86H963V0H326Z"  />
<glyph unicode="Z" horiz-adv-x="1212" d="M1094 1378L324 102H840Q886 102 917 115T967 152T996 205T1010 270L1020 358H1126L1116 0H74V82L842 1360H397Q352 1360 322 1347T272 1310T243 1257T229 1192L219 1104H113L123 1462H1094V1378Z"  />
<glyph unicode="[" horiz-adv-x="735" d="M205 -262V1556H662V1470H573Q539 1470 509 1465T455 1445T419 1400T406 1323V-29Q406 -77 419 -106T455 -150T508 -171T573 -176H662V-262H205Z"  />
<glyph unicode="\" horiz-adv-x="590" d="M0 1556H119L590 -248H469L0 1556Z"  />
<glyph unicode="]" horiz-adv-x="737" d="M76 -262V-176H164Q199 -176 229 -171T282 -151T318 -106T332 -29V1323Q332 1371 319 1400T283 1444T230 1465T164 1470H76V1556H532V-262H76Z"  />
<glyph unicode="^" horiz-adv-x="1145" d="M535 1462H606L1038 545H901L569 1274L242 545H104L535 1462Z"  />
<glyph unicode="_" horiz-adv-x="940" d="M950 -291H-10V-170H950V-291Z"  />
<glyph unicode="`" horiz-adv-x="1182" d="M791 1241H713Q672 1269 624 1310T531 1396T449 1480T393 1548V1569H612Q628 1535 649 1495T695 1414T744 1335T791 1268V1241Z"  />
<glyph unicode="a" horiz-adv-x="1153" d="M549 1016Q490 1016 454 1000T397 953T369 882T362 793Q277 793 233 822T188 922Q188 975 217 1012T296 1072T414 1107T557 1118Q651 1118 721 1100T838 1039T908 930T932 764V233Q932 190 939 162T961 117T1000 93T1059 86H1065V0H788L756 176H739Q707 133 677 97T611 35T530 -5T420 -20Q352 -20 294 -1T193 59T126 161T102 307Q102 470 218 549T569 635L739 641V764Q739 819 733 865T707 945T650 997T549 1016ZM301 297Q301 201 341 154T467 106Q529 106 579 126T665 183T720 273T739 391V557L608 551Q521 547 463 530T368 481T317 403T301 297Z"  />
<glyph unicode="b" horiz-adv-x="1257" d="M692 987Q612 987 559 961T473 880T428 744T414 551Q414 444 427 362T473 224T559 140T694 111Q762 111 809 139T887 224T932 362T946 553Q946 662 932 743T888 879T809 960T692 987ZM1145 551Q1145 403 1118 295T1037 117T906 14T727 -20Q668 -20 620 -7T534 30T466 87T414 160H401L365 0H37V86H53Q88 86 118 91T171 111T207 156T221 233V1331Q221 1376 208 1403T171 1446T118 1465T53 1470H37V1556H414V1180Q414 1145 413 1100T410 1012Q408 964 406 913H414Q437 960 466 998T533 1062T619 1103T727 1118Q828 1118 906 1085T1037 982T1117 805T1145 551Z"  />
<glyph unicode="c" horiz-adv-x="1008" d="M580 -20Q478 -20 392 11T244 111T148 285T113 543Q113 707 147 817T243 995T388 1090T569 1118Q633 1118 696 1106T811 1067T894 1002T926 909Q926 838 880 809T743 780Q743 828 735 871T708 946T655 997T569 1016Q510 1016 463 994T381 918T329 773T311 545Q311 327 383 220T621 113Q716 113 787 153T893 256Q908 244 918 224T928 176Q928 141 906 106T841 43T732 -2T580 -20Z"  />
<glyph unicode="d" horiz-adv-x="1257" d="M565 111Q645 111 698 137T784 218T830 354T844 547Q844 654 831 736T785 873T698 958T563 987Q496 987 448 958T370 873T325 735T311 545Q311 327 370 219T565 111ZM1036 225Q1036 180 1049 153T1086 110T1139 91T1204 86H1221V0H874L852 184H844Q821 137 792 100T724 36T638 -5T530 -20Q429 -20 351 13T220 116T140 293T113 547Q113 695 140 803T220 981T351 1084T530 1118Q589 1118 637 1105T723 1068T792 1011T844 938H856Q853 988 850 1032Q848 1070 846 1107T844 1163V1331Q844 1376 831 1403T794 1446T741 1465T676 1470H659V1556H1036V225Z"  />
<glyph unicode="e" horiz-adv-x="1096" d="M588 -20Q477 -20 389 17T239 127T146 303T113 541Q113 828 231 973T567 1118Q666 1118 745 1087T879 995T963 842T993 629V535H311Q313 423 333 343T392 210T487 134T616 109Q669 109 714 121T797 153T862 198T909 252Q923 246 935 227T948 182Q948 151 926 116T859 50T747 0T588 -20ZM563 1008Q449 1008 388 916T315 645H786Q786 726 774 793T736 908T668 982T563 1008Z"  />
<glyph unicode="f" horiz-adv-x="756" d="M688 86V0H55V86H82Q117 86 147 91T200 111T236 156T250 233V1001H63V1098H250V1200Q250 1292 275 1362T347 1480T461 1552T612 1577Q692 1577 747 1567T835 1537T884 1492T899 1434Q899 1406 887 1385T852 1349T799 1327T731 1319Q731 1350 725 1379T703 1432T661 1469T596 1483Q552 1483 523 1466T475 1416T450 1333T442 1219V1098H731V1001H442V233Q442 185 455 156T491 112T545 91T610 86H688Z"  />
<glyph unicode="g" horiz-adv-x="1102" d="M332 745Q332 614 375 553T518 492Q568 492 602 507T659 553T690 632T700 748Q700 886 658 952T516 1018Q417 1018 375 951T332 745ZM213 -180Q213 -225 225 -264T267 -331T348 -375T477 -391Q587 -391 658 -373T772 -321T831 -243T848 -143Q848 -96 835 -66T795 -18T729 7T639 14H438Q395 14 355 7T283 -22T232 -81T213 -180ZM1077 1055Q1077 1033 1071 1014T1051 980T1018 957T969 948Q969 960 966 972T956 994T935 1011T901 1018Q875 1018 854 1012T813 993Q848 950 870 892T893 745Q893 669 870 605T802 493T687 420T524 393Q512 393 497 393T467 394T439 396T418 399Q398 389 380 377T349 350T327 316T319 274Q319 249 328 234T355 211T395 200T446 197H678Q770 197 834 174T938 111T997 14T1016 -109Q1016 -197 984 -268T884 -388T715 -465T473 -492Q259 -492 153 -413T47 -193Q47 -133 68 -88T124 -11T206 41T303 70Q282 79 262 94T226 130T200 178T190 238Q190 299 222 343T324 430Q280 448 246 479T188 551T152 640T139 739Q139 828 163 898T235 1017T355 1092T524 1118Q561 1118 597 1113T663 1098T718 1076T758 1051Q773 1067 793 1086T838 1122T892 1150T956 1161Q987 1161 1009 1153T1047 1130T1069 1096T1077 1055Z"  />
<glyph unicode="h" horiz-adv-x="1300" d="M588 86V0H37V86H53Q88 86 118 91T171 111T207 156T221 233V1331Q221 1376 208 1403T171 1446T118 1465T53 1470H37V1556H414V1106Q414 1078 413 1048T410 991Q408 961 406 932H416Q508 1118 717 1118Q804 1118 871 1095T985 1023T1055 898T1079 717V233Q1079 185 1091 156T1124 112T1174 91T1237 86H1243V0H887V707Q887 774 875 826T837 914T767 968T662 987Q598 987 552 964T475 897T429 792T414 655V223Q414 178 427 151T464 109T517 91T582 86H588Z"  />
<glyph unicode="i" horiz-adv-x="655" d="M213 1430Q213 1466 222 1490T247 1529T284 1550T330 1556Q354 1556 375 1550T411 1529T436 1490T446 1430Q446 1394 437 1370T412 1331T375 1310T330 1303Q305 1303 284 1309T247 1331T222 1370T213 1430ZM74 86Q108 86 138 90T192 109T228 150T242 223V872Q242 917 229 944T192 987T139 1007T74 1012H68V1098H434V233Q434 185 447 156T483 112T537 91T602 86H629V0H47V86H74Z"  />
<glyph unicode="j" horiz-adv-x="614" d="M193 1430Q193 1466 202 1490T226 1529T263 1550T309 1556Q333 1556 354 1550T391 1529T416 1490T426 1430Q426 1394 417 1370T392 1331T355 1310T309 1303Q285 1303 264 1309T227 1331T202 1370T193 1430ZM414 1098V-16Q414 -154 384 -245T300 -391T172 -469T8 -492H-25V-395H-10Q45 -395 88 -377T160 -315T205 -199T221 -18V872Q221 917 208 944T171 987T118 1007T53 1012H47V1098H414Z"  />
<glyph unicode="k" horiz-adv-x="1198" d="M694 659L967 254Q1020 172 1072 129T1194 86H1200V0H1171Q1082 0 1025 5T925 31T848 91T770 199L565 520L414 408V223Q414 178 427 151T464 109T517 91T582 86H588V0H37V86H53Q88 86 118 91T171 111T207 156T221 233V1331Q221 1376 208 1403T171 1446T118 1465T53 1470H37V1556H414V766Q414 738 413 695T410 609Q408 561 406 508L662 788Q695 825 716 853T751 902T769 939T774 971Q774 997 750 1004T674 1012V1098H1126V1012Q1055 1012 987 962T838 821L694 659Z"  />
<glyph unicode="l" horiz-adv-x="635" d="M53 86Q88 86 118 91T171 111T207 156T221 233V1331Q221 1376 208 1403T171 1446T118 1465T53 1470H27V1556H414V233Q414 185 427 156T463 112T516 91T582 86H608V0H27V86H53Z"  />
<glyph unicode="m" horiz-adv-x="1935" d="M608 86V0H57V86H84Q119 86 148 91T198 111T230 156T242 233V872Q242 917 230 944T197 987T147 1007T84 1012H78V1098H399L426 932H436Q467 989 501 1025T573 1082T654 1110T745 1118Q795 1118 840 1108T923 1076T992 1019T1042 932H1059Q1090 989 1126 1025T1202 1082T1287 1110T1380 1118Q1458 1118 1520 1095T1625 1023T1691 898T1714 717V233Q1714 185 1726 156T1759 112T1809 91T1872 86H1878V0H1522V707Q1522 774 1511 826T1474 914T1407 968T1307 987Q1243 987 1200 963T1129 896T1091 799T1079 682V233Q1079 185 1091 156T1124 112T1174 91T1237 86H1243V0H887V707Q887 774 876 826T839 914T772 968T672 987Q605 987 560 960T486 887T446 781T434 655V223Q434 178 447 151T484 109T537 91T602 86H608Z"  />
<glyph unicode="n" horiz-adv-x="1321" d="M608 86V0H57V86H74Q109 86 139 91T192 111T228 156T242 233V872Q242 917 229 944T192 987T139 1007T74 1012H68V1098H399L426 932H436Q468 989 503 1025T578 1082T662 1110T756 1118Q837 1118 900 1095T1008 1023T1076 898T1100 717V233Q1100 185 1111 156T1144 112T1194 91T1257 86H1264V0H907V707Q907 774 895 826T857 914T787 968T682 987Q612 987 565 960T488 887T447 781T434 655V223Q434 178 447 151T484 109T537 91T602 86H608Z"  />
<glyph unicode="o" horiz-adv-x="1182" d="M311 551Q311 437 326 350T374 205T461 116T592 86Q669 86 722 116T808 204T855 350T870 551Q870 665 855 751T807 894T721 981T590 1010Q513 1010 460 981T374 895T326 751T311 551ZM1069 551Q1069 262 947 121T588 -20Q477 -20 389 15T240 121T146 299T113 551Q113 838 234 978T594 1118Q705 1118 793 1084T942 979T1036 802T1069 551Z"  />
<glyph unicode="p" horiz-adv-x="1257" d="M1145 551Q1145 403 1118 295T1037 117T906 14T727 -20Q668 -20 620 -7T534 30T466 87T414 160H406Q408 107 410 61Q411 42 411 22T412 -17T413 -49T414 -72V-268Q414 -313 427 -340T464 -382T517 -401T582 -406H588V-492H37V-406H53Q88 -406 118 -401T171 -381T207 -336T221 -258V872Q221 917 208 944T171 987T118 1007T53 1012H27V1098H385L406 913H414Q437 960 466 998T533 1062T619 1103T727 1118Q828 1118 906 1085T1037 982T1117 805T1145 551ZM692 987Q612 987 559 961T473 880T428 744T414 551Q414 444 427 362T473 224T559 140T694 111Q762 111 809 139T887 224T932 362T946 553Q946 662 932 743T888 879T809 960T692 987Z"  />
<glyph unicode="q" horiz-adv-x="1257" d="M565 111Q645 111 698 137T784 218T830 354T844 547Q844 654 831 736T785 873T698 958T563 987Q496 987 448 958T370 873T325 735T311 545Q311 327 370 219T565 111ZM1221 -492H608V-406H676Q711 -406 741 -401T794 -381T830 -336T844 -258V-82Q844 -47 845 -2T848 86Q850 134 852 184H844Q821 137 792 100T724 36T638 -5T530 -20Q429 -20 351 13T220 116T140 293T113 547Q113 695 140 803T220 981T351 1084T530 1118Q589 1118 637 1105T723 1068T792 1011T844 938H856L893 1098H1221V1012H1204Q1170 1012 1139 1007T1086 987T1050 942T1036 864V-266Q1036 -311 1049 -338T1086 -381T1139 -401T1204 -406H1221V-492Z"  />
<glyph unicode="r" horiz-adv-x="965" d="M659 0H68V86H74Q109 86 139 91T192 111T228 156T242 233V872Q242 917 229 944T192 987T139 1007T74 1012H68V1098H383L422 895H432Q452 941 473 981T524 1052T600 1100T713 1118Q825 1118 879 1079T934 969Q934 937 924 910T890 864T831 834T743 823Q743 908 719 945T635 983Q597 983 567 962T515 905T477 823T452 729T438 632T434 545V223Q434 178 447 151T484 109T537 91T602 86H659V0Z"  />
<glyph unicode="s" horiz-adv-x="924" d="M430 -20Q353 -20 291 -7T184 34T116 102T92 197Q92 238 105 265T138 309T180 331T221 338Q221 284 232 237T269 155T337 99T442 78Q497 78 539 91T609 129T653 188T668 264Q668 302 657 329T617 381T539 430T416 487Q337 522 279 554T182 625T125 711T106 827Q106 897 133 951T212 1041T334 1097T492 1116Q565 1116 621 1101T715 1061T772 1001T791 928Q791 872 753 839T643 805Q643 908 601 965T467 1022Q415 1022 378 1010T318 976T283 924T272 858Q272 819 286 791T330 738T409 692T526 641Q607 607 665 574T760 502T816 414T834 301Q834 221 805 161T723 61T596 0T430 -20Z"  />
<glyph unicode="t" horiz-adv-x="721" d="M543 88Q580 88 611 92T674 102V12Q661 6 640 0T595 -10T543 -17T492 -20Q414 -20 358 -4T266 50T213 148T195 297V981H39V1063Q76 1063 120 1078T199 1128Q234 1166 255 1218T293 1350H387V1098H655V981H387V291Q387 186 429 137T543 88Z"  />
<glyph unicode="u" horiz-adv-x="1300" d="M1079 223Q1079 178 1092 151T1129 109T1182 91T1247 86H1253V0H928L901 166H891Q860 108 823 72T743 16T655 -12T559 -20Q478 -20 415 3T309 75T244 200T221 381V872Q221 917 208 944T171 987T118 1007T53 1012H47V1098H414V391Q414 324 424 272T459 184T525 130T629 111Q697 111 745 135T825 202T872 307T887 442V864Q887 912 874 941T838 986T785 1007T719 1012H713V1098H1079V223Z"  />
<glyph unicode="v" horiz-adv-x="1186" d="M8 1012V1098H520V1012H494Q432 1012 402 988T371 913Q371 896 375 879T387 838L526 451Q539 415 553 372T579 286T602 207T616 143H623Q628 165 639 197T665 268T695 347T725 424L872 823Q882 848 886 871T891 911Q891 964 858 988T756 1012H741V1098H1180V1012H1155Q1125 1012 1104 1006T1066 981T1034 932T999 852L676 0H489L160 903Q148 935 135 956T105 989T66 1007T14 1012H8Z"  />
<glyph unicode="w" horiz-adv-x="1765" d="M975 1092L1180 485Q1192 448 1205 406T1231 322T1253 243T1268 180H1274Q1283 231 1303 305T1354 479L1456 809Q1464 835 1469 864T1475 911Q1475 964 1442 988T1339 1012H1325V1098H1763V1012H1737Q1707 1012 1685 1006T1646 983T1613 934T1583 852L1319 0H1155L911 721L874 856L584 0H422L154 903Q142 935 129 956T99 989T60 1007T8 1012H2V1098H508V1012H481Q420 1012 389 994T358 926Q358 909 363 885T375 838L471 494Q481 457 492 413T512 326T530 244T543 180H549Q554 206 562 240T582 314T607 395T633 473L846 1092H975Z"  />
<glyph unicode="x" horiz-adv-x="1184" d="M786 952Q786 989 755 1000T676 1012H670V1098H1118V1012H1100Q1070 1012 1046 1007T998 988T949 948T893 881L682 600L983 195Q1028 135 1068 111T1147 86H1174V0H645V86H655Q778 86 778 154Q778 165 775 176T763 203T739 241T700 295L563 479L420 279Q411 267 401 251T383 218T370 184T365 150Q365 115 394 101T492 86H498V0H10V86H29Q66 86 94 92T147 113T197 153T252 217L510 551L252 903Q207 956 165 984T76 1012H49V1098H569V1012H563Q528 1012 505 1008T469 995T451 975T446 952Q446 931 458 911T494 858L629 674L735 827Q758 862 772 893T786 952Z"  />
<glyph unicode="y" horiz-adv-x="1157" d="M1157 1098V1012H1151Q1121 1012 1100 1006T1061 981T1028 932T995 852L684 -8Q648 -107 616 -182T549 -310T473 -399T378 -455T256 -484T96 -492H78V-395Q182 -395 257 -364T386 -279T477 -152T539 8L160 903Q146 935 133 955T104 989T66 1007T14 1012H8V1098H500V1012H494Q432 1012 402 988T371 913Q371 896 374 879T387 838L537 473Q551 438 566 397T595 315T620 238T635 176H641Q652 221 671 285T717 424L854 823Q863 848 867 871T872 911Q872 964 839 988T737 1012H731V1098H1157Z"  />
<glyph unicode="z" horiz-adv-x="1047" d="M696 117Q732 117 755 131T794 168T819 221T836 285L846 332H932L922 0H86V82L680 981H360Q320 981 294 971T252 939T225 887T203 815L201 807H115L135 1098H920V1014L324 117H696Z"  />
<glyph unicode="{" horiz-adv-x="877" d="M639 -262Q567 -262 512 -241T419 -182T363 -90T344 33V389Q344 452 326 493T274 558T197 593T102 606V692Q153 694 197 704T274 738T325 804T344 907V1264Q344 1404 418 1480T639 1556H774V1468H713Q622 1468 584 1414T545 1253V903Q545 803 489 737T317 651V649Q435 629 490 563T545 395V41Q545 -64 583 -119T713 -174H774V-262H639Z"  />
<glyph unicode="|" horiz-adv-x="1145" d="M633 -492H510V1556H633V-492Z"  />
<glyph unicode="}" horiz-adv-x="877" d="M102 -174H164Q255 -174 293 -119T332 41V395Q332 497 386 563T559 649V651Q445 670 389 736T332 903V1253Q332 1360 294 1414T164 1468H102V1556H238Q383 1556 457 1480T532 1264V907Q532 845 551 804T602 739T679 704T774 692V606Q723 604 679 594T603 559T551 493T532 389V33Q532 -35 513 -89T457 -182T365 -241T238 -262H102V-174Z"  />
<glyph unicode="~" horiz-adv-x="1149" d="M776 551Q746 551 714 563T651 595T591 636T539 680Q516 701 494 720T451 755T407 779T362 788Q302 788 273 730T233 551H113Q119 615 131 679T172 794T247 877T371 909Q405 909 439 896T505 863T565 819T618 774Q640 754 661 736T702 703T744 681T786 672Q843 672 870 733T911 909H1034Q1027 845 1013 781T971 666T896 583T776 551Z"  />
<glyph unicode="&#xA0;" horiz-adv-x="532" />
<glyph unicode="&#xA1;" horiz-adv-x="682" d="M469 971Q469 931 459 904T432 861T391 838T340 831Q314 831 291 838T250 861T222 904T211 971Q211 1010 221 1036T249 1079T290 1103T340 1110Q367 1110 390 1103T431 1080T459 1037T469 971ZM459 -367H221L293 684H387L459 -367Z"  />
<glyph unicode="&#xA2;" horiz-adv-x="1145" d="M360 741Q360 558 414 449T584 309V1206Q535 1197 494 1169T423 1086T377 947T360 741ZM584 180Q491 190 414 225T280 327T193 495T162 739Q162 891 195 997T285 1170T419 1271T584 1313V1462H686V1313Q745 1308 804 1294T910 1254T986 1191T1016 1106Q1016 1035 971 1006T834 977Q834 1019 825 1057T798 1126T752 1178T686 1206V297Q728 297 770 303T852 318T925 339T983 362V250Q930 222 854 200T686 176V0H584V180Z"  />
<glyph unicode="&#xA3;" horiz-adv-x="1145" d="M500 690Q515 639 528 586T541 471Q541 383 492 316T360 193L365 184Q407 204 443 212T514 221Q555 221 604 209T701 182T794 155T870 143Q906 143 936 153T994 181T1043 219T1085 264V131Q1067 106 1042 79T984 30T910 -6T817 -20Q766 -20 717 -6T618 26T517 57T410 72Q342 72 283 53T158 2L131 -10V98L168 121Q206 144 243 176T311 251T360 346T379 459Q379 519 364 576T328 690H100V786H289Q275 818 261 857T236 938T218 1025T211 1112Q211 1200 240 1269T323 1385T454 1458T629 1483Q728 1483 797 1466T909 1417T971 1344T991 1253Q991 1187 948 1154T829 1120Q829 1168 821 1214T790 1297T727 1357T621 1380Q502 1380 447 1312T391 1116Q391 1068 399 1022T419 934T445 854T471 786H819V690H500Z"  />
<glyph unicode="&#xA4;" horiz-adv-x="1145" d="M311 733Q311 679 331 632T387 549T470 492T571 471Q627 471 675 492T758 548T813 631T834 733Q834 789 814 837T758 920T675 976T571 997Q517 997 470 977T388 921T332 837T311 733ZM197 733Q197 795 214 850T266 952L131 1087L217 1174L350 1038Q397 1072 452 1091T571 1110Q631 1110 686 1091T788 1038L926 1176L1012 1087L877 952Q911 906 929 851T948 733Q948 671 930 616T877 514L1012 379L928 293L791 428Q744 396 689 377T571 358Q509 358 454 376T352 428L217 293L131 379L264 514Q232 560 215 615T197 733Z"  />
<glyph unicode="&#xA5;" horiz-adv-x="1145" d="M264 0V86H311Q345 86 375 90T427 109T463 150T479 223V362H193V459H479V602H193V698H440L162 1268Q147 1298 134 1318T105 1352T67 1370T16 1376H10V1462H508V1376H494Q432 1376 405 1357T377 1296Q377 1272 385 1242T410 1176L508 958Q523 926 537 889T563 816T586 749T602 698Q606 709 615 730T635 777T659 829T682 877L799 1126Q823 1180 835 1225T848 1294Q848 1336 820 1356T723 1376H717V1462H1135V1376H1116Q1090 1376 1071 1369T1036 1344T1002 1295T961 1217L711 698H965V602H678V459H965V362H678V233Q678 185 691 156T727 112T780 91T846 86H893V0H264Z"  />
<glyph unicode="&#xA6;" horiz-adv-x="1145" d="M633 -492H510V328H633V-492ZM633 737H510V1556H633V737Z"  />
<glyph unicode="&#xA7;" horiz-adv-x="1114" d="M571 -133Q697 -133 759 -78T821 72Q821 117 810 150T762 217T653 291T461 391Q380 431 323 472T229 560T177 658T160 772Q160 849 194 906T281 1001Q243 1046 224 1101T205 1231Q205 1309 233 1369T312 1471T431 1534T582 1556Q666 1556 728 1539T832 1491T894 1418T915 1327Q915 1261 876 1232T770 1202Q770 1250 760 1295T727 1375T666 1432T573 1454Q471 1454 415 1403T358 1255Q358 1201 378 1165T439 1099T539 1041T676 975Q763 933 826 891T930 804T990 707T1010 596Q1010 559 1000 523T972 453T933 390T887 336Q916 296 933 246T950 133Q950 52 928 -15T858 -130T736 -206T557 -233Q478 -233 414 -218T303 -172T232 -98T207 4Q207 46 220 73T253 117T295 140T336 147Q336 93 349 43T391 -47T464 -109T571 -133ZM598 795Q524 830 460 864T342 940Q320 920 306 892T291 823Q291 782 305 750T353 686T444 621T590 545Q652 514 712 483T821 408Q838 432 849 461T860 524Q860 559 850 590T812 653T732 719T598 795Z"  />
<glyph unicode="&#xA8;" horiz-adv-x="1182" d="M680 1409Q680 1441 688 1463T710 1498T743 1518T784 1524Q806 1524 825 1518T858 1499T881 1463T889 1409Q889 1378 881 1356T859 1320T825 1300T784 1294Q739 1294 710 1320T680 1409ZM291 1409Q291 1441 299 1463T321 1498T354 1518T395 1524Q417 1524 436 1518T469 1499T492 1463T500 1409Q500 1378 492 1356T470 1320T436 1300T395 1294Q350 1294 321 1320T291 1409Z"  />
<glyph unicode="&#xA9;" horiz-adv-x="1731" d="M225 731Q225 643 248 562T312 409T412 280T542 180T694 115T864 92Q953 92 1035 115T1188 179T1317 279T1417 409T1482 561T1505 731Q1505 819 1482 901T1418 1054T1318 1184T1188 1284T1035 1349T864 1372Q776 1372 695 1349T542 1285T413 1185T313 1055T248 902T225 731ZM113 731Q113 835 140 931T215 1111T332 1264T484 1382T664 1458T864 1485Q968 1485 1064 1458T1244 1382T1397 1264T1515 1112T1591 932T1618 731Q1618 627 1591 531T1515 352T1397 200T1245 82T1065 7T864 -20Q760 -20 664 6T485 82T333 199T216 351T140 531T113 731ZM901 365Q948 365 988 377T1060 409T1115 454T1153 504Q1165 495 1173 479T1182 440Q1182 412 1163 383T1105 330T1009 291T874 276Q772 276 696 309T568 402T491 546T465 733Q465 833 493 916T576 1059T713 1152T903 1186Q974 1186 1026 1175T1114 1144T1166 1098T1184 1040Q1184 1018 1173 1000T1143 970T1099 951T1044 944Q1044 973 1037 1000T1012 1050T968 1086T899 1100Q827 1100 777 1076T694 1005T648 890T633 733Q633 556 702 461T901 365Z"  />
<glyph unicode="&#xAA;" horiz-adv-x="782" d="M387 1397Q356 1397 337 1386T308 1356T293 1312T289 1257Q211 1257 169 1277T127 1346Q127 1381 148 1405T205 1444T289 1466T391 1473Q459 1473 509 1461T592 1423T642 1354T659 1251V940Q659 894 678 877T748 860V791H549L512 885H502Q484 865 463 846T415 811T356 787T285 778Q186 778 129 831T72 987Q72 1089 153 1137T401 1194L489 1198V1257Q489 1288 486 1313T472 1357T441 1386T387 1397ZM250 985Q250 921 277 897T344 872Q378 872 405 884T450 918T479 970T489 1036V1133L426 1130Q376 1129 343 1119T289 1090T259 1045T250 985Z"  />
<glyph unicode="&#xAB;" horiz-adv-x="1053" d="M504 586L817 942H920L713 553L920 164H817L504 520V586ZM133 586L446 942H549L342 553L549 164H446L133 520V586Z"  />
<glyph unicode="&#xAC;" horiz-adv-x="1145" d="M1012 793V252H889V672H133V793H1012Z"  />
<glyph unicode="&#xAD;" horiz-adv-x="635" d="M51 481V635H584V481H51Z"  />
<glyph unicode="&#xAE;" horiz-adv-x="1731" d="M225 731Q225 643 248 562T312 409T412 280T542 180T694 115T864 92Q953 92 1035 115T1188 179T1317 279T1417 409T1482 561T1505 731Q1505 819 1482 901T1418 1054T1318 1184T1188 1284T1035 1349T864 1372Q776 1372 695 1349T542 1285T413 1185T313 1055T248 902T225 731ZM113 731Q113 835 140 931T215 1111T332 1264T484 1382T664 1458T864 1485Q968 1485 1064 1458T1244 1382T1397 1264T1515 1112T1591 932T1618 731Q1618 627 1591 531T1515 352T1397 200T1245 82T1065 7T864 -20Q760 -20 664 6T485 82T333 199T216 351T140 531T113 731ZM758 748H844Q899 748 936 759T995 792T1026 848T1036 928Q1036 973 1025 1005T991 1056T930 1085T838 1094H758V748ZM477 358H504Q524 358 542 360T573 370T595 392T604 430V1030Q603 1054 595 1068T574 1090T542 1100T504 1102H477V1174H846Q1198 1174 1198 930Q1198 881 1182 844T1140 780T1081 735T1012 705L1194 412Q1204 395 1213 385T1236 368T1266 360T1309 358V289H1092L866 670H758V430Q760 406 768 392T789 371T820 361T858 358H887V289H477V358Z"  />
<glyph unicode="&#xAF;" horiz-adv-x="940" d="M950 1556H-10V1677H950V1556Z"  />
<glyph unicode="&#xB0;" horiz-adv-x="819" d="M221 1151Q221 1113 235 1079T275 1019T335 978T408 963Q448 963 482 978T541 1018T581 1078T596 1151Q596 1191 582 1225T542 1285T482 1326T408 1341Q369 1341 335 1326T276 1286T236 1226T221 1151ZM98 1151Q98 1216 122 1272T189 1371T287 1437T408 1462Q473 1462 529 1438T628 1371T694 1273T719 1151Q719 1087 695 1031T628 932T530 866T408 842Q344 842 288 866T189 932T123 1030T98 1151Z"  />
<glyph unicode="&#xB1;" horiz-adv-x="1145" d="M1012 0H133V121H1012V0ZM633 672V293H510V672H133V793H510V1171H633V793H1012V672H633Z"  />
<glyph unicode="&#xB2;" horiz-adv-x="819" d="M690 1262Q690 1214 679 1172T642 1088T574 1001T467 901L250 715H547Q594 715 612 740T637 799L645 842H715L709 586H86V678L346 911Q391 952 422 994T471 1078T498 1163T506 1245Q506 1279 500 1307T479 1357T441 1389T385 1401Q348 1401 322 1387T280 1348T257 1291T250 1223Q181 1223 142 1240T102 1311Q102 1348 120 1379T173 1434T262 1470T385 1483Q528 1483 609 1427T690 1262Z"  />
<glyph unicode="&#xB3;" horiz-adv-x="819" d="M356 573Q222 573 152 619T82 741Q82 786 107 814T176 842Q176 810 186 779T218 722T272 682T350 666Q435 666 483 707T532 844Q532 916 480 958T315 1001H248V1085H315Q354 1085 387 1097T445 1133T484 1188T498 1262Q498 1330 471 1365T381 1401Q342 1401 316 1387T275 1348T253 1291T246 1223Q211 1223 183 1226T135 1240T105 1267T94 1311Q94 1348 112 1379T167 1434T257 1470T381 1483Q449 1483 505 1469T601 1429T662 1366T684 1280Q684 1235 667 1200T622 1137T555 1091T475 1059V1049Q516 1042 559 1030T637 994T696 935T719 842Q719 767 686 716T599 633T482 587T356 573Z"  />
<glyph unicode="&#xB4;" horiz-adv-x="1182" d="M391 1268Q414 1297 438 1335T486 1413T531 1494T569 1569H788V1548Q769 1521 732 1481T650 1396T558 1311T469 1241H391V1268Z"  />
<glyph unicode="&#xB5;" horiz-adv-x="1260" d="M569 -20Q483 -20 422 11T319 100Q321 15 326 -57T347 -183T396 -270T485 -313Q485 -352 477 -384T451 -441T406 -478T342 -492Q310 -492 280 -480T227 -440T190 -364T176 -248Q176 -187 179 -117T187 39T195 229T201 461V1098H393V410Q393 343 403 288T436 194T499 133T598 111Q655 111 701 135T779 202T828 307T846 442V1098H1038V264Q1038 219 1050 186T1080 130T1122 97T1167 86H1174V0H1063Q979 0 931 41T864 164H856Q832 123 805 89T743 31T666 -6T569 -20Z"  />
<glyph unicode="&#xB6;" horiz-adv-x="1264" d="M860 1452H666V-227H346V-141H373Q408 -141 438 -136T491 -116T527 -71T541 6V791H395Q305 791 245 823T149 911T98 1039T82 1192Q82 1274 99 1341T154 1456T252 1530T399 1556H1180V1470H1153Q1119 1470 1088 1465T1035 1445T999 1400T985 1323V6Q985 -42 998 -71T1034 -115T1088 -136T1153 -141H1180V-227H860V1452Z"  />
<glyph unicode="&#xB7;" horiz-adv-x="586" d="M166 729Q166 769 176 796T203 839T244 861T295 868Q321 868 344 862T385 839T413 796T424 729Q424 690 414 664T386 621T345 597T295 590Q268 590 245 597T204 620T176 663T166 729Z"  />
<glyph unicode="&#xB8;" horiz-adv-x="682" d="M551 -258Q551 -367 482 -429T281 -492Q265 -492 245 -491T204 -486T162 -479T123 -469V-365Q160 -373 197 -377T262 -381Q321 -381 354 -350T387 -266Q387 -206 344 -176T233 -141L276 18H373L352 -70Q452 -78 501 -127T551 -258Z"  />
<glyph unicode="&#xB9;" horiz-adv-x="819" d="M145 588V657H240Q258 657 273 659T299 670T317 693T324 735V1325H133V1395H236Q259 1395 285 1398T335 1410T378 1434T406 1473H508V735Q508 709 515 694T533 670T560 660T594 657H688V588H145Z"  />
<glyph unicode="&#xBA;" horiz-adv-x="813" d="M741 1126Q741 950 656 864T406 778Q248 778 160 864T72 1126Q72 1302 157 1387T410 1473Q487 1473 548 1452T652 1387T718 1279T741 1126ZM250 1126Q250 993 285 927T408 860Q494 860 529 926T565 1126Q565 1257 529 1321T406 1386Q320 1386 285 1322T250 1126Z"  />
<glyph unicode="&#xBB;" horiz-adv-x="1053" d="M549 520L236 164H133L340 553L133 942H236L549 586V520ZM920 520L606 164H504L711 553L504 942H606L920 586V520Z"  />
<glyph unicode="&#xBC;" horiz-adv-x="1720" d="M61 588V657H156Q174 657 189 659T215 670T233 693T240 735V1325H49V1395H152Q175 1395 201 1398T251 1410T294 1434T322 1473H424V735Q424 709 431 694T449 670T476 660T510 657H604V588H61ZM566 0H430L1161 1462H1295L566 0ZM1294 581Q1294 613 1297 654T1305 733Q1297 716 1288 699T1274 674L1051 350H1294V581ZM1477 262V149Q1477 123 1484 108T1503 84T1530 74T1563 71H1604V2H1153V71H1210Q1227 71 1242 73T1268 84T1287 107T1294 149V262H930V323L1313 887H1477V350H1673V262H1477Z"  />
<glyph unicode="&#xBD;" horiz-adv-x="1720" d="M61 588V657H156Q174 657 189 659T215 670T233 693T240 735V1325H49V1395H152Q175 1395 201 1398T251 1410T294 1434T322 1473H424V735Q424 709 431 694T449 670T476 660T510 657H604V588H61ZM525 0H389L1120 1462H1254L525 0ZM1620 678Q1620 630 1609 588T1572 504T1504 417T1397 317L1180 131H1477Q1524 131 1542 156T1567 215L1575 258H1645L1639 2H1016V94L1276 327Q1321 368 1352 410T1401 494T1428 579T1436 661Q1436 695 1430 723T1409 773T1371 805T1315 817Q1278 817 1252 803T1210 764T1187 707T1180 639Q1111 639 1072 656T1032 727Q1032 764 1050 795T1103 850T1192 886T1315 899Q1458 899 1539 843T1620 678Z"  />
<glyph unicode="&#xBE;" horiz-adv-x="1720" d="M356 573Q222 573 152 619T82 741Q82 786 107 814T176 842Q176 810 186 779T218 722T272 682T350 666Q435 666 483 707T532 844Q532 916 480 958T315 1001H248V1085H315Q354 1085 387 1097T445 1133T484 1188T498 1262Q498 1330 471 1365T381 1401Q342 1401 316 1387T275 1348T253 1291T246 1223Q211 1223 183 1226T135 1240T105 1267T94 1311Q94 1348 112 1379T167 1434T257 1470T381 1483Q449 1483 505 1469T601 1429T662 1366T684 1280Q684 1235 667 1200T622 1137T555 1091T475 1059V1049Q516 1042 559 1030T637 994T696 935T719 842Q719 767 686 716T599 633T482 587T356 573ZM607 0H471L1202 1462H1336L607 0ZM1294 581Q1294 613 1297 654T1305 733Q1297 716 1288 699T1274 674L1051 350H1294V581ZM1477 262V149Q1477 123 1484 108T1503 84T1530 74T1563 71H1604V2H1153V71H1210Q1227 71 1242 73T1268 84T1287 107T1294 149V262H930V323L1313 887H1477V350H1673V262H1477Z"  />
<glyph unicode="&#xBF;" horiz-adv-x="1024" d="M696 969Q696 929 686 902T659 859T618 836T567 829Q541 829 518 836T477 859T449 902T438 969Q438 1008 448 1034T476 1077T517 1101T567 1108Q594 1108 617 1101T658 1078T686 1035T696 969ZM502 682H627V371Q538 335 478 287T381 184T329 69T313 -53Q313 -106 326 -149T366 -224T435 -272T537 -289Q601 -289 644 -268T715 -211T754 -128T766 -27Q803 -27 834 -35T887 -60T923 -102T936 -160Q936 -209 914 -251T844 -323T724 -371T553 -389Q456 -389 374 -364T232 -292T138 -175T104 -18Q104 66 130 135T208 262T333 365T502 451V682Z"  />
<glyph unicode="&#xC0;" horiz-adv-x="1444" d="M788 950Q756 1041 730 1120T686 1274Q679 1237 670 1203T649 1132T624 1057T592 969L453 592H915L788 950ZM414 489L336 274Q327 250 322 227T317 186Q317 134 350 110T453 86H500V0H0V86H39Q69 86 90 92T128 117T160 166T195 246L649 1462H809L1272 195Q1284 163 1296 142T1326 109T1365 91T1417 86H1444V0H881V86H928Q1051 86 1051 184Q1051 201 1047 219T1034 260L952 489H414ZM805 1579H727Q686 1607 638 1648T545 1734T463 1818T407 1886V1907H626Q642 1873 663 1833T709 1752T758 1673T805 1606V1579Z"  />
<glyph unicode="&#xC1;" horiz-adv-x="1444" d="M788 950Q756 1041 730 1120T686 1274Q679 1237 670 1203T649 1132T624 1057T592 969L453 592H915L788 950ZM414 489L336 274Q327 250 322 227T317 186Q317 134 350 110T453 86H500V0H0V86H39Q69 86 90 92T128 117T160 166T195 246L649 1462H809L1272 195Q1284 163 1296 142T1326 109T1365 91T1417 86H1444V0H881V86H928Q1051 86 1051 184Q1051 201 1047 219T1034 260L952 489H414ZM637 1606Q660 1635 684 1673T732 1751T777 1832T815 1907H1034V1886Q1015 1859 978 1819T896 1734T804 1649T715 1579H637V1606Z"  />
<glyph unicode="&#xC2;" horiz-adv-x="1444" d="M788 950Q756 1041 730 1120T686 1274Q679 1237 670 1203T649 1132T624 1057T592 969L453 592H915L788 950ZM414 489L336 274Q327 250 322 227T317 186Q317 134 350 110T453 86H500V0H0V86H39Q69 86 90 92T128 117T160 166T195 246L649 1462H809L1272 195Q1284 163 1296 142T1326 109T1365 91T1417 86H1444V0H881V86H928Q1051 86 1051 184Q1051 201 1047 219T1034 260L952 489H414ZM422 1606Q446 1635 475 1673T532 1751T586 1832T627 1907H821Q837 1873 862 1833T915 1752T973 1673T1026 1606V1579H946Q887 1613 828 1663T723 1763Q676 1714 618 1664T502 1579H422V1606Z"  />
<glyph unicode="&#xC3;" horiz-adv-x="1444" d="M788 950Q756 1041 730 1120T686 1274Q679 1237 670 1203T649 1132T624 1057T592 969L453 592H915L788 950ZM414 489L336 274Q327 250 322 227T317 186Q317 134 350 110T453 86H500V0H0V86H39Q69 86 90 92T128 117T160 166T195 246L649 1462H809L1272 195Q1284 163 1296 142T1326 109T1365 91T1417 86H1444V0H881V86H928Q1051 86 1051 184Q1051 201 1047 219T1034 260L952 489H414ZM895 1712Q925 1712 943 1721T972 1745T987 1780T995 1821H1087Q1084 1774 1071 1731T1031 1653T966 1599T872 1579Q817 1579 773 1599T690 1643T618 1688T551 1708Q520 1708 502 1699T474 1675T458 1641T450 1600H358Q361 1647 374 1690T414 1767T480 1821T575 1841Q630 1841 674 1821T757 1777T829 1732T895 1712Z"  />
<glyph unicode="&#xC4;" horiz-adv-x="1444" d="M788 950Q756 1041 730 1120T686 1274Q679 1237 670 1203T649 1132T624 1057T592 969L453 592H915L788 950ZM414 489L336 274Q327 250 322 227T317 186Q317 134 350 110T453 86H500V0H0V86H39Q69 86 90 92T128 117T160 166T195 246L649 1462H809L1272 195Q1284 163 1296 142T1326 109T1365 91T1417 86H1444V0H881V86H928Q1051 86 1051 184Q1051 201 1047 219T1034 260L952 489H414ZM813 1747Q813 1779 821 1801T843 1836T876 1856T917 1862Q939 1862 958 1856T991 1837T1014 1801T1022 1747Q1022 1716 1014 1694T992 1658T958 1638T917 1632Q872 1632 843 1658T813 1747ZM424 1747Q424 1779 432 1801T454 1836T487 1856T528 1862Q550 1862 569 1856T602 1837T625 1801T633 1747Q633 1716 625 1694T603 1658T569 1638T528 1632Q483 1632 454 1658T424 1747Z"  />
<glyph unicode="&#xC5;" horiz-adv-x="1444" d="M788 950Q756 1041 730 1120T686 1274Q679 1237 670 1203T649 1132T624 1057T592 969L453 592H915L788 950ZM414 489L336 274Q327 250 322 227T317 186Q317 134 350 110T453 86H500V0H0V86H39Q69 86 90 92T128 117T160 166T195 246L649 1462H809L1272 195Q1284 163 1296 142T1326 109T1365 91T1417 86H1444V0H881V86H928Q1051 86 1051 184Q1051 201 1047 219T1034 260L952 489H414ZM860 1585Q860 1618 850 1641T821 1679T778 1701T725 1708Q697 1708 673 1701T630 1680T601 1642T590 1585Q590 1552 600 1529T629 1491T672 1469T725 1462Q753 1462 777 1469T820 1490T849 1528T860 1585ZM971 1585Q971 1530 952 1489T900 1419T821 1377T725 1362Q674 1362 629 1376T551 1419T498 1488T479 1585Q479 1639 498 1681T550 1751T629 1793T725 1808Q776 1808 821 1794T899 1751T952 1681T971 1585Z"  />
<glyph unicode="&#xC6;" horiz-adv-x="1948" d="M526 592H944V1360H915Q890 1304 849 1221T757 1038T646 823T526 592ZM1151 102H1546Q1594 102 1628 115T1686 152T1722 205T1741 270L1755 358H1862L1847 0H750V86H776Q810 86 840 90T892 109T929 150T944 223V489H473L360 274Q343 242 336 213T328 166Q328 124 359 105T451 86H498V0H0V86H33Q87 86 129 124T215 246L807 1366L647 1376V1462H1782L1792 1104H1686L1675 1192Q1671 1226 1660 1256T1628 1308T1574 1345T1495 1360H1151V815H1645V715H1151V102Z"  />
<glyph unicode="&#xC7;" horiz-adv-x="1257" d="M774 1483Q879 1483 956 1466T1085 1417T1162 1344T1188 1253Q1188 1220 1175 1194T1137 1149T1081 1120T1010 1110Q1010 1158 998 1205T957 1289T883 1350T770 1374Q654 1374 573 1332T441 1208T367 1007T344 733Q344 596 368 482T444 287T576 160T770 115Q845 115 902 129T1004 168T1081 223T1141 289Q1158 278 1169 259T1180 209Q1180 170 1154 130T1073 56T936 2T739 -20Q586 -20 470 34T276 187T157 425T117 733Q117 899 159 1037T283 1274T489 1428T774 1483ZM942 -258Q942 -367 873 -429T672 -492Q656 -492 636 -491T595 -486T553 -479T514 -469V-365Q551 -373 588 -377T653 -381Q712 -381 745 -350T778 -266Q778 -206 735 -176T624 -141L667 18H764L743 -70Q843 -78 892 -127T942 -258Z"  />
<glyph unicode="&#xC8;" horiz-adv-x="1276" d="M479 102H874Q923 102 957 115T1015 152T1051 205T1069 270L1083 358H1190L1176 0H78V86H104Q138 86 168 90T222 109T258 150T272 223V1229Q272 1277 259 1306T223 1350T170 1371T104 1376H78V1462H1110L1120 1104H1014L1004 1192Q1000 1226 989 1256T956 1310T902 1346T823 1360H479V815H973V715H479V102ZM744 1579H666Q625 1607 577 1648T484 1734T402 1818T346 1886V1907H565Q581 1873 602 1833T648 1752T697 1673T744 1606V1579Z"  />
<glyph unicode="&#xC9;" horiz-adv-x="1276" d="M479 102H874Q923 102 957 115T1015 152T1051 205T1069 270L1083 358H1190L1176 0H78V86H104Q138 86 168 90T222 109T258 150T272 223V1229Q272 1277 259 1306T223 1350T170 1371T104 1376H78V1462H1110L1120 1104H1014L1004 1192Q1000 1226 989 1256T956 1310T902 1346T823 1360H479V815H973V715H479V102ZM545 1606Q568 1635 592 1673T640 1751T685 1832T723 1907H942V1886Q923 1859 886 1819T804 1734T712 1649T623 1579H545V1606Z"  />
<glyph unicode="&#xCA;" horiz-adv-x="1276" d="M479 102H874Q923 102 957 115T1015 152T1051 205T1069 270L1083 358H1190L1176 0H78V86H104Q138 86 168 90T222 109T258 150T272 223V1229Q272 1277 259 1306T223 1350T170 1371T104 1376H78V1462H1110L1120 1104H1014L1004 1192Q1000 1226 989 1256T956 1310T902 1346T823 1360H479V815H973V715H479V102ZM350 1606Q374 1635 403 1673T460 1751T514 1832T555 1907H749Q765 1873 790 1833T843 1752T901 1673T954 1606V1579H874Q815 1613 756 1663T651 1763Q604 1714 546 1664T430 1579H350V1606Z"  />
<glyph unicode="&#xCB;" horiz-adv-x="1276" d="M479 102H874Q923 102 957 115T1015 152T1051 205T1069 270L1083 358H1190L1176 0H78V86H104Q138 86 168 90T222 109T258 150T272 223V1229Q272 1277 259 1306T223 1350T170 1371T104 1376H78V1462H1110L1120 1104H1014L1004 1192Q1000 1226 989 1256T956 1310T902 1346T823 1360H479V815H973V715H479V102ZM731 1747Q731 1779 739 1801T761 1836T794 1856T835 1862Q857 1862 876 1856T909 1837T932 1801T940 1747Q940 1716 932 1694T910 1658T876 1638T835 1632Q790 1632 761 1658T731 1747ZM342 1747Q342 1779 350 1801T372 1836T405 1856T446 1862Q468 1862 487 1856T520 1837T543 1801T551 1747Q551 1716 543 1694T521 1658T487 1638T446 1632Q401 1632 372 1658T342 1747Z"  />
<glyph unicode="&#xCC;" horiz-adv-x="752" d="M78 0V86H104Q139 86 169 91T223 111T259 156T272 233V1229Q272 1277 259 1306T223 1350T170 1371T104 1376H78V1462H674V1376H647Q613 1376 582 1371T529 1351T493 1306T479 1229V233Q479 185 492 156T528 112T582 91T647 86H674V0H78ZM474 1579H396Q355 1607 307 1648T214 1734T132 1818T76 1886V1907H295Q311 1873 332 1833T378 1752T427 1673T474 1606V1579Z"  />
<glyph unicode="&#xCD;" horiz-adv-x="752" d="M78 0V86H104Q139 86 169 91T223 111T259 156T272 233V1229Q272 1277 259 1306T223 1350T170 1371T104 1376H78V1462H674V1376H647Q613 1376 582 1371T529 1351T493 1306T479 1229V233Q479 185 492 156T528 112T582 91T647 86H674V0H78ZM272 1606Q295 1635 319 1673T367 1751T412 1832T450 1907H669V1886Q650 1859 613 1819T531 1734T439 1649T350 1579H272V1606Z"  />
<glyph unicode="&#xCE;" horiz-adv-x="752" d="M78 0V86H104Q139 86 169 91T223 111T259 156T272 233V1229Q272 1277 259 1306T223 1350T170 1371T104 1376H78V1462H674V1376H647Q613 1376 582 1371T529 1351T493 1306T479 1229V233Q479 185 492 156T528 112T582 91T647 86H674V0H78ZM74 1606Q98 1635 127 1673T184 1751T238 1832T279 1907H473Q489 1873 514 1833T567 1752T625 1673T678 1606V1579H598Q539 1613 480 1663T375 1763Q328 1714 270 1664T154 1579H74V1606Z"  />
<glyph unicode="&#xCF;" horiz-adv-x="752" d="M78 0V86H104Q139 86 169 91T223 111T259 156T272 233V1229Q272 1277 259 1306T223 1350T170 1371T104 1376H78V1462H674V1376H647Q613 1376 582 1371T529 1351T493 1306T479 1229V233Q479 185 492 156T528 112T582 91T647 86H674V0H78ZM463 1747Q463 1779 471 1801T493 1836T526 1856T567 1862Q589 1862 608 1856T641 1837T664 1801T672 1747Q672 1716 664 1694T642 1658T608 1638T567 1632Q522 1632 493 1658T463 1747ZM74 1747Q74 1779 82 1801T104 1836T137 1856T178 1862Q200 1862 219 1856T252 1837T275 1801T283 1747Q283 1716 275 1694T253 1658T219 1638T178 1632Q133 1632 104 1658T74 1747Z"  />
<glyph unicode="&#xD0;" horiz-adv-x="1489" d="M657 104Q779 104 870 145T1023 267T1114 464T1145 733Q1145 885 1115 1002T1024 1198T872 1319T659 1360H479V815H827V715H479V104H657ZM78 815H272V1237Q272 1282 259 1309T222 1352T169 1371T104 1376H78V1462H705Q863 1462 987 1414T1196 1272T1327 1043T1372 733Q1372 565 1330 430T1205 199T997 52T705 0H78V86H104Q139 86 169 91T223 111T259 156T272 233V715H78V815Z"  />
<glyph unicode="&#xD1;" horiz-adv-x="1563" d="M1165 0L397 1180V233Q397 185 410 156T446 112T500 91T565 86H592V0H78V86H104Q139 86 169 91T223 111T259 156T272 233V1237Q272 1282 259 1309T222 1352T169 1371T104 1376H78V1462H453L1186 330V1237Q1186 1282 1173 1309T1136 1352T1083 1371T1018 1376H991V1462H1505V1376H1479Q1444 1376 1414 1371T1360 1351T1324 1306T1311 1229V0H1165ZM979 1712Q1009 1712 1027 1721T1056 1745T1071 1780T1079 1821H1171Q1168 1774 1155 1731T1115 1653T1050 1599T956 1579Q901 1579 857 1599T774 1643T702 1688T635 1708Q604 1708 586 1699T558 1675T542 1641T534 1600H442Q445 1647 458 1690T498 1767T564 1821T659 1841Q714 1841 758 1821T841 1777T913 1732T979 1712Z"  />
<glyph unicode="&#xD2;" horiz-adv-x="1520" d="M342 733Q342 581 364 462T437 260T566 134T760 90Q874 90 953 133T1082 259T1154 461T1176 733Q1176 885 1154 1004T1083 1206T955 1331T762 1374Q648 1374 568 1331T438 1206T365 1005T342 733ZM1403 733Q1403 564 1361 425T1237 187T1035 34T760 -20Q597 -20 476 34T275 187T155 425T115 735Q115 905 155 1043T275 1280T477 1431T762 1485Q917 1485 1036 1432T1237 1280T1361 1043T1403 733ZM861 1579H783Q742 1607 694 1648T601 1734T519 1818T463 1886V1907H682Q698 1873 719 1833T765 1752T814 1673T861 1606V1579Z"  />
<glyph unicode="&#xD3;" horiz-adv-x="1520" d="M342 733Q342 581 364 462T437 260T566 134T760 90Q874 90 953 133T1082 259T1154 461T1176 733Q1176 885 1154 1004T1083 1206T955 1331T762 1374Q648 1374 568 1331T438 1206T365 1005T342 733ZM1403 733Q1403 564 1361 425T1237 187T1035 34T760 -20Q597 -20 476 34T275 187T155 425T115 735Q115 905 155 1043T275 1280T477 1431T762 1485Q917 1485 1036 1432T1237 1280T1361 1043T1403 733ZM649 1606Q672 1635 696 1673T744 1751T789 1832T827 1907H1046V1886Q1027 1859 990 1819T908 1734T816 1649T727 1579H649V1606Z"  />
<glyph unicode="&#xD4;" horiz-adv-x="1520" d="M342 733Q342 581 364 462T437 260T566 134T760 90Q874 90 953 133T1082 259T1154 461T1176 733Q1176 885 1154 1004T1083 1206T955 1331T762 1374Q648 1374 568 1331T438 1206T365 1005T342 733ZM1403 733Q1403 564 1361 425T1237 187T1035 34T760 -20Q597 -20 476 34T275 187T155 425T115 735Q115 905 155 1043T275 1280T477 1431T762 1485Q917 1485 1036 1432T1237 1280T1361 1043T1403 733ZM459 1606Q483 1635 512 1673T569 1751T623 1832T664 1907H858Q874 1873 899 1833T952 1752T1010 1673T1063 1606V1579H983Q924 1613 865 1663T760 1763Q713 1714 655 1664T539 1579H459V1606Z"  />
<glyph unicode="&#xD5;" horiz-adv-x="1520" d="M342 733Q342 581 364 462T437 260T566 134T760 90Q874 90 953 133T1082 259T1154 461T1176 733Q1176 885 1154 1004T1083 1206T955 1331T762 1374Q648 1374 568 1331T438 1206T365 1005T342 733ZM1403 733Q1403 564 1361 425T1237 187T1035 34T760 -20Q597 -20 476 34T275 187T155 425T115 735Q115 905 155 1043T275 1280T477 1431T762 1485Q917 1485 1036 1432T1237 1280T1361 1043T1403 733ZM918 1712Q948 1712 966 1721T995 1745T1010 1780T1018 1821H1110Q1107 1774 1094 1731T1054 1653T989 1599T895 1579Q840 1579 796 1599T713 1643T641 1688T574 1708Q543 1708 525 1699T497 1675T481 1641T473 1600H381Q384 1647 397 1690T437 1767T503 1821T598 1841Q653 1841 697 1821T780 1777T852 1732T918 1712Z"  />
<glyph unicode="&#xD6;" horiz-adv-x="1520" d="M342 733Q342 581 364 462T437 260T566 134T760 90Q874 90 953 133T1082 259T1154 461T1176 733Q1176 885 1154 1004T1083 1206T955 1331T762 1374Q648 1374 568 1331T438 1206T365 1005T342 733ZM1403 733Q1403 564 1361 425T1237 187T1035 34T760 -20Q597 -20 476 34T275 187T155 425T115 735Q115 905 155 1043T275 1280T477 1431T762 1485Q917 1485 1036 1432T1237 1280T1361 1043T1403 733ZM844 1747Q844 1779 852 1801T874 1836T907 1856T948 1862Q970 1862 989 1856T1022 1837T1045 1801T1053 1747Q1053 1716 1045 1694T1023 1658T989 1638T948 1632Q903 1632 874 1658T844 1747ZM455 1747Q455 1779 463 1801T485 1836T518 1856T559 1862Q581 1862 600 1856T633 1837T656 1801T664 1747Q664 1716 656 1694T634 1658T600 1638T559 1632Q514 1632 485 1658T455 1747Z"  />
<glyph unicode="&#xD7;" horiz-adv-x="1145" d="M571 647L231 307L145 395L485 735L145 1073L231 1159L571 819L911 1161L997 1073L657 733L997 393L911 307L571 647Z"  />
<glyph unicode="&#xD8;" horiz-adv-x="1520" d="M1176 733Q1176 886 1154 1004T1081 1206L510 170Q605 90 760 90Q874 90 953 133T1082 259T1154 461T1176 733ZM342 733Q342 578 364 460T438 258L1010 1292Q916 1374 762 1374Q648 1374 568 1331T438 1206T365 1005T342 733ZM1163 1354Q1281 1257 1342 1099T1403 733Q1403 564 1361 425T1237 187T1035 34T760 -20Q667 -20 588 -3T442 49L371 -82H250L354 106Q233 204 174 364T115 735Q115 905 155 1043T275 1280T477 1431T762 1485Q853 1485 931 1466T1075 1411L1151 1546H1270L1163 1354Z"  />
<glyph unicode="&#xD9;" horiz-adv-x="1468" d="M741 -20Q620 -20 524 5T362 86T260 229T225 442V1237Q225 1282 212 1309T175 1352T122 1371T57 1376H31V1462H627V1376H600Q566 1376 535 1371T482 1351T446 1306T432 1229V430Q432 341 457 279T528 177T636 120T774 102Q863 102 927 126T1034 192T1097 293T1118 422V1237Q1118 1282 1105 1309T1068 1352T1015 1371T950 1376H924V1462H1438V1376H1411Q1377 1376 1346 1371T1293 1351T1257 1306T1243 1229V418Q1243 316 1211 235T1115 97T957 10T741 -20ZM852 1579H774Q733 1607 685 1648T592 1734T510 1818T454 1886V1907H673Q689 1873 710 1833T756 1752T805 1673T852 1606V1579Z"  />
<glyph unicode="&#xDA;" horiz-adv-x="1468" d="M741 -20Q620 -20 524 5T362 86T260 229T225 442V1237Q225 1282 212 1309T175 1352T122 1371T57 1376H31V1462H627V1376H600Q566 1376 535 1371T482 1351T446 1306T432 1229V430Q432 341 457 279T528 177T636 120T774 102Q863 102 927 126T1034 192T1097 293T1118 422V1237Q1118 1282 1105 1309T1068 1352T1015 1371T950 1376H924V1462H1438V1376H1411Q1377 1376 1346 1371T1293 1351T1257 1306T1243 1229V418Q1243 316 1211 235T1115 97T957 10T741 -20ZM649 1606Q672 1635 696 1673T744 1751T789 1832T827 1907H1046V1886Q1027 1859 990 1819T908 1734T816 1649T727 1579H649V1606Z"  />
<glyph unicode="&#xDB;" horiz-adv-x="1468" d="M741 -20Q620 -20 524 5T362 86T260 229T225 442V1237Q225 1282 212 1309T175 1352T122 1371T57 1376H31V1462H627V1376H600Q566 1376 535 1371T482 1351T446 1306T432 1229V430Q432 341 457 279T528 177T636 120T774 102Q863 102 927 126T1034 192T1097 293T1118 422V1237Q1118 1282 1105 1309T1068 1352T1015 1371T950 1376H924V1462H1438V1376H1411Q1377 1376 1346 1371T1293 1351T1257 1306T1243 1229V418Q1243 316 1211 235T1115 97T957 10T741 -20ZM471 1606Q495 1635 524 1673T581 1751T635 1832T676 1907H870Q886 1873 911 1833T964 1752T1022 1673T1075 1606V1579H995Q936 1613 877 1663T772 1763Q725 1714 667 1664T551 1579H471V1606Z"  />
<glyph unicode="&#xDC;" horiz-adv-x="1468" d="M741 -20Q620 -20 524 5T362 86T260 229T225 442V1237Q225 1282 212 1309T175 1352T122 1371T57 1376H31V1462H627V1376H600Q566 1376 535 1371T482 1351T446 1306T432 1229V430Q432 341 457 279T528 177T636 120T774 102Q863 102 927 126T1034 192T1097 293T1118 422V1237Q1118 1282 1105 1309T1068 1352T1015 1371T950 1376H924V1462H1438V1376H1411Q1377 1376 1346 1371T1293 1351T1257 1306T1243 1229V418Q1243 316 1211 235T1115 97T957 10T741 -20ZM866 1747Q866 1779 874 1801T896 1836T929 1856T970 1862Q992 1862 1011 1856T1044 1837T1067 1801T1075 1747Q1075 1716 1067 1694T1045 1658T1011 1638T970 1632Q925 1632 896 1658T866 1747ZM477 1747Q477 1779 485 1801T507 1836T540 1856T581 1862Q603 1862 622 1856T655 1837T678 1801T686 1747Q686 1716 678 1694T656 1658T622 1638T581 1632Q536 1632 507 1658T477 1747Z"  />
<glyph unicode="&#xDD;" horiz-adv-x="1280" d="M326 0V86H373Q407 86 437 90T491 109T527 150T541 223V610L162 1268Q145 1297 130 1317T99 1351T62 1370T16 1376H-10V1462H553V1376H477Q449 1376 432 1371T404 1357T391 1336T387 1311Q387 1282 399 1253T424 1202L575 928Q611 865 636 804T678 694Q687 716 700 743T730 800T765 863T801 928L932 1163Q952 1198 960 1229T969 1286Q969 1331 937 1353T846 1376H786V1462H1286V1376H1262Q1240 1376 1221 1369T1181 1343T1140 1294T1092 1217L748 610V233Q748 185 761 156T797 112T850 91T915 86H963V0H326ZM567 1606Q590 1635 614 1673T662 1751T707 1832T745 1907H964V1886Q945 1859 908 1819T826 1734T734 1649T645 1579H567V1606Z"  />
<glyph unicode="&#xDE;" horiz-adv-x="1237" d="M479 412H588Q681 412 747 428T855 484T916 589T936 752Q936 838 919 898T864 996T766 1051T618 1069H479V412ZM78 0V86H104Q139 86 169 91T223 111T259 156T272 233V1229Q272 1277 259 1306T223 1350T170 1371T104 1376H78V1462H694V1376H647Q613 1376 582 1371T529 1351T493 1306T479 1229V1167H653Q911 1167 1034 1064T1157 760Q1157 669 1129 588T1035 446T865 350T608 315H479V233Q479 185 492 156T528 112T582 91T647 86H694V0H78Z"  />
<glyph unicode="&#xDF;" horiz-adv-x="1325" d="M887 78Q962 78 1010 124T1059 264Q1059 298 1052 327T1022 383T961 437T860 494Q796 526 747 557T666 626T617 712T600 825Q600 887 620 938T682 1025T787 1082T938 1102Q938 1199 924 1268T879 1383T800 1449T682 1470Q620 1470 574 1450T496 1394T450 1305T434 1188V0H47V86H74Q109 86 139 91T192 111T228 156T242 233V1001H76V1098H242V1159Q242 1272 276 1349T369 1473T509 1542T684 1563Q812 1563 897 1527T1033 1420T1107 1245T1130 1006H981Q872 1006 821 965T770 840Q770 809 780 784T815 735T881 688T983 635Q1060 600 1109 561T1186 478T1224 390T1235 299Q1235 221 1211 161T1143 61T1034 1T889 -20Q817 -20 758 -7T657 34T592 102T569 197Q569 238 581 265T611 309T649 331T686 338Q686 284 696 237T730 155T792 99T887 78Z"  />
<glyph unicode="&#xE0;" horiz-adv-x="1153" d="M549 1016Q490 1016 454 1000T397 953T369 882T362 793Q277 793 233 822T188 922Q188 975 217 1012T296 1072T414 1107T557 1118Q651 1118 721 1100T838 1039T908 930T932 764V233Q932 190 939 162T961 117T1000 93T1059 86H1065V0H788L756 176H739Q707 133 677 97T611 35T530 -5T420 -20Q352 -20 294 -1T193 59T126 161T102 307Q102 470 218 549T569 635L739 641V764Q739 819 733 865T707 945T650 997T549 1016ZM301 297Q301 201 341 154T467 106Q529 106 579 126T665 183T720 273T739 391V557L608 551Q521 547 463 530T368 481T317 403T301 297ZM668 1241H590Q549 1269 501 1310T408 1396T326 1480T270 1548V1569H489Q505 1535 526 1495T572 1414T621 1335T668 1268V1241Z"  />
<glyph unicode="&#xE1;" horiz-adv-x="1153" d="M549 1016Q490 1016 454 1000T397 953T369 882T362 793Q277 793 233 822T188 922Q188 975 217 1012T296 1072T414 1107T557 1118Q651 1118 721 1100T838 1039T908 930T932 764V233Q932 190 939 162T961 117T1000 93T1059 86H1065V0H788L756 176H739Q707 133 677 97T611 35T530 -5T420 -20Q352 -20 294 -1T193 59T126 161T102 307Q102 470 218 549T569 635L739 641V764Q739 819 733 865T707 945T650 997T549 1016ZM301 297Q301 201 341 154T467 106Q529 106 579 126T665 183T720 273T739 391V557L608 551Q521 547 463 530T368 481T317 403T301 297ZM471 1268Q494 1297 518 1335T566 1413T611 1494T649 1569H868V1548Q849 1521 812 1481T730 1396T638 1311T549 1241H471V1268Z"  />
<glyph unicode="&#xE2;" horiz-adv-x="1153" d="M549 1016Q490 1016 454 1000T397 953T369 882T362 793Q277 793 233 822T188 922Q188 975 217 1012T296 1072T414 1107T557 1118Q651 1118 721 1100T838 1039T908 930T932 764V233Q932 190 939 162T961 117T1000 93T1059 86H1065V0H788L756 176H739Q707 133 677 97T611 35T530 -5T420 -20Q352 -20 294 -1T193 59T126 161T102 307Q102 470 218 549T569 635L739 641V764Q739 819 733 865T707 945T650 997T549 1016ZM301 297Q301 201 341 154T467 106Q529 106 579 126T665 183T720 273T739 391V557L608 551Q521 547 463 530T368 481T317 403T301 297ZM262 1268Q286 1297 315 1335T372 1413T426 1494T467 1569H661Q677 1535 702 1495T755 1414T813 1335T866 1268V1241H786Q727 1275 668 1325T563 1425Q516 1376 458 1326T342 1241H262V1268Z"  />
<glyph unicode="&#xE3;" horiz-adv-x="1153" d="M549 1016Q490 1016 454 1000T397 953T369 882T362 793Q277 793 233 822T188 922Q188 975 217 1012T296 1072T414 1107T557 1118Q651 1118 721 1100T838 1039T908 930T932 764V233Q932 190 939 162T961 117T1000 93T1059 86H1065V0H788L756 176H739Q707 133 677 97T611 35T530 -5T420 -20Q352 -20 294 -1T193 59T126 161T102 307Q102 470 218 549T569 635L739 641V764Q739 819 733 865T707 945T650 997T549 1016ZM301 297Q301 201 341 154T467 106Q529 106 579 126T665 183T720 273T739 391V557L608 551Q521 547 463 530T368 481T317 403T301 297ZM744 1374Q774 1374 792 1383T821 1407T836 1442T844 1483H936Q933 1436 920 1393T880 1315T815 1261T721 1241Q666 1241 622 1261T539 1305T467 1350T400 1370Q369 1370 351 1361T323 1337T307 1303T299 1262H207Q210 1309 223 1352T263 1429T329 1483T424 1503Q479 1503 523 1483T606 1439T678 1394T744 1374Z"  />
<glyph unicode="&#xE4;" horiz-adv-x="1153" d="M549 1016Q490 1016 454 1000T397 953T369 882T362 793Q277 793 233 822T188 922Q188 975 217 1012T296 1072T414 1107T557 1118Q651 1118 721 1100T838 1039T908 930T932 764V233Q932 190 939 162T961 117T1000 93T1059 86H1065V0H788L756 176H739Q707 133 677 97T611 35T530 -5T420 -20Q352 -20 294 -1T193 59T126 161T102 307Q102 470 218 549T569 635L739 641V764Q739 819 733 865T707 945T650 997T549 1016ZM301 297Q301 201 341 154T467 106Q529 106 579 126T665 183T720 273T739 391V557L608 551Q521 547 463 530T368 481T317 403T301 297ZM647 1409Q647 1441 655 1463T677 1498T710 1518T751 1524Q773 1524 792 1518T825 1499T848 1463T856 1409Q856 1378 848 1356T826 1320T792 1300T751 1294Q706 1294 677 1320T647 1409ZM258 1409Q258 1441 266 1463T288 1498T321 1518T362 1524Q384 1524 403 1518T436 1499T459 1463T467 1409Q467 1378 459 1356T437 1320T403 1300T362 1294Q317 1294 288 1320T258 1409Z"  />
<glyph unicode="&#xE5;" horiz-adv-x="1153" d="M549 1016Q490 1016 454 1000T397 953T369 882T362 793Q277 793 233 822T188 922Q188 975 217 1012T296 1072T414 1107T557 1118Q651 1118 721 1100T838 1039T908 930T932 764V233Q932 190 939 162T961 117T1000 93T1059 86H1065V0H788L756 176H739Q707 133 677 97T611 35T530 -5T420 -20Q352 -20 294 -1T193 59T126 161T102 307Q102 470 218 549T569 635L739 641V764Q739 819 733 865T707 945T650 997T549 1016ZM301 297Q301 201 341 154T467 106Q529 106 579 126T665 183T720 273T739 391V557L608 551Q521 547 463 530T368 481T317 403T301 297ZM708 1444Q708 1477 698 1500T669 1538T626 1560T573 1567Q545 1567 521 1560T478 1539T449 1501T438 1444Q438 1411 448 1388T477 1350T520 1328T573 1321Q601 1321 625 1328T668 1349T697 1387T708 1444ZM819 1444Q819 1389 800 1348T748 1278T669 1236T573 1221Q522 1221 477 1235T399 1278T346 1347T327 1444Q327 1498 346 1540T398 1610T477 1652T573 1667Q624 1667 669 1653T747 1610T800 1540T819 1444Z"  />
<glyph unicode="&#xE6;" horiz-adv-x="1722" d="M1221 -20Q1071 -20 967 39T805 213Q786 167 752 125T670 51T559 -1T420 -20Q352 -20 294 -1T193 59T126 161T102 307Q102 470 218 549T569 635L739 641V764Q739 819 733 865T707 945T650 997T549 1016Q490 1016 454 1000T397 953T369 882T362 793Q277 793 233 822T188 922Q188 975 217 1012T296 1072T414 1107T557 1118Q673 1118 752 1089T877 993Q991 1118 1194 1118Q1293 1118 1372 1087T1506 995T1590 842T1620 629V535H938Q940 423 959 343T1017 210T1115 134T1255 109Q1300 109 1342 120T1420 150T1486 196T1536 252Q1550 246 1562 227T1575 182Q1575 151 1553 116T1487 50T1377 0T1221 -20ZM1190 1008Q1075 1008 1014 916T942 645H1413Q1413 726 1401 793T1363 908T1295 982T1190 1008ZM301 297Q301 201 341 154T467 106Q529 106 579 126T665 183T720 273T739 391V514V541V557L608 551Q521 547 463 530T368 481T317 403T301 297Z"  />
<glyph unicode="&#xE7;" horiz-adv-x="1008" d="M580 -20Q478 -20 392 11T244 111T148 285T113 543Q113 707 147 817T243 995T388 1090T569 1118Q633 1118 696 1106T811 1067T894 1002T926 909Q926 838 880 809T743 780Q743 828 735 871T708 946T655 997T569 1016Q510 1016 463 994T381 918T329 773T311 545Q311 327 383 220T621 113Q716 113 787 153T893 256Q908 244 918 224T928 176Q928 141 906 106T841 43T732 -2T580 -20ZM784 -258Q784 -367 715 -429T514 -492Q498 -492 478 -491T437 -486T395 -479T356 -469V-365Q393 -373 430 -377T495 -381Q554 -381 587 -350T620 -266Q620 -206 577 -176T466 -141L509 18H606L585 -70Q685 -78 734 -127T784 -258Z"  />
<glyph unicode="&#xE8;" horiz-adv-x="1096" d="M588 -20Q477 -20 389 17T239 127T146 303T113 541Q113 828 231 973T567 1118Q666 1118 745 1087T879 995T963 842T993 629V535H311Q313 423 333 343T392 210T487 134T616 109Q669 109 714 121T797 153T862 198T909 252Q923 246 935 227T948 182Q948 151 926 116T859 50T747 0T588 -20ZM563 1008Q449 1008 388 916T315 645H786Q786 726 774 793T736 908T668 982T563 1008ZM684 1241H606Q565 1269 517 1310T424 1396T342 1480T286 1548V1569H505Q521 1535 542 1495T588 1414T637 1335T684 1268V1241Z"  />
<glyph unicode="&#xE9;" horiz-adv-x="1096" d="M588 -20Q477 -20 389 17T239 127T146 303T113 541Q113 828 231 973T567 1118Q666 1118 745 1087T879 995T963 842T993 629V535H311Q313 423 333 343T392 210T487 134T616 109Q669 109 714 121T797 153T862 198T909 252Q923 246 935 227T948 182Q948 151 926 116T859 50T747 0T588 -20ZM563 1008Q449 1008 388 916T315 645H786Q786 726 774 793T736 908T668 982T563 1008ZM473 1268Q496 1297 520 1335T568 1413T613 1494T651 1569H870V1548Q851 1521 814 1481T732 1396T640 1311T551 1241H473V1268Z"  />
<glyph unicode="&#xEA;" horiz-adv-x="1096" d="M588 -20Q477 -20 389 17T239 127T146 303T113 541Q113 828 231 973T567 1118Q666 1118 745 1087T879 995T963 842T993 629V535H311Q313 423 333 343T392 210T487 134T616 109Q669 109 714 121T797 153T862 198T909 252Q923 246 935 227T948 182Q948 151 926 116T859 50T747 0T588 -20ZM563 1008Q449 1008 388 916T315 645H786Q786 726 774 793T736 908T668 982T563 1008ZM256 1268Q280 1297 309 1335T366 1413T420 1494T461 1569H655Q671 1535 696 1495T749 1414T807 1335T860 1268V1241H780Q721 1275 662 1325T557 1425Q510 1376 452 1326T336 1241H256V1268Z"  />
<glyph unicode="&#xEB;" horiz-adv-x="1096" d="M588 -20Q477 -20 389 17T239 127T146 303T113 541Q113 828 231 973T567 1118Q666 1118 745 1087T879 995T963 842T993 629V535H311Q313 423 333 343T392 210T487 134T616 109Q669 109 714 121T797 153T862 198T909 252Q923 246 935 227T948 182Q948 151 926 116T859 50T747 0T588 -20ZM563 1008Q449 1008 388 916T315 645H786Q786 726 774 793T736 908T668 982T563 1008ZM643 1409Q643 1441 651 1463T673 1498T706 1518T747 1524Q769 1524 788 1518T821 1499T844 1463T852 1409Q852 1378 844 1356T822 1320T788 1300T747 1294Q702 1294 673 1320T643 1409ZM254 1409Q254 1441 262 1463T284 1498T317 1518T358 1524Q380 1524 399 1518T432 1499T455 1463T463 1409Q463 1378 455 1356T433 1320T399 1300T358 1294Q313 1294 284 1320T254 1409Z"  />
<glyph unicode="&#xEC;" horiz-adv-x="655" d="M74 86Q108 86 138 90T192 109T228 150T242 223V872Q242 917 229 944T192 987T139 1007T74 1012H68V1098H434V233Q434 185 447 156T483 112T537 91T602 86H629V0H47V86H74ZM437 1241H359Q318 1269 270 1310T177 1396T95 1480T39 1548V1569H258Q274 1535 295 1495T341 1414T390 1335T437 1268V1241Z"  />
<glyph unicode="&#xED;" horiz-adv-x="655" d="M74 86Q108 86 138 90T192 109T228 150T242 223V872Q242 917 229 944T192 987T139 1007T74 1012H68V1098H434V233Q434 185 447 156T483 112T537 91T602 86H629V0H47V86H74ZM241 1268Q264 1297 288 1335T336 1413T381 1494T419 1569H638V1548Q619 1521 582 1481T500 1396T408 1311T319 1241H241V1268Z"  />
<glyph unicode="&#xEE;" horiz-adv-x="655" d="M74 86Q108 86 138 90T192 109T228 150T242 223V872Q242 917 229 944T192 987T139 1007T74 1012H68V1098H434V233Q434 185 447 156T483 112T537 91T602 86H629V0H47V86H74ZM23 1268Q47 1297 76 1335T133 1413T187 1494T228 1569H422Q438 1535 463 1495T516 1414T574 1335T627 1268V1241H547Q488 1275 429 1325T324 1425Q277 1376 219 1326T103 1241H23V1268Z"  />
<glyph unicode="&#xEF;" horiz-adv-x="655" d="M74 86Q108 86 138 90T192 109T228 150T242 223V872Q242 917 229 944T192 987T139 1007T74 1012H68V1098H434V233Q434 185 447 156T483 112T537 91T602 86H629V0H47V86H74ZM408 1409Q408 1441 416 1463T438 1498T471 1518T512 1524Q534 1524 553 1518T586 1499T609 1463T617 1409Q617 1378 609 1356T587 1320T553 1300T512 1294Q467 1294 438 1320T408 1409ZM19 1409Q19 1441 27 1463T49 1498T82 1518T123 1524Q145 1524 164 1518T197 1499T220 1463T228 1409Q228 1378 220 1356T198 1320T164 1300T123 1294Q78 1294 49 1320T19 1409Z"  />
<glyph unicode="&#xF0;" horiz-adv-x="1182" d="M311 510Q311 405 326 326T374 194T461 113T592 86Q669 86 722 113T808 193T855 326T870 510Q870 614 855 692T807 823T721 902T590 928Q513 928 460 902T374 824T326 693T311 510ZM307 1559Q401 1536 491 1499T662 1407L926 1561V1444L745 1341Q817 1281 877 1204T979 1032T1045 829T1069 596Q1069 284 947 132T588 -20Q477 -20 389 12T240 111T146 276T113 510Q113 776 234 906T594 1036Q662 1036 720 1022T829 983Q808 1051 755 1126T623 1270L367 1124V1239L539 1337Q488 1371 430 1399T307 1448V1559Z"  />
<glyph unicode="&#xF1;" horiz-adv-x="1321" d="M608 86V0H57V86H74Q109 86 139 91T192 111T228 156T242 233V872Q242 917 229 944T192 987T139 1007T74 1012H68V1098H399L426 932H436Q468 989 503 1025T578 1082T662 1110T756 1118Q837 1118 900 1095T1008 1023T1076 898T1100 717V233Q1100 185 1111 156T1144 112T1194 91T1257 86H1264V0H907V707Q907 774 895 826T857 914T787 968T682 987Q612 987 565 960T488 887T447 781T434 655V223Q434 178 447 151T484 109T537 91T602 86H608ZM842 1374Q872 1374 890 1383T919 1407T934 1442T942 1483H1034Q1031 1436 1018 1393T978 1315T913 1261T819 1241Q764 1241 720 1261T637 1305T565 1350T498 1370Q467 1370 449 1361T421 1337T405 1303T397 1262H305Q308 1309 321 1352T361 1429T427 1483T522 1503Q577 1503 621 1483T704 1439T776 1394T842 1374Z"  />
<glyph unicode="&#xF2;" horiz-adv-x="1182" d="M311 551Q311 437 326 350T374 205T461 116T592 86Q669 86 722 116T808 204T855 350T870 551Q870 665 855 751T807 894T721 981T590 1010Q513 1010 460 981T374 895T326 751T311 551ZM1069 551Q1069 262 947 121T588 -20Q477 -20 389 15T240 121T146 299T113 551Q113 838 234 978T594 1118Q705 1118 793 1084T942 979T1036 802T1069 551ZM697 1241H619Q578 1269 530 1310T437 1396T355 1480T299 1548V1569H518Q534 1535 555 1495T601 1414T650 1335T697 1268V1241Z"  />
<glyph unicode="&#xF3;" horiz-adv-x="1182" d="M311 551Q311 437 326 350T374 205T461 116T592 86Q669 86 722 116T808 204T855 350T870 551Q870 665 855 751T807 894T721 981T590 1010Q513 1010 460 981T374 895T326 751T311 551ZM1069 551Q1069 262 947 121T588 -20Q477 -20 389 15T240 121T146 299T113 551Q113 838 234 978T594 1118Q705 1118 793 1084T942 979T1036 802T1069 551ZM512 1268Q535 1297 559 1335T607 1413T652 1494T690 1569H909V1548Q890 1521 853 1481T771 1396T679 1311T590 1241H512V1268Z"  />
<glyph unicode="&#xF4;" horiz-adv-x="1182" d="M311 551Q311 437 326 350T374 205T461 116T592 86Q669 86 722 116T808 204T855 350T870 551Q870 665 855 751T807 894T721 981T590 1010Q513 1010 460 981T374 895T326 751T311 551ZM1069 551Q1069 262 947 121T588 -20Q477 -20 389 15T240 121T146 299T113 551Q113 838 234 978T594 1118Q705 1118 793 1084T942 979T1036 802T1069 551ZM285 1268Q309 1297 338 1335T395 1413T449 1494T490 1569H684Q700 1535 725 1495T778 1414T836 1335T889 1268V1241H809Q750 1275 691 1325T586 1425Q539 1376 481 1326T365 1241H285V1268Z"  />
<glyph unicode="&#xF5;" horiz-adv-x="1182" d="M311 551Q311 437 326 350T374 205T461 116T592 86Q669 86 722 116T808 204T855 350T870 551Q870 665 855 751T807 894T721 981T590 1010Q513 1010 460 981T374 895T326 751T311 551ZM1069 551Q1069 262 947 121T588 -20Q477 -20 389 15T240 121T146 299T113 551Q113 838 234 978T594 1118Q705 1118 793 1084T942 979T1036 802T1069 551ZM758 1374Q788 1374 806 1383T835 1407T850 1442T858 1483H950Q947 1436 934 1393T894 1315T829 1261T735 1241Q680 1241 636 1261T553 1305T481 1350T414 1370Q383 1370 365 1361T337 1337T321 1303T313 1262H221Q224 1309 237 1352T277 1429T343 1483T438 1503Q493 1503 537 1483T620 1439T692 1394T758 1374Z"  />
<glyph unicode="&#xF6;" horiz-adv-x="1182" d="M311 551Q311 437 326 350T374 205T461 116T592 86Q669 86 722 116T808 204T855 350T870 551Q870 665 855 751T807 894T721 981T590 1010Q513 1010 460 981T374 895T326 751T311 551ZM1069 551Q1069 262 947 121T588 -20Q477 -20 389 15T240 121T146 299T113 551Q113 838 234 978T594 1118Q705 1118 793 1084T942 979T1036 802T1069 551ZM674 1409Q674 1441 682 1463T704 1498T737 1518T778 1524Q800 1524 819 1518T852 1499T875 1463T883 1409Q883 1378 875 1356T853 1320T819 1300T778 1294Q733 1294 704 1320T674 1409ZM285 1409Q285 1441 293 1463T315 1498T348 1518T389 1524Q411 1524 430 1518T463 1499T486 1463T494 1409Q494 1378 486 1356T464 1320T430 1300T389 1294Q344 1294 315 1320T285 1409Z"  />
<glyph unicode="&#xF7;" horiz-adv-x="1145" d="M469 344Q469 376 477 398T499 433T532 451T573 457Q595 457 614 452T647 433T670 398T678 344Q678 313 670 291T648 256T614 237T573 231Q528 231 499 256T469 344ZM469 1120Q469 1152 477 1174T499 1209T532 1227T573 1233Q595 1233 614 1228T647 1209T670 1174T678 1120Q678 1089 670 1068T648 1033T614 1014T573 1008Q551 1008 532 1013T499 1032T477 1067T469 1120ZM1012 672H133V793H1012V672Z"  />
<glyph unicode="&#xF8;" horiz-adv-x="1182" d="M870 551Q870 728 834 836L412 152Q444 120 488 103T592 86Q669 86 722 116T808 204T855 350T870 551ZM311 551Q311 457 321 382T352 250L776 936Q708 1010 590 1010Q513 1010 460 981T374 895T326 751T311 551ZM930 991Q998 922 1033 813T1069 551Q1069 262 947 121T588 -20Q517 -20 455 -6T342 37L268 -82H147L258 98Q187 170 150 281T113 551Q113 838 234 978T594 1118Q668 1118 731 1102T848 1055L926 1180H1044L930 991Z"  />
<glyph unicode="&#xF9;" horiz-adv-x="1300" d="M1079 223Q1079 178 1092 151T1129 109T1182 91T1247 86H1253V0H928L901 166H891Q860 108 823 72T743 16T655 -12T559 -20Q478 -20 415 3T309 75T244 200T221 381V872Q221 917 208 944T171 987T118 1007T53 1012H47V1098H414V391Q414 324 424 272T459 184T525 130T629 111Q697 111 745 135T825 202T872 307T887 442V864Q887 912 874 941T838 986T785 1007T719 1012H713V1098H1079V223ZM713 1241H635Q594 1269 546 1310T453 1396T371 1480T315 1548V1569H534Q550 1535 571 1495T617 1414T666 1335T713 1268V1241Z"  />
<glyph unicode="&#xFA;" horiz-adv-x="1300" d="M1079 223Q1079 178 1092 151T1129 109T1182 91T1247 86H1253V0H928L901 166H891Q860 108 823 72T743 16T655 -12T559 -20Q478 -20 415 3T309 75T244 200T221 381V872Q221 917 208 944T171 987T118 1007T53 1012H47V1098H414V391Q414 324 424 272T459 184T525 130T629 111Q697 111 745 135T825 202T872 307T887 442V864Q887 912 874 941T838 986T785 1007T719 1012H713V1098H1079V223ZM541 1268Q564 1297 588 1335T636 1413T681 1494T719 1569H938V1548Q919 1521 882 1481T800 1396T708 1311T619 1241H541V1268Z"  />
<glyph unicode="&#xFB;" horiz-adv-x="1300" d="M1079 223Q1079 178 1092 151T1129 109T1182 91T1247 86H1253V0H928L901 166H891Q860 108 823 72T743 16T655 -12T559 -20Q478 -20 415 3T309 75T244 200T221 381V872Q221 917 208 944T171 987T118 1007T53 1012H47V1098H414V391Q414 324 424 272T459 184T525 130T629 111Q697 111 745 135T825 202T872 307T887 442V864Q887 912 874 941T838 986T785 1007T719 1012H713V1098H1079V223ZM342 1268Q366 1297 395 1335T452 1413T506 1494T547 1569H741Q757 1535 782 1495T835 1414T893 1335T946 1268V1241H866Q807 1275 748 1325T643 1425Q596 1376 538 1326T422 1241H342V1268Z"  />
<glyph unicode="&#xFC;" horiz-adv-x="1300" d="M1079 223Q1079 178 1092 151T1129 109T1182 91T1247 86H1253V0H928L901 166H891Q860 108 823 72T743 16T655 -12T559 -20Q478 -20 415 3T309 75T244 200T221 381V872Q221 917 208 944T171 987T118 1007T53 1012H47V1098H414V391Q414 324 424 272T459 184T525 130T629 111Q697 111 745 135T825 202T872 307T887 442V864Q887 912 874 941T838 986T785 1007T719 1012H713V1098H1079V223ZM737 1409Q737 1441 745 1463T767 1498T800 1518T841 1524Q863 1524 882 1518T915 1499T938 1463T946 1409Q946 1378 938 1356T916 1320T882 1300T841 1294Q796 1294 767 1320T737 1409ZM348 1409Q348 1441 356 1463T378 1498T411 1518T452 1524Q474 1524 493 1518T526 1499T549 1463T557 1409Q557 1378 549 1356T527 1320T493 1300T452 1294Q407 1294 378 1320T348 1409Z"  />
<glyph unicode="&#xFD;" horiz-adv-x="1157" d="M1157 1098V1012H1151Q1121 1012 1100 1006T1061 981T1028 932T995 852L684 -8Q648 -107 616 -182T549 -310T473 -399T378 -455T256 -484T96 -492H78V-395Q182 -395 257 -364T386 -279T477 -152T539 8L160 903Q146 935 133 955T104 989T66 1007T14 1012H8V1098H500V1012H494Q432 1012 402 988T371 913Q371 896 374 879T387 838L537 473Q551 438 566 397T595 315T620 238T635 176H641Q652 221 671 285T717 424L854 823Q863 848 867 871T872 911Q872 964 839 988T737 1012H731V1098H1157ZM504 1268Q527 1297 551 1335T599 1413T644 1494T682 1569H901V1548Q882 1521 845 1481T763 1396T671 1311T582 1241H504V1268Z"  />
<glyph unicode="&#xFE;" horiz-adv-x="1257" d="M1145 551Q1145 403 1118 295T1037 117T906 14T727 -20Q668 -20 620 -7T534 30T466 87T414 160H406Q408 107 410 61Q411 41 411 21T412 -17T413 -49T414 -72V-268Q414 -313 427 -340T464 -382T517 -401T582 -406H588V-492H37V-406H53Q87 -406 118 -401T171 -381T207 -336T221 -258V1331Q221 1376 208 1403T171 1446T118 1465T53 1470H37V1556H414V1180Q414 1145 413 1100T410 1012Q408 964 406 913H414Q437 960 466 998T533 1062T619 1103T727 1118Q828 1118 906 1085T1037 982T1117 805T1145 551ZM692 987Q612 987 559 961T473 880T428 744T414 551Q414 444 427 362T473 224T559 140T694 111Q761 111 809 139T887 224T932 362T946 553Q946 771 887 879T692 987Z"  />
<glyph unicode="&#xFF;" horiz-adv-x="1157" d="M1157 1098V1012H1151Q1121 1012 1100 1006T1061 981T1028 932T995 852L684 -8Q648 -107 616 -182T549 -310T473 -399T378 -455T256 -484T96 -492H78V-395Q182 -395 257 -364T386 -279T477 -152T539 8L160 903Q146 935 133 955T104 989T66 1007T14 1012H8V1098H500V1012H494Q432 1012 402 988T371 913Q371 896 374 879T387 838L537 473Q551 438 566 397T595 315T620 238T635 176H641Q652 221 671 285T717 424L854 823Q863 848 867 871T872 911Q872 964 839 988T737 1012H731V1098H1157ZM709 1409Q709 1441 717 1463T739 1498T772 1518T813 1524Q835 1524 854 1518T887 1499T910 1463T918 1409Q918 1378 910 1356T888 1320T854 1300T813 1294Q768 1294 739 1320T709 1409ZM320 1409Q320 1441 328 1463T350 1498T383 1518T424 1524Q446 1524 465 1518T498 1499T521 1463T529 1409Q529 1378 521 1356T499 1320T465 1300T424 1294Q379 1294 350 1320T320 1409Z"  />
<glyph unicode="&#x100;" horiz-adv-x="1444" d="M788 950Q756 1041 730 1120T686 1274Q679 1237 670 1203T649 1132T624 1057T592 969L453 592H915L788 950ZM414 489L336 274Q327 250 322 227T317 186Q317 134 350 110T453 86H500V0H0V86H39Q69 86 90 92T128 117T160 166T195 246L649 1462H809L1272 195Q1284 163 1296 142T1326 109T1365 91T1417 86H1444V0H881V86H928Q1051 86 1051 184Q1051 201 1047 219T1034 260L952 489H414ZM1014 1579H420V1700H1014V1579Z"  />
<glyph unicode="&#x101;" horiz-adv-x="1153" d="M549 1016Q490 1016 454 1000T397 953T369 882T362 793Q277 793 233 822T188 922Q188 975 217 1012T296 1072T414 1107T557 1118Q651 1118 721 1100T838 1039T908 930T932 764V233Q932 190 939 162T961 117T1000 93T1059 86H1065V0H788L756 176H739Q707 133 677 97T611 35T530 -5T420 -20Q352 -20 294 -1T193 59T126 161T102 307Q102 470 218 549T569 635L739 641V764Q739 819 733 865T707 945T650 997T549 1016ZM301 297Q301 201 341 154T467 106Q529 106 579 126T665 183T720 273T739 391V557L608 551Q521 547 463 530T368 481T317 403T301 297ZM852 1241H258V1362H852V1241Z"  />
<glyph unicode="&#x102;" horiz-adv-x="1444" d="M788 950Q756 1041 730 1120T686 1274Q679 1237 670 1203T649 1132T624 1057T592 969L453 592H915L788 950ZM414 489L336 274Q327 250 322 227T317 186Q317 134 350 110T453 86H500V0H0V86H39Q69 86 90 92T128 117T160 166T195 246L649 1462H809L1272 195Q1284 163 1296 142T1326 109T1365 91T1417 86H1444V0H881V86H928Q1051 86 1051 184Q1051 201 1047 219T1034 260L952 489H414ZM717 1579Q644 1579 591 1601T502 1662T450 1751T430 1860H524Q541 1785 591 1753T717 1720Q792 1720 842 1752T909 1860H1004Q1002 1802 985 1751T932 1662T843 1602T717 1579Z"  />
<glyph unicode="&#x103;" horiz-adv-x="1153" d="M549 1016Q490 1016 454 1000T397 953T369 882T362 793Q277 793 233 822T188 922Q188 975 217 1012T296 1072T414 1107T557 1118Q651 1118 721 1100T838 1039T908 930T932 764V233Q932 190 939 162T961 117T1000 93T1059 86H1065V0H788L756 176H739Q707 133 677 97T611 35T530 -5T420 -20Q352 -20 294 -1T193 59T126 161T102 307Q102 470 218 549T569 635L739 641V764Q739 819 733 865T707 945T650 997T549 1016ZM301 297Q301 201 341 154T467 106Q529 106 579 126T665 183T720 273T739 391V557L608 551Q521 547 463 530T368 481T317 403T301 297ZM565 1241Q492 1241 439 1263T350 1324T298 1413T278 1522H372Q389 1447 439 1415T565 1382Q640 1382 690 1414T757 1522H852Q850 1464 833 1413T780 1324T691 1264T565 1241Z"  />
<glyph unicode="&#x104;" horiz-adv-x="1444" d="M788 950Q756 1041 730 1120T686 1274Q679 1237 670 1203T649 1132T624 1057T592 969L453 592H915L788 950ZM414 489L336 274Q327 250 322 227T317 186Q317 134 350 110T453 86H500V0H0V86H39Q69 86 90 92T128 117T160 166T195 246L649 1462H809L1272 195Q1284 163 1296 142T1326 109T1365 91T1417 86H1444V0H881V86H928Q1051 86 1051 184Q1051 201 1047 219T1034 260L952 489H414ZM934 -266Q934 -218 954 -175T1008 -97T1085 -36T1176 0H1293Q1261 -10 1227 -30T1166 -79T1120 -148T1102 -236Q1102 -270 1112 -294T1142 -334T1187 -357T1244 -365Q1271 -365 1303 -361T1373 -348V-459Q1357 -467 1337 -473T1294 -483T1252 -489T1215 -492Q1150 -492 1098 -479T1010 -438T954 -368T934 -266Z"  />
<glyph unicode="&#x105;" horiz-adv-x="1153" d="M549 1016Q490 1016 454 1000T397 953T369 882T362 793Q277 793 233 822T188 922Q188 975 217 1012T296 1072T414 1107T557 1118Q651 1118 721 1100T838 1039T908 930T932 764V233Q932 190 939 162T961 117T1000 93T1059 86H1065V0H788L756 176H739Q707 133 677 97T611 35T530 -5T420 -20Q352 -20 294 -1T193 59T126 161T102 307Q102 470 218 549T569 635L739 641V764Q739 819 733 865T707 945T650 997T549 1016ZM301 297Q301 201 341 154T467 106Q529 106 579 126T665 183T720 273T739 391V557L608 551Q521 547 463 530T368 481T317 403T301 297ZM549 -266Q549 -218 569 -175T623 -97T700 -36T791 0H908Q876 -10 842 -30T781 -79T735 -148T717 -236Q717 -270 727 -294T757 -334T802 -357T859 -365Q886 -365 918 -361T988 -348V-459Q972 -467 952 -473T909 -483T867 -489T830 -492Q765 -492 713 -479T625 -438T569 -368T549 -266Z"  />
<glyph unicode="&#x106;" horiz-adv-x="1257" d="M774 1483Q879 1483 956 1466T1085 1417T1162 1344T1188 1253Q1188 1220 1175 1194T1137 1149T1081 1120T1010 1110Q1010 1158 998 1205T957 1289T883 1350T770 1374Q654 1374 573 1332T441 1208T367 1007T344 733Q344 596 368 482T444 287T576 160T770 115Q845 115 902 129T1004 168T1081 223T1141 289Q1158 278 1169 259T1180 209Q1180 170 1154 130T1073 56T936 2T739 -20Q586 -20 470 34T276 187T157 425T117 733Q117 899 159 1037T283 1274T489 1428T774 1483ZM657 1606Q680 1635 704 1673T752 1751T797 1832T835 1907H1054V1886Q1035 1859 998 1819T916 1734T824 1649T735 1579H657V1606Z"  />
<glyph unicode="&#x107;" horiz-adv-x="1008" d="M580 -20Q478 -20 392 11T244 111T148 285T113 543Q113 707 147 817T243 995T388 1090T569 1118Q633 1118 696 1106T811 1067T894 1002T926 909Q926 838 880 809T743 780Q743 828 735 871T708 946T655 997T569 1016Q510 1016 463 994T381 918T329 773T311 545Q311 327 383 220T621 113Q716 113 787 153T893 256Q908 244 918 224T928 176Q928 141 906 106T841 43T732 -2T580 -20ZM465 1268Q488 1297 512 1335T560 1413T605 1494T643 1569H862V1548Q843 1521 806 1481T724 1396T632 1311T543 1241H465V1268Z"  />
<glyph unicode="&#x108;" horiz-adv-x="1257" d="M774 1483Q879 1483 956 1466T1085 1417T1162 1344T1188 1253Q1188 1220 1175 1194T1137 1149T1081 1120T1010 1110Q1010 1158 998 1205T957 1289T883 1350T770 1374Q654 1374 573 1332T441 1208T367 1007T344 733Q344 596 368 482T444 287T576 160T770 115Q845 115 902 129T1004 168T1081 223T1141 289Q1158 278 1169 259T1180 209Q1180 170 1154 130T1073 56T936 2T739 -20Q586 -20 470 34T276 187T157 425T117 733Q117 899 159 1037T283 1274T489 1428T774 1483ZM459 1606Q483 1635 512 1673T569 1751T623 1832T664 1907H858Q874 1873 899 1833T952 1752T1010 1673T1063 1606V1579H983Q924 1613 865 1663T760 1763Q713 1714 655 1664T539 1579H459V1606Z"  />
<glyph unicode="&#x109;" horiz-adv-x="1008" d="M580 -20Q478 -20 392 11T244 111T148 285T113 543Q113 707 147 817T243 995T388 1090T569 1118Q633 1118 696 1106T811 1067T894 1002T926 909Q926 838 880 809T743 780Q743 828 735 871T708 946T655 997T569 1016Q510 1016 463 994T381 918T329 773T311 545Q311 327 383 220T621 113Q716 113 787 153T893 256Q908 244 918 224T928 176Q928 141 906 106T841 43T732 -2T580 -20ZM279 1268Q303 1297 332 1335T389 1413T443 1494T484 1569H678Q694 1535 719 1495T772 1414T830 1335T883 1268V1241H803Q744 1275 685 1325T580 1425Q533 1376 475 1326T359 1241H279V1268Z"  />
<glyph unicode="&#x10A;" horiz-adv-x="1257" d="M774 1483Q879 1483 956 1466T1085 1417T1162 1344T1188 1253Q1188 1220 1175 1194T1137 1149T1081 1120T1010 1110Q1010 1158 998 1205T957 1289T883 1350T770 1374Q654 1374 573 1332T441 1208T367 1007T344 733Q344 596 368 482T444 287T576 160T770 115Q845 115 902 129T1004 168T1081 223T1141 289Q1158 278 1169 259T1180 209Q1180 170 1154 130T1073 56T936 2T739 -20Q586 -20 470 34T276 187T157 425T117 733Q117 899 159 1037T283 1274T489 1428T774 1483ZM651 1768Q651 1804 660 1828T685 1867T722 1888T768 1894Q792 1894 813 1888T850 1867T875 1828T885 1768Q885 1732 876 1708T850 1669T813 1648T768 1641Q743 1641 722 1647T685 1669T660 1708T651 1768Z"  />
<glyph unicode="&#x10B;" horiz-adv-x="1008" d="M580 -20Q478 -20 392 11T244 111T148 285T113 543Q113 707 147 817T243 995T388 1090T569 1118Q633 1118 696 1106T811 1067T894 1002T926 909Q926 838 880 809T743 780Q743 828 735 871T708 946T655 997T569 1016Q510 1016 463 994T381 918T329 773T311 545Q311 327 383 220T621 113Q716 113 787 153T893 256Q908 244 918 224T928 176Q928 141 906 106T841 43T732 -2T580 -20ZM463 1430Q463 1466 472 1490T497 1529T534 1550T580 1556Q604 1556 625 1550T662 1529T687 1490T697 1430Q697 1394 688 1370T662 1331T625 1310T580 1303Q555 1303 534 1309T497 1331T472 1370T463 1430Z"  />
<glyph unicode="&#x10C;" horiz-adv-x="1257" d="M774 1483Q879 1483 956 1466T1085 1417T1162 1344T1188 1253Q1188 1220 1175 1194T1137 1149T1081 1120T1010 1110Q1010 1158 998 1205T957 1289T883 1350T770 1374Q654 1374 573 1332T441 1208T367 1007T344 733Q344 596 368 482T444 287T576 160T770 115Q845 115 902 129T1004 168T1081 223T1141 289Q1158 278 1169 259T1180 209Q1180 170 1154 130T1073 56T936 2T739 -20Q586 -20 470 34T276 187T157 425T117 733Q117 899 159 1037T283 1274T489 1428T774 1483ZM436 1907H516Q545 1889 574 1867T632 1821T687 1771T737 1720Q760 1745 786 1770T842 1820T901 1867T960 1907H1040V1880Q1016 1851 987 1813T930 1735T876 1654T835 1579H641Q625 1614 600 1654T547 1734T489 1813T436 1880V1907Z"  />
<glyph unicode="&#x10D;" horiz-adv-x="1008" d="M580 -20Q478 -20 392 11T244 111T148 285T113 543Q113 707 147 817T243 995T388 1090T569 1118Q633 1118 696 1106T811 1067T894 1002T926 909Q926 838 880 809T743 780Q743 828 735 871T708 946T655 997T569 1016Q510 1016 463 994T381 918T329 773T311 545Q311 327 383 220T621 113Q716 113 787 153T893 256Q908 244 918 224T928 176Q928 141 906 106T841 43T732 -2T580 -20ZM275 1569H355Q384 1551 413 1529T471 1483T526 1433T576 1382Q599 1407 625 1432T681 1482T740 1529T799 1569H879V1542Q855 1513 826 1475T769 1397T715 1316T674 1241H480Q464 1276 439 1316T386 1396T328 1475T275 1542V1569Z"  />
<glyph unicode="&#x10E;" horiz-adv-x="1489" d="M657 104Q779 104 870 145T1023 267T1114 464T1145 733Q1145 1038 1024 1199T659 1360H479V104H657ZM1372 733Q1372 565 1330 430T1205 199T997 52T705 0H78V86H104Q139 86 169 91T223 111T259 156T272 233V1237Q272 1282 259 1309T222 1352T169 1371T104 1376H78V1462H705Q863 1462 987 1414T1196 1272T1327 1043T1372 733ZM377 1907H457Q486 1889 515 1867T573 1821T628 1771T678 1720Q701 1745 727 1770T783 1820T842 1867T901 1907H981V1880Q957 1851 928 1813T871 1735T817 1654T776 1579H582Q566 1614 541 1654T488 1734T430 1813T377 1880V1907Z"  />
<glyph unicode="&#x10F;" horiz-adv-x="1257" d="M565 111Q645 111 698 137T784 218T830 354T844 547Q844 654 831 736T785 873T698 958T563 987Q496 987 448 958T370 873T325 735T311 545Q311 327 370 219T565 111ZM1036 225Q1036 180 1049 153T1086 110T1139 91T1204 86H1221V0H874L852 184H844Q821 137 792 100T724 36T638 -5T530 -20Q429 -20 351 13T220 116T140 293T113 547Q113 695 140 803T220 981T351 1084T530 1118Q589 1118 637 1105T723 1068T792 1011T844 938H856Q853 988 850 1032Q848 1070 846 1107T844 1163V1331Q844 1376 831 1403T794 1446T741 1465T676 1470H659V1556H1036V225ZM1149 1255Q1166 1324 1182 1403T1211 1556H1389V1536Q1375 1504 1355 1464T1312 1383T1264 1301T1219 1229H1149V1255Z"  />
<glyph unicode="&#x110;" horiz-adv-x="1489" d="M657 104Q779 104 870 145T1023 267T1114 464T1145 733Q1145 885 1115 1002T1024 1198T872 1319T659 1360H479V815H827V715H479V104H657ZM78 815H272V1237Q272 1282 259 1309T222 1352T169 1371T104 1376H78V1462H705Q863 1462 987 1414T1196 1272T1327 1043T1372 733Q1372 565 1330 430T1205 199T997 52T705 0H78V86H104Q139 86 169 91T223 111T259 156T272 233V715H78V815Z"  />
<glyph unicode="&#x111;" horiz-adv-x="1257" d="M565 111Q645 111 698 136T784 213T830 343T844 526Q844 628 831 706T785 838T698 919T563 946Q428 946 370 838T311 524Q311 317 370 214T565 111ZM1036 1311H1223V1214H1036V225Q1036 180 1049 153T1086 110T1139 91T1204 86H1221V0H874L852 184H844Q821 137 792 100T724 36T638 -5T530 -20Q429 -20 351 12T220 111T140 281T113 526Q113 669 140 773T220 944T351 1044T530 1077Q589 1077 637 1064T723 1027T792 970T844 897H856Q853 947 850 992Q848 1030 846 1069T844 1128V1214H494V1311H844V1331Q844 1376 831 1403T794 1445T741 1465T676 1470H659V1556H1036V1311Z"  />
<glyph unicode="&#x112;" horiz-adv-x="1276" d="M479 102H874Q923 102 957 115T1015 152T1051 205T1069 270L1083 358H1190L1176 0H78V86H104Q138 86 168 90T222 109T258 150T272 223V1229Q272 1277 259 1306T223 1350T170 1371T104 1376H78V1462H1110L1120 1104H1014L1004 1192Q1000 1226 989 1256T956 1310T902 1346T823 1360H479V815H973V715H479V102ZM948 1579H354V1700H948V1579Z"  />
<glyph unicode="&#x113;" horiz-adv-x="1096" d="M588 -20Q477 -20 389 17T239 127T146 303T113 541Q113 828 231 973T567 1118Q666 1118 745 1087T879 995T963 842T993 629V535H311Q313 423 333 343T392 210T487 134T616 109Q669 109 714 121T797 153T862 198T909 252Q923 246 935 227T948 182Q948 151 926 116T859 50T747 0T588 -20ZM563 1008Q449 1008 388 916T315 645H786Q786 726 774 793T736 908T668 982T563 1008ZM856 1241H262V1362H856V1241Z"  />
<glyph unicode="&#x114;" horiz-adv-x="1276" d="M479 102H874Q923 102 957 115T1015 152T1051 205T1069 270L1083 358H1190L1176 0H78V86H104Q138 86 168 90T222 109T258 150T272 223V1229Q272 1277 259 1306T223 1350T170 1371T104 1376H78V1462H1110L1120 1104H1014L1004 1192Q1000 1226 989 1256T956 1310T902 1346T823 1360H479V815H973V715H479V102ZM639 1579Q566 1579 513 1601T424 1662T372 1751T352 1860H446Q463 1785 513 1753T639 1720Q714 1720 764 1752T831 1860H926Q924 1802 907 1751T854 1662T765 1602T639 1579Z"  />
<glyph unicode="&#x115;" horiz-adv-x="1096" d="M588 -20Q477 -20 389 17T239 127T146 303T113 541Q113 828 231 973T567 1118Q666 1118 745 1087T879 995T963 842T993 629V535H311Q313 423 333 343T392 210T487 134T616 109Q669 109 714 121T797 153T862 198T909 252Q923 246 935 227T948 182Q948 151 926 116T859 50T747 0T588 -20ZM563 1008Q449 1008 388 916T315 645H786Q786 726 774 793T736 908T668 982T563 1008ZM569 1241Q496 1241 443 1263T354 1324T302 1413T282 1522H376Q393 1447 443 1415T569 1382Q644 1382 694 1414T761 1522H856Q854 1464 837 1413T784 1324T695 1264T569 1241Z"  />
<glyph unicode="&#x116;" horiz-adv-x="1276" d="M479 102H874Q923 102 957 115T1015 152T1051 205T1069 270L1083 358H1190L1176 0H78V86H104Q138 86 168 90T222 109T258 150T272 223V1229Q272 1277 259 1306T223 1350T170 1371T104 1376H78V1462H1110L1120 1104H1014L1004 1192Q1000 1226 989 1256T956 1310T902 1346T823 1360H479V815H973V715H479V102ZM542 1739Q542 1775 551 1799T576 1838T613 1859T659 1865Q683 1865 704 1859T741 1838T766 1799T776 1739Q776 1703 767 1679T741 1640T704 1619T659 1612Q634 1612 613 1618T576 1640T551 1679T542 1739Z"  />
<glyph unicode="&#x117;" horiz-adv-x="1096" d="M588 -20Q477 -20 389 17T239 127T146 303T113 541Q113 828 231 973T567 1118Q666 1118 745 1087T879 995T963 842T993 629V535H311Q313 423 333 343T392 210T487 134T616 109Q669 109 714 121T797 153T862 198T909 252Q923 246 935 227T948 182Q948 151 926 116T859 50T747 0T588 -20ZM563 1008Q449 1008 388 916T315 645H786Q786 726 774 793T736 908T668 982T563 1008ZM446 1430Q446 1466 455 1490T480 1529T517 1550T563 1556Q587 1556 608 1550T645 1529T670 1490T680 1430Q680 1394 671 1370T645 1331T608 1310T563 1303Q538 1303 517 1309T480 1331T455 1370T446 1430Z"  />
<glyph unicode="&#x118;" horiz-adv-x="1276" d="M479 102H874Q923 102 957 115T1015 152T1051 205T1069 270L1083 358H1190L1176 0H78V86H104Q138 86 168 90T222 109T258 150T272 223V1229Q272 1277 259 1306T223 1350T170 1371T104 1376H78V1462H1110L1120 1104H1014L1004 1192Q1000 1226 989 1256T956 1310T902 1346T823 1360H479V815H973V715H479V102ZM714 -266Q714 -218 734 -175T788 -97T865 -36T956 0H1073Q1041 -10 1007 -30T946 -79T900 -148T882 -236Q882 -270 892 -294T922 -334T967 -357T1024 -365Q1051 -365 1083 -361T1153 -348V-459Q1137 -467 1117 -473T1074 -483T1032 -489T995 -492Q930 -492 878 -479T790 -438T734 -368T714 -266Z"  />
<glyph unicode="&#x119;" horiz-adv-x="1096" d="M588 -20Q477 -20 389 17T239 127T146 303T113 541Q113 828 231 973T567 1118Q666 1118 745 1087T879 995T963 842T993 629V535H311Q313 423 333 343T392 210T487 134T616 109Q669 109 714 121T797 153T862 198T909 252Q923 246 935 227T948 182Q948 151 926 116T859 50T747 0T588 -20ZM563 1008Q449 1008 388 916T315 645H786Q786 726 774 793T736 908T668 982T563 1008ZM471 -235Q471 -187 491 -144T545 -66T622 -5T713 31H830Q798 21 764 1T703 -48T657 -117T639 -205Q639 -239 649 -263T679 -303T724 -326T781 -334Q808 -334 840 -330T910 -317V-428Q894 -436 874 -442T831 -452T789 -458T752 -461Q687 -461 635 -448T547 -407T491 -337T471 -235Z"  />
<glyph unicode="&#x11A;" horiz-adv-x="1276" d="M479 102H874Q923 102 957 115T1015 152T1051 205T1069 270L1083 358H1190L1176 0H78V86H104Q138 86 168 90T222 109T258 150T272 223V1229Q272 1277 259 1306T223 1350T170 1371T104 1376H78V1462H1110L1120 1104H1014L1004 1192Q1000 1226 989 1256T956 1310T902 1346T823 1360H479V815H973V715H479V102ZM332 1907H412Q441 1889 470 1867T528 1821T583 1771T633 1720Q656 1745 682 1770T738 1820T797 1867T856 1907H936V1880Q912 1851 883 1813T826 1735T772 1654T731 1579H537Q521 1614 496 1654T443 1734T385 1813T332 1880V1907Z"  />
<glyph unicode="&#x11B;" horiz-adv-x="1096" d="M588 -20Q477 -20 389 17T239 127T146 303T113 541Q113 828 231 973T567 1118Q666 1118 745 1087T879 995T963 842T993 629V535H311Q313 423 333 343T392 210T487 134T616 109Q669 109 714 121T797 153T862 198T909 252Q923 246 935 227T948 182Q948 151 926 116T859 50T747 0T588 -20ZM563 1008Q449 1008 388 916T315 645H786Q786 726 774 793T736 908T668 982T563 1008ZM262 1569H342Q371 1551 400 1529T458 1483T513 1433T563 1382Q586 1407 612 1432T668 1482T727 1529T786 1569H866V1542Q842 1513 813 1475T756 1397T702 1316T661 1241H467Q451 1276 426 1316T373 1396T315 1475T262 1542V1569Z"  />
<glyph unicode="&#x11C;" horiz-adv-x="1462" d="M821 -20Q643 -20 511 34T291 187T160 425T117 733Q117 899 162 1037T298 1274T523 1428T834 1483Q948 1483 1032 1466T1173 1417T1258 1344T1286 1253Q1286 1220 1271 1194T1231 1149T1171 1120T1096 1110Q1096 1158 1082 1205T1036 1289T952 1350T825 1374Q695 1374 604 1332T454 1208T370 1007T344 733Q344 580 371 461T459 261T617 138T854 96Q913 96 968 102T1067 121V451Q1067 496 1054 523T1017 565T964 585T899 590H891V676H1423V590H1415Q1386 590 1360 585T1315 565T1285 520T1274 442V74Q1171 26 1062 3T821 -20ZM504 1606Q528 1635 557 1673T614 1751T668 1832T709 1907H903Q919 1873 944 1833T997 1752T1055 1673T1108 1606V1579H1028Q969 1613 910 1663T805 1763Q758 1714 700 1664T584 1579H504V1606Z"  />
<glyph unicode="&#x11D;" horiz-adv-x="1102" d="M332 745Q332 614 375 553T518 492Q568 492 602 507T659 553T690 632T700 748Q700 886 658 952T516 1018Q417 1018 375 951T332 745ZM213 -180Q213 -225 225 -264T267 -331T348 -375T477 -391Q587 -391 658 -373T772 -321T831 -243T848 -143Q848 -96 835 -66T795 -18T729 7T639 14H438Q395 14 355 7T283 -22T232 -81T213 -180ZM1077 1055Q1077 1033 1071 1014T1051 980T1018 957T969 948Q969 960 966 972T956 994T935 1011T901 1018Q875 1018 854 1012T813 993Q848 950 870 892T893 745Q893 669 870 605T802 493T687 420T524 393Q512 393 497 393T467 394T439 396T418 399Q398 389 380 377T349 350T327 316T319 274Q319 249 328 234T355 211T395 200T446 197H678Q770 197 834 174T938 111T997 14T1016 -109Q1016 -197 984 -268T884 -388T715 -465T473 -492Q259 -492 153 -413T47 -193Q47 -133 68 -88T124 -11T206 41T303 70Q282 79 262 94T226 130T200 178T190 238Q190 299 222 343T324 430Q280 448 246 479T188 551T152 640T139 739Q139 828 163 898T235 1017T355 1092T524 1118Q561 1118 597 1113T663 1098T718 1076T758 1051Q773 1067 793 1086T838 1122T892 1150T956 1161Q987 1161 1009 1153T1047 1130T1069 1096T1077 1055ZM232 1268Q256 1297 285 1335T342 1413T396 1494T437 1569H631Q647 1535 672 1495T725 1414T783 1335T836 1268V1241H756Q697 1275 638 1325T533 1425Q486 1376 428 1326T312 1241H232V1268Z"  />
<glyph unicode="&#x11E;" horiz-adv-x="1462" d="M821 -20Q643 -20 511 34T291 187T160 425T117 733Q117 899 162 1037T298 1274T523 1428T834 1483Q948 1483 1032 1466T1173 1417T1258 1344T1286 1253Q1286 1220 1271 1194T1231 1149T1171 1120T1096 1110Q1096 1158 1082 1205T1036 1289T952 1350T825 1374Q695 1374 604 1332T454 1208T370 1007T344 733Q344 580 371 461T459 261T617 138T854 96Q913 96 968 102T1067 121V451Q1067 496 1054 523T1017 565T964 585T899 590H891V676H1423V590H1415Q1386 590 1360 585T1315 565T1285 520T1274 442V74Q1171 26 1062 3T821 -20ZM807 1579Q734 1579 681 1601T592 1662T540 1751T520 1860H614Q631 1785 681 1753T807 1720Q882 1720 932 1752T999 1860H1094Q1092 1802 1075 1751T1022 1662T933 1602T807 1579Z"  />
<glyph unicode="&#x11F;" horiz-adv-x="1102" d="M332 745Q332 614 375 553T518 492Q568 492 602 507T659 553T690 632T700 748Q700 886 658 952T516 1018Q417 1018 375 951T332 745ZM213 -180Q213 -225 225 -264T267 -331T348 -375T477 -391Q587 -391 658 -373T772 -321T831 -243T848 -143Q848 -96 835 -66T795 -18T729 7T639 14H438Q395 14 355 7T283 -22T232 -81T213 -180ZM1077 1055Q1077 1033 1071 1014T1051 980T1018 957T969 948Q969 960 966 972T956 994T935 1011T901 1018Q875 1018 854 1012T813 993Q848 950 870 892T893 745Q893 669 870 605T802 493T687 420T524 393Q512 393 497 393T467 394T439 396T418 399Q398 389 380 377T349 350T327 316T319 274Q319 249 328 234T355 211T395 200T446 197H678Q770 197 834 174T938 111T997 14T1016 -109Q1016 -197 984 -268T884 -388T715 -465T473 -492Q259 -492 153 -413T47 -193Q47 -133 68 -88T124 -11T206 41T303 70Q282 79 262 94T226 130T200 178T190 238Q190 299 222 343T324 430Q280 448 246 479T188 551T152 640T139 739Q139 828 163 898T235 1017T355 1092T524 1118Q561 1118 597 1113T663 1098T718 1076T758 1051Q773 1067 793 1086T838 1122T892 1150T956 1161Q987 1161 1009 1153T1047 1130T1069 1096T1077 1055ZM526 1241Q453 1241 400 1263T311 1324T259 1413T239 1522H333Q350 1447 400 1415T526 1382Q601 1382 651 1414T718 1522H813Q811 1464 794 1413T741 1324T652 1264T526 1241Z"  />
<glyph unicode="&#x120;" horiz-adv-x="1462" d="M821 -20Q643 -20 511 34T291 187T160 425T117 733Q117 899 162 1037T298 1274T523 1428T834 1483Q948 1483 1032 1466T1173 1417T1258 1344T1286 1253Q1286 1220 1271 1194T1231 1149T1171 1120T1096 1110Q1096 1158 1082 1205T1036 1289T952 1350T825 1374Q695 1374 604 1332T454 1208T370 1007T344 733Q344 580 371 461T459 261T617 138T854 96Q913 96 968 102T1067 121V451Q1067 496 1054 523T1017 565T964 585T899 590H891V676H1423V590H1415Q1386 590 1360 585T1315 565T1285 520T1274 442V74Q1171 26 1062 3T821 -20ZM708 1768Q708 1804 717 1828T742 1867T779 1888T825 1894Q849 1894 870 1888T907 1867T932 1828T942 1768Q942 1732 933 1708T907 1669T870 1648T825 1641Q800 1641 779 1647T742 1669T717 1708T708 1768Z"  />
<glyph unicode="&#x121;" horiz-adv-x="1102" d="M332 745Q332 614 375 553T518 492Q568 492 602 507T659 553T690 632T700 748Q700 886 658 952T516 1018Q417 1018 375 951T332 745ZM213 -180Q213 -225 225 -264T267 -331T348 -375T477 -391Q587 -391 658 -373T772 -321T831 -243T848 -143Q848 -96 835 -66T795 -18T729 7T639 14H438Q395 14 355 7T283 -22T232 -81T213 -180ZM1077 1055Q1077 1033 1071 1014T1051 980T1018 957T969 948Q969 960 966 972T956 994T935 1011T901 1018Q875 1018 854 1012T813 993Q848 950 870 892T893 745Q893 669 870 605T802 493T687 420T524 393Q512 393 497 393T467 394T439 396T418 399Q398 389 380 377T349 350T327 316T319 274Q319 249 328 234T355 211T395 200T446 197H678Q770 197 834 174T938 111T997 14T1016 -109Q1016 -197 984 -268T884 -388T715 -465T473 -492Q259 -492 153 -413T47 -193Q47 -133 68 -88T124 -11T206 41T303 70Q282 79 262 94T226 130T200 178T190 238Q190 299 222 343T324 430Q280 448 246 479T188 551T152 640T139 739Q139 828 163 898T235 1017T355 1092T524 1118Q561 1118 597 1113T663 1098T718 1076T758 1051Q773 1067 793 1086T838 1122T892 1150T956 1161Q987 1161 1009 1153T1047 1130T1069 1096T1077 1055ZM407 1430Q407 1466 416 1490T441 1529T478 1550T524 1556Q548 1556 569 1550T606 1529T631 1490T641 1430Q641 1394 632 1370T606 1331T569 1310T524 1303Q499 1303 478 1309T441 1331T416 1370T407 1430Z"  />
<glyph unicode="&#x122;" horiz-adv-x="1462" d="M821 -20Q643 -20 511 34T291 187T160 425T117 733Q117 899 162 1037T298 1274T523 1428T834 1483Q948 1483 1032 1466T1173 1417T1258 1344T1286 1253Q1286 1220 1271 1194T1231 1149T1171 1120T1096 1110Q1096 1158 1082 1205T1036 1289T952 1350T825 1374Q695 1374 604 1332T454 1208T370 1007T344 733Q344 580 371 461T459 261T617 138T854 96Q913 96 968 102T1067 121V451Q1067 496 1054 523T1017 565T964 585T899 590H891V676H1423V590H1415Q1386 590 1360 585T1315 565T1285 520T1274 442V74Q1171 26 1062 3T821 -20ZM668 -426Q685 -358 701 -279T730 -125H908V-145Q894 -177 874 -217T831 -299T783 -381T738 -453H668V-426Z"  />
<glyph unicode="&#x123;" horiz-adv-x="1102" d="M332 745Q332 614 375 553T518 492Q568 492 602 507T659 553T690 632T700 748Q700 886 658 952T516 1018Q417 1018 375 951T332 745ZM213 -180Q213 -225 225 -264T267 -331T348 -375T477 -391Q587 -391 658 -373T772 -321T831 -243T848 -143Q848 -96 835 -66T795 -18T729 7T639 14H438Q395 14 355 7T283 -22T232 -81T213 -180ZM1077 1055Q1077 1033 1071 1014T1051 980T1018 957T969 948Q969 960 966 972T956 994T935 1011T901 1018Q875 1018 854 1012T813 993Q848 950 870 892T893 745Q893 669 870 605T802 493T687 420T524 393Q512 393 497 393T467 394T439 396T418 399Q398 389 380 377T349 350T327 316T319 274Q319 249 328 234T355 211T395 200T446 197H678Q770 197 834 174T938 111T997 14T1016 -109Q1016 -197 984 -268T884 -388T715 -465T473 -492Q259 -492 153 -413T47 -193Q47 -133 68 -88T124 -11T206 41T303 70Q282 79 262 94T226 130T200 178T190 238Q190 299 222 343T324 430Q280 448 246 479T188 551T152 640T139 739Q139 828 163 898T235 1017T355 1092T524 1118Q561 1118 597 1113T663 1098T718 1076T758 1051Q773 1067 793 1086T838 1122T892 1150T956 1161Q987 1161 1009 1153T1047 1130T1069 1096T1077 1055ZM680 1542Q663 1474 647 1395T618 1241H440V1262Q454 1294 474 1334T517 1415T565 1497T610 1569H680V1542Z"  />
<glyph unicode="&#x124;" horiz-adv-x="1624" d="M950 0V86H977Q1012 86 1042 91T1095 111T1131 156T1145 233V713H479V233Q479 185 492 156T528 112T582 91T647 86H674V0H78V86H104Q139 86 169 91T223 111T259 156T272 233V1237Q272 1282 259 1309T222 1352T169 1371T104 1376H78V1462H674V1376H647Q613 1376 582 1371T529 1351T493 1306T479 1229V815H1145V1229Q1145 1277 1132 1306T1096 1350T1043 1371T977 1376H950V1462H1546V1376H1520Q1485 1376 1455 1371T1401 1351T1365 1306T1352 1229V223Q1352 178 1365 151T1402 109T1455 91T1520 86H1546V0H950ZM510 1606Q534 1635 563 1673T620 1751T674 1832T715 1907H909Q925 1873 950 1833T1003 1752T1061 1673T1114 1606V1579H1034Q975 1613 916 1663T811 1763Q764 1714 706 1664T590 1579H510V1606Z"  />
<glyph unicode="&#x125;" horiz-adv-x="1300" d="M588 86V0H37V86H53Q88 86 118 91T171 111T207 156T221 233V1331Q221 1376 208 1403T171 1446T118 1465T53 1470H37V1556H414V1106Q414 1078 413 1048T410 991Q408 961 406 932H416Q508 1118 717 1118Q804 1118 871 1095T985 1023T1055 898T1079 717V233Q1079 185 1091 156T1124 112T1174 91T1237 86H1243V0H887V707Q887 774 875 826T837 914T767 968T662 987Q598 987 552 964T475 897T429 792T414 655V223Q414 178 427 151T464 109T517 91T582 86H588ZM332 1661Q356 1690 385 1728T442 1806T496 1887T537 1962H731Q747 1928 772 1888T825 1807T883 1728T936 1661V1634H856Q797 1668 738 1718T633 1818Q586 1769 528 1719T412 1634H332V1661Z"  />
<glyph unicode="&#x126;" horiz-adv-x="1624" d="M1145 815V1022H479V815H1145ZM1352 1022V223Q1352 178 1365 151T1402 109T1455 91T1520 86H1546V0H950V86H977Q1012 86 1042 91T1095 111T1131 156T1145 233V713H479V233Q479 185 492 156T528 112T582 91T647 86H674V0H78V86H104Q139 86 169 91T223 111T259 156T272 233V1022H78V1122H272V1237Q272 1282 259 1309T222 1352T169 1371T104 1376H78V1462H674V1376H647Q613 1376 582 1371T529 1351T493 1306T479 1229V1122H1145V1229Q1145 1277 1132 1306T1096 1350T1043 1371T977 1376H950V1462H1546V1376H1520Q1485 1376 1455 1371T1401 1351T1365 1306T1352 1229V1122H1546V1022H1352Z"  />
<glyph unicode="&#x127;" horiz-adv-x="1300" d="M588 86V0H37V86H53Q88 86 118 91T171 111T207 156T221 233V1214H35V1311H221V1331Q221 1376 208 1403T171 1446T118 1465T53 1470H37V1556H414V1311H764V1214H414V1065Q414 1037 413 1007T410 950Q408 920 406 891H416Q508 1077 717 1077Q804 1077 871 1054T985 982T1055 857T1079 676V233Q1079 185 1091 156T1124 112T1174 91T1237 86H1243V0H887V666Q887 733 875 785T837 873T767 927T662 946Q598 946 552 923T475 856T429 751T414 614V223Q414 178 427 151T464 109T517 91T582 86H588Z"  />
<glyph unicode="&#x128;" horiz-adv-x="752" d="M78 0V86H104Q139 86 169 91T223 111T259 156T272 233V1229Q272 1277 259 1306T223 1350T170 1371T104 1376H78V1462H674V1376H647Q613 1376 582 1371T529 1351T493 1306T479 1229V233Q479 185 492 156T528 112T582 91T647 86H674V0H78ZM549 1712Q579 1712 597 1721T626 1745T641 1780T649 1821H741Q738 1774 725 1731T685 1653T620 1599T526 1579Q471 1579 427 1599T344 1643T272 1688T205 1708Q174 1708 156 1699T128 1675T112 1641T104 1600H12Q15 1647 28 1690T68 1767T134 1821T229 1841Q284 1841 328 1821T411 1777T483 1732T549 1712Z"  />
<glyph unicode="&#x129;" horiz-adv-x="655" d="M74 86Q108 86 138 90T192 109T228 150T242 223V872Q242 917 229 944T192 987T139 1007T74 1012H68V1098H434V233Q434 185 447 156T483 112T537 91T602 86H629V0H47V86H74ZM490 1374Q520 1374 538 1383T567 1407T582 1442T590 1483H682Q679 1436 666 1393T626 1315T561 1261T467 1241Q412 1241 368 1261T285 1305T213 1350T146 1370Q115 1370 97 1361T69 1337T53 1303T45 1262H-47Q-44 1309 -31 1352T9 1429T75 1483T170 1503Q225 1503 269 1483T352 1439T424 1394T490 1374Z"  />
<glyph unicode="&#x12A;" horiz-adv-x="752" d="M78 0V86H104Q139 86 169 91T223 111T259 156T272 233V1229Q272 1277 259 1306T223 1350T170 1371T104 1376H78V1462H674V1376H647Q613 1376 582 1371T529 1351T493 1306T479 1229V233Q479 185 492 156T528 112T582 91T647 86H674V0H78ZM674 1579H80V1700H674V1579Z"  />
<glyph unicode="&#x12B;" horiz-adv-x="655" d="M74 86Q108 86 138 90T192 109T228 150T242 223V872Q242 917 229 944T192 987T139 1007T74 1012H68V1098H434V233Q434 185 447 156T483 112T537 91T602 86H629V0H47V86H74ZM596 1241H2V1362H596V1241Z"  />
<glyph unicode="&#x12E;" horiz-adv-x="752" d="M78 0V86H104Q139 86 169 91T223 111T259 156T272 233V1229Q272 1277 259 1306T223 1350T170 1371T104 1376H78V1462H674V1376H647Q613 1376 582 1371T529 1351T493 1306T479 1229V233Q479 185 492 156T528 112T582 91T647 86H674V0H78ZM182 -266Q182 -218 202 -175T256 -97T333 -36T424 0H541Q509 -10 475 -30T414 -79T368 -148T350 -236Q350 -270 360 -294T390 -334T435 -357T492 -365Q519 -365 551 -361T621 -348V-459Q605 -467 585 -473T542 -483T500 -489T463 -492Q398 -492 346 -479T258 -438T202 -368T182 -266Z"  />
<glyph unicode="&#x12F;" horiz-adv-x="655" d="M213 1430Q213 1466 222 1490T247 1529T284 1550T330 1556Q354 1556 375 1550T411 1529T436 1490T446 1430Q446 1394 437 1370T412 1331T375 1310T330 1303Q305 1303 284 1309T247 1331T222 1370T213 1430ZM74 86Q108 86 138 90T192 109T228 150T242 223V872Q242 917 229 944T192 987T139 1007T74 1012H68V1098H434V233Q434 185 447 156T483 112T537 91T602 86H629V0H47V86H74ZM104 -266Q104 -218 124 -175T178 -97T255 -36T346 0H463Q431 -10 397 -30T336 -79T290 -148T272 -236Q272 -270 282 -294T312 -334T357 -357T414 -365Q441 -365 473 -361T543 -348V-459Q527 -467 507 -473T464 -483T422 -489T385 -492Q320 -492 268 -479T180 -438T124 -368T104 -266Z"  />
<glyph unicode="&#x130;" horiz-adv-x="752" d="M78 0V86H104Q139 86 169 91T223 111T259 156T272 233V1229Q272 1277 259 1306T223 1350T170 1371T104 1376H78V1462H674V1376H647Q613 1376 582 1371T529 1351T493 1306T479 1229V233Q479 185 492 156T528 112T582 91T647 86H674V0H78ZM258 1768Q258 1804 267 1828T292 1867T329 1888T375 1894Q399 1894 420 1888T457 1867T482 1828T492 1768Q492 1732 483 1708T457 1669T420 1648T375 1641Q350 1641 329 1647T292 1669T267 1708T258 1768Z"  />
<glyph unicode="&#x131;" horiz-adv-x="655" d="M74 86Q108 86 138 90T192 109T228 150T242 223V872Q242 917 229 944T192 987T139 1007T74 1012H68V1098H434V233Q434 185 447 156T483 112T537 91T602 86H629V0H47V86H74Z"  />
<glyph unicode="&#x132;" horiz-adv-x="1425" d="M78 0V86H104Q139 86 169 91T223 111T259 156T272 233V1229Q272 1277 259 1306T223 1350T170 1371T104 1376H78V1462H674V1376H647Q613 1376 582 1371T529 1351T493 1306T479 1229V233Q479 185 492 156T528 112T582 91T647 86H674V0H78ZM671 -395H690Q756 -395 807 -377T894 -315T947 -199T966 -18V1237Q966 1282 953 1309T916 1352T863 1371T798 1376H772V1462H1368V1376H1341Q1307 1376 1276 1371T1223 1351T1187 1306T1173 1229V-16Q1173 -154 1137 -245T1038 -391T890 -469T706 -492H671V-395Z"  />
<glyph unicode="&#x133;" horiz-adv-x="1270" d="M213 1430Q213 1466 222 1490T247 1529T284 1550T330 1556Q354 1556 375 1550T411 1529T436 1490T446 1430Q446 1394 437 1370T412 1331T375 1310T330 1303Q305 1303 284 1309T247 1331T222 1370T213 1430ZM74 86Q108 86 138 90T192 109T228 150T242 223V872Q242 917 229 944T192 987T139 1007T74 1012H68V1098H434V233Q434 185 447 156T483 112T537 91T602 86H629V0H47V86H74ZM848 1430Q848 1466 857 1490T881 1529T918 1550T964 1556Q988 1556 1009 1550T1046 1529T1071 1490T1081 1430Q1081 1394 1072 1370T1047 1331T1010 1310T964 1303Q940 1303 919 1309T882 1331T857 1370T848 1430ZM1069 1098V-16Q1069 -154 1039 -245T955 -391T827 -469T663 -492H630V-395H645Q700 -395 743 -377T815 -315T860 -199T876 -18V872Q876 917 863 944T826 987T773 1007T708 1012H702V1098H1069Z"  />
<glyph unicode="&#x134;" horiz-adv-x="731" d="M-23 -395H-4Q62 -395 113 -377T200 -315T253 -199T272 -18V1237Q272 1282 259 1309T222 1352T169 1371T104 1376H78V1462H674V1376H647Q613 1376 582 1371T529 1351T493 1306T479 1229V-16Q479 -154 443 -245T344 -391T196 -469T12 -492H-23V-395ZM74 1606Q98 1635 127 1673T184 1751T238 1832T279 1907H473Q489 1873 514 1833T567 1752T625 1673T678 1606V1579H598Q539 1613 480 1663T375 1763Q328 1714 270 1664T154 1579H74V1606Z"  />
<glyph unicode="&#x135;" horiz-adv-x="614" d="M414 1098V-16Q414 -154 384 -245T300 -391T172 -469T8 -492H-25V-395H-10Q45 -395 88 -377T160 -315T205 -199T221 -18V872Q221 917 208 944T171 987T118 1007T53 1012H47V1098H414ZM-22 1268Q2 1297 31 1335T88 1413T142 1494T183 1569H377Q393 1535 418 1495T471 1414T529 1335T582 1268V1241H502Q443 1275 384 1325T279 1425Q232 1376 174 1326T58 1241H-22V1268Z"  />
<glyph unicode="&#x136;" horiz-adv-x="1434" d="M903 1137Q936 1175 958 1204T992 1258T1010 1300T1016 1333Q1016 1359 991 1368T915 1378V1462H1368V1378Q1333 1378 1301 1365T1236 1327T1169 1267T1094 1186L797 852L1229 250Q1288 169 1342 128T1454 86H1458V0H1436Q1333 0 1267 8T1156 37T1078 93T1006 184L653 690L479 549V233Q479 185 492 156T528 112T582 91T647 86H674V0H78V86H104Q138 86 168 90T222 109T258 150T272 223V1237Q272 1282 259 1309T222 1352T169 1371T104 1376H78V1462H674V1376H647Q613 1376 582 1371T529 1351T493 1306T479 1229V651L903 1137ZM622 -426Q639 -358 655 -279T684 -125H862V-145Q848 -177 828 -217T785 -299T737 -381T692 -453H622V-426Z"  />
<glyph unicode="&#x137;" horiz-adv-x="1198" d="M694 659L967 254Q1020 172 1072 129T1194 86H1200V0H1171Q1082 0 1025 5T925 31T848 91T770 199L565 520L414 408V223Q414 178 427 151T464 109T517 91T582 86H588V0H37V86H53Q88 86 118 91T171 111T207 156T221 233V1331Q221 1376 208 1403T171 1446T118 1465T53 1470H37V1556H414V766Q414 738 413 695T410 609Q408 561 406 508L662 788Q695 825 716 853T751 902T769 939T774 971Q774 997 750 1004T674 1012V1098H1126V1012Q1055 1012 987 962T838 821L694 659ZM504 -426Q521 -358 537 -279T566 -125H744V-145Q730 -177 710 -217T667 -299T619 -381T574 -453H504V-426Z"  />
<glyph unicode="&#x139;" horiz-adv-x="1276" d="M78 0V86H104Q139 86 169 91T223 111T259 156T272 233V1229Q272 1277 259 1306T223 1350T170 1371T104 1376H78V1462H674V1376H647Q613 1376 583 1372T529 1352T493 1310T479 1237V102H883Q929 102 961 118T1015 161T1047 221T1063 287L1083 440H1190L1176 0H78ZM305 1606Q328 1635 352 1673T400 1751T445 1832T483 1907H702V1886Q683 1859 646 1819T564 1734T472 1649T383 1579H305V1606Z"  />
<glyph unicode="&#x13A;" horiz-adv-x="635" d="M53 86Q88 86 118 91T171 111T207 156T221 233V1331Q221 1376 208 1403T171 1446T118 1465T53 1470H27V1556H414V233Q414 185 427 156T463 112T516 91T582 86H608V0H27V86H53ZM217 1663Q240 1692 264 1730T312 1808T357 1889T395 1964H614V1943Q595 1916 558 1876T476 1791T384 1706T295 1636H217V1663Z"  />
<glyph unicode="&#x13B;" horiz-adv-x="1276" d="M78 0V86H104Q139 86 169 91T223 111T259 156T272 233V1229Q272 1277 259 1306T223 1350T170 1371T104 1376H78V1462H674V1376H647Q613 1376 583 1372T529 1352T493 1310T479 1237V102H883Q929 102 961 118T1015 161T1047 221T1063 287L1083 440H1190L1176 0H78ZM532 -426Q549 -358 565 -279T594 -125H772V-145Q758 -177 738 -217T695 -299T647 -381T602 -453H532V-426Z"  />
<glyph unicode="&#x13C;" horiz-adv-x="635" d="M53 86Q88 86 118 91T171 111T207 156T221 233V1331Q221 1376 208 1403T171 1446T118 1465T53 1470H27V1556H414V233Q414 185 427 156T463 112T516 91T582 86H608V0H27V86H53ZM174 -426Q191 -358 207 -279T236 -125H414V-145Q400 -177 380 -217T337 -299T289 -381T244 -453H174V-426Z"  />
<glyph unicode="&#x13D;" horiz-adv-x="1276" d="M78 0V86H104Q139 86 169 91T223 111T259 156T272 233V1229Q272 1277 259 1306T223 1350T170 1371T104 1376H78V1462H674V1376H647Q613 1376 583 1372T529 1352T493 1310T479 1237V102H883Q929 102 961 118T1015 161T1047 221T1063 287L1083 440H1190L1176 0H78ZM864 1163Q881 1232 897 1311T926 1464H1104V1444Q1090 1412 1070 1372T1027 1291T979 1209T934 1137H864V1163Z"  />
<glyph unicode="&#x13E;" horiz-adv-x="635" d="M53 86Q88 86 118 91T171 111T207 156T221 233V1331Q221 1376 208 1403T171 1446T118 1465T53 1470H27V1556H414V233Q414 185 427 156T463 112T516 91T582 86H608V0H27V86H53ZM526 1255Q543 1324 559 1403T588 1556H766V1536Q752 1504 732 1464T689 1383T641 1301T596 1229H526V1255Z"  />
<glyph unicode="&#x13F;" horiz-adv-x="1276" d="M78 0V86H104Q139 86 169 91T223 111T259 156T272 233V1229Q272 1277 259 1306T223 1350T170 1371T104 1376H78V1462H674V1376H647Q613 1376 583 1372T529 1352T493 1310T479 1237V102H883Q929 102 961 118T1015 161T1047 221T1063 287L1083 440H1190L1176 0H78ZM768 787Q768 823 777 847T802 886T839 907T885 913Q909 913 930 907T967 886T992 847T1002 787Q1002 751 993 727T967 688T930 667T885 660Q860 660 839 666T802 688T777 727T768 787Z"  />
<glyph unicode="&#x140;" horiz-adv-x="758" d="M53 86Q88 86 118 91T171 111T207 156T221 233V1331Q221 1376 208 1403T171 1446T118 1465T53 1470H27V1556H414V233Q414 185 427 156T463 112T516 91T582 86H608V0H27V86H53ZM579 674Q579 710 588 734T613 773T650 794T696 800Q720 800 741 794T778 773T803 734T813 674Q813 638 804 614T778 575T741 554T696 547Q671 547 650 553T613 575T588 614T579 674Z"  />
<glyph unicode="&#x141;" horiz-adv-x="1276" d="M78 584L272 696V1229Q272 1277 259 1306T223 1350T170 1371T104 1376H78V1462H674V1376H647Q613 1376 583 1372T529 1352T493 1310T479 1237V815L799 1001V883L479 698V102H883Q929 102 961 118T1015 161T1047 221T1063 287L1083 440H1190L1176 0H78V86H104Q139 86 169 91T223 111T259 156T272 233V580L78 469V584Z"  />
<glyph unicode="&#x142;" horiz-adv-x="664" d="M252 684V1331Q252 1376 239 1403T202 1446T149 1465T84 1470H57V1556H444V795L637 905V786L444 678V233Q444 185 457 156T493 112T547 91T612 86H639V0H57V86H84Q119 86 149 91T202 111T238 156T252 233V567L78 469V584L252 684Z"  />
<glyph unicode="&#x143;" horiz-adv-x="1563" d="M1165 0L397 1180V233Q397 185 410 156T446 112T500 91T565 86H592V0H78V86H104Q139 86 169 91T223 111T259 156T272 233V1237Q272 1282 259 1309T222 1352T169 1371T104 1376H78V1462H453L1186 330V1237Q1186 1282 1173 1309T1136 1352T1083 1371T1018 1376H991V1462H1505V1376H1479Q1444 1376 1414 1371T1360 1351T1324 1306T1311 1229V0H1165ZM706 1606Q729 1635 753 1673T801 1751T846 1832T884 1907H1103V1886Q1084 1859 1047 1819T965 1734T873 1649T784 1579H706V1606Z"  />
<glyph unicode="&#x144;" horiz-adv-x="1321" d="M608 86V0H57V86H74Q109 86 139 91T192 111T228 156T242 233V872Q242 917 229 944T192 987T139 1007T74 1012H68V1098H399L426 932H436Q468 989 503 1025T578 1082T662 1110T756 1118Q837 1118 900 1095T1008 1023T1076 898T1100 717V233Q1100 185 1111 156T1144 112T1194 91T1257 86H1264V0H907V707Q907 774 895 826T857 914T787 968T682 987Q612 987 565 960T488 887T447 781T434 655V223Q434 178 447 151T484 109T537 91T602 86H608ZM569 1268Q592 1297 616 1335T664 1413T709 1494T747 1569H966V1548Q947 1521 910 1481T828 1396T736 1311T647 1241H569V1268Z"  />
<glyph unicode="&#x145;" horiz-adv-x="1563" d="M1165 0L397 1180V233Q397 185 410 156T446 112T500 91T565 86H592V0H78V86H104Q139 86 169 91T223 111T259 156T272 233V1237Q272 1282 259 1309T222 1352T169 1371T104 1376H78V1462H453L1186 330V1237Q1186 1282 1173 1309T1136 1352T1083 1371T1018 1376H991V1462H1505V1376H1479Q1444 1376 1414 1371T1360 1351T1324 1306T1311 1229V0H1165ZM682 -426Q699 -358 715 -279T744 -125H922V-145Q908 -177 888 -217T845 -299T797 -381T752 -453H682V-426Z"  />
<glyph unicode="&#x146;" horiz-adv-x="1321" d="M608 86V0H57V86H74Q109 86 139 91T192 111T228 156T242 233V872Q242 917 229 944T192 987T139 1007T74 1012H68V1098H399L426 932H436Q468 989 503 1025T578 1082T662 1110T756 1118Q837 1118 900 1095T1008 1023T1076 898T1100 717V233Q1100 185 1111 156T1144 112T1194 91T1257 86H1264V0H907V707Q907 774 895 826T857 914T787 968T682 987Q612 987 565 960T488 887T447 781T434 655V223Q434 178 447 151T484 109T537 91T602 86H608ZM543 -426Q560 -358 576 -279T605 -125H783V-145Q769 -177 749 -217T706 -299T658 -381T613 -453H543V-426Z"  />
<glyph unicode="&#x147;" horiz-adv-x="1563" d="M1165 0L397 1180V233Q397 185 410 156T446 112T500 91T565 86H592V0H78V86H104Q139 86 169 91T223 111T259 156T272 233V1237Q272 1282 259 1309T222 1352T169 1371T104 1376H78V1462H453L1186 330V1237Q1186 1282 1173 1309T1136 1352T1083 1371T1018 1376H991V1462H1505V1376H1479Q1444 1376 1414 1371T1360 1351T1324 1306T1311 1229V0H1165ZM527 1907H607Q636 1889 665 1867T723 1821T778 1771T828 1720Q851 1745 877 1770T933 1820T992 1867T1051 1907H1131V1880Q1107 1851 1078 1813T1021 1735T967 1654T926 1579H732Q716 1614 691 1654T638 1734T580 1813T527 1880V1907Z"  />
<glyph unicode="&#x148;" horiz-adv-x="1321" d="M608 86V0H57V86H74Q109 86 139 91T192 111T228 156T242 233V872Q242 917 229 944T192 987T139 1007T74 1012H68V1098H399L426 932H436Q468 989 503 1025T578 1082T662 1110T756 1118Q837 1118 900 1095T1008 1023T1076 898T1100 717V233Q1100 185 1111 156T1144 112T1194 91T1257 86H1264V0H907V707Q907 774 895 826T857 914T787 968T682 987Q612 987 565 960T488 887T447 781T434 655V223Q434 178 447 151T484 109T537 91T602 86H608ZM375 1569H455Q484 1551 513 1529T571 1483T626 1433T676 1382Q699 1407 725 1432T781 1482T840 1529T899 1569H979V1542Q955 1513 926 1475T869 1397T815 1316T774 1241H580Q564 1276 539 1316T486 1396T428 1475T375 1542V1569Z"  />
<glyph unicode="&#x149;" horiz-adv-x="1597" d="M884 86V0H333V86H350Q385 86 415 91T468 111T504 156T518 233V872Q518 917 505 944T468 987T415 1007T350 1012H344V1098H675L702 932H712Q744 989 779 1025T854 1082T938 1110T1032 1118Q1113 1118 1176 1095T1284 1023T1352 898T1376 717V233Q1376 185 1387 156T1420 112T1470 91T1533 86H1540V0H1183V707Q1183 774 1171 826T1133 914T1063 968T958 987Q888 987 841 960T764 887T723 781T710 655V223Q710 178 723 151T760 109T813 91T878 86H884ZM338 1284Q338 1219 320 1158T262 1045T158 952T2 883V969Q103 1001 150 1047T197 1153Q197 1173 186 1186T158 1210T122 1231T86 1255T58 1289T47 1341Q47 1400 85 1431T181 1462Q213 1462 241 1451T291 1417T325 1361T338 1284Z"  />
<glyph unicode="&#x14C;" horiz-adv-x="1520" d="M342 733Q342 581 364 462T437 260T566 134T760 90Q874 90 953 133T1082 259T1154 461T1176 733Q1176 885 1154 1004T1083 1206T955 1331T762 1374Q648 1374 568 1331T438 1206T365 1005T342 733ZM1403 733Q1403 564 1361 425T1237 187T1035 34T760 -20Q597 -20 476 34T275 187T155 425T115 735Q115 905 155 1043T275 1280T477 1431T762 1485Q917 1485 1036 1432T1237 1280T1361 1043T1403 733ZM1053 1579H459V1700H1053V1579Z"  />
<glyph unicode="&#x14D;" horiz-adv-x="1182" d="M311 551Q311 437 326 350T374 205T461 116T592 86Q669 86 722 116T808 204T855 350T870 551Q870 665 855 751T807 894T721 981T590 1010Q513 1010 460 981T374 895T326 751T311 551ZM1069 551Q1069 262 947 121T588 -20Q477 -20 389 15T240 121T146 299T113 551Q113 838 234 978T594 1118Q705 1118 793 1084T942 979T1036 802T1069 551ZM883 1241H289V1362H883V1241Z"  />
<glyph unicode="&#x14E;" horiz-adv-x="1520" d="M342 733Q342 581 364 462T437 260T566 134T760 90Q874 90 953 133T1082 259T1154 461T1176 733Q1176 885 1154 1004T1083 1206T955 1331T762 1374Q648 1374 568 1331T438 1206T365 1005T342 733ZM1403 733Q1403 564 1361 425T1237 187T1035 34T760 -20Q597 -20 476 34T275 187T155 425T115 735Q115 905 155 1043T275 1280T477 1431T762 1485Q917 1485 1036 1432T1237 1280T1361 1043T1403 733ZM760 1579Q687 1579 634 1601T545 1662T493 1751T473 1860H567Q584 1785 634 1753T760 1720Q835 1720 885 1752T952 1860H1047Q1045 1802 1028 1751T975 1662T886 1602T760 1579Z"  />
<glyph unicode="&#x14F;" horiz-adv-x="1182" d="M311 551Q311 437 326 350T374 205T461 116T592 86Q669 86 722 116T808 204T855 350T870 551Q870 665 855 751T807 894T721 981T590 1010Q513 1010 460 981T374 895T326 751T311 551ZM1069 551Q1069 262 947 121T588 -20Q477 -20 389 15T240 121T146 299T113 551Q113 838 234 978T594 1118Q705 1118 793 1084T942 979T1036 802T1069 551ZM590 1241Q517 1241 464 1263T375 1324T323 1413T303 1522H397Q414 1447 464 1415T590 1382Q665 1382 715 1414T782 1522H877Q875 1464 858 1413T805 1324T716 1264T590 1241Z"  />
<glyph unicode="&#x150;" horiz-adv-x="1520" d="M342 733Q342 581 364 462T437 260T566 134T760 90Q874 90 953 133T1082 259T1154 461T1176 733Q1176 885 1154 1004T1083 1206T955 1331T762 1374Q648 1374 568 1331T438 1206T365 1005T342 733ZM1403 733Q1403 564 1361 425T1237 187T1035 34T760 -20Q597 -20 476 34T275 187T155 425T115 735Q115 905 155 1043T275 1280T477 1431T762 1485Q917 1485 1036 1432T1237 1280T1361 1043T1403 733ZM814 1579V1606Q835 1639 859 1677T906 1755T951 1834T988 1907H1207V1886Q1196 1868 1177 1844T1132 1791T1079 1734T1021 1676T965 1623T914 1579H814ZM445 1579V1606Q466 1639 490 1677T537 1755T582 1834T619 1907H838V1886Q827 1868 808 1844T763 1791T710 1734T652 1676T596 1623T545 1579H445Z"  />
<glyph unicode="&#x151;" horiz-adv-x="1182" d="M311 551Q311 437 326 350T374 205T461 116T592 86Q669 86 722 116T808 204T855 350T870 551Q870 665 855 751T807 894T721 981T590 1010Q513 1010 460 981T374 895T326 751T311 551ZM1069 551Q1069 262 947 121T588 -20Q477 -20 389 15T240 121T146 299T113 551Q113 838 234 978T594 1118Q705 1118 793 1084T942 979T1036 802T1069 551ZM648 1241V1268Q669 1301 693 1339T740 1417T785 1496T822 1569H1041V1548Q1030 1530 1011 1506T966 1453T913 1396T855 1338T799 1285T748 1241H648ZM279 1241V1268Q300 1301 324 1339T371 1417T416 1496T453 1569H672V1548Q661 1530 642 1506T597 1453T544 1396T486 1338T430 1285T379 1241H279Z"  />
<glyph unicode="&#x152;" horiz-adv-x="1964" d="M760 90Q820 90 870 98T961 121V1339Q920 1356 871 1365T762 1374Q648 1374 568 1331T438 1206T365 1005T342 733Q342 581 364 462T437 260T566 134T760 90ZM1167 102H1563Q1611 102 1645 115T1703 152T1739 205T1757 270L1772 358H1878L1864 0H971Q950 -5 924 -8T869 -14T812 -18T760 -20Q597 -20 476 34T275 187T155 425T115 735Q115 905 155 1043T275 1280T477 1431T762 1485Q786 1485 814 1484T871 1479T926 1472T973 1462H1798L1808 1104H1702L1692 1192Q1688 1226 1677 1256T1644 1310T1590 1346T1511 1360H1167V815H1661V715H1167V102Z"  />
<glyph unicode="&#x153;" horiz-adv-x="1853" d="M1346 -20Q1216 -20 1125 32T973 184Q854 -20 588 -20Q477 -20 389 15T240 121T146 299T113 551Q113 838 234 978T594 1118Q718 1118 811 1069T967 920Q1025 1020 1114 1069T1325 1118Q1424 1118 1503 1087T1637 995T1721 842T1751 629V535H1069Q1071 436 1088 358T1141 224T1234 139T1374 109Q1427 109 1472 121T1555 153T1620 198T1667 252Q1681 246 1693 227T1706 182Q1706 151 1684 116T1617 50T1505 0T1346 -20ZM1321 1008Q1206 1008 1145 916T1073 645H1544Q1544 726 1532 793T1494 908T1426 982T1321 1008ZM311 551Q311 437 326 350T374 205T461 116T592 86Q668 86 720 115T806 201T854 344T870 541V569Q869 679 853 761T804 899T718 982T590 1010Q513 1010 460 981T374 895T326 751T311 551Z"  />
<glyph unicode="&#x154;" horiz-adv-x="1343" d="M479 741H623Q713 741 773 761T869 821T920 921T936 1061Q936 1143 919 1200T864 1294T766 1347T618 1364H479V741ZM1135 250Q1187 168 1236 127T1350 86H1356V0H1327Q1231 0 1170 7T1065 34T992 90T926 184L649 645H479V223Q479 178 492 151T529 109T582 91T647 86H674V0H78V86H104Q138 86 168 90T222 109T258 150T272 223V1237Q272 1282 259 1309T222 1352T169 1371T104 1376H78V1462H629Q895 1462 1025 1364T1155 1067Q1155 985 1129 924T1059 817T962 742T854 694L1135 250ZM524 1606Q547 1635 571 1673T619 1751T664 1832T702 1907H921V1886Q902 1859 865 1819T783 1734T691 1649T602 1579H524V1606Z"  />
<glyph unicode="&#x155;" horiz-adv-x="965" d="M659 0H68V86H74Q109 86 139 91T192 111T228 156T242 233V872Q242 917 229 944T192 987T139 1007T74 1012H68V1098H383L422 895H432Q452 941 473 981T524 1052T600 1100T713 1118Q825 1118 879 1079T934 969Q934 937 924 910T890 864T831 834T743 823Q743 908 719 945T635 983Q597 983 567 962T515 905T477 823T452 729T438 632T434 545V223Q434 178 447 151T484 109T537 91T602 86H659V0ZM375 1268Q398 1297 422 1335T470 1413T515 1494T553 1569H772V1548Q753 1521 716 1481T634 1396T542 1311T453 1241H375V1268Z"  />
<glyph unicode="&#x156;" horiz-adv-x="1343" d="M479 741H623Q713 741 773 761T869 821T920 921T936 1061Q936 1143 919 1200T864 1294T766 1347T618 1364H479V741ZM1135 250Q1187 168 1236 127T1350 86H1356V0H1327Q1231 0 1170 7T1065 34T992 90T926 184L649 645H479V223Q479 178 492 151T529 109T582 91T647 86H674V0H78V86H104Q138 86 168 90T222 109T258 150T272 223V1237Q272 1282 259 1309T222 1352T169 1371T104 1376H78V1462H629Q895 1462 1025 1364T1155 1067Q1155 985 1129 924T1059 817T962 742T854 694L1135 250ZM543 -426Q560 -358 576 -279T605 -125H783V-145Q769 -177 749 -217T706 -299T658 -381T613 -453H543V-426Z"  />
<glyph unicode="&#x157;" horiz-adv-x="965" d="M659 0H68V86H74Q109 86 139 91T192 111T228 156T242 233V872Q242 917 229 944T192 987T139 1007T74 1012H68V1098H383L422 895H432Q452 941 473 981T524 1052T600 1100T713 1118Q825 1118 879 1079T934 969Q934 937 924 910T890 864T831 834T743 823Q743 908 719 945T635 983Q597 983 567 962T515 905T477 823T452 729T438 632T434 545V223Q434 178 447 151T484 109T537 91T602 86H659V0ZM190 -426Q207 -358 223 -279T252 -125H430V-145Q416 -177 396 -217T353 -299T305 -381T260 -453H190V-426Z"  />
<glyph unicode="&#x158;" horiz-adv-x="1343" d="M479 741H623Q713 741 773 761T869 821T920 921T936 1061Q936 1143 919 1200T864 1294T766 1347T618 1364H479V741ZM1135 250Q1187 168 1236 127T1350 86H1356V0H1327Q1231 0 1170 7T1065 34T992 90T926 184L649 645H479V223Q479 178 492 151T529 109T582 91T647 86H674V0H78V86H104Q138 86 168 90T222 109T258 150T272 223V1237Q272 1282 259 1309T222 1352T169 1371T104 1376H78V1462H629Q895 1462 1025 1364T1155 1067Q1155 985 1129 924T1059 817T962 742T854 694L1135 250ZM322 1907H402Q431 1889 460 1867T518 1821T573 1771T623 1720Q646 1745 672 1770T728 1820T787 1867T846 1907H926V1880Q902 1851 873 1813T816 1735T762 1654T721 1579H527Q511 1614 486 1654T433 1734T375 1813T322 1880V1907Z"  />
<glyph unicode="&#x159;" horiz-adv-x="965" d="M659 0H68V86H74Q109 86 139 91T192 111T228 156T242 233V872Q242 917 229 944T192 987T139 1007T74 1012H68V1098H383L422 895H432Q452 941 473 981T524 1052T600 1100T713 1118Q825 1118 879 1079T934 969Q934 937 924 910T890 864T831 834T743 823Q743 908 719 945T635 983Q597 983 567 962T515 905T477 823T452 729T438 632T434 545V223Q434 178 447 151T484 109T537 91T602 86H659V0ZM156 1569H236Q265 1551 294 1529T352 1483T407 1433T457 1382Q480 1407 506 1432T562 1482T621 1529T680 1569H760V1542Q736 1513 707 1475T650 1397T596 1316T555 1241H361Q345 1276 320 1316T267 1396T209 1475T156 1542V1569Z"  />
<glyph unicode="&#x15A;" horiz-adv-x="1114" d="M506 -20Q406 -20 330 1T202 59T124 150T98 268Q98 330 136 368T246 406Q249 342 265 283T315 179T399 107T522 80Q660 80 737 146T815 338Q815 394 799 437T746 516T649 586T498 657Q403 696 332 740T214 839T144 961T121 1112Q121 1200 154 1269T248 1385T390 1458T569 1483Q661 1483 732 1464T852 1413T926 1340T952 1253Q952 1187 909 1154T791 1120Q791 1168 780 1214T741 1297T670 1357T561 1380Q502 1380 456 1364T377 1317T328 1243T311 1147Q311 1086 327 1040T380 956T479 885T629 815Q719 778 789 737T909 646T984 533T1010 391Q1010 294 975 218T873 88T714 8T506 -20ZM450 1606Q473 1635 497 1673T545 1751T590 1832T628 1907H847V1886Q828 1859 791 1819T709 1734T617 1649T528 1579H450V1606Z"  />
<glyph unicode="&#x15B;" horiz-adv-x="924" d="M430 -20Q353 -20 291 -7T184 34T116 102T92 197Q92 238 105 265T138 309T180 331T221 338Q221 284 232 237T269 155T337 99T442 78Q497 78 539 91T609 129T653 188T668 264Q668 302 657 329T617 381T539 430T416 487Q337 522 279 554T182 625T125 711T106 827Q106 897 133 951T212 1041T334 1097T492 1116Q565 1116 621 1101T715 1061T772 1001T791 928Q791 872 753 839T643 805Q643 908 601 965T467 1022Q415 1022 378 1010T318 976T283 924T272 858Q272 819 286 791T330 738T409 692T526 641Q607 607 665 574T760 502T816 414T834 301Q834 221 805 161T723 61T596 0T430 -20ZM366 1268Q389 1297 413 1335T461 1413T506 1494T544 1569H763V1548Q744 1521 707 1481T625 1396T533 1311T444 1241H366V1268Z"  />
<glyph unicode="&#x15C;" horiz-adv-x="1114" d="M506 -20Q406 -20 330 1T202 59T124 150T98 268Q98 330 136 368T246 406Q249 342 265 283T315 179T399 107T522 80Q660 80 737 146T815 338Q815 394 799 437T746 516T649 586T498 657Q403 696 332 740T214 839T144 961T121 1112Q121 1200 154 1269T248 1385T390 1458T569 1483Q661 1483 732 1464T852 1413T926 1340T952 1253Q952 1187 909 1154T791 1120Q791 1168 780 1214T741 1297T670 1357T561 1380Q502 1380 456 1364T377 1317T328 1243T311 1147Q311 1086 327 1040T380 956T479 885T629 815Q719 778 789 737T909 646T984 533T1010 391Q1010 294 975 218T873 88T714 8T506 -20ZM271 1606Q295 1635 324 1673T381 1751T435 1832T476 1907H670Q686 1873 711 1833T764 1752T822 1673T875 1606V1579H795Q736 1613 677 1663T572 1763Q525 1714 467 1664T351 1579H271V1606Z"  />
<glyph unicode="&#x15D;" horiz-adv-x="924" d="M430 -20Q353 -20 291 -7T184 34T116 102T92 197Q92 238 105 265T138 309T180 331T221 338Q221 284 232 237T269 155T337 99T442 78Q497 78 539 91T609 129T653 188T668 264Q668 302 657 329T617 381T539 430T416 487Q337 522 279 554T182 625T125 711T106 827Q106 897 133 951T212 1041T334 1097T492 1116Q565 1116 621 1101T715 1061T772 1001T791 928Q791 872 753 839T643 805Q643 908 601 965T467 1022Q415 1022 378 1010T318 976T283 924T272 858Q272 819 286 791T330 738T409 692T526 641Q607 607 665 574T760 502T816 414T834 301Q834 221 805 161T723 61T596 0T430 -20ZM189 1268Q213 1297 242 1335T299 1413T353 1494T394 1569H588Q604 1535 629 1495T682 1414T740 1335T793 1268V1241H713Q654 1275 595 1325T490 1425Q443 1376 385 1326T269 1241H189V1268Z"  />
<glyph unicode="&#x15E;" horiz-adv-x="1114" d="M506 -20Q406 -20 330 1T202 59T124 150T98 268Q98 330 136 368T246 406Q249 342 265 283T315 179T399 107T522 80Q660 80 737 146T815 338Q815 394 799 437T746 516T649 586T498 657Q403 696 332 740T214 839T144 961T121 1112Q121 1200 154 1269T248 1385T390 1458T569 1483Q661 1483 732 1464T852 1413T926 1340T952 1253Q952 1187 909 1154T791 1120Q791 1168 780 1214T741 1297T670 1357T561 1380Q502 1380 456 1364T377 1317T328 1243T311 1147Q311 1086 327 1040T380 956T479 885T629 815Q719 778 789 737T909 646T984 533T1010 391Q1010 294 975 218T873 88T714 8T506 -20ZM746 -258Q746 -367 677 -429T476 -492Q460 -492 440 -491T399 -486T357 -479T318 -469V-365Q355 -373 392 -377T457 -381Q516 -381 549 -350T582 -266Q582 -206 539 -176T428 -141L471 18H568L547 -70Q647 -78 696 -127T746 -258Z"  />
<glyph unicode="&#x15F;" horiz-adv-x="924" d="M430 -20Q353 -20 291 -7T184 34T116 102T92 197Q92 238 105 265T138 309T180 331T221 338Q221 284 232 237T269 155T337 99T442 78Q497 78 539 91T609 129T653 188T668 264Q668 302 657 329T617 381T539 430T416 487Q337 522 279 554T182 625T125 711T106 827Q106 897 133 951T212 1041T334 1097T492 1116Q565 1116 621 1101T715 1061T772 1001T791 928Q791 872 753 839T643 805Q643 908 601 965T467 1022Q415 1022 378 1010T318 976T283 924T272 858Q272 819 286 791T330 738T409 692T526 641Q607 607 665 574T760 502T816 414T834 301Q834 221 805 161T723 61T596 0T430 -20ZM674 -258Q674 -367 605 -429T404 -492Q388 -492 368 -491T327 -486T285 -479T246 -469V-365Q283 -373 320 -377T385 -381Q444 -381 477 -350T510 -266Q510 -206 467 -176T356 -141L399 18H496L475 -70Q575 -78 624 -127T674 -258Z"  />
<glyph unicode="&#x160;" horiz-adv-x="1114" d="M506 -20Q406 -20 330 1T202 59T124 150T98 268Q98 330 136 368T246 406Q249 342 265 283T315 179T399 107T522 80Q660 80 737 146T815 338Q815 394 799 437T746 516T649 586T498 657Q403 696 332 740T214 839T144 961T121 1112Q121 1200 154 1269T248 1385T390 1458T569 1483Q661 1483 732 1464T852 1413T926 1340T952 1253Q952 1187 909 1154T791 1120Q791 1168 780 1214T741 1297T670 1357T561 1380Q502 1380 456 1364T377 1317T328 1243T311 1147Q311 1086 327 1040T380 956T479 885T629 815Q719 778 789 737T909 646T984 533T1010 391Q1010 294 975 218T873 88T714 8T506 -20ZM264 1907H344Q373 1889 402 1867T460 1821T515 1771T565 1720Q588 1745 614 1770T670 1820T729 1867T788 1907H868V1880Q844 1851 815 1813T758 1735T704 1654T663 1579H469Q453 1614 428 1654T375 1734T317 1813T264 1880V1907Z"  />
<glyph unicode="&#x161;" horiz-adv-x="924" d="M430 -20Q353 -20 291 -7T184 34T116 102T92 197Q92 238 105 265T138 309T180 331T221 338Q221 284 232 237T269 155T337 99T442 78Q497 78 539 91T609 129T653 188T668 264Q668 302 657 329T617 381T539 430T416 487Q337 522 279 554T182 625T125 711T106 827Q106 897 133 951T212 1041T334 1097T492 1116Q565 1116 621 1101T715 1061T772 1001T791 928Q791 872 753 839T643 805Q643 908 601 965T467 1022Q415 1022 378 1010T318 976T283 924T272 858Q272 819 286 791T330 738T409 692T526 641Q607 607 665 574T760 502T816 414T834 301Q834 221 805 161T723 61T596 0T430 -20ZM170 1569H250Q279 1551 308 1529T366 1483T421 1433T471 1382Q494 1407 520 1432T576 1482T635 1529T694 1569H774V1542Q750 1513 721 1475T664 1397T610 1316T569 1241H375Q359 1276 334 1316T281 1396T223 1475T170 1542V1569Z"  />
<glyph unicode="&#x162;" horiz-adv-x="1255" d="M729 233Q729 185 742 156T778 112T832 91T897 86H944V0H307V86H354Q388 86 418 90T472 109T508 150T522 223V1360H326Q281 1360 251 1347T201 1310T172 1257T158 1192L147 1104H41L51 1462H1204L1214 1104H1108L1098 1192Q1094 1226 1084 1256T1055 1310T1005 1346T928 1360H729V233ZM475 -426Q492 -358 508 -279T537 -125H715V-145Q701 -177 681 -217T638 -299T590 -381T545 -453H475V-426Z"  />
<glyph unicode="&#x163;" horiz-adv-x="721" d="M543 88Q580 88 611 92T674 102V12Q661 6 640 0T595 -10T543 -17T492 -20Q414 -20 358 -4T266 50T213 148T195 297V981H39V1063Q76 1063 120 1078T199 1128Q234 1166 255 1218T293 1350H387V1098H655V981H387V291Q387 186 429 137T543 88ZM268 -426Q285 -358 301 -279T330 -125H508V-145Q494 -177 474 -217T431 -299T383 -381T338 -453H268V-426Z"  />
<glyph unicode="&#x164;" horiz-adv-x="1255" d="M729 233Q729 185 742 156T778 112T832 91T897 86H944V0H307V86H354Q388 86 418 90T472 109T508 150T522 223V1360H326Q281 1360 251 1347T201 1310T172 1257T158 1192L147 1104H41L51 1462H1204L1214 1104H1108L1098 1192Q1094 1226 1084 1256T1055 1310T1005 1346T928 1360H729V233ZM324 1907H404Q433 1889 462 1867T520 1821T575 1771T625 1720Q648 1745 674 1770T730 1820T789 1867T848 1907H928V1880Q904 1851 875 1813T818 1735T764 1654T723 1579H529Q513 1614 488 1654T435 1734T377 1813T324 1880V1907Z"  />
<glyph unicode="&#x165;" horiz-adv-x="721" d="M543 88Q580 88 611 92T674 102V12Q661 6 640 0T595 -10T543 -17T492 -20Q414 -20 358 -4T266 50T213 148T195 297V981H39V1063Q76 1063 120 1078T199 1128Q234 1166 255 1218T293 1350H387V1098H655V981H387V291Q387 186 429 137T543 88ZM532 1255Q549 1324 565 1403T594 1556H772V1536Q758 1504 738 1464T695 1383T647 1301T602 1229H532V1255Z"  />
<glyph unicode="&#x166;" horiz-adv-x="1255" d="M729 772H1075V672H729V233Q729 185 742 156T778 112T832 91T897 86H944V0H307V86H354Q388 86 418 90T472 109T508 150T522 223V672H180V772H522V1360H326Q281 1360 251 1347T201 1310T172 1257T158 1192L147 1104H41L51 1462H1204L1214 1104H1108L1098 1192Q1094 1226 1084 1256T1055 1310T1005 1346T928 1360H729V772Z"  />
<glyph unicode="&#x167;" horiz-adv-x="721" d="M543 88Q580 88 611 92T674 102V12Q661 6 640 0T595 -10T543 -17T492 -20Q414 -20 358 -4T266 50T213 148T195 297V596H55V692H195V981H39V1063Q76 1063 120 1078T199 1128Q234 1166 255 1218T293 1350H387V1098H655V981H387V692H635V596H387V291Q387 186 429 137T543 88Z"  />
<glyph unicode="&#x168;" horiz-adv-x="1468" d="M741 -20Q620 -20 524 5T362 86T260 229T225 442V1237Q225 1282 212 1309T175 1352T122 1371T57 1376H31V1462H627V1376H600Q566 1376 535 1371T482 1351T446 1306T432 1229V430Q432 341 457 279T528 177T636 120T774 102Q863 102 927 126T1034 192T1097 293T1118 422V1237Q1118 1282 1105 1309T1068 1352T1015 1371T950 1376H924V1462H1438V1376H1411Q1377 1376 1346 1371T1293 1351T1257 1306T1243 1229V418Q1243 316 1211 235T1115 97T957 10T741 -20ZM930 1712Q960 1712 978 1721T1007 1745T1022 1780T1030 1821H1122Q1119 1774 1106 1731T1066 1653T1001 1599T907 1579Q852 1579 808 1599T725 1643T653 1688T586 1708Q555 1708 537 1699T509 1675T493 1641T485 1600H393Q396 1647 409 1690T449 1767T515 1821T610 1841Q665 1841 709 1821T792 1777T864 1732T930 1712Z"  />
<glyph unicode="&#x169;" horiz-adv-x="1300" d="M1079 223Q1079 178 1092 151T1129 109T1182 91T1247 86H1253V0H928L901 166H891Q860 108 823 72T743 16T655 -12T559 -20Q478 -20 415 3T309 75T244 200T221 381V872Q221 917 208 944T171 987T118 1007T53 1012H47V1098H414V391Q414 324 424 272T459 184T525 130T629 111Q697 111 745 135T825 202T872 307T887 442V864Q887 912 874 941T838 986T785 1007T719 1012H713V1098H1079V223ZM807 1374Q837 1374 855 1383T884 1407T899 1442T907 1483H999Q996 1436 983 1393T943 1315T878 1261T784 1241Q729 1241 685 1261T602 1305T530 1350T463 1370Q432 1370 414 1361T386 1337T370 1303T362 1262H270Q273 1309 286 1352T326 1429T392 1483T487 1503Q542 1503 586 1483T669 1439T741 1394T807 1374Z"  />
<glyph unicode="&#x16A;" horiz-adv-x="1468" d="M741 -20Q620 -20 524 5T362 86T260 229T225 442V1237Q225 1282 212 1309T175 1352T122 1371T57 1376H31V1462H627V1376H600Q566 1376 535 1371T482 1351T446 1306T432 1229V430Q432 341 457 279T528 177T636 120T774 102Q863 102 927 126T1034 192T1097 293T1118 422V1237Q1118 1282 1105 1309T1068 1352T1015 1371T950 1376H924V1462H1438V1376H1411Q1377 1376 1346 1371T1293 1351T1257 1306T1243 1229V418Q1243 316 1211 235T1115 97T957 10T741 -20ZM1069 1579H475V1700H1069V1579Z"  />
<glyph unicode="&#x16B;" horiz-adv-x="1300" d="M1079 223Q1079 178 1092 151T1129 109T1182 91T1247 86H1253V0H928L901 166H891Q860 108 823 72T743 16T655 -12T559 -20Q478 -20 415 3T309 75T244 200T221 381V872Q221 917 208 944T171 987T118 1007T53 1012H47V1098H414V391Q414 324 424 272T459 184T525 130T629 111Q697 111 745 135T825 202T872 307T887 442V864Q887 912 874 941T838 986T785 1007T719 1012H713V1098H1079V223ZM922 1241H328V1362H922V1241Z"  />
<glyph unicode="&#x16C;" horiz-adv-x="1468" d="M741 -20Q620 -20 524 5T362 86T260 229T225 442V1237Q225 1282 212 1309T175 1352T122 1371T57 1376H31V1462H627V1376H600Q566 1376 535 1371T482 1351T446 1306T432 1229V430Q432 341 457 279T528 177T636 120T774 102Q863 102 927 126T1034 192T1097 293T1118 422V1237Q1118 1282 1105 1309T1068 1352T1015 1371T950 1376H924V1462H1438V1376H1411Q1377 1376 1346 1371T1293 1351T1257 1306T1243 1229V418Q1243 316 1211 235T1115 97T957 10T741 -20ZM760 1579Q687 1579 634 1601T545 1662T493 1751T473 1860H567Q584 1785 634 1753T760 1720Q835 1720 885 1752T952 1860H1047Q1045 1802 1028 1751T975 1662T886 1602T760 1579Z"  />
<glyph unicode="&#x16D;" horiz-adv-x="1300" d="M1079 223Q1079 178 1092 151T1129 109T1182 91T1247 86H1253V0H928L901 166H891Q860 108 823 72T743 16T655 -12T559 -20Q478 -20 415 3T309 75T244 200T221 381V872Q221 917 208 944T171 987T118 1007T53 1012H47V1098H414V391Q414 324 424 272T459 184T525 130T629 111Q697 111 745 135T825 202T872 307T887 442V864Q887 912 874 941T838 986T785 1007T719 1012H713V1098H1079V223ZM635 1241Q562 1241 509 1263T420 1324T368 1413T348 1522H442Q459 1447 509 1415T635 1382Q710 1382 760 1414T827 1522H922Q920 1464 903 1413T850 1324T761 1264T635 1241Z"  />
<glyph unicode="&#x16E;" horiz-adv-x="1468" d="M741 -20Q620 -20 524 5T362 86T260 229T225 442V1237Q225 1282 212 1309T175 1352T122 1371T57 1376H31V1462H627V1376H600Q566 1376 535 1371T482 1351T446 1306T432 1229V430Q432 341 457 279T528 177T636 120T774 102Q863 102 927 126T1034 192T1097 293T1118 422V1237Q1118 1282 1105 1309T1068 1352T1015 1371T950 1376H924V1462H1438V1376H1411Q1377 1376 1346 1371T1293 1351T1257 1306T1243 1229V418Q1243 316 1211 235T1115 97T957 10T741 -20ZM895 1782Q895 1815 885 1838T856 1876T813 1898T760 1905Q732 1905 708 1898T665 1877T636 1839T625 1782Q625 1749 635 1726T664 1688T707 1666T760 1659Q788 1659 812 1666T855 1687T884 1725T895 1782ZM1006 1782Q1006 1727 987 1686T935 1616T856 1574T760 1559Q709 1559 664 1573T586 1616T533 1685T514 1782Q514 1836 533 1878T585 1948T664 1990T760 2005Q811 2005 856 1991T934 1948T987 1878T1006 1782Z"  />
<glyph unicode="&#x16F;" horiz-adv-x="1300" d="M1079 223Q1079 178 1092 151T1129 109T1182 91T1247 86H1253V0H928L901 166H891Q860 108 823 72T743 16T655 -12T559 -20Q478 -20 415 3T309 75T244 200T221 381V872Q221 917 208 944T171 987T118 1007T53 1012H47V1098H414V391Q414 324 424 272T459 184T525 130T629 111Q697 111 745 135T825 202T872 307T887 442V864Q887 912 874 941T838 986T785 1007T719 1012H713V1098H1079V223ZM758 1444Q758 1477 748 1500T719 1538T676 1560T623 1567Q595 1567 571 1560T528 1539T499 1501T488 1444Q488 1411 498 1388T527 1350T570 1328T623 1321Q651 1321 675 1328T718 1349T747 1387T758 1444ZM869 1444Q869 1389 850 1348T798 1278T719 1236T623 1221Q572 1221 527 1235T449 1278T396 1347T377 1444Q377 1498 396 1540T448 1610T527 1652T623 1667Q674 1667 719 1653T797 1610T850 1540T869 1444Z"  />
<glyph unicode="&#x170;" horiz-adv-x="1468" d="M741 -20Q620 -20 524 5T362 86T260 229T225 442V1237Q225 1282 212 1309T175 1352T122 1371T57 1376H31V1462H627V1376H600Q566 1376 535 1371T482 1351T446 1306T432 1229V430Q432 341 457 279T528 177T636 120T774 102Q863 102 927 126T1034 192T1097 293T1118 422V1237Q1118 1282 1105 1309T1068 1352T1015 1371T950 1376H924V1462H1438V1376H1411Q1377 1376 1346 1371T1293 1351T1257 1306T1243 1229V418Q1243 316 1211 235T1115 97T957 10T741 -20ZM828 1579V1606Q849 1639 873 1677T920 1755T965 1834T1002 1907H1221V1886Q1210 1868 1191 1844T1146 1791T1093 1734T1035 1676T979 1623T928 1579H828ZM459 1579V1606Q480 1639 504 1677T551 1755T596 1834T633 1907H852V1886Q841 1868 822 1844T777 1791T724 1734T666 1676T610 1623T559 1579H459Z"  />
<glyph unicode="&#x171;" horiz-adv-x="1300" d="M1079 223Q1079 178 1092 151T1129 109T1182 91T1247 86H1253V0H928L901 166H891Q860 108 823 72T743 16T655 -12T559 -20Q478 -20 415 3T309 75T244 200T221 381V872Q221 917 208 944T171 987T118 1007T53 1012H47V1098H414V391Q414 324 424 272T459 184T525 130T629 111Q697 111 745 135T825 202T872 307T887 442V864Q887 912 874 941T838 986T785 1007T719 1012H713V1098H1079V223ZM707 1241V1268Q728 1301 752 1339T799 1417T844 1496T881 1569H1100V1548Q1089 1530 1070 1506T1025 1453T972 1396T914 1338T858 1285T807 1241H707ZM338 1241V1268Q359 1301 383 1339T430 1417T475 1496T512 1569H731V1548Q720 1530 701 1506T656 1453T603 1396T545 1338T489 1285T438 1241H338Z"  />
<glyph unicode="&#x172;" horiz-adv-x="1468" d="M741 -20Q620 -20 524 5T362 86T260 229T225 442V1237Q225 1282 212 1309T175 1352T122 1371T57 1376H31V1462H627V1376H600Q566 1376 535 1371T482 1351T446 1306T432 1229V430Q432 341 457 279T528 177T636 120T774 102Q863 102 927 126T1034 192T1097 293T1118 422V1237Q1118 1282 1105 1309T1068 1352T1015 1371T950 1376H924V1462H1438V1376H1411Q1377 1376 1346 1371T1293 1351T1257 1306T1243 1229V418Q1243 316 1211 235T1115 97T957 10T741 -20ZM559 -266Q559 -218 579 -175T633 -97T710 -36T801 0H918Q886 -10 852 -30T791 -79T745 -148T727 -236Q727 -270 737 -294T767 -334T812 -357T869 -365Q896 -365 928 -361T998 -348V-459Q982 -467 962 -473T919 -483T877 -489T840 -492Q775 -492 723 -479T635 -438T579 -368T559 -266Z"  />
<glyph unicode="&#x173;" horiz-adv-x="1300" d="M1079 223Q1079 178 1092 151T1129 109T1182 91T1247 86H1253V0H928L901 166H891Q860 108 823 72T743 16T655 -12T559 -20Q478 -20 415 3T309 75T244 200T221 381V872Q221 917 208 944T171 987T118 1007T53 1012H47V1098H414V391Q414 324 424 272T459 184T525 130T629 111Q697 111 745 135T825 202T872 307T887 442V864Q887 912 874 941T838 986T785 1007T719 1012H713V1098H1079V223ZM692 -266Q692 -218 712 -175T766 -97T843 -36T934 0H1051Q1019 -10 985 -30T924 -79T878 -148T860 -236Q860 -270 870 -294T900 -334T945 -357T1002 -365Q1029 -365 1061 -361T1131 -348V-459Q1115 -467 1095 -473T1052 -483T1010 -489T973 -492Q908 -492 856 -479T768 -438T712 -368T692 -266Z"  />
<glyph unicode="&#x174;" horiz-adv-x="2144" d="M1180 1448L1436 561Q1465 459 1487 366T1524 201Q1539 275 1558 356T1606 537L1786 1169Q1789 1181 1793 1196T1800 1226T1805 1254T1808 1276Q1808 1329 1775 1352T1673 1376H1626V1462H2126V1376H2087Q2057 1376 2035 1370T1994 1347T1961 1299T1931 1217L1585 0H1401L1067 1147L754 0H565L190 1268Q180 1300 168 1321T138 1354T98 1371T45 1376H18V1462H582V1376H535Q473 1376 443 1353T412 1278Q412 1261 417 1243T428 1202L616 547Q642 454 665 365T705 201Q720 281 740 375T788 569L1032 1448H1180ZM838 1606Q862 1635 891 1673T948 1751T1002 1832T1043 1907H1237Q1253 1873 1278 1833T1331 1752T1389 1673T1442 1606V1579H1362Q1303 1613 1244 1663T1139 1763Q1092 1714 1034 1664T918 1579H838V1606Z"  />
<glyph unicode="&#x175;" horiz-adv-x="1765" d="M975 1092L1180 485Q1192 448 1205 406T1231 322T1253 243T1268 180H1274Q1283 231 1303 305T1354 479L1456 809Q1464 835 1469 864T1475 911Q1475 964 1442 988T1339 1012H1325V1098H1763V1012H1737Q1707 1012 1685 1006T1646 983T1613 934T1583 852L1319 0H1155L911 721L874 856L584 0H422L154 903Q142 935 129 956T99 989T60 1007T8 1012H2V1098H508V1012H481Q420 1012 389 994T358 926Q358 909 363 885T375 838L471 494Q481 457 492 413T512 326T530 244T543 180H549Q554 206 562 240T582 314T607 395T633 473L846 1092H975ZM570 1268Q594 1297 623 1335T680 1413T734 1494T775 1569H969Q985 1535 1010 1495T1063 1414T1121 1335T1174 1268V1241H1094Q1035 1275 976 1325T871 1425Q824 1376 766 1326T650 1241H570V1268Z"  />
<glyph unicode="&#x176;" horiz-adv-x="1280" d="M326 0V86H373Q407 86 437 90T491 109T527 150T541 223V610L162 1268Q145 1297 130 1317T99 1351T62 1370T16 1376H-10V1462H553V1376H477Q449 1376 432 1371T404 1357T391 1336T387 1311Q387 1282 399 1253T424 1202L575 928Q611 865 636 804T678 694Q687 716 700 743T730 800T765 863T801 928L932 1163Q952 1198 960 1229T969 1286Q969 1331 937 1353T846 1376H786V1462H1286V1376H1262Q1240 1376 1221 1369T1181 1343T1140 1294T1092 1217L748 610V233Q748 185 761 156T797 112T850 91T915 86H963V0H326ZM342 1606Q366 1635 395 1673T452 1751T506 1832T547 1907H741Q757 1873 782 1833T835 1752T893 1673T946 1606V1579H866Q807 1613 748 1663T643 1763Q596 1714 538 1664T422 1579H342V1606Z"  />
<glyph unicode="&#x177;" horiz-adv-x="1157" d="M1157 1098V1012H1151Q1121 1012 1100 1006T1061 981T1028 932T995 852L684 -8Q648 -107 616 -182T549 -310T473 -399T378 -455T256 -484T96 -492H78V-395Q182 -395 257 -364T386 -279T477 -152T539 8L160 903Q146 935 133 955T104 989T66 1007T14 1012H8V1098H500V1012H494Q432 1012 402 988T371 913Q371 896 374 879T387 838L537 473Q551 438 566 397T595 315T620 238T635 176H641Q652 221 671 285T717 424L854 823Q863 848 867 871T872 911Q872 964 839 988T737 1012H731V1098H1157ZM303 1268Q327 1297 356 1335T413 1413T467 1494T508 1569H702Q718 1535 743 1495T796 1414T854 1335T907 1268V1241H827Q768 1275 709 1325T604 1425Q557 1376 499 1326T383 1241H303V1268Z"  />
<glyph unicode="&#x178;" horiz-adv-x="1280" d="M326 0V86H373Q407 86 437 90T491 109T527 150T541 223V610L162 1268Q145 1297 130 1317T99 1351T62 1370T16 1376H-10V1462H553V1376H477Q449 1376 432 1371T404 1357T391 1336T387 1311Q387 1282 399 1253T424 1202L575 928Q611 865 636 804T678 694Q687 716 700 743T730 800T765 863T801 928L932 1163Q952 1198 960 1229T969 1286Q969 1331 937 1353T846 1376H786V1462H1286V1376H1262Q1240 1376 1221 1369T1181 1343T1140 1294T1092 1217L748 610V233Q748 185 761 156T797 112T850 91T915 86H963V0H326ZM748 1747Q748 1779 756 1801T778 1836T811 1856T852 1862Q874 1862 893 1856T926 1837T949 1801T957 1747Q957 1716 949 1694T927 1658T893 1638T852 1632Q807 1632 778 1658T748 1747ZM359 1747Q359 1779 367 1801T389 1836T422 1856T463 1862Q485 1862 504 1856T537 1837T560 1801T568 1747Q568 1716 560 1694T538 1658T504 1638T463 1632Q418 1632 389 1658T359 1747Z"  />
<glyph unicode="&#x179;" horiz-adv-x="1212" d="M1094 1378L324 102H840Q886 102 917 115T967 152T996 205T1010 270L1020 358H1126L1116 0H74V82L842 1360H397Q352 1360 322 1347T272 1310T243 1257T229 1192L219 1104H113L123 1462H1094V1378ZM495 1606Q518 1635 542 1673T590 1751T635 1832T673 1907H892V1886Q873 1859 836 1819T754 1734T662 1649T573 1579H495V1606Z"  />
<glyph unicode="&#x17A;" horiz-adv-x="1047" d="M696 117Q732 117 755 131T794 168T819 221T836 285L846 332H932L922 0H86V82L680 981H360Q320 981 294 971T252 939T225 887T203 815L201 807H115L135 1098H920V1014L324 117H696ZM428 1268Q451 1297 475 1335T523 1413T568 1494T606 1569H825V1548Q806 1521 769 1481T687 1396T595 1311T506 1241H428V1268Z"  />
<glyph unicode="&#x17B;" horiz-adv-x="1212" d="M1094 1378L324 102H840Q886 102 917 115T967 152T996 205T1010 270L1020 358H1126L1116 0H74V82L842 1360H397Q352 1360 322 1347T272 1310T243 1257T229 1192L219 1104H113L123 1462H1094V1378ZM520 1768Q520 1804 529 1828T554 1867T591 1888T637 1894Q661 1894 682 1888T719 1867T744 1828T754 1768Q754 1732 745 1708T719 1669T682 1648T637 1641Q612 1641 591 1647T554 1669T529 1708T520 1768Z"  />
<glyph unicode="&#x17C;" horiz-adv-x="1047" d="M696 117Q732 117 755 131T794 168T819 221T836 285L846 332H932L922 0H86V82L680 981H360Q320 981 294 971T252 939T225 887T203 815L201 807H115L135 1098H920V1014L324 117H696ZM428 1430Q428 1466 437 1490T462 1529T499 1550T545 1556Q569 1556 590 1550T627 1529T652 1490T662 1430Q662 1394 653 1370T627 1331T590 1310T545 1303Q520 1303 499 1309T462 1331T437 1370T428 1430Z"  />
<glyph unicode="&#x17D;" horiz-adv-x="1212" d="M1094 1378L324 102H840Q886 102 917 115T967 152T996 205T1010 270L1020 358H1126L1116 0H74V82L842 1360H397Q352 1360 322 1347T272 1310T243 1257T229 1192L219 1104H113L123 1462H1094V1378ZM320 1907H400Q429 1889 458 1867T516 1821T571 1771T621 1720Q644 1745 670 1770T726 1820T785 1867T844 1907H924V1880Q900 1851 871 1813T814 1735T760 1654T719 1579H525Q509 1614 484 1654T431 1734T373 1813T320 1880V1907Z"  />
<glyph unicode="&#x17E;" horiz-adv-x="1047" d="M696 117Q732 117 755 131T794 168T819 221T836 285L846 332H932L922 0H86V82L680 981H360Q320 981 294 971T252 939T225 887T203 815L201 807H115L135 1098H920V1014L324 117H696ZM248 1569H328Q357 1551 386 1529T444 1483T499 1433T549 1382Q572 1407 598 1432T654 1482T713 1529T772 1569H852V1542Q828 1513 799 1475T742 1397T688 1316T647 1241H453Q437 1276 412 1316T359 1396T301 1475T248 1542V1569Z"  />
<glyph unicode="&#x192;" horiz-adv-x="1145" d="M911 815H643L481 -16Q454 -154 413 -245T315 -391T190 -469T37 -492Q23 -492 7 -491T-26 -488T-57 -483T-82 -477L-63 -381Q-56 -383 -45 -385T-21 -389T5 -393T31 -395Q81 -395 120 -375T190 -310T245 -193T289 -18L451 815H244L262 911H469L508 1116Q525 1204 556 1272T635 1387T748 1458T897 1483Q1028 1483 1094 1441T1161 1331Q1161 1263 1117 1231T991 1198Q991 1237 987 1272T972 1333T940 1374T887 1389Q811 1389 770 1327T705 1135L662 911H930L911 815Z"  />
<glyph unicode="&#x218;" horiz-adv-x="1114" d="M506 -20Q406 -20 330 1T202 59T124 150T98 268Q98 330 136 368T246 406Q249 342 265 283T315 179T399 107T522 80Q660 80 737 146T815 338Q815 394 799 437T746 516T649 586T498 657Q403 696 332 740T214 839T144 961T121 1112Q121 1200 154 1269T248 1385T390 1458T569 1483Q661 1483 732 1464T852 1413T926 1340T952 1253Q952 1187 909 1154T791 1120Q791 1168 780 1214T741 1297T670 1357T561 1380Q502 1380 456 1364T377 1317T328 1243T311 1147Q311 1086 327 1040T380 956T479 885T629 815Q719 778 789 737T909 646T984 533T1010 391Q1010 294 975 218T873 88T714 8T506 -20ZM418 -426Q435 -358 451 -279T480 -125H658V-145Q644 -177 624 -217T581 -299T533 -381T488 -453H418V-426Z"  />
<glyph unicode="&#x219;" horiz-adv-x="924" d="M430 -20Q353 -20 291 -7T184 34T116 102T92 197Q92 238 105 265T138 309T180 331T221 338Q221 284 232 237T269 155T337 99T442 78Q497 78 539 91T609 129T653 188T668 264Q668 302 657 329T617 381T539 430T416 487Q337 522 279 554T182 625T125 711T106 827Q106 897 133 951T212 1041T334 1097T492 1116Q565 1116 621 1101T715 1061T772 1001T791 928Q791 872 753 839T643 805Q643 908 601 965T467 1022Q415 1022 378 1010T318 976T283 924T272 858Q272 819 286 791T330 738T409 692T526 641Q607 607 665 574T760 502T816 414T834 301Q834 221 805 161T723 61T596 0T430 -20ZM321 -426Q338 -358 354 -279T383 -125H561V-145Q547 -177 527 -217T484 -299T436 -381T391 -453H321V-426Z"  />
<glyph unicode="&#x2C6;" horiz-adv-x="1182" d="M289 1268Q313 1297 342 1335T399 1413T453 1494T494 1569H688Q704 1535 729 1495T782 1414T840 1335T893 1268V1241H813Q754 1275 695 1325T590 1425Q543 1376 485 1326T369 1241H289V1268Z"  />
<glyph unicode="&#x2C7;" horiz-adv-x="1182" d="M289 1569H369Q398 1551 427 1529T485 1483T540 1433T590 1382Q613 1407 639 1432T695 1482T754 1529T813 1569H893V1542Q869 1513 840 1475T783 1397T729 1316T688 1241H494Q478 1276 453 1316T400 1396T342 1475T289 1542V1569Z"  />
<glyph unicode="&#x2C9;" horiz-adv-x="1024" d="M809 1241H215V1362H809V1241Z"  />
<glyph unicode="&#x2D8;" horiz-adv-x="1182" d="M590 1241Q517 1241 464 1263T375 1324T323 1413T303 1522H397Q414 1447 464 1415T590 1382Q665 1382 715 1414T782 1522H877Q875 1464 858 1413T805 1324T716 1264T590 1241Z"  />
<glyph unicode="&#x2D9;" horiz-adv-x="666" d="M223 1430Q223 1466 232 1490T257 1529T294 1550T340 1556Q364 1556 385 1550T422 1529T447 1490T457 1430Q457 1394 448 1370T422 1331T385 1310T340 1303Q315 1303 294 1309T257 1331T232 1370T223 1430Z"  />
<glyph unicode="&#x2DA;" horiz-adv-x="682" d="M475 1444Q475 1477 465 1500T436 1538T393 1560T340 1567Q312 1567 288 1560T245 1539T216 1501T205 1444Q205 1411 215 1388T244 1350T287 1328T340 1321Q368 1321 392 1328T435 1349T464 1387T475 1444ZM586 1444Q586 1389 567 1348T515 1278T436 1236T340 1221Q289 1221 244 1235T166 1278T113 1347T94 1444Q94 1498 113 1540T165 1610T244 1652T340 1667Q391 1667 436 1653T514 1610T567 1540T586 1444Z"  />
<glyph unicode="&#x2DB;" horiz-adv-x="1024" d="M352 -266Q352 -218 372 -175T426 -97T503 -36T594 0H711Q679 -10 645 -30T584 -79T538 -148T520 -236Q520 -270 530 -294T560 -334T605 -357T662 -365Q689 -365 721 -361T791 -348V-459Q775 -467 755 -473T712 -483T670 -489T633 -492Q568 -492 516 -479T428 -438T372 -368T352 -266Z"  />
<glyph unicode="&#x2DC;" horiz-adv-x="1182" d="M762 1374Q792 1374 810 1383T839 1407T854 1442T862 1483H954Q951 1436 938 1393T898 1315T833 1261T739 1241Q684 1241 640 1261T557 1305T485 1350T418 1370Q387 1370 369 1361T341 1337T325 1303T317 1262H225Q228 1309 241 1352T281 1429T347 1483T442 1503Q497 1503 541 1483T624 1439T696 1394T762 1374Z"  />
<glyph unicode="&#x2DD;" horiz-adv-x="1182" d="M578 1241V1268Q599 1301 623 1339T670 1417T715 1496T752 1569H971V1548Q960 1530 941 1506T896 1453T843 1396T785 1338T729 1285T678 1241H578ZM209 1241V1268Q230 1301 254 1339T301 1417T346 1496T383 1569H602V1548Q591 1530 572 1506T527 1453T474 1396T416 1338T360 1285T309 1241H209Z"  />
<glyph unicode="&#x394;" horiz-adv-x="1245" d="M954 137L690 940Q659 1031 632 1115T588 1274Q572 1201 550 1127T494 958L205 137H954ZM1182 0H63V109L543 1462H721L1182 123V0Z"  />
<glyph unicode="&#x3A9;" horiz-adv-x="1542" d="M127 897Q127 1030 167 1138T287 1324T489 1443T774 1485Q929 1485 1048 1443T1249 1324T1373 1139T1415 897Q1415 671 1296 530T950 344L946 164H1141Q1189 164 1223 171T1279 193T1315 233T1335 291L1350 358H1456L1442 0H834L848 428Q941 438 1006 474T1111 571T1170 713T1188 899Q1188 1012 1166 1100T1095 1249T967 1342T774 1374Q660 1374 580 1342T450 1250T377 1101T354 899Q354 796 372 714T431 571T536 475T694 428L709 0H100L86 358H193L207 291Q214 257 227 233T262 194T319 171T401 164H596L592 344Q365 389 246 530T127 897Z"  />
<glyph unicode="&#x3BC;" horiz-adv-x="1260" d="M569 -20Q483 -20 422 11T319 100Q321 15 326 -57T347 -183T396 -270T485 -313Q485 -352 477 -384T451 -441T406 -478T342 -492Q310 -492 280 -480T227 -440T190 -364T176 -248Q176 -187 179 -117T187 39T195 229T201 461V1098H393V410Q393 343 403 288T436 194T499 133T598 111Q655 111 701 135T779 202T828 307T846 442V1098H1038V264Q1038 219 1050 186T1080 130T1122 97T1167 86H1174V0H1063Q979 0 931 41T864 164H856Q832 123 805 89T743 31T666 -6T569 -20Z"  />
<glyph unicode="&#x3C0;" horiz-adv-x="1290" d="M1206 928H979Q976 795 973 671Q972 618 971 562T969 453T968 351T967 266Q967 214 977 183T1005 136T1044 114T1087 109Q1110 109 1129 114T1169 125V31Q1145 11 1103 -2T1014 -16Q969 -16 932 -2T869 41T829 116T815 227Q815 264 817 314T822 421T829 537T838 653Q849 785 862 928H471L444 348Q440 259 425 194T378 85T296 21T174 0H88V86Q128 86 161 100T221 150T266 246T295 397L354 928H276Q217 928 188 892T152 799H66Q66 860 78 914T117 1009T187 1074T293 1098H1206V928Z"  />
<glyph unicode="&#x2013;" horiz-adv-x="1024" d="M1034 489H-10V610H1034V489Z"  />
<glyph unicode="&#x2014;" horiz-adv-x="2048" d="M2058 489H-10V610H2058V489Z"  />
<glyph unicode="&#x2018;" horiz-adv-x="512" d="M115 1063Q115 1128 133 1189T191 1302T296 1395T451 1464V1378Q350 1346 303 1300T256 1194Q256 1174 267 1161T295 1137T331 1116T367 1092T395 1058T406 1006Q406 947 368 916T272 885Q241 885 213 896T162 930T128 986T115 1063Z"  />
<glyph unicode="&#x2019;" horiz-adv-x="512" d="M397 1284Q397 1219 379 1158T321 1045T217 952T61 883V969Q162 1001 209 1047T256 1153Q256 1173 245 1186T217 1210T181 1231T145 1255T117 1289T106 1341Q106 1400 144 1431T240 1462Q272 1462 300 1451T350 1417T384 1361T397 1284Z"  />
<glyph unicode="&#x201A;" horiz-adv-x="512" d="M397 86Q397 21 379 -40T321 -153T217 -246T61 -315V-229Q162 -197 209 -151T256 -45Q256 -25 245 -12T217 12T181 33T145 57T117 91T106 143Q106 202 144 233T240 264Q272 264 300 253T350 219T384 163T397 86Z"  />
<glyph unicode="&#x201C;" horiz-adv-x="922" d="M115 1063Q115 1128 133 1189T191 1302T296 1395T451 1464V1378Q350 1346 303 1300T256 1194Q256 1174 267 1161T295 1137T331 1116T367 1092T395 1058T406 1006Q406 947 368 916T272 885Q241 885 213 896T162 930T128 986T115 1063ZM524 1063Q524 1128 542 1189T600 1302T705 1395T860 1464V1378Q760 1346 713 1300T666 1194Q666 1174 677 1161T704 1137T740 1116T776 1092T804 1058T815 1006Q815 947 777 916T682 885Q651 885 622 896T572 930T537 986T524 1063Z"  />
<glyph unicode="&#x201D;" horiz-adv-x="922" d="M807 1284Q807 1219 789 1158T731 1045T627 952T471 883V969Q571 1001 618 1047T666 1153Q666 1173 655 1186T627 1210T591 1231T555 1255T527 1289T516 1341Q516 1400 554 1431T649 1462Q681 1462 709 1451T759 1417T794 1361T807 1284ZM397 1284Q397 1219 379 1158T321 1045T217 952T61 883V969Q162 1001 209 1047T256 1153Q256 1173 245 1186T217 1210T181 1231T145 1255T117 1289T106 1341Q106 1400 144 1431T240 1462Q272 1462 300 1451T350 1417T384 1361T397 1284Z"  />
<glyph unicode="&#x201E;" horiz-adv-x="922" d="M807 86Q807 21 789 -40T731 -153T627 -246T471 -315V-229Q571 -197 618 -151T666 -45Q666 -25 655 -12T627 12T591 33T555 57T527 91T516 143Q516 202 554 233T649 264Q681 264 709 253T759 219T794 163T807 86ZM397 86Q397 21 379 -40T321 -153T217 -246T61 -315V-229Q162 -197 209 -151T256 -45Q256 -25 245 -12T217 12T181 33T145 57T117 91T106 143Q106 202 144 233T240 264Q272 264 300 253T350 219T384 163T397 86Z"  />
<glyph unicode="&#x2020;" horiz-adv-x="918" d="M580 772Q559 646 541 489Q526 355 514 173T502 -227H416Q416 -11 405 171T379 487Q362 644 342 772L416 1004L72 946V1122L416 1069L362 1556H559L502 1069L846 1122V946L502 1004L580 772Z"  />
<glyph unicode="&#x2021;" horiz-adv-x="918" d="M502 223L846 281V104L502 158L559 -227H362L416 158L72 104V281L416 223L342 455Q361 469 379 497Q394 521 408 562T430 670Q422 737 408 777T379 839Q361 865 342 874L416 1106L72 1049V1225L416 1171L362 1556H559L502 1171L846 1225V1049L502 1106L580 874Q560 862 542 836Q527 813 512 774T487 668Q496 599 511 558T542 493Q560 467 580 455L502 223Z"  />
<glyph unicode="&#x2022;" horiz-adv-x="741" d="M100 729Q100 813 120 870T177 961T263 1011T371 1026Q427 1026 476 1011T562 962T620 870T641 729Q641 645 620 589T562 497T476 447T371 432Q313 432 263 447T177 497T121 588T100 729Z"  />
<glyph unicode="&#x2026;" horiz-adv-x="1757" d="M1335 125Q1335 165 1345 191T1372 234T1413 257T1464 264Q1490 264 1513 257T1554 234T1582 192T1593 125Q1593 86 1583 59T1555 16T1514 -7T1464 -14Q1437 -14 1414 -7T1373 16T1345 59T1335 125ZM750 125Q750 165 760 191T787 234T828 257T879 264Q905 264 928 257T969 234T997 192T1008 125Q1008 86 998 59T970 16T929 -7T879 -14Q852 -14 829 -7T788 16T760 59T750 125ZM164 125Q164 165 174 191T201 234T242 257T293 264Q319 264 342 257T383 234T411 192T422 125Q422 86 412 59T384 16T343 -7T293 -14Q266 -14 243 -7T202 16T174 59T164 125Z"  />
<glyph unicode="&#x2030;" horiz-adv-x="2644" d="M2064 436Q2064 348 2072 279T2098 161T2145 88T2216 63Q2258 63 2287 88T2333 161T2357 278T2365 436Q2365 523 2358 591T2333 706T2288 778T2218 803Q2176 803 2147 779T2099 707T2072 591T2064 436ZM2552 436Q2552 333 2531 249T2468 105T2363 13T2216 -20Q2128 -20 2064 12T1960 105T1900 249T1880 436Q1880 539 1899 622T1960 765T2065 857T2218 889Q2302 889 2364 857T2468 766T2531 623T2552 436ZM616 0H481L1212 1462H1346L616 0ZM1255 436Q1255 348 1263 279T1289 161T1336 88T1407 63Q1449 63 1478 88T1524 161T1548 278T1556 436Q1556 523 1549 591T1524 706T1479 778T1409 803Q1367 803 1338 779T1290 707T1263 591T1255 436ZM1743 436Q1743 333 1722 249T1659 105T1554 13T1407 -20Q1319 -20 1255 12T1151 105T1091 249T1071 436Q1071 539 1090 622T1151 765T1256 857T1409 889Q1493 889 1555 857T1659 766T1722 623T1743 436ZM276 1030Q276 942 284 873T310 755T357 682T428 657Q470 657 499 682T545 755T570 872T578 1030Q578 1117 571 1185T546 1300T500 1372T430 1397Q388 1397 359 1373T311 1301T284 1185T276 1030ZM764 1030Q764 927 743 843T680 699T575 606T428 573Q340 573 277 606T172 699T112 843T92 1030Q92 1133 111 1216T172 1359T277 1451T430 1483Q514 1483 576 1451T680 1360T743 1217T764 1030Z"  />
<glyph unicode="&#x2039;" horiz-adv-x="682" d="M133 586L446 942H549L342 553L549 164H446L133 520V586Z"  />
<glyph unicode="&#x203A;" horiz-adv-x="682" d="M551 520L238 164H135L342 553L135 942H238L551 586V520Z"  />
<glyph unicode="&#x2044;" horiz-adv-x="127" d="M-233 0H-369L362 1462H496L-233 0Z"  />
<glyph unicode="&#x20AC;" horiz-adv-x="1145" d="M776 100Q828 100 868 110T940 137T994 176T1036 223Q1049 215 1061 200T1073 154Q1073 127 1055 97T998 40T902 -3T764 -20Q668 -20 580 10T421 108T301 284T233 547H84V643H225Q223 666 222 693T221 741V786H84V883H229Q243 1054 288 1168T402 1352T557 1450T739 1479Q817 1479 880 1464T989 1421T1060 1355T1085 1272Q1085 1201 1040 1172T907 1143Q907 1191 897 1234T865 1309T808 1359T721 1378Q668 1378 619 1355T531 1275T464 1123T426 883H856V786H422V737Q422 716 422 689T424 643H774V547H432Q445 438 474 355T548 215T649 129T776 100Z"  />
<glyph unicode="&#x2113;" horiz-adv-x="1024" d="M743 1171Q743 1224 734 1267T707 1341T665 1388T608 1405Q570 1405 546 1387T509 1337T490 1262T485 1167V700Q547 733 595 776T676 876T726 1005T743 1171ZM643 86Q678 86 707 98T760 139T799 211T825 319H905Q893 235 870 172T810 65T723 -1T604 -23Q534 -23 479 -1T384 65T324 174T303 324V516Q252 498 199 483T92 453V543Q149 558 201 574T303 608V1171Q303 1329 371 1415T590 1501Q714 1501 781 1415T848 1169Q848 1060 821 973T745 816T630 693T485 598V330Q485 277 494 232T523 155T573 104T643 86Z"  />
<glyph unicode="&#x2122;" horiz-adv-x="1710" d="M422 872Q422 851 428 839T445 820T470 811T500 809H532V754H184V809H219Q234 809 248 811T272 819T289 836T295 866V1397H205Q183 1396 168 1391T144 1375T130 1353T123 1325L115 1276H55L61 1462H659L666 1276H606L598 1325Q594 1354 577 1375T516 1397H422V872ZM1321 754V809Q1356 809 1377 819T1401 864V1321L1169 754H1098L866 1323V872Q866 831 887 820T948 809V754H700V809H721Q752 809 775 819T801 866V1348Q800 1367 794 1378T776 1396T751 1403T721 1405H700V1462H936L1161 895L1393 1462H1624V1405H1602Q1585 1405 1571 1403T1546 1395T1530 1377T1524 1343V872Q1524 851 1529 839T1545 820T1570 811T1602 809H1624V754H1321Z"  />
<glyph unicode="&#x2126;" horiz-adv-x="1542" d="M127 897Q127 1030 167 1138T287 1324T489 1443T774 1485Q929 1485 1048 1443T1249 1324T1373 1139T1415 897Q1415 671 1296 530T950 344L946 164H1141Q1189 164 1223 171T1279 193T1315 233T1335 291L1350 358H1456L1442 0H834L848 428Q941 438 1006 474T1111 571T1170 713T1188 899Q1188 1012 1166 1100T1095 1249T967 1342T774 1374Q660 1374 580 1342T450 1250T377 1101T354 899Q354 796 372 714T431 571T536 475T694 428L709 0H100L86 358H193L207 291Q214 257 227 233T262 194T319 171T401 164H596L592 344Q365 389 246 530T127 897Z"  />
<glyph unicode="&#x212E;" horiz-adv-x="1268" d="M932 616V893Q913 913 884 934T816 972T731 1001T631 1012Q580 1012 537 1003T457 977T390 939T336 895V616H932ZM633 -35Q503 -35 404 12T238 137T137 318T102 530Q102 629 124 709T184 852T273 961T383 1037T506 1081T633 1096Q746 1096 843 1057T1011 944T1122 766T1163 530H336V174Q358 150 390 128T460 89T543 62T633 51Q707 51 765 67T870 113T955 186T1028 285L1100 244Q1064 187 1023 137T926 48T800 -13T633 -35Z"  />
<glyph unicode="&#x2202;" horiz-adv-x="1020" d="M457 90Q522 90 579 136T682 259T758 435T801 643Q793 685 775 722T730 786T670 828T598 844Q541 844 495 819T413 751T351 654T308 541T282 424T274 317Q274 213 319 152T457 90ZM555 1370Q501 1370 463 1354T400 1311T364 1249T352 1176Q284 1176 248 1201T211 1284Q211 1327 230 1363T287 1426T380 1468T508 1483Q611 1483 690 1444T824 1334T906 1161T934 934Q934 829 924 727T891 528Q861 400 815 298T705 126T564 18T393 -20Q303 -20 241 10T141 90T87 207T70 344Q70 400 82 466T119 600T183 729T278 840T405 917T567 946Q652 946 716 911T821 805H829Q830 813 830 825T831 851T831 878T831 901Q831 1002 812 1087T758 1236T671 1334T555 1370Z"  />
<glyph unicode="&#x2206;" horiz-adv-x="1245" d="M954 137L690 940Q659 1031 632 1115T588 1274Q572 1201 550 1127T494 958L205 137H954ZM1182 0H63V109L543 1462H721L1182 123V0Z"  />
<glyph unicode="&#x220F;" horiz-adv-x="1624" d="M1546 1462V1376H1520Q1485 1376 1455 1371T1401 1351T1365 1306T1352 1229V-268Q1354 -313 1367 -340T1403 -382T1456 -401T1520 -406H1546V-492H950V-406H977Q1012 -406 1042 -401T1095 -381T1131 -336T1145 -258V1360H479V-258Q479 -306 492 -335T528 -380T582 -401T647 -406H674V-492H78V-406H104Q139 -406 169 -401T223 -381T259 -336T272 -258V1237Q271 1282 257 1309T221 1352T168 1371T104 1376H78V1462H1546Z"  />
<glyph unicode="&#x2211;" horiz-adv-x="1415" d="M1022 -303Q1070 -303 1104 -289T1160 -248T1196 -187T1214 -109L1223 -47H1329L1319 -492H80V-393L649 467L125 1382V1462H1229L1239 1104H1133L1122 1192Q1118 1226 1107 1256T1075 1308T1021 1344T942 1358H373L819 588V514L281 -303H1022Z"  />
<glyph unicode="&#x2212;" horiz-adv-x="1145" d="M1012 672H133V793H1012V672Z"  />
<glyph unicode="&#x221A;" horiz-adv-x="1071" d="M647 -14H524L233 803H66V903H350L600 193L1053 1677H1163L647 -14Z"  />
<glyph unicode="&#x221E;" horiz-adv-x="1448" d="M389 330Q463 330 527 396T651 598Q596 731 533 798T385 866Q340 866 303 845T240 787T200 701T186 596Q186 542 198 494T236 410T299 352T389 330ZM1059 860Q982 860 921 794T797 592Q854 458 915 391T1061 324Q1108 324 1145 345T1209 402T1250 488T1264 594Q1264 650 1250 698T1208 783T1143 839T1059 860ZM1376 592Q1376 512 1353 441T1289 317T1189 232T1059 201Q964 201 875 259T711 451Q648 330 566 269T393 207Q323 207 264 234T162 312T96 435T72 598Q72 680 95 751T160 875T261 958T393 989Q440 989 486 976T577 933T662 857T737 745Q800 864 879 923T1061 983Q1131 983 1189 955T1288 876T1353 753T1376 592Z"  />
<glyph unicode="&#x222B;" horiz-adv-x="1104" d="M270 -492Q149 -492 95 -454T41 -348Q41 -292 78 -263T190 -233Q190 -264 192 -293T205 -346T238 -383T299 -397Q371 -397 408 -323T446 -98Q446 -41 446 29T444 177T443 338T442 506Q442 557 442 617T444 739T447 862T449 976T452 1072T455 1141Q461 1235 487 1313T558 1447T666 1535T809 1567Q931 1567 991 1529T1051 1423Q1051 1368 1013 1339T901 1309Q901 1340 899 1369T887 1422T854 1459T793 1473Q645 1473 645 1174Q645 1134 645 1079T646 962T647 837T648 716T648 613T649 541Q649 499 649 443T647 326T645 203T642 88T640 -6T637 -66Q631 -159 603 -237T528 -372T415 -460T270 -492Z"  />
<glyph unicode="&#x2248;" horiz-adv-x="1149" d="M776 334Q746 334 714 346T651 378T591 419T539 463Q516 484 494 503T451 538T407 562T362 571Q302 571 273 513T233 334H113Q119 398 131 462T172 577T247 660T371 692Q405 692 439 679T505 646T565 602T618 557Q640 537 661 519T702 486T744 464T786 455Q843 455 870 516T911 692H1034Q1027 628 1013 564T971 449T896 366T776 334ZM776 770Q746 770 714 782T651 814T591 855T539 899Q516 920 494 940T451 975T407 999T362 1008Q302 1008 273 950T233 770H113Q119 834 131 898T172 1013T247 1096T371 1128Q405 1128 439 1115T505 1082T565 1039T618 993Q640 973 661 955T702 922T744 900T786 891Q843 891 870 952T911 1128H1034Q1027 1064 1013 1000T971 885T896 802T776 770Z"  />
<glyph unicode="&#x2260;" horiz-adv-x="1145" d="M580 993L637 1212H756L698 993H1012V872H668L594 590H1012V469H563L508 250H387L444 469H133V590H475L549 872H133V993H580Z"  />
<glyph unicode="&#x2264;" horiz-adv-x="1145" d="M1012 0H133V121H1012V0ZM133 696V768L1012 1241V1104L324 731L1012 362V225L133 696Z"  />
<glyph unicode="&#x2265;" horiz-adv-x="1145" d="M1012 0H133V121H1012V0ZM133 225V362L821 731L133 1104V1241L1012 768V696L133 225Z"  />
<glyph unicode="&#x25CA;" horiz-adv-x="1122" d="M563 1309L209 731L563 147L913 731L563 1309ZM602 0H520L61 729L520 1462H602L1061 731L602 0Z"  />
<glyph unicode="&#xFB01;" horiz-adv-x="1358" d="M776 86Q810 86 840 90T894 109T930 150T944 223V1001H442V233Q442 185 455 156T491 112T545 91T610 86H647V0H55V86H82Q117 86 147 91T200 111T236 156T250 233V1001H63V1098H250V1159Q250 1254 279 1332T368 1467T521 1555T739 1587Q930 1587 1026 1541T1122 1417Q1122 1387 1109 1362T1071 1320T1012 1292T936 1282Q936 1313 925 1349T888 1418T818 1471T705 1493Q626 1493 575 1465T495 1390T454 1283T442 1157V1098H1137V233Q1137 185 1150 156T1186 112T1239 91T1305 86H1331V0H770V86H776Z"  />
<glyph unicode="&#xFB02;" horiz-adv-x="1378" d="M774 86Q809 86 839 91T892 111T928 156T942 233V1274Q942 1317 929 1355T887 1421T813 1466T705 1483Q626 1483 575 1457T495 1385T454 1281T442 1157V1098H756V1001H442V233Q442 185 455 156T491 112T545 91T610 86H647V0H55V86H82Q117 86 147 91T200 111T236 156T250 233V1001H63V1098H250V1159Q250 1254 279 1331T368 1462T521 1547T739 1577Q764 1577 792 1575T846 1569T895 1563T930 1556H1135V233Q1135 185 1148 156T1184 112T1237 91T1303 86H1329V0H768V86H774Z"  />

</font>
</defs>
</svg>
