<?xml  version="1.0" encoding="UTF-8"?>
<!DOCTYPE svg PUBLIC "-//W3C//DTD SVG 1.0//EN" "http://www.w3.org/TR/2001/REC-SVG-20010904/DTD/svg10.dtd" >
<svg xmlns="http://www.w3.org/2000/svg" >
<metadata>
<version>1.0</version>
<id><![CDATA[Courier PS W02]]></id>
<vendor>Monotype Imaging Inc.</vendor>
<credits>
<name>Fonts.com WebFonts</name>
<URL>http://webfonts.fonts.com</URL>
<role>Home of the Web fonts</role>
</credits>
<license>
<URL>http://webfonts.fonts.com/Legal</URL>
</license>
<copyright></copyright>
<trademark><![CDATA[Courier is a trademark of The Monotype Corporation in the United States and/or other countries.]]></trademark>
<licensee>
<name></name>
</licensee>
</metadata>
<defs >
<font horiz-adv-x="600" id="f6d0e775-b2fc-4bc8-8967-cd78486d451c">
<font-face font-family="" panose-1="2 7 5 9 2 2 5 2 4 4" ascent="797" descent="-191" units-per-em="1000" alphabetic="0">
</font-face>
<missing-glyph horiz-adv-x="0" />

<glyph unicode="&#xA;" />
<glyph unicode="&#xD;" horiz-adv-x="0" />
<glyph unicode=" " />
<glyph unicode="!" d="M323 240Q322 212 302 212Q284 212 281 240L263 571L262 588Q262 605 273 616T302 627Q319 627 330 616T342 588L341 571L323 240ZM312 87Q333 87 348 72T363 36Q363 15 348 0T312 -15H293Q272 -15 257 0T242 36Q242 57 256 72T293 87H312Z"  />
<glyph unicode="&quot;" d="M262 602L227 365Q223 331 197 331Q172 331 166 365L132 602H262ZM471 602L437 365Q431 331 406 331Q380 331 376 365L341 602H471Z"  />
<glyph unicode="#" d="M384 233H462Q490 233 490 212Q490 191 462 191H381L365 -37V-42Q364 -52 358 -58T343 -63Q336 -65 330 -58T324 -41V-34L340 191H248L232 -37L231 -42Q230 -52 224 -58T209 -63Q202 -65 196 -58T190 -41L191 -34L206 191H121Q94 191 94 212Q94 233 121 233H209L218 361H142Q114 361 114 382Q114 403 142 403L221 402L237 631Q238 639 239 642T242 649Q245 653 250 655T260 657Q267 658 273 651T279 635L278 628L262 402H355L371 631Q372 645 376 649Q379 653 384 655T393 657Q400 658 406 651T412 635V628L396 402H483Q510 402 510 382Q510 361 483 361H393L384 233ZM259 361L250 233H343L352 361H259Z"  />
<glyph unicode="$" d="M280 637Q280 664 301 664Q322 664 322 637V585Q339 583 352 581T377 575T400 564T427 547Q428 571 448 571Q468 571 468 544V483Q468 455 448 455Q430 455 427 478Q425 491 414 503T386 525T347 540T302 546Q276 546 253 538T213 515T185 482T175 441Q175 421 184 404T211 376Q219 371 227 368T247 361T274 355T313 347Q340 342 359 338T393 328T419 318T440 305Q490 271 490 204Q490 143 445 103T322 55V-66Q322 -93 301 -93Q280 -93 280 -66V55Q206 60 154 104V93Q154 66 134 66Q113 66 113 93V173Q113 201 134 201Q153 201 154 175Q155 159 168 145T201 119T247 102T301 95Q366 95 407 125T449 204Q449 227 439 246T410 276Q401 281 393 285T373 292T345 299T303 308Q254 317 228 325T182 347Q160 362 147 387T134 441Q134 469 145 493T175 537T221 568T280 585V637Z"  />
<glyph unicode="%" d="M364 496Q364 470 354 447T327 406T288 379T239 369Q213 369 191 379T151 406T124 446T114 496Q114 522 124 545T151 585T190 613T239 623Q265 623 288 613T328 586T354 545T364 496ZM335 496Q335 537 307 565T239 593Q199 593 172 565T144 496Q144 455 171 427T239 399Q279 399 307 427T335 496ZM491 115Q491 89 481 66T454 25T414 -2T365 -12Q339 -12 317 -2T277 25T250 65T240 115Q240 141 250 164T277 204T316 232T365 242Q391 242 414 232T454 205T481 164T491 115ZM461 115Q461 156 434 184T365 212Q325 212 298 184T270 115Q270 95 277 77T298 46T328 26T365 18Q405 18 433 46T461 115ZM117 231L107 228Q102 228 98 233T93 243Q93 254 108 259L488 382L499 384Q504 384 508 380T512 370Q512 359 497 354L117 231Z"  />
<glyph unicode="&amp;" d="M387 48Q342 -16 274 -16Q244 -16 217 -3T170 31T138 82T126 144Q126 197 156 236T239 291Q222 318 212 335T197 364T191 385T189 405Q189 430 199 452T225 490T264 516T313 526Q331 526 346 522T379 507L390 512Q402 517 406 517Q414 517 420 511T426 496Q426 489 423 485T409 475L377 458Q347 485 314 485Q297 485 282 478T256 460T237 435T230 404Q230 387 239 365T274 303L387 123Q403 153 414 183T434 252H474Q501 252 501 232Q501 211 474 211H465L462 202Q451 163 439 135T411 83L439 41H474Q501 41 501 21Q501 0 474 0H418L387 48ZM257 255Q215 245 192 216T168 143Q168 119 176 98T199 61T232 35T273 25Q327 25 363 87L257 255Z"  />
<glyph unicode="&apos;" d="M367 613L333 356Q327 320 302 320Q276 320 272 356L237 613H367Z"  />
<glyph unicode="(" d="M297 243Q297 286 306 335T331 425Q337 441 346 461T365 503T387 544T407 578Q421 599 427 606T442 613Q450 613 456 607T462 593Q462 590 462 588T459 582Q433 534 414 491T383 406T365 324T359 243Q359 202 365 162T383 81T414 -4T459 -96Q462 -100 462 -107Q462 -115 456 -121T442 -127Q433 -127 425 -117T399 -79Q389 -62 375 -33T347 22Q332 56 323 83T308 143Q303 172 300 197T297 243Z"  />
<glyph unicode=")" d="M314 243Q314 200 305 151T280 61Q274 45 265 25T246 -17T224 -58T204 -92Q190 -113 184 -120T170 -127Q161 -127 155 -121T149 -107Q149 -102 152 -96Q178 -48 197 -5T228 80T246 162T252 243Q252 284 246 324T228 405T197 490T152 582Q149 589 149 593Q149 601 155 607T169 613Q178 613 186 603T212 565Q222 548 237 519T264 464Q280 430 288 403T303 343Q308 314 311 289T314 243Z"  />
<glyph unicode="*" d="M280 585Q280 613 300 613Q321 613 321 585V445L454 488Q464 491 469 491Q477 491 482 485T488 471Q488 462 484 458T467 449L334 406L416 292Q421 285 422 282T424 274Q424 254 403 254Q396 254 393 256T383 268L300 381L218 268Q212 260 208 257T197 254Q177 255 176 275Q177 280 178 282T184 292L267 406L133 449Q113 456 113 471Q113 479 118 485T132 491Q135 491 137 491T146 488L280 445V585Z"  />
<glyph unicode="+" d="M323 60Q323 33 302 33Q281 33 281 60V265H100Q72 265 72 286Q72 306 100 306H281V510Q281 538 302 538Q323 538 323 510V306H504Q532 306 532 286Q532 265 504 265H323V60Z"  />
<glyph unicode="&#x2c;" d="M354 147L209 -122Q201 -136 195 -141T178 -147Q165 -147 157 -139T148 -118L150 -106L221 147H354Z"  />
<glyph unicode="-" d="M511 253H93V312H511V253Z"  />
<glyph unicode="." d="M311 118Q339 118 358 99T377 52Q377 24 358 5T311 -15H293Q266 -15 247 4T227 52Q227 79 246 98T293 118H311Z"  />
<glyph unicode="/" d="M157 -64Q152 -75 148 -78T135 -82Q127 -82 121 -76T115 -62Q115 -56 119 -47L449 660Q454 671 458 674T471 678Q479 678 485 672T491 658Q491 652 487 643L157 -64Z"  />
<glyph unicode="0" d="M490 255Q490 195 477 146T438 60T379 5T302 -15Q260 -15 226 4T166 60T128 145T114 255V357Q114 417 127 467T166 552T225 607T302 627Q344 627 378 608T438 553T476 467T490 357V255ZM449 351Q449 401 436 449T400 533Q366 586 302 586Q238 586 204 533Q181 497 168 449T155 351V261Q155 212 168 164T204 80Q221 54 246 41T302 27Q333 27 358 40T400 80Q423 116 436 164T449 261V351Z"  />
<glyph unicode="1" d="M323 41H463Q491 41 491 21Q491 0 463 0H141Q113 0 113 21Q113 41 141 41H281V565L148 523Q139 519 133 519Q125 519 120 525T114 540Q114 555 135 562L323 621V41Z"  />
<glyph unicode="2" d="M441 41V57Q441 85 461 85Q482 85 482 57V0H86V61L111 84Q140 110 174 142T243 207T311 272T371 331Q407 368 423 397T440 452Q440 479 429 503T397 546T351 575T295 586Q269 586 245 578T201 556T167 522T146 479Q140 459 125 459Q117 459 111 464T105 478Q105 491 114 511T137 550Q166 587 207 607T295 627Q332 627 366 613T425 575T466 520T482 454Q482 423 471 398T432 339Q427 333 421 327T407 312T388 291T359 263Q336 240 311 216T261 168Q236 144 218 127T185 97T156 71T125 44V41H441Z"  />
<glyph unicode="3" d="M310 359Q337 359 360 367T401 391T429 426T439 470Q439 495 429 516T400 552T357 577T304 586Q262 586 226 572T168 532Q160 523 157 521T147 518Q139 518 133 523T127 537Q127 545 136 557T162 581Q192 604 228 615T304 627Q341 627 373 615T430 582T467 532T481 470Q481 425 457 390T387 334Q441 309 472 266T503 172Q503 133 487 99T442 40T375 0T293 -15Q219 -15 144 27Q118 41 108 50T97 70Q97 78 102 84T116 90Q124 90 134 83Q209 27 294 27Q328 27 358 38T412 69T448 115T462 171Q462 201 448 227T408 274T350 306T280 318Q253 318 253 338Q253 359 278 359H310Z"  />
<glyph unicode="4" d="M107 171V219L335 613H420V213H454Q482 213 482 192Q482 171 454 171H420V41H454Q482 41 482 21Q482 0 454 0H302Q274 0 274 21Q274 41 302 41H379V171H107ZM379 571H357L149 213H379V571Z"  />
<glyph unicode="5" d="M189 371Q228 388 258 394T321 401Q361 401 394 387T451 346T488 283T502 204Q502 156 487 116T444 47T380 2T297 -15Q219 -15 145 35Q119 52 109 63T98 83Q98 92 103 98T117 104Q126 104 135 95Q171 61 212 44T295 27Q332 27 362 40T415 76T449 133T461 206Q461 240 451 268T421 317T376 348T317 360Q254 360 189 326Q180 321 176 320T167 318Q148 318 148 341V613H434Q461 613 461 592Q461 571 434 571H189V371Z"  />
<glyph unicode="6" d="M476 577Q459 586 429 586Q371 586 316 553T222 462Q178 397 177 310L179 259H181Q219 316 259 342T348 369Q382 369 412 354T465 313T501 253T515 180Q515 139 502 104T465 42T409 0T341 -15Q293 -15 252 10T188 77Q163 122 150 182T136 306Q136 372 159 430T223 532T317 601T433 627Q450 627 466 624T496 614Q513 604 513 591Q513 572 494 572Q492 572 488 572T481 575L476 577ZM189 191Q224 27 342 27Q370 27 394 38T436 70T464 119T474 180Q474 210 464 237T437 284T396 316T346 328Q293 328 245 278Q231 264 220 246T189 191Z"  />
<glyph unicode="7" d="M440 571H147V535Q147 508 126 508Q105 508 105 535V613H482V547L317 20L315 16Q310 -1 295 -1Q287 -1 281 5T275 19L276 28L278 32L440 553V571Z"  />
<glyph unicode="8" d="M386 318Q437 293 463 254T490 164Q490 127 475 95T435 38T375 -1T302 -15Q263 -15 229 -1T170 37T130 95T115 165Q115 215 141 254T219 318Q170 346 148 379T125 459Q125 493 139 523T177 577T234 613T302 627Q338 627 370 614T427 577T466 524T480 459Q480 413 458 380T386 318ZM438 457Q438 484 428 507T399 548T355 576T302 586Q274 586 249 576T206 549T177 508T166 458Q166 433 176 412T205 374T249 348T302 338Q330 338 355 347T398 373T427 411T438 457ZM449 164Q449 192 438 216T406 259T360 287T302 298Q272 298 245 288T199 259T168 217T156 164Q156 135 167 111T199 67T245 38T302 27Q332 27 359 37T406 67T437 110T449 164Z"  />
<glyph unicode="9" d="M470 347Q440 293 397 264T305 234Q270 234 240 249T186 291T150 352T136 429Q136 470 149 506T186 569T240 611T308 627Q360 627 403 598T470 517Q491 472 502 416T513 296Q513 221 493 168T424 68Q382 28 330 7T222 -15Q187 -15 163 -5T138 21Q138 30 144 35T158 41Q164 41 175 36Q186 31 195 29T220 27Q264 27 305 42T382 87Q429 126 450 175T472 290V347H470ZM463 415Q452 454 444 477T422 520Q381 586 309 586Q281 586 257 574T216 541T188 491T178 429Q178 397 188 369T215 320T256 287T306 275Q358 275 403 323Q410 330 416 337T429 355T444 380T463 415Z"  />
<glyph unicode=":" d="M311 423Q339 423 358 404T377 356Q377 329 358 310T311 290H293Q266 290 247 309T227 356Q227 384 246 403T293 423H311ZM311 118Q339 118 358 99T377 52Q377 24 358 5T311 -15H293Q266 -15 247 4T227 52Q227 79 246 98T293 118H311Z"  />
<glyph unicode=";" d="M351 147L212 -79Q203 -95 197 -100T182 -105Q170 -105 162 -98T154 -79L157 -65L222 147H351ZM311 423Q339 423 358 404T377 356Q377 329 358 310T311 290H293Q266 290 247 309T227 356Q227 384 246 403T293 423H311Z"  />
<glyph unicode="&lt;" d="M493 532L497 534L509 538Q530 535 530 517Q530 510 527 506T513 496L134 285L513 74Q523 69 526 65T529 52Q529 34 509 32Q505 32 503 33T493 38L50 285L493 532Z"  />
<glyph unicode="=" d="M79 339Q51 339 51 360Q51 381 79 381H526Q553 381 553 360Q553 339 526 339H79ZM79 192Q51 192 51 213Q51 233 79 233H526Q553 233 553 213Q553 192 526 192H79Z"  />
<glyph unicode="&gt;" d="M111 38L107 36Q100 32 95 32Q74 34 74 52Q74 60 77 64T91 74L471 285L91 496Q75 505 75 517Q75 535 95 538Q99 537 101 537T111 532L554 285L111 38Z"  />
<glyph unicode="?" d="M324 209Q324 182 304 182Q283 182 283 209V278Q320 292 343 302T389 327Q424 348 437 367T451 413Q451 438 441 462T412 505Q373 545 308 545Q275 545 247 537T178 510V468Q178 441 157 441Q137 441 137 468V537L166 550Q190 560 208 567T243 578T276 584T311 586Q396 586 443 536Q466 513 479 481T492 414Q492 387 484 366T457 327T405 290T324 251V209ZM324 87Q345 87 360 72T375 36Q375 15 360 0T324 -15H283Q261 -15 247 0T232 36Q232 57 246 72T283 87H324Z"  />
<glyph unicode="@" d="M421 153Q407 151 399 150T380 149Q351 149 326 158T283 185T254 225T243 276Q243 308 256 335T293 381T349 411T421 422V470Q421 523 389 557T305 592Q271 592 242 575T192 528T160 455T148 363V201Q148 143 167 91T220 8Q238 -8 258 -15T310 -23Q387 -20 416 9L423 15Q428 20 435 20Q444 20 450 14T456 0Q456 -18 419 -38Q397 -50 367 -56T304 -63Q215 -63 162 13Q107 92 107 201V366Q107 424 122 473T163 557T225 613T304 633Q338 633 367 621T417 587T451 535T463 470V189Q482 186 482 168Q482 159 476 153T459 147H455H421V153ZM421 382Q361 381 323 352T284 277Q284 238 312 214T385 190Q395 190 402 191T421 195V382Z"  />
<glyph unicode="A" d="M168 191L112 41H191Q218 41 218 21Q218 0 191 0H38Q10 0 10 21Q10 41 38 41H69L251 530H130Q102 530 102 551Q102 571 130 571H336L537 41H568Q595 41 595 21Q595 0 568 0H415Q388 0 388 21Q388 41 415 41H494L437 191H168ZM308 530H293L183 232H422L308 530Z"  />
<glyph unicode="B" d="M127 530H72Q44 530 44 551Q44 571 72 571H330Q367 571 398 560T453 529T489 482T502 423Q502 349 422 302Q545 258 545 156Q545 123 532 95T497 45T444 12T378 0H72Q44 0 44 21Q44 41 72 41H127V530ZM313 317Q379 317 420 347T461 425Q461 447 451 466T424 499T382 522T330 530H168V317H313ZM375 41Q402 41 425 50T466 74T494 111T504 156Q504 183 488 208T444 250Q419 264 391 270T316 276H168V41H375Z"  />
<glyph unicode="C" d="M482 544Q482 571 503 571Q524 571 524 544V430Q524 403 503 403Q483 403 482 427Q480 450 466 471T427 508T372 533T308 543Q222 543 165 480Q137 449 121 408T105 324V252Q105 206 123 165T171 93T241 44T326 25Q378 25 418 46T501 117Q506 123 510 125T519 127Q539 127 539 108Q539 92 500 56Q463 21 419 3T326 -16Q274 -16 227 5T143 63T86 146T64 246V330Q64 377 83 426T136 510Q170 546 214 565T308 585Q409 585 482 515V544Z"  />
<glyph unicode="D" d="M141 530H107Q79 530 79 551Q79 571 107 571H327Q375 571 417 551T491 496T541 414T560 314V257Q560 204 542 158T492 76T418 21T327 0H107Q79 0 79 21Q79 41 107 41H141V530ZM331 41Q368 41 402 58T462 104T503 170T519 248V323Q519 363 504 400T462 467T402 513T331 530H182V41H331Z"  />
<glyph unicode="E" d="M169 41H484V162Q484 190 504 190Q525 190 525 162V0H72Q45 0 45 21Q45 41 72 41H127V530H72Q45 530 45 551Q45 571 72 571H503V430Q503 403 483 403Q462 403 462 430V530H169V317H316V363Q316 391 336 391Q357 391 357 363V230Q357 202 336 202Q316 202 316 230V276H169V41Z"  />
<glyph unicode="F" d="M204 41H344Q372 41 372 21Q372 0 344 0H107Q80 0 80 21Q80 41 107 41H162V530H107Q80 530 80 551Q80 571 107 571H559V430Q559 403 538 403Q518 403 518 430V530H204V317H351V363Q351 391 371 391Q392 391 392 363V230Q392 202 371 202Q351 202 351 230V276H204V41Z"  />
<glyph unicode="G" d="M525 36Q430 -16 337 -16Q275 -16 225 2T140 55T85 138T65 247V322Q65 377 84 425T137 508T217 564T316 585Q416 585 484 530V544Q484 571 504 571Q525 571 525 544V451Q525 424 505 424Q487 424 484 449Q483 468 470 485T434 515T382 535T319 543Q234 543 179 489Q145 457 126 412T106 322V247Q106 196 122 155T169 85T242 41T340 25Q359 25 376 27T410 33T445 43T484 60V212H343Q315 212 315 233Q315 253 343 253H540Q567 253 567 233Q567 212 540 212H525V36Z"  />
<glyph unicode="H" d="M169 276V41H224Q252 41 252 21Q252 0 224 0H82Q54 0 54 21Q54 41 82 41H128V530H102Q75 530 75 551Q75 571 102 571H224Q252 571 252 551Q252 530 224 530H169V317H441V530H386Q359 530 359 551Q359 571 386 571H508Q535 571 535 551Q535 530 508 530H482V41H529Q556 41 556 21Q556 0 529 0H386Q359 0 359 21Q359 41 386 41H441V276H169Z"  />
<glyph unicode="I" d="M323 41H463Q491 41 491 21Q491 0 463 0H141Q114 0 114 21Q114 41 141 41H282V530H141Q114 530 114 551Q114 571 141 571H463Q491 571 491 551Q491 530 463 530H323V41Z"  />
<glyph unicode="J" d="M462 168Q462 130 447 97T407 39T347 -1T274 -16Q226 -16 183 5T85 75V226Q85 254 106 254Q127 254 127 226V94Q202 25 275 25Q305 25 332 36T378 66T409 112T421 168V530H260Q233 530 233 551Q233 571 260 571H560Q588 571 588 551Q588 530 560 530H462V168Z"  />
<glyph unicode="K" d="M169 41H245Q272 41 272 21Q272 0 245 0H73Q45 0 45 21Q45 41 73 41H128V530H73Q45 530 45 551Q45 571 73 571H245Q272 571 272 551Q272 530 245 530H169V278L452 530H407Q379 530 379 551Q379 571 407 571H528Q555 571 555 551Q555 530 528 530H511L286 328Q318 315 340 301T383 264Q397 248 413 223T444 170L468 114Q474 100 480 86T491 57L498 41H549Q576 41 576 21Q576 0 549 0H470Q441 78 417 130T369 215T316 267T251 298L169 224V41Z"  />
<glyph unicode="L" d="M231 41H503V204Q503 232 524 232Q545 232 545 204V0H92Q64 0 64 21Q64 41 92 41H190V530H92Q64 530 64 551Q64 571 92 571H328Q356 571 356 551Q356 530 328 530H231V41Z"  />
<glyph unicode="M" d="M282 171L125 530H117V41H193Q220 41 220 21Q220 0 193 0H41Q14 0 14 21Q14 41 41 41H76V530H50Q23 530 23 551Q23 571 50 571H151L306 218L458 571H559Q587 571 587 551Q587 530 559 530H534V41H568Q596 41 596 21Q596 0 568 0H417Q389 0 389 21Q389 41 417 41H493V530H484L329 171H282Z"  />
<glyph unicode="N" d="M450 0L150 511H148V41H224Q251 41 251 21Q251 0 224 0H73Q45 0 45 21Q45 41 73 41H107V530H52Q25 530 25 551Q25 571 52 571H159L460 59H462V530H386Q359 530 359 551Q359 571 386 571H538Q565 571 565 551Q565 530 538 530H503V0H450Z"  />
<glyph unicode="O" d="M553 284Q553 221 534 166T480 71T401 7T303 -16Q250 -16 205 7T126 70T73 166T53 284Q53 347 72 402T125 497T204 561T303 585Q355 585 400 562T480 498T533 402T553 284ZM511 284Q511 338 495 385T450 467T384 522T303 543Q259 543 221 523T155 467T111 385T94 284Q94 230 110 183T155 101T222 46T303 25Q346 25 384 45T450 101T494 183T511 284Z"  />
<glyph unicode="P" d="M213 41H353Q381 41 381 21Q381 0 353 0H117Q89 0 89 21Q89 41 117 41H172V530H117Q89 530 89 551Q89 571 117 571H355Q395 571 430 559T491 524T531 471T546 404Q546 368 531 337T487 283T422 247T341 234H213V41ZM344 275Q377 275 406 285T457 312T492 353T505 404Q505 430 494 453T462 493T416 520T359 530H213V275H344Z"  />
<glyph unicode="Q" d="M253 -55L255 -57Q277 -52 291 -51T320 -49Q343 -49 362 -52T404 -65Q423 -72 431 -74T449 -76Q462 -76 477 -71T505 -57L520 -48Q525 -44 532 -44Q541 -44 546 -50T552 -64Q552 -72 547 -78T526 -92Q501 -106 484 -111T447 -117Q434 -117 424 -114T390 -103Q370 -95 355 -93T320 -90Q294 -90 248 -99Q229 -102 212 -106T187 -112L178 -114L169 -115Q160 -115 154 -109T148 -94Q148 -84 159 -76L251 -10Q207 0 171 27T109 93T68 181T53 284Q53 347 72 402T125 497T204 561T303 585Q355 585 400 562T480 498T533 402T553 284Q553 222 534 168T482 73T404 9T307 -16L253 -55ZM511 284Q511 338 495 385T450 467T384 522T303 543Q259 543 221 523T155 467T111 385T94 284Q94 230 110 183T155 101T222 46T303 25Q346 25 384 45T450 101T494 183T511 284Z"  />
<glyph unicode="R" d="M169 41H245Q272 41 272 21Q272 0 245 0H73Q45 0 45 21Q45 41 73 41H128V530H73Q45 530 45 551Q45 571 73 571H320Q357 571 390 559T448 524T487 474T502 413Q502 312 361 266Q389 247 407 230T446 186Q454 175 462 164T479 139T499 104T528 56L536 41H568Q595 41 595 21Q595 0 568 0H513Q478 63 452 105T401 176T353 223T299 255H291H279H169V41ZM281 296Q318 296 351 305T408 331T447 368T461 415Q461 437 449 458T418 495T373 520T320 530H169V296H281Z"  />
<glyph unicode="S" d="M449 544Q449 571 469 571Q490 571 490 544V440Q490 412 469 412Q450 412 449 437Q447 459 436 478T405 512T359 535T303 543Q238 543 197 511T155 427Q155 403 165 383T195 349Q214 336 239 329T311 314Q341 309 362 305T398 296T426 286T449 273Q479 255 495 224T512 153Q512 116 497 85T454 32T388 -3T304 -16Q252 -16 209 1T134 51V28Q134 0 113 0Q93 0 93 28V141Q93 168 113 168Q133 168 134 143Q135 118 149 97T186 59T239 34T304 25Q340 25 370 35T423 62T458 103T471 155Q471 182 459 204T425 241Q415 247 406 251T383 259T352 266T306 275Q253 284 221 294T166 321Q141 339 128 367T114 427Q114 461 128 490T167 540T226 573T301 585Q346 585 381 572T449 530V544Z"  />
<glyph unicode="T" d="M322 41H429Q457 41 457 21Q457 0 429 0H175Q147 0 147 21Q147 41 175 41H281V530H113V388Q113 361 93 361Q72 361 72 388V571H532V388Q532 361 511 361Q490 361 490 388V530H322V41Z"  />
<glyph unicode="U" d="M501 188Q501 145 486 108T444 43T381 0T302 -16Q260 -16 224 -1T162 42T120 107T104 188V530H70Q42 530 42 551Q42 571 70 571H221Q249 571 249 551Q249 530 221 530H145V188Q145 154 157 125T191 73T241 38T302 25Q335 25 363 38T413 73T446 124T459 188V530H384Q356 530 356 551Q356 571 384 571H535Q562 571 562 551Q562 530 535 530H501V188Z"  />
<glyph unicode="V" d="M275 0L69 530H37H33Q22 530 16 536T10 551Q10 571 33 571H37H190H194Q217 571 217 551Q217 542 211 536T194 530H190H111L302 41H305L493 530H414H410Q399 530 393 536T387 551Q387 571 410 571H414H567H572Q594 571 594 551Q594 542 588 536T572 530H567H535L332 0H275Z"  />
<glyph unicode="W" d="M418 0L302 406H300L188 0H123L63 530H48Q20 530 20 551Q20 571 48 571H200Q228 571 228 551Q228 530 200 530H104L158 47H160L269 445H332L445 47H447L499 530H403Q376 530 376 551Q376 571 403 571H555Q582 571 582 551Q582 530 555 530H539L482 0H418Z"  />
<glyph unicode="X" d="M522 41H537Q564 41 564 21Q564 0 537 0H405Q378 0 378 21Q378 41 405 41H471L301 259L134 41H199Q227 41 227 21Q227 0 199 0H68Q41 0 41 21Q41 41 68 41H84L276 292L92 530H77Q50 530 50 551Q50 571 77 571H189Q216 571 216 551Q216 530 189 530H143L301 326L458 530H412Q385 530 385 551Q385 571 412 571H525Q552 571 552 551Q552 530 525 530H509L327 292L522 41Z"  />
<glyph unicode="Y" d="M323 41H430Q457 41 457 21Q457 0 430 0H176Q148 0 148 21Q148 41 176 41H282V258L102 530H78Q50 530 50 551Q50 571 78 571H190Q218 571 218 551Q218 530 190 530H150L303 299L453 530H413Q385 530 385 551Q385 571 413 571H525Q553 571 553 551Q553 530 525 530H501L323 258V41Z"  />
<glyph unicode="Z" d="M106 0V60L439 527V530H166V410Q166 382 145 382Q125 382 125 410V571H479V513L145 45V41H460V184Q460 212 480 212Q501 212 501 184V0H106Z"  />
<glyph unicode="[" d="M323 -85H422Q450 -85 450 -106Q450 -127 422 -127H282V613H422Q450 613 450 592Q450 571 422 571H323V-85Z"  />
<glyph unicode="\" d="M485 -50Q490 -59 490 -65Q490 -73 484 -79T469 -85Q461 -85 457 -82T448 -67L118 640Q113 649 113 655Q113 663 119 669T134 675Q142 675 146 672T155 657L485 -50Z"  />
<glyph unicode="]" d="M283 571H184Q157 571 157 592Q157 613 184 613H325V-127H184Q157 -127 157 -106Q157 -85 184 -85H283V571Z"  />
<glyph unicode="^" d="M482 398Q487 392 488 389T491 381Q489 360 470 360Q464 360 460 362T450 373L302 560L155 373Q148 365 144 363T134 360Q115 360 113 381Q114 386 115 388T122 398L302 624L482 398Z"  />
<glyph unicode="_" d="M16 -125Q2 -125 -4 -118T-11 -99Q-11 -88 -5 -82T16 -75H588Q602 -75 609 -81T616 -99Q616 -110 609 -117T588 -125H16Z"  />
<glyph unicode="`" d="M351 518L354 515L361 507L364 498Q364 490 358 484T343 477Q335 477 324 487L209 587Q201 593 199 597T197 607Q197 616 203 622T217 628Q222 628 225 626T236 618L351 518Z"  />
<glyph unicode="a" d="M420 59Q332 -16 229 -16Q159 -16 116 19T72 113Q72 146 87 173T131 219T199 250T287 261Q317 261 347 258T420 246V313Q420 350 386 373T295 396Q276 396 260 394T217 384Q204 381 188 377T161 368Q150 365 147 364T141 363Q133 363 128 369T122 384Q122 398 139 404Q166 414 221 427Q246 433 262 435T298 437Q334 437 363 428T415 402T449 363T461 313V41H516Q544 41 544 21Q544 0 516 0H420V59ZM420 204Q394 212 359 216T291 220Q252 220 220 212T164 190T127 157T114 113Q114 73 145 49T227 25Q281 25 325 45T420 114V204Z"  />
<glyph unicode="b" d="M148 341H150Q221 437 327 437Q372 437 412 420T481 372T528 300T545 212Q545 165 528 124T481 51T412 2T327 -16Q273 -16 229 8T150 80H148V0H52Q24 0 24 21Q24 41 52 41H107V571H52Q24 571 24 592Q24 613 52 613H148V341ZM503 211Q503 249 489 283T451 342T395 381T326 396Q289 396 257 382T200 342T162 283T148 211Q148 173 162 139T200 80T256 40T326 25Q362 25 394 39T451 79T489 139T503 211Z"  />
<glyph unicode="c" d="M473 395Q473 423 494 423Q515 423 515 395L514 302Q514 275 494 275Q476 275 473 299Q471 319 458 337T423 368T373 388T313 396Q272 396 238 382T179 344T141 285T127 208Q127 168 141 135T179 77T238 39T314 25Q368 25 416 44T501 99Q507 105 510 107T519 109Q527 109 533 103T539 89Q539 80 528 67T496 40Q457 13 409 -1T312 -16Q262 -16 221 0T149 47T103 118T86 208Q86 257 103 299T151 372T223 420T315 438Q408 438 473 381V395Z"  />
<glyph unicode="d" d="M503 41H558Q585 41 585 21Q585 0 558 0H461L462 79L460 81Q390 -16 280 -16Q236 -16 197 2T128 50T81 122T63 211Q63 257 80 298T127 370T196 419T281 437Q389 437 460 340L462 342L461 571H407Q379 571 379 592Q379 613 407 613H503V41ZM461 211Q461 249 447 283T409 342T353 381T283 396Q246 396 214 382T157 342T119 283T105 211Q105 172 119 139T157 80T213 40T283 25Q320 25 352 39T409 79T447 138T461 211Z"  />
<glyph unicode="e" d="M106 202Q111 162 128 130T172 74T234 38T311 25Q359 25 408 40T489 80Q495 85 498 86T506 87Q514 87 519 81T525 67Q525 47 476 23Q438 4 396 -6T311 -16Q259 -16 214 2T136 52T84 127T65 220Q65 266 83 305T132 374T205 420T295 437Q344 437 386 420T459 373T507 302T524 212V202H106ZM484 243Q478 277 461 305T419 354T363 385T295 396Q222 396 171 355T106 243H484Z"  />
<glyph unicode="f" d="M275 41H455Q483 41 483 21Q483 0 455 0H135Q107 0 107 21Q107 41 135 41H234V381H145Q117 381 117 402Q117 423 145 423H234V485Q234 513 245 536T277 577T325 603T387 613Q402 613 421 612T460 609T498 605T528 599Q546 594 546 579Q546 559 525 559Q523 559 520 559T512 560Q474 566 443 568T386 571Q337 571 306 547T275 485V423H467Q494 423 494 402Q494 381 467 381H275V41Z"  />
<glyph unicode="g" d="M440 423H536Q564 423 564 402Q564 381 536 381H481V-28Q481 -60 471 -85T438 -135Q412 -163 382 -176T314 -189H198Q171 -189 171 -168Q171 -147 198 -147H316Q342 -147 364 -138T404 -111T430 -71T440 -22V100H438Q375 10 270 10Q228 10 190 27T124 73T80 141T63 224Q63 268 79 306T124 374T190 420T270 437Q376 437 438 347H440V423ZM440 224Q440 260 427 291T391 345T338 382T272 396Q237 396 207 383T153 346T117 291T104 224Q104 188 117 157T153 103T206 66T272 52Q307 52 337 65T391 102T427 157T440 224Z"  />
<glyph unicode="h" d="M167 361Q206 403 241 420T323 438Q357 438 386 428T437 398T470 353T482 295V41H528Q556 41 556 21Q556 0 528 0H395Q367 0 367 21Q367 41 395 41H441V292Q441 340 408 368T320 396Q299 396 283 393T252 380T219 355T179 313L167 301V41H214Q241 41 241 21Q241 0 214 0H80Q53 0 53 21Q53 41 80 41H126V571H71Q44 571 44 592Q44 613 71 613H167V361Z"  />
<glyph unicode="i" d="M324 41H485Q513 41 513 21Q513 0 485 0H122Q94 0 94 21Q94 41 122 41H283V381H163Q136 381 136 402Q136 423 163 423H324V41ZM322 527H262V633H322V527Z"  />
<glyph unicode="j" d="M120 381Q92 381 92 402Q92 423 120 423H405V-29Q405 -64 394 -93T361 -144T311 -177T248 -189H118Q90 -189 90 -168Q90 -147 118 -147H247Q272 -147 293 -138T330 -114T354 -77T363 -29V381H120ZM361 527H301V633H361V527Z"  />
<glyph unicode="k" d="M219 0H123Q95 0 95 21Q95 41 123 41H178V571H123Q95 571 95 592Q95 613 123 613H219V235L393 379V381H372Q345 381 345 402Q345 423 372 423H504Q531 423 531 402Q531 381 504 381H456L296 247L499 41H546Q574 41 574 21Q574 0 546 0H413Q386 0 386 21Q386 41 413 41H442L266 222L219 183V0Z"  />
<glyph unicode="l" d="M323 41H484Q512 41 512 21Q512 0 484 0H121Q94 0 94 21Q94 41 121 41H282V571H164Q136 571 136 592Q136 613 164 613H323V41Z"  />
<glyph unicode="m" d="M115 381Q143 411 167 424T220 437Q282 437 316 370Q370 437 428 437Q450 437 469 428T502 404T524 369T533 327V41H568Q595 41 595 21Q595 0 568 0H492V324Q492 354 474 375T429 396Q402 396 378 377T325 313V41H359Q387 41 387 21Q387 0 359 0H284V321Q284 352 266 374T221 396Q195 396 170 377T115 313V41H150Q177 41 177 21Q177 0 150 0H40Q12 0 12 21Q12 41 40 41H74V381H40Q12 381 12 402Q12 423 40 423H115V381Z"  />
<glyph unicode="n" d="M170 361Q212 404 246 421T326 438Q359 438 387 427T437 398T471 354T483 299V41H517Q545 41 545 21Q545 0 517 0H407Q380 0 380 21Q380 41 407 41H441V292Q441 339 409 367T324 396Q301 396 284 392T250 378T214 348T170 298V41H216Q243 41 243 21Q243 0 216 0H82Q55 0 55 21Q55 41 82 41H128V381H94Q67 381 67 402Q67 423 94 423H170V361Z"  />
<glyph unicode="o" d="M531 211Q531 164 513 123T464 50T392 2T302 -16Q255 -16 213 1T140 50T91 122T73 211Q73 258 91 299T140 371T213 419T302 437Q350 437 391 420T464 371T513 299T531 211ZM490 211Q490 249 475 283T435 342T375 381T302 396Q263 396 229 382T170 342T129 283T114 211Q114 172 129 139T169 80T229 40T302 25Q341 25 375 39T434 79T475 138T490 211Z"  />
<glyph unicode="p" d="M148 348H150Q187 396 228 416T325 437Q371 437 411 421T481 376T528 308T545 224Q545 179 528 140T482 72T412 27T326 10Q215 10 150 100H148V-147H247Q275 -147 275 -168Q275 -189 247 -189H52Q24 -189 24 -168Q24 -147 52 -147H107V381H52Q24 381 24 402Q24 423 52 423H148V348ZM503 224Q503 260 489 291T451 345T395 382T326 396Q289 396 257 383T200 346T162 291T148 224Q148 188 162 157T200 103T256 66T326 52Q363 52 395 65T451 102T489 157T503 224Z"  />
<glyph unicode="q" d="M461 423H557Q585 423 585 402Q585 381 557 381H503V-147H557Q585 -147 585 -168Q585 -189 557 -189H362Q335 -189 335 -168Q335 -147 362 -147H461V100H459Q394 10 283 10Q237 10 198 26T129 72T82 140T65 224Q65 269 82 308T128 375T198 420T284 437Q394 437 459 348H461V423ZM461 224Q461 260 447 291T409 345T353 382T283 396Q246 396 214 383T158 346T120 291T106 224Q106 188 120 157T158 103T214 66T283 52Q320 52 352 65T409 102T447 157T461 224Z"  />
<glyph unicode="r" d="M253 319Q288 351 315 372T366 407T408 427T446 433Q467 433 485 426T523 402Q536 391 541 385T546 371Q546 362 540 356T525 349Q517 349 509 357L498 368Q474 392 449 392Q414 392 367 360Q347 346 328 331T276 286L253 266V41H435Q462 41 462 21Q462 0 435 0H113Q87 0 86 20Q87 39 113 39H212V382H136Q122 382 117 386T109 402Q111 414 116 418T136 423H253V319Z"  />
<glyph unicode="s" d="M145 109Q144 93 158 77T192 49Q237 25 302 25Q336 25 365 32T415 51T448 81T460 118Q460 136 448 153T415 182Q394 193 371 199T304 210Q275 213 255 215T220 222T193 231T171 242Q149 256 137 277T124 323Q124 348 137 369T173 405T229 428T299 437Q385 437 438 396Q438 423 459 423Q479 423 479 395V325Q479 297 459 297Q440 297 438 320Q434 355 397 375T301 396Q272 396 248 391T205 375T177 351T166 321Q166 296 192 278T260 255L318 249Q365 244 395 235T450 209Q474 192 487 169T501 118Q501 89 487 65T446 22T383 -6T303 -16Q253 -16 215 -4T145 33V28V23Q143 0 124 0Q103 0 103 28V112Q103 139 124 139Q133 139 139 133T145 117V109Z"  />
<glyph unicode="t" d="M470 423Q498 423 498 402Q498 381 470 381H247V108Q247 70 277 48T358 25Q379 25 402 28T447 36T490 49T525 66Q531 69 534 70T541 72Q549 72 554 66T560 51Q560 33 511 14Q473 0 434 -8T358 -16Q289 -16 248 18T206 108V381H131Q103 381 103 402Q103 423 131 423H206V544Q206 571 227 571Q247 571 247 544V423H470Z"  />
<glyph unicode="u" d="M442 60Q358 -16 260 -16Q201 -16 165 20T129 117V381H74Q46 381 46 402Q46 423 74 423H170V117Q170 77 195 51T259 25Q359 25 442 117V381H367Q339 381 339 402Q339 423 367 423H483V41H518Q545 41 545 21Q545 0 518 0H442V60Z"  />
<glyph unicode="v" d="M269 0L100 381H59Q31 381 31 402Q31 423 59 423H212Q240 423 240 402Q240 381 212 381H144L295 41H313L460 381H392Q364 381 364 402Q364 423 392 423H546Q574 423 574 402Q574 381 546 381H504L338 0H269Z"  />
<glyph unicode="w" d="M393 0L303 263H301L213 0H162L77 381H57Q30 381 30 402Q30 423 57 423H170Q197 423 197 402Q197 381 170 381H118L189 56H191L278 316H326L415 56H417L486 381H434Q407 381 407 402Q407 423 434 423H547Q574 423 574 402Q574 381 547 381H527L444 0H393Z"  />
<glyph unicode="x" d="M518 41H526Q554 41 554 21Q554 0 526 0H394Q367 0 367 21Q367 41 394 41H462L302 194L144 41H212Q240 41 240 21Q240 0 212 0H79Q51 0 51 21Q51 41 79 41H87L275 221L107 381H101Q74 381 74 402Q74 423 101 423H213Q241 423 241 402Q241 381 213 381H164L302 248L442 381H393Q365 381 365 402Q365 423 393 423H504Q532 423 532 402Q532 381 504 381H498L331 221L518 41Z"  />
<glyph unicode="y" d="M114 381H102Q75 381 75 402Q75 411 81 417T97 423H102H214Q242 423 242 402Q242 381 214 381H159L326 45L492 381H437Q409 381 409 402Q409 423 437 423H548Q576 423 576 402Q576 381 548 381H536L276 -147H340Q368 -147 368 -168Q368 -189 340 -189H104Q76 -189 76 -168Q76 -147 104 -147H233L305 0L114 381Z"  />
<glyph unicode="z" d="M482 386L174 41H452V98Q452 125 472 125Q493 125 493 98V0H118V37L424 381H168V326Q168 298 148 298Q127 298 127 326V423H482V386Z"  />
<glyph unicode="{" d="M322 330Q322 299 313 281T278 243Q304 224 313 206T322 156V-20Q322 -46 338 -64T379 -85Q393 -87 399 -91T405 -106Q405 -127 380 -127Q359 -127 341 -119T310 -96T289 -63T281 -20V156Q281 182 266 200T224 221Q210 223 205 227T200 243Q200 262 224 265Q249 267 265 285T281 330V506Q281 528 288 548T309 582T341 604T380 613Q405 613 405 592Q405 581 399 577T379 571Q354 569 338 551T322 506V330Z"  />
<glyph unicode="|" d="M323 -99Q323 -127 302 -127Q281 -127 281 -99V585Q281 613 302 613Q323 613 323 585V-99Z"  />
<glyph unicode="}" d="M282 156Q282 187 291 205T326 243Q301 262 292 280T282 330V506Q282 532 266 550T226 571Q211 573 205 577T199 592Q199 613 224 613Q245 613 263 605T294 582T315 548T323 506V330Q323 304 339 286T380 265Q405 262 405 243Q405 224 380 221Q355 219 339 201T323 156V-20Q323 -43 316 -62T295 -96T263 -118T224 -127Q199 -127 199 -106Q199 -95 205 -91T226 -85Q251 -83 266 -65T282 -20V156Z"  />
<glyph unicode="~" d="M315 301Q332 285 343 276T362 261T376 254T388 252Q406 252 423 264T462 302Q474 318 479 322T491 326Q499 326 505 321T511 307Q511 301 505 291T485 266Q433 211 391 211Q368 211 346 223T291 267L274 284Q237 318 214 318Q198 318 183 308T148 275L132 256Q123 244 113 244Q105 244 99 250T93 264Q93 275 124 309Q150 335 170 347T213 359Q252 359 290 323L315 301Z"  />
<glyph unicode="&#xA0;" />
<glyph unicode="&#xA1;" d="M281 181Q284 209 302 209Q322 209 323 181L341 -134L342 -151Q342 -168 331 -179T302 -190Q285 -190 274 -179T262 -151L263 -134L281 181ZM292 327Q271 327 257 342T242 378Q242 399 256 414T292 429H312Q333 429 347 414T362 378Q362 357 348 342T312 327H292Z"  />
<glyph unicode="&#xA2;" d="M281 625Q281 653 302 653Q322 653 322 625V504Q386 503 428 468Q434 485 449 485Q470 485 470 459V397Q470 370 449 370Q432 370 428 393Q424 425 393 445T312 465Q277 465 249 454T199 423T167 376T155 316Q155 284 166 257T198 210T247 179T308 167Q343 167 377 178T435 210Q442 215 445 216T453 218Q473 218 473 198Q473 179 422 154Q396 143 372 137T322 129V28Q322 0 302 0Q281 0 281 28V129Q245 133 214 149T161 190T127 247T114 316Q114 363 135 403T195 470Q212 482 231 489T281 503V625Z"  />
<glyph unicode="&#xA3;" d="M437 41Q457 41 469 55T483 94Q486 116 504 116Q513 116 519 110T525 94Q525 74 518 57T500 28T473 8T439 0H113Q85 0 85 21Q85 39 108 41Q126 41 143 56T172 97T193 154T201 221Q201 235 200 250T195 277H90Q62 277 62 297Q62 318 90 318H185Q169 366 163 393T157 441Q157 471 168 498T198 544T244 575T300 587Q357 587 400 547Q415 534 423 522T432 502Q432 494 426 489T412 483Q402 483 393 495Q355 546 302 546Q281 546 263 538T230 515T207 482T199 442Q199 428 202 409T213 366L223 332L227 318H327Q354 318 354 297Q354 277 327 277H236Q238 262 239 248T241 219Q241 113 184 41H437Z"  />
<glyph unicode="&#xA4;" d="M484 145L418 211Q395 191 365 180T300 168Q275 168 243 177T182 211L116 145L89 173L156 237Q139 259 127 288T114 354Q114 390 125 420T156 471L89 536L116 564L182 498Q213 522 244 531T300 540Q328 540 360 530T417 498L484 564L511 536L444 471Q465 446 475 416T485 354Q485 319 474 290T444 237L511 173L484 145ZM447 355Q447 388 435 415T402 461T355 491T301 502Q269 502 242 490T194 458T163 411T152 355Q152 325 163 298T195 251T243 218T300 206Q330 206 357 218T404 250T435 297T447 355Z"  />
<glyph unicode="&#xA5;" d="M323 173H455Q475 173 475 158Q475 143 455 143H323V41H410Q437 41 437 21Q437 0 410 0H194Q166 0 166 21Q166 41 194 41H281V143H149Q129 143 129 158Q129 173 149 173H281V249H149Q129 249 129 264Q129 279 149 279H267L102 530H77Q50 530 50 551Q50 571 77 571H189Q217 571 217 551Q217 530 189 530H150L302 300L453 530H414Q386 530 386 551Q386 571 414 571H525Q553 571 553 551Q553 530 525 530H501L335 279H455Q475 279 475 264Q475 249 455 249H323V173Z"  />
<glyph unicode="&#xA6;" d="M323 -70V-104Q321 -127 302 -127Q291 -127 284 -117Q283 -115 283 -114T282 -108T281 -96T281 -70V114Q281 131 281 140T281 153T282 159T285 162Q291 171 302 171Q313 171 320 161Q321 159 321 158T322 152T323 139T323 114V-70ZM323 372V338Q321 315 302 315Q291 315 284 325Q283 327 283 328T282 334T281 346T281 372V556Q281 573 281 582T281 595T282 601T285 604Q291 613 302 613Q313 613 320 603Q321 601 321 600T322 594T323 581T323 556V372Z"  />
<glyph unicode="&#xA7;" d="M489 507Q489 487 475 487Q460 487 460 507V583H289Q271 583 254 576T224 556T203 528T195 495Q195 462 230 433Q240 424 249 417T271 401T301 383T344 358L399 327Q436 306 461 288T502 254T525 221T532 187Q532 152 502 130T423 108Q432 93 435 82T439 55Q439 29 430 8T404 -29T364 -54T314 -63H116V43Q116 63 130 63Q145 63 145 43V-34H313Q360 -34 386 -4Q397 8 403 23T410 53Q410 82 381 110T278 182L214 218Q172 242 148 259T106 295Q89 311 81 328T72 363Q72 397 102 418T183 443Q173 457 170 467T166 492Q166 517 175 539T201 577T239 603T286 613H489V507ZM324 335Q298 350 281 360T252 378T229 395T206 415Q201 413 193 413H186Q149 413 125 399T101 361Q101 339 133 309Q141 301 149 295T168 281T195 265T235 241L296 206Q319 192 335 183T362 165T382 150T400 134Q404 137 410 138H420Q458 139 480 151T503 187Q503 211 475 238T387 299L324 335Z"  />
<glyph unicode="&#xA8;" d="M237 539Q237 522 226 511T197 499Q181 499 170 510T158 539Q158 556 169 567T197 579Q214 579 225 568T237 539ZM447 539Q447 522 436 511T407 499Q390 499 379 510T367 539Q367 556 378 567T407 579Q424 579 435 568T447 539Z"  />
<glyph unicode="&#xA9;" d="M399 438Q399 453 411 453Q423 453 423 438V373V370Q423 357 411 357Q401 357 399 371Q398 384 390 396T368 417T337 431T301 437Q277 437 256 427T219 401T194 361T185 313V272Q185 246 195 223T222 182T262 154T310 143Q339 143 363 155T410 196Q415 201 420 201Q431 201 431 190Q431 181 410 161Q366 120 311 120Q282 120 255 132T208 164T175 212T162 269V316Q162 346 173 372T203 418T247 449T300 461Q357 461 399 421V438ZM4 285Q4 347 27 401T91 496T186 560T302 584Q364 584 418 561T513 497T577 402T601 285Q601 223 578 169T514 75T419 11T302 -13Q240 -13 186 10T92 74T28 169T4 285ZM37 285Q37 230 58 182T115 97T199 40T302 19Q357 19 405 40T489 97T546 181T567 285Q567 340 546 388T489 473T405 530T302 551Q247 551 199 530T115 473T58 389T37 285Z"  />
<glyph unicode="&#xAA;" d="M370 394L363 389Q341 374 313 365T253 355Q202 355 173 379T144 440Q144 482 183 508T290 535Q313 535 333 533T370 527V559Q370 579 350 591T295 603Q278 603 262 600T233 593T210 586T195 583Q176 583 176 602Q176 614 189 619T223 629Q236 632 254 636T297 640Q348 640 379 617T411 559V403H442Q452 403 457 398T463 384Q463 376 458 371T442 365H370V394ZM370 489Q356 493 335 495T293 497Q242 497 214 480T185 439Q185 419 202 406T251 393Q286 393 314 406T370 442V489Z"  />
<glyph unicode="&#xAB;" d="M269 412Q282 424 290 424Q299 424 305 418T311 403Q311 398 309 395T300 383L147 212L300 41Q307 33 309 30T311 21Q311 12 305 7T290 1Q285 1 281 3T269 12L50 212L269 412ZM498 412Q511 424 520 424Q528 424 534 418T540 403Q540 398 538 395T529 383L376 212L529 41Q536 33 538 30T540 21Q540 12 534 7T520 1Q515 1 511 3T498 12L279 212L498 412Z"  />
<glyph unicode="&#xAC;" d="M41 265Q14 265 14 286Q14 306 41 306H532V60Q532 33 511 33Q490 33 490 60V265H41Z"  />
<glyph unicode="&#xAD;" d="M511 253H93V312H511V253Z"  />
<glyph unicode="&#xAE;" d="M229 147H271H274Q287 147 287 135Q287 123 274 123H271H174H171Q158 125 158 135Q158 147 171 147H174H205V424H174H171Q158 424 158 436Q158 447 171 447H174H315Q336 447 354 440T387 421T409 392T418 358Q418 301 338 274Q351 265 361 256T381 234T403 202T432 155L437 147H455H457Q470 147 470 135Q470 123 457 123H455H424Q404 159 389 183T361 223T333 249T302 268H298H291H229V147ZM292 291Q334 291 364 310T394 359Q394 385 370 404T314 424H229V291H292ZM4 285Q4 347 27 401T91 496T186 560T302 584Q364 584 418 561T513 497T577 402T601 285Q601 223 578 169T514 75T419 11T302 -13Q240 -13 186 10T92 74T28 169T4 285ZM37 285Q37 230 58 182T115 97T199 40T302 19Q357 19 405 40T489 97T546 181T567 285Q567 340 546 388T489 473T405 530T302 551Q247 551 199 530T115 473T58 389T37 285Z"  />
<glyph unicode="&#xAF;" d="M184 504Q157 504 157 525Q157 545 184 545H421Q448 545 448 525Q448 504 421 504H184Z"  />
<glyph unicode="&#xB0;" d="M167 593Q167 621 177 645T206 688T249 717T302 728Q330 728 355 718T398 689T427 646T438 593Q438 565 428 540T399 497T355 468T302 457Q274 457 250 467T207 496T178 540T167 593ZM220 593Q220 558 244 534T302 510Q337 510 361 534T385 593Q385 627 361 651T302 675Q268 675 244 651T220 593Z"  />
<glyph unicode="&#xB1;" d="M323 125Q323 97 302 97Q281 97 281 125V330H100Q72 330 72 351Q72 371 100 371H281V575Q281 603 302 603Q323 603 323 575V371H504Q532 371 532 351Q532 330 504 330H323V125ZM129 0Q112 0 103 0T90 0T84 1T81 4Q72 10 72 21Q72 31 82 38Q84 39 85 39T91 40T103 41T129 41H475Q492 41 501 41T514 41T520 39T523 37Q532 31 532 21Q532 10 522 3Q520 2 519 2T513 1T500 0T475 0H129Z"  />
<glyph unicode="&#xB2;" d="M181 301V336Q235 378 274 409T339 464T377 504T390 535Q390 561 367 580T310 600Q280 600 257 585T228 547Q226 540 221 538T210 535Q204 535 199 538T193 548Q193 558 201 571T224 597T261 618T310 627Q334 627 355 619T392 599T417 570T426 536Q426 513 413 496T378 458Q323 410 283 378T220 329V328H391V336Q391 344 396 347T409 351Q427 351 427 333V301H181Z"  />
<glyph unicode="&#xB3;" d="M361 474Q388 463 406 441T424 392Q424 373 415 356T388 325T346 303T294 294Q273 294 252 299T213 311T184 326T173 340Q173 346 178 349T190 353Q197 353 203 350Q217 342 239 332T295 321Q336 321 362 342T388 391Q388 406 381 418T361 440T334 455T304 462Q289 463 277 464T265 477Q265 484 271 487T286 491Q291 491 295 491T304 490Q336 490 355 506T375 544Q375 566 355 583T300 600Q274 600 254 592T224 572Q216 562 203 565T190 578Q190 583 198 591T221 607T256 621T301 627Q349 627 380 603T411 544Q411 521 396 502T360 475L359 474H361Z"  />
<glyph unicode="&#xB4;" d="M280 487L277 484Q269 477 261 477Q253 477 247 483T241 498Q241 504 243 507T253 518L368 618Q375 624 378 626T387 628Q395 628 401 622T408 607Q408 601 406 598T395 587L280 487Z"  />
<glyph unicode="&#xB5;" d="M170 -161Q170 -189 149 -189Q129 -189 129 -161V381H74Q46 381 46 402Q46 423 74 423H170V117Q170 77 195 51T259 25Q359 25 442 117V381H367Q339 381 339 402Q339 423 367 423H483V41H518Q545 41 545 21Q545 0 518 0H442V60Q358 -16 260 -16Q231 -16 211 -9T170 17V-161Z"  />
<glyph unicode="&#xB6;" d="M439 -34H503Q523 -34 523 -49Q523 -63 503 -63H408Q388 -63 388 -49Q388 -32 410 -34V583H323V-34Q345 -32 345 -49Q345 -63 325 -63H189Q169 -63 169 -49Q169 -34 189 -34H294V276Q248 279 210 291T145 322T102 365T86 418V466Q86 497 102 524T148 570T216 601T302 613H502Q521 613 521 598Q521 583 502 583H439V-34ZM294 583Q268 581 251 576T215 562Q183 545 164 519T144 464V426Q144 400 160 375T206 333Q226 321 245 315T294 306V583Z"  />
<glyph unicode="&#xB7;" d="M311 377Q339 377 358 358T377 311Q377 283 358 264T311 244H293Q266 244 247 263T227 311Q227 338 246 357T293 377H311Z"  />
<glyph unicode="&#xB8;" d="M288 -60V-5Q288 15 303 15Q317 15 317 -5V-52Q344 -55 359 -70Q375 -84 375 -105Q375 -131 356 -147T305 -163Q288 -163 269 -158T235 -145Q218 -137 218 -126Q218 -120 222 -116T233 -111Q236 -111 243 -115Q276 -133 304 -133Q321 -133 333 -125T345 -104Q345 -94 334 -87T308 -79H288V-60Z"  />
<glyph unicode="&#xB9;" d="M318 626V328H398Q417 328 417 315Q417 301 398 301H202Q194 301 189 305T183 315Q183 328 202 328H282V587L210 567L200 566Q194 566 189 570T183 580Q183 588 189 590T201 594L318 626Z"  />
<glyph unicode="&#xBA;" d="M456 498Q456 469 444 443T411 398T362 367T300 355Q267 355 239 366T189 397T156 443T144 498Q144 527 156 553T189 598T238 629T300 640Q333 640 361 629T411 599T444 553T456 498ZM415 498Q415 519 406 538T382 572T345 594T300 603Q276 603 255 595T219 572T194 539T185 498Q185 477 194 458T218 424T255 402T300 393Q324 393 345 401T381 424T406 457T415 498Z"  />
<glyph unicode="&#xBB;" d="M106 12Q98 5 94 3T85 1Q76 1 70 6T64 21Q64 26 66 29T75 41L228 212L75 383Q68 391 66 394T64 403Q64 412 70 418T85 424Q93 424 106 412L325 212L106 12ZM335 12Q327 5 323 3T314 1Q305 1 299 6T293 21Q293 26 295 29T304 41L457 212L304 383Q297 391 295 394T293 403Q293 412 299 418T314 424Q322 424 335 412L554 212L335 12Z"  />
<glyph unicode="&#xBC;" d="M369 87V115L506 319H566V115H581Q603 115 603 101Q603 87 583 87H581H566V27H581Q603 27 603 14Q603 0 581 0H490Q468 0 468 14Q468 27 490 27H530V87H369ZM530 291H527L409 115H530V291ZM143 328H220Q242 328 242 315Q242 301 220 301H30Q8 301 8 315Q8 328 30 328H107V587L35 567Q33 567 31 567T26 566Q9 566 9 580Q9 589 23 593L26 594L143 626V328ZM140 148Q134 144 131 143T123 141Q103 142 102 162Q103 169 105 173T117 183L564 471Q571 475 573 476T581 478Q600 477 602 457Q601 449 599 446T587 436L140 148Z"  />
<glyph unicode="&#xBD;" d="M144 328H221Q243 328 243 315Q243 301 221 301H31Q8 301 8 315Q8 328 31 328H107V587L35 567Q33 567 31 567T26 566Q19 566 14 570T9 580Q9 589 24 593L26 594L144 626V328ZM125 148Q114 141 109 141Q88 143 88 162Q88 169 91 173T103 183L550 471Q557 475 559 476T567 478Q586 476 588 457Q587 449 585 446T572 436L125 148ZM579 27V32V35Q579 49 597 49Q615 49 615 32V0H369V35L373 37L388 49Q398 57 413 69T446 96T481 124T514 152Q534 169 547 181T567 202T576 218T579 234Q579 260 555 279T499 299Q469 299 447 285T417 246Q412 234 399 234Q391 234 386 238T381 247Q381 255 387 266T402 287Q420 306 445 316T499 326Q522 326 543 319T580 299T605 270T615 235Q615 218 608 205T583 173Q576 166 568 159T539 134Q521 119 502 103T465 72T432 46T409 28L408 29V27H579Z"  />
<glyph unicode="&#xBE;" d="M369 87V115L506 319H566V115H580Q603 115 603 101Q603 87 583 87H580H566V27H580Q603 27 603 14Q603 0 580 0H490Q468 0 468 14Q468 27 490 27H530V87H369ZM530 291H527L409 115H530V291ZM198 474Q226 462 243 439T261 392Q261 372 251 354T224 323T183 302T132 294Q87 294 42 314Q25 323 18 328T10 340Q10 345 15 349T27 353Q34 353 40 350L57 339Q69 331 91 326T132 321Q151 321 168 326T197 341T217 364T225 391Q225 421 197 441T124 463Q102 463 102 477Q102 483 107 487T123 490H142Q171 490 191 505T212 544Q212 568 191 584T138 600Q114 600 94 593T61 572Q54 565 46 565Q38 565 33 569T28 578Q28 588 52 604Q89 627 138 627Q161 627 181 621T216 603T239 577T248 544Q248 523 234 504T198 475L197 474H198ZM136 148Q129 144 126 143T119 141Q99 142 98 162Q99 169 101 173T113 183L560 471Q567 475 569 476T577 478Q596 477 598 457Q597 449 595 446T582 436L136 148Z"  />
<glyph unicode="&#xBF;" d="M282 185Q282 213 303 213Q323 213 323 185V116Q287 102 264 92T218 68Q183 46 170 28T156 -18Q156 -70 195 -111Q215 -131 239 -140T299 -150Q315 -150 330 -149T360 -143T392 -133T429 -116V-82Q429 -55 449 -55Q470 -55 470 -82V-142L441 -155Q417 -166 399 -172T363 -183T330 -189T295 -191Q212 -191 163 -141Q140 -118 127 -86T114 -19Q114 8 122 29T149 68T201 105T282 144V185ZM283 331Q262 331 247 346T232 382Q232 403 247 418T283 433H324Q345 433 360 418T375 382Q375 361 360 346T324 331H283Z"  />
<glyph unicode="&#xC0;" d="M168 191L112 41H191Q218 41 218 21Q218 0 191 0H38Q10 0 10 21Q10 41 38 41H69L251 530H130Q102 530 102 551Q102 571 130 571H336L537 41H568Q595 41 595 21Q595 0 568 0H415Q388 0 388 21Q388 41 415 41H494L437 191H168ZM308 530H293L183 232H422L308 530ZM351 664L354 661L361 653L364 644Q364 636 358 630T343 623Q335 623 324 633L209 733Q201 739 199 743T197 753Q197 762 203 768T217 774Q222 774 225 772T236 764L351 664Z"  />
<glyph unicode="&#xC1;" d="M168 191L112 41H191Q218 41 218 21Q218 0 191 0H38Q10 0 10 21Q10 41 38 41H69L251 530H130Q102 530 102 551Q102 571 130 571H336L537 41H568Q595 41 595 21Q595 0 568 0H415Q388 0 388 21Q388 41 415 41H494L437 191H168ZM308 530H293L183 232H422L308 530ZM280 633L277 630Q269 623 261 623Q253 623 247 629T241 644Q241 650 243 653T253 664L368 764Q375 770 378 772T387 774Q395 774 401 768T408 753Q408 747 406 744T395 733L280 633Z"  />
<glyph unicode="&#xC2;" d="M168 191L112 41H191Q218 41 218 21Q218 0 191 0H38Q10 0 10 21Q10 41 38 41H69L251 530H130Q102 530 102 551Q102 571 130 571H336L537 41H568Q595 41 595 21Q595 0 568 0H415Q388 0 388 21Q388 41 415 41H494L437 191H168ZM308 530H293L183 232H422L308 530ZM434 664L438 661Q448 654 448 643Q446 623 427 623Q419 623 413 628L410 631L302 714L194 631Q188 626 185 625T177 623Q158 623 156 644Q157 650 159 654T170 664L302 765L434 664Z"  />
<glyph unicode="&#xC3;" d="M168 191L112 41H191Q218 41 218 21Q218 0 191 0H38Q10 0 10 21Q10 41 38 41H69L251 530H130Q102 530 102 551Q102 571 130 571H336L537 41H568Q595 41 595 21Q595 0 568 0H415Q388 0 388 21Q388 41 415 41H494L437 191H168ZM308 530H293L183 232H422L308 530ZM320 676Q351 655 366 655Q377 655 388 662T422 688Q430 695 437 695Q445 695 451 689T457 675Q457 668 453 662T432 643Q412 627 398 621T366 614Q349 614 330 622T282 652Q265 665 256 669T237 673Q220 673 194 652L182 640Q176 634 166 634Q158 634 152 639T146 653Q146 666 168 683Q189 700 205 707T237 714Q252 714 267 708T305 686L320 676Z"  />
<glyph unicode="&#xC4;" d="M168 191L112 41H191Q218 41 218 21Q218 0 191 0H38Q10 0 10 21Q10 41 38 41H69L251 530H130Q102 530 102 551Q102 571 130 571H336L537 41H568Q595 41 595 21Q595 0 568 0H415Q388 0 388 21Q388 41 415 41H494L437 191H168ZM308 530H293L183 232H422L308 530ZM237 685Q237 668 226 657T197 645Q181 645 170 656T158 685Q158 702 169 713T197 725Q214 725 225 714T237 685ZM447 685Q447 668 436 657T407 645Q390 645 379 656T367 685Q367 702 378 713T407 725Q424 725 435 714T447 685Z"  />
<glyph unicode="&#xC5;" d="M168 191L112 41H191Q218 41 218 21Q218 0 191 0H38Q10 0 10 21Q10 41 38 41H69L251 530H130Q102 530 102 551Q102 571 130 571H336L537 41H568Q595 41 595 21Q595 0 568 0H415Q388 0 388 21Q388 41 415 41H494L437 191H168ZM308 530H293L183 232H422L308 530ZM391 710Q391 674 366 649T303 623Q266 623 241 648T215 710Q215 746 240 771T303 797Q340 797 365 772T391 710ZM362 710Q362 734 345 750T303 767Q278 767 261 751T244 710Q244 686 261 669T303 652Q328 652 345 669T362 710Z"  />
<glyph unicode="&#xC6;" d="M159 192L117 41H144Q171 41 171 21Q171 0 144 0H39Q11 0 11 21Q11 41 39 41H76L211 530H147Q119 530 119 551Q119 571 147 571H573V417Q573 389 553 389Q532 389 532 417V530H343V317H423V346Q423 373 443 373Q464 373 464 346V249Q464 221 443 221Q423 221 423 249V277H343V41H553V136Q553 150 557 155Q560 159 565 161T574 163Q578 164 583 161T591 153Q594 148 594 136V0H249Q222 0 222 21Q222 41 249 41H302V192H159ZM302 530H251L170 232H302V530Z"  />
<glyph unicode="&#xC7;" d="M286 -13Q240 -6 200 18T129 77T80 155T62 246V330Q62 377 81 426T134 510Q168 546 212 565T306 585Q407 585 480 515V544Q480 571 501 571Q522 571 522 544V430Q522 403 501 403Q481 403 480 427Q478 450 464 471T425 508T370 533T306 543Q220 543 163 480Q135 449 119 408T103 324V252Q103 206 121 165T169 93T239 44T324 25Q376 25 416 46T499 117Q504 123 508 125T517 127Q537 127 537 108Q537 92 498 56Q461 21 417 3T324 -16H315V-52Q342 -55 357 -70Q373 -84 373 -105Q373 -131 354 -147T303 -163Q286 -163 267 -158T233 -145Q216 -137 216 -126Q216 -120 220 -116T231 -111Q234 -111 241 -115Q274 -133 302 -133Q319 -133 331 -125T343 -104Q343 -94 332 -87T306 -79H286V-13Z"  />
<glyph unicode="&#xC8;" d="M169 41H484V162Q484 190 504 190Q525 190 525 162V0H72Q45 0 45 21Q45 41 72 41H127V530H72Q45 530 45 551Q45 571 72 571H503V430Q503 403 483 403Q462 403 462 430V530H169V317H316V363Q316 391 336 391Q357 391 357 363V230Q357 202 336 202Q316 202 316 230V276H169V41ZM351 664L354 661L361 653L364 644Q364 636 358 630T343 623Q335 623 324 633L209 733Q201 739 199 743T197 753Q197 762 203 768T217 774Q222 774 225 772T236 764L351 664Z"  />
<glyph unicode="&#xC9;" d="M169 41H484V162Q484 190 504 190Q525 190 525 162V0H72Q45 0 45 21Q45 41 72 41H127V530H72Q45 530 45 551Q45 571 72 571H503V430Q503 403 483 403Q462 403 462 430V530H169V317H316V363Q316 391 336 391Q357 391 357 363V230Q357 202 336 202Q316 202 316 230V276H169V41ZM280 633L277 630Q269 623 261 623Q253 623 247 629T241 644Q241 650 243 653T253 664L368 764Q375 770 378 772T387 774Q395 774 401 768T408 753Q408 747 406 744T395 733L280 633Z"  />
<glyph unicode="&#xCA;" d="M169 41H484V162Q484 190 504 190Q525 190 525 162V0H72Q45 0 45 21Q45 41 72 41H127V530H72Q45 530 45 551Q45 571 72 571H503V430Q503 403 483 403Q462 403 462 430V530H169V317H316V363Q316 391 336 391Q357 391 357 363V230Q357 202 336 202Q316 202 316 230V276H169V41ZM434 664L438 661Q448 654 448 643Q446 623 427 623Q419 623 413 628L410 631L302 714L194 631Q188 626 185 625T177 623Q158 623 156 644Q157 650 159 654T170 664L302 765L434 664Z"  />
<glyph unicode="&#xCB;" d="M169 41H484V162Q484 190 504 190Q525 190 525 162V0H72Q45 0 45 21Q45 41 72 41H127V530H72Q45 530 45 551Q45 571 72 571H503V430Q503 403 483 403Q462 403 462 430V530H169V317H316V363Q316 391 336 391Q357 391 357 363V230Q357 202 336 202Q316 202 316 230V276H169V41ZM237 685Q237 668 226 657T197 645Q181 645 170 656T158 685Q158 702 169 713T197 725Q214 725 225 714T237 685ZM447 685Q447 668 436 657T407 645Q390 645 379 656T367 685Q367 702 378 713T407 725Q424 725 435 714T447 685Z"  />
<glyph unicode="&#xCC;" d="M323 41H463Q491 41 491 21Q491 0 463 0H141Q114 0 114 21Q114 41 141 41H282V530H141Q114 530 114 551Q114 571 141 571H463Q491 571 491 551Q491 530 463 530H323V41ZM351 664L354 661L361 653L364 644Q364 636 358 630T343 623Q335 623 324 633L209 733Q201 739 199 743T197 753Q197 762 203 768T217 774Q222 774 225 772T236 764L351 664Z"  />
<glyph unicode="&#xCD;" d="M323 41H463Q491 41 491 21Q491 0 463 0H141Q114 0 114 21Q114 41 141 41H282V530H141Q114 530 114 551Q114 571 141 571H463Q491 571 491 551Q491 530 463 530H323V41ZM280 633L277 630Q269 623 261 623Q253 623 247 629T241 644Q241 650 243 653T253 664L368 764Q375 770 378 772T387 774Q395 774 401 768T408 753Q408 747 406 744T395 733L280 633Z"  />
<glyph unicode="&#xCE;" d="M323 41H463Q491 41 491 21Q491 0 463 0H141Q114 0 114 21Q114 41 141 41H282V530H141Q114 530 114 551Q114 571 141 571H463Q491 571 491 551Q491 530 463 530H323V41ZM434 664L438 661Q448 654 448 643Q446 623 427 623Q419 623 413 628L410 631L302 714L194 631Q188 626 185 625T177 623Q158 623 156 644Q157 650 159 654T170 664L302 765L434 664Z"  />
<glyph unicode="&#xCF;" d="M323 41H463Q491 41 491 21Q491 0 463 0H141Q114 0 114 21Q114 41 141 41H282V530H141Q114 530 114 551Q114 571 141 571H463Q491 571 491 551Q491 530 463 530H323V41ZM237 685Q237 668 226 657T197 645Q181 645 170 656T158 685Q158 702 169 713T197 725Q214 725 225 714T237 685ZM447 685Q447 668 436 657T407 645Q390 645 379 656T367 685Q367 702 378 713T407 725Q424 725 435 714T447 685Z"  />
<glyph unicode="&#xD0;" d="M57 276Q40 276 31 276T18 276T12 276T9 279Q0 285 0 296Q0 307 10 314Q12 315 13 315T19 316T31 317T57 317H106V530H72Q44 530 44 551Q44 571 72 571H292Q340 571 382 551T456 496T506 414T525 314V257Q525 204 507 158T457 76T383 21T292 0H72Q44 0 44 21Q44 41 72 41H106V276H57ZM147 41H296Q333 41 366 58T426 104T467 170T483 248V323Q483 363 468 400T426 467T367 513T296 530H147V317H262H296Q306 317 312 311T319 296Q319 286 310 279Q308 277 307 277T301 276T288 276T262 276H147V41Z"  />
<glyph unicode="&#xD1;" d="M450 0L150 511H148V41H224Q251 41 251 21Q251 0 224 0H73Q45 0 45 21Q45 41 73 41H107V530H52Q25 530 25 551Q25 571 52 571H159L460 59H462V530H386Q359 530 359 551Q359 571 386 571H538Q565 571 565 551Q565 530 538 530H503V0H450ZM320 676Q351 655 366 655Q377 655 388 662T422 688Q430 695 437 695Q445 695 451 689T457 675Q457 668 453 662T432 643Q412 627 398 621T366 614Q349 614 330 622T282 652Q265 665 256 669T237 673Q220 673 194 652L182 640Q176 634 166 634Q158 634 152 639T146 653Q146 666 168 683Q189 700 205 707T237 714Q252 714 267 708T305 686L320 676Z"  />
<glyph unicode="&#xD2;" d="M553 284Q553 221 534 166T480 71T401 7T303 -16Q250 -16 205 7T126 70T73 166T53 284Q53 347 72 402T125 497T204 561T303 585Q355 585 400 562T480 498T533 402T553 284ZM511 284Q511 338 495 385T450 467T384 522T303 543Q259 543 221 523T155 467T111 385T94 284Q94 230 110 183T155 101T222 46T303 25Q346 25 384 45T450 101T494 183T511 284ZM351 664L354 661L361 653L364 644Q364 636 358 630T343 623Q335 623 324 633L209 733Q201 739 199 743T197 753Q197 762 203 768T217 774Q222 774 225 772T236 764L351 664Z"  />
<glyph unicode="&#xD3;" d="M553 284Q553 221 534 166T480 71T401 7T303 -16Q250 -16 205 7T126 70T73 166T53 284Q53 347 72 402T125 497T204 561T303 585Q355 585 400 562T480 498T533 402T553 284ZM511 284Q511 338 495 385T450 467T384 522T303 543Q259 543 221 523T155 467T111 385T94 284Q94 230 110 183T155 101T222 46T303 25Q346 25 384 45T450 101T494 183T511 284ZM280 633L277 630Q269 623 261 623Q253 623 247 629T241 644Q241 650 243 653T253 664L368 764Q375 770 378 772T387 774Q395 774 401 768T408 753Q408 747 406 744T395 733L280 633Z"  />
<glyph unicode="&#xD4;" d="M553 284Q553 221 534 166T480 71T401 7T303 -16Q250 -16 205 7T126 70T73 166T53 284Q53 347 72 402T125 497T204 561T303 585Q355 585 400 562T480 498T533 402T553 284ZM511 284Q511 338 495 385T450 467T384 522T303 543Q259 543 221 523T155 467T111 385T94 284Q94 230 110 183T155 101T222 46T303 25Q346 25 384 45T450 101T494 183T511 284ZM434 664L438 661Q448 654 448 643Q446 623 427 623Q419 623 413 628L410 631L302 714L194 631Q188 626 185 625T177 623Q158 623 156 644Q157 650 159 654T170 664L302 765L434 664Z"  />
<glyph unicode="&#xD5;" d="M553 284Q553 221 534 166T480 71T401 7T303 -16Q250 -16 205 7T126 70T73 166T53 284Q53 347 72 402T125 497T204 561T303 585Q355 585 400 562T480 498T533 402T553 284ZM511 284Q511 338 495 385T450 467T384 522T303 543Q259 543 221 523T155 467T111 385T94 284Q94 230 110 183T155 101T222 46T303 25Q346 25 384 45T450 101T494 183T511 284ZM320 676Q351 655 366 655Q377 655 388 662T422 688Q430 695 437 695Q445 695 451 689T457 675Q457 668 453 662T432 643Q412 627 398 621T366 614Q349 614 330 622T282 652Q265 665 256 669T237 673Q220 673 194 652L182 640Q176 634 166 634Q158 634 152 639T146 653Q146 666 168 683Q189 700 205 707T237 714Q252 714 267 708T305 686L320 676Z"  />
<glyph unicode="&#xD6;" d="M553 284Q553 221 534 166T480 71T401 7T303 -16Q250 -16 205 7T126 70T73 166T53 284Q53 347 72 402T125 497T204 561T303 585Q355 585 400 562T480 498T533 402T553 284ZM511 284Q511 338 495 385T450 467T384 522T303 543Q259 543 221 523T155 467T111 385T94 284Q94 230 110 183T155 101T222 46T303 25Q346 25 384 45T450 101T494 183T511 284ZM237 685Q237 668 226 657T197 645Q181 645 170 656T158 685Q158 702 169 713T197 725Q214 725 225 714T237 685ZM447 685Q447 668 436 657T407 645Q390 645 379 656T367 685Q367 702 378 713T407 725Q424 725 435 714T447 685Z"  />
<glyph unicode="&#xD7;" d="M174 128Q167 121 164 119T155 117Q146 117 140 123T134 138Q134 143 136 147T145 157L273 285L145 414Q138 421 136 424T134 433Q134 442 140 448T155 454Q160 454 163 452T174 443L302 315L430 442Q437 449 441 451T450 453Q458 453 464 447T470 432Q470 427 468 423T459 413L332 285L460 157Q467 150 469 147T471 138Q471 129 465 123T450 117Q445 117 442 119T431 128L302 256L174 128Z"  />
<glyph unicode="&#xD8;" d="M82 -28L79 -31Q72 -41 62 -41Q53 -41 48 -35T41 -20Q42 -12 47 -6L50 -2L117 83L115 85Q53 171 53 284Q53 347 72 402T125 497T204 561T303 585Q392 585 460 519L522 598L525 602Q532 611 542 611Q551 611 557 606T563 590Q563 583 557 576L555 573L488 488Q520 445 536 394T553 284Q553 221 534 166T480 71T401 7T303 -16Q212 -16 144 51L82 -28ZM170 84Q229 25 303 25Q346 25 384 45T450 101T494 183T511 284Q511 331 499 374T461 453L170 84ZM434 486Q374 543 303 543Q260 543 222 523T156 467T111 385T94 284Q94 190 143 117L434 486Z"  />
<glyph unicode="&#xD9;" d="M501 188Q501 145 486 108T444 43T381 0T302 -16Q260 -16 224 -1T162 42T120 107T104 188V530H70Q42 530 42 551Q42 571 70 571H221Q249 571 249 551Q249 530 221 530H145V188Q145 154 157 125T191 73T241 38T302 25Q335 25 363 38T413 73T446 124T459 188V530H384Q356 530 356 551Q356 571 384 571H535Q562 571 562 551Q562 530 535 530H501V188ZM351 664L354 661L361 653L364 644Q364 636 358 630T343 623Q335 623 324 633L209 733Q201 739 199 743T197 753Q197 762 203 768T217 774Q222 774 225 772T236 764L351 664Z"  />
<glyph unicode="&#xDA;" d="M501 188Q501 145 486 108T444 43T381 0T302 -16Q260 -16 224 -1T162 42T120 107T104 188V530H70Q42 530 42 551Q42 571 70 571H221Q249 571 249 551Q249 530 221 530H145V188Q145 154 157 125T191 73T241 38T302 25Q335 25 363 38T413 73T446 124T459 188V530H384Q356 530 356 551Q356 571 384 571H535Q562 571 562 551Q562 530 535 530H501V188ZM280 633L277 630Q269 623 261 623Q253 623 247 629T241 644Q241 650 243 653T253 664L368 764Q375 770 378 772T387 774Q395 774 401 768T408 753Q408 747 406 744T395 733L280 633Z"  />
<glyph unicode="&#xDB;" d="M501 188Q501 145 486 108T444 43T381 0T302 -16Q260 -16 224 -1T162 42T120 107T104 188V530H70Q42 530 42 551Q42 571 70 571H221Q249 571 249 551Q249 530 221 530H145V188Q145 154 157 125T191 73T241 38T302 25Q335 25 363 38T413 73T446 124T459 188V530H384Q356 530 356 551Q356 571 384 571H535Q562 571 562 551Q562 530 535 530H501V188ZM434 664L438 661Q448 654 448 643Q446 623 427 623Q419 623 413 628L410 631L302 714L194 631Q188 626 185 625T177 623Q158 623 156 644Q157 650 159 654T170 664L302 765L434 664Z"  />
<glyph unicode="&#xDC;" d="M501 188Q501 145 486 108T444 43T381 0T302 -16Q260 -16 224 -1T162 42T120 107T104 188V530H70Q42 530 42 551Q42 571 70 571H221Q249 571 249 551Q249 530 221 530H145V188Q145 154 157 125T191 73T241 38T302 25Q335 25 363 38T413 73T446 124T459 188V530H384Q356 530 356 551Q356 571 384 571H535Q562 571 562 551Q562 530 535 530H501V188ZM237 685Q237 668 226 657T197 645Q181 645 170 656T158 685Q158 702 169 713T197 725Q214 725 225 714T237 685ZM447 685Q447 668 436 657T407 645Q390 645 379 656T367 685Q367 702 378 713T407 725Q424 725 435 714T447 685Z"  />
<glyph unicode="&#xDD;" d="M323 41H430Q457 41 457 21Q457 0 430 0H176Q148 0 148 21Q148 41 176 41H282V258L102 530H78Q50 530 50 551Q50 571 78 571H190Q218 571 218 551Q218 530 190 530H150L303 299L453 530H413Q385 530 385 551Q385 571 413 571H525Q553 571 553 551Q553 530 525 530H501L323 258V41ZM280 633L277 630Q269 623 261 623Q253 623 247 629T241 644Q241 650 243 653T253 664L368 764Q375 770 378 772T387 774Q395 774 401 768T408 753Q408 747 406 744T395 733L280 633Z"  />
<glyph unicode="&#xDE;" d="M213 454H355Q395 454 430 441T491 406T531 353T546 286Q546 250 531 219T487 165T422 129T341 116H213V41H353Q381 41 381 21Q381 0 353 0H117Q89 0 89 21Q89 41 117 41H172V530H117Q89 530 89 551Q89 563 99 568Q102 570 106 570T129 571H353Q381 571 381 551Q381 530 353 530H213V454ZM344 158Q377 158 406 168T457 195T492 236T505 286Q505 312 494 335T462 375T416 402T359 412H213V158H344Z"  />
<glyph unicode="&#xDF;" d="M128 483Q128 510 139 533T170 575T216 603T272 613Q303 613 330 602T377 570T408 522T420 464Q420 433 406 409T361 364Q394 350 413 338T451 305Q505 245 505 162Q505 124 495 92T467 35T425 -2T372 -16Q349 -16 330 -7T296 18T273 55T265 102Q265 125 286 125Q305 125 306 101Q308 66 325 46T372 25Q391 25 408 35T437 64T457 108T464 163Q464 202 448 236T403 294Q379 314 346 326T285 339H280H276Q253 339 253 360Q253 380 275 380H282Q297 380 314 386T346 404Q379 428 379 466Q379 488 371 507T348 540T314 562T272 571Q229 571 199 546T169 483V41H184Q212 41 212 21Q212 0 184 0H73Q45 0 45 21Q45 41 73 41H128V483Z"  />
<glyph unicode="&#xE0;" d="M420 59Q332 -16 229 -16Q159 -16 116 19T72 113Q72 146 87 173T131 219T199 250T287 261Q317 261 347 258T420 246V313Q420 350 386 373T295 396Q276 396 260 394T217 384Q204 381 188 377T161 368Q150 365 147 364T141 363Q133 363 128 369T122 384Q122 398 139 404Q166 414 221 427Q246 433 262 435T298 437Q334 437 363 428T415 402T449 363T461 313V41H516Q544 41 544 21Q544 0 516 0H420V59ZM420 204Q394 212 359 216T291 220Q252 220 220 212T164 190T127 157T114 113Q114 73 145 49T227 25Q281 25 325 45T420 114V204ZM351 518L354 515L361 507L364 498Q364 490 358 484T343 477Q335 477 324 487L209 587Q201 593 199 597T197 607Q197 616 203 622T217 628Q222 628 225 626T236 618L351 518Z"  />
<glyph unicode="&#xE1;" d="M420 59Q332 -16 229 -16Q159 -16 116 19T72 113Q72 146 87 173T131 219T199 250T287 261Q317 261 347 258T420 246V313Q420 350 386 373T295 396Q276 396 260 394T217 384Q204 381 188 377T161 368Q150 365 147 364T141 363Q133 363 128 369T122 384Q122 398 139 404Q166 414 221 427Q246 433 262 435T298 437Q334 437 363 428T415 402T449 363T461 313V41H516Q544 41 544 21Q544 0 516 0H420V59ZM420 204Q394 212 359 216T291 220Q252 220 220 212T164 190T127 157T114 113Q114 73 145 49T227 25Q281 25 325 45T420 114V204ZM280 487L277 484Q269 477 261 477Q253 477 247 483T241 498Q241 504 243 507T253 518L368 618Q375 624 378 626T387 628Q395 628 401 622T408 607Q408 601 406 598T395 587L280 487Z"  />
<glyph unicode="&#xE2;" d="M420 59Q332 -16 229 -16Q159 -16 116 19T72 113Q72 146 87 173T131 219T199 250T287 261Q317 261 347 258T420 246V313Q420 350 386 373T295 396Q276 396 260 394T217 384Q204 381 188 377T161 368Q150 365 147 364T141 363Q133 363 128 369T122 384Q122 398 139 404Q166 414 221 427Q246 433 262 435T298 437Q334 437 363 428T415 402T449 363T461 313V41H516Q544 41 544 21Q544 0 516 0H420V59ZM420 204Q394 212 359 216T291 220Q252 220 220 212T164 190T127 157T114 113Q114 73 145 49T227 25Q281 25 325 45T420 114V204ZM434 518L438 515Q448 508 448 497Q446 477 427 477Q419 477 413 482L410 485L302 568L194 485Q188 480 185 479T177 477Q158 477 156 498Q157 504 159 508T170 518L302 619L434 518Z"  />
<glyph unicode="&#xE3;" d="M420 59Q332 -16 229 -16Q159 -16 116 19T72 113Q72 146 87 173T131 219T199 250T287 261Q317 261 347 258T420 246V313Q420 350 386 373T295 396Q276 396 260 394T217 384Q204 381 188 377T161 368Q150 365 147 364T141 363Q133 363 128 369T122 384Q122 398 139 404Q166 414 221 427Q246 433 262 435T298 437Q334 437 363 428T415 402T449 363T461 313V41H516Q544 41 544 21Q544 0 516 0H420V59ZM420 204Q394 212 359 216T291 220Q252 220 220 212T164 190T127 157T114 113Q114 73 145 49T227 25Q281 25 325 45T420 114V204ZM320 530Q351 509 366 509Q377 509 388 516T422 542Q430 549 437 549Q445 549 451 543T457 529Q457 522 453 516T432 497Q412 481 398 475T366 468Q349 468 330 476T282 506Q265 519 256 523T237 527Q220 527 194 506L182 494Q176 488 166 488Q158 488 152 493T146 507Q146 520 168 537Q189 554 205 561T237 568Q252 568 267 562T305 540L320 530Z"  />
<glyph unicode="&#xE4;" d="M420 59Q332 -16 229 -16Q159 -16 116 19T72 113Q72 146 87 173T131 219T199 250T287 261Q317 261 347 258T420 246V313Q420 350 386 373T295 396Q276 396 260 394T217 384Q204 381 188 377T161 368Q150 365 147 364T141 363Q133 363 128 369T122 384Q122 398 139 404Q166 414 221 427Q246 433 262 435T298 437Q334 437 363 428T415 402T449 363T461 313V41H516Q544 41 544 21Q544 0 516 0H420V59ZM420 204Q394 212 359 216T291 220Q252 220 220 212T164 190T127 157T114 113Q114 73 145 49T227 25Q281 25 325 45T420 114V204ZM237 539Q237 522 226 511T197 499Q181 499 170 510T158 539Q158 556 169 567T197 579Q214 579 225 568T237 539ZM447 539Q447 522 436 511T407 499Q390 499 379 510T367 539Q367 556 378 567T407 579Q424 579 435 568T447 539Z"  />
<glyph unicode="&#xE5;" d="M420 59Q332 -16 229 -16Q159 -16 116 19T72 113Q72 146 87 173T131 219T199 250T287 261Q317 261 347 258T420 246V313Q420 350 386 373T295 396Q276 396 260 394T217 384Q204 381 188 377T161 368Q150 365 147 364T141 363Q133 363 128 369T122 384Q122 398 139 404Q166 414 221 427Q246 433 262 435T298 437Q334 437 363 428T415 402T449 363T461 313V41H516Q544 41 544 21Q544 0 516 0H420V59ZM420 204Q394 212 359 216T291 220Q252 220 220 212T164 190T127 157T114 113Q114 73 145 49T227 25Q281 25 325 45T420 114V204ZM390 558Q390 522 365 497T302 471Q265 471 240 496T214 558Q214 594 239 619T302 645Q339 645 364 620T390 558ZM361 558Q361 582 344 598T302 615Q277 615 260 599T243 558Q243 534 260 517T302 500Q327 500 344 517T361 558Z"  />
<glyph unicode="&#xE6;" d="M324 201Q327 163 337 131T362 76T396 39T436 25Q459 25 485 38T548 82Q553 86 556 87T564 89Q573 89 578 83T584 68Q584 60 577 53T550 31Q481 -16 436 -16Q404 -16 375 4T326 62H324V28Q324 0 303 0Q282 0 282 28V49Q265 31 250 19T221 -1T193 -12T163 -16Q131 -16 103 -3T55 32T22 83T10 147Q10 171 20 187T57 220Q89 239 125 250T193 261Q239 261 282 248V309Q282 325 275 341T257 369T232 388T201 396Q184 396 157 388T108 369Q97 363 90 363Q82 363 77 369T71 383Q71 399 100 410Q136 424 160 430T203 437Q239 437 270 413T316 350Q343 396 370 416T433 437Q470 437 503 410T559 334Q573 305 578 275T584 201H324ZM543 242Q538 275 528 303T503 352T470 384T432 396Q413 396 396 385T364 352T339 303T324 242H543ZM282 205Q241 219 198 219Q181 219 163 216T127 208T95 195T70 180Q51 164 51 143Q51 119 59 98T83 60T118 35T161 25Q190 25 218 44T282 112V205Z"  />
<glyph unicode="&#xE7;" d="M288 -15Q243 -11 206 7T143 54T101 123T86 208Q86 257 103 299T151 372T223 420T315 438Q408 438 473 381V395Q473 423 494 423Q515 423 515 395L514 302Q514 275 494 275Q476 275 473 299Q471 319 458 337T423 368T373 388T313 396Q272 396 238 382T179 344T141 285T127 208Q127 168 141 135T179 77T238 39T314 25Q368 25 416 44T501 99Q507 105 510 107T519 109Q527 109 533 103T539 89Q539 80 528 67T496 40Q458 14 412 0T317 -16V-52Q344 -55 359 -70Q375 -84 375 -105Q375 -131 356 -147T305 -163Q288 -163 269 -158T235 -145Q218 -137 218 -126Q218 -120 222 -116T233 -111Q236 -111 243 -115Q276 -133 304 -133Q321 -133 333 -125T345 -104Q345 -94 334 -87T308 -79H288V-15Z"  />
<glyph unicode="&#xE8;" d="M106 202Q111 162 128 130T172 74T234 38T311 25Q359 25 408 40T489 80Q495 85 498 86T506 87Q514 87 519 81T525 67Q525 47 476 23Q438 4 396 -6T311 -16Q259 -16 214 2T136 52T84 127T65 220Q65 266 83 305T132 374T205 420T295 437Q344 437 386 420T459 373T507 302T524 212V202H106ZM484 243Q478 277 461 305T419 354T363 385T295 396Q222 396 171 355T106 243H484ZM351 518L354 515L361 507L364 498Q364 490 358 484T343 477Q335 477 324 487L209 587Q201 593 199 597T197 607Q197 616 203 622T217 628Q222 628 225 626T236 618L351 518Z"  />
<glyph unicode="&#xE9;" d="M106 202Q111 162 128 130T172 74T234 38T311 25Q359 25 408 40T489 80Q495 85 498 86T506 87Q514 87 519 81T525 67Q525 47 476 23Q438 4 396 -6T311 -16Q259 -16 214 2T136 52T84 127T65 220Q65 266 83 305T132 374T205 420T295 437Q344 437 386 420T459 373T507 302T524 212V202H106ZM484 243Q478 277 461 305T419 354T363 385T295 396Q222 396 171 355T106 243H484ZM280 487L277 484Q269 477 261 477Q253 477 247 483T241 498Q241 504 243 507T253 518L368 618Q375 624 378 626T387 628Q395 628 401 622T408 607Q408 601 406 598T395 587L280 487Z"  />
<glyph unicode="&#xEA;" d="M106 202Q111 162 128 130T172 74T234 38T311 25Q359 25 408 40T489 80Q495 85 498 86T506 87Q514 87 519 81T525 67Q525 47 476 23Q438 4 396 -6T311 -16Q259 -16 214 2T136 52T84 127T65 220Q65 266 83 305T132 374T205 420T295 437Q344 437 386 420T459 373T507 302T524 212V202H106ZM484 243Q478 277 461 305T419 354T363 385T295 396Q222 396 171 355T106 243H484ZM434 518L438 515Q448 508 448 497Q446 477 427 477Q419 477 413 482L410 485L302 568L194 485Q188 480 185 479T177 477Q158 477 156 498Q157 504 159 508T170 518L302 619L434 518Z"  />
<glyph unicode="&#xEB;" d="M106 202Q111 162 128 130T172 74T234 38T311 25Q359 25 408 40T489 80Q495 85 498 86T506 87Q514 87 519 81T525 67Q525 47 476 23Q438 4 396 -6T311 -16Q259 -16 214 2T136 52T84 127T65 220Q65 266 83 305T132 374T205 420T295 437Q344 437 386 420T459 373T507 302T524 212V202H106ZM484 243Q478 277 461 305T419 354T363 385T295 396Q222 396 171 355T106 243H484ZM237 539Q237 522 226 511T197 499Q181 499 170 510T158 539Q158 556 169 567T197 579Q214 579 225 568T237 539ZM447 539Q447 522 436 511T407 499Q390 499 379 510T367 539Q367 556 378 567T407 579Q424 579 435 568T447 539Z"  />
<glyph unicode="&#xEC;" d="M323 41H484Q511 41 511 21Q511 0 484 0H120Q93 0 93 21Q93 41 120 41H281V381H162Q134 381 134 402Q134 423 162 423H323V41ZM352 518L355 515L362 507L365 498Q365 490 359 484T344 477Q336 477 325 487L210 587Q202 593 200 597T198 607Q198 616 204 622T218 628Q223 628 226 626T237 618L352 518Z"  />
<glyph unicode="&#xED;" d="M323 41H484Q511 41 511 21Q511 0 484 0H120Q93 0 93 21Q93 41 120 41H281V381H162Q134 381 134 402Q134 423 162 423H323V41ZM281 487L278 484Q270 477 262 477Q254 477 248 483T242 498Q242 504 244 507T254 518L369 618Q376 624 379 626T388 628Q396 628 402 622T409 607Q409 601 407 598T396 587L281 487Z"  />
<glyph unicode="&#xEE;" d="M323 41H484Q511 41 511 21Q511 0 484 0H120Q93 0 93 21Q93 41 120 41H281V381H162Q134 381 134 402Q134 423 162 423H323V41ZM435 518L439 515Q449 508 449 497Q447 477 428 477Q420 477 414 482L411 485L303 568L195 485Q189 480 186 479T178 477Q159 477 157 498Q158 504 160 508T171 518L303 619L435 518Z"  />
<glyph unicode="&#xEF;" d="M323 41H484Q511 41 511 21Q511 0 484 0H120Q93 0 93 21Q93 41 120 41H281V381H162Q134 381 134 402Q134 423 162 423H323V41ZM238 539Q238 522 227 511T198 499Q182 499 171 510T159 539Q159 556 170 567T198 579Q215 579 226 568T238 539ZM448 539Q448 522 437 511T408 499Q391 499 380 510T368 539Q368 556 379 567T408 579Q425 579 436 568T448 539Z"  />
<glyph unicode="&#xF0;" d="M371 578L404 590Q444 605 456 605Q474 605 475 585Q473 575 467 571T441 561Q431 558 418 555T391 548Q414 528 428 512T455 479Q525 382 525 243Q525 173 507 124T452 43Q420 14 379 0T293 -15Q241 -15 198 3T123 59Q95 91 80 130T65 210Q65 255 82 294T130 363T201 409T289 426Q329 426 367 413T435 376Q448 365 456 355T476 324L478 326Q469 361 460 387T437 435T404 478T356 524L347 532L329 525L269 504L217 487Q203 482 196 480T181 477Q160 478 160 496Q160 511 196 523L244 537Q260 542 268 544T283 548T293 551T305 553V555Q286 560 272 563T238 568Q205 572 205 591Q205 599 212 604T232 610Q261 610 294 600T356 573L371 578ZM295 23Q328 23 362 35T421 68Q449 92 464 127T480 204Q480 243 466 276T427 333T368 370T294 384Q254 384 220 371T160 333T120 277T105 207Q105 170 120 137T162 78T222 38T295 23Z"  />
<glyph unicode="&#xF1;" d="M170 361Q212 404 246 421T326 438Q359 438 387 427T437 398T471 354T483 299V41H517Q545 41 545 21Q545 0 517 0H407Q380 0 380 21Q380 41 407 41H441V292Q441 339 409 367T324 396Q301 396 284 392T250 378T214 348T170 298V41H216Q243 41 243 21Q243 0 216 0H82Q55 0 55 21Q55 41 82 41H128V381H94Q67 381 67 402Q67 423 94 423H170V361ZM320 530Q351 509 366 509Q377 509 388 516T422 542Q430 549 437 549Q445 549 451 543T457 529Q457 522 453 516T432 497Q412 481 398 475T366 468Q349 468 330 476T282 506Q265 519 256 523T237 527Q220 527 194 506L182 494Q176 488 166 488Q158 488 152 493T146 507Q146 520 168 537Q189 554 205 561T237 568Q252 568 267 562T305 540L320 530Z"  />
<glyph unicode="&#xF2;" d="M531 211Q531 164 513 123T464 50T392 2T302 -16Q255 -16 213 1T140 50T91 122T73 211Q73 258 91 299T140 371T213 419T302 437Q350 437 391 420T464 371T513 299T531 211ZM490 211Q490 249 475 283T435 342T375 381T302 396Q263 396 229 382T170 342T129 283T114 211Q114 172 129 139T169 80T229 40T302 25Q341 25 375 39T434 79T475 138T490 211ZM351 518L354 515L361 507L364 498Q364 490 358 484T343 477Q335 477 324 487L209 587Q201 593 199 597T197 607Q197 616 203 622T217 628Q222 628 225 626T236 618L351 518Z"  />
<glyph unicode="&#xF3;" d="M531 211Q531 164 513 123T464 50T392 2T302 -16Q255 -16 213 1T140 50T91 122T73 211Q73 258 91 299T140 371T213 419T302 437Q350 437 391 420T464 371T513 299T531 211ZM490 211Q490 249 475 283T435 342T375 381T302 396Q263 396 229 382T170 342T129 283T114 211Q114 172 129 139T169 80T229 40T302 25Q341 25 375 39T434 79T475 138T490 211ZM280 487L277 484Q269 477 261 477Q253 477 247 483T241 498Q241 504 243 507T253 518L368 618Q375 624 378 626T387 628Q395 628 401 622T408 607Q408 601 406 598T395 587L280 487Z"  />
<glyph unicode="&#xF4;" d="M531 211Q531 164 513 123T464 50T392 2T302 -16Q255 -16 213 1T140 50T91 122T73 211Q73 258 91 299T140 371T213 419T302 437Q350 437 391 420T464 371T513 299T531 211ZM490 211Q490 249 475 283T435 342T375 381T302 396Q263 396 229 382T170 342T129 283T114 211Q114 172 129 139T169 80T229 40T302 25Q341 25 375 39T434 79T475 138T490 211ZM434 518L438 515Q448 508 448 497Q446 477 427 477Q419 477 413 482L410 485L302 568L194 485Q188 480 185 479T177 477Q158 477 156 498Q157 504 159 508T170 518L302 619L434 518Z"  />
<glyph unicode="&#xF5;" d="M531 211Q531 164 513 123T464 50T392 2T302 -16Q255 -16 213 1T140 50T91 122T73 211Q73 258 91 299T140 371T213 419T302 437Q350 437 391 420T464 371T513 299T531 211ZM490 211Q490 249 475 283T435 342T375 381T302 396Q263 396 229 382T170 342T129 283T114 211Q114 172 129 139T169 80T229 40T302 25Q341 25 375 39T434 79T475 138T490 211ZM320 530Q351 509 366 509Q377 509 388 516T422 542Q430 549 437 549Q445 549 451 543T457 529Q457 522 453 516T432 497Q412 481 398 475T366 468Q349 468 330 476T282 506Q265 519 256 523T237 527Q220 527 194 506L182 494Q176 488 166 488Q158 488 152 493T146 507Q146 520 168 537Q189 554 205 561T237 568Q252 568 267 562T305 540L320 530Z"  />
<glyph unicode="&#xF6;" d="M531 211Q531 164 513 123T464 50T392 2T302 -16Q255 -16 213 1T140 50T91 122T73 211Q73 258 91 299T140 371T213 419T302 437Q350 437 391 420T464 371T513 299T531 211ZM490 211Q490 249 475 283T435 342T375 381T302 396Q263 396 229 382T170 342T129 283T114 211Q114 172 129 139T169 80T229 40T302 25Q341 25 375 39T434 79T475 138T490 211ZM237 539Q237 522 226 511T197 499Q181 499 170 510T158 539Q158 556 169 567T197 579Q214 579 225 568T237 539ZM447 539Q447 522 436 511T407 499Q390 499 379 510T367 539Q367 556 378 567T407 579Q424 579 435 568T447 539Z"  />
<glyph unicode="&#xF7;" d="M129 265Q112 265 103 265T90 265T84 266T81 269Q72 275 72 286Q72 296 82 303Q84 304 85 304T91 305T103 306T129 306H475Q492 306 501 306T514 306T520 304T523 302Q532 296 532 286Q532 275 522 268Q520 267 519 267T513 266T500 265T475 265H129ZM342 94Q342 77 331 66T302 54Q285 54 274 65T262 94Q262 111 273 122T302 133Q319 133 330 122T342 94ZM342 477Q342 460 331 449T302 438Q285 438 274 449T262 477Q262 494 273 505T302 517Q319 517 330 506T342 477Z"  />
<glyph unicode="&#xF8;" d="M97 -31Q90 -38 86 -40T77 -42Q69 -42 63 -36T57 -21Q57 -12 67 -2L127 60Q98 91 83 130T68 211Q68 258 86 299T137 371T211 419T303 437Q384 437 449 389L510 451Q521 463 529 463Q538 463 544 457T550 442Q550 437 548 433T539 423L479 361Q508 330 523 292T539 211Q539 164 521 123T470 50T395 2T303 -16Q224 -16 158 32L97 -31ZM187 62Q239 25 303 25Q343 25 379 39T441 79T482 138T498 211Q498 244 486 275T451 332L187 62ZM420 359Q368 396 303 396Q263 396 228 382T166 342T125 283T109 211Q109 144 156 89L420 359Z"  />
<glyph unicode="&#xF9;" d="M442 60Q358 -16 260 -16Q201 -16 165 20T129 117V381H74Q46 381 46 402Q46 423 74 423H170V117Q170 77 195 51T259 25Q359 25 442 117V381H367Q339 381 339 402Q339 423 367 423H483V41H518Q545 41 545 21Q545 0 518 0H442V60ZM351 518L354 515L361 507L364 498Q364 490 358 484T343 477Q335 477 324 487L209 587Q201 593 199 597T197 607Q197 616 203 622T217 628Q222 628 225 626T236 618L351 518Z"  />
<glyph unicode="&#xFA;" d="M442 60Q358 -16 260 -16Q201 -16 165 20T129 117V381H74Q46 381 46 402Q46 423 74 423H170V117Q170 77 195 51T259 25Q359 25 442 117V381H367Q339 381 339 402Q339 423 367 423H483V41H518Q545 41 545 21Q545 0 518 0H442V60ZM280 487L277 484Q269 477 261 477Q253 477 247 483T241 498Q241 504 243 507T253 518L368 618Q375 624 378 626T387 628Q395 628 401 622T408 607Q408 601 406 598T395 587L280 487Z"  />
<glyph unicode="&#xFB;" d="M442 60Q358 -16 260 -16Q201 -16 165 20T129 117V381H74Q46 381 46 402Q46 423 74 423H170V117Q170 77 195 51T259 25Q359 25 442 117V381H367Q339 381 339 402Q339 423 367 423H483V41H518Q545 41 545 21Q545 0 518 0H442V60ZM434 518L438 515Q448 508 448 497Q446 477 427 477Q419 477 413 482L410 485L302 568L194 485Q188 480 185 479T177 477Q158 477 156 498Q157 504 159 508T170 518L302 619L434 518Z"  />
<glyph unicode="&#xFC;" d="M442 60Q358 -16 260 -16Q201 -16 165 20T129 117V381H74Q46 381 46 402Q46 423 74 423H170V117Q170 77 195 51T259 25Q359 25 442 117V381H367Q339 381 339 402Q339 423 367 423H483V41H518Q545 41 545 21Q545 0 518 0H442V60ZM237 539Q237 522 226 511T197 499Q181 499 170 510T158 539Q158 556 169 567T197 579Q214 579 225 568T237 539ZM447 539Q447 522 436 511T407 499Q390 499 379 510T367 539Q367 556 378 567T407 579Q424 579 435 568T447 539Z"  />
<glyph unicode="&#xFD;" d="M114 381H102Q75 381 75 402Q75 411 81 417T97 423H102H214Q242 423 242 402Q242 381 214 381H159L326 45L492 381H437Q409 381 409 402Q409 423 437 423H548Q576 423 576 402Q576 381 548 381H536L276 -147H340Q368 -147 368 -168Q368 -189 340 -189H104Q76 -189 76 -168Q76 -147 104 -147H233L305 0L114 381ZM280 487L277 484Q269 477 261 477Q253 477 247 483T241 498Q241 504 243 507T253 518L368 618Q375 624 378 626T387 628Q395 628 401 622T408 607Q408 601 406 598T395 587L280 487Z"  />
<glyph unicode="&#xFE;" d="M148 348H150Q187 396 228 416T325 437Q371 437 411 421T481 376T528 308T545 224Q545 179 528 140T482 72T412 27T326 10Q215 10 150 100H148V-147H247Q275 -147 275 -168Q275 -189 247 -189H52Q24 -189 24 -168Q24 -147 52 -147H107V571H52Q24 571 24 592Q24 613 52 613H148V348ZM503 224Q503 260 489 291T451 345T395 382T326 396Q289 396 257 383T200 346T162 291T148 224Q148 188 162 157T200 103T256 66T326 52Q363 52 395 65T451 102T489 157T503 224Z"  />
<glyph unicode="&#xFF;" d="M114 381H102Q75 381 75 402Q75 411 81 417T97 423H102H214Q242 423 242 402Q242 381 214 381H159L326 45L492 381H437Q409 381 409 402Q409 423 437 423H548Q576 423 576 402Q576 381 548 381H536L276 -147H340Q368 -147 368 -168Q368 -189 340 -189H104Q76 -189 76 -168Q76 -147 104 -147H233L305 0L114 381ZM237 539Q237 522 226 511T197 499Q181 499 170 510T158 539Q158 556 169 567T197 579Q214 579 225 568T237 539ZM447 539Q447 522 436 511T407 499Q390 499 379 510T367 539Q367 556 378 567T407 579Q424 579 435 568T447 539Z"  />
<glyph unicode="&#x100;" d="M168 191L112 41H191Q218 41 218 21Q218 0 191 0H38Q10 0 10 21Q10 41 38 41H69L251 530H130Q102 530 102 551Q102 571 130 571H336L537 41H568Q595 41 595 21Q595 0 568 0H415Q388 0 388 21Q388 41 415 41H494L437 191H168ZM308 530H293L183 232H422L308 530ZM184 655Q157 655 157 676Q157 696 184 696H421Q448 696 448 676Q448 655 421 655H184Z"  />
<glyph unicode="&#x101;" d="M420 59Q332 -16 229 -16Q159 -16 116 19T72 113Q72 146 87 173T131 219T199 250T287 261Q317 261 347 258T420 246V313Q420 350 386 373T295 396Q276 396 260 394T217 384Q204 381 188 377T161 368Q150 365 147 364T141 363Q133 363 128 369T122 384Q122 398 139 404Q166 414 221 427Q246 433 262 435T298 437Q334 437 363 428T415 402T449 363T461 313V41H516Q544 41 544 21Q544 0 516 0H420V59ZM420 204Q394 212 359 216T291 220Q252 220 220 212T164 190T127 157T114 113Q114 73 145 49T227 25Q281 25 325 45T420 114V204ZM178 525Q151 525 151 546Q151 566 178 566H415Q442 566 442 546Q442 525 415 525H178Z"  />
<glyph unicode="&#x102;" d="M168 191L112 41H191Q218 41 218 21Q218 0 191 0H38Q10 0 10 21Q10 41 38 41H69L251 530H130Q102 530 102 551Q102 571 130 571H336L537 41H568Q595 41 595 21Q595 0 568 0H415Q388 0 388 21Q388 41 415 41H494L437 191H168ZM308 530H293L183 232H422L308 530ZM177 764Q195 764 198 740Q200 709 230 689T303 668Q345 668 375 688T409 740Q410 764 429 764Q439 764 444 758T450 741Q450 717 439 696T408 660T361 636T303 627Q272 627 245 636T199 660T168 696T156 741Q156 751 162 757T177 764Z"  />
<glyph unicode="&#x103;" d="M420 59Q332 -16 229 -16Q159 -16 116 19T72 113Q72 146 87 173T131 219T199 250T287 261Q317 261 347 258T420 246V313Q420 350 386 373T295 396Q276 396 260 394T217 384Q204 381 188 377T161 368Q150 365 147 364T141 363Q133 363 128 369T122 384Q122 398 139 404Q166 414 221 427Q246 433 262 435T298 437Q334 437 363 428T415 402T449 363T461 313V41H516Q544 41 544 21Q544 0 516 0H420V59ZM420 204Q394 212 359 216T291 220Q252 220 220 212T164 190T127 157T114 113Q114 73 145 49T227 25Q281 25 325 45T420 114V204ZM182 634Q200 634 203 610Q205 579 235 559T308 538Q350 538 380 558T414 610Q415 634 434 634Q444 634 449 628T455 611Q455 587 444 566T413 530T366 506T308 497Q277 497 250 506T204 530T173 566T161 611Q161 621 167 627T182 634Z"  />
<glyph unicode="&#x104;" d="M568 41Q580 41 587 37T595 21Q595 13 590 7T572 0Q537 0 521 -21T504 -65Q504 -85 518 -97T559 -109Q577 -109 586 -104T608 -88Q610 -86 611 -86T615 -87Q631 -87 631 -103Q631 -111 625 -118T608 -130T584 -138T558 -142Q520 -142 496 -121T471 -62Q471 -27 495 0H415Q387 0 387 21Q387 29 393 35T410 41H493L437 191H167L112 41H195Q206 41 212 35T218 21Q218 13 212 7T195 0H33Q22 0 16 6T10 21Q10 29 16 35T33 41H69L250 530H125Q114 530 108 536T102 551Q102 559 108 565T125 571H336L536 41H568ZM421 232L308 530H293L183 232H421Z"  />
<glyph unicode="&#x105;" d="M420 0V59Q331 -16 229 -16Q192 -16 163 -6T114 21T83 62T72 113Q72 173 127 216Q182 261 287 261Q315 261 348 258T420 246V312Q420 346 389 371T295 396Q245 396 161 368Q143 363 141 363Q133 363 128 369T122 384Q122 392 127 397Q132 403 182 417Q260 437 297 437Q374 437 418 399Q461 362 461 312V41H516Q544 41 544 21Q544 12 537 6Q533 2 529 1Q526 0 518 0H516Q499 -3 486 -19Q472 -36 472 -58Q472 -75 485 -86T521 -98Q543 -98 559 -84Q566 -77 572 -77Q586 -77 586 -92Q586 -102 572 -111Q550 -127 520 -127Q484 -127 463 -107T442 -55Q442 -25 462 0H420ZM420 204Q363 220 291 220Q203 220 151 182Q113 153 113 113Q113 76 141 51T227 25Q281 25 326 45T420 114V204Z"  />
<glyph unicode="&#x106;" d="M482 544Q482 571 503 571Q524 571 524 544V430Q524 403 503 403Q483 403 482 427Q480 450 466 471T427 508T372 533T308 543Q222 543 165 480Q137 449 121 408T105 324V252Q105 206 123 165T171 93T241 44T326 25Q378 25 418 46T501 117Q506 123 510 125T519 127Q539 127 539 108Q539 92 500 56Q463 21 419 3T326 -16Q274 -16 227 5T143 63T86 146T64 246V330Q64 377 83 426T136 510Q170 546 214 565T308 585Q409 585 482 515V544ZM256 648L253 645Q245 638 237 638Q229 638 223 644T217 659Q217 665 219 668T229 679L344 779Q351 785 354 787T363 789Q371 789 377 783T384 768Q384 762 382 759T371 748L256 648Z"  />
<glyph unicode="&#x107;" d="M473 395Q473 423 494 423Q515 423 515 395L514 302Q514 275 494 275Q476 275 473 299Q471 319 458 337T423 368T373 388T313 396Q272 396 238 382T179 344T141 285T127 208Q127 168 141 135T179 77T238 39T314 25Q368 25 416 44T501 99Q507 105 510 107T519 109Q527 109 533 103T539 89Q539 80 528 67T496 40Q457 13 409 -1T312 -16Q262 -16 221 0T149 47T103 118T86 208Q86 257 103 299T151 372T223 420T315 438Q408 438 473 381V395ZM292 509L289 506Q281 499 273 499Q265 499 259 505T253 520Q253 526 255 529T265 540L380 640Q387 646 390 648T399 650Q407 650 413 644T420 629Q420 623 418 620T407 609L292 509Z"  />
<glyph unicode="&#x108;" d="M482 544Q482 571 503 571Q524 571 524 544V430Q524 403 503 403Q483 403 482 427Q480 450 466 471T427 508T372 533T308 543Q222 543 165 480Q137 449 121 408T105 324V252Q105 206 123 165T171 93T241 44T326 25Q378 25 418 46T501 117Q506 123 510 125T519 127Q539 127 539 108Q539 92 500 56Q463 21 419 3T326 -16Q274 -16 227 5T143 63T86 146T64 246V330Q64 377 83 426T136 510Q170 546 214 565T308 585Q409 585 482 515V544ZM434 664L438 661Q448 654 448 643Q446 623 427 623Q419 623 413 628L410 631L302 714L194 631Q188 626 185 625T177 623Q158 623 156 644Q157 650 159 654T170 664L302 765L434 664Z"  />
<glyph unicode="&#x109;" d="M473 395Q473 423 494 423Q515 423 515 395L514 302Q514 275 494 275Q476 275 473 299Q471 319 458 337T423 368T373 388T313 396Q272 396 238 382T179 344T141 285T127 208Q127 168 141 135T179 77T238 39T314 25Q368 25 416 44T501 99Q507 105 510 107T519 109Q527 109 533 103T539 89Q539 80 528 67T496 40Q457 13 409 -1T312 -16Q262 -16 221 0T149 47T103 118T86 208Q86 257 103 299T151 372T223 420T315 438Q408 438 473 381V395ZM452 539L456 536Q466 529 466 518Q464 498 445 498Q437 498 431 503L428 506L320 589L212 506Q206 501 203 500T195 498Q176 498 174 519Q175 525 177 529T188 539L320 640L452 539Z"  />
<glyph unicode="&#x10A;" d="M482 544Q482 571 503 571Q524 571 524 544V430Q524 403 503 403Q483 403 482 427Q480 450 466 471T427 508T372 533T308 543Q222 543 165 480Q137 449 121 408T105 324V252Q105 206 123 165T171 93T241 44T326 25Q378 25 418 46T501 117Q506 123 510 125T519 127Q539 127 539 108Q539 92 500 56Q463 21 419 3T326 -16Q274 -16 227 5T143 63T86 146T64 246V330Q64 377 83 426T136 510Q170 546 214 565T308 585Q409 585 482 515V544ZM357 690Q357 669 343 655T307 640Q286 640 272 654T257 690Q257 711 271 725T307 740Q328 740 342 726T357 690Z"  />
<glyph unicode="&#x10B;" d="M473 395Q473 423 494 423Q515 423 515 395L514 302Q514 275 494 275Q476 275 473 299Q471 319 458 337T423 368T373 388T313 396Q272 396 238 382T179 344T141 285T127 208Q127 168 141 135T179 77T238 39T314 25Q368 25 416 44T501 99Q507 105 510 107T519 109Q527 109 533 103T539 89Q539 80 528 67T496 40Q457 13 409 -1T312 -16Q262 -16 221 0T149 47T103 118T86 208Q86 257 103 299T151 372T223 420T315 438Q408 438 473 381V395ZM374 560Q374 539 360 525T324 510Q303 510 289 524T274 560Q274 581 288 595T324 610Q345 610 359 596T374 560Z"  />
<glyph unicode="&#x10C;" d="M482 544Q482 571 503 571Q524 571 524 544V430Q524 403 503 403Q483 403 482 427Q480 450 466 471T427 508T372 533T308 543Q222 543 165 480Q137 449 121 408T105 324V252Q105 206 123 165T171 93T241 44T326 25Q378 25 418 46T501 117Q506 123 510 125T519 127Q539 127 539 108Q539 92 500 56Q463 21 419 3T326 -16Q274 -16 227 5T143 63T86 146T64 246V330Q64 377 83 426T136 510Q170 546 214 565T308 585Q409 585 482 515V544ZM169 723L165 725Q156 732 155 743Q156 762 176 764Q184 763 190 758L193 756L301 673L409 755Q415 760 418 761T426 764Q445 762 447 743Q447 736 444 733T433 722L301 622L169 723Z"  />
<glyph unicode="&#x10D;" d="M473 395Q473 423 494 423Q515 423 515 395L514 302Q514 275 494 275Q476 275 473 299Q471 319 458 337T423 368T373 388T313 396Q272 396 238 382T179 344T141 285T127 208Q127 168 141 135T179 77T238 39T314 25Q368 25 416 44T501 99Q507 105 510 107T519 109Q527 109 533 103T539 89Q539 80 528 67T496 40Q457 13 409 -1T312 -16Q262 -16 221 0T149 47T103 118T86 208Q86 257 103 299T151 372T223 420T315 438Q408 438 473 381V395ZM199 593L195 595Q186 602 185 613Q186 632 206 634Q214 633 220 628L223 626L331 543L439 625Q445 630 448 631T456 634Q475 632 477 613Q477 606 474 603T463 592L331 492L199 593Z"  />
<glyph unicode="&#x10E;" d="M141 530H107Q79 530 79 551Q79 571 107 571H327Q375 571 417 551T491 496T541 414T560 314V257Q560 204 542 158T492 76T418 21T327 0H107Q79 0 79 21Q79 41 107 41H141V530ZM331 41Q368 41 402 58T462 104T503 170T519 248V323Q519 363 504 400T462 467T402 513T331 530H182V41H331ZM186 723L182 725Q173 732 172 743Q173 762 193 764Q201 763 207 758L210 756L318 673L426 755Q432 760 435 761T443 764Q462 762 464 743Q464 736 461 733T450 722L318 622L186 723Z"  />
<glyph unicode="&#x10F;" d="M431 613V41H486Q514 41 514 21Q514 0 486 0H390V76Q333 -16 244 -16Q167 -16 115 51Q63 118 63 210Q63 304 116 371Q170 437 245 437Q332 437 390 349V571H335Q308 571 308 592Q308 613 335 613H431ZM390 210Q390 288 348 342Q306 396 247 396Q188 396 146 341Q104 287 104 210Q104 136 145 80Q187 25 247 25Q305 25 347 79Q390 132 390 210ZM547 535Q509 535 509 573Q509 589 519 601T547 613H562Q601 613 601 571Q601 535 571 492Q542 450 529 450Q511 450 511 465Q511 473 526 488Q554 518 559 535H547Z"  />
<glyph unicode="&#x110;" d="M104 276H21Q10 276 4 282T-2 296Q-2 304 4 310T21 317H104V530H65Q54 530 48 536T42 551Q42 559 48 565T65 571H290Q339 571 381 550T455 494T504 413T522 314V257Q522 205 504 159T455 77T382 21T290 0H65Q54 0 48 6T42 21Q42 29 48 35T65 41H104V276ZM145 276V41H294Q333 41 367 59T426 107T466 174T481 249V323Q481 361 467 398T427 464T367 512T294 530H145V317H259Q269 317 279 317T298 316T311 310T316 296Q316 288 310 282T293 276H145Z"  />
<glyph unicode="&#x111;" d="M502 525H556Q572 525 578 520T584 504Q582 500 581 496T577 489T569 485T552 484H502V41H557Q572 41 578 36T584 21Q584 12 578 6T557 0H460V82Q389 -16 279 -16Q224 -16 173 13T92 97Q63 153 63 210Q61 255 79 297T128 371T198 421T280 437Q387 437 460 340V484H338Q303 484 300 485Q286 490 286 504Q286 511 290 516T299 524Q302 525 338 525H460V571H406Q391 571 385 577T378 592Q378 601 384 607T406 613H502V525ZM460 210Q460 289 407 342Q354 396 282 396Q208 396 156 342Q104 290 104 210Q104 132 156 79Q208 25 282 25Q354 25 407 79Q460 134 460 210Z"  />
<glyph unicode="&#x112;" d="M169 41H484V162Q484 190 504 190Q525 190 525 162V0H72Q45 0 45 21Q45 41 72 41H127V530H72Q45 530 45 551Q45 571 72 571H503V430Q503 403 483 403Q462 403 462 430V530H169V317H316V363Q316 391 336 391Q357 391 357 363V230Q357 202 336 202Q316 202 316 230V276H169V41ZM167 622Q140 622 140 643Q140 663 167 663H404Q431 663 431 643Q431 622 404 622H167Z"  />
<glyph unicode="&#x113;" d="M106 202Q111 162 128 130T172 74T234 38T311 25Q359 25 408 40T489 80Q495 85 498 86T506 87Q514 87 519 81T525 67Q525 47 476 23Q438 4 396 -6T311 -16Q259 -16 214 2T136 52T84 127T65 220Q65 266 83 305T132 374T205 420T295 437Q344 437 386 420T459 373T507 302T524 212V202H106ZM484 243Q478 277 461 305T419 354T363 385T295 396Q222 396 171 355T106 243H484ZM187 525Q160 525 160 546Q160 566 187 566H424Q451 566 451 546Q451 525 424 525H187Z"  />
<glyph unicode="&#x114;" d="M169 41H484V162Q484 190 504 190Q525 190 525 162V0H72Q45 0 45 21Q45 41 72 41H127V530H72Q45 530 45 551Q45 571 72 571H503V430Q503 403 483 403Q462 403 462 430V530H169V317H316V363Q316 391 336 391Q357 391 357 363V230Q357 202 336 202Q316 202 316 230V276H169V41ZM179 764Q197 764 200 740Q202 709 232 689T305 668Q347 668 377 688T411 740Q412 764 431 764Q441 764 446 758T452 741Q452 717 441 696T410 660T363 636T305 627Q274 627 247 636T201 660T170 696T158 741Q158 751 164 757T179 764Z"  />
<glyph unicode="&#x115;" d="M106 202Q111 162 128 130T172 74T234 38T311 25Q359 25 408 40T489 80Q495 85 498 86T506 87Q514 87 519 81T525 67Q525 47 476 23Q438 4 396 -6T311 -16Q259 -16 214 2T136 52T84 127T65 220Q65 266 83 305T132 374T205 420T295 437Q344 437 386 420T459 373T507 302T524 212V202H106ZM484 243Q478 277 461 305T419 354T363 385T295 396Q222 396 171 355T106 243H484ZM177 634Q195 634 198 610Q200 579 230 559T303 538Q345 538 375 558T409 610Q410 634 429 634Q439 634 444 628T450 611Q450 587 439 566T408 530T361 506T303 497Q272 497 245 506T199 530T168 566T156 611Q156 621 162 627T177 634Z"  />
<glyph unicode="&#x116;" d="M169 41H484V162Q484 190 504 190Q525 190 525 162V0H72Q45 0 45 21Q45 41 72 41H127V530H72Q45 530 45 551Q45 571 72 571H503V430Q503 403 483 403Q462 403 462 430V530H169V317H316V363Q316 391 336 391Q357 391 357 363V230Q357 202 336 202Q316 202 316 230V276H169V41ZM336 690Q336 669 322 655T286 640Q265 640 251 654T236 690Q236 711 250 725T286 740Q307 740 321 726T336 690Z"  />
<glyph unicode="&#x117;" d="M106 202Q111 162 128 130T172 74T234 38T311 25Q359 25 408 40T489 80Q495 85 498 86T506 87Q514 87 519 81T525 67Q525 47 476 23Q438 4 396 -6T311 -16Q259 -16 214 2T136 52T84 127T65 220Q65 266 83 305T132 374T205 420T295 437Q344 437 386 420T459 373T507 302T524 212V202H106ZM484 243Q478 277 461 305T419 354T363 385T295 396Q222 396 171 355T106 243H484ZM356 560Q356 539 342 525T306 510Q285 510 271 524T256 560Q256 581 270 595T306 610Q327 610 341 596T356 560Z"  />
<glyph unicode="&#x118;" d="M314 276H167V41H482V167Q482 178 488 184T503 190Q523 190 523 162V0H507Q481 0 463 -19T444 -65Q444 -85 458 -97T499 -109Q517 -109 526 -104T548 -88Q550 -86 551 -86T554 -87Q561 -87 566 -91T571 -103Q571 -111 565 -118T548 -130T524 -138T497 -142Q459 -142 435 -121T411 -62Q411 -26 434 0H66Q55 0 49 6T43 21Q43 29 49 35T66 41H126V530H66Q55 530 49 536T43 551Q43 559 49 565T66 571H502V426Q502 415 496 409T481 403Q473 403 467 409T461 426V530H167V317H314V368Q314 379 320 385T334 391Q345 391 350 383T355 363V230Q355 202 334 202Q326 202 320 208T314 225V276Z"  />
<glyph unicode="&#x119;" d="M107 202Q117 124 174 73Q229 25 312 25Q335 25 360 29T408 40T453 57T490 80Q500 87 506 87Q514 87 520 81T526 67Q526 59 518 51Q496 26 435 5Q381 -15 324 -16H323H321Q304 -19 291 -34Q277 -51 277 -73Q277 -90 290 -101T326 -113Q348 -113 364 -99Q371 -92 377 -92Q383 -92 387 -96T392 -107Q392 -117 378 -126Q356 -142 325 -142Q290 -142 269 -122T248 -70Q248 -37 269 -13Q191 -1 136 53Q65 122 65 220Q65 310 131 373Q198 437 295 437Q396 437 461 371Q526 305 525 202H107ZM483 243Q471 312 419 353Q367 396 295 396Q224 396 172 354Q121 313 107 243H483Z"  />
<glyph unicode="&#x11A;" d="M169 41H484V162Q484 190 504 190Q525 190 525 162V0H72Q45 0 45 21Q45 41 72 41H127V530H72Q45 530 45 551Q45 571 72 571H503V430Q503 403 483 403Q462 403 462 430V530H169V317H316V363Q316 391 336 391Q357 391 357 363V230Q357 202 336 202Q316 202 316 230V276H169V41ZM169 720L165 722Q156 729 155 740Q156 759 176 761Q184 760 190 755L193 753L301 670L409 752Q415 757 418 758T426 761Q445 759 447 740Q447 733 444 730T433 719L301 619L169 720Z"  />
<glyph unicode="&#x11B;" d="M106 202Q111 162 128 130T172 74T234 38T311 25Q359 25 408 40T489 80Q495 85 498 86T506 87Q514 87 519 81T525 67Q525 47 476 23Q438 4 396 -6T311 -16Q259 -16 214 2T136 52T84 127T65 220Q65 266 83 305T132 374T205 420T295 437Q344 437 386 420T459 373T507 302T524 212V202H106ZM484 243Q478 277 461 305T419 354T363 385T295 396Q222 396 171 355T106 243H484ZM187 593L183 595Q174 602 173 613Q174 632 194 634Q202 633 208 628L211 626L319 543L427 625Q433 630 436 631T444 634Q463 632 465 613Q465 606 462 603T451 592L319 492L187 593Z"  />
<glyph unicode="&#x11C;" d="M525 36Q430 -16 337 -16Q275 -16 225 2T140 55T85 138T65 247V322Q65 377 84 425T137 508T217 564T316 585Q416 585 484 530V544Q484 571 504 571Q525 571 525 544V451Q525 424 505 424Q487 424 484 449Q483 468 470 485T434 515T382 535T319 543Q234 543 179 489Q145 457 126 412T106 322V247Q106 196 122 155T169 85T242 41T340 25Q359 25 376 27T410 33T445 43T484 60V212H343Q315 212 315 233Q315 253 343 253H540Q567 253 567 233Q567 212 540 212H525V36ZM439 664L443 661Q453 654 453 643Q451 623 432 623Q424 623 418 628L415 631L307 714L199 631Q193 626 190 625T182 623Q163 623 161 644Q162 650 164 654T175 664L307 765L439 664Z"  />
<glyph unicode="&#x11D;" d="M440 423H536Q564 423 564 402Q564 381 536 381H481V-28Q481 -60 471 -85T438 -135Q412 -163 382 -176T314 -189H198Q171 -189 171 -168Q171 -147 198 -147H316Q342 -147 364 -138T404 -111T430 -71T440 -22V100H438Q375 10 270 10Q228 10 190 27T124 73T80 141T63 224Q63 268 79 306T124 374T190 420T270 437Q376 437 438 347H440V423ZM440 224Q440 260 427 291T391 345T338 382T272 396Q237 396 207 383T153 346T117 291T104 224Q104 188 117 157T153 103T206 66T272 52Q307 52 337 65T391 102T427 157T440 224ZM429 539L433 536Q443 529 443 518Q441 498 422 498Q414 498 408 503L405 506L297 589L189 506Q183 501 180 500T172 498Q153 498 151 519Q152 525 154 529T165 539L297 640L429 539Z"  />
<glyph unicode="&#x11E;" d="M525 36Q430 -16 337 -16Q275 -16 225 2T140 55T85 138T65 247V322Q65 377 84 425T137 508T217 564T316 585Q416 585 484 530V544Q484 571 504 571Q525 571 525 544V451Q525 424 505 424Q487 424 484 449Q483 468 470 485T434 515T382 535T319 543Q234 543 179 489Q145 457 126 412T106 322V247Q106 196 122 155T169 85T242 41T340 25Q359 25 376 27T410 33T445 43T484 60V212H343Q315 212 315 233Q315 253 343 253H540Q567 253 567 233Q567 212 540 212H525V36ZM189 764Q207 764 210 740Q212 709 242 689T315 668Q357 668 387 688T421 740Q422 764 441 764Q451 764 456 758T462 741Q462 717 451 696T420 660T373 636T315 627Q284 627 257 636T211 660T180 696T168 741Q168 751 174 757T189 764Z"  />
<glyph unicode="&#x11F;" d="M440 423H536Q564 423 564 402Q564 381 536 381H481V-28Q481 -60 471 -85T438 -135Q412 -163 382 -176T314 -189H198Q171 -189 171 -168Q171 -147 198 -147H316Q342 -147 364 -138T404 -111T430 -71T440 -22V100H438Q375 10 270 10Q228 10 190 27T124 73T80 141T63 224Q63 268 79 306T124 374T190 420T270 437Q376 437 438 347H440V423ZM440 224Q440 260 427 291T391 345T338 382T272 396Q237 396 207 383T153 346T117 291T104 224Q104 188 117 157T153 103T206 66T272 52Q307 52 337 65T391 102T427 157T440 224ZM176 634Q194 634 197 610Q199 579 229 559T302 538Q344 538 374 558T408 610Q409 634 428 634Q438 634 443 628T449 611Q449 587 438 566T407 530T360 506T302 497Q271 497 244 506T198 530T167 566T155 611Q155 621 161 627T176 634Z"  />
<glyph unicode="&#x120;" d="M525 36Q430 -16 337 -16Q275 -16 225 2T140 55T85 138T65 247V322Q65 377 84 425T137 508T217 564T316 585Q416 585 484 530V544Q484 571 504 571Q525 571 525 544V451Q525 424 505 424Q487 424 484 449Q483 468 470 485T434 515T382 535T319 543Q234 543 179 489Q145 457 126 412T106 322V247Q106 196 122 155T169 85T242 41T340 25Q359 25 376 27T410 33T445 43T484 60V212H343Q315 212 315 233Q315 253 343 253H540Q567 253 567 233Q567 212 540 212H525V36ZM363 690Q363 669 349 655T313 640Q292 640 278 654T263 690Q263 711 277 725T313 740Q334 740 348 726T363 690Z"  />
<glyph unicode="&#x121;" d="M440 423H536Q564 423 564 402Q564 381 536 381H481V-28Q481 -60 471 -85T438 -135Q412 -163 382 -176T314 -189H198Q171 -189 171 -168Q171 -147 198 -147H316Q342 -147 364 -138T404 -111T430 -71T440 -22V100H438Q375 10 270 10Q228 10 190 27T124 73T80 141T63 224Q63 268 79 306T124 374T190 420T270 437Q376 437 438 347H440V423ZM440 224Q440 260 427 291T391 345T338 382T272 396Q237 396 207 383T153 346T117 291T104 224Q104 188 117 157T153 103T206 66T272 52Q307 52 337 65T391 102T427 157T440 224ZM352 560Q352 539 338 525T302 510Q281 510 267 524T252 560Q252 581 266 595T302 610Q323 610 337 596T352 560Z"  />
<glyph unicode="&#x122;" d="M482 549Q482 560 488 566T503 572Q523 572 523 544V451Q523 424 503 424Q483 424 483 449Q483 468 470 485T434 515T381 536T317 544Q267 544 228 524T161 473T119 401T104 322V247Q104 194 121 153T168 84T242 40T339 25Q387 25 420 35T482 60V212H336Q325 212 320 218T314 233Q314 253 341 253H538Q550 253 557 249T565 233Q565 225 560 219T543 212H523V36Q431 -16 336 -16Q276 -16 226 2T140 53T84 136T63 247V322Q63 374 81 421T133 505T212 563T315 585Q414 585 482 530V549ZM327 -59Q347 -59 360 -72T373 -105Q373 -129 363 -154T338 -201T309 -236T284 -250Q280 -250 274 -245T267 -232Q267 -225 273 -218T289 -200T307 -178T323 -150H309Q287 -150 276 -138T264 -105Q264 -88 275 -74T309 -59H327Z"  />
<glyph unicode="&#x123;" d="M440 423H536Q551 423 557 417T564 402Q564 393 558 387T536 381H481V-28Q481 -69 463 -102Q457 -113 447 -124T425 -146T399 -165T374 -178Q353 -188 314 -188H198Q171 -188 171 -168Q171 -159 177 -153T198 -147H316Q352 -147 381 -129T429 -75Q440 -53 440 -22V101Q374 10 270 10Q185 10 124 73Q63 135 63 224Q63 313 124 374Q185 437 270 437Q374 437 440 348V423ZM440 224Q440 296 390 346Q340 396 272 396Q204 396 154 346Q105 297 105 224Q105 151 154 102Q204 52 272 52Q340 52 390 102Q440 152 440 224ZM299 577Q338 577 338 539Q338 522 328 511T299 499H284Q246 499 246 540Q246 576 275 619Q305 661 318 661Q335 661 335 646Q335 640 321 624Q307 608 298 597T287 577H299Z"  />
<glyph unicode="&#x124;" d="M169 276V41H224Q252 41 252 21Q252 0 224 0H82Q54 0 54 21Q54 41 82 41H128V530H102Q75 530 75 551Q75 571 102 571H224Q252 571 252 551Q252 530 224 530H169V317H441V530H386Q359 530 359 551Q359 571 386 571H508Q535 571 535 551Q535 530 508 530H482V41H529Q556 41 556 21Q556 0 529 0H386Q359 0 359 21Q359 41 386 41H441V276H169ZM441 664L445 661Q455 654 455 643Q453 623 434 623Q426 623 420 628L417 631L309 714L201 631Q195 626 192 625T184 623Q165 623 163 644Q164 650 166 654T177 664L309 765L441 664Z"  />
<glyph unicode="&#x125;" d="M167 361Q206 403 241 420T323 438Q357 438 386 428T437 398T470 353T482 295V41H528Q556 41 556 21Q556 0 528 0H395Q367 0 367 21Q367 41 395 41H441V292Q441 340 408 368T320 396Q299 396 283 393T252 380T219 355T179 313L167 301V41H214Q241 41 241 21Q241 0 214 0H80Q53 0 53 21Q53 41 80 41H126V571H71Q44 571 44 592Q44 613 71 613H167V361ZM437 690L441 687Q451 680 451 669Q449 649 430 649Q422 649 416 654L413 657L305 740L197 657Q191 652 188 651T180 649Q161 649 159 670Q160 676 162 680T173 690L305 791L437 690Z"  />
<glyph unicode="&#x126;" d="M128 405H87Q60 405 60 426Q60 447 87 447H128V530H103Q75 530 75 551Q75 571 103 571H224Q252 571 252 551Q252 530 224 530H169V447H441V530H386Q359 530 359 551Q359 571 386 571H508Q536 571 536 551Q536 530 508 530H482V447H523Q551 447 551 426Q551 405 523 405H482V41H529Q556 41 556 21Q556 0 529 0H386Q359 0 359 21Q359 41 386 41H441V276H169V41H224Q252 41 252 21Q252 0 224 0H82Q54 0 54 21Q54 41 82 41H128V405ZM169 405V317H441V405H169Z"  />
<glyph unicode="&#x127;" d="M168 523H322Q350 523 350 502Q350 482 322 482H168V360Q236 437 323 437Q398 437 440 394Q482 350 482 295V41H528Q556 41 556 21Q556 0 528 0H395Q367 0 367 21Q367 41 395 41H441V292Q441 334 411 365T320 396Q282 396 254 381Q225 367 168 301V41H213Q241 41 241 21Q241 0 213 0H80Q53 0 53 21Q53 41 80 41H126V482H60Q32 482 32 502Q32 523 60 523H126V571H71Q44 571 44 592Q44 613 71 613H168V523Z"  />
<glyph unicode="&#x128;" d="M323 41H463Q491 41 491 21Q491 0 463 0H141Q114 0 114 21Q114 41 141 41H282V530H141Q114 530 114 551Q114 571 141 571H463Q491 571 491 551Q491 530 463 530H323V41ZM323 676Q354 655 369 655Q380 655 391 662T425 688Q433 695 440 695Q448 695 454 689T460 675Q460 668 456 662T435 643Q415 627 401 621T369 614Q352 614 333 622T285 652Q268 665 259 669T240 673Q223 673 197 652L185 640Q179 634 169 634Q161 634 155 639T149 653Q149 666 171 683Q192 700 208 707T240 714Q255 714 270 708T308 686L323 676Z"  />
<glyph unicode="&#x129;" d="M323 41H484Q511 41 511 21Q511 0 484 0H120Q93 0 93 21Q93 41 120 41H281V381H162Q134 381 134 402Q134 423 162 423H323V41ZM274 551Q305 530 320 530Q331 530 342 537T376 563Q384 570 391 570Q399 570 405 564T411 550Q411 543 407 537T386 518Q366 502 352 496T320 489Q303 489 284 497T236 527Q219 540 210 544T191 548Q174 548 148 527L136 515Q130 509 120 509Q112 509 106 514T100 528Q100 541 122 558Q143 575 159 582T191 589Q206 589 221 583T259 561L274 551Z"  />
<glyph unicode="&#x12A;" d="M323 41H463Q491 41 491 21Q491 0 463 0H141Q114 0 114 21Q114 41 141 41H282V530H141Q114 530 114 551Q114 571 141 571H463Q491 571 491 551Q491 530 463 530H323V41ZM184 655Q157 655 157 676Q157 696 184 696H421Q448 696 448 676Q448 655 421 655H184Z"  />
<glyph unicode="&#x12B;" d="M323 41H484Q511 41 511 21Q511 0 484 0H120Q93 0 93 21Q93 41 120 41H281V381H162Q134 381 134 402Q134 423 162 423H323V41ZM140 525Q113 525 113 546Q113 566 140 566H377Q404 566 404 546Q404 525 377 525H140Z"  />
<glyph unicode="&#x12E;" d="M338 0Q312 0 294 -19T275 -65Q275 -85 289 -97T330 -109Q348 -109 357 -104T379 -88Q381 -86 382 -86T385 -87Q392 -87 397 -91T402 -103Q402 -111 396 -118T379 -130T355 -138T328 -142Q290 -142 266 -121T242 -62Q242 -26 265 0H137Q126 0 120 6T114 21Q114 29 120 35T137 41H282V530H137Q126 530 120 536T114 551Q114 559 120 565T137 571H468Q480 571 485 565T491 551Q491 543 485 537T468 530H323V41H468Q480 41 485 35T491 21Q491 13 485 7T468 0H338Z"  />
<glyph unicode="&#x12F;" d="M320 633V527H260V633H320ZM336 0Q311 0 292 -18T272 -65Q272 -84 286 -96T327 -109Q352 -109 369 -94Q376 -87 383 -87Q399 -87 399 -103Q399 -115 378 -128T326 -142Q290 -142 265 -122T240 -62Q240 -28 263 0H120Q92 0 92 21Q92 41 120 41H281V381H161Q133 381 133 402Q133 423 161 423H322V41H483Q511 41 511 21Q511 0 483 0H336Z"  />
<glyph unicode="&#x130;" d="M323 41H463Q491 41 491 21Q491 0 463 0H141Q114 0 114 21Q114 41 141 41H282V530H141Q114 530 114 551Q114 571 141 571H463Q491 571 491 551Q491 530 463 530H323V41ZM353 690Q353 669 339 655T303 640Q282 640 268 654T253 690Q253 711 267 725T303 740Q324 740 338 726T353 690Z"  />
<glyph unicode="&#x131;" d="M323 41H484Q511 41 511 21Q511 0 484 0H120Q93 0 93 21Q93 41 120 41H281V381H162Q134 381 134 402Q134 423 162 423H323V41Z"  />
<glyph unicode="&#x132;" d="M137 530V41H201Q229 41 229 21Q229 12 223 6T201 0H32Q17 0 11 6T4 21Q4 41 32 41H96V530H32Q17 530 11 536T4 551Q4 571 32 571H201Q229 571 229 551Q229 542 223 536T201 530H137ZM506 530V168Q506 122 496 88T467 30T424 -4T371 -16Q293 -16 241 75V167Q241 195 262 195Q282 195 282 167V86Q305 53 325 39T371 25Q410 25 434 55Q465 95 465 168V530H345Q330 530 324 536T317 551Q317 571 345 571H568Q596 571 596 551Q596 542 590 536T568 530H506Z"  />
<glyph unicode="&#x133;" d="M213 633V527H153V633H213ZM442 633V527H381V633H442ZM209 423V41H341Q369 41 369 21Q369 12 363 6T341 0H37Q22 0 16 6T9 21Q9 41 37 41H168V381H48Q34 381 28 387T21 402Q21 411 27 417T48 423H209ZM457 381H312Q297 381 291 387T284 402Q284 411 290 417T312 423H498V-29Q498 -81 477 -116T412 -173Q382 -188 342 -188H241Q213 -188 213 -168Q213 -159 219 -153T241 -147H341Q393 -147 425 -114T457 -29V381Z"  />
<glyph unicode="&#x134;" d="M462 168Q462 130 447 97T407 39T347 -1T274 -16Q226 -16 183 5T85 75V226Q85 254 106 254Q127 254 127 226V94Q202 25 275 25Q305 25 332 36T378 66T409 112T421 168V530H260Q233 530 233 551Q233 571 260 571H560Q588 571 588 551Q588 530 560 530H462V168ZM443 664L447 661Q457 654 457 643Q455 623 436 623Q428 623 422 628L419 631L311 714L203 631Q197 626 194 625T186 623Q167 623 165 644Q166 650 168 654T179 664L311 765L443 664Z"  />
<glyph unicode="&#x135;" d="M286 640L418 539Q432 528 432 519Q432 498 411 498Q405 498 394 506L286 589L179 506Q166 498 161 498Q141 498 141 519Q141 529 154 539L286 640ZM361 381H118Q90 381 90 402Q90 423 118 423H402V-29Q402 -102 356 -145Q312 -188 246 -188H115Q88 -188 88 -168Q88 -147 115 -147H245Q272 -147 293 -138T330 -112T353 -74T361 -29V381Z"  />
<glyph unicode="&#x136;" d="M169 224V41H249Q260 41 266 35T272 21Q272 13 266 7T249 0H68Q57 0 51 6T45 21Q45 29 51 35T68 41H128V530H68Q57 530 51 536T45 551Q45 559 51 565T68 571H249Q260 571 266 565T272 551Q272 543 266 537T249 530H169V278L452 530H402Q391 530 385 536T379 551Q379 559 385 565T402 571H532Q544 571 549 565T555 551Q555 543 549 537T532 530H511L285 328Q330 310 360 284T414 222T456 141T497 41H553Q564 41 570 35T576 21Q576 13 570 7T553 0H469Q443 70 421 121T375 207T321 264T251 298L169 224ZM310 -59Q331 -59 343 -72T356 -105Q356 -129 346 -154T322 -201T293 -236T268 -250Q264 -250 257 -245T250 -232Q250 -225 256 -218T272 -200T291 -178T307 -150H293Q271 -150 259 -138T247 -105Q247 -88 258 -74T293 -59H310Z"  />
<glyph unicode="&#x137;" d="M456 382L296 247L498 41H551Q562 41 568 35T574 21Q574 13 568 7T551 0H408Q397 0 391 6T385 21Q385 29 391 35T408 41H442L266 222L219 183V0H118Q107 0 101 6T95 21Q95 29 101 35T118 41H178V572H118Q107 572 101 578T95 592Q95 600 101 606T118 613H219V235L393 382H367Q356 382 350 388T343 402Q343 413 351 418T372 423H503Q516 423 524 418T532 402Q532 394 526 388T508 382H456ZM310 -59Q330 -59 343 -72T356 -105Q356 -129 346 -154T322 -201T293 -236T268 -250Q264 -250 257 -245T250 -232Q250 -225 256 -218T272 -200T291 -178T307 -150H293Q271 -150 259 -138T247 -105Q247 -88 258 -74T293 -59H310Z"  />
<glyph unicode="&#x139;" d="M231 41H503V204Q503 232 524 232Q545 232 545 204V0H92Q64 0 64 21Q64 41 92 41H190V530H92Q64 530 64 551Q64 571 92 571H328Q356 571 356 551Q356 530 328 530H231V41ZM261 648L258 645Q250 638 242 638Q234 638 228 644T222 659Q222 665 224 668T234 679L349 779Q356 785 359 787T368 789Q376 789 382 783T389 768Q389 762 387 759T376 748L261 648Z"  />
<glyph unicode="&#x13A;" d="M323 41H484Q512 41 512 21Q512 0 484 0H121Q94 0 94 21Q94 41 121 41H282V571H164Q136 571 136 592Q136 613 164 613H323V41ZM260 659L257 656Q249 649 241 649Q233 649 227 655T221 670Q221 676 223 679T233 690L348 790Q355 796 358 798T367 800Q375 800 381 794T388 779Q388 773 386 770T375 759L260 659Z"  />
<glyph unicode="&#x13B;" d="M231 530V41H504V209Q504 220 510 226T525 232Q536 232 540 224T545 204V0H88Q77 0 71 6T65 21Q65 29 71 35T88 41H190V530H88Q77 530 71 536T65 551Q65 559 71 565T88 571H334Q345 571 351 565T357 551Q357 543 351 537T334 530H231ZM329 -59Q350 -59 362 -72T375 -105Q375 -129 365 -155T340 -202T311 -236T286 -250Q282 -250 276 -245T269 -232Q269 -225 275 -218T291 -200T310 -178T326 -150H312Q290 -150 278 -138T266 -105Q266 -88 277 -74T312 -59H329Z"  />
<glyph unicode="&#x13C;" d="M324 613V41H489Q500 41 506 35T512 21Q512 13 506 7T489 0H117Q106 0 100 6T94 21Q94 29 100 35T117 41H283V572H160Q149 572 143 578T137 592Q137 600 143 606T160 613H324ZM305 -59Q326 -59 338 -72T351 -105Q351 -129 341 -154T316 -201T287 -236T262 -250Q258 -250 252 -245T245 -232Q245 -225 251 -218T267 -200T286 -178T302 -150H288Q266 -150 254 -138T242 -105Q242 -88 254 -74T288 -59H305Z"  />
<glyph unicode="&#x13D;" d="M231 41H503V204Q503 232 524 232Q545 232 545 204V0H92Q64 0 64 21Q64 41 92 41H190V530H92Q64 530 64 551Q64 571 92 571H328Q356 571 356 551Q356 530 328 530H231V41ZM318 622L185 723Q181 726 177 730T172 743Q172 752 178 758T193 764Q198 764 203 761T210 755L317 673L425 755Q435 762 442 762T453 760T460 752T463 743Q463 735 459 731T450 722L318 622Z"  />
<glyph unicode="&#x13E;" d="M324 613V41H485Q513 41 513 21Q513 12 507 6T485 0H122Q107 0 101 6T94 21Q94 41 122 41H283V571H165Q150 571 144 577T137 592Q137 601 143 607T165 613H324ZM429 535Q390 535 390 573Q390 590 400 601T429 613H444Q482 613 482 572Q482 535 452 493Q423 451 410 451Q393 451 393 465Q393 472 407 488Q421 504 430 515T441 535H429Z"  />
<glyph unicode="&#x13F;" d="M231 41H503V204Q503 232 524 232Q545 232 545 204V0H92Q64 0 64 21Q64 41 92 41H190V530H92Q64 530 64 551Q64 571 92 571H328Q356 571 356 551Q356 530 328 530H231V41ZM448 335Q448 314 434 300T398 285Q377 285 363 299T348 335Q348 356 362 370T398 385Q419 385 433 371T448 335Z"  />
<glyph unicode="&#x140;" d="M323 41H484Q512 41 512 21Q512 0 484 0H121Q94 0 94 21Q94 41 121 41H282V571H164Q136 571 136 592Q136 613 164 613H323V41ZM472 307Q472 286 458 272T422 257Q401 257 387 271T372 307Q372 328 386 342T422 357Q443 357 457 343T472 307Z"  />
<glyph unicode="&#x141;" d="M228 321L337 385Q344 390 346 390T354 391Q372 389 374 371Q373 363 371 360T362 352L358 350L228 274V41H501V205Q501 233 522 233Q543 233 543 205V0H89Q62 0 62 21Q62 41 89 41H187V250L79 187Q72 182 70 182T63 180Q44 181 42 201Q43 209 45 213T58 222L187 297V530H89Q62 530 62 551Q62 571 89 571H326Q353 571 353 551Q353 530 326 530H228V321Z"  />
<glyph unicode="&#x142;" d="M323 342L413 393Q420 397 422 398T429 399Q449 397 449 378Q449 366 437 359L433 357L323 294V41H484Q512 41 512 21Q512 0 484 0H121Q94 0 94 21Q94 41 121 41H282V271L194 220Q187 216 185 215T177 214Q157 216 157 234Q158 248 169 253L173 256L282 318V571H164Q136 571 136 592Q136 613 164 613H323V342Z"  />
<glyph unicode="&#x143;" d="M450 0L150 511H148V41H224Q251 41 251 21Q251 0 224 0H73Q45 0 45 21Q45 41 73 41H107V530H52Q25 530 25 551Q25 571 52 571H159L460 59H462V530H386Q359 530 359 551Q359 571 386 571H538Q565 571 565 551Q565 530 538 530H503V0H450ZM252 648L249 645Q241 638 233 638Q225 638 219 644T213 659Q213 665 215 668T225 679L340 779Q347 785 350 787T359 789Q367 789 373 783T380 768Q380 762 378 759T367 748L252 648Z"  />
<glyph unicode="&#x144;" d="M170 361Q212 404 246 421T326 438Q359 438 387 427T437 398T471 354T483 299V41H517Q545 41 545 21Q545 0 517 0H407Q380 0 380 21Q380 41 407 41H441V292Q441 339 409 367T324 396Q301 396 284 392T250 378T214 348T170 298V41H216Q243 41 243 21Q243 0 216 0H82Q55 0 55 21Q55 41 82 41H128V381H94Q67 381 67 402Q67 423 94 423H170V361ZM280 509L277 506Q269 499 261 499Q253 499 247 505T241 520Q241 526 243 529T253 540L368 640Q375 646 378 648T387 650Q395 650 401 644T408 629Q408 623 406 620T395 609L280 509Z"  />
<glyph unicode="&#x145;" d="M504 0H451L149 511V41H229Q240 41 246 35T252 21Q252 13 246 7T229 0H69Q58 0 52 6T46 21Q46 29 52 35T69 41H108V530H48Q37 530 31 536T25 551Q25 559 31 565T48 571H160L463 59V530H382Q371 530 365 536T359 551Q359 559 364 565T382 571H543Q555 571 560 565T566 551Q566 543 560 537T543 530H504V0ZM311 -59Q331 -59 344 -72T357 -105Q357 -129 347 -154T322 -201T293 -236T268 -250Q264 -250 258 -245T251 -232Q251 -225 257 -218T273 -200T292 -178T308 -150H294Q272 -150 260 -138T248 -105Q248 -88 259 -74T294 -59H311Z"  />
<glyph unicode="&#x146;" d="M129 41V382H90Q79 382 73 388T67 402Q67 410 73 416T90 423H170V361Q206 398 241 418T326 438Q362 438 391 427T440 396T472 351T483 300V41H522Q534 41 540 35T546 21Q546 13 540 7T522 0H403Q392 0 386 6T379 21Q379 29 385 35T403 41H442V293Q442 313 435 331T413 364T376 388T325 397Q298 397 278 390T241 371T206 340T170 298V41H221Q233 41 238 35T244 21Q244 13 238 7T221 0H78Q67 0 61 6T55 21Q55 29 61 35T78 41H129ZM305 -59Q325 -59 338 -72T351 -105Q351 -129 341 -155T316 -202T287 -236T262 -250Q258 -250 252 -245T245 -232Q245 -225 251 -218T267 -200T286 -178T302 -150H288Q266 -150 254 -138T242 -105Q242 -88 253 -74T288 -59H305Z"  />
<glyph unicode="&#x147;" d="M450 0L150 511H148V41H224Q251 41 251 21Q251 0 224 0H73Q45 0 45 21Q45 41 73 41H107V530H52Q25 530 25 551Q25 571 52 571H159L460 59H462V530H386Q359 530 359 551Q359 571 386 571H538Q565 571 565 551Q565 530 538 530H503V0H450ZM165 723L161 725Q152 732 151 743Q152 762 172 764Q180 763 186 758L189 756L297 673L405 755Q411 760 414 761T422 764Q441 762 443 743Q443 736 440 733T429 722L297 622L165 723Z"  />
<glyph unicode="&#x148;" d="M170 361Q212 404 246 421T326 438Q359 438 387 427T437 398T471 354T483 299V41H517Q545 41 545 21Q545 0 517 0H407Q380 0 380 21Q380 41 407 41H441V292Q441 339 409 367T324 396Q301 396 284 392T250 378T214 348T170 298V41H216Q243 41 243 21Q243 0 216 0H82Q55 0 55 21Q55 41 82 41H128V381H94Q67 381 67 402Q67 423 94 423H170V361ZM180 593L176 595Q167 602 166 613Q167 632 187 634Q195 633 201 628L204 626L312 543L420 625Q426 630 429 631T437 634Q456 632 458 613Q458 606 455 603T444 592L312 492L180 593Z"  />
<glyph unicode="&#x149;" d="M167 423V361Q210 404 245 420T323 437Q369 437 409 417Q422 410 435 398T458 369T474 335T480 299V41H515Q530 41 536 36T542 21Q542 12 536 6T515 0H405Q390 0 384 6T377 21Q377 41 405 41H439V292Q439 337 408 366T323 396Q283 396 252 379Q222 361 167 298V41H214Q229 41 235 36T241 21Q241 12 235 6T214 0H80Q65 0 59 6T53 21Q53 30 59 35T80 41H126V381H92Q77 381 71 387T64 402Q64 411 70 417T92 423H167ZM39 535Q0 535 0 573Q0 590 10 601T39 613H54Q92 613 92 572Q92 535 62 493Q33 451 20 451Q2 451 2 465Q2 473 17 488Q31 504 40 515T51 535H39Z"  />
<glyph unicode="&#x14C;" d="M553 284Q553 221 534 166T480 71T401 7T303 -16Q250 -16 205 7T126 70T73 166T53 284Q53 347 72 402T125 497T204 561T303 585Q355 585 400 562T480 498T533 402T553 284ZM511 284Q511 338 495 385T450 467T384 522T303 543Q259 543 221 523T155 467T111 385T94 284Q94 230 110 183T155 101T222 46T303 25Q346 25 384 45T450 101T494 183T511 284ZM184 655Q157 655 157 676Q157 696 184 696H421Q448 696 448 676Q448 655 421 655H184Z"  />
<glyph unicode="&#x14D;" d="M531 211Q531 164 513 123T464 50T392 2T302 -16Q255 -16 213 1T140 50T91 122T73 211Q73 258 91 299T140 371T213 419T302 437Q350 437 391 420T464 371T513 299T531 211ZM490 211Q490 249 475 283T435 342T375 381T302 396Q263 396 229 382T170 342T129 283T114 211Q114 172 129 139T169 80T229 40T302 25Q341 25 375 39T434 79T475 138T490 211ZM184 525Q157 525 157 546Q157 566 184 566H421Q448 566 448 546Q448 525 421 525H184Z"  />
<glyph unicode="&#x14E;" d="M553 284Q553 221 534 166T480 71T401 7T303 -16Q250 -16 205 7T126 70T73 166T53 284Q53 347 72 402T125 497T204 561T303 585Q355 585 400 562T480 498T533 402T553 284ZM511 284Q511 338 495 385T450 467T384 522T303 543Q259 543 221 523T155 467T111 385T94 284Q94 230 110 183T155 101T222 46T303 25Q346 25 384 45T450 101T494 183T511 284ZM175 764Q193 764 196 740Q198 709 228 689T301 668Q343 668 373 688T407 740Q408 764 427 764Q437 764 442 758T448 741Q448 717 437 696T406 660T359 636T301 627Q270 627 243 636T197 660T166 696T154 741Q154 751 160 757T175 764Z"  />
<glyph unicode="&#x14F;" d="M531 211Q531 164 513 123T464 50T392 2T302 -16Q255 -16 213 1T140 50T91 122T73 211Q73 258 91 299T140 371T213 419T302 437Q350 437 391 420T464 371T513 299T531 211ZM490 211Q490 249 475 283T435 342T375 381T302 396Q263 396 229 382T170 342T129 283T114 211Q114 172 129 139T169 80T229 40T302 25Q341 25 375 39T434 79T475 138T490 211ZM176 634Q194 634 197 610Q199 579 229 559T302 538Q344 538 374 558T408 610Q409 634 428 634Q438 634 443 628T449 611Q449 587 438 566T407 530T360 506T302 497Q271 497 244 506T198 530T167 566T155 611Q155 621 161 627T176 634Z"  />
<glyph unicode="&#x150;" d="M553 284Q553 221 534 166T480 71T401 7T303 -16Q250 -16 205 7T126 70T73 166T53 284Q53 347 72 402T125 497T204 561T303 585Q355 585 400 562T480 498T533 402T553 284ZM511 284Q511 338 495 385T450 467T384 522T303 543Q259 543 221 523T155 467T111 385T94 284Q94 230 110 183T155 101T222 46T303 25Q346 25 384 45T450 101T494 183T511 284ZM197 639Q191 632 187 630T178 628Q169 628 163 634T157 648Q157 657 167 667L262 767Q268 774 272 776T282 778Q290 778 296 772T302 758Q302 753 300 749T292 738L197 639ZM345 639Q339 632 335 630T326 628Q317 628 311 634T305 648Q305 653 307 657T316 667L410 767Q416 774 420 776T430 778Q438 778 444 772T450 758Q450 753 448 749T440 738L345 639Z"  />
<glyph unicode="&#x151;" d="M531 211Q531 164 513 123T464 50T392 2T302 -16Q255 -16 213 1T140 50T91 122T73 211Q73 258 91 299T140 371T213 419T302 437Q350 437 391 420T464 371T513 299T531 211ZM490 211Q490 249 475 283T435 342T375 381T302 396Q263 396 229 382T170 342T129 283T114 211Q114 172 129 139T169 80T229 40T302 25Q341 25 375 39T434 79T475 138T490 211ZM249 509Q243 502 239 500T230 498Q221 498 215 504T209 518Q209 527 219 537L314 637Q320 644 324 646T334 648Q342 648 348 642T354 628Q354 623 352 619T344 608L249 509ZM397 509Q391 502 387 500T378 498Q369 498 363 504T357 518Q357 523 359 527T368 537L462 637Q468 644 472 646T482 648Q490 648 496 642T502 628Q502 623 500 619T492 608L397 509Z"  />
<glyph unicode="&#x152;" d="M343 41H553V135Q553 163 574 163Q594 163 594 135V0H267Q209 0 162 20T81 78T29 169T10 287Q10 350 28 402T79 492T158 550T260 571H574V415Q574 387 553 387Q533 387 533 415V530H343V318H423V345Q423 373 443 373Q464 373 464 345V248Q464 221 443 221Q423 221 423 248V276H343V41ZM269 530Q214 530 175 513T105 458Q79 426 66 382T52 286Q52 183 105 113Q162 41 269 41H302V530H269Z"  />
<glyph unicode="&#x153;" d="M323 202Q326 164 336 132T361 76T396 39T437 25Q473 25 528 66Q549 82 554 85T565 88Q573 88 579 82T585 67Q585 60 578 52T550 30Q482 -16 436 -16Q394 -16 359 16T303 105Q280 46 245 15T168 -16Q136 -16 108 2T58 52T24 125T11 214Q11 260 23 300T57 371T106 420T166 438Q208 438 245 407T303 322Q352 438 434 438Q472 438 506 409T562 329Q574 300 579 272T585 202H323ZM543 243Q538 277 527 305T502 354T470 385T433 397Q414 397 397 386T365 355T339 306T323 243H543ZM282 211Q282 248 273 282T248 341T211 382T167 397Q144 397 123 382T87 342T62 282T52 211Q52 174 61 140T86 81T123 40T167 25Q190 25 211 40T247 80T272 140T282 211Z"  />
<glyph unicode="&#x154;" d="M169 41H245Q272 41 272 21Q272 0 245 0H73Q45 0 45 21Q45 41 73 41H128V530H73Q45 530 45 551Q45 571 73 571H320Q357 571 390 559T448 524T487 474T502 413Q502 312 361 266Q389 247 407 230T446 186Q454 175 462 164T479 139T499 104T528 56L536 41H568Q595 41 595 21Q595 0 568 0H513Q478 63 452 105T401 176T353 223T299 255H291H279H169V41ZM281 296Q318 296 351 305T408 331T447 368T461 415Q461 437 449 458T418 495T373 520T320 530H169V296H281ZM246 633L243 630Q235 623 227 623Q219 623 213 629T207 644Q207 650 209 653T219 664L334 764Q341 770 344 772T353 774Q361 774 367 768T374 753Q374 747 372 744T361 733L246 633Z"  />
<glyph unicode="&#x155;" d="M253 319Q288 351 315 372T366 407T408 427T446 433Q467 433 485 426T523 402Q536 391 541 385T546 371Q546 362 540 356T525 349Q517 349 509 357L498 368Q474 392 449 392Q414 392 367 360Q347 346 328 331T276 286L253 266V41H435Q462 41 462 21Q462 0 435 0H113Q87 0 86 20Q87 39 113 39H212V382H136Q122 382 117 386T109 402Q111 414 116 418T136 423H253V319ZM274 509L271 506Q263 499 255 499Q247 499 241 505T235 520Q235 526 237 529T247 540L362 640Q369 646 372 648T381 650Q389 650 395 644T402 629Q402 623 400 620T389 609L274 509Z"  />
<glyph unicode="&#x156;" d="M167 255V41H247Q258 41 264 35T270 21Q270 13 264 7T247 0H66Q55 0 49 6T43 21Q43 29 49 35T66 41H126V530H66Q55 530 49 536T43 551Q43 559 49 565T66 571H318Q356 571 389 558T447 523T486 473T500 413Q500 313 359 266Q389 245 412 221T455 170T493 110T534 41H570Q581 41 587 35T593 21Q593 13 587 7T570 0H511Q484 49 461 88T413 159T361 214T297 255H167ZM167 296H278Q319 296 352 306T409 333T446 371T459 415Q459 435 449 455T419 492T374 519T317 530H167V296ZM308 -59Q329 -59 342 -72T355 -105Q355 -129 345 -155T320 -202T291 -236T266 -250Q262 -250 256 -245T249 -232Q249 -225 255 -218T271 -200T289 -178T305 -150H291Q269 -150 258 -138T246 -105Q246 -88 257 -74T291 -59H308Z"  />
<glyph unicode="&#x157;" d="M254 41H440Q451 41 457 35T463 21Q463 13 457 7T440 0H109Q98 0 92 6T86 20Q86 28 92 34T109 41H213V382H132Q121 382 115 388T109 402Q109 413 117 418T137 423H254V319Q316 375 360 404T447 433Q466 433 484 426T515 408T537 388T546 371Q546 362 540 356T525 349Q520 349 516 352T510 357Q498 369 484 380T449 392Q409 392 363 357T254 266V41ZM311 -59Q332 -59 344 -72T357 -105Q357 -129 347 -154T322 -201T293 -236T268 -250Q264 -250 258 -245T251 -232Q251 -225 257 -218T273 -200T292 -178T308 -150H294Q272 -150 260 -138T248 -105Q248 -88 260 -74T294 -59H311Z"  />
<glyph unicode="&#x158;" d="M169 41H245Q272 41 272 21Q272 0 245 0H73Q45 0 45 21Q45 41 73 41H128V530H73Q45 530 45 551Q45 571 73 571H320Q357 571 390 559T448 524T487 474T502 413Q502 312 361 266Q389 247 407 230T446 186Q454 175 462 164T479 139T499 104T528 56L536 41H568Q595 41 595 21Q595 0 568 0H513Q478 63 452 105T401 176T353 223T299 255H291H279H169V41ZM281 296Q318 296 351 305T408 331T447 368T461 415Q461 437 449 458T418 495T373 520T320 530H169V296H281ZM186 723L182 725Q173 732 172 743Q173 762 193 764Q201 763 207 758L210 756L318 673L426 755Q432 760 435 761T443 764Q462 762 464 743Q464 736 461 733T450 722L318 622L186 723Z"  />
<glyph unicode="&#x159;" d="M253 319Q288 351 315 372T366 407T408 427T446 433Q467 433 485 426T523 402Q536 391 541 385T546 371Q546 362 540 356T525 349Q517 349 509 357L498 368Q474 392 449 392Q414 392 367 360Q347 346 328 331T276 286L253 266V41H435Q462 41 462 21Q462 0 435 0H113Q87 0 86 20Q87 39 113 39H212V382H136Q122 382 117 386T109 402Q111 414 116 418T136 423H253V319ZM185 593L181 595Q172 602 171 613Q172 632 192 634Q200 633 206 628L209 626L317 543L425 625Q431 630 434 631T442 634Q461 632 463 613Q463 606 460 603T449 592L317 492L185 593Z"  />
<glyph unicode="&#x15A;" d="M449 544Q449 571 469 571Q490 571 490 544V440Q490 412 469 412Q450 412 449 437Q447 459 436 478T405 512T359 535T303 543Q238 543 197 511T155 427Q155 403 165 383T195 349Q214 336 239 329T311 314Q341 309 362 305T398 296T426 286T449 273Q479 255 495 224T512 153Q512 116 497 85T454 32T388 -3T304 -16Q252 -16 209 1T134 51V28Q134 0 113 0Q93 0 93 28V141Q93 168 113 168Q133 168 134 143Q135 118 149 97T186 59T239 34T304 25Q340 25 370 35T423 62T458 103T471 155Q471 182 459 204T425 241Q415 247 406 251T383 259T352 266T306 275Q253 284 221 294T166 321Q141 339 128 367T114 427Q114 461 128 490T167 540T226 573T301 585Q346 585 381 572T449 530V544ZM259 648L256 645Q248 638 240 638Q232 638 226 644T220 659Q220 665 222 668T232 679L347 779Q354 785 357 787T366 789Q374 789 380 783T387 768Q387 762 385 759T374 748L259 648Z"  />
<glyph unicode="&#x15B;" d="M145 109Q144 93 158 77T192 49Q237 25 302 25Q336 25 365 32T415 51T448 81T460 118Q460 136 448 153T415 182Q394 193 371 199T304 210Q275 213 255 215T220 222T193 231T171 242Q149 256 137 277T124 323Q124 348 137 369T173 405T229 428T299 437Q385 437 438 396Q438 423 459 423Q479 423 479 395V325Q479 297 459 297Q440 297 438 320Q434 355 397 375T301 396Q272 396 248 391T205 375T177 351T166 321Q166 296 192 278T260 255L318 249Q365 244 395 235T450 209Q474 192 487 169T501 118Q501 89 487 65T446 22T383 -6T303 -16Q253 -16 215 -4T145 33V28V23Q143 0 124 0Q103 0 103 28V112Q103 139 124 139Q133 139 139 133T145 117V109ZM287 509L284 506Q276 499 268 499Q260 499 254 505T248 520Q248 526 250 529T260 540L375 640Q382 646 385 648T394 650Q402 650 408 644T415 629Q415 623 413 620T402 609L287 509Z"  />
<glyph unicode="&#x15C;" d="M449 544Q449 571 469 571Q490 571 490 544V440Q490 412 469 412Q450 412 449 437Q447 459 436 478T405 512T359 535T303 543Q238 543 197 511T155 427Q155 403 165 383T195 349Q214 336 239 329T311 314Q341 309 362 305T398 296T426 286T449 273Q479 255 495 224T512 153Q512 116 497 85T454 32T388 -3T304 -16Q252 -16 209 1T134 51V28Q134 0 113 0Q93 0 93 28V141Q93 168 113 168Q133 168 134 143Q135 118 149 97T186 59T239 34T304 25Q340 25 370 35T423 62T458 103T471 155Q471 182 459 204T425 241Q415 247 406 251T383 259T352 266T306 275Q253 284 221 294T166 321Q141 339 128 367T114 427Q114 461 128 490T167 540T226 573T301 585Q346 585 381 572T449 530V544ZM437 664L441 661Q451 654 451 643Q449 623 430 623Q422 623 416 628L413 631L305 714L197 631Q191 626 188 625T180 623Q161 623 159 644Q160 650 162 654T173 664L305 765L437 664Z"  />
<glyph unicode="&#x15D;" d="M145 109Q144 93 158 77T192 49Q237 25 302 25Q336 25 365 32T415 51T448 81T460 118Q460 136 448 153T415 182Q394 193 371 199T304 210Q275 213 255 215T220 222T193 231T171 242Q149 256 137 277T124 323Q124 348 137 369T173 405T229 428T299 437Q385 437 438 396Q438 423 459 423Q479 423 479 395V325Q479 297 459 297Q440 297 438 320Q434 355 397 375T301 396Q272 396 248 391T205 375T177 351T166 321Q166 296 192 278T260 255L318 249Q365 244 395 235T450 209Q474 192 487 169T501 118Q501 89 487 65T446 22T383 -6T303 -16Q253 -16 215 -4T145 33V28V23Q143 0 124 0Q103 0 103 28V112Q103 139 124 139Q133 139 139 133T145 117V109ZM441 539L445 536Q455 529 455 518Q453 498 434 498Q426 498 420 503L417 506L309 589L201 506Q195 501 192 500T184 498Q165 498 163 519Q164 525 166 529T177 539L309 640L441 539Z"  />
<glyph unicode="&#x15E;" d="M449 549Q449 560 455 566T470 572Q490 572 490 544V440Q490 428 486 420T470 412Q462 412 456 418T449 437Q449 456 439 475T409 509T363 534T303 544Q271 544 244 535T197 511T166 474T155 427Q155 391 172 371T220 337T293 317T384 300Q441 289 476 251T512 154Q512 116 497 85T454 32T392 -2T318 -16V-52Q344 -55 360 -69T376 -105Q376 -128 358 -145T305 -163Q293 -163 278 -160T250 -152T227 -141T218 -126Q218 -120 222 -116T233 -111Q237 -111 243 -114T259 -122T279 -129T305 -133Q324 -133 335 -124T346 -104Q346 -93 334 -87T309 -80H289V-16Q242 -13 203 3T134 51V23Q134 12 128 6T114 0Q106 0 100 6T93 23V145Q93 156 99 162T114 169Q134 169 134 144Q134 123 146 102T180 64T234 36T305 25Q340 25 370 34T423 61T458 102T471 155Q471 198 443 225T375 261Q338 268 303 275T233 291Q181 303 148 338T114 427Q114 461 128 490T167 540T226 573T301 585Q347 585 383 571T449 530V549Z"  />
<glyph unicode="&#x15F;" d="M288 -80V-15Q201 -12 144 33Q144 13 139 7T124 0Q115 0 109 6T103 27V112Q103 139 124 139Q132 139 138 133T145 117Q145 95 156 79Q173 56 210 41T302 25Q342 25 372 33T421 54T450 84T460 118Q460 157 420 179Q379 202 304 209Q229 216 194 230Q161 243 143 268T124 323Q124 375 176 406Q228 437 299 437Q383 437 438 396Q438 423 458 423Q467 423 473 417T479 395V325Q479 310 473 304T458 297Q439 297 438 320Q435 350 407 369Q366 396 301 396Q231 396 194 368Q166 347 166 321Q166 291 200 272Q222 259 289 251Q374 242 407 230Q455 213 478 183T501 118Q501 64 450 24Q404 -13 317 -16V-52Q345 -56 360 -70T375 -105Q375 -129 357 -146T305 -163Q282 -163 255 -154Q229 -145 223 -137Q218 -132 218 -126Q218 -120 222 -116T232 -111Q237 -111 244 -115Q277 -133 305 -133Q324 -133 334 -124T345 -104Q345 -96 337 -88Q326 -80 308 -80H288Z"  />
<glyph unicode="&#x160;" d="M449 544Q449 571 469 571Q490 571 490 544V440Q490 412 469 412Q450 412 449 437Q447 459 436 478T405 512T359 535T303 543Q238 543 197 511T155 427Q155 403 165 383T195 349Q214 336 239 329T311 314Q341 309 362 305T398 296T426 286T449 273Q479 255 495 224T512 153Q512 116 497 85T454 32T388 -3T304 -16Q252 -16 209 1T134 51V28Q134 0 113 0Q93 0 93 28V141Q93 168 113 168Q133 168 134 143Q135 118 149 97T186 59T239 34T304 25Q340 25 370 35T423 62T458 103T471 155Q471 182 459 204T425 241Q415 247 406 251T383 259T352 266T306 275Q253 284 221 294T166 321Q141 339 128 367T114 427Q114 461 128 490T167 540T226 573T301 585Q346 585 381 572T449 530V544ZM170 718L166 720Q157 727 156 738Q157 757 177 759Q185 758 191 753L194 751L302 668L410 750Q416 755 419 756T427 759Q446 757 448 738Q448 731 445 728T434 717L302 617L170 718Z"  />
<glyph unicode="&#x161;" d="M145 109Q144 93 158 77T192 49Q237 25 302 25Q336 25 365 32T415 51T448 81T460 118Q460 136 448 153T415 182Q394 193 371 199T304 210Q275 213 255 215T220 222T193 231T171 242Q149 256 137 277T124 323Q124 348 137 369T173 405T229 428T299 437Q385 437 438 396Q438 423 459 423Q479 423 479 395V325Q479 297 459 297Q440 297 438 320Q434 355 397 375T301 396Q272 396 248 391T205 375T177 351T166 321Q166 296 192 278T260 255L318 249Q365 244 395 235T450 209Q474 192 487 169T501 118Q501 89 487 65T446 22T383 -6T303 -16Q253 -16 215 -4T145 33V28V23Q143 0 124 0Q103 0 103 28V112Q103 139 124 139Q133 139 139 133T145 117V109ZM170 572L166 574Q157 581 156 592Q157 611 177 613Q185 612 191 607L194 605L302 522L410 604Q416 609 419 610T427 613Q446 611 448 592Q448 585 445 582T434 571L302 471L170 572Z"  />
<glyph unicode="&#x162;" d="M322 530V41H434Q445 41 451 35T457 21Q457 13 451 7T434 0H170Q159 0 153 6T147 21Q147 29 153 35T170 41H281V530H113V383Q113 372 107 367T93 361Q85 361 79 366T72 383V571H532V383Q532 371 526 366T511 361Q503 361 497 366T491 383V530H322ZM305 -59Q326 -59 338 -72T351 -105Q351 -129 341 -155T316 -202T287 -236T262 -250Q258 -250 252 -245T245 -232Q245 -225 251 -217T267 -200T285 -178T301 -150H288Q266 -150 254 -138T242 -105Q242 -88 253 -74T288 -59H305Z"  />
<glyph unicode="&#x163;" d="M248 423H470Q485 423 491 417T498 402Q498 393 492 387T470 381H248V108Q248 73 276 49T360 25Q402 25 450 37Q500 51 525 65Q535 72 541 72Q549 72 555 66T561 51Q561 44 554 38Q539 21 478 2Q418 -16 363 -16Q291 -16 249 17T206 108V381H131Q116 381 110 387T103 402Q103 411 109 417T131 423H206V544Q206 559 212 565T227 571Q236 571 242 565T248 544V423ZM325 -131Q286 -131 286 -93Q286 -76 296 -65T325 -53H340Q378 -53 378 -94Q378 -131 348 -173Q319 -215 306 -215Q288 -215 288 -201Q288 -193 303 -178Q317 -162 326 -151T337 -131H325Z"  />
<glyph unicode="&#x164;" d="M322 41H429Q457 41 457 21Q457 0 429 0H175Q147 0 147 21Q147 41 175 41H281V530H113V388Q113 361 93 361Q72 361 72 388V571H532V388Q532 361 511 361Q490 361 490 388V530H322V41ZM170 718L166 720Q157 727 156 738Q157 757 177 759Q185 758 191 753L194 751L302 668L410 750Q416 755 419 756T427 759Q446 757 448 738Q448 731 445 728T434 717L302 617L170 718Z"  />
<glyph unicode="&#x165;" d="M559 576Q559 539 528 499Q496 460 482 460Q464 460 464 474Q464 482 480 495Q511 524 515 540H503Q462 540 462 575Q462 591 473 602T503 613H518Q555 613 559 576ZM248 423H470Q498 423 498 402Q498 381 470 381H248V108Q248 66 280 46T358 25Q401 25 449 37Q499 49 525 65Q535 72 541 72Q561 72 561 51Q561 32 495 8Q429 -16 363 -16Q291 -16 249 17T206 108V381H131Q103 381 103 402Q103 423 131 423H206V544Q206 571 227 571Q248 571 248 544V423Z"  />
<glyph unicode="&#x166;" d="M281 302V530H113V388Q113 360 92 360Q72 360 72 388V571H531V388Q531 360 511 360Q490 360 490 388V530H322V302H451Q475 302 482 298T490 281Q490 269 483 265T452 260H322V41H429Q456 41 456 21Q456 0 429 0H174Q147 0 147 21Q147 41 174 41H281V260H146Q113 260 113 281Q113 302 147 302H281Z"  />
<glyph unicode="&#x167;" d="M174 266V381H99Q71 381 71 402Q71 423 99 423H174V544Q174 571 195 571Q216 571 216 544V423H438Q466 423 466 402Q466 381 438 381H216V266H368Q396 266 396 245Q396 224 368 224H216V108Q216 76 242 51T326 25Q349 25 373 28T419 37T461 50T493 65Q503 72 509 72Q529 72 529 51Q529 32 463 8Q397 -16 331 -16Q262 -16 218 17T174 108V224H87Q60 224 60 245Q60 266 87 266H174Z"  />
<glyph unicode="&#x168;" d="M501 188Q501 145 486 108T444 43T381 0T302 -16Q260 -16 224 -1T162 42T120 107T104 188V530H70Q42 530 42 551Q42 571 70 571H221Q249 571 249 551Q249 530 221 530H145V188Q145 154 157 125T191 73T241 38T302 25Q335 25 363 38T413 73T446 124T459 188V530H384Q356 530 356 551Q356 571 384 571H535Q562 571 562 551Q562 530 535 530H501V188ZM320 676Q351 655 366 655Q377 655 388 662T422 688Q430 695 437 695Q445 695 451 689T457 675Q457 668 453 662T432 643Q412 627 398 621T366 614Q349 614 330 622T282 652Q265 665 256 669T237 673Q220 673 194 652L182 640Q176 634 166 634Q158 634 152 639T146 653Q146 666 168 683Q189 700 205 707T237 714Q252 714 267 708T305 686L320 676Z"  />
<glyph unicode="&#x169;" d="M442 60Q358 -16 260 -16Q201 -16 165 20T129 117V381H74Q46 381 46 402Q46 423 74 423H170V117Q170 77 195 51T259 25Q359 25 442 117V381H367Q339 381 339 402Q339 423 367 423H483V41H518Q545 41 545 21Q545 0 518 0H442V60ZM315 551Q346 530 361 530Q372 530 383 537T417 563Q425 570 432 570Q440 570 446 564T452 550Q452 543 448 537T427 518Q407 502 393 496T361 489Q344 489 325 497T277 527Q260 540 251 544T232 548Q215 548 189 527L177 515Q171 509 161 509Q153 509 147 514T141 528Q141 541 163 558Q184 575 200 582T232 589Q247 589 262 583T300 561L315 551Z"  />
<glyph unicode="&#x16A;" d="M501 188Q501 145 486 108T444 43T381 0T302 -16Q260 -16 224 -1T162 42T120 107T104 188V530H70Q42 530 42 551Q42 571 70 571H221Q249 571 249 551Q249 530 221 530H145V188Q145 154 157 125T191 73T241 38T302 25Q335 25 363 38T413 73T446 124T459 188V530H384Q356 530 356 551Q356 571 384 571H535Q562 571 562 551Q562 530 535 530H501V188ZM184 655Q157 655 157 676Q157 696 184 696H421Q448 696 448 676Q448 655 421 655H184Z"  />
<glyph unicode="&#x16B;" d="M442 60Q358 -16 260 -16Q201 -16 165 20T129 117V381H74Q46 381 46 402Q46 423 74 423H170V117Q170 77 195 51T259 25Q359 25 442 117V381H367Q339 381 339 402Q339 423 367 423H483V41H518Q545 41 545 21Q545 0 518 0H442V60ZM184 525Q157 525 157 546Q157 566 184 566H421Q448 566 448 546Q448 525 421 525H184Z"  />
<glyph unicode="&#x16C;" d="M501 188Q501 145 486 108T444 43T381 0T302 -16Q260 -16 224 -1T162 42T120 107T104 188V530H70Q42 530 42 551Q42 571 70 571H221Q249 571 249 551Q249 530 221 530H145V188Q145 154 157 125T191 73T241 38T302 25Q335 25 363 38T413 73T446 124T459 188V530H384Q356 530 356 551Q356 571 384 571H535Q562 571 562 551Q562 530 535 530H501V188ZM171 764Q189 764 192 740Q194 709 224 689T297 668Q339 668 369 688T403 740Q404 764 423 764Q433 764 438 758T444 741Q444 717 433 696T402 660T355 636T297 627Q266 627 239 636T193 660T162 696T150 741Q150 751 156 757T171 764Z"  />
<glyph unicode="&#x16D;" d="M442 60Q358 -16 260 -16Q201 -16 165 20T129 117V381H74Q46 381 46 402Q46 423 74 423H170V117Q170 77 195 51T259 25Q359 25 442 117V381H367Q339 381 339 402Q339 423 367 423H483V41H518Q545 41 545 21Q545 0 518 0H442V60ZM176 634Q194 634 197 610Q199 579 229 559T302 538Q344 538 374 558T408 610Q409 634 428 634Q438 634 443 628T449 611Q449 587 438 566T407 530T360 506T302 497Q271 497 244 506T198 530T167 566T155 611Q155 621 161 627T176 634Z"  />
<glyph unicode="&#x16E;" d="M501 188Q501 145 486 108T444 43T381 0T302 -16Q260 -16 224 -1T162 42T120 107T104 188V530H70Q42 530 42 551Q42 571 70 571H221Q249 571 249 551Q249 530 221 530H145V188Q145 154 157 125T191 73T241 38T302 25Q335 25 363 38T413 73T446 124T459 188V530H384Q356 530 356 551Q356 571 384 571H535Q562 571 562 551Q562 530 535 530H501V188ZM391 710Q391 674 366 649T303 623Q266 623 241 648T215 710Q215 746 240 771T303 797Q340 797 365 772T391 710ZM362 710Q362 734 345 750T303 767Q278 767 261 751T244 710Q244 686 261 669T303 652Q328 652 345 669T362 710Z"  />
<glyph unicode="&#x16F;" d="M442 60Q358 -16 260 -16Q201 -16 165 20T129 117V381H74Q46 381 46 402Q46 423 74 423H170V117Q170 77 195 51T259 25Q359 25 442 117V381H367Q339 381 339 402Q339 423 367 423H483V41H518Q545 41 545 21Q545 0 518 0H442V60ZM385 579Q385 543 360 518T297 492Q260 492 235 517T209 579Q209 615 234 640T297 666Q334 666 359 641T385 579ZM356 579Q356 603 339 619T297 636Q272 636 255 620T238 579Q238 555 255 538T297 521Q322 521 339 538T356 579Z"  />
<glyph unicode="&#x170;" d="M501 188Q501 145 486 108T444 43T381 0T302 -16Q260 -16 224 -1T162 42T120 107T104 188V530H70Q42 530 42 551Q42 571 70 571H221Q249 571 249 551Q249 530 221 530H145V188Q145 154 157 125T191 73T241 38T302 25Q335 25 363 38T413 73T446 124T459 188V530H384Q356 530 356 551Q356 571 384 571H535Q562 571 562 551Q562 530 535 530H501V188ZM196 639Q190 632 186 630T177 628Q168 628 162 634T156 648Q156 657 166 667L261 767Q267 774 271 776T281 778Q289 778 295 772T301 758Q301 753 299 749T291 738L196 639ZM344 639Q338 632 334 630T325 628Q316 628 310 634T304 648Q304 653 306 657T315 667L409 767Q415 774 419 776T429 778Q437 778 443 772T449 758Q449 753 447 749T439 738L344 639Z"  />
<glyph unicode="&#x171;" d="M442 60Q358 -16 260 -16Q201 -16 165 20T129 117V381H74Q46 381 46 402Q46 423 74 423H170V117Q170 77 195 51T259 25Q359 25 442 117V381H367Q339 381 339 402Q339 423 367 423H483V41H518Q545 41 545 21Q545 0 518 0H442V60ZM231 509Q225 502 221 500T212 498Q203 498 197 504T191 518Q191 527 201 537L296 637Q302 644 306 646T316 648Q324 648 330 642T336 628Q336 623 334 619T326 608L231 509ZM379 509Q373 502 369 500T360 498Q351 498 345 504T339 518Q339 523 341 527T350 537L444 637Q450 644 454 646T464 648Q472 648 478 642T484 628Q484 623 482 619T474 608L379 509Z"  />
<glyph unicode="&#x172;" d="M500 188Q500 146 486 110T447 47T386 3T310 -16Q289 -37 289 -65Q289 -85 303 -97T344 -109Q363 -109 372 -103T393 -88Q395 -86 396 -86T400 -87Q416 -87 416 -103Q416 -111 410 -118T393 -130T369 -138T343 -142Q306 -142 281 -121T256 -62Q256 -45 260 -34T270 -14Q234 -8 204 10T151 54T117 115T104 188V530H65Q54 530 48 536T42 551Q42 565 51 568T70 571H221Q248 571 248 551Q248 543 242 537T225 530H145V188Q145 153 157 124T191 72T241 38T302 25Q333 25 361 37T412 71T446 123T459 188V530H379Q368 530 362 536T356 551Q356 559 362 565T379 571H539Q550 571 556 565T562 551Q562 543 556 537T539 530H500V188Z"  />
<glyph unicode="&#x173;" d="M515 0Q489 0 471 -19T452 -65Q452 -85 466 -97T506 -109Q531 -109 548 -94Q556 -87 563 -87Q579 -87 579 -103Q579 -118 556 -130T505 -142Q469 -142 444 -122T419 -62Q419 -28 442 0V60Q359 -16 260 -16Q229 -16 205 -6T164 23T138 66T129 117V381H74Q46 381 46 402Q46 423 74 423H170V117Q170 79 194 52T259 25Q359 25 442 117V381H367Q339 381 339 402Q339 423 367 423H483V41H518Q545 41 545 21Q545 0 515 0Z"  />
<glyph unicode="&#x174;" d="M418 0L302 406H300L188 0H123L63 530H48Q20 530 20 551Q20 571 48 571H200Q228 571 228 551Q228 530 200 530H104L158 47H160L269 445H332L445 47H447L499 530H403Q376 530 376 551Q376 571 403 571H555Q582 571 582 551Q582 530 555 530H539L482 0H418ZM434 668L438 665Q448 658 448 647Q446 627 427 627Q419 627 413 632L410 635L302 718L194 635Q188 630 185 629T177 627Q158 627 156 648Q157 654 159 658T170 668L302 769L434 668Z"  />
<glyph unicode="&#x175;" d="M393 0L303 263H301L213 0H162L77 381H57Q30 381 30 402Q30 423 57 423H170Q197 423 197 402Q197 381 170 381H118L189 56H191L278 316H326L415 56H417L486 381H434Q407 381 407 402Q407 423 434 423H547Q574 423 574 402Q574 381 547 381H527L444 0H393ZM435 539L439 536Q449 529 449 518Q447 498 428 498Q420 498 414 503L411 506L303 589L195 506Q189 501 186 500T178 498Q159 498 157 519Q158 525 160 529T171 539L303 640L435 539Z"  />
<glyph unicode="&#x176;" d="M323 41H430Q457 41 457 21Q457 0 430 0H176Q148 0 148 21Q148 41 176 41H282V258L102 530H78Q50 530 50 551Q50 571 78 571H190Q218 571 218 551Q218 530 190 530H150L303 299L453 530H413Q385 530 385 551Q385 571 413 571H525Q553 571 553 551Q553 530 525 530H501L323 258V41ZM434 668L438 665Q448 658 448 647Q446 627 427 627Q419 627 413 632L410 635L302 718L194 635Q188 630 185 629T177 627Q158 627 156 648Q157 654 159 658T170 668L302 769L434 668Z"  />
<glyph unicode="&#x177;" d="M114 381H102Q75 381 75 402Q75 411 81 417T97 423H102H214Q242 423 242 402Q242 381 214 381H159L326 45L492 381H437Q409 381 409 402Q409 423 437 423H548Q576 423 576 402Q576 381 548 381H536L276 -147H340Q368 -147 368 -168Q368 -189 340 -189H104Q76 -189 76 -168Q76 -147 104 -147H233L305 0L114 381ZM462 539L466 536Q476 529 476 518Q474 498 455 498Q447 498 441 503L438 506L330 589L222 506Q216 501 213 500T205 498Q186 498 184 519Q185 525 187 529T198 539L330 640L462 539Z"  />
<glyph unicode="&#x178;" d="M323 41H430Q457 41 457 21Q457 0 430 0H176Q148 0 148 21Q148 41 176 41H282V258L102 530H78Q50 530 50 551Q50 571 78 571H190Q218 571 218 551Q218 530 190 530H150L303 299L453 530H413Q385 530 385 551Q385 571 413 571H525Q553 571 553 551Q553 530 525 530H501L323 258V41ZM237 685Q237 668 226 657T197 645Q181 645 170 656T158 685Q158 702 169 713T197 725Q214 725 225 714T237 685ZM447 685Q447 668 436 657T407 645Q390 645 379 656T367 685Q367 702 378 713T407 725Q424 725 435 714T447 685Z"  />
<glyph unicode="&#x179;" d="M106 0V60L439 527V530H166V410Q166 382 145 382Q125 382 125 410V571H479V513L145 45V41H460V184Q460 212 480 212Q501 212 501 184V0H106ZM292 637L289 634Q281 627 273 627Q265 627 259 633T253 648Q253 654 255 657T265 668L380 768Q387 774 390 776T399 778Q407 778 413 772T420 757Q420 751 418 748T407 737L292 637Z"  />
<glyph unicode="&#x17A;" d="M482 386L174 41H452V98Q452 125 472 125Q493 125 493 98V0H118V37L424 381H168V326Q168 298 148 298Q127 298 127 326V423H482V386ZM296 509L293 506Q285 499 277 499Q269 499 263 505T257 520Q257 526 259 529T269 540L384 640Q391 646 394 648T403 650Q411 650 417 644T424 629Q424 623 422 620T411 609L296 509Z"  />
<glyph unicode="&#x17B;" d="M106 0V60L439 527V530H166V410Q166 382 145 382Q125 382 125 410V571H479V513L145 45V41H460V184Q460 212 480 212Q501 212 501 184V0H106ZM353 689Q353 668 339 654T303 639Q282 639 268 653T253 689Q253 710 267 724T303 739Q324 739 338 725T353 689Z"  />
<glyph unicode="&#x17C;" d="M482 386L174 41H452V98Q452 125 472 125Q493 125 493 98V0H118V37L424 381H168V326Q168 298 148 298Q127 298 127 326V423H482V386ZM356 560Q356 539 342 525T306 510Q285 510 271 524T256 560Q256 581 270 595T306 610Q327 610 341 596T356 560Z"  />
<glyph unicode="&#x17D;" d="M106 0V60L439 527V530H166V410Q166 382 145 382Q125 382 125 410V571H479V513L145 45V41H460V184Q460 212 480 212Q501 212 501 184V0H106ZM170 718L166 720Q157 727 156 738Q157 757 177 759Q185 758 191 753L194 751L302 668L410 750Q416 755 419 756T427 759Q446 757 448 738Q448 731 445 728T434 717L302 617L170 718Z"  />
<glyph unicode="&#x17E;" d="M482 386L174 41H452V98Q452 125 472 125Q493 125 493 98V0H118V37L424 381H168V326Q168 298 148 298Q127 298 127 326V423H482V386ZM170 572L166 574Q157 581 156 592Q157 611 177 613Q185 612 191 607L194 605L302 522L410 604Q416 609 419 610T427 613Q446 611 448 592Q448 585 445 582T434 571L302 471L170 572Z"  />
<glyph unicode="&#x192;" d="M421 381Q449 381 449 360Q449 339 421 339H323V59Q323 27 312 -1T280 -49T234 -82T176 -94Q157 -94 136 -90T101 -78Q89 -72 89 -59Q89 -51 94 -45T108 -39Q111 -39 122 -42Q141 -49 152 -51T178 -53Q223 -53 252 -20T282 65V339H184Q157 339 157 360Q157 381 184 381H282V469Q282 502 294 531T326 581T374 615T434 628Q452 628 472 625T507 614Q521 608 521 595Q521 587 516 581T502 575Q498 575 488 578Q474 583 463 585T438 587Q386 586 355 554T323 469V381H421Z"  />
<glyph unicode="&#x218;" d="M134 23Q134 12 128 6T114 0Q106 0 100 6T93 23V145Q93 156 99 162T114 169Q134 169 134 144Q134 123 146 102T180 64T234 36T305 25Q340 25 370 34T423 61T458 102T471 155Q471 198 443 225T375 261Q338 268 303 275T233 291Q181 303 148 338T114 427Q114 461 128 490T167 540T226 573T301 585Q347 585 383 571T449 530V549Q449 560 455 566T470 572Q490 572 490 544V440Q490 428 486 420T470 412Q462 412 456 418T449 437Q449 456 439 475T409 509T363 534T303 544Q271 544 244 535T197 511T166 474T155 427Q155 391 172 371T220 337T293 317T384 300Q441 289 476 251T512 154Q512 115 496 84T451 30T386 -4T305 -16Q255 -16 211 0T134 51V23ZM311 -59Q332 -59 344 -72T357 -105Q357 -129 347 -155T322 -202T293 -236T268 -250Q264 -250 258 -245T251 -232Q251 -225 257 -218T273 -200T292 -178T308 -150H294Q272 -150 260 -138T248 -105Q248 -88 259 -74T294 -59H311Z"  />
<glyph unicode="&#x219;" d="M144 23Q144 12 138 6T124 0Q116 0 110 6T103 23V116Q103 127 109 133T124 139Q132 139 138 134T144 117Q144 78 186 52T302 25Q341 25 370 33T420 54T450 84T460 118Q460 133 452 147T430 172T399 190T365 201Q320 208 277 213T200 229T145 262T124 323Q124 348 137 369T174 405T230 428T299 437Q340 437 375 427T438 396Q438 423 458 423Q479 423 479 395V325Q479 297 458 297Q450 297 445 301T439 310Q436 330 430 345T397 375Q376 386 352 391T301 396Q235 396 200 373T165 321Q165 299 179 286T216 266T265 255T317 249Q411 239 456 206T501 118Q501 90 487 66T448 23T386 -5T303 -16Q205 -16 144 33V23ZM299 -150Q277 -150 265 -138T253 -105Q253 -88 264 -74T299 -59H316Q337 -59 349 -72T362 -105Q362 -129 352 -155T328 -202T299 -236T274 -250Q270 -250 263 -245T256 -232Q256 -225 262 -217T278 -200T297 -178T313 -150H299Z"  />
<glyph unicode="&#x21A;" d="M322 530V41H434Q445 41 451 35T457 21Q457 13 451 7T434 0H170Q159 0 153 6T147 21Q147 29 153 35T170 41H281V530H113V383Q113 372 107 367T93 361Q85 361 79 366T72 383V571H532V383Q532 371 526 366T511 361Q503 361 497 366T491 383V530H322ZM305 -59Q326 -59 338 -72T351 -105Q351 -129 341 -155T316 -202T287 -236T262 -250Q258 -250 252 -245T245 -232Q245 -225 251 -217T267 -200T285 -178T301 -150H288Q266 -150 254 -138T242 -105Q242 -88 253 -74T288 -59H305Z"  />
<glyph unicode="&#x21B;" d="M248 423H470Q485 423 491 417T498 402Q498 393 492 387T470 381H248V108Q248 73 276 49T360 25Q402 25 450 37Q500 51 525 65Q535 72 541 72Q549 72 555 66T561 51Q561 44 554 38Q539 21 478 2Q418 -16 363 -16Q291 -16 249 17T206 108V381H131Q116 381 110 387T103 402Q103 411 109 417T131 423H206V544Q206 559 212 565T227 571Q236 571 242 565T248 544V423ZM325 -131Q286 -131 286 -93Q286 -76 296 -65T325 -53H340Q378 -53 378 -94Q378 -131 348 -173Q319 -215 306 -215Q288 -215 288 -201Q288 -193 303 -178Q317 -162 326 -151T337 -131H325Z"  />
<glyph unicode="&#x2C6;" d="M434 518L438 515Q448 508 448 497Q446 477 427 477Q419 477 413 482L410 485L302 568L194 485Q188 480 185 479T177 477Q158 477 156 498Q157 504 159 508T170 518L302 619L434 518Z"  />
<glyph unicode="&#x2C7;" d="M170 572L166 574Q157 581 156 592Q157 611 177 613Q185 612 191 607L194 605L302 522L410 604Q416 609 419 610T427 613Q446 611 448 592Q448 585 445 582T434 571L302 471L170 572Z"  />
<glyph unicode="&#x2C9;" d="M184 504Q157 504 157 525Q157 545 184 545H421Q448 545 448 525Q448 504 421 504H184Z"  />
<glyph unicode="&#x2D8;" d="M176 613Q194 613 197 589Q199 558 229 538T302 517Q344 517 374 537T408 589Q409 613 428 613Q438 613 443 607T449 590Q449 566 438 545T407 509T360 485T302 476Q271 476 244 485T198 509T167 545T155 590Q155 600 161 606T176 613Z"  />
<glyph unicode="&#x2D9;" d="M352 539Q352 518 338 504T302 489Q281 489 267 503T252 539Q252 560 266 574T302 589Q323 589 337 575T352 539Z"  />
<glyph unicode="&#x2DA;" d="M390 558Q390 522 365 497T302 471Q265 471 240 496T214 558Q214 594 239 619T302 645Q339 645 364 620T390 558ZM361 558Q361 582 344 598T302 615Q277 615 260 599T243 558Q243 534 260 517T302 500Q327 500 344 517T361 558Z"  />
<glyph unicode="&#x2DB;" d="M382 -2Q382 -10 378 -13T363 -17Q345 -19 332 -36T318 -74Q318 -92 331 -103T367 -114Q390 -114 405 -100Q412 -94 417 -94Q423 -94 427 -98T432 -109Q432 -122 412 -132T366 -143Q331 -143 310 -124T288 -71Q288 -55 294 -40T311 -13T336 6T366 13Q382 13 382 -2Z"  />
<glyph unicode="&#x2DC;" d="M320 530Q351 509 366 509Q377 509 388 516T422 542Q430 549 437 549Q445 549 451 543T457 529Q457 522 453 516T432 497Q412 481 398 475T366 468Q349 468 330 476T282 506Q265 519 256 523T237 527Q220 527 194 506L182 494Q176 488 166 488Q158 488 152 493T146 507Q146 520 168 537Q189 554 205 561T237 568Q252 568 267 562T305 540L320 530Z"  />
<glyph unicode="&#x2DD;" d="M194 488Q188 481 184 479T175 477Q166 477 160 483T154 497Q154 506 164 516L259 616Q265 623 269 625T279 627Q287 627 293 621T299 607Q299 602 297 598T289 587L194 488ZM342 488Q336 481 332 479T323 477Q314 477 308 483T302 497Q302 502 304 506T313 516L407 616Q413 623 417 625T427 627Q435 627 441 621T447 607Q447 602 445 598T437 587L342 488Z"  />
<glyph unicode="&#x394;" d="M44 0V27Q104 197 163 363T283 700H319Q378 530 436 364T555 27V0H44ZM315 590Q310 606 308 618T301 642H299Q297 631 293 617T284 590L92 37H507L315 590Z"  />
<glyph unicode="&#x3A9;" d="M383 0V36Q407 57 434 87T486 158T525 254T541 379Q541 442 526 496T480 590T405 653T302 676Q246 676 201 654T124 592T75 498T57 380Q57 312 72 259T110 164T161 91T217 36V0H18V36H167Q144 55 118 86T70 159T32 257T17 380Q17 450 37 511T95 616T185 686T302 712Q367 712 419 688T507 621T562 516T581 381Q581 319 568 266T532 169T484 92T431 36H582V0H383Z"  />
<glyph unicode="&#x3BC;" d="M170 -161Q170 -189 149 -189Q129 -189 129 -161V381H74Q46 381 46 402Q46 423 74 423H170V117Q170 77 195 51T259 25Q359 25 442 117V381H367Q339 381 339 402Q339 423 367 423H483V41H518Q545 41 545 21Q545 0 518 0H442V60Q358 -16 260 -16Q231 -16 211 -9T170 17V-161Z"  />
<glyph unicode="&#x3C0;" d="M558 4Q550 -1 537 -3T512 -6Q459 -6 436 27T412 109V463H194V124Q194 89 191 56T182 0H140Q148 26 150 60T153 123V463Q132 463 103 457T53 443Q47 462 40 478Q56 486 87 493T162 500H559V463H453V111Q453 75 468 53T518 31Q533 31 548 37L558 4Z"  />
<glyph unicode="&#x2013;" d="M100 265Q73 265 73 286Q73 306 100 306H504Q531 306 531 286Q531 265 504 265H100Z"  />
<glyph unicode="&#x2014;" d="M22 266Q-5 266 -5 286Q-5 307 22 307H582Q609 307 609 286Q609 266 582 266H22Z"  />
<glyph unicode="&#x2018;" d="M384 613L455 359L457 348Q457 336 448 328T427 319Q417 319 411 324T396 343L250 613H384Z"  />
<glyph unicode="&#x2019;" d="M351 613L206 343Q198 329 192 324T175 319Q163 319 154 327T145 348L147 359L218 613H351Z"  />
<glyph unicode="&#x201A;" d="M354 135L209 -134Q201 -148 195 -153T178 -158Q165 -158 157 -150T148 -129L150 -118L221 135H354Z"  />
<glyph unicode="&#x201C;" d="M196 613L280 402L284 385Q284 375 277 368T259 360Q251 360 246 364T233 380L90 613H196ZM407 613L491 402L495 385Q495 375 488 368T470 360Q462 360 457 364T444 380L301 613H407Z"  />
<glyph unicode="&#x201D;" d="M303 613L160 380Q153 369 148 365T134 360Q124 360 117 367T109 384L114 402L197 613H303ZM515 613L372 380Q365 369 359 365T345 360Q335 360 328 367T320 384L325 402L408 613H515Z"  />
<glyph unicode="&#x201E;" d="M306 125L163 -108Q151 -127 137 -127Q126 -127 119 -120T112 -103L116 -85L200 125H306ZM517 125L374 -108Q362 -127 348 -127Q337 -127 330 -120T323 -103L327 -85L411 125H517Z"  />
<glyph unicode="&#x2020;" d="M323 -36Q323 -63 302 -63Q282 -63 282 -36V382H152Q125 382 125 403Q125 424 152 424H282V585Q282 613 302 613Q323 613 323 585V424H452Q479 424 479 403Q479 382 452 382H323V-36Z"  />
<glyph unicode="&#x2021;" d="M323 170H452Q480 170 480 150Q480 129 452 129H323V-36Q323 -63 302 -63Q281 -63 281 -36V129H152Q125 129 125 150Q125 170 152 170H281V383H152Q125 383 125 404Q125 424 152 424H281V585Q281 613 302 613Q323 613 323 585V424H452Q480 424 480 404Q480 383 452 383H323V170Z"  />
<glyph unicode="&#x2022;" d="M423 311Q423 286 414 264T388 226T349 200T302 190Q277 190 255 199T217 225T191 264T181 311Q181 336 190 358T216 396T255 422T302 432Q327 432 349 423T387 397T413 358T423 311Z"  />
<glyph unicode="&#x2026;" d="M152 35Q152 15 137 0T102 -15Q81 -15 66 0T51 35Q51 56 66 70T102 85Q122 85 137 71T152 35ZM352 35Q352 15 337 0T302 -15Q281 -15 267 0T252 35Q252 56 266 70T302 85Q322 85 337 71T352 35ZM553 35Q553 15 538 0T503 -15Q482 -15 468 0T453 35Q453 56 467 70T503 85Q524 85 538 71T553 35Z"  />
<glyph unicode="&#x2030;" d="M210 518Q210 486 187 454Q157 411 120 411Q83 411 53 454Q30 486 30 518Q30 549 57 587Q84 625 120 625Q157 625 187 582Q210 550 210 518ZM180 518Q180 544 158 569Q137 595 120 595Q105 595 82 569Q60 544 60 518Q60 490 82 465Q104 440 120 440Q136 440 158 465Q180 490 180 518ZM116 272Q112 271 110 271T105 270Q101 270 97 274T92 284Q92 290 96 294Q97 297 107 300L487 423Q493 426 497 426Q502 426 506 422T511 411Q511 405 507 401Q505 398 496 396L116 272ZM305 97Q305 65 282 33Q251 -10 214 -10Q178 -10 147 32Q124 64 124 97Q124 128 151 166Q178 203 214 203Q251 203 282 160Q305 128 305 97ZM275 97Q275 123 253 148Q230 174 215 174Q199 174 176 148Q154 123 154 97Q154 69 176 44Q198 19 215 19Q231 19 253 44Q275 69 275 97ZM567 97Q567 65 544 33Q514 -10 477 -10Q440 -10 410 32Q387 64 387 97Q387 128 414 166Q441 203 477 203Q514 203 544 160Q567 128 567 97ZM537 97Q537 123 515 148Q494 174 477 174Q461 174 438 148Q417 122 417 97Q417 69 438 44Q460 19 477 19Q493 19 515 44Q537 69 537 97Z"  />
<glyph unicode="&#x2039;" d="M273 412Q286 424 294 424Q303 424 309 418T315 403Q315 398 313 395T304 383L151 212L304 41Q311 33 313 30T315 21Q315 12 309 7T294 1Q289 1 285 3T273 12L54 212L273 412Z"  />
<glyph unicode="&#x203A;" d="M335 12Q327 5 323 3T314 1Q305 1 299 6T293 21Q293 26 295 29T304 41L457 212L304 383Q297 391 295 394T293 403Q293 412 299 418T314 424Q322 424 335 412L554 212L335 12Z"  />
<glyph unicode="&#x2044;" d="M90 148Q84 144 81 143T73 141Q53 142 52 162Q53 169 55 173T67 183L514 471Q521 475 523 476T531 478Q550 477 552 457Q551 449 549 446T537 436L90 148Z"  />
<glyph unicode="&#x20AC;" d="M61 238Q56 238 46 237T26 237T9 241T1 253Q1 261 8 264T25 268T45 269T60 268V312Q55 312 45 311T25 310T8 314T1 326Q1 335 8 338T26 342T46 342T62 341Q64 390 83 434T134 512T210 564T305 584Q355 584 399 567T479 515Q479 522 479 531T479 550T485 565T500 571Q512 571 516 563T521 544V430Q521 419 517 411T500 402Q490 402 486 412T476 439T459 473T423 508Q371 543 306 543Q263 543 228 527T166 483T123 419T103 341H387Q395 341 401 338T408 326Q408 317 402 315T387 312H101V268H373Q381 268 387 265T394 253Q394 244 388 241T373 238H103Q105 194 123 156T170 88T239 42T323 25Q365 25 398 41T455 76T494 111T517 127Q536 127 536 108Q536 102 530 93T519 79Q484 34 433 9T324 -16Q271 -16 224 3T140 57T83 138T61 238Z"  />
<glyph unicode="&#x2113;" d="M456 58Q447 47 435 35T408 13T375 -5T336 -12Q293 -12 269 15Q236 48 236 122V265L174 194Q167 200 160 206T144 219L236 328V575Q236 653 262 690T335 728Q357 728 372 719T397 697T411 667T416 634Q416 564 386 498T308 364L278 323V113Q278 65 296 46T340 26Q369 26 391 43T432 82L456 58ZM371 632Q371 652 363 671T332 691Q320 691 311 686T294 666T282 628T278 568V390L297 418Q331 472 351 526T371 632Z"  />
<glyph unicode="&#x2122;" d="M120 333H184Q201 333 201 321Q201 308 184 308H32Q15 308 15 321Q15 333 32 333H96V626H-5V541Q-5 524 -17 524Q-30 524 -30 541V651H246V541V538Q244 524 233 524Q221 524 221 541V626H120V333ZM411 411L313 626H308V333H355Q372 333 372 321Q372 308 355 308H262Q245 308 245 321Q245 333 262 333H283V626H267Q250 626 250 639Q250 651 267 651H329L425 439L519 651H582Q599 651 599 639Q599 626 582 626H566V333H587Q604 333 604 321Q604 308 587 308H494Q477 308 477 321Q477 333 494 333H540V626H535L440 411H411Z"  />
<glyph unicode="&#x2126;" d="M383 0V36Q407 57 434 87T486 158T525 254T541 379Q541 442 526 496T480 590T405 653T302 676Q246 676 201 654T124 592T75 498T57 380Q57 312 72 259T110 164T161 91T217 36V0H18V36H167Q144 55 118 86T70 159T32 257T17 380Q17 450 37 511T95 616T185 686T302 712Q367 712 419 688T507 621T562 516T581 381Q581 319 568 266T532 169T484 92T431 36H582V0H383Z"  />
<glyph unicode="&#x212E;" d="M139 287V90Q171 58 210 42T297 25Q371 25 421 60T508 156Q518 151 526 145T544 134Q521 101 497 74T443 28T378 -1T297 -12Q232 -12 181 11T93 75T37 170T17 287Q17 349 36 404T92 499T180 563T297 587Q364 587 416 564T504 500T560 405T582 287H139ZM455 484Q423 516 383 533T296 550Q202 550 139 485V324H455V484Z"  />
<glyph unicode="&#x2202;" d="M518 509Q518 470 512 418T492 309Q479 257 457 201T403 98T328 21T228 -10Q162 -10 122 37T82 163Q82 232 103 293T159 401T240 475T338 502Q391 502 422 479T469 424H471Q473 441 475 461T477 505Q477 601 441 644T339 688Q319 688 296 682T252 663Q248 671 245 679T238 696Q254 706 284 715T344 725Q425 725 471 672T518 509ZM462 367Q451 409 420 437T334 465Q291 465 253 440T186 373T140 277T123 163Q123 97 153 62T231 27Q308 27 369 114T462 367Z"  />
<glyph unicode="&#x2206;" d="M44 0V27Q104 197 163 363T283 700H319Q378 530 436 364T555 27V0H44ZM315 590Q310 606 308 618T301 642H299Q297 631 293 617T284 590L92 37H507L315 590Z"  />
<glyph unicode="&#x220F;" d="M505 -230V664H95V-230H54V700H546V-230H505Z"  />
<glyph unicode="&#x2211;" d="M28 -230V-217Q113 -102 196 11T365 239L54 681V700H544V664H114Q189 557 263 452T413 240Q332 131 253 23T93 -194H572V-230H28Z"  />
<glyph unicode="&#x2212;" d="M129 265Q112 265 103 265T90 265T84 266T81 269Q72 275 72 286Q72 296 82 303Q84 304 85 304T91 305T103 306T129 306H475Q492 306 501 306T514 306T520 304T523 302Q532 296 532 286Q532 275 522 268Q520 267 519 267T513 266T500 265T475 265H129Z"  />
<glyph unicode="&#x2215;" d="M90 148Q84 144 81 143T73 141Q53 142 52 162Q53 169 55 173T67 183L514 471Q521 475 523 476T531 478Q550 477 552 457Q551 449 549 446T537 436L90 148Z"  />
<glyph unicode="&#x2219;" d="M311 377Q339 377 358 358T377 311Q377 283 358 264T311 244H293Q266 244 247 263T227 311Q227 338 246 357T293 377H311Z"  />
<glyph unicode="&#x221A;" d="M324 -12H290Q255 80 221 171T151 354L99 327Q94 335 91 343T84 360Q107 371 129 382T175 405Q208 320 240 235T305 65L474 728H516L324 -12Z"  />
<glyph unicode="&#x221E;" d="M600 294Q600 264 590 238T561 191T516 160T459 148Q429 148 405 157T362 182T328 217T301 257H299Q286 235 270 216T234 181T193 157T146 148Q111 148 84 159T38 190T10 234T0 289Q0 320 9 346T37 392T81 423T142 435Q174 435 199 425T243 398T276 363T300 328H302Q313 345 327 364T360 398T401 424T454 435Q485 435 511 425T557 397T588 353T600 294ZM557 293Q557 337 532 367T455 398Q410 398 380 369T320 292Q349 240 382 213T453 186Q505 186 531 217T557 293ZM281 292Q256 337 220 367T144 398Q117 398 98 390T67 366T50 331T44 289Q44 241 72 214T144 186Q167 186 186 194T222 218T253 252T281 292Z"  />
<glyph unicode="&#x222B;" d="M450 702Q444 705 432 708T406 711Q364 711 342 684T320 607V-79Q320 -147 285 -182T193 -218Q179 -218 164 -215T139 -208Q142 -199 144 -190T149 -173Q158 -176 168 -178T194 -181Q280 -181 280 -77V610Q280 675 314 711T408 748Q423 748 438 745T460 738Q458 729 456 720T450 702Z"  />
<glyph unicode="&#x2248;" d="M315 236Q332 220 343 211T362 196T376 189T388 187Q406 187 423 199T462 237Q474 253 479 257T491 261Q499 261 505 256T511 242Q511 236 505 226T485 201Q433 146 391 146Q368 146 346 158T291 202L274 219Q237 253 214 253Q198 253 183 243T148 210L132 191Q123 179 113 179Q105 179 99 185T93 199Q93 210 124 244Q150 270 170 282T213 294Q252 294 290 258L315 236ZM315 359Q332 343 343 334T362 319T376 312T388 310Q406 310 423 322T462 360Q474 376 479 380T491 384Q499 384 505 379T511 365Q511 359 505 349T485 324Q433 269 391 269Q368 269 346 281T291 325L274 342Q237 376 214 376Q198 376 183 366T148 333L132 314Q123 302 113 302Q105 302 99 308T93 322Q93 333 124 367Q150 393 170 405T213 417Q252 417 290 381L315 359Z"  />
<glyph unicode="&#x2260;" d="M364 381H526Q553 381 553 360Q553 339 526 339H344L294 233H526Q553 233 553 213Q553 192 526 192H275L210 53Q205 42 201 39T188 35Q180 35 174 41T168 55Q168 61 172 70L229 192H79Q51 192 51 213Q51 233 79 233H248L298 339H79Q51 339 51 360Q51 381 79 381H317L383 520Q388 531 392 534T405 538Q413 538 419 532T425 518Q425 512 421 503L364 381Z"  />
<glyph unicode="&#x2264;" d="M493 597L497 599L509 603Q530 600 530 582Q530 575 527 571T513 561L134 350L513 139Q523 134 526 130T529 117Q529 99 509 97Q505 97 503 98T493 103L50 350L493 597ZM129 0Q112 0 103 0T90 0T84 1T81 4Q72 10 72 21Q72 31 82 38Q84 39 85 39T91 40T103 41T129 41H475Q492 41 501 41T514 41T520 39T523 37Q532 31 532 21Q532 10 522 3Q520 2 519 2T513 1T500 0T475 0H129Z"  />
<glyph unicode="&#x2265;" d="M532 350L89 103Q82 99 80 98T73 97Q53 99 53 117Q53 125 56 129T69 139L448 350L69 561Q59 566 56 570T52 582Q52 600 73 603L85 599L89 597L532 350ZM107 0Q90 0 82 0T69 0T64 1T60 3Q50 10 50 21Q50 31 59 37Q61 38 62 39T67 40T81 41T107 41H453Q469 41 478 41T491 41T496 40T500 38Q510 31 510 21Q510 10 501 4Q499 2 498 2T493 1T479 0T453 0H107Z"  />
<glyph unicode="&#x25CA;" d="M312 0H286L98 349Q145 437 191 524T286 700H312L501 350L312 0ZM299 641L142 350L298 59L456 350L299 641Z"  />
<glyph unicode="&#xFB01;" d="M162 41H235Q262 41 262 21Q262 0 235 0H37Q9 0 9 21Q9 41 37 41H121V381H42Q15 381 15 402Q15 423 42 423H121V483Q121 510 129 533T152 575T186 603T229 613Q244 613 266 609T305 598Q322 592 322 577Q322 568 316 563T302 557L296 558L289 560Q253 571 230 571Q201 571 182 546T162 483V423H235Q262 423 262 402Q262 381 235 381H162V41ZM489 41H564Q592 41 592 21Q592 0 564 0H369Q341 0 341 21Q341 41 369 41H447V381H389Q362 381 362 402Q362 423 389 423H489V41ZM488 527H428V633H488V527Z"  />
<glyph unicode="&#xFB02;" d="M165 41H237Q265 41 265 21Q265 0 237 0H39Q11 0 11 21Q11 41 39 41H123V381H45Q17 381 17 402Q17 423 45 423H123V483Q123 510 131 533T154 575T189 603T232 613Q247 613 269 609T308 598Q324 592 324 577Q324 557 305 557L298 558L291 560Q255 571 233 571Q204 571 185 546T165 483V423H237Q265 423 265 402Q265 381 237 381H165V41ZM491 41H569Q597 41 597 21Q597 0 569 0H371Q343 0 343 21Q343 41 371 41H449V571H391Q364 571 364 592Q364 613 391 613H491V41Z"  />


</font>
</defs>
</svg>
