<?xml  version="1.0" encoding="UTF-8"?>
<!DOCTYPE svg PUBLIC "-//W3C//DTD SVG 1.0//EN" "http://www.w3.org/TR/2001/REC-SVG-20010904/DTD/svg10.dtd" >
<svg xmlns="http://www.w3.org/2000/svg" >
<metadata>
<version>1.0</version>
<id><![CDATA[Bodoni Poster W10]]></id>
<vendor>Monotype Imaging Inc.</vendor>
<credits>
<name>Fonts.com WebFonts</name>
<URL>http://webfonts.fonts.com</URL>
<role>Home of the Web fonts</role>
</credits>
<license>
<URL>http://webfonts.fonts.com/Legal</URL>
</license>
<copyright><![CDATA[Copyright © 1995, Agfa Division of Bayer Corporation. All rights reserved. Bodoni Poster Cyr is designed by A. Zhitkov.]]></copyright>
<trademark></trademark>
<licensee>
<name></name>
</licensee>
</metadata>
<defs >
<font horiz-adv-x="701" id="fea2ad42-3ce1-43c4-b571-39159cc109a6">
<font-face font-family="" panose-1="2 0 6 5 6 0 0 2 0 3" ascent="957" descent="-242" units-per-em="1000" alphabetic="0">
</font-face>
<missing-glyph horiz-adv-x="0" />

<glyph unicode="&#xA;" />
<glyph unicode="&#xD;" />
<glyph unicode=" " horiz-adv-x="354" />
<glyph unicode="!" horiz-adv-x="330" d="M148 227Q148 272 128 315T84 400T39 482T17 562V567Q17 599 29 623T62 663T108 687T162 695Q189 695 215 687T262 663T295 623T308 566V562Q307 522 287 482T242 401T199 316T179 227H148ZM13 95Q13 119 25 139T57 175T105 199T165 208Q196 208 224 199T272 175T305 140T317 95Q317 72 305 52T273 16T224 -8T165 -17Q133 -17 106 -8T58 16T25 51T13 95Z"  />
<glyph unicode="&quot;" horiz-adv-x="364" d="M201 616Q200 620 200 623T200 630Q200 666 220 682T266 699Q292 699 315 682T338 631Q338 619 335 606L302 419Q294 376 285 358T264 340Q251 340 240 362T225 419L201 616ZM27 616Q26 620 26 627Q26 662 48 679T96 697Q122 697 142 681T163 632Q163 628 163 625T161 616L128 409Q123 380 111 359T84 337Q73 337 65 353T51 409L27 616Z"  />
<glyph unicode="#" horiz-adv-x="537" d="M345 395H251L239 308H333L345 395ZM177 488L206 693H292L264 488H359L387 693H474L445 488H528V395H432L419 308H497V212H407L378 0H291L320 212H226L196 0H109L139 212H38V308H152L165 395H63V488H177Z"  />
<glyph unicode="$" horiz-adv-x="637" d="M301 693V759H341V693Q400 690 449 682T533 655T586 606T600 528Q597 498 574 482T522 465T465 475T426 515Q420 544 424 563T437 597T456 620T473 639Q432 657 395 660T341 663V473Q412 446 469 417T564 351T616 265T616 150Q607 111 583 81T521 28T436 -7T333 -24V-141H294V-24Q246 -24 201 -19T120 3T56 46T17 118Q8 152 18 177T48 216T95 235T146 232T187 204T205 150Q206 126 199 110T180 81T156 59T135 40Q158 23 199 17T294 10V235Q237 260 191 279T113 321T62 375T40 456Q37 507 50 548T94 619T176 668T301 693ZM333 221V10Q356 10 378 14T419 24Q430 36 440 49T456 79Q469 108 439 147T333 221ZM301 663Q234 655 205 635T175 585Q175 560 204 534T301 488V663Z"  />
<glyph unicode="%" horiz-adv-x="971" d="M612 629Q580 618 556 611T509 601T464 599T415 606Q445 557 446 506T429 408T374 324T294 264T199 240T101 261Q50 286 28 335T8 441T34 553T102 647T205 699T338 686Q391 656 443 651T542 653T623 678T676 710H716L314 0H260L612 629ZM211 606L148 348Q138 306 147 286T173 265T208 281T235 331L298 599Q310 634 302 655T277 678T241 664T211 606ZM750 456Q811 456 854 436T923 381T958 303T960 212Q953 167 932 126T877 54T799 6T700 -7Q633 -2 593 32T536 116T525 223T560 330T636 415T750 456ZM730 372L669 94Q660 54 671 37T701 21T736 40T756 87L819 362Q826 392 816 410T790 432T756 421T730 372Z"  />
<glyph unicode="&amp;" horiz-adv-x="946" d="M558 522Q571 502 580 502Q588 502 592 514T596 545Q596 563 591 585T576 627T549 660T510 674Q490 674 489 659T493 629L558 522ZM298 378Q270 372 258 352T245 305Q245 279 255 248T284 188Q295 162 311 139T346 99T388 71T433 60Q454 60 479 71L298 378ZM284 409Q266 444 254 480T242 551Q242 599 265 628T323 673T399 694T478 700Q529 700 565 690T625 664T659 627T670 584Q670 549 645 519T575 479L706 261Q715 264 724 272T740 291T752 314T757 339Q757 358 743 373T693 395V426H913V395Q892 391 878 384T853 369T836 350T819 331L723 227Q727 221 739 201T767 159T804 120T847 103Q864 103 880 115T913 158L937 141Q922 100 896 71T837 21T765 -8T687 -18Q635 -18 587 -2T504 47Q429 11 365 -5T247 -21Q190 -21 146 -6T71 35T25 94T9 165Q9 201 25 238T75 308T161 367T284 409Z"  />
<glyph unicode="&apos;" horiz-adv-x="352" d="M64 324Q99 331 137 345T207 380T260 429T281 495Q281 506 274 505T258 494Q246 482 222 476T171 470Q129 470 101 481T55 509T30 546T23 585Q23 615 35 636T68 671T114 691T166 698Q239 698 283 655T327 538Q327 485 305 443T246 371T163 323T68 298L64 324Z"  />
<glyph unicode="(" horiz-adv-x="354" d="M367 710V677Q325 671 299 651T256 602T233 537T223 461T220 383T217 308Q219 272 219 223T221 120T230 13T253 -84T296 -155T367 -188V-219Q266 -207 193 -160T72 -42T4 120T-12 308Q-8 376 18 442T92 564T209 659T367 710Z"  />
<glyph unicode=")" horiz-adv-x="354" d="M-8 677V710Q77 692 146 654T265 555T342 411T369 221Q369 129 336 52T248 -82T124 -174T-15 -219V-188Q26 -186 53 -161T98 -96T124 -7T136 92T140 188T140 268Q140 309 141 352T140 438T131 520T107 590T63 645T-8 677Z"  />
<glyph unicode="*" horiz-adv-x="457" d="M211 496Q215 520 208 539T191 577T173 616T164 663Q164 686 182 698T223 711Q244 711 261 699T278 660Q278 638 271 619T256 581T241 542T238 496Q256 499 268 508T289 529T307 555T324 585Q340 603 354 610T382 618Q406 618 421 598T437 555Q437 533 422 516T371 496Q336 494 306 489T258 473Q273 458 292 455T332 451T375 448T418 432Q432 421 438 409T445 386Q445 362 425 344T379 325Q365 325 353 331T332 355Q312 390 290 418T238 449Q235 421 242 401T258 362T276 327T285 286Q285 262 265 247T222 232Q202 232 185 245T164 291Q164 315 171 329T187 359T203 394T211 449Q193 438 181 429T160 409T144 386T127 355Q116 338 103 331T75 323Q51 323 32 342T13 386Q13 402 24 417T63 442Q83 445 101 445T135 448T167 456T197 473Q182 482 170 487T144 495T116 500T80 505Q43 510 28 527T12 563Q12 585 28 602T67 620Q83 620 100 610T134 576Q143 564 148 554T161 534T179 515T211 496Z"  />
<glyph unicode="+" horiz-adv-x="505" d="M188 315V505H308V315H505V197H308V0H188V197H0V315H188Z"  />
<glyph unicode="&#x2c;" horiz-adv-x="352" d="M64 -156Q99 -149 137 -135T207 -100T260 -50T281 16Q281 27 274 26T258 15Q246 3 222 -3T171 -10Q129 -10 101 1T55 29T30 66T23 105Q23 135 35 157T68 192T114 212T166 219Q239 219 283 176T327 58Q327 5 305 -37T246 -109T163 -157T68 -182L64 -156Z"  />
<glyph unicode="-" horiz-adv-x="354" d="M40 331H314V174H40V331Z"  />
<glyph unicode="." horiz-adv-x="333" d="M166 219Q192 219 217 213T263 192T295 156T308 104Q308 74 296 53T264 17T219 -3T166 -10Q139 -10 114 -4T68 17T36 52T23 104Q23 134 35 155T68 191T113 212T166 219Z"  />
<glyph unicode="/" horiz-adv-x="512" d="M19 0L374 724H512L159 0H19Z"  />
<glyph unicode="0" horiz-adv-x="678" d="M391 606Q391 650 376 671T341 692Q322 692 306 671T290 606V118Q290 66 304 43T338 19Q358 19 374 43T391 111V606ZM336 724Q414 727 473 696T571 611T631 491T652 355Q653 281 633 215T573 97T473 16T333 -14Q259 -14 202 18T106 105T47 227T26 366Q26 432 44 495T101 608T197 689T336 724Z"  />
<glyph unicode="1" horiz-adv-x="678" d="M472 717V32H561V0H117V32H220V670H134V700H284L472 717Z"  />
<glyph unicode="2" horiz-adv-x="678" d="M339 623Q325 652 296 664T237 676Q211 676 189 668T159 646Q216 635 241 605T266 540Q266 520 259 501T237 466T203 442T159 432Q134 430 114 438T79 461T56 498T48 543Q48 573 62 603T107 659T188 700T309 717H316Q401 717 461 698T558 647T613 577T631 499Q631 444 602 399T522 338Q501 331 465 323T387 302T301 275T222 240T165 196T142 141Q193 176 243 190T347 205Q367 205 388 203T433 197Q450 195 477 189T532 183Q562 183 586 195T617 244H647Q632 100 560 38T349 -14Q325 -13 299 -6T246 10T193 25T144 32Q119 32 99 22T65 -14H31Q37 42 52 84T88 159T136 218T192 268T253 319T316 378Q339 403 351 438T364 514Q364 542 358 569T339 623Z"  />
<glyph unicode="3" horiz-adv-x="678" d="M327 653Q313 667 297 672T264 678Q237 678 215 668T184 646Q230 623 249 594T269 535Q269 499 242 473T170 446Q147 446 127 454T93 477T70 512T61 556Q61 583 74 609T116 658T194 694T311 710Q337 710 369 706T434 693T498 669T552 633T590 583T605 519Q605 493 594 468T561 422T504 385T422 362Q475 353 515 334T583 290T623 234T637 173Q637 137 619 102T563 40T469 -3T336 -20Q294 -20 248 -14Q194 -8 155 10T91 52T53 103T41 158Q41 200 70 230T154 261Q174 261 194 254T230 235T256 205T266 166Q266 128 241 91T177 32Q205 16 240 16Q270 16 295 26T327 47Q346 79 358 121T371 206Q371 231 366 254T347 296T314 325T264 338Q242 340 231 345T220 357Q220 365 234 371T274 378Q294 378 311 379T341 390T361 420T368 479Q368 534 359 579T327 653Z"  />
<glyph unicode="4" horiz-adv-x="678" d="M417 717H569V235H654V188H569V32H647V0H235V32H316V188H24V235L417 717ZM316 235V538L71 235H316Z"  />
<glyph unicode="5" horiz-adv-x="678" d="M127 378Q190 404 246 416T352 428Q420 428 473 408T562 356T618 283T637 199Q637 158 619 120T563 52T467 4T327 -14Q287 -14 248 -12T173 -1T108 27T58 79Q41 107 41 138T54 195T92 238T152 255Q175 255 196 249T232 229T257 197T267 152Q267 117 245 85T174 40Q181 24 201 17T246 9Q267 9 287 15T319 32Q332 40 341 57T355 96T363 145T366 198Q366 243 360 280T342 331Q328 358 304 369T250 380Q221 380 198 373T156 356T126 340T107 332Q101 332 99 337T96 350T96 366T97 378L137 710Q158 710 186 706T248 696T320 687T398 682Q431 682 465 686T532 700Q547 705 561 710T587 715Q601 715 603 706T603 686Q589 630 557 594T483 536T393 505T296 496Q254 496 215 501T144 515L127 378Z"  />
<glyph unicode="6" horiz-adv-x="678" d="M297 372Q367 408 426 410T531 391T607 331T648 246T650 153T608 66T518 2T374 -24Q287 -25 222 6T112 88T46 204T24 338T44 473T109 592T219 679T374 717Q409 718 452 710T531 683T591 631T612 552Q610 519 589 499T539 472T478 468T423 488T391 530T398 592Q401 601 405 608T417 624T434 641T459 663Q424 686 395 684T344 660T310 605T297 528V372ZM388 277Q392 309 378 328T346 349T313 335T297 277V94Q297 47 311 25T342 2T374 23T388 87V277Z"  />
<glyph unicode="7" horiz-adv-x="678" d="M98 639Q142 671 179 688T249 711T314 717T382 710Q406 701 432 690T486 673T542 668T596 686Q611 694 622 694T638 687T641 672T627 653Q586 615 553 559T496 441T459 317T446 205Q453 122 435 70T383 -8T311 -36T237 -22T181 30T162 111Q165 152 190 196T252 282T331 365T409 440T469 501T493 545Q445 508 395 502T293 504T190 525T84 538L68 449H37L74 710H108L98 639Z"  />
<glyph unicode="8" horiz-adv-x="678" d="M443 362Q528 344 578 309T646 230T651 142T598 60T490 0T332 -24Q244 -24 179 0T76 62T26 146T33 235T102 312T236 362Q158 378 113 410T54 480T53 560T105 634T206 688T349 710Q429 710 488 689T584 634T632 560T627 481T566 410T443 362ZM295 432Q291 403 305 388T337 372T370 385T386 432V616Q390 645 376 662T344 682T311 670T295 616V432ZM386 284Q386 317 371 332T337 346T305 329T295 284V79Q295 44 309 25T340 6T372 22T386 79V284Z"  />
<glyph unicode="9" horiz-adv-x="678" d="M381 325Q353 299 319 289T248 277Q179 275 129 306T51 385T24 489T54 594T150 676T320 710Q402 711 464 681T568 602T631 489T653 358T633 226T571 109T467 24T320 -14Q263 -17 206 -5T110 33T55 96T66 180Q76 198 96 209T139 223T186 221T230 203T262 168T273 118Q272 100 265 88T248 67T225 49T201 32Q216 26 235 22T275 17T314 24T348 48T372 96T381 174V325ZM374 409V616Q377 645 365 662T337 682T306 670T287 616V409Q287 371 300 355T330 339T360 359T374 409Z"  />
<glyph unicode=":" horiz-adv-x="333" d="M166 511Q192 511 217 505T263 484T295 448T308 396Q308 366 296 344T264 309T219 289T166 282Q139 282 114 288T68 308T36 344T23 396Q23 426 35 447T68 483T113 504T166 511ZM166 219Q192 219 217 213T263 192T295 156T308 104Q308 74 296 53T264 17T219 -3T166 -10Q139 -10 114 -4T68 17T36 52T23 104Q23 134 35 155T68 191T113 212T166 219Z"  />
<glyph unicode=";" horiz-adv-x="344" d="M167 510Q194 510 219 504T265 483T297 448T310 396Q310 366 298 344T266 308T220 288T167 281Q140 281 115 287T69 308T37 344T24 396Q24 426 36 447T69 483T114 503T167 510ZM265 21Q244 6 216 -1T157 -9Q131 -9 107 -2T64 20T34 55T23 105Q23 131 34 152T63 189T106 212T157 221Q190 221 219 213T271 187T306 143T319 81Q319 -34 248 -101T52 -184V-154Q96 -151 135 -133T204 -91T251 -41T268 5Q268 13 265 21Z"  />
<glyph unicode="&lt;" horiz-adv-x="678" d="M10 308L515 522V395L168 254L515 103V-24L10 197V308Z"  />
<glyph unicode="=" horiz-adv-x="678" d="M24 419H530V291H24V419ZM24 221H530V94H24V221Z"  />
<glyph unicode="&gt;" horiz-adv-x="678" d="M356 254L8 402V528L513 308V197L15 -24V103L356 254Z"  />
<glyph unicode="?" horiz-adv-x="568" d="M125 111Q129 140 143 160T177 193T223 210T275 212Q305 212 332 205T380 185T413 154T426 111Q426 71 404 45T348 4T276 -10T203 2T148 43T125 111ZM142 653Q183 653 211 637T253 596T267 543T253 490T211 449T142 432Q96 432 64 452T18 504T9 571T47 638T136 689T285 710Q364 710 418 693T504 648T549 587T559 522Q555 476 533 450T479 407T413 379T348 351T301 308T285 235H253Q247 269 254 302T273 368T299 433T318 498T320 563T292 629Q277 650 255 660T211 671T170 668T142 653Z"  />
<glyph unicode="@" horiz-adv-x="758" d="M488 479L503 522H599L552 205Q589 207 615 239T653 317T657 418T619 518T531 594T385 623Q329 622 279 604T191 548T131 457T109 331Q109 274 133 228T198 148T291 95T397 72T504 84T599 134H709Q659 65 589 30T441 -11T286 5T148 75T48 194T8 355Q7 424 33 486T108 597T223 675T370 710Q401 711 439 708T516 694T593 663T662 612T716 536T747 432Q755 373 738 324T689 238T617 177T539 143T472 141T432 174Q409 156 388 149T331 141Q280 139 245 167T191 237T174 330T197 424T264 497T378 528Q389 528 406 526T441 517T471 502T488 479ZM395 426Q368 426 348 418T313 397T292 366T284 331Q284 313 288 296T302 267T326 248T361 244Q390 242 412 253T448 283T465 325T464 369T441 406T395 426Z"  />
<glyph unicode="A" horiz-adv-x="819" d="M87 111L308 693H505L757 32H819V0H368V32H439L368 221H165L124 94Q121 74 126 62T142 43T167 34T195 32V0H0V32Q18 32 29 34T50 44T68 68T87 111ZM355 254L267 496L180 254H355Z"  />
<glyph unicode="B" horiz-adv-x="836" d="M91 663H20V693H500Q574 693 632 687T732 663T794 615T816 538Q816 493 799 462T751 410T676 381T579 372V355Q690 360 754 322T824 188Q829 94 764 47T555 0H20V32H91V663ZM506 442V599Q506 623 499 636T479 655T445 662T399 663V372Q417 372 435 373T470 380T496 401T506 442ZM516 277Q516 304 502 316T469 334T430 339T399 338V32Q434 29 457 33T493 47T511 71T516 103V277Z"  />
<glyph unicode="C" horiz-adv-x="691" d="M672 710V456H639Q627 507 606 544T560 606T506 643T451 656Q403 656 369 618T334 505V221Q334 170 344 134T371 74T411 39T460 28Q489 28 519 42T575 82T621 144T649 227H679Q676 168 650 122T583 44T496 -6T404 -24H399Q305 -24 234 7T116 89T44 207T20 341Q20 407 42 469T109 582T221 664T380 700Q390 701 398 701T415 701Q455 701 488 694T561 663L639 710H672Z"  />
<glyph unicode="D" horiz-adv-x="859" d="M510 585Q510 601 509 615T497 641T466 660T406 670V24Q421 24 439 25T473 35T499 60T510 111V585ZM101 663H30V693H469Q562 693 631 664T747 586T816 475T839 349Q839 284 816 221T747 109T631 30T469 0H20V32H101V663Z"  />
<glyph unicode="E" horiz-adv-x="733" d="M97 663H20V693H696V449H666Q660 494 643 535T594 607T514 655T398 670V362Q425 359 449 370T492 401T522 448T533 505H563V188H533Q523 242 506 271T470 313T431 329T398 331V24Q453 20 494 32T566 65T616 113T648 167T665 220T673 261H703V0H20V32H97V663Z"  />
<glyph unicode="F" horiz-adv-x="725" d="M406 32H490V0H20V32H98V663H20V693H713V442H680Q669 512 646 556T589 626T509 660T406 670V362Q441 359 465 371T505 402T529 447T540 496H572V188H540Q540 213 530 239T502 287T460 321T406 331V32Z"  />
<glyph unicode="G" horiz-adv-x="821" d="M683 710H730V466H697Q676 530 642 572T568 637T489 663T417 654T365 611T345 538V118Q345 68 363 41T403 12T443 34T461 111V331H399V362H801V331H744V64Q688 61 642 48T555 19T476 -7T399 -14Q307 -20 238 7T120 84T47 199T20 333T40 470T108 592T224 680T391 717Q435 718 468 713T527 699T570 677T603 653L683 710Z"  />
<glyph unicode="H" horiz-adv-x="915" d="M104 663H20V693H443V663H405V372H513V663H476V693H895V663H816V32H895V0H476V32H513V338H405V32H443V0H20V32H104V663Z"  />
<glyph unicode="I" horiz-adv-x="503" d="M98 663H20V693H483V663H406V32H483V0H27V32H98V663Z"  />
<glyph unicode="J" horiz-adv-x="629" d="M236 663H135V693H609V663H538V244Q538 188 524 141T478 61T395 8T271 -14Q244 -15 215 -13T157 -3T96 21T34 64Q13 93 5 129T3 198T35 252T104 277Q143 278 168 264T205 228T216 179T201 129T164 90T104 71Q107 46 128 38T175 37T226 64T265 114T275 183T236 268V663Z"  />
<glyph unicode="K" horiz-adv-x="970" d="M101 663H20V693H486V663H399V338L636 576Q647 587 654 599T661 622Q661 639 639 651T559 663V693H873V663Q843 663 819 658T777 645T747 629T730 616L626 515L911 32H958V0H510V32H572L399 331V32H469V0H20V32H101V663Z"  />
<glyph unicode="L" horiz-adv-x="722" d="M91 32V663H20V693H493V663H399V32Q407 32 414 32T430 31Q471 31 511 41T584 78T641 154T673 277H706V0H20V32H91Z"  />
<glyph unicode="M" horiz-adv-x="1041" d="M109 663H40V693H402L526 362L653 693H1021V663H937V32H1021V0H568V32H646V576L415 0H378L158 576V118Q158 100 160 85T170 58T196 39T242 32V0H30V32Q51 35 66 38T90 49T104 73T109 118V663Z"  />
<glyph unicode="N" horiz-adv-x="834" d="M550 0L155 552V103Q155 73 163 59T183 38T211 32T242 32V0H37V32Q64 32 80 37T104 52T115 72T118 94V606Q118 631 101 647T30 663V693H423L683 315V606Q683 630 675 640T655 654T627 658T597 663V693H804V663Q788 659 774 658T748 653T731 638T724 606V0H550Z"  />
<glyph unicode="O" horiz-adv-x="833" d="M415 700Q512 700 587 669T714 586T790 469T813 338Q810 270 783 205T704 89T579 7T411 -24Q313 -24 241 7T120 88T47 203T20 336Q18 404 42 469T117 586T241 668T415 700ZM482 576Q482 620 461 644T415 670T369 649T348 576V103Q348 55 369 31T415 5T461 28T482 103V576Z"  />
<glyph unicode="P" horiz-adv-x="846" d="M516 395V599Q516 610 514 621T500 642T467 657T406 663V315Q414 314 420 314T434 314Q473 314 494 331T516 395ZM101 32V663H37V693H565Q632 693 681 676T764 631T813 567T830 493Q830 454 813 417T762 350T677 302T559 284H406V32H493V0H20V32H101Z"  />
<glyph unicode="Q" horiz-adv-x="829" d="M416 710Q498 709 564 684T679 616T760 518T802 402T805 280T765 164T678 67T544 0Q573 -38 605 -56T669 -74T726 -57T771 -7L805 -24Q771 -86 743 -126T685 -189T624 -218T551 -219Q518 -214 498 -190T468 -135T460 -71T470 -14Q370 -32 291 -10T154 60T64 175T23 314T34 458T101 585T227 676T416 710ZM339 126Q353 132 368 136T399 141T433 138T470 120V585Q470 634 450 656T405 678T360 652T339 585V126ZM401 118Q367 116 351 99T337 57Q339 39 355 25T401 10Q437 10 451 25T466 62Q466 85 448 102T401 118Z"  />
<glyph unicode="R" horiz-adv-x="932" d="M508 585Q508 610 504 625T487 649T456 660T406 663V385H428Q443 385 457 387T483 396T501 417T508 456V585ZM107 663H37V693H589Q653 693 699 679T776 641T821 587T836 526Q836 495 823 466T783 413T718 376T629 362Q696 355 734 330T792 270T816 197T821 126T823 72T837 50Q851 50 887 87L920 79Q908 54 887 35T839 2T781 -19T716 -26Q675 -26 637 -15T568 21T519 83T500 174V284Q500 311 492 325T471 346T441 354T406 355V32H486V0H20V32H107V663Z"  />
<glyph unicode="S" horiz-adv-x="626" d="M421 670L557 717V479H525Q499 536 468 574T404 636T339 670T278 681Q236 681 209 663T181 617Q181 596 200 573T266 528Q298 513 336 497T413 461T488 418T552 364T597 298T614 217Q614 194 610 170T594 118Q582 84 555 58T493 14T415 -13T329 -23Q278 -23 231 -10T146 32L43 -14H12V227H43Q69 167 103 127T173 62T247 26T317 15Q367 15 399 34T432 82Q432 100 415 120T360 158Q294 189 232 219T122 285T45 366T15 474Q15 494 18 516T29 562Q39 597 62 625T117 672T187 702T266 713Q305 713 345 703T421 670Z"  />
<glyph unicode="T" horiz-adv-x="772" d="M12 693H760V442H727Q720 473 708 511T673 584T618 643T537 670V32H635V0H140V33H236V670Q188 667 155 643T100 585T66 512T46 442H12V693Z"  />
<glyph unicode="U" horiz-adv-x="790" d="M90 663H12V693H475V663H391V165Q391 133 400 110T426 71T463 48T507 40Q533 40 558 50T604 81T637 133T650 205V616Q650 634 644 643T627 657T600 662T564 663V693H778V663Q756 663 740 662T712 655T695 636T689 599V188Q689 135 663 97T595 33T500 -5T390 -18Q334 -18 280 -6T184 29T116 86T90 165V663Z"  />
<glyph unicode="V" horiz-adv-x="813" d="M545 254L677 585Q687 607 687 623Q687 640 673 651T616 663V693H813V663Q788 659 773 654T749 641T732 619T717 585L490 0H325L57 663H0V693H449V663H379L545 254Z"  />
<glyph unicode="W" horiz-adv-x="999" d="M31 663H0V693H362V663H332L439 308L487 449L433 663H402V693H774V663H724L821 291L907 606Q910 615 910 624Q910 638 897 650T843 663V693H999V663Q985 659 976 651T960 630T948 603T938 569L774 0H599L503 378L392 0H229L31 663Z"  />
<glyph unicode="X" horiz-adv-x="884" d="M541 473L628 585Q640 601 640 616T630 642T596 660T541 663V693H825V663Q790 663 754 653T689 606L557 442L833 32H872V0H407V32H478L320 268L200 103Q182 73 184 59T201 38T241 32T296 32V0H12V32Q27 32 43 33T77 41T114 62T153 103L303 301L59 663H12V693H485V663H414L541 473Z"  />
<glyph unicode="Y" horiz-adv-x="858" d="M291 32V284L64 663H0V693H473V663H409L583 372L717 592Q726 611 726 625Q726 639 718 647T696 658T668 662T638 663V693H858V663Q835 657 821 651T797 637T780 620T766 599L599 325V32H685V0H205V32H291Z"  />
<glyph unicode="Z" horiz-adv-x="708" d="M358 670Q293 673 245 653T163 601T109 528T80 449H50L67 693H696V663L365 24H420Q456 24 493 37T564 80T621 153T657 261H687L679 0H33V40L358 670Z"  />
<glyph unicode="[" horiz-adv-x="334" d="M183 670V-172H316V-219H18V717H316V670H183Z"  />
<glyph unicode="\" horiz-adv-x="507" d="M10 710H145L497 0H362L10 710Z"  />
<glyph unicode="]" horiz-adv-x="334" d="M151 670H18V710H316V-219H25V-178H151V670Z"  />
<glyph unicode="^" horiz-adv-x="507" d="M250 569L124 284L13 331L193 710H311L494 331L391 284L250 569Z"  />
<glyph unicode="_" horiz-adv-x="1355" d="M0 -84H1355V-141H0V-84Z"  />
<glyph unicode="`" horiz-adv-x="274" d="M176 522L42 606Q11 626 11 654Q11 677 31 694T80 712Q98 712 117 703T153 670L263 522H176Z"  />
<glyph unicode="a" horiz-adv-x="665" d="M594 355V111Q594 84 598 72T610 57T630 60T657 79V47Q647 29 626 15T576 -9T517 -20T456 -17T403 4T365 47Q330 9 278 -7T173 -22T80 1T27 57Q4 124 26 168T98 238T217 270T358 268V395Q358 422 350 436T329 456T299 461T264 456Q301 419 303 389T286 336T232 303T162 293T97 311T57 362Q51 409 77 436T144 476T235 493T326 496Q347 496 375 494T433 486T492 470T543 444T580 407T594 355ZM358 111V244H318Q298 244 287 230T272 192T268 142T272 87Q275 61 288 50T317 43T345 64T358 111Z"  />
<glyph unicode="b" horiz-adv-x="683" d="M322 426Q340 444 357 457T392 478T432 491T480 496Q543 490 584 456T646 373T670 266T659 155T616 60T544 0Q529 -9 500 -14T437 -13T368 14T307 79V-7L24 0V32H85V670H31V700Q55 700 82 700T144 702T222 707T322 717V426ZM416 348Q416 397 402 416T369 430T337 399T322 331V141Q322 100 336 77T369 50T401 64T416 126V348Z"  />
<glyph unicode="c" horiz-adv-x="609" d="M459 432Q408 463 374 461T319 430T288 351T277 235Q276 153 293 106T337 38T397 19T463 40T522 87T563 150L593 134Q559 63 503 26T381 -22T249 -19T130 31T45 118T16 235Q19 295 44 340T106 416T190 464T285 488Q309 491 348 490T430 480T510 450T569 395Q594 351 591 316T569 256T519 219T457 209T400 232T364 291Q361 304 361 322T370 360T399 399T459 432Z"  />
<glyph unicode="d" horiz-adv-x="676" d="M357 426V670H286V700Q386 700 466 706T601 717V32H658V0Q595 -3 549 -4T470 -6T413 -7T372 -7V71Q343 24 302 4T216 -14T132 10T64 71Q33 115 20 172T14 287T50 394T128 473Q157 489 189 495T253 496T312 473T357 426ZM357 362Q357 395 344 412T314 430T285 414T271 362V118Q271 83 284 66T314 50T343 75T357 141V362Z"  />
<glyph unicode="e" horiz-adv-x="608" d="M273 409V227H353V409Q353 439 341 452T313 465T286 450T273 409ZM273 197Q269 136 281 98T316 40T368 19T430 28T493 63T551 118L581 111Q560 84 538 61T486 19T416 -10T320 -24Q246 -27 190 -7T96 49T37 132T16 228T32 324T87 408T180 467T314 488Q369 488 422 468T516 410T577 319T590 197H273Z"  />
<glyph unicode="f" horiz-adv-x="412" d="M85 488Q83 502 85 525T95 574T118 627T157 675T217 710T300 724Q360 724 394 697T423 616Q420 581 401 564T360 542T316 546T285 569Q266 591 270 621T315 686Q297 689 280 686T250 673T228 647T219 606Q219 577 232 554T267 515T320 492T386 488V456H322V32H379V0H24V32H85V456H24V488H85Z"  />
<glyph unicode="g" horiz-adv-x="620" d="M383 488Q410 536 443 559T507 587T563 580T597 545Q609 517 602 498T577 470T537 460T498 469T473 498T477 545Q471 542 462 535T445 519T430 500T423 479Q507 451 538 406T558 308Q541 236 484 208T320 180Q300 180 271 182T213 184T166 178T146 158Q152 143 173 136T221 127T273 125T314 126Q394 126 443 118T521 96T562 64T581 24Q585 10 588 -12T587 -60T569 -112T525 -161T445 -199T320 -219Q245 -223 188 -214T93 -187T36 -148T20 -106T48 -69T122 -47Q75 -26 49 10T23 85T52 157T146 205Q93 226 66 259T35 329T52 400T117 459T227 492T383 488ZM344 261V409Q344 445 330 458T298 469T269 450T259 409V261Q259 231 273 217T305 203T334 219T344 261ZM504 -125Q511 -106 499 -97T461 -84T399 -81T322 -82T240 -77T163 -61Q151 -67 141 -84T130 -120T145 -156T203 -178Q217 -182 243 -184T300 -187T364 -184T426 -174T476 -154T504 -125Z"  />
<glyph unicode="h" horiz-adv-x="732" d="M318 395Q346 438 382 462T455 492T529 490T594 460T640 405T658 331V32H712V0H382V32H412V331Q412 390 398 406T365 411T333 371T318 308V32H359V0H20V32H74V670H20V700Q38 700 72 700T148 702T234 707T318 717V395Z"  />
<glyph unicode="i" horiz-adv-x="392" d="M71 449H24V479Q83 479 160 480T322 488V32H377V0H24V32H71V449ZM194 716Q218 716 241 712T284 697T314 667T326 619Q326 592 314 573T283 543T241 527T194 522Q171 522 148 527T105 543T74 573T62 619Q62 648 73 667T104 697T146 712T194 716Z"  />
<glyph unicode="j" horiz-adv-x="367" d="M88 449H0V473Q101 473 180 477T325 488V57Q325 -26 304 -78T251 -159T181 -198T110 -209Q92 -213 70 -211T27 -199T-11 -176T-38 -141Q-44 -112 -37 -91T-14 -56T20 -37T59 -33T94 -47T118 -77Q130 -108 117 -135T80 -188Q130 -188 158 -161T188 -98T166 -31T88 10V449ZM202 716Q226 716 250 712T292 697T323 667T335 619Q335 592 323 573T292 543T249 527T202 522Q179 522 156 527T113 543T82 573T70 619Q70 648 81 667T112 697T154 712T202 716Z"  />
<glyph unicode="k" horiz-adv-x="688" d="M300 235L440 362Q451 374 457 389T458 418T435 440T377 449V473H654V449Q621 452 594 440T544 411T505 378T480 355L668 32H684V0H377V32H416L315 205L300 197V32H346V0H24V32H71V670H24V700Q59 700 89 701T151 705T219 711T300 717V235Z"  />
<glyph unicode="l" horiz-adv-x="395" d="M77 32V670H20V700Q109 700 181 706T321 717V32H375V0H20V32H77Z"  />
<glyph unicode="m" horiz-adv-x="1024" d="M300 479V385Q333 429 369 453T439 486T504 490T559 470T598 433T615 385Q665 448 723 473T830 489T913 438T946 325V32H1000V0H684V32H716V315Q716 359 703 382T673 406T644 385T630 315V32H662V0H369V32H401V308Q401 367 388 390T358 409T329 377T315 308V32H346V0H24V32H78V449H24V473Q95 473 163 473T300 479Z"  />
<glyph unicode="n" horiz-adv-x="725" d="M81 32V449H24V473Q60 473 93 474T161 478T234 485T316 496V402Q345 439 381 461T455 492T529 494T592 470T637 421T654 348V32H701V0H379V32H420V338Q420 382 406 401T374 417T339 392T316 331V32H356V0H24V32H81Z"  />
<glyph unicode="o" horiz-adv-x="652" d="M320 488Q406 489 466 467T565 407T619 323T635 227Q634 181 614 136T557 56T466 -1T344 -24Q261 -25 200 -4T99 53T38 133T16 227Q15 275 34 321T92 404T187 464T320 488ZM382 385Q382 420 366 440T332 461T297 445T281 385V87Q281 45 297 24T331 2T366 22T382 87V385Z"  />
<glyph unicode="p" horiz-adv-x="678" d="M20 -219V-188H68V449H20V473Q64 473 101 474T172 477T235 482T296 488V402Q308 417 321 432T351 461T393 483T453 496Q524 494 571 456T642 361T666 238T643 116T572 23T453 -14Q400 -14 365 9T312 57V-188H382V-219H20ZM397 362Q397 404 384 418T355 426T326 399T312 348V134Q312 101 325 78T354 49T383 58T397 118V362Z"  />
<glyph unicode="q" horiz-adv-x="680" d="M375 409V488Q440 481 511 477T660 473V449H604V-188H660V-219H298V-188H368V47Q347 27 329 15T293 -3T254 -12T209 -14Q159 -7 123 16T63 74T28 149T16 235Q16 284 30 331T70 415T136 474T225 496Q267 495 292 485T333 460T357 432T375 409ZM368 355Q365 390 350 408T318 426T288 411T274 362V134Q274 93 288 72T321 49T353 69T368 134V355Z"  />
<glyph unicode="r" horiz-adv-x="621" d="M80 449H16V473H324V385Q337 417 363 440T422 476T487 488T547 475T591 434T609 362Q609 324 592 298T548 259T492 245T435 261Q420 270 408 287T387 327T376 373T378 419Q358 401 347 382T331 343T325 302T324 261V32H402V0H33V32H80V449Z"  />
<glyph unicode="s" horiz-adv-x="507" d="M352 466L422 488H455L463 315H438Q409 377 370 410T292 456T224 464T182 444T184 406T248 362Q275 350 311 339T382 312T442 272T478 212Q496 139 473 87T402 9T286 -17T147 17L61 -14H29L22 174H46Q92 101 140 64T229 14T300 9T341 34T343 73T290 111Q270 119 243 125T186 139T129 159T77 191T39 241T22 315Q20 359 35 391T75 444T135 475T207 488T282 484T352 466Z"  />
<glyph unicode="t" horiz-adv-x="457" d="M12 449V473Q39 470 79 478T160 508T239 563T297 646H320V473H431V449H320V79Q320 40 334 36T367 47T399 94T414 158H445Q445 101 418 61T349 -1T261 -29T172 -21T104 23T76 103V449H12Z"  />
<glyph unicode="u" horiz-adv-x="732" d="M74 449H20V473Q52 473 85 473T154 473T230 475T318 479V126Q318 88 331 70T362 51Q380 51 396 72T412 134V449H359V473Q388 473 426 473T503 473T581 475T650 479V32H712V0Q662 0 625 -1T555 -4T490 -8T419 -14V79Q392 30 344 6T244 -19Q211 -19 181 -9T127 21T89 71T74 141V449Z"  />
<glyph unicode="v" horiz-adv-x="663" d="M364 449H307L441 150L529 362Q541 393 541 411Q541 432 526 440T482 449V473H655V449Q634 446 621 439T599 422T584 399T568 372L401 0H253L49 449H-8V473H364V449Z"  />
<glyph unicode="w" horiz-adv-x="960" d="M323 449H290L417 141L464 254L394 449H346V473H692V449H628L748 141L835 372Q840 383 843 394T846 415Q846 430 837 439T802 449V473H952V449Q940 446 930 443T912 433T897 415T882 385L732 0H557L478 212L400 0H219L45 449H-8V473H323V449Z"  />
<glyph unicode="x" horiz-adv-x="692" d="M336 449L440 308L501 372Q510 381 514 394T514 419T496 440T454 449V473H684V449Q666 449 654 446T632 437T610 420T583 395L454 277L637 32H684V0H322V32H353L250 165L179 94Q159 68 165 55T191 37T234 32T275 32V0H14V32Q26 32 41 36T73 47T105 65T132 87L233 197L68 449H14V473H393V449H336Z"  />
<glyph unicode="y" horiz-adv-x="681" d="M452 210L546 362Q564 397 553 420T501 449V473H673V449Q658 446 647 439T626 422T607 399T585 372L350 -30Q316 -88 280 -130T204 -195T125 -220T42 -202Q17 -190 5 -169T-7 -124T2 -77T30 -39T76 -20T136 -30Q157 -39 168 -58T179 -99T170 -142T136 -178Q153 -185 176 -175T225 -142T274 -84T318 -7L42 449H-12V473H374V449H318L452 210Z"  />
<glyph unicode="z" horiz-adv-x="595" d="M296 449Q242 449 207 435T148 398T113 350T91 301H57L67 473H579V442L303 24Q355 24 392 32T456 61T504 114T547 197H579L570 0H20V32L296 449Z"  />
<glyph unicode="{" horiz-adv-x="360" d="M209 244Q239 238 254 225T276 194T283 153T283 103V-101Q283 -142 300 -167T354 -209Q297 -213 249 -210T167 -191T113 -149T93 -77V111Q93 137 92 157T84 194T63 223T22 244Q49 253 63 267T84 298T92 331T93 362V569Q93 618 108 648T155 693T238 712T360 710Q334 695 320 683T299 657T291 628T290 592V355Q290 337 287 320T274 288T249 262T209 244Z"  />
<glyph unicode="|" horiz-adv-x="334" d="M95 852H238V0H95V852Z"  />
<glyph unicode="}" horiz-adv-x="360" d="M162 244Q136 250 122 265T101 297T93 332T92 362V599Q92 628 87 644T71 671T49 690T22 710Q60 713 105 713T189 702T254 670T280 606V348Q280 313 299 285T360 244Q330 232 314 218T290 188T281 157T280 126V-84Q280 -135 256 -163T195 -203T112 -216T22 -209Q39 -201 52 -194T74 -175T87 -148T92 -108V126Q92 162 98 181T115 212T137 229T162 244Z"  />
<glyph unicode="~" horiz-adv-x="528" d="M528 284Q492 222 457 197T392 168T337 173T298 188Q268 200 242 214T191 232T141 220T86 158L22 227Q55 293 90 321T159 354T224 348T283 325Q310 313 333 301T377 287T419 302T463 362L528 284Z"  />
<glyph unicode="&#xA0;" horiz-adv-x="354" />
<glyph unicode="&#xA4;" horiz-adv-x="593" d="M153 552Q195 579 236 588T314 596T385 582T445 552L494 599L581 515L534 456Q549 436 560 402T574 328T567 248T527 174L581 126L487 40L445 87Q410 61 366 51T279 43T203 57T153 87L100 40L12 126L69 174Q48 200 37 241T27 324T40 402T76 456L22 505L106 599L153 552ZM179 320Q179 296 188 275T214 237T251 212T297 202Q321 202 342 211T379 237T404 274T414 320Q414 344 405 365T380 403T343 428T297 437Q273 437 252 428T214 403T189 366T179 320Z"  />
<glyph unicode="&#xA6;" horiz-adv-x="334" d="M238 359V0H95V359H238ZM95 499V852H238V499H95Z"  />
<glyph unicode="&#xA7;" horiz-adv-x="541" d="M148 372Q84 421 58 466T32 550T58 620T118 673T199 706T285 717Q309 716 337 714T393 702T449 675T498 623Q513 600 506 575T480 534T433 518T379 545Q367 566 367 581T373 609T385 630T394 646T390 661T362 677Q338 686 308 687T248 683T194 666T159 639T155 606T195 569Q219 555 253 540T324 508T398 469T464 421T511 363T529 291Q529 259 523 235T503 192T465 160T409 134Q467 91 495 49T526 -33T511 -107T456 -165T370 -204T261 -219Q236 -219 203 -213T139 -196T82 -169T47 -131Q33 -102 35 -75T51 -31T91 -10T148 -24Q163 -33 168 -47T174 -77T168 -107T157 -131Q153 -145 165 -156T197 -173T242 -183T292 -185T335 -179T362 -165Q391 -141 385 -116T354 -68T291 -25T221 10Q116 57 66 111T12 216T44 309T148 372ZM426 180Q431 186 425 197T402 223T364 252T315 284Q291 298 266 311T216 332T173 342T142 338Q122 326 132 306T171 262T239 216T317 180T385 165T426 180Z"  />
<glyph unicode="&#xA9;" horiz-adv-x="738" d="M424 426V488Q424 503 415 510T392 520T362 523T330 522V378Q371 378 397 386T424 426ZM236 522H196V545H407Q449 545 476 532T517 500T531 459T520 417T484 385T424 372Q451 366 468 357T496 334T509 303T513 261Q513 219 528 201T567 205L574 180Q563 172 538 167T486 166T439 192T416 254Q416 268 416 286T408 321T383 347T330 355V205H377V180H187V205H236V522ZM0 341Q0 417 29 484T108 602T225 681T369 710Q445 710 512 681T630 602T709 485T738 341Q738 264 709 197T630 80T513 1T369 -28Q292 -28 225 1T108 80T29 197T0 341ZM68 341Q68 278 91 224T156 128T252 64T370 40Q432 40 487 63T583 128T647 223T671 341Q671 403 648 458T583 554T487 618T370 642Q307 642 252 619T156 554T92 458T68 341Z"  />
<glyph unicode="&#xAB;" horiz-adv-x="470" d="M353 235L470 79H346L235 235L346 395H470L353 235ZM142 235L259 79H132L24 235L132 395H259L142 235Z"  />
<glyph unicode="&#xAC;" horiz-adv-x="555" d="M402 301H16V419H514V118H402V301Z"  />
<glyph unicode="&#xAD;" horiz-adv-x="354" d="M40 331H314V174H40V331Z"  />
<glyph unicode="&#xAE;" horiz-adv-x="747" d="M514 426H491Q484 456 468 476T432 506T390 518T350 513T321 489T309 449V268Q309 234 322 214T355 184T398 177T443 192T481 225T501 277H524V165H501L484 188Q477 179 463 173T432 162T397 156T364 158Q307 168 270 199T214 271T197 357T218 442T277 508T373 538Q396 540 420 533T474 515L491 528H514V426ZM8 341Q8 417 37 484T116 602T234 681T377 710Q453 710 520 681T638 602T718 485T747 341Q747 264 718 197T639 80T521 1T377 -28Q301 -28 234 1T117 80T37 197T8 341ZM77 341Q77 278 100 224T165 128T261 64T378 40Q440 40 495 63T591 128T655 223T679 341Q679 403 656 458T591 554T495 618T378 642Q316 642 261 619T165 554T101 458T77 341Z"  />
<glyph unicode="&#xB0;" horiz-adv-x="260" d="M80 593Q80 572 94 558T130 543Q151 543 165 557T180 593Q180 614 166 628T130 643Q109 643 95 629T80 593ZM20 593Q20 616 28 636T52 671T87 694T130 703Q153 703 173 695T208 671T231 636T240 593Q240 570 232 550T208 515T173 492T130 483Q107 483 87 491T52 515T29 550T20 593Z"  />
<glyph unicode="&#xB1;" horiz-adv-x="525" d="M198 474V664H318V474H515V356H318V159H198V356H10V474H198ZM515 1H10V119H515V1Z"  />
<glyph unicode="&#xB5;" horiz-adv-x="724" d="M419 79Q398 41 363 17T282 -16Q265 -13 267 -30T282 -73Q287 -82 295 -97T302 -133Q299 -171 270 -197T192 -223Q169 -223 149 -217T113 -200T90 -171T84 -131Q86 -110 92 -92T115 -58Q123 -49 129 -36T126 -12Q113 3 104 19T88 55T78 103T74 168V449H20V473Q52 473 85 473T154 473T230 475T318 479V126Q318 88 331 70T362 51Q380 51 396 72T412 134V449H359V473Q388 473 426 473T503 473T581 475T650 479V32H712V0Q662 0 625 -1T555 -4T490 -8T419 -14V79Z"  />
<glyph unicode="&#xB6;" horiz-adv-x="586" d="M264 212Q181 220 126 260T45 357T19 476T48 593T133 682T272 717H586V629H516V-219H438V629H349V-219H264V212Z"  />
<glyph unicode="&#xB7;" horiz-adv-x="333" d="M166 491Q192 491 217 485T263 464T295 428T308 376Q308 346 296 325T264 289T219 269T166 262Q139 262 114 268T68 289T36 324T23 376Q23 406 35 427T68 463T113 484T166 491Z"  />
<glyph unicode="&#xBB;" horiz-adv-x="488" d="M147 244L37 409H164L274 244L147 87H22L147 244ZM361 244L251 409H375L488 244L361 87H234L361 244Z"  />
<glyph unicode="&#x192;" horiz-adv-x="396" d="M33 423H139L164 596Q172 654 201 685Q228 714 271 723T375 724V648Q314 653 288 640T255 584L232 423H350V353H222L168 -32Q159 -95 128 -126Q105 -149 70 -155T-15 -155V-81Q22 -84 45 -75T74 -25L129 353H33V423Z"  />
<glyph unicode="&#x401;" horiz-adv-x="718" d="M99 663H20V693H697V449H666Q660 494 643 535T594 607T514 655T399 670V362Q425 359 449 370T493 401T523 448T535 505H565V188H535Q525 242 508 271T472 313T434 329T399 331V24Q454 20 495 32T566 65T616 113T648 167T665 220T673 261H706V0H20V32H99V663ZM386 881Q386 913 408 935T463 957Q495 957 517 935T540 881Q540 849 518 827T463 804Q431 804 409 826T386 881ZM168 881Q168 913 190 935T245 957Q277 957 299 935T322 881Q322 849 300 827T245 804Q213 804 191 826T168 881Z"  />
<glyph unicode="&#x402;" horiz-adv-x="917" d="M667 286Q667 330 649 348T608 364T564 337T537 276V33H586V0H140V32H236V670Q188 667 153 646T93 596T58 539T46 495H12V693H762V495H727Q727 511 714 540T677 598T617 648T537 670V347Q558 389 593 413T669 445T751 448T825 421T880 370T901 296V98Q901 32 886 -16T847 -99T792 -154T729 -187T668 -203T616 -208Q598 -212 576 -210T533 -198T495 -175T468 -140Q462 -111 469 -90T491 -55T525 -36T564 -32T599 -46T623 -76Q636 -107 623 -134T586 -187Q619 -187 636 -163T660 -104T667 -34T667 25V286H667Z"  />
<glyph unicode="&#x403;" horiz-adv-x="725" d="M425 734L534 872Q560 904 584 917T629 931Q654 931 669 915T685 878Q685 862 676 847T645 818L502 734H425ZM399 32H486V0H20V33H101V663H20V693H713V439H678Q667 510 644 555T585 625T504 660T399 670V32Z"  />
<glyph unicode="&#x404;" horiz-adv-x="715" d="M331 217Q331 159 343 122T376 63T420 34T470 27T519 34T558 49Q545 57 532 64T508 81T488 102T477 131Q472 160 482 181T512 217T556 238T605 244T650 234T681 209Q703 175 703 145T684 89T635 44T564 11T480 -10T393 -17Q301 -16 231 14T114 95T41 208T12 337T29 468T94 583T206 666T366 703Q393 704 416 704T462 699T507 687T553 665L635 710H663V456H635Q618 519 589 563T526 630T458 658T395 646T349 595T331 505V374H568V331H331V217Z"  />
<glyph unicode="&#x405;" horiz-adv-x="626" d="M557 717V479H525Q499 536 468 574T404 636T339 670T278 681Q236 681 209 663T181 617Q181 596 200 573T266 528Q298 513 336 497T413 461T488 418T552 364T597 298T614 217Q614 194 610 170T594 118Q582 84 555 58T493 14T415 -13T329 -23Q278 -23 231 -10T146 32L43 -14H12V227H43Q69 167 103 127T173 62T247 26T317 15Q367 15 399 34T432 82Q432 100 415 120T360 158Q294 189 232 219T122 285T45 366T15 474Q15 494 18 516T29 562Q39 597 62 625T117 672T187 702T266 713Q305 713 345 703T421 670L557 717Z"  />
<glyph unicode="&#x406;" horiz-adv-x="503" d="M98 663H20V693H483V663H406V32H483V0H27V32H98V663Z"  />
<glyph unicode="&#x407;" horiz-adv-x="503" d="M98 663H20V693H483V663H406V32H483V0H27V32H98V663ZM300 881Q300 913 322 935T376 957Q408 957 430 935T453 881Q453 849 431 827T376 804Q344 804 322 826T300 881ZM82 881Q82 913 104 935T159 957Q191 957 213 935T235 881Q235 849 213 827T159 804Q127 804 105 826T82 881Z"  />
<glyph unicode="&#x408;" horiz-adv-x="629" d="M135 663V693H609V663H538V244Q538 188 524 141T478 61T395 8T271 -14Q244 -15 215 -13T157 -3T96 21T34 64Q13 93 5 129T3 198T35 252T104 277Q143 278 168 264T205 228T216 179T201 129T164 90T104 71Q107 46 128 38T175 37T226 64T265 114T275 183T236 268V663H135Z"  />
<glyph unicode="&#x409;" horiz-adv-x="1179" d="M1167 198Q1167 160 1151 125T1101 62T1019 17T902 0H382V32H456V663H327V473Q327 387 324 324T314 216T300 141T281 89T260 53T236 24Q207 2 170 -4T98 -2T40 35T12 106Q10 132 19 153T43 190T80 213T125 221Q149 221 170 213T206 186T223 139T214 71Q235 91 248 137T269 240T280 358T283 473V663H189V693H838V663H750V407H893Q961 407 1012 389T1097 342T1149 275T1167 198ZM853 296Q845 344 827 361T774 379Q768 379 762 379T750 378V32Q784 32 804 37T835 52T849 74T853 100V296Z"  />
<glyph unicode="&#x40A;" horiz-adv-x="1241" d="M915 99V296Q907 344 889 361T836 379Q830 379 824 379T811 378V31Q845 31 866 36T897 51T911 73T915 99ZM964 0H469V33H508V338H407V32H448V0H20V33H105V663H20V693H448V663H407V372H508V663H469V693H892V663H812V407H955Q1023 407 1074 389T1159 342T1211 275T1229 198Q1229 160 1213 125T1163 62T1081 17T964 0Z"  />
<glyph unicode="&#x40B;" horiz-adv-x="934" d="M586 33V0H140V32H236V670Q188 667 153 646T93 596T58 539T46 495H12V693H762V495H727Q727 511 714 540T677 598T617 648T537 670V347Q558 389 591 413T662 445T738 446T806 419T856 367T875 293V33H922V0H599V32H640V283Q640 327 626 346T594 362T560 337T537 276V33H586Z"  />
<glyph unicode="&#x40C;" horiz-adv-x="951" d="M601 585Q601 583 596 564T587 496Q583 444 566 409T511 357Q583 361 640 356T739 331T804 274T833 178Q837 133 838 103T845 60T863 52T903 84L939 71Q920 41 892 22T831 -7T762 -18T691 -15T624 2T565 30Q547 46 537 63T522 99T514 142T508 195Q509 251 502 280T484 322T460 336T434 338H403V32H474V0H20V33H102V663H20V693H483V663H403V372H451Q466 372 482 379T513 403T538 449T552 522Q555 568 563 599T583 649T611 678T643 695Q676 712 712 708T777 684T826 634T845 567Q845 541 835 519T807 480T766 454T715 444Q689 444 668 456T632 488T609 533T601 585ZM537 734L646 872Q672 904 696 917T741 931Q766 931 781 915T797 878Q797 862 788 847T757 818L614 734H537Z"  />
<glyph unicode="&#x40E;" horiz-adv-x="858" d="M434 57Q406 10 366 -11T284 -34T203 -22T138 19Q122 35 113 55T102 96T103 139T118 178Q127 197 146 208T189 221T237 219T282 200T315 165T327 113Q326 80 299 51T229 12Q250 3 276 3T327 13T376 40T414 82L61 663H0V693H466V663H414L579 372L715 590Q726 617 722 632T704 654T671 662T632 663V693H858V663Q834 657 819 651T794 637T777 621T762 602L594 322L434 57ZM464 881Q464 913 486 935T541 957Q573 957 595 935T618 881Q618 849 596 827T541 804Q509 804 487 826T464 881ZM246 881Q246 913 268 935T323 957Q355 957 377 935T400 881Q400 849 378 827T323 804Q291 804 269 826T246 881Z"  />
<glyph unicode="&#x40F;" horiz-adv-x="912" d="M448 0H20V32H105V663H20V693H448V663H407V32H508V663H469V693H892V663H812V33H892V0H480V-242H448V0Z"  />
<glyph unicode="&#x410;" horiz-adv-x="819" d="M87 111L308 693H505L757 32H819V0H368V32H439L368 221H165L124 94Q121 74 126 62T142 43T167 34T195 32V0H0V32Q18 32 29 34T50 44T68 68T87 111ZM355 254L267 496L180 254H355Z"  />
<glyph unicode="&#x411;" horiz-adv-x="833" d="M821 188Q821 132 804 96T755 39T678 9T577 0H20V33H91V663H20V693H751V439H720Q708 510 676 555T600 625T504 660T400 670V390H577Q634 390 679 380T756 346T804 284T821 188ZM513 308Q513 343 487 352T400 362V30Q460 30 486 39T513 84V308Z"  />
<glyph unicode="&#x412;" horiz-adv-x="839" d="M91 663H20V693H500Q645 693 723 659T801 538Q801 450 744 411T582 372V355Q693 360 756 322T826 188Q838 0 559 0H20V32H91V663ZM510 442V599Q510 623 503 636T481 655T446 662T399 663V372Q417 372 436 373T472 380T499 401T510 442ZM516 277Q516 304 502 316T469 334T430 339T399 338V32Q434 29 457 33T493 47T511 71T516 103V277Z"  />
<glyph unicode="&#x413;" horiz-adv-x="725" d="M399 33H486V0H20V33H101V663H20V693H713V439H678Q667 510 644 555T585 625T504 660T399 670V33Z"  />
<glyph unicode="&#x414;" horiz-adv-x="762" d="M89 693H742V663H664V32H742V-242H711Q704 -167 683 -120T632 -46T567 -10T495 0H264Q229 0 194 -9T128 -46T77 -120T49 -242H20V33Q40 41 60 49T99 72T134 114T162 188T180 307T187 484V663H89V693ZM370 31V663H232V482Q232 387 227 319T214 204T194 127T168 79T139 50T109 31H370Z"  />
<glyph unicode="&#x415;" horiz-adv-x="715" d="M97 663H20V693H696V449H666Q660 494 643 535T594 607T514 655T398 670V362Q425 359 449 370T492 401T522 448T533 505H563V188H533Q523 242 506 271T470 313T431 329T398 331V24Q453 20 494 32T566 65T616 113T648 167T665 220T673 261H703V0H20V32H97V663Z"  />
<glyph unicode="&#x416;" horiz-adv-x="1364" d="M542 33V338H512Q500 338 487 337T463 323T445 281T436 195Q435 166 433 143T426 100T410 63T381 30Q342 6 289 -7T183 -19T83 5T7 71L41 84Q69 58 82 53T100 60T107 103T112 178Q117 237 141 274T206 330T304 355T435 357Q397 373 381 408T359 496Q359 543 353 563T345 585Q345 532 313 500T228 468Q190 468 165 485T126 529T113 585T126 642T164 685T228 703Q245 703 260 700T288 688Q306 683 323 674T356 647T381 598T394 522Q397 478 407 449T432 403T463 379T495 372H542V663H463V693H902V663H822V372H869Q884 372 900 379T931 403T956 449T970 522Q973 568 983 598T1008 646T1040 674T1076 688Q1088 697 1103 700T1136 703Q1174 703 1199 686T1238 642T1251 586T1238 529T1200 486T1136 468Q1084 468 1052 500T1020 585Q1018 583 1012 564T1005 496Q1000 444 984 409T929 357Q1002 361 1059 356T1158 331T1223 274T1252 178Q1256 133 1257 103T1263 60T1282 52T1323 84L1358 71Q1339 41 1311 22T1250 -7T1181 -18T1110 -15T1043 2T984 30Q966 46 956 63T939 99T931 142T928 195Q927 251 920 280T901 322T877 336T852 338H822V32H892V0H472V33H542Z"  />
<glyph unicode="&#x417;" horiz-adv-x="704" d="M174 374H362Q369 374 376 383T384 402V505Q384 560 367 595T321 646T258 658T190 631T127 563T80 456H51V710H80L162 665Q186 679 208 687T252 699T298 703T349 703Q443 700 511 675T620 613T674 534T673 453T616 388T501 353V338Q573 332 619 305T682 239T687 158T630 77T510 13T322 -17Q279 -18 235 -12T152 9T80 43T31 88T12 144T33 209Q44 225 64 234T109 244T158 239T202 218T232 182T238 131Q235 114 227 102T208 81T183 65T157 49Q173 41 196 35T244 27T294 34T339 63T371 121T384 217V301Q384 310 377 320T362 331H174V374Z"  />
<glyph unicode="&#x418;" horiz-adv-x="912" d="M507 454L404 84V32H446V0H20V33H101V663H20V693H446V663H404V200L507 576V663H466V693H892V663H809V32H892V0H466V33H507V454Z"  />
<glyph unicode="&#x419;" horiz-adv-x="912" d="M346 759Q359 748 389 743T453 737T518 742T564 759Q545 759 538 772T531 801Q531 825 551 836T595 848T640 835T660 801Q660 785 654 774T641 755T627 743T621 737Q593 728 549 723T456 718T364 722T292 737Q266 746 257 764T252 801T274 834T317 848Q328 848 339 845T360 835T375 820T381 801Q381 785 374 772T346 759ZM507 454L404 84V32H446V0H20V33H101V663H20V693H446V663H404V200L507 576V663H466V693H892V663H809V32H892V0H466V33H507V454Z"  />
<glyph unicode="&#x41A;" horiz-adv-x="951" d="M601 585Q601 583 596 564T587 496Q583 444 566 409T511 357Q583 361 640 356T739 331T804 274T833 178Q837 133 838 103T845 60T863 52T903 84L939 71Q920 41 892 22T831 -7T762 -18T691 -15T624 2T565 30Q547 46 537 63T522 99T514 142T508 195Q509 251 502 280T484 322T460 336T434 338H403V32H474V0H20V33H102V663H20V693H483V663H403V372H451Q466 372 482 379T513 403T538 449T552 522Q555 568 563 599T583 649T611 678T643 695Q676 712 712 708T777 684T826 634T845 567Q845 541 835 519T807 480T766 454T715 444Q689 444 668 456T632 488T609 533T601 585Z"  />
<glyph unicode="&#x41B;" horiz-adv-x="858" d="M189 693H838V663H750V32H838V0H382V33H456V663H327V473Q327 387 324 324T314 216T300 141T281 89T260 53T236 24Q207 2 170 -4T98 -2T40 35T12 106Q10 132 19 153T43 190T80 213T125 221Q149 221 170 213T206 186T223 139T214 71Q235 91 248 137T269 240T280 358T283 473V663H189V693Z"  />
<glyph unicode="&#x41C;" horiz-adv-x="1041" d="M109 663H40V693H402L526 362L653 693H1021V663H937V32H1021V0H568V32H646V576L415 0H378L158 576V118Q158 100 160 85T170 58T196 39T242 32V0H30V32Q51 35 66 38T90 49T104 73T109 118V663Z"  />
<glyph unicode="&#x41D;" horiz-adv-x="915" d="M104 663H20V693H443V663H405V372H513V663H476V693H895V663H816V32H895V0H476V32H513V338H405V32H443V0H20V32H104V663Z"  />
<glyph unicode="&#x41E;" horiz-adv-x="833" d="M415 700Q512 700 587 669T714 586T790 469T813 338Q810 270 783 205T704 89T579 7T411 -24Q313 -24 241 7T120 88T47 203T20 336Q18 404 42 469T117 586T241 668T415 700ZM482 576Q482 620 461 644T415 670T369 649T348 576V103Q348 55 369 31T415 5T461 28T482 103V576Z"  />
<glyph unicode="&#x41F;" horiz-adv-x="912" d="M407 33H448V0H20V33H105V663H20V693H892V663H812V32H892V0H469V33H508V663H407V33Z"  />
<glyph unicode="&#x420;" horiz-adv-x="842" d="M516 395V599Q516 610 514 621T500 642T467 657T406 663V315Q414 314 420 314T434 314Q473 314 494 331T516 395ZM101 32V663H37V693H565Q632 693 681 676T764 631T813 567T830 493Q830 454 813 417T762 350T677 302T559 284H406V32H493V0H20V32H101Z"  />
<glyph unicode="&#x421;" horiz-adv-x="699" d="M672 710V456H639Q627 507 606 544T560 606T506 643T451 656Q403 656 369 618T334 505V221Q334 170 344 134T371 74T411 39T460 28Q489 28 519 42T575 82T621 144T649 227H679Q676 168 650 122T583 44T496 -6T404 -24H399Q305 -24 234 7T116 89T44 207T20 341Q20 407 42 469T109 582T221 664T380 700Q390 701 398 701T415 701Q455 701 488 694T561 663L639 710H672Z"  />
<glyph unicode="&#x422;" horiz-adv-x="772" d="M12 693H760V439H727Q720 470 708 509T673 583T618 642T537 670V32H635V0H140V33H236V670Q188 667 155 643T100 583T66 509T46 439H12V693Z"  />
<glyph unicode="&#x423;" horiz-adv-x="858" d="M434 57Q406 10 366 -11T284 -34T203 -22T138 19Q122 35 113 55T102 96T103 139T118 178Q127 197 146 208T189 221T237 219T282 200T315 165T327 113Q326 80 299 51T229 12Q250 3 276 3T327 13T376 40T414 82L61 663H0V693H466V663H414L579 372L715 590Q726 617 722 632T704 654T671 662T632 663V693H858V663Q834 657 819 651T794 637T777 621T762 602L594 322L434 57Z"  />
<glyph unicode="&#x424;" horiz-adv-x="1176" d="M377 693H798V663H732V611H892Q952 611 1000 590T1083 536T1137 464T1156 387V338Q1156 302 1138 262T1084 189T998 133T883 111H732V32H818V0H359V33H443V111H293Q228 111 178 133T92 188T39 262T20 338V387Q20 424 38 463T91 536T174 590T283 611H443V663H377V693ZM845 515Q845 527 842 538T827 558T793 572T732 578V146Q785 140 810 154T845 221V515ZM330 515V221Q334 194 342 178T364 154T397 145T443 146V578Q405 578 383 573T349 559T334 539T330 515Z"  />
<glyph unicode="&#x425;" horiz-adv-x="872" d="M541 473L628 585Q640 601 640 616T630 642T596 660T541 663V693H825V663Q790 663 754 653T689 606L557 442L833 32H872V0H407V32H478L320 268L200 103Q182 73 184 59T201 38T241 32T296 32V0H12V32Q27 32 43 33T77 41T114 62T153 103L303 301L59 663H12V693H485V663H414L541 473Z"  />
<glyph unicode="&#x426;" horiz-adv-x="912" d="M812 663V32H892V-242H861Q854 -173 833 -127T783 -53T718 -12T646 0H20V33H105V663H20V693H448V663H407V32H508V663H469V693H892V663H812Z"  />
<glyph unicode="&#x427;" horiz-adv-x="904" d="M500 315V663H461V693H884V663H804V32H884V0H461V33H500V284Q477 278 456 274T411 267T357 263T288 261Q251 261 217 263T156 282T113 334T97 434V663H12V693H440V663H399V385Q399 356 404 340T422 318T454 311T500 315Z"  />
<glyph unicode="&#x428;" horiz-adv-x="1335" d="M936 33V663H895V693H1315V663H1235V32H1315V0H20V33H109V663H20V693H450V663H409V32H522V663H481V693H861V663H820V32L936 33Z"  />
<glyph unicode="&#x429;" horiz-adv-x="1335" d="M1065 0H20V33H109V663H20V693H450V663H409V32H522V663H481V693H861V663H820V32H936V663H895V693H1315V663H1235V32H1315V-235H1282Q1274 -167 1253 -122T1203 -50T1137 -12T1065 0H20H1065Z"  />
<glyph unicode="&#x42A;" horiz-adv-x="1052" d="M719 296Q719 344 699 361T640 379Q634 379 628 379T614 378V32Q652 32 673 37T704 52T717 74T719 100V296ZM310 32V663Q253 663 208 655T130 621T74 551T41 434H12V693H700V663H614V407H764Q832 407 884 389T970 342T1022 275T1040 198Q1040 160 1024 125T974 62T891 17T774 0H248V33L310 32Z"  />
<glyph unicode="&#x42B;" horiz-adv-x="1282" d="M873 663H794V693H1262V663H1181V32H1262V0H801V33H873V663ZM518 296Q518 344 497 361T438 379Q432 379 426 379T411 378V32Q450 32 471 37T503 52T516 74T518 100V296ZM98 663H20V693H500V663H411V407H561Q628 407 678 389T761 342T812 275T829 199Q829 161 813 126T765 62T685 17T572 0H34V33H98V663Z"  />
<glyph unicode="&#x42C;" horiz-adv-x="838" d="M512 296Q504 344 486 361T433 379Q427 379 421 379T409 378V32Q443 32 463 37T494 52T508 74T512 100V296ZM98 663H20V693H483V663H409V407H552Q620 407 671 389T756 342T808 275T826 198Q826 160 810 125T760 62T678 17T561 0H34V33H98V663Z"  />
<glyph unicode="&#x42D;" horiz-adv-x="723" d="M384 331H146V374H384V505Q384 560 367 595T321 646T258 658T190 631T127 563T80 456H51V710H80L162 665Q186 679 208 687T252 699T298 703T349 703Q441 699 509 667T621 583T685 468T703 338T675 208T602 95T484 15T322 -17Q279 -18 235 -11T152 10T80 44T31 89T12 144T33 209Q44 225 64 234T109 244T158 239T202 218T232 182T238 131Q235 114 227 102T208 81T183 65T157 49Q173 41 196 35T244 27T294 34T339 63T371 121T384 217V331Z"  />
<glyph unicode="&#x42E;" horiz-adv-x="1293" d="M476 340H412V32H493V0H27V33H101V663H20V693H493V663H412V374H478Q484 433 510 489T583 590T696 665T850 703Q961 700 1042 667T1175 583T1251 467T1272 338Q1269 269 1241 205T1160 92T1034 14T866 -17Q771 -18 699 12T577 91T502 206T476 340ZM937 576Q937 621 916 645T870 670T824 649T803 576V96Q803 54 824 32T870 9T916 29T937 96V576Z"  />
<glyph unicode="&#x42F;" horiz-adv-x="932" d="M431 582V456Q431 431 436 417T451 396T473 387T501 385H522V663Q497 663 480 661T452 650T436 625T431 582ZM828 663V32H912V0H455V33H522V353Q504 353 489 352T463 345T446 324T440 284V172Q440 120 421 83T371 22T300 -13T218 -24Q185 -24 154 -18T95 1T46 32T12 73L46 84Q65 66 77 58T97 50Q110 50 112 71T115 124T121 195T145 268T203 329T310 362Q259 362 220 376T155 413T114 466T100 527Q100 558 115 588T160 641T238 679T351 693H896V663H828Z"  />
<glyph unicode="&#x430;" horiz-adv-x="665" d="M594 355V111Q594 84 598 72T610 57T630 60T657 79V47Q647 29 626 15T576 -9T517 -20T456 -17T403 4T365 47Q330 9 278 -7T173 -22T80 1T27 57Q4 124 26 168T98 238T217 270T358 268V395Q358 422 350 436T329 456T299 461T264 456Q301 419 303 389T286 336T232 303T162 293T97 311T57 362Q51 409 77 436T144 476T235 493T326 496Q347 496 375 494T433 486T492 470T543 444T580 407T594 355ZM358 111V244H318Q298 244 287 230T272 192T268 142T272 87Q275 61 288 50T317 43T345 64T358 111Z"  />
<glyph unicode="&#x431;" horiz-adv-x="650" d="M18 268Q28 360 45 434T96 562T187 644T330 675Q360 675 391 674T453 675T512 686T565 712L591 705Q573 657 559 627T519 579T450 555T330 547Q253 547 207 541T132 516T87 461T56 362Q91 415 148 445T270 485T401 482T519 436T604 350T634 224Q632 176 612 133T553 57T461 4T338 -17Q248 -19 185 5T82 70T28 162T18 268ZM377 385Q377 420 363 440T330 461T298 445T283 385V84Q280 46 294 26T326 6T361 24T377 84V385Z"  />
<glyph unicode="&#x432;" horiz-adv-x="670" d="M521 244Q552 239 577 232T619 210T645 174T654 118Q654 52 598 26T420 0H18V33H72V449H18V473H425Q484 473 524 466T588 443T623 406T634 355Q634 298 606 276T521 244ZM354 221H314V32H354Q372 32 385 40T399 66V178Q399 198 387 209T354 221ZM354 256Q374 256 386 265T399 296V409Q399 426 387 437T354 449H314V256H354Z"  />
<glyph unicode="&#x433;" horiz-adv-x="527" d="M73 449H16V473H515V296H479Q479 329 466 357T430 407T378 441T317 454V32H371V0H16V32H73V449Z"  />
<glyph unicode="&#x434;" horiz-adv-x="576" d="M183 449V343Q183 207 163 132T105 32H168H260V449H183ZM198 0Q116 0 77 -43T37 -158H6V33Q41 32 65 45T106 80T132 133T145 199T151 271T152 343V449H100V473H553V449H502V32H570V-158H538Q538 -87 496 -44T373 0H198Z"  />
<glyph unicode="&#x435;" horiz-adv-x="608" d="M273 409V227H353V409Q353 439 341 452T313 465T286 450T273 409ZM273 197Q269 136 281 98T316 40T368 19T430 28T493 63T551 118L581 111Q560 84 538 61T486 19T416 -10T320 -24Q246 -27 190 -7T96 49T37 132T16 228T32 324T87 408T180 467T314 488Q369 488 422 468T516 410T577 319T590 197H273Z"  />
<glyph unicode="&#x436;" horiz-adv-x="1024" d="M361 0V33H409V239Q394 239 383 238T363 233T350 218T345 188V113Q345 73 324 48T270 8T197 -9T120 -6T52 15T8 52L34 57Q58 40 69 40T85 49T89 79T91 122T99 169T121 212T167 243T246 256H326Q309 263 299 275T282 301T273 327T269 348Q264 375 257 391T241 416T228 426T222 427Q228 419 233 401T235 362T215 324T161 303Q129 300 108 313T75 347T64 393T77 439T116 472T182 481Q239 476 266 444T305 353Q314 305 342 287T409 271V449H363V473H661V449H617V271Q654 269 684 287T723 353Q734 410 760 443T843 481Q883 485 909 473T949 439T962 393T951 347T917 313T863 303Q826 307 810 324T790 361T791 400T803 427Q803 428 798 426T784 416T768 392T756 348Q755 340 753 328T744 302T728 276T702 256H779Q828 256 857 244T903 212T926 169T934 122T936 80T940 50T956 39T993 57L1016 52Q1002 30 972 15T905 -6T829 -9T756 8T702 48T681 113V188Q681 207 677 217T664 232T643 238T617 239V32H666V0H361Z"  />
<glyph unicode="&#x437;" horiz-adv-x="559" d="M294 89V160Q294 199 283 213T251 227H156V261H254Q273 261 282 276T291 318V409Q294 432 280 442T244 452T195 443T146 418T108 381T94 336H60V515H94L164 461Q184 472 218 480T291 488Q330 488 372 480T448 457T505 417T528 362Q528 320 496 289T395 251Q467 246 505 216T543 123Q543 77 518 50T455 9T375 -10T301 -17Q267 -19 224 -17T139 -4T66 25T23 76Q13 104 22 130T53 173T101 196T153 192Q179 183 195 168T217 135T222 99T208 67T178 45T131 40Q149 26 176 19T230 15T275 36T294 89Z"  />
<glyph unicode="&#x438;" horiz-adv-x="717" d="M407 449H366V473H701V449H646V32H701V0H366V33H407V315L312 79V32H355V0H16V33H73V449H16V473H355V449H312V143L407 385V449Z"  />
<glyph unicode="&#x439;" horiz-adv-x="717" d="M407 449H366V473H701V449H646V32H701V0H366V33H407V315L312 79V32H355V0H16V33H73V449H16V473H355V449H312V143L407 385V449ZM95 613Q95 637 109 654T144 679T190 689T236 683T271 660T285 620Q285 598 270 580T226 561Q237 541 275 531T358 522Q380 522 401 524T440 531T471 543T490 561Q461 561 446 579T430 620Q430 644 444 659T479 682T525 689T571 680T606 654T620 613Q620 582 600 561T543 528T460 510T358 505Q304 505 256 510T172 527T116 561T95 613Z"  />
<glyph unicode="&#x43A;" horiz-adv-x="704" d="M464 256Q529 256 560 235T605 184T618 122T621 68T633 40T677 57L704 52Q690 30 660 15T592 -6T515 -9T443 8T389 48T368 113V188Q368 207 364 217T350 232T329 238T302 239V32H351V0H24V33H70V449H24V473H346V449H302V271Q321 270 339 272T372 283T396 308T408 353Q412 413 440 448T529 484Q570 484 595 470T632 433T643 385T630 338T595 302T541 289Q504 290 485 304T458 336T451 370T457 392Q456 392 454 392T448 387T443 373T440 348Q439 314 430 291T386 256H464Z"  />
<glyph unicode="&#x43B;" horiz-adv-x="656" d="M173 473H636V449H584V32H636V0H302V33H342V449H259V301Q259 210 252 150T227 53T178 1T97 -14Q64 -14 40 -2T0 28T-19 69T-14 113T17 151T77 176Q110 182 136 170T174 135T182 86T151 37Q166 40 179 50T202 87T219 162T225 291V449H173V473Z"  />
<glyph unicode="&#x43C;" horiz-adv-x="780" d="M94 449H42V473H318L400 248L488 473H769V449H700V32H769V0H421V33H484V387L327 0H301L130 387V93Q130 80 132 69T141 49T161 35T197 30V0H35V30Q52 32 63 34T81 42T91 59T94 93V449Z"  />
<glyph unicode="&#x43D;" horiz-adv-x="729" d="M425 449H383V473H718V449H666V32H718V0H383V33H425V221H332V32H371V0H36V33H90V449H36V473H371V449H332V256H425V449Z"  />
<glyph unicode="&#x43E;" horiz-adv-x="652" d="M320 488Q406 489 466 467T565 407T619 323T635 227Q634 181 614 136T557 56T466 -1T344 -24Q261 -25 200 -4T99 53T38 133T16 227Q15 275 34 321T92 404T187 464T320 488ZM382 385Q382 420 366 440T332 461T297 445T281 385V87Q281 45 297 24T331 2T366 22T382 87V385Z"  />
<glyph unicode="&#x43F;" horiz-adv-x="717" d="M701 473V449H646V32H701V0H366V33H407V437H312V32H355V0H16V33H73V449H16V473H701Z"  />
<glyph unicode="&#x440;" horiz-adv-x="682" d="M20 -219V-188H68V449H20V473Q64 473 101 474T172 477T235 482T296 488V402Q308 417 321 432T351 461T393 483T453 496Q524 494 571 456T642 361T666 238T643 116T572 23T453 -14Q400 -14 365 9T312 57V-188H382V-219H20ZM397 362Q397 404 384 418T355 426T326 399T312 348V134Q312 101 325 78T354 49T383 58T397 118V362Z"  />
<glyph unicode="&#x441;" horiz-adv-x="609" d="M459 432Q408 463 374 461T319 430T288 351T277 235Q276 153 293 106T337 38T397 19T463 40T522 87T563 150L593 134Q559 63 503 26T381 -22T249 -19T130 31T45 118T16 235Q19 295 44 340T106 416T190 464T285 488Q309 491 348 490T430 480T510 450T569 395Q594 351 591 316T569 256T519 219T457 209T400 232T364 291Q361 304 361 322T370 360T399 399T459 432Z"  />
<glyph unicode="&#x442;" horiz-adv-x="666" d="M210 454Q178 454 149 442T98 408T63 358T50 296H14V473H652V296H616Q616 329 603 357T567 407T515 441T454 454V32H508V0H156V32H210V454Z"  />
<glyph unicode="&#x443;" horiz-adv-x="681" d="M452 210L546 362Q564 397 553 420T501 449V473H673V449Q658 446 647 439T626 422T607 399T585 372L350 -30Q316 -88 280 -130T204 -195T125 -220T42 -202Q17 -190 5 -169T-7 -124T2 -77T30 -39T76 -20T136 -30Q157 -39 168 -58T179 -99T170 -142T136 -178Q153 -185 176 -175T225 -142T274 -84T318 -7L42 449H-12V473H374V449H318L452 210Z"  />
<glyph unicode="&#x444;" horiz-adv-x="985" d="M376 -185V52Q357 27 321 8T231 -12Q159 -12 112 25T40 118T16 239T40 360T111 455T231 496Q267 493 292 484T335 461T366 433T391 402V665H344V688Q388 688 421 689T483 692T537 696T593 700V402Q605 417 618 432T650 461T693 483T753 496Q825 494 873 456T946 361T970 239T946 118T874 25T753 -12Q699 -12 664 7T607 52V-185H682V-217H327V-185H376ZM701 362Q701 404 687 417T654 425T622 397T607 345V131Q607 99 621 76T654 47T686 56T701 113V362ZM287 362V113Q287 71 301 56T331 47T362 76T376 131V345Q376 375 362 397T332 425T301 418T287 362Z"  />
<glyph unicode="&#x445;" horiz-adv-x="692" d="M336 449L440 308L501 372Q510 381 514 394T514 419T496 440T454 449V473H684V449Q666 449 654 446T632 437T610 420T583 395L454 277L637 32H684V0H322V32H353L250 165L179 94Q159 68 165 55T191 37T234 32T275 32V0H14V32Q26 32 41 36T73 47T105 65T132 87L233 197L68 449H14V473H393V449H336Z"  />
<glyph unicode="&#x446;" horiz-adv-x="713" d="M494 0H14V32H71V449H14V473H346V449H311V32H403V449H363V473H699V449H642V32H699V-158H664Q664 -125 649 -97T610 -47T556 -13T494 0Z"  />
<glyph unicode="&#x447;" horiz-adv-x="718" d="M368 449V473H700V449H645V32H700V0H365V33H406V221L357 212Q218 185 145 213T72 325V449H15V473H347V449H311V268Q311 259 318 256T333 251T350 251T361 254L406 261V449H368Z"  />
<glyph unicode="&#x448;" horiz-adv-x="1045" d="M364 473H679V449H642V32H734V449H694V473H1030V449H974V32H1030V0H15V33H72V449H15V473H348V449H311V32H404V449H364V473Z"  />
<glyph unicode="&#x449;" horiz-adv-x="1045" d="M826 0H15V33H72V449H15V473H348V449H311V32H404V449H364V473H679V449H642V32H734V449H694V473H1030V449H974V32H1030V-158H996Q996 -125 982 -97T943 -47T889 -13T826 0H15H826Z"  />
<glyph unicode="&#x44A;" horiz-adv-x="801" d="M789 141Q789 99 775 72T731 29T658 7T553 0H149V33H205V451Q173 451 144 439T93 406T58 357T44 296H8V473H500V449H446V291H553Q613 291 657 284T731 259T774 212T789 141ZM446 256V32H488Q505 32 519 40T533 66V214Q533 233 519 244T488 256H446Z"  />
<glyph unicode="&#x44B;" horiz-adv-x="999" d="M655 141Q655 99 641 72T597 29T524 7T419 0H15V33H72V449H15V473H365V449H311V291H419Q479 291 523 284T597 259T640 212T655 141ZM311 256V32H354Q371 32 385 40T399 66V214Q399 233 385 244T354 256H311ZM690 32V449H648V473H983V449H929V32H983V0H648V33L690 32Z"  />
<glyph unicode="&#x44C;" horiz-adv-x="663" d="M651 141Q651 99 637 72T595 29T522 7T417 0H15V33H69V449H15V473H365V449H311V291H417Q478 291 522 284T594 259T637 212T651 141ZM311 256V32H351Q369 32 382 40T396 66V214Q396 233 384 244T351 256H311Z"  />
<glyph unicode="&#x44D;" horiz-adv-x="563" d="M320 89V162Q320 201 305 214T266 227H172V261H269Q290 261 304 277T318 320V409Q321 432 307 442T268 452T216 443T162 418T119 381T100 336H66V515H100L182 461Q215 484 257 490T341 490T421 465T485 419Q518 383 533 336T547 240T529 144T483 59Q467 39 452 25T418 2T375 -12T318 -22Q304 -24 280 -23T228 -18T170 -7T111 12T60 39T24 76Q8 113 18 139T51 180T106 195T165 183Q178 177 190 159T203 118T191 73T137 35Q155 21 185 11T246 3T298 25T320 89Z"  />
<glyph unicode="&#x44E;" horiz-adv-x="998" d="M363 221H309V32H352V0H18V33H70V449H18V473H352V449H309V256H363Q367 300 387 342T445 418T540 470T674 488Q750 487 807 465T903 406T961 325T981 232T962 139T903 59T803 3T660 -17Q590 -16 536 3T443 55T385 130T363 221ZM620 385V84Q620 43 634 24T666 5T698 26T713 84V385Q713 427 699 445T667 462T635 440T620 385Z"  />
<glyph unicode="&#x44F;" horiz-adv-x="714" d="M642 449V32H700V0H348V33H402V239Q387 239 375 238T355 233T342 218T337 188V113Q337 73 316 48T262 8T189 -9T112 -6T44 15T0 52L26 57Q51 40 62 38T78 44T82 69T82 107T89 150T111 191T157 224T236 242Q182 242 144 259T87 302T67 357T88 413T152 456T263 473H700V449H642ZM332 395V306Q332 287 337 278T352 264T374 260T402 259V449Q382 449 369 448T347 441T336 424T332 395Z"  />
<glyph unicode="&#x451;" horiz-adv-x="599" d="M277 409V224H346V409Q346 439 334 452T308 465T284 450T277 409ZM277 190Q273 132 284 96T317 42T366 22T426 31T488 63T546 113L578 106Q556 79 533 58T480 20T409 -5T312 -17Q239 -19 184 1T91 57T34 139T13 233T28 327T81 410T173 467T304 488Q361 487 414 467T508 409T571 316T585 190H277ZM325 623Q325 655 348 678T403 701Q435 701 458 678T481 623Q481 591 458 568T403 545Q371 545 348 568T325 623ZM116 623Q116 655 139 678T194 701Q226 701 249 678T272 623Q272 591 249 568T194 545Q162 545 139 568T116 623Z"  />
<glyph unicode="&#x452;" horiz-adv-x="679" d="M324 670V395Q352 438 388 462T462 492T536 490T600 460T646 405T663 331L662 182Q661 103 643 43T596 -63T531 -138T459 -187T391 -214T336 -222Q318 -226 296 -223T253 -212T215 -188T188 -153Q182 -124 189 -103T211 -68T245 -50T284 -46T320 -60T344 -90Q356 -121 343 -148T306 -200Q340 -200 361 -185T396 -144T415 -85T422 -16T424 56T423 125V331Q423 370 416 390T397 414T374 411T350 388T332 351T324 308V32H365V0H26V32H80V670H324ZM80 670H16V694Q43 691 83 699T164 728T243 783T301 867H324V694H470V670H324H80Z"  />
<glyph unicode="&#x453;" horiz-adv-x="527" d="M81 449H24V473H523V296H487Q487 329 474 357T438 407T386 441T325 454V32H379V0H24V32H81V449ZM248 515L357 653Q383 685 407 698T452 712Q477 712 493 696T509 659Q509 644 500 628T468 599L325 515H248Z"  />
<glyph unicode="&#x454;" horiz-adv-x="563" d="M242 89Q242 44 264 25T316 4T376 11T425 35Q386 50 372 73T359 118T372 158T398 183Q425 196 456 195T510 180T544 140T538 76Q519 45 479 25T393 -7T307 -21T245 -22Q212 -18 188 -13T146 2T112 25T80 59Q50 96 34 143T16 239T30 335T78 419Q103 446 141 464T222 490T306 491T381 461L463 515H496V336H463Q462 360 445 381T402 418T348 443T295 452T257 442T245 409V320Q245 293 258 277T294 261H390V227H297Q273 227 258 214T242 162V89H242Z"  />
<glyph unicode="&#x455;" horiz-adv-x="507" d="M422 488H455L463 315H438Q409 377 370 410T292 456T224 464T182 444T183 406T248 362Q275 350 311 339T382 312T442 272T478 212Q496 139 473 87T402 9T286 -17T147 17L61 -14H29L22 174H46Q92 101 140 64T229 14T300 9T341 34T342 73T290 111Q270 119 243 125T186 139T129 159T77 191T39 241T22 315Q20 359 35 391T75 444T135 475T207 488T281 484T352 466L422 488Z"  />
<glyph unicode="&#x456;" horiz-adv-x="392" d="M71 449H24V479Q83 479 160 480T322 488V32H377V0H24V32H71V449ZM194 716Q218 716 241 712T284 697T314 667T326 619Q326 592 314 573T283 543T241 527T194 522Q171 522 148 527T105 543T74 573T62 619Q62 648 73 667T104 697T146 712T194 716Z"  />
<glyph unicode="&#x457;" horiz-adv-x="392" d="M71 449H24V479Q83 479 160 480T323 488V32H377V0H24V32H71V449ZM221 623Q221 655 244 678T299 701Q331 701 354 678T377 623Q377 591 354 568T299 545Q267 545 244 568T221 623ZM12 623Q12 655 35 678T90 701Q122 701 145 678T168 623Q168 591 145 568T90 545Q58 545 35 568T12 623Z"  />
<glyph unicode="&#x458;" horiz-adv-x="367" d="M0 449V473Q101 473 180 477T325 488V57Q325 -26 304 -78T251 -159T181 -198T110 -209Q92 -213 70 -211T27 -199T-11 -176T-38 -141Q-44 -112 -37 -91T-14 -56T20 -37T59 -33T94 -47T118 -77Q130 -108 117 -135T80 -188Q130 -188 158 -161T188 -98T166 -31T88 10V449H0ZM202 716Q226 716 250 712T292 697T323 667T335 619Q335 592 323 573T292 543T249 527T202 522Q179 522 156 527T113 543T82 573T70 619Q70 648 81 667T112 697T154 712T202 716Z"  />
<glyph unicode="&#x459;" horiz-adv-x="937" d="M584 449V291H690Q751 291 795 284T868 259T911 212T925 141Q925 99 911 72T869 29T796 7T690 0H302V33H342V449H259V301Q259 210 252 150T227 53T178 1T97 -14Q64 -14 40 -2T0 28T-19 69T-14 113T17 151T77 176Q110 182 135 170T173 135T182 86T151 37Q166 40 179 50T202 87T219 162T225 291V449H173V473H636V449H584ZM584 256V32H624Q642 32 656 40T670 66V214Q670 233 657 244T624 256H584Z"  />
<glyph unicode="&#x45A;" horiz-adv-x="1007" d="M655 291H761Q822 291 866 284T938 259T981 212T995 141Q995 99 981 72T939 29T866 7T761 0H372V33H414V221H320V32H360V0H24V33H78V449H24V473H360V449H320V256H414V449H372V473H706V449H654V291H655ZM655 256V32H695Q713 32 726 40T740 66V214Q740 233 728 244T695 256H655Z"  />
<glyph unicode="&#x45B;" horiz-adv-x="725" d="M76 32V670H12V694Q39 691 79 699T160 728T239 783T297 867H320V694H466V670H320V395Q348 438 384 462T457 492T531 490T595 460T641 405T659 331V32H713V0H384V32H414V331Q414 390 400 406T367 411T335 371T320 308V32H361V0H22V32H76Z"  />
<glyph unicode="&#x45C;" horiz-adv-x="704" d="M464 256Q529 256 560 235T605 184T618 122T621 68T633 40T677 57L704 52Q690 30 660 15T592 -6T515 -9T443 8T389 48T368 113V188Q368 207 364 217T350 232T329 238T302 239V32H351V0H24V33H70V449H25L24 473H346L347 449H302V271Q321 270 339 272T372 283T396 308T408 353Q412 413 440 448T529 484Q570 484 595 470T632 433T643 385T630 338T595 302T541 289Q504 290 485 304T458 336T451 370T457 392Q456 392 454 392T448 387T443 373T440 348Q439 314 430 291T386 256H464ZM369 515L478 653Q504 685 528 698T573 712Q598 712 613 696T629 659Q629 644 620 628T589 599L446 515H369Z"  />
<glyph unicode="&#x45E;" horiz-adv-x="681" d="M452 210L546 362Q564 397 553 420T501 449V473H673V449Q658 446 647 439T626 422T607 399T585 372L350 -30Q316 -88 280 -130T204 -195T125 -220T42 -202Q17 -190 5 -169T-7 -124T2 -77T30 -39T76 -20T136 -30Q157 -39 168 -58T179 -99T170 -142T136 -178Q153 -185 176 -175T225 -142T274 -84T318 -7L42 449H-12V473H374V449H318L452 210ZM376 623Q376 655 399 678T454 701Q486 701 509 678T532 623Q532 591 509 568T454 545Q422 545 399 568T376 623ZM167 623Q167 655 190 678T245 701Q277 701 299 678T322 623Q322 591 300 568T245 545Q213 545 190 568T167 623Z"  />
<glyph unicode="&#x45F;" horiz-adv-x="717" d="M342 0H16V32H73V449H16V473H348V449H313V32H405V449H365V473H701V449H644V32H701V0H377V-158H342V0Z"  />
<glyph unicode="&#x490;" horiz-adv-x="725" d="M20 0V33H101V663H20V693H404Q476 695 503 701Q550 710 585 735T643 806T678 922H713V668H399V33H486V0H20Z"  />
<glyph unicode="&#x491;" horiz-adv-x="527" d="M315 473Q352 475 377 486Q407 498 429 519T465 569T479 631H515V454H317V32H371V0H16V32H73V449H16V473H315Z"  />
<glyph unicode="&#x2013;" horiz-adv-x="533" d="M36 331H533V174H36V331Z"  />
<glyph unicode="&#x2014;" horiz-adv-x="1027" d="M35 325H1027V165H35V325Z"  />
<glyph unicode="&#x2018;" horiz-adv-x="358" d="M74 515Q130 546 179 547T263 531T318 482T335 419Q337 383 313 357T252 319T173 309T95 336T40 404T27 522Q36 568 64 603T130 663T210 701T288 717V686Q261 683 224 670T154 635T98 583T74 515Z"  />
<glyph unicode="&#x2019;" horiz-adv-x="357" d="M277 505Q247 484 203 478T117 482T48 520T23 592Q27 636 50 663T108 702T180 713T251 695T306 652T331 585Q334 523 317 474T265 390T179 332T64 301V331Q114 334 157 354T229 402T272 458T277 505Z"  />
<glyph unicode="&#x201A;" horiz-adv-x="352" d="M64 -156Q99 -149 137 -135T207 -100T260 -50T281 16Q281 27 274 26T258 15Q246 3 222 -3T171 -10Q129 -10 101 1T55 29T30 66T23 105Q23 135 35 157T68 192T114 212T166 219Q239 219 283 176T327 58Q327 5 305 -37T246 -109T163 -157T68 -182L64 -156Z"  />
<glyph unicode="&#x201C;" horiz-adv-x="721" d="M437 496Q493 529 542 531T626 515T681 466T698 402Q700 367 675 341T613 303T532 294T455 321T401 389T390 505Q396 552 424 587T491 647T572 684T651 700V670Q624 667 588 654T518 619T461 566T437 496ZM75 496Q130 529 179 531T263 515T319 466T336 402Q338 367 313 341T251 303T170 294T93 321T38 389T28 505Q34 552 62 587T128 647T210 684T289 700V670Q261 667 224 654T154 619T98 566T75 496Z"  />
<glyph unicode="&#x201D;" horiz-adv-x="712" d="M630 495Q601 474 557 468T472 472T403 510T378 582Q381 625 404 652T461 692T533 702T605 685T661 642T686 575Q689 513 672 464T621 380T535 322T417 291V321Q468 324 511 344T583 392T626 448T630 495ZM277 495Q246 474 202 468T116 472T48 510T23 582Q27 626 50 653T108 692T180 703T251 685T306 642T331 575Q337 450 266 380T64 291V321Q113 324 156 344T229 392T272 448T277 495Z"  />
<glyph unicode="&#x201E;" horiz-adv-x="717" d="M637 20Q608 -1 564 -7T479 -4T410 33T386 104Q389 147 412 174T469 214T541 225T611 208T666 164T691 97Q694 35 677 -13T626 -97T540 -154T423 -185V-155Q474 -151 517 -130T590 -82T633 -26T637 20ZM275 20Q245 -1 201 -7T116 -4T48 33T23 104Q27 147 50 174T107 214T179 225T249 208T304 164T329 97Q332 35 315 -13T264 -97T178 -154T61 -185V-155Q111 -151 154 -130T227 -82T270 -26T275 20Z"  />
<glyph unicode="&#x2020;" horiz-adv-x="547" d="M271 -202Q268 -149 253 -93T216 17T172 114T128 188Q143 197 154 202T177 215T203 232T239 261Q260 279 265 301T265 336T246 347T215 315Q193 277 159 266T93 264T38 304T17 378Q18 405 41 428T94 461T156 463T206 419Q215 389 231 380T257 380T267 413T239 473Q197 509 180 550T169 627T207 686T295 710Q344 710 373 686T408 625T396 548T333 473Q313 449 309 424T311 385T334 378T372 426Q383 446 412 456T471 462T525 433T547 362Q545 306 521 283T465 259T404 273T365 308Q348 344 334 346T312 335T309 299T333 261Q357 235 382 221T443 188Q411 139 387 93T347 -1T320 -97T303 -202H271Z"  />
<glyph unicode="&#x2021;" horiz-adv-x="534" d="M268 746Q307 746 326 728T346 675Q346 657 337 641T318 607T298 564T289 504Q307 504 326 513T365 533T405 553T446 562Q475 562 495 540T515 489Q515 457 497 437T444 417Q423 417 405 424T367 441T329 458T289 466Q289 418 306 370T363 287Q324 254 307 206T289 108Q310 108 329 116T367 133T404 150T444 158Q479 158 497 138T515 86Q515 57 495 35T446 13Q426 13 406 22T365 42T326 62T289 71Q289 35 298 11T317 -32T337 -67T346 -101Q346 -171 268 -171Q190 -171 190 -101Q190 -83 198 -67T217 -33T237 10T246 71Q228 71 209 62T170 42T130 22T89 13Q60 13 41 35T21 86Q21 118 38 138T92 158Q112 158 131 150T168 133T206 116T246 108Q246 157 229 205T173 287Q211 321 228 369T246 466Q225 466 206 459T169 442T131 425T92 417Q56 417 39 437T21 489Q21 518 40 540T89 562Q109 562 129 553T170 533T209 513T246 504Q246 539 237 563T218 606T199 641T190 675Q190 709 209 727T268 746Z"  />
<glyph unicode="&#x2022;" horiz-adv-x="364" d="M5 393Q5 429 19 461T57 517T113 555T182 569Q219 569 251 557T307 522T345 468T359 400Q359 364 345 331T307 272T251 231T182 216Q146 216 114 230T57 268T19 324T5 393Z"  />
<glyph unicode="&#x2026;" horiz-adv-x="1001" d="M177 219Q203 219 228 213T274 192T306 156T319 104Q319 74 307 53T275 17T230 -3T177 -10Q150 -10 125 -4T79 17T47 52T34 104Q34 134 46 155T79 191T124 212T177 219ZM506 219Q532 219 557 213T603 192T635 156T648 104Q648 74 636 53T604 17T559 -3T506 -10Q479 -10 454 -4T408 17T375 52T362 104Q362 134 374 155T407 191T453 212T506 219ZM834 219Q860 219 885 213T931 192T963 156T976 104Q976 74 964 53T932 17T887 -3T834 -10Q807 -10 782 -4T736 17T704 52T691 104Q691 134 703 155T736 191T781 212T834 219Z"  />
<glyph unicode="&#x2030;" horiz-adv-x="1453" d="M612 629Q580 618 556 611T509 601T464 599T415 606Q445 557 446 506T429 408T374 324T294 264T199 240T101 261Q50 286 28 335T8 441T34 553T102 647T205 699T338 686Q391 656 443 651T542 653T623 678T676 710H716L314 0H260L612 629ZM211 606L148 348Q138 306 147 286T173 265T208 281T235 331L298 599Q310 634 302 655T277 678T241 664T211 606ZM750 456Q811 456 854 436T923 381T958 303T960 212Q953 167 932 126T877 54T799 6T700 -7Q633 -2 593 32T536 116T525 223T560 330T636 415T750 456ZM730 372L669 94Q660 54 671 37T701 21T736 40T756 87L819 362Q826 392 816 410T790 432T756 421T730 372ZM1230 456Q1291 456 1334 436T1403 381T1438 303T1440 212Q1433 167 1412 126T1357 54T1279 6T1180 -7Q1113 -2 1073 32T1016 116T1005 223T1040 330T1116 415T1230 456ZM1210 372L1149 94Q1140 54 1151 37T1181 21T1216 40T1236 87L1299 362Q1306 392 1296 410T1270 432T1236 421T1210 372Z"  />
<glyph unicode="&#x2039;" horiz-adv-x="600" d="M56 315L544 531V409L192 266V264L544 122V0L56 216V315Z"  />
<glyph unicode="&#x203A;" horiz-adv-x="600" d="M544 211L56 0V121L418 264V266L56 410V531L544 319V211Z"  />
<glyph unicode="&#x20AC;" horiz-adv-x="657" d="M31 452H97Q108 515 132 566T193 653T274 709T374 729Q425 729 466 714T538 671T588 606T614 523H520Q508 581 472 614T373 647Q298 647 255 595T197 452H400V395H191Q190 385 190 375T190 355Q190 344 190 334T191 314H400V257H198Q214 163 261 115T381 67Q450 67 488 112T534 226H624Q622 176 605 132T556 56T480 4T382 -15Q328 -15 281 3T197 56T134 141T97 257H31V314H90Q89 324 89 334T89 355Q89 365 89 375T90 395H31V452Z"  />
<glyph unicode="&#x2116;" horiz-adv-x="1112" d="M215 131L274 587Q274 599 270 612T257 636T230 655T187 663V693H469L715 247L749 528Q754 570 769 608T808 672T863 704T932 693Q958 679 968 648T973 583T943 525T875 498Q859 498 848 503T827 517T812 537T801 562Q797 553 794 542T786 520L720 0H612L311 552L255 143Q244 101 224 65T178 9T120 -14T55 10Q40 21 33 40T25 82T32 127T53 165T89 190T138 192Q154 190 166 182T187 162T199 136T203 106Q205 110 209 118T215 131ZM986 320Q983 342 975 351T957 360T940 349T932 320V146Q932 110 940 97T959 86T977 105T986 146V320ZM796 35H1112V5H796V35ZM960 374Q1008 373 1040 351T1088 294T1104 221T1088 147T1040 90T960 66Q903 65 867 87T812 144T795 219T815 294T870 352T960 374Z"  />
<glyph unicode="&#x2122;" horiz-adv-x="961" d="M140 677Q113 672 97 658T71 626T59 591T56 562H32V693H418V562H394Q394 585 387 606T368 642T338 667T300 677V348H354V325H93V348H140V677ZM441 670V693H629L692 522L756 693H953V670H914V348H953V325H722V348H756V629L645 325H621L502 623V385Q502 367 505 359T515 349T530 347T552 348V325H431V348Q440 348 448 347T463 348T474 359T478 385V670H441Z"  />

</font>
</defs>
</svg>
